g m_DLC_BlenderFX:m_DLC_BlanderFX_01
v 0.3710146 -0.4749725 -0.1205499
v 0.4822461 0.4454368 -0.1566913
v 0.4102232 0.4454368 -0.2980446
v 0.3156039 -0.4749725 -0.2292996
v 0.2959798 0.4390604 -0.4043672
v 0.2281873 -0.468596 -0.3110589
v 0.156585 0.4390604 -0.4753923
v 0.1209444 -0.468596 -0.3657019
v 1.372409E-08 0.4454368 -0.5070636
v -2.181194E-10 -0.4749725 -0.3901077
v 0.3901076 -0.4749725 -3.271804E-10
v 0.5070633 0.4454368 2.058615E-08
v 0.3710143 -0.4749725 0.1205499
v 0.4822459 0.4454368 0.1566912
v 0.3156037 -0.4749725 0.2292995
v 0.4102229 0.4454368 0.2980444
v 0.2292995 -0.4749725 0.3156037
v 0.2980444 0.4454368 0.4102229
v 0.1209444 -0.468596 0.3660456
v 0.1565849 0.4390604 0.4757359
v 0.002064812 -0.468596 0.3848743
v 0.002064822 0.4390604 0.5002096
v -0.1205499 -0.4749725 0.3710144
v -0.1566912 0.4454368 0.4822459
v -0.2292995 -0.4749725 0.3156037
v -0.2980444 0.4454368 0.4102229
v -0.3156037 -0.4749725 0.2292995
v -0.410223 0.4454368 0.2980445
v -0.3710144 -0.4749725 0.1205499
v -0.4822459 0.4454368 0.1566913
v -0.3901077 -0.4749725 -3.271804E-10
v -0.5070634 0.4454368 2.058615E-08
v -0.3710144 -0.4749725 -0.1205499
v -0.4822459 0.4454368 -0.1566912
v -0.3156038 -0.4749725 -0.2292995
v -0.410223 0.4454368 -0.2980445
v -0.2292996 -0.4749725 -0.3156038
v -0.2980445 0.4454368 -0.410223
v -0.1205499 -0.4749725 -0.3710145
v -0.1566913 0.4454368 -0.482246
v -2.181194E-10 -0.4749725 -0.3901077
v 1.372409E-08 0.4454368 -0.5070636
vt 0.7998496 0.9759026
vt 0.7998496 0.2891714
vt 0.8498192 0.2891714
vt 0.8498192 0.9759026
vt 0.8997889 0.2891714
vt 0.8997889 0.9759026
vt 0.9497585 0.2891714
vt 0.9497585 0.9759026
vt 0.9997281 0.2891714
vt 0.9997281 0.9759026
vt 0.7498799 0.9759026
vt 0.7498799 0.2891714
vt 0.6999103 0.9759026
vt 0.6999103 0.2891714
vt 0.6499407 0.9759026
vt 0.6499407 0.2891714
vt 0.5999711 0.9759026
vt 0.5999711 0.2891714
vt 0.5500014 0.9759026
vt 0.5500014 0.2891714
vt 0.5000318 0.9759026
vt 0.5000318 0.2891714
vt 0.4500622 0.9759026
vt 0.4500622 0.2891714
vt 0.4000925 0.9759026
vt 0.4000925 0.2891714
vt 0.3501229 0.9759026
vt 0.3501229 0.2891714
vt 0.3001532 0.9759026
vt 0.3001532 0.2891714
vt 0.2501836 0.9759026
vt 0.2501836 0.2891714
vt 0.2002139 0.9759026
vt 0.2002139 0.2891714
vt 0.1502443 0.9759026
vt 0.1502443 0.2891714
vt 0.1002747 0.9759026
vt 0.1002747 0.2891714
vt 0.05030498 0.9759026
vt 0.05030501 0.2891714
vt 0.0003353357 0.9759026
vt 0.0003353357 0.2891714
vn 0.9434704 -0.1260557 -0.306551
vn 0.9434704 -0.1260557 -0.306551
vn 0.7950957 -0.1263773 -0.5931708
vn 0.7951818 -0.1263772 -0.5930555
vn 0.570875 -0.1256924 -0.8113587
vn 0.5709618 -0.1256924 -0.8112978
vn 0.3227257 -0.1256083 -0.9381208
vn 0.3227277 -0.1256084 -0.9381202
vn 0.01850676 -0.1264424 -0.9918013
vn 0.01850542 -0.1264424 -0.9918013
vn 0.9920232 -0.1260556 1.044294E-06
vn 0.9920232 -0.1260556 1.009657E-06
vn 0.9434701 -0.1260557 0.3065518
vn 0.9434701 -0.1260557 0.3065519
vn 0.8025637 -0.1260557 0.5830964
vn 0.8025637 -0.1260557 0.5830964
vn 0.5723521 -0.1263933 0.8102086
vn 0.5722542 -0.1263933 0.8102775
vn 0.2913343 -0.1256721 0.9483306
vn 0.2912515 -0.1256722 0.948356
vn 0.01814855 -0.125584 0.991917
vn 0.01812351 -0.125584 0.9919174
vn -0.287846 -0.1264607 0.9492905
vn -0.2878754 -0.1264607 0.9492815
vn -0.5830964 -0.1260557 0.8025637
vn -0.5830964 -0.1260557 0.8025637
vn -0.8025637 -0.1260557 0.5830966
vn -0.8025636 -0.1260557 0.5830966
vn -0.9434701 -0.1260557 0.3065518
vn -0.9434701 -0.1260557 0.3065519
vn -0.9920232 -0.1260557 0
vn -0.9920232 -0.1260556 0
vn -0.9434702 -0.1260557 -0.3065518
vn -0.9434702 -0.1260557 -0.3065518
vn -0.8025639 -0.1260557 -0.5830963
vn -0.8025639 -0.1260557 -0.5830963
vn -0.5830966 -0.1260558 -0.8025636
vn -0.5830966 -0.1260557 -0.8025635
vn -0.3065521 -0.1260557 -0.94347
vn -0.3065521 -0.1260557 -0.94347
vn 0.01850542 -0.1264424 -0.9918013
vn 0.01850676 -0.1264424 -0.9918013
g m_DLC_BlenderFX:m_DLC_BlanderFX_01_0
f 3/3/3 2/2/2 1/1/1
f 4/4/4 3/3/3 1/1/1
f 5/5/5 3/3/3 4/4/4
f 6/6/6 5/5/5 4/4/4
f 7/7/7 5/5/5 6/6/6
f 8/8/8 7/7/7 6/6/6
f 9/9/9 7/7/7 8/8/8
f 10/10/10 9/9/9 8/8/8
f 1/1/1 2/2/2 11/11/11
f 2/2/2 12/12/12 11/11/11
f 11/11/11 12/12/12 13/13/13
f 12/12/12 14/14/14 13/13/13
f 13/13/13 14/14/14 15/15/15
f 14/14/14 16/16/16 15/15/15
f 15/15/15 16/16/16 17/17/17
f 16/16/16 18/18/18 17/17/17
f 17/17/17 18/18/18 19/19/19
f 18/18/18 20/20/20 19/19/19
f 19/19/19 20/20/20 21/21/21
f 20/20/20 22/22/22 21/21/21
f 21/21/21 22/22/22 23/23/23
f 22/22/22 24/24/24 23/23/23
f 23/23/23 24/24/24 25/25/25
f 24/24/24 26/26/26 25/25/25
f 25/25/25 26/26/26 27/27/27
f 26/26/26 28/28/28 27/27/27
f 27/27/27 28/28/28 29/29/29
f 28/28/28 30/30/30 29/29/29
f 29/29/29 30/30/30 31/31/31
f 30/30/30 32/32/32 31/31/31
f 31/31/31 32/32/32 33/33/33
f 32/32/32 34/34/34 33/33/33
f 33/33/33 34/34/34 35/35/35
f 34/34/34 36/36/36 35/35/35
f 35/35/35 36/36/36 37/37/37
f 36/36/36 38/38/38 37/37/37
f 37/37/37 38/38/38 39/39/39
f 38/38/38 40/40/40 39/39/39
f 39/39/39 40/40/40 41/41/41
f 40/40/40 42/42/42 41/41/41
