g m_dlc2_scooter_rear_suspension_01
v 0.1957893 -0.07843371 -0.7156258
v 0.1957893 -0.08865494 -0.753772
v 0.1782309 -0.0704771 -0.753772
v 0.1782309 -0.06269126 -0.7247147
v 0.1957893 -0.0505088 -0.6877009
v 0.1782309 -0.04141987 -0.7034433
v 0.1957893 -0.01236263 -0.6774797
v 0.1782309 -0.01236263 -0.6956576
v 0.1957893 0.02578354 -0.6877009
v 0.1782309 0.0166946 -0.7034433
v 0.1957904 0.05370846 -0.7156258
v 0.1782628 0.03967133 -0.7264217
v 0.1975909 0.1198741 -0.8296395
v 0.18 0.1035165 -0.8364368
v 0.1782309 -0.06279854 -0.7825313
v 0.1957761 -0.07843371 -0.7919182
v 0.1800268 0.05240936 -0.8900492
v 0.1975998 0.04361911 -0.9058944
v 0.1975897 0.1273529 -0.8575506
v 0.1800313 0.1091751 -0.8575506
v 0.1975897 0.1198741 -0.885462
v 0.1800313 0.1041317 -0.8763731
v 0.1975897 0.09944164 -0.9058944
v 0.1800313 0.09035272 -0.890152
v 0.1975897 0.07153038 -0.9133732
v 0.1800313 0.07153038 -0.8951954
v 0.1800313 0.07153038 -0.8575506
v 0.1782309 -0.01236263 -0.753772
v 0.231067 -0.07843371 -0.7156258
v 0.231067 -0.0505088 -0.6877009
v 0.2486255 -0.04141987 -0.7034433
v 0.2486255 -0.06269126 -0.7247147
v 0.231067 -0.08865494 -0.753772
v 0.2486255 -0.0704771 -0.753772
v 0.2486255 -0.01236263 -0.6956576
v 0.231067 -0.01236263 -0.6774797
v 0.2486255 0.0166946 -0.7034433
v 0.231067 0.02578354 -0.6877009
v 0.2486386 0.03967224 -0.7264211
v 0.231067 0.05370846 -0.7156258
v 0.2493558 0.1035174 -0.836436
v 0.2318101 0.1198741 -0.8296395
v 0.2310558 -0.07843371 -0.7919182
v 0.2486255 -0.06276485 -0.7825109
v 0.2318188 0.04361911 -0.9058944
v 0.2493668 0.05239418 -0.8900769
v 0.2493686 0.1091751 -0.8575506
v 0.2318101 0.1273529 -0.8575506
v 0.2493686 0.1041317 -0.8763731
v 0.2318101 0.1198741 -0.885462
v 0.2493686 0.09035272 -0.890152
v 0.2318101 0.09944164 -0.9058944
v 0.2493686 0.07153038 -0.8951954
v 0.2318101 0.07153038 -0.9133732
v 0.2493686 0.07153038 -0.8575506
v 0.2486255 -0.01236263 -0.753772
v 0.1957893 -0.07843371 -0.7156258
v 0.1957893 -0.0505088 -0.6877009
v 0.231067 -0.0505088 -0.6877009
v 0.231067 -0.07843371 -0.7156258
v 0.231067 -0.01236263 -0.6774797
v 0.1957893 -0.01236263 -0.6774797
v 0.231067 0.02578354 -0.6877009
v 0.1957893 0.02578354 -0.6877009
v 0.231067 0.05370846 -0.7156258
v 0.1957904 0.05370846 -0.7156258
v 0.1957893 -0.08865494 -0.753772
v 0.231067 -0.08865494 -0.753772
v 0.1975909 0.1198741 -0.8296395
v 0.2318101 0.1198741 -0.8296395
v 0.2318101 0.1273529 -0.8575506
v 0.1975897 0.1273529 -0.8575506
v 0.2318101 0.1198741 -0.885462
v 0.1975897 0.1198741 -0.885462
v 0.2318101 0.09944164 -0.9058944
v 0.1975897 0.09944164 -0.9058944
v 0.1957761 -0.07843371 -0.7919182
v 0.1957893 -0.08865494 -0.753772
v 0.231067 -0.08865494 -0.753772
v 0.2310558 -0.07843371 -0.7919182
v 0.2318188 0.04361911 -0.9058944
v 0.1975998 0.04361911 -0.9058944
v 0.1975897 0.07153038 -0.9133732
v 0.2318101 0.07153038 -0.9133732
v 0.1975897 0.09944164 -0.9058944
v 0.2318101 0.09944164 -0.9058944
v 0.278336 0.01104591 -0.7193133
v 0.278336 0.02928909 -0.7514082
v 0.2883263 0.02180744 -0.7576792
v 0.2883263 0.00183006 -0.7225334
v 0.2883263 -0.0123682 -0.7538545
v 0.2883263 -0.00544476 -0.7875394
v 0.278336 0.02771778 -0.7654488
v 0.278336 0.00283134 -0.7927169
v 0.2883263 -0.04226486 -0.7708483
v 0.278336 -0.01100777 -0.7955614
v 0.278336 -0.04463161 -0.7803192
v 0.2883263 -0.03776882 -0.7306725
v 0.278336 -0.03798347 -0.7209126
v 0.278336 -0.00182209 -0.7134801
v 0.278336 -0.05161339 -0.7680365
v 0.278336 -0.04750763 -0.7313482
v 0.278336 -0.00182209 -0.7134801
v 0.2487354 -0.00169205 -0.7134534
v 0.2487354 0.01098026 -0.7191979
v 0.278336 0.01104591 -0.7193133
v 0.278336 0.02928909 -0.7514082
v 0.2487354 0.02935471 -0.7515235
v 0.2487354 0.02780731 -0.7653508
v 0.278336 0.02771778 -0.7654488
v 0.278336 0.00283134 -0.7927169
v 0.2487354 0.00274181 -0.7928151
v 0.2487354 -0.01088684 -0.7956161
v 0.278336 -0.01100777 -0.7955614
v 0.278336 -0.04463161 -0.7803192
v 0.2487354 -0.04475258 -0.7802645
v 0.2487354 -0.05162815 -0.7681684
v 0.278336 -0.05161339 -0.7680365
v 0.2487354 -0.03811352 -0.7209392
v 0.278336 -0.03798347 -0.7209126
v 0.278336 -0.04750763 -0.7313482
v 0.2487354 -0.04749283 -0.7312163
v 0.2487354 -0.05162815 -0.7681684
v 0.278336 -0.05161339 -0.7680365
v 0.2693848 0.08801349 -0.8350738
v 0.2693848 0.1003455 -0.8567691
v 0.2758408 0.09551059 -0.8608216
v 0.2758408 0.08205795 -0.8371545
v 0.2758408 0.07249693 -0.8582461
v 0.2758408 0.07715916 -0.8809292
v 0.2693848 0.09933005 -0.8658426
v 0.2693848 0.08250736 -0.8842752
v 0.2758408 0.05236465 -0.8696896
v 0.2693848 0.07356415 -0.8861134
v 0.2693848 0.05083519 -0.87581
v 0.2758408 0.0553923 -0.8426355
v 0.2693848 0.05525356 -0.8363283
v 0.2693848 0.07969783 -0.8313041
v 0.2693848 0.04632339 -0.8678725
v 0.2693848 0.04909882 -0.8430722
v 0.2693848 0.07969783 -0.8313041
v 0.2494565 0.07978188 -0.8312868
v 0.2494565 0.08797112 -0.8349991
v 0.2693848 0.08801349 -0.8350738
v 0.2693848 0.1003455 -0.8567691
v 0.2494565 0.1003879 -0.8568437
v 0.2494565 0.09938789 -0.8657792
v 0.2693848 0.09933005 -0.8658426
v 0.2693848 0.08250736 -0.8842752
v 0.2494565 0.08244953 -0.8843385
v 0.2494565 0.07364229 -0.8861489
v 0.2693848 0.07356415 -0.8861134
v 0.2693848 0.05083519 -0.87581
v 0.2494565 0.05075706 -0.8757745
v 0.2494565 0.04631386 -0.8679578
v 0.2693848 0.04632339 -0.8678725
v 0.2693848 0.04909882 -0.8430722
v 0.2494565 0.04910835 -0.8429869
v 0.2693848 0.04909882 -0.8430722
v 0.2494565 0.04910835 -0.8429869
v 0.2494565 0.05516953 -0.8363457
v 0.2693848 0.05525356 -0.8363283
vt 0.4489746 0.9570313
vt 0.4592285 0.9511719
vt 0.4543457 0.9462891
vt 0.4472656 0.9501953
vt 0.4372559 0.9570313
vt 0.4389648 0.9501953
vt 0.427002 0.9511719
vt 0.4318848 0.9458008
vt 0.4211426 0.940918
vt 0.4277344 0.9389648
vt 0.4208984 0.9291992
vt 0.4277344 0.9296875
vt 0.4316406 0.8930664
vt 0.4377441 0.8959961
vt 0.4584961 0.9394531
vt 0.4650879 0.9414063
vt 0.458252 0.8959961
vt 0.4648438 0.8935547
vt 0.4362793 0.8857422
vt 0.4411621 0.8911133
vt 0.4440918 0.8818359
vt 0.4458008 0.8881836
vt 0.4528809 0.8818359
vt 0.4511719 0.8886719
vt 0.4604492 0.8862305
vt 0.4555664 0.8911133
vt 0.4482422 0.8984375
vt 0.4431152 0.9345703
vt 0.213623 0.385498
vt 0.213623 0.3735352
vt 0.2070313 0.3754883
vt 0.2069092 0.3837891
vt 0.2078857 0.3955078
vt 0.2028809 0.3908691
vt 0.2030029 0.3684082
vt 0.2078857 0.3635254
vt 0.1959229 0.3640137
vt 0.197876 0.3574219
vt 0.1870117 0.3637695
vt 0.1864014 0.3569336
vt 0.15271 0.3720703
vt 0.1496582 0.3659668
vt 0.1977539 0.4016113
vt 0.1958008 0.3947754
vt 0.1501465 0.3991699
vt 0.1523438 0.3925781
vt 0.147583 0.3752441
vt 0.142334 0.3708496
vt 0.1450195 0.3798828
vt 0.1381836 0.378418
vt 0.1450195 0.3852539
vt 0.1384277 0.387207
vt 0.1477051 0.3898926
vt 0.1428223 0.3947754
vt 0.1551514 0.3825684
vt 0.1914063 0.3793945
vt 0.9921875 0.2868652
vt 0.9921875 0.2758789
vt 0.9824219 0.2758789
vt 0.9824219 0.2868652
vt 0.9824219 0.2651367
vt 0.9921875 0.2651367
vt 0.9824219 0.2541504
vt 0.9921875 0.2541504
vt 0.9824219 0.2432861
vt 0.9921875 0.2432861
vt 0.9921875 0.2978516
vt 0.9824219 0.2978516
vt 0.9916992 0.2069092
vt 0.9824219 0.2069092
vt 0.9824219 0.1988525
vt 0.9916992 0.1988525
vt 0.9824219 0.190918
vt 0.9916992 0.190918
vt 0.9824219 0.1829834
vt 0.9916992 0.1829834
vt 0.6416016 0.1256104
vt 0.6416016 0.1365967
vt 0.6513672 0.1364746
vt 0.6513672 0.1256104
vt 0.6513672 0.07952881
vt 0.6420898 0.07952881
vt 0.6420898 0.07159424
vt 0.6513672 0.0715332
vt 0.6420898 0.06359863
vt 0.6513672 0.0635376
vt 0.4206543 0.0078125
vt 0.409668 0.0078125
vt 0.409668 0.01158905
vt 0.4206543 0.01160431
vt 0.4152832 0.01916504
vt 0.40625 0.02204895
vt 0.4060059 0.01037598
vt 0.4025879 0.0209198
vt 0.4152832 0.02851868
vt 0.4040527 0.02508545
vt 0.4130859 0.03161621
vt 0.4240723 0.02206421
vt 0.4277344 0.02093506
vt 0.4243164 0.01039886
vt 0.4174805 0.03161621
vt 0.4262695 0.02510071
vt 0.4543457 0.2120361
vt 0.4460449 0.2120361
vt 0.4460449 0.2158203
vt 0.4543457 0.2159424
vt 0.4543457 0.2260742
vt 0.4460449 0.2260742
vt 0.4460449 0.2299805
vt 0.4543457 0.2299805
vt 0.4543457 0.2402344
vt 0.4462891 0.2402344
vt 0.4462891 0.2440186
vt 0.4543457 0.2441406
vt 0.4543457 0.2543945
vt 0.4462891 0.2543945
vt 0.4462891 0.2583008
vt 0.4543457 0.2583008
vt 0.4462891 0.2017822
vt 0.4543457 0.2017822
vt 0.4543457 0.197876
vt 0.4462891 0.197876
vt 0.4462891 0.1876221
vt 0.4543457 0.1877441
vt 0.6850586 0.3154297
vt 0.6850586 0.3227539
vt 0.6875 0.3227539
vt 0.6875 0.3154297
vt 0.6928711 0.3190918
vt 0.6948242 0.3249512
vt 0.6870117 0.3251953
vt 0.6938477 0.3273926
vt 0.6992188 0.3190918
vt 0.6967773 0.326416
vt 0.7011719 0.3205566
vt 0.6948242 0.3129883
vt 0.6938477 0.310791
vt 0.6870117 0.3129883
vt 0.7011719 0.317627
vt 0.6967773 0.3115234
vt 0.9604492 0.3347168
vt 0.9663086 0.3347168
vt 0.9663086 0.3322754
vt 0.9604492 0.3322754
vt 0.9604492 0.3254395
vt 0.9663086 0.3254395
vt 0.9663086 0.322998
vt 0.9604492 0.322998
vt 0.9604492 0.315918
vt 0.9663086 0.315918
vt 0.9663086 0.3134766
vt 0.9604492 0.3134766
vt 0.9604492 0.3066406
vt 0.9663086 0.3066406
vt 0.9663086 0.3041992
vt 0.9604492 0.3039551
vt 0.9604492 0.2971191
vt 0.9663086 0.2971191
vt 0.9604492 0.3442383
vt 0.9663086 0.3442383
vt 0.9663086 0.3417969
vt 0.9604492 0.3417969
vn -0.2771163 -0.8321088 0.480418
vn -0.2765697 -0.9609939 0.0002363351
vn -0.9027135 -0.4302419 0.0004275041
vn -0.9029256 -0.3722153 0.2148984
vn -0.2771165 -0.4804171 0.8321093
vn -0.9029253 -0.2148979 0.3722162
vn -0.2771164 0 0.9608364
vn -0.9029256 0 0.4297968
vn -0.2803418 0.4810469 0.8306638
vn -0.9048876 0.2147452 0.367509
vn -0.3035892 0.7961835 0.5233788
vn -0.9586967 0.2436282 0.1467853
vn -0.2991479 0.8477324 0.4380185
vn -0.9585676 0.2576582 0.1214924
vn -0.9350995 -0.2590455 -0.2418356
vn -0.291547 -0.7192202 -0.6306525
vn -0.9372619 -0.2137074 -0.2754439
vn -0.2891691 -0.6027556 -0.7436846
vn -0.2777869 0.9606413 0.00167132
vn -0.8619211 0.5070338 0.002939479
vn -0.2733551 0.8330413 -0.4809567
vn -0.859054 0.4433055 -0.2559425
vn -0.2733539 0.4809563 -0.8330417
vn -0.8590537 0.2559425 -0.4433061
vn -0.274058 -0.0003038609 -0.9617131
vn -0.859408 -0.000616683 -0.5112903
vn -0.9999233 0.007298932 -0.01000708
vn -0.9999354 0.006749965 -0.009145963
vn 0.2771163 -0.8321087 0.4804181
vn 0.2771165 -0.4804171 0.8321093
vn 0.9029253 -0.2148982 0.3722161
vn 0.9029256 -0.3722153 0.2148983
vn 0.2767427 -0.9609441 0.0001225264
vn 0.9026349 -0.4304071 0.0001738788
vn 0.9029254 0 0.4297971
vn 0.2771162 0 0.9608364
vn 0.9047496 0.2145584 0.3679574
vn 0.2802836 0.4810167 0.8307009
vn 0.9581478 0.2365482 0.1612382
vn 0.3003594 0.7946187 0.5276033
vn 0.9591838 0.248108 0.1356796
vn 0.3025471 0.8446175 0.4416862
vn 0.2887622 -0.722122 -0.6286145
vn 0.9346422 -0.2689147 -0.2326559
vn 0.2921747 -0.6050929 -0.7406055
vn 0.9383007 -0.2230867 -0.2642426
vn 0.8621224 0.5066888 0.003384491
vn 0.2778329 0.9606279 0.001741504
vn 0.8590536 0.4433057 -0.2559431
vn 0.2733549 0.8330412 -0.4809569
vn 0.8590534 0.2559426 -0.4433065
vn 0.2733538 0.4809563 -0.8330417
vn 0.8595135 -0.0003535445 -0.5111129
vn 0.2739103 -0.0001929441 -0.9617552
vn 0.999987 -0.003013366 0.00413025
vn 0.999989 -0.002786731 0.003774873
vn -0.2771163 -0.8321088 0.480418
vn -0.2771165 -0.4804171 0.8321093
vn 0.2771165 -0.4804171 0.8321093
vn 0.2771163 -0.8321087 0.4804181
vn 0.2771162 0 0.9608364
vn -0.2771164 0 0.9608364
vn 0.2802836 0.4810167 0.8307009
vn -0.2803418 0.4810469 0.8306638
vn 0.3003594 0.7946187 0.5276033
vn -0.3035892 0.7961835 0.5233788
vn -0.2765697 -0.9609939 0.0002363351
vn 0.2767427 -0.9609441 0.0001225264
vn -0.2991479 0.8477324 0.4380185
vn 0.3025471 0.8446175 0.4416862
vn 0.2778329 0.9606279 0.001741504
vn -0.2777869 0.9606413 0.00167132
vn 0.2733549 0.8330412 -0.4809569
vn -0.2733551 0.8330413 -0.4809567
vn 0.2733538 0.4809563 -0.8330417
vn -0.2733539 0.4809563 -0.8330417
vn -0.291547 -0.7192202 -0.6306525
vn -0.2765697 -0.9609939 0.0002363351
vn 0.2767427 -0.9609441 0.0001225264
vn 0.2887622 -0.722122 -0.6286145
vn 0.2921747 -0.6050929 -0.7406055
vn -0.2891691 -0.6027556 -0.7436846
vn -0.274058 -0.0003038609 -0.9617131
vn 0.2739103 -0.0001929441 -0.9617552
vn -0.2733539 0.4809563 -0.8330417
vn 0.2733538 0.4809563 -0.8330417
vn 0.2215478 0.7708273 0.5972788
vn 0.2215491 0.9075534 0.356739
vn 0.9126418 0.4062243 -0.04546132
vn 0.9126419 0.1687656 0.3722941
vn 1 -1.356675E-07 0
vn 0.912641 0.08229412 -0.4003921
vn 0.2215474 0.8062449 -0.5485308
vn 0.2215483 0.6197286 -0.7528964
vn 0.9126413 -0.3553642 -0.2019951
vn 0.2215466 -0.2725404 -0.9362899
vn 0.2215466 -0.5245398 -0.8220555
vn 0.9126418 -0.3019224 0.2755502
vn 0.2215471 -0.3298489 0.9176691
vn 0.2215459 -0.05883072 0.9733738
vn 0.2215473 -0.9746841 -0.03012908
vn 0.2215469 -0.9439127 0.2448384
vn 0.2215459 -0.05883072 0.9733738
vn 0.0007528603 -0.03337099 0.9994428
vn 0.0007549564 0.773654 0.6336077
vn 0.2215478 0.7708273 0.5972788
vn 0.2215491 0.9075534 0.356739
vn 0.0007560817 0.9402143 0.3405825
vn 0.0007560843 0.8416692 -0.5399929
vn 0.2215474 0.8062449 -0.5485308
vn 0.2215483 0.6197286 -0.7528964
vn 0.0007569495 0.614454 -0.7889523
vn 0.0007611417 -0.2534736 -0.967342
vn 0.2215466 -0.2725404 -0.9362899
vn 0.2215466 -0.5245398 -0.8220555
vn 0.0007603499 -0.5604594 -0.8281816
vn 0.0007554998 -0.9983246 -0.05785797
vn 0.2215473 -0.9746841 -0.03012908
vn 0.0007537775 -0.3635256 0.9315839
vn 0.2215471 -0.3298489 0.9176691
vn 0.2215469 -0.9439127 0.2448384
vn 0.00075522 -0.9608387 0.2771071
vn 0.0007554998 -0.9983246 -0.05785797
vn 0.2215473 -0.9746841 -0.03012908
vn 0.2160308 0.7742788 0.5948303
vn 0.2160302 0.9072165 0.3609556
vn 0.9158769 0.3989687 -0.04464887
vn 0.9158772 0.1657505 0.3656444
vn 1 1.495888E-07 0
vn 0.9158776 0.08082379 -0.3932375
vn 0.2160343 0.8049826 -0.5525687
vn 0.2160338 0.6236356 -0.751271
vn 0.9158772 -0.3490153 -0.1983871
vn 0.2160334 -0.2767706 -0.9363374
vn 0.2160334 -0.5217913 -0.8252656
vn 0.9158774 -0.296528 0.2706286
vn 0.2160321 -0.3264564 0.9201936
vn 0.216032 -0.06294585 0.9743552
vn 0.2160325 -0.9760367 -0.02612009
vn 0.2160325 -0.9461176 0.241229
vn 0.216032 -0.06294585 0.9743552
vn 0.0007011713 -0.03902803 0.9992379
vn 0.0007011709 0.7772286 0.629218
vn 0.2160308 0.7742788 0.5948303
vn 0.2160302 0.9072165 0.3609556
vn 0.0007017589 0.9382718 0.3458981
vn 0.0007017602 0.8385991 -0.5447485
vn 0.2160343 0.8049826 -0.5525687
vn 0.2160338 0.6236356 -0.751271
vn 0.0007009957 0.6189132 -0.7854592
vn 0.0007009984 -0.2589452 -0.9658918
vn 0.2160334 -0.2767706 -0.9363374
vn 0.2160334 -0.5217913 -0.8252656
vn 0.0007011619 -0.5557674 -0.8313376
vn 0.0007011667 -0.9986361 -0.05220656
vn 0.2160325 -0.9760367 -0.02612009
vn 0.2160325 -0.9461176 0.241229
vn 0.0007018296 -0.9623917 0.2716651
vn 0.2160325 -0.9461176 0.241229
vn 0.0007018296 -0.9623917 0.2716651
vn 0.0007018261 -0.3582487 0.933626
vn 0.2160321 -0.3264564 0.9201936
g m_dlc2_scooter_rear_suspension_01_0
f 3/3/3 2/2/2 1/1/1
f 4/4/4 3/3/3 1/1/1
f 1/1/1 5/5/5 4/4/4
f 5/5/5 6/6/6 4/4/4
f 5/5/5 7/7/7 6/6/6
f 7/7/7 8/8/8 6/6/6
f 7/7/7 9/9/9 8/8/8
f 9/9/9 10/10/10 8/8/8
f 9/9/9 11/11/11 10/10/10
f 11/11/11 12/12/12 10/10/10
f 11/11/11 13/13/13 12/12/12
f 13/13/13 14/14/14 12/12/12
f 2/2/2 3/3/3 15/15/15
f 16/16/16 2/2/2 15/15/15
f 15/15/15 17/17/17 16/16/16
f 17/17/17 18/18/18 16/16/16
f 13/13/13 19/19/19 14/14/14
f 19/19/19 20/20/20 14/14/14
f 19/19/19 21/21/21 20/20/20
f 21/21/21 22/22/22 20/20/20
f 21/21/21 23/23/23 22/22/22
f 23/23/23 24/24/24 22/22/22
f 23/23/23 25/25/25 24/24/24
f 25/25/25 26/26/26 24/24/24
f 18/18/18 17/17/17 26/26/26
f 25/25/25 18/18/18 26/26/26
f 27/27/27 14/14/14 20/20/20
f 27/27/27 20/20/20 22/22/22
f 27/27/27 22/22/22 24/24/24
f 27/27/27 24/24/24 26/26/26
f 27/27/27 26/26/26 17/17/17
f 12/12/12 14/14/14 27/27/27
f 28/28/28 12/12/12 27/27/27
f 28/28/28 27/27/27 17/17/17
f 15/15/15 28/28/28 17/17/17
f 28/28/28 15/15/15 3/3/3
f 28/28/28 3/3/3 4/4/4
f 28/28/28 4/4/4 6/6/6
f 28/28/28 6/6/6 8/8/8
f 28/28/28 8/8/8 10/10/10
f 28/28/28 10/10/10 12/12/12
f 31/31/31 30/30/30 29/29/29
f 32/32/32 31/31/31 29/29/29
f 29/29/29 33/33/33 32/32/32
f 33/33/33 34/34/34 32/32/32
f 31/31/31 35/35/35 30/30/30
f 35/35/35 36/36/36 30/30/30
f 35/35/35 37/37/37 36/36/36
f 37/37/37 38/38/38 36/36/36
f 37/37/37 39/39/39 38/38/38
f 39/39/39 40/40/40 38/38/38
f 39/39/39 41/41/41 40/40/40
f 41/41/41 42/42/42 40/40/40
f 34/34/34 33/33/33 43/43/43
f 44/44/44 34/34/34 43/43/43
f 43/43/43 45/45/45 44/44/44
f 45/45/45 46/46/46 44/44/44
f 41/41/41 47/47/47 42/42/42
f 47/47/47 48/48/48 42/42/42
f 47/47/47 49/49/49 48/48/48
f 49/49/49 50/50/50 48/48/48
f 49/49/49 51/51/51 50/50/50
f 51/51/51 52/52/52 50/50/50
f 51/51/51 53/53/53 52/52/52
f 53/53/53 54/54/54 52/52/52
f 46/46/46 45/45/45 54/54/54
f 53/53/53 46/46/46 54/54/54
f 55/55/55 47/47/47 41/41/41
f 55/55/55 49/49/49 47/47/47
f 55/55/55 51/51/51 49/49/49
f 55/55/55 53/53/53 51/51/51
f 55/55/55 46/46/46 53/53/53
f 44/44/44 46/46/46 55/55/55
f 56/56/56 55/55/55 41/41/41
f 56/56/56 44/44/44 55/55/55
f 56/56/56 34/34/34 44/44/44
f 56/56/56 32/32/32 34/34/34
f 56/56/56 31/31/31 32/32/32
f 56/56/56 35/35/35 31/31/31
f 56/56/56 37/37/37 35/35/35
f 56/56/56 39/39/39 37/37/37
f 39/39/39 56/56/56 41/41/41
f 59/59/59 58/58/58 57/57/57
f 60/60/60 59/59/59 57/57/57
f 59/59/59 61/61/61 58/58/58
f 61/61/61 62/62/62 58/58/58
f 61/61/61 63/63/63 62/62/62
f 63/63/63 64/64/64 62/62/62
f 63/63/63 65/65/65 64/64/64
f 65/65/65 66/66/66 64/64/64
f 60/60/60 57/57/57 67/67/67
f 68/68/68 60/60/60 67/67/67
f 66/66/66 65/65/65 69/69/69
f 65/65/65 70/70/70 69/69/69
f 70/70/70 71/71/71 69/69/69
f 71/71/71 72/72/72 69/69/69
f 71/71/71 73/73/73 72/72/72
f 73/73/73 74/74/74 72/72/72
f 73/73/73 75/75/75 74/74/74
f 75/75/75 76/76/76 74/74/74
f 79/79/79 78/78/78 77/77/77
f 80/80/80 79/79/79 77/77/77
f 80/80/80 77/77/77 81/81/81
f 77/77/77 82/82/82 81/81/81
f 81/81/81 82/82/82 83/83/83
f 84/84/84 81/81/81 83/83/83
f 84/84/84 83/83/83 85/85/85
f 86/86/86 84/84/84 85/85/85
f 89/89/89 88/88/88 87/87/87
f 90/90/90 89/89/89 87/87/87
f 91/91/91 89/89/89 90/90/90
f 91/91/91 92/92/92 89/89/89
f 89/89/89 92/92/92 93/93/93
f 88/88/88 89/89/89 93/93/93
f 92/92/92 94/94/94 93/93/93
f 91/91/91 95/95/95 92/92/92
f 92/92/92 95/95/95 96/96/96
f 94/94/94 92/92/92 96/96/96
f 95/95/95 97/97/97 96/96/96
f 91/91/91 98/98/98 95/95/95
f 91/91/91 90/90/90 98/98/98
f 99/99/99 98/98/98 90/90/90
f 100/100/100 99/99/99 90/90/90
f 100/100/100 90/90/90 87/87/87
f 95/95/95 98/98/98 101/101/101
f 97/97/97 95/95/95 101/101/101
f 98/98/98 102/102/102 101/101/101
f 102/102/102 98/98/98 99/99/99
f 105/105/105 104/104/104 103/103/103
f 106/106/106 105/105/105 103/103/103
f 106/106/106 107/107/107 105/105/105
f 107/107/107 108/108/108 105/105/105
f 109/109/109 108/108/108 107/107/107
f 110/110/110 109/109/109 107/107/107
f 110/110/110 111/111/111 109/109/109
f 111/111/111 112/112/112 109/109/109
f 113/113/113 112/112/112 111/111/111
f 114/114/114 113/113/113 111/111/111
f 114/114/114 115/115/115 113/113/113
f 115/115/115 116/116/116 113/113/113
f 117/117/117 116/116/116 115/115/115
f 118/118/118 117/117/117 115/115/115
f 103/103/103 104/104/104 119/119/119
f 120/120/120 103/103/103 119/119/119
f 120/120/120 119/119/119 121/121/121
f 119/119/119 122/122/122 121/121/121
f 121/121/121 122/122/122 123/123/123
f 124/124/124 121/121/121 123/123/123
f 127/127/127 126/126/126 125/125/125
f 128/128/128 127/127/127 125/125/125
f 129/129/129 127/127/127 128/128/128
f 129/129/129 130/130/130 127/127/127
f 127/127/127 130/130/130 131/131/131
f 126/126/126 127/127/127 131/131/131
f 130/130/130 132/132/132 131/131/131
f 129/129/129 133/133/133 130/130/130
f 130/130/130 133/133/133 134/134/134
f 132/132/132 130/130/130 134/134/134
f 133/133/133 135/135/135 134/134/134
f 129/129/129 136/136/136 133/133/133
f 129/129/129 128/128/128 136/136/136
f 137/137/137 136/136/136 128/128/128
f 138/138/138 137/137/137 128/128/128
f 138/138/138 128/128/128 125/125/125
f 133/133/133 136/136/136 139/139/139
f 135/135/135 133/133/133 139/139/139
f 136/136/136 140/140/140 139/139/139
f 140/140/140 136/136/136 137/137/137
f 143/143/143 142/142/142 141/141/141
f 144/144/144 143/143/143 141/141/141
f 144/144/144 145/145/145 143/143/143
f 145/145/145 146/146/146 143/143/143
f 147/147/147 146/146/146 145/145/145
f 148/148/148 147/147/147 145/145/145
f 148/148/148 149/149/149 147/147/147
f 149/149/149 150/150/150 147/147/147
f 151/151/151 150/150/150 149/149/149
f 152/152/152 151/151/151 149/149/149
f 152/152/152 153/153/153 151/151/151
f 153/153/153 154/154/154 151/151/151
f 155/155/155 154/154/154 153/153/153
f 156/156/156 155/155/155 153/153/153
f 156/156/156 157/157/157 155/155/155
f 157/157/157 158/158/158 155/155/155
f 161/161/161 160/160/160 159/159/159
f 162/162/162 161/161/161 159/159/159
f 162/162/162 141/141/141 161/161/161
f 141/141/141 142/142/142 161/161/161
