g m_dlc2_pillar_middle_01
v 0.1419037 0.9 -0.2457838
v 0.1419037 0.3 -0.2457838
v 0.2457843 0.3 -0.1419034
v 0.2457843 0.9 -0.1419034
v 0 0.9 -0.2838067
v 0 0.3 -0.2838067
v 0.1419037 0.3 -0.2457838
v 0.1419037 0.9 -0.2457838
v -0.1419037 0.9 -0.2457838
v -0.1419037 0.3 -0.2457838
v 0 0.3 -0.2838067
v 0 0.9 -0.2838067
v -0.2457837 0.9 -0.1419034
v -0.2457837 0.3 -0.1419034
v -0.2838074 0.3 0
v -0.2838074 0.9 0
v -0.2457837 0.9 0.1419034
v -0.2457837 0.3 0.1419034
v -0.2838074 0.3 0
v -0.2838074 0.9 0
v -0.1419037 0.3 0.2457838
v -0.1419037 0.9 0.2457838
v 0 0.9 0.2838067
v 0 0.3 0.2838067
v 0.1419037 0.9 0.2457838
v 0.1419037 0.3 0.2457838
v 0 0.3 0.2838067
v 0 0.9 0.2838067
v 0.2457843 0.9 0.1419034
v 0.2457843 0.3 0.1419034
v 0.2838068 0.9 0
v 0.2838068 0.3 0
v 0.2457843 0.3 -0.1419034
v 0.2838068 0.3 0
v 0.2838068 0.9 0
v 0.2457843 0.9 -0.1419034
vt 0.1650391 0.2587891
vt 0.01000214 0.2587891
vt 0.01000214 0.291748
vt 0.1650391 0.291748
vt 0.1650391 0.2261963
vt 0.01000214 0.2261963
vt 0.01000214 0.2587891
vt 0.1650391 0.2587891
vt 0.1650391 0.5864258
vt 0.01000214 0.5864258
vt 0.01000214 0.6191406
vt 0.1650391 0.6191406
vt 0.1650391 0.5537109
vt 0.01000214 0.5537109
vt 0.01000214 0.5209961
vt 0.1650391 0.5209961
vt 0.1650391 0.4880371
vt 0.01000214 0.4880371
vt 0.01000214 0.5209961
vt 0.1650391 0.5209961
vt 0.01000214 0.4553223
vt 0.1650391 0.4553223
vt 0.1650391 0.4226074
vt 0.01000214 0.4226074
vt 0.1650391 0.3898926
vt 0.01000214 0.3898926
vt 0.01000214 0.4226074
vt 0.1650391 0.4226074
vt 0.1650391 0.3571777
vt 0.01000214 0.3571777
vt 0.1650391 0.3244629
vt 0.01000214 0.3244629
vt 0.01000214 0.291748
vt 0.01000214 0.3244629
vt 0.1650391 0.3244629
vt 0.1650391 0.291748
vn 0.7071058 0 -0.7071077
vn 0.7071058 0 -0.7071077
vn 0.7071058 0 -0.7071077
vn 0.7071058 0 -0.7071077
vn 0 0 -1
vn 0 0 -1
vn 0.4999998 0 -0.8660256
vn 0.4999998 0 -0.8660256
vn -0.4999998 0 -0.8660256
vn -0.4999998 0 -0.8660256
vn 0 0 -1
vn 0 0 -1
vn -0.8660249 0 -0.500001
vn -0.8660249 0 -0.500001
vn -1 0 0
vn -1 0 0
vn -0.8660249 0 0.500001
vn -0.8660249 0 0.500001
vn -1 0 0
vn -1 0 0
vn -0.5000002 0 0.8660253
vn -0.5000002 0 0.8660253
vn 0 0 1
vn 0 0 1
vn 0.5000002 0 0.8660253
vn 0.5000002 0 0.8660253
vn 0 0 1
vn 0 0 1
vn 0.8660249 0 0.500001
vn 0.8660249 0 0.500001
vn 1 0 0
vn 1 0 0
vn 0.8660249 0 -0.500001
vn 1 0 0
vn 1 0 0
vn 0.8660249 0 -0.500001
g m_dlc2_pillar_middle_01_0
f 3/3/3 2/2/2 1/1/1
f 4/4/4 3/3/3 1/1/1
f 7/7/7 6/6/6 5/5/5
f 8/8/8 7/7/7 5/5/5
f 11/11/11 10/10/10 9/9/9
f 12/12/12 11/11/11 9/9/9
f 9/9/9 10/10/10 13/13/13
f 10/10/10 14/14/14 13/13/13
f 14/14/14 15/15/15 13/13/13
f 15/15/15 16/16/16 13/13/13
f 19/19/19 18/18/18 17/17/17
f 20/20/20 19/19/19 17/17/17
f 17/17/17 18/18/18 21/21/21
f 22/22/22 17/17/17 21/21/21
f 22/22/22 21/21/21 23/23/23
f 21/21/21 24/24/24 23/23/23
f 27/27/27 26/26/26 25/25/25
f 28/28/28 27/27/27 25/25/25
f 25/25/25 26/26/26 29/29/29
f 26/26/26 30/30/30 29/29/29
f 29/29/29 30/30/30 31/31/31
f 30/30/30 32/32/32 31/31/31
f 35/35/35 34/34/34 33/33/33
f 36/36/36 35/35/35 33/33/33
