g m_DLC_BlenderFX:m_DLC_blenderFX_02
v 0.3313161 -0.4558551 -0.1076511
v 0.4306458 0.4275083 -0.1399253
v 0.3663293 0.4275083 -0.2661538
v 0.2818342 -0.4558551 -0.2047645
v 0.2661538 0.4275083 -0.3663292
v 0.2047645 -0.4558551 -0.2818342
v 0.1399253 0.4275083 -0.4306457
v 0.1076511 -0.4558551 -0.3313159
v 1.225562E-08 0.4275083 -0.4528078
v -1.947806E-10 -0.4558551 -0.3483662
v 0.3483661 -0.4558551 -2.921721E-10
v 0.4528075 0.4275083 1.838344E-08
v 0.3313158 -0.4558551 0.107651
v 0.4306455 0.4275083 0.1399253
v 0.2818341 -0.4558551 0.2047644
v 0.3663291 0.4275083 0.2661537
v 0.2047644 -0.4558551 0.2818341
v 0.2661536 0.4275083 0.3663291
v 0.107651 -0.4558551 0.3313158
v 0.1399252 0.4275083 0.4306456
v -1.05769E-08 -0.4558551 0.3483661
v -1.239095E-09 0.4275083 0.4528077
v -0.1076511 -0.4558551 0.3313159
v -0.1399252 0.4275083 0.4306456
v -0.2047645 -0.4558551 0.2818341
v -0.2661537 0.4275083 0.3663291
v -0.2818341 -0.4558551 0.2047645
v -0.3663291 0.4275083 0.2661537
v -0.3313159 -0.4558551 0.1076511
v -0.4306456 0.4275083 0.1399253
v -0.3483662 -0.4558551 -2.921721E-10
v -0.4528076 0.4275083 1.838344E-08
v -0.3313159 -0.4558551 -0.1076511
v -0.4306456 0.4275083 -0.1399252
v -0.2818342 -0.4558551 -0.2047645
v -0.3663291 0.4275083 -0.2661537
v -0.2047645 -0.4558551 -0.2818342
v -0.2661537 0.4275083 -0.3663292
v -0.1076511 -0.4558551 -0.3313159
v -0.1399253 0.4275083 -0.4306457
v -1.947806E-10 -0.4558551 -0.3483662
v 1.225562E-08 0.4275083 -0.4528078
vt 0.7998496 2.980232E-08
vt 0.7998496 0.5616204
vt 0.8498192 0.5616204
vt 0.8498192 2.980232E-08
vt 0.8997889 0.5616204
vt 0.8997889 2.980232E-08
vt 0.9497585 0.5616204
vt 0.9497585 0
vt 0.9997281 0.5616204
vt 0.9997281 2.980232E-08
vt 0.7498799 2.980232E-08
vt 0.7498799 0.5616204
vt 0.6999103 2.980232E-08
vt 0.6999103 0.5616204
vt 0.6499407 2.980232E-08
vt 0.6499407 0.5616204
vt 0.5999711 2.980232E-08
vt 0.5999711 0.5616204
vt 0.5500014 2.980232E-08
vt 0.5500014 0.5616204
vt 0.5000318 2.980232E-08
vt 0.5000318 0.5616204
vt 0.4500622 2.980232E-08
vt 0.4500622 0.5616204
vt 0.4000925 2.980232E-08
vt 0.4000925 0.5616204
vt 0.3501229 2.980232E-08
vt 0.3501229 0.5616204
vt 0.3001532 2.980232E-08
vt 0.3001532 0.5616204
vt 0.2501836 2.980232E-08
vt 0.2501836 0.5616204
vt 0.2002139 2.980232E-08
vt 0.2002139 0.5616204
vt 0.1502443 2.980232E-08
vt 0.1502443 0.5616204
vt 0.1002747 2.980232E-08
vt 0.1002747 0.5616204
vt 0.05030498 2.980232E-08
vt 0.05030501 0.5616204
vt 0.0003353357 2.980232E-08
vt 0.0003353357 0.5616204
vn 0.9444784 -0.1174139 -0.3068785
vn 0.9444784 -0.1174139 -0.3068786
vn 0.8034211 -0.1174139 -0.5837196
vn 0.8034211 -0.1174139 -0.5837196
vn 0.5837194 -0.1174139 -0.8034213
vn 0.5837193 -0.1174139 -0.8034213
vn 0.3068795 -0.1174139 -0.9444782
vn 0.3068795 -0.1174139 -0.9444782
vn 0 -0.1174139 -0.993083
vn 0 -0.1174139 -0.993083
vn 0.993083 -0.1174138 1.063844E-06
vn 0.993083 -0.1174138 1.053313E-06
vn 0.9444782 -0.1174138 0.3068794
vn 0.9444782 -0.1174138 0.3068794
vn 0.8034211 -0.1174139 0.5837194
vn 0.8034211 -0.1174139 0.5837194
vn 0.5837193 -0.1174139 0.8034213
vn 0.5837193 -0.1174139 0.8034213
vn 0.3068796 -0.1174139 0.9444781
vn 0.3068796 -0.1174139 0.9444781
vn 3.400813E-07 -0.1174139 0.993083
vn 3.481292E-07 -0.1174139 0.993083
vn -0.3068795 -0.1174139 0.9444782
vn -0.3068795 -0.1174139 0.9444782
vn -0.5837194 -0.1174139 0.8034213
vn -0.5837193 -0.1174139 0.8034213
vn -0.8034211 -0.117414 0.5837196
vn -0.8034211 -0.1174139 0.5837196
vn -0.9444782 -0.1174138 0.3068794
vn -0.9444782 -0.1174138 0.3068793
vn -0.993083 -0.1174138 0
vn -0.993083 -0.1174138 0
vn -0.9444782 -0.1174138 -0.3068793
vn -0.9444782 -0.1174138 -0.3068793
vn -0.8034213 -0.1174139 -0.5837193
vn -0.8034213 -0.1174139 -0.5837192
vn -0.5837196 -0.1174139 -0.8034211
vn -0.5837196 -0.1174139 -0.8034211
vn -0.3068796 -0.1174139 -0.9444781
vn -0.3068795 -0.1174139 -0.9444782
vn 0 -0.1174139 -0.993083
vn 0 -0.1174139 -0.993083
g m_DLC_BlenderFX:m_DLC_blenderFX_02_0
f 3/3/3 2/2/2 1/1/1
f 4/4/4 3/3/3 1/1/1
f 5/5/5 3/3/3 4/4/4
f 6/6/6 5/5/5 4/4/4
f 7/7/7 5/5/5 6/6/6
f 8/8/8 7/7/7 6/6/6
f 9/9/9 7/7/7 8/8/8
f 10/10/10 9/9/9 8/8/8
f 1/1/1 2/2/2 11/11/11
f 2/2/2 12/12/12 11/11/11
f 11/11/11 12/12/12 13/13/13
f 12/12/12 14/14/14 13/13/13
f 13/13/13 14/14/14 15/15/15
f 14/14/14 16/16/16 15/15/15
f 15/15/15 16/16/16 17/17/17
f 16/16/16 18/18/18 17/17/17
f 17/17/17 18/18/18 19/19/19
f 18/18/18 20/20/20 19/19/19
f 19/19/19 20/20/20 21/21/21
f 20/20/20 22/22/22 21/21/21
f 21/21/21 22/22/22 23/23/23
f 22/22/22 24/24/24 23/23/23
f 23/23/23 24/24/24 25/25/25
f 24/24/24 26/26/26 25/25/25
f 25/25/25 26/26/26 27/27/27
f 26/26/26 28/28/28 27/27/27
f 27/27/27 28/28/28 29/29/29
f 28/28/28 30/30/30 29/29/29
f 29/29/29 30/30/30 31/31/31
f 30/30/30 32/32/32 31/31/31
f 31/31/31 32/32/32 33/33/33
f 32/32/32 34/34/34 33/33/33
f 33/33/33 34/34/34 35/35/35
f 34/34/34 36/36/36 35/35/35
f 35/35/35 36/36/36 37/37/37
f 36/36/36 38/38/38 37/37/37
f 37/37/37 38/38/38 39/39/39
f 38/38/38 40/40/40 39/39/39
f 39/39/39 40/40/40 41/41/41
f 40/40/40 42/42/42 41/41/41
