g m_dlc2_sand_hill_01
v -3.678555 -0.1911194 -0.04762816
v -1.880645 -0.1389619 -0.04762909
v -1.854995 -0.1389619 0.2619148
v -3.628384 -0.1911194 0.5578418
v -1.778746 -0.1389619 0.5630153
v -3.479239 -0.1911194 1.146796
v -1.653978 -0.1389619 0.8474591
v -3.235192 -0.1911194 1.70317
v -1.484093 -0.1389619 1.107487
v -2.902895 -0.1911194 2.211786
v -1.273726 -0.1389619 1.336006
v -2.491416 -0.1911194 2.658771
v -1.028615 -0.1389619 1.526783
v -2.011978 -0.1911194 3.031934
v -0.755446 -0.1389619 1.674615
v -1.477658 -0.1911194 3.321092
v -0.4616708 -0.1389619 1.775469
v -0.9030307 -0.1911194 3.518362
v -0.1553022 -0.1389619 1.826592
v -0.3037716 -0.1911194 3.618361
v 0.1553026 -0.1389619 1.826592
v 0.3037736 -0.1911194 3.618361
v 0.4616709 -0.1389619 1.775468
v 0.9030326 -0.1911194 3.518362
v 0.7554467 -0.1389619 1.674615
v 1.477659 -0.1911194 3.321091
v 1.028615 -0.1389619 1.526783
v 2.01198 -0.1911194 3.031934
v 1.273726 -0.1389619 1.336006
v 2.491418 -0.1911194 2.658769
v 1.484093 -0.1389619 1.107486
v 2.902896 -0.1911194 2.211785
v 1.653977 -0.1389619 0.8474585
v 3.235191 -0.1911194 1.703169
v 1.778746 -0.1389619 0.563015
v 3.479241 -0.1911194 1.146796
v 1.854994 -0.1389619 0.2619148
v 3.628384 -0.1911193 0.5578414
v 1.880645 -0.1389619 -0.04762909
v 3.678553 -0.1911193 -0.04762847
v 0.1181779 0.1903476 0.2217891
v 0.1609108 0.1903476 0.1986632
v 0.1992547 0.1903476 0.1688191
v 0.2321632 0.1903476 0.1330707
v 0.2587391 0.1903476 0.09239333
v 0.2782572 0.1903476 0.04789667
v 0.2901852 0.1903476 0.0007941127
v 0.2941976 0.1903476 -0.04762909
v 0 0.1944524 -0.04762909
v 0.07222126 0.1903476 0.2375658
v 0.02429467 0.1903476 0.2455637
v -0.02429461 0.1903476 0.2455637
v -0.07222121 0.1903476 0.237566
v -0.1181779 0.1903476 0.2217892
v -0.1609108 0.1903476 0.1986632
v -0.1992547 0.1903476 0.1688191
v -0.2321632 0.1903476 0.1330707
v -0.2587391 0.1903476 0.09239333
v -0.2782574 0.1903476 0.04789667
v -0.2901852 0.1903476 0.0007941127
v -0.2941978 0.1903476 -0.04762909
vt 0.503418 0.9887695
vt 0.503418 0.75
vt 0.4624023 0.746582
vt 0.4230957 0.9824219
vt 0.4223633 0.7363281
vt 0.3447266 0.9624023
vt 0.3845215 0.7197266
vt 0.270752 0.9301758
vt 0.3498535 0.6972656
vt 0.203125 0.8857422
vt 0.3195801 0.6694336
vt 0.1436768 0.8310547
vt 0.2941895 0.6367188
vt 0.09411621 0.7675781
vt 0.2746582 0.6005859
vt 0.05566406 0.6962891
vt 0.2612305 0.5615234
vt 0.02944946 0.6201172
vt 0.2543945 0.5205078
vt 0.01615906 0.5405273
vt 0.2543945 0.479248
vt 0.01615906 0.4597168
vt 0.2612305 0.4387207
vt 0.02944946 0.3798828
vt 0.2746582 0.3996582
vt 0.05566406 0.3034668
vt 0.2941895 0.3632813
vt 0.09411621 0.2325439
vt 0.3195801 0.3305664
vt 0.1436768 0.1688232
vt 0.3498535 0.3027344
vt 0.203125 0.1141357
vt 0.3845215 0.2800293
vt 0.270752 0.06994629
vt 0.4223633 0.2634277
vt 0.3447266 0.0375061
vt 0.4624023 0.253418
vt 0.4230957 0.01766968
vt 0.503418 0.25
vt 0.503418 0.01099396
vt 0.4677734 0.484375
vt 0.4707031 0.4785156
vt 0.4746094 0.4736328
vt 0.4794922 0.4692383
vt 0.4848633 0.4655762
vt 0.4907227 0.4628906
vt 0.4970703 0.4614258
vt 0.503418 0.4609375
vt 0.503418 0.5
vt 0.4655762 0.4904785
vt 0.4645996 0.4968262
vt 0.4645996 0.503418
vt 0.4655762 0.5097656
vt 0.4677734 0.515625
vt 0.4707031 0.5214844
vt 0.4746094 0.5263672
vt 0.4794922 0.5307617
vt 0.4848633 0.5341797
vt 0.4907227 0.5371094
vt 0.4970703 0.5385742
vt 0.503418 0.5390625
vn -0.0289978 0.9995766 0.002402853
vn -0.07119298 0.9974451 0.005899332
vn -0.07022338 0.9974625 0.01171823
vn -0.02860239 0.9995795 0.004772922
vn -0.06733678 0.9974625 0.02311673
vn -0.02742671 0.9995795 0.009415602
vn -0.06261355 0.9974625 0.03388476
vn -0.02550289 0.9995795 0.01380147
vn -0.05618226 0.9974625 0.04372844
vn -0.02288341 0.9995795 0.01781089
vn -0.04821856 0.9974625 0.05237939
vn -0.01963974 0.9995795 0.02133444
vn -0.03893958 0.9974625 0.05960152
vn -0.01586032 0.9995795 0.02427607
vn -0.02859847 0.9974625 0.0651979
vn -0.01164832 0.9995795 0.02655551
vn -0.01747715 0.9974625 0.06901571
vn -0.007118567 0.9995795 0.02811056
vn -0.005879148 0.9974625 0.07095119
vn -0.002394606 0.9995795 0.02889885
vn 0.005879189 0.9974625 0.07095114
vn 0.002394615 0.9995795 0.02889885
vn 0.01747719 0.9974625 0.06901576
vn 0.007118571 0.9995795 0.02811055
vn 0.02859842 0.9974625 0.06519785
vn 0.01164831 0.9995795 0.0265555
vn 0.03893957 0.9974625 0.05960148
vn 0.01586034 0.9995795 0.02427606
vn 0.0482186 0.9974625 0.0523793
vn 0.01963977 0.9995795 0.02133442
vn 0.05618239 0.9974625 0.04372843
vn 0.02288342 0.9995795 0.01781086
vn 0.06261355 0.9974625 0.03388479
vn 0.02550288 0.9995795 0.01380149
vn 0.06733667 0.9974625 0.02311673
vn 0.02742665 0.9995795 0.00941564
vn 0.07022337 0.9974625 0.01171824
vn 0.02860234 0.9995795 0.004772908
vn 0.07119288 0.9974451 0.00589936
vn 0.02899776 0.9995766 0.002402824
vn 0.08002662 0.9799543 0.1824423
vn 0.1089641 0.9799543 0.1667821
vn 0.1349295 0.9799543 0.1465724
vn 0.1572144 0.9799543 0.1223646
vn 0.1752107 0.9799543 0.09481931
vn 0.1884278 0.9799543 0.06468727
vn 0.1965051 0.9799543 0.03279098
vn 0.199195 0.9798208 0.01650637
vn 0 0.9999602 0.008922902
vn 0.04890624 0.9799543 0.1931259
vn 0.01645175 0.9799543 0.1985417
vn -0.01645157 0.9799543 0.1985417
vn -0.04890611 0.9799544 0.1931259
vn -0.08002675 0.9799543 0.1824423
vn -0.1089641 0.9799543 0.1667822
vn -0.1349293 0.9799543 0.1465726
vn -0.1572142 0.9799544 0.1223647
vn -0.1752106 0.9799544 0.09481926
vn -0.1884277 0.9799544 0.06468726
vn -0.196505 0.9799543 0.0327909
vn -0.199195 0.9798208 0.01650616
g m_dlc2_sand_hill_01_0
f 3/3/3 2/2/2 1/1/1
f 4/4/4 3/3/3 1/1/1
f 5/5/5 3/3/3 4/4/4
f 6/6/6 5/5/5 4/4/4
f 7/7/7 5/5/5 6/6/6
f 8/8/8 7/7/7 6/6/6
f 9/9/9 7/7/7 8/8/8
f 10/10/10 9/9/9 8/8/8
f 11/11/11 9/9/9 10/10/10
f 12/12/12 11/11/11 10/10/10
f 13/13/13 11/11/11 12/12/12
f 14/14/14 13/13/13 12/12/12
f 15/15/15 13/13/13 14/14/14
f 16/16/16 15/15/15 14/14/14
f 17/17/17 15/15/15 16/16/16
f 18/18/18 17/17/17 16/16/16
f 19/19/19 17/17/17 18/18/18
f 20/20/20 19/19/19 18/18/18
f 21/21/21 19/19/19 20/20/20
f 22/22/22 21/21/21 20/20/20
f 23/23/23 21/21/21 22/22/22
f 24/24/24 23/23/23 22/22/22
f 25/25/25 23/23/23 24/24/24
f 26/26/26 25/25/25 24/24/24
f 27/27/27 25/25/25 26/26/26
f 28/28/28 27/27/27 26/26/26
f 29/29/29 27/27/27 28/28/28
f 30/30/30 29/29/29 28/28/28
f 31/31/31 29/29/29 30/30/30
f 32/32/32 31/31/31 30/30/30
f 33/33/33 31/31/31 32/32/32
f 34/34/34 33/33/33 32/32/32
f 35/35/35 33/33/33 34/34/34
f 36/36/36 35/35/35 34/34/34
f 37/37/37 35/35/35 36/36/36
f 38/38/38 37/37/37 36/36/36
f 39/39/39 37/37/37 38/38/38
f 40/40/40 39/39/39 38/38/38
f 41/41/41 25/25/25 27/27/27
f 42/42/42 41/41/41 27/27/27
f 42/42/42 27/27/27 29/29/29
f 43/43/43 42/42/42 29/29/29
f 43/43/43 29/29/29 31/31/31
f 44/44/44 43/43/43 31/31/31
f 44/44/44 31/31/31 33/33/33
f 45/45/45 44/44/44 33/33/33
f 45/45/45 33/33/33 35/35/35
f 46/46/46 45/45/45 35/35/35
f 46/46/46 35/35/35 37/37/37
f 47/47/47 46/46/46 37/37/37
f 47/47/47 37/37/37 39/39/39
f 48/48/48 47/47/47 39/39/39
f 42/42/42 49/49/49 41/41/41
f 43/43/43 49/49/49 42/42/42
f 44/44/44 49/49/49 43/43/43
f 45/45/45 49/49/49 44/44/44
f 46/46/46 49/49/49 45/45/45
f 47/47/47 49/49/49 46/46/46
f 48/48/48 49/49/49 47/47/47
f 41/41/41 49/49/49 50/50/50
f 41/41/41 50/50/50 25/25/25
f 50/50/50 23/23/23 25/25/25
f 50/50/50 51/51/51 23/23/23
f 50/50/50 49/49/49 51/51/51
f 51/51/51 21/21/21 23/23/23
f 51/51/51 52/52/52 21/21/21
f 51/51/51 49/49/49 52/52/52
f 52/52/52 19/19/19 21/21/21
f 52/52/52 53/53/53 19/19/19
f 52/52/52 49/49/49 53/53/53
f 53/53/53 17/17/17 19/19/19
f 53/53/53 54/54/54 17/17/17
f 53/53/53 49/49/49 54/54/54
f 54/54/54 15/15/15 17/17/17
f 54/54/54 55/55/55 15/15/15
f 54/54/54 49/49/49 55/55/55
f 55/55/55 13/13/13 15/15/15
f 55/55/55 56/56/56 13/13/13
f 55/55/55 49/49/49 56/56/56
f 56/56/56 11/11/11 13/13/13
f 56/56/56 57/57/57 11/11/11
f 57/57/57 9/9/9 11/11/11
f 57/57/57 58/58/58 9/9/9
f 58/58/58 7/7/7 9/9/9
f 58/58/58 59/59/59 7/7/7
f 59/59/59 5/5/5 7/7/7
f 59/59/59 60/60/60 5/5/5
f 60/60/60 3/3/3 5/5/5
f 60/60/60 61/61/61 3/3/3
f 61/61/61 2/2/2 3/3/3
f 60/60/60 49/49/49 61/61/61
f 59/59/59 49/49/49 60/60/60
f 58/58/58 49/49/49 59/59/59
f 57/57/57 49/49/49 58/58/58
f 56/56/56 49/49/49 57/57/57
