g m_dlc2_floormesh_3_2
v -3.572756 1.694066E-23 6.103515E-07
v -7.629394E-08 1.694066E-23 6.103515E-07
v -3.572756 7.933112E-16 -3.572756
v -7.629394E-08 7.933112E-16 -3.572756
v -3.572756 1.586622E-15 -7.145512
v -7.629394E-08 1.586622E-15 -7.145512
v -3.572756 -1.586622E-15 7.145512
v -7.629394E-08 -1.586622E-15 7.145512
v -3.572756 -7.933111E-16 3.572756
v -7.629394E-08 -7.933111E-16 3.572756
v 3.572756 -1.586622E-15 7.145512
v 3.572756 -7.933111E-16 3.572756
v 3.572756 1.694066E-23 6.103515E-07
v 3.572756 7.933112E-16 -3.572756
v 3.572756 1.586622E-15 -7.145512
v -3.572756 7.933112E-16 -3.572756
v -7.629394E-08 7.933112E-16 -3.572756
v -3.572756 -7.933111E-16 3.572756
v -3.572756 1.694066E-23 6.103515E-07
v -7.629394E-08 1.694066E-23 6.103515E-07
v -7.629394E-08 -7.933111E-16 3.572756
v -7.629394E-08 -1.586622E-15 7.145512
v -7.629394E-08 -7.933111E-16 3.572756
v -7.629394E-08 -7.933111E-16 3.572756
v -7.629394E-08 1.694066E-23 6.103515E-07
v 3.572756 -7.933111E-16 3.572756
v -7.629394E-08 7.933112E-16 -3.572756
v -7.629394E-08 1.586622E-15 -7.145512
v -7.629394E-08 1.694066E-23 6.103515E-07
v -7.629394E-08 7.933112E-16 -3.572756
v 3.572756 7.933112E-16 -3.572756
v 3.572756 1.694066E-23 6.103515E-07
vt -0.00387001 -0.1068726
vt 1.003906 -0.1068726
vt -0.00387001 1.106445
vt 1.003906 1.106445
vt -0.00387001 1.106445
vt 1.003906 1.106445
vt -0.00387001 -0.1068726
vt 1.003906 -0.1068726
vt -0.00387001 1.106445
vt 1.003906 1.106445
vt 1.003906 -0.1068726
vt 1.003906 1.106445
vt 1.003906 1.106445
vt 1.003906 -0.1068726
vt 1.003906 1.106445
vt -0.00387001 -0.1068726
vt 1.003906 -0.1068726
vt -0.00387001 -0.1068726
vt -0.00387001 1.106445
vt 1.003906 1.106445
vt 1.003906 -0.1068726
vt -0.00387001 -0.1068726
vt -0.00387001 1.106445
vt -0.00387001 -0.1068726
vt -0.00387001 1.106445
vt 1.003906 -0.1068726
vt -0.00387001 -0.1068726
vt -0.00387001 1.106445
vt -0.00387001 -0.1068726
vt -0.00387001 1.106445
vt 1.003906 1.106445
vt 1.003906 -0.1068726
vn 0 1 0
vn 0 1 0
vn 0 1 0
vn 0 1 0
vn 0 1 0
vn 0 1 0
vn 0 1 0
vn 0 1 0
vn 0 1 0
vn 0 1 0
vn 0 1 0
vn 0 1 0
vn 0 1 0
vn 0 1 0
vn 0 1 0
vn 0 1 0
vn 0 1 0
vn 0 1 0
vn 0 1 0
vn 0 1 0
vn 0 1 0
vn 0 1 0
vn 0 1 0
vn 0 1 0
vn 0 1 0
vn 0 1 0
vn 0 1 0
vn 0 1 0
vn 0 1 0
vn 0 1 0
vn 0 1 0
vn 0 1 0
g m_dlc2_floormesh_3_2_0
f 4/4/4 3/3/3 1/1/1
f 2/2/2 4/4/4 1/1/1
f 6/6/6 5/5/5 16/16/16
f 17/17/17 6/6/6 16/16/16
f 10/10/10 9/9/9 7/7/7
f 8/8/8 10/10/10 7/7/7
f 20/20/20 19/19/19 18/18/18
f 21/21/21 20/20/20 18/18/18
f 12/12/12 23/23/23 22/22/22
f 11/11/11 12/12/12 22/22/22
f 13/13/13 25/25/25 24/24/24
f 26/26/26 13/13/13 24/24/24
f 15/15/15 28/28/28 27/27/27
f 14/14/14 15/15/15 27/27/27
f 31/31/31 30/30/30 29/29/29
f 32/32/32 31/31/31 29/29/29
