g m_dlc2_sanddecal_03
v 0.1876589 0.1048682 -0.4471422
v 0.1882529 0.08322723 -0.4075469
v 0.1868441 0.03765213 -0.7752007
v 0.1871986 0.05424251 -0.8505154
v 0.1779752 -0.02053246 -1.066973
v 0.1785744 -0.009632082 -1.170634
v 0.1574635 -0.07703379 -1.254302
v 0.1571041 -0.07093763 -1.376163
v 0.1236955 -0.1236955 -1.318851
v 0.1211127 -0.1211127 -1.446983
v 0.07703377 -0.1574636 -1.254301
v 0.07093765 -0.1571041 -1.376163
v 0.02053246 -0.1779753 -1.066973
v 0.009632072 -0.1785745 -1.170633
v -0.03765198 -0.1868442 -0.7752007
v -0.05424248 -0.1871988 -0.8505147
v -0.08322723 -0.1882531 -0.4075472
v -0.1048682 -0.187659 -0.4471425
v -0.1007203 -0.1877998 3.814697E-07
v -0.1244423 -0.1866667 3.814697E-07
v -0.08322716 -0.188253 0.4075477
v -0.1048682 -0.187659 0.4471424
v -0.03765213 -0.1868442 0.7752011
v -0.05424255 -0.1871988 0.8505154
v 0.02053246 -0.1779753 1.066973
v 0.009632072 -0.1785745 1.170634
v 0.07703373 -0.1574635 1.254302
v 0.07093757 -0.1571041 1.376163
v 0.1236954 -0.1236955 1.318851
v 0.1211126 -0.1211127 1.446983
v 0.1574634 -0.0770338 1.254302
v 0.157104 -0.07093763 1.376163
v 0.1779753 -0.02053253 1.066973
v 0.1785744 -0.009632158 1.170634
v 0.1868441 0.03765192 0.7752011
v 0.1871986 0.05424236 0.8505155
v 0.1882529 0.08322708 0.4075474
v 0.187659 0.1048681 0.4471424
v 0.1877998 0.1007203 3.814697E-07
v 0.1866666 0.1244421 3.814697E-07
v 0.1247005 -0.1247005 0.9816157
v 0.1519481 -0.08837364 0.9335718
v 0.1695472 -0.04579848 0.7941437
v 0.1785736 -0.003361263 0.5769791
v 0.181707 0.0289818 0.3033363
v 0.182234 0.04120447 3.814697E-07
v 0.181707 0.02898189 -0.3033358
v 0.1785736 -0.003361206 -0.576979
v 0.1695472 -0.04579841 -0.7941436
v 0.1519482 -0.08837358 -0.933572
v 0.1247005 -0.1247005 -0.9816155
v 0.08837356 -0.1519482 -0.933572
v 0.04579834 -0.1695474 -0.7941436
v 0.003361244 -0.1785737 -0.5769787
v -0.02898189 -0.1817071 -0.3033358
v -0.04120453 -0.182234 3.814697E-07
v -0.02898182 -0.181707 0.3033363
v 0.003361206 -0.1785737 0.5769791
v 0.04579841 -0.1695473 0.7941437
v 0.08837353 -0.1519482 0.9335718
v 0.1314911 -0.1314911 3.814697E-07
vt 0.6352539 0.8876953
vt 0.6274414 0.8852539
vt 0.6083984 0.9223633
vt 0.6147461 0.9272461
vt 0.5786133 0.9521484
vt 0.5834961 0.9584961
vt 0.5415039 0.9711914
vt 0.5439453 0.9790039
vt 0.5 0.9775391
vt 0.5 0.9858398
vt 0.4584961 0.9711914
vt 0.4560547 0.9790039
vt 0.4213867 0.9521484
vt 0.4165039 0.9584961
vt 0.3916016 0.9223633
vt 0.3850098 0.9272461
vt 0.3725586 0.8852539
vt 0.3649902 0.8876953
vt 0.3659668 0.84375
vt 0.3579102 0.84375
vt 0.3725586 0.8022461
vt 0.3649902 0.7998047
vt 0.3916016 0.7651367
vt 0.3850098 0.7602539
vt 0.4213867 0.7353516
vt 0.4165039 0.7290039
vt 0.4584961 0.7163086
vt 0.4560547 0.7084961
vt 0.5 0.7099609
vt 0.5 0.7016602
vt 0.5415039 0.7163086
vt 0.5439453 0.7084961
vt 0.5786133 0.7353516
vt 0.5834961 0.7290039
vt 0.6083984 0.7651367
vt 0.6147461 0.7602539
vt 0.6274414 0.8022461
vt 0.6352539 0.7998047
vt 0.6337891 0.84375
vt 0.6420898 0.84375
vt 0.5 0.7319336
vt 0.534668 0.737793
vt 0.5654297 0.753418
vt 0.590332 0.7783203
vt 0.605957 0.809082
vt 0.6118164 0.84375
vt 0.605957 0.878418
vt 0.590332 0.9091797
vt 0.5654297 0.934082
vt 0.534668 0.949707
vt 0.5 0.9555664
vt 0.4655762 0.949707
vt 0.4343262 0.934082
vt 0.409668 0.9091797
vt 0.3937988 0.878418
vt 0.3884277 0.84375
vt 0.3937988 0.809082
vt 0.409668 0.7783203
vt 0.4343262 0.753418
vt 0.4655762 0.737793
vt 0.5 0.8374023
vn -0.9999795 -0.006124108 0.001912527
vn -0.9973761 0.07222022 -0.005030463
vn -0.9909051 0.1345279 -0.003065382
vn -0.9963709 0.08468486 0.008571464
vn -0.9641707 0.2652606 0.003417024
vn -0.9662932 0.2567654 0.01868309
vn -0.8797504 0.4752992 0.01140296
vn -0.8537233 0.5199768 0.02794135
vn -0.7069679 0.7069677 0.01982286
vn -0.7067955 0.7067957 0.0296665
vn -0.4752994 0.8797502 0.01140292
vn -0.5199767 0.8537233 0.02794119
vn -0.2652611 0.9641706 0.003417073
vn -0.256765 0.9662933 0.018683
vn -0.1345286 0.990905 -0.00306542
vn -0.08468559 0.9963709 0.008571491
vn -0.07222081 0.997376 -0.005030673
vn 0.006122838 0.9999795 0.001912417
vn -0.05525822 0.998472 0
vn 0.03808003 0.9992747 0
vn -0.07222085 0.997376 0.005030616
vn 0.006122286 0.9999795 -0.001912385
vn -0.1345282 0.990905 0.003065418
vn -0.084686 0.9963708 -0.008571377
vn -0.2652613 0.9641706 -0.003417079
vn -0.2567657 0.9662931 -0.018683
vn -0.4752997 0.8797501 -0.01140298
vn -0.5199767 0.8537233 -0.02794128
vn -0.7069679 0.7069677 -0.01982293
vn -0.7067958 0.7067954 -0.0296666
vn -0.87975 0.4752998 -0.01140303
vn -0.8537238 0.5199758 -0.02794143
vn -0.9641707 0.2652608 -0.003417047
vn -0.9662933 0.2567649 -0.0186832
vn -0.990905 0.1345283 0.003065556
vn -0.996371 0.08468409 -0.008571509
vn -0.997376 0.07222082 0.005030523
vn -0.9999795 -0.006121479 -0.001912417
vn -0.9984722 0.05525755 0
vn -0.9992747 -0.03808076 0
vn -0.7070904 0.7070906 -0.006779205
vn -0.8747512 0.4845517 -0.004482088
vn -0.9521869 0.3054834 0.004463587
vn -0.9761855 0.2165777 0.01248766
vn -0.9804422 0.196415 0.01241793
vn -0.9793617 0.2021154 0
vn -0.9804421 0.1964151 -0.01241796
vn -0.9761855 0.2165776 -0.0124876
vn -0.9521874 0.3054822 -0.004463496
vn -0.8747514 0.4845512 0.004482051
vn -0.7070909 0.7070902 0.006779169
vn -0.484552 0.874751 0.004482094
vn -0.3054831 0.9521871 -0.004463477
vn -0.2165781 0.9761854 -0.01248774
vn -0.1964153 0.9804421 -0.01241814
vn -0.2021153 0.9793617 0
vn -0.1964152 0.9804421 0.0124181
vn -0.2165787 0.9761853 0.01248771
vn -0.3054824 0.9521873 0.004463462
vn -0.4845519 0.874751 -0.004482142
vn -0.7071068 0.7071068 0
g m_dlc2_sanddecal_03_0
f 3/3/3 2/2/2 1/1/1
f 4/4/4 3/3/3 1/1/1
f 5/5/5 3/3/3 4/4/4
f 6/6/6 5/5/5 4/4/4
f 7/7/7 5/5/5 6/6/6
f 8/8/8 7/7/7 6/6/6
f 9/9/9 7/7/7 8/8/8
f 10/10/10 9/9/9 8/8/8
f 11/11/11 9/9/9 10/10/10
f 12/12/12 11/11/11 10/10/10
f 13/13/13 11/11/11 12/12/12
f 14/14/14 13/13/13 12/12/12
f 15/15/15 13/13/13 14/14/14
f 16/16/16 15/15/15 14/14/14
f 17/17/17 15/15/15 16/16/16
f 18/18/18 17/17/17 16/16/16
f 19/19/19 17/17/17 18/18/18
f 20/20/20 19/19/19 18/18/18
f 21/21/21 19/19/19 20/20/20
f 22/22/22 21/21/21 20/20/20
f 23/23/23 21/21/21 22/22/22
f 24/24/24 23/23/23 22/22/22
f 25/25/25 23/23/23 24/24/24
f 26/26/26 25/25/25 24/24/24
f 27/27/27 25/25/25 26/26/26
f 28/28/28 27/27/27 26/26/26
f 29/29/29 27/27/27 28/28/28
f 30/30/30 29/29/29 28/28/28
f 31/31/31 29/29/29 30/30/30
f 32/32/32 31/31/31 30/30/30
f 33/33/33 31/31/31 32/32/32
f 34/34/34 33/33/33 32/32/32
f 35/35/35 33/33/33 34/34/34
f 36/36/36 35/35/35 34/34/34
f 37/37/37 35/35/35 36/36/36
f 38/38/38 37/37/37 36/36/36
f 39/39/39 37/37/37 38/38/38
f 40/40/40 39/39/39 38/38/38
f 2/2/2 39/39/39 40/40/40
f 1/1/1 2/2/2 40/40/40
f 29/29/29 41/41/41 27/27/27
f 42/42/42 41/41/41 29/29/29
f 31/31/31 42/42/42 29/29/29
f 43/43/43 42/42/42 31/31/31
f 33/33/33 43/43/43 31/31/31
f 44/44/44 43/43/43 33/33/33
f 35/35/35 44/44/44 33/33/33
f 45/45/45 44/44/44 35/35/35
f 37/37/37 45/45/45 35/35/35
f 46/46/46 45/45/45 37/37/37
f 39/39/39 46/46/46 37/37/37
f 47/47/47 46/46/46 39/39/39
f 2/2/2 47/47/47 39/39/39
f 48/48/48 47/47/47 2/2/2
f 3/3/3 48/48/48 2/2/2
f 49/49/49 48/48/48 3/3/3
f 5/5/5 49/49/49 3/3/3
f 50/50/50 49/49/49 5/5/5
f 7/7/7 50/50/50 5/5/5
f 51/51/51 50/50/50 7/7/7
f 9/9/9 51/51/51 7/7/7
f 52/52/52 51/51/51 9/9/9
f 11/11/11 52/52/52 9/9/9
f 53/53/53 52/52/52 11/11/11
f 13/13/13 53/53/53 11/11/11
f 54/54/54 53/53/53 13/13/13
f 15/15/15 54/54/54 13/13/13
f 55/55/55 54/54/54 15/15/15
f 17/17/17 55/55/55 15/15/15
f 56/56/56 55/55/55 17/17/17
f 19/19/19 56/56/56 17/17/17
f 57/57/57 56/56/56 19/19/19
f 21/21/21 57/57/57 19/19/19
f 58/58/58 57/57/57 21/21/21
f 23/23/23 58/58/58 21/21/21
f 59/59/59 58/58/58 23/23/23
f 25/25/25 59/59/59 23/23/23
f 60/60/60 59/59/59 25/25/25
f 27/27/27 60/60/60 25/25/25
f 41/41/41 60/60/60 27/27/27
f 61/61/61 54/54/54 55/55/55
f 61/61/61 55/55/55 56/56/56
f 61/61/61 56/56/56 57/57/57
f 61/61/61 57/57/57 58/58/58
f 61/61/61 58/58/58 59/59/59
f 61/61/61 59/59/59 60/60/60
f 61/61/61 60/60/60 41/41/41
f 61/61/61 53/53/53 54/54/54
f 61/61/61 52/52/52 53/53/53
f 61/61/61 51/51/51 52/52/52
f 61/61/61 50/50/50 51/51/51
f 61/61/61 49/49/49 50/50/50
f 61/61/61 48/48/48 49/49/49
f 61/61/61 47/47/47 48/48/48
f 61/61/61 41/41/41 42/42/42
f 61/61/61 42/42/42 43/43/43
f 61/61/61 43/43/43 44/44/44
f 61/61/61 44/44/44 45/45/45
f 61/61/61 45/45/45 46/46/46
f 61/61/61 46/46/46 47/47/47
