g m_dlc2_wall_straight_top_01b
v 0.6 2.007959 0.295105
v 0.2688794 2.021887 0.2877795
v 0.06425537 2.005927 0.2941162
v 0.6 2.007959 0.295105
v 0.06425537 2.005927 0.2941162
v 0.6 2.007959 -0.2955591
v -0.0002148437 1.880983 0.3066138
v 0.6 1.88085 0.3074707
v 0.6 1.866065 0.3023401
v -0.6 1.866065 0.3023401
v -0.6 1.88085 0.3074707
v -0.6 1.799596 0.2516357
v 0.6 1.799596 0.2516357
v 0.6 1.792534 0.2410876
v -0.6 1.792534 0.2410876
v -0.09789062 1.962621 0.3066138
v -0.6 1.992957 0.3074707
v -0.1033765 1.993258 0.3066138
v 0.2699414 1.95821 0.3130639
v 0.6 1.992957 0.3074683
v 0.06009277 1.959245 0.3066138
v -0.07943603 1.962054 0.2971265
v -0.08678955 1.993258 0.2998267
v 0.06009277 1.993258 0.3066138
v 0.2701685 1.996601 0.3130664
v 0.04547852 1.993258 0.2955884
v 0.04745361 1.959502 0.2964575
v -0.6 1.867354 -0.3027979
v 0.6 1.867354 -0.3027979
v 0.6 1.881652 -0.307926
v -0.6 1.881652 -0.3079248
v -0.6 1.992957 -0.3079248
v 0.6 1.992957 -0.3079248
v 0.6 1.798434 -0.2517334
v -0.6 1.798434 -0.2517334
v -0.6 1.792534 -0.2416736
v 0.6 1.792534 -0.2416736
v -0.6 1.992957 -0.3079248
v 0.6 1.992957 -0.3079248
v 0.6 2.007959 -0.2955591
v -0.6 2.007959 -0.2955591
v -0.02091797 2.005642 0.02680664
v -0.1031763 2.005642 0.2942297
v -0.0651831 2.005642 0.223645
v -0.05012451 1.993258 0.2247266
v -0.08678955 1.993258 0.2998267
v -0.1033765 1.993258 0.3066138
v -0.6 2.007959 0.295105
v -0.6 1.992957 0.3074707
v -0.04168701 1.96144 0.2161865
v -0.07943603 1.962054 0.2971265
v -0.0002148437 1.880983 0.3066138
v -0.09789062 1.962621 0.3066138
v 0.04300781 2.005642 0.221167
v 0.02814209 1.993258 0.2303662
v 0.06425537 2.005927 0.2941162
v 0.05954346 2.005642 0.2900928
v 0.06009277 1.993258 0.3066138
v 0.2701685 1.996601 0.3130664
v 0.2688794 2.021887 0.2877795
v 0.6 1.992957 0.3074683
v 0.6 2.007959 0.295105
v 0.04547852 1.993258 0.2955884
v -0.01009766 1.960519 0.1331543
v -0.01826172 1.993258 0.09471435
v -0.01009766 1.960519 0.1331543
v 0.01161377 1.960035 0.2048437
v -0.0002148437 1.880983 0.3066138
v -0.01826172 1.993258 0.09471435
v 0.02814209 1.993258 0.2303662
v 0.04745361 1.959502 0.2964575
v 0.06009277 1.959245 0.3066138
v 0.04547852 1.993258 0.2955884
v -0.02091797 2.005642 0.02680664
v 0.02814209 1.993258 0.2303662
v -0.01826172 1.993258 0.09471435
vt 0.3129883 0.9560547
vt 0.362793 0.9560547
vt 0.3937988 0.9570313
vt 0.3129883 0.9560547
vt 0.3937988 0.9570313
vt 0.3129883 0.8696289
vt 0.4033203 0.9760742
vt 0.3129883 0.9760742
vt 0.3129883 0.9785156
vt 0.4938965 0.9785156
vt 0.4938965 0.9760742
vt 0.4938965 0.9907227
vt 0.3129883 0.9907227
vt 0.3129883 0.9926758
vt 0.4938965 0.9926758
vt 0.4177246 0.9643555
vt 0.4938965 0.9599609
vt 0.418457 0.9599609
vt 0.3630371 0.9624023
vt 0.3129883 0.9599609
vt 0.3945313 0.9643555
vt 0.4140625 0.965332
vt 0.4145508 0.9560547
vt 0.3947754 0.9594727
vt 0.362793 0.9599609
vt 0.4001465 0.9550781
vt 0.4008789 0.965332
vt 0.4938965 0.847168
vt 0.3129883 0.847168
vt 0.3129883 0.8496094
vt 0.4938965 0.8496094
vt 0.4938965 0.8657227
vt 0.3129883 0.8657227
vt 0.3129883 0.8349609
vt 0.4938965 0.8349609
vt 0.4938965 0.8330078
vt 0.3129883 0.8330078
vt 0.4938965 0.8657227
vt 0.3129883 0.8657227
vt 0.3129883 0.8696289
vt 0.4938965 0.8696289
vt 0.4064941 0.9179688
vt 0.4187012 0.9560547
vt 0.4130859 0.9458008
vt 0.4111328 0.9545898
vt 0.4145508 0.9560547
vt 0.418457 0.9599609
vt 0.4938965 0.9560547
vt 0.4938965 0.9599609
vt 0.4104004 0.9648438
vt 0.4140625 0.965332
vt 0.4033203 0.9760742
vt 0.4177246 0.9643555
vt 0.3969727 0.9453125
vt 0.4008789 0.9521484
vt 0.3937988 0.9570313
vt 0.3945313 0.9550781
vt 0.3947754 0.9594727
vt 0.362793 0.9599609
vt 0.362793 0.9560547
vt 0.3129883 0.9599609
vt 0.3129883 0.9560547
vt 0.4001465 0.9550781
vt 0.4057617 0.9624023
vt 0.4067383 0.9477539
vt 0.4057617 0.9624023
vt 0.4033203 0.9609375
vt 0.4033203 0.9760742
vt 0.4067383 0.9477539
vt 0.4008789 0.9521484
vt 0.4008789 0.965332
vt 0.3945313 0.9643555
vt 0.4001465 0.9550781
vt 0.4064941 0.9179688
vt 0.4008789 0.9521484
vt 0.4067383 0.9477539
vn 0 1 0
vn 0 1 0
vn 0 1 0
vn 0 1 0
vn 0 1 0
vn 0 1 0
vn 0 0 1
vn 0 0 1
vn 1.30251E-05 -0.60878 0.7933391
vn 1.30251E-05 -0.60878 0.7933391
vn 0 0 1
vn 1.30251E-05 -0.60878 0.7933391
vn 1.30251E-05 -0.60878 0.7933391
vn 0 0 1
vn 0 0 1
vn 0 0 1
vn 0 0 1
vn 0.01525633 0.382069 0.9240078
vn 0 0 1
vn 0 0 1
vn 0 0 1
vn 1 0 0
vn 1 0 0
vn -0.08264564 0.4162481 0.9054873
vn 0.0004952453 0.444632 0.8957133
vn -1 0 0
vn -1 0 0
vn 1.421489E-05 -0.5967817 -0.8024036
vn 1.421489E-05 -0.5967817 -0.8024036
vn 0 0 -1
vn 0 0 -1
vn 0 0 -1
vn 0 0 -1
vn 1.421489E-05 -0.5967817 -0.8024036
vn 1.421489E-05 -0.5967817 -0.8024036
vn 0 0 -1
vn 0 0 -1
vn 0 0 -1
vn 0 0 -1
vn 0 1 0
vn 0 1 0
vn 0 1 0
vn 0 1 0
vn 0 1 0
vn 1 0 0
vn 1 0 0
vn 0.01525633 0.382069 0.9240078
vn 0 1 0
vn 0 0 1
vn 1 0 0
vn 1 0 0
vn 0 0 1
vn 0 0 1
vn 0 1 0
vn -1 0 0
vn 0 1 0
vn 0 1 0
vn -0.08264564 0.4162481 0.9054873
vn 0.0004952453 0.444632 0.8957133
vn 0 1 0
vn 0 0 1
vn 0 1 0
vn -1 0 0
vn 1 0 0
vn 1 0 0
vn -1 0 0
vn -1 0 0
vn 0 0 1
vn -1 0 0
vn -1 0 0
vn -1 0 0
vn 0 0 1
vn -1 0 0
vn 0 1 0
vn -1 0 0
vn -1 0 0
g m_dlc2_wall_straight_top_01b_0
f 3/3/3 2/2/2 1/1/1
f 6/6/6 5/5/5 4/4/4
f 9/9/9 8/8/8 7/7/7
f 7/7/7 10/10/10 9/9/9
f 7/7/7 11/11/11 10/10/10
f 9/9/9 10/10/10 12/12/12
f 13/13/13 9/9/9 12/12/12
f 14/14/14 13/13/13 12/12/12
f 15/15/15 14/14/14 12/12/12
f 7/7/7 16/16/16 11/11/11
f 16/16/16 17/17/17 11/11/11
f 16/16/16 18/18/18 17/17/17
f 19/19/19 7/7/7 8/8/8
f 8/8/8 20/20/20 19/19/19
f 19/19/19 21/21/21 7/7/7
f 16/16/16 22/22/22 18/18/18
f 22/22/22 23/23/23 18/18/18
f 21/21/21 19/19/19 24/24/24
f 19/19/19 25/25/25 24/24/24
f 19/19/19 20/20/20 25/25/25
f 21/21/21 24/24/24 26/26/26
f 27/27/27 21/21/21 26/26/26
f 30/30/30 29/29/29 28/28/28
f 31/31/31 30/30/30 28/28/28
f 30/30/30 31/31/31 32/32/32
f 33/33/33 30/30/30 32/32/32
f 29/29/29 34/34/34 28/28/28
f 34/34/34 35/35/35 28/28/28
f 36/36/36 35/35/35 34/34/34
f 37/37/37 36/36/36 34/34/34
f 40/40/40 39/39/39 38/38/38
f 41/41/41 40/40/40 38/38/38
f 42/42/42 40/40/40 41/41/41
f 41/41/41 43/43/43 42/42/42
f 43/43/43 44/44/44 42/42/42
f 45/45/45 44/44/44 43/43/43
f 46/46/46 45/45/45 43/43/43
f 47/47/47 46/46/46 43/43/43
f 47/47/47 43/43/43 48/48/48
f 41/41/41 48/48/48 43/43/43
f 49/49/49 47/47/47 48/48/48
f 50/50/50 45/45/45 46/46/46
f 51/51/51 50/50/50 46/46/46
f 52/52/52 50/50/50 51/51/51
f 52/52/52 51/51/51 53/53/53
f 40/40/40 42/42/42 54/54/54
f 55/55/55 54/54/54 42/42/42
f 54/54/54 56/56/56 40/40/40
f 54/54/54 57/57/57 56/56/56
f 56/56/56 57/57/57 58/58/58
f 58/58/58 59/59/59 56/56/56
f 59/59/59 60/60/60 56/56/56
f 59/59/59 61/61/61 60/60/60
f 61/61/61 62/62/62 60/60/60
f 57/57/57 63/63/63 58/58/58
f 63/63/63 57/57/57 54/54/54
f 55/55/55 63/63/63 54/54/54
f 52/52/52 64/64/64 50/50/50
f 50/50/50 64/64/64 45/45/45
f 64/64/64 65/65/65 45/45/45
f 45/45/45 65/65/65 44/44/44
f 65/65/65 42/42/42 44/44/44
f 68/68/68 67/67/67 66/66/66
f 66/66/66 67/67/67 69/69/69
f 67/67/67 70/70/70 69/69/69
f 68/68/68 71/71/71 67/67/67
f 67/67/67 71/71/71 70/70/70
f 68/68/68 72/72/72 71/71/71
f 71/71/71 73/73/73 70/70/70
f 76/76/76 75/75/75 74/74/74
