g m_dlc2_palmtree_trunk_02
v 0.4858382 0.01609497 -0.3030133
v 0.5741073 0.8774652 -0.2369513
v 0.3606197 0.8878223 -0.4269244
v 0.2728451 0.01609497 -0.498858
v 0.08561729 0.8914117 -0.4960651
v -0.006394424 0.01609497 -0.5701959
v 0.4692733 1.775228 -0.1532819
v 0.6595638 1.71613 0.01261168
v 0.2207662 1.796445 -0.21357
v 0.4554464 2.580408 0.3971319
v 0.6202096 2.501021 0.517901
v 0.2438509 2.610575 0.3525726
v 0.3225143 3.190227 0.9798346
v 0.4609029 3.118204 1.07654
v 0.1517355 3.216323 0.9467365
v 0.1373861 3.767559 1.390943
v 0.2482149 3.740308 1.48035
v -0.004109268 3.767362 1.354868
v -0.1089078 4.441804 1.618058
v -0.0334037 4.454601 1.699229
v -0.2170377 4.422789 1.587243
v -0.3038871 5.204421 1.759161
v -0.2356217 5.196524 1.826791
v -0.4773624 6.02598 1.785975
v -0.4163285 6.022563 1.848605
v -0.5627384 6.027266 1.76283
v -0.006394424 0.01609497 -0.5701959
v 0.08561729 0.8914117 -0.4960651
v -0.1766935 0.8878223 -0.4269244
v -0.2764005 0.01609497 -0.498858
v -0.3601395 0.8774652 -0.2369513
v -0.467736 0.01609497 -0.3030035
v -0.02167396 1.775228 -0.1532819
v 0.2207662 1.796445 -0.21357
v -0.1969315 1.71613 0.01261168
v 0.03786094 2.580408 0.3971319
v 0.2438509 2.610575 0.3525726
v -0.1101676 2.501021 0.517901
v -0.009778213 3.190227 0.9811969
v 0.1517355 3.216323 0.9467365
v -0.1244083 3.118204 1.078525
v -0.1365055 3.734499 1.392718
v -0.004109268 3.767362 1.354868
v 0.3225143 3.190227 0.9798346
v -0.2252531 3.683158 1.482974
v -0.3280997 4.402218 1.616026
v -0.2170377 4.422789 1.587243
v -0.4113615 4.386342 1.695309
v -0.494379 5.204421 1.759691
v -0.398566 5.207412 1.734698
v -0.1089078 4.441804 1.618058
v 0.1373861 3.767559 1.390943
v -0.3038871 5.204421 1.759161
v -0.5659 5.196524 1.826791
v -0.5627384 6.027266 1.76283
v -0.6493839 6.025976 1.785972
v -0.7138432 6.022561 1.848609
v -0.467736 0.01609497 -0.3030035
v -0.3601395 0.8774652 -0.2369513
v -0.4149015 0.8621112 0.02414488
v -0.5277042 0.01609497 -0.03494691
v -0.3230241 0.8446759 0.2876129
v -0.4379801 0.01609497 0.2337787
v -0.255806 1.631497 0.2424286
v -0.1969315 1.71613 0.01261168
v -0.1792509 1.544012 0.4727533
v 0.009402695 1.479267 0.6402032
v -0.1093375 0.8307672 0.481889
v -0.1591837 2.383325 0.6853949
v -0.1101676 2.501021 0.517901
v -0.09301674 2.261513 0.85112
v 0.07053062 2.167849 0.9749347
v -0.1610563 3.017278 1.217459
v -0.1244083 3.118204 1.078525
v -0.1032926 2.915728 1.363273
v 0.03387291 2.842705 1.473055
v -0.2500504 3.628518 1.604925
v -0.2252531 3.683158 1.482974
v -0.2042374 3.584944 1.729714
v -0.09722328 3.565919 1.820751
v -0.4490116 4.37918 1.805506
v -0.4113615 4.386342 1.695309
v -0.428444 4.383295 1.917322
v -0.3547257 4.397351 1.99908
v -0.2475126 4.416903 2.029609
v -0.595131 5.186184 1.921492
v -0.5659 5.196524 1.826791
v -0.5729264 5.17637 2.01553
v -0.5045475 5.169418 2.082706
v -0.4097989 5.166778 2.106768
v -0.7388077 6.018349 1.933707
v -0.7138432 6.022561 1.848609
v -0.7175382 6.01476 2.018047
v -0.6564323 6.012454 2.078998
v -0.5721891 6.011504 2.101249
v -0.4379801 0.01609497 0.2337787
v -0.3230241 0.8446759 0.2876129
v -0.1093375 0.8307672 0.481889
v -0.2246818 0.01609497 0.4304364
v 0.1672359 0.8255987 0.5524408
v 0.05533287 0.01609497 0.5017084
v 0.4329269 0.8307672 0.481889
v 0.3254696 0.01609497 0.4304413
v 0.2602254 1.455143 0.701673
v 0.009402695 1.479267 0.6402032
v 0.2884823 2.129137 1.026663
v 0.07053062 2.167849 0.9749347
v 0.2150277 2.81619 1.513809
v 0.03387291 2.842705 1.473055
v 0.04482261 3.570051 1.854853
v -0.09722328 3.565919 1.820751
v 0.1808749 3.599488 1.819008
v 0.3890572 2.842705 1.473055
v 0.2758089 3.642888 1.726854
v 0.5049984 2.915728 1.363273
v -0.2475126 4.416903 2.029609
v -0.1345646 4.437112 2.00096
v -0.3134135 5.169418 2.081042
v -0.4097989 5.166778 2.106768
v -0.2411857 5.17637 2.012967
v -0.4867032 6.012438 2.079006
v -0.5721891 6.011504 2.101249
v -0.4221134 6.014738 2.018054
v 0.3254696 0.01609497 0.4304413
v 0.4329269 0.8307672 0.481889
v 0.6164718 0.8446759 0.2876129
v 0.5164974 0.01609497 0.2338006
v 0.6681246 0.8621112 0.02414488
v 0.575201 0.01609497 -0.03495424
v 0.6817135 1.544012 0.4727533
v 0.5063656 1.479267 0.6402032
v 0.1672359 0.8255987 0.5524408
v 0.2602254 1.455143 0.701673
v 0.7388082 1.631497 0.2424286
v 0.4998421 2.167849 0.9749347
v 0.2884823 2.129137 1.026663
v 0.6476766 2.261513 0.85112
v 0.6925216 2.383325 0.6853949
v 0.3890572 2.842705 1.473055
v 0.2150277 2.81619 1.513809
v 0.5049984 2.915728 1.363273
v 0.5305147 3.017278 1.216898
v 0.2997665 3.694883 1.60193
v 0.2758089 3.642888 1.726854
v -0.01016518 4.458435 1.809806
v -0.04712807 4.452159 1.920667
v 0.1808749 3.599488 1.819008
v -0.1345646 4.437112 2.00096
v -0.2411857 5.17637 2.012967
v -0.2123991 5.186184 1.919614
v -0.2356217 5.196524 1.826791
v -0.3960783 6.018338 1.933702
v -0.4221134 6.014738 2.018054
v -0.4163285 6.022563 1.848605
v 0.575201 0.01609497 -0.03495424
v 0.6681246 0.8621112 0.02414488
v 0.5741073 0.8774652 -0.2369513
v 0.4858382 0.01609497 -0.3030133
v 0.6595638 1.71613 0.01261168
v 0.7388082 1.631497 0.2424286
v 0.6202096 2.501021 0.517901
v 0.6925216 2.383325 0.6853949
v 0.4609029 3.118204 1.07654
v 0.5305147 3.017278 1.216898
v 0.2482149 3.740308 1.48035
v 0.2997665 3.694883 1.60193
v -0.0334037 4.454601 1.699229
v -0.01016518 4.458435 1.809806
v -0.2356217 5.196524 1.826791
vt -0.001449585 -0.6816406
vt -0.001449585 -0.3862305
vt 0.08215332 -0.3862305
vt 0.08215332 -0.6816406
vt 0.1656494 -0.3862305
vt 0.1656494 -0.6816406
vt 0.08215332 -0.09063721
vt -0.001449585 -0.09063721
vt 0.1656494 -0.09063721
vt 0.08215332 0.2049561
vt -0.001449585 0.2049561
vt 0.1656494 0.2049561
vt 0.08215332 0.5004883
vt -0.001449585 0.5004883
vt 0.1656494 0.5004883
vt 0.08215332 0.7958984
vt -0.001449585 0.7958984
vt 0.1656494 0.7958984
vt 0.08215332 1.091797
vt -0.001449585 1.091797
vt 0.1656494 1.091797
vt 0.08215332 1.386719
vt -0.001449585 1.386719
vt 0.08215332 1.682617
vt -0.001449585 1.682617
vt 0.1656494 1.682617
vt 0.1656494 -0.6816406
vt 0.1656494 -0.3862305
vt 0.2492676 -0.3862305
vt 0.2492676 -0.6816406
vt 0.3327637 -0.3862305
vt 0.3327637 -0.6816406
vt 0.2492676 -0.09063721
vt 0.1656494 -0.09063721
vt 0.3327637 -0.09063721
vt 0.2492676 0.2049561
vt 0.1656494 0.2049561
vt 0.3327637 0.2049561
vt 0.2492676 0.5004883
vt 0.1656494 0.5004883
vt 0.3327637 0.5004883
vt 0.2492676 0.7958984
vt 0.1656494 0.7958984
vt 0.08215332 0.5004883
vt 0.3327637 0.7958984
vt 0.2492676 1.091797
vt 0.1656494 1.091797
vt 0.3327637 1.091797
vt 0.2492676 1.386719
vt 0.1656494 1.386719
vt 0.08215332 1.091797
vt 0.08215332 0.7958984
vt 0.08215332 1.386719
vt 0.3327637 1.386719
vt 0.1656494 1.682617
vt 0.2492676 1.682617
vt 0.3327637 1.682617
vt 0.3327637 -0.6816406
vt 0.3327637 -0.3862305
vt 0.4165039 -0.3862305
vt 0.4165039 -0.6816406
vt 0.5 -0.3862305
vt 0.5 -0.6816406
vt 0.4165039 -0.09063721
vt 0.3327637 -0.09063721
vt 0.5 -0.09063721
vt 0.5834961 -0.09063721
vt 0.5834961 -0.3862305
vt 0.4165039 0.2049561
vt 0.3327637 0.2049561
vt 0.5 0.2049561
vt 0.5834961 0.2049561
vt 0.4165039 0.5004883
vt 0.3327637 0.5004883
vt 0.5 0.5004883
vt 0.5834961 0.5004883
vt 0.4165039 0.7958984
vt 0.3327637 0.7958984
vt 0.5 0.7958984
vt 0.5834961 0.7958984
vt 0.4165039 1.091797
vt 0.3327637 1.091797
vt 0.5 1.091797
vt 0.5834961 1.091797
vt 0.6669922 1.091797
vt 0.4165039 1.386719
vt 0.3327637 1.386719
vt 0.5 1.386719
vt 0.5834961 1.386719
vt 0.6669922 1.386719
vt 0.4165039 1.682617
vt 0.3327637 1.682617
vt 0.5 1.682617
vt 0.5834961 1.682617
vt 0.6669922 1.682617
vt 0.5 -0.6816406
vt 0.5 -0.3862305
vt 0.5834961 -0.3862305
vt 0.5834961 -0.6816406
vt 0.6669922 -0.3862305
vt 0.6669922 -0.6816406
vt 0.7504883 -0.3862305
vt 0.7504883 -0.6816406
vt 0.6669922 -0.09063721
vt 0.5834961 -0.09063721
vt 0.6669922 0.2049561
vt 0.5834961 0.2049561
vt 0.6669922 0.5004883
vt 0.5834961 0.5004883
vt 0.6669922 0.7958984
vt 0.5834961 0.7958984
vt 0.7504883 0.7958984
vt 0.7504883 0.5004883
vt 0.8344727 0.7958984
vt 0.8344727 0.5004883
vt 0.6669922 1.091797
vt 0.7504883 1.091797
vt 0.7504883 1.386719
vt 0.6669922 1.386719
vt 0.8344727 1.386719
vt 0.7504883 1.682617
vt 0.6669922 1.682617
vt 0.8344727 1.682617
vt 0.7504883 -0.6816406
vt 0.7504883 -0.3862305
vt 0.8344727 -0.3862305
vt 0.8344727 -0.6816406
vt 0.9179688 -0.3862305
vt 0.9179688 -0.6816406
vt 0.8344727 -0.09063721
vt 0.7504883 -0.09063721
vt 0.6669922 -0.3862305
vt 0.6669922 -0.09063721
vt 0.9179688 -0.09063721
vt 0.7504883 0.2049561
vt 0.6669922 0.2049561
vt 0.8344727 0.2049561
vt 0.9179688 0.2049561
vt 0.7504883 0.5004883
vt 0.6669922 0.5004883
vt 0.8344727 0.5004883
vt 0.9179688 0.5004883
vt 0.9179688 0.7958984
vt 0.8344727 0.7958984
vt 0.9179688 1.091797
vt 0.8344727 1.091797
vt 0.7504883 0.7958984
vt 0.7504883 1.091797
vt 0.8344727 1.386719
vt 0.9179688 1.386719
vt 1.000977 1.386719
vt 0.9179688 1.682617
vt 0.8344727 1.682617
vt 1.000977 1.682617
vt 0.9179688 -0.6816406
vt 0.9179688 -0.3862305
vt 1.000977 -0.3862305
vt 1.000977 -0.6816406
vt 1.000977 -0.09063721
vt 0.9179688 -0.09063721
vt 1.000977 0.2049561
vt 0.9179688 0.2049561
vt 1.000977 0.5004883
vt 0.9179688 0.5004883
vt 1.000977 0.7958984
vt 0.9179688 0.7958984
vt 1.000977 1.091797
vt 0.9179688 1.091797
vt 1.000977 1.386719
vn 0.8192715 -0.04065648 -0.5719627
vn 0.8221844 0.0225625 -0.5687738
vn 0.4633045 0.1185302 -0.8782367
vn 0.4547518 0.02665311 -0.8902193
vn -0.002927307 0.1917489 -0.9814397
vn -0.01679686 0.08595385 -0.9961575
vn 0.4696186 0.3551668 -0.8082789
vn 0.8264048 0.2118264 -0.5217133
vn 0.01019264 0.4310472 -0.9022718
vn 0.4653437 0.5737776 -0.6739692
vn 0.8171895 0.4098195 -0.4052767
vn 0.00877801 0.6267338 -0.779184
vn 0.4559714 0.6431058 -0.6152275
vn 0.8000836 0.4983177 -0.3339846
vn -0.009728956 0.6597527 -0.7514199
vn 0.4508125 0.5338743 -0.7153645
vn 0.7933092 0.476733 -0.3786639
vn -0.03679956 0.4729655 -0.880312
vn 0.4512707 0.3612716 -0.8159888
vn 0.8110837 0.3849128 -0.4404377
vn -0.03912278 0.2527881 -0.9667304
vn 0.4880142 0.2104518 -0.8470845
vn 0.8533033 0.2579343 -0.4531484
vn 0.4723389 0.128109 -0.8720573
vn 0.8523733 0.1988937 -0.4836332
vn -0.0336461 0.02801737 -0.999041
vn -0.01679686 0.08595385 -0.9961575
vn -0.002927307 0.1917489 -0.9814397
vn -0.4897797 0.2294822 -0.8411027
vn -0.506655 0.1291404 -0.8524222
vn -0.8600037 0.2182413 -0.461264
vn -0.8723884 0.1455589 -0.466638
vn -0.4684441 0.4247696 -0.7746812
vn 0.01019264 0.4310472 -0.9022718
vn -0.8443705 0.3237936 -0.4268443
vn -0.4754643 0.5493926 -0.6870964
vn 0.00877801 0.6267338 -0.779184
vn -0.8589562 0.3368363 -0.3856627
vn -0.5144172 0.5206641 -0.6813837
vn -0.009728956 0.6597527 -0.7514199
vn -0.8894925 0.2406621 -0.388439
vn -0.5454135 0.2846945 -0.7883357
vn -0.03679956 0.4729655 -0.880312
vn 0.4559714 0.6431058 -0.6152275
vn -0.8890678 0.03341512 -0.4565542
vn -0.5157323 0.09023042 -0.8519851
vn -0.03912278 0.2527881 -0.9667304
vn -0.8531772 -0.07841645 -0.5156932
vn -0.4951953 -0.004655196 -0.8687692
vn -0.01329378 0.1109463 -0.9937375
vn 0.4512707 0.3612716 -0.8159888
vn 0.4508125 0.5338743 -0.7153645
vn 0.4880142 0.2104518 -0.8470845
vn -0.8449047 -0.1054408 -0.5244218
vn -0.0336461 0.02801737 -0.999041
vn -0.50538 -0.06728629 -0.8602695
vn -0.8451879 -0.1376387 -0.5164428
vn -0.8723884 0.1455589 -0.466638
vn -0.8600037 0.2182413 -0.461264
vn -0.9862242 0.1560695 0.05481063
vn -0.9904428 0.1283374 0.0505226
vn -0.8403489 0.05991427 0.5387244
vn -0.8432741 0.08137254 0.5312883
vn -0.9880772 0.1423281 0.05870416
vn -0.8443705 0.3237936 -0.4268443
vn -0.8499217 -0.06422577 0.5229802
vn -0.4922448 -0.2367353 0.8376464
vn -0.4854265 -0.04561352 0.8730868
vn -0.9981403 0.03824098 0.04747026
vn -0.8589562 0.3368363 -0.3856627
vn -0.8522727 -0.2449626 0.4621951
vn -0.4958504 -0.4376761 0.750048
vn -0.9955416 -0.08858022 0.0324093
vn -0.8894925 0.2406621 -0.388439
vn -0.8276286 -0.3540125 0.4355527
vn -0.4682361 -0.4986093 0.7294819
vn -0.9791445 -0.2030185 0.007722065
vn -0.8890678 0.03341512 -0.4565542
vn -0.8088421 -0.3543493 0.4692664
vn -0.4385876 -0.3882983 0.8104723
vn -0.9758316 -0.2147347 -0.0405202
vn -0.8531772 -0.07841645 -0.5156932
vn -0.8387848 -0.2836514 0.4647386
vn -0.4693612 -0.2611139 0.8435162
vn 0.00790315 -0.1578283 0.987435
vn -0.984485 -0.1694619 -0.04551774
vn -0.8449047 -0.1054408 -0.5244218
vn -0.8633965 -0.1821934 0.4704805
vn -0.491674 -0.1370708 0.8599233
vn 0.002955129 -0.0491406 0.9987876
vn -0.9844702 -0.1692835 -0.04649146
vn -0.8451879 -0.1376387 -0.5164428
vn -0.8747847 -0.1530884 0.4596908
vn -0.5181029 -0.0897681 0.8505946
vn -0.0257534 0.001718014 0.9996668
vn -0.8432741 0.08137254 0.5312883
vn -0.8403489 0.05991427 0.5387244
vn -0.4854265 -0.04561352 0.8730868
vn -0.4980312 0.01473502 0.867034
vn 0.002488726 -0.1367667 0.9906001
vn -0.02164659 -0.05918282 0.9980124
vn 0.5160193 -0.1833201 0.8367305
vn 0.492947 -0.118074 0.8620104
vn 0.00794712 -0.3340338 0.9425277
vn -0.4922448 -0.2367353 0.8376464
vn 0.010666 -0.5031776 0.8641172
vn -0.4958504 -0.4376761 0.750048
vn 0.01801393 -0.50531 0.8627498
vn -0.4682361 -0.4986093 0.7294819
vn 0.03469616 -0.3086079 0.9505563
vn -0.4385876 -0.3882983 0.8104723
vn 0.5008001 -0.1359385 0.8548216
vn 0.5208771 -0.3587525 0.7745861
vn 0.841474 0.09177032 0.5324469
vn 0.8764505 -0.08258938 0.4743557
vn 0.00790315 -0.1578283 0.987435
vn 0.4665904 -0.003914499 0.8844648
vn 0.4733742 0.05704004 0.8790127
vn 0.002955129 -0.0491406 0.9987876
vn 0.8218768 0.1603367 0.5466358
vn 0.4588403 0.0967969 0.8832303
vn -0.0257534 0.001718014 0.9996668
vn 0.8219391 0.1742005 0.5422824
vn 0.492947 -0.118074 0.8620104
vn 0.5160193 -0.1833201 0.8367305
vn 0.8892213 -0.161588 0.4279892
vn 0.8803254 -0.134957 0.4547677
vn 0.9918533 -0.08091296 -0.09838802
vn 0.9909666 -0.1025254 -0.08645254
vn 0.8927641 -0.1845293 0.4110001
vn 0.525768 -0.3158194 0.7898266
vn 0.002488726 -0.1367667 0.9906001
vn 0.00794712 -0.3340338 0.9425277
vn 0.9965459 0.01593206 -0.08150188
vn 0.5320805 -0.4018652 0.745248
vn 0.010666 -0.5031776 0.8641172
vn 0.8924016 -0.1591836 0.4222321
vn 0.9889914 0.1475623 -0.01101561
vn 0.5208771 -0.3587525 0.7745861
vn 0.01801393 -0.50531 0.8627498
vn 0.8764505 -0.08258938 0.4743557
vn 0.9688013 0.2416065 0.05523114
vn 0.945006 0.3193888 0.0703887
vn 0.841474 0.09177032 0.5324469
vn 0.946549 0.3146387 0.07104485
vn 0.8109311 0.1676841 0.5606003
vn 0.5008001 -0.1359385 0.8548216
vn 0.4665904 -0.003914499 0.8844648
vn 0.8218768 0.1603367 0.5466358
vn 0.9694152 0.2368143 0.0644436
vn 0.8533033 0.2579343 -0.4531484
vn 0.9757083 0.2143026 0.04547149
vn 0.8219391 0.1742005 0.5422824
vn 0.8523733 0.1988937 -0.4836332
vn 0.9909666 -0.1025254 -0.08645254
vn 0.9918533 -0.08091296 -0.09838802
vn 0.8221844 0.0225625 -0.5687738
vn 0.8192715 -0.04065648 -0.5719627
vn 0.8264048 0.2118264 -0.5217133
vn 0.9965459 0.01593206 -0.08150188
vn 0.8171895 0.4098195 -0.4052767
vn 0.9889914 0.1475623 -0.01101561
vn 0.8000836 0.4983177 -0.3339846
vn 0.9688013 0.2416065 0.05523114
vn 0.7933092 0.476733 -0.3786639
vn 0.945006 0.3193888 0.0703887
vn 0.8110837 0.3849128 -0.4404377
vn 0.946549 0.3146387 0.07104485
vn 0.8533033 0.2579343 -0.4531484
g m_dlc2_palmtree_trunk_02_0
f 3/3/3 2/2/2 1/1/1
f 4/4/4 3/3/3 1/1/1
f 5/5/5 3/3/3 4/4/4
f 6/6/6 5/5/5 4/4/4
f 3/3/3 7/7/7 2/2/2
f 7/7/7 8/8/8 2/2/2
f 9/9/9 7/7/7 3/3/3
f 5/5/5 9/9/9 3/3/3
f 7/7/7 10/10/10 8/8/8
f 10/10/10 11/11/11 8/8/8
f 12/12/12 10/10/10 7/7/7
f 9/9/9 12/12/12 7/7/7
f 10/10/10 13/13/13 11/11/11
f 13/13/13 14/14/14 11/11/11
f 15/15/15 13/13/13 10/10/10
f 12/12/12 15/15/15 10/10/10
f 13/13/13 16/16/16 14/14/14
f 16/16/16 17/17/17 14/14/14
f 18/18/18 16/16/16 13/13/13
f 16/16/16 19/19/19 17/17/17
f 19/19/19 20/20/20 17/17/17
f 18/18/18 21/21/21 16/16/16
f 19/19/19 22/22/22 20/20/20
f 22/22/22 23/23/23 20/20/20
f 22/22/22 24/24/24 23/23/23
f 24/24/24 25/25/25 23/23/23
f 26/26/26 24/24/24 22/22/22
f 29/29/29 28/28/28 27/27/27
f 30/30/30 29/29/29 27/27/27
f 31/31/31 29/29/29 30/30/30
f 32/32/32 31/31/31 30/30/30
f 29/29/29 33/33/33 28/28/28
f 33/33/33 34/34/34 28/28/28
f 35/35/35 33/33/33 29/29/29
f 31/31/31 35/35/35 29/29/29
f 33/33/33 36/36/36 34/34/34
f 36/36/36 37/37/37 34/34/34
f 38/38/38 36/36/36 33/33/33
f 35/35/35 38/38/38 33/33/33
f 36/36/36 39/39/39 37/37/37
f 39/39/39 40/40/40 37/37/37
f 41/41/41 39/39/39 36/36/36
f 38/38/38 41/41/41 36/36/36
f 39/39/39 42/42/42 40/40/40
f 42/42/42 43/43/43 40/40/40
f 40/40/40 43/43/43 44/44/44
f 45/45/45 42/42/42 39/39/39
f 41/41/41 45/45/45 39/39/39
f 42/42/42 46/46/46 43/43/43
f 46/46/46 47/47/47 43/43/43
f 48/48/48 46/46/46 42/42/42
f 45/45/45 48/48/48 42/42/42
f 46/46/46 49/49/49 47/47/47
f 49/49/49 50/50/50 47/47/47
f 47/47/47 50/50/50 51/51/51
f 47/47/47 51/51/51 52/52/52
f 50/50/50 53/53/53 51/51/51
f 54/54/54 49/49/49 46/46/46
f 48/48/48 54/54/54 46/46/46
f 50/50/50 55/55/55 53/53/53
f 56/56/56 55/55/55 50/50/50
f 49/49/49 56/56/56 50/50/50
f 57/57/57 56/56/56 49/49/49
f 54/54/54 57/57/57 49/49/49
f 60/60/60 59/59/59 58/58/58
f 61/61/61 60/60/60 58/58/58
f 62/62/62 60/60/60 61/61/61
f 63/63/63 62/62/62 61/61/61
f 60/60/60 64/64/64 59/59/59
f 64/64/64 65/65/65 59/59/59
f 66/66/66 64/64/64 60/60/60
f 62/62/62 66/66/66 60/60/60
f 67/67/67 66/66/66 62/62/62
f 68/68/68 67/67/67 62/62/62
f 64/64/64 69/69/69 65/65/65
f 69/69/69 70/70/70 65/65/65
f 71/71/71 69/69/69 64/64/64
f 66/66/66 71/71/71 64/64/64
f 72/72/72 71/71/71 66/66/66
f 67/67/67 72/72/72 66/66/66
f 69/69/69 73/73/73 70/70/70
f 73/73/73 74/74/74 70/70/70
f 75/75/75 73/73/73 69/69/69
f 71/71/71 75/75/75 69/69/69
f 76/76/76 75/75/75 71/71/71
f 72/72/72 76/76/76 71/71/71
f 73/73/73 77/77/77 74/74/74
f 77/77/77 78/78/78 74/74/74
f 79/79/79 77/77/77 73/73/73
f 75/75/75 79/79/79 73/73/73
f 80/80/80 79/79/79 75/75/75
f 76/76/76 80/80/80 75/75/75
f 77/77/77 81/81/81 78/78/78
f 81/81/81 82/82/82 78/78/78
f 83/83/83 81/81/81 77/77/77
f 79/79/79 83/83/83 77/77/77
f 84/84/84 83/83/83 79/79/79
f 80/80/80 84/84/84 79/79/79
f 85/85/85 84/84/84 80/80/80
f 81/81/81 86/86/86 82/82/82
f 86/86/86 87/87/87 82/82/82
f 88/88/88 86/86/86 81/81/81
f 83/83/83 88/88/88 81/81/81
f 89/89/89 88/88/88 83/83/83
f 84/84/84 89/89/89 83/83/83
f 90/90/90 89/89/89 84/84/84
f 85/85/85 90/90/90 84/84/84
f 86/86/86 91/91/91 87/87/87
f 91/91/91 92/92/92 87/87/87
f 93/93/93 91/91/91 86/86/86
f 88/88/88 93/93/93 86/86/86
f 94/94/94 93/93/93 88/88/88
f 89/89/89 94/94/94 88/88/88
f 95/95/95 94/94/94 89/89/89
f 90/90/90 95/95/95 89/89/89
f 98/98/98 97/97/97 96/96/96
f 99/99/99 98/98/98 96/96/96
f 100/100/100 98/98/98 99/99/99
f 101/101/101 100/100/100 99/99/99
f 102/102/102 100/100/100 101/101/101
f 103/103/103 102/102/102 101/101/101
f 100/100/100 104/104/104 98/98/98
f 104/104/104 105/105/105 98/98/98
f 104/104/104 106/106/106 105/105/105
f 106/106/106 107/107/107 105/105/105
f 106/106/106 108/108/108 107/107/107
f 108/108/108 109/109/109 107/107/107
f 108/108/108 110/110/110 109/109/109
f 110/110/110 111/111/111 109/109/109
f 112/112/112 110/110/110 108/108/108
f 113/113/113 112/112/112 108/108/108
f 114/114/114 112/112/112 113/113/113
f 115/115/115 114/114/114 113/113/113
f 110/110/110 116/116/116 111/111/111
f 117/117/117 116/116/116 110/110/110
f 112/112/112 117/117/117 110/110/110
f 117/117/117 118/118/118 116/116/116
f 118/118/118 119/119/119 116/116/116
f 120/120/120 118/118/118 117/117/117
f 118/118/118 121/121/121 119/119/119
f 121/121/121 122/122/122 119/119/119
f 123/123/123 121/121/121 118/118/118
f 120/120/120 123/123/123 118/118/118
f 126/126/126 125/125/125 124/124/124
f 127/127/127 126/126/126 124/124/124
f 128/128/128 126/126/126 127/127/127
f 129/129/129 128/128/128 127/127/127
f 126/126/126 130/130/130 125/125/125
f 130/130/130 131/131/131 125/125/125
f 125/125/125 131/131/131 132/132/132
f 131/131/131 133/133/133 132/132/132
f 134/134/134 130/130/130 126/126/126
f 128/128/128 134/134/134 126/126/126
f 131/131/131 135/135/135 133/133/133
f 135/135/135 136/136/136 133/133/133
f 137/137/137 135/135/135 131/131/131
f 130/130/130 137/137/137 131/131/131
f 138/138/138 137/137/137 130/130/130
f 134/134/134 138/138/138 130/130/130
f 135/135/135 139/139/139 136/136/136
f 139/139/139 140/140/140 136/136/136
f 141/141/141 139/139/139 135/135/135
f 137/137/137 141/141/141 135/135/135
f 142/142/142 141/141/141 137/137/137
f 138/138/138 142/142/142 137/137/137
f 142/142/142 143/143/143 141/141/141
f 143/143/143 144/144/144 141/141/141
f 143/143/143 145/145/145 144/144/144
f 145/145/145 146/146/146 144/144/144
f 144/144/144 146/146/146 147/147/147
f 146/146/146 148/148/148 147/147/147
f 146/146/146 149/149/149 148/148/148
f 150/150/150 149/149/149 146/146/146
f 145/145/145 150/150/150 146/146/146
f 151/151/151 150/150/150 145/145/145
f 150/150/150 152/152/152 149/149/149
f 152/152/152 153/153/153 149/149/149
f 154/154/154 152/152/152 150/150/150
f 151/151/151 154/154/154 150/150/150
f 157/157/157 156/156/156 155/155/155
f 158/158/158 157/157/157 155/155/155
f 157/157/157 159/159/159 156/156/156
f 159/159/159 160/160/160 156/156/156
f 159/159/159 161/161/161 160/160/160
f 161/161/161 162/162/162 160/160/160
f 161/161/161 163/163/163 162/162/162
f 163/163/163 164/164/164 162/162/162
f 163/163/163 165/165/165 164/164/164
f 165/165/165 166/166/166 164/164/164
f 165/165/165 167/167/167 166/166/166
f 167/167/167 168/168/168 166/166/166
f 167/167/167 169/169/169 168/168/168
