g m_dlc2_pool_wall_corner_01
v -1.05769 -0.4067916 1.424755
v -1.05769 0.4067917 1.424755
v -0.8220196 0.4067917 1.887283
v -0.8220196 -0.4067916 1.887283
v -1.424755 -0.4067916 1.05769
v -1.424755 0.4067917 1.05769
v -0.7408143 0.4067917 2.399541
v -0.7408145 -0.4067916 2.399541
v -1.887283 0.4067917 0.8220196
v -1.887283 -0.4067916 0.8220196
v -2.399765 0.4067917 0.7410973
v -2.4 -0.4067916 0.7408143
v -0.8227457 -3.278469 1.885858
v -0.7417901 -3.278469 2.398497
v -1.05769 -3.278469 1.424755
v -1.423623 -3.278469 1.058821
v -1.884726 -3.278469 0.8238774
v -2.4 -3.278469 0.74179
vt 0.6069336 0.9228516
vt 0.6069336 1.229492
vt 0.8061523 1.229492
vt 0.8061523 0.9228516
vt 0.4077148 0.9228516
vt 0.4077148 1.229492
vt 1.000977 1.229492
vt 1.000977 0.9228516
vt 0.2086182 1.229492
vt 0.2086182 0.9228516
vt -0.0004954338 1.229492
vt -0.0004742146 0.9228516
vt 0.8051758 0.0005469322
vt 0.9995117 0.0005469322
vt 0.6069336 0.0005469322
vt 0.4082031 0.0005469322
vt 0.2098389 0.0005469322
vt 0.0004954338 0.0005469322
vn -0.8090169 0 0.5877853
vn -0.8090171 0 0.5877851
vn -0.9510142 0 0.3091473
vn -0.9510985 8.898795E-05 0.3088878
vn -0.5877505 6.79201E-05 0.8090422
vn -0.5877851 0 0.8090171
vn -1 1.171599E-07 0
vn -0.9999987 -0.001640617 0
vn -0.3089249 -7.552663E-05 0.9510864
vn -0.3088461 0.0002161844 0.951112
vn 0 -0.000151065 1
vn 0 0.000494918 0.9999999
vn -0.9510885 0.00011412 0.3089186
vn -0.9999194 0.01269751 0
vn -0.8090169 0 0.5877854
vn -0.5878295 8.713229E-05 0.8089849
vn -0.3090218 0.0002986115 0.9510549
vn 0 0.01300556 0.9999155
g m_dlc2_pool_wall_corner_01_0
f 3/3/3 2/2/2 1/1/1
f 4/4/4 3/3/3 1/1/1
f 1/1/1 2/2/2 5/5/5
f 2/2/2 6/6/6 5/5/5
f 7/7/7 3/3/3 4/4/4
f 8/8/8 7/7/7 4/4/4
f 6/6/6 9/9/9 5/5/5
f 9/9/9 10/10/10 5/5/5
f 9/9/9 11/11/11 10/10/10
f 11/11/11 12/12/12 10/10/10
f 4/4/4 13/13/13 8/8/8
f 13/13/13 14/14/14 8/8/8
f 15/15/15 13/13/13 4/4/4
f 1/1/1 15/15/15 4/4/4
f 16/16/16 15/15/15 1/1/1
f 5/5/5 16/16/16 1/1/1
f 17/17/17 16/16/16 5/5/5
f 10/10/10 17/17/17 5/5/5
f 18/18/18 17/17/17 10/10/10
f 12/12/12 18/18/18 10/10/10
