g m_dlc2_barrier_rope_2unit_01
v 0.04287857 1.221486 -1.144492
v 0.04284805 1.044867 -0.9271643
v -0.0409256 1.044486 -0.9271998
v -0.04089447 1.221024 -1.144594
v -0.04114594 0.9079534 -0.6830001
v 0.04262802 0.9082431 -0.6830161
v -0.04151062 0.8153875 -0.419268
v 0.04226364 0.8155785 -0.4193185
v -0.04197036 0.7694404 -0.1438398
v 0.04180405 0.769528 -0.1439075
v -0.04247345 0.7713804 0.1351175
v 0.04130096 0.7713635 0.1350504
v -0.04296676 0.8210574 0.409348
v 0.04080765 0.8209378 0.4092995
v -0.04339752 0.9169099 0.6707513
v 0.04037658 0.9166925 0.6707388
v -0.04371506 1.056014 0.9116231
v 0.04005875 1.055706 0.9116626
v -0.04386978 1.23382 1.124524
v 0.0399031 1.233517 1.124715
v -0.04089447 1.221024 -1.144594
v -0.0409256 1.044486 -0.9271998
v -0.08252349 0.9840932 -0.9677061
v -0.08243316 1.168421 -1.194852
v -0.04034805 0.9240648 -1.008152
v -0.04019897 1.11626 -1.244987
v -0.08281158 0.841558 -0.7125642
v -0.04114594 0.9079534 -0.6830001
v -0.04070343 0.7754397 -0.7421164
v -0.08325027 0.7449535 -0.4370226
v -0.04151062 0.8153875 -0.419268
v -0.04121597 0.6747025 -0.4547984
v -0.08378845 0.6970513 -0.1492675
v -0.04197036 0.7694404 -0.1438398
v -0.04183228 0.6247471 -0.1547327
v -0.08437164 0.6991779 0.1421693
v -0.04247345 0.7713804 0.1351175
v -0.04249573 0.6269611 0.1491841
v -0.08494461 0.7511777 0.4286624
v -0.04296676 0.8210574 0.409348
v -0.0431485 0.6811859 0.4479579
v -0.08545227 0.8514203 0.7017494
v -0.04339752 0.9169099 0.6707513
v -0.04373321 0.7857256 0.7327623
v -0.08584167 0.9968517 0.953379
v -0.04371506 1.056014 0.9116231
v -0.04419464 0.9373989 0.9951997
v -0.08605926 1.182495 1.175551
v -0.04386978 1.23382 1.124524
v -0.04447586 1.130866 1.22677
v -0.04019897 1.11626 -1.244987
v -0.04034805 0.9240648 -1.008152
v 0.04342575 0.9244761 -1.008162
v 0.04357437 1.11676 -1.244925
v 0.04307083 0.7757515 -0.7421818
v -0.04070343 0.7754397 -0.7421164
v 0.04255859 0.6749064 -0.4549016
v -0.04121597 0.6747025 -0.4547984
v 0.04194244 0.6248388 -0.1548547
v -0.04183228 0.6247471 -0.1547327
v 0.04127914 0.6269389 0.1490631
v -0.04249573 0.6269611 0.1491841
v 0.04062622 0.6810519 0.4478572
v -0.0431485 0.6811859 0.4479579
v 0.04004135 0.7854849 0.7327006
v -0.04373321 0.7857256 0.7327623
v 0.03957947 0.9370598 0.9951949
v -0.04419464 0.9373989 0.9951997
v 0.03929703 1.130563 1.226961
v -0.04447586 1.130866 1.22677
v 0.04357437 1.11676 -1.244925
v 0.04342575 0.9244761 -1.008162
v 0.08502395 0.9848858 -0.9676805
v 0.08511322 1.169384 -1.194688
v 0.04284805 1.044867 -0.9271643
v 0.04287857 1.221486 -1.144492
v 0.08473663 0.8421596 -0.7126454
v 0.04307083 0.7757515 -0.7421818
v 0.04262802 0.9082431 -0.6830161
v 0.0842984 0.7453485 -0.4371763
v 0.04255859 0.6749064 -0.4549016
v 0.04226364 0.8155785 -0.4193185
v 0.08376068 0.6972308 -0.1494571
v 0.04194244 0.6248388 -0.1548547
v 0.04180405 0.769528 -0.1439075
v 0.08317749 0.6991389 0.1419812
v 0.04127914 0.6269389 0.1490631
v 0.04130096 0.7713635 0.1350504
v 0.08260437 0.7509241 0.4285132
v 0.04062622 0.6810519 0.4478572
v 0.04080765 0.8209378 0.4092995
v 0.08209625 0.850962 0.7016751
v 0.04004135 0.7854849 0.7327006
v 0.04037658 0.9166925 0.6707388
v 0.08170639 0.996205 0.9534137
v 0.03957947 0.9370598 0.9951949
v 0.04005875 1.055706 0.9116626
v 0.08148651 1.181889 1.175934
v 0.03929703 1.130563 1.226961
v 0.0399031 1.233517 1.124715
vt 0.0008611679 -1.162109
vt 0.0008611679 -0.7998047
vt 0.1387939 -0.7998047
vt 0.1387939 -1.162109
vt 0.1387939 -0.4375
vt 0.0008611679 -0.4375
vt 0.1387939 -0.07537842
vt 0.0008611679 -0.07537842
vt 0.1387939 0.2866211
vt 0.0008611679 0.2866211
vt 0.1387939 0.6489258
vt 0.0008611679 0.6489258
vt 0.1387939 1.010742
vt 0.0008611679 1.010742
vt 0.1387939 1.373047
vt 0.0008611679 1.373047
vt 0.1387939 1.735352
vt 0.0008611679 1.735352
vt 0.1387939 2.097656
vt 0.0008611679 2.097656
vt 0.1387939 -1.162109
vt 0.1387939 -0.7998047
vt 0.2766113 -0.7998047
vt 0.2766113 -1.162109
vt 0.4145508 -0.7998047
vt 0.4145508 -1.162109
vt 0.2766113 -0.4375
vt 0.1387939 -0.4375
vt 0.4145508 -0.4375
vt 0.2766113 -0.07537842
vt 0.1387939 -0.07537842
vt 0.4145508 -0.07537842
vt 0.2766113 0.2866211
vt 0.1387939 0.2866211
vt 0.4145508 0.2866211
vt 0.2766113 0.6489258
vt 0.1387939 0.6489258
vt 0.4145508 0.6489258
vt 0.2766113 1.010742
vt 0.1387939 1.010742
vt 0.4145508 1.010742
vt 0.2766113 1.373047
vt 0.1387939 1.373047
vt 0.4145508 1.373047
vt 0.2766113 1.735352
vt 0.1387939 1.735352
vt 0.4145508 1.735352
vt 0.2766113 2.097656
vt 0.1387939 2.097656
vt 0.4145508 2.097656
vt 0.4145508 -1.162109
vt 0.4145508 -0.7998047
vt 0.5522461 -0.7998047
vt 0.5522461 -1.162109
vt 0.5522461 -0.4375
vt 0.4145508 -0.4375
vt 0.5522461 -0.07537842
vt 0.4145508 -0.07537842
vt 0.5522461 0.2866211
vt 0.4145508 0.2866211
vt 0.5522461 0.6489258
vt 0.4145508 0.6489258
vt 0.5522461 1.010742
vt 0.4145508 1.010742
vt 0.5522461 1.373047
vt 0.4145508 1.373047
vt 0.5522461 1.735352
vt 0.4145508 1.735352
vt 0.5522461 2.097656
vt 0.4145508 2.097656
vt 0.5522461 -1.162109
vt 0.5522461 -0.7998047
vt 0.6904297 -0.7998047
vt 0.6904297 -1.162109
vt 0.8413086 -0.7998047
vt 0.8413086 -1.162109
vt 0.6904297 -0.4375
vt 0.5522461 -0.4375
vt 0.8413086 -0.4375
vt 0.6904297 -0.07537842
vt 0.5522461 -0.07537842
vt 0.8413086 -0.07537842
vt 0.6904297 0.2866211
vt 0.5522461 0.2866211
vt 0.8413086 0.2866211
vt 0.6904297 0.6489258
vt 0.5522461 0.6489258
vt 0.8413086 0.6489258
vt 0.6904297 1.010742
vt 0.5522461 1.010742
vt 0.8413086 1.010742
vt 0.6904297 1.373047
vt 0.5522461 1.373047
vt 0.8413086 1.373047
vt 0.6904297 1.735352
vt 0.5522461 1.735352
vt 0.8413086 1.735352
vt 0.6904297 2.097656
vt 0.5522461 2.097656
vt 0.8413086 2.097656
vn 0.5119614 0.666623 0.541765
vn 0.5135722 0.7097693 0.4821527
vn -0.5204197 0.7068459 0.4790953
vn -0.5182566 0.663929 0.539081
vn -0.5196319 0.7790678 0.3507649
vn 0.5143731 0.7813425 0.3534462
vn -0.5187671 0.8282243 0.2119554
vn 0.5152498 0.8297953 0.2143764
vn -0.5178505 0.852861 0.06677525
vn 0.5161775 0.8536929 0.06906076
vn -0.5169098 0.8522484 -0.08047851
vn 0.5171287 0.8523278 -0.07819957
vn -0.5159736 0.8264048 -0.2254475
vn 0.518076 0.8257406 -0.2230463
vn -0.5150696 0.7760947 -0.3638409
vn 0.5189901 0.7747192 -0.3611917
vn -0.5141693 0.7029147 -0.4914682
vn 0.5198337 0.7008442 -0.4884569
vn -0.5125917 0.6588473 -0.5506089
vn 0.5186246 0.656592 -0.5476454
vn -0.5182566 0.663929 0.539081
vn -0.5204197 0.7068459 0.4790953
vn -0.9990472 -0.03570404 -0.02509631
vn -0.9990754 -0.03321249 -0.0272976
vn -0.4790823 -0.7264256 -0.4927332
vn -0.4770668 -0.6822402 -0.5540357
vn -0.9990863 -0.03839596 -0.01877434
vn -0.5196319 0.7790678 0.3507649
vn -0.479892 -0.7996081 -0.3610132
vn -0.999128 -0.03996606 -0.01208243
vn -0.5187671 0.8282243 0.2119554
vn -0.4807797 -0.8491301 -0.2186983
vn -0.9991714 -0.04036474 -0.005218712
vn -0.5178505 0.852861 0.06677525
vn -0.4817188 -0.8735255 -0.0700009
vn -0.9992151 -0.03957927 0.00161368
vn -0.5169098 0.8522484 -0.08047851
vn -0.4826815 -0.8720721 0.08067729
vn -0.9992579 -0.03763252 0.008212188
vn -0.5159736 0.8264048 -0.2254475
vn -0.4836399 -0.8448123 0.228877
vn -0.9992983 -0.03458405 0.01438111
vn -0.5150696 0.7760947 -0.3638409
vn -0.4845648 -0.7925532 0.3702111
vn -0.9993412 -0.03040283 0.01982072
vn -0.5141693 0.7029147 -0.4914682
vn -0.4854621 -0.7169636 0.5002896
vn -0.9993585 -0.02794792 0.02239622
vn -0.5125917 0.6588473 -0.5506089
vn -0.4848754 -0.6714889 0.5603557
vn -0.4770668 -0.6822402 -0.5540357
vn -0.4790823 -0.7264256 -0.4927332
vn 0.4860774 -0.7234626 -0.4902352
vn 0.4865519 -0.6783361 -0.55057
vn 0.4852618 -0.7973152 -0.3589003
vn -0.479892 -0.7996081 -0.3610132
vn 0.4843674 -0.8475637 -0.2168505
vn -0.4807797 -0.8491301 -0.2186983
vn 0.4834195 -0.8727211 -0.0682895
vn -0.4817188 -0.8735255 -0.0700009
vn 0.482447 -0.8720421 0.08238523
vn -0.4826815 -0.8720721 0.08067729
vn 0.4814786 -0.8455467 0.2307145
vn -0.4836399 -0.8448123 0.228877
vn 0.4805427 -0.7940189 0.3723072
vn -0.4845648 -0.7925532 0.3702111
vn 0.4798484 -0.7190325 0.5027304
vn -0.4854621 -0.7169636 0.5002896
vn 0.4778349 -0.6740223 0.563354
vn -0.4848754 -0.6714889 0.5603557
vn 0.4865519 -0.6783361 -0.55057
vn 0.4860774 -0.7234626 -0.4902352
vn 0.9993632 -0.02986796 -0.01952129
vn 0.9994177 -0.02670729 -0.02123838
vn 0.5135722 0.7097693 0.4821527
vn 0.5119614 0.666623 0.541765
vn 0.9993287 -0.03387386 -0.01395242
vn 0.4852618 -0.7973152 -0.3589003
vn 0.5143731 0.7813425 0.3534462
vn 0.9992899 -0.03686648 -0.007778246
vn 0.4843674 -0.8475637 -0.2168505
vn 0.5152498 0.8297953 0.2143764
vn 0.9992478 -0.03875823 -0.001180451
vn 0.4834195 -0.8727211 -0.0682895
vn 0.5161775 0.8536929 0.06906076
vn 0.999204 -0.03949154 0.005646009
vn 0.482447 -0.8720421 0.08238523
vn 0.5171287 0.8523278 -0.07819957
vn 0.9991593 -0.03904383 0.01249922
vn 0.4814786 -0.8455467 0.2307145
vn 0.518076 0.8257406 -0.2230463
vn 0.9991153 -0.03742801 0.0191763
vn 0.4805427 -0.7940189 0.3723072
vn 0.5189901 0.7747192 -0.3611917
vn 0.9990797 -0.03458954 0.025366
vn 0.4798484 -0.7190325 0.5027304
vn 0.5198337 0.7008442 -0.4884569
vn 0.9990525 -0.03290199 0.02848699
vn 0.4778349 -0.6740223 0.563354
vn 0.5186246 0.656592 -0.5476454
g m_dlc2_barrier_rope_2unit_01_0
f 3/3/3 2/2/2 1/1/1
f 4/4/4 3/3/3 1/1/1
f 3/3/3 5/5/5 2/2/2
f 5/5/5 6/6/6 2/2/2
f 5/5/5 7/7/7 6/6/6
f 7/7/7 8/8/8 6/6/6
f 7/7/7 9/9/9 8/8/8
f 9/9/9 10/10/10 8/8/8
f 9/9/9 11/11/11 10/10/10
f 11/11/11 12/12/12 10/10/10
f 11/11/11 13/13/13 12/12/12
f 13/13/13 14/14/14 12/12/12
f 13/13/13 15/15/15 14/14/14
f 15/15/15 16/16/16 14/14/14
f 15/15/15 17/17/17 16/16/16
f 17/17/17 18/18/18 16/16/16
f 17/17/17 19/19/19 18/18/18
f 19/19/19 20/20/20 18/18/18
f 23/23/23 22/22/22 21/21/21
f 24/24/24 23/23/23 21/21/21
f 25/25/25 23/23/23 24/24/24
f 26/26/26 25/25/25 24/24/24
f 23/23/23 27/27/27 22/22/22
f 27/27/27 28/28/28 22/22/22
f 29/29/29 27/27/27 23/23/23
f 25/25/25 29/29/29 23/23/23
f 27/27/27 30/30/30 28/28/28
f 30/30/30 31/31/31 28/28/28
f 32/32/32 30/30/30 27/27/27
f 29/29/29 32/32/32 27/27/27
f 30/30/30 33/33/33 31/31/31
f 33/33/33 34/34/34 31/31/31
f 35/35/35 33/33/33 30/30/30
f 32/32/32 35/35/35 30/30/30
f 33/33/33 36/36/36 34/34/34
f 36/36/36 37/37/37 34/34/34
f 38/38/38 36/36/36 33/33/33
f 35/35/35 38/38/38 33/33/33
f 36/36/36 39/39/39 37/37/37
f 39/39/39 40/40/40 37/37/37
f 41/41/41 39/39/39 36/36/36
f 38/38/38 41/41/41 36/36/36
f 39/39/39 42/42/42 40/40/40
f 42/42/42 43/43/43 40/40/40
f 44/44/44 42/42/42 39/39/39
f 41/41/41 44/44/44 39/39/39
f 42/42/42 45/45/45 43/43/43
f 45/45/45 46/46/46 43/43/43
f 47/47/47 45/45/45 42/42/42
f 44/44/44 47/47/47 42/42/42
f 45/45/45 48/48/48 46/46/46
f 48/48/48 49/49/49 46/46/46
f 50/50/50 48/48/48 45/45/45
f 47/47/47 50/50/50 45/45/45
f 53/53/53 52/52/52 51/51/51
f 54/54/54 53/53/53 51/51/51
f 53/53/53 55/55/55 52/52/52
f 55/55/55 56/56/56 52/52/52
f 55/55/55 57/57/57 56/56/56
f 57/57/57 58/58/58 56/56/56
f 57/57/57 59/59/59 58/58/58
f 59/59/59 60/60/60 58/58/58
f 59/59/59 61/61/61 60/60/60
f 61/61/61 62/62/62 60/60/60
f 61/61/61 63/63/63 62/62/62
f 63/63/63 64/64/64 62/62/62
f 63/63/63 65/65/65 64/64/64
f 65/65/65 66/66/66 64/64/64
f 65/65/65 67/67/67 66/66/66
f 67/67/67 68/68/68 66/66/66
f 67/67/67 69/69/69 68/68/68
f 69/69/69 70/70/70 68/68/68
f 73/73/73 72/72/72 71/71/71
f 74/74/74 73/73/73 71/71/71
f 75/75/75 73/73/73 74/74/74
f 76/76/76 75/75/75 74/74/74
f 73/73/73 77/77/77 72/72/72
f 77/77/77 78/78/78 72/72/72
f 79/79/79 77/77/77 73/73/73
f 75/75/75 79/79/79 73/73/73
f 77/77/77 80/80/80 78/78/78
f 80/80/80 81/81/81 78/78/78
f 82/82/82 80/80/80 77/77/77
f 79/79/79 82/82/82 77/77/77
f 80/80/80 83/83/83 81/81/81
f 83/83/83 84/84/84 81/81/81
f 85/85/85 83/83/83 80/80/80
f 82/82/82 85/85/85 80/80/80
f 83/83/83 86/86/86 84/84/84
f 86/86/86 87/87/87 84/84/84
f 88/88/88 86/86/86 83/83/83
f 85/85/85 88/88/88 83/83/83
f 86/86/86 89/89/89 87/87/87
f 89/89/89 90/90/90 87/87/87
f 91/91/91 89/89/89 86/86/86
f 88/88/88 91/91/91 86/86/86
f 89/89/89 92/92/92 90/90/90
f 92/92/92 93/93/93 90/90/90
f 94/94/94 92/92/92 89/89/89
f 91/91/91 94/94/94 89/89/89
f 92/92/92 95/95/95 93/93/93
f 95/95/95 96/96/96 93/93/93
f 97/97/97 95/95/95 92/92/92
f 94/94/94 97/97/97 92/92/92
f 95/95/95 98/98/98 96/96/96
f 98/98/98 99/99/99 96/96/96
f 100/100/100 98/98/98 95/95/95
f 97/97/97 100/100/100 95/95/95
