g m_dlc4_moss_02
v 0.2817319 0.7431687 0.1076235
v 0.2517721 0.7052286 0.1466415
v 0.2417505 0.8103216 0.1073379
v 0.1600638 0.7291561 0.179725
v 0.1221899 0.8230011 0.1068604
v 0.2020392 0.83059 0.09918452
v 0.0802005 0.7852851 0.1078478
v 0.2662631 0.3951823 0.1955531
v 0.3032233 0.5156104 0.1068313
v 0.3075705 0.5959806 0.1076223
v 0.06106232 0.7222366 0.1070437
v 0.1176642 0.5225779 0.1765743
v 0.2027679 0.38506 0.2167215
v 0.3610767 0.2527516 0.2246274
v 0.069422 0.551051 0.1131643
v 0.1075949 0.3625332 0.2009317
v 0.2203186 0.2100257 0.2446409
v 0.51 0.1204989 0.32
v 0.4406561 0.2449222 0.1495081
v 0.3473969 0.3910562 0.1078875
v 0.5052179 0.208398 0.1068313
v 0.6295062 0.19574 0.1068313
v 0.69 0.1378507 0.17
v 0.6773251 0.1626253 0.1068313
v 0.7942355 0.09001064 0.159953
v 0.6339938 0.1045375 0.2309614
v 0.73 -0.00076952 0.19
v 0.7700101 0.001234907 0.1799649
v 0.8 0.0007851699 0.13
v 0.8214145 0.04841565 0.1068313
v 0.7985544 0.001674539 0.1068313
v 0.59 0.00064114 0.25
v 0.5594605 0.03981863 0.3306701
v 0.55 0.002543725 0.32
v 0.34 0.00035915 0.39
v 0.3117345 0.06626502 0.3756188
v 0.2606634 0.01004595 0.3699099
v 0.1549542 0.09 0.23
v 0.121745 0.0732721 0.1076078
v 0.1066299 0.2259012 0.1068313
v 0.03848267 0.3494832 0.1398394
v 0.0277298 0.4321039 0.1068313
v 0.02695587 0.3393346 0.107465
v 0.1832152 -0.001517295 0.1909845
v 0.1359701 0.01723583 0.1071962
v 0.01977692 0.3826748 0.1068313
v 0.4271234 0.2622179 0.1071728
v 0.2858365 0.659841 0.1071257
vt 0.574707 0.7119141
vt 0.5737305 0.715332
vt 0.5791016 0.7124023
vt 0.5771484 0.7192383
vt 0.5834961 0.7177734
vt 0.581543 0.7138672
vt 0.5830078 0.7211914
vt 0.5585938 0.7241211
vt 0.5625 0.7163086
vt 0.5668945 0.7143555
vt 0.5810547 0.7241211
vt 0.5693359 0.7270508
vt 0.5600586 0.7275391
vt 0.5488281 0.7246094
vt 0.5732422 0.7299805
vt 0.5625 0.7324219
vt 0.5522461 0.7329102
vt 0.5361328 0.7265625
vt 0.5454102 0.71875
vt 0.5556641 0.7177734
vt 0.5415039 0.715332
vt 0.534668 0.7133789
vt 0.5297852 0.7163086
vt 0.53125 0.7128906
vt 0.5234375 0.7148438
vt 0.5302734 0.7211914
vt 0.5219727 0.7211914
vt 0.5205078 0.71875
vt 0.5185547 0.7163086
vt 0.5200195 0.7133789
vt 0.5175781 0.715332
vt 0.5273438 0.7275391
vt 0.5317383 0.7280273
vt 0.5302734 0.7299805
vt 0.5385742 0.7363281
vt 0.5415039 0.7363281
vt 0.5415039 0.737793
vt 0.5498047 0.7402344
vt 0.5527344 0.746582
vt 0.559082 0.7407227
vt 0.5654297 0.7368164
vt 0.5698242 0.7353516
vt 0.565918 0.7382813
vt 0.5458984 0.7451172
vt 0.5498047 0.7480469
vt 0.5678711 0.7373047
vt 0.5473633 0.7167969
vt 0.5703125 0.7138672
vn 0.6390375 0.2451542 0.7290614
vn 0.4849271 0.1917239 0.8532805
vn 0.2320143 0.5148401 0.8252933
vn -0.08597304 0.2486187 0.9647785
vn -0.09478492 0.5830612 0.8068799
vn 0.04365065 0.445284 0.8943248
vn -0.5042437 0.3131298 0.8047906
vn 0.3827371 0.2734393 0.8824643
vn 0.80827 0.1854827 0.5588342
vn 0.5525546 -0.01541863 0.833334
vn -0.6178955 0.1094896 0.7785994
vn -0.5149965 0.1010875 0.851211
vn 0.03264819 0.1456293 0.9888004
vn 0.242454 0.5694735 0.78544
vn -0.7734598 0.08060353 0.6286994
vn -0.4809801 0.01945183 0.8765157
vn -0.3893616 0.3103603 0.867222
vn 0.2286553 0.6280442 0.7438262
vn 0.5819728 0.7191499 0.3796459
vn 0.8547425 0.3893354 0.3432683
vn 0.2983156 0.8865933 0.3534971
vn 0.2111991 0.8848906 0.415167
vn 0.3643888 0.7914627 0.4907216
vn 0.5300606 0.8395382 0.1192111
vn 0.7041872 0.5289567 0.4736299
vn 0.5402557 0.1795631 0.8221197
vn 0.3893881 0.02184595 0.9208147
vn 0.5816683 0.02455127 0.8130555
vn 0.8744717 -0.160825 0.4576403
vn 0.8942817 0.4407356 0.07753863
vn 0.8959385 -0.4381845 -0.07272273
vn 0.6539255 -0.1443111 0.742668
vn 0.4961371 0.108293 0.8614641
vn 0.4570971 -0.3500611 0.8176305
vn 0.1448711 0.2431141 0.9591183
vn -0.06992129 0.5443433 0.8359435
vn -0.6555027 0.1670286 0.7364901
vn -0.8697114 0.1200055 0.4787492
vn -0.8822584 0.0001712651 0.4707654
vn -0.7485967 -0.3241567 0.5783817
vn -0.7356489 -0.1914341 0.649749
vn -0.6929547 0.1815842 0.6977398
vn -0.8155311 -0.3357395 0.4713681
vn -0.8257259 -0.41695 0.379907
vn -0.8840612 -0.3292211 0.3317369
vn -0.8653316 0.01064212 0.5010868
vn 0.7908227 0.6120391 -0.002748751
vn 0.8483202 0.2156742 0.4835674
g m_dlc4_moss_02_0
f 3/3/3 2/2/2 1/1/1
f 4/4/4 2/2/2 3/3/3
f 5/5/5 4/4/4 3/3/3
f 5/5/5 3/3/3 6/6/6
f 5/5/5 7/7/7 4/4/4
f 8/8/8 2/2/2 4/4/4
f 9/9/9 2/2/2 8/8/8
f 9/9/9 10/10/10 2/2/2
f 4/4/4 7/7/7 11/11/11
f 11/11/11 12/12/12 4/4/4
f 13/13/13 8/8/8 4/4/4
f 12/12/12 13/13/13 4/4/4
f 9/9/9 8/8/8 14/14/14
f 15/15/15 12/12/12 11/11/11
f 13/13/13 12/12/12 16/16/16
f 8/8/8 17/17/17 14/14/14
f 8/8/8 13/13/13 17/17/17
f 16/16/16 17/17/17 13/13/13
f 17/17/17 18/18/18 14/14/14
f 19/19/19 14/14/14 18/18/18
f 19/19/19 20/20/20 14/14/14
f 9/9/9 14/14/14 20/20/20
f 21/21/21 19/19/19 18/18/18
f 22/22/22 21/21/21 18/18/18
f 22/22/22 18/18/18 23/23/23
f 23/23/23 24/24/24 22/22/22
f 23/23/23 25/25/25 24/24/24
f 23/23/23 26/26/26 25/25/25
f 26/26/26 23/23/23 18/18/18
f 26/26/26 27/27/27 25/25/25
f 28/28/28 25/25/25 27/27/27
f 28/28/28 29/29/29 25/25/25
f 29/29/29 30/30/30 25/25/25
f 25/25/25 30/30/30 24/24/24
f 30/30/30 29/29/29 31/31/31
f 27/27/27 26/26/26 32/32/32
f 33/33/33 26/26/26 18/18/18
f 26/26/26 33/33/33 32/32/32
f 34/34/34 32/32/32 33/33/33
f 34/34/34 33/33/33 35/35/35
f 36/36/36 35/35/35 33/33/33
f 18/18/18 36/36/36 33/33/33
f 18/18/18 17/17/17 36/36/36
f 36/36/36 37/37/37 35/35/35
f 17/17/17 37/37/37 36/36/36
f 37/37/37 17/17/17 38/38/38
f 38/38/38 17/17/17 39/39/39
f 17/17/17 40/40/40 39/39/39
f 17/17/17 41/41/41 40/40/40
f 16/16/16 41/41/41 17/17/17
f 12/12/12 41/41/41 16/16/16
f 41/41/41 12/12/12 15/15/15
f 15/15/15 42/42/42 41/41/41
f 41/41/41 43/43/43 40/40/40
f 37/37/37 38/38/38 44/44/44
f 44/44/44 38/38/38 45/45/45
f 39/39/39 45/45/45 38/38/38
f 41/41/41 42/42/42 46/46/46
f 43/43/43 41/41/41 46/46/46
f 19/19/19 47/47/47 20/20/20
f 19/19/19 21/21/21 47/47/47
f 2/2/2 48/48/48 1/1/1
f 2/2/2 10/10/10 48/48/48
