g m_dlc4_lvl7_ripples_01
v -20.80509 0.1671188 7.974998
v -22.20461 0.1671188 7.95472
v -21.89085 0.1671188 7.151571
v -20.97112 0.1671188 7.164896
v -22.56651 0.1671188 6.922593
v -23.17132 0.1671188 7.627105
v -25.565 0.1671188 4.897062
v -26.15275 0.1671188 5.543263
v -26.2682 0.1671188 4.211761
v -26.96802 0.1671188 4.736776
v -27.43518 0.1671188 3.795787
v -26.66991 0.1671188 3.406789
v -28.09922 0.1671188 -0.0927012
v -28.88757 0.1671188 0.3027362
v -29.0818 0.1671188 -0.9735049
v -28.23985 0.1671188 -1.043201
v -28.16694 0.1671188 -5.673611
v -29.00739 0.1671188 -5.517594
v -29.06989 0.1671188 -5.806234
v -28.2506 0.1671188 -6.140635
v -31.67928 0.1671188 -11.75097
v -32.4878 0.1671188 -11.35185
v -31.94705 0.1671188 -12.36809
v -32.81062 0.1671188 -12.06617
v -32.06697 0.1671188 -12.9616
v -32.98714 0.1671188 -12.93972
v -32.94894 0.1671188 -13.72199
v -32.03331 0.1671188 -13.65804
v -30.73702 0.1671188 -19.79204
v -31.68349 0.1671188 -19.93355
v -30.30128 0.1671188 -20.56454
v -31.07683 0.1671188 -21.00176
v -26.41215 0.1671188 -25.88715
v -27.1809 0.1671188 -26.39533
v -24.68312 0.1671188 3.813868
v -24.09537 0.1671188 3.167667
v -21.33796 0.1671188 4.960506
v -21.94278 0.1671188 5.665018
v -25.12853 0.1671188 3.379793
v -24.42871 0.1671188 2.854779
v -25.40174 0.1671188 2.832343
v -24.63647 0.1671188 2.443345
v -26.74761 0.1671188 -0.4628708
v -25.95927 0.1671188 -0.8583081
v -26.847 0.1671188 -1.134658
v -26.00504 0.1671188 -1.204353
v -26.77375 0.1671188 -5.786371
v -25.93331 0.1671188 -5.942388
v -26.92725 0.1671188 -6.643162
v -26.10797 0.1671188 -6.977563
v -30.44161 0.1671188 -12.39371
v -29.63309 0.1671188 -12.79283
v -30.61241 0.1671188 -12.78736
v -29.74884 0.1671188 -13.08928
v -30.669 0.1671188 -13.0674
v -30.64908 0.1671188 -13.47948
v -29.73344 0.1671188 -13.41553
v -29.4201 0.1671188 -19.29497
v -28.47363 0.1671188 -19.15346
v -29.12971 0.1671188 -19.8098
v -28.35416 0.1671188 -19.37259
v -25.2503 0.1671188 -25.1191
v -24.48155 0.1671188 -24.61092
vt -16.53125 -0.0002949238
vt -15.39063 -0.0002748966
vt -15.39063 0.9580078
vt -16.53125 0.9580078
vt -14.52344 0.9580078
vt -14.52344 -0.0002596378
vt -10.75781 0.9580078
vt -10.75781 -0.0001938343
vt -9.664063 0.9580078
vt -9.664063 -0.0001746416
vt -8.664063 -0.0001573563
vt -8.664063 0.9580078
vt -4.726563 0.9580078
vt -4.726563 -8.845329E-05
vt -3.59375 -6.866455E-05
vt -3.59375 0.9580078
vt 1.133789 0.9580078
vt 1.133789 1.40667E-05
vt 1.498047 2.038479E-05
vt 1.49707 0.9580078
vt 8.265625 0.9584961
vt 8.265625 0.0001386404
vt 9.015625 0.9584961
vt 9.015625 0.0001517534
vt 9.765625 0.9584961
vt 9.765625 0.0001647472
vt 10.52344 0.0001782179
vt 10.52344 0.9584961
vt 17.07813 0.9584961
vt 17.07813 0.000292778
vt 18.125 0.9584961
vt 18.125 0.0003111362
vt 25.73438 0.9584961
vt 25.73438 0.0004315376
vt -16.8125 0.9584961
vt -16.82813 0.0003502369
vt -21.34375 0.0004339218
vt -21.26563 0.9584961
vt -16.17188 0.9584961
vt -16.17188 0.0003371239
vt -15.52344 0.9584961
vt -15.51563 0.000323534
vt -11.14844 0.9584961
vt -11 0.0002324581
vt -10.47656 0.9584961
vt -10.47656 0.0002219677
vt -4.695313 0.9584961
vt -4.605469 0.0001032352
vt -3.464844 0.9580078
vt -3.503906 8.130074E-05
vt 4.894531 0.9580078
vt 4.925781 -8.916855E-05
vt 5.285156 0.9580078
vt 5.429688 -9.942055E-05
vt 5.535156 0.9580078
vt 5.90625 0.9580078
vt 5.945313 -0.0001101494
vt 13.22656 0.9580078
vt 13.35938 -0.0002596378
vt 13.73438 0.9580078
vt 13.76563 -0.0002677441
vt 22.34375 0.9575195
vt 22.34375 -0.0004327297
vn 0 1 0
vn 0 1 0
vn 0 1 0
vn 0 1 0
vn 0 1 0
vn 0 1 0
vn 0 1 0
vn 0 1 0
vn 0 1 0
vn 0 1 0
vn 0 1 0
vn 0 1 0
vn 0 1 0
vn 0 1 0
vn 0 1 0
vn 0 1 0
vn 0 1 0
vn 0 1 0
vn 0 1 0
vn 0 1 0
vn 0 1 0
vn 0 1 0
vn 0 1 0
vn 0 1 0
vn 0 1 0
vn 0 1 0
vn 0 1 0
vn 0 1 0
vn 0 1 0
vn 0 1 0
vn 0 1 0
vn 0 1 0
vn 0 1 0
vn 0 1 0
vn 0 1 0
vn 0 1 0
vn 0 1 0
vn 0 1 0
vn 0 1 0
vn 0 1 0
vn 0 1 0
vn 0 1 0
vn 0 1 0
vn 0 1 0
vn 0 1 0
vn 0 1 0
vn 0 1 0
vn 0 1 0
vn 0 1 0
vn 0 1 0
vn 0 1 0
vn 0 1 0
vn 0 1 0
vn 0 1 0
vn 0 1 0
vn 0 1 0
vn 0 1 0
vn 0 1 0
vn 0 1 0
vn 0 1 0
vn 0 1 0
vn 0 1 0
vn 0 1 0
g m_dlc4_lvl7_ripples_01_0
f 3/3/3 2/2/2 1/1/1
f 4/4/4 3/3/3 1/1/1
f 3/3/3 5/5/5 2/2/2
f 5/5/5 6/6/6 2/2/2
f 5/5/5 7/7/7 6/6/6
f 7/7/7 8/8/8 6/6/6
f 7/7/7 9/9/9 8/8/8
f 9/9/9 10/10/10 8/8/8
f 10/10/10 9/9/9 11/11/11
f 9/9/9 12/12/12 11/11/11
f 12/12/12 13/13/13 11/11/11
f 13/13/13 14/14/14 11/11/11
f 14/14/14 13/13/13 15/15/15
f 13/13/13 16/16/16 15/15/15
f 16/16/16 17/17/17 15/15/15
f 17/17/17 18/18/18 15/15/15
f 19/19/19 18/18/18 17/17/17
f 20/20/20 19/19/19 17/17/17
f 20/20/20 21/21/21 19/19/19
f 21/21/21 22/22/22 19/19/19
f 21/21/21 23/23/23 22/22/22
f 23/23/23 24/24/24 22/22/22
f 23/23/23 25/25/25 24/24/24
f 25/25/25 26/26/26 24/24/24
f 26/26/26 25/25/25 27/27/27
f 25/25/25 28/28/28 27/27/27
f 28/28/28 29/29/29 27/27/27
f 29/29/29 30/30/30 27/27/27
f 29/29/29 31/31/31 30/30/30
f 31/31/31 32/32/32 30/30/30
f 31/31/31 33/33/33 32/32/32
f 33/33/33 34/34/34 32/32/32
f 37/37/37 36/36/36 35/35/35
f 38/38/38 37/37/37 35/35/35
f 35/35/35 36/36/36 39/39/39
f 36/36/36 40/40/40 39/39/39
f 39/39/39 40/40/40 41/41/41
f 40/40/40 42/42/42 41/41/41
f 41/41/41 42/42/42 43/43/43
f 42/42/42 44/44/44 43/43/43
f 43/43/43 44/44/44 45/45/45
f 44/44/44 46/46/46 45/45/45
f 45/45/45 46/46/46 47/47/47
f 46/46/46 48/48/48 47/47/47
f 49/49/49 47/47/47 48/48/48
f 50/50/50 49/49/49 48/48/48
f 49/49/49 50/50/50 51/51/51
f 50/50/50 52/52/52 51/51/51
f 51/51/51 52/52/52 53/53/53
f 52/52/52 54/54/54 53/53/53
f 53/53/53 54/54/54 55/55/55
f 55/55/55 54/54/54 56/56/56
f 54/54/54 57/57/57 56/56/56
f 56/56/56 57/57/57 58/58/58
f 57/57/57 59/59/59 58/58/58
f 58/58/58 59/59/59 60/60/60
f 59/59/59 61/61/61 60/60/60
f 60/60/60 61/61/61 62/62/62
f 61/61/61 63/63/63 62/62/62
