g m_dlc4_butterfly_leftwing_01
v 0.8 0.01 -0.4
v 0.8 0.01 0.4
v 4.042572E-16 0.01 0.4
v -4.042572E-16 0.01 -0.4
v 0.8 -8.881784E-17 -0.4
v -4.042572E-16 -8.881784E-17 -0.4
v 4.042572E-16 8.881784E-17 0.4
v 0.8 8.881784E-17 0.4
vt 0.9620242 0.03797579
vt 0.9620242 0.9620242
vt 0.03797579 0.9620242
vt 0.03797579 0.03797579
vt 0.9620242 0.03797579
vt 0.03797579 0.03797579
vt 0.03797579 0.9620242
vt 0.9620242 0.9620242
vn -0.3925465 0.9197322 0
vn -0.3925465 0.9197322 0
vn -0.3925465 0.9197322 0
vn -0.3925465 0.9197322 0
vn 0.3916235 -0.9201255 0
vn 0.3916235 -0.9201255 0
vn 0.3916235 -0.9201255 0
vn 0.3916235 -0.9201255 0
g m_dlc4_butterfly_leftwing_01_0
f 3/3/3 2/2/2 1/1/1
f 4/4/4 3/3/3 1/1/1
f 7/7/7 6/6/6 5/5/5
f 8/8/8 7/7/7 5/5/5
