g m_dlc4_lvl4_river_01
v -13.94181 -0.0004931202 3.728962
v -13.88042 -0.0004822914 3.962522
v -15.77237 -0.0004822914 4.450095
v -15.85582 -0.0004931202 4.120944
v -15.66611 -0.0004712297 4.78844
v -13.80485 -0.0004712297 4.194343
v -15.53372 -0.0004602844 5.132331
v -13.71439 -0.0004602844 4.420056
v -15.37156 -0.0004493391 5.477844
v -13.60864 -0.0004493391 4.635549
v -15.17574 -0.0004383938 5.820603
v -13.48747 -0.0004383938 4.83717
v -14.94223 -0.0004274485 6.155515
v -13.35086 -0.0004274485 5.021985
v -14.66724 -0.0004165032 6.47655
v -13.19858 -0.0004165032 5.187991
v -14.34765 -0.0004054415 6.776604
v -13.0297 -0.0004054415 5.334275
v -13.98169 -0.0003946127 7.047693
v -12.84198 -0.0003946127 5.460783
v -13.56936 -0.0003835509 7.281575
v -12.63137 -0.0003835509 5.567722
v -13.11245 -0.0003726056 7.470676
v -12.39206 -0.0003726056 5.654646
v -12.61389 -0.0003616603 7.608972
v -12.11707 -0.0003616603 5.719548
v -12.07669 -0.000350715 7.692341
v -11.79937 -0.000350715 5.758523
v -11.50293 -0.0003397698 7.718308
v -11.43283 -0.0003397698 5.766018
v -10.89329 -0.0003288245 7.685354
v -11.01276 -0.0003288245 5.735515
v -9.805675 -0.0003178792 7.613757
v -9.933371 -0.0003178792 5.664446
v -8.787032 -0.0003068174 7.408117
v -9.191271 -0.0003068174 5.496999
v -7.916295 -0.0002959886 7.061121
v -8.672256 -0.0002959886 5.260046
v -7.188945 -0.0002849268 6.55989
v -8.345563 -0.0002849268 4.986027
v -6.626585 -0.0002739816 5.907795
v -8.15431 -0.0002739816 4.691115
v -6.254029 -0.0002630363 5.146663
v -8.038406 -0.0002630363 4.353039
v -6.061383 -0.000252091 4.334758
v -7.972469 -0.000252091 3.933093
v -6.00964 -0.0002410293 3.508029
v -7.960221 -0.0002410293 3.414878
v -6.058332 -0.0002302004 2.677763
v -8.006857 -0.0002302004 2.806657
v -6.17599 -0.0002191387 1.845903
v -8.108561 -0.0002191387 2.126047
v -6.338299 -0.0002081934 1.014175
v -8.254374 -0.0002081934 1.390871
v -6.52473 -0.0001972481 0.1866526
v -8.429544 -0.0001972481 0.6166111
v -6.716539 -0.0001863028 -0.6301418
v -8.617537 -0.0001863028 -0.1836989
v -6.89584 -0.0001753575 -1.427561
v -8.80096 -0.0001753575 -0.9991555
v -7.04535 -0.0001644122 -2.195027
v -8.961819 -0.0001644122 -1.820786
v -7.148603 -0.000153467 -2.919969
v -9.081298 -0.000153467 -2.641604
v -7.190753 -0.0001424052 -3.587686
v -9.138966 -0.0001424052 -3.456753
v -7.160233 -0.0001315764 -4.181604
v -9.111112 -0.0001315764 -4.263259
v -7.051371 -0.0001205146 -4.685498
v -8.96813 -0.0001205146 -5.057793
v -6.865738 -0.0001096858 -5.090657
v -8.673166 -0.0001096858 -5.829512
v -6.60465 -9.862405E-05 -5.407683
v -8.189632 -9.862405E-05 -6.548254
v -6.248297 -8.767876E-05 -5.666897
v -7.502054 -8.767876E-05 -7.164155
v -5.746854 -7.673348E-05 -5.890723
v -6.624984 -7.673348E-05 -7.635232
v -5.046178 -6.578819E-05 -6.070725
v -5.577279 -6.578819E-05 -7.950371
v -3.383495 -5.472645E-05 -6.216917
v -3.630495 -5.472645E-05 -8.154629
v -1.774616 -4.38976E-05 -6.134309
v -1.691288 -4.38976E-05 -8.086108
v -1.178734 -3.283587E-05 -5.992454
v -0.7684072 -3.283587E-05 -7.902649
v -0.7486367 -2.189059E-05 -5.778357
v 0.04607277 -2.189059E-05 -7.563449
v -0.4474599 -1.094529E-05 -5.514587
v 0.739874 -1.094529E-05 -7.06679
v -0.2271426 -5.820766E-13 -5.200952
v 1.289515 -5.820766E-13 -6.433706
v -0.05401512 1.094528E-05 -4.815933
v 1.685907 1.094528E-05 -5.70656
v 0.08008644 2.189058E-05 -4.340767
v 1.945472 2.189058E-05 -4.924956
v 0.171312 3.283587E-05 -3.773552
v 2.096634 3.283587E-05 -4.111643
v 0.2173765 4.389759E-05 -3.124795
v 2.166263 4.389759E-05 -3.276956
v 0.2212266 5.472645E-05 -2.409512
v 2.175995 5.472645E-05 -2.426719
v 1.889378 0.0001069099 1.441128
v -0.05505516 0.0001160818 1.519619
v -0.08860252 0.0001234455 2.305976
v 1.867594 0.0001114391 2.081677
v -0.1345766 0.0001307088 3.108205
v 1.882865 0.0001172209 2.752165
v -0.1635 0.0001387161 3.960944
v 1.944078 0.0001253475 3.447771
v -0.1315444 0.0001478369 4.871941
v 2.060018 0.0001361783 4.115778
v 0.04016456 0.0001582004 5.827131
v 2.238031 0.0001494755 4.687033
v 0.4571494 0.0001699444 6.787903
v 2.476878 0.0001646092 5.118425
v 1.178243 0.0001833702 7.822488
v 2.778446 0.0001809159 5.417961
v 2.518873 0.0001980308 8.913498
v 3.434779 0.0001977109 5.943147
v 3.939656 0.0002154276 9.478683
v 4.318111 0.0002154227 6.270456
v 5.396092 0.0002246695 9.67611
v 5.417926 0.0002246695 6.371247
v 6.981009 0.0002339115 9.38819
v 6.535382 0.0002339164 6.29238
v 8.519095 0.0002513034 8.691413
v 7.721905 0.0002513766 5.764089
v 9.720616 0.0002663481 7.803806
v 8.408702 0.000267554 5.072253
v 10.38563 0.0002795364 6.865412
v 8.731578 0.0002828861 4.649958
v 10.92505 0.0002906232 5.836599
v 8.928048 0.0002970495 4.183034
v 11.14733 0.0003001737 4.79074
v 9.05366 0.0003095762 3.655217
v 11.18192 0.0003087985 3.809402
v 9.107445 0.0003198686 3.038713
v 11.04684 0.0003165882 2.837102
v 9.063128 0.000326608 2.330869
v 10.85197 0.0003237016 1.848396
v 8.950514 0.0003307527 1.571203
v 8.871151 0.0003410346 0.6361668
v 10.82171 0.000340129 0.6583079
v 10.96087 0.000350715 -0.3708498
v 9.010653 0.000350715 -0.5499318
v 11.2048 0.0003616603 -1.226206
v 9.401942 0.0003616603 -2.028748
v 11.62963 0.0003726056 -2.109673
v 9.921659 0.0003726056 -3.260003
v 12.12621 0.0003836673 -2.864795
v 10.64887 0.0003836673 -4.461284
v 12.72522 0.0003946127 -3.496179
v 11.63695 0.0003946127 -5.399111
v 13.31755 0.0004055579 -3.88302
v 12.45233 0.0004055579 -5.86342
v 14.00512 0.0004165032 -4.067854
v 13.7339 0.0004165032 -6.244558
v 15.02369 -4.78496E-05 -6.154067
v 14.73502 0.0004383938 -4.056565
v 15.54294 0.0004493391 -3.751963
v 16.19481 0.0004493391 -5.709551
v 17.54068 0.0004712297 -4.675669
v 16.41695 0.0004712297 -3.077432
v 17.29486 0.0004822914 -2.29688
v 18.58743 0.0004822914 -3.762239
v 18.31548 0.0004931202 -1.23709
v 19.7216 0.0004931202 -2.594136
vt -1.758789 -0.02160645
vt -1.748047 -0.05691528
vt -2.035156 -0.1387939
vt -2.048828 -0.08898926
vt -2.017578 -0.1898193
vt -1.735352 -0.09191895
vt -1.995117 -0.2416992
vt -1.720703 -0.1258545
vt -1.96875 -0.2937012
vt -1.704102 -0.1583252
vt -1.9375 -0.3449707
vt -1.68457 -0.1884766
vt -1.901367 -0.3950195
vt -1.663086 -0.2160645
vt -1.857422 -0.4428711
vt -1.639648 -0.2407227
vt -1.807617 -0.4873047
vt -1.613281 -0.2624512
vt -1.750977 -0.5268555
vt -1.583984 -0.2807617
vt -1.6875 -0.5610352
vt -1.551758 -0.2963867
vt -1.617188 -0.5878906
vt -1.514648 -0.3085938
vt -1.541016 -0.6069336
vt -1.472656 -0.3173828
vt -1.458984 -0.6176758
vt -1.423828 -0.3220215
vt -1.371094 -0.6191406
vt -1.368164 -0.3215332
vt -1.27832 -0.6118164
vt -1.304688 -0.3151855
vt -1.113281 -0.5961914
vt -1.140625 -0.3000488
vt -0.9589844 -0.5610352
vt -1.02832 -0.2717285
vt -0.8276367 -0.5043945
vt -0.9501953 -0.2335205
vt -0.71875 -0.425293
vt -0.9013672 -0.1904297
vt -0.6357422 -0.3237305
vt -0.8735352 -0.1447754
vt -0.5825195 -0.2064209
vt -0.8569336 -0.09283447
vt -0.5561523 -0.08209229
vt -0.8486328 -0.02862549
vt -0.5517578 0.04397583
vt -0.8491211 0.05032349
vt -0.5625 0.170166
vt -0.8583984 0.1427002
vt -0.5834961 0.2963867
vt -0.8769531 0.2459717
vt -0.6118164 0.4223633
vt -0.9018555 0.3571777
vt -0.6435547 0.5473633
vt -0.9316406 0.4743652
vt -0.6757813 0.6713867
vt -0.9633789 0.5957031
vt -0.706543 0.7919922
vt -0.9946289 0.71875
vt -0.7324219 0.9082031
vt -1.022461 0.8432617
vt -0.7509766 1.017578
vt -1.043945 0.9677734
vt -0.7602539 1.119141
vt -1.056641 1.091797
vt -0.7578125 1.209961
vt -1.055664 1.214844
vt -0.7431641 1.287109
vt -1.036133 1.335938
vt -0.7167969 1.349609
vt -0.9946289 1.455078
vt -0.6782227 1.399414
vt -0.9243164 1.566406
vt -0.625 1.439453
vt -0.8217773 1.663086
vt -0.5493164 1.475586
vt -0.6904297 1.738281
vt -0.4436035 1.505859
vt -0.5322266 1.790039
vt -0.19104 1.535156
vt -0.2364502 1.829102
vt 0.05422974 1.529297
vt 0.05905151 1.826172
vt 0.1455078 1.509766
vt 0.2003174 1.802734
vt 0.2119141 1.479492
vt 0.3256836 1.753906
vt 0.2587891 1.44043
vt 0.4333496 1.681641
vt 0.2937012 1.393555
vt 0.5195313 1.586914
vt 0.3215332 1.334961
vt 0.5830078 1.477539
vt 0.34375 1.263672
vt 0.6254883 1.360352
vt 0.3601074 1.177734
vt 0.6518555 1.236328
vt 0.3696289 1.079102
vt 0.6655273 1.110352
vt 0.3730469 0.9702148
vt 0.6704102 0.9804688
vt 0.6425781 0.3903809
vt 0.3469238 0.3706055
vt 0.3449707 0.2509766
vt 0.6420898 0.2929688
vt 0.3410645 0.12854
vt 0.6469727 0.190918
vt 0.3400879 -0.001410484
vt 0.6591797 0.08520508
vt 0.3486328 -0.1400146
vt 0.6791992 -0.01602173
vt 0.3786621 -0.284668
vt 0.7089844 -0.1022949
vt 0.4460449 -0.4291992
vt 0.7470703 -0.1669922
vt 0.5600586 -0.5839844
vt 0.7939453 -0.2114258
vt 0.7685547 -0.7446289
vt 0.8959961 -0.2885742
vt 0.9873047 -0.824707
vt 1.032227 -0.3349609
vt 1.209961 -0.8491211
vt 1.199219 -0.3459473
vt 1.450195 -0.7988281
vt 1.369141 -0.3293457
vt 1.681641 -0.6865234
vt 1.547852 -0.2441406
vt 1.860352 -0.546875
vt 1.649414 -0.1361084
vt 1.958008 -0.401123
vt 1.697266 -0.07049561
vt 2.035156 -0.2423096
vt 1.725586 0.001407623
vt 2.066406 -0.08215332
vt 1.742188 0.08227539
vt 2.066406 0.06738281
vt 1.748047 0.1763916
vt 2.042969 0.2148438
vt 1.738281 0.2839355
vt 2.007813 0.364502
vt 1.717773 0.3991699
vt 1.702148 0.5410156
vt 1.999023 0.5458984
vt 2.015625 0.703125
vt 1.71875 0.722168
vt 2.050781 0.8339844
vt 1.772461 0.9492188
vt 2.111328 0.9702148
vt 1.84668 1.138672
vt 2.183594 1.086914
vt 1.952148 1.324219
vt 2.271484 1.185547
vt 2.099609 1.470703
vt 2.361328 1.24707
vt 2.220703 1.544922
vt 2.464844 1.27832
vt 2.414063 1.608398
vt 2.611328 1.599609
vt 2.576172 1.279297
vt 2.701172 1.236328
vt 2.791016 1.537109
vt 3 1.384766
vt 2.835938 1.136719
vt 2.972656 1.021484
vt 3.164063 1.25
vt 3.132813 0.8642578
vt 3.341797 1.077148
vn -8.395274E-06 1 -3.632738E-05
vn -9.351315E-06 1 -3.591742E-05
vn -9.317391E-06 1 -3.593197E-05
vn -8.395274E-06 1 -3.632738E-05
vn -1.110349E-05 1 -3.464651E-05
vn -1.113987E-05 1 -3.460898E-05
vn -1.299013E-05 1 -3.304172E-05
vn -1.303914E-05 1 -3.300768E-05
vn -1.512767E-05 1 -3.154402E-05
vn -1.518863E-05 1 -3.150095E-05
vn -1.742339E-05 1 -2.981543E-05
vn -1.749644E-05 1 -2.97571E-05
vn -1.978887E-05 1 -2.771258E-05
vn -1.987122E-05 1 -2.763168E-05
vn -2.219554E-05 1 -2.524449E-05
vn -2.228927E-05 1 -2.514431E-05
vn -2.40676E-05 1 -2.20131E-05
vn -2.412049E-05 1 -2.185319E-05
vn -2.555784E-05 1 -1.835792E-05
vn -2.563135E-05 1 -1.820996E-05
vn -2.646079E-05 1 -1.454927E-05
vn -2.646462E-05 1 -1.436778E-05
vn -2.627745E-05 1 -1.05004E-05
vn -2.625834E-05 1 -1.033652E-05
vn -2.546272E-05 1 -6.782556E-06
vn -2.541675E-05 1 -6.643885E-06
vn -2.403338E-05 1 -3.534835E-06
vn -2.3973E-05 1 -3.428183E-06
vn -2.220511E-05 1 -8.798206E-07
vn -2.214166E-05 1 -8.041359E-07
vn -1.365136E-05 1 5.191845E-07
vn -1.363088E-05 1 5.198604E-07
vn -1.098353E-05 1 1.08675E-06
vn -1.108163E-05 1 1.134442E-06
vn -1.287873E-05 1 2.804646E-06
vn -1.297538E-05 1 2.966467E-06
vn -1.422349E-05 1 6.070166E-06
vn -1.43072E-05 1 6.399538E-06
vn -1.407249E-05 1 1.029289E-05
vn -1.391317E-05 1 1.070038E-05
vn -1.145184E-05 1 1.407003E-05
vn -1.110402E-05 1 1.436069E-05
vn -7.504556E-06 1 1.615024E-05
vn -7.18081E-06 1 1.622505E-05
vn -3.745107E-06 1 1.649569E-05
vn -3.56184E-06 1 1.647947E-05
vn -9.724972E-07 1 1.569469E-05
vn -8.877416E-07 1 1.564524E-05
vn 8.337894E-07 1 1.472435E-05
vn 8.687846E-07 1 1.470814E-05
vn 1.915721E-06 1 1.395859E-05
vn 1.928447E-06 1 1.394423E-05
vn 2.531746E-06 1 1.327945E-05
vn 2.535736E-06 1 1.327523E-05
vn 2.855989E-06 1 1.29432E-05
vn 2.856554E-06 1 1.294264E-05
vn 2.961837E-06 1 1.287384E-05
vn 2.96181E-06 1 1.287365E-05
vn 2.872924E-06 1 1.306875E-05
vn 2.874609E-06 1 1.30658E-05
vn 2.56197E-06 1 1.352772E-05
vn 2.568868E-06 1 1.351835E-05
vn 1.953031E-06 1 1.431918E-05
vn 1.97195E-06 1 1.42952E-05
vn 8.737899E-07 1 1.514624E-05
vn 9.215498E-07 1 1.512321E-05
vn -9.06057E-07 1 1.608075E-05
vn -8.011206E-07 1 1.602288E-05
vn -3.506098E-06 1 1.652464E-05
vn -3.313587E-06 1 1.654137E-05
vn -6.857538E-06 1 1.578313E-05
vn -6.566961E-06 1 1.587503E-05
vn -9.928361E-06 1 1.332334E-05
vn -9.702449E-06 1 1.362425E-05
vn -1.154989E-05 1 9.520293E-06
vn -1.147734E-05 1 9.843677E-06
vn -1.155007E-05 1 5.835314E-06
vn -1.159151E-05 1 6.05652E-06
vn -7.620984E-06 1 2.191362E-06
vn -7.892096E-06 1 2.354008E-06
vn -6.06562E-06 1 7.139539E-07
vn -6.05894E-06 1 7.757019E-07
vn -8.778953E-06 1 -4.264346E-07
vn -8.404585E-06 1 -3.303452E-07
vn -1.477819E-05 1 -3.432632E-06
vn -1.469691E-05 1 -3.21299E-06
vn -1.524044E-05 1 -7.113517E-06
vn -1.525903E-05 1 -6.790999E-06
vn -1.394042E-05 1 -1.095961E-05
vn -1.412393E-05 1 -1.065596E-05
vn -1.110304E-05 1 -1.379129E-05
vn -1.135432E-05 1 -1.362771E-05
vn -7.797466E-06 1 -1.513326E-05
vn -7.99257E-06 1 -1.509289E-05
vn -4.896132E-06 1 -1.531349E-05
vn -5.009865E-06 1 -1.53236E-05
vn -2.722916E-06 1 -1.497273E-05
vn -2.780381E-06 1 -1.498652E-05
vn -1.202183E-06 1 -1.427458E-05
vn -1.230538E-06 1 -1.429557E-05
vn 1.581018E-06 1 -1.432306E-05
vn 1.543396E-06 1 -1.431454E-05
vn 2.389362E-06 1 -1.35419E-05
vn 2.478525E-06 1 -1.334217E-05
vn 4.98934E-06 1 -8.488454E-06
vn 4.958888E-06 1 -8.434692E-06
vn 4.638051E-06 1 -9.795031E-06
vn 4.728376E-06 1 -9.6063E-06
vn 2.943918E-06 1 -1.18946E-05
vn 3.194379E-06 1 -1.163806E-05
vn -2.617281E-07 1 -1.414804E-05
vn 1.443928E-07 1 -1.391423E-05
vn -4.963137E-06 1 -1.554266E-05
vn -4.502122E-06 1 -1.547266E-05
vn -1.028241E-05 1 -1.406872E-05
vn -9.910828E-06 1 -1.429204E-05
vn -1.148195E-05 1 -7.886688E-06
vn -1.162008E-05 1 -8.714498E-06
vn -1.286718E-05 1 -4.11346E-06
vn -1.244223E-05 1 -4.504871E-06
vn -1.015112E-05 1 -1.544573E-06
vn -1.06946E-05 1 -1.746321E-06
vn -6.981062E-06 1 0
vn -6.977407E-06 1 0
vn -9.002461E-06 1 1.342785E-06
vn -9.417126E-06 1 1.509465E-06
vn -1.196765E-05 1 3.286186E-06
vn -1.210775E-05 1 3.736264E-06
vn -1.31994E-05 1 6.292157E-06
vn -1.382583E-05 1 7.498011E-06
vn -1.328911E-05 1 1.069098E-05
vn -1.203611E-05 1 1.117505E-05
vn -8.216683E-06 1 1.230544E-05
vn -7.039539E-06 1 1.253219E-05
vn -3.367071E-06 1 1.253635E-05
vn -2.351136E-06 1 1.228058E-05
vn 5.921344E-07 1 1.05928E-05
vn 1.328222E-06 1 9.763672E-06
vn 2.79743E-06 1 7.464858E-06
vn 2.955893E-06 1 6.853036E-06
vn 2.199691E-06 1 9.041491E-06
vn 1.862238E-06 1 1.009997E-05
vn 4.082276E-07 1 1.076607E-05
vn 3.886665E-07 1 1.071622E-05
vn -1.374263E-06 1 8.917338E-06
vn -1.237094E-06 1 8.941637E-06
vn -3.404737E-06 1 8.532556E-06
vn -3.513345E-06 1 8.510872E-06
vn -5.44721E-06 1 7.832973E-06
vn -5.557466E-06 1 7.772434E-06
vn -7.08792E-06 1 6.673377E-06
vn -7.249438E-06 1 6.529223E-06
vn -9.47511E-06 1 5.91362E-06
vn -9.831691E-06 1 5.925935E-06
vn -1.10333E-05 1 4.246435E-06
vn -1.103398E-05 1 4.247763E-06
vn 0.0001059439 1 -5.438192E-05
vn 0.0001046962 1 -5.3768E-05
vn 2.579287E-05 1 -0.0001375968
vn 7.917944E-06 1 -0.0001398204
vn -8.463692E-05 1 -6.882609E-05
vn -0.000106088 1 -8.763257E-05
vn -1.086049E-05 1 -6.314168E-06
vn -1.049906E-05 1 -6.228779E-06
vn -5.814404E-06 1 -5.06051E-06
vn -5.857288E-06 1 -5.073359E-06
vn -5.054266E-06 1 -4.832739E-06
vn -5.054266E-06 1 -4.83274E-06
g m_dlc4_lvl4_river_01_0
f 3/3/3 2/2/2 1/1/1
f 4/4/4 3/3/3 1/1/1
f 3/3/3 5/5/5 2/2/2
f 5/5/5 6/6/6 2/2/2
f 5/5/5 7/7/7 6/6/6
f 7/7/7 8/8/8 6/6/6
f 7/7/7 9/9/9 8/8/8
f 9/9/9 10/10/10 8/8/8
f 9/9/9 11/11/11 10/10/10
f 11/11/11 12/12/12 10/10/10
f 11/11/11 13/13/13 12/12/12
f 13/13/13 14/14/14 12/12/12
f 13/13/13 15/15/15 14/14/14
f 15/15/15 16/16/16 14/14/14
f 15/15/15 17/17/17 16/16/16
f 17/17/17 18/18/18 16/16/16
f 17/17/17 19/19/19 18/18/18
f 19/19/19 20/20/20 18/18/18
f 19/19/19 21/21/21 20/20/20
f 21/21/21 22/22/22 20/20/20
f 21/21/21 23/23/23 22/22/22
f 23/23/23 24/24/24 22/22/22
f 23/23/23 25/25/25 24/24/24
f 25/25/25 26/26/26 24/24/24
f 25/25/25 27/27/27 26/26/26
f 27/27/27 28/28/28 26/26/26
f 27/27/27 29/29/29 28/28/28
f 29/29/29 30/30/30 28/28/28
f 29/29/29 31/31/31 30/30/30
f 31/31/31 32/32/32 30/30/30
f 31/31/31 33/33/33 32/32/32
f 33/33/33 34/34/34 32/32/32
f 33/33/33 35/35/35 34/34/34
f 35/35/35 36/36/36 34/34/34
f 35/35/35 37/37/37 36/36/36
f 37/37/37 38/38/38 36/36/36
f 37/37/37 39/39/39 38/38/38
f 39/39/39 40/40/40 38/38/38
f 39/39/39 41/41/41 40/40/40
f 41/41/41 42/42/42 40/40/40
f 41/41/41 43/43/43 42/42/42
f 43/43/43 44/44/44 42/42/42
f 43/43/43 45/45/45 44/44/44
f 45/45/45 46/46/46 44/44/44
f 45/45/45 47/47/47 46/46/46
f 47/47/47 48/48/48 46/46/46
f 47/47/47 49/49/49 48/48/48
f 49/49/49 50/50/50 48/48/48
f 49/49/49 51/51/51 50/50/50
f 51/51/51 52/52/52 50/50/50
f 51/51/51 53/53/53 52/52/52
f 53/53/53 54/54/54 52/52/52
f 53/53/53 55/55/55 54/54/54
f 55/55/55 56/56/56 54/54/54
f 55/55/55 57/57/57 56/56/56
f 57/57/57 58/58/58 56/56/56
f 57/57/57 59/59/59 58/58/58
f 59/59/59 60/60/60 58/58/58
f 59/59/59 61/61/61 60/60/60
f 61/61/61 62/62/62 60/60/60
f 61/61/61 63/63/63 62/62/62
f 63/63/63 64/64/64 62/62/62
f 63/63/63 65/65/65 64/64/64
f 65/65/65 66/66/66 64/64/64
f 65/65/65 67/67/67 66/66/66
f 67/67/67 68/68/68 66/66/66
f 67/67/67 69/69/69 68/68/68
f 69/69/69 70/70/70 68/68/68
f 69/69/69 71/71/71 70/70/70
f 71/71/71 72/72/72 70/70/70
f 71/71/71 73/73/73 72/72/72
f 73/73/73 74/74/74 72/72/72
f 73/73/73 75/75/75 74/74/74
f 75/75/75 76/76/76 74/74/74
f 75/75/75 77/77/77 76/76/76
f 77/77/77 78/78/78 76/76/76
f 77/77/77 79/79/79 78/78/78
f 79/79/79 80/80/80 78/78/78
f 79/79/79 81/81/81 80/80/80
f 81/81/81 82/82/82 80/80/80
f 81/81/81 83/83/83 82/82/82
f 83/83/83 84/84/84 82/82/82
f 83/83/83 85/85/85 84/84/84
f 85/85/85 86/86/86 84/84/84
f 85/85/85 87/87/87 86/86/86
f 87/87/87 88/88/88 86/86/86
f 87/87/87 89/89/89 88/88/88
f 89/89/89 90/90/90 88/88/88
f 89/89/89 91/91/91 90/90/90
f 91/91/91 92/92/92 90/90/90
f 91/91/91 93/93/93 92/92/92
f 93/93/93 94/94/94 92/92/92
f 93/93/93 95/95/95 94/94/94
f 95/95/95 96/96/96 94/94/94
f 95/95/95 97/97/97 96/96/96
f 97/97/97 98/98/98 96/96/96
f 97/97/97 99/99/99 98/98/98
f 99/99/99 100/100/100 98/98/98
f 99/99/99 101/101/101 100/100/100
f 101/101/101 102/102/102 100/100/100
f 102/102/102 101/101/101 103/103/103
f 101/101/101 104/104/104 103/103/103
f 104/104/104 105/105/105 103/103/103
f 105/105/105 106/106/106 103/103/103
f 105/105/105 107/107/107 106/106/106
f 107/107/107 108/108/108 106/106/106
f 107/107/107 109/109/109 108/108/108
f 109/109/109 110/110/110 108/108/108
f 109/109/109 111/111/111 110/110/110
f 111/111/111 112/112/112 110/110/110
f 111/111/111 113/113/113 112/112/112
f 113/113/113 114/114/114 112/112/112
f 113/113/113 115/115/115 114/114/114
f 115/115/115 116/116/116 114/114/114
f 115/115/115 117/117/117 116/116/116
f 117/117/117 118/118/118 116/116/116
f 117/117/117 119/119/119 118/118/118
f 119/119/119 120/120/120 118/118/118
f 119/119/119 121/121/121 120/120/120
f 121/121/121 122/122/122 120/120/120
f 121/121/121 123/123/123 122/122/122
f 123/123/123 124/124/124 122/122/122
f 123/123/123 125/125/125 124/124/124
f 125/125/125 126/126/126 124/124/124
f 125/125/125 127/127/127 126/126/126
f 127/127/127 128/128/128 126/126/126
f 127/127/127 129/129/129 128/128/128
f 129/129/129 130/130/130 128/128/128
f 129/129/129 131/131/131 130/130/130
f 131/131/131 132/132/132 130/130/130
f 131/131/131 133/133/133 132/132/132
f 133/133/133 134/134/134 132/132/132
f 133/133/133 135/135/135 134/134/134
f 135/135/135 136/136/136 134/134/134
f 135/135/135 137/137/137 136/136/136
f 137/137/137 138/138/138 136/136/136
f 137/137/137 139/139/139 138/138/138
f 139/139/139 140/140/140 138/138/138
f 139/139/139 141/141/141 140/140/140
f 141/141/141 142/142/142 140/140/140
f 142/142/142 141/141/141 143/143/143
f 141/141/141 144/144/144 143/143/143
f 144/144/144 145/145/145 143/143/143
f 145/145/145 146/146/146 143/143/143
f 145/145/145 147/147/147 146/146/146
f 147/147/147 148/148/148 146/146/146
f 147/147/147 149/149/149 148/148/148
f 149/149/149 150/150/150 148/148/148
f 149/149/149 151/151/151 150/150/150
f 151/151/151 152/152/152 150/150/150
f 151/151/151 153/153/153 152/152/152
f 153/153/153 154/154/154 152/152/152
f 153/153/153 155/155/155 154/154/154
f 155/155/155 156/156/156 154/154/154
f 155/155/155 157/157/157 156/156/156
f 157/157/157 158/158/158 156/156/156
f 158/158/158 157/157/157 159/159/159
f 157/157/157 160/160/160 159/159/159
f 160/160/160 161/161/161 159/159/159
f 161/161/161 162/162/162 159/159/159
f 162/162/162 161/161/161 163/163/163
f 161/161/161 164/164/164 163/163/163
f 164/164/164 165/165/165 163/163/163
f 165/165/165 166/166/166 163/163/163
f 165/165/165 167/167/167 166/166/166
f 167/167/167 168/168/168 166/166/166
