g m_dlc4_moss_01
v -0.38 -0.00293746 0.45
v -0.44 -0.00370414 0.4
v -0.41 0.02 0.4610352
v -0.28 0.000369755 0.42
v -0.1563308 0.04126796 0.3832059
v -0.29 0.15 0.3809692
v -0.5280315 0.1177643 0.2928967
v -0.26 0.23 0.317779
v -0.4693636 0.2623526 0.2004177
v -0.3467901 0.2657992 0.2591602
v -0.3551022 0.3506104 0.1073594
v -0.4813247 0.2693731 0.1078875
v -0.2 0.0011696 0.37
v -0.03997024 0.02019886 0.4096518
v -0.06953142 -0.001168995 0.39
v -0.1400719 0.1600492 0.3172911
v -0.03561712 0.1083488 0.2243925
v -0.2643651 0.4468677 0.2135929
v -0.3200326 0.4709878 0.1068313
v -0.3147291 0.5708916 0.1068313
v 0.01994761 0.003328013 0.349982
v -0.0701007 0.2700337 0.2554823
v -0.002263279 0.2302195 0.1068313
v -0.26023 0.6393465 0.1490141
v 0.04779154 0.03001885 0.2998035
v 0.01 0.000862505 0.205
v -0.1023294 0.005956401 0.1068313
v -0.01728754 0.110845 0.1076235
v 0.025 -0.00144449 0.29
v -0.3012724 0.6265844 0.1068313
v -0.07233711 0.37 0.1068313
v -0.1683689 0.5886557 0.1825756
v -0.08656674 0.4842078 0.1068313
v -0.08911739 0.59 0.15
v -0.1543896 0.6873104 0.1068313
v -0.269753 0.6637092 0.1068313
v -0.06156305 0.5631687 0.1068313
v -0.1000369 0.6572146 0.1068313
v -0.6279487 0.02410889 0.3775325
v -0.5497946 -0.002667716 0.4099332
v -0.662426 0.07756811 0.2606652
v -0.5157213 0.2320782 0.1076235
v -0.6300911 -0.003274932 0.354568
v -0.5785718 0.1598037 0.1101421
v -0.68 -0.00385723 0.26
v -0.6372874 0.1550268 0.1086506
v -0.7596039 0.1421649 0.1076235
v -0.9503686 0.04576727 0.1810102
v -0.8910562 0.11219 0.1076235
v -0.8 -0.00368042 0.19
v -0.89 -0.00350576 0.18
v -0.9897582 -0.003237557 0.1998081
v -0.9295061 0.08246893 0.1068313
v -1.002277 0.03992065 0.1068313
v -1.03 -0.00243164 0.15
v -1.030986 0.01503469 0.1068313
v -1.030808 0 0.12
vt 0.543457 0.6723633
vt 0.5395508 0.6728516
vt 0.5424805 0.6748047
vt 0.5493164 0.6733398
vt 0.5556641 0.6762695
vt 0.5488281 0.6826172
vt 0.534668 0.684082
vt 0.550293 0.6879883
vt 0.5380859 0.6933594
vt 0.5454102 0.6918945
vt 0.5419922 0.7011719
vt 0.5356445 0.6972656
vt 0.5537109 0.6738281
vt 0.5610352 0.6738281
vt 0.5600586 0.6723633
vt 0.5576172 0.684082
vt 0.5668945 0.6831055
vt 0.5512695 0.7016602
vt 0.5463867 0.7060547
vt 0.5483398 0.7104492
vt 0.5649414 0.6733398
vt 0.5615234 0.690918
vt 0.5703125 0.6918945
vt 0.5532227 0.7124023
vt 0.5668945 0.6757813
vt 0.5717773 0.6772461
vt 0.5776367 0.6816406
vt 0.5727539 0.6860352
vt 0.5683594 0.6738281
vt 0.550293 0.7133789
vt 0.5664063 0.6987305
vt 0.5576172 0.7089844
vt 0.5644531 0.7041016
vt 0.5620117 0.7094727
vt 0.559082 0.715332
vt 0.5522461 0.7148438
vt 0.5644531 0.7084961
vt 0.5620117 0.7138672
vt 0.5302734 0.6767578
vt 0.5341797 0.6738281
vt 0.5263672 0.6826172
vt 0.5332031 0.6958008
vt 0.5292969 0.675293
vt 0.5288086 0.6928711
vt 0.5239258 0.6767578
vt 0.5258789 0.6923828
vt 0.5200195 0.6904297
vt 0.5102539 0.6845703
vt 0.5131836 0.6894531
vt 0.5166016 0.6782227
vt 0.512207 0.6791992
vt 0.5068359 0.6806641
vt 0.5107422 0.6889648
vt 0.5053711 0.6875
vt 0.5039063 0.6831055
vt 0.5029297 0.6855469
vt 0.5029297 0.6845703
vn 0.05901938 -0.3690472 0.9275349
vn -0.01711008 -0.9291654 0.3692682
vn -0.1875824 0.5715307 0.7988526
vn 0.3105354 -0.08878729 0.9464061
vn 0.266975 0.4687966 0.8419942
vn -0.03747943 0.5702846 0.8205917
vn -0.3429615 0.7296219 0.5916328
vn -0.01608406 0.4619361 0.8867673
vn -0.4844987 0.6872136 0.5412934
vn -0.4860795 0.5342947 0.6915605
vn -0.7816782 0.54732 0.2990316
vn -0.5905789 0.7953199 0.136685
vn 0.2517429 -0.5542315 0.7933807
vn 0.2132504 0.7808694 0.5871689
vn -0.01248528 -0.667467 0.7445347
vn 0.4864009 0.3038418 0.8192034
vn 0.9013768 0.3090325 0.303346
vn -0.5209592 0.4041955 0.7518163
vn -0.8618553 0.269091 0.4298784
vn -0.7905927 0.1784314 0.5857692
vn 0.7789479 0.1113831 0.6171173
vn 0.5857474 0.3010243 0.7525187
vn 0.9255123 0.2217109 0.3070362
vn -0.3441525 0.4634841 0.8165424
vn 0.6876351 0.6981792 0.1992584
vn 0.711109 0.3803536 -0.5913163
vn 0.9079888 -0.1369397 -0.3959846
vn 0.9106374 -0.3906713 0.1345938
vn 0.818092 -0.5708174 -0.06994992
vn -0.7288459 0.2825564 0.623655
vn 0.904854 0.3464165 0.2474568
vn 0.2755731 0.372489 0.886178
vn 0.6975167 0.002605916 0.7165638
vn 0.5418662 0.1090403 0.8333614
vn 0.1323949 0.6186146 0.7744595
vn -0.3121852 0.790449 0.5270016
vn 0.8303384 -0.04138161 0.5557209
vn 0.4626382 0.5310768 0.7098756
vn -0.396448 0.6680626 0.6296993
vn -0.3383554 -0.1372194 0.9309599
vn -0.3895394 0.6765079 0.6249768
vn -0.6704335 0.6859062 0.2829341
vn -0.7342973 -0.4015472 0.5473275
vn -0.6294589 0.7736882 0.07202841
vn -0.4839557 0.02993891 0.8745802
vn -0.09245978 0.893284 0.4398806
vn -0.163544 0.8674023 0.4699647
vn -0.3116934 0.662451 0.6811797
vn -0.2435011 0.8213416 0.5158539
vn -0.2924537 -0.7918749 0.5361016
vn -0.03653919 -0.06521155 0.9972023
vn -0.3882226 0.6196951 0.6821007
vn -0.5450765 0.8022121 0.243613
vn -0.5462343 0.7662313 0.3384048
vn -0.5288202 0.7469714 0.4029676
vn -0.6593629 0.6915851 0.2948738
vn -0.9995288 0.01268119 0.02795237
g m_dlc4_moss_01_0
f 3/3/3 2/2/2 1/1/1
f 1/1/1 4/4/4 3/3/3
f 5/5/5 3/3/3 4/4/4
f 6/6/6 3/3/3 5/5/5
f 6/6/6 7/7/7 3/3/3
f 8/8/8 7/7/7 6/6/6
f 9/9/9 7/7/7 8/8/8
f 9/9/9 8/8/8 10/10/10
f 9/9/9 10/10/10 11/11/11
f 9/9/9 11/11/11 12/12/12
f 4/4/4 13/13/13 5/5/5
f 13/13/13 14/14/14 5/5/5
f 15/15/15 14/14/14 13/13/13
f 5/5/5 16/16/16 6/6/6
f 8/8/8 6/6/6 16/16/16
f 16/16/16 5/5/5 17/17/17
f 17/17/17 5/5/5 14/14/14
f 10/10/10 8/8/8 18/18/18
f 10/10/10 18/18/18 19/19/19
f 10/10/10 19/19/19 11/11/11
f 18/18/18 20/20/20 19/19/19
f 21/21/21 14/14/14 15/15/15
f 16/16/16 17/17/17 22/22/22
f 16/16/16 22/22/22 8/8/8
f 22/22/22 17/17/17 23/23/23
f 20/20/20 18/18/18 24/24/24
f 25/25/25 17/17/17 14/14/14
f 14/14/14 21/21/21 25/25/25
f 25/25/25 26/26/26 17/17/17
f 17/17/17 26/26/26 27/27/27
f 17/17/17 27/27/27 28/28/28
f 17/17/17 28/28/28 23/23/23
f 25/25/25 29/29/29 26/26/26
f 21/21/21 29/29/29 25/25/25
f 24/24/24 30/30/30 20/20/20
f 31/31/31 22/22/22 23/23/23
f 32/32/32 24/24/24 18/18/18
f 32/32/32 22/22/22 31/31/31
f 8/8/8 22/22/22 32/32/32
f 32/32/32 18/18/18 8/8/8
f 32/32/32 31/31/31 33/33/33
f 32/32/32 33/33/33 34/34/34
f 35/35/35 24/24/24 32/32/32
f 35/35/35 32/32/32 34/34/34
f 36/36/36 24/24/24 35/35/35
f 24/24/24 36/36/36 30/30/30
f 34/34/34 33/33/33 37/37/37
f 34/34/34 37/37/37 38/38/38
f 34/34/34 38/38/38 35/35/35
f 3/3/3 7/7/7 39/39/39
f 3/3/3 39/39/39 40/40/40
f 3/3/3 40/40/40 2/2/2
f 7/7/7 41/41/41 39/39/39
f 41/41/41 7/7/7 42/42/42
f 42/42/42 7/7/7 9/9/9
f 12/12/12 42/42/42 9/9/9
f 43/43/43 40/40/40 39/39/39
f 41/41/41 42/42/42 44/44/44
f 39/39/39 41/41/41 45/45/45
f 45/45/45 43/43/43 39/39/39
f 44/44/44 46/46/46 41/41/41
f 46/46/46 47/47/47 41/41/41
f 41/41/41 48/48/48 45/45/45
f 49/49/49 48/48/48 41/41/41
f 47/47/47 49/49/49 41/41/41
f 48/48/48 50/50/50 45/45/45
f 48/48/48 51/51/51 50/50/50
f 52/52/52 51/51/51 48/48/48
f 48/48/48 49/49/49 53/53/53
f 48/48/48 54/54/54 52/52/52
f 48/48/48 53/53/53 54/54/54
f 54/54/54 55/55/55 52/52/52
f 56/56/56 55/55/55 54/54/54
f 57/57/57 55/55/55 56/56/56
