g m_dlc10_water_middle
v 10.45315 -0.03909527 -1.132583
v 10.45451 -0.03909556 1.267916
v -8.294977 -0.03909556 1.26742
v -8.294977 -0.03909527 -1.132583
v -10.24832 -0.03909556 1.274395
v -10.27925 -0.03909527 -1.123143
v 12.56675 -0.01923055 -1.061812
v 12.60438 -0.007645328 1.351886
v -12.28954 0.06137864 1.320771
v -12.2914 0.08442083 -1.074307
v 14.44552 0.1473416 1.39047
v 14.41897 0.1187266 -1.051286
v 16.19495 0.2332409 -0.8777425
v 15.93908 0.2332406 1.600377
v 17.45358 0.2332406 2.142409
v 18.17299 0.2332409 -0.4359649
v 20.08586 0.2332409 0.4059202
v 19.01003 0.2332405 3.144956
v 20.34304 0.2332405 4.372656
v 22.06334 0.2332409 1.745256
v 21.81286 0.2332405 5.935163
v 24.05521 0.2332409 2.951123
v -14.39541 0.2332409 -1.088419
v -14.61116 0.2332406 1.292072
v -17.21544 0.2332406 0.8794444
v -16.56402 0.2332409 -1.46461
v -18.35019 0.2332409 -2.353565
v -19.27591 0.2332406 0.03178805
v -19.94011 0.2332409 -3.9813
v -21.63314 0.2332406 -1.444713
v -21.63542 0.2332409 -5.935163
v -24.05521 0.2332405 -2.940639
vt 8.6875 0.1401367
vt 8.671875 1.839844
vt 21.95313 1.973633
vt 21.96875 0.2739258
vt 23.32813 1.992188
vt 23.375 0.2946777
vt 7.191406 0.1751709
vt 7.148438 1.883789
vt 24.78125 2.039063
vt 24.79688 0.34375
vt 5.84375 1.898438
vt 5.878906 0.1694336
vt 4.621094 0.279541
vt 4.785156 2.037109
vt 3.708984 2.410156
vt 3.216797 0.578125
vt 1.856445 1.161133
vt 2.599609 3.107422
vt 1.646484 3.96875
vt 0.4467773 2.095703
vt 0.5942383 5.0625
vt -0.9726563 2.935547
vt 26.28125 0.3486328
vt 26.42188 2.035156
vt 28.26563 1.762695
vt 27.82813 0.09771729
vt 29.09375 -0.519043
vt 29.73438 1.176758
vt 30.23438 -1.660156
vt 31.40625 0.1479492
vt 31.45313 -3.03125
vt 33.125 -0.894043
vn -0.001198784 0.9999993 -0.0002315382
vn -0.00125105 0.9999992 -0.0002416383
vn 0 1 1.229149E-07
vn 0 1 1.229148E-07
vn 0.0280638 0.9996037 0.002245185
vn 0.02803128 0.9996045 0.002242584
vn -0.04253657 0.9990846 -0.004546403
vn -0.04426001 0.9990091 -0.004672414
vn 0.06412012 0.9979222 0.006316263
vn 0.06406023 0.9979261 0.006303431
vn -0.06953617 0.997548 -0.007913099
vn -0.07045259 0.9974842 -0.0078448
vn -0.02912047 0.9995672 -0.004166739
vn -0.02554211 0.999667 -0.00365471
vn 0 1 1.060388E-07
vn 0 1 1.065201E-07
vn 0 1 0
vn 0 1 0
vn 0 1 0
vn 0 1 0
vn 0 1 0
vn 0 1 0
vn 0.03448894 0.9993978 0.003843862
vn 0.03433311 0.9994031 0.003826496
vn 0 1 1.205236E-07
vn 0 1 1.20293E-07
vn 0 1 0
vn 0 1 0
vn 0 1 0
vn 0 1 0
vn 0 1 0
vn 0 1 0
g m_dlc10_water_middle_0
f 3/3/3 2/2/2 1/1/1
f 4/4/4 3/3/3 1/1/1
f 3/3/3 4/4/4 5/5/5
f 4/4/4 6/6/6 5/5/5
f 1/1/1 2/2/2 7/7/7
f 2/2/2 8/8/8 7/7/7
f 9/9/9 5/5/5 6/6/6
f 10/10/10 9/9/9 6/6/6
f 7/7/7 8/8/8 11/11/11
f 12/12/12 7/7/7 11/11/11
f 12/12/12 11/11/11 13/13/13
f 11/11/11 14/14/14 13/13/13
f 13/13/13 14/14/14 15/15/15
f 16/16/16 13/13/13 15/15/15
f 16/16/16 15/15/15 17/17/17
f 15/15/15 18/18/18 17/17/17
f 17/17/17 18/18/18 19/19/19
f 20/20/20 17/17/17 19/19/19
f 20/20/20 19/19/19 21/21/21
f 22/22/22 20/20/20 21/21/21
f 10/10/10 23/23/23 9/9/9
f 23/23/23 24/24/24 9/9/9
f 25/25/25 24/24/24 23/23/23
f 26/26/26 25/25/25 23/23/23
f 26/26/26 27/27/27 25/25/25
f 27/27/27 28/28/28 25/25/25
f 28/28/28 27/27/27 29/29/29
f 30/30/30 28/28/28 29/29/29
f 30/30/30 29/29/29 31/31/31
f 32/32/32 30/30/30 31/31/31
