g m_dlc4_coyfish_01
v -4.392505 5.406713E-16 -3.117222
v -4.040052 5.406713E-16 -3.117222
v -4.040052 -5.406713E-16 1.752713
v -4.392505 -5.406713E-16 1.752713
v -3.335148 5.406713E-16 -3.117222
v -3.335148 -5.406713E-16 1.752713
v -2.630244 5.406714E-16 -3.117222
v -2.630244 -5.406714E-16 1.752713
v -1.92534 5.406714E-16 -3.117222
v -1.92534 -5.406714E-16 1.752713
v -1.220436 5.406714E-16 -3.117222
v -1.220436 -5.406714E-16 1.752713
v -0.5155321 5.406713E-16 -3.117222
v -0.5155321 -5.406713E-16 1.752713
v 0.1893722 5.406713E-16 -3.117222
v 0.1893722 -5.406713E-16 1.752713
v 0.8942761 5.406713E-16 -3.117222
v 0.8942761 -5.406713E-16 1.752713
v 1.59918 5.406713E-16 -3.117221
v 1.59918 -5.406713E-16 1.752713
v 2.304084 5.406713E-16 -3.117221
v 2.304084 -5.406713E-16 1.752713
v 3.008989 5.406713E-16 -3.117222
v 3.008989 -5.406713E-16 1.752713
v 3.713892 5.406713E-16 -3.117222
v 3.713892 -5.406713E-16 1.752713
v 4.418796 5.406713E-16 -3.117222
v 4.418796 -5.406713E-16 1.752713
vt 0.05567983 0.5219181
vt 0.09122545 0.5219181
vt 0.09122545 0.03077379
vt 0.05567983 0.03077379
vt 0.1623167 0.5219181
vt 0.1623167 0.03077379
vt 0.2334079 0.5219181
vt 0.2334079 0.03077379
vt 0.3044991 0.5219181
vt 0.3044991 0.03077379
vt 0.3755904 0.5219181
vt 0.3755904 0.03077379
vt 0.4466816 0.5219181
vt 0.4466816 0.03077379
vt 0.5177728 0.5219181
vt 0.5177728 0.03077379
vt 0.588864 0.5219181
vt 0.588864 0.03077379
vt 0.6599552 0.5219181
vt 0.6599552 0.03077379
vt 0.7310464 0.5219181
vt 0.7310464 0.03077379
vt 0.8021377 0.5219181
vt 0.8021377 0.03077379
vt 0.8732289 0.5219181
vt 0.8732289 0.03077379
vt 0.9443202 0.5219181
vt 0.9443202 0.03077379
vn 0 1 0
vn 0 1 0
vn 0 1 0
vn 0 1 0
vn 0 1 0
vn 0 1 0
vn 0 1 0
vn 0 1 0
vn 0 1 0
vn 0 1 0
vn 0 1 0
vn 0 1 0
vn 0 1 0
vn 0 1 0
vn 0 1 0
vn 0 1 0
vn 0 1 0
vn 0 1 0
vn 0 1 0
vn 0 1 0
vn 0 1 0
vn 0 1 0
vn 0 1 0
vn 0 1 0
vn 0 1 0
vn 0 1 0
vn 0 1 0
vn 0 1 0
g m_dlc4_coyfish_01_0
f 3/3/3 2/2/2 1/1/1
f 4/4/4 3/3/3 1/1/1
f 2/2/2 3/3/3 5/5/5
f 3/3/3 6/6/6 5/5/5
f 5/5/5 6/6/6 7/7/7
f 6/6/6 8/8/8 7/7/7
f 7/7/7 8/8/8 9/9/9
f 8/8/8 10/10/10 9/9/9
f 9/9/9 10/10/10 11/11/11
f 10/10/10 12/12/12 11/11/11
f 11/11/11 12/12/12 13/13/13
f 12/12/12 14/14/14 13/13/13
f 13/13/13 14/14/14 15/15/15
f 14/14/14 16/16/16 15/15/15
f 15/15/15 16/16/16 17/17/17
f 16/16/16 18/18/18 17/17/17
f 17/17/17 18/18/18 19/19/19
f 18/18/18 20/20/20 19/19/19
f 19/19/19 20/20/20 21/21/21
f 20/20/20 22/22/22 21/21/21
f 21/21/21 22/22/22 23/23/23
f 22/22/22 24/24/24 23/23/23
f 23/23/23 24/24/24 25/25/25
f 24/24/24 26/26/26 25/25/25
f 25/25/25 26/26/26 27/27/27
f 26/26/26 28/28/28 27/27/27
