g m_dlc10_path_01
v 2.033601 0.01207355 -0.3996916
v 2.297047 0.01207416 -0.04286785
v 1.377605 0.01207243 0.07319081
v 2.054724 0.01207406 0.5985085
v 0.8622927 0.01207136 -0.3265959
v 1.334805 0.01207206 -1.221299
v 0.4548242 0.01207045 -0.9693232
v -0.02707739 0.01206979 -0.2489143
v 0.4581662 0.01207079 0.1892491
v -0.4041486 0.01206919 0.2323961
v 0.1555813 0.01207056 1.158618
v 1.079013 0.01207216 0.9520748
v 0.5837137 0.01207139 1.174459
v -0.8545792 0.01206826 -0.2502024
v -0.5006308 0.01206862 -0.9854664
v -1.259803 0.01206726 -0.9929886
v -0.9191828 0.01206782 -1.225295
v -1.451918 0.01206715 -0.1507002
v -0.9609479 0.01206839 0.9697866
v 0.9350887 0.01207129 -1.145003
v -0.5272843 0.01206926 1.103452
v -0.1726713 0.01206998 1.230277
v -2.045671 0.012066 -0.4188752
v -2.222345 0.01206594 0.3660704
v -1.935813 0.01206664 1.061604
v -1.772938 0.01206629 -0.960806
v -1.461471 0.0120675 1.306436
v 1.551932 0.01207316 1.072907
v 0.04838435 0.01206964 -1.216506
v 1.746464 0.01207272 -1.204119
v 2.153683 0.01207359 -0.7230506
vt 9.001797 2.142593
vt 9.631604 1.966235
vt 8.670619 1.006718
vt 9.933342 1.006718
vt 7.709641 1.006718
vt 7.444698 2.465918
vt 6.652993 1.293303
vt 6.748664 0.04720578
vt 7.709641 0.04720578
vt 6.748664 -0.9123077
vt 8.239524 -1.345857
vt 9.031238 -0.2099843
vt 8.670619 -0.9123077
vt 5.787688 -0.9123077
vt 5.530107 0.2823511
vt 4.642722 -0.5669383
vt 4.826709 0.04720625
vt 4.826709 -1.871822
vt 6.258698 -2.643394
vt 7.050405 1.98828
vt 6.866416 -2.349462
vt 7.709641 -1.871822
vt 3.865721 -1.871822
vt 3.855343 -2.945339
vt 4.605923 -3.184058
vt 3.961396 -0.6183764
vt 5.787688 -2.83134
vt 9.631604 0.04720578
vt 5.956958 1.102247
vt 7.937785 2.815526
vt 8.847247 2.624471
vn -0.1867732 0.9819396 -0.0301718
vn -0.1867732 0.9819396 -0.0301718
vn -0.1867732 0.9819396 -0.0301718
vn -0.1867732 0.9819396 -0.0301718
vn -0.1867732 0.9819396 -0.0301718
vn -0.1867732 0.9819396 -0.0301718
vn -0.1867732 0.9819396 -0.0301718
vn -0.1867732 0.9819396 -0.0301718
vn -0.1867732 0.9819396 -0.0301718
vn -0.1867732 0.9819396 -0.0301718
vn -0.1867732 0.9819396 -0.0301718
vn -0.1867732 0.9819396 -0.0301718
vn -0.1867732 0.9819396 -0.0301718
vn -0.1867732 0.9819396 -0.0301718
vn -0.1867732 0.9819396 -0.0301718
vn -0.1867732 0.9819396 -0.0301718
vn -0.1867732 0.9819396 -0.0301718
vn -0.1867732 0.9819396 -0.0301718
vn -0.1867732 0.9819396 -0.0301718
vn -0.1867732 0.9819396 -0.0301718
vn -0.1867732 0.9819396 -0.0301718
vn -0.1867732 0.9819396 -0.0301718
vn -0.1867732 0.9819396 -0.0301718
vn -0.1867732 0.9819396 -0.0301718
vn -0.1867732 0.9819396 -0.0301718
vn -0.1867732 0.9819396 -0.0301718
vn -0.1867732 0.9819396 -0.0301718
vn -0.1867732 0.9819396 -0.0301718
vn -0.1867732 0.9819396 -0.0301718
vn -0.1867732 0.9819396 -0.0301718
vn -0.1867732 0.9819396 -0.0301718
g m_dlc10_path_01_0
f 3/3/3 2/2/2 1/1/1
f 2/2/2 3/3/3 4/4/4
f 1/1/1 5/5/5 3/3/3
f 5/5/5 1/1/1 6/6/6
f 6/6/6 7/7/7 5/5/5
f 8/8/8 5/5/5 7/7/7
f 5/5/5 8/8/8 9/9/9
f 9/9/9 3/3/3 5/5/5
f 10/10/10 9/9/9 8/8/8
f 9/9/9 10/10/10 11/11/11
f 11/11/11 12/12/12 9/9/9
f 12/12/12 4/4/4 3/3/3
f 3/3/3 9/9/9 12/12/12
f 12/12/12 11/11/11 13/13/13
f 8/8/8 14/14/14 10/10/10
f 14/14/14 8/8/8 15/15/15
f 7/7/7 15/15/15 8/8/8
f 15/15/15 16/16/16 14/14/14
f 16/16/16 15/15/15 17/17/17
f 18/18/18 14/14/14 16/16/16
f 14/14/14 18/18/18 19/19/19
f 19/19/19 10/10/10 14/14/14
f 7/7/7 6/6/6 20/20/20
f 21/21/21 11/11/11 10/10/10
f 10/10/10 19/19/19 21/21/21
f 11/11/11 21/21/21 22/22/22
f 16/16/16 23/23/23 18/18/18
f 24/24/24 18/18/18 23/23/23
f 18/18/18 24/24/24 25/25/25
f 25/25/25 19/19/19 18/18/18
f 23/23/23 16/16/16 26/26/26
f 19/19/19 25/25/25 27/27/27
f 4/4/4 12/12/12 28/28/28
f 15/15/15 7/7/7 29/29/29
f 6/6/6 31/31/31 30/30/30
f 31/31/31 6/6/6 1/1/1
