g m_dlc4_grass_02
v 0.01916748 0.6917455 -1.525879E-07
v -0.1193282 0.6917455 -0.2339488
v 0.1193282 -0.02650398 -0.2339488
v 0.2578238 -0.02650398 -1.525879E-07
v -0.1193282 0.6917455 0.2339488
v 0.01916748 0.6917455 -1.525879E-07
v 0.2578238 -0.02650398 -1.525879E-07
v 0.1193282 -0.02650398 0.2339488
vt 0.796875 0.0063591
vt 0.6035156 0.008132935
vt 0.609375 0.6337891
vt 0.8027344 0.6318359
vt 0.9902344 0.004585266
vt 0.796875 0.0063591
vt 0.8027344 0.6318359
vt 0.9960938 0.6298828
vn -0.02552291 0.9996742 0
vn -0.02552291 0.9996742 0
vn -0.02552291 0.9996742 0
vn -0.02552291 0.9996742 0
vn -0.02552291 0.9996742 0
vn -0.02552291 0.9996742 0
vn -0.02552291 0.9996742 0
vn -0.02552291 0.9996742 0
g m_dlc4_grass_02_0
f 3/3/3 2/2/2 1/1/1
f 4/4/4 3/3/3 1/1/1
f 7/7/7 6/6/6 5/5/5
f 8/8/8 7/7/7 5/5/5
