g m_dlc10_ripples
v 10.45315 -0.1361679 -1.132583
v 10.46464 -0.1360632 -0.5279005
v -8.294977 -0.136168 -0.5281488
v -8.294977 -0.1361679 -1.132583
v -10.27147 -0.136168 -0.5199146
v -10.27925 -0.1361679 -1.123143
v 12.56675 -0.1163032 -1.061812
v 12.57628 -0.11337 -0.4507047
v -12.2942 -0.01821186 -0.4723763
v -12.2914 -0.01265184 -1.074307
v 14.41897 0.02165398 -1.051286
v 14.47129 0.0318738 -0.4254732
v 16.19495 0.1361682 -0.8777425
v 16.12909 0.1361681 -0.2399402
v 18.17299 0.1361682 -0.4359649
v 18.03636 0.1361681 0.2973139
v 20.08586 0.1361682 0.4059202
v 19.87257 0.1361681 1.273522
v 22.06334 0.1361682 1.745256
v 21.5309 0.1361681 2.55844
v 24.05521 0.1361682 2.951123
v 23.29198 0.1361681 3.966804
v -14.44936 0.1361681 -0.4932365
v -14.39541 0.1361682 -1.088419
v -16.71572 0.1361681 -0.8674694
v -16.56402 0.1361682 -1.46461
v -18.50189 0.1361681 -1.673859
v -18.35019 0.1361682 -2.353565
v -19.94011 0.1361682 -3.9813
v -20.4112 0.1361681 -3.175441
v -21.63542 0.1361682 -5.935163
v -22.47093 0.1361681 -4.901206
v -21.16204 0.1361679 -2.250571
v -21.63314 0.1361679 -1.444713
v -24.05521 0.1361679 -2.940639
v -23.2197 0.136168 -3.974597
v -19.12421 0.1361679 -0.6479171
v -19.27591 0.1361679 0.03178805
v -17.21544 0.1361679 0.8794444
v -17.06375 0.1361679 0.2823034
v -14.55722 0.1361679 0.6968902
v -14.61116 0.1361679 1.292072
v -12.28954 -0.03569404 1.320771
v -12.28672 -0.03006567 0.7188405
v -10.2561 -0.1361682 0.6711663
v -10.24832 -0.1361682 1.274395
v -8.294977 -0.1361682 0.6629858
v -8.294977 -0.1361682 1.26742
v 10.44302 -0.1361682 0.6632339
v 10.45451 -0.1361682 1.267916
v 12.59485 -0.1076512 0.7407785
v 12.60438 -0.104718 1.351886
v 14.44552 0.05026896 1.39047
v 14.39326 0.03911903 0.7646683
v 16.00493 0.1361679 0.9625744
v 15.93908 0.1361679 1.600377
v 17.45358 0.1361679 2.142409
v 17.59021 0.1361679 1.40913
v 19.22331 0.1361679 2.277355
v 19.01003 0.1361679 3.144956
v 20.34304 0.1361679 4.372656
v 20.87547 0.1361679 3.559471
v 21.81286 0.1361679 5.935163
v 22.57609 0.136168 4.919483
vt -12.27344 0.02592468
vt -12.28906 0.9833984
vt 12.85156 0.9833984
vt 12.85156 0.02592468
vt 15.99219 0.9833984
vt 15.99219 0.02592468
vt -15.41406 0.02592468
vt -15.41406 0.9833984
vt 17.5625 0.9833984
vt 17.5625 0.02592468
vt -16.98438 0.02592468
vt -17.03125 0.9833984
vt -18.5625 0.02592468
vt -18.5625 0.9833984
vt -20.125 0.02592468
vt -20.17188 0.9833984
vt -21.70313 0.02592468
vt -21.78125 0.9833984
vt -23.26563 0.02592468
vt -23.26563 0.9833984
vt -24.84375 0.02592468
vt -24.84375 0.9833984
vt 19.14063 0.9833984
vt 19.14063 0.02592468
vt 20.70313 0.9833984
vt 20.70313 0.02592468
vt 22.1875 0.9833984
vt 22.28125 0.02592468
vt 23.84375 0.02592468
vt 23.8125 0.9833984
vt 25.42188 0.02592468
vt 25.42188 0.9833984
vt -23.29688 0.9785156
vt -23.26563 0.02090454
vt -24.84375 0.02090454
vt -24.84375 0.9785156
vt -21.76563 0.9785156
vt -21.70313 0.02090454
vt -20.125 0.02090454
vt -20.14063 0.9785156
vt -18.5625 0.9785156
vt -18.5625 0.02090454
vt -16.98438 0.02090454
vt -16.98438 0.9785156
vt -15.41406 0.9785156
vt -15.41406 0.02090454
vt -12.27344 0.9785156
vt -12.27344 0.02090454
vt 12.83594 0.9785156
vt 12.85156 0.02090454
vt 15.99219 0.9785156
vt 15.99219 0.02090454
vt 17.5625 0.02090454
vt 17.53125 0.9785156
vt 19.14063 0.9785156
vt 19.14063 0.02090454
vt 20.70313 0.02090454
vt 20.64063 0.9785156
vt 22.17188 0.9785156
vt 22.28125 0.02090454
vt 23.84375 0.02090454
vt 23.84375 0.9785156
vt 25.42188 0.02090454
vt 25.42188 0.9785156
vn -0.0009772812 0.9999995 -0.0003049911
vn -0.001062115 0.9999994 -0.0003240119
vn -2.525587E-06 1 -7.82132E-05
vn -2.526954E-06 1 -7.825562E-05
vn 0.03022663 0.9995407 0.00220129
vn 0.03017845 0.9995421 0.002197781
vn -0.04030896 0.9991774 -0.004421676
vn -0.04188641 0.9991121 -0.00453068
vn 0.06556588 0.9978288 0.006233613
vn 0.06548207 0.9978345 0.006206143
vn -0.06975382 0.9975348 -0.00767519
vn -0.06862269 0.9976119 -0.00784598
vn -0.02877838 0.9995777 -0.004014022
vn -0.02595764 0.9996564 -0.003620572
vn 0 1 0
vn 0 1 0
vn 0 1 0
vn 0 1 0
vn 0 1 0
vn 0 1 0
vn 0 1 1.09557E-07
vn 0 1 1.09557E-07
vn 0.03430241 0.999404 0.003866139
vn 0.03441074 0.9994003 0.003878349
vn 0 1 1.153179E-07
vn 0 1 1.143668E-07
vn 0 1 0
vn 0 1 0
vn 0 1 0
vn 0 1 0
vn 0 1 0
vn 0 1 0
vn 0 1 0
vn 0 1 0
vn 0 1 0
vn 0 1 0
vn 0 1 0
vn 0 1 1.015516E-07
vn 0 1 1.263361E-07
vn 0 1 1.266811E-07
vn 0.03443732 0.9993995 0.003834882
vn 0.03422517 0.9994068 0.003811257
vn 0.06277375 0.9980071 0.006429195
vn 0.06262865 0.9980164 0.00640533
vn 0.02586978 0.9996628 0.002270256
vn 0.02588848 0.9996623 0.002271897
vn 0 1 1.256633E-07
vn 0 1 1.256635E-07
vn -0.001372714 0.999999 -0.0002151168
vn -0.001496282 0.9999989 -0.0002344923
vn -0.04482074 0.9989851 -0.004452458
vn -0.04669488 0.9988986 -0.004590408
vn -0.06963642 0.9975374 -0.008363579
vn -0.07213118 0.9973618 -0.008143044
vn -0.02887523 0.9995719 -0.004728246
vn -0.02466727 0.9996876 -0.00403919
vn 0 1 0
vn 0 1 0
vn 0 1 0
vn 0 1 0
vn 0 1 0
vn 0 1 0
vn 0 1 0
vn 0 1 0
g m_dlc10_ripples_0
f 3/3/3 2/2/2 1/1/1
f 4/4/4 3/3/3 1/1/1
f 3/3/3 4/4/4 5/5/5
f 4/4/4 6/6/6 5/5/5
f 1/1/1 2/2/2 7/7/7
f 2/2/2 8/8/8 7/7/7
f 9/9/9 5/5/5 6/6/6
f 10/10/10 9/9/9 6/6/6
f 11/11/11 7/7/7 8/8/8
f 12/12/12 11/11/11 8/8/8
f 11/11/11 12/12/12 13/13/13
f 12/12/12 14/14/14 13/13/13
f 15/15/15 13/13/13 14/14/14
f 16/16/16 15/15/15 14/14/14
f 15/15/15 16/16/16 17/17/17
f 16/16/16 18/18/18 17/17/17
f 19/19/19 17/17/17 18/18/18
f 20/20/20 19/19/19 18/18/18
f 21/21/21 19/19/19 20/20/20
f 22/22/22 21/21/21 20/20/20
f 9/9/9 10/10/10 23/23/23
f 10/10/10 24/24/24 23/23/23
f 25/25/25 23/23/23 24/24/24
f 26/26/26 25/25/25 24/24/24
f 25/25/25 26/26/26 27/27/27
f 26/26/26 28/28/28 27/27/27
f 27/27/27 28/28/28 29/29/29
f 30/30/30 27/27/27 29/29/29
f 30/30/30 29/29/29 31/31/31
f 32/32/32 30/30/30 31/31/31
f 35/35/35 34/34/34 33/33/33
f 36/36/36 35/35/35 33/33/33
f 33/33/33 34/34/34 37/37/37
f 34/34/34 38/38/38 37/37/37
f 37/37/37 38/38/38 39/39/39
f 40/40/40 37/37/37 39/39/39
f 40/40/40 39/39/39 41/41/41
f 39/39/39 42/42/42 41/41/41
f 41/41/41 42/42/42 43/43/43
f 44/44/44 41/41/41 43/43/43
f 44/44/44 43/43/43 45/45/45
f 43/43/43 46/46/46 45/45/45
f 47/47/47 45/45/45 46/46/46
f 48/48/48 47/47/47 46/46/46
f 47/47/47 48/48/48 49/49/49
f 48/48/48 50/50/50 49/49/49
f 49/49/49 50/50/50 51/51/51
f 50/50/50 52/52/52 51/51/51
f 51/51/51 52/52/52 53/53/53
f 54/54/54 51/51/51 53/53/53
f 54/54/54 53/53/53 55/55/55
f 53/53/53 56/56/56 55/55/55
f 55/55/55 56/56/56 57/57/57
f 58/58/58 55/55/55 57/57/57
f 58/58/58 57/57/57 59/59/59
f 57/57/57 60/60/60 59/59/59
f 59/59/59 60/60/60 61/61/61
f 62/62/62 59/59/59 61/61/61
f 62/62/62 61/61/61 63/63/63
f 64/64/64 62/62/62 63/63/63
