g m_dlc10_1_4_path
v -2.4 6.914139E-08 3.671848
v -1.6515 2.145767E-08 3.601263
v -2.4 -7.152557E-08 5.161576
v -1.184717 -7.152557E-08 5.32178
v -3.6 -7.152557E-08 5.365215
v -3.6 6.914139E-08 3.556883
v -4.8 -7.152557E-08 5.176418
v -4.8 6.914139E-08 3.743264
v 0.9389818 -2.384186E-09 4.082359
v 0.7064925 -7.152557E-08 5.194053
v 0.6691634 -2.384186E-09 2.337551
v -1.505546 -2.384186E-09 2.4
v 0.951185 -2.622604E-08 1.324494
v -1.700866 -2.384186E-09 1.235145
v 0.7765424 -2.384186E-09 1.220703E-06
v -1.820611 -2.384186E-09 0.0351477
v 1.976542 -2.384186E-09 1.220703E-06
v 1.976542 6.914139E-08 -1.398489
v 0.7765424 2.145767E-08 -1.2
v 1.976542 -7.152557E-08 1.262281
v -1.700866 -2.384186E-09 -1.164853
v 0.6245484 -2.384186E-09 -2.4
v -1.480013 -2.384186E-09 -2.4
v 0.8603202 -2.384186E-09 -3.936041
v -1.539582 -2.622604E-08 -3.437685
v 0.5850005 6.914139E-08 -5.01986
v -1.2 6.914139E-08 -5.094142
v -2.4 -7.152557E-08 -3.191818
v -2.4 6.914139E-08 -5.211029
v -3.6 -7.152557E-08 -3.429428
v -3.6 6.914139E-08 -4.918389
v -4.8 -7.152557E-08 -3.429428
v -4.8 6.914139E-08 -4.821474
v 3.176542 -2.384186E-09 1.220703E-06
v 3.176542 -7.152557E-08 1.051997
v 4.376543 -2.384186E-09 1.220703E-06
v 4.376543 6.914139E-08 -1.457345
v 5.576541 6.914139E-08 -1.2
v 5.935549 -2.384186E-09 1.220703E-06
v 4.376543 -7.152557E-08 1.402862
v 5.576541 -7.152557E-08 1.199999
v 3.176542 6.914139E-08 -1.2
vt -2.582031 -3.3125
vt -1.804688 -3.226563
vt -2.558594 -4.863281
vt -1.291016 -5.007813
vt -3.802734 -5.09375
vt -3.833984 -3.212891
vt -5.054688 -4.917969
vt -5.078125 -3.425781
vt 0.8979492 -3.685547
vt 0.6738281 -4.847656
vt 0.5883789 -1.875
vt -1.672852 -1.975586
vt 0.8652344 -0.8164063
vt -1.895508 -0.7666016
vt 0.6621094 0.5585938
vt -2.039063 0.4799805
vt 1.910156 0.5786133
vt 1.887695 2.033203
vt 0.6425781 1.807617
vt 1.930664 -0.7348633
vt -1.93457 1.730469
vt 0.4648438 3.052734
vt -1.724609 3.019531
vt 0.6850586 4.65625
vt -1.803711 4.097656
vt 0.3808594 5.777344
vt -1.477539 5.828125
vt -2.695313 3.828125
vt -2.728516 5.929688
vt -3.947266 4.054688
vt -3.970703 5.605469
vt -5.195313 4.035156
vt -5.21875 5.484375
vt 3.158203 0.5981445
vt 3.175781 -0.496582
vt 4.40625 0.6176758
vt 4.382813 2.132813
vt 5.636719 1.885742
vt 6.03125 0.6430664
vt 4.429688 -0.8417969
vt 5.675781 -0.6113281
vt 3.138672 1.84668
vn 0 1 1.192093E-07
vn 0 1 1.192093E-07
vn 0 1 1.192093E-07
vn 0 1 1.192093E-07
vn 0 1 1.192093E-07
vn 0 1 1.192093E-07
vn 0 1 1.192093E-07
vn 0 1 1.192093E-07
vn 0 1 1.192093E-07
vn 0 1 1.192093E-07
vn 0 1 1.192093E-07
vn 0 1 1.192093E-07
vn 0 1 1.192093E-07
vn 0 1 1.192093E-07
vn 0 1 1.192093E-07
vn 0 1 1.192093E-07
vn 0 1 1.192093E-07
vn 0 1 1.192093E-07
vn 0 1 1.192093E-07
vn 0 1 1.192093E-07
vn 0 1 1.192093E-07
vn 0 1 1.192093E-07
vn 0 1 1.192093E-07
vn 0 1 1.192093E-07
vn 0 1 1.192093E-07
vn 0 1 1.192093E-07
vn 0 1 1.192093E-07
vn 0 1 1.192093E-07
vn 0 1 1.192093E-07
vn 0 1 1.192093E-07
vn 0 1 1.192093E-07
vn 0 1 1.192093E-07
vn 0 1 1.192093E-07
vn 0 1 1.192093E-07
vn 0 1 1.192093E-07
vn 0 1 1.192093E-07
vn 0 1 1.192093E-07
vn 0 1 1.192093E-07
vn 0 1 1.192093E-07
vn 0 1 1.192093E-07
vn 0 1 1.192093E-07
vn 0 1 1.192093E-07
g m_dlc10_1_4_path_0
f 3/3/3 2/2/2 1/1/1
f 2/2/2 3/3/3 4/4/4
f 1/1/1 5/5/5 3/3/3
f 5/5/5 1/1/1 6/6/6
f 6/6/6 7/7/7 5/5/5
f 7/7/7 6/6/6 8/8/8
f 4/4/4 9/9/9 2/2/2
f 9/9/9 4/4/4 10/10/10
f 11/11/11 2/2/2 9/9/9
f 2/2/2 11/11/11 12/12/12
f 13/13/13 12/12/12 11/11/11
f 12/12/12 13/13/13 14/14/14
f 15/15/15 14/14/14 13/13/13
f 14/14/14 15/15/15 16/16/16
f 13/13/13 17/17/17 15/15/15
f 18/18/18 15/15/15 17/17/17
f 15/15/15 18/18/18 19/19/19
f 19/19/19 16/16/16 15/15/15
f 17/17/17 13/13/13 20/20/20
f 16/16/16 19/19/19 21/21/21
f 22/22/22 21/21/21 19/19/19
f 21/21/21 22/22/22 23/23/23
f 24/24/24 23/23/23 22/22/22
f 23/23/23 24/24/24 25/25/25
f 26/26/26 25/25/25 24/24/24
f 25/25/25 26/26/26 27/27/27
f 27/27/27 28/28/28 25/25/25
f 28/28/28 27/27/27 29/29/29
f 29/29/29 30/30/30 28/28/28
f 30/30/30 29/29/29 31/31/31
f 31/31/31 32/32/32 30/30/30
f 32/32/32 31/31/31 33/33/33
f 20/20/20 34/34/34 17/17/17
f 34/34/34 20/20/20 35/35/35
f 35/35/35 36/36/36 34/34/34
f 37/37/37 34/34/34 36/36/36
f 36/36/36 38/38/38 37/37/37
f 38/38/38 36/36/36 39/39/39
f 40/40/40 39/39/39 36/36/36
f 36/36/36 35/35/35 40/40/40
f 39/39/39 40/40/40 41/41/41
f 34/34/34 37/37/37 42/42/42
f 42/42/42 17/17/17 34/34/34
f 17/17/17 42/42/42 18/18/18
