g m_dlc4_rock_05
v -0.3326996 0.6828616 0.9182287
v -0.3444653 0.7313202 0.8753601
v -0.07740906 0.7380436 0.8601196
v -0.07865448 0.705619 0.8901281
v -0.5893863 0.6763549 0.9639727
v -0.5819864 0.709124 0.8964593
v -0.6336935 0.6733604 0.9332562
v -0.5817032 0.4866352 0.9543841
v -0.6263241 0.4746912 0.9274383
v -0.573981 0.2187022 1.011184
v -0.6171451 0.2187022 0.9766009
v -0.5718307 0.7058262 0.6065966
v -0.5258377 0.7349885 0.6077368
v -0.4648932 0.7743366 0.1701697
v -0.4297229 0.8156276 0.1728241
v -0.3233365 0.497389 0.9239672
v -0.286633 0.2172019 0.9747998
v 0.09396271 0.8025091 0.5581177
v 0.219216 0.9102781 0.05746185
v 0.1473221 0.7656284 0.5609766
v 0.2831815 0.8699426 0.05641815
v 0.1959122 0.5255913 0.5347723
v 0.4042999 0.6022115 0.08851928
v 0.4873636 0.3841392 0.08266357
v 0.2785242 0.2109318 0.5446051
v 0.4605478 0.311627 0.08483642
v 0.3876474 0.2349571 0.1073663
v 0.4539023 0.2833759 -0.3101315
v 0.6335788 0.4260131 -0.4199893
v 0.2567563 0.3109811 -0.6074124
v 0.3095389 0.4394248 -0.7935171
v 0.3128464 0.5065685 -0.814216
v -0.1508554 0.4952473 -1.002165
v -0.1381851 0.4278255 -0.9816922
v 0.6192251 0.4978102 -0.4725815
v 0.2617758 0.6723989 -0.6917795
v -0.1927707 0.6489837 -0.8675687
v 0.0402533 1.166065 -0.6090375
v -0.2493869 1.154197 -0.8132113
v -0.2676596 1.21065 -0.7696155
v -0.01523865 1.206999 -0.5794653
v -0.09956146 0.3087641 -0.7469077
v -0.4023056 1.195966 -0.8120676
v -0.3960339 1.145415 -0.8547503
v -0.6111148 0.4792399 -1.061587
v -0.6092807 0.4141455 -1.035816
v -0.601145 0.6017734 -0.9655719
v -0.5572458 0.7650019 -0.9010632
v -0.6028031 0.3035024 -0.7995297
v -0.580112 1.053439 -0.338255
v -0.4409488 1.145542 -0.8143134
v -0.3960339 1.145415 -0.8547503
v -0.4865176 0.9225759 -0.8593454
v -0.4557083 0.9054045 -0.8853961
v -0.6116067 0.7477202 -0.8804382
v -0.5572458 0.7650019 -0.9010632
v -0.601145 0.6017734 -0.9655719
v -0.6376013 0.6026133 -0.9390991
v -0.6382291 0.7066019 -0.8576822
v -0.6479455 0.4567037 -1.013635
v -0.6111148 0.4792399 -1.061587
v -0.6092807 0.4141455 -1.035816
v -0.6226373 1.01039 -0.3968723
v -0.6354392 0.3077079 -0.7195779
v -0.6028031 0.3035024 -0.7995297
v -0.5925992 0.832494 -0.6125952
v -0.6027795 0.782607 -0.5839221
v -0.6087454 0.972276 -0.3023056
v -0.5998813 0.4398014 -0.3137961
v -0.6004465 0.2187018 -0.3202487
v -0.4708252 0.2187019 0.05989105
v -0.4680682 0.4532495 0.09135376
v -0.5853814 0.6743268 -0.1483273
v -0.5992972 0.6683065 -0.307128
v -0.6482931 0.2187017 -0.8662692
v -0.6028031 0.3035024 -0.7995297
v -0.6148745 0.2187017 -0.9389743
v -0.5683063 0.950067 -0.04874817
v -0.5763305 0.4706855 0.6035596
v -0.5764908 0.218702 0.6017298
v -0.6335745 0.1811842 -0.9765438
v -0.6802063 0.1769748 -0.9088745
v -0.6406851 1.907349E-07 1.025338
v -0.604953 3.814697E-08 0.6255401
v -0.4959653 -7.629394E-08 0.05563965
v -0.5954419 2.288818E-07 1.061587
v -0.2630615 3.433227E-07 1.039091
v -0.6451855 -3.433227E-07 -0.9893774
v -0.6802139 -3.433227E-07 -0.9131705
v -0.6300625 -1.907349E-07 -0.3408487
v 0.0640921 0.218434 0.9016766
v -0.07018707 0.5128315 0.9009686
v -0.01537415 0.5158853 0.8674408
v 0.08159363 0.2183009 0.8870153
v 0.07398071 3.814697E-08 0.9281995
v 0.1210248 -0.0005259323 0.8841766
v -0.0379187 0.7089818 0.8640033
v 0.3032657 -0.007770156 0.5859247
v 0.39673 0.1258137 0.09378601
v 0.377507 0.1658319 0.08623413
v 0.3876474 0.2349571 0.1073663
v 0.6547555 0.1827746 -0.4111389
v 0.4539023 0.2833759 -0.3101315
v 0.2567563 0.3109811 -0.6074124
v 0.3908426 0.2187019 -0.6902536
v -0.07235077 0.2187017 -0.8830881
v -0.09956146 0.3087641 -0.7469077
v -0.6028031 0.3035024 -0.7995297
v -0.6148745 0.2187017 -0.9389743
v 0.6802139 0.1381634 -0.4030935
v 0.6686697 0.1394173 -0.455878
v 0.4015326 0.1822052 -0.7155713
v -0.08231354 0.1747071 -0.924382
v -0.6335745 0.1811842 -0.9765438
v 0.6802139 -0.001254158 -0.4030935
v 0.39673 -0.01360378 0.09378601
v 0.6686697 -2.288818E-07 -0.455878
v 0.4089758 -1.144409E-07 -0.7286761
v -0.07652893 -3.433227E-07 -0.9307992
v -0.6451855 -3.433227E-07 -0.9893774
v -0.4557083 0.9054045 -0.8853961
v -0.553392 1.012352 -0.06690582
v -0.5168683 0.9786645 -0.01702911
v 0.1730774 1.230095 -0.1590417
v 0.1659891 1.266019 -0.2493274
v 0.2801956 1.18324 -0.2126562
v 0.5073239 0.670673 -0.3615887
v 0.2129904 1.184595 -0.3038239
v 0.4895962 0.6737976 -0.409761
v 0.6435904 0.4895713 -0.4015295
vt 0.3017578 0.6445313
vt 0.3017578 0.6474609
vt 0.310791 0.6459961
vt 0.3105469 0.6445313
vt 0.293457 0.6469727
vt 0.2941895 0.6489258
vt 0.2922363 0.6479492
vt 0.2897949 0.6420898
vt 0.2880859 0.6435547
vt 0.284668 0.6328125
vt 0.2824707 0.6352539
vt 0.2929688 0.6591797
vt 0.295166 0.659668
vt 0.296875 0.6782227
vt 0.2998047 0.6777344
vt 0.3005371 0.6376953
vt 0.2990723 0.6269531
vt 0.3200684 0.6552734
vt 0.3300781 0.6708984
vt 0.3225098 0.6533203
vt 0.333252 0.6699219
vt 0.3295898 0.6455078
vt 0.3435059 0.6616211
vt 0.3522949 0.6557617
vt 0.3378906 0.6342773
vt 0.3544922 0.6533203
vt 0.355957 0.6489258
vt 0.3696289 0.6674805
vt 0.364502 0.6743164
vt 0.3771973 0.6875
vt 0.3691406 0.6938477
vt 0.3662109 0.6948242
vt 0.3659668 0.715332
vt 0.3688965 0.7143555
vt 0.3623047 0.6772461
vt 0.3574219 0.6953125
vt 0.3562012 0.7167969
vt 0.3354492 0.7026367
vt 0.3312988 0.7163086
vt 0.328125 0.7148438
vt 0.3322754 0.703125
vt 0.3798828 0.7075195
vt 0.3237305 0.7197266
vt 0.3286133 0.7216797
vt 0.3657227 0.7353516
vt 0.3691406 0.7348633
vt 0.3579102 0.734375
vt 0.3491211 0.7319336
vt 0.3815918 0.7319336
vt 0.3061523 0.7021484
vt 0.3203125 0.7202148
vt 0.3215332 0.7226563
vt 0.3088379 0.7246094
vt 0.309082 0.7265625
vt 0.2978516 0.7260742
vt 0.3000488 0.7280273
vt 0.2915039 0.730957
vt 0.2907715 0.7290039
vt 0.295166 0.7255859
vt 0.2844238 0.7329102
vt 0.2856445 0.7353516
vt 0.2822266 0.734375
vt 0.3044434 0.7050781
vt 0.2756348 0.7197266
vt 0.2756348 0.7236328
vt 0.2998047 0.7143555
vt 0.296875 0.7133789
vt 0.3022461 0.7011719
vt 0.279541 0.7006836
vt 0.2700195 0.7006836
vt 0.2705078 0.6806641
vt 0.2810059 0.6801758
vt 0.2895508 0.6933594
vt 0.2897949 0.7006836
vt 0.2717285 0.7265625
vt 0.2756348 0.7236328
vt 0.2727051 0.7299805
vt 0.3005371 0.6899414
vt 0.2832031 0.6572266
vt 0.2731934 0.6533203
vt 0.2705078 0.7319336
vt 0.2695313 0.7285156
vt 0.2766113 0.6274414
vt 0.2648926 0.6484375
vt 0.260498 0.6796875
vt 0.2792969 0.6254883
vt 0.2976074 0.6171875
vt 0.2624512 0.7329102
vt 0.2617188 0.7290039
vt 0.2600098 0.7016602
vt 0.3181152 0.6259766
vt 0.3115234 0.637207
vt 0.3144531 0.6376953
vt 0.3190918 0.6259766
vt 0.3188477 0.6166992
vt 0.3227539 0.6171875
vt 0.3120117 0.6450195
vt 0.3410645 0.625
vt 0.3598633 0.6459961
vt 0.3586426 0.6474609
vt 0.355957 0.6489258
vt 0.3798828 0.6650391
vt 0.3696289 0.6674805
vt 0.3771973 0.6875
vt 0.3835449 0.6826172
vt 0.387207 0.706543
vt 0.3798828 0.7075195
vt 0.3815918 0.7319336
vt 0.388916 0.7319336
vt 0.3813477 0.6635742
vt 0.3825684 0.6655273
vt 0.3857422 0.6826172
vt 0.3898926 0.7075195
vt 0.3913574 0.7329102
vt 0.3857422 0.6591797
vt 0.3635254 0.640625
vt 0.3876953 0.6621094
vt 0.3935547 0.6801758
vt 0.3977051 0.7060547
vt 0.3994141 0.7329102
vt 0.3417969 0.7270508
vt 0.3024902 0.6914063
vt 0.3022461 0.6879883
vt 0.3303223 0.6855469
vt 0.3312988 0.6889648
vt 0.3342285 0.6850586
vt 0.3535156 0.6782227
vt 0.3349609 0.6894531
vt 0.354248 0.6801758
vt 0.3618164 0.6748047
vn 0.1057218 0.2074967 0.972506
vn -0.02298556 0.9713383 0.2365871
vn 0.0005339147 0.9676875 0.2521521
vn 0.1572147 0.1999894 0.9671028
vn 0.0259766 0.1794119 0.983431
vn -0.2356527 0.9524116 0.1933393
vn -0.9948912 0.09268305 -0.04001756
vn 0.01427819 0.1151897 0.993241
vn -0.9995306 -0.00786869 -0.02961021
vn 0.001477854 0.229067 0.9734095
vn -0.9977334 0.06627688 0.01163956
vn -0.9705768 0.1532094 -0.185762
vn -0.1664707 0.9760966 0.1397245
vn -0.9950513 0.09141157 0.03894478
vn -0.1110798 0.8950937 0.43182
vn 0.1302685 0.1131883 0.9849967
vn 0.1548607 0.1971535 0.9680644
vn -0.02548252 0.9796407 0.1991353
vn 0.04125901 0.8433008 0.5358559
vn 0.8297331 0.3496312 0.4350873
vn 0.848825 0.3904083 0.3564793
vn 0.8512929 0.252779 0.4597859
vn 0.8684834 0.332154 0.3679815
vn 0.8920181 0.2295807 0.3893537
vn 0.8804153 0.203279 0.4284233
vn 0.7806542 -0.6118045 0.1275706
vn 0.6947075 -0.7148025 0.08024331
vn 0.5721774 -0.7999467 -0.1808265
vn 0.6860396 -0.6881157 -0.2363189
vn 0.3490638 -0.8292624 -0.4364383
vn 0.4022238 -0.709278 -0.5789134
vn 0.4906565 0.4389695 -0.7527031
vn 0.2216713 0.4360968 -0.8721706
vn 0.1614831 -0.7798045 -0.6048373
vn 0.7393853 0.3366239 -0.5830898
vn 0.563445 0.4699654 -0.6794572
vn 0.3157691 0.4077165 -0.8567713
vn 0.5809768 0.3927579 -0.7128865
vn 0.3757767 0.257538 -0.8902056
vn -0.1020051 0.9876239 0.1191388
vn -0.1431446 0.9895484 0.01742158
vn 0.1478526 -0.8701882 -0.470013
vn -0.24826 0.9612753 0.1196529
vn 0.1228151 0.179809 -0.9760047
vn 0.04432379 0.396383 -0.9170147
vn -0.01007169 -0.8168193 -0.5768057
vn 0.01562514 0.5804004 -0.8141813
vn 0.003485289 0.2643013 -0.9644338
vn -0.07501852 -0.8959005 -0.4378748
vn -0.3308048 0.9392143 0.09189482
vn -0.8832116 0.4083053 -0.230703
vn 0.1228151 0.179809 -0.9760047
vn -0.8832116 0.4083053 -0.230703
vn 0.1028398 0.126416 -0.9866322
vn -0.8832116 0.4083053 -0.230703
vn 0.003485289 0.2643013 -0.9644338
vn 0.01562514 0.5804004 -0.8141813
vn -0.9985788 0.05281606 0.007124752
vn -0.9933042 0.1073915 0.04258863
vn -0.9988846 -0.03807888 -0.02792016
vn 0.04432379 0.396383 -0.9170147
vn -0.01007169 -0.8168193 -0.5768057
vn -0.8832116 0.4083053 -0.230703
vn -0.9986327 0.01674503 0.04952062
vn -0.07501852 -0.8959005 -0.4378748
vn -0.8832116 0.4083053 -0.230703
vn -0.9981864 0.04527294 0.03967534
vn -0.993767 0.05629046 0.096221
vn -0.9809807 -0.02034809 0.193036
vn -0.9730197 0.04580145 0.2261301
vn -0.9980425 0.05464498 0.03041687
vn -0.9993667 -0.01793882 0.03073286
vn -0.9570778 -0.0817434 0.278065
vn -0.9972317 0.003976746 0.07425071
vn -0.8513404 0.5187498 -0.0782191
vn -0.04879869 0.8492755 -0.52569
vn 0.001326994 0.8045952 -0.5938221
vn -0.9561316 0.07378489 0.2834927
vn -0.9824719 0.01395616 -0.1858874
vn -0.985165 0.05294183 -0.1632393
vn -0.02237402 0.1865135 -0.9821976
vn -0.9928713 0.1148919 0.03172341
vn -0.9909532 0.1295383 0.03509473
vn -0.9831758 0.1069659 -0.1480663
vn -0.9934967 0.1098311 0.03002514
vn -0.01897496 0.2601077 0.9653931
vn 0.1800659 0.2339418 0.9554305
vn -0.03077454 0.05602354 -0.9979551
vn -0.9969906 0.06689841 0.03917238
vn -0.9775573 0.0808754 0.1945271
vn 0.2677041 0.1829496 0.9459725
vn 0.1835592 0.11382 0.976397
vn 0.8065834 0.1998776 0.5563022
vn 0.8172613 0.2273583 0.5295207
vn 0.299242 0.2076044 0.9313188
vn 0.8369288 0.1644285 0.5220283
vn 0.7830226 0.2386776 0.5743766
vn 0.9210742 0.1335045 0.3657851
vn 0.9267219 0.1282815 0.3531718
vn 0.8097794 0.4823013 0.3341297
vn 0.8544537 0.411751 0.3168123
vn 0.6221745 0.7828425 -0.007509863
vn 0.5901101 0.8066325 0.0333767
vn 0.297177 0.8676507 -0.3985824
vn 0.3725291 0.8288132 -0.4174816
vn 0.1474833 0.7887065 -0.5968173
vn 0.1261441 0.836922 -0.5325872
vn -0.04879869 0.8492755 -0.52569
vn 0.001326994 0.8045952 -0.5938221
vn 0.8864943 0.1198803 0.4469414
vn 0.7421153 0.1954497 -0.6411429
vn 0.5179119 0.1952416 -0.8328554
vn 0.2305999 0.1946973 -0.9533712
vn -0.02237402 0.1865135 -0.9821976
vn 0.8956168 0 0.4448262
vn 0.9355471 0.04865438 0.3498349
vn 0.7534839 0.04059887 -0.6562116
vn 0.5240518 0.05810952 -0.8497016
vn 0.2441172 0.05897339 -0.9679509
vn -0.03077454 0.05602354 -0.9979551
vn 0.1028398 0.126416 -0.9866322
vn -0.337972 0.9254977 0.1709649
vn -0.09774797 0.6903055 0.7168848
vn 0.009290384 0.7097833 0.7043589
vn -0.175051 0.9784926 0.1091304
vn 0.8546111 0.4759193 0.2077032
vn 0.88405 0.428735 0.1861232
vn 0.7118094 0.5040034 -0.4891911
vn 0.703855 0.5113597 -0.4930511
vn 0.9228435 0.2835105 0.2607327
g m_dlc4_rock_05_0
f 3/3/3 2/2/2 1/1/1
f 4/4/4 3/3/3 1/1/1
f 1/1/1 2/2/2 5/5/5
f 2/2/2 6/6/6 5/5/5
f 6/6/6 7/7/7 5/5/5
f 5/5/5 7/7/7 8/8/8
f 1/1/1 5/5/5 8/8/8
f 7/7/7 9/9/9 8/8/8
f 8/8/8 9/9/9 10/10/10
f 9/9/9 11/11/11 10/10/10
f 12/12/12 7/7/7 6/6/6
f 13/13/13 12/12/12 6/6/6
f 13/13/13 2/2/2 3/3/3
f 13/13/13 6/6/6 2/2/2
f 12/12/12 13/13/13 14/14/14
f 13/13/13 15/15/15 14/14/14
f 8/8/8 10/10/10 16/16/16
f 16/16/16 1/1/1 8/8/8
f 4/4/4 1/1/1 16/16/16
f 10/10/10 17/17/17 16/16/16
f 15/15/15 13/13/13 18/18/18
f 13/13/13 3/3/3 18/18/18
f 19/19/19 15/15/15 18/18/18
f 19/19/19 18/18/18 20/20/20
f 21/21/21 19/19/19 20/20/20
f 21/21/21 20/20/20 22/22/22
f 23/23/23 21/21/21 22/22/22
f 23/23/23 22/22/22 24/24/24
f 22/22/22 25/25/25 24/24/24
f 26/26/26 24/24/24 25/25/25
f 27/27/27 26/26/26 25/25/25
f 27/27/27 28/28/28 26/26/26
f 28/28/28 29/29/29 26/26/26
f 24/24/24 26/26/26 29/29/29
f 29/29/29 28/28/28 30/30/30
f 31/31/31 29/29/29 30/30/30
f 29/29/29 31/31/31 32/32/32
f 32/32/32 31/31/31 33/33/33
f 31/31/31 34/34/34 33/33/33
f 35/35/35 29/29/29 32/32/32
f 36/36/36 32/32/32 33/33/33
f 37/37/37 36/36/36 33/33/33
f 36/36/36 37/37/37 38/38/38
f 37/37/37 39/39/39 38/38/38
f 39/39/39 40/40/40 38/38/38
f 40/40/40 41/41/41 38/38/38
f 31/31/31 30/30/30 42/42/42
f 34/34/34 31/31/31 42/42/42
f 43/43/43 40/40/40 39/39/39
f 44/44/44 43/43/43 39/39/39
f 33/33/33 34/34/34 45/45/45
f 37/37/37 33/33/33 45/45/45
f 34/34/34 46/46/46 45/45/45
f 47/47/47 37/37/37 45/45/45
f 47/47/47 48/48/48 37/37/37
f 34/34/34 42/42/42 49/49/49
f 46/46/46 34/34/34 49/49/49
f 50/50/50 41/41/41 40/40/40
f 43/43/43 50/50/50 40/40/40
f 50/50/50 43/43/43 51/51/51
f 51/51/51 43/43/43 52/52/52
f 53/53/53 51/51/51 52/52/52
f 54/54/54 53/53/53 52/52/52
f 55/55/55 53/53/53 54/54/54
f 56/56/56 55/55/55 54/54/54
f 55/55/55 56/56/56 57/57/57
f 58/58/58 55/55/55 57/57/57
f 59/59/59 55/55/55 58/58/58
f 60/60/60 58/58/58 57/57/57
f 61/61/61 60/60/60 57/57/57
f 62/62/62 60/60/60 61/61/61
f 63/63/63 50/50/50 51/51/51
f 51/51/51 53/53/53 63/63/63
f 60/60/60 62/62/62 64/64/64
f 62/62/62 65/65/65 64/64/64
f 66/66/66 55/55/55 59/59/59
f 66/66/66 53/53/53 55/55/55
f 53/53/53 66/66/66 63/63/63
f 66/66/66 67/67/67 63/63/63
f 67/67/67 66/66/66 59/59/59
f 67/67/67 68/68/68 63/63/63
f 60/60/60 64/64/64 69/69/69
f 64/64/64 70/70/70 69/69/69
f 69/69/69 70/70/70 71/71/71
f 72/72/72 69/69/69 71/71/71
f 69/69/69 72/72/72 14/14/14
f 73/73/73 69/69/69 14/14/14
f 74/74/74 69/69/69 73/73/73
f 60/60/60 69/69/69 74/74/74
f 74/74/74 73/73/73 68/68/68
f 68/68/68 67/67/67 74/74/74
f 75/75/75 70/70/70 64/64/64
f 75/75/75 64/64/64 76/76/76
f 77/77/77 75/75/75 76/76/76
f 73/73/73 78/78/78 68/68/68
f 73/73/73 14/14/14 78/78/78
f 74/74/74 67/67/67 59/59/59
f 58/58/58 74/74/74 59/59/59
f 58/58/58 60/60/60 74/74/74
f 72/72/72 71/71/71 79/79/79
f 71/71/71 80/80/80 79/79/79
f 79/79/79 80/80/80 9/9/9
f 80/80/80 11/11/11 9/9/9
f 79/79/79 9/9/9 7/7/7
f 12/12/12 79/79/79 7/7/7
f 72/72/72 79/79/79 12/12/12
f 14/14/14 72/72/72 12/12/12
f 77/77/77 81/81/81 75/75/75
f 81/81/81 82/82/82 75/75/75
f 83/83/83 11/11/11 80/80/80
f 84/84/84 83/83/83 80/80/80
f 84/84/84 80/80/80 71/71/71
f 85/85/85 84/84/84 71/71/71
f 83/83/83 86/86/86 11/11/11
f 86/86/86 10/10/10 11/11/11
f 10/10/10 86/86/86 17/17/17
f 86/86/86 87/87/87 17/17/17
f 81/81/81 88/88/88 82/82/82
f 88/88/88 89/89/89 82/82/82
f 82/82/82 89/89/89 70/70/70
f 85/85/85 71/71/71 70/70/70
f 75/75/75 82/82/82 70/70/70
f 89/89/89 90/90/90 70/70/70
f 90/90/90 85/85/85 70/70/70
f 17/17/17 87/87/87 91/91/91
f 17/17/17 91/91/91 92/92/92
f 93/93/93 92/92/92 91/91/91
f 94/94/94 93/93/93 91/91/91
f 91/91/91 95/95/95 94/94/94
f 87/87/87 95/95/95 91/91/91
f 95/95/95 96/96/96 94/94/94
f 93/93/93 97/97/97 92/92/92
f 97/97/97 4/4/4 92/92/92
f 93/93/93 94/94/94 22/22/22
f 94/94/94 25/25/25 22/22/22
f 94/94/94 96/96/96 25/25/25
f 20/20/20 97/97/97 93/93/93
f 22/22/22 20/20/20 93/93/93
f 97/97/97 20/20/20 3/3/3
f 3/3/3 4/4/4 97/97/97
f 20/20/20 18/18/18 3/3/3
f 92/92/92 4/4/4 16/16/16
f 16/16/16 17/17/17 92/92/92
f 96/96/96 98/98/98 25/25/25
f 25/25/25 98/98/98 99/99/99
f 25/25/25 99/99/99 100/100/100
f 101/101/101 25/25/25 100/100/100
f 100/100/100 102/102/102 101/101/101
f 100/100/100 99/99/99 102/102/102
f 102/102/102 103/103/103 101/101/101
f 104/104/104 103/103/103 102/102/102
f 105/105/105 104/104/104 102/102/102
f 104/104/104 105/105/105 106/106/106
f 107/107/107 104/104/104 106/106/106
f 107/107/107 106/106/106 108/108/108
f 106/106/106 109/109/109 108/108/108
f 99/99/99 110/110/110 102/102/102
f 102/102/102 111/111/111 105/105/105
f 102/102/102 110/110/110 111/111/111
f 111/111/111 112/112/112 105/105/105
f 105/105/105 112/112/112 106/106/106
f 112/112/112 113/113/113 106/106/106
f 106/106/106 113/113/113 109/109/109
f 113/113/113 114/114/114 109/109/109
f 110/110/110 99/99/99 115/115/115
f 110/110/110 115/115/115 111/111/111
f 99/99/99 116/116/116 115/115/115
f 98/98/98 116/116/116 99/99/99
f 111/111/111 117/117/117 112/112/112
f 115/115/115 117/117/117 111/111/111
f 117/117/117 118/118/118 112/112/112
f 112/112/112 118/118/118 113/113/113
f 118/118/118 119/119/119 113/113/113
f 113/113/113 119/119/119 114/114/114
f 119/119/119 120/120/120 114/114/114
f 121/121/121 44/44/44 39/39/39
f 37/37/37 121/121/121 39/39/39
f 48/48/48 121/121/121 37/37/37
f 68/68/68 50/50/50 63/63/63
f 50/50/50 68/68/68 122/122/122
f 68/68/68 78/78/78 122/122/122
f 122/122/122 78/78/78 123/123/123
f 123/123/123 124/124/124 122/122/122
f 124/124/124 125/125/125 122/122/122
f 124/124/124 126/126/126 125/125/125
f 126/126/126 124/124/124 21/21/21
f 127/127/127 126/126/126 21/21/21
f 128/128/128 126/126/126 127/127/127
f 125/125/125 126/126/126 128/128/128
f 129/129/129 128/128/128 127/127/127
f 127/127/127 130/130/130 129/129/129
f 130/130/130 35/35/35 129/129/129
f 129/129/129 36/36/36 128/128/128
f 36/36/36 38/38/38 128/128/128
f 128/128/128 38/38/38 125/125/125
f 23/23/23 127/127/127 21/21/21
f 24/24/24 130/130/130 127/127/127
f 23/23/23 24/24/24 127/127/127
f 130/130/130 24/24/24 29/29/29
f 29/29/29 35/35/35 130/130/130
f 129/129/129 35/35/35 32/32/32
f 36/36/36 129/129/129 32/32/32
f 124/124/124 19/19/19 21/21/21
f 19/19/19 124/124/124 123/123/123
f 15/15/15 19/19/19 123/123/123
f 123/123/123 78/78/78 15/15/15
f 78/78/78 14/14/14 15/15/15
f 38/38/38 41/41/41 125/125/125
f 122/122/122 125/125/125 41/41/41
f 50/50/50 122/122/122 41/41/41
