g ripples
v -17.49769 -7.254437E-17 -8.452191
v -17.45248 6.298446E-17 -9.062558
v -14.92452 5.334396E-17 -9.020098
v -15.01859 -8.142632E-17 -8.41297
v -12.21624 -1.332189E-16 -8.283521
v -12.09644 4.529219E-18 -8.906783
v -9.476247 -1.836577E-16 -8.265849
v -9.376323 -3.812661E-17 -8.923743
v -7.108072 -1.62317E-16 -8.40931
v -7.041354 -1.382714E-17 -9.078107
v -5.187211 -1.001277E-16 -8.36547
v -5.12153 3.518104E-17 -8.974798
v -3.264571 -1.132009E-16 -7.847781
v -3.190907 -7.129321E-19 -8.353004
v -1.385101 -2.026303E-16 -7.133743
v -1.312802 -1.074264E-16 -7.55901
v 0.446676 -2.903865E-16 -6.749205
v 0.4977838 -1.997778E-16 -7.157432
v 2.20806 -3.700563E-16 -6.80053
v 2.179179 -2.6564E-16 -7.271304
v 3.877494 -3.095605E-16 -7.567843
v 3.736458 -1.82029E-16 -8.138335
v 5.592968 -1.344539E-16 -8.534419
v 5.403821 1.042684E-17 -9.181326
v 7.668343 -4.873321E-18 -9.060958
v 7.503221 1.500405E-16 -9.753736
v 10.21628 -1.271746E-17 -8.894294
v 10.08753 1.399386E-16 -9.578847
v 13.64034 -9.908723E-17 -8.378521
v 13.59278 4.544735E-17 -9.028544
v 16.75787 -1.385045E-16 -8.155214
v 16.75543 -9.307212E-19 -8.774739
v 19.10248 -1.359002E-16 -8.166862
v 19.10248 -1.370388E-24 -8.778902
v -17.68738 -6.410615E-16 -5.891818
v -17.64216 -5.055327E-16 -6.502185
v -15.31912 -5.119912E-16 -6.473312
v -15.41319 -6.467615E-16 -5.866184
v -12.59897 -5.732975E-16 -6.292317
v -12.71877 -7.110457E-16 -5.669055
v -9.795484 -6.486012E-16 -6.164002
v -9.895408 -7.941322E-16 -5.506106
v -7.321221 -6.367135E-16 -6.272639
v -7.387938 -7.852035E-16 -5.603843
v -5.397049 -5.324128E-16 -6.418787
v -5.462729 -6.677215E-16 -5.80946
v -3.499913 -4.725782E-16 -6.233692
v -3.573577 -5.850662E-16 -5.728468
v -1.616082 -5.067883E-16 -5.775099
v -1.688381 -6.019922E-16 -5.349832
v 0.2833966 -5.798638E-16 -5.445
v 0.2322888 -6.704726E-16 -5.036773
v 2.300329 -7.036459E-16 -5.2965
v 2.32921 -8.080622E-16 -4.825727
v 4.328074 -7.169988E-16 -5.745233
v 4.46911 -8.445302E-16 -5.174741
v 6.197256 -5.9732E-16 -6.467681
v 6.386403 -7.422008E-16 -5.820775
v 8.195874 -4.99793E-16 -6.847661
v 8.360996 -6.547068E-16 -6.154881
v 10.62764 -5.004241E-16 -6.707279
v 10.7564 -6.530803E-16 -6.022726
v 13.7923 -5.608472E-16 -6.301823
v 13.83987 -7.053818E-16 -5.6518
v 16.76567 -5.780258E-16 -6.175956
v 16.7681 -7.155996E-16 -5.556432
v 19.10248 -5.700752E-16 -6.211512
v 19.10248 -7.059754E-16 -5.599471
vt -6.562202 0.9662038
vt -6.562202 0.02101737
vt -5.546194 0.02101737
vt -5.546194 0.9662038
vt -4.403044 0.9662038
vt -4.403044 0.02101737
vt -3.295484 0.9662038
vt -3.295484 0.02101737
vt -2.342752 0.9662038
vt -2.342752 0.02101737
vt -1.563055 0.9662038
vt -1.563055 0.02101737
vt -0.7765448 0.9662038
vt -0.7765448 0.02101761
vt -0.00786227 0.9662038
vt -0.00786227 0.02101743
vt 0.7343495 0.9662039
vt 0.7343494 0.02101749
vt 1.431992 0.9662038
vt 1.431992 0.02101743
vt 2.079497 0.9662038
vt 2.079497 0.02101761
vt 2.75706 0.9662039
vt 2.75706 0.02101743
vt 3.599174 0.9662039
vt 3.599174 0.02101755
vt 4.641694 0.9662037
vt 4.641694 0.02101737
vt 6.05185 0.9662039
vt 6.05185 0.02101737
vt 7.327805 0.9662038
vt 7.327805 0.02101743
vt 8.279418 0.9662038
vt 8.279418 0.02101743
vt -6.617167 0.06106931
vt -6.617167 0.9676671
vt -5.684406 0.9676672
vt -5.684406 0.06106931
vt -4.584461 0.967667
vt -4.584461 0.06106931
vt -3.441831 0.9676672
vt -3.441831 0.06106931
vt -2.432196 0.9676672
vt -2.432196 0.06106931
vt -1.652877 0.967667
vt -1.652877 0.06106931
vt -0.8837037 0.9676672
vt -0.8837037 0.06106931
vt -0.1155787 0.9676672
vt -0.1155787 0.06106931
vt 0.6620826 0.967667
vt 0.6620826 0.06106931
vt 1.498102 0.967667
vt 1.498102 0.06106943
vt 2.340064 0.967667
vt 2.340064 0.06106931
vt 3.102256 0.9676672
vt 3.102256 0.06106931
vt 3.905137 0.967667
vt 3.905137 0.06106943
vt 4.885476 0.967667
vt 4.885476 0.06106931
vt 6.156214 0.9676672
vt 6.156214 0.06106931
vt 7.354276 0.9676672
vt 7.354276 0.06106931
vt 8.30147 0.9676672
vt 8.30147 0.06106931
vn 0 1 0
vn 0 1 0
vn 0 1 0
vn 0 1 0
vn 0 1 0
vn 0 1 0
vn 0 1 0
vn 0 1 0
vn 0 1 0
vn 0 1 0
vn 0 1 0
vn 0 1 0
vn 0 1 0
vn 0 1 0
vn 0 1 0
vn 0 1 0
vn 0 1 0
vn 0 1 0
vn 0 1 0
vn 0 1 0
vn 0 1 0
vn 0 1 0
vn 0 1 0
vn 0 1 0
vn 0 1 0
vn 0 1 0
vn 0 1 0
vn 0 1 0
vn 0 1 0
vn 0 1 0
vn 0 1 0
vn 0 1 0
vn 0 1 0
vn 0 1 0
vn 0 1 0
vn 0 1 0
vn 0 1 0
vn 0 1 0
vn 0 1 0
vn 0 1 0
vn 0 1 0
vn 0 1 0
vn 0 1 0
vn 0 1 0
vn 0 1 0
vn 0 1 0
vn 0 1 0
vn 0 1 0
vn 0 1 0
vn 0 1 0
vn 0 1 0
vn 0 1 0
vn 0 1 0
vn 0 1 0
vn 0 1 0
vn 0 1 0
vn 0 1 0
vn 0 1 0
vn 0 1 0
vn 0 1 0
vn 0 1 0
vn 0 1 0
vn 0 1 0
vn 0 1 0
vn 0 1 0
vn 0 1 0
vn 0 1 0
vn 0 1 0
g ripples_0
f 3/3/3 2/2/2 1/1/1
f 4/4/4 3/3/3 1/1/1
f 4/4/4 5/5/5 3/3/3
f 5/5/5 6/6/6 3/3/3
f 5/5/5 7/7/7 6/6/6
f 7/7/7 8/8/8 6/6/6
f 7/7/7 9/9/9 8/8/8
f 9/9/9 10/10/10 8/8/8
f 9/9/9 11/11/11 10/10/10
f 11/11/11 12/12/12 10/10/10
f 11/11/11 13/13/13 12/12/12
f 13/13/13 14/14/14 12/12/12
f 13/13/13 15/15/15 14/14/14
f 15/15/15 16/16/16 14/14/14
f 15/15/15 17/17/17 16/16/16
f 17/17/17 18/18/18 16/16/16
f 17/17/17 19/19/19 18/18/18
f 19/19/19 20/20/20 18/18/18
f 19/19/19 21/21/21 20/20/20
f 21/21/21 22/22/22 20/20/20
f 21/21/21 23/23/23 22/22/22
f 23/23/23 24/24/24 22/22/22
f 23/23/23 25/25/25 24/24/24
f 25/25/25 26/26/26 24/24/24
f 25/25/25 27/27/27 26/26/26
f 27/27/27 28/28/28 26/26/26
f 27/27/27 29/29/29 28/28/28
f 29/29/29 30/30/30 28/28/28
f 29/29/29 31/31/31 30/30/30
f 31/31/31 32/32/32 30/30/30
f 31/31/31 33/33/33 32/32/32
f 33/33/33 34/34/34 32/32/32
f 37/37/37 36/36/36 35/35/35
f 38/38/38 37/37/37 35/35/35
f 37/37/37 38/38/38 39/39/39
f 38/38/38 40/40/40 39/39/39
f 39/39/39 40/40/40 41/41/41
f 40/40/40 42/42/42 41/41/41
f 41/41/41 42/42/42 43/43/43
f 42/42/42 44/44/44 43/43/43
f 43/43/43 44/44/44 45/45/45
f 44/44/44 46/46/46 45/45/45
f 45/45/45 46/46/46 47/47/47
f 46/46/46 48/48/48 47/47/47
f 47/47/47 48/48/48 49/49/49
f 48/48/48 50/50/50 49/49/49
f 49/49/49 50/50/50 51/51/51
f 50/50/50 52/52/52 51/51/51
f 51/51/51 52/52/52 53/53/53
f 52/52/52 54/54/54 53/53/53
f 53/53/53 54/54/54 55/55/55
f 54/54/54 56/56/56 55/55/55
f 55/55/55 56/56/56 57/57/57
f 56/56/56 58/58/58 57/57/57
f 57/57/57 58/58/58 59/59/59
f 58/58/58 60/60/60 59/59/59
f 59/59/59 60/60/60 61/61/61
f 60/60/60 62/62/62 61/61/61
f 61/61/61 62/62/62 63/63/63
f 62/62/62 64/64/64 63/63/63
f 63/63/63 64/64/64 65/65/65
f 64/64/64 66/66/66 65/65/65
f 65/65/65 66/66/66 67/67/67
f 66/66/66 68/68/68 67/67/67
