g Burrito3
v 15.28271 -4.580729 -30.35715
v 16.00403 2.97699 -30.8316
v 7.968872 3.212402 -33.17489
v 8.049255 -8.688775 -31.66554
v 7.07428 11.45809 -30.99983
v 14.61261 8.558809 -29.07714
v 0.1392212 -9.776845 -31.87839
v 0.12677 3.330799 -34.78679
v -7.713257 3.212402 -33.17489
v -7.717529 -8.688775 -31.66554
v -6.729431 11.38445 -30.3522
v 0.1271362 12.36237 -31.64547
v -15.11536 -5.283408 -30.35715
v -15.7146 2.97699 -30.8316
v -15.0321 7.845673 -28.72404
v 7.985229 14.37781 -19.9772
v -7.655518 14.34131 -19.67083
v 0.1256714 14.75837 -20.70019
v 0.1361084 14.638 -8.929596
v 14.61407 9.947218 17.63605
v 15.08594 9.247688 29.10179
v 7.789001 13.2183 29.10179
v 8.059326 13.96798 16.43393
v 7.428955 12.26487 38.23932
v 14.34546 8.967356 38.05687
v 0.1159668 15.00879 16.42035
v 0.1104736 14.22282 29.10179
v -7.554688 13.2144 29.10179
v -7.804871 13.95274 16.4179
v -7.139771 12.24314 38.05557
v 0.1046753 13.20354 38.42017
v -7.367188 7.90204 38.56515
v 0.1039429 8.638508 38.93982
v 0.1210327 16.13852 -5.61542
v -8.092834 16.05524 -6.660367
v -8.793335 15.9208 -18.26361
v -17.23175 12.09772 -27.4075
v -16.89722 11.13193 -6.591439
v -19.9845 3.070164 -35.01413
v -19.63031 1.133581 -6.379827
v -18.19128 -6.708763 -36.35379
v -17.70691 -10.35034 -6.121289
v -18.74713 -0.05175114 16.44251
v -17.17316 -11.00427 16.4179
v -16.21307 -10.60336 28.81091
v -17.89331 -0.4139872 28.94464
v -16.24194 9.407818 16.50935
v -15.62531 8.615353 29.10179
v -14.97046 -8.783186 38.04035
v -16.55188 -0.3611708 38.38522
v -14.84302 8.22809 37.68447
v -8.255737 -13.84686 28.81091
v -7.626953 -12.26064 38.40941
v 0.1045532 -13.35695 38.77179
v 0.1105347 -14.8546 28.81091
v -8.742432 -14.41222 16.35778
v 0.1159058 -15.49101 16.25695
v -9.01947 -14.02522 -6.18298
v 0.1211548 -15.17472 -6.247561
v -9.492615 -10.80033 -38.57289
v -0.2172241 -12.10935 -39.25148
v 14.34546 8.967356 38.05687
v 16.7832 -0.3611631 38.38523
v 7.655518 7.592648 38.71274
v 8.323853 -0.3452778 38.82324
v 7.88916 -12.26064 38.40941
v 15.07123 -8.069041 38.04035
v 0.1029663 -0.3281403 39.25148
v 0.1045532 -13.35695 38.77179
v -7.626953 -12.26064 38.40941
v -8.083252 -0.3452778 38.82324
v -16.55188 -0.3611708 38.38522
v -14.97046 -8.783186 38.04035
v -7.367188 7.90204 38.56515
v 0.1039429 8.638508 38.93982
v 16.7832 -0.3611631 38.38523
v 15.08594 9.247688 29.10179
v 17.95636 -0.414032 28.94464
v 15.07123 -8.069041 38.04035
v 16.16339 -9.934055 28.81091
v 8.443054 -13.84686 28.81091
v 7.88916 -12.26064 38.40941
v 8.938477 -14.41222 16.35778
v 17.12445 -10.30973 16.40684
v 18.75061 -0.05050755 16.36695
v 14.61407 9.947218 17.63605
v 9.224976 -14.02522 -6.18298
v 17.66016 -9.595742 -6.120851
v 9.122925 -10.80033 -38.57289
v 17.63123 -5.865372 -36.35377
v 19.70972 1.133977 -6.416501
v 16.258 11.79362 -6.649956
v 8.252869 14.07354 3.699315
v 8.360535 15.12547 -6.645192
v 16.68018 12.95027 -28.02015
v 9.103516 15.97029 -18.62539
v 19.58215 3.070164 -35.01413
v 0.1210327 16.13852 -5.61542
v 0.1159058 -15.49101 16.25695
v 0.1105347 -14.8546 28.81091
v 0.1045532 -13.35695 38.77179
v 0.1211548 -15.17472 -6.247561
v -0.2172241 -12.10935 -39.25148
v 7.655518 7.592648 38.71274
v 17.63123 -5.865372 -36.35377
v 15.1217 -4.411169 -34.75229
v 7.789795 -8.594504 -36.07203
v 9.122925 -10.80033 -38.57289
v 19.58215 3.070164 -35.01413
v 15.7691 3.170143 -33.4964
v 16.68018 12.95027 -28.02015
v 14.61261 8.558809 -29.07714
v -0.2276001 -9.689509 -37.00791
v -0.2172241 -12.10935 -39.25148
v -8.189453 -8.594504 -36.07203
v -9.492615 -10.80033 -38.57289
v -15.685 -5.127071 -34.75229
v -18.19128 -6.708763 -36.35379
v -16.20746 3.170145 -33.49643
v -19.9845 3.070164 -35.01413
v -15.0321 7.845673 -28.72404
v -17.23175 12.09772 -27.4075
v 9.103516 15.97029 -18.62539
v 7.985229 14.37781 -19.9772
v 0.1210327 16.13852 -5.61542
v 0.1361084 14.638 -8.929596
v -7.655518 14.34131 -19.67083
v -8.793335 15.9208 -18.26361
v 0.1361084 14.638 -8.929596
v 0.1210327 16.13852 -5.61542
v 8.252869 14.07354 3.699315
v -7.367188 7.90204 38.56515
v 8.049255 -8.688775 -31.66554
v 7.789795 -8.594504 -36.07203
v 15.1217 -4.411169 -34.75229
v 15.28271 -4.580729 -30.35715
v 15.7691 3.170143 -33.4964
v 16.00403 2.97699 -30.8316
v 14.61261 8.558809 -29.07714
v 0.1392212 -9.776845 -31.87839
v -0.2276001 -9.689509 -37.00791
v -7.717529 -8.688775 -31.66554
v -8.189453 -8.594504 -36.07203
v -15.11536 -5.283408 -30.35715
v -15.685 -5.127071 -34.75229
v -15.7146 2.97699 -30.8316
v -16.20746 3.170145 -33.49643
v -15.0321 7.845673 -28.72404
vt 0.6341811 0.307075
vt 0.6350287 0.2437303
vt 0.5677517 0.2497516
vt 0.573469 0.3438665
vt 0.5579731 0.184974
vt 0.6207638 0.195573
vt 0.5078228 0.354476
vt 0.5075323 0.2516968
vt 0.4473142 0.2499044
vt 0.4425748 0.3442019
vt 0.4570973 0.1837968
vt 0.5075771 0.1826019
vt 0.3799743 0.3133613
vt 0.3799743 0.2440837
vt 0.3871548 0.1999861
vt 0.5742806 0.1054565
vt 0.4408077 0.1036191
vt 0.5078302 0.1077551
vt 0.5076955 0.0174125
vt 0.3964477 0.6559164
vt 0.3954833 0.7458606
vt 0.4465237 0.7419049
vt 0.4441216 0.6466175
vt 0.4522462 0.8285099
vt 0.4056536 0.839215
vt 0.4921791 0.6459875
vt 0.4922366 0.7407545
vt 0.5379651 0.7417481
vt 0.540155 0.6463428
vt 0.532344 0.8254402
vt 0.4925323 0.826484
vt 0.5378188 0.8517612
vt 0.492969 0.8528478
vt 0.4920224 0.508759
vt 0.5421203 0.5065356
vt 0.5519688 0.4450836
vt 0.6108986 0.4023673
vt 0.6026968 0.5095124
vt 0.670188 0.3673261
vt 0.6667922 0.512418
vt 0.7270375 0.3623288
vt 0.7365192 0.5162085
vt 0.6624928 0.6517214
vt 0.7325186 0.6552163
vt 0.7240419 0.7533247
vt 0.6565499 0.7498309
vt 0.5993879 0.6491397
vt 0.5956767 0.746291
vt 0.7068797 0.8549824
vt 0.6459032 0.8536272
vt 0.5856245 0.8365037
vt 0.7801131 0.7612517
vt 0.7627149 0.868867
vt 0.8161238 0.8834547
vt 0.8373388 0.7692853
vt 0.7902343 0.6586371
vt 0.8490983 0.6615929
vt 0.793699 0.5150718
vt 0.8508734 0.5131264
vt 0.7823041 0.3494535
vt 0.835569 0.3429067
vt 0.4056536 0.839215
vt 0.3824314 0.9036427
vt 0.4477252 0.8564054
vt 0.4408022 0.9071699
vt 0.4423737 0.9891497
vt 0.3924419 0.9585019
vt 0.4947744 0.9075733
vt 0.497563 0.9956985
vt 0.5519854 0.9858406
vt 0.5484937 0.9038119
vt 0.6069806 0.8962883
vt 0.6016906 0.9568584
vt 0.5378188 0.8517612
vt 0.492969 0.8528478
vt 0.3391164 0.8512963
vt 0.3954833 0.7458606
vt 0.3303023 0.7483336
vt 0.2836825 0.8514687
vt 0.2671619 0.7507409
vt 0.2109047 0.7574675
vt 0.2268727 0.8640107
vt 0.2022536 0.6556802
vt 0.2599829 0.6528425
vt 0.3257688 0.6497468
vt 0.3964477 0.6559164
vt 0.1999749 0.5137135
vt 0.2569268 0.515029
vt 0.2100323 0.3500836
vt 0.2657534 0.3629755
vt 0.3216794 0.5112791
vt 0.3900408 0.5074603
vt 0.441821 0.5647613
vt 0.4409883 0.505193
vt 0.3812487 0.3991618
vt 0.4329683 0.4421863
vt 0.3174897 0.3680607
vt 0.4920224 0.508759
vt 0.144192 0.6579433
vt 0.1544198 0.7645419
vt 0.1734982 0.8776393
vt 0.1437762 0.5111924
vt 0.1571499 0.3429067
vt 0.4477252 0.8564054
vt 0.625926 0.3746201
vt 0.6142591 0.3594172
vt 0.5614126 0.3810866
vt 0.5691826 0.399343
vt 0.6634961 0.3370497
vt 0.6475297 0.3232419
vt 0.6862929 0.2729314
vt 0.661657 0.2872197
vt 0.5124342 0.3918586
vt 0.5140379 0.4093469
vt 0.463101 0.3896689
vt 0.4592892 0.4079164
vt 0.4075578 0.3791104
vt 0.4002587 0.3978472
vt 0.3689772 0.343159
vt 0.3522988 0.3594607
vt 0.3555503 0.3080641
vt 0.3287101 0.2933813
vt 0.6655082 0.2108136
vt 0.6540124 0.2191101
vt 0.6299375 0.1326299
vt 0.6230232 0.1532973
vt 0.3620057 0.2300263
vt 0.3492382 0.2213995
vt 0.3922392 0.159574
vt 0.3837879 0.1377644
vt 0.441821 0.5647613
vt 0.5378188 0.8517612
vt 0.558933 0.3599001
vt 0.5614126 0.3810866
vt 0.6142591 0.3594172
vt 0.6038226 0.3378941
vt 0.6475297 0.3232419
vt 0.6397813 0.3131847
vt 0.661657 0.2872197
vt 0.5125727 0.3669336
vt 0.5124342 0.3918586
vt 0.465525 0.3675769
vt 0.463101 0.3896689
vt 0.4161505 0.3568113
vt 0.4075578 0.3791104
vt 0.3757128 0.3328056
vt 0.3689772 0.343159
vt 0.3555503 0.3080641
vn 0.213598 -0.08970999 -0.9727939
vn 0.234261 0.055347 -0.970597
vn 0.170898 0.03457599 -0.9846818
vn 0.140096 -0.127316 -0.9819183
vn 0.204273 0.624766 -0.7536179
vn 0.3062848 0.4242699 -0.8521646
vn 0.000106 -0.146807 -0.9891651
vn -0.007803001 0.019969 -0.9997701
vn -0.177571 0.05262899 -0.9826998
vn -0.140881 -0.124864 -0.9821209
vn -0.228372 0.642268 -0.731668
vn -0.014699 0.6710129 -0.7412999
vn -0.207381 -0.086055 -0.9744678
vn -0.2295799 0.08467495 -0.9695995
vn -0.303007 0.457558 -0.835959
vn 0.1383019 0.9246776 -0.3547448
vn -0.163691 0.9185786 -0.3597479
vn -0.008269001 0.9461961 -0.323488
vn -0.002462999 0.9904718 -0.137694
vn 0.5318239 0.8468388 -0.005238998
vn 0.4976068 0.8662748 0.04421999
vn 0.3246771 0.9442222 0.05503901
vn 0.310698 0.9503071 -0.019575
vn 0.2997808 0.9109716 0.2833058
vn 0.4684209 0.8736038 0.131903
vn 0.015481 0.9997941 -0.013123
vn -0.0006869998 0.9978567 0.06543298
vn -0.3445179 0.9368986 0.05939998
vn -0.3427052 0.9394413 -0.001787001
vn -0.325089 0.905429 0.272975
vn -0.003552999 0.9349139 0.354857
vn -0.1494821 0.2209071 0.9637713
vn -0.016746 0.212994 0.97691
vn -0.01776401 0.9986854 -0.04808302
vn -0.3491821 0.9357142 -0.05010701
vn -0.459927 0.881415 -0.107586
vn -0.9133247 0.4015349 -0.06787997
vn -0.8198434 0.5711172 -0.04101102
vn -0.9978493 -0.02965401 -0.05845702
vn -0.9988028 0.03272099 -0.03636499
vn -0.779946 -0.6183789 -0.09639399
vn -0.8071181 -0.587482 -0.05852701
vn -0.9992127 0.03967299 5.599998E-05
vn -0.82354 -0.5672529 0.002432
vn -0.8097894 -0.5818643 0.07533304
vn -0.9984303 0.02702701 0.04905602
vn -0.8086042 0.5883521 0.00103
vn -0.80991 0.584322 0.051123
vn -0.7292138 -0.5166579 0.4486778
vn -0.9141068 0.002326 0.4054669
vn -0.7951891 0.564982 0.220158
vn -0.2612951 -0.9623473 0.07491703
vn -0.2563049 -0.7757888 0.5765929
vn 2.1E-05 -0.7803429 0.625352
vn 0 -0.9977063 0.06769101
vn -0.2539819 -0.9671977 0.004679998
vn 0 -0.9999866 0.005172998
vn -0.262509 -0.9627142 -0.06534801
vn 0.000506 -0.997986 -0.06343299
vn -0.2614301 -0.9591774 -0.1078561
vn -0.0009930003 -0.9944233 -0.105457
vn 0.9311608 0.266498 0.248834
vn 0.9288223 0.02971301 0.3693321
vn 0.102885 0.06075601 0.9928361
vn 0.105117 -0.03388401 0.9938824
vn 0.288779 -0.7750461 0.562059
vn 0.734872 -0.5132409 0.443336
vn -0.004068 -0.018792 0.9998152
vn 2.1E-05 -0.7803429 0.625352
vn -0.2563049 -0.7757888 0.5765929
vn -0.108045 -0.024375 0.9938472
vn -0.9141068 0.002326 0.4054669
vn -0.7292138 -0.5166579 0.4486778
vn -0.104631 0.07005902 0.9920403
vn -0.011509 0.06220002 0.9979973
vn 0.9288223 0.02971301 0.3693321
vn 0.9566646 0.2904339 0.02099999
vn 0.9972597 0.06484098 0.03561699
vn 0.734872 -0.5132409 0.443336
vn 0.8133381 -0.5774531 0.07091702
vn 0.3018481 -0.9504042 0.07496402
vn 0.288779 -0.7750461 0.562059
vn 0.295121 -0.9554489 0.004583
vn 0.8274119 -0.5615899 0.002482
vn 0.9958038 0.09151299 0.000365
vn 0.9234068 0.3838199 -0.001491
vn 0.3042781 -0.9500973 -0.06877501
vn 0.8120196 -0.5800717 -0.06434997
vn 0.2981519 -0.9477296 -0.11364
vn 0.7836807 -0.6114377 -0.109492
vn 0.9969536 0.06941098 -0.03557499
vn 0.8367486 0.5468897 -0.02762799
vn 0.411314 0.9114901 -0.002553
vn 0.3652329 0.9303408 -0.03272499
vn 0.9146127 0.3988618 -0.06627897
vn 0.4152457 0.9072565 -0.06675696
vn 0.9971446 -0.014759 -0.07405896
vn 0.145398 0.988705 -0.036358
vn 0 -0.9999866 0.005172998
vn 0 -0.9977063 0.06769101
vn 2.1E-05 -0.7803429 0.625352
vn 0.000506 -0.997986 -0.06343299
vn -0.0009930003 -0.9944233 -0.105457
vn 0.09983195 0.2027349 0.9741314
vn -0.2608909 0.3749119 -0.8895938
vn -0.261126 0.374353 -0.8897601
vn -0.09882906 0.6058244 -0.7894364
vn -0.106684 0.6015359 -0.7916899
vn -0.3489112 0.2910542 -0.8908134
vn -0.351232 0.3149059 -0.8817429
vn -0.4412479 0.4599108 -0.7705727
vn -0.3997138 0.4336718 -0.8075627
vn 7.599999E-05 0.641928 -0.7667649
vn -9.099999E-05 0.641928 -0.7667649
vn 0.075523 0.6160949 -0.784043
vn 0.08218002 0.6122522 -0.7863802
vn 0.248423 0.366951 -0.8964558
vn 0.247178 0.369487 -0.895758
vn 0.356292 0.342882 -0.8691881
vn 0.3540429 0.3049419 -0.8841177
vn 0.367296 0.4816451 -0.7956831
vn 0.3743001 0.4892221 -0.7877571
vn -0.4942728 0.6038747 -0.6253237
vn -0.486047 0.5619131 -0.669337
vn -0.506309 0.6941792 -0.5116311
vn -0.506309 0.6941792 -0.5116311
vn 0.4240321 0.57596 -0.6989041
vn 0.4454283 0.6157613 -0.6499473
vn 0.4907501 0.7043181 -0.5129331
vn 0.4907504 0.7043185 -0.5129324
vn 0.2019079 0.9773695 -0.06310297
vn -0.2082061 0.1896091 0.9595304
vn -0.334751 0.9417169 0.033333
vn -0.291748 0.9560591 0.028878
vn -0.7568601 0.647848 0.086347
vn -0.809482 0.579573 0.09398901
vn -0.9909177 0.03396499 0.130109
vn -0.9910043 0.001176 0.133825
vn -0.9535418 -0.2565749 0.157884
vn -0.007292002 0.9999732 0.0006840001
vn 0.007841 0.999969 -0.000734
vn 0.2688999 0.9627998 -0.02663599
vn 0.2691001 0.9627432 -0.02665701
vn 0.7724871 0.6285731 -0.09033102
vn 0.7557677 0.6489007 -0.08799496
vn 0.9900889 0.046138 -0.132647
vn 0.9899026 0.05999498 -0.128427
vn 0.9849504 -0.05711903 -0.1631261
g Burrito3_0
f 3/3/3 2/2/2 1/1/1
f 4/4/4 3/3/3 1/1/1
f 3/3/3 5/5/5 2/2/2
f 5/5/5 6/6/6 2/2/2
f 4/4/4 7/7/7 3/3/3
f 7/7/7 8/8/8 3/3/3
f 3/3/3 8/8/8 5/5/5
f 9/9/9 8/8/8 7/7/7
f 10/10/10 9/9/9 7/7/7
f 9/9/9 11/11/11 8/8/8
f 11/11/11 12/12/12 8/8/8
f 8/8/8 12/12/12 5/5/5
f 10/10/10 13/13/13 9/9/9
f 13/13/13 14/14/14 9/9/9
f 9/9/9 14/14/14 11/11/11
f 14/14/14 15/15/15 11/11/11
f 5/5/5 16/16/16 6/6/6
f 17/17/17 11/11/11 15/15/15
f 11/11/11 17/17/17 12/12/12
f 5/5/5 12/12/12 18/18/18
f 16/16/16 5/5/5 18/18/18
f 17/17/17 18/18/18 12/12/12
f 16/16/16 18/18/18 19/19/19
f 17/17/17 19/19/19 18/18/18
f 22/22/22 21/21/21 20/20/20
f 23/23/23 22/22/22 20/20/20
f 22/22/22 24/24/24 21/21/21
f 24/24/24 25/25/25 21/21/21
f 23/23/23 26/26/26 22/22/22
f 26/26/26 27/27/27 22/22/22
f 22/22/22 27/27/27 24/24/24
f 28/28/28 27/27/27 26/26/26
f 29/29/29 28/28/28 26/26/26
f 28/28/28 30/30/30 27/27/27
f 30/30/30 31/31/31 27/27/27
f 27/27/27 31/31/31 24/24/24
f 30/30/30 32/32/32 31/31/31
f 32/32/32 33/33/33 31/31/31
f 24/24/24 31/31/31 33/33/33
f 29/29/29 26/26/26 34/34/34
f 34/34/34 26/26/26 23/23/23
f 35/35/35 29/29/29 34/34/34
f 36/36/36 35/35/35 34/34/34
f 36/36/36 37/37/37 35/35/35
f 37/37/37 38/38/38 35/35/35
f 35/35/35 38/38/38 29/29/29
f 38/38/38 37/37/37 39/39/39
f 40/40/40 38/38/38 39/39/39
f 40/40/40 39/39/39 41/41/41
f 42/42/42 40/40/40 41/41/41
f 43/43/43 40/40/40 42/42/42
f 44/44/44 43/43/43 42/42/42
f 44/44/44 45/45/45 43/43/43
f 45/45/45 46/46/46 43/43/43
f 43/43/43 46/46/46 47/47/47
f 47/47/47 38/38/38 40/40/40
f 43/43/43 47/47/47 40/40/40
f 46/46/46 48/48/48 47/47/47
f 45/45/45 49/49/49 46/46/46
f 49/49/49 50/50/50 46/46/46
f 46/46/46 50/50/50 48/48/48
f 50/50/50 51/51/51 48/48/48
f 38/38/38 47/47/47 29/29/29
f 47/47/47 48/48/48 28/28/28
f 29/29/29 47/47/47 28/28/28
f 48/48/48 51/51/51 30/30/30
f 28/28/28 48/48/48 30/30/30
f 32/32/32 30/30/30 51/51/51
f 49/49/49 45/45/45 52/52/52
f 53/53/53 49/49/49 52/52/52
f 53/53/53 52/52/52 54/54/54
f 52/52/52 55/55/55 54/54/54
f 52/52/52 56/56/56 55/55/55
f 52/52/52 45/45/45 56/56/56
f 56/56/56 57/57/57 55/55/55
f 56/56/56 58/58/58 57/57/57
f 58/58/58 59/59/59 57/57/57
f 58/58/58 60/60/60 59/59/59
f 60/60/60 61/61/61 59/59/59
f 56/56/56 44/44/44 58/58/58
f 45/45/45 44/44/44 56/56/56
f 44/44/44 42/42/42 58/58/58
f 58/58/58 42/42/42 60/60/60
f 42/42/42 41/41/41 60/60/60
f 64/64/64 63/63/63 62/62/62
f 64/64/64 65/65/65 63/63/63
f 65/65/65 66/66/66 63/63/63
f 66/66/66 67/67/67 63/63/63
f 65/65/65 68/68/68 66/66/66
f 68/68/68 69/69/69 66/66/66
f 70/70/70 69/69/69 68/68/68
f 71/71/71 70/70/70 68/68/68
f 71/71/71 72/72/72 70/70/70
f 72/72/72 73/73/73 70/70/70
f 74/74/74 72/72/72 71/71/71
f 71/71/71 68/68/68 75/75/75
f 74/74/74 71/71/71 75/75/75
f 75/75/75 68/68/68 65/65/65
f 64/64/64 75/75/75 65/65/65
f 77/77/77 62/62/62 76/76/76
f 78/78/78 77/77/77 76/76/76
f 78/78/78 76/76/76 79/79/79
f 80/80/80 78/78/78 79/79/79
f 81/81/81 80/80/80 79/79/79
f 82/82/82 81/81/81 79/79/79
f 81/81/81 83/83/83 80/80/80
f 83/83/83 84/84/84 80/80/80
f 85/85/85 78/78/78 80/80/80
f 84/84/84 85/85/85 80/80/80
f 86/86/86 77/77/77 78/78/78
f 85/85/85 86/86/86 78/78/78
f 83/83/83 87/87/87 84/84/84
f 87/87/87 88/88/88 84/84/84
f 84/84/84 88/88/88 85/85/85
f 87/87/87 89/89/89 88/88/88
f 89/89/89 90/90/90 88/88/88
f 85/85/85 91/91/91 86/86/86
f 88/88/88 91/91/91 85/85/85
f 88/88/88 90/90/90 91/91/91
f 91/91/91 92/92/92 86/86/86
f 93/93/93 86/86/86 92/92/92
f 94/94/94 93/93/93 92/92/92
f 94/94/94 92/92/92 95/95/95
f 96/96/96 94/94/94 95/95/95
f 90/90/90 97/97/97 91/91/91
f 97/97/97 95/95/95 92/92/92
f 91/91/91 97/97/97 92/92/92
f 96/96/96 98/98/98 94/94/94
f 93/93/93 94/94/94 98/98/98
f 83/83/83 99/99/99 87/87/87
f 100/100/100 99/99/99 83/83/83
f 81/81/81 100/100/100 83/83/83
f 101/101/101 100/100/100 81/81/81
f 82/82/82 101/101/101 81/81/81
f 99/99/99 102/102/102 87/87/87
f 87/87/87 102/102/102 89/89/89
f 102/102/102 103/103/103 89/89/89
f 104/104/104 24/24/24 33/33/33
f 24/24/24 104/104/104 25/25/25
f 107/107/107 106/106/106 105/105/105
f 108/108/108 107/107/107 105/105/105
f 105/105/105 106/106/106 109/109/109
f 106/106/106 110/110/110 109/109/109
f 109/109/109 110/110/110 111/111/111
f 110/110/110 112/112/112 111/111/111
f 113/113/113 107/107/107 108/108/108
f 114/114/114 113/113/113 108/108/108
f 115/115/115 113/113/113 114/114/114
f 116/116/116 115/115/115 114/114/114
f 117/117/117 115/115/115 116/116/116
f 118/118/118 117/117/117 116/116/116
f 119/119/119 117/117/117 118/118/118
f 120/120/120 119/119/119 118/118/118
f 121/121/121 119/119/119 120/120/120
f 122/122/122 121/121/121 120/120/120
f 111/111/111 112/112/112 123/123/123
f 112/112/112 124/124/124 123/123/123
f 123/123/123 124/124/124 125/125/125
f 124/124/124 126/126/126 125/125/125
f 127/127/127 121/121/121 122/122/122
f 128/128/128 127/127/127 122/122/122
f 129/129/129 127/127/127 128/128/128
f 130/130/130 129/129/129 128/128/128
f 131/131/131 34/34/34 23/23/23
f 131/131/131 23/23/23 20/20/20
f 132/132/132 51/51/51 72/72/72
f 135/135/135 134/134/134 133/133/133
f 136/136/136 135/135/135 133/133/133
f 137/137/137 135/135/135 136/136/136
f 138/138/138 137/137/137 136/136/136
f 139/139/139 137/137/137 138/138/138
f 133/133/133 134/134/134 140/140/140
f 134/134/134 141/141/141 140/140/140
f 140/140/140 141/141/141 142/142/142
f 141/141/141 143/143/143 142/142/142
f 142/142/142 143/143/143 144/144/144
f 143/143/143 145/145/145 144/144/144
f 144/144/144 145/145/145 146/146/146
f 145/145/145 147/147/147 146/146/146
f 146/146/146 147/147/147 148/148/148
