g Chef_Rigging:Hat_Cap
v -0.1987143 1.247576 0.2115674
v -0.2001983 1.429814 0.2186301
v -0.1061096 1.436104 0.2774572
v -0.1011759 1.247576 0.2631072
v 0.0004246426 1.437608 0.2976234
v 0.0004246426 1.247576 0.2833219
v -0.25745 1.247576 0.1030855
v -0.2523076 1.417622 0.1018932
v -0.2922964 1.247576 -0.01770803
v -0.2744673 1.403481 -0.01878971
v -0.2825259 1.247576 -0.1412004
v -0.2615038 1.387048 -0.1425854
v -0.2266607 1.247576 -0.2601252
v -0.2106362 1.367118 -0.2523078
v -0.1134873 1.247576 -0.3147453
v -0.1098787 1.355211 -0.3044772
v 0.0004246426 1.247576 -0.3368435
v 0.0004246426 1.351484 -0.3275329
v 0.0004246426 1.477283 0.2330925
v 0.1020251 1.247576 0.2631072
v 0.1069589 1.436104 0.2774572
v 0.1995636 1.247576 0.2115674
v 0.2010476 1.429814 0.2186301
v 0.2582993 1.247576 0.1030855
v 0.2531569 1.417622 0.1018932
v 0.2931457 1.247576 -0.01770803
v 0.2753166 1.403481 -0.01878971
v 0.2833752 1.247576 -0.1412004
v 0.2623531 1.387048 -0.1425854
v 0.2275099 1.247576 -0.2601252
v 0.2114855 1.367118 -0.2523078
v 0.1143366 1.247576 -0.3147453
v 0.110728 1.355211 -0.3044772
v 0.0004246426 1.247576 -0.3368435
v 0.0004246426 1.351484 -0.3275329
v 0.2010476 1.429814 0.2186301
v 0.08556072 1.475737 0.2157397
v 0.1643461 1.471012 0.1654756
v 0.1057965 1.490749 0.08831552
v 0.2076712 1.460876 0.06834223
v 0.0004246426 1.497004 0.1002836
v -0.08471143 1.475737 0.2157397
v -0.1049472 1.490749 0.08831552
v -0.1634968 1.471012 0.1654756
v -0.2068219 1.460876 0.06834223
v -0.1106849 1.481206 -0.03519683
v -0.2238998 1.448656 -0.03556254
v 0.0004246426 1.489163 -0.03555797
v -0.1066421 1.457563 -0.155546
v -0.2113049 1.434558 -0.1389937
v 0.0004246426 1.46178 -0.1643725
v -0.08653848 1.409048 -0.2675744
v -0.1688306 1.418312 -0.2234214
v 0.0004246426 1.406008 -0.2871612
v -0.2001983 1.429814 0.2186301
v -0.2523076 1.417622 0.1018932
v -0.2744673 1.403481 -0.01878971
v -0.2615038 1.387048 -0.1425854
v -0.1098787 1.355211 -0.3044772
v -0.2106362 1.367118 -0.2523078
v 0.0004246426 1.351484 -0.3275329
v 0.1115342 1.481206 -0.03519683
v 0.2247491 1.448656 -0.03556254
v 0.1074914 1.457563 -0.155546
v 0.2121542 1.434558 -0.1389937
v 0.08738776 1.409048 -0.2675744
v 0.1696799 1.418312 -0.2234214
v 0.2753166 1.403481 -0.01878971
v 0.2531569 1.417622 0.1018932
v 0.2623531 1.387048 -0.1425854
v 0.110728 1.355211 -0.3044772
v 0.2114855 1.367118 -0.2523078
v -0.2266607 1.247576 -0.2601252
v -0.2825259 1.247576 -0.1412004
v -0.1413269 1.247576 -0.1708679
v -0.1134873 1.247576 -0.3147453
v 0.0004246426 1.247576 -0.1826881
v 0.0004246426 1.247576 -0.3368435
v -0.1468624 1.247576 -0.01770803
v -0.2922964 1.247576 -0.01770803
v 0.0004246426 1.247576 -0.01770803
v -0.1293451 1.247576 0.1279541
v -0.25745 1.247576 0.1030855
v 0.0004246426 1.247576 0.1391169
v -0.1011759 1.247576 0.2631072
v -0.1987143 1.247576 0.2115674
v 0.0004246426 1.247576 0.2833219
v 0.1143366 1.247576 -0.3147453
v 0.1421762 1.247576 -0.1708679
v 0.2275099 1.247576 -0.2601252
v 0.2833752 1.247576 -0.1412004
v 0.1477117 1.247576 -0.01770803
v 0.2931457 1.247576 -0.01770803
v 0.1301944 1.247576 0.1279541
v 0.2582993 1.247576 0.1030855
v 0.1020251 1.247576 0.2631072
v 0.1995636 1.247576 0.2115674
vt 0.2743447 0.7074316
vt 0.2743447 0.7559087
vt 0.3085519 0.7551681
vt 0.3085518 0.7074316
vt 0.3390349 0.7502624
vt 0.3390396 0.7074316
vt 0.23369 0.7074316
vt 0.23369 0.7559087
vt 0.1913246 0.7074316
vt 0.1913246 0.755909
vt 0.1476993 0.707432
vt 0.1476993 0.7559087
vt 0.106001 0.707432
vt 0.1060008 0.7559087
vt 0.0589259 0.707432
vt 0.0589259 0.7559087
vt 0.01068649 0.707432
vt 0.01068649 0.7559087
vt 0.3390349 0.7747418
vt 0.3695273 0.7074316
vt 0.3695273 0.7551681
vt 0.4037345 0.7074316
vt 0.4037345 0.7559087
vt 0.4443894 0.7074316
vt 0.4443894 0.7559087
vt 0.4867547 0.7074316
vt 0.4867547 0.755909
vt 0.53038 0.707432
vt 0.53038 0.7559087
vt 0.5720784 0.707432
vt 0.5720784 0.7559087
vt 0.6191534 0.707432
vt 0.6191534 0.7559087
vt 0.667393 0.707432
vt 0.667393 0.7559087
vt 0.4064832 0.7758046
vt 0.3646871 0.7792802
vt 0.3916638 0.7963032
vt 0.3715242 0.8222522
vt 0.4074363 0.8291187
vt 0.3390349 0.8184623
vt 0.3133923 0.7792802
vt 0.306555 0.8222522
vt 0.2864156 0.7963032
vt 0.270643 0.8291187
vt 0.3041296 0.86336
vt 0.2646955 0.8648087
vt 0.3390349 0.8634188
vt 0.3055858 0.904319
vt 0.2695272 0.9001464
vt 0.3390349 0.9073341
vt 0.3117004 0.9455082
vt 0.2838878 0.9295313
vt 0.3390349 0.9519951
vt 0.2715962 0.7758046
vt 0.2503932 0.8170701
vt 0.2420081 0.8606519
vt 0.2470329 0.9055987
vt 0.3017486 0.9661292
vt 0.2664993 0.9452197
vt 0.3390396 0.974274
vt 0.3739498 0.86336
vt 0.4133836 0.8648087
vt 0.3724933 0.904319
vt 0.408552 0.9001464
vt 0.3663788 0.9455082
vt 0.3941915 0.9295313
vt 0.4360711 0.8606519
vt 0.4276861 0.8170701
vt 0.4310463 0.9055987
vt 0.3763308 0.9661292
vt 0.4115801 0.9452197
vt 0.1790718 0.9522204
vt 0.1951782 0.9162315
vt 0.1530405 0.9253722
vt 0.145255 0.9688343
vt 0.1105754 0.9288567
vt 0.1113129 0.9756934
vt 0.1543843 0.8790976
vt 0.1981151 0.8790976
vt 0.1100962 0.8790976
vt 0.1491172 0.8352976
vt 0.1876373 0.8382495
vt 0.1100962 0.8319411
vt 0.1406466 0.7946581
vt 0.1654506 0.8101557
vt 0.1100962 0.7885796
vt 0.07735258 0.9692614
vt 0.06846273 0.9253266
vt 0.04357237 0.9536498
vt 0.02652329 0.9184943
vt 0.06279004 0.8790976
vt 0.02207667 0.8790976
vt 0.07107472 0.8352976
vt 0.03255492 0.8382495
vt 0.07954538 0.7946581
vt 0.04902232 0.8101557
vn -0.7394019 -0.02805106 0.6726797
vn -0.723858 0.2042612 0.6590198
vn -0.3520686 0.1894102 0.9166086
vn -0.3494014 -0.06841572 0.9344721
vn 0 0.1785967 0.9839224
vn 0 -0.07796878 0.9969559
vn -0.9397218 0.03489407 0.340155
vn -0.9189219 0.2457778 0.3085059
vn -0.9925028 0.09963248 0.07079283
vn -0.9562789 0.2888692 0.04566419
vn -0.9578302 0.1352232 -0.2535268
vn -0.9085252 0.3164973 -0.2727845
vn -0.7329617 0.1325115 -0.6672391
vn -0.6865525 0.3018556 -0.6614596
vn -0.3272316 0.1026381 -0.9393535
vn -0.3105305 0.2826756 -0.9075601
vn 0 0.09552126 -0.9954274
vn 0 0.272573 -0.9621351
vn 0 0.9521067 0.3057662
vn 0.3494014 -0.06841572 0.9344721
vn 0.3520687 0.1894102 0.9166086
vn 0.739402 -0.02805105 0.6726796
vn 0.7238579 0.2042612 0.6590198
vn 0.9397218 0.0348941 0.340155
vn 0.9189219 0.2457779 0.308506
vn 0.9925027 0.09963251 0.07079282
vn 0.9562789 0.2888693 0.04566421
vn 0.9578302 0.1352232 -0.253527
vn 0.9085252 0.3164971 -0.2727845
vn 0.7329614 0.1325113 -0.6672393
vn 0.6865525 0.3018554 -0.6614596
vn 0.3272314 0.102638 -0.9393535
vn 0.3105305 0.2826756 -0.90756
vn 0 0.09552126 -0.9954274
vn 0 0.272573 -0.9621351
vn 0.7238579 0.2042612 0.6590198
vn 0.1599446 0.9448038 0.2859432
vn 0.3726264 0.9053304 0.2037807
vn 0.1464317 0.9891305 0.01336003
vn 0.4401384 0.8973688 0.03174172
vn 0 0.9993316 0.03655779
vn -0.1599446 0.944804 0.2859429
vn -0.1464317 0.9891305 0.01336033
vn -0.3726265 0.9053304 0.2037805
vn -0.4401384 0.8973688 0.03174228
vn -0.1614593 0.9785297 -0.1281034
vn -0.4497555 0.8864658 -0.1090802
vn 0 0.9910954 -0.1331537
vn -0.138266 0.9501732 -0.2793804
vn -0.4285037 0.862859 -0.2680652
vn 0 0.9519651 -0.3062067
vn -0.1549111 0.8111558 -0.5639405
vn -0.3391655 0.805856 -0.485348
vn 0 0.8090339 -0.5877619
vn -0.723858 0.2042612 0.6590198
vn -0.9189219 0.2457778 0.3085059
vn -0.9562789 0.2888692 0.04566419
vn -0.9085252 0.3164973 -0.2727845
vn -0.3105305 0.2826756 -0.9075601
vn -0.6865525 0.3018556 -0.6614596
vn 0 0.272573 -0.9621351
vn 0.1614593 0.9785297 -0.1281036
vn 0.4497555 0.8864658 -0.1090801
vn 0.1382659 0.9501732 -0.2793803
vn 0.4285036 0.8628591 -0.2680649
vn 0.1549111 0.8111559 -0.5639403
vn 0.3391655 0.805856 -0.4853482
vn 0.9562789 0.2888693 0.04566421
vn 0.9189219 0.2457779 0.308506
vn 0.9085252 0.3164971 -0.2727845
vn 0.3105305 0.2826756 -0.90756
vn 0.6865525 0.3018554 -0.6614596
vn 0 -1 0
vn 0 -1 0
vn 0 -1 0
vn 0 -1 0
vn 0 -1 0
vn 0 -1 0
vn 0 -1 0
vn 0 -1 0
vn 0 -1 0
vn 0 -1 -2.163933E-07
vn 0 -1 -2.460878E-07
vn 0 -1 0
vn 0 -1 -2.706907E-07
vn 0 -1 -5.05108E-07
vn 0 -1 0
vn 0 -1 0
vn 0 -1 0
vn 0 -1 0
vn 0 -1 0
vn 0 -1 0
vn 0 -1 0
vn 0 -1 0
vn 0 -1 0
vn 0 -1 0
vn 0 -1 0
g Chef_Rigging:Hat_Cap_0
f 3/3/3 2/2/2 1/1/1
f 4/4/4 3/3/3 1/1/1
f 5/5/5 3/3/3 4/4/4
f 6/6/6 5/5/5 4/4/4
f 1/1/1 2/2/2 7/7/7
f 2/2/2 8/8/8 7/7/7
f 7/7/7 8/8/8 9/9/9
f 8/8/8 10/10/10 9/9/9
f 9/9/9 10/10/10 11/11/11
f 10/10/10 12/12/12 11/11/11
f 11/11/11 12/12/12 13/13/13
f 12/12/12 14/14/14 13/13/13
f 15/15/15 13/13/13 14/14/14
f 16/16/16 15/15/15 14/14/14
f 17/17/17 15/15/15 16/16/16
f 18/18/18 17/17/17 16/16/16
f 5/5/5 19/19/19 3/3/3
f 5/5/5 6/6/6 20/20/20
f 21/21/21 5/5/5 20/20/20
f 21/21/21 20/20/20 22/22/22
f 23/23/23 21/21/21 22/22/22
f 23/23/23 22/22/22 24/24/24
f 25/25/25 23/23/23 24/24/24
f 25/25/25 24/24/24 26/26/26
f 27/27/27 25/25/25 26/26/26
f 27/27/27 26/26/26 28/28/28
f 29/29/29 27/27/27 28/28/28
f 29/29/29 28/28/28 30/30/30
f 31/31/31 29/29/29 30/30/30
f 30/30/30 32/32/32 31/31/31
f 32/32/32 33/33/33 31/31/31
f 32/32/32 34/34/34 33/33/33
f 34/34/34 35/35/35 33/33/33
f 37/37/37 21/21/21 36/36/36
f 38/38/38 37/37/37 36/36/36
f 39/39/39 37/37/37 38/38/38
f 40/40/40 39/39/39 38/38/38
f 39/39/39 41/41/41 37/37/37
f 41/41/41 19/19/19 37/37/37
f 19/19/19 41/41/41 42/42/42
f 41/41/41 43/43/43 42/42/42
f 42/42/42 43/43/43 44/44/44
f 43/43/43 45/45/45 44/44/44
f 43/43/43 46/46/46 45/45/45
f 46/46/46 47/47/47 45/45/45
f 48/48/48 46/46/46 43/43/43
f 41/41/41 48/48/48 43/43/43
f 48/48/48 41/41/41 39/39/39
f 46/46/46 49/49/49 47/47/47
f 49/49/49 50/50/50 47/47/47
f 51/51/51 49/49/49 46/46/46
f 48/48/48 51/51/51 46/46/46
f 49/49/49 52/52/52 50/50/50
f 52/52/52 53/53/53 50/50/50
f 54/54/54 52/52/52 49/49/49
f 51/51/51 54/54/54 49/49/49
f 42/42/42 44/44/44 55/55/55
f 3/3/3 42/42/42 55/55/55
f 19/19/19 42/42/42 3/3/3
f 44/44/44 45/45/45 56/56/56
f 55/55/55 44/44/44 56/56/56
f 45/45/45 47/47/47 57/57/57
f 56/56/56 45/45/45 57/57/57
f 47/47/47 50/50/50 58/58/58
f 57/57/57 47/47/47 58/58/58
f 53/53/53 52/52/52 59/59/59
f 60/60/60 53/53/53 59/59/59
f 50/50/50 53/53/53 60/60/60
f 58/58/58 50/50/50 60/60/60
f 52/52/52 54/54/54 61/61/61
f 59/59/59 52/52/52 61/61/61
f 51/51/51 48/48/48 62/62/62
f 62/62/62 48/48/48 39/39/39
f 62/62/62 39/39/39 40/40/40
f 63/63/63 62/62/62 40/40/40
f 64/64/64 62/62/62 63/63/63
f 65/65/65 64/64/64 63/63/63
f 64/64/64 51/51/51 62/62/62
f 66/66/66 64/64/64 65/65/65
f 67/67/67 66/66/66 65/65/65
f 54/54/54 51/51/51 64/64/64
f 66/66/66 54/54/54 64/64/64
f 54/54/54 66/66/66 61/61/61
f 63/63/63 40/40/40 68/68/68
f 40/40/40 69/69/69 68/68/68
f 40/40/40 38/38/38 69/69/69
f 38/38/38 36/36/36 69/69/69
f 63/63/63 68/68/68 70/70/70
f 65/65/65 63/63/63 70/70/70
f 66/66/66 67/67/67 71/71/71
f 67/67/67 72/72/72 71/71/71
f 65/65/65 70/70/70 72/72/72
f 67/67/67 65/65/65 72/72/72
f 66/66/66 71/71/71 61/61/61
f 75/75/75 74/74/74 73/73/73
f 76/76/76 75/75/75 73/73/73
f 77/77/77 75/75/75 76/76/76
f 78/78/78 77/77/77 76/76/76
f 75/75/75 79/79/79 74/74/74
f 79/79/79 80/80/80 74/74/74
f 81/81/81 79/79/79 75/75/75
f 77/77/77 81/81/81 75/75/75
f 79/79/79 82/82/82 80/80/80
f 82/82/82 83/83/83 80/80/80
f 84/84/84 82/82/82 79/79/79
f 81/81/81 84/84/84 79/79/79
f 82/82/82 85/85/85 83/83/83
f 85/85/85 86/86/86 83/83/83
f 87/87/87 85/85/85 82/82/82
f 84/84/84 87/87/87 82/82/82
f 77/77/77 78/78/78 88/88/88
f 89/89/89 77/77/77 88/88/88
f 81/81/81 77/77/77 89/89/89
f 89/89/89 88/88/88 90/90/90
f 91/91/91 89/89/89 90/90/90
f 92/92/92 89/89/89 91/91/91
f 92/92/92 81/81/81 89/89/89
f 84/84/84 81/81/81 92/92/92
f 93/93/93 92/92/92 91/91/91
f 94/94/94 92/92/92 93/93/93
f 94/94/94 84/84/84 92/92/92
f 87/87/87 84/84/84 94/94/94
f 95/95/95 94/94/94 93/93/93
f 96/96/96 94/94/94 95/95/95
f 96/96/96 87/87/87 94/94/94
f 97/97/97 96/96/96 95/95/95
f 19/19/19 5/5/5 21/21/21
f 37/37/37 19/19/19 21/21/21
