g DLC2_Card1
v -0.0339598 3.770295E-18 -0.01960745
v -0.03119636 7.54059E-18 -0.02250293
v -0.03119636 3.770295E-18 -0.01960745
v -2.985866E-18 3.770295E-18 -0.01960745
v 0 7.54059E-18 -0.02250293
v 0.03119636 3.770295E-18 -0.01960745
v 0.03119636 7.54059E-18 -0.02250293
v 0.0339598 3.770295E-18 -0.01960745
v -0.0339598 0 0
v -0.03119636 0 0
v -0.0339598 -3.770295E-18 0.01960745
v -0.03119636 -3.770295E-18 0.01960745
v -1.236864E-18 -3.770295E-18 0.01960745
v 0 0 0
v 0.03119636 -3.770295E-18 0.01960745
v 0.03119636 0 0
v 0.0339598 -3.770295E-18 0.01960745
v 0.0339598 0 0
v -0.03119636 -7.54059E-18 0.02250293
v 0 -7.54059E-18 0.02250293
v 0.03119636 -7.54059E-18 0.02250293
vt 0.3076068 0.9782804
vt 0.3273767 0.959412
vt 0.3076068 0.959412
vt 0.3076068 0.7464085
vt 0.3273767 0.7464085
vt 0.3076068 0.5334051
vt 0.3273767 0.5334051
vt 0.3076068 0.5145368
vt 0.1737304 0.9782804
vt 0.1737304 0.959412
vt 0.03985406 0.9782804
vt 0.03985406 0.959412
vt 0.03985406 0.7464085
vt 0.1737304 0.7464085
vt 0.03985406 0.5334051
vt 0.1737304 0.5334051
vt 0.03985406 0.5145368
vt 0.1737304 0.5145368
vt 0.02008422 0.959412
vt 0.02008422 0.7464085
vt 0.02008422 0.5334051
vn 0 1 0
vn 0 1 0
vn 0 1 0
vn 0 1 0
vn 0 1 0
vn 0 1 0
vn 0 1 0
vn 0 1 0
vn 0 1 0
vn 0 1 0
vn 0 1 0
vn 0 1 0
vn 0 1 0
vn 0 1 0
vn 0 1 0
vn 0 1 0
vn 0 1 0
vn 0 1 0
vn 0 1 0
vn 0 1 0
vn 0 1 0
g DLC2_Card1_0
f 3/3/3 2/2/2 1/1/1
f 3/3/3 4/4/4 2/2/2
f 4/4/4 5/5/5 2/2/2
f 4/4/4 6/6/6 5/5/5
f 6/6/6 7/7/7 5/5/5
f 6/6/6 8/8/8 7/7/7
f 3/3/3 1/1/1 9/9/9
f 10/10/10 3/3/3 9/9/9
f 3/3/3 10/10/10 4/4/4
f 10/10/10 9/9/9 11/11/11
f 12/12/12 10/10/10 11/11/11
f 12/12/12 13/13/13 10/10/10
f 13/13/13 14/14/14 10/10/10
f 10/10/10 14/14/14 4/4/4
f 4/4/4 14/14/14 6/6/6
f 13/13/13 15/15/15 14/14/14
f 15/15/15 16/16/16 14/14/14
f 14/14/14 16/16/16 6/6/6
f 6/6/6 16/16/16 8/8/8
f 15/15/15 17/17/17 16/16/16
f 17/17/17 18/18/18 16/16/16
f 16/16/16 18/18/18 8/8/8
f 19/19/19 12/12/12 11/11/11
f 12/12/12 19/19/19 13/13/13
f 19/19/19 20/20/20 13/13/13
f 13/13/13 20/20/20 15/15/15
f 20/20/20 21/21/21 15/15/15
f 15/15/15 21/21/21 17/17/17
