g DLC2_Beams
v 0.02373536 0.5967112 0.241199
v 0.02906572 2 1.202786
v 0.02906572 2 0.9906535
v 0.02906572 0.9225027 0.241199
v 0.02906572 2 1.202786
v -0.1430206 2 1.202786
v -0.1430206 2 0.9906535
v 0.02906572 2 0.9906535
v -0.1430206 2 1.202786
v -0.1483509 0.5967112 0.241199
v -0.1430206 0.9225027 0.241199
v -0.1430206 2 0.9906535
v -0.1483509 0.5967112 0.241199
v 0.02373536 0.5967112 0.241199
v 0.02906572 0.9225027 0.241199
v -0.1430206 0.9225027 0.241199
v 0.02906572 0.9225027 0.241199
v 0.02906572 2 0.9906535
v -0.1430206 2 0.9906535
v -0.1430206 0.9225027 0.241199
v -0.1483509 0.5967112 0.241199
v -0.1430206 2 1.202786
v 0.02906572 2 1.202786
v 0.02373536 0.5967112 0.241199
v -0.2709343 -1.122826 0.275274
v -0.2709343 2 0.275274
v 0.02906572 2 0.275274
v 0.02906572 -1.122826 0.275274
v -0.2709343 2 0.275274
v -0.2709343 2 -0.02472595
v 0.02906572 2 -0.02472595
v 0.02906572 2 0.275274
v -0.2709343 2 -0.02472595
v -0.2709343 -1.122826 -0.02472595
v 0.02906572 -1.122826 -0.02472595
v 0.02906572 2 -0.02472595
v -0.2709343 -1.122826 -0.02472595
v -0.2709343 -1.122826 0.275274
v 0.02906572 -1.122826 0.275274
v 0.02906572 -1.122826 -0.02472595
v 0.02906572 -1.122826 0.275274
v 0.02906572 2 0.275274
v 0.02906572 2 -0.02472595
v 0.02906572 -1.122826 -0.02472595
v -0.2709343 -1.122826 -0.02472595
v -0.2709343 2 -0.02472595
v -0.2709343 2 0.275274
v -0.2709343 -1.122826 0.275274
v -0.2614806 0.5967112 0.1283887
v -1.248901 2 0.1283887
v -1.036769 2 0.1283887
v -0.2561502 0.9225027 0.1283887
v -1.248901 2 0.1283887
v -1.2489 2 -0.02472595
v -1.036769 2 -0.02472595
v -1.036769 2 0.1283887
v -1.2489 2 -0.02472595
v -0.2614805 0.5967112 -0.02472595
v -0.2561502 0.9225027 -0.02472595
v -1.036769 2 -0.02472595
v -0.2614805 0.5967112 -0.02472595
v -0.2614806 0.5967112 0.1283887
v -0.2561502 0.9225027 0.1283887
v -0.2561502 0.9225027 -0.02472595
v -0.2561502 0.9225027 0.1283887
v -1.036769 2 0.1283887
v -1.036769 2 -0.02472595
v -0.2561502 0.9225027 -0.02472595
v -0.2614805 0.5967112 -0.02472595
v -1.2489 2 -0.02472595
v -1.248901 2 0.1283887
v -0.2614806 0.5967112 0.1283887
vt 0.9154691 0.6293361
vt 0.6163199 0.6363723
vt 0.6381302 0.6666488
vt 0.8689706 0.6628319
vt 0.858467 0.6577555
vt 0.858559 0.6274854
vt 0.8212449 0.6273715
vt 0.8211527 0.6576419
vt 0.6256641 0.6633387
vt 0.924895 0.6626318
vt 0.8775462 0.63035
vt 0.6466837 0.632508
vt 0.7278524 0.6281588
vt 0.7277604 0.6584288
vt 0.7850645 0.6595408
vt 0.7851566 0.6292708
vt 0.6893234 0.6572406
vt 0.8211527 0.6576419
vt 0.8212449 0.6273715
vt 0.6894157 0.6269704
vt 0.8467181 0.6295044
vt 0.6775721 0.629927
vt 0.6774799 0.6601971
vt 0.8466263 0.6597744
vt 0.9330158 0.6317312
vt 0.6008605 0.6307197
vt 0.6007634 0.6626289
vt 0.9329188 0.6636404
vt 0.6269121 0.7438461
vt 0.6268076 0.7781133
vt 0.661075 0.7782177
vt 0.6611794 0.7439505
vt 0.9327395 0.6320966
vt 0.6005843 0.6310853
vt 0.6004872 0.6629944
vt 0.9326424 0.6640058
vt 0.6630719 0.7452056
vt 0.6288045 0.7451013
vt 0.6287001 0.7793685
vt 0.6629676 0.7794729
vt 0.9326333 0.6321732
vt 0.6004779 0.6311617
vt 0.6003809 0.6630708
vt 0.9325362 0.6640822
vt 0.9325272 0.6330782
vt 0.6003718 0.6320668
vt 0.6002746 0.663976
vt 0.9324299 0.6649874
vt 0.91664 0.6303975
vt 0.6148346 0.6337469
vt 0.6366451 0.6640235
vt 0.8706899 0.6646547
vt 0.6308939 0.7587156
vt 0.6308407 0.7762049
vt 0.6550713 0.7762787
vt 0.6551246 0.7587893
vt 0.9137313 0.6303203
vt 0.6119407 0.6347818
vt 0.6587622 0.6678382
vt 0.892712 0.6611512
vt 0.8939067 0.6584004
vt 0.8939886 0.6314675
vt 0.836682 0.6312929
vt 0.8366001 0.6582259
vt 0.836682 0.6312929
vt 0.6471497 0.6307158
vt 0.6470676 0.6576487
vt 0.8366001 0.6582259
vt 0.8968243 0.6304597
vt 0.6499854 0.6297082
vt 0.6499033 0.656641
vt 0.8967422 0.6573927
vn 0.9998991 -0.009458514 0.01059865
vn 0.9998991 -0.009458514 0.01059865
vn 0.9998991 -0.009458514 0.01059865
vn 0.9998991 -0.009458514 0.01059865
vn 0 1 0
vn 0 1 0
vn 0 1 0
vn 0 1 0
vn -0.9998991 0.009458486 -0.01059864
vn -0.9998991 0.009458486 -0.01059864
vn -0.9998991 0.009458484 -0.01059864
vn -0.9998991 0.009458486 -0.01059864
vn 0 0 -1
vn 0 0 -1
vn 0 0 -1
vn 0 0 -1
vn 0 0.5710086 -0.8209441
vn 0 0.5710086 -0.8209441
vn 0 0.5710086 -0.8209441
vn 0 0.5710086 -0.8209441
vn 0 -0.565261 0.8249121
vn 0 -0.565261 0.8249121
vn 0 -0.565261 0.8249121
vn 0 -0.565261 0.8249121
vn 0 0 1
vn 0 0 1
vn 0 0 1
vn 0 0 1
vn 0 1 0
vn 0 1 0
vn 0 1 0
vn 0 1 0
vn 0 0 -1
vn 0 0 -1
vn 0 0 -1
vn 0 0 -1
vn 0 -1 0
vn 0 -1 0
vn 0 -1 0
vn 0 -1 0
vn 1 0 0
vn 1 0 0
vn 1 0 0
vn 1 0 0
vn -1 0 0
vn -1 0 0
vn -1 0 0
vn -1 0 0
vn -1.40073E-06 0 1
vn -1.40073E-06 0 1
vn -1.40073E-06 0 1
vn -1.40073E-06 0 1
vn 0 1 -8.72504E-07
vn 0 1 -8.725038E-07
vn 0 1 -8.725039E-07
vn 0 1 -8.725039E-07
vn 1.400731E-06 0 -1
vn 1.400731E-06 0 -1
vn 1.400731E-06 0 -1
vn 1.400731E-06 0 -1
vn 0.9998661 -0.01635924 0
vn 0.9998661 -0.01635924 0
vn 0.9998661 -0.01635924 0
vn 0.9998661 -0.01635924 0
vn 0.809813 0.586688 0
vn 0.809813 0.5866879 0
vn 0.809813 0.5866879 0
vn 0.809813 0.5866879 0
vn -0.8178283 -0.5754623 -7.434102E-07
vn -0.8178283 -0.5754623 -7.4341E-07
vn -0.8178283 -0.5754623 -7.434099E-07
vn -0.8178282 -0.5754624 -7.434099E-07
g DLC2_Beams_0
f 3/3/3 2/2/2 1/1/1
f 4/4/4 3/3/3 1/1/1
f 7/7/7 6/6/6 5/5/5
f 8/8/8 7/7/7 5/5/5
f 11/11/11 10/10/10 9/9/9
f 12/12/12 11/11/11 9/9/9
f 15/15/15 14/14/14 13/13/13
f 16/16/16 15/15/15 13/13/13
f 19/19/19 18/18/18 17/17/17
f 20/20/20 19/19/19 17/17/17
f 23/23/23 22/22/22 21/21/21
f 24/24/24 23/23/23 21/21/21
f 27/27/27 26/26/26 25/25/25
f 28/28/28 27/27/27 25/25/25
f 31/31/31 30/30/30 29/29/29
f 32/32/32 31/31/31 29/29/29
f 35/35/35 34/34/34 33/33/33
f 36/36/36 35/35/35 33/33/33
f 39/39/39 38/38/38 37/37/37
f 40/40/40 39/39/39 37/37/37
f 43/43/43 42/42/42 41/41/41
f 44/44/44 43/43/43 41/41/41
f 47/47/47 46/46/46 45/45/45
f 48/48/48 47/47/47 45/45/45
f 51/51/51 50/50/50 49/49/49
f 52/52/52 51/51/51 49/49/49
f 55/55/55 54/54/54 53/53/53
f 56/56/56 55/55/55 53/53/53
f 59/59/59 58/58/58 57/57/57
f 60/60/60 59/59/59 57/57/57
f 63/63/63 62/62/62 61/61/61
f 64/64/64 63/63/63 61/61/61
f 67/67/67 66/66/66 65/65/65
f 68/68/68 67/67/67 65/65/65
f 71/71/71 70/70/70 69/69/69
f 72/72/72 71/71/71 69/69/69
