g Door_1
v -0.6 -1.267498 0.2404892
v -0.6 1.549165 0.2404892
v -0.1093697 1.549165 0.2404892
v -0.1093697 -1.267498 0.2404892
v -0.6 1.549165 0.2404892
v -0.6 1.549165 -0.2404893
v -0.1093697 1.549165 -0.2404893
v -0.1093697 1.549165 0.2404892
v -0.6 1.549165 -0.2404893
v -0.6 -1.267498 -0.2404893
v -0.1093697 -1.267498 -0.2404893
v -0.1093697 1.549165 -0.2404893
v -0.6 -1.267498 -0.2404893
v -0.6 1.549165 -0.2404893
v -0.6 1.549165 0.2404892
v -0.6 -1.267498 0.2404892
vt 0.4 0.6296358
vt 0.4 0.6765453
vt 0.3530905 0.6765453
vt 0.3530905 0.6296358
vt 0.4 0.6765453
vt 0.4 0.7234547
vt 0.3530905 0.7234547
vt 0.3530905 0.6765453
vt 0.4 0.7234547
vt 0.4 0.7703642
vt 0.3530905 0.7703642
vt 0.3530905 0.7234547
vt 0.4469095 0.6296358
vt 0.4469095 0.6765453
vt 0.4 0.6765453
vt 0.4 0.6296358
vn 0 0 1
vn 0 0 1
vn 0 0 1
vn 0 0 1
vn 0 1 0
vn 0 1 0
vn 0 1 0
vn 0 1 0
vn 0 0 -1
vn 0 0 -1
vn 0 0 -1
vn 0 0 -1
vn -1 0 0
vn -1 0 0
vn -1 0 0
vn -1 0 0
g Door_1_0
f 3/3/3 2/2/2 1/1/1
f 4/4/4 3/3/3 1/1/1
f 7/7/7 6/6/6 5/5/5
f 8/8/8 7/7/7 5/5/5
f 11/11/11 10/10/10 9/9/9
f 12/12/12 11/11/11 9/9/9
f 15/15/15 14/14/14 13/13/13
f 16/16/16 15/15/15 13/13/13
