g Dracula_Glasses1
v 0.07334481 0.0196526 -0.00540564
v 0.07334481 0.0196526 0.00540567
v 0.06575921 0.03796597 0.005405746
v 0.06575921 0.03796597 -0.005405678
v 0.05369218 0.05369213 0.00540567
v 0.05369218 0.05369213 -0.00540564
v 0.03796609 0.06575916 0.005405746
v 0.03796609 0.06575916 -0.00540564
v 0.07593224 -1.122529E-07 -0.00540564
v 0.07593224 -1.122529E-07 0.00540567
v 0.07334496 -0.01965274 -0.00540564
v 0.07334496 -0.01965274 0.00540567
v 0.06575921 -0.03796611 -0.005405678
v 0.06575921 -0.03796611 0.005405746
v 0.05369218 -0.05369228 -0.00540564
v 0.05369218 -0.05369228 0.00540567
v 0.03796609 -0.06575932 -0.00540564
v 0.03796609 -0.06575932 0.00540567
v 0.03796609 0.06575916 -0.00540564
v 0.03796609 0.06575916 0.005405746
v 0.01965272 0.07334469 0.005405746
v 0.01965272 0.07334469 -0.005405678
v 7.600272E-09 0.07593212 0.005405746
v 7.600272E-09 0.07593212 -0.00540564
v -0.01965263 0.07334469 0.005405746
v -0.01965263 0.07334476 -0.005405678
v -0.03796607 0.06575916 0.005405746
v -0.03796607 0.06575916 -0.00540564
v -0.03796607 0.06575916 -0.00540564
v -0.03796607 0.06575916 0.005405746
v -0.05369208 0.05369213 0.00540567
v -0.05369208 0.05369213 -0.00540564
v -0.06575919 0.03796597 0.005405746
v -0.06575919 0.03796597 -0.005405716
v -0.07334479 0.0196526 0.00540567
v -0.07334479 0.0196526 -0.00540564
v -0.07593223 -1.122529E-07 0.00540567
v -0.07593223 -1.122529E-07 -0.00540564
v -0.07334479 -0.01965274 0.00540567
v -0.07334479 -0.01965274 -0.00540564
v -0.06575919 -0.03796611 0.005405746
v -0.06575919 -0.03796611 -0.005405678
v -0.05369216 -0.05369228 0.00540567
v -0.05369216 -0.05369228 -0.00540564
v -0.03796607 -0.06575932 0.00540567
v -0.03796607 -0.06575932 -0.00540564
v -0.03796607 -0.06575932 -0.00540564
v -0.03796607 -0.06575932 0.00540567
v -0.0196527 -0.07334492 0.005405746
v -0.0196527 -0.07334492 -0.005405678
v 7.600272E-09 -0.07593227 0.005405746
v 7.600272E-09 -0.07593227 -0.005405678
v 0.01965272 -0.07334492 0.005405746
v 0.01965272 -0.07334492 -0.005405678
v 0.03796609 -0.06575932 0.00540567
v 0.03796609 -0.06575932 -0.00540564
v 0.07334481 0.0196526 0.00540567
v 0.06422753 0.01720967 0.00540567
v 0.05758485 0.0332465 0.005405746
v 0.06575921 0.03796597 0.005405746
v 0.04701783 0.04701778 0.00540567
v 0.05369218 0.05369213 0.00540567
v 0.03324662 0.0575848 0.005405746
v 0.03796609 0.06575916 0.005405746
v 0.01720979 0.06422741 0.005405746
v 0.01965272 0.07334469 0.005405746
v 7.600272E-09 0.06649311 0.005405746
v 7.600272E-09 0.07593212 0.005405746
v -0.01720969 0.06422741 0.005405746
v -0.01965263 0.07334469 0.005405746
v -0.0332466 0.0575848 0.005405746
v -0.03796607 0.06575916 0.005405746
v -0.04701773 0.04701778 0.00540567
v -0.05369208 0.05369213 0.00540567
v -0.05758483 0.0332465 0.005405746
v -0.06575919 0.03796597 0.005405746
v -0.06422751 0.01720967 0.00540567
v -0.07334479 0.0196526 0.00540567
v -0.06649321 -1.122529E-07 0.00540567
v -0.07593223 -1.122529E-07 0.00540567
v -0.06422751 -0.01720981 0.00540567
v -0.07334479 -0.01965274 0.00540567
v -0.05758483 -0.03324665 0.005405746
v -0.06575919 -0.03796611 0.005405746
v -0.04701781 -0.04701794 0.00540567
v -0.05369216 -0.05369228 0.00540567
v -0.0332466 -0.05758495 0.00540567
v -0.03796607 -0.06575932 0.00540567
v -0.01720969 -0.06422763 0.005405746
v -0.0196527 -0.07334492 0.005405746
v 7.600272E-09 -0.06649327 0.005405746
v 7.600272E-09 -0.07593227 0.005405746
v 0.01720979 -0.06422763 0.005405746
v 0.01965272 -0.07334492 0.005405746
v 0.03324662 -0.05758495 0.00540567
v 0.03796609 -0.06575932 0.00540567
v 0.04701783 -0.04701794 0.00540567
v 0.05369218 -0.05369228 0.00540567
v 0.05758485 -0.03324665 0.005405746
v 0.06575921 -0.03796611 0.005405746
v 0.06422753 -0.01720981 0.00540567
v 0.07334496 -0.01965274 0.00540567
v 0.06649331 -1.122529E-07 0.00540567
v 0.07593224 -1.122529E-07 0.00540567
v 0.06422753 0.01720967 0.00540567
v 7.600272E-09 -1.122529E-07 0.00540567
v 0.05758485 0.0332465 0.005405746
v 0.04701783 0.04701778 0.00540567
v 0.03324662 0.0575848 0.005405746
v 0.01720979 0.06422741 0.005405746
v 7.600272E-09 0.06649311 0.005405746
v -0.01720969 0.06422741 0.005405746
v -0.0332466 0.0575848 0.005405746
v -0.04701773 0.04701778 0.00540567
v -0.05758483 0.0332465 0.005405746
v -0.06422751 0.01720967 0.00540567
v -0.06649321 -1.122529E-07 0.00540567
v -0.06422751 -0.01720981 0.00540567
v -0.05758483 -0.03324665 0.005405746
v -0.04701781 -0.04701794 0.00540567
v -0.0332466 -0.05758495 0.00540567
v -0.01720969 -0.06422763 0.005405746
v 7.600272E-09 -0.06649327 0.005405746
v 0.01720979 -0.06422763 0.005405746
v 0.03324662 -0.05758495 0.00540567
v 0.04701783 -0.04701794 0.00540567
v 0.05758485 -0.03324665 0.005405746
v 0.06422753 -0.01720981 0.00540567
v 0.06649331 -1.122529E-07 0.00540567
vt 0.8917429 0.3733304
vt 0.9032758 0.3733304
vt 0.9032758 0.3537946
vt 0.8917429 0.3537946
vt 0.9032758 0.3370186
vt 0.8917429 0.3370186
vt 0.9032758 0.3241462
vt 0.8917429 0.3241462
vt 0.8917429 0.3942952
vt 0.9032758 0.3942952
vt 0.8917429 0.4152596
vt 0.9032758 0.4152596
vt 0.8917429 0.4347954
vt 0.9032758 0.4347954
vt 0.8917429 0.4515713
vt 0.9032758 0.4515713
vt 0.8917429 0.464444
vt 0.9032758 0.464444
vt 0.9207028 0.4652147
vt 0.9091697 0.4652147
vt 0.9091697 0.4847506
vt 0.9207028 0.4847506
vt 0.9091697 0.5057153
vt 0.9207028 0.5057153
vt 0.9091697 0.5266797
vt 0.9207028 0.5266797
vt 0.9091697 0.5462158
vt 0.9207028 0.5462158
vt 0.9045383 0.4644441
vt 0.9160714 0.4644441
vt 0.9160714 0.4515714
vt 0.9045383 0.4515714
vt 0.9160714 0.4347955
vt 0.9045383 0.4347955
vt 0.9160714 0.4152597
vt 0.9045383 0.4152597
vt 0.9160714 0.3942951
vt 0.9045383 0.3942951
vt 0.9160714 0.3733305
vt 0.9045383 0.3733305
vt 0.9160714 0.3537946
vt 0.9045383 0.3537946
vt 0.9160714 0.3370187
vt 0.9045383 0.3370187
vt 0.9160714 0.3241462
vt 0.9045383 0.3241462
vt 0.896452 0.5462158
vt 0.9079849 0.5462158
vt 0.907985 0.5266798
vt 0.8964519 0.5266798
vt 0.907985 0.5057153
vt 0.8964519 0.5057153
vt 0.907985 0.4847507
vt 0.8964519 0.4847507
vt 0.9079849 0.4652148
vt 0.896452 0.4652148
vt 0.8303409 0.3269063
vt 0.8277348 0.3366323
vt 0.8448423 0.3437183
vt 0.8498768 0.3349984
vt 0.8595328 0.3549908
vt 0.8666527 0.3478709
vt 0.8708051 0.3696813
vt 0.8795252 0.3646466
vt 0.8778913 0.3867886
vt 0.8876171 0.3841825
vt 0.8803082 0.4051472
vt 0.8903772 0.4051472
vt 0.8778913 0.4235057
vt 0.8876171 0.4261118
vt 0.8708051 0.4406131
vt 0.8795252 0.4456476
vt 0.8595328 0.4553035
vt 0.8666527 0.4624235
vt 0.8448423 0.466576
vt 0.8498768 0.475296
vt 0.8277348 0.4736622
vt 0.8303409 0.4833882
vt 0.8093764 0.4760791
vt 0.8093762 0.4861482
vt 0.7910177 0.4736622
vt 0.7884117 0.4833882
vt 0.7739104 0.466576
vt 0.7688759 0.475296
vt 0.7592199 0.4553037
vt 0.7521 0.4624235
vt 0.7479474 0.4406131
vt 0.7392274 0.4456478
vt 0.7408613 0.4235058
vt 0.7311354 0.4261118
vt 0.7384444 0.4051472
vt 0.7283753 0.4051472
vt 0.7408613 0.3867886
vt 0.7311354 0.3841825
vt 0.7479474 0.3696813
vt 0.7392274 0.3646466
vt 0.7592199 0.3549908
vt 0.7521 0.3478709
vt 0.7739104 0.3437183
vt 0.7688759 0.3349984
vt 0.7910177 0.3366323
vt 0.7884117 0.3269061
vt 0.8093764 0.3342153
vt 0.8093762 0.3241462
vt 0.6509259 0.8841904
vt 0.5 0.8375
vt 0.6353165 0.921875
vt 0.6104854 0.9542354
vt 0.578125 0.9790665
vt 0.5404404 0.9946759
vt 0.5 1
vt 0.4595595 0.9946759
vt 0.421875 0.9790664
vt 0.3895146 0.9542354
vt 0.3646836 0.921875
vt 0.3490741 0.8841904
vt 0.3437501 0.84375
vt 0.3490741 0.8033096
vt 0.3646836 0.765625
vt 0.3895146 0.7332646
vt 0.4218751 0.7084336
vt 0.4595596 0.6928241
vt 0.5 0.6875001
vt 0.5404404 0.6928242
vt 0.578125 0.7084336
vt 0.6104854 0.7332646
vt 0.6353164 0.7656251
vt 0.6509258 0.8033096
vt 0.65625 0.84375
vn 0.9659256 0.2588197 0
vn 0.9659256 0.2588197 0
vn 0.8660274 0.4999967 0
vn 0.8660273 0.4999966 0
vn 0.707108 0.7071055 0
vn 0.7071081 0.7071054 0
vn 0.4999972 0.8660271 0
vn 0.4999972 0.8660271 0
vn 1 3.594152E-06 0
vn 1 3.594152E-06 0
vn 0.9659255 -0.2588205 0
vn 0.9659254 -0.2588206 0
vn 0.8660258 -0.4999994 0
vn 0.8660258 -0.4999993 0
vn 0.7071077 -0.7071059 0
vn 0.7071078 -0.7071057 0
vn 0.4999985 -0.8660262 0
vn 0.4999985 -0.8660263 0
vn 0.4999972 0.8660271 0
vn 0.4999972 0.8660271 0
vn 0.2588186 0.9659259 0
vn 0.2588186 0.9659259 0
vn 8.929505E-07 1 3.590767E-06
vn 8.884847E-07 1 3.590767E-06
vn -0.2588185 0.9659259 3.590759E-06
vn -0.2588182 0.9659261 3.590767E-06
vn -0.4999975 0.8660269 0
vn -0.4999976 0.8660269 0
vn -0.4999976 0.8660269 0
vn -0.4999975 0.8660269 0
vn -0.7071072 0.7071063 0
vn -0.7071074 0.7071061 0
vn -0.8660258 0.4999993 0
vn -0.8660258 0.4999993 0
vn -0.9659254 0.2588209 0
vn -0.9659254 0.2588209 0
vn -1 0 0
vn -1 0 0
vn -0.9659249 -0.2588222 0
vn -0.965925 -0.2588221 0
vn -0.8660265 -0.4999981 0
vn -0.8660265 -0.4999981 0
vn -0.7071077 -0.7071058 0
vn -0.7071077 -0.7071058 0
vn -0.4999985 -0.8660263 0
vn -0.4999985 -0.8660262 0
vn -0.4999985 -0.8660262 0
vn -0.4999985 -0.8660263 0
vn -0.2588187 -0.9659259 0
vn -0.2588187 -0.9659258 0
vn 0 -1 0
vn 0 -1 0
vn 0.2588178 -0.9659262 0
vn 0.2588179 -0.9659262 0
vn 0.4999985 -0.8660263 0
vn 0.4999985 -0.8660262 0
vn 1.096361E-06 -3.791628E-06 1
vn 1.096361E-06 -3.791628E-06 1
vn 1.096361E-06 -3.791628E-06 1
vn 1.096361E-06 -3.791628E-06 1
vn -3.289041E-06 3.255884E-06 1
vn -3.289041E-06 3.255885E-06 1
vn 4.385446E-06 -2.498331E-06 1
vn 4.385445E-06 -2.498331E-06 1
vn 0 0 1
vn 0 0 1
vn 0 0 1
vn 0 0 1
vn 0 0 1
vn 0 0 1
vn -2.192716E-06 0 1
vn -2.192716E-06 0 1
vn -6.578197E-06 -2.498342E-06 1
vn -6.578197E-06 -2.498342E-06 1
vn 2.192684E-06 3.25587E-06 1
vn 2.192685E-06 3.25587E-06 1
vn -1.096366E-06 -3.791611E-06 1
vn -1.096366E-06 -3.791611E-06 1
vn 1.096352E-06 0 1
vn 1.096352E-06 0 1
vn 0 0 1
vn 0 0 1
vn -1.096362E-06 3.791595E-06 1
vn -1.096362E-06 3.791595E-06 1
vn 3.289099E-06 -3.255941E-06 1
vn 3.289098E-06 -3.255941E-06 1
vn -1.096357E-06 0 1
vn -1.096357E-06 0 1
vn -3.289063E-06 1.570522E-06 1
vn -3.289063E-06 1.570522E-06 1
vn 0 0 1
vn 0 0 1
vn 0 0 1
vn 0 0 1
vn 2.192723E-06 1.570532E-06 1
vn 2.192723E-06 1.570532E-06 1
vn 1.096359E-06 0 1
vn 1.096359E-06 0 1
vn -2.192723E-06 -3.255927E-06 1
vn -2.192723E-06 -3.255927E-06 1
vn 1.096361E-06 3.791628E-06 1
vn 1.096361E-06 3.791628E-06 1
vn 1.096357E-06 0 1
vn 1.096357E-06 0 1
vn 6.667158E-07 -2.141073E-06 1
vn 0 -1.656114E-07 1
vn -6.667144E-07 -5.736914E-07 1
vn 0 0 1
vn 1.333431E-06 -2.101974E-06 1
vn 0 -1.108302E-06 1
vn 0 -1.147391E-06 1
vn 0 -1.1083E-06 1
vn -1.33343E-06 -2.101979E-06 1
vn 0 0 1
vn 6.667048E-07 -5.737096E-07 1
vn -6.667133E-07 -2.141065E-06 1
vn 0 0 1
vn -1.000069E-06 2.141063E-06 1
vn 1.000077E-06 5.736837E-07 1
vn 2.000147E-06 -1.567376E-06 1
vn -1.333429E-06 1.108305E-06 1
vn -1.333432E-06 1.682002E-06 1
vn 0 1.147391E-06 1
vn 1.333434E-06 1.682003E-06 1
vn 1.333433E-06 1.108303E-06 1
vn -2.666842E-06 -1.567364E-06 1
vn -1.333412E-06 5.73702E-07 1
vn 1.333423E-06 2.14106E-06 1
vn 0 0 1
g Dracula_Glasses1_0
f 3/3/3 2/2/2 1/1/1
f 4/4/4 3/3/3 1/1/1
f 5/5/5 3/3/3 4/4/4
f 6/6/6 5/5/5 4/4/4
f 7/7/7 5/5/5 6/6/6
f 8/8/8 7/7/7 6/6/6
f 1/1/1 2/2/2 9/9/9
f 2/2/2 10/10/10 9/9/9
f 9/9/9 10/10/10 11/11/11
f 10/10/10 12/12/12 11/11/11
f 11/11/11 12/12/12 13/13/13
f 12/12/12 14/14/14 13/13/13
f 13/13/13 14/14/14 15/15/15
f 14/14/14 16/16/16 15/15/15
f 15/15/15 16/16/16 17/17/17
f 16/16/16 18/18/18 17/17/17
f 21/21/21 20/20/20 19/19/19
f 22/22/22 21/21/21 19/19/19
f 23/23/23 21/21/21 22/22/22
f 24/24/24 23/23/23 22/22/22
f 25/25/25 23/23/23 24/24/24
f 26/26/26 25/25/25 24/24/24
f 27/27/27 25/25/25 26/26/26
f 28/28/28 27/27/27 26/26/26
f 31/31/31 30/30/30 29/29/29
f 32/32/32 31/31/31 29/29/29
f 33/33/33 31/31/31 32/32/32
f 34/34/34 33/33/33 32/32/32
f 35/35/35 33/33/33 34/34/34
f 36/36/36 35/35/35 34/34/34
f 37/37/37 35/35/35 36/36/36
f 38/38/38 37/37/37 36/36/36
f 39/39/39 37/37/37 38/38/38
f 40/40/40 39/39/39 38/38/38
f 41/41/41 39/39/39 40/40/40
f 42/42/42 41/41/41 40/40/40
f 43/43/43 41/41/41 42/42/42
f 44/44/44 43/43/43 42/42/42
f 45/45/45 43/43/43 44/44/44
f 46/46/46 45/45/45 44/44/44
f 49/49/49 48/48/48 47/47/47
f 50/50/50 49/49/49 47/47/47
f 51/51/51 49/49/49 50/50/50
f 52/52/52 51/51/51 50/50/50
f 53/53/53 51/51/51 52/52/52
f 54/54/54 53/53/53 52/52/52
f 55/55/55 53/53/53 54/54/54
f 56/56/56 55/55/55 54/54/54
f 59/59/59 58/58/58 57/57/57
f 60/60/60 59/59/59 57/57/57
f 61/61/61 59/59/59 60/60/60
f 62/62/62 61/61/61 60/60/60
f 63/63/63 61/61/61 62/62/62
f 64/64/64 63/63/63 62/62/62
f 65/65/65 63/63/63 64/64/64
f 66/66/66 65/65/65 64/64/64
f 67/67/67 65/65/65 66/66/66
f 68/68/68 67/67/67 66/66/66
f 69/69/69 67/67/67 68/68/68
f 70/70/70 69/69/69 68/68/68
f 71/71/71 69/69/69 70/70/70
f 72/72/72 71/71/71 70/70/70
f 73/73/73 71/71/71 72/72/72
f 74/74/74 73/73/73 72/72/72
f 75/75/75 73/73/73 74/74/74
f 76/76/76 75/75/75 74/74/74
f 77/77/77 75/75/75 76/76/76
f 78/78/78 77/77/77 76/76/76
f 79/79/79 77/77/77 78/78/78
f 80/80/80 79/79/79 78/78/78
f 81/81/81 79/79/79 80/80/80
f 82/82/82 81/81/81 80/80/80
f 83/83/83 81/81/81 82/82/82
f 84/84/84 83/83/83 82/82/82
f 85/85/85 83/83/83 84/84/84
f 86/86/86 85/85/85 84/84/84
f 87/87/87 85/85/85 86/86/86
f 88/88/88 87/87/87 86/86/86
f 89/89/89 87/87/87 88/88/88
f 90/90/90 89/89/89 88/88/88
f 91/91/91 89/89/89 90/90/90
f 92/92/92 91/91/91 90/90/90
f 93/93/93 91/91/91 92/92/92
f 94/94/94 93/93/93 92/92/92
f 95/95/95 93/93/93 94/94/94
f 96/96/96 95/95/95 94/94/94
f 97/97/97 95/95/95 96/96/96
f 98/98/98 97/97/97 96/96/96
f 99/99/99 97/97/97 98/98/98
f 100/100/100 99/99/99 98/98/98
f 101/101/101 99/99/99 100/100/100
f 102/102/102 101/101/101 100/100/100
f 103/103/103 101/101/101 102/102/102
f 104/104/104 103/103/103 102/102/102
f 58/58/58 103/103/103 104/104/104
f 57/57/57 58/58/58 104/104/104
g Dracula_Glasses1_1
f 107/107/107 106/106/106 105/105/105
f 108/108/108 106/106/106 107/107/107
f 109/109/109 106/106/106 108/108/108
f 110/110/110 106/106/106 109/109/109
f 111/111/111 106/106/106 110/110/110
f 112/112/112 106/106/106 111/111/111
f 113/113/113 106/106/106 112/112/112
f 114/114/114 106/106/106 113/113/113
f 115/115/115 106/106/106 114/114/114
f 116/116/116 106/106/106 115/115/115
f 117/117/117 106/106/106 116/116/116
f 118/118/118 106/106/106 117/117/117
f 119/119/119 106/106/106 118/118/118
f 120/120/120 106/106/106 119/119/119
f 121/121/121 106/106/106 120/120/120
f 122/122/122 106/106/106 121/121/121
f 123/123/123 106/106/106 122/122/122
f 124/124/124 106/106/106 123/123/123
f 125/125/125 106/106/106 124/124/124
f 126/126/126 106/106/106 125/125/125
f 127/127/127 106/106/106 126/126/126
f 128/128/128 106/106/106 127/127/127
f 129/129/129 106/106/106 128/128/128
f 105/105/105 106/106/106 129/129/129
