g Earthquake_Floor90
v -13.86487 49.66637 -12.61482
v -1.421085E-14 49.66637 1.421085E-14
v -12.5 49.66637 1.421085E-14
v -1.421085E-14 49.66637 -12.5
v -13.86487 -0.3336315 -12.61482
v -13.86487 49.66637 -12.61482
v -12.5 49.66637 1.421085E-14
v -12.5 -0.3336315 1.421085E-14
v -1.421085E-14 -0.3336315 -12.5
v -1.421085E-14 49.66637 -12.5
v -13.86487 49.66637 -12.61482
v -13.86487 -0.3336315 -12.61482
vt 0.2520447 0.2766518
vt -0.0004399008 -0.0008528985
vt 0.001107354 0.2534412
vt 0.2497466 -0.0008528729
vt 0.7832308 0.998008
vt 0.7832308 0.001992001
vt 0.624502 0.001992001
vt 0.624502 0.998008
vt 0.998008 0.998008
vt 0.998008 0.001992001
vt 0.7832308 0.001992001
vt 0.7832308 0.998008
vn 0 1 0
vn 0 1 0
vn 0 1 0
vn 0 1 0
vn -0.9941977 0 0.107568
vn -0.9941977 0 0.107568
vn -0.9941977 0 0.107568
vn -0.9941977 0 0.107568
vn 0.008281181 0 -0.9999658
vn 0.008281181 0 -0.9999658
vn 0.008281181 0 -0.9999658
vn 0.008281181 0 -0.9999658
g Earthquake_Floor90_0
f 3/3/3 2/2/2 1/1/1
f 1/1/1 2/2/2 4/4/4
g Earthquake_Floor90_1
f 7/7/7 6/6/6 5/5/5
f 8/8/8 7/7/7 5/5/5
f 11/11/11 10/10/10 9/9/9
f 12/12/12 11/11/11 9/9/9
