g Fish_Basket_Cooked
v 0.04969627 0.2093054 0.3083386
v 0.06024009 0.1462587 0.3217761
v -0.06492836 0.1259398 0.3556758
v -0.07246254 0.1908411 0.3350169
v -0.1846018 0.1110463 0.3038529
v -0.1900028 0.1751991 0.290792
v -0.1430283 0.06562001 0.2700357
v -0.0533854 0.06828454 0.3112623
v 0.0372097 0.09059083 0.3008878
v -0.06925149 0.2034601 0.3090398
v -0.1752518 0.1891799 0.2683223
v -0.05591835 0.1983317 0.1441718
v -0.202075 0.1659063 0.1365838
v -0.04556618 0.1992278 -0.007803734
v 0.09056358 0.1986676 0.002263498
v 0.07696982 0.2177156 -0.1545082
v -0.03557472 0.2100548 -0.15986
v 0.03869163 0.2418272 -0.2864414
v -0.02805763 0.2318453 -0.3254228
v -0.1480534 0.191769 -0.1725988
v -0.09804969 0.2250891 -0.2991676
v -0.1815635 0.1643409 -0.01807339
v 0.08900535 0.2056702 0.158328
v 0.04091453 0.2194025 0.2844748
v 0.04692405 0.2351666 -0.3117724
v -0.02709145 0.2251741 -0.3541117
v 0.05386924 0.1971772 -0.3311397
v -0.01965615 0.1890691 -0.3809055
v 0.03868736 0.1631144 -0.3195569
v -0.01568703 0.152268 -0.342497
v -0.09759315 0.1785851 -0.3449481
v -0.07441139 0.1486994 -0.3122096
v -0.1047031 0.2164927 -0.3255959
v 0.08828514 0.2113737 -0.1684718
v 0.09688682 0.1622964 -0.1801514
v 0.05386924 0.1971772 -0.3311397
v 0.1120449 0.1313624 -0.001421385
v 0.10475 0.188824 0.00181156
v 0.08107872 0.072758 -0.0073613
v 0.06872032 0.1257223 -0.2022934
v -0.01834023 0.10245 -0.2076427
v -0.02777687 0.05042144 -0.0159545
v -0.1054996 0.1144422 -0.2198011
v -0.138303 0.04598644 -0.02339479
v -0.07441139 0.1486994 -0.3122096
v -0.01568703 0.152268 -0.342497
v 0.03868736 0.1631144 -0.3195569
v -0.04080117 0.03996398 0.1756007
v -0.1646989 0.04253696 0.1724029
v -0.0533854 0.06828454 0.3112623
v 0.0372097 0.09059083 0.3008878
v 0.07888206 0.07091018 0.1870168
v -0.1430283 0.06562001 0.2700357
v 0.1126858 0.1283333 0.1767085
v 0.1030221 0.1956185 0.1713208
v 0.06024009 0.1462587 0.3217761
v -0.138303 0.04598644 -0.02339479
v -0.1054996 0.1144422 -0.2198011
v -0.1489487 0.1374357 -0.1995157
v -0.1863554 0.09377316 -0.02326621
v -0.1587144 0.1823221 -0.1881229
v -0.1970017 0.1502239 -0.02027994
v -0.09759315 0.1785851 -0.3449481
v -0.07441139 0.1486994 -0.3122096
v -0.2197459 0.1505569 0.1477003
v -0.211887 0.08474726 0.1529793
v -0.1846018 0.1110463 0.3038529
v -0.1646989 0.04253696 0.1724029
v -0.1430283 0.06562001 0.2700357
vt 0.4842142 0.8002381
vt 0.4731901 0.8798214
vt 0.608881 0.897158
vt 0.6141247 0.8329032
vt 0.7570946 0.8908586
vt 0.74914 0.8073769
vt 0.7300881 0.9809654
vt 0.6035728 0.9766428
vt 0.4962603 0.9511047
vt 0.6120448 0.8036826
vt 0.7279063 0.7773271
vt 0.6120034 0.6365677
vt 0.7645269 0.6375591
vt 0.6051428 0.4838523
vt 0.4661986 0.4953943
vt 0.473659 0.3425164
vt 0.5893485 0.3296214
vt 0.4975377 0.1931591
vt 0.5702177 0.1536809
vt 0.7112483 0.3139066
vt 0.6467267 0.1741351
vt 0.7545813 0.4737024
vt 0.4690556 0.6391382
vt 0.5004492 0.773148
vt 0.4826797 0.1633437
vt 0.5692369 0.1251388
vt 0.4733184 0.1058146
vt 0.5673492 0.08719385
vt 0.4800849 0.04909205
vt 0.5598808 0.03408187
vt 0.6502361 0.08561456
vt 0.6394587 0.02612516
vt 0.6576141 0.1417397
vt 0.4560158 0.3275962
vt 0.4059324 0.3197832
vt 0.434248 0.1448549
vt 0.3895683 0.4948152
vt 0.4453537 0.4955405
vt 0.3254961 0.4907497
vt 0.3602085 0.2946726
vt 0.2668404 0.2663514
vt 0.2129267 0.4774233
vt 0.1718926 0.2197488
vt 0.08683921 0.4622625
vt 0.2511426 0.1144207
vt 0.3344549 0.1069839
vt 0.3891268 0.1556288
vt 0.2083047 0.6815158
vt 0.0705751 0.6977052
vt 0.2302463 0.8344846
vt 0.3358453 0.7996356
vt 0.3283875 0.6723697
vt 0.1179278 0.8079718
vt 0.3890651 0.6574444
vt 0.4502155 0.6512352
vt 0.4086033 0.8157234
vt 0.9188958 0.4449849
vt 0.8131667 0.2265764
vt 0.7752011 0.2732055
vt 0.8408521 0.4626989
vt 0.7289318 0.2953434
vt 0.7778507 0.4719152
vt 0.6968524 0.1092262
vt 0.7544353 0.1205265
vt 0.7889063 0.6495249
vt 0.8576721 0.6559786
vt 0.8269668 0.8271058
vt 0.9288272 0.6797338
vt 0.9068661 0.8006985
vn 0.5998662 0.4423791 0.6666792
vn 0.6977742 -0.05479202 0.7142192
vn -0.06295602 -0.1631701 0.9845873
vn -0.131549 0.4378788 0.8893576
vn -0.7214442 -0.2881711 0.6296632
vn -0.7836109 0.283263 0.5529159
vn -0.2872241 -0.8812481 0.3753721
vn 0.068216 -0.8747659 0.4797199
vn 0.463184 -0.7534799 0.4666139
vn -0.136951 0.9904372 0.016685
vn -0.252812 0.9672539 -0.022496
vn -0.127339 0.9905247 -0.05143599
vn -0.2922669 0.9549677 -0.05115398
vn -0.128908 0.9911384 0.03205302
vn 0.05037302 0.9983765 0.02658901
vn 0.02470101 0.9937324 0.1090221
vn -0.1311279 0.9839097 0.121356
vn -0.028209 0.9928339 0.116126
vn -0.122262 0.9899358 0.07126898
vn -0.2699799 0.9582945 0.09371495
vn -0.2229589 0.9703597 0.09322797
vn -0.2971871 0.9546913 0.01563401
vn 0.03914902 0.9984774 -0.03886301
vn -0.006299998 0.9999745 -0.003372998
vn 0.734921 0.564573 -0.375697
vn -0.02254301 0.6957283 -0.7179513
vn 0.850218 0.021366 -0.525997
vn 0.05623399 -0.08614898 -0.9946939
vn 0.5125991 -0.748335 -0.4209951
vn 0.11086 -0.8673829 -0.4851359
vn -0.7076843 -0.2661401 -0.6544863
vn -0.2644921 -0.8626682 -0.4311002
vn -0.7981831 0.352319 -0.4886461
vn 0.9278602 0.3572211 -0.107091
vn 0.9680887 -0.166269 -0.187507
vn 0.850218 0.021366 -0.525997
vn 0.9735295 -0.2202519 -0.06106797
vn 0.9579911 0.28584 -0.023422
vn 0.4804372 -0.8690622 -0.117945
vn 0.4955259 -0.8198128 -0.2869859
vn 0.111609 -0.9469923 -0.3012461
vn 0.118317 -0.9821369 -0.146315
vn -0.2538431 -0.9016003 -0.3502581
vn -0.2319061 -0.9542192 -0.1889051
vn -0.2644921 -0.8626682 -0.4311002
vn 0.11086 -0.8673829 -0.4851359
vn 0.5125991 -0.748335 -0.4209951
vn 0.115874 -0.9913517 0.06160298
vn -0.2736099 -0.9602466 0.05535498
vn 0.068216 -0.8747659 0.4797199
vn 0.463184 -0.7534799 0.4666139
vn 0.5114748 -0.8512706 0.1171829
vn -0.2872241 -0.8812481 0.3753721
vn 0.9703682 -0.1843541 0.156202
vn 0.9381516 0.3091579 0.1558619
vn 0.6977742 -0.05479202 0.7142192
vn -0.2319061 -0.9542192 -0.1889051
vn -0.2538431 -0.9016003 -0.3502581
vn -0.8160335 -0.4628687 -0.3461818
vn -0.8329672 -0.5074951 -0.2204871
vn -0.9598731 0.123413 -0.251819
vn -0.983343 0.052272 -0.174081
vn -0.7076843 -0.2661401 -0.6544863
vn -0.2644921 -0.8626682 -0.4311002
vn -0.9957156 0.09081697 0.01739799
vn -0.8829257 -0.4692509 0.015674
vn -0.7214442 -0.2881711 0.6296632
vn -0.2736099 -0.9602466 0.05535498
vn -0.2872241 -0.8812481 0.3753721
g Fish_Basket_Cooked_0
f 3/3/3 2/2/2 1/1/1
f 4/4/4 3/3/3 1/1/1
f 5/5/5 3/3/3 4/4/4
f 6/6/6 5/5/5 4/4/4
f 5/5/5 7/7/7 3/3/3
f 7/7/7 8/8/8 3/3/3
f 3/3/3 8/8/8 2/2/2
f 8/8/8 9/9/9 2/2/2
f 4/4/4 10/10/10 6/6/6
f 10/10/10 11/11/11 6/6/6
f 11/11/11 10/10/10 12/12/12
f 13/13/13 11/11/11 12/12/12
f 13/13/13 12/12/12 14/14/14
f 14/14/14 12/12/12 15/15/15
f 14/14/14 15/15/15 16/16/16
f 17/17/17 14/14/14 16/16/16
f 17/17/17 16/16/16 18/18/18
f 19/19/19 17/17/17 18/18/18
f 20/20/20 17/17/17 19/19/19
f 21/21/21 20/20/20 19/19/19
f 22/22/22 14/14/14 17/17/17
f 20/20/20 22/22/22 17/17/17
f 22/22/22 13/13/13 14/14/14
f 12/12/12 23/23/23 15/15/15
f 12/12/12 10/10/10 23/23/23
f 10/10/10 24/24/24 23/23/23
f 19/19/19 18/18/18 25/25/25
f 26/26/26 19/19/19 25/25/25
f 21/21/21 19/19/19 26/26/26
f 26/26/26 25/25/25 27/27/27
f 28/28/28 26/26/26 27/27/27
f 28/28/28 27/27/27 29/29/29
f 30/30/30 28/28/28 29/29/29
f 31/31/31 28/28/28 30/30/30
f 32/32/32 31/31/31 30/30/30
f 33/33/33 26/26/26 28/28/28
f 31/31/31 33/33/33 28/28/28
f 33/33/33 21/21/21 26/26/26
f 20/20/20 21/21/21 33/33/33
f 25/25/25 18/18/18 34/34/34
f 34/34/34 35/35/35 25/25/25
f 35/35/35 36/36/36 25/25/25
f 37/37/37 35/35/35 34/34/34
f 38/38/38 37/37/37 34/34/34
f 37/37/37 39/39/39 35/35/35
f 39/39/39 40/40/40 35/35/35
f 35/35/35 40/40/40 36/36/36
f 41/41/41 40/40/40 39/39/39
f 42/42/42 41/41/41 39/39/39
f 43/43/43 41/41/41 42/42/42
f 44/44/44 43/43/43 42/42/42
f 43/43/43 45/45/45 41/41/41
f 45/45/45 46/46/46 41/41/41
f 41/41/41 46/46/46 40/40/40
f 46/46/46 47/47/47 40/40/40
f 40/40/40 47/47/47 36/36/36
f 44/44/44 42/42/42 48/48/48
f 49/49/49 44/44/44 48/48/48
f 49/49/49 48/48/48 50/50/50
f 50/50/50 48/48/48 51/51/51
f 48/48/48 52/52/52 51/51/51
f 42/42/42 39/39/39 52/52/52
f 48/48/48 42/42/42 52/52/52
f 53/53/53 49/49/49 50/50/50
f 54/54/54 52/52/52 39/39/39
f 37/37/37 54/54/54 39/39/39
f 55/55/55 54/54/54 37/37/37
f 38/38/38 55/55/55 37/37/37
f 55/55/55 1/1/1 54/54/54
f 1/1/1 56/56/56 54/54/54
f 56/56/56 51/51/51 52/52/52
f 54/54/54 56/56/56 52/52/52
f 38/38/38 15/15/15 55/55/55
f 16/16/16 15/15/15 38/38/38
f 34/34/34 16/16/16 38/38/38
f 18/18/18 16/16/16 34/34/34
f 15/15/15 23/23/23 55/55/55
f 55/55/55 23/23/23 1/1/1
f 23/23/23 24/24/24 1/1/1
f 1/1/1 24/24/24 4/4/4
f 24/24/24 10/10/10 4/4/4
f 59/59/59 58/58/58 57/57/57
f 60/60/60 59/59/59 57/57/57
f 61/61/61 59/59/59 60/60/60
f 62/62/62 61/61/61 60/60/60
f 61/61/61 33/33/33 59/59/59
f 33/33/33 63/63/63 59/59/59
f 59/59/59 63/63/63 58/58/58
f 63/63/63 64/64/64 58/58/58
f 62/62/62 60/60/60 65/65/65
f 60/60/60 66/66/66 65/65/65
f 60/60/60 57/57/57 66/66/66
f 65/65/65 66/66/66 6/6/6
f 66/66/66 67/67/67 6/6/6
f 57/57/57 68/68/68 66/66/66
f 66/66/66 68/68/68 67/67/67
f 68/68/68 69/69/69 67/67/67
f 61/61/61 20/20/20 33/33/33
f 22/22/22 20/20/20 61/61/61
f 62/62/62 22/22/22 61/61/61
f 13/13/13 22/22/22 62/62/62
f 65/65/65 13/13/13 62/62/62
f 11/11/11 13/13/13 65/65/65
f 6/6/6 11/11/11 65/65/65
