g Hat_Tall
v -0.1987143 1.058739 0.1544201
v -0.2191287 1.640772 -0.01750034
v -0.1156312 1.663832 0.04335575
v -0.1011758 1.079808 0.2014454
v 0 1.671042 0.06439918
v 0 1.088075 0.2198958
v -0.25745 1.014387 0.0554269
v -0.276449 1.59532 -0.1383445
v -0.2922964 0.9649438 -0.05479099
v -0.3008246 1.546697 -0.2628461
v -0.2825259 0.914502 -0.1675139
v -0.2865648 1.494768 -0.3900225
v -0.2266607 0.8658788 -0.2760397
v -0.2306105 1.443034 -0.501249
v -0.1134872 0.8435485 -0.3258801
v -0.1197772 1.415848 -0.5534571
v 0 0.834514 -0.3460452
v 0 1.405467 -0.576957
v 0.1011758 1.079808 0.2014454
v 0.1156312 1.663832 0.04335575
v 0.1987143 1.058739 0.1544201
v 0.2191287 1.640772 -0.01750034
v 0.25745 1.014387 0.0554269
v 0.276449 1.59532 -0.1383445
v 0.2922964 0.9649438 -0.05479099
v 0.3008246 1.546697 -0.2628461
v 0.2825259 0.914502 -0.1675139
v 0.2865648 1.494768 -0.3900225
v 0.2266607 0.8658788 -0.2760397
v 0.2306105 1.443034 -0.501249
v 0.1134872 0.8435485 -0.3258801
v 0.1197772 1.415848 -0.5534571
v 0 0.834514 -0.3460452
v 0 1.405467 -0.576957
v -0.1787571 1.669829 -0.08553089
v -0.2264147 1.63202 -0.1860843
v -0.1143526 1.669368 -0.1731385
v -0.0920932 1.688841 -0.03335243
v 0 1.679355 -0.1621417
v 0 1.695314 -0.01531483
v -0.1206641 1.624851 -0.3019303
v -0.2452004 1.590107 -0.2932638
v 0 1.633219 -0.3045283
v -0.116217 1.566207 -0.4234329
v -0.2313461 1.546329 -0.3994174
v 0 1.56824 -0.4339997
v -0.09410293 1.48341 -0.5291613
v -0.1846243 1.505552 -0.484749
v 0 1.474725 -0.5491604
v -0.2191287 1.640772 -0.01750034
v -0.1156312 1.663832 0.04335575
v 0 1.671042 0.06439918
v -0.2865648 1.494768 -0.3900225
v -0.3008246 1.546697 -0.2628461
v -0.276449 1.59532 -0.1383445
v -0.1197772 1.415848 -0.5534571
v -0.2306105 1.443034 -0.501249
v 0 1.405467 -0.576957
v 0.116217 1.566207 -0.4234329
v 0.1206641 1.624851 -0.3019303
v 0.2452004 1.590107 -0.2932638
v 0.2264147 1.63202 -0.1860843
v 0.1143526 1.669368 -0.1731385
v 0.1787571 1.669829 -0.08553089
v 0.0920932 1.688841 -0.03335243
v 0.2313461 1.546329 -0.3994174
v 0.09410293 1.48341 -0.5291613
v 0.1846243 1.505552 -0.484749
v 0.2191287 1.640772 -0.01750034
v 0.1156312 1.663832 0.04335575
v 0.276449 1.59532 -0.1383445
v 0.3008246 1.546697 -0.2628461
v 0.2865648 1.494768 -0.3900225
v 0.1197772 1.415848 -0.5534571
v 0.2306105 1.443034 -0.501249
v -0.2266607 0.8658788 -0.2760397
v -0.2825259 0.914502 -0.1675139
v -0.1413269 0.9023722 -0.1945872
v -0.1134872 0.8435485 -0.3258801
v 0 0.8975393 -0.2053743
v 0 0.834514 -0.3460452
v -0.1468624 0.9649438 -0.05479099
v -0.2922964 0.9649438 -0.05479099
v 0 0.9649438 -0.05479099
v -0.1293451 1.024551 0.07811291
v -0.25745 1.014387 0.0554269
v 0 1.029116 0.08830208
v -0.1011758 1.079808 0.2014454
v -0.1987143 1.058739 0.1544201
v 0 1.088075 0.2198958
v 0.1134872 0.8435485 -0.3258801
v 0.1413269 0.9023722 -0.1945872
v 0.2266607 0.8658788 -0.2760397
v 0.2825259 0.914502 -0.1675139
v 0.1468624 0.9649438 -0.05479099
v 0.2922964 0.9649438 -0.05479099
v 0.1293451 1.024551 0.07811291
v 0.25745 1.014387 0.0554269
v 0.1011758 1.079808 0.2014454
v 0.1987143 1.058739 0.1544201
vt 0.2634037 0.2404652
vt 0.2634037 0.4373596
vt 0.3027761 0.4371567
vt 0.3033395 0.240465
vt 0.3384997 0.4362745
vt 0.3385656 0.2403172
vt 0.2222199 0.2404652
vt 0.2222199 0.4373596
vt 0.1802896 0.2404649
vt 0.1802896 0.4373596
vt 0.1389977 0.240465
vt 0.1389977 0.4373596
vt 0.09521542 0.2404652
vt 0.09521542 0.4373596
vt 0.05334271 0.2404652
vt 0.05334271 0.4373596
vt 0.01481737 0.2404652
vt 0.01481737 0.4373596
vt 0.3736007 0.240465
vt 0.3741639 0.4371567
vt 0.4135366 0.2404652
vt 0.4135366 0.4373596
vt 0.45472 0.2404652
vt 0.45472 0.4373596
vt 0.4966504 0.2404649
vt 0.4966504 0.4373596
vt 0.5379422 0.240465
vt 0.5379422 0.4373596
vt 0.5817243 0.2404652
vt 0.5817243 0.4373596
vt 0.6235974 0.2404652
vt 0.6235974 0.4373596
vt 0.6621225 0.2404652
vt 0.6621225 0.4373596
vt 0.2837082 0.4736736
vt 0.2717962 0.5077655
vt 0.305279 0.4991539
vt 0.3090513 0.4560618
vt 0.338425 0.4946648
vt 0.338425 0.4499867
vt 0.305069 0.5423115
vt 0.2678637 0.5443135
vt 0.338425 0.5419774
vt 0.305772 0.5851909
vt 0.2715991 0.5808064
vt 0.338425 0.5879927
vt 0.3107681 0.6266328
vt 0.2835936 0.6108676
vt 0.338425 0.6335647
vt 0.2695194 0.4577114
vt 0.3027761 0.4371567
vt 0.3384997 0.4362745
vt 0.2496502 0.5847837
vt 0.2458254 0.5411309
vt 0.2507089 0.4986844
vt 0.3030097 0.6442741
vt 0.2683934 0.6237828
vt 0.3384698 0.6524424
vt 0.3711679 0.5851909
vt 0.371871 0.5423115
vt 0.4090762 0.5443135
vt 0.4051435 0.5077655
vt 0.371661 0.4991539
vt 0.3932318 0.4736736
vt 0.3678888 0.4560618
vt 0.4053409 0.5808064
vt 0.3661717 0.6266328
vt 0.3933464 0.6108676
vt 0.4074207 0.4577114
vt 0.3741639 0.4371567
vt 0.4262311 0.4986844
vt 0.4311146 0.5411309
vt 0.4272898 0.5847837
vt 0.3739304 0.6442741
vt 0.4085468 0.6237828
vt 0.04968384 0.8118035
vt 0.03199688 0.8412405
vt 0.06987052 0.8372955
vt 0.08079076 0.7985917
vt 0.1091391 0.8351289
vt 0.1089887 0.7917204
vt 0.06286874 0.8841695
vt 0.01990601 0.8834148
vt 0.1091391 0.8841695
vt 0.06831615 0.9294652
vt 0.02847937 0.9217346
vt 0.1091391 0.9329373
vt 0.07707568 0.9714909
vt 0.04674433 0.955467
vt 0.1091554 0.9780356
vt 0.1402047 0.7970831
vt 0.1481076 0.8365414
vt 0.1678547 0.8125579
vt 0.1874899 0.8412405
vt 0.1551093 0.8841695
vt 0.200335 0.8841695
vt 0.1526794 0.9287105
vt 0.1955334 0.9179626
vt 0.1439195 0.9707366
vt 0.1772683 0.9539583
vn -0.7510825 0.1642736 0.6394445
vn -0.7385008 0.1681513 0.6529486
vn -0.3524895 0.2403462 0.9044251
vn -0.3564096 0.239954 0.9029918
vn 0 0.2572612 0.9663419
vn 0 0.2572612 0.9663419
vn -0.9428765 0.07874972 0.3237013
vn -0.9401175 0.08058792 0.331187
vn -0.9979928 0.003952128 0.06320552
vn -0.9972257 0.007343546 0.07407395
vn -0.9637065 -0.103143 -0.2462344
vn -0.966534 -0.09946688 -0.2364707
vn -0.7207104 -0.2575118 -0.6436336
vn -0.7351923 -0.2518603 -0.6293319
vn -0.3302174 -0.3509828 -0.8762235
vn -0.335013 -0.3503037 -0.8746734
vn 0 -0.373192 -0.9277541
vn 0 -0.373192 -0.9277541
vn 0.3564096 0.239954 0.9029919
vn 0.3524895 0.2403462 0.9044251
vn 0.7510825 0.1642736 0.6394445
vn 0.7385007 0.1681513 0.6529486
vn 0.9428765 0.07874972 0.3237013
vn 0.9401175 0.08058792 0.331187
vn 0.9979928 0.003952133 0.0632055
vn 0.9972257 0.007343549 0.07407393
vn 0.9637065 -0.103143 -0.2462344
vn 0.966534 -0.09946688 -0.2364707
vn 0.7207103 -0.2575118 -0.6436337
vn 0.7351922 -0.2518604 -0.6293319
vn 0.3302174 -0.3509828 -0.8762235
vn 0.335013 -0.3503036 -0.8746734
vn 0 -0.373192 -0.9277541
vn 0 -0.373192 -0.9277541
vn -0.3726264 0.9274362 -0.03180944
vn -0.4401388 0.8762228 -0.196243
vn -0.1475296 0.9601712 -0.2372894
vn -0.161373 0.986174 0.03767857
vn 0 0.9760984 -0.2173291
vn 0 0.9984632 0.05541998
vn -0.1625386 0.9141644 -0.3713282
vn -0.4497562 0.8300587 -0.3297301
vn 0 0.9251996 -0.379481
vn -0.1392812 0.848569 -0.5104228
vn -0.4285037 0.7670113 -0.4775755
vn 0 0.8435697 -0.5370197
vn -0.1562786 0.6420479 -0.7505674
vn -0.3391652 0.6569096 -0.6733772
vn 0 0.6337082 -0.7735721
vn -0.4585554 0.8824852 0.1046273
vn -0.224067 0.9438348 0.2428371
vn 0 0.9586816 0.2844814
vn -0.643797 0.6118787 -0.4594886
vn -0.6768166 0.6937947 -0.246106
vn -0.6319171 0.7712513 -0.07649968
vn -0.2348001 0.4086861 -0.881955
vn -0.4627659 0.5111772 -0.7242552
vn 0 0.3809437 -0.9245982
vn 0.1392812 0.8485691 -0.5104226
vn 0.1625386 0.9141645 -0.3713281
vn 0.4497562 0.8300588 -0.3297299
vn 0.4401388 0.8762228 -0.1962431
vn 0.1475296 0.9601712 -0.2372894
vn 0.3726264 0.9274362 -0.0318092
vn 0.161373 0.986174 0.03767847
vn 0.4285037 0.7670115 -0.4775751
vn 0.1562785 0.6420478 -0.7505676
vn 0.3391651 0.6569095 -0.6733772
vn 0.4585554 0.8824852 0.1046275
vn 0.224067 0.9438348 0.2428371
vn 0.6319171 0.7712514 -0.07649937
vn 0.6768166 0.6937945 -0.2461065
vn 0.6437971 0.6118788 -0.4594885
vn 0.2347999 0.408686 -0.8819551
vn 0.4627658 0.5111771 -0.7242554
vn 1.5312E-07 -0.9125916 0.4088723
vn -3.073834E-05 -0.9127135 0.4086003
vn -1.40665E-05 -0.9126762 0.4086837
vn 1.601188E-07 -0.9125918 0.4088721
vn 0 -0.9126677 0.4087024
vn 0 -0.9125918 0.4088721
vn -2.740581E-05 -0.9125953 0.4088641
vn -4.085929E-05 -0.9126082 0.4088353
vn 0 -0.9125949 0.408865
vn -1.377994E-05 -0.9124987 0.4090795
vn -3.003843E-05 -0.9124551 0.4091766
vn 0 -0.9125091 0.4090563
vn 0 -0.9125919 0.4088716
vn 3.157029E-07 -0.9125916 0.4088721
vn 0 -0.9125921 0.4088714
vn -1.453687E-07 -0.9125918 0.4088721
vn 1.40728E-05 -0.9126762 0.4086835
vn -1.531201E-07 -0.9125918 0.4088718
vn 3.074536E-05 -0.9127136 0.4086
vn 2.740808E-05 -0.9125954 0.4088639
vn 4.086446E-05 -0.9126082 0.4088352
vn 1.378848E-05 -0.9124987 0.4090795
vn 3.004332E-05 -0.9124551 0.4091766
vn 0 -0.9125919 0.4088716
vn -2.920251E-07 -0.9125916 0.4088721
g Hat_Tall_0
f 3/3/3 2/2/2 1/1/1
f 4/4/4 3/3/3 1/1/1
f 5/5/5 3/3/3 4/4/4
f 6/6/6 5/5/5 4/4/4
f 1/1/1 2/2/2 7/7/7
f 2/2/2 8/8/8 7/7/7
f 7/7/7 8/8/8 9/9/9
f 8/8/8 10/10/10 9/9/9
f 9/9/9 10/10/10 11/11/11
f 10/10/10 12/12/12 11/11/11
f 11/11/11 12/12/12 13/13/13
f 12/12/12 14/14/14 13/13/13
f 15/15/15 13/13/13 14/14/14
f 16/16/16 15/15/15 14/14/14
f 17/17/17 15/15/15 16/16/16
f 18/18/18 17/17/17 16/16/16
f 5/5/5 6/6/6 19/19/19
f 20/20/20 5/5/5 19/19/19
f 20/20/20 19/19/19 21/21/21
f 22/22/22 20/20/20 21/21/21
f 22/22/22 21/21/21 23/23/23
f 24/24/24 22/22/22 23/23/23
f 24/24/24 23/23/23 25/25/25
f 26/26/26 24/24/24 25/25/25
f 26/26/26 25/25/25 27/27/27
f 28/28/28 26/26/26 27/27/27
f 28/28/28 27/27/27 29/29/29
f 30/30/30 28/28/28 29/29/29
f 29/29/29 31/31/31 30/30/30
f 31/31/31 32/32/32 30/30/30
f 31/31/31 33/33/33 32/32/32
f 33/33/33 34/34/34 32/32/32
f 37/37/37 36/36/36 35/35/35
f 38/38/38 37/37/37 35/35/35
f 39/39/39 37/37/37 38/38/38
f 40/40/40 39/39/39 38/38/38
f 37/37/37 41/41/41 36/36/36
f 41/41/41 42/42/42 36/36/36
f 43/43/43 41/41/41 37/37/37
f 39/39/39 43/43/43 37/37/37
f 41/41/41 44/44/44 42/42/42
f 44/44/44 45/45/45 42/42/42
f 46/46/46 44/44/44 41/41/41
f 43/43/43 46/46/46 41/41/41
f 44/44/44 47/47/47 45/45/45
f 47/47/47 48/48/48 45/45/45
f 49/49/49 47/47/47 44/44/44
f 46/46/46 49/49/49 44/44/44
f 38/38/38 35/35/35 50/50/50
f 51/51/51 38/38/38 50/50/50
f 40/40/40 38/38/38 51/51/51
f 52/52/52 40/40/40 51/51/51
f 42/42/42 45/45/45 53/53/53
f 54/54/54 42/42/42 53/53/53
f 36/36/36 42/42/42 54/54/54
f 55/55/55 36/36/36 54/54/54
f 35/35/35 36/36/36 55/55/55
f 50/50/50 35/35/35 55/55/55
f 48/48/48 47/47/47 56/56/56
f 57/57/57 48/48/48 56/56/56
f 45/45/45 48/48/48 57/57/57
f 53/53/53 45/45/45 57/57/57
f 47/47/47 49/49/49 58/58/58
f 56/56/56 47/47/47 58/58/58
f 49/49/49 46/46/46 59/59/59
f 59/59/59 46/46/46 60/60/60
f 59/59/59 60/60/60 61/61/61
f 61/61/61 60/60/60 62/62/62
f 60/60/60 63/63/63 62/62/62
f 62/62/62 63/63/63 64/64/64
f 63/63/63 65/65/65 64/64/64
f 63/63/63 39/39/39 65/65/65
f 39/39/39 40/40/40 65/65/65
f 43/43/43 39/39/39 63/63/63
f 60/60/60 43/43/43 63/63/63
f 46/46/46 43/43/43 60/60/60
f 66/66/66 59/59/59 61/61/61
f 67/67/67 59/59/59 66/66/66
f 68/68/68 67/67/67 66/66/66
f 67/67/67 49/49/49 59/59/59
f 49/49/49 67/67/67 58/58/58
f 64/64/64 65/65/65 69/69/69
f 65/65/65 70/70/70 69/69/69
f 65/65/65 40/40/40 70/70/70
f 64/64/64 69/69/69 71/71/71
f 62/62/62 64/64/64 71/71/71
f 40/40/40 52/52/52 70/70/70
f 62/62/62 71/71/71 72/72/72
f 61/61/61 62/62/62 72/72/72
f 61/61/61 72/72/72 73/73/73
f 66/66/66 61/61/61 73/73/73
f 67/67/67 68/68/68 74/74/74
f 68/68/68 75/75/75 74/74/74
f 66/66/66 73/73/73 75/75/75
f 68/68/68 66/66/66 75/75/75
f 67/67/67 74/74/74 58/58/58
f 78/78/78 77/77/77 76/76/76
f 79/79/79 78/78/78 76/76/76
f 80/80/80 78/78/78 79/79/79
f 81/81/81 80/80/80 79/79/79
f 78/78/78 82/82/82 77/77/77
f 82/82/82 83/83/83 77/77/77
f 84/84/84 82/82/82 78/78/78
f 80/80/80 84/84/84 78/78/78
f 82/82/82 85/85/85 83/83/83
f 85/85/85 86/86/86 83/83/83
f 87/87/87 85/85/85 82/82/82
f 84/84/84 87/87/87 82/82/82
f 85/85/85 88/88/88 86/86/86
f 88/88/88 89/89/89 86/86/86
f 90/90/90 88/88/88 85/85/85
f 87/87/87 90/90/90 85/85/85
f 80/80/80 81/81/81 91/91/91
f 92/92/92 80/80/80 91/91/91
f 84/84/84 80/80/80 92/92/92
f 92/92/92 91/91/91 93/93/93
f 94/94/94 92/92/92 93/93/93
f 95/95/95 92/92/92 94/94/94
f 95/95/95 84/84/84 92/92/92
f 87/87/87 84/84/84 95/95/95
f 96/96/96 95/95/95 94/94/94
f 97/97/97 95/95/95 96/96/96
f 97/97/97 87/87/87 95/95/95
f 90/90/90 87/87/87 97/97/97
f 98/98/98 97/97/97 96/96/96
f 99/99/99 97/97/97 98/98/98
f 99/99/99 90/90/90 97/97/97
f 100/100/100 99/99/99 98/98/98
