g HellPlatform1:HellPlatform
v -44.2503 -2.620892 -73.80083
v -23.43682 -2.620892 -83.62931
v -25.82576 18.71513 -91.53143
v -47.39782 18.71513 -81.70295
v -70.17915 -2.620892 -71.3438
v -74.1909 25.40185 -76.32536
v -87.327 -2.620892 -54.56906
v -89.60303 29.95979 -56.09399
v -80.25981 -2.620892 -27.15591
v -85.04372 29.95979 -30.00327
v -1.403107 25.40185 -89.09305
v -1.403107 -2.620892 -86.2541
v -69.7286 57.06551 -73.48193
v -83.40486 57.06551 -49.79387
v 39.92014 -2.535419 -70.85545
v 66.60726 -2.620892 -66.36215
v 69.69833 29.00076 -71.51617
v 42.63192 28.86374 -76.66647
v 84.18977 29.00076 -51.45709
v 81.91375 -2.620892 -49.93224
v 90.81752 19.37912 -28.27519
v 89.33153 -2.620892 -28.97847
v 80.71125 56.68926 -49.79387
v 60.96437 56.68925 -70.86002
v 93.76807 -2.620892 0.09552002
v 105.7234 -2.620892 26.5063
v 108.3787 25.40185 26.95238
v 95.3844 19.37912 1.652542
v 96.58072 25.40185 61.75006
v 94.30484 -2.620892 60.647
v 65.81167 25.40185 77.53448
v 64.20151 -2.620892 76.0249
v 43.76284 24.40974 78.54269
v 46.6065 -2.620892 82.21634
v 54.59696 73.81191 64.86154
v 78.33249 86.53492 49.91711
v 92.00875 80.94264 26.22897
v 46.6065 -2.620892 82.21634
v 24.59639 -2.620892 88.84024
v 20.9323 24.40974 85.58838
v 43.76284 24.40974 78.54269
v 23.49153 52.04659 111.2419
v 53.35856 52.04659 96.46826
v 23.49153 119.4138 111.2419
v -1.296524 52.04659 96.03568
v -1.296524 119.4138 96.03568
v 53.62537 119.4138 102.5408
v 54.59696 119.4138 64.86154
v 54.59696 73.81191 64.86154
v 78.5993 119.4138 50.20613
v 78.33249 86.53492 49.91711
v 92.27556 119.4138 26.51807
v 92.00875 80.94264 26.22897
v 105.8013 78.69133 1.856827
v 106.0681 119.4138 1.56781
v 103.6337 119.4138 -33.48816
v 103.3669 52.04659 -33.19914
v 80.97806 119.4138 -50.08296
v 80.71125 56.68926 -49.79387
v 90.81752 19.37912 -28.27519
v 95.3844 19.37912 1.652542
v 89.33153 -2.620892 -28.97847
v 93.76807 -2.620892 0.09552002
v 43.76284 24.40974 78.54269
v -43.08236 -2.620892 78.94205
v -55.06871 -2.620892 63.41452
v -56.7162 25.40185 64.97797
v -44.59966 19.65107 81.35919
v -58.37048 78.69133 66.51184
v -53.67342 75.81593 97.2933
v -58.37048 119.4138 66.51184
v -55.93603 119.4138 101.5678
v -81.00513 -2.620892 8.697205
v -80.25981 -2.620892 -27.15591
v -85.04372 29.95979 -30.00327
v -85.88188 25.40185 6.757416
v -89.27095 -2.620892 25.37762
v -91.92627 37.00122 25.82378
v -76.25037 -2.609032 47.5641
v -78.52641 40.28657 48.66727
v -55.06871 -2.620892 63.41452
v -56.7162 25.40185 64.97797
v -89.70454 63.55928 23.99327
v -81.0261 71.40151 49.91702
v -81.0261 119.4138 49.91702
v -89.70454 119.4138 23.99327
v -58.37048 119.4138 66.51184
v -58.37048 78.69133 66.51184
v -1.296524 119.4138 96.03568
v -29.58841 119.4138 88.19565
v -3.683771 119.4138 -0.6459351
v -55.93603 119.4138 101.5678
v -58.37048 119.4138 66.51184
v -81.0261 119.4138 49.91702
v -89.70454 119.4138 23.99327
v -108.3788 119.4138 2.540833
v -107.4072 119.4138 -35.13846
v -83.40486 119.4138 -49.79387
v -69.7286 119.4138 -73.48193
v -55.93603 119.4138 -98.43218
v 23.49153 119.4138 111.2419
v 53.62537 119.4138 102.5408
v 54.59696 119.4138 64.86154
v 78.5993 119.4138 50.20613
v 92.27556 119.4138 26.51807
v 106.0681 119.4138 1.56781
v 103.6337 119.4138 -33.48816
v 80.97806 119.4138 -50.08296
v 72.29962 119.4138 -76.00674
v 53.62537 119.4138 -97.45917
v 23.49153 119.4138 -88.7581
v -1.296524 119.4138 -103.9643
v -29.58841 119.4138 -111.8044
v 27.15485 25.40185 -94.40871
v -1.403107 25.40185 -89.09305
v -1.403107 -2.620892 -86.2541
v 25.26365 -2.620892 -89.01939
v 42.63192 28.86374 -76.66647
v 39.92014 -2.535419 -70.85545
v 23.77303 46.06688 -81.96385
v -28.82983 25.40187 85.77847
v -3.50423 25.40185 106.5428
v -3.50423 -2.620892 104.1257
v -28.0711 -2.620892 83.3613
v -1.296524 52.04659 96.03568
v -44.59966 19.65107 81.35919
v -28.82983 25.40187 85.77847
v -28.0711 -2.620892 83.3613
v -43.08236 -2.620892 78.94205
v -53.67342 75.81593 97.2933
v -53.67342 75.81593 97.2933
v -29.58841 73.04158 88.19565
v -29.58841 119.4138 88.19565
v -55.93603 119.4138 101.5678
v -3.50423 25.40185 106.5428
v 20.9323 24.40974 85.58838
v 24.59639 -2.620892 88.84024
v -3.50423 -2.620892 104.1257
v -1.296524 52.04659 96.03568
v -69.7286 119.4138 -73.48193
v -69.7286 57.06551 -73.48193
v -55.93603 52.04659 -97.85407
v -55.93603 119.4138 -98.43218
v -83.40486 119.4138 -49.79387
v -83.40486 57.06551 -49.79387
v -29.58841 119.4138 -111.8044
v -28.99611 42.11449 -103.5649
v -47.39782 18.71513 -81.70295
v -25.82576 18.71513 -91.53143
v -1.346808 46.06688 -97.17007
v -1.403107 25.40185 -89.09305
v -1.296524 119.4138 -103.9643
v -107.4072 119.4138 -35.13846
v -107.4072 57.06551 -35.13846
v -83.40486 57.06551 -49.79387
v -83.40486 119.4138 -49.79387
v -108.3788 57.75959 2.540833
v -108.3788 119.4138 2.540833
v -89.70454 119.4138 23.99327
v -89.70454 63.55928 23.99327
v -85.88188 25.40185 6.757416
v -85.04372 29.95979 -30.00327
v -1.296524 119.4138 96.03568
v -1.296524 52.04659 96.03568
v -29.58841 73.04158 88.19565
v -29.58841 119.4138 88.19565
v -28.82983 25.40187 85.77847
v 72.29962 119.4138 -76.00674
v 60.96437 56.68925 -70.86002
v 80.71125 56.68926 -49.79387
v 80.97806 119.4138 -50.08296
v 53.35856 52.04659 -97.17015
v 60.96437 56.68925 -70.86002
v 72.29962 119.4138 -76.00674
v 42.63192 28.86374 -76.66647
v 53.35856 52.04659 -97.17015
v 53.62537 119.4138 -97.45917
v 23.49153 119.4138 -88.7581
v 23.77303 46.06688 -81.96385
v 53.35856 52.04659 -97.17015
v 53.62537 119.4138 -97.45917
v 42.63192 28.86374 -76.66647
v -1.296524 119.4138 -103.9643
v -1.346808 46.06688 -97.17007
v 23.77303 46.06688 -81.96385
v 23.49153 119.4138 -88.7581
v -1.403107 25.40185 -89.09305
vt 0.09747124 0.01577662
vt 0.05607802 0.01577662
vt 0.05635196 0.05005039
vt 0.09523129 0.05005039
vt 0.1342378 0.01577662
vt 0.1333148 0.06079178
vt 0.1707038 0.01577662
vt 0.170576 0.06811357
vt 0.2067266 0.01577662
vt 0.2047248 0.06811357
vt 0.01614159 0.06079178
vt 0.01622188 0.01577662
vt 0.1314502 0.1116556
vt 0.1738513 0.1116556
vt 0.9086419 0.01591394
vt 0.8661188 0.01577662
vt 0.8684011 0.06657298
vt 0.9095079 0.0663529
vt 0.8296798 0.06657298
vt 0.8294954 0.01577662
vt 0.7914031 0.051117
vt 0.7932417 0.01577662
vt 0.8303258 0.1110512
vt 0.8780257 0.1110512
vt 0.7444316 0.01577662
vt 0.7064893 0.01577662
vt 0.7067852 0.06079178
vt 0.7419027 0.051117
vt 0.6563594 0.06079178
vt 0.6559492 0.01577662
vt 0.6101187 0.06079178
vt 0.609728 0.01577662
vt 0.5798033 0.05919808
vt 0.5809456 0.01577662
vt 0.6094471 0.1500114
vt 0.6565926 0.1589947
vt 0.7015177 0.1500114
vt 0.5809456 0.01577662
vt 0.5428513 0.01577662
vt 0.5381619 0.05919808
vt 0.5798033 0.05919808
vt 0.5332385 0.1035934
vt 0.5793214 0.1035934
vt 0.5332385 0.2129067
vt 0.4988656 0.1035934
vt 0.4988656 0.2129067
vt 0.5755567 0.2129067
vt 0.6094471 0.2129067
vt 0.6094471 0.1500114
vt 0.6565926 0.2129067
vt 0.6565926 0.1589947
vt 0.7015177 0.2129067
vt 0.7015177 0.1500114
vt 0.7418678 0.1463948
vt 0.7418678 0.2129067
vt 0.7927901 0.2129067
vt 0.7927901 0.1035934
vt 0.8303258 0.2129067
vt 0.8303258 0.1110512
vt 0.7914031 0.051117
vt 0.7419027 0.051117
vt 0.7932417 0.01577662
vt 0.7444316 0.01577662
vt 0.5798033 0.05919808
vt 0.423476 0.01577662
vt 0.3900513 0.01577662
vt 0.3896579 0.06079178
vt 0.4231852 0.05155385
vt 0.3892413 0.1463948
vt 0.4227703 0.1417759
vt 0.3892413 0.2129067
vt 0.4228822 0.2129067
vt 0.273918 0.01577662
vt 0.2067266 0.01577662
vt 0.2047248 0.06811357
vt 0.2695078 0.06079178
vt 0.3002872 0.01577662
vt 0.2998049 0.07942478
vt 0.3438326 0.01579569
vt 0.3433818 0.08470231
vt 0.3900513 0.01577662
vt 0.3896579 0.06079178
vt 0.2978649 0.1220871
vt 0.3429668 0.1346847
vt 0.3429668 0.2129067
vt 0.2978649 0.2129067
vt 0.3892413 0.2129067
vt 0.3892413 0.1463948
vt 0.4813247 0.5723847
vt 0.4301229 0.5865734
vt 0.4770044 0.7473564
vt 0.3824397 0.5623729
vt 0.3780339 0.6258162
vt 0.3370324 0.655849
vt 0.3213264 0.702765
vt 0.2875303 0.7415891
vt 0.2892886 0.80978
vt 0.3327274 0.836303
vt 0.3574783 0.8791729
vt 0.3824397 0.923281
vt 0.5261855 0.544865
vt 0.580238 0.5611351
vt 0.5819963 0.6293259
vt 0.6254351 0.6558488
vt 0.650186 0.698719
vt 0.6751474 0.742827
vt 0.6707416 0.8062703
vt 0.6297401 0.836303
vt 0.5940027 0.8744279
vt 0.580238 0.9220432
vt 0.5261855 0.9058011
vt 0.4813247 0.9333211
vt 0.4301229 0.9475096
vt 0.9447808 0.06079178
vt 0.9906622 0.06079178
vt 0.9907425 0.01577662
vt 0.9453303 0.01577662
vt 0.9095079 0.0663529
vt 0.9086419 0.01591394
vt 0.9444356 0.09398764
vt 0.4506706 0.06079182
vt 0.49586 0.06079178
vt 0.4957418 0.01577662
vt 0.4505809 0.01577662
vt 0.4988656 0.1035934
vt 0.4231852 0.05155385
vt 0.4506706 0.06079182
vt 0.4505809 0.01577662
vt 0.423476 0.01577662
vt 0.4227703 0.1417759
vt 0.4227703 0.1417759
vt 0.4507557 0.1373192
vt 0.4507557 0.2129067
vt 0.4228822 0.2129067
vt 0.49586 0.06079178
vt 0.5381619 0.05919808
vt 0.5428513 0.01577662
vt 0.4957418 0.01577662
vt 0.4988656 0.1035934
vt 0.1314502 0.2129067
vt 0.1314502 0.1116556
vt 0.09424174 0.1035934
vt 0.09424174 0.2129067
vt 0.1738513 0.2129067
vt 0.1738513 0.1116556
vt 0.05401927 0.2129067
vt 0.05603981 0.08763865
vt 0.09523129 0.05005039
vt 0.05635196 0.05005039
vt 0.01584864 0.09398764
vt 0.01614159 0.06079178
vt 0.01564366 0.2129067
vt 0.2082902 0.2129067
vt 0.2082902 0.1116556
vt 0.1738513 0.1116556
vt 0.1738513 0.2129067
vt 0.2609646 0.1127706
vt 0.2609646 0.2129067
vt 0.2978649 0.2129067
vt 0.2978649 0.1220871
vt 0.2695078 0.06079178
vt 0.2047248 0.06811357
vt 0.4988656 0.2129067
vt 0.4988656 0.1035934
vt 0.4507557 0.1373192
vt 0.4507557 0.2129067
vt 0.4506706 0.06079182
vt 0.8780257 0.2129067
vt 0.8780257 0.1110512
vt 0.8303258 0.1110512
vt 0.8303258 0.2129067
vt 0.910333 0.1035934
vt 0.8780257 0.1110512
vt 0.8780257 0.2129067
vt 0.9095079 0.0663529
vt 0.910333 0.1035934
vt 0.910333 0.2129067
vt 0.9478451 0.2129067
vt 0.9444356 0.09398764
vt 0.910333 0.1035934
vt 0.910333 0.2129067
vt 0.9095079 0.0663529
vt 0.9901643 0.2129067
vt 0.9903694 0.09398764
vt 0.9444356 0.09398764
vt 0.9478451 0.2129067
vt 0.9906622 0.06079178
vn -0.2761309 -0.3166043 -0.9074764
vn -0.1765322 -0.2915216 -0.9401338
vn -0.1664458 -0.2878 -0.9431157
vn -0.2539429 -0.2537857 -0.9333305
vn -0.4989505 -0.2205442 -0.8380983
vn -0.5823679 -0.0194613 -0.8126924
vn -0.9725126 -0.1296117 -0.1934423
vn -0.9586232 0.03536126 -0.2824734
vn -0.9731181 -0.09124401 0.2114607
vn -0.9780205 -0.03975977 0.2046825
vn -0.09046359 -0.0916217 -0.9916762
vn -0.07038132 -0.1709362 -0.9827651
vn -0.7118689 0.2185502 -0.6674418
vn -0.8769811 0.2318351 -0.4209
vn 0.1737307 -0.1843141 -0.9673913
vn 0.4756563 -0.1702546 -0.8629974
vn 0.5515643 -0.0250404 -0.8337564
vn 0.1772811 -0.1301018 -0.9755229
vn 0.8592097 0.02946346 -0.5107746
vn 0.8630031 -0.1057665 -0.494003
vn 0.9522522 -0.03960046 -0.3027331
vn 0.9459012 -0.07121301 -0.3165435
vn 0.7941791 0.1869056 -0.5782264
vn 0.6413848 0.1727133 -0.7475264
vn 0.9017431 -0.05986092 -0.4281074
vn 0.9963992 -0.08445008 0.007542351
vn 0.9836848 0.1626565 0.07685747
vn 0.8871451 0.06078195 -0.4574704
vn 0.7415474 0.1795526 0.6464275
vn 0.7591671 -0.08905135 0.6447754
vn 0.3530439 0.1745802 0.9191745
vn 0.3545946 -0.02985932 0.9345431
vn 0.1110867 0.1448619 0.9831961
vn 0.1774898 0.04262482 0.9831992
vn 0.3910131 0.3019335 0.8694509
vn 0.7061417 0.3215439 0.6308514
vn 0.9083351 0.3046375 0.2865717
vn 0.2880422 0.1557164 0.9448724
vn 0.2880422 0.1557164 0.9448724
vn 0.2247771 -0.4292863 0.8747506
vn 0.4863992 -0.3843304 0.7846693
vn -0.02845996 -0.1836926 0.9825716
vn 0.7382275 -0.2161681 0.6389769
vn -0.06316735 -0.02504548 0.9976887
vn -0.5202824 -0.09994259 0.848126
vn -0.5229004 0 0.8523937
vn 0.7856889 -0.02976179 0.6179055
vn 0.9323962 -0.004858756 0.3614053
vn 0.9783856 -0.02510936 0.2052589
vn 0.7073929 -0.007786658 0.7067776
vn 0.6970395 -0.007615928 0.7169922
vn 0.8654396 -0.01053081 0.5009027
vn 0.8654396 -0.01053081 0.5009027
vn 0.9872097 -0.07025166 0.1431148
vn 0.9897588 -0.005724608 0.1426347
vn 0.8803192 -0.006221476 -0.4743409
vn 0.9147741 -0.1413649 -0.3784235
vn 0.5905036 -0.006008442 -0.8070126
vn 0.5844625 -0.04617539 -0.8101059
vn 0.9708868 -0.2091264 -0.1168113
vn 0.9814585 -0.1915746 0.006192976
vn 0.9866651 -0.0618329 -0.1505611
vn 0.9866651 -0.0618329 -0.1505611
vn 0.4863992 -0.3843304 0.7846693
vn -0.802507 -0.09708961 0.58869
vn -0.802507 -0.09708961 0.58869
vn -0.9197637 -0.1335873 0.369038
vn -0.9072183 -0.1291118 0.4003561
vn -0.9751686 -0.08486882 0.2045572
vn -0.97518 -0.08484472 0.2045124
vn -0.9938226 -0.03205403 0.106251
vn -0.9938226 -0.03205403 0.106251
vn -0.9784158 -0.1432297 -0.1489551
vn -0.9866499 -0.1597714 -0.03154455
vn -0.9866499 -0.1597714 -0.03154455
vn -0.9769264 -0.1320343 -0.1678746
vn -0.9745131 -0.08789352 0.2063951
vn -0.9667708 -0.03952994 0.2525703
vn -0.7554277 -0.06322318 0.6521747
vn -0.7486253 -0.04798513 0.6612547
vn -0.6118169 -0.06349507 0.7884469
vn -0.6073071 -0.06054865 0.7921565
vn -0.9431307 0.002346633 0.332414
vn -0.7987003 -0.01656328 0.601501
vn -0.8195891 0 0.5729519
vn -0.9482744 0 0.3174518
vn -0.5909165 0 0.8067327
vn -0.5948549 -0.02260494 0.8035151
vn 0 1 0
vn 0 1 0
vn 0 1 0
vn 0 1 0
vn 0 1 0
vn 0 1 0
vn 0 1 0
vn 0 1 0
vn 0 1 0
vn 0 1 0
vn 0 1 0
vn 0 1 0
vn 0 1 0
vn 0 1 0
vn 0 1 0
vn 0 1 0
vn 0 1 0
vn 0 1 0
vn 0 1 0
vn 0 1 0
vn 0 1 0
vn 0 1 0
vn 0 1 0
vn 0 1 0
vn 0 1 0
vn 0.3196092 0.00222798 -0.9475468
vn -0.09046359 -0.0916217 -0.9916762
vn -0.07038132 -0.1709362 -0.9827651
vn 0.3303047 -0.1795438 -0.9266405
vn 0.7606379 -0.04726589 -0.6474534
vn 0.7624958 -0.1763956 -0.6224827
vn 0.1851093 0.5290304 -0.8281674
vn -0.6386307 0.008033943 0.7694714
vn -0.6369408 0.05752007 0.7687638
vn -0.6379556 -0.0747475 0.7664368
vn -0.6379556 -0.0747475 0.7664368
vn -0.5970289 0.3366202 0.7281781
vn -0.007485388 -0.1435158 0.9896197
vn 0.05141348 -0.1515121 0.9871174
vn -0.2564983 -0.1039726 0.9609361
vn -0.2564983 -0.1039727 0.9609361
vn 0.3047109 -0.08192988 0.9489146
vn 0.3047109 -0.08192988 0.9489146
vn 0.2691545 -0.09843419 0.9580535
vn 0.4052254 -0.03321526 0.9136132
vn 0.4052255 -0.03321527 0.9136132
vn 0.5923566 0.1079613 0.7984097
vn 0.5847124 0.08941338 0.8062981
vn 0.5677372 0.05024354 0.8216751
vn 0.5677373 0.05024354 0.8216751
vn 0.6380473 0.2361444 0.7328925
vn -0.8695906 -0.001126675 -0.4937723
vn -0.8722436 -0.03466169 -0.4878419
vn -0.6028233 -0.1303074 -0.7871621
vn -0.6326118 -0.03416472 -0.7737152
vn -0.8660262 0 -0.4999986
vn -0.8660262 0 -0.4999986
vn -0.03921569 -0.08117948 -0.9959278
vn -0.05227419 -0.2018484 -0.9780207
vn -0.4755539 -0.4744462 -0.7407761
vn -0.1140049 -0.4591652 -0.8810052
vn 0.3756693 -0.1360122 -0.9167187
vn 0.2909514 -0.3769242 -0.8793608
vn 0.3851087 -0.08782362 -0.9186829
vn -0.9018701 0 -0.4320073
vn -0.9040464 -0.1929656 -0.3813981
vn -0.5192425 -0.08483768 -0.8504056
vn -0.5211213 0 -0.8534827
vn -0.9544533 -0.2033061 0.21837
vn -0.9608608 0 0.2770317
vn -0.754258 0 0.6565782
vn -0.7440108 -0.06436738 0.66506
vn -0.8034835 -0.5903439 0.07686619
vn -0.7752034 -0.6149768 -0.1444409
vn -0.267048 0 0.9636832
vn -0.2806986 -0.01992357 0.9595891
vn -0.2726597 -0.008162187 0.9620759
vn -0.267048 0 0.9636832
vn -0.3030754 -0.05310305 0.9514859
vn 0.85125 -0.10104 -0.5149412
vn 0.85125 -0.10104 -0.5149413
vn 0.85125 -0.10104 -0.5149411
vn 0.85125 -0.10104 -0.5149413
vn 0.8874919 -0.1710622 -0.427897
vn 0.8857172 -0.1565967 -0.4370154
vn 0.8759152 -0.09785751 -0.4724368
vn 0.8396766 -0.5217693 -0.1506652
vn 0.8874919 -0.1710622 -0.427897
vn 0.8759152 -0.09785751 -0.4724367
vn -0.3672041 -0.04680041 -0.9289622
vn -0.3629656 -0.114039 -0.924798
vn -0.3649539 -0.08576016 -0.9270673
vn -0.3672041 -0.04680041 -0.9289622
vn -0.2882769 -0.5560673 -0.7795418
vn 0.3851087 -0.08782362 -0.9186829
vn 0.3756693 -0.1360122 -0.9167187
vn 0.5179138 -0.0938922 -0.8502645
vn 0.518781 -0.07804316 -0.8513375
vn 0.2909514 -0.3769242 -0.8793608
g HellPlatform1:HellPlatform_0
f 3/3/3 2/2/2 1/1/1
f 4/4/4 3/3/3 1/1/1
f 1/1/1 5/5/5 4/4/4
f 5/5/5 6/6/6 4/4/4
f 5/5/5 7/7/7 6/6/6
f 7/7/7 8/8/8 6/6/6
f 7/7/7 9/9/9 8/8/8
f 9/9/9 10/10/10 8/8/8
f 2/2/2 3/3/3 11/11/11
f 12/12/12 2/2/2 11/11/11
f 6/6/6 8/8/8 13/13/13
f 6/6/6 13/13/13 4/4/4
f 8/8/8 14/14/14 13/13/13
f 8/8/8 10/10/10 14/14/14
f 17/17/17 16/16/16 15/15/15
f 18/18/18 17/17/17 15/15/15
f 16/16/16 17/17/17 19/19/19
f 20/20/20 16/16/16 19/19/19
f 20/20/20 19/19/19 21/21/21
f 22/22/22 20/20/20 21/21/21
f 19/19/19 17/17/17 23/23/23
f 19/19/19 23/23/23 21/21/21
f 17/17/17 24/24/24 23/23/23
f 24/24/24 17/17/17 18/18/18
f 27/27/27 26/26/26 25/25/25
f 28/28/28 27/27/27 25/25/25
f 26/26/26 27/27/27 29/29/29
f 30/30/30 26/26/26 29/29/29
f 30/30/30 29/29/29 31/31/31
f 32/32/32 30/30/30 31/31/31
f 32/32/32 31/31/31 33/33/33
f 34/34/34 32/32/32 33/33/33
f 31/31/31 29/29/29 35/35/35
f 31/31/31 35/35/35 33/33/33
f 29/29/29 36/36/36 35/35/35
f 29/29/29 27/27/27 36/36/36
f 27/27/27 37/37/37 36/36/36
f 37/37/37 27/27/27 28/28/28
f 40/40/40 39/39/39 38/38/38
f 41/41/41 40/40/40 38/38/38
f 42/42/42 40/40/40 41/41/41
f 43/43/43 42/42/42 41/41/41
f 44/44/44 42/42/42 43/43/43
f 45/45/45 42/42/42 44/44/44
f 40/40/40 42/42/42 45/45/45
f 46/46/46 45/45/45 44/44/44
f 47/47/47 44/44/44 43/43/43
f 47/47/47 43/43/43 48/48/48
f 43/43/43 49/49/49 48/48/48
f 48/48/48 49/49/49 50/50/50
f 49/49/49 51/51/51 50/50/50
f 50/50/50 51/51/51 52/52/52
f 51/51/51 53/53/53 52/52/52
f 52/52/52 53/53/53 54/54/54
f 55/55/55 52/52/52 54/54/54
f 55/55/55 54/54/54 56/56/56
f 54/54/54 57/57/57 56/56/56
f 56/56/56 57/57/57 58/58/58
f 57/57/57 59/59/59 58/58/58
f 60/60/60 57/57/57 54/54/54
f 60/60/60 59/59/59 57/57/57
f 61/61/61 60/60/60 54/54/54
f 54/54/54 53/53/53 61/61/61
f 62/62/62 60/60/60 61/61/61
f 63/63/63 62/62/62 61/61/61
f 64/64/64 49/49/49 43/43/43
f 67/67/67 66/66/66 65/65/65
f 68/68/68 67/67/67 65/65/65
f 69/69/69 67/67/67 68/68/68
f 70/70/70 69/69/69 68/68/68
f 71/71/71 69/69/69 70/70/70
f 72/72/72 71/71/71 70/70/70
f 75/75/75 74/74/74 73/73/73
f 76/76/76 75/75/75 73/73/73
f 73/73/73 77/77/77 76/76/76
f 77/77/77 78/78/78 76/76/76
f 77/77/77 79/79/79 78/78/78
f 79/79/79 80/80/80 78/78/78
f 79/79/79 81/81/81 80/80/80
f 81/81/81 82/82/82 80/80/80
f 78/78/78 80/80/80 83/83/83
f 78/78/78 83/83/83 76/76/76
f 80/80/80 84/84/84 83/83/83
f 80/80/80 82/82/82 84/84/84
f 83/83/83 84/84/84 85/85/85
f 86/86/86 83/83/83 85/85/85
f 85/85/85 84/84/84 87/87/87
f 84/84/84 88/88/88 87/87/87
f 82/82/82 88/88/88 84/84/84
f 91/91/91 90/90/90 89/89/89
f 92/92/92 90/90/90 91/91/91
f 93/93/93 92/92/92 91/91/91
f 94/94/94 93/93/93 91/91/91
f 95/95/95 94/94/94 91/91/91
f 95/95/95 91/91/91 96/96/96
f 91/91/91 97/97/97 96/96/96
f 91/91/91 98/98/98 97/97/97
f 91/91/91 99/99/99 98/98/98
f 91/91/91 100/100/100 99/99/99
f 91/91/91 89/89/89 101/101/101
f 91/91/91 101/101/101 102/102/102
f 91/91/91 102/102/102 103/103/103
f 91/91/91 103/103/103 104/104/104
f 91/91/91 104/104/104 105/105/105
f 91/91/91 105/105/105 106/106/106
f 91/91/91 106/106/106 107/107/107
f 91/91/91 107/107/107 108/108/108
f 91/91/91 108/108/108 109/109/109
f 91/91/91 109/109/109 110/110/110
f 91/91/91 110/110/110 111/111/111
f 91/91/91 111/111/111 112/112/112
f 91/91/91 112/112/112 100/100/100
f 112/112/112 113/113/113 100/100/100
f 116/116/116 115/115/115 114/114/114
f 117/117/117 116/116/116 114/114/114
f 117/117/117 114/114/114 118/118/118
f 119/119/119 117/117/117 118/118/118
f 114/114/114 115/115/115 120/120/120
f 114/114/114 120/120/120 118/118/118
f 123/123/123 122/122/122 121/121/121
f 124/124/124 123/123/123 121/121/121
f 122/122/122 125/125/125 121/121/121
f 128/128/128 127/127/127 126/126/126
f 129/129/129 128/128/128 126/126/126
f 126/126/126 127/127/127 130/130/130
f 127/127/127 132/132/132 131/131/131
f 131/131/131 132/132/132 133/133/133
f 134/134/134 131/131/131 133/133/133
f 137/137/137 136/136/136 135/135/135
f 138/138/138 137/137/137 135/135/135
f 135/135/135 136/136/136 139/139/139
f 142/142/142 141/141/141 140/140/140
f 143/143/143 142/142/142 140/140/140
f 140/140/140 141/141/141 144/144/144
f 141/141/141 145/145/145 144/144/144
f 142/142/142 143/143/143 146/146/146
f 147/147/147 142/142/142 146/146/146
f 148/148/148 141/141/141 142/142/142
f 142/142/142 147/147/147 148/148/148
f 147/147/147 149/149/149 148/148/148
f 149/149/149 147/147/147 150/150/150
f 151/151/151 149/149/149 150/150/150
f 147/147/147 146/146/146 152/152/152
f 150/150/150 147/147/147 152/152/152
f 155/155/155 154/154/154 153/153/153
f 156/156/156 155/155/155 153/153/153
f 153/153/153 154/154/154 157/157/157
f 158/158/158 153/153/153 157/157/157
f 158/158/158 157/157/157 159/159/159
f 157/157/157 160/160/160 159/159/159
f 157/157/157 154/154/154 161/161/161
f 161/161/161 160/160/160 157/157/157
f 154/154/154 162/162/162 161/161/161
f 162/162/162 154/154/154 155/155/155
f 165/165/165 164/164/164 163/163/163
f 166/166/166 165/165/165 163/163/163
f 167/167/167 164/164/164 165/165/165
f 170/170/170 169/169/169 168/168/168
f 171/171/171 170/170/170 168/168/168
f 174/174/174 173/173/173 172/172/172
f 172/172/172 173/173/173 175/175/175
f 177/177/177 174/174/174 176/176/176
f 180/180/180 179/179/179 178/178/178
f 181/181/181 180/180/180 178/178/178
f 182/182/182 179/179/179 180/180/180
f 185/185/185 184/184/184 183/183/183
f 186/186/186 185/185/185 183/183/183
f 187/187/187 184/184/184 185/185/185
