g m_cakemixer_01_Spill
v 0.142879 0.5105707 0.2341262
v 0.174755 0.508335 0.2148752
v 0.1707456 0.4787734 0.2156081
v 0.1423429 0.4807656 0.2327613
v 0.1715649 0.5429646 0.1883308
v 0.1244849 0.5462667 0.216764
v 0.09687327 0.522836 0.2288163
v 0.1607328 0.4262302 0.2011923
v 0.1288459 0.4378026 0.2193409
v 0.1013631 0.4803175 0.2293732
v 0.1244849 0.5462667 0.216764
v 0.09687327 0.522836 0.2288163
v 0.0828817 0.5198183 0.2033961
v 0.1036377 0.5422223 0.1827147
v 0.1005308 0.5055604 0.1645874
v 0.08890944 0.4775983 0.2064649
v 0.1046121 0.4734455 0.1711366
v 0.1147311 0.4350643 0.1962874
v 0.1288459 0.4378026 0.2193409
v 0.1013631 0.4803175 0.2293732
v 0.1036377 0.5422223 0.1827147
v 0.1507177 0.5389208 0.1542815
v 0.1375911 0.5513357 0.1844906
v 0.1715649 0.5429646 0.1883308
v 0.1244849 0.5462667 0.216764
v 0.1324068 0.5033246 0.1453365
v 0.1036377 0.5422223 0.1827147
v 0.1005308 0.5055604 0.1645874
v 0.1507177 0.5389208 0.1542815
v 0.1046121 0.4734455 0.1711366
v 0.1330149 0.4714534 0.1539832
v 0.1147311 0.4350643 0.1962874
v 0.1423392 0.423461 0.1779196
v 0.1711999 0.4718811 0.1572282
v 0.1755916 0.5133704 0.1478666
v 0.1423392 0.423461 0.1779196
v 0.1147311 0.4350643 0.1962874
v 0.1288459 0.4378026 0.2193409
v 0.1607328 0.4262302 0.2011923
v 0.1865715 0.4743413 0.177913
v 0.1423392 0.423461 0.1779196
v 0.1607328 0.4262302 0.2011923
v 0.1711999 0.4718811 0.1572282
v 0.1707456 0.4787734 0.2156081
v 0.1925013 0.5161288 0.1710633
v 0.1755916 0.5133704 0.1478666
v 0.174755 0.508335 0.2148752
v 0.1715649 0.5429646 0.1883308
v 0.1507177 0.5389208 0.1542815
v -0.2504779 0.4279945 -0.1655053
v -0.2180698 0.4265505 -0.1780562
v -0.2345134 0.3972071 -0.1855601
v -0.2151635 0.4720813 -0.1776503
v -0.2531451 0.4737736 -0.1629411
v -0.2581747 0.395372 -0.2008696
v -0.2741394 0.4261593 -0.1808148
v -0.2808757 0.4716229 -0.1808834
v -0.2180698 0.4265505 -0.1780562
v -0.1968987 0.4227655 -0.2103232
v -0.2345134 0.3972071 -0.1855601
v -0.2133423 0.3934222 -0.217827
v -0.2004487 0.4190435 -0.241813
v -0.1903516 0.4676455 -0.2154663
v -0.2151635 0.4720813 -0.1776503
v -0.1945121 0.4632834 -0.2523716
v -0.2531451 0.4737736 -0.1629411
v -0.2344964 0.4902979 -0.1926557
v -0.2151635 0.4720813 -0.1776503
v -0.1903516 0.4676455 -0.2154663
v -0.2096845 0.485862 -0.2304717
v -0.1945121 0.4632834 -0.2523716
v -0.2808757 0.4716229 -0.1808834
v -0.2622269 0.4881471 -0.210598
v -0.2359627 0.493044 -0.2212479
v -0.2374149 0.4837113 -0.248414
v -0.2808757 0.4716229 -0.1808834
v -0.2801083 0.4668619 -0.2212165
v -0.2622269 0.4881471 -0.210598
v -0.2552963 0.462426 -0.2590325
v -0.2374149 0.4837113 -0.248414
v -0.2741394 0.4261593 -0.1808148
v -0.2734845 0.4220968 -0.2152295
v -0.2523135 0.4183119 -0.2474964
v -0.2581747 0.395372 -0.2008696
v -0.2370036 0.391587 -0.2331365
v -0.2374149 0.4837113 -0.248414
v -0.2552963 0.462426 -0.2590325
v -0.2222427 0.4611326 -0.2703139
v -0.2523135 0.4183119 -0.2474964
v -0.22411 0.4172083 -0.2571225
v -0.2370036 0.391587 -0.2331365
v -0.2004487 0.4190435 -0.241813
v -0.2133423 0.3934222 -0.217827
v -0.1945121 0.4632834 -0.2523716
v -0.2096845 0.485862 -0.2304717
v -0.2370036 0.391587 -0.2331365
v -0.2581747 0.395372 -0.2008696
v -0.2345134 0.3972071 -0.1855601
v -0.2133423 0.3934222 -0.217827
v 0.2764688 0.4596663 -0.2256398
v 0.2476572 0.453378 -0.2668142
v 0.2419132 0.404743 -0.2584483
v 0.270725 0.4110315 -0.2172739
v 0.2295201 0.4871088 -0.2658455
v 0.2671503 0.4953218 -0.2120687
v 0.2236445 0.3424659 -0.235338
v 0.2524562 0.3487541 -0.1941636
v 0.272819 0.3751565 -0.169078
v 0.2936161 0.4475337 -0.1480853
v 0.2935777 0.4804042 -0.1519661
v 0.2322009 0.4982648 -0.1867966
v 0.1945706 0.4900518 -0.2405735
v 0.230852 0.4999948 -0.2271838
v 0.2295201 0.4871088 -0.2658455
v 0.1927537 0.4604194 -0.2971997
v 0.1659946 0.4626727 -0.2778502
v 0.2671503 0.4953218 -0.2120687
v 0.2935777 0.4804042 -0.1519661
v 0.2668186 0.4826575 -0.1326165
v 0.2322009 0.4982648 -0.1867966
v 0.1880271 0.4683977 -0.2216744
v 0.1945706 0.4900518 -0.2405735
v 0.2168388 0.474686 -0.1804999
v 0.216909 0.414485 -0.1733922
v 0.1880973 0.4081968 -0.2145666
v 0.2256972 0.3510074 -0.174814
v 0.1968854 0.3447192 -0.2159885
v 0.1764688 0.3645066 -0.2465275
v 0.1660402 0.4236203 -0.2732394
v 0.1659946 0.4626727 -0.2778502
v 0.216909 0.414485 -0.1733922
v 0.2460599 0.3774098 -0.1497284
v 0.2256972 0.3510074 -0.174814
v 0.2524562 0.3487541 -0.1941636
v 0.272819 0.3751565 -0.169078
v 0.266857 0.4497871 -0.1287356
v 0.2936161 0.4475337 -0.1480853
v 0.2168388 0.474686 -0.1804999
v 0.2668186 0.4826575 -0.1326165
v 0.2935777 0.4804042 -0.1519661
v 0.2322009 0.4982648 -0.1867966
v 0.2524562 0.3487541 -0.1941636
v 0.2236445 0.3424659 -0.235338
v 0.1968854 0.3447192 -0.2159885
v 0.2256972 0.3510074 -0.174814
v 0.2236445 0.3424659 -0.235338
v 0.2032279 0.3622532 -0.265877
v 0.1764688 0.3645066 -0.2465275
v 0.1968854 0.3447192 -0.2159885
v 0.2419132 0.404743 -0.2584483
v 0.1927993 0.421367 -0.292589
v 0.1660402 0.4236203 -0.2732394
v 0.1927537 0.4604194 -0.2971997
v 0.1659946 0.4626727 -0.2778502
v 0.2476572 0.453378 -0.2668142
v 0.2295201 0.4871088 -0.2658455
vt 0.060024 0.245122
vt 0.096802 0.245122
vt 0.091816 0.280239
vt 0.059045 0.280239
vt 0.091679 0.200382
vt 0.037359 0.200382
vt 0.005 0.229786
vt 0.078556 0.340453
vt 0.041778 0.329238
vt 0.010017 0.280239
vt 0.005 0.971855
vt 0.034404 0.984544
vt 0.034404 0.954912
vt 0.005 0.932293
vt 0.045891 0.905921
vt 0.084857 0.952276
vt 0.084857 0.908934
vt 0.133856 0.932707
vt 0.133856 0.959493
vt 0.084857 0.97899
vt 0.054548 0.898805
vt 0.017547 0.844484
vt 0.055828 0.858171
vt 0.057109 0.817537
vt 0.09411 0.871857
vt 0.746783 0.954108
vt 0.778439 0.994999
vt 0.783561 0.954108
vt 0.724118 0.995
vt 0.778575 0.915143
vt 0.745805 0.915143
vt 0.765316 0.866144
vt 0.733649 0.854929
vt 0.700115 0.915143
vt 0.695098 0.965595
vt 0.164669 0.995
vt 0.19711 0.968476
vt 0.178374 0.942036
vt 0.140928 0.96856
vt 0.813865 0.32567
vt 0.753652 0.33004
vt 0.753652 0.303254
vt 0.813865 0.349537
vt 0.813865 0.279481
vt 0.864318 0.328305
vt 0.864318 0.355091
vt 0.848982 0.276468
vt 0.893722 0.30284
vt 0.893723 0.342402
vt 0.041775 0.158288
vt 0.079603 0.158288
vt 0.059304 0.191977
vt 0.083481 0.104412
vt 0.039148 0.104412
vt 0.030167 0.191977
vt 0.012638 0.158288
vt 0.005 0.104412
vt 0.638865 0.13492
vt 0.638865 0.174927
vt 0.605176 0.146881
vt 0.605176 0.186887
vt 0.638864 0.212482
vt 0.692741 0.175149
vt 0.692741 0.128263
vt 0.692741 0.219163
vt 0.908446 0.164103
vt 0.874449 0.143559
vt 0.888467 0.119769
vt 0.84158 0.092558
vt 0.827563 0.116348
vt 0.797567 0.099805
vt 0.888628 0.198251
vt 0.854631 0.177707
vt 0.841097 0.147027
vt 0.807745 0.150496
vt 0.725077 0.288172
vt 0.725077 0.239744
vt 0.701371 0.254176
vt 0.725077 0.192858
vt 0.701371 0.20729
vt 0.778953 0.281492
vt 0.778953 0.24017
vt 0.778953 0.200163
vt 0.812642 0.252484
vt 0.812642 0.212477
vt 0.156069 0.260987
vt 0.178201 0.237282
vt 0.139526 0.237282
vt 0.174323 0.183405
vt 0.141323 0.183405
vt 0.155438 0.149717
vt 0.112186 0.183405
vt 0.126301 0.149717
vt 0.105378 0.237282
vt 0.121921 0.260987
vt 0.672548 0.965863
vt 0.632542 0.942645
vt 0.615632 0.971782
vt 0.655639 0.995
vt 0.31807 0.131616
vt 0.31642 0.17943
vt 0.257643 0.175968
vt 0.259294 0.128155
vt 0.356268 0.172457
vt 0.358423 0.110009
vt 0.180661 0.156196
vt 0.182312 0.108382
vt 0.210052 0.076274
vt 0.292827 0.042615
vt 0.332309 0.042615
vt 0.935214 0.910267
vt 0.872766 0.958448
vt 0.887759 0.914325
vt 0.840303 0.918382
vt 0.801749 0.964323
vt 0.826604 0.995
vt 0.902752 0.870201
vt 0.970145 0.835179
vt 0.995 0.865856
vt 0.366779 0.16387
vt 0.397221 0.12116
vt 0.368934 0.101421
vt 0.39557 0.168974
vt 0.46788 0.168974
vt 0.46953 0.12116
vt 0.54289 0.157888
vt 0.544541 0.110074
vt 0.516801 0.077966
vt 0.443023 0.05526
vt 0.396115 0.05526
vt 0.824753 0.472472
vt 0.860605 0.519742
vt 0.834589 0.547482
vt 0.865266 0.547482
vt 0.891281 0.519742
vt 0.887283 0.436967
vt 0.917959 0.436967
vt 0.824753 0.400162
vt 0.887283 0.397485
vt 0.917959 0.397485
vt 0.842871 0.37137
vt 0.730648 0.184265
vt 0.791044 0.185703
vt 0.791044 0.146221
vt 0.730649 0.144783
vt 0.810566 0.725289
vt 0.836581 0.75303
vt 0.867258 0.75303
vt 0.841243 0.725289
vt 0.789678 0.802271
vt 0.850127 0.826808
vt 0.880803 0.826808
vt 0.850127 0.873715
vt 0.880803 0.873715
vt 0.782929 0.861048
vt 0.804185 0.900896
vn 0.2401913 0.2579151 0.9358354
vn 0.7411651 0.2227782 0.6332806
vn 0.7251127 -0.2023426 0.6582318
vn 0.1979921 -0.1814661 0.9632596
vn 0.5424576 0.8280381 0.1417485
vn -0.03734139 0.8689067 0.4935654
vn -0.4732457 0.3463362 0.8099937
vn 0.5908196 -0.7250429 0.3538999
vn -0.1693475 -0.632412 0.7558944
vn -0.4961223 -0.2635763 0.8272788
vn -0.03734139 0.8689067 0.4935654
vn -0.4732457 0.3463362 0.8099937
vn -0.9667208 0.2530503 -0.03763812
vn -0.5352986 0.7767459 -0.3318454
vn -0.7343113 0.09022456 -0.6727901
vn -0.9343198 -0.3487491 0.07362529
vn -0.7393267 -0.3524114 -0.5737615
vn -0.6844351 -0.7247049 -0.07969633
vn -0.1693475 -0.632412 0.7558944
vn -0.4961223 -0.2635763 0.8272788
vn -0.5352986 0.7767459 -0.3318454
vn 0.03808052 0.7333864 -0.6787446
vn -0.001159356 0.9931026 -0.1172431
vn 0.5424576 0.8280381 0.1417485
vn -0.03734139 0.8689067 0.4935654
vn -0.2353457 0.05330499 -0.9704488
vn -0.5352986 0.7767459 -0.3318454
vn -0.7343113 0.09022456 -0.6727901
vn 0.03808052 0.7333864 -0.6787446
vn -0.7393267 -0.3524114 -0.5737615
vn -0.234965 -0.3766421 -0.8960649
vn -0.6844351 -0.7247049 -0.07969633
vn 0.0001390415 -0.8143118 -0.5804276
vn 0.4561169 -0.4050201 -0.7924116
vn 0.4386241 0.1463764 -0.8866695
vn 0.0001390415 -0.8143118 -0.5804276
vn -0.6844351 -0.7247049 -0.07969633
vn -0.1693475 -0.632412 0.7558944
vn 0.5908196 -0.7250429 0.3538999
vn 0.9403105 -0.3334874 -0.06784102
vn 0.0001390415 -0.8143118 -0.5804276
vn 0.5908196 -0.7250429 0.3538999
vn 0.4561169 -0.4050201 -0.7924116
vn 0.7251127 -0.2023426 0.6582318
vn 0.9671443 0.2435475 -0.07291524
vn 0.4386241 0.1463764 -0.8866695
vn 0.7411651 0.2227782 0.6332806
vn 0.5424576 0.8280381 0.1417485
vn 0.03808052 0.7333864 -0.6787446
vn -0.070105 -0.3260262 0.9427578
vn 0.5867428 -0.2680535 0.7641206
vn 0.1828099 -0.749179 0.6366408
vn 0.586139 0.431295 0.6858758
vn -0.06297649 0.5003269 0.8635433
vn -0.5793454 -0.8045108 0.1308481
vn -0.8057959 -0.3876987 0.4476411
vn -0.8287425 0.4377631 0.3486392
vn 0.5867428 -0.2680535 0.7641206
vn 0.911535 -0.325982 0.2506783
vn 0.1828099 -0.749179 0.6366408
vn 0.5889398 -0.8081099 0.01039892
vn 0.7874632 -0.4543524 -0.4164921
vn 0.9158646 0.3653823 0.1663969
vn 0.586139 0.431295 0.6858758
vn 0.8035296 0.3113918 -0.5073218
vn -0.06297649 0.5003269 0.8635433
vn 0.1443529 0.9455371 0.2917562
vn 0.586139 0.431295 0.6858758
vn 0.9158646 0.3653823 0.1663969
vn 0.4371724 0.8858894 -0.1551784
vn 0.8035296 0.3113918 -0.5073218
vn -0.8287425 0.4377631 0.3486392
vn -0.4338907 0.8965848 -0.08873904
vn -0.001158891 0.9931015 -0.117252
vn -0.1388123 0.8409936 -0.522935
vn -0.8287425 0.4377631 0.3486392
vn -0.9037379 0.2964043 -0.3088729
vn -0.4338907 0.8965848 -0.08873904
vn -0.5745934 0.2442662 -0.7811378
vn -0.1388123 0.8409936 -0.522935
vn -0.8057959 -0.3876987 0.4476411
vn -0.8971788 -0.3770751 -0.2299664
vn -0.5718247 -0.4381565 -0.6935672
vn -0.5793454 -0.8045108 0.1308481
vn -0.1687916 -0.8645247 -0.4733988
vn -0.1388123 0.8409936 -0.522935
vn -0.5745934 0.2442662 -0.7811378
vn 0.09018763 0.2598735 -0.9614218
vn -0.5718247 -0.4381565 -0.6935672
vn 0.09744799 -0.5130068 -0.8528353
vn -0.1687916 -0.8645247 -0.4733988
vn 0.7874632 -0.4543524 -0.4164921
vn 0.5889398 -0.8081099 0.01039892
vn 0.8035296 0.3113918 -0.5073218
vn 0.4371724 0.8858894 -0.1551784
vn -0.1687916 -0.8645247 -0.4733988
vn -0.5793454 -0.8045108 0.1308481
vn 0.1828099 -0.749179 0.6366408
vn 0.5889398 -0.8081099 0.01039892
vn 0.8934993 0.120726 -0.4325326
vn 0.6686783 0.09078158 -0.7379892
vn 0.6509315 -0.3027582 -0.6961505
vn 0.8947744 -0.262456 -0.3612417
vn 0.2465702 0.7867516 -0.5658843
vn 0.4981953 0.8365523 -0.2279948
vn 0.3319726 -0.841343 -0.4265397
vn 0.6172246 -0.78601 -0.03495704
vn 0.8148986 -0.5269668 0.2413424
vn 0.9209919 -0.1806731 0.3451538
vn 0.8865328 0.4401409 0.1426024
vn -0.2956893 0.9152133 0.2737744
vn -0.500666 0.8656323 -0.003763048
vn -0.01683028 0.9901993 -0.1386437
vn 0.2465702 0.7867516 -0.5658843
vn 0.04888686 0.2926586 -0.9549665
vn -0.8753237 0.4375903 -0.2057263
vn 0.4981953 0.8365523 -0.2279948
vn 0.8865328 0.4401409 0.1426024
vn -0.1874538 0.5961382 0.7806923
vn -0.2956893 0.9152133 0.2737744
vn -0.8557161 0.3039818 0.4187423
vn -0.500666 0.8656323 -0.003763048
vn -0.7412627 0.331465 0.5836614
vn -0.7436388 -0.02429766 0.66814
vn -0.8796793 -0.03113873 0.4745468
vn -0.3846505 -0.6590199 0.6463255
vn -0.6529609 -0.7017304 0.2849854
vn -0.8788301 -0.4713468 -0.07409345
vn -0.9543883 -0.1530427 -0.2563608
vn -0.8753237 0.4375903 -0.2057263
vn -0.7436388 -0.02429766 0.66814
vn -0.165347 -0.4170067 0.893737
vn -0.3846505 -0.6590199 0.6463255
vn 0.6172246 -0.78601 -0.03495704
vn 0.8148986 -0.5269668 0.2413424
vn -0.07805257 -0.07370155 0.9942213
vn 0.9209919 -0.1806731 0.3451538
vn -0.7412627 0.331465 0.5836614
vn -0.1874538 0.5961382 0.7806923
vn 0.8865328 0.4401409 0.1426024
vn -0.2956893 0.9152133 0.2737744
vn 0.6172246 -0.78601 -0.03495704
vn 0.3319726 -0.841343 -0.4265397
vn -0.6529609 -0.7017304 0.2849854
vn -0.3846505 -0.6590199 0.6463255
vn 0.3319726 -0.841343 -0.4265397
vn 0.05976148 -0.6157435 -0.7856771
vn -0.8788301 -0.4713468 -0.07409345
vn -0.6529609 -0.7017304 0.2849854
vn 0.6509315 -0.3027582 -0.6961505
vn -0.05093282 -0.2883781 -0.956161
vn -0.9543883 -0.1530427 -0.2563608
vn 0.04888686 0.2926586 -0.9549665
vn -0.8753237 0.4375903 -0.2057263
vn 0.6686783 0.09078158 -0.7379892
vn 0.2465702 0.7867516 -0.5658843
g m_cakemixer_01_Spill_0
f 3/3/3 2/2/2 1/1/1
f 1/1/1 4/4/4 3/3/3
f 1/1/1 2/2/2 5/5/5
f 6/6/6 1/1/1 5/5/5
f 6/6/6 7/7/7 1/1/1
f 8/8/8 3/3/3 4/4/4
f 4/4/4 9/9/9 8/8/8
f 9/9/9 4/4/4 10/10/10
f 7/7/7 10/10/10 1/1/1
f 10/10/10 4/4/4 1/1/1
f 13/13/13 12/12/12 11/11/11
f 11/11/11 14/14/14 13/13/13
f 14/14/14 15/15/15 13/13/13
f 16/16/16 13/13/13 15/15/15
f 15/15/15 17/17/17 16/16/16
f 18/18/18 16/16/16 17/17/17
f 16/16/16 18/18/18 19/19/19
f 20/20/20 16/16/16 19/19/19
f 13/13/13 16/16/16 20/20/20
f 20/20/20 12/12/12 13/13/13
f 23/23/23 22/22/22 21/21/21
f 24/24/24 22/22/22 23/23/23
f 24/24/24 23/23/23 25/25/25
f 23/23/23 21/21/21 25/25/25
f 28/28/28 27/27/27 26/26/26
f 29/29/29 26/26/26 27/27/27
f 30/30/30 28/28/28 26/26/26
f 26/26/26 31/31/31 30/30/30
f 32/32/32 30/30/30 31/31/31
f 31/31/31 33/33/33 32/32/32
f 34/34/34 33/33/33 31/31/31
f 26/26/26 34/34/34 31/31/31
f 26/26/26 35/35/35 34/34/34
f 26/26/26 29/29/29 35/35/35
f 38/38/38 37/37/37 36/36/36
f 36/36/36 39/39/39 38/38/38
f 42/42/42 41/41/41 40/40/40
f 41/41/41 43/43/43 40/40/40
f 40/40/40 44/44/44 42/42/42
f 45/45/45 40/40/40 43/43/43
f 43/43/43 46/46/46 45/45/45
f 47/47/47 44/44/44 40/40/40
f 40/40/40 45/45/45 47/47/47
f 48/48/48 45/45/45 46/46/46
f 45/45/45 48/48/48 47/47/47
f 46/46/46 49/49/49 48/48/48
f 52/52/52 51/51/51 50/50/50
f 50/50/50 51/51/51 53/53/53
f 54/54/54 50/50/50 53/53/53
f 55/55/55 52/52/52 50/50/50
f 50/50/50 56/56/56 55/55/55
f 56/56/56 50/50/50 54/54/54
f 56/56/56 54/54/54 57/57/57
f 60/60/60 59/59/59 58/58/58
f 61/61/61 59/59/59 60/60/60
f 62/62/62 59/59/59 61/61/61
f 59/59/59 63/63/63 58/58/58
f 63/63/63 59/59/59 62/62/62
f 58/58/58 63/63/63 64/64/64
f 62/62/62 65/65/65 63/63/63
f 68/68/68 67/67/67 66/66/66
f 67/67/67 68/68/68 69/69/69
f 69/69/69 70/70/70 67/67/67
f 71/71/71 70/70/70 69/69/69
f 72/72/72 66/66/66 67/67/67
f 67/67/67 73/73/73 72/72/72
f 70/70/70 74/74/74 67/67/67
f 74/74/74 73/73/73 67/67/67
f 74/74/74 75/75/75 73/73/73
f 70/70/70 75/75/75 74/74/74
f 78/78/78 77/77/77 76/76/76
f 77/77/77 78/78/78 79/79/79
f 78/78/78 80/80/80 79/79/79
f 81/81/81 76/76/76 77/77/77
f 77/77/77 82/82/82 81/81/81
f 83/83/83 77/77/77 79/79/79
f 77/77/77 83/83/83 82/82/82
f 82/82/82 84/84/84 81/81/81
f 82/82/82 85/85/85 84/84/84
f 83/83/83 85/85/85 82/82/82
f 88/88/88 87/87/87 86/86/86
f 89/89/89 87/87/87 88/88/88
f 88/88/88 90/90/90 89/89/89
f 90/90/90 91/91/91 89/89/89
f 91/91/91 90/90/90 92/92/92
f 88/88/88 92/92/92 90/90/90
f 92/92/92 93/93/93 91/91/91
f 88/88/88 94/94/94 92/92/92
f 95/95/95 94/94/94 88/88/88
f 88/88/88 86/86/86 95/95/95
f 98/98/98 97/97/97 96/96/96
f 96/96/96 99/99/99 98/98/98
f 102/102/102 101/101/101 100/100/100
f 100/100/100 103/103/103 102/102/102
f 101/101/101 104/104/104 100/100/100
f 100/100/100 104/104/104 105/105/105
f 106/106/106 102/102/102 103/103/103
f 103/103/103 107/107/107 106/106/106
f 107/107/107 103/103/103 108/108/108
f 103/103/103 109/109/109 108/108/108
f 103/103/103 100/100/100 109/109/109
f 110/110/110 109/109/109 100/100/100
f 100/100/100 105/105/105 110/110/110
f 113/113/113 112/112/112 111/111/111
f 114/114/114 112/112/112 113/113/113
f 115/115/115 112/112/112 114/114/114
f 112/112/112 115/115/115 116/116/116
f 114/114/114 113/113/113 117/117/117
f 113/113/113 111/111/111 117/117/117
f 118/118/118 117/117/117 111/111/111
f 111/111/111 119/119/119 118/118/118
f 122/122/122 121/121/121 120/120/120
f 121/121/121 123/123/123 120/120/120
f 124/124/124 123/123/123 121/121/121
f 121/121/121 125/125/125 124/124/124
f 126/126/126 124/124/124 125/125/125
f 125/125/125 127/127/127 126/126/126
f 128/128/128 127/127/127 125/125/125
f 125/125/125 129/129/129 128/128/128
f 129/129/129 125/125/125 121/121/121
f 121/121/121 130/130/130 129/129/129
f 121/121/121 122/122/122 130/130/130
f 133/133/133 132/132/132 131/131/131
f 132/132/132 133/133/133 134/134/134
f 135/135/135 132/132/132 134/134/134
f 132/132/132 136/136/136 131/131/131
f 136/136/136 132/132/132 135/135/135
f 135/135/135 137/137/137 136/136/136
f 138/138/138 131/131/131 136/136/136
f 136/136/136 139/139/139 138/138/138
f 139/139/139 136/136/136 140/140/140
f 136/136/136 137/137/137 140/140/140
f 139/139/139 141/141/141 138/138/138
f 144/144/144 143/143/143 142/142/142
f 142/142/142 145/145/145 144/144/144
f 148/148/148 147/147/147 146/146/146
f 146/146/146 149/149/149 148/148/148
f 147/147/147 150/150/150 146/146/146
f 151/151/151 147/147/147 148/148/148
f 147/147/147 151/151/151 150/150/150
f 148/148/148 152/152/152 151/151/151
f 153/153/153 151/151/151 152/152/152
f 152/152/152 154/154/154 153/153/153
f 155/155/155 150/150/150 151/151/151
f 151/151/151 153/153/153 155/155/155
f 153/153/153 156/156/156 155/155/155
