g m_caketin_01_FillCooked
v 0.3077747 0.2481431 -0.1347984
v 0.2506356 0.2808675 -0.1097728
v 0.2136841 0.2808675 -0.1709016
v 0.2623991 0.2481431 -0.2098632
v 0.1621704 0.2808675 -0.2203838
v 0.1991415 0.2481431 -0.2706262
v 0.09960508 0.2808675 -0.2548472
v 0.1223127 0.2481431 -0.3129464
v 0.0302518 0.2808675 -0.2719432
v 0.03714852 0.2481431 -0.3339399
v -0.04116308 0.2808675 -0.2705067
v -0.05054729 0.2481431 -0.3321759
v -0.1097728 0.2808675 -0.2506357
v -0.1347984 0.2481431 -0.3077747
v -0.1709017 0.2808675 -0.2136842
v -0.2098632 0.2481431 -0.2623992
v -0.2203839 0.2808675 -0.1621705
v -0.2706262 0.2481431 -0.1991415
v -0.2548473 0.2808675 -0.09960509
v -0.3129465 0.2481431 -0.1223127
v -0.2719433 0.2808675 -0.03025181
v -0.33394 0.2481431 -0.0371485
v -0.2705068 0.2808675 0.04116309
v -0.332176 0.2481431 0.05054732
v -0.2506357 0.2808675 0.1097728
v -0.3077748 0.2481431 0.1347985
v -0.2136842 0.2808675 0.1709017
v -0.2623992 0.2481431 0.2098633
v -0.1621705 0.2808675 0.2203839
v -0.1991415 0.2481431 0.2706262
v -0.0996051 0.2808675 0.2548473
v -0.1223127 0.2481431 0.3129465
v -0.03025179 0.2808675 0.2719433
v -0.03714849 0.2481431 0.33394
v 0.04116311 0.2808675 0.2705068
v 0.05054734 0.2481431 0.332176
v 0.1097728 0.2808675 0.2506357
v 0.1347985 0.2481431 0.3077748
v 0.1709017 0.2808675 0.2136842
v 0.2098633 0.2481431 0.2623992
v 0.2203839 0.2808675 0.1621705
v 0.2706263 0.2481431 0.1991416
v 0.2548474 0.2808675 0.0996051
v 0.3129466 0.2481431 0.1223127
v 0.2719434 0.2808675 0.03025178
v 0.3339401 0.2481431 0.0371485
v 0.2705069 0.2808675 -0.04116314
v 0.3321761 0.2481431 -0.05054736
v 0.06603824 0.3063066 0.1507799
v 0.1028128 0.3063066 0.1285503
v 0.1325808 0.3063066 0.09756017
v 0.1533137 0.3063066 0.05992144
v 0.1635984 0.3063066 0.01819916
v 0.1627343 0.3063066 -0.02476335
v 0.1507799 0.3063066 -0.06603822
v 0.1285502 0.3063066 -0.1028127
v 0.09756014 0.3063066 -0.1325807
v 0.05992144 0.3063066 -0.1533136
v 0.01819918 0.3063066 -0.1635983
v -0.0247633 0.3063066 -0.1627342
v -0.06603821 0.3063066 -0.1507799
v -0.1028128 0.3063066 -0.1285503
v -0.1325808 0.3063066 -0.09756015
v -0.1533136 0.3063066 -0.05992144
v -0.1635984 0.3063066 -0.01819919
v -0.1627342 0.3063066 0.0247633
v -0.1507799 0.3063066 0.06603822
v -0.1285503 0.3063066 0.1028128
v -0.09756017 0.3063066 0.1325808
v -0.05992146 0.3063066 0.1533136
v -0.01819918 0.3063066 0.1635984
v 0.02476332 0.3063066 0.1627342
v 0 0.3180583 0
vt 0.6509259 0.8841904
vt 0.6006173 0.8707103
vt 0.590211 0.8958333
vt 0.6353165 0.921875
vt 0.5736569 0.9174069
vt 0.6104854 0.9542354
vt 0.5520833 0.933961
vt 0.578125 0.9790665
vt 0.5269603 0.9443673
vt 0.5404404 0.9946759
vt 0.5 0.9479166
vt 0.5 1
vt 0.4730397 0.9443673
vt 0.4595595 0.9946759
vt 0.4479167 0.933961
vt 0.421875 0.9790664
vt 0.4263431 0.9174069
vt 0.3895146 0.9542354
vt 0.409789 0.8958333
vt 0.3646836 0.921875
vt 0.3993828 0.8707103
vt 0.3490741 0.8841904
vt 0.3958334 0.84375
vt 0.3437501 0.84375
vt 0.3993828 0.8167897
vt 0.3490741 0.8033096
vt 0.4097891 0.7916667
vt 0.3646836 0.765625
vt 0.4263431 0.7700931
vt 0.3895146 0.7332646
vt 0.4479167 0.7535391
vt 0.4218751 0.7084336
vt 0.4730397 0.7431328
vt 0.4595596 0.6928241
vt 0.5 0.7395834
vt 0.5 0.6875001
vt 0.5269603 0.7431328
vt 0.5404404 0.6928242
vt 0.5520833 0.7535391
vt 0.578125 0.7084336
vt 0.5736569 0.7700931
vt 0.6104854 0.7332646
vt 0.5902109 0.7916667
vt 0.6353164 0.7656251
vt 0.6006172 0.8167897
vt 0.6509258 0.8033096
vt 0.6041667 0.84375
vt 0.65625 0.84375
vt 0.5134802 0.7934414
vt 0.5260416 0.7986445
vt 0.5368285 0.8069215
vt 0.5451055 0.8177084
vt 0.5503086 0.8302699
vt 0.5520833 0.84375
vt 0.5503086 0.8572302
vt 0.5451055 0.8697917
vt 0.5368285 0.8805785
vt 0.5260417 0.8888555
vt 0.5134801 0.8940586
vt 0.5 0.8958333
vt 0.4865198 0.8940586
vt 0.4739583 0.8888555
vt 0.4631715 0.8805785
vt 0.4548945 0.8697916
vt 0.4496914 0.8572302
vt 0.4479167 0.84375
vt 0.4496914 0.8302698
vt 0.4548945 0.8177084
vt 0.4631715 0.8069215
vt 0.4739583 0.7986445
vt 0.4865198 0.7934414
vt 0.5 0.7916667
vt 0.5 0.8375
vn 0.4255353 0.8855416 -0.1863753
vn 0.3206611 0.9367242 -0.1404428
vn 0.2733859 0.9367242 -0.2186503
vn 0.3627984 0.8855416 -0.2901611
vn 0.2074797 0.9367242 -0.2819575
vn 0.2753371 0.8855416 -0.3741732
vn 0.127434 0.9367241 -0.3260497
vn 0.1691121 0.8855416 -0.4326861
vn 0.03870393 0.9367241 -0.3479222
vn 0.05136232 0.8855415 -0.4617121
vn -0.05266362 0.9367241 -0.3460844
vn -0.06988762 0.8855416 -0.4592732
vn -0.1404424 0.9367242 -0.3206615
vn -0.1863749 0.8855416 -0.4255355
vn -0.2186502 0.9367242 -0.2733859
vn -0.2901612 0.8855416 -0.3627984
vn -0.2819574 0.9367242 -0.2074797
vn -0.3741734 0.8855414 -0.2753373
vn -0.3260497 0.9367242 -0.1274341
vn -0.4326861 0.8855416 -0.1691122
vn -0.347922 0.9367242 -0.03870382
vn -0.4617119 0.8855417 -0.05136192
vn -0.3460842 0.9367242 0.05266377
vn -0.4592732 0.8855416 0.06988791
vn -0.3206614 0.9367242 0.1404424
vn -0.4255356 0.8855415 0.186375
vn -0.2733859 0.9367242 0.2186503
vn -0.3627984 0.8855416 0.2901612
vn -0.2074796 0.9367242 0.2819575
vn -0.275337 0.8855415 0.3741733
vn -0.127434 0.9367242 0.3260495
vn -0.169112 0.8855416 0.432686
vn -0.03870396 0.9367242 0.3479219
vn -0.05136224 0.8855418 0.4617118
vn 0.05266369 0.9367242 0.3460841
vn 0.06988769 0.8855417 0.459273
vn 0.1404424 0.9367242 0.3206613
vn 0.186375 0.8855417 0.4255354
vn 0.2186502 0.9367242 0.2733859
vn 0.2901611 0.8855416 0.3627982
vn 0.2819573 0.9367242 0.2074796
vn 0.374173 0.8855417 0.275337
vn 0.3260497 0.9367242 0.127434
vn 0.432686 0.8855416 0.1691121
vn 0.3479221 0.9367242 0.03870412
vn 0.461712 0.8855416 0.05136232
vn 0.3460841 0.9367242 -0.05266386
vn 0.4592728 0.8855418 -0.06988799
vn 0.07135968 0.9840536 0.1629301
vn 0.1110976 0.9840536 0.1389092
vn 0.1432644 0.9840537 0.1054216
vn 0.1656679 0.9840536 0.06475004
vn 0.1767814 0.9840536 0.01966591
vn 0.1758477 0.9840536 -0.0267588
vn 0.16293 0.9840536 -0.07136025
vn 0.1389092 0.9840536 -0.1110979
vn 0.1054218 0.9840536 -0.1432645
vn 0.06475004 0.9840536 -0.1656682
vn 0.01966571 0.9840536 -0.1767816
vn -0.02675872 0.9840536 -0.1758478
vn -0.07135965 0.9840536 -0.1629303
vn -0.1110976 0.9840536 -0.1389092
vn -0.1432644 0.9840536 -0.1054217
vn -0.1656679 0.9840536 -0.06475008
vn -0.1767815 0.9840536 -0.01966576
vn -0.1758477 0.9840536 0.02675864
vn -0.1629301 0.9840536 0.07135961
vn -0.1389092 0.9840536 0.1110976
vn -0.1054217 0.9840536 0.1432645
vn -0.06474999 0.9840536 0.1656679
vn -0.0196658 0.9840536 0.1767814
vn 0.02675875 0.9840536 0.1758476
vn 0 1 0
g m_caketin_01_FillCooked_0
f 3/3/3 2/2/2 1/1/1
f 4/4/4 3/3/3 1/1/1
f 5/5/5 3/3/3 4/4/4
f 6/6/6 5/5/5 4/4/4
f 7/7/7 5/5/5 6/6/6
f 8/8/8 7/7/7 6/6/6
f 9/9/9 7/7/7 8/8/8
f 10/10/10 9/9/9 8/8/8
f 11/11/11 9/9/9 10/10/10
f 12/12/12 11/11/11 10/10/10
f 13/13/13 11/11/11 12/12/12
f 14/14/14 13/13/13 12/12/12
f 15/15/15 13/13/13 14/14/14
f 16/16/16 15/15/15 14/14/14
f 17/17/17 15/15/15 16/16/16
f 18/18/18 17/17/17 16/16/16
f 19/19/19 17/17/17 18/18/18
f 20/20/20 19/19/19 18/18/18
f 21/21/21 19/19/19 20/20/20
f 22/22/22 21/21/21 20/20/20
f 23/23/23 21/21/21 22/22/22
f 24/24/24 23/23/23 22/22/22
f 25/25/25 23/23/23 24/24/24
f 26/26/26 25/25/25 24/24/24
f 27/27/27 25/25/25 26/26/26
f 28/28/28 27/27/27 26/26/26
f 29/29/29 27/27/27 28/28/28
f 30/30/30 29/29/29 28/28/28
f 31/31/31 29/29/29 30/30/30
f 32/32/32 31/31/31 30/30/30
f 33/33/33 31/31/31 32/32/32
f 34/34/34 33/33/33 32/32/32
f 35/35/35 33/33/33 34/34/34
f 36/36/36 35/35/35 34/34/34
f 37/37/37 35/35/35 36/36/36
f 38/38/38 37/37/37 36/36/36
f 39/39/39 37/37/37 38/38/38
f 40/40/40 39/39/39 38/38/38
f 41/41/41 39/39/39 40/40/40
f 42/42/42 41/41/41 40/40/40
f 43/43/43 41/41/41 42/42/42
f 44/44/44 43/43/43 42/42/42
f 45/45/45 43/43/43 44/44/44
f 46/46/46 45/45/45 44/44/44
f 47/47/47 45/45/45 46/46/46
f 48/48/48 47/47/47 46/46/46
f 2/2/2 47/47/47 48/48/48
f 1/1/1 2/2/2 48/48/48
f 37/37/37 49/49/49 35/35/35
f 50/50/50 49/49/49 37/37/37
f 39/39/39 50/50/50 37/37/37
f 51/51/51 50/50/50 39/39/39
f 41/41/41 51/51/51 39/39/39
f 52/52/52 51/51/51 41/41/41
f 43/43/43 52/52/52 41/41/41
f 53/53/53 52/52/52 43/43/43
f 45/45/45 53/53/53 43/43/43
f 54/54/54 53/53/53 45/45/45
f 47/47/47 54/54/54 45/45/45
f 55/55/55 54/54/54 47/47/47
f 2/2/2 55/55/55 47/47/47
f 56/56/56 55/55/55 2/2/2
f 3/3/3 56/56/56 2/2/2
f 57/57/57 56/56/56 3/3/3
f 5/5/5 57/57/57 3/3/3
f 58/58/58 57/57/57 5/5/5
f 7/7/7 58/58/58 5/5/5
f 59/59/59 58/58/58 7/7/7
f 9/9/9 59/59/59 7/7/7
f 60/60/60 59/59/59 9/9/9
f 11/11/11 60/60/60 9/9/9
f 61/61/61 60/60/60 11/11/11
f 13/13/13 61/61/61 11/11/11
f 62/62/62 61/61/61 13/13/13
f 15/15/15 62/62/62 13/13/13
f 63/63/63 62/62/62 15/15/15
f 17/17/17 63/63/63 15/15/15
f 64/64/64 63/63/63 17/17/17
f 19/19/19 64/64/64 17/17/17
f 65/65/65 64/64/64 19/19/19
f 21/21/21 65/65/65 19/19/19
f 66/66/66 65/65/65 21/21/21
f 23/23/23 66/66/66 21/21/21
f 67/67/67 66/66/66 23/23/23
f 25/25/25 67/67/67 23/23/23
f 68/68/68 67/67/67 25/25/25
f 27/27/27 68/68/68 25/25/25
f 69/69/69 68/68/68 27/27/27
f 29/29/29 69/69/69 27/27/27
f 70/70/70 69/69/69 29/29/29
f 31/31/31 70/70/70 29/29/29
f 71/71/71 70/70/70 31/31/31
f 33/33/33 71/71/71 31/31/31
f 72/72/72 71/71/71 33/33/33
f 35/35/35 72/72/72 33/33/33
f 49/49/49 72/72/72 35/35/35
f 67/67/67 73/73/73 66/66/66
f 68/68/68 73/73/73 67/67/67
f 69/69/69 73/73/73 68/68/68
f 70/70/70 73/73/73 69/69/69
f 71/71/71 73/73/73 70/70/70
f 72/72/72 73/73/73 71/71/71
f 49/49/49 73/73/73 72/72/72
f 66/66/66 73/73/73 65/65/65
f 65/65/65 73/73/73 64/64/64
f 64/64/64 73/73/73 63/63/63
f 63/63/63 73/73/73 62/62/62
f 62/62/62 73/73/73 61/61/61
f 61/61/61 73/73/73 60/60/60
f 60/60/60 73/73/73 59/59/59
f 59/59/59 73/73/73 58/58/58
f 58/58/58 73/73/73 57/57/57
f 57/57/57 73/73/73 56/56/56
f 56/56/56 73/73/73 55/55/55
f 50/50/50 73/73/73 49/49/49
f 51/51/51 73/73/73 50/50/50
f 52/52/52 73/73/73 51/51/51
f 53/53/53 73/73/73 52/52/52
f 54/54/54 73/73/73 53/53/53
f 55/55/55 73/73/73 54/54/54
