g m_city_wall_straight_tall
v 0.6 0.8785333 0.2352783
v 0.6 -0.05695492 0.2352783
v -0.6 -0.05695492 0.2352783
v -0.6 0.8785333 0.2352783
v 0.6 -0.08822109 0.2998731
v 0.6 -1.151472 0.2998731
v -0.6 -1.151472 0.2998731
v -0.6 -0.08822109 0.2998731
v -0.6 -0.05695492 0.2352783
v 0.6 -0.05695492 0.2352783
v 0.6 -0.05703121 0.2417322
v -0.6 -0.05703121 0.2417322
v 0.6 -0.07998516 0.2936499
v -0.6 -0.07998516 0.2936499
v 0.6 -0.08822109 0.2998731
v -0.6 -0.08822109 0.2998731
v -0.6 -0.05695492 0.2352783
v -0.6 -0.05703121 0.2417322
v -0.6 -0.08456356 0.2331641
v 0.6 -0.05695492 0.2352783
v 0.6 -0.08453427 0.2326257
v 0.6 -0.05703121 0.2417322
v 0.6 -0.08822109 0.2998731
v 0.6 -0.08453427 0.2326257
v 0.6 -0.8299578 0.2350488
v 0.6 -1.151472 0.2998731
v 0.6 -0.07998516 0.2936499
v 0.6 -0.05703121 0.2417322
v -0.6 -1.151472 0.2369214
v -0.6 -0.8282344 0.2355676
v -0.6 -1.151472 0.2998731
v -0.6 -0.08822109 0.2998731
v -0.6 -0.08456356 0.2331641
v -0.6 -0.05703121 0.2417322
v -0.6 -0.07998516 0.2936499
v -0.6 -0.8282344 0.2355676
v -0.6 -0.08456356 0.2331641
v -0.6 -0.08822109 0.2998731
v -0.6 -1.151472 0.2998731
v 0.6 -0.8299578 0.2350488
v 0.6 -1.151472 0.2364136
v 0.6 -1.151472 0.2998731
v -0.6 0.8785333 -0.2354053
v -0.6 -0.05695492 -0.2354053
v 0.6 -0.05695492 -0.2354053
v 0.6 0.8785333 -0.2354053
v -0.6 -0.08822094 -0.3
v -0.6 -1.151472 -0.3
v 0.6 -1.151472 -0.3
v 0.6 -0.08822094 -0.3
v 0.6 -0.05695492 -0.2354053
v -0.6 -0.05695492 -0.2354053
v -0.6 -0.05703121 -0.2418579
v 0.6 -0.05703121 -0.2418579
v -0.6 -0.07998501 -0.2937768
v 0.6 -0.07998501 -0.2937768
v -0.6 -0.08822094 -0.3
v 0.6 -0.08822094 -0.3
v 0.6 -0.05695492 -0.2354053
v 0.6 -0.05703121 -0.2418579
v 0.6 -0.08456356 -0.233291
v -0.6 -0.05695492 -0.2354053
v -0.6 -0.08453411 -0.2327515
v -0.6 -0.05703121 -0.2418579
v 0.6 -0.8240249 0.2352783
v 0.6 -0.8282344 -0.2356934
v 0.6 -1.151472 -0.2370483
v 0.6 -1.151472 0.2313831
v 0.6 -0.08456356 -0.233291
v 0.6 -0.07258815 0.2352783
v 0.6 -0.05695492 -0.2354053
v 0.6 0.8785333 0.2352783
v 0.6 0.8785333 -0.2354053
v -0.6 -0.05695492 -0.2354053
v -0.6 -0.07258815 0.2352783
v -0.6 -0.08453411 -0.2327515
v -0.6 0.8785333 0.2352783
v -0.6 0.8785333 -0.2354053
v -0.6 -0.8299577 -0.2351758
v -0.6 -0.8240246 0.2352783
v -0.6 -1.151472 -0.2365405
v -0.6 -1.151472 0.2402881
v -0.6 -0.08822094 -0.3
v -0.6 -0.08453411 -0.2327515
v -0.6 -0.8299577 -0.2351758
v -0.6 -1.151472 -0.3
v -0.6 -0.07998501 -0.2937768
v -0.6 -0.05703121 -0.2418579
v 0.6 -1.151472 -0.2370483
v 0.6 -0.8282344 -0.2356934
v 0.6 -1.151472 -0.3
v 0.6 -0.08822094 -0.3
v 0.6 -0.08456356 -0.233291
v 0.6 -0.05703121 -0.2418579
v 0.6 -0.07998501 -0.2937768
v 0.6 1.085999 0.2879443
v -0.6 1.085999 0.2879443
v -0.6 1.085999 -0.2879443
v 0.6 1.085999 -0.2879443
v -0.6 1.073943 -0.3
v 0.6 1.073943 -0.3
v 0.6 1.073943 0.3
v -0.6 1.073943 0.3
v 0.6 0.9502246 0.295
v -0.6 0.9502246 0.295
v -0.6 0.9646402 0.3
v 0.6 0.9646402 0.3
v 0.6 1.073943 0.3
v -0.6 1.073943 0.3
v -0.6 0.8854181 0.245564
v 0.6 0.8854181 0.245564
v 0.6 0.8785333 0.2352783
v -0.6 0.8785333 0.2352783
v -0.6 0.9646402 0.3
v -0.6 0.9502246 0.295
v -0.6 0.9514816 -0.295
v -0.6 0.965422 -0.3
v -0.6 1.073943 0.3
v -0.6 1.085999 0.2879443
v -0.6 1.085999 -0.2879443
v -0.6 1.073943 -0.3
v -0.6 0.8842859 -0.2452124
v -0.6 0.8854181 0.245564
v -0.6 0.8785333 -0.2354053
v -0.6 0.8785333 0.2352783
v -0.6 0.9514816 -0.295
v 0.6 0.9514816 -0.295
v 0.6 0.965422 -0.3
v -0.6 0.965422 -0.3
v -0.6 1.073943 -0.3
v 0.6 1.073943 -0.3
v 0.6 0.8842859 -0.2452124
v -0.6 0.8842859 -0.2452124
v -0.6 0.8785333 -0.2354053
v 0.6 0.8785333 -0.2354053
v 0.6 0.9646402 0.3
v 0.6 0.965422 -0.3
v 0.6 0.9514816 -0.295
v 0.6 0.9502246 0.295
v 0.6 1.073943 0.3
v 0.6 1.085999 0.2879443
v 0.6 1.085999 -0.2879443
v 0.6 1.073943 -0.3
v 0.6 0.8842859 -0.2452124
v 0.6 0.8854181 0.245564
v 0.6 0.8785333 -0.2354053
v 0.6 0.8785333 0.2352783
v 0.6 -0.8282344 -0.2356934
v 0.6 -0.08456356 -0.233291
v 0.6 -0.08822094 -0.3
v 0.6 -1.151472 -0.3
v -0.6 -0.8299577 -0.2351758
v -0.6 -1.151472 -0.2365405
v -0.6 -1.151472 -0.3
vt 0.003112793 0.9956055
vt 0.003112793 0.8701172
vt 0.185791 0.8701172
vt 0.185791 0.9956055
vt 0.484375 0.6728516
vt 0.4821777 0.5053711
vt 0.2687988 0.5048828
vt 0.2666016 0.6728516
vt 0.2653809 0.6860352
vt 0.4853516 0.6860352
vt 0.4838867 0.6831055
vt 0.2668457 0.6835938
vt 0.4841309 0.6748047
vt 0.2666016 0.6748047
vt 0.484375 0.6728516
vt 0.2666016 0.6728516
vt 0.2546387 0.6699219
vt 0.2668457 0.6835938
vt 0.2546387 0.6660156
vt 0.4853516 0.6860352
vt 0.4963379 0.6655273
vt 0.4838867 0.6831055
vt 0.484375 0.6728516
vt 0.4963379 0.6655273
vt 0.4946289 0.5537109
vt 0.4821777 0.5053711
vt 0.4841309 0.6748047
vt 0.4838867 0.6831055
vt 0.2570801 0.5053711
vt 0.2563477 0.5537109
vt 0.2687988 0.5048828
vt 0.2666016 0.6728516
vt 0.2546387 0.6660156
vt 0.2668457 0.6835938
vt 0.2666016 0.6748047
vt 0.2563477 0.5537109
vt 0.2546387 0.6660156
vt 0.2666016 0.6728516
vt 0.2687988 0.5048828
vt 0.4946289 0.5537109
vt 0.4941406 0.5058594
vt 0.4821777 0.5053711
vt 0.003112793 0.9956055
vt 0.003112793 0.8701172
vt 0.185791 0.8701172
vt 0.185791 0.9956055
vt 0.484375 0.6728516
vt 0.4821777 0.5053711
vt 0.2687988 0.5048828
vt 0.2666016 0.6728516
vt 0.2653809 0.6860352
vt 0.4853516 0.6860352
vt 0.4838867 0.6831055
vt 0.2668457 0.6835938
vt 0.4841309 0.6748047
vt 0.2666016 0.6748047
vt 0.484375 0.6728516
vt 0.2666016 0.6728516
vt 0.2546387 0.6699219
vt 0.2668457 0.6835938
vt 0.2546387 0.6660156
vt 0.4853516 0.6860352
vt 0.4963379 0.6655273
vt 0.4838867 0.6831055
vt 0.007419586 0.5673828
vt 0.0198822 0.5673828
vt 0.01991272 0.5585938
vt 0.007419586 0.5585938
vt 0.01982117 0.5869141
vt 0.007419586 0.5874023
vt 0.01986694 0.5878906
vt 0.007427216 0.605957
vt 0.0198822 0.605957
vt 0.008010864 0.5375977
vt 0.02046204 0.5371094
vt 0.008079529 0.5366211
vt 0.02046204 0.5556641
vt 0.008010864 0.5556641
vt 0.00793457 0.5170898
vt 0.02046204 0.5170898
vt 0.007980347 0.5087891
vt 0.02046204 0.5087891
vt 0.484375 0.6728516
vt 0.4963379 0.6655273
vt 0.4946289 0.5537109
vt 0.4821777 0.5053711
vt 0.4841309 0.6748047
vt 0.4838867 0.6831055
vt 0.2570801 0.5053711
vt 0.2563477 0.5537109
vt 0.2687988 0.5048828
vt 0.2666016 0.6728516
vt 0.2546387 0.6660156
vt 0.2668457 0.6835938
vt 0.2666016 0.6748047
vt 0.3129883 0.9560547
vt 0.4938965 0.9560547
vt 0.4938965 0.8696289
vt 0.3129883 0.8696289
vt 0.4938965 0.8657227
vt 0.3129883 0.8657227
vt 0.3129883 0.9599609
vt 0.4938965 0.9599609
vt 0.3129883 0.9785156
vt 0.4938965 0.9785156
vt 0.4938965 0.9760742
vt 0.3129883 0.9760742
vt 0.3129883 0.9599609
vt 0.4938965 0.9599609
vt 0.4938965 0.9907227
vt 0.3129883 0.9907227
vt 0.3129883 0.9926758
vt 0.4938965 0.9926758
vt 0.02166748 0.6171875
vt 0.02154541 0.6166992
vt 0.005931854 0.6166992
vt 0.005794525 0.6171875
vt 0.02166748 0.6201172
vt 0.02134705 0.6206055
vt 0.00611496 0.6206055
vt 0.005794525 0.6201172
vt 0.007381439 0.6152344
vt 0.02009583 0.6152344
vt 0.007507324 0.6147461
vt 0.0199585 0.6147461
vt 0.4938965 0.847168
vt 0.3129883 0.847168
vt 0.3129883 0.8496094
vt 0.4938965 0.8496094
vt 0.4938965 0.8657227
vt 0.3129883 0.8657227
vt 0.3129883 0.8349609
vt 0.4938965 0.8349609
vt 0.4938965 0.8330078
vt 0.3129883 0.8330078
vt 0.006023407 0.6108398
vt 0.02189636 0.6108398
vt 0.02175903 0.6103516
vt 0.006156921 0.6103516
vt 0.006023407 0.6137695
vt 0.006343842 0.6137695
vt 0.02157593 0.6137695
vt 0.02189636 0.6137695
vt 0.02030945 0.6088867
vt 0.007595062 0.6088867
vt 0.02018738 0.6083984
vt 0.007736206 0.6083984
vt 0.2563477 0.5537109
vt 0.2546387 0.6660156
vt 0.2666016 0.6728516
vt 0.2687988 0.5048828
vt 0.4946289 0.5537109
vt 0.4941406 0.5058594
vt 0.4821777 0.5053711
vn 0 0 1
vn 0 0 1
vn 0 0 1
vn 0 0 1
vn 0 0 1
vn 0 0 1
vn 0 0 1
vn 0 0 1
vn 0 0 1
vn 0 0 1
vn -3.518739E-05 0.8715066 0.4903838
vn -3.518739E-05 0.8715066 0.4903838
vn -3.518739E-05 0.8715066 0.4903838
vn -3.518739E-05 0.8715066 0.4903838
vn 0 0 1
vn 0 0 1
vn -1.04645E-05 0.02285729 0.9997388
vn -3.518739E-05 0.8715066 0.4903838
vn -1 -5.476501E-05 0
vn 1 0.0002739913 0
vn 1 0.0002739913 0
vn 1 0.0002739913 0
vn 1 0 0
vn 1 0 0
vn 1 0 0
vn 1 0 0
vn 1 0 0
vn 1 0 0
vn -1 3.629413E-06 0
vn -1 3.629413E-06 0
vn -1 3.629413E-06 0
vn -1 0 0
vn -1 0 0
vn -1 0 0
vn -1 0 0
vn -1 -7.241975E-07 0
vn -1 -7.241975E-07 0
vn -1 -7.241975E-07 0
vn -1 -7.241975E-07 0
vn 1 9.008793E-06 0
vn 1 9.008793E-06 0
vn 1 9.008793E-06 0
vn 0 0 -1
vn 0 0 -1
vn 0 0 -1
vn 0 0 -1
vn 0 0 -1
vn 0 0 -1
vn 0 0 -1
vn 0 0 -1
vn 0 0 -1
vn 0 0 -1
vn 3.518739E-05 0.8715066 -0.4903838
vn 3.518739E-05 0.8715066 -0.4903838
vn 3.518739E-05 0.8715066 -0.4903838
vn 3.518739E-05 0.8715066 -0.4903838
vn 0 0 -1
vn 0 0 -1
vn 1.04645E-05 0.02285729 -0.9997388
vn 3.518739E-05 0.8715066 -0.4903838
vn 1 -5.476501E-05 0
vn -1 0.0002739913 0
vn -1 0.0002739913 0
vn -1 0.0002739913 0
vn 1 1.028712E-05 0
vn 1 1.028712E-05 0
vn 1 1.028712E-05 0
vn 1 1.028712E-05 0
vn 1 0 0
vn 1 0 0
vn 1 0 0
vn 1 0 0
vn 1 0 0
vn -1 0 0
vn -1 0 0
vn -1 0 0
vn -1 0 0
vn -1 0 0
vn -1 0 0
vn -1 0 0
vn -1 -6.776826E-06 0
vn -1 -6.776826E-06 0
vn -1 0 0
vn -1 0 0
vn -1 0 0
vn -1 0 0
vn -1 0 0
vn -1 0 0
vn 1 3.629413E-06 0
vn 1 3.629413E-06 0
vn 1 3.629413E-06 0
vn 1 0 0
vn 1 0 0
vn 1 0 0
vn 1 0 0
vn 0 1 0
vn 0 1 0
vn 0 1 0
vn 0 1 0
vn 0 0 -1
vn 0 0 -1
vn 0 0 1
vn 0 0 1
vn 1.30251E-05 -0.60878 0.7933391
vn 1.30251E-05 -0.60878 0.7933391
vn 0 0 1
vn 0 0 1
vn 0 0 1
vn 0 0 1
vn 1.30251E-05 -0.60878 0.7933391
vn 1.30251E-05 -0.60878 0.7933391
vn 0 0 1
vn 0 0 1
vn -1 1.44703E-05 0
vn -1 1.44703E-05 0
vn -1 1.44703E-05 0
vn -1 1.44703E-05 0
vn -1 2.157091E-05 0
vn -1 2.157091E-05 0
vn -1 2.157091E-05 0
vn -1 2.157091E-05 0
vn -1 -0.000273283 0
vn -1 -0.000273283 0
vn -1 -0.000273283 0
vn -1 -0.000273283 0
vn 1.421489E-05 -0.5967817 -0.8024036
vn 1.421489E-05 -0.5967817 -0.8024036
vn 0 0 -1
vn 0 0 -1
vn 0 0 -1
vn 0 0 -1
vn 1.421489E-05 -0.5967817 -0.8024036
vn 1.421489E-05 -0.5967817 -0.8024036
vn 0 0 -1
vn 0 0 -1
vn 1 -0.0001852198 0
vn 1 -0.0001852198 0
vn 1 -0.0001852198 0
vn 1 -0.0001852198 0
vn 1 2.157091E-05 0
vn 1 2.157091E-05 0
vn 1 2.157091E-05 0
vn 1 2.157091E-05 0
vn 1 0 0
vn 1 0 0
vn 1 0 0
vn 1 0 0
vn 1 -7.241975E-07 0
vn 1 -7.241975E-07 0
vn 1 -7.241975E-07 0
vn 1 -7.241975E-07 0
vn -1 9.008793E-06 0
vn -1 9.008793E-06 0
vn -1 9.008793E-06 0
g m_city_wall_straight_tall_0
f 3/3/3 2/2/2 1/1/1
f 4/4/4 3/3/3 1/1/1
f 7/7/7 6/6/6 5/5/5
f 8/8/8 7/7/7 5/5/5
f 11/11/11 10/10/10 9/9/9
f 12/12/12 11/11/11 9/9/9
f 11/11/11 12/12/12 13/13/13
f 12/12/12 14/14/14 13/13/13
f 15/15/15 13/13/13 14/14/14
f 16/16/16 15/15/15 14/14/14
f 19/19/19 18/18/18 17/17/17
f 22/22/22 21/21/21 20/20/20
f 25/25/25 24/24/24 23/23/23
f 26/26/26 25/25/25 23/23/23
f 23/23/23 24/24/24 27/27/27
f 24/24/24 28/28/28 27/27/27
f 31/31/31 30/30/30 29/29/29
f 34/34/34 33/33/33 32/32/32
f 35/35/35 34/34/34 32/32/32
f 38/38/38 37/37/37 36/36/36
f 39/39/39 38/38/38 36/36/36
f 42/42/42 41/41/41 40/40/40
f 45/45/45 44/44/44 43/43/43
f 46/46/46 45/45/45 43/43/43
f 49/49/49 48/48/48 47/47/47
f 50/50/50 49/49/49 47/47/47
f 53/53/53 52/52/52 51/51/51
f 54/54/54 53/53/53 51/51/51
f 53/53/53 54/54/54 55/55/55
f 54/54/54 56/56/56 55/55/55
f 57/57/57 55/55/55 56/56/56
f 58/58/58 57/57/57 56/56/56
f 61/61/61 60/60/60 59/59/59
f 64/64/64 63/63/63 62/62/62
f 67/67/67 66/66/66 65/65/65
f 68/68/68 67/67/67 65/65/65
f 65/65/65 66/66/66 69/69/69
f 70/70/70 65/65/65 69/69/69
f 71/71/71 70/70/70 69/69/69
f 72/72/72 70/70/70 71/71/71
f 73/73/73 72/72/72 71/71/71
f 76/76/76 75/75/75 74/74/74
f 74/74/74 75/75/75 77/77/77
f 78/78/78 74/74/74 77/77/77
f 76/76/76 79/79/79 75/75/75
f 79/79/79 80/80/80 75/75/75
f 79/79/79 81/81/81 80/80/80
f 81/81/81 82/82/82 80/80/80
f 85/85/85 84/84/84 83/83/83
f 86/86/86 85/85/85 83/83/83
f 83/83/83 84/84/84 87/87/87
f 84/84/84 88/88/88 87/87/87
f 91/91/91 90/90/90 89/89/89
f 94/94/94 93/93/93 92/92/92
f 95/95/95 94/94/94 92/92/92
f 98/98/98 97/97/97 96/96/96
f 99/99/99 98/98/98 96/96/96
f 98/98/98 99/99/99 100/100/100
f 99/99/99 101/101/101 100/100/100
f 102/102/102 96/96/96 97/97/97
f 103/103/103 102/102/102 97/97/97
f 106/106/106 105/105/105 104/104/104
f 107/107/107 106/106/106 104/104/104
f 107/107/107 108/108/108 106/106/106
f 108/108/108 109/109/109 106/106/106
f 104/104/104 105/105/105 110/110/110
f 111/111/111 104/104/104 110/110/110
f 112/112/112 111/111/111 110/110/110
f 113/113/113 112/112/112 110/110/110
f 116/116/116 115/115/115 114/114/114
f 117/117/117 116/116/116 114/114/114
f 118/118/118 117/117/117 114/114/114
f 119/119/119 117/117/117 118/118/118
f 120/120/120 117/117/117 119/119/119
f 121/121/121 117/117/117 120/120/120
f 116/116/116 122/122/122 115/115/115
f 122/122/122 123/123/123 115/115/115
f 122/122/122 124/124/124 123/123/123
f 124/124/124 125/125/125 123/123/123
f 128/128/128 127/127/127 126/126/126
f 129/129/129 128/128/128 126/126/126
f 128/128/128 129/129/129 130/130/130
f 131/131/131 128/128/128 130/130/130
f 127/127/127 132/132/132 126/126/126
f 132/132/132 133/133/133 126/126/126
f 134/134/134 133/133/133 132/132/132
f 135/135/135 134/134/134 132/132/132
f 138/138/138 137/137/137 136/136/136
f 139/139/139 138/138/138 136/136/136
f 137/137/137 140/140/140 136/136/136
f 137/137/137 141/141/141 140/140/140
f 137/137/137 142/142/142 141/141/141
f 143/143/143 142/142/142 137/137/137
f 144/144/144 138/138/138 139/139/139
f 145/145/145 144/144/144 139/139/139
f 146/146/146 144/144/144 145/145/145
f 147/147/147 146/146/146 145/145/145
f 150/150/150 149/149/149 148/148/148
f 151/151/151 150/150/150 148/148/148
f 154/154/154 153/153/153 152/152/152
