g m_city_wall_left_angle_02
v -0.1729196 0.09328613 -0.3854046
v -0.1729196 0.7925342 -0.3854046
v -0.1729196 0.7925342 0.08527893
v -0.1729196 0.07765297 0.08527893
v -0.1729196 0.06567749 -0.3832899
v -0.1729196 -0.7243858 0.1400912
v -0.1729196 -1 0.08138292
v -0.1729196 -0.673784 0.08527893
v -0.1729196 -0.7243858 0.1400912
v -0.1727829 -0.7470199 0.1502399
v -0.1727829 -1 0.15024
v -0.1729196 -1 0.08138292
v -0.1729196 0.09328613 -0.3854046
v -0.1729196 0.06567749 -0.3832899
v -0.1729196 0.09320976 -0.3918586
v -0.1729196 0.06202003 -0.4499997
v -0.1729196 0.07025589 -0.4437757
v -0.1729196 0.09320976 -0.3918586
v -0.1729196 0.06567749 -0.3832899
v -0.1727829 0.878641 0.1502399
v -0.1729196 0.8642253 0.1450004
v -0.1729196 0.8654824 -0.4450004
v -0.1729196 0.8794227 -0.4499998
v -0.1727829 0.9879434 0.1502399
v -0.1729196 0.9879434 -0.4499998
v -0.1729196 1 0.1379439
v -0.1729196 1 -0.4379433
v -0.1729196 0.7982867 -0.3952113
v -0.1729196 0.7994189 0.09556305
v -0.1729196 0.7925342 -0.3854046
v -0.1729196 0.7925342 0.08527893
v -0.08812954 -0.673784 0.170079
v -0.08812954 0.07765297 0.170079
v 0.3804398 0.06567749 0.1700792
v 0.3841947 -1 0.170079
v 0.3825541 0.09328613 0.170079
v -0.08812954 0.7925342 0.170079
v 0.3825541 0.7925342 0.170079
v -0.08423305 -1 0.170079
v -0.142944 -0.7243858 0.170079
v -0.08812954 -0.673784 0.170079
v -0.08423305 -1 0.170079
v -0.142944 -0.7243858 0.170079
v -0.08423305 -1 0.170079
v -0.1530905 -1 0.1699208
v -0.1530905 -0.7470199 0.1699207
v 0.3825541 0.09328613 0.170079
v 0.3890091 0.09320976 0.1700793
v 0.3804398 0.06567749 0.1700792
v 0.4471488 -1 0.1700793
v 0.3841947 -1 0.170079
v 0.3804398 0.06567749 0.1700792
v 0.4471488 0.06202003 0.1700793
v 0.4471488 0.06202003 0.1700793
v 0.3804398 0.06567749 0.1700792
v 0.3890091 0.09320976 0.1700793
v 0.4409232 0.07025589 0.1700793
v -0.1530905 0.878641 0.1699208
v 0.4471488 0.8794227 0.1700791
v 0.4421488 0.8654824 0.1700791
v -0.1478512 0.8642253 0.1700791
v 0.4350931 1 0.1700791
v 0.4471488 0.9879434 0.1700791
v -0.1407956 1 0.1700791
v -0.1530905 0.9879434 0.1699208
v 0.3923587 0.7982867 0.1700791
v -0.09841274 0.7994189 0.1700791
v 0.3825541 0.7925342 0.170079
v -0.08812954 0.7925342 0.170079
v -0.1530905 -0.7470199 0.1699207
v -0.1530905 -1 0.1699208
v -0.1577291 -1 0.1548799
v -0.1577291 -0.7470199 0.1548799
v -0.1434518 -0.7243858 0.1555987
v -0.1478512 -0.7243858 0.1450007
v -0.1577291 -0.7470199 0.1548799
v -0.1577291 -1 0.1548799
v -0.1727829 -1 0.15024
v -0.1727829 -0.7470199 0.1502399
v -0.1478512 -0.7243858 0.1450007
v -0.1729196 1 0.1379439
v -0.1729196 1 -0.4379433
v 0.420679 1 -0.4380502
v -0.1563082 1 0.1384592
v 0.4326957 0.9879434 -0.4500697
v -0.1729196 0.9879434 -0.4499998
v -0.1727829 0.9879434 0.1502399
v 0.4432913 0.9879434 -0.4456652
v 0.4312747 1 -0.4336457
v -0.1457125 1 0.1428599
v -0.1577291 0.9879434 0.1548799
v -0.1729196 0.8642253 0.1450004
v -0.1727829 0.878641 0.1502399
v -0.1633444 0.8642253 0.1454945
v -0.1729196 0.7994189 0.09556305
v -0.1140573 0.7994189 0.09620613
v -0.1729196 0.7925342 0.08527893
v -0.1038034 0.7925342 0.08595316
v -0.1034567 0.7994189 0.1006075
v -0.09320766 0.7925342 0.09035465
v -0.1577291 0.878641 0.1548799
v -0.1577291 0.9879434 0.1548799
v -0.1727829 0.9879434 0.1502399
v -0.1527438 0.8642253 0.149895
v -0.1729196 0.7982867 -0.3952113
v -0.1729196 0.7925342 -0.3854046
v 0.3672709 0.7925342 -0.3851215
v 0.3770462 0.7982867 -0.3948982
v -0.1729196 0.8654824 -0.4450004
v 0.4277152 0.8654824 -0.4450856
v -0.1729196 0.8794227 -0.4499998
v 0.4326957 0.8794227 -0.4500697
v -0.1729196 0.9879434 -0.4499998
v 0.4326957 0.9879434 -0.4500697
v 0.438306 0.8654824 -0.4406811
v 0.4432913 0.8794227 -0.4456652
v 0.3876419 0.7982867 -0.3904938
v 0.4432913 0.9879434 -0.4456652
v 0.3778665 0.7925342 -0.3807171
v -0.1038034 0.7925342 0.08595316
v -0.1038034 0.07765304 0.08595318
v -0.1729196 0.07765297 0.08527893
v -0.1729196 0.7925342 0.08527893
v -0.1729196 -0.673784 0.08527893
v -0.1038034 -0.6737838 0.08595318
v -0.09320766 0.7925342 0.09035465
v -0.09320766 0.07765304 0.09035467
v -0.09320766 -0.6737838 0.09035467
v -0.1584518 -0.7243858 0.1406001
v -0.1727829 -0.7470199 0.1502399
v -0.1729196 -0.7243858 0.1400912
v -0.1038034 -0.6737838 0.08595318
v -0.1729196 -0.673784 0.08527893
v -0.1478512 -0.7243858 0.1450007
v -0.09320766 -0.6737838 0.09035467
v -0.1407956 1 0.1700791
v -0.1413082 1 0.1534579
v 0.435679 1 -0.4230515
v 0.4350931 1 0.1700791
v 0.4476956 0.9879434 -0.4350711
v 0.4471488 0.9879434 0.1700791
v -0.1530905 0.9879434 0.1699208
v 0.4312747 1 -0.4336457
v 0.4432913 0.9879434 -0.4456652
v -0.1457125 1 0.1428599
v -0.1577291 0.9879434 0.1548799
v -0.1478512 0.8642253 0.1700791
v -0.1483444 0.8642253 0.1604932
v -0.1530905 0.878641 0.1699208
v -0.09841274 0.7994189 0.1700791
v -0.09905727 0.7994189 0.1112048
v -0.08812954 0.7925342 0.170079
v -0.08880337 0.7925342 0.1009518
v -0.09320766 0.7925342 0.09035465
v -0.1034567 0.7994189 0.1006075
v -0.1527438 0.8642253 0.149895
v -0.1577291 0.878641 0.1548799
v -0.1530905 0.9879434 0.1699208
v -0.1577291 0.9879434 0.1548799
v 0.3923587 0.7982867 0.1700791
v 0.3920462 0.7982867 -0.3798995
v 0.3822708 0.7925342 -0.3701228
v 0.3825541 0.7925342 0.170079
v 0.4421488 0.8654824 0.1700791
v 0.4427103 0.8654824 -0.4300869
v 0.4471488 0.8794227 0.1700791
v 0.4476956 0.8794227 -0.4350711
v 0.4471488 0.9879434 0.1700791
v 0.4476956 0.9879434 -0.4350711
v 0.4432913 0.8794227 -0.4456652
v 0.438306 0.8654824 -0.4406811
v 0.3876419 0.7982867 -0.3904938
v 0.4432913 0.9879434 -0.4456652
v 0.3778665 0.7925342 -0.3807171
v -0.08880337 0.7925342 0.1009518
v -0.08812954 0.7925342 0.170079
v -0.08812954 0.07765297 0.170079
v -0.08880337 0.07765304 0.1009518
v -0.08812954 -0.673784 0.170079
v -0.08880337 -0.6737838 0.1009518
v -0.09320766 0.07765304 0.09035467
v -0.09320766 0.7925342 0.09035465
v -0.09320766 -0.6737838 0.09035467
v -0.1434518 -0.7243858 0.1555987
v -0.142944 -0.7243858 0.170079
v -0.1530905 -0.7470199 0.1699207
v -0.08880337 -0.6737838 0.1009518
v -0.08812954 -0.673784 0.170079
v -0.1478512 -0.7243858 0.1450007
v -0.09320766 -0.6737838 0.09035467
v -0.1483444 0.8642253 0.1604932
v -0.09905727 0.7994189 0.1112048
v -0.1034567 0.7994189 0.1006075
v -0.1527438 0.8642253 0.149895
vt 0.01986694 0.08703613
vt 0.0198822 0.1054688
vt 0.007427216 0.1054688
vt 0.007419586 0.08660889
vt 0.01982117 0.08630371
vt 0.4838867 0.2351074
vt 0.4899902 0.1904297
vt 0.4926758 0.2397461
vt 0.4838867 0.2351074
vt 0.4599609 0.2324219
vt 0.4589844 0.1901855
vt 0.4899902 0.1904297
vt 0.2546387 0.1696777
vt 0.2546387 0.1656494
vt 0.2668457 0.1834717
vt 0.2666016 0.1728516
vt 0.2666016 0.1746826
vt 0.2668457 0.1834717
vt 0.2546387 0.1656494
vt 0.006023407 0.1100464
vt 0.006156921 0.1096802
vt 0.02175903 0.1097412
vt 0.02189636 0.1101074
vt 0.006023407 0.1129761
vt 0.02189636 0.1129761
vt 0.006343842 0.1132813
vt 0.02157593 0.1132813
vt 0.02030945 0.1080933
vt 0.007595062 0.1081543
vt 0.02018738 0.1077881
vt 0.007736206 0.1077881
vt 0.007419586 0.06677246
vt 0.007419586 0.08660889
vt 0.01982117 0.08630371
vt 0.01991272 0.05819702
vt 0.01986694 0.08703613
vt 0.007427216 0.1054688
vt 0.0198822 0.1054688
vt 0.007419586 0.05819702
vt 0.4838867 0.2351074
vt 0.4926758 0.2397461
vt 0.4899902 0.1904297
vt 0.4838867 0.2351074
vt 0.4899902 0.1904297
vt 0.4589844 0.1901855
vt 0.4599609 0.2324219
vt 0.2546387 0.1696777
vt 0.2668457 0.1834717
vt 0.2546387 0.1656494
vt 0.2687988 0.004112244
vt 0.2570801 0.004833221
vt 0.2546387 0.1656494
vt 0.2666016 0.1728516
vt 0.2666016 0.1728516
vt 0.2546387 0.1656494
vt 0.2668457 0.1834717
vt 0.2666016 0.1746826
vt 0.006023407 0.1100464
vt 0.02189636 0.1101074
vt 0.02175903 0.1097412
vt 0.006156921 0.1096802
vt 0.02157593 0.1132813
vt 0.02189636 0.1129761
vt 0.006343842 0.1132813
vt 0.006023407 0.1129761
vt 0.02030945 0.1080933
vt 0.007595062 0.1081543
vt 0.02018738 0.1077881
vt 0.007736206 0.1077881
vt 0.4599609 0.2324219
vt 0.4589844 0.1901855
vt 0.4353027 0.1901855
vt 0.435791 0.2325439
vt 0.4365234 0.2366943
vt 0.4343262 0.2366943
vt 0.435791 0.2325439
vt 0.4353027 0.1901855
vt 0.4589844 0.1901855
vt 0.4599609 0.2324219
vt 0.4343262 0.2366943
vt 0.3129883 0.4555664
vt 0.3129883 0.3688965
vt 0.4438477 0.3688965
vt 0.357666 0.4555664
vt 0.4458008 0.3652344
vt 0.3129883 0.3652344
vt 0.3342285 0.4592285
vt 0.447998 0.3652344
vt 0.4460449 0.3688965
vt 0.3598633 0.4555664
vt 0.3579102 0.4592285
vt 0.3129883 0.4777832
vt 0.3342285 0.4755859
vt 0.3564453 0.4777832
vt 0.3129883 0.4899902
vt 0.3640137 0.4899902
vt 0.3129883 0.4921875
vt 0.3654785 0.4921875
vt 0.3662109 0.4899902
vt 0.3676758 0.4921875
vt 0.3579102 0.4755859
vt 0.3579102 0.4592285
vt 0.3342285 0.4592285
vt 0.3586426 0.4777832
vt 0.3129883 0.3344727
vt 0.3129883 0.3322754
vt 0.4360352 0.3322754
vt 0.4375 0.3344727
vt 0.3129883 0.3466797
vt 0.4450684 0.3466797
vt 0.3129883 0.348877
vt 0.4458008 0.348877
vt 0.3129883 0.3652344
vt 0.4458008 0.3652344
vt 0.4472656 0.3466797
vt 0.447998 0.348877
vt 0.4396973 0.3344727
vt 0.447998 0.3652344
vt 0.4382324 0.3322754
vt 0.25 0.05700684
vt 0.1422119 0.05700684
vt 0.1422119 0.04800415
vt 0.25 0.04800415
vt 0.02940369 0.04800415
vt 0.02940369 0.05700684
vt 0.25 0.05926514
vt 0.1422119 0.05926514
vt 0.02940369 0.05926514
vt 0.4365234 0.2366943
vt 0.4599609 0.2324219
vt 0.4816895 0.2364502
vt 0.4282227 0.2491455
vt 0.4814453 0.2490234
vt 0.4343262 0.2366943
vt 0.4257813 0.2491455
vt 0.3129883 0.4555664
vt 0.357666 0.4555664
vt 0.4438477 0.3688965
vt 0.3129883 0.3688965
vt 0.4458008 0.3652344
vt 0.3129883 0.3652344
vt 0.3342285 0.4592285
vt 0.4460449 0.3688965
vt 0.447998 0.3652344
vt 0.3598633 0.4555664
vt 0.3579102 0.4592285
vt 0.3129883 0.4777832
vt 0.3564453 0.4777832
vt 0.3342285 0.4755859
vt 0.3129883 0.4899902
vt 0.3640137 0.4899902
vt 0.3129883 0.4921875
vt 0.3654785 0.4921875
vt 0.3676758 0.4921875
vt 0.3662109 0.4899902
vt 0.3586426 0.4777832
vt 0.3579102 0.4755859
vt 0.3342285 0.4592285
vt 0.3579102 0.4592285
vt 0.3129883 0.3344727
vt 0.4375 0.3344727
vt 0.4360352 0.3322754
vt 0.3129883 0.3322754
vt 0.3129883 0.3466797
vt 0.4450684 0.3466797
vt 0.3129883 0.348877
vt 0.4458008 0.348877
vt 0.3129883 0.3652344
vt 0.4458008 0.3652344
vt 0.447998 0.348877
vt 0.4472656 0.3466797
vt 0.4396973 0.3344727
vt 0.447998 0.3652344
vt 0.4382324 0.3322754
vt 0.25 0.05700684
vt 0.25 0.04800415
vt 0.1422119 0.04800415
vt 0.1422119 0.05700684
vt 0.02940369 0.04800415
vt 0.02940369 0.05700684
vt 0.1422119 0.05926514
vt 0.25 0.05926514
vt 0.02940369 0.05926514
vt 0.4365234 0.2366943
vt 0.4816895 0.2364502
vt 0.4599609 0.2324219
vt 0.4282227 0.2491455
vt 0.4814453 0.2490234
vt 0.4343262 0.2366943
vt 0.4257813 0.2491455
vt 0.3564453 0.4777832
vt 0.3640137 0.4899902
vt 0.3662109 0.4899902
vt 0.3586426 0.4777832
vn -1 0 0
vn -1 0 0
vn -1 0 0
vn -1 0 0
vn -1 -4.708822E-05 0
vn -1 0 0
vn -1 0 0
vn -1 0 0
vn -0.9999943 -0.0003739358 0.003354235
vn -0.9999943 -0.0003739358 0.003354235
vn -0.9999943 -0.0003739358 0.003354235
vn -0.9999943 -0.0003739358 0.003354235
vn -1 0.000136889 0
vn -1 0.000136889 0
vn -1 0.000136889 0
vn -1 0 0
vn -1 0 0
vn -1 0 0
vn -1 0 0
vn -0.9999878 0.004931801 0.0001231249
vn -0.9999878 0.004931801 0.0001231249
vn -0.9999878 0.004931801 0.0001231249
vn -0.9999878 0.004931801 0.0001231249
vn -0.9999999 -0.0005687164 0.0002168609
vn -0.9999999 -0.0005687164 0.0002168609
vn -0.9999999 -0.0005687164 0.0002168609
vn -0.9999999 -0.0005687164 0.0002168609
vn -0.9999999 0.0006028302 0
vn -0.9999999 0.0006028302 0
vn -0.9999999 0.0006028302 0
vn -0.9999999 0.0006028302 0
vn -1.714831E-07 0 1
vn -1.714831E-07 0 1
vn -1.714831E-07 0 1
vn -1.714831E-07 0 1
vn 0 0 1
vn 0 0 1
vn 0 0 1
vn 0 0 1
vn 1.688057E-07 0 1
vn 1.688057E-07 0 1
vn 1.688057E-07 0 1
vn -0.003882775 -0.0004312031 0.9999924
vn -0.003882775 -0.0004312031 0.9999924
vn -0.003882775 -0.0004312031 0.9999924
vn -0.003882775 -0.0004312031 0.9999924
vn -3.356511E-05 8.236732E-06 1
vn -3.356511E-05 8.236732E-06 1
vn -3.356511E-05 8.236732E-06 1
vn -2.477955E-06 0 1
vn -2.477955E-06 0 1
vn -2.477955E-06 0 1
vn -2.477955E-06 0 1
vn -1.50628E-06 -2.060579E-06 1
vn -1.50628E-06 -2.060579E-06 1
vn -1.50628E-06 -2.060579E-06 1
vn -1.50628E-06 -2.060579E-06 1
vn -0.0001425466 0.005582311 0.9999844
vn -0.0001425466 0.005582311 0.9999844
vn -0.0001425466 0.005582311 0.9999844
vn -0.0001425466 0.005582311 0.9999844
vn -0.0002511142 -0.0006423229 0.9999998
vn -0.0002511142 -0.0006423229 0.9999998
vn -0.0002511142 -0.0006423229 0.9999998
vn -0.0002511142 -0.0006423229 0.9999998
vn 0 -1.20746E-05 1
vn 0 -1.20746E-05 1
vn 0 -1.20746E-05 1
vn 0 -1.20746E-05 1
vn -0.9555907 0 0.2946971
vn -0.9555907 0 0.2946971
vn -0.7837259 -0.03417539 0.6201659
vn -0.7837259 -0.03417539 0.6201659
vn -0.676282 0.7365804 0.009599745
vn -0.4335354 0.7899474 0.4336243
vn -0.7837259 -0.03417539 0.6201659
vn -0.7837259 -0.03417539 0.6201659
vn -0.2946058 0 0.9556189
vn -0.2946058 0 0.9556189
vn -0.4335354 0.7899474 0.4336243
vn 0 1 0
vn 0 1 0
vn 0 1 0
vn 0 1 0
vn 0 0 -1
vn 0 0 -1
vn -0.2884824 0.1018692 0.9520508
vn 0.7024533 0.1141212 -0.702521
vn 0 1 0
vn 0 1 0
vn -0.6981583 0.1568597 0.6985486
vn -0.01406431 -0.6031464 0.7975065
vn -0.2940597 -0.04098145 0.9549081
vn -0.07571901 -0.619814 0.7810872
vn -0.01162067 -0.6648951 0.7468463
vn -0.0914617 -0.7159531 0.6921314
vn -0.009799529 0 0.999952
vn -0.009799529 0 0.999952
vn -0.4489902 -0.7725127 0.4490344
vn -0.7069879 -0.01561843 0.7070531
vn -0.7055353 -0.06230602 0.7059305
vn -0.6981583 0.1568597 0.6985486
vn -0.2884824 0.1018692 0.9520508
vn -0.5030345 -0.7027379 0.5031059
vn 0.0002000025 -0.5969074 -0.80231
vn 0 0 -1
vn 0 0 -1
vn 0.0002000025 -0.5969074 -0.80231
vn 0.0002000025 -0.5969074 -0.80231
vn 0.0002000025 -0.5969074 -0.80231
vn 0 0 -1
vn 0 0 -1
vn 0 0 -1
vn 0 0 -1
vn 0.515795 -0.6847131 -0.5149015
vn 0.7061336 -0.0517903 -0.7061821
vn 0.4677601 -0.7495537 -0.4683692
vn 0.7024533 0.1141212 -0.702521
vn 0.2716218 -0.9232754 -0.2716326
vn -0.009799529 0 0.999952
vn -0.009799529 0 0.999952
vn -0.009799529 0 0.999952
vn -0.009799529 0 0.999952
vn -0.009799529 0 0.999952
vn -0.009799529 0 0.999952
vn -0.7069879 -0.01561843 0.7070531
vn -0.7070745 3.853817E-07 0.707139
vn -0.7070748 0 0.7071388
vn -0.009599745 0.7365804 0.676282
vn -0.2946058 0 0.9556189
vn -0.009599745 0.7365804 0.676282
vn -0.009599745 0.7365804 0.676282
vn -0.009599745 0.7365804 0.676282
vn -0.4335354 0.7899474 0.4336243
vn -0.3873055 0.8366348 0.3873459
vn 0 1 0
vn 0 1 0
vn 0 1 0
vn 0 1 0
vn 1 0 0
vn 1 0 0
vn -0.9519971 0.1019984 0.2886137
vn 0 1 0
vn 0.7024533 0.1141212 -0.702521
vn 0 1 0
vn -0.6981583 0.1568597 0.6985486
vn -0.7975353 -0.6031083 0.01406144
vn -0.7811232 -0.6197732 0.0756827
vn -0.9548644 -0.04100601 0.294198
vn -0.7468538 -0.6648867 0.01162212
vn -0.6921321 -0.7159566 0.09142924
vn -0.999953 0 0.009699545
vn -0.999953 0 0.009699545
vn -0.7069879 -0.01561843 0.7070531
vn -0.4489902 -0.7725127 0.4490344
vn -0.5030345 -0.7027379 0.5031059
vn -0.7055353 -0.06230602 0.7059305
vn -0.9519971 0.1019984 0.2886137
vn -0.6981583 0.1568597 0.6985486
vn 0.8009829 -0.5986872 0.0001999957
vn 0.8009829 -0.5986872 0.0001999957
vn 1 0 0
vn 1 0 0
vn 0.8009829 -0.5986872 0.0001999957
vn 0.8009829 -0.5986872 0.0001999957
vn 1 0 0
vn 1 0 0
vn 1 0 0
vn 1 0 0
vn 0.7061336 -0.0517903 -0.7061821
vn 0.515795 -0.6847131 -0.5149015
vn 0.4677601 -0.7495537 -0.4683692
vn 0.7024533 0.1141212 -0.702521
vn 0.2716218 -0.9232754 -0.2716326
vn -0.999953 0 0.009699545
vn -0.999953 0 0.009699545
vn -0.999953 0 0.009699545
vn -0.999953 0 0.009699545
vn -0.999953 0 0.009699545
vn -0.999953 0 0.009699545
vn -0.7070745 3.853817E-07 0.707139
vn -0.7069879 -0.01561843 0.7070531
vn -0.7070748 0 0.7071388
vn -0.676282 0.7365804 0.009599745
vn -0.676282 0.7365804 0.009599745
vn -0.9555907 0 0.2946971
vn -0.676282 0.7365804 0.009599745
vn -0.676282 0.7365804 0.009599745
vn -0.4335354 0.7899474 0.4336243
vn -0.3873055 0.8366348 0.3873459
vn -0.7811232 -0.6197732 0.0756827
vn -0.6921321 -0.7159566 0.09142924
vn -0.4489902 -0.7725127 0.4490344
vn -0.5030345 -0.7027379 0.5031059
g m_city_wall_left_angle_02_0
f 3/3/3 2/2/2 1/1/1
f 4/4/4 3/3/3 1/1/1
f 4/4/4 1/1/1 5/5/5
f 8/8/8 7/7/7 6/6/6
f 11/11/11 10/10/10 9/9/9
f 12/12/12 11/11/11 9/9/9
f 15/15/15 14/14/14 13/13/13
f 18/18/18 17/17/17 16/16/16
f 19/19/19 18/18/18 16/16/16
f 22/22/22 21/21/21 20/20/20
f 23/23/23 22/22/22 20/20/20
f 23/23/23 20/20/20 24/24/24
f 24/24/24 25/25/25 23/23/23
f 24/24/24 26/26/26 25/25/25
f 26/26/26 27/27/27 25/25/25
f 22/22/22 28/28/28 21/21/21
f 28/28/28 29/29/29 21/21/21
f 28/28/28 30/30/30 29/29/29
f 30/30/30 31/31/31 29/29/29
f 34/34/34 33/33/33 32/32/32
f 35/35/35 34/34/34 32/32/32
f 36/36/36 33/33/33 34/34/34
f 37/37/37 33/33/33 36/36/36
f 38/38/38 37/37/37 36/36/36
f 39/39/39 35/35/35 32/32/32
f 42/42/42 41/41/41 40/40/40
f 45/45/45 44/44/44 43/43/43
f 46/46/46 45/45/45 43/43/43
f 49/49/49 48/48/48 47/47/47
f 52/52/52 51/51/51 50/50/50
f 53/53/53 52/52/52 50/50/50
f 56/56/56 55/55/55 54/54/54
f 57/57/57 56/56/56 54/54/54
f 60/60/60 59/59/59 58/58/58
f 61/61/61 60/60/60 58/58/58
f 62/62/62 58/58/58 59/59/59
f 59/59/59 63/63/63 62/62/62
f 62/62/62 64/64/64 58/58/58
f 64/64/64 65/65/65 58/58/58
f 66/66/66 60/60/60 61/61/61
f 67/67/67 66/66/66 61/61/61
f 68/68/68 66/66/66 67/67/67
f 69/69/69 68/68/68 67/67/67
f 72/72/72 71/71/71 70/70/70
f 73/73/73 72/72/72 70/70/70
f 70/70/70 74/74/74 73/73/73
f 74/74/74 75/75/75 73/73/73
f 78/78/78 77/77/77 76/76/76
f 79/79/79 78/78/78 76/76/76
f 76/76/76 80/80/80 79/79/79
f 83/83/83 82/82/82 81/81/81
f 84/84/84 83/83/83 81/81/81
f 82/82/82 83/83/83 85/85/85
f 86/86/86 82/82/82 85/85/85
f 81/81/81 87/87/87 84/84/84
f 88/88/88 85/85/85 83/83/83
f 89/89/89 88/88/88 83/83/83
f 83/83/83 84/84/84 89/89/89
f 84/84/84 90/90/90 89/89/89
f 84/84/84 87/87/87 90/90/90
f 87/87/87 91/91/91 90/90/90
f 94/94/94 93/93/93 92/92/92
f 92/92/92 95/95/95 94/94/94
f 95/95/95 96/96/96 94/94/94
f 95/95/95 97/97/97 96/96/96
f 97/97/97 98/98/98 96/96/96
f 99/99/99 96/96/96 98/98/98
f 100/100/100 99/99/99 98/98/98
f 93/93/93 94/94/94 101/101/101
f 101/101/101 102/102/102 93/93/93
f 102/102/102 103/103/103 93/93/93
f 94/94/94 104/104/104 101/101/101
f 96/96/96 99/99/99 104/104/104
f 94/94/94 96/96/96 104/104/104
f 107/107/107 106/106/106 105/105/105
f 108/108/108 107/107/107 105/105/105
f 105/105/105 109/109/109 108/108/108
f 109/109/109 110/110/110 108/108/108
f 109/109/109 111/111/111 110/110/110
f 111/111/111 112/112/112 110/110/110
f 111/111/111 113/113/113 112/112/112
f 113/113/113 114/114/114 112/112/112
f 115/115/115 110/110/110 112/112/112
f 116/116/116 115/115/115 112/112/112
f 112/112/112 114/114/114 116/116/116
f 117/117/117 108/108/108 110/110/110
f 115/115/115 117/117/117 110/110/110
f 114/114/114 118/118/118 116/116/116
f 108/108/108 117/117/117 119/119/119
f 107/107/107 108/108/108 119/119/119
f 122/122/122 121/121/121 120/120/120
f 123/123/123 122/122/122 120/120/120
f 122/122/122 124/124/124 121/121/121
f 124/124/124 125/125/125 121/121/121
f 126/126/126 120/120/120 121/121/121
f 127/127/127 126/126/126 121/121/121
f 121/121/121 125/125/125 127/127/127
f 125/125/125 128/128/128 127/127/127
f 131/131/131 130/130/130 129/129/129
f 131/131/131 129/129/129 132/132/132
f 133/133/133 131/131/131 132/132/132
f 134/134/134 129/129/129 130/130/130
f 129/129/129 134/134/134 135/135/135
f 132/132/132 129/129/129 135/135/135
f 138/138/138 137/137/137 136/136/136
f 139/139/139 138/138/138 136/136/136
f 138/138/138 139/139/139 140/140/140
f 139/139/139 141/141/141 140/140/140
f 142/142/142 136/136/136 137/137/137
f 138/138/138 140/140/140 143/143/143
f 140/140/140 144/144/144 143/143/143
f 145/145/145 137/137/137 138/138/138
f 143/143/143 145/145/145 138/138/138
f 146/146/146 142/142/142 137/137/137
f 145/145/145 146/146/146 137/137/137
f 149/149/149 148/148/148 147/147/147
f 150/150/150 147/147/147 148/148/148
f 151/151/151 150/150/150 148/148/148
f 152/152/152 150/150/150 151/151/151
f 153/153/153 152/152/152 151/151/151
f 153/153/153 151/151/151 154/154/154
f 151/151/151 155/155/155 154/154/154
f 156/156/156 148/148/148 149/149/149
f 157/157/157 156/156/156 149/149/149
f 149/149/149 158/158/158 157/157/157
f 158/158/158 159/159/159 157/157/157
f 162/162/162 161/161/161 160/160/160
f 163/163/163 162/162/162 160/160/160
f 164/164/164 160/160/160 161/161/161
f 165/165/165 164/164/164 161/161/161
f 166/166/166 164/164/164 165/165/165
f 167/167/167 166/166/166 165/165/165
f 168/168/168 166/166/166 167/167/167
f 169/169/169 168/168/168 167/167/167
f 167/167/167 165/165/165 170/170/170
f 165/165/165 171/171/171 170/170/170
f 165/165/165 161/161/161 171/171/171
f 161/161/161 172/172/172 171/171/171
f 172/172/172 161/161/161 162/162/162
f 173/173/173 169/169/169 167/167/167
f 170/170/170 173/173/173 167/167/167
f 174/174/174 172/172/172 162/162/162
f 177/177/177 176/176/176 175/175/175
f 178/178/178 177/177/177 175/175/175
f 179/179/179 177/177/177 178/178/178
f 180/180/180 179/179/179 178/178/178
f 178/178/178 175/175/175 181/181/181
f 175/175/175 182/182/182 181/181/181
f 183/183/183 180/180/180 178/178/178
f 181/181/181 183/183/183 178/178/178
f 186/186/186 185/185/185 184/184/184
f 184/184/184 185/185/185 187/187/187
f 185/185/185 188/188/188 187/187/187
f 189/189/189 184/184/184 187/187/187
f 190/190/190 189/189/189 187/187/187
f 193/193/193 192/192/192 191/191/191
f 194/194/194 193/193/193 191/191/191
