g m_city_wall_end_01
v 0.6620668 1.865482 0.2947626
v 0.6000062 1.865482 0.295
v 0.6000062 1.879423 0.2999973
v 0.6670521 1.879423 0.2997467
v 0.6000062 1.987943 0.2999973
v 0.6670521 1.987943 0.2997467
v 0.6124281 1.798287 0.2451261
v 0.6000062 1.798287 0.2452329
v 0.6726625 1.865482 0.290358
v 0.6776478 1.879423 0.2953421
v 0.6230238 1.798287 0.2407217
v 0.6776478 1.987943 0.2953421
v 0.6000062 1.792534 0.23539
v 0.6670521 1.987943 0.2997467
v 0.6000062 1.987943 0.2999973
v 0.6000062 2 0.2879459
v 0.6550307 2 0.2877271
v 0.6776478 1.987943 0.2953421
v 0.6656263 2 0.2833226
v 0.6820521 1.987943 0.2847479
v 0.6700307 2 0.2727284
v 0.6656263 2 -1.350325E-06
v 0.6707435 2 -1.350325E-06
v 0.6700307 2 -0.2727311
v 0.6656263 2 -0.2833253
v 0.6820521 1.987943 -0.2847506
v 0.6776478 1.987943 -0.2953448
v 0.6550307 2 -0.2877298
v 0.6670521 1.987943 -0.2997493
v 0.6000062 2 -0.2879484
v 0.6000062 1.987943 -0.3
v 0.6550307 2 -1.350325E-06
v 0.6000062 2 -1.350325E-06
v 0.6770668 1.865482 0.279764
v 0.6820521 1.879423 0.2847479
v 0.6827943 1.879423 -1.350325E-06
v 0.6777992 1.865482 -1.350325E-06
v 0.6827943 1.987943 -1.350325E-06
v 0.6820521 1.987943 0.2847479
v 0.6274281 1.798287 0.2301273
v 0.6280238 1.798287 -1.350325E-06
v 0.6707435 2 -1.350325E-06
v 0.6700307 2 0.2727284
v 0.6776478 1.879423 0.2953421
v 0.6726625 1.865482 0.290358
v 0.6230238 1.798287 0.2407217
v 0.6776478 1.987943 0.2953421
v 0.6176673 1.792604 0.2203743
v 0.6182191 1.792534 -1.350325E-06
v 0.6770668 1.865482 -0.2797665
v 0.6820521 1.879423 -0.2847506
v 0.6820521 1.987943 -0.2847506
v 0.6274281 1.798287 -0.23013
v 0.6700307 2 -0.2727311
v 0.6776478 1.879423 -0.2953448
v 0.6726625 1.865482 -0.2903607
v 0.6230238 1.798287 -0.2407243
v 0.6776478 1.987943 -0.2953448
v 0.6176527 1.792534 -0.2203532
v 0.6176673 1.792604 0.2203743
v 0.6132484 1.792534 0.2309448
v 0.6230238 1.798287 0.2407217
v 0.6274281 1.798287 0.2301273
v 0.6124281 1.798287 0.2451261
v 0.6000062 1.792534 0.23539
v 0.6620668 1.865482 -0.2947651
v 0.6670521 1.879423 -0.2997493
v 0.6000062 1.879423 -0.3
v 0.6000062 1.865482 -0.2950026
v 0.6000062 1.987943 -0.3
v 0.6670521 1.987943 -0.2997493
v 0.6124281 1.798287 -0.2451287
v 0.6000062 1.798287 -0.2452355
v 0.6726625 1.865482 -0.2903607
v 0.6776478 1.879423 -0.2953448
v 0.6230238 1.798287 -0.2407243
v 0.6776478 1.987943 -0.2953448
v 0.6000062 1.792534 -0.2353926
v 0.6176527 1.792534 -0.2203532
v 0.6274281 1.798287 -0.23013
v 0.6230238 1.798287 -0.2407243
v 0.6132484 1.792534 -0.2309475
v 0.6124281 1.798287 -0.2451287
v 0.6000062 1.792534 -0.2353926
v 0.6000062 1.798287 -0.2452355
v 0.6000062 1.798287 0.2452329
v 0.6000062 1.792534 0.23539
v 0.6000062 1.792534 -0.2353926
v 0.6000062 1.865482 -0.2950026
v 0.6000062 1.865482 0.295
v 0.6000062 1.879423 -0.3
v 0.6000062 1.879423 0.2999973
v 0.6000062 1.987943 -0.3
v 0.6000062 1.987943 0.2999973
v 0.6000062 2 -1.350325E-06
v 0.6000062 2 0.2879459
v 0.6000062 2 -0.2879484
v 0.6670521 1.06202 0.2997464
v 0.6670521 0 0.2997464
v 0.6000062 0 0.2999971
v 0.6000062 1.06202 0.2999971
v 0.6776429 0 0.295342
v 0.6776429 1.06202 0.295342
v 0.6608461 1.070256 0.2935416
v 0.6000062 1.070256 0.2937758
v 0.6608461 1.070256 0.2935416
v 0.6000062 1.070256 0.2937758
v 0.6000062 1.09321 0.2418817
v 0.6090882 1.09321 0.2417836
v 0.6714418 1.070256 0.2891371
v 0.6196839 1.09321 0.2373792
v 0.6000062 1.093286 0.23539
v 0.6132484 1.093286 0.230945
v 0.6240882 1.09321 0.226785
v 0.6176527 1.093286 0.2203507
v 0.6758461 1.070256 0.278543
v 0.6246742 1.09321 -1.350325E-06
v 0.6765736 1.070256 -1.350325E-06
v 0.6820472 1.06202 0.2847479
v 0.6776429 1.06202 0.295342
v 0.6670521 1.06202 0.2997464
v 0.6182191 1.093286 -1.350325E-06
v 0.6758461 1.070256 -0.2785456
v 0.6240882 1.09321 -0.2267875
v 0.6196839 1.09321 -0.2373819
v 0.6132484 1.093286 -0.2309475
v 0.6000062 1.093286 -0.2353926
v 0.6090882 1.09321 -0.2417862
v 0.6176527 1.093286 -0.2203533
v 0.6714418 1.070256 -0.2891398
v 0.6608461 1.070256 -0.2935443
v 0.6000062 1.09321 -0.2418844
v 0.6000062 1.070256 -0.2937784
v 0.6820472 1.06202 -0.2847505
v 0.6776429 1.06202 -0.2953447
v 0.6670521 1.06202 -0.2997491
v 0.6827943 1.06202 -1.350325E-06
v 0.6176527 1.093286 0.2203507
v 0.6176673 1.792604 0.2203743
v 0.6182191 1.792534 -1.350325E-06
v 0.6182191 1.093286 -1.350325E-06
v 0.6132484 1.792534 0.2309448
v 0.6132484 1.093286 0.230945
v 0.6820521 0 0.2847478
v 0.6820472 1.06202 0.2847479
v 0.6827943 1.06202 -1.350325E-06
v 0.6827943 0 -1.350325E-06
v 0.6776429 1.06202 0.295342
v 0.6776429 0 0.295342
v 0.6765736 1.070256 -1.350325E-06
v 0.6820521 0 -0.2847505
v 0.6820472 1.06202 -0.2847505
v 0.6776429 1.06202 -0.2953447
v 0.6776429 0 -0.2953447
v 0.6000062 1.792534 0.23539
v 0.6132484 1.792534 0.2309448
v 0.6132484 1.093286 0.230945
v 0.6000062 1.093286 0.23539
v 0.6670521 1.06202 -0.2997491
v 0.6000062 1.06202 -0.2999998
v 0.6000062 0 -0.2999998
v 0.6670521 0 -0.2997491
v 0.6776429 0 -0.2953447
v 0.6776429 1.06202 -0.2953447
v 0.6608461 1.070256 -0.2935443
v 0.6000062 1.070256 -0.2937784
v 0.6176527 1.093286 -0.2203533
v 0.6182191 1.093286 -1.350325E-06
v 0.6182191 1.792534 -1.350325E-06
v 0.6176527 1.792534 -0.2203532
v 0.6132484 1.792534 -0.2309475
v 0.6132484 1.093286 -0.2309475
v 0.6000062 1.792534 -0.2353926
v 0.6000062 1.093286 -0.2353926
v 0.6132484 1.093286 -0.2309475
v 0.6132484 1.792534 -0.2309475
v 0.6000062 0 0.2999971
v 0.6000062 0 -0.2999998
v 0.6000062 1.06202 -0.2999998
v 0.6000062 1.06202 0.2999971
v 0.6000062 1.070256 -0.2937784
v 0.6000062 1.070256 0.2937758
v 0.6000062 1.093286 0.23539
v 0.6000062 1.093286 -0.2353926
v 0.6000062 1.093286 0.23539
v 0.6000062 1.093286 -0.2353926
v 0.6000062 1.792534 -0.2353926
v 0.6000062 1.792534 0.23539
v 0.6000062 1.09321 -0.2418844
v 0.6000062 1.093286 -0.2353926
v 0.6000062 1.070256 -0.2937784
v 0.6000062 1.070256 0.2937758
v 0.6000062 1.093286 0.23539
v 0.6000062 1.09321 0.2418817
vt 0.8530273 0.2084961
vt 0.8378906 0.2084961
vt 0.8378906 0.2106934
vt 0.8525391 0.2106934
vt 0.8378906 0.2270508
vt 0.8505859 0.2270508
vt 0.8554688 0.196167
vt 0.8378906 0.196167
vt 0.8549805 0.2084961
vt 0.8544922 0.2106934
vt 0.8603516 0.196167
vt 0.8520508 0.2270508
vt 0.8378906 0.1940918
vt 0.8505859 0.2270508
vt 0.8378906 0.2270508
vt 0.8417969 0.2453613
vt 0.8500977 0.2363281
vt 0.8520508 0.2270508
vt 0.8525391 0.2349854
vt 0.8535156 0.2270508
vt 0.8549805 0.2325439
vt 0.9106445 0.2364502
vt 0.9106445 0.2330322
vt 0.9677734 0.2331543
vt 0.9702148 0.2353516
vt 0.9702148 0.2270508
vt 0.9716797 0.2270508
vt 0.9716797 0.2368164
vt 0.9736328 0.2270508
vt 0.9799805 0.2453613
vt 0.9868164 0.2270508
vt 0.9106445 0.2393799
vt 0.9106445 0.2521973
vt 0.8564453 0.2084961
vt 0.855957 0.2106934
vt 0.9106445 0.2108154
vt 0.9106445 0.2084961
vt 0.9106445 0.2270508
vt 0.8535156 0.2270508
vt 0.862793 0.196167
vt 0.9106445 0.196167
vt 0.9106445 0.2330322
vt 0.8549805 0.2325439
vt 0.8544922 0.2106934
vt 0.8549805 0.2084961
vt 0.8603516 0.196167
vt 0.8520508 0.2270508
vt 0.8642578 0.1940918
vt 0.9106445 0.1940918
vt 0.9672852 0.2084961
vt 0.9677734 0.2108154
vt 0.9702148 0.2270508
vt 0.9609375 0.196167
vt 0.9677734 0.2331543
vt 0.9697266 0.2108154
vt 0.9692383 0.2084961
vt 0.9633789 0.196167
vt 0.9716797 0.2270508
vt 0.9594727 0.1940918
vt 0.8642578 0.1940918
vt 0.8618164 0.1940918
vt 0.8603516 0.196167
vt 0.862793 0.196167
vt 0.8554688 0.196167
vt 0.8378906 0.1940918
vt 0.9707031 0.2084961
vt 0.9711914 0.2108154
vt 0.9868164 0.2108154
vt 0.9868164 0.2086182
vt 0.9868164 0.2270508
vt 0.9736328 0.2270508
vt 0.9682617 0.196167
vt 0.9868164 0.196167
vt 0.9692383 0.2084961
vt 0.9697266 0.2108154
vt 0.9633789 0.196167
vt 0.9716797 0.2270508
vt 0.9868164 0.1940918
vt 0.9594727 0.1940918
vt 0.9609375 0.196167
vt 0.9633789 0.196167
vt 0.9619141 0.1940918
vt 0.9682617 0.196167
vt 0.9868164 0.1940918
vt 0.364502 0.3945313
vt 0.451416 0.3945313
vt 0.449707 0.3935547
vt 0.3662109 0.3935547
vt 0.355957 0.40625
vt 0.4599609 0.40625
vt 0.3549805 0.4086914
vt 0.4606934 0.4086914
vt 0.3549805 0.4272461
vt 0.4606934 0.4272461
vt 0.4069824 0.4294434
vt 0.4587402 0.4294434
vt 0.3571777 0.4294434
vt 0.7944336 0.1728516
vt 0.7924805 0.004489899
vt 0.7705078 0.004367828
vt 0.7705078 0.1728516
vt 0.7993164 0.004497528
vt 0.7993164 0.1728516
vt 0.7924805 0.1745605
vt 0.7705078 0.1745605
vt 0.7924805 0.1745605
vt 0.7705078 0.1745605
vt 0.7705078 0.1833496
vt 0.777832 0.1833496
vt 0.7993164 0.1745605
vt 0.7993164 0.1833496
vt 0.7705078 0.1859131
vt 0.7993164 0.1859131
vt 0.8193359 0.1833496
vt 0.8203125 0.1859131
vt 0.8051758 0.1745605
vt 0.8813477 0.1833496
vt 0.8813477 0.1745605
vt 0.8032227 0.1728516
vt 0.7993164 0.1728516
vt 0.7944336 0.1728516
vt 0.8813477 0.1859131
vt 0.9580078 0.1745605
vt 0.9433594 0.1833496
vt 0.9638672 0.1833496
vt 0.9638672 0.1859131
vt 0.9892578 0.1859131
vt 0.984375 0.1833496
vt 0.9423828 0.1859131
vt 0.9638672 0.1745605
vt 0.9692383 0.1745605
vt 0.9892578 0.1833496
vt 0.9892578 0.1745605
vt 0.9594727 0.1728516
vt 0.9638672 0.1728516
vt 0.9682617 0.1728516
vt 0.8813477 0.1728516
vt 0.06854248 0.7158203
vt 0.06854248 0.8378906
vt 0.1068115 0.8378906
vt 0.1068115 0.7158203
vt 0.06634521 0.8378906
vt 0.06634521 0.7158203
vt 0.8046875 0.004489899
vt 0.8032227 0.1728516
vt 0.8813477 0.1728516
vt 0.8813477 0.004367828
vt 0.7993164 0.1728516
vt 0.7993164 0.004497528
vt 0.8813477 0.1745605
vt 0.9580078 0.004489899
vt 0.9594727 0.1728516
vt 0.9638672 0.1728516
vt 0.9638672 0.004497528
vt 0.06878662 0.8378906
vt 0.06634521 0.8378906
vt 0.06634521 0.7158203
vt 0.06878662 0.7158203
vt 0.9682617 0.1728516
vt 0.9892578 0.1728516
vt 0.9892578 0.004367828
vt 0.9692383 0.004489899
vt 0.9638672 0.004497528
vt 0.9638672 0.1728516
vt 0.9692383 0.1745605
vt 0.9892578 0.1745605
vt 0.06848145 0.7158203
vt 0.1067505 0.7158203
vt 0.1067505 0.8378906
vt 0.06848145 0.8378906
vt 0.06622314 0.8378906
vt 0.06622314 0.7158203
vt 0.06866455 0.8378906
vt 0.06866455 0.7158203
vt 0.06622314 0.7158203
vt 0.06622314 0.8378906
vt 0.2731934 0.004375458
vt 0.411377 0.004375458
vt 0.411377 0.1728516
vt 0.2731934 0.1728516
vt 0.4099121 0.1745605
vt 0.2746582 0.1745605
vt 0.2880859 0.1860352
vt 0.3964844 0.1860352
vt 0.1374512 0.8706055
vt 0.05657959 0.8706055
vt 0.05657959 0.9921875
vt 0.1374512 0.9921875
vt 0.3979492 0.1834717
vt 0.3964844 0.1860352
vt 0.4099121 0.1745605
vt 0.2746582 0.1745605
vt 0.2880859 0.1860352
vt 0.2866211 0.1860352
vn 0.09174591 -0.5654735 0.8196478
vn 0.003706411 -0.539058 0.8422604
vn 0.003739651 -0.03941685 0.9992158
vn 0.06175381 -0.03637153 0.9974285
vn 0.003732265 0.09134397 0.9958124
vn 0.06291798 0.07339885 0.995316
vn 0.05565543 -0.6361217 0.7695789
vn 0.003734998 -0.6025373 0.798082
vn 0.5185978 -0.6797655 0.5186283
vn 0.7061277 -0.05181814 0.706186
vn 0.4693466 -0.7466334 0.4714364
vn 0.7024583 0.1141488 0.7025115
vn 0.1082792 -0.9053093 0.4107195
vn 0.06291798 0.07339885 0.995316
vn 0.003732265 0.09134397 0.9958124
vn 0.0001713236 0.9990076 0.0445408
vn 0.00239513 0.9983059 0.05813506
vn 0.7024583 0.1141488 0.7025115
vn 0.04763521 0.9977282 0.0476388
vn 0.9976535 0.06597998 0.01828034
vn 0.5564023 0.8308887 0.006363647
vn 0 1 0
vn 0.5834743 0.8121316 0
vn 0.5564272 0.8308719 -0.006363265
vn 0.04763349 0.9977278 -0.04764656
vn 0.9976539 0.06597477 -0.01828013
vn 0.7024517 0.1141298 -0.7025212
vn 0.002395582 0.9983058 -0.05813697
vn 0.06291939 0.07339922 -0.9953159
vn 0.0001712307 0.9990076 -0.04454094
vn 0.003733593 0.09133991 -0.9958127
vn 0 1 0
vn 0 1 0
vn 0.8392498 -0.5433027 0.02194971
vn 0.9992599 -0.03402136 0.01795049
vn 0.9991816 -0.04045038 0
vn 0.8310482 -0.5562004 0
vn 0.9952374 0.09748179 0
vn 0.9976535 0.06597998 0.01828034
vn 0.7879359 -0.6156612 0.01087554
vn 0.777661 -0.6286837 5.815384E-06
vn 0.5834743 0.8121316 0
vn 0.5564023 0.8308887 0.006363647
vn 0.7061277 -0.05181814 0.706186
vn 0.5185978 -0.6797655 0.5186283
vn 0.4693466 -0.7466334 0.4714364
vn 0.7024583 0.1141488 0.7025115
vn 0.500506 -0.8657094 0.006399375
vn 0.5051907 -0.8630078 5.421895E-05
vn 0.8392419 -0.5433152 -0.02194913
vn 0.9992599 -0.03401945 -0.01795072
vn 0.9976539 0.06597477 -0.01828013
vn 0.7879333 -0.6156644 -0.01088568
vn 0.5564272 0.8308719 -0.006363265
vn 0.7061256 -0.05182225 -0.7061877
vn 0.5186408 -0.6797078 -0.5186609
vn 0.4693537 -0.7465639 -0.4715393
vn 0.7024517 0.1141298 -0.7025212
vn 0.5023851 -0.8646206 -0.006354687
vn 0.500506 -0.8657094 0.006399375
vn 0.2542494 -0.925879 0.2794732
vn 0.4693466 -0.7466334 0.4714364
vn 0.7879359 -0.6156612 0.01087554
vn 0.05565543 -0.6361217 0.7695789
vn 0.1082792 -0.9053093 0.4107195
vn 0.09174141 -0.5654844 -0.8196407
vn 0.06175396 -0.0363746 -0.9974284
vn 0.003741327 -0.03942052 -0.9992157
vn 0.003705308 -0.539045 -0.8422689
vn 0.003733593 0.09133991 -0.9958127
vn 0.06291939 0.07339922 -0.9953159
vn 0.05565235 -0.6361265 -0.7695752
vn 0.003732944 -0.6025078 -0.7981043
vn 0.5186408 -0.6797078 -0.5186609
vn 0.7061256 -0.05182225 -0.7061877
vn 0.4693537 -0.7465639 -0.4715393
vn 0.7024517 0.1141298 -0.7025212
vn 0.1082626 -0.9053365 -0.4106641
vn 0.5023851 -0.8646206 -0.006354687
vn 0.7879333 -0.6156644 -0.01088568
vn 0.4693537 -0.7465639 -0.4715393
vn 0.2543453 -0.9255863 -0.2803541
vn 0.05565235 -0.6361265 -0.7695752
vn 0.1082626 -0.9053365 -0.4106641
vn -1 0 0
vn -1 0 0
vn -1 0 0
vn -1 0 0
vn -1 0 0
vn -1 0 0
vn -1 0 0
vn -1 0 0
vn -1 1.123007E-05 0
vn -1 1.40377E-06 0
vn -1 6.297395E-06 0
vn -1 0.0001125182 0
vn -0.9999996 0.0009001467 0
vn 0.06005746 0.004467806 0.9981849
vn 0.05985183 0 0.9982073
vn 0.003738677 0 0.9999931
vn 0.003739016 0.005541241 0.9999777
vn 0.707129 2.167645E-06 0.7070845
vn 0.7071131 0.006738035 0.7070684
vn 0.05402248 0.8585609 0.5098576
vn 0.001519672 0.8572201 0.514948
vn 0.05402248 0.8585609 0.5098576
vn 0.001519672 0.8572201 0.514948
vn -0.06039393 0.9153091 0.3981982
vn 0.0226102 0.9285791 0.3704452
vn 0.2689931 0.9248235 0.2689685
vn 0.1973492 0.9602538 0.1973978
vn -0.1936719 0.9810269 0.008801154
vn 0.005486234 0.9999666 0.006051156
vn 0.3880446 0.9216299 0.00443773
vn 0.01171978 0.9999313 0.0001432666
vn 0.5358526 0.8441961 0.01396021
vn 0.371212 0.9285482 1.122172E-07
vn 0.4795553 0.8775117 1.047067E-07
vn 0.9998389 0.003994655 0.01749766
vn 0.7071131 0.006738035 0.7070684
vn 0.06005746 0.004467806 0.9981849
vn 0.01183495 0.99993 0
vn 0.5358788 0.8441795 -0.01396045
vn 0.3880822 0.9216141 -0.004437941
vn 0.1973729 0.9602433 -0.1974252
vn 0.005487594 0.9999666 -0.006048826
vn 0.002425977 0.9999568 -0.008966795
vn 0.0226117 0.9285696 -0.3704692
vn 0.01172603 0.9999312 -0.0001431318
vn 0.2690029 0.9248146 -0.2689898
vn 0.05402257 0.8585494 -0.5098769
vn 0.001897436 0.9169748 -0.3989408
vn 0.002251105 0.8572165 -0.5149511
vn 0.9998389 0.003997316 -0.01749763
vn 0.7071151 0.006738025 -0.7070664
vn 0.06005863 0.004467822 -0.9981849
vn 0.9999835 0.00574562 0
vn 0.9997684 -1.372882E-05 0.02151756
vn 0.9997699 -1.372784E-05 0.02145235
vn 1 -4.18664E-06 -1.629716E-05
vn 1 -4.185707E-06 -1.655432E-05
vn 0.6488615 -9.055381E-06 0.7609066
vn 0.648201 -9.035839E-06 0.7614692
vn 0.9998479 2.297335E-06 0.01743928
vn 0.9998389 0.003994655 0.01749766
vn 0.9999835 0.00574562 0
vn 1 3.694273E-06 0
vn 0.7071131 0.006738035 0.7070684
vn 0.707129 2.167645E-06 0.7070845
vn 0.4795553 0.8775117 1.047067E-07
vn 0.9998479 5.13639E-06 -0.01743929
vn 0.9998389 0.003997316 -0.01749763
vn 0.7071151 0.006738025 -0.7070664
vn 0.7071312 2.167638E-06 -0.7070823
vn 0.3182336 0 0.9480123
vn 0.6488615 -9.055381E-06 0.7609066
vn 0.648201 -9.035839E-06 0.7614692
vn 0.3182336 0 0.9480123
vn 0.06005863 0.004467822 -0.9981849
vn 0.003740367 0.00554127 -0.9999777
vn 0.003740049 0 -0.9999931
vn 0.059853 0 -0.9982072
vn 0.7071312 2.167638E-06 -0.7070823
vn 0.7071151 0.006738025 -0.7070664
vn 0.05402257 0.8585494 -0.5098769
vn 0.002251105 0.8572165 -0.5149511
vn 0.9997684 4.836681E-06 -0.02151822
vn 1 -4.185707E-06 -1.655432E-05
vn 1 -4.18664E-06 -1.629716E-05
vn 0.9997684 4.836681E-06 -0.02151822
vn 0.6486462 0 -0.76109
vn 0.6486462 0 -0.76109
vn 0.3182246 0 -0.9480154
vn 0.3182246 0 -0.9480154
vn 0.6486462 0 -0.76109
vn 0.6486462 0 -0.76109
vn -1 0 0
vn -1 0 0
vn -1 0 0
vn -1 0 0
vn -1 3.805331E-05 0
vn -1 3.806069E-05 0
vn -1 0.0001282117 0
vn -1 0.0001281114 0
vn -1 0 0
vn -1 0 0
vn -1 0 0
vn -1 0 0
vn -1 0 0
vn -1 0.0001281114 0
vn -1 3.805331E-05 0
vn 0.001519672 0.8572201 0.514948
vn -0.1936719 0.9810269 0.008801154
vn -0.06039393 0.9153091 0.3981982
g m_city_wall_end_01_0
f 3/3/3 2/2/2 1/1/1
f 4/4/4 3/3/3 1/1/1
f 5/5/5 3/3/3 4/4/4
f 6/6/6 5/5/5 4/4/4
f 1/1/1 2/2/2 7/7/7
f 2/2/2 8/8/8 7/7/7
f 1/1/1 9/9/9 4/4/4
f 9/9/9 10/10/10 4/4/4
f 6/6/6 4/4/4 10/10/10
f 11/11/11 9/9/9 1/1/1
f 7/7/7 11/11/11 1/1/1
f 12/12/12 6/6/6 10/10/10
f 7/7/7 8/8/8 13/13/13
f 16/16/16 15/15/15 14/14/14
f 17/17/17 16/16/16 14/14/14
f 14/14/14 18/18/18 17/17/17
f 18/18/18 19/19/19 17/17/17
f 18/18/18 20/20/20 19/19/19
f 20/20/20 21/21/21 19/19/19
f 22/22/22 19/19/19 21/21/21
f 23/23/23 22/22/22 21/21/21
f 22/22/22 23/23/23 24/24/24
f 25/25/25 22/22/22 24/24/24
f 24/24/24 26/26/26 25/25/25
f 26/26/26 27/27/27 25/25/25
f 25/25/25 27/27/27 28/28/28
f 25/25/25 28/28/28 22/22/22
f 27/27/27 29/29/29 28/28/28
f 30/30/30 28/28/28 29/29/29
f 31/31/31 30/30/30 29/29/29
f 28/28/28 30/30/30 32/32/32
f 28/28/28 32/32/32 22/22/22
f 32/32/32 17/17/17 19/19/19
f 22/22/22 32/32/32 19/19/19
f 30/30/30 33/33/33 32/32/32
f 32/32/32 33/33/33 17/17/17
f 33/33/33 16/16/16 17/17/17
f 36/36/36 35/35/35 34/34/34
f 37/37/37 36/36/36 34/34/34
f 36/36/36 38/38/38 35/35/35
f 38/38/38 39/39/39 35/35/35
f 37/37/37 34/34/34 40/40/40
f 41/41/41 37/37/37 40/40/40
f 38/38/38 42/42/42 39/39/39
f 42/42/42 43/43/43 39/39/39
f 34/34/34 35/35/35 44/44/44
f 45/45/45 34/34/34 44/44/44
f 40/40/40 34/34/34 45/45/45
f 46/46/46 40/40/40 45/45/45
f 47/47/47 44/44/44 35/35/35
f 39/39/39 47/47/47 35/35/35
f 40/40/40 48/48/48 41/41/41
f 48/48/48 49/49/49 41/41/41
f 36/36/36 37/37/37 50/50/50
f 51/51/51 36/36/36 50/50/50
f 38/38/38 36/36/36 51/51/51
f 52/52/52 38/38/38 51/51/51
f 42/42/42 38/38/38 52/52/52
f 37/37/37 41/41/41 53/53/53
f 50/50/50 37/37/37 53/53/53
f 54/54/54 42/42/42 52/52/52
f 51/51/51 50/50/50 55/55/55
f 50/50/50 56/56/56 55/55/55
f 50/50/50 53/53/53 56/56/56
f 53/53/53 57/57/57 56/56/56
f 58/58/58 52/52/52 51/51/51
f 55/55/55 58/58/58 51/51/51
f 59/59/59 53/53/53 41/41/41
f 49/49/49 59/59/59 41/41/41
f 62/62/62 61/61/61 60/60/60
f 63/63/63 62/62/62 60/60/60
f 62/62/62 64/64/64 61/61/61
f 64/64/64 65/65/65 61/61/61
f 68/68/68 67/67/67 66/66/66
f 69/69/69 68/68/68 66/66/66
f 68/68/68 70/70/70 67/67/67
f 70/70/70 71/71/71 67/67/67
f 69/69/69 66/66/66 72/72/72
f 73/73/73 69/69/69 72/72/72
f 74/74/74 66/66/66 67/67/67
f 75/75/75 74/74/74 67/67/67
f 67/67/67 71/71/71 75/75/75
f 76/76/76 72/72/72 66/66/66
f 74/74/74 76/76/76 66/66/66
f 71/71/71 77/77/77 75/75/75
f 73/73/73 72/72/72 78/78/78
f 81/81/81 80/80/80 79/79/79
f 82/82/82 81/81/81 79/79/79
f 83/83/83 81/81/81 82/82/82
f 84/84/84 83/83/83 82/82/82
f 87/87/87 86/86/86 85/85/85
f 88/88/88 87/87/87 85/85/85
f 89/89/89 85/85/85 86/86/86
f 90/90/90 89/89/89 86/86/86
f 89/89/89 90/90/90 91/91/91
f 90/90/90 92/92/92 91/91/91
f 93/93/93 91/91/91 92/92/92
f 94/94/94 93/93/93 92/92/92
f 94/94/94 95/95/95 93/93/93
f 95/95/95 94/94/94 96/96/96
f 93/93/93 95/95/95 97/97/97
f 100/100/100 99/99/99 98/98/98
f 101/101/101 100/100/100 98/98/98
f 99/99/99 102/102/102 98/98/98
f 102/102/102 103/103/103 98/98/98
f 98/98/98 104/104/104 101/101/101
f 104/104/104 105/105/105 101/101/101
f 108/108/108 107/107/107 106/106/106
f 109/109/109 108/108/108 106/106/106
f 106/106/106 110/110/110 109/109/109
f 110/110/110 111/111/111 109/109/109
f 109/109/109 111/111/111 112/112/112
f 109/109/109 112/112/112 108/108/108
f 111/111/111 113/113/113 112/112/112
f 111/111/111 114/114/114 113/113/113
f 114/114/114 115/115/115 113/113/113
f 116/116/116 114/114/114 111/111/111
f 110/110/110 116/116/116 111/111/111
f 117/117/117 114/114/114 116/116/116
f 118/118/118 117/117/117 116/116/116
f 116/116/116 110/110/110 119/119/119
f 116/116/116 119/119/119 118/118/118
f 110/110/110 120/120/120 119/119/119
f 110/110/110 106/106/106 120/120/120
f 106/106/106 121/121/121 120/120/120
f 114/114/114 117/117/117 122/122/122
f 115/115/115 114/114/114 122/122/122
f 117/117/117 118/118/118 123/123/123
f 124/124/124 117/117/117 123/123/123
f 117/117/117 124/124/124 122/122/122
f 124/124/124 123/123/123 125/125/125
f 124/124/124 125/125/125 126/126/126
f 126/126/126 125/125/125 127/127/127
f 125/125/125 128/128/128 127/127/127
f 129/129/129 124/124/124 126/126/126
f 124/124/124 129/129/129 122/122/122
f 125/125/125 130/130/130 128/128/128
f 123/123/123 130/130/130 125/125/125
f 130/130/130 131/131/131 128/128/128
f 132/132/132 128/128/128 131/131/131
f 127/127/127 128/128/128 132/132/132
f 133/133/133 132/132/132 131/131/131
f 130/130/130 123/123/123 134/134/134
f 135/135/135 130/130/130 134/134/134
f 131/131/131 130/130/130 135/135/135
f 136/136/136 131/131/131 135/135/135
f 134/134/134 123/123/123 118/118/118
f 137/137/137 134/134/134 118/118/118
f 140/140/140 139/139/139 138/138/138
f 141/141/141 140/140/140 138/138/138
f 138/138/138 139/139/139 142/142/142
f 143/143/143 138/138/138 142/142/142
f 146/146/146 145/145/145 144/144/144
f 147/147/147 146/146/146 144/144/144
f 144/144/144 145/145/145 148/148/148
f 149/149/149 144/144/144 148/148/148
f 145/145/145 146/146/146 150/150/150
f 146/146/146 147/147/147 151/151/151
f 152/152/152 146/146/146 151/151/151
f 152/152/152 151/151/151 153/153/153
f 151/151/151 154/154/154 153/153/153
f 157/157/157 156/156/156 155/155/155
f 158/158/158 157/157/157 155/155/155
f 161/161/161 160/160/160 159/159/159
f 162/162/162 161/161/161 159/159/159
f 163/163/163 162/162/162 159/159/159
f 164/164/164 163/163/163 159/159/159
f 165/165/165 159/159/159 160/160/160
f 166/166/166 165/165/165 160/160/160
f 169/169/169 168/168/168 167/167/167
f 170/170/170 169/169/169 167/167/167
f 170/170/170 167/167/167 171/171/171
f 167/167/167 172/172/172 171/171/171
f 175/175/175 174/174/174 173/173/173
f 176/176/176 175/175/175 173/173/173
f 179/179/179 178/178/178 177/177/177
f 180/180/180 179/179/179 177/177/177
f 181/181/181 179/179/179 180/180/180
f 182/182/182 181/181/181 180/180/180
f 182/182/182 183/183/183 181/181/181
f 183/183/183 184/184/184 181/181/181
f 187/187/187 186/186/186 185/185/185
f 188/188/188 187/187/187 185/185/185
f 191/191/191 190/190/190 189/189/189
f 194/194/194 193/193/193 192/192/192
