g m_city_door_frame_02
v -0.9511719 0.9311398 0.03726013
v -0.9511719 -0.833903 0.03726013
v -0.9797705 -0.8339033 0.0658612
v -0.9797705 0.9311398 0.0658612
v -0.9797705 0.9311398 -0.07715637
v -0.9797705 -0.8339033 -0.07715637
v -0.9511719 -0.833903 -0.0485553
v -0.9511719 0.9311398 -0.0485553
v -0.9797705 0.9311398 0.0658612
v -0.9797705 -0.8339033 0.0658612
v -1.028843 -0.8339038 0.0658612
v -1.028843 0.9311398 0.0658612
v -0.9797705 -0.8339033 -0.07715637
v -0.9797705 0.9311398 -0.07715637
v -1.028843 0.9311398 -0.07715637
v -1.028843 -0.8339038 -0.07715637
v -0.9511719 0.9311398 -0.0485553
v -0.9511719 -0.833903 -0.0485553
v -0.9511719 -0.833903 0.03726013
v -0.9511719 0.9311398 0.03726013
v 0.9269091 0.9247699 -0.0485556
v 0.9269091 -0.833903 -0.0485556
v 0.9555078 -0.8339033 -0.07715668
v 0.9555078 0.9247699 -0.07715668
v 0.9555078 0.9247699 0.0658609
v 0.9555078 -0.8339033 0.0658609
v 0.9269091 -0.833903 0.03725982
v 0.9269091 0.9247699 0.03725982
v 1.002563 -0.8339038 0.0658609
v 0.9555078 -0.8339033 0.0658609
v 0.9555078 0.9247699 0.0658609
v 1.002563 0.9247699 0.0658609
v 0.9555078 0.9247699 -0.07715668
v 0.9555078 -0.8339033 -0.07715668
v 1.002563 -0.8339038 -0.07715668
v 1.002563 0.9247699 -0.07715668
v 0.9269091 -0.833903 -0.0485556
v 0.9269091 0.9247699 -0.0485556
v 0.9269091 0.9247699 0.03725982
v 0.9269091 -0.833903 0.03725982
v -1.100918 -0.8546492 0.116344
v -1.100918 -0.8546492 0.03306457
v -1.080171 -0.8339019 -0.03660034
v -1.080171 -0.8339019 0.1182642
v -1.100918 -0.8953004 0.1478241
v -1.080171 -0.8825161 0.1559106
v -1.100918 -0.9103914 0.1478241
v -1.080171 -0.9189851 0.1559106
v -1.100918 -0.9103926 0.1478241
v -1.080171 -0.9311398 0.1511737
v -1.100918 -0.9103926 -0.1478229
v -1.080171 -0.9311398 -0.1511725
v -1.100918 -0.8953004 0.03022461
v -1.080171 -0.8339019 -0.1182629
v -1.100918 -0.8546492 -0.1163428
v -1.100918 -0.8953004 -0.1478229
v -1.100918 -0.8546492 -0.1163428
v -1.100918 -0.8953004 -0.1478229
v -1.080171 -0.8825161 -0.1559106
v -1.080171 -0.8339019 -0.1182629
v -1.080171 -0.9189851 -0.1559106
v -1.100918 -0.9103914 -0.1478229
v -1.080171 -0.9311398 -0.1511725
v -1.100918 -0.9103926 -0.1478229
v 1.100918 -0.8546492 0.116344
v 1.100918 -0.8953004 0.1478241
v 1.080171 -0.8825161 0.1559106
v 1.080171 -0.8339019 0.1182642
v 1.080171 -0.9189851 0.1559106
v 1.100918 -0.9103914 0.1478241
v 1.080171 -0.9311398 0.1511737
v 1.100918 -0.9103926 0.1478241
v 1.080171 -0.8339019 0.1182642
v 1.080171 -0.8339019 -0.03660034
v 1.100918 -0.8546492 0.03306457
v 1.100918 -0.8546492 0.116344
v 1.100918 -0.8953004 0.1478241
v 1.100918 -0.8953004 0.03022461
v 1.100918 -0.8546492 -0.1163428
v 1.100918 -0.8953004 -0.1478229
v 1.080171 -0.8339019 -0.1182629
v 1.080171 -0.8825161 -0.1559106
v 1.100918 -0.9103914 -0.1478229
v 1.080171 -0.9189851 -0.1559106
v 1.100918 -0.9103926 -0.1478229
v 1.080171 -0.9311398 -0.1511725
v 1.100918 -0.9103926 0.1478241
v 1.080171 -0.9311398 0.1511737
v -1.080171 -0.9189851 0.1559106
v -1.080171 -0.8825161 0.1559106
v 1.080171 -0.8825161 0.1559106
v 1.080171 -0.9189851 0.1559106
v -1.080171 -0.8339019 0.1182642
v 1.080171 -0.8339019 0.1182642
v 1.080171 -0.8339019 -0.03660034
v -1.080171 -0.8339019 -0.03660034
v 1.080171 -0.9311398 0.1511737
v -1.080171 -0.9311398 0.1511737
v 1.080171 -0.8339019 -0.1182629
v -1.080171 -0.8339019 -0.1182629
v -1.080171 -0.8825161 -0.1559106
v 1.080171 -0.8825161 -0.1559106
v 1.080171 -0.9189851 -0.1559106
v -1.080171 -0.9189851 -0.1559106
v -1.080171 -0.9311398 -0.1511725
v 1.080171 -0.9311398 -0.1511725
v 1.100918 -0.9103914 -0.1478229
v 1.100918 -0.9103926 -0.1478229
v 1.100918 -0.9103926 0.1478241
v 1.100918 -0.9103914 0.1478241
v 1.100918 -0.8953004 -0.1478229
v 1.100918 -0.8953004 0.1478241
v 1.100918 -0.8953004 0.03022461
v -1.100918 -0.9103914 0.1478241
v -1.100918 -0.9103926 0.1478241
v -1.100918 -0.9103926 -0.1478229
v -1.100918 -0.9103914 -0.1478229
v -1.100918 -0.8953004 0.1478241
v -1.100918 -0.8953004 -0.1478229
v -1.100918 -0.8953004 0.03022461
vt 0.8354492 0.4587402
vt 0.8354492 0.0489502
vt 0.8261719 0.0489502
vt 0.8261719 0.4587402
vt 0.2167969 0.1687012
vt 0.6264648 0.1687012
vt 0.6264648 0.1593018
vt 0.2167969 0.1593018
vt 0.8261719 0.4587402
vt 0.8261719 0.0489502
vt 0.8149414 0.0489502
vt 0.8149414 0.4587402
vt 0.6264648 0.1687012
vt 0.2167969 0.1687012
vt 0.2167969 0.1800537
vt 0.6264648 0.1800537
vt 0.8422852 0.4655762
vt 0.8422852 0.8754883
vt 0.8623047 0.8754883
vt 0.8623047 0.4655762
vt 0.7856445 0.467041
vt 0.7856445 0.8754883
vt 0.7954102 0.8754883
vt 0.7954102 0.467041
vt 0.7958984 0.4572754
vt 0.7958984 0.0489502
vt 0.7866211 0.0489502
vt 0.7866211 0.4572754
vt 0.8071289 0.0489502
vt 0.7958984 0.0489502
vt 0.7958984 0.4572754
vt 0.8071289 0.4572754
vt 0.7954102 0.467041
vt 0.7954102 0.8754883
vt 0.8061523 0.8754883
vt 0.8061523 0.467041
vt 0.8344727 0.8754883
vt 0.8344727 0.467041
vt 0.8144531 0.467041
vt 0.8144531 0.8754883
vt 0.7573242 0.144043
vt 0.7397461 0.1365967
vt 0.722168 0.1368408
vt 0.7558594 0.1506348
vt 0.7685547 0.1397705
vt 0.7695313 0.1456299
vt 0.7709961 0.1374512
vt 0.7758789 0.1401367
vt 0.7709961 0.1374512
vt 0.777832 0.1378174
vt 0.7675781 0.06878662
vt 0.7744141 0.06762695
vt 0.7431641 0.1275635
vt 0.7050781 0.1293945
vt 0.7080078 0.123291
vt 0.7050781 0.1117554
vt 0.1745605 0.637207
vt 0.1737061 0.625
vt 0.1679688 0.6269531
vt 0.1689453 0.6411133
vt 0.1700439 0.6186523
vt 0.1745605 0.621582
vt 0.1711426 0.6157227
vt 0.1745605 0.621582
vt 0.109436 0.6162109
vt 0.1102905 0.6279297
vt 0.1160278 0.6264648
vt 0.1149902 0.6123047
vt 0.1139526 0.6347656
vt 0.109436 0.6313477
vt 0.1127319 0.637207
vt 0.109436 0.6313477
vt 0.08306885 0.05718994
vt 0.05053711 0.04159546
vt 0.06219482 0.05493164
vt 0.07977295 0.06317139
vt 0.08227539 0.0748291
vt 0.05749512 0.06317139
vt 0.03083801 0.04016113
vt 0.01963806 0.04412842
vt 0.03277588 0.03366089
vt 0.01878357 0.03820801
vt 0.01683044 0.04629517
vt 0.01207733 0.04345703
vt 0.01683044 0.04629517
vt 0.01000214 0.04568481
vt 0.01864624 0.1150513
vt 0.01183319 0.1160278
vt 0.423584 0.8867188
vt 0.423584 0.8950195
vt 0.925293 0.8950195
vt 0.925293 0.8867188
vt 0.423584 0.9091797
vt 0.925293 0.9091797
vt 0.925293 0.9453125
vt 0.423584 0.9453125
vt 0.925293 0.8833008
vt 0.423584 0.8833008
vt 0.925293 0.9643555
vt 0.423584 0.9643555
vt 0.423584 0.9785156
vt 0.925293 0.9785156
vt 0.925293 0.9868164
vt 0.423584 0.9868164
vt 0.423584 0.9902344
vt 0.925293 0.9902344
vt 0 1
vt 0 1
vt 0 1
vt 0 1
vt 0 1
vt 0 1
vt 0 1
vt 0 1
vt 0 1
vt 0 1
vt 0 1
vt 0 1
vt 0 1
vt 0 1
vn 0.7071369 0 0.7070766
vn 0.7071369 0 0.7070766
vn 0.7071369 0 0.7070766
vn 0.7071369 0 0.7070766
vn 0.7071369 0 -0.7070765
vn 0.7071369 0 -0.7070765
vn 0.7071369 0 -0.7070765
vn 0.7071369 0 -0.7070765
vn 0 0 1
vn 0 0 1
vn 0 0 1
vn 0 0 1
vn 0 0 -1
vn 0 0 -1
vn 0 0 -1
vn 0 0 -1
vn 1 0 0
vn 1 0 0
vn 1 0 0
vn 1 0 0
vn -0.7071369 0 -0.7070765
vn -0.7071369 0 -0.7070765
vn -0.7071369 0 -0.7070765
vn -0.7071369 0 -0.7070765
vn -0.7071369 0 0.7070766
vn -0.7071369 0 0.7070766
vn -0.7071369 0 0.7070766
vn -0.7071369 0 0.7070766
vn 0 0 1
vn 0 0 1
vn 0 0 1
vn 0 0 1
vn 0 0 -1
vn 0 0 -1
vn 0 0 -1
vn 0 0 -1
vn -1 0 0
vn -1 0 0
vn -1 0 0
vn -1 0 0
vn -0.8553381 0.4562294 0.2454614
vn -0.9238802 0.3826818 0
vn -0.3826851 0.9238788 0
vn -0.3723643 0.8264935 0.4222008
vn -0.8696478 0.149969 0.4703424
vn -0.2527353 0.3041116 0.9184994
vn -0.7129636 -0.1265275 0.6896911
vn -0.2133152 -0.1784877 0.9605409
vn -0.8533267 -0.4062065 0.3268483
vn -0.460249 -0.5509103 0.6961815
vn -0.8533298 -0.4062224 -0.3268201
vn -0.4602621 -0.5509574 -0.6961355
vn -1 0 0
vn -0.3723681 0.8264953 -0.4221935
vn -0.8553409 0.4562274 -0.2454558
vn -0.8696562 0.149967 -0.4703275
vn -0.8553409 0.4562274 -0.2454558
vn -0.8696562 0.149967 -0.4703275
vn -0.2527537 0.3041162 -0.9184927
vn -0.3723681 0.8264953 -0.4221935
vn -0.2133445 -0.1785275 -0.9605269
vn -0.7129947 -0.1265504 -0.6896546
vn -0.4602621 -0.5509574 -0.6961355
vn -0.8533298 -0.4062224 -0.3268201
vn 0.8553381 0.4562294 0.2454614
vn 0.8696478 0.149969 0.4703424
vn 0.2527353 0.3041116 0.9184994
vn 0.3723642 0.8264935 0.4222008
vn 0.2133153 -0.1784877 0.9605409
vn 0.7129636 -0.1265275 0.6896911
vn 0.4602491 -0.5509104 0.6961815
vn 0.8533267 -0.4062065 0.3268483
vn 0.3723642 0.8264935 0.4222008
vn 0.3826851 0.9238788 0
vn 0.9238802 0.3826818 0
vn 0.8553381 0.4562294 0.2454614
vn 0.8696478 0.149969 0.4703424
vn 1 0 0
vn 0.8553409 0.4562274 -0.2454558
vn 0.8696562 0.149967 -0.4703275
vn 0.3723681 0.8264953 -0.4221935
vn 0.2527537 0.3041162 -0.9184927
vn 0.7129947 -0.1265504 -0.6896546
vn 0.2133445 -0.1785275 -0.9605269
vn 0.8533298 -0.4062224 -0.3268201
vn 0.4602621 -0.5509574 -0.6961355
vn 0.8533267 -0.4062065 0.3268483
vn 0.4602491 -0.5509104 0.6961815
vn -0.2133152 -0.1784877 0.9605409
vn -0.2527353 0.3041116 0.9184994
vn 0.2527353 0.3041116 0.9184994
vn 0.2133153 -0.1784877 0.9605409
vn -0.3723643 0.8264935 0.4222008
vn 0.3723642 0.8264935 0.4222008
vn 0.3826851 0.9238788 0
vn -0.3826851 0.9238788 0
vn 0.4602491 -0.5509104 0.6961815
vn -0.460249 -0.5509103 0.6961815
vn 0.3723681 0.8264953 -0.4221935
vn -0.3723681 0.8264953 -0.4221935
vn -0.2527537 0.3041162 -0.9184927
vn 0.2527537 0.3041162 -0.9184927
vn 0.2133445 -0.1785275 -0.9605269
vn -0.2133445 -0.1785275 -0.9605269
vn -0.4602621 -0.5509574 -0.6961355
vn 0.4602621 -0.5509574 -0.6961355
vn 0.7129947 -0.1265504 -0.6896546
vn 0.8533298 -0.4062224 -0.3268201
vn 0.8533267 -0.4062065 0.3268483
vn 0.7129636 -0.1265275 0.6896911
vn 0.8696562 0.149967 -0.4703275
vn 0.8696478 0.149969 0.4703424
vn 1 0 0
vn -0.7129636 -0.1265275 0.6896911
vn -0.8533267 -0.4062065 0.3268483
vn -0.8533298 -0.4062224 -0.3268201
vn -0.7129947 -0.1265504 -0.6896546
vn -0.8696478 0.149969 0.4703424
vn -0.8696562 0.149967 -0.4703275
vn -1 0 0
g m_city_door_frame_02_0
f 3/3/3 2/2/2 1/1/1
f 4/4/4 3/3/3 1/1/1
f 7/7/7 6/6/6 5/5/5
f 8/8/8 7/7/7 5/5/5
f 11/11/11 10/10/10 9/9/9
f 12/12/12 11/11/11 9/9/9
f 15/15/15 14/14/14 13/13/13
f 16/16/16 15/15/15 13/13/13
f 19/19/19 18/18/18 17/17/17
f 20/20/20 19/19/19 17/17/17
f 23/23/23 22/22/22 21/21/21
f 24/24/24 23/23/23 21/21/21
f 27/27/27 26/26/26 25/25/25
f 28/28/28 27/27/27 25/25/25
f 31/31/31 30/30/30 29/29/29
f 32/32/32 31/31/31 29/29/29
f 35/35/35 34/34/34 33/33/33
f 36/36/36 35/35/35 33/33/33
f 39/39/39 38/38/38 37/37/37
f 40/40/40 39/39/39 37/37/37
f 43/43/43 42/42/42 41/41/41
f 44/44/44 43/43/43 41/41/41
f 41/41/41 45/45/45 44/44/44
f 45/45/45 46/46/46 44/44/44
f 45/45/45 47/47/47 46/46/46
f 47/47/47 48/48/48 46/46/46
f 47/47/47 49/49/49 48/48/48
f 49/49/49 50/50/50 48/48/48
f 49/49/49 51/51/51 50/50/50
f 51/51/51 52/52/52 50/50/50
f 41/41/41 42/42/42 53/53/53
f 45/45/45 41/41/41 53/53/53
f 43/43/43 54/54/54 42/42/42
f 54/54/54 55/55/55 42/42/42
f 42/42/42 55/55/55 56/56/56
f 53/53/53 42/42/42 56/56/56
f 59/59/59 58/58/58 57/57/57
f 60/60/60 59/59/59 57/57/57
f 59/59/59 61/61/61 58/58/58
f 61/61/61 62/62/62 58/58/58
f 61/61/61 63/63/63 62/62/62
f 63/63/63 64/64/64 62/62/62
f 67/67/67 66/66/66 65/65/65
f 68/68/68 67/67/67 65/65/65
f 67/67/67 69/69/69 66/66/66
f 69/69/69 70/70/70 66/66/66
f 69/69/69 71/71/71 70/70/70
f 71/71/71 72/72/72 70/70/70
f 75/75/75 74/74/74 73/73/73
f 76/76/76 75/75/75 73/73/73
f 75/75/75 76/76/76 77/77/77
f 78/78/78 75/75/75 77/77/77
f 79/79/79 75/75/75 78/78/78
f 75/75/75 79/79/79 74/74/74
f 80/80/80 79/79/79 78/78/78
f 79/79/79 80/80/80 81/81/81
f 79/79/79 81/81/81 74/74/74
f 80/80/80 82/82/82 81/81/81
f 80/80/80 83/83/83 82/82/82
f 83/83/83 84/84/84 82/82/82
f 83/83/83 85/85/85 84/84/84
f 85/85/85 86/86/86 84/84/84
f 86/86/86 85/85/85 87/87/87
f 88/88/88 86/86/86 87/87/87
f 91/91/91 90/90/90 89/89/89
f 92/92/92 91/91/91 89/89/89
f 90/90/90 91/91/91 93/93/93
f 91/91/91 94/94/94 93/93/93
f 94/94/94 95/95/95 93/93/93
f 95/95/95 96/96/96 93/93/93
f 97/97/97 92/92/92 89/89/89
f 98/98/98 97/97/97 89/89/89
f 95/95/95 99/99/99 96/96/96
f 99/99/99 100/100/100 96/96/96
f 100/100/100 99/99/99 101/101/101
f 99/99/99 102/102/102 101/101/101
f 102/102/102 103/103/103 101/101/101
f 103/103/103 104/104/104 101/101/101
f 104/104/104 103/103/103 105/105/105
f 103/103/103 106/106/106 105/105/105
f 109/109/109 108/108/108 107/107/107
f 107/107/107 110/110/110 109/109/109
f 107/107/107 111/111/111 110/110/110
f 111/111/111 112/112/112 110/110/110
f 111/111/111 113/113/113 112/112/112
f 116/116/116 115/115/115 114/114/114
f 114/114/114 117/117/117 116/116/116
f 114/114/114 118/118/118 117/117/117
f 118/118/118 119/119/119 117/117/117
f 118/118/118 120/120/120 119/119/119
