g m_city_wall_right_angle_top
v 0.3102502 -0.01762604 0.3099107
v 0.3102502 -0.01684433 -0.2900896
v 0.3102502 -0.03078461 -0.2850902
v 0.3102502 -0.03204178 0.3049107
v 0.3102502 0.09167633 0.3099107
v 0.3102502 0.09167633 -0.2900896
v 0.3102502 0.1037329 -0.278033
v 0.3102502 0.1037329 0.2978542
v 0.3102502 -0.09798034 -0.235301
v 0.3102502 -0.09684815 0.2554735
v 0.3102502 -0.1037329 -0.2254942
v 0.3102502 -0.1037329 0.2451894
v -0.3097546 -0.01762604 -0.3100896
v -0.3047522 -0.03204178 -0.3100896
v 0.2852478 -0.03078461 -0.3100896
v 0.2902478 -0.01684433 -0.3100896
v 0.2902478 0.09167633 -0.3100896
v 0.2781897 0.1037329 -0.3100896
v -0.2976965 0.1037329 -0.3100896
v -0.3097546 0.09167633 -0.3100896
v 0.2354578 -0.09798034 -0.3100896
v -0.2553137 -0.09684815 -0.3100896
v 0.2256555 -0.1037329 -0.3100896
v -0.2450305 -0.1037329 -0.3100896
v 0.3102502 -0.01762604 0.3099107
v -0.2952502 -0.01762604 0.3100896
v -0.2952502 0.09167633 0.3100896
v 0.3102502 0.09167633 0.3099107
v -0.2902649 -0.03204178 0.3051048
v 0.3102502 -0.03204178 0.3049107
v 0.3102502 -0.09684815 0.2554735
v -0.2409778 -0.09684815 0.256133
v -0.2307239 -0.1037329 0.2458797
v 0.3102502 -0.1037329 0.2451894
v -0.3008777 -0.03204178 0.3007143
v -0.3058557 -0.01762604 0.305699
v -0.2515832 -0.09684815 0.2517436
v -0.3058557 0.09167633 0.305699
v -0.2413342 -0.1037329 0.2414906
v -0.3097546 -0.01762604 -0.3100896
v -0.3097546 0.09167633 -0.3100896
v -0.3102502 0.09167633 0.2950911
v -0.3102502 -0.01762604 0.2950911
v -0.3052649 -0.03204178 0.2901064
v -0.3047522 -0.03204178 -0.3100896
v -0.2553137 -0.09684815 -0.3100896
v -0.2559753 -0.09684815 0.2411348
v -0.2457239 -0.1037329 0.2308815
v -0.2450305 -0.1037329 -0.3100896
v -0.3058557 -0.01762604 0.305699
v -0.3008777 -0.03204178 0.3007143
v -0.2515832 -0.09684815 0.2517436
v -0.3058557 0.09167633 0.305699
v -0.2457239 -0.1037329 0.2308815
v -0.2559753 -0.09684815 0.2411348
v -0.2515832 -0.09684815 0.2517436
v -0.2413342 -0.1037329 0.2414906
v 0.3102502 -0.03078461 -0.2850902
v 0.2511487 -0.09798034 -0.2352785
v 0.3102502 -0.09798034 -0.235301
v 0.3102502 -0.1037329 -0.2254942
v 0.2411804 -0.1037329 -0.226039
v 0.2912512 -0.03078461 -0.2912126
v 0.2950818 -0.01684433 -0.294922
v 0.3102502 -0.01684433 -0.2900896
v 0.2950818 0.09167633 -0.294922
v 0.3102502 0.09167633 -0.2900896
v 0.2397278 -0.09798034 -0.2394063
v 0.2852478 -0.03078461 -0.3100896
v 0.2354578 -0.09798034 -0.3100896
v 0.2355945 -0.09798034 -0.2493239
v 0.2256555 -0.1037329 -0.3100896
v 0.2263684 -0.1037329 -0.240869
v 0.2397278 -0.09798034 -0.2394063
v 0.2912512 -0.03078461 -0.2912126
v 0.2902478 -0.01684433 -0.3100896
v 0.2950818 -0.01684433 -0.294922
v 0.2902478 0.09167633 -0.3100896
v 0.2950818 0.09167633 -0.294922
v 0.3102502 0.09167633 -0.2900896
v 0.3102502 0.1037329 -0.278033
v 0.2929675 0.1037329 -0.2784715
v -0.2832312 0.1037329 0.2980696
v 0.3102502 0.1037329 0.2978542
v -0.2952502 0.09167633 0.3100896
v 0.3102502 0.09167633 0.3099107
v -0.3058557 0.09167633 0.305699
v -0.2938391 0.1037329 0.2936794
v 0.2818762 0.1037329 -0.2819585
v 0.3102502 0.09167633 -0.2900896
v 0.2950818 0.09167633 -0.294922
v 0.2902478 0.09167633 -0.3100896
v 0.2786316 0.1037329 -0.2922142
v 0.2781897 0.1037329 -0.3100896
v 0.2950818 0.09167633 -0.294922
v 0.2818762 0.1037329 -0.2819585
v -0.2982287 0.1037329 0.2830711
v -0.2976965 0.1037329 -0.3100896
v -0.3102502 0.09167633 0.2950911
v -0.3097546 0.09167633 -0.3100896
v -0.2938391 0.1037329 0.2936794
v -0.3102502 0.09167633 0.2950911
v -0.3058557 0.09167633 0.305699
vt 0.02166748 0.1165771
vt 0.005794525 0.1166382
vt 0.005931854 0.116272
vt 0.02154541 0.1162109
vt 0.02166748 0.1195068
vt 0.005794525 0.1194458
vt 0.00611496 0.119812
vt 0.02134705 0.119812
vt 0.007381439 0.114624
vt 0.02009583 0.1146851
vt 0.007507324 0.1143188
vt 0.0199585 0.1143188
vt 0.02166748 0.1165771
vt 0.02154541 0.1162109
vt 0.005931854 0.116272
vt 0.005794525 0.1166382
vt 0.005794525 0.1194458
vt 0.00611496 0.119812
vt 0.02134705 0.119812
vt 0.02166748 0.1195068
vt 0.007381439 0.114624
vt 0.02009583 0.1146851
vt 0.007507324 0.1143188
vt 0.0199585 0.1143188
vt 0.4980469 0.4755859
vt 0.3642578 0.4755859
vt 0.3642578 0.4592285
vt 0.4980469 0.4592285
vt 0.3649902 0.4777832
vt 0.4980469 0.4777832
vt 0.4980469 0.4899902
vt 0.3725586 0.4899902
vt 0.3740234 0.4921875
vt 0.4980469 0.4921875
vt 0.362793 0.4777832
vt 0.3620605 0.4755859
vt 0.3701172 0.4899902
vt 0.3620605 0.4592285
vt 0.3718262 0.4921875
vt 0.4980469 0.4755859
vt 0.4980469 0.4592285
vt 0.3642578 0.4592285
vt 0.3642578 0.4755859
vt 0.3649902 0.4777832
vt 0.4980469 0.4777832
vt 0.4980469 0.4899902
vt 0.3725586 0.4899902
vt 0.3740234 0.4921875
vt 0.4980469 0.4921875
vt 0.3620605 0.4755859
vt 0.362793 0.4777832
vt 0.3701172 0.4899902
vt 0.3620605 0.4592285
vt 0.3740234 0.4921875
vt 0.3725586 0.4899902
vt 0.3701172 0.4899902
vt 0.3718262 0.4921875
vt 0.4758301 0.3466797
vt 0.4460449 0.3344727
vt 0.4980469 0.3344727
vt 0.4980469 0.3322754
vt 0.4445801 0.3322754
vt 0.4511719 0.3466797
vt 0.4521484 0.348877
vt 0.4760742 0.348877
vt 0.4521484 0.3652344
vt 0.4760742 0.3652344
vt 0.4438477 0.3344727
vt 0.4758301 0.3466797
vt 0.4980469 0.3344727
vt 0.4460449 0.3344727
vt 0.4980469 0.3322754
vt 0.4445801 0.3322754
vt 0.4438477 0.3344727
vt 0.4511719 0.3466797
vt 0.4760742 0.348877
vt 0.4521484 0.348877
vt 0.4760742 0.3652344
vt 0.4521484 0.3652344
vt 0.4760742 0.3652344
vt 0.4980469 0.3688965
vt 0.4526367 0.3688965
vt 0.3662109 0.4555664
vt 0.4980469 0.4555664
vt 0.3642578 0.4592285
vt 0.4980469 0.4592285
vt 0.3620605 0.4592285
vt 0.3637695 0.4555664
vt 0.4501953 0.3688965
vt 0.4760742 0.3652344
vt 0.4521484 0.3652344
vt 0.4760742 0.3652344
vt 0.4526367 0.3688965
vt 0.4980469 0.3688965
vt 0.4521484 0.3652344
vt 0.4501953 0.3688965
vt 0.3662109 0.4555664
vt 0.4980469 0.4555664
vt 0.3642578 0.4592285
vt 0.4980469 0.4592285
vt 0.3637695 0.4555664
vt 0.3642578 0.4592285
vt 0.3620605 0.4592285
vn 1 0 0
vn 1 0 0
vn 1 0 0
vn 1 0 0
vn 1 -6.403862E-06 0
vn 1 -6.403862E-06 0
vn 1 -6.403862E-06 0
vn 1 -6.403862E-06 0
vn 1 0 0
vn 1 0 0
vn 1 0 0
vn 1 0 0
vn 0 0 -1
vn 0 0 -1
vn 0 0 -1
vn 0 0 -1
vn 0 0 -1
vn 0 0 -1
vn 0 0 -1
vn 0 0 -1
vn 0 0 -1
vn 0 0 -1
vn 0 0 -1
vn 0 0 -1
vn 0.001299999 0 0.9999992
vn 0.001299999 0 0.9999992
vn 0.001299999 0 0.9999992
vn 0.001299999 0 0.9999992
vn 0.0005999661 -0.6045658 0.796555
vn 0.0005999661 -0.6045658 0.796555
vn 0.0005999661 -0.6045658 0.796555
vn 0.0005999661 -0.6045658 0.796555
vn 0 0 1
vn 0 0 1
vn -0.5162218 -0.6838498 0.5156205
vn -0.6943424 -0.01020361 0.7195724
vn -0.4662065 -0.7516019 0.4666328
vn -0.6943424 -0.01020361 0.7195724
vn -0.6943424 -0.01020361 0.7195724
vn -0.9999992 0 -0.001299999
vn -0.9999992 0 -0.001299999
vn -0.9999992 0 -0.001299999
vn -0.9999992 0 -0.001299999
vn -0.7956105 -0.6058079 -0.0008000106
vn -0.7956105 -0.6058079 -0.0008000106
vn -0.7956105 -0.6058079 -0.0008000106
vn -0.7956105 -0.6058079 -0.0008000106
vn -1 0 0
vn -1 0 0
vn -0.6943424 -0.01020361 0.7195724
vn -0.5162218 -0.6838498 0.5156205
vn -0.4662065 -0.7516019 0.4666328
vn -0.6943424 -0.01020361 0.7195724
vn -1 0 0
vn -0.7956105 -0.6058079 -0.0008000106
vn -0.4662065 -0.7516019 0.4666328
vn -0.6943424 -0.01020361 0.7195724
vn 0 -0.3073642 -0.951592
vn 0 -0.3073642 -0.951592
vn 0 -0.3073642 -0.951592
vn 0.007899753 0 -0.9999688
vn 0.007899753 0 -0.9999688
vn 0.4648168 -0.7181408 -0.5178988
vn 0.7168021 0.05782231 -0.6948751
vn 0 0 -1
vn 0.7168021 0.05782231 -0.6948751
vn 0 0 -1
vn 0.4648168 -0.7181408 -0.5178988
vn 0.8664942 -0.4991873 0
vn 0.8664942 -0.4991873 0
vn 0.8664942 -0.4991873 0
vn 0.007899753 0 -0.9999688
vn 0.007899753 0 -0.9999688
vn 0.4648168 -0.7181408 -0.5178988
vn 0.4648168 -0.7181408 -0.5178988
vn 1 0 0
vn 0.7168021 0.05782231 -0.6948751
vn 1 0 0
vn 0.7168021 0.05782231 -0.6948751
vn 0 0 -1
vn 0 1 0
vn 0 1 0
vn 0 1 0
vn 0 1 0
vn 0.001299999 0 0.9999992
vn 0.001299999 0 0.9999992
vn 0 1 0
vn 0 1 0
vn 0 1 0
vn 0 1 0
vn 0 1 0
vn 1 0 0
vn 0 1 0
vn 0 1 0
vn 0 1 0
vn 0 1 0
vn 0 1 0
vn 0 1 0
vn 0 1 0
vn 0 1 0
vn 0 1 0
vn -0.9999992 0 -0.001299999
vn 0 1 0
g m_city_wall_right_angle_top_0
f 3/3/3 2/2/2 1/1/1
f 4/4/4 3/3/3 1/1/1
f 5/5/5 1/1/1 2/2/2
f 2/2/2 6/6/6 5/5/5
f 6/6/6 7/7/7 5/5/5
f 7/7/7 8/8/8 5/5/5
f 9/9/9 3/3/3 4/4/4
f 10/10/10 9/9/9 4/4/4
f 11/11/11 9/9/9 10/10/10
f 12/12/12 11/11/11 10/10/10
f 15/15/15 14/14/14 13/13/13
f 16/16/16 15/15/15 13/13/13
f 17/17/17 16/16/16 13/13/13
f 13/13/13 18/18/18 17/17/17
f 13/13/13 19/19/19 18/18/18
f 13/13/13 20/20/20 19/19/19
f 15/15/15 21/21/21 14/14/14
f 21/21/21 22/22/22 14/14/14
f 21/21/21 23/23/23 22/22/22
f 23/23/23 24/24/24 22/22/22
f 27/27/27 26/26/26 25/25/25
f 28/28/28 27/27/27 25/25/25
f 25/25/25 26/26/26 29/29/29
f 30/30/30 25/25/25 29/29/29
f 30/30/30 29/29/29 31/31/31
f 29/29/29 32/32/32 31/31/31
f 32/32/32 33/33/33 31/31/31
f 33/33/33 34/34/34 31/31/31
f 35/35/35 29/29/29 26/26/26
f 36/36/36 35/35/35 26/26/26
f 26/26/26 27/27/27 36/36/36
f 37/37/37 32/32/32 29/29/29
f 35/35/35 37/37/37 29/29/29
f 27/27/27 38/38/38 36/36/36
f 32/32/32 37/37/37 39/39/39
f 33/33/33 32/32/32 39/39/39
f 42/42/42 41/41/41 40/40/40
f 43/43/43 42/42/42 40/40/40
f 43/43/43 40/40/40 44/44/44
f 40/40/40 45/45/45 44/44/44
f 44/44/44 45/45/45 46/46/46
f 47/47/47 44/44/44 46/46/46
f 48/48/48 47/47/47 46/46/46
f 49/49/49 48/48/48 46/46/46
f 43/43/43 44/44/44 50/50/50
f 44/44/44 51/51/51 50/50/50
f 44/44/44 47/47/47 51/51/51
f 47/47/47 52/52/52 51/51/51
f 53/53/53 42/42/42 43/43/43
f 50/50/50 53/53/53 43/43/43
f 56/56/56 55/55/55 54/54/54
f 57/57/57 56/56/56 54/54/54
f 60/60/60 59/59/59 58/58/58
f 60/60/60 61/61/61 59/59/59
f 61/61/61 62/62/62 59/59/59
f 58/58/58 59/59/59 63/63/63
f 58/58/58 63/63/63 64/64/64
f 65/65/65 58/58/58 64/64/64
f 64/64/64 66/66/66 65/65/65
f 66/66/66 67/67/67 65/65/65
f 59/59/59 68/68/68 63/63/63
f 71/71/71 70/70/70 69/69/69
f 72/72/72 70/70/70 71/71/71
f 73/73/73 72/72/72 71/71/71
f 74/74/74 71/71/71 69/69/69
f 75/75/75 74/74/74 69/69/69
f 75/75/75 69/69/69 76/76/76
f 77/77/77 75/75/75 76/76/76
f 76/76/76 78/78/78 77/77/77
f 78/78/78 79/79/79 77/77/77
f 82/82/82 81/81/81 80/80/80
f 81/81/81 82/82/82 83/83/83
f 84/84/84 81/81/81 83/83/83
f 83/83/83 85/85/85 84/84/84
f 85/85/85 86/86/86 84/84/84
f 87/87/87 85/85/85 83/83/83
f 88/88/88 87/87/87 83/83/83
f 88/88/88 83/83/83 82/82/82
f 89/89/89 88/88/88 82/82/82
f 82/82/82 90/90/90 89/89/89
f 90/90/90 91/91/91 89/89/89
f 94/94/94 93/93/93 92/92/92
f 95/95/95 92/92/92 93/93/93
f 96/96/96 95/95/95 93/93/93
f 93/93/93 94/94/94 97/97/97
f 93/93/93 97/97/97 96/96/96
f 94/94/94 98/98/98 97/97/97
f 99/99/99 97/97/97 98/98/98
f 100/100/100 99/99/99 98/98/98
f 97/97/97 101/101/101 96/96/96
f 97/97/97 102/102/102 101/101/101
f 102/102/102 103/103/103 101/101/101
