g m_city_floor_h1_03
v -17.4 -2.220446E-15 11.94728
v -17.4 -8.881784E-16 5.947275
v -10.60483 -1.286787E-15 5.947275
v -10.60483 -2.619054E-15 11.94728
v 10.60483 -1.821838E-15 11.94728
v 10.60483 -4.895702E-16 5.947275
v 17.4 -8.881784E-16 5.947275
v 17.4 -2.220446E-15 11.94728
v -17.4 -8.881784E-16 5.947275
v -17.4 8.881784E-16 -4
v 17.4 8.881784E-16 -4
v 17.4 -8.881784E-16 5.947275
vt -0.4741211 0
vt -0.4741211 0.3762207
vt -0.09375 0.3762207
vt -0.09375 0
vt 1.09375 0
vt 1.09375 0.3762207
vt 1.474609 0.3762207
vt 1.474609 0
vt -0.4741211 0.3762207
vt -0.4741211 1
vt 1.474609 1
vt 1.474609 0.3762207
vn 0 1 0
vn 0 1 0
vn 0 1 0
vn 0 1 0
vn 0 1 0
vn 0 1 0
vn 0 1 0
vn 0 1 0
vn 0 1 0
vn 0 1 0
vn 0 1 0
vn 0 1 0
g m_city_floor_h1_03_0
f 3/3/3 2/2/2 1/1/1
f 4/4/4 3/3/3 1/1/1
f 7/7/7 6/6/6 5/5/5
f 8/8/8 7/7/7 5/5/5
f 11/11/11 10/10/10 9/9/9
f 12/12/12 11/11/11 9/9/9
