g m_city_pigeon_grounded_wings_left_01
v 0.08859466 0.1100629 0.06594492
v 0.03872383 0.1256158 0.08856148
v 0.05599182 0.1609382 0.09601741
v 0.09591682 0.134807 0.06276901
v 0.07336716 0.1893021 0.07774143
v 0.1013879 0.1609917 0.05344368
v 0.0166083 0.1777523 0.1069191
v -0.005691948 0.134262 0.09694393
v 0.04449709 0.2095962 0.09156761
v 0.006866198 0.2255433 0.08818497
v -0.01695029 0.2026137 0.09720257
v -0.0296217 0.1854027 0.09889812
v -0.04899891 0.1472128 0.09389797
v 0.07452553 0.1990374 0.05209362
v 0.09935165 0.1678932 0.04003653
v 0.07353549 0.1955369 0.04689011
v 0.09605793 0.165612 0.03580896
v 0.1674776 0.1210264 0.02380079
v 0.1656908 0.1191851 0.01825859
v 0.2280132 0.1037776 0.01355033
v 0.2291119 0.1027514 0.009060831
v 0.2300075 0.09865908 0.01825868
v 0.2317108 0.0965045 0.01497123
v 0.2263536 0.09206168 0.02188783
v 0.2273206 0.08817538 0.01946033
v 0.1552892 0.09513441 0.04477381
v 0.1526795 0.09204875 0.04172745
v 0.08225063 0.09796099 0.05812769
v 0.08039005 0.09776542 0.05423526
v 0.05240112 0.2178567 0.05415161
v 0.02635597 0.1026055 0.06776299
v 0.02563179 0.1013846 0.06265205
v -0.0184341 0.1069538 0.07539299
v -0.0195573 0.1050008 0.0702491
v -0.05538274 0.1155565 0.0790781
v -0.0563885 0.1130885 0.0714838
v -0.08055232 0.1382672 0.07939292
v -0.08337621 0.1374544 0.07083492
v -0.0795607 0.1699619 0.07959332
v -0.08167785 0.1720048 0.07107285
v 0.02489456 0.1058934 0.05898136
v 0.07944626 0.1016585 0.04772272
v -0.01745953 0.1104165 0.06605575
v -0.07676147 0.1731543 0.06740684
v -0.0773057 0.1402889 0.06673588
v -0.05131494 0.117872 0.06701522
v 0.1534982 0.09300971 0.03285882
v 0.2257894 0.08914366 0.01492148
v 0.2295026 0.09450213 0.01095466
v 0.2271526 0.09899451 0.007563734
v 0.1608996 0.1134777 0.01673713
v 0.08892059 0.1567368 0.03430979
v 0.0655822 0.187253 0.04341528
v 0.04399 0.2095129 0.04955681
v 0.02797382 0.2314759 0.05939358
v 0.05353821 0.2196553 0.05925424
v 0.02920463 0.2330609 0.0654344
v -0.002667103 0.236214 0.06473688
v -0.0002745438 0.2368258 0.07091537
v -0.03363114 0.2291711 0.06870838
v -0.02806506 0.231312 0.07437767
v 0.02261833 0.2233966 0.05498291
v -0.005443525 0.2285812 0.06199018
v -0.03523495 0.2227402 0.06496713
v -0.05212025 0.2160472 0.07055008
v -0.04947859 0.2158485 0.07773617
v -0.06322259 0.2000291 0.07956779
v -0.06634483 0.1999049 0.07173202
v -0.04611792 0.2154846 0.06758869
v -0.061915 0.1992326 0.06981456
v 0.2257894 0.08914366 0.01492148
v 0.2295026 0.09450213 0.01095466
v 0.2271526 0.09899451 0.007563734
v 0.1534982 0.09300971 0.03285882
v 0.1608996 0.1134777 0.01673713
v 0.07311241 0.1287691 0.03942089
v 0.08892059 0.1567368 0.03430979
v 0.0655822 0.187253 0.04341528
v -0.00693964 0.1675176 0.06049679
v 0.07944626 0.1016585 0.04772272
v 0.02489456 0.1058934 0.05898136
v 0.04399 0.2095129 0.04955681
v -0.01745953 0.1104165 0.06605575
v 0.02261833 0.2233966 0.05498291
v -0.005443525 0.2285812 0.06199018
v -0.03523495 0.2227402 0.06496713
v -0.04611792 0.2154846 0.06758869
v -0.05131494 0.117872 0.06701522
v -0.07676147 0.1731543 0.06740684
v -0.0773057 0.1402889 0.06673588
v -0.061915 0.1992326 0.06981456
v 0.1631383 0.1099647 0.03966087
vt 0.6569167 0.6388935
vt 0.7489886 0.665291
vt 0.7592162 0.6087448
vt 0.6654841 0.5892116
vt 0.7669826 0.5491787
vt 0.6873237 0.5407814
vt 0.8304124 0.6167804
vt 0.8172936 0.6819562
vt 0.8320145 0.5564258
vt 0.8994203 0.558512
vt 0.90277 0.6024129
vt 0.9002748 0.6303298
vt 0.886438 0.684312
vt 0.780378 0.5048838
vt 0.7005522 0.5123733
vt 0.7777005 0.4975238
vt 0.703586 0.5033855
vt 0.538641 0.5254778
vt 0.5375329 0.5143424
vt 0.4182193 0.5207419
vt 0.4107884 0.5147272
vt 0.4146565 0.5285972
vt 0.4047586 0.5261643
vt 0.4166545 0.5391743
vt 0.4082901 0.5417745
vt 0.5421355 0.5997558
vt 0.5404556 0.6093043
vt 0.6543894 0.6718979
vt 0.6535293 0.6811556
vt 0.8373179 0.4966903
vt 0.7459566 0.7197409
vt 0.7442239 0.7302746
vt 0.81288 0.738597
vt 0.8126549 0.7497818
vt 0.869311 0.7369217
vt 0.8715773 0.750451
vt 0.9262959 0.7122247
vt 0.9363524 0.7221767
vt 0.9587919 0.6714545
vt 0.973604 0.6734075
vt 0.741928 0.7437032
vt 0.6474566 0.6935773
vt 0.8124871 0.7636335
vt 0.982707 0.6752607
vt 0.9425393 0.7298541
vt 0.8737819 0.7615415
vt 0.5247727 0.6176804
vt 0.4010476 0.5453234
vt 0.3959326 0.5223549
vt 0.4070537 0.5079707
vt 0.537443 0.502533
vt 0.7037572 0.4883997
vt 0.776763 0.4827012
vt 0.8382119 0.481729
vt 0.8878316 0.5058665
vt 0.8373998 0.5040123
vt 0.8860378 0.5150172
vt 0.9345762 0.5302129
vt 0.9275244 0.53713
vt 0.9693605 0.5664551
vt 0.9561602 0.5661665
vt 0.8903918 0.4926274
vt 0.9422061 0.5209451
vt 0.9800426 0.5620805
vt 0.9799485 0.5953188
vt 0.9676321 0.5983394
vt 0.9690568 0.6261984
vt 0.9821544 0.6263298
vt 0.9860451 0.5848208
vt 0.9896029 0.6252698
vt 0.5299079 0.4779161
vt 0.5286525 0.4892747
vt 0.5351642 0.4956799
vt 0.6280575 0.4245951
vt 0.6329033 0.4648581
vt 0.7609559 0.4099455
vt 0.7654598 0.4501685
vt 0.8241664 0.4599111
vt 0.8928171 0.4057595
vt 0.7317705 0.3770013
vt 0.805074 0.3437005
vt 0.8699517 0.4705014
vt 0.8573025 0.3317426
vt 0.906882 0.4757915
vt 0.9439096 0.4697443
vt 0.9729494 0.4500682
vt 0.9796418 0.4367422
vt 0.9003723 0.3309453
vt 0.9769718 0.3797345
vt 0.9479117 0.3474155
vt 0.9838836 0.4119897
vt 0.5398155 0.5641565
vn 0.2992024 -0.3213535 0.8984486
vn 0.1913638 -0.4364887 0.8791232
vn 0.4117113 -0.07253885 0.9084227
vn 0.5031117 0.07078227 0.8613179
vn 0.6700433 0.3311354 0.6643728
vn 0.6767737 0.3735319 0.6343905
vn 0.09599242 0.01863376 0.9952076
vn -0.03106461 -0.3643644 0.9307382
vn 0.3857376 0.4729229 0.7921808
vn 0.05703198 0.5929025 0.8032522
vn -0.143608 0.4133449 0.899179
vn -0.2576802 0.06901414 0.9637624
vn -0.2561716 -0.1580686 0.9536197
vn 0.7388696 0.6521275 0.1697098
vn 0.6861356 0.727317 -0.01509529
vn 0.2113237 0.4644503 -0.8600163
vn 0.1072059 0.4509251 -0.8861001
vn 0.4818389 0.7200856 0.4993075
vn 0.08834559 0.5498391 -0.8305854
vn 0.33328 0.8612865 0.3835492
vn 0.1472442 0.6538092 -0.7421944
vn 0.3678039 0.5104815 0.7772573
vn 0.9924887 -0.1213305 0.01565389
vn 0.3299757 -0.0314973 0.9434637
vn 0.08181523 -0.977444 0.1947037
vn 0.3096306 -0.08937636 0.946647
vn -0.04679405 -0.9964881 0.06944021
vn 0.08405256 -0.7279692 0.6804381
vn -0.1116601 -0.9790567 -0.1702348
vn 0.2345685 0.5656177 -0.7906037
vn 0.05032355 -0.7204615 0.6916667
vn -0.1320708 -0.9375422 -0.3218259
vn -0.05801285 -0.6408471 0.7654734
vn -0.1728437 -0.9445555 -0.2791773
vn -0.2684165 -0.5050198 0.8203094
vn -0.4596266 -0.8459653 -0.2703445
vn -0.5460271 -0.245752 0.8009122
vn -0.8908531 -0.3845039 -0.2419451
vn -0.5282075 0.09170528 0.8441486
vn -0.953104 0.2524479 -0.1669217
vn -0.261234 -0.2440248 -0.9339211
vn -0.2583933 -0.4027242 -0.8780923
vn -0.1302444 -0.1868291 -0.9737204
vn -0.1380239 0.03316028 -0.9898736
vn -0.1399026 -0.05915014 -0.9883969
vn -0.1011494 -0.1227998 -0.9872634
vn -0.2323246 -0.7066698 -0.6683136
vn -0.1830251 -0.7179559 -0.671596
vn 0.6891165 -0.4662703 -0.5547166
vn -0.180991 -0.3668427 -0.9125069
vn -0.2195158 -0.2857811 -0.932814
vn -0.2229961 0.06301565 -0.9727803
vn -0.2123725 0.08315065 -0.9736447
vn -0.1474277 0.1448073 -0.978415
vn 0.1008635 0.7065473 -0.7004411
vn 0.5737926 0.759701 0.305968
vn 0.3397819 0.8600067 0.3807056
vn -0.1250156 0.7880592 -0.6027718
vn 0.03536664 0.9264628 0.3747211
vn -0.4189071 0.8084911 -0.4133509
vn -0.2368211 0.6955407 0.6783354
vn -0.1565954 0.126955 -0.9794694
vn -0.1701495 0.09592602 -0.9807381
vn -0.1997854 0.0815622 -0.9764392
vn -0.6818199 0.7075911 -0.1855708
vn -0.3688378 0.5169448 0.7724809
vn -0.4649683 0.2743689 0.8417401
vn -0.8340247 0.5407891 -0.1093159
vn -0.2237523 0.06930093 -0.9721791
vn -0.1633106 0.1242136 -0.978724
vn -0.1830251 -0.7179559 -0.671596
vn 0.6891165 -0.4662703 -0.5547166
vn -0.180991 -0.3668427 -0.9125069
vn -0.2323246 -0.7066698 -0.6683136
vn -0.2195158 -0.2857811 -0.932814
vn -0.2720959 -0.1160562 -0.955246
vn -0.2229961 0.06301565 -0.9727803
vn -0.2123725 0.08315065 -0.9736447
vn -0.1855193 -0.03059174 -0.9821643
vn -0.2583933 -0.4027242 -0.8780923
vn -0.261234 -0.2440248 -0.9339211
vn -0.1474277 0.1448073 -0.978415
vn -0.1302444 -0.1868291 -0.9737204
vn -0.1565954 0.126955 -0.9794694
vn -0.1701495 0.09592602 -0.9807381
vn -0.1997854 0.0815622 -0.9764392
vn -0.2237523 0.06930093 -0.9721791
vn -0.1011494 -0.1227998 -0.9872634
vn -0.1380239 0.03316028 -0.9898736
vn -0.1399026 -0.05915014 -0.9883969
vn -0.1633106 0.1242136 -0.978724
vn 0.4070061 0.3240667 0.8540064
g m_city_pigeon_grounded_wings_left_01_0
f 3/3/3 2/2/2 1/1/1
f 4/4/4 3/3/3 1/1/1
f 5/5/5 3/3/3 4/4/4
f 6/6/6 5/5/5 4/4/4
f 2/2/2 3/3/3 7/7/7
f 8/8/8 2/2/2 7/7/7
f 3/3/3 5/5/5 9/9/9
f 7/7/7 3/3/3 9/9/9
f 9/9/9 10/10/10 7/7/7
f 10/10/10 11/11/11 7/7/7
f 7/7/7 12/12/12 8/8/8
f 7/7/7 11/11/11 12/12/12
f 12/12/12 13/13/13 8/8/8
f 14/14/14 5/5/5 6/6/6
f 9/9/9 5/5/5 14/14/14
f 15/15/15 14/14/14 6/6/6
f 16/16/16 14/14/14 15/15/15
f 17/17/17 16/16/16 15/15/15
f 17/17/17 15/15/15 18/18/18
f 15/15/15 6/6/6 18/18/18
f 19/19/19 17/17/17 18/18/18
f 19/19/19 18/18/18 20/20/20
f 21/21/21 19/19/19 20/20/20
f 21/21/21 20/20/20 22/22/22
f 20/20/20 18/18/18 22/22/22
f 23/23/23 21/21/21 22/22/22
f 23/23/23 22/22/22 24/24/24
f 25/25/25 23/23/23 24/24/24
f 24/24/24 26/26/26 25/25/25
f 26/26/26 27/27/27 25/25/25
f 26/26/26 28/28/28 27/27/27
f 28/28/28 29/29/29 27/27/27
f 16/16/16 30/30/30 14/14/14
f 28/28/28 31/31/31 29/29/29
f 31/31/31 32/32/32 29/29/29
f 31/31/31 33/33/33 32/32/32
f 33/33/33 34/34/34 32/32/32
f 33/33/33 35/35/35 34/34/34
f 35/35/35 36/36/36 34/34/34
f 36/36/36 35/35/35 37/37/37
f 38/38/38 36/36/36 37/37/37
f 38/38/38 37/37/37 39/39/39
f 39/39/39 37/37/37 35/35/35
f 40/40/40 38/38/38 39/39/39
f 2/2/2 31/31/31 28/28/28
f 1/1/1 2/2/2 28/28/28
f 31/31/31 2/2/2 8/8/8
f 33/33/33 31/31/31 8/8/8
f 13/13/13 39/39/39 35/35/35
f 13/13/13 35/35/35 33/33/33
f 8/8/8 13/13/13 33/33/33
f 29/29/29 32/32/32 41/41/41
f 42/42/42 29/29/29 41/41/41
f 32/32/32 34/34/34 43/43/43
f 41/41/41 32/32/32 43/43/43
f 38/38/38 40/40/40 44/44/44
f 45/45/45 38/38/38 44/44/44
f 36/36/36 38/38/38 45/45/45
f 46/46/46 36/36/36 45/45/45
f 27/27/27 29/29/29 42/42/42
f 47/47/47 27/27/27 42/42/42
f 25/25/25 27/27/27 47/47/47
f 48/48/48 25/25/25 47/47/47
f 23/23/23 25/25/25 48/48/48
f 49/49/49 23/23/23 48/48/48
f 21/21/21 23/23/23 49/49/49
f 50/50/50 21/21/21 49/49/49
f 19/19/19 21/21/21 50/50/50
f 51/51/51 19/19/19 50/50/50
f 17/17/17 19/19/19 51/51/51
f 52/52/52 17/17/17 51/51/51
f 16/16/16 17/17/17 52/52/52
f 53/53/53 16/16/16 52/52/52
f 30/30/30 16/16/16 53/53/53
f 54/54/54 30/30/30 53/53/53
f 55/55/55 30/30/30 54/54/54
f 30/30/30 55/55/55 56/56/56
f 30/30/30 56/56/56 14/14/14
f 55/55/55 57/57/57 56/56/56
f 55/55/55 58/58/58 57/57/57
f 58/58/58 59/59/59 57/57/57
f 58/58/58 60/60/60 59/59/59
f 60/60/60 61/61/61 59/59/59
f 56/56/56 9/9/9 14/14/14
f 56/56/56 57/57/57 9/9/9
f 59/59/59 61/61/61 10/10/10
f 57/57/57 59/59/59 10/10/10
f 57/57/57 10/10/10 9/9/9
f 58/58/58 55/55/55 62/62/62
f 62/62/62 55/55/55 54/54/54
f 63/63/63 58/58/58 62/62/62
f 60/60/60 58/58/58 63/63/63
f 64/64/64 60/60/60 63/63/63
f 60/60/60 65/65/65 61/61/61
f 65/65/65 60/60/60 64/64/64
f 65/65/65 66/66/66 61/61/61
f 10/10/10 61/61/61 66/66/66
f 67/67/67 66/66/66 65/65/65
f 68/68/68 67/67/67 65/65/65
f 65/65/65 69/69/69 68/68/68
f 69/69/69 65/65/65 64/64/64
f 69/69/69 70/70/70 68/68/68
f 67/67/67 12/12/12 66/66/66
f 12/12/12 11/11/11 66/66/66
f 11/11/11 10/10/10 66/66/66
f 67/67/67 68/68/68 40/40/40
f 39/39/39 67/67/67 40/40/40
f 67/67/67 39/39/39 13/13/13
f 12/12/12 67/67/67 13/13/13
f 44/44/44 40/40/40 68/68/68
f 70/70/70 44/44/44 68/68/68
f 73/73/73 72/72/72 71/71/71
f 71/71/71 74/74/74 73/73/73
f 74/74/74 75/75/75 73/73/73
f 76/76/76 75/75/75 74/74/74
f 76/76/76 77/77/77 75/75/75
f 78/78/78 77/77/77 76/76/76
f 79/79/79 78/78/78 76/76/76
f 79/79/79 76/76/76 80/80/80
f 80/80/80 76/76/76 74/74/74
f 81/81/81 79/79/79 80/80/80
f 79/79/79 82/82/82 78/78/78
f 81/81/81 83/83/83 79/79/79
f 84/84/84 82/82/82 79/79/79
f 85/85/85 84/84/84 79/79/79
f 86/86/86 85/85/85 79/79/79
f 87/87/87 86/86/86 79/79/79
f 88/88/88 79/79/79 83/83/83
f 89/89/89 79/79/79 88/88/88
f 90/90/90 89/89/89 88/88/88
f 89/89/89 91/91/91 79/79/79
f 79/79/79 91/91/91 87/87/87
f 92/92/92 26/26/26 24/24/24
f 22/22/22 92/92/92 24/24/24
f 18/18/18 92/92/92 22/22/22
f 92/92/92 4/4/4 26/26/26
f 4/4/4 1/1/1 26/26/26
f 1/1/1 28/28/28 26/26/26
f 6/6/6 4/4/4 92/92/92
f 18/18/18 6/6/6 92/92/92
f 34/34/34 36/36/36 46/46/46
f 43/43/43 34/34/34 46/46/46
