g m_city_basil_01
v 0.1111058 -0.03198723 0.1481262
v 0.1005754 0.1905462 -0.00177402
v -0.1276833 0.1042655 -0.1138263
v -0.1171527 -0.1182679 0.03607388
v 0.0722995 -0.1269811 -0.03756534
v 0.03646942 0.1141142 -0.150221
v -0.100338 0.1949273 0.06623898
v -0.0645079 -0.04616814 0.1788949
v -0.04584594 -0.08096809 -0.1323877
v 0.1824126 0.005312576 -0.02033542
v 0.04138351 0.1283436 0.1722164
v -0.186875 0.04206291 0.06016415
v 0.1111058 -0.03198723 0.1481262
v -0.1171527 -0.1182679 0.03607388
v -0.1276833 0.1042655 -0.1138263
v 0.1005754 0.1905462 -0.00177402
v 0.0722995 -0.1269811 -0.03756534
v -0.0645079 -0.04616814 0.1788949
v -0.100338 0.1949273 0.06623898
v 0.03646942 0.1141142 -0.150221
v 0.02014572 -0.101468 0.1569299
v 0.2217815 0.02535393 0.03298947
v 0.06313812 0.07051292 -0.178895
v -0.1384978 -0.05630913 -0.05495456
v 0.002827757 -0.2004969 -0.0298978
v 0.1868367 -0.03379631 -0.1321411
v 0.07249039 0.1718093 -0.002706332
v -0.1115184 0.005108719 0.09953701
v -0.003753816 -0.1211407 -0.1667414
v 0.1548897 -0.1662995 0.04514309
v 0.07566009 0.06603401 0.1539816
v -0.0829834 0.111193 -0.05790287
v 0.02014572 -0.101468 0.1569299
v -0.1384978 -0.05630913 -0.05495456
v 0.06313812 0.07051292 -0.178895
v 0.2217815 0.02535393 0.03298947
v 0.002827757 -0.2004969 -0.0298978
v -0.1115184 0.005108719 0.09953701
v 0.07249039 0.1718093 -0.002706332
v 0.1868367 -0.03379631 -0.1321411
v 0.08131348 -0.1189802 0.0203619
v 0.05966781 0.07481559 -0.1642371
v -0.1441008 0.1829588 -0.02681278
v -0.1224551 -0.01083687 0.1577862
v -0.1288277 -0.1310882 -0.006195101
v -0.1187746 0.0868235 -0.1627695
v 0.05580887 0.2004969 0.006644559
v 0.04575561 -0.01741478 0.1632186
v -0.2217815 -0.003067245 -0.000103793
v -0.01801285 -0.1112104 -0.1375281
v 0.1555148 0.03995293 0.0008187534
v -0.04825378 0.1480961 0.1382431
v 0.08131348 -0.1189802 0.0203619
v -0.1224551 -0.01083687 0.1577862
v -0.1441008 0.1829588 -0.02681278
v 0.05966781 0.07481559 -0.1642371
v -0.1288277 -0.1310882 -0.006195101
v 0.04575561 -0.01741478 0.1632186
v 0.05580887 0.2004969 0.006644559
v -0.1187746 0.0868235 -0.1627695
vt 0 0.5
vt 0 0.9977701
vt 0.5 0.9977701
vt 0.5 0.5
vt 0.5 0.5
vt 0.5 0.9977701
vt 0.9973452 0.9977701
vt 0.9973452 0.5
vt 0.001945108 0.003544956
vt 0.001945108 0.5
vt 0.5 0.5
vt 0.5 0.003544956
vt 0 0.5
vt 0.5 0.5
vt 0.5 0.9977701
vt 0 0.9977701
vt 0.5 0.5
vt 0.9973452 0.5
vt 0.9973452 0.9977701
vt 0.5 0.9977701
vt 0 0.5
vt 0 0.9977701
vt 0.5 0.9977701
vt 0.5 0.5
vt 0.5 0.5
vt 0.5 0.9977701
vt 0.9973452 0.9977701
vt 0.9973452 0.5
vt 0.001945108 0.003544956
vt 0.001945108 0.5
vt 0.5 0.5
vt 0.5 0.003544956
vt 0 0.5
vt 0.5 0.5
vt 0.5 0.9977701
vt 0 0.9977701
vt 0.5 0.5
vt 0.9973452 0.5
vt 0.9973452 0.9977701
vt 0.5 0.9977701
vt 0 0.5
vt 0 0.9977701
vt 0.5 0.9977701
vt 0.5 0.5
vt 0.5 0.5
vt 0.5 0.9977701
vt 0.9973452 0.9977701
vt 0.9973452 0.5
vt 0.001945108 0.003544956
vt 0.001945108 0.5
vt 0.5 0.5
vt 0.5 0.003544956
vt 0 0.5
vt 0.5 0.5
vt 0.5 0.9977701
vt 0 0.9977701
vt 0.5 0.5
vt 0.9973452 0.5
vt 0.9973452 0.9977701
vt 0.5 0.9977701
vn 0.5252125 -0.4581845 -0.7170904
vn 0.5252125 -0.4581845 -0.7170905
vn 0.5252125 -0.4581845 -0.7170904
vn 0.5252125 -0.4581845 -0.7170904
vn -0.8500671 -0.3213214 -0.4172989
vn -0.8500671 -0.3213214 -0.4172989
vn -0.8500671 -0.3213214 -0.4172989
vn -0.8500671 -0.3213214 -0.4172989
vn -0.03921613 0.8287453 -0.5582502
vn -0.03921614 0.8287453 -0.5582502
vn -0.03921613 0.8287453 -0.5582502
vn -0.03921614 0.8287453 -0.5582502
vn -0.5252131 0.4581841 0.7170904
vn -0.5252131 0.4581841 0.7170903
vn -0.5252131 0.4581841 0.7170903
vn -0.5252131 0.4581841 0.7170903
vn 0.8500674 0.3213211 0.4172986
vn 0.8500674 0.3213211 0.4172986
vn 0.8500674 0.3213212 0.4172986
vn 0.8500674 0.3213211 0.4172986
vn 0.2950621 -0.8652436 -0.4053294
vn 0.2950621 -0.8652436 -0.4053294
vn 0.2950621 -0.8652436 -0.4053295
vn 0.2950621 -0.8652436 -0.4053294
vn -0.5908105 0.1681782 -0.7890875
vn -0.5908105 0.1681782 -0.7890875
vn -0.5908105 0.1681782 -0.7890875
vn -0.5908105 0.1681782 -0.7890875
vn 0.7509204 0.4723027 -0.4615721
vn 0.7509204 0.4723028 -0.4615721
vn 0.7509204 0.4723027 -0.4615721
vn 0.7509203 0.4723028 -0.4615721
vn -0.2950622 0.8652434 0.4053296
vn -0.2950622 0.8652434 0.4053296
vn -0.2950622 0.8652434 0.4053296
vn -0.2950622 0.8652434 0.4053296
vn 0.5908108 -0.1681781 0.7890872
vn 0.5908108 -0.1681781 0.7890873
vn 0.5908108 -0.1681781 0.7890872
vn 0.5908108 -0.1681781 0.7890872
vn -0.6462417 -0.5629535 -0.5152233
vn -0.6462417 -0.5629535 -0.5152233
vn -0.6462417 -0.5629535 -0.5152233
vn -0.6462417 -0.5629535 -0.5152233
vn -0.7588635 0.4027402 0.5117876
vn -0.7588635 0.4027402 0.5117876
vn -0.7588635 0.4027402 0.5117876
vn -0.7588634 0.4027402 0.5117876
vn -0.08061086 0.7217226 -0.6874725
vn -0.08061086 0.7217226 -0.6874725
vn -0.08061086 0.7217226 -0.6874725
vn -0.08061086 0.7217226 -0.6874725
vn 0.6462421 0.5629533 0.515223
vn 0.6462421 0.5629533 0.515223
vn 0.6462421 0.5629533 0.515223
vn 0.6462421 0.5629534 0.515223
vn 0.7588629 -0.4027407 -0.5117882
vn 0.7588629 -0.4027407 -0.5117881
vn 0.7588629 -0.4027407 -0.5117881
vn 0.7588629 -0.4027407 -0.5117881
g m_city_basil_01_0
f 3/3/3 2/2/2 1/1/1
f 4/4/4 3/3/3 1/1/1
f 7/7/7 6/6/6 5/5/5
f 8/8/8 7/7/7 5/5/5
f 11/11/11 10/10/10 9/9/9
f 12/12/12 11/11/11 9/9/9
f 15/15/15 14/14/14 13/13/13
f 16/16/16 15/15/15 13/13/13
f 19/19/19 18/18/18 17/17/17
f 20/20/20 19/19/19 17/17/17
f 23/23/23 22/22/22 21/21/21
f 24/24/24 23/23/23 21/21/21
f 27/27/27 26/26/26 25/25/25
f 28/28/28 27/27/27 25/25/25
f 31/31/31 30/30/30 29/29/29
f 32/32/32 31/31/31 29/29/29
f 35/35/35 34/34/34 33/33/33
f 36/36/36 35/35/35 33/33/33
f 39/39/39 38/38/38 37/37/37
f 40/40/40 39/39/39 37/37/37
f 43/43/43 42/42/42 41/41/41
f 44/44/44 43/43/43 41/41/41
f 47/47/47 46/46/46 45/45/45
f 48/48/48 47/47/47 45/45/45
f 51/51/51 50/50/50 49/49/49
f 52/52/52 51/51/51 49/49/49
f 55/55/55 54/54/54 53/53/53
f 56/56/56 55/55/55 53/53/53
f 59/59/59 58/58/58 57/57/57
f 60/60/60 59/59/59 57/57/57
