g m_city_wall_straight_04_inside_blank
v -0.5999979 1.792534 -0.2353621
v -0.5999979 0.3253814 -0.2356302
v 0.6000024 0.3255865 -0.2357687
v 0.6000024 1.792534 -0.2353621
v 0.6000024 0.2756142 -0.2900906
v -0.5999979 0.2756141 -0.2900906
v -0.5999979 0.25298 -0.2999998
v 0.6000024 0.25298 -0.2999998
v -0.5999979 0.3253814 -0.2356302
v 0.6000024 0.3255865 -0.2357687
v 0.6000024 0 -0.2999998
v -0.5999979 0 -0.2999998
vt 0.2237315 0.320212
vt 0.002436336 0.320212
vt 0.002436843 0.4975645
vt 0.2237315 0.4975645
vt 0.2973168 0.7378011
vt 0.481792 0.7370909
vt 0.4818915 0.7329639
vt 0.2969376 0.7336649
vt 0.4814028 0.7496191
vt 0.2980537 0.7502525
vt 0.2991979 0.6910744
vt 0.4804718 0.6907265
vn 0 0 -1
vn 0 0 -1
vn 0 0 -1
vn 0 0 -1
vn -9.99989E-05 0.7370918 -0.6757926
vn -9.99989E-05 0.7370918 -0.6757926
vn 0 0 -1
vn 0 0 -1
vn -9.99989E-05 0.7370918 -0.6757926
vn -9.99989E-05 0.7370918 -0.6757926
vn 0 0 -1
vn 0 0 -1
g m_city_wall_straight_04_inside_blank_0
f 3/3/3 2/2/2 1/1/1
f 4/4/4 3/3/3 1/1/1
f 7/7/7 6/6/6 5/5/5
f 8/8/8 7/7/7 5/5/5
f 6/6/6 9/9/9 5/5/5
f 9/9/9 10/10/10 5/5/5
f 7/7/7 8/8/8 11/11/11
f 12/12/12 7/7/7 11/11/11
