g m_city_seat_03
v -0.3792003 0.2654158 0.3921745
v -0.3792003 -0.2749348 0.3921745
v -0.3870372 -0.2749348 0.3843327
v -0.3870372 0.2654158 0.3843327
v -0.3792003 -0.2827747 0.3843327
v -0.3792003 0.2732558 0.3843327
v 0.3708405 0.2732558 0.3843327
v 0.3708405 0.2654158 0.3921745
v -0.3792003 0.2654158 0.3921745
v -0.3792003 0.2732558 -0.3754409
v 0.3708405 0.2732558 -0.3754409
v -0.3792003 0.2654158 -0.3832827
v 0.3708405 0.2654158 -0.3832827
v 0.3708405 0.2732558 0.3843327
v 0.3708405 0.2732558 -0.3754409
v 0.3786801 0.2654159 -0.3754409
v 0.3786801 0.2654159 0.3843327
v 0.3708405 0.2654158 0.3921745
v 0.3708405 0.2654158 -0.3832827
v 0.3786801 0.2654159 0.3843327
v 0.3786801 -0.2749348 0.3843327
v 0.3708405 -0.2749348 0.3921745
v 0.3708405 0.2654158 0.3921745
v 0.3708405 -0.2827747 0.3843327
v -0.3792003 0.2732558 -0.3754409
v -0.3792003 0.2732558 0.3843327
v -0.3870372 0.2654158 0.3843327
v -0.3870372 0.2654158 -0.3754409
v -0.3792003 0.2654158 0.3921745
v -0.3792003 0.2654158 -0.3832827
v -0.3870372 0.2654158 -0.3754409
v -0.3870372 -0.2749348 -0.3754409
v -0.3792003 -0.2749348 -0.3832827
v -0.3792003 0.2654158 -0.3832827
v -0.3792003 -0.2827747 -0.3754409
v 0.3708405 0.2654158 -0.3832827
v 0.3708405 -0.2749348 -0.3832827
v 0.3786801 -0.2749348 -0.3754409
v 0.3786801 0.2654159 -0.3754409
v 0.3708405 -0.2827747 -0.3754409
v 0.3708405 0.09848346 0.2353605
v 0.3708405 -0.2749348 0.2353605
v 0.3786801 -0.2749348 0.2431974
v 0.3786801 0.1063235 0.2431974
v 0.3786801 -0.2749348 0.3843327
v 0.3708405 -0.2827747 0.2431974
v 0.3708405 -0.2827747 0.3843327
v 0.3786801 0.2654159 0.3843327
v 0.3708405 -0.2827747 0.2431974
v 0.3786801 0.1063235 0.2431974
v 0.3786801 0.1063235 -0.2343081
v 0.3708405 0.09848346 -0.2264663
v 0.3708405 0.09848346 0.2353605
v 0.3786801 0.2654159 0.3843327
v 0.3786801 0.2654159 -0.3754409
v 0.3786801 0.1063235 -0.2343081
v 0.3786801 -0.2749348 -0.2343081
v 0.3708405 -0.2749348 -0.2264663
v 0.3708405 0.09848346 -0.2264663
v 0.3786801 -0.2749348 -0.3754409
v 0.3708405 -0.2827747 -0.3754409
v 0.3708405 -0.2827747 -0.2343081
v 0.3786801 0.2654159 -0.3754409
v 0.3708405 -0.2827747 -0.2343081
v -0.3870372 0.1063235 0.2431974
v -0.3870372 -0.2749348 0.2431974
v -0.3792003 -0.2749348 0.2353605
v -0.3792003 0.09848346 0.2353605
v -0.3792003 -0.2827747 0.2431974
v -0.3870372 -0.2749348 0.3843327
v -0.3792003 -0.2827747 0.3843327
v -0.3792003 -0.2827747 0.2431974
v -0.3870372 0.2654158 0.3843327
v -0.3792003 0.09848346 0.2353605
v -0.3792003 0.09848346 -0.2264663
v -0.3870372 0.1063235 -0.2343081
v -0.3870372 0.1063235 0.2431974
v -0.3870372 0.2654158 -0.3754409
v -0.3870372 0.2654158 0.3843327
v -0.3792003 0.09848346 -0.2264663
v -0.3792003 -0.2749348 -0.2264663
v -0.3870372 -0.2749348 -0.2343081
v -0.3870372 0.1063235 -0.2343081
v -0.3792003 -0.2827747 -0.2343081
v -0.3870372 -0.2749348 -0.3754409
v -0.3792003 -0.2827747 -0.2343081
v -0.3792003 -0.2827747 -0.3754409
v -0.3870372 0.2654158 -0.3754409
v -0.3792003 -0.2827747 -0.3754409
v 0.3708405 -0.2827747 -0.3754409
v 0.3708405 -0.2749348 -0.3832827
v -0.3792003 -0.2749348 -0.3832827
v 0.3708405 0.2654158 -0.3832827
v -0.3792003 0.2654158 -0.3832827
v 0.3708405 -0.2827747 -0.2343081
v -0.3792003 -0.2827747 -0.2343081
v -0.3792003 -0.2749348 -0.2264663
v 0.3708405 -0.2749348 -0.2264663
v 0.3708405 0.09848346 -0.2264663
v -0.3792003 0.09848346 -0.2264663
v 0.3708405 -0.2749348 0.2353605
v -0.3792003 -0.2749348 0.2353605
v -0.3792003 -0.2827747 0.2431974
v 0.3708405 -0.2827747 0.2431974
v -0.3792003 0.09848346 0.2353605
v 0.3708405 0.09848346 0.2353605
v 0.3708405 -0.2827747 0.3843327
v -0.3792003 -0.2827747 0.3843327
v -0.3792003 -0.2749348 0.3921745
v 0.3708405 -0.2749348 0.3921745
v -0.3792003 0.2654158 0.3921745
v 0.3708405 0.2654158 0.3921745
v -0.3792003 -0.2827747 -0.3754409
v -0.3792003 -0.2827747 -0.2343081
v 0.3708405 -0.2827747 -0.2343081
v 0.3708405 -0.2827747 -0.3754409
v -0.3792003 -0.2827747 0.2431974
v -0.3792003 -0.2827747 0.3843327
v 0.3708405 -0.2827747 0.3843327
v 0.3708405 -0.2827747 0.2431974
vt 0.6835938 0.7543945
vt 0.5043945 0.7543945
vt 0.5043945 0.7578125
vt 0.6835938 0.7578125
vt 0.5014648 0.7563477
vt 0.4924316 0.9868164
vt 0.348877 0.9868164
vt 0.348877 0.9902344
vt 0.4924316 0.9902344
vt 0.4924316 0.5039063
vt 0.348877 0.5039063
vt 0.4924316 0.5004883
vt 0.348877 0.5004883
vt 0.9228516 0.987793
vt 0.9228516 0.5058594
vt 0.9194336 0.5058594
vt 0.9189453 0.9873047
vt 0.9208984 0.9902344
vt 0.9213867 0.5029297
vt 0.9765625 0.8071289
vt 0.9765625 0.9868164
vt 0.9799805 0.9868164
vt 0.9799805 0.8071289
vt 0.9785156 0.9897461
vt 0.8911133 0.034729
vt 0.8911133 0.5170898
vt 0.8945313 0.5170898
vt 0.8945313 0.03469849
vt 0.8925781 0.5195313
vt 0.8925781 0.0317688
vt 0.3815918 0.4936523
vt 0.3815918 0.314209
vt 0.3781738 0.314209
vt 0.3781738 0.4936523
vt 0.3798828 0.3112793
vt 0.4355469 0.3110352
vt 0.4355469 0.4902344
vt 0.4389648 0.4902344
vt 0.4389648 0.3110352
vt 0.4372559 0.4931641
vt 0.9301758 0.855957
vt 0.9301758 0.9868164
vt 0.9335938 0.9868164
vt 0.9335938 0.8535156
vt 0.9765625 0.9868164
vt 0.9335938 0.9902344
vt 0.9765625 0.9902344
vt 0.9765625 0.8071289
vt 0.9316406 0.9897461
vt 0.8730469 0.9443359
vt 0.8735352 0.5488281
vt 0.8701172 0.5512695
vt 0.8696289 0.9418945
vt 0.9189453 0.9873047
vt 0.9194336 0.5058594
vt 0.4824219 0.3569336
vt 0.4824219 0.4902344
vt 0.4855957 0.4902344
vt 0.4855957 0.359375
vt 0.4389648 0.4902344
vt 0.4389648 0.4936523
vt 0.4824219 0.4936523
vt 0.4389648 0.3110352
vt 0.4841309 0.4931641
vt 0.6376953 0.8012695
vt 0.5043945 0.8012695
vt 0.5043945 0.8046875
vt 0.6352539 0.8046875
vt 0.5014648 0.8027344
vt 0.5043945 0.7578125
vt 0.5009766 0.7578125
vt 0.5009766 0.8012695
vt 0.6835938 0.7578125
vt 0.9438477 0.4711914
vt 0.9438477 0.08032227
vt 0.9404297 0.07788086
vt 0.9404297 0.4736328
vt 0.8945313 0.03469849
vt 0.8945313 0.5170898
vt 0.4282227 0.4453125
vt 0.4282227 0.314209
vt 0.4248047 0.314209
vt 0.4248047 0.4475098
vt 0.4265137 0.3112793
vt 0.3815918 0.314209
vt 0.4248047 0.3110352
vt 0.3815918 0.3110352
vt 0.3815918 0.4936523
vt 0.6835938 0.7460938
vt 0.6835938 0.6025391
vt 0.6801758 0.6025391
vt 0.6801758 0.7460938
vt 0.5009766 0.6025391
vt 0.5009766 0.7460938
vt 0.7270508 0.6025391
vt 0.7270508 0.7460938
vt 0.7304688 0.7460938
vt 0.7304688 0.6025391
vt 0.8613281 0.6025391
vt 0.8613281 0.7460938
vt 0.1408691 0.348877
vt 0.1408691 0.4924316
vt 0.1442871 0.4924316
vt 0.1442871 0.348877
vt 0.01000214 0.4924316
vt 0.01000214 0.348877
vt 0.1875 0.348877
vt 0.1875 0.4924316
vt 0.190918 0.4924316
vt 0.190918 0.348877
vt 0.3703613 0.4924316
vt 0.3703613 0.348877
vt 0.6835938 0.7460938
vt 0.7270508 0.7460938
vt 0.7270508 0.6025391
vt 0.6835938 0.6025391
vt 0.1442871 0.4924316
vt 0.1875 0.4924316
vt 0.1875 0.348877
vt 0.1442871 0.348877
vn 0 0 1
vn 0 0 1
vn -1 0 0
vn -1 0 0
vn 0 -1 0
vn 0 1 0
vn 0 1 0
vn 0 0 1
vn 0 0 1
vn 0 1 0
vn 0 1 0
vn 0 0 -1
vn 0 0 -1
vn 0 1 0
vn 0 1 0
vn 1 0 0
vn 1 0 0
vn 0 0 1
vn 0 0 -1
vn 1 0 0
vn 1 0 0
vn 0 0 1
vn 0 0 1
vn 0 -1 0
vn 0 1 0
vn 0 1 0
vn -1 0 0
vn -1 0 0
vn 0 0 1
vn 0 0 -1
vn -1 0 0
vn -1 0 0
vn 0 0 -1
vn 0 0 -1
vn 0 -1 0
vn 0 0 -1
vn 0 0 -1
vn 1 0 0
vn 1 0 0
vn 0 -1 0
vn 0 0 -1
vn 0 0 -1
vn 1 0 0
vn 1 0 0
vn 1 0 0
vn 0 -1 0
vn 0 -1 0
vn 1 0 0
vn 0 -1 0
vn 1 0 0
vn 1 0 0
vn 0 0 1
vn 0 0 -1
vn 1 0 0
vn 1 0 0
vn 1 0 0
vn 1 0 0
vn 0 0 1
vn 0 0 1
vn 1 0 0
vn 0 -1 0
vn 0 -1 0
vn 1 0 0
vn 0 -1 0
vn -1 0 0
vn -1 0 0
vn 0 0 -1
vn 0 0 -1
vn 0 -1 0
vn -1 0 0
vn 0 -1 0
vn 0 -1 0
vn -1 0 0
vn 0 0 -1
vn 0 0 1
vn -1 0 0
vn -1 0 0
vn -1 0 0
vn -1 0 0
vn 0 0 1
vn 0 0 1
vn -1 0 0
vn -1 0 0
vn 0 -1 0
vn -1 0 0
vn 0 -1 0
vn 0 -1 0
vn -1 0 0
vn 0 -1 0
vn 0 -1 0
vn 0 0 -1
vn 0 0 -1
vn 0 0 -1
vn 0 0 -1
vn 0 -1 0
vn 0 -1 0
vn 0 0 1
vn 0 0 1
vn 0 0 1
vn 0 0 1
vn 0 0 -1
vn 0 0 -1
vn 0 -1 0
vn 0 -1 0
vn 0 0 -1
vn 0 0 -1
vn 0 -1 0
vn 0 -1 0
vn 0 0 1
vn 0 0 1
vn 0 0 1
vn 0 0 1
vn 0 -1 0
vn 0 -1 0
vn 0 -1 0
vn 0 -1 0
vn 0 -1 0
vn 0 -1 0
vn 0 -1 0
vn 0 -1 0
g m_city_seat_03_0
f 3/3/3 2/2/2 1/1/1
f 4/4/4 3/3/3 1/1/1
f 2/2/2 3/3/3 5/5/5
f 8/8/8 7/7/7 6/6/6
f 9/9/9 8/8/8 6/6/6
f 6/6/6 7/7/7 10/10/10
f 7/7/7 11/11/11 10/10/10
f 10/10/10 11/11/11 12/12/12
f 11/11/11 13/13/13 12/12/12
f 16/16/16 15/15/15 14/14/14
f 17/17/17 16/16/16 14/14/14
f 18/18/18 17/17/17 14/14/14
f 19/19/19 15/15/15 16/16/16
f 22/22/22 21/21/21 20/20/20
f 23/23/23 22/22/22 20/20/20
f 21/21/21 22/22/22 24/24/24
f 27/27/27 26/26/26 25/25/25
f 28/28/28 27/27/27 25/25/25
f 29/29/29 26/26/26 27/27/27
f 30/30/30 28/28/28 25/25/25
f 33/33/33 32/32/32 31/31/31
f 34/34/34 33/33/33 31/31/31
f 33/33/33 35/35/35 32/32/32
f 38/38/38 37/37/37 36/36/36
f 39/39/39 38/38/38 36/36/36
f 37/37/37 38/38/38 40/40/40
f 43/43/43 42/42/42 41/41/41
f 44/44/44 43/43/43 41/41/41
f 45/45/45 43/43/43 44/44/44
f 43/43/43 45/45/45 46/46/46
f 45/45/45 47/47/47 46/46/46
f 48/48/48 45/45/45 44/44/44
f 42/42/42 43/43/43 49/49/49
f 52/52/52 51/51/51 50/50/50
f 53/53/53 52/52/52 50/50/50
f 50/50/50 51/51/51 54/54/54
f 51/51/51 55/55/55 54/54/54
f 58/58/58 57/57/57 56/56/56
f 59/59/59 58/58/58 56/56/56
f 56/56/56 57/57/57 60/60/60
f 60/60/60 57/57/57 61/61/61
f 57/57/57 62/62/62 61/61/61
f 63/63/63 56/56/56 60/60/60
f 57/57/57 58/58/58 64/64/64
f 67/67/67 66/66/66 65/65/65
f 68/68/68 67/67/67 65/65/65
f 67/67/67 69/69/69 66/66/66
f 65/65/65 66/66/66 70/70/70
f 71/71/71 70/70/70 66/66/66
f 72/72/72 71/71/71 66/66/66
f 73/73/73 65/65/65 70/70/70
f 76/76/76 75/75/75 74/74/74
f 77/77/77 76/76/76 74/74/74
f 78/78/78 76/76/76 77/77/77
f 79/79/79 78/78/78 77/77/77
f 82/82/82 81/81/81 80/80/80
f 83/83/83 82/82/82 80/80/80
f 81/81/81 82/82/82 84/84/84
f 85/85/85 82/82/82 83/83/83
f 86/86/86 82/82/82 85/85/85
f 87/87/87 86/86/86 85/85/85
f 88/88/88 85/85/85 83/83/83
f 91/91/91 90/90/90 89/89/89
f 92/92/92 91/91/91 89/89/89
f 93/93/93 91/91/91 92/92/92
f 94/94/94 93/93/93 92/92/92
f 97/97/97 96/96/96 95/95/95
f 98/98/98 97/97/97 95/95/95
f 97/97/97 98/98/98 99/99/99
f 100/100/100 97/97/97 99/99/99
f 103/103/103 102/102/102 101/101/101
f 104/104/104 103/103/103 101/101/101
f 101/101/101 102/102/102 105/105/105
f 106/106/106 101/101/101 105/105/105
f 109/109/109 108/108/108 107/107/107
f 110/110/110 109/109/109 107/107/107
f 111/111/111 109/109/109 110/110/110
f 112/112/112 111/111/111 110/110/110
f 115/115/115 114/114/114 113/113/113
f 116/116/116 115/115/115 113/113/113
f 119/119/119 118/118/118 117/117/117
f 120/120/120 119/119/119 117/117/117
