g m_city_floor_h4_01
v -600 -5.960464E-08 -397.0159
v -600 5.960464E-08 -720
v -108.4285 5.960464E-08 -720
v -108.4285 -5.960464E-08 -397.0159
v 108.4286 -5.960464E-08 -397.0159
v 108.4286 5.960464E-08 -720
v 600 -5.960464E-08 -397.0159
v 600 5.960464E-08 -720
v -600 -5.960464E-08 397.0159
v -108.4285 -5.960464E-08 397.0159
v -600 5.960464E-08 720
v -108.4285 5.960464E-08 720
v 108.4286 -5.960464E-08 397.0159
v 108.4286 5.960464E-08 720
v 600 -5.960464E-08 397.0159
v 600 5.960464E-08 720
vt 0 0.7758789
vt 0 1
vt 0.3413086 1
vt 0.3413086 0.7758789
vt 0.4919434 0.7758789
vt 0.4919434 1
vt 0.8334961 0.7758789
vt 0.8334961 1
vt 0 0.2242432
vt 0.3413086 0.2242432
vt 0 0
vt 0.3413086 0
vt 0.4919434 0.2242432
vt 0.4919434 0
vt 0.8334961 0.2242432
vt 0.8334961 0
vn 0 1 0
vn 0 1 0
vn 0 1 0
vn 0 1 0
vn 0 1 0
vn 0 1 0
vn 0 1 0
vn 0 1 0
vn 0 1 0
vn 0 1 0
vn 0 1 0
vn 0 1 0
vn 0 1 0
vn 0 1 0
vn 0 1 0
vn 0 1 0
g m_city_floor_h4_01_0
f 3/3/3 2/2/2 1/1/1
f 4/4/4 3/3/3 1/1/1
f 4/4/4 5/5/5 3/3/3
f 5/5/5 6/6/6 3/3/3
f 5/5/5 7/7/7 6/6/6
f 7/7/7 8/8/8 6/6/6
f 4/4/4 1/1/1 9/9/9
f 10/10/10 4/4/4 9/9/9
f 10/10/10 9/9/9 11/11/11
f 12/12/12 10/10/10 11/11/11
f 10/10/10 12/12/12 13/13/13
f 5/5/5 13/13/13 7/7/7
f 12/12/12 14/14/14 13/13/13
f 13/13/13 14/14/14 15/15/15
f 13/13/13 15/15/15 7/7/7
f 14/14/14 16/16/16 15/15/15
