g m_city_wall_left_angle_inside
v -0.1729196 0.09328613 -0.3854046
v -0.1729196 0.09320976 -0.3918586
v 0.3737064 0.09320968 -0.3915558
v 0.3672709 0.09328613 -0.3851215
v 0.4264945 0.07025589 -0.4438647
v -0.1729196 0.07025589 -0.4437757
v 0.3842972 0.09320968 -0.3871514
v 0.3778665 0.09328613 -0.3807171
v 0.4370853 0.07025589 -0.4394602
v 0.4432913 0.06202011 -0.445665
v 0.4326957 0.06202011 -0.4500696
v -0.1729196 0.07025589 -0.4437757
v -0.1729196 0.06202003 -0.4499997
v 0.4326957 0.06202011 -0.4500696
v 0.4264945 0.07025589 -0.4438647
v -0.1729196 -1 -0.4499997
v 0.4326957 -1 -0.4500695
v 0.4432913 -1 -0.445665
v 0.4432913 0.06202011 -0.445665
v 0.3672709 0.09328613 -0.3851215
v 0.3672709 0.7925342 -0.3851215
v -0.1729196 0.7925342 -0.3854046
v -0.1729196 0.09328613 -0.3854046
v 0.3778665 0.09328613 -0.3807171
v 0.3778665 0.7925342 -0.3807171
v 0.3825541 0.09328613 0.170079
v 0.3822708 0.09328613 -0.3701228
v 0.3887015 0.09320968 -0.3765571
v 0.3890091 0.09320976 0.1700793
v 0.4414896 0.07025589 -0.428866
v 0.4409232 0.07025589 0.1700793
v 0.3778665 0.09328613 -0.3807171
v 0.3842972 0.09320968 -0.3871514
v 0.4370853 0.07025589 -0.4394602
v 0.4476956 0.06202011 -0.4350709
v 0.4432913 0.06202011 -0.445665
v 0.4409232 0.07025589 0.1700793
v 0.4414896 0.07025589 -0.428866
v 0.4476956 0.06202011 -0.4350709
v 0.4471488 0.06202003 0.1700793
v 0.4476956 -1 -0.4350709
v 0.4471488 -1 0.1700793
v 0.4432913 0.06202011 -0.445665
v 0.4432913 -1 -0.445665
v 0.3822708 0.09328613 -0.3701228
v 0.3825541 0.09328613 0.170079
v 0.3825541 0.7925342 0.170079
v 0.3822708 0.7925342 -0.3701228
v 0.3778665 0.7925342 -0.3807171
v 0.3778665 0.09328613 -0.3807171
vt 0.2653809 0.1860352
vt 0.2668457 0.1834717
vt 0.4157715 0.1833496
vt 0.4152832 0.1859131
vt 0.425293 0.1745605
vt 0.2666016 0.1746826
vt 0.418457 0.1833496
vt 0.4179688 0.1859131
vt 0.4279785 0.1745605
vt 0.4291992 0.1728516
vt 0.4265137 0.1728516
vt 0.2666016 0.1746826
vt 0.2666016 0.1728516
vt 0.4265137 0.1728516
vt 0.425293 0.1745605
vt 0.2687988 0.004112244
vt 0.4255371 0.004501343
vt 0.4282227 0.004508972
vt 0.4291992 0.1728516
vt 0.06848145 0.7158203
vt 0.06848145 0.8378906
vt 0.1468506 0.8378906
vt 0.1468506 0.7158203
vt 0.06622314 0.7158203
vt 0.06622314 0.8378906
vt 0.2653809 0.1860352
vt 0.4152832 0.1859131
vt 0.4157715 0.1833496
vt 0.2668457 0.1834717
vt 0.425293 0.1745605
vt 0.2666016 0.1746826
vt 0.4179688 0.1859131
vt 0.418457 0.1833496
vt 0.4279785 0.1745605
vt 0.4265137 0.1728516
vt 0.4291992 0.1728516
vt 0.2666016 0.1746826
vt 0.425293 0.1745605
vt 0.4265137 0.1728516
vt 0.2666016 0.1728516
vt 0.4255371 0.004501343
vt 0.2687988 0.004112244
vt 0.4291992 0.1728516
vt 0.4282227 0.004508972
vt 0.06848145 0.7158203
vt 0.1468506 0.7158203
vt 0.1468506 0.8378906
vt 0.06848145 0.8378906
vt 0.06622314 0.8378906
vt 0.06622314 0.7158203
vn 0 0 -1
vn 9.999597E-05 0.9151631 -0.4030838
vn 9.999597E-05 0.9151631 -0.4030838
vn 0 0 -1
vn 9.999597E-05 0.9151631 -0.4030838
vn 9.999597E-05 0.9151631 -0.4030838
vn 0.1955759 0.9609268 -0.1958816
vn 0.7069818 0.01624208 -0.7070451
vn 0.2663069 0.9265257 -0.2657643
vn 0.707059 0.006735945 -0.7071225
vn 0 0 -1
vn 9.999597E-05 0.9151631 -0.4030838
vn 0 0 -1
vn 0 0 -1
vn 9.999597E-05 0.9151631 -0.4030838
vn 0 0 -1
vn 0 0 -1
vn 0.7070747 -3.309759E-07 -0.7071388
vn 0.707059 0.006735945 -0.7071225
vn 0 0 -1
vn 0 0 -1
vn 0 0 -1
vn 0 0 -1
vn 0.7069818 0.01624208 -0.7070451
vn 0.7070751 0 -0.7071384
vn 1 0 0
vn 1 0 0
vn 9.999597E-05 0.9151631 -0.4030838
vn 9.999597E-05 0.9151631 -0.4030838
vn 9.999597E-05 0.9151631 -0.4030838
vn 9.999597E-05 0.9151631 -0.4030838
vn 0.7069818 0.01624208 -0.7070451
vn 0.1955759 0.9609268 -0.1958816
vn 0.2663069 0.9265257 -0.2657643
vn 1 0 0
vn 0.707059 0.006735945 -0.7071225
vn 9.999597E-05 0.9151631 -0.4030838
vn 9.999597E-05 0.9151631 -0.4030838
vn 1 0 0
vn 1 0 0
vn 1 0 0
vn 1 0 0
vn 0.707059 0.006735945 -0.7071225
vn 0.7070747 -3.309759E-07 -0.7071388
vn 1 0 0
vn 1 0 0
vn 1 0 0
vn 1 0 0
vn 0.7070751 0 -0.7071384
vn 0.7069818 0.01624208 -0.7070451
g m_city_wall_left_angle_inside_0
f 3/3/3 2/2/2 1/1/1
f 4/4/4 3/3/3 1/1/1
f 2/2/2 3/3/3 5/5/5
f 6/6/6 2/2/2 5/5/5
f 7/7/7 3/3/3 4/4/4
f 8/8/8 7/7/7 4/4/4
f 9/9/9 5/5/5 3/3/3
f 7/7/7 9/9/9 3/3/3
f 5/5/5 9/9/9 10/10/10
f 11/11/11 5/5/5 10/10/10
f 14/14/14 13/13/13 12/12/12
f 15/15/15 14/14/14 12/12/12
f 16/16/16 13/13/13 14/14/14
f 17/17/17 16/16/16 14/14/14
f 18/18/18 17/17/17 14/14/14
f 19/19/19 18/18/18 14/14/14
f 22/22/22 21/21/21 20/20/20
f 23/23/23 22/22/22 20/20/20
f 24/24/24 20/20/20 21/21/21
f 25/25/25 24/24/24 21/21/21
f 28/28/28 27/27/27 26/26/26
f 29/29/29 28/28/28 26/26/26
f 28/28/28 29/29/29 30/30/30
f 29/29/29 31/31/31 30/30/30
f 27/27/27 28/28/28 32/32/32
f 28/28/28 33/33/33 32/32/32
f 28/28/28 30/30/30 33/33/33
f 30/30/30 34/34/34 33/33/33
f 34/34/34 30/30/30 35/35/35
f 36/36/36 34/34/34 35/35/35
f 39/39/39 38/38/38 37/37/37
f 40/40/40 39/39/39 37/37/37
f 39/39/39 40/40/40 41/41/41
f 40/40/40 42/42/42 41/41/41
f 39/39/39 41/41/41 43/43/43
f 41/41/41 44/44/44 43/43/43
f 47/47/47 46/46/46 45/45/45
f 48/48/48 47/47/47 45/45/45
f 48/48/48 45/45/45 49/49/49
f 45/45/45 50/50/50 49/49/49
