g m_city_pattern_red
v 1.799999 0 -2.1
v 1.8 0 -1.8
v 6.103515E-07 0 -1.8
v 6.103515E-07 0 -2.1
v 2.100001 0 -1.8
v 2.1 0 -2.1
v 2.099999 0 0
v 1.799999 0 0
v 0 0 1.8
v 1.799999 0 1.8
v 1.799999 0 2.1
v 0 0 2.1
v 2.099999 0 2.1
v 2.099999 0 1.8
v 2.099999 0 0
v 1.799999 0 0
v -1.800001 0 1.8
v -6.103515E-07 0 1.8
v -6.103515E-07 0 2.1
v -1.800001 0 2.1
v -2.100001 0 1.8
v -2.100001 0 2.1
v -2.1 0 0
v -1.8 0 0
v -2.099999 0 -1.8
v -1.799999 0 -1.8
v -1.8 0 0
v -2.1 0 0
v -1.799999 0 -2.1
v -2.099999 0 -2.1
v 6.103515E-07 0 -2.1
v 6.103515E-07 0 -1.8
vt 0.75 0.875
vt 0.75 0.75
vt 0 0.75
vt 0 0.875
vt 0.875 0.75
vt 0.875 0.875
vt 0.875 0
vt 0.75 0
vt 0 0.25
vt 0.75 0.25
vt 0.75 0.125
vt 0 0.125
vt 0.875 0.125
vt 0.875 0.25
vt 0.875 1
vt 0.75 1
vt 0.25 0.125
vt 1 0.125
vt 1 0
vt 0.25 0
vt 0.125 0.125
vt 0.125 0
vt 0.125 0.875
vt 0.25 0.875
vt 0.125 0.75
vt 0.25 0.75
vt 0.25 0
vt 0.125 0
vt 0.25 0.875
vt 0.125 0.875
vt 1 0.875
vt 1 0.75
vn 0 1 0
vn 0 1 0
vn 0 1 0
vn 0 1 0
vn 0 1 0
vn 0 1 0
vn 0 1 0
vn 0 1 0
vn 0 1 0
vn 0 1 0
vn 0 1 0
vn 0 1 0
vn 0 1 0
vn 0 1 0
vn 0 1 0
vn 0 1 0
vn 0 1 0
vn 0 1 0
vn 0 1 0
vn 0 1 0
vn 0 1 0
vn 0 1 0
vn 0 1 0
vn 0 1 0
vn 0 1 0
vn 0 1 0
vn 0 1 0
vn 0 1 0
vn 0 1 0
vn 0 1 0
vn 0 1 0
vn 0 1 0
g m_city_pattern_red_0
f 3/3/3 2/2/2 1/1/1
f 4/4/4 3/3/3 1/1/1
f 1/1/1 2/2/2 5/5/5
f 6/6/6 1/1/1 5/5/5
f 7/7/7 5/5/5 2/2/2
f 8/8/8 7/7/7 2/2/2
f 11/11/11 10/10/10 9/9/9
f 12/12/12 11/11/11 9/9/9
f 11/11/11 13/13/13 10/10/10
f 13/13/13 14/14/14 10/10/10
f 14/14/14 15/15/15 10/10/10
f 15/15/15 16/16/16 10/10/10
f 19/19/19 18/18/18 17/17/17
f 20/20/20 19/19/19 17/17/17
f 20/20/20 17/17/17 21/21/21
f 22/22/22 20/20/20 21/21/21
f 21/21/21 17/17/17 23/23/23
f 17/17/17 24/24/24 23/23/23
f 27/27/27 26/26/26 25/25/25
f 28/28/28 27/27/27 25/25/25
f 25/25/25 26/26/26 29/29/29
f 30/30/30 25/25/25 29/29/29
f 29/29/29 26/26/26 31/31/31
f 26/26/26 32/32/32 31/31/31
