g m_city_pattern_tiles
v 0.6000004 4.525133E-10 1.8
v 0.6000004 4.525133E-10 -0.6
v 1.5 4.525133E-10 -0.6
v 1.8 4.525133E-10 -0.6
v 1.8 4.525133E-10 1.8
v -1.799999 4.525133E-10 1.8
v -1.799999 4.525133E-10 -0.6
v -0.9000002 4.525133E-10 -0.6
v -0.3000002 4.525133E-10 -0.6
v 0.6000004 4.525133E-10 -0.6
v 0.6000004 4.525133E-10 1.8
v 0.2999998 4.525133E-10 1.8
v -1.799999 4.525133E-10 -0.6
v -1.799999 4.525133E-10 -1.8
v -0.3000002 4.525133E-10 -1.8
v 0.600001 4.525133E-10 -1.8
v 0.6000004 4.525133E-10 -0.6
v 0.2999998 4.525133E-10 -0.6
v 0.6000004 4.525133E-10 -0.6
v 0.600001 4.525133E-10 -1.8
v 1.5 4.525133E-10 -1.8
v 1.8 4.525133E-10 -1.8
v 1.8 4.525133E-10 -0.6
vt 0 0
vt 0 1
vt 0.375 1
vt 0.5 1
vt 0.5 0
vt 0 0
vt 0 1
vt 0.375 1
vt 0.625 1
vt 1 1
vt 1 0
vt 0.875 0
vt 0 0
vt 0 0.5
vt 0.625 0.5
vt 1 0.5
vt 1 0
vt 0.875 0
vt 0 0
vt 0 0.5
vt 0.375 0.5
vt 0.5 0.5
vt 0.5 0
vn 0 1 0
vn 0 1 0
vn 0 1 0
vn 0 1 0
vn 0 1 0
vn 0 1 0
vn 0 1 0
vn 0 1 0
vn 0 1 0
vn 0 1 0
vn 0 1 0
vn 0 1 0
vn 0 1 0
vn 0 1 0
vn 0 1 0
vn 0 1 0
vn 0 1 0
vn 0 1 0
vn 0 1 0
vn 0 1 0
vn 0 1 0
vn 0 1 0
vn 0 1 0
g m_city_pattern_tiles_0
f 3/3/3 2/2/2 1/1/1
f 1/1/1 4/4/4 3/3/3
f 1/1/1 5/5/5 4/4/4
f 8/8/8 7/7/7 6/6/6
f 6/6/6 9/9/9 8/8/8
f 6/6/6 10/10/10 9/9/9
f 6/6/6 11/11/11 10/10/10
f 6/6/6 12/12/12 11/11/11
f 15/15/15 14/14/14 13/13/13
f 13/13/13 16/16/16 15/15/15
f 13/13/13 17/17/17 16/16/16
f 13/13/13 18/18/18 17/17/17
f 21/21/21 20/20/20 19/19/19
f 19/19/19 22/22/22 21/21/21
f 19/19/19 23/23/23 22/22/22
