g m_grave_bg_sky_01
v -105.4065 -18.2508 45.88008
v -80.94365 -16.85729 53.7831
v -76.18468 19.97778 46.60981
v -98.62135 18.69968 39.36133
v -42.77398 20.7652 51.0755
v -44.52133 -15.99885 58.65156
v -3.671302 20.76134 51.05357
v -1.890835 -16.00312 58.62732
v 29.6 19.9674 46.55096
v 34.38656 -16.86869 53.71848
v 51.82135 18.68682 39.28838
v 58.60646 -18.26483 45.80056
v -68.30093 50.79358 40.05463
v -87.38646 49.70631 33.88839
v -39.87969 51.46349 43.85383
v -6.618047 51.46003 43.83421
v 21.68579 50.78473 40.00443
v 40.58646 49.69537 33.82636
v -56.02261 75.1088 34.01976
v -69.89094 74.31885 29.53979
v -35.37331 75.59544 36.77972
v -11.20724 75.593 36.76587
v 9.355104 75.10238 33.9834
v 23.09094 74.31091 29.49473
vt 0.04110718 1
vt 0.01643372 0.8447266
vt 0.3974609 0.8139648
vt 0.4208984 0.9560547
vt 0.3842773 0.6142578
vt 0 0.6254883
vt 0.3840332 0.3835449
vt 0.0004754066 0.3723145
vt 0.3974609 0.1846924
vt 0.0163269 0.1538086
vt 0.4206543 0.0440979
vt 0.04071045 0
vt 0.7182617 0.7666016
vt 0.7412109 0.887207
vt 0.7080078 0.597168
vt 0.7080078 0.401123
vt 0.7177734 0.2321777
vt 0.7407227 0.1125488
vt 0.9790039 0.6953125
vt 1 0.7836914
vt 0.9692383 0.5712891
vt 0.9697266 0.4277344
vt 0.9790039 0.3037109
vt 1 0.2160645
vn 0.3112082 -0.2202395 -0.9244695
vn 0.2147308 -0.2133492 -0.953086
vn 0.2095795 -0.2307506 -0.950174
vn 0.3108216 -0.2386915 -0.9200089
vn 0.06254705 -0.2170293 -0.9741592
vn 0.06398243 -0.2043307 -0.9768087
vn -0.06380544 -0.2170976 -0.9740624
vn -0.06527264 -0.2043773 -0.9767135
vn -0.2117239 -0.2309999 -0.9496379
vn -0.2169655 -0.213521 -0.9525412
vn -0.3141015 -0.2390735 -0.9187949
vn -0.3145094 -0.220494 -0.923291
vn 0.2081496 -0.2852543 -0.9355767
vn 0.3087839 -0.29808 -0.903217
vn 0.06238193 -0.2563993 -0.9645559
vn -0.06364227 -0.2565334 -0.9644378
vn -0.2102699 -0.2857721 -0.9349444
vn -0.3119898 -0.2988735 -0.901852
vn 0.1837874 -0.3232077 -0.9283097
vn 0.3045174 -0.371445 -0.8770962
vn 0.05454585 -0.2902446 -0.9553967
vn -0.05564849 -0.2903862 -0.95529
vn -0.1856327 -0.3238222 -0.9277282
vn -0.3076146 -0.3727212 -0.8754725
g m_grave_bg_sky_01_0
f 3/3/3 2/2/2 1/1/1
f 4/4/4 3/3/3 1/1/1
f 3/3/3 5/5/5 2/2/2
f 5/5/5 6/6/6 2/2/2
f 5/5/5 7/7/7 6/6/6
f 7/7/7 8/8/8 6/6/6
f 7/7/7 9/9/9 8/8/8
f 9/9/9 10/10/10 8/8/8
f 9/9/9 11/11/11 10/10/10
f 11/11/11 12/12/12 10/10/10
f 13/13/13 3/3/3 4/4/4
f 14/14/14 13/13/13 4/4/4
f 15/15/15 5/5/5 3/3/3
f 13/13/13 15/15/15 3/3/3
f 16/16/16 7/7/7 5/5/5
f 15/15/15 16/16/16 5/5/5
f 17/17/17 9/9/9 7/7/7
f 16/16/16 17/17/17 7/7/7
f 18/18/18 11/11/11 9/9/9
f 17/17/17 18/18/18 9/9/9
f 19/19/19 13/13/13 14/14/14
f 20/20/20 19/19/19 14/14/14
f 21/21/21 15/15/15 13/13/13
f 19/19/19 21/21/21 13/13/13
f 22/22/22 16/16/16 15/15/15
f 21/21/21 22/22/22 15/15/15
f 23/23/23 17/17/17 16/16/16
f 22/22/22 23/23/23 16/16/16
f 24/24/24 18/18/18 17/17/17
f 23/23/23 24/24/24 17/17/17
