g m_graveyard_rock_02
v -0.7128538 0.446706 -0.3653959
v -0.298397 0.5187597 -0.5407246
v -0.2965562 0.5590886 -0.5077451
v -0.7034233 0.4853199 -0.3299976
v 0.6820229 0.5139742 0.1623223
v -0.2628819 0.3085818 0.649345
v -0.3072642 0.2637185 0.6592064
v -0.7349858 0.4324421 -0.2958231
v 0.6967079 0.4558211 0.1980663
v -0.2436332 0.255209 0.687445
v 0.5495332 0.5731994 -0.1379706
v -0.2243803 0.5406108 -0.5370884
v 0.5243251 0.5545974 -0.2103309
v 0.5801497 0.5256623 -0.1556586
v 0.7104676 0.4697326 0.1306567
v -0.2436332 0.255209 0.687445
v -0.4484123 -0.5731993 0.8633739
v -0.5171171 -0.5731994 0.8377935
v -0.3072642 0.2637185 0.6592064
v 0.768003 -0.5731993 0.2125848
v 0.6967079 0.4558211 0.1980663
v 0.7104676 0.4697326 0.1306567
v 0.7834266 -0.5731994 0.1461788
v 0.3418612 -0.5731994 -0.8309782
v 0.3318038 -0.03884747 -0.7984922
v 0.5801497 0.5256623 -0.1556586
v -0.6052769 0.08211924 0.2146468
v -0.8752281 -0.1253331 -0.2538749
v -0.9981761 -0.5731994 -0.2267548
v -0.9787144 -0.5731994 -0.2929319
v -0.8704283 -0.1577819 -0.3224463
v -0.7349858 0.4324421 -0.2958231
v -0.797014 0.1954305 -0.2795441
v -0.7855492 0.1802518 -0.3487708
v -0.7128538 0.446706 -0.3653959
v -0.298397 0.5187597 -0.5407246
v -0.313148 -0.06526089 -0.5721577
v 0.2774208 -0.03644101 -0.8304844
v 0.2836361 -0.5731994 -0.8633738
v 0.3418612 -0.5731994 -0.8309782
v 0.3318038 -0.03884747 -0.7984922
v -0.298397 0.5187597 -0.5407246
v 0.2774208 -0.03644101 -0.8304844
v 0.2981471 0.03583606 -0.8006641
v -0.2243803 0.5406108 -0.5370884
v 0.5243251 0.5545974 -0.2103309
v 0.3318038 -0.03884747 -0.7984922
v 0.5801497 0.5256623 -0.1556586
v -0.8752281 -0.1253331 -0.2538749
v -0.8704283 -0.1577819 -0.3224463
v -0.84252 -0.1068433 -0.2875257
v -0.6052769 0.08211924 0.2146468
v -0.6071013 0.06071162 0.1338503
v -0.4092491 -0.04774449 -0.5000834
v -0.313148 -0.06526089 -0.5721577
v -0.6071013 0.06071162 0.1338503
v -0.7739097 0.1493249 -0.3035783
v -0.797014 0.1954305 -0.2795441
v -0.6052769 0.08211924 0.2146468
v -0.7855492 0.1802518 -0.3487708
v -0.313148 -0.06526089 -0.5721577
v -0.4092491 -0.04774449 -0.5000834
v 0.005545841 0.2032482 0.5113381
v 0.9589632 0.01888782 0.5070031
v 0.9498311 -0.02985394 0.5522393
v -0.002187924 0.1567037 0.5595012
v 0.9233467 0.002392303 -0.2758472
v 0.9594349 -0.05549458 -0.2726398
v 0.9981758 -0.03831242 0.5042031
v -0.03095013 0.1864081 -0.4856538
v -0.0386839 0.1396234 -0.5389435
v 0.9147651 -0.04390164 -0.3266437
v 0.9498311 -0.02985394 0.5522393
v 0.9147651 -0.04390164 -0.3266437
v 0.9981758 -0.03831242 0.5042031
v 0.8895656 -0.5731994 0.4681332
v 0.8431556 -0.5731994 0.5193493
v 0.9498311 -0.02985394 0.5522393
v -0.002187924 0.1567037 0.5595012
v -0.1100077 -0.5731993 0.5264868
v 0.8339589 -0.5731994 -0.3063569
v 0.9594349 -0.05549458 -0.2726398
v 0.9147651 -0.04390164 -0.3266437
v 0.7903261 -0.5731994 -0.3588013
v -0.0386839 0.1396234 -0.5389435
v -0.1631547 -0.5731993 -0.5711051
vt 0.647 0.204734
vt 0.647 0.15869
vt 0.642062 0.159831
vt 0.642063 0.203437
vt 0.540397 0.104745
vt 0.536024 0.209955
vt 0.535505 0.216136
vt 0.6413 0.210137
vt 0.533723 0.104281
vt 0.529685 0.211796
vt 0.57255 0.101531
vt 0.642542 0.152046
vt 0.579836 0.099506
vt 0.572115 0.09575
vt 0.539061 0.098989
vt 0.457328 0.542316
vt 0.372049 0.547154
vt 0.371375 0.554314
vt 0.4576 0.549182
vt 0.405632 0.416119
vt 0.502099 0.446492
vt 0.505422 0.440466
vt 0.407627 0.409739
vt 0.44335 0.310869
vt 0.491818 0.331027
vt 0.521057 0.413323
vt 0.445733 0.60329
vt 0.432595 0.658661
vt 0.387885 0.667653
vt 0.390085 0.674049
vt 0.431531 0.666061
vt 0.488265 0.648436
vt 0.464594 0.652779
vt 0.465146 0.65977
vt 0.491818 0.65481
vt 0.517384 0.691459
vt 0.465637 0.716226
vt 0.495622 0.771913
vt 0.448957 0.796441
vt 0.452111 0.802167
vt 0.498412 0.777436
vt 0.964917 0.438436
vt 0.892634 0.48026
vt 0.899979 0.483281
vt 0.9655 0.44608
vt 0.965184 0.528713
vt 0.892634 0.48645
vt 0.963615 0.53675
vt 0.4755 0.252213
vt 0.472871 0.245658
vt 0.47064 0.251633
vt 0.4755 0.306042
vt 0.470719 0.299388
vt 0.424745 0.247929
vt 0.416475 0.239324
vt 0.470719 0.299388
vt 0.426451 0.291902
vt 0.426235 0.297366
vt 0.4755 0.306042
vt 0.421199 0.293091
vt 0.416475 0.239324
vt 0.424745 0.247929
vt 0.914377 0.441811
vt 0.819208 0.444423
vt 0.81938 0.451
vt 0.914458 0.448421
vt 0.819879 0.367579
vt 0.813191 0.367874
vt 0.812409 0.444147
vt 0.914458 0.343986
vt 0.913735 0.337031
vt 0.819242 0.360818
vt 0.815725 0.450004
vt 0.816447 0.361719
vt 0.837206 0.134542
vt 0.834799 0.188114
vt 0.841521 0.188989
vt 0.843939 0.134661
vt 0.938958 0.138884
vt 0.932345 0.210989
vt 0.758721 0.190792
vt 0.761035 0.138514
vt 0.754071 0.138467
vt 0.752113 0.191831
vt 0.656643 0.139996
vt 0.658281 0.210989
vn -0.5135854 0.2175127 -0.830011
vn -0.3634842 0.1606161 -0.91765
vn -0.0980022 0.9707219 0.2193049
vn -0.0980022 0.9707219 0.2193049
vn -0.0980022 0.9707219 0.2193049
vn -0.0980022 0.9707219 0.2193049
vn -0.7603718 0.3807908 0.5261493
vn -0.8262911 0.4144488 0.3814122
vn 0.5004745 0.09882954 0.8600918
vn 0.4311789 0.08985112 0.8977814
vn -0.0980022 0.9707219 0.2193049
vn 0.1808103 0.7052491 -0.6855153
vn 0.3882438 0.6887454 -0.6122881
vn 0.885354 0.1713329 -0.4321958
vn 0.941448 0.08593184 -0.3260235
vn 0.4311789 0.08985112 0.8977814
vn 0.4151364 0.07467751 0.9066891
vn -0.7976765 0.2906283 0.5284386
vn -0.7603718 0.3807908 0.5261493
vn 0.5041948 0.05954108 0.861535
vn 0.5004745 0.09882954 0.8600918
vn 0.941448 0.08593184 -0.3260235
vn 0.9364707 0.06032031 -0.3455199
vn 0.8915061 0.05405407 -0.4497722
vn 0.8830127 0.07459363 -0.4633836
vn 0.885354 0.1713329 -0.4321958
vn -0.8651519 0.2842563 0.4131713
vn -0.8885379 0.3159684 0.3326626
vn -0.9010974 0.2672936 0.3414346
vn -0.4680892 0.0572301 -0.8818261
vn -0.4561569 0.07581469 -0.886664
vn -0.8262911 0.4144488 0.3814122
vn -0.9003897 0.2239003 0.373051
vn -0.5275834 -0.02476851 -0.849142
vn -0.5135854 0.2175127 -0.830011
vn -0.3634842 0.1606161 -0.91765
vn -0.4108998 0.04640122 -0.910499
vn -0.2838293 0.09697882 -0.953958
vn -0.3272097 0.0472625 -0.943769
vn 0.8915061 0.05405407 -0.4497722
vn 0.8830127 0.07459363 -0.4633836
vn -0.3634842 0.1606161 -0.91765
vn -0.2838293 0.09697882 -0.953958
vn 0.3384364 0.5577744 -0.7578579
vn 0.1808103 0.7052491 -0.6855153
vn 0.3882438 0.6887454 -0.6122881
vn 0.8830127 0.07459363 -0.4633836
vn 0.885354 0.1713329 -0.4321958
vn -0.8885379 0.3159684 0.3326626
vn -0.4561569 0.07581469 -0.886664
vn -0.3108037 0.8960151 -0.3171087
vn -0.8651519 0.2842563 0.4131713
vn -0.3159739 0.9276312 -0.1991504
vn -0.3276615 0.8358507 -0.4404446
vn -0.4108998 0.04640122 -0.910499
vn -0.6463385 -0.7576442 0.0906739
vn -0.5677552 -0.8217229 -0.0492494
vn -0.9003897 0.2239003 0.373051
vn -0.8651519 0.2842563 0.4131713
vn -0.5275834 -0.02476851 -0.849142
vn -0.4108998 0.04640122 -0.910499
vn -0.5465033 -0.8056806 -0.2285015
vn 0.1924853 0.9809672 0.02554835
vn 0.2330461 0.972146 0.02493389
vn 0.05432067 0.008668114 0.998486
vn 0.01624303 0.0211681 0.999644
vn 0.2340843 0.9700108 -0.06544902
vn 0.9858792 -0.1333999 -0.1012248
vn 0.9913947 -0.1308307 0.004468124
vn 0.2049079 0.9748252 -0.08791137
vn 0.2293368 0.07219003 -0.9706663
vn 0.2643895 0.07583858 -0.9614295
vn 0.05432067 0.008668114 0.998486
vn 0.2643895 0.07583858 -0.9614295
vn 0.9913947 -0.1308307 0.004468124
vn 0.9763861 -0.2159737 0.005045697
vn 0.0373783 -0.05943996 0.9975318
vn 0.05432067 0.008668114 0.998486
vn 0.01624303 0.0211681 0.999644
vn 0.002445808 -0.05210246 0.9986387
vn 0.971002 -0.2097407 -0.1147342
vn 0.9858792 -0.1333999 -0.1012248
vn 0.2643895 0.07583858 -0.9614295
vn 0.2436241 0.0004396344 -0.9698696
vn 0.2293368 0.07219003 -0.9706663
vn 0.2179649 0.006857056 -0.9759325
g m_graveyard_rock_02_0
f 3/3/3 2/2/2 1/1/1
f 4/4/4 3/3/3 1/1/1
f 5/5/5 3/3/3 4/4/4
f 5/5/5 4/4/4 6/6/6
f 7/7/7 6/6/6 4/4/4
f 8/8/8 7/7/7 4/4/4
f 8/8/8 4/4/4 1/1/1
f 9/9/9 5/5/5 6/6/6
f 10/10/10 9/9/9 6/6/6
f 7/7/7 10/10/10 6/6/6
f 11/11/11 3/3/3 5/5/5
f 3/3/3 11/11/11 12/12/12
f 3/3/3 12/12/12 2/2/2
f 11/11/11 13/13/13 12/12/12
f 14/14/14 11/11/11 5/5/5
f 11/11/11 14/14/14 13/13/13
f 15/15/15 14/14/14 5/5/5
f 9/9/9 15/15/15 5/5/5
f 18/18/18 17/17/17 16/16/16
f 19/19/19 18/18/18 16/16/16
f 17/17/17 20/20/20 16/16/16
f 20/20/20 21/21/21 16/16/16
f 21/21/21 20/20/20 22/22/22
f 20/20/20 23/23/23 22/22/22
f 24/24/24 22/22/22 23/23/23
f 25/25/25 22/22/22 24/24/24
f 26/26/26 22/22/22 25/25/25
f 27/27/27 18/18/18 19/19/19
f 28/28/28 18/18/18 27/27/27
f 18/18/18 28/28/28 29/29/29
f 30/30/30 29/29/29 28/28/28
f 31/31/31 30/30/30 28/28/28
f 27/27/27 19/19/19 32/32/32
f 33/33/33 27/27/27 32/32/32
f 34/34/34 33/33/33 32/32/32
f 35/35/35 34/34/34 32/32/32
f 35/35/35 36/36/36 34/34/34
f 34/34/34 36/36/36 37/37/37
f 37/37/37 36/36/36 38/38/38
f 37/37/37 38/38/38 39/39/39
f 31/31/31 37/37/37 39/39/39
f 30/30/30 31/31/31 39/39/39
f 39/39/39 38/38/38 40/40/40
f 38/38/38 41/41/41 40/40/40
f 44/44/44 43/43/43 42/42/42
f 45/45/45 44/44/44 42/42/42
f 45/45/45 46/46/46 44/44/44
f 47/47/47 44/44/44 46/46/46
f 47/47/47 43/43/43 44/44/44
f 48/48/48 47/47/47 46/46/46
f 51/51/51 50/50/50 49/49/49
f 49/49/49 52/52/52 51/51/51
f 52/52/52 53/53/53 51/51/51
f 50/50/50 51/51/51 54/54/54
f 53/53/53 54/54/54 51/51/51
f 55/55/55 50/50/50 54/54/54
f 58/58/58 57/57/57 56/56/56
f 59/59/59 58/58/58 56/56/56
f 58/58/58 60/60/60 57/57/57
f 57/57/57 60/60/60 61/61/61
f 62/62/62 57/57/57 61/61/61
f 62/62/62 56/56/56 57/57/57
f 65/65/65 64/64/64 63/63/63
f 66/66/66 65/65/65 63/63/63
f 64/64/64 67/67/67 63/63/63
f 68/68/68 67/67/67 64/64/64
f 69/69/69 68/68/68 64/64/64
f 67/67/67 70/70/70 63/63/63
f 70/70/70 67/67/67 71/71/71
f 67/67/67 72/72/72 71/71/71
f 73/73/73 69/69/69 64/64/64
f 67/67/67 68/68/68 74/74/74
f 77/77/77 76/76/76 75/75/75
f 78/78/78 77/77/77 75/75/75
f 77/77/77 78/78/78 79/79/79
f 80/80/80 77/77/77 79/79/79
f 76/76/76 81/81/81 75/75/75
f 81/81/81 82/82/82 75/75/75
f 82/82/82 81/81/81 83/83/83
f 81/81/81 84/84/84 83/83/83
f 83/83/83 84/84/84 85/85/85
f 84/84/84 86/86/86 85/85/85
