g m_graveyard_rock_04
v -0.2595024 0.0810203 0.12653
v -0.2132268 0.08086298 -0.1269868
v -0.1781584 0.1002828 -0.1052406
v -0.2229747 0.1002828 0.1379912
v 0.09386611 0.1002828 -0.04930375
v -0.1883659 0.08093112 -0.145757
v 0.104601 0.08227809 -0.09262284
v 0.2259358 0.1002828 0.2058977
v 0.1320332 0.07500468 -0.06184831
v 0.2617647 0.07471423 0.1850737
v 0.01631545 0.1002828 0.4120787
v -0.0005314708 0.0792583 0.4467436
v -0.2488634 0.07863597 0.1607097
v 0.2486507 0.07448718 0.2388908
v 0.0418959 0.07501185 0.4432842
v -0.2488634 0.07863597 0.1607097
v -0.2844878 -0.1002829 0.158864
v -0.2958641 -0.1002829 0.1252269
v -0.2595024 0.0810203 0.12653
v 0.002239525 -0.1002829 0.4892851
v -0.0005314708 0.0792583 0.4467436
v 0.0418959 0.07501185 0.4432842
v 0.04498123 -0.1002829 0.4837657
v 0.2827492 -0.1002829 0.2455595
v 0.2486507 0.07448718 0.2388908
v 0.2617647 0.07471423 0.1850737
v 0.2958638 -0.1002829 0.1921721
v 0.1523463 -0.1002829 -0.09693009
v 0.1320332 0.07500468 -0.06184831
v 0.104601 0.08227809 -0.09262284
v 0.1274531 -0.1002829 -0.1304201
v -0.1883659 0.08093112 -0.145757
v -0.2171623 -0.1002829 -0.1883766
v -0.2132268 0.08086298 -0.1269868
v -0.2420103 -0.1002829 -0.1695912
v -0.2958641 -0.1002829 0.1252269
v -0.2595024 0.0810203 0.12653
v -0.2075914 0.07347819 -0.2662105
v -0.2079735 0.07176021 -0.4328071
v -0.1806187 0.09511775 -0.4301753
v -0.1806187 0.09511775 -0.2702803
v -0.03891038 0.09511775 -0.4128932
v -0.1835026 0.07169795 -0.4572407
v -0.03591843 0.07169795 -0.4400703
v 0.01874465 0.09511775 -0.2412129
v 0.02295425 0.07331187 -0.2144838
v -0.1835026 0.07169795 -0.2432137
v -0.01144761 0.07176021 -0.4156361
v 0.04571365 0.07347819 -0.2371425
v -0.1835026 0.07169795 -0.2432137
v -0.2175218 -0.1002829 -0.2111684
v -0.2420073 -0.1002829 -0.2355891
v -0.2075914 0.07347819 -0.2662105
v -0.2079735 0.07176021 -0.4328071
v -0.2420073 -0.1002829 -0.4648646
v -0.2175218 -0.1002829 -0.4892848
v -0.1835026 0.07169795 -0.4572407
v -0.001896217 -0.1002829 -0.472115
v -0.03591843 0.07169795 -0.4400703
v 0.02258865 -0.1002829 -0.4476942
v -0.01144761 0.07176021 -0.4156361
v 0.04571365 0.07347819 -0.2371425
v 0.08013137 -0.1002829 -0.2065211
v 0.05564712 -0.1002829 -0.1821004
v 0.02295425 0.07331187 -0.2144838
v -0.1835026 0.07169795 -0.2432137
v -0.2175218 -0.1002829 -0.2111684
vt 0.596793 0.097454
vt 0.617948 0.112083
vt 0.618912 0.107711
vt 0.599055 0.093929
vt 0.634514 0.085379
vt 0.621063 0.111674
vt 0.638589 0.08774
vt 0.626122 0.058515
vt 0.638833 0.083544
vt 0.630587 0.056862
vt 0.597495 0.058358
vt 0.593582 0.056614
vt 0.595068 0.094265
vt 0.625867 0.053847
vt 0.596793 0.053731
vt 0.367351 0.69993
vt 0.381671 0.689212
vt 0.379791 0.686282
vt 0.36525 0.697109
vt 0.402477 0.726718
vt 0.385312 0.732434
vt 0.387001 0.736273
vt 0.403754 0.730746
vt 0.40937 0.763261
vt 0.391934 0.764346
vt 0.392298 0.769765
vt 0.409755 0.768637
vt 0.407972 0.80023
vt 0.390621 0.797059
vt 0.389483 0.801002
vt 0.407599 0.804304
vt 0.381985 0.829214
vt 0.398563 0.837352
vt 0.380606 0.831939
vt 0.397178 0.840073
vt 0.379335 0.863417
vt 0.36525 0.852002
vt 0.509923 0.311783
vt 0.511266 0.294557
vt 0.507778 0.295075
vt 0.50672 0.310624
vt 0.493886 0.295254
vt 0.50888 0.29175
vt 0.493458 0.29175
vt 0.48703 0.311569
vt 0.485805 0.314745
vt 0.507257 0.314104
vt 0.490558 0.293997
vt 0.483667 0.312108
vt 0.712333 0.79176
vt 0.699683 0.779708
vt 0.697324 0.782144
vt 0.710169 0.794211
vt 0.701033 0.807751
vt 0.684949 0.800909
vt 0.683648 0.804039
vt 0.699726 0.810879
vt 0.679514 0.824839
vt 0.696983 0.825185
vt 0.679419 0.828228
vt 0.696894 0.828574
vt 0.698772 0.846854
vt 0.682042 0.852395
vt 0.683157 0.855596
vt 0.699793 0.849832
vt 0.710169 0.867439
vt 0.696873 0.878774
vn -0.9349596 0.3333328 -0.1214071
vn -0.924428 0.3059712 -0.2276279
vn -0.07589933 0.9889684 -0.127204
vn -0.1201094 0.9914899 0.05021293
vn 0.0782371 0.9924645 -0.09430338
vn 0.1083062 0.3212673 -0.9407747
vn 0.2243083 0.3463879 -0.9108794
vn 0.1333183 0.9908745 0.01984925
vn 0.8340434 0.3217557 -0.448157
vn 0.8806493 0.3165262 -0.3525166
vn -0.02154473 0.9882784 0.1511347
vn -0.686397 0.2518752 0.6822157
vn -0.7446154 0.2678666 0.6113883
vn 0.7142559 0.3154167 0.6247806
vn 0.6231174 0.3046933 0.7203379
vn -0.7446154 0.2678666 0.6113883
vn -0.7695688 0.1469339 0.6214293
vn -0.9727341 0.1958488 -0.1242242
vn -0.9349596 0.3333328 -0.1214071
vn -0.6844613 0.1577756 0.711772
vn -0.686397 0.2518752 0.6822157
vn 0.6231174 0.3046933 0.7203379
vn 0.6326122 0.1805058 0.7531398
vn 0.751303 0.1756726 0.6361468
vn 0.7142559 0.3154167 0.6247806
vn 0.8806493 0.3165262 -0.3525166
vn 0.9204392 0.1818525 -0.3460076
vn 0.8643208 0.1785749 -0.4701709
vn 0.8340434 0.3217557 -0.448157
vn 0.2243083 0.3463879 -0.9108794
vn 0.2411264 0.2161617 -0.9461143
vn 0.1083062 0.3212673 -0.9407747
vn 0.09603761 0.222422 -0.9702088
vn -0.924428 0.3059712 -0.2276279
vn -0.9449534 0.2093079 -0.2515017
vn -0.9727341 0.1958488 -0.1242242
vn -0.9349596 0.3333328 -0.1214071
vn -0.9549901 0.282224 0.09134296
vn -0.9549952 0.2821414 -0.09154449
vn -0.1019348 0.9883725 -0.1128231
vn -0.1161171 0.9867155 0.1136196
vn 0.09257794 0.989962 -0.106792
vn -0.01498682 0.2689255 -0.9630444
vn 0.1795862 0.2729916 -0.9451055
vn 0.1315512 0.9842415 0.1181646
vn -0.03456178 0.2662089 0.9632956
vn -0.1813312 0.2732169 0.9447071
vn 0.9066415 0.2814089 -0.314341
vn 0.9506582 0.2676332 -0.1569122
vn -0.1813312 0.2732169 0.9447071
vn -0.199659 0.1976993 0.9597142
vn -0.969866 0.2133021 0.1177372
vn -0.9549901 0.282224 0.09134296
vn -0.9549952 0.2821414 -0.09154449
vn -0.969726 0.2139037 -0.1177992
vn -0.05159152 0.208007 -0.9767658
vn -0.01498682 0.2689255 -0.9630444
vn 0.2050629 0.2034194 -0.9573764
vn 0.1795862 0.2729916 -0.9451055
vn 0.922664 0.2028071 -0.3279641
vn 0.9066415 0.2814089 -0.314341
vn 0.9506582 0.2676332 -0.1569122
vn 0.9692429 0.2124856 -0.1241698
vn -0.006957629 0.2017401 0.9794144
vn -0.03456178 0.2662089 0.9632956
vn -0.1813312 0.2732169 0.9447071
vn -0.199659 0.1976993 0.9597142
g m_graveyard_rock_04_0
f 3/3/3 2/2/2 1/1/1
f 4/4/4 3/3/3 1/1/1
f 5/5/5 3/3/3 4/4/4
f 3/3/3 5/5/5 6/6/6
f 3/3/3 6/6/6 2/2/2
f 5/5/5 7/7/7 6/6/6
f 5/5/5 4/4/4 8/8/8
f 5/5/5 8/8/8 9/9/9
f 7/7/7 5/5/5 9/9/9
f 8/8/8 10/10/10 9/9/9
f 8/8/8 4/4/4 11/11/11
f 12/12/12 11/11/11 4/4/4
f 13/13/13 12/12/12 4/4/4
f 13/13/13 4/4/4 1/1/1
f 14/14/14 8/8/8 11/11/11
f 8/8/8 14/14/14 10/10/10
f 15/15/15 14/14/14 11/11/11
f 11/11/11 12/12/12 15/15/15
f 18/18/18 17/17/17 16/16/16
f 19/19/19 18/18/18 16/16/16
f 17/17/17 20/20/20 16/16/16
f 20/20/20 21/21/21 16/16/16
f 21/21/21 20/20/20 22/22/22
f 20/20/20 23/23/23 22/22/22
f 23/23/23 24/24/24 22/22/22
f 24/24/24 25/25/25 22/22/22
f 25/25/25 24/24/24 26/26/26
f 24/24/24 27/27/27 26/26/26
f 27/27/27 28/28/28 26/26/26
f 28/28/28 29/29/29 26/26/26
f 29/29/29 28/28/28 30/30/30
f 28/28/28 31/31/31 30/30/30
f 30/30/30 31/31/31 32/32/32
f 31/31/31 33/33/33 32/32/32
f 32/32/32 33/33/33 34/34/34
f 33/33/33 35/35/35 34/34/34
f 35/35/35 36/36/36 34/34/34
f 36/36/36 37/37/37 34/34/34
f 40/40/40 39/39/39 38/38/38
f 41/41/41 40/40/40 38/38/38
f 42/42/42 40/40/40 41/41/41
f 40/40/40 42/42/42 43/43/43
f 40/40/40 43/43/43 39/39/39
f 42/42/42 44/44/44 43/43/43
f 45/45/45 42/42/42 41/41/41
f 46/46/46 45/45/45 41/41/41
f 47/47/47 46/46/46 41/41/41
f 47/47/47 41/41/41 38/38/38
f 48/48/48 42/42/42 45/45/45
f 42/42/42 48/48/48 44/44/44
f 49/49/49 48/48/48 45/45/45
f 46/46/46 49/49/49 45/45/45
f 52/52/52 51/51/51 50/50/50
f 53/53/53 52/52/52 50/50/50
f 52/52/52 53/53/53 54/54/54
f 55/55/55 52/52/52 54/54/54
f 56/56/56 55/55/55 54/54/54
f 57/57/57 56/56/56 54/54/54
f 58/58/58 56/56/56 57/57/57
f 59/59/59 58/58/58 57/57/57
f 60/60/60 58/58/58 59/59/59
f 61/61/61 60/60/60 59/59/59
f 60/60/60 61/61/61 62/62/62
f 63/63/63 60/60/60 62/62/62
f 64/64/64 63/63/63 62/62/62
f 65/65/65 64/64/64 62/62/62
f 64/64/64 65/65/65 66/66/66
f 67/67/67 64/64/64 66/66/66
