g m_grave_gravestone_05
v 0.1892429 0.4713613 0.3437988
v 0.1866692 0.3278317 0.4525512
v 0.1305939 0.3559735 0.4702819
v 0.1332391 0.4964712 0.3654357
v 0.1301595 0.3091641 0.4796361
v 0.1212279 0.05331327 0.4163305
v 0.1711054 0.05928846 0.3847606
v 0.1136061 -0.2591074 0.3826403
v 0.1601565 -0.2539912 0.3509289
v 0.1109749 -0.5869358 0.3623009
v 0.156148 -0.5869358 0.330205
v 0.1892866 0.5565689 0.2037866
v 0.1338757 0.5869357 0.2167858
v -0.1892429 0.4713613 0.3437988
v -0.1338757 0.4964712 0.3654357
v -0.1312306 0.3559735 0.4702819
v -0.1866692 0.3278317 0.4525512
v -0.1301595 0.3091641 0.4796361
v -0.1212279 0.05331327 0.4163305
v -0.1711054 0.05928846 0.3847606
v -0.1136062 -0.2591074 0.3826403
v -0.1601565 -0.2539912 0.3509289
v -0.110975 -0.5869358 0.3623009
v -0.1561482 -0.5869358 0.330205
v -0.1892866 0.5565689 0.2037866
v -0.1338757 0.5869357 0.2167858
v 0.1136061 -0.2591074 0.3826403
v 0.1109749 -0.5869358 0.3623009
v -0.110975 -0.5869358 0.3623009
v -0.1136062 -0.2591074 0.3826403
v 0.1212279 0.05331327 0.4163305
v -0.1212279 0.05331327 0.4163305
v 0.1301595 0.3091641 0.4796361
v -0.1301595 0.3091641 0.4796361
v 0.1305939 0.3559735 0.4702819
v -0.1312306 0.3559735 0.4702819
v 0.1332391 0.4964712 0.3654357
v -0.1338757 0.4964712 0.3654357
v 0.1338757 0.5869357 0.2167858
v -0.1338757 0.5869357 0.2167858
v 0.1149977 -0.2562686 -0.4506129
v 0.1134449 -0.288707 -0.4796363
v 0.1596868 -0.2906747 -0.4472901
v 0.156148 -0.5869358 -0.4293946
v 0.1109275 -0.5869354 -0.4630201
v 0.1384843 0.006891458 -0.0812171
v 0.1706674 -0.01824831 -0.07280402
v 0.1149977 -0.2562686 -0.4506129
v -0.1149978 -0.2562686 -0.4506129
v -0.113445 -0.288707 -0.4796363
v 0.1149977 -0.2562686 -0.4506129
v -0.113445 -0.288707 -0.4796363
v 0.1134449 -0.288707 -0.4796363
v 0.1109275 -0.5869354 -0.4630201
v -0.1109276 -0.5869354 -0.4630201
v -0.1149978 -0.2562686 -0.4506129
v 0.1384843 0.006891458 -0.0812171
v -0.05101715 0.0569911 -0.0108924
v -0.1429557 0.0569911 -0.0108924
v 0.1892866 0.5565689 0.2037866
v 0.1338757 0.5869357 0.2167858
v 0.1402481 0.5644528 0.1735583
v 0.1751655 0.1165437 0.04319695
v 0.1425455 0.1338556 0.01704583
v 0.1338757 0.5869357 0.2167858
v -0.1338757 0.5869357 0.2167858
v -0.1416114 0.5651544 0.1738122
v 0.1402481 0.5644528 0.1735583
v 0.1425455 0.1338556 0.01704583
v -0.05101715 0.0569911 -0.0108924
v -0.1429557 0.0569911 -0.0108924
v -0.1596868 -0.2906747 -0.4472901
v -0.113445 -0.288707 -0.4796363
v -0.1149978 -0.2562686 -0.4506129
v -0.1726304 0.03760511 0.0146618
v -0.1429557 0.0569911 -0.0108924
v -0.1561482 -0.5869358 -0.4293946
v -0.1109276 -0.5869354 -0.4630201
v -0.1561482 -0.5869358 0.01871331
v -0.1601565 -0.2539912 0.3509289
v -0.1711054 0.05928846 0.3847606
v -0.1866692 0.3278317 0.4525512
v -0.1892429 0.4713613 0.3437988
v -0.1892866 0.5565689 0.2037866
v -0.1429557 0.0569911 -0.0108924
v -0.1561482 -0.5869358 0.330205
v -0.1892866 0.5565689 0.2037866
v -0.1429557 0.0569911 -0.0108924
v -0.1416114 0.5651544 0.1738122
v -0.1338757 0.5869357 0.2167858
v 0.1719933 -0.3424746 0.1119213
v 0.1751655 0.1165437 0.04319695
v 0.1574849 0.09257582 0.02527947
v 0.1546627 -0.2248723 0.07388543
v 0.1546627 -0.2248723 0.07388543
v 0.1507043 -0.01315447 -0.04826667
v 0.1706674 -0.01824831 -0.07280402
v 0.1719933 -0.3424746 0.1119213
v 0.1384843 0.006891458 -0.0812171
v 0.1326125 0.002908761 -0.05063361
v 0.005171666 0.0404759 -0.00592658
v 0.1751655 0.1165437 0.04319695
v 0.1425455 0.1338556 0.01704583
v 0.1385687 0.1020344 0.01954949
v 0.1574849 0.09257582 0.02527947
v 0.005171666 0.0404759 -0.00592658
v -0.05101715 0.0569911 -0.0108924
v 0.1546627 -0.2248723 0.07388543
v -0.05101715 0.0569911 -0.0108924
v 0.1384843 0.006891458 -0.0812171
v 0.1326125 0.002908761 -0.05063361
v 0.005171666 0.0404759 -0.00592658
v 0.1866692 0.3278317 0.4525512
v 0.1892429 0.4713613 0.3437988
v 0.1751655 0.1165437 0.04319695
v 0.1711054 0.05928846 0.3847606
v 0.1601565 -0.2539912 0.3509289
v 0.1719933 -0.3424746 0.1119213
v 0.156148 -0.5869358 0.330205
v 0.156148 -0.5869358 0.01871331
v 0.1892866 0.5565689 0.2037866
v 0.156148 -0.5869358 -0.4293946
v 0.1706674 -0.01824831 -0.07280402
v 0.1596868 -0.2906747 -0.4472901
v 0.1385687 0.1020344 0.01954949
v 0.005171666 0.0404759 -0.00592658
v 0.1546627 -0.2248723 0.07388543
vt 0.1065674 0.277832
vt 0.1231689 0.2666016
vt 0.1185913 0.2595215
vt 0.100769 0.2722168
vt 0.1242676 0.2585449
vt 0.1564941 0.2646484
vt 0.1553955 0.2724609
vt 0.1937256 0.2666016
vt 0.1929932 0.2734375
vt 0.2335205 0.2653809
vt 0.2337646 0.2722168
vt 0.09802246 0.2939453
vt 0.09014893 0.2924805
vt 0.7768555 0.6982422
vt 0.7719727 0.6914063
vt 0.7578125 0.7084961
vt 0.7636719 0.7138672
vt 0.7558594 0.7138672
vt 0.7587891 0.7470703
vt 0.7666016 0.7470703
vt 0.7597656 0.7851563
vt 0.7666016 0.7851563
vt 0.7578125 0.8251953
vt 0.7646484 0.8256836
vt 0.7939453 0.690918
vt 0.793457 0.6831055
vt 0.7758789 0.2705078
vt 0.7758789 0.3105469
vt 0.8032227 0.3105469
vt 0.8037109 0.2705078
vt 0.7749023 0.2322998
vt 0.8041992 0.2322998
vt 0.7739258 0.2000732
vt 0.8056641 0.2000732
vt 0.7734375 0.1943359
vt 0.8056641 0.1943359
vt 0.7734375 0.1728516
vt 0.8061523 0.1728516
vt 0.7734375 0.1517334
vt 0.8061523 0.1517334
vt 0.2028809 0.3710938
vt 0.2075195 0.3737793
vt 0.208374 0.3669434
vt 0.2440186 0.364502
vt 0.2442627 0.3713379
vt 0.1633301 0.3310547
vt 0.1676025 0.328125
vt 0.2644043 0.8896484
vt 0.2646484 0.8613281
vt 0.2592773 0.8613281
vt 0.2644043 0.8896484
vt 0.2592773 0.8613281
vt 0.2590332 0.8891602
vt 0.2226563 0.8886719
vt 0.2229004 0.8613281
vt 0.2646484 0.8613281
vt 0.3195801 0.8925781
vt 0.3303223 0.8696289
vt 0.3305664 0.8583984
vt 0.09802246 0.2939453
vt 0.09014893 0.2924805
vt 0.09301758 0.2983398
vt 0.149292 0.317627
vt 0.1451416 0.3217773
vt 0.7734375 0.1517334
vt 0.8061523 0.1517334
vt 0.8071289 0.145752
vt 0.7724609 0.145752
vt 0.7724609 0.08984375
vt 0.7958984 0.07983398
vt 0.8071289 0.07983398
vt 0.8623047 0.800293
vt 0.8686523 0.7993164
vt 0.8657227 0.7949219
vt 0.8125 0.7548828
vt 0.8173828 0.7519531
vt 0.8613281 0.8359375
vt 0.8686523 0.8354492
vt 0.8032227 0.8310547
vt 0.7666016 0.7851563
vt 0.7666016 0.7470703
vt 0.7636719 0.7138672
vt 0.7768555 0.6982422
vt 0.7939453 0.690918
vt 0.8173828 0.7519531
vt 0.7646484 0.8256836
vt 0.7939453 0.690918
vt 0.8173828 0.7519531
vt 0.7988281 0.6865234
vt 0.793457 0.6831055
vt 0.7021484 0.07781982
vt 0.7021484 0.02629089
vt 0.6992188 0.0284729
vt 0.6967773 0.06427002
vt 0.6967773 0.06427002
vt 0.675293 0.04724121
vt 0.6723633 0.04971313
vt 0.7021484 0.07781982
vt 0.6708984 0.04541016
vt 0.6743164 0.04458618
vt 0.6796875 0.02932739
vt 0.7021484 0.02629089
vt 0.6982422 0.02371216
vt 0.6972656 0.02706909
vt 0.6992188 0.0284729
vt 0.6796875 0.02932739
vt 0.6762695 0.02325439
vt 0.6967773 0.06427002
vt 0.6762695 0.02325439
vt 0.6708984 0.04541016
vt 0.6743164 0.04458618
vt 0.6796875 0.02932739
vt 0.1231689 0.2666016
vt 0.1065674 0.277832
vt 0.149292 0.317627
vt 0.1553955 0.2724609
vt 0.1929932 0.2734375
vt 0.2060547 0.3017578
vt 0.2337646 0.2722168
vt 0.2374268 0.3100586
vt 0.09802246 0.2939453
vt 0.2440186 0.364502
vt 0.1676025 0.328125
vt 0.208374 0.3669434
vt 0.6972656 0.02706909
vt 0.6796875 0.02932739
vt 0.6967773 0.06427002
vn 0.9759567 0.1553463 0.1528917
vn 0.9686327 -0.005264926 0.248441
vn 0.09455515 0.5272847 0.8444111
vn 0.09615073 0.7362321 0.6698637
vn 0.106647 -0.183424 0.9772319
vn 0.111047 -0.174731 0.9783342
vn 0.9712624 -0.08289304 0.2231101
vn 0.115485 -0.08630101 0.9895531
vn 0.962722 -0.034668 0.268262
vn 0.119562 -0.06269401 0.9908453
vn 0.9521272 -0.05017101 0.3015571
vn 0.9406378 0.2523279 -0.2270049
vn 0.08637 0.9375609 0.336927
vn -0.9823818 0.132601 0.131693
vn -0.096276 0.736178 0.6699051
vn -0.09479795 0.5275767 0.8442016
vn -0.9732441 -0.007151002 0.229662
vn -0.106647 -0.183424 0.9772319
vn -0.111047 -0.174731 0.9783342
vn -0.9718713 -0.08378603 0.2201051
vn -0.115485 -0.08630101 0.9895531
vn -0.9839675 -0.03927002 0.1739711
vn -0.119562 -0.06269401 0.9908453
vn -0.9739188 -0.02542299 0.225468
vn -0.9459615 0.2272199 -0.2313609
vn -0.08565 0.9383411 0.3349331
vn 0.115485 -0.08630101 0.9895531
vn 0.119562 -0.06269401 0.9908453
vn -0.119562 -0.06269401 0.9908453
vn -0.115485 -0.08630101 0.9895531
vn 0.111047 -0.174731 0.9783342
vn -0.111047 -0.174731 0.9783342
vn 0.106647 -0.183424 0.9772319
vn -0.106647 -0.183424 0.9772319
vn 0.09455515 0.5272847 0.8444111
vn -0.09479795 0.5275767 0.8442016
vn 0.09615073 0.7362321 0.6698637
vn -0.096276 0.736178 0.6699051
vn 0.08637 0.9375609 0.336927
vn -0.08565 0.9383411 0.3349331
vn 0.176167 0.7812207 -0.5988818
vn 0.111232 0.03056202 -0.9933245
vn 0.9658452 0.09587802 -0.2407291
vn 0.9858357 -0.02837699 -0.1652959
vn 0.121608 -0.056848 -0.990949
vn 0.1502659 0.8189895 -0.5537837
vn 0.9835302 0.157991 -0.08779001
vn 0.176167 0.7812207 -0.5988818
vn -0.2273079 0.7727077 -0.5926668
vn -0.111232 0.03056202 -0.9933245
vn 0.176167 0.7812207 -0.5988818
vn -0.111232 0.03056202 -0.9933245
vn 0.111232 0.03056202 -0.9933245
vn 0.121608 -0.056848 -0.990949
vn -0.121608 -0.056848 -0.990949
vn -0.2273079 0.7727077 -0.5926668
vn 0.1502659 0.8189895 -0.5537837
vn 0.005580998 0.8212447 -0.5705488
vn -0.376067 0.746684 -0.548668
vn 0.9406378 0.2523279 -0.2270049
vn 0.08637 0.9375609 0.336927
vn 0.1580029 0.4228718 -0.8923086
vn 0.980625 0.025142 -0.194274
vn 0.1685459 0.3206409 -0.9320846
vn 0.08637 0.9375609 0.336927
vn -0.08565 0.9383411 0.3349331
vn -0.193207 0.4226569 -0.8854559
vn 0.1580029 0.4228718 -0.8923086
vn 0.1685459 0.3206409 -0.9320846
vn 0.005274998 0.3312519 -0.9435276
vn -0.3658352 0.3132921 -0.8763634
vn -0.9877673 0.05390402 -0.1463221
vn -0.111232 0.03056202 -0.9933245
vn -0.2273079 0.7727077 -0.5926668
vn -0.9914487 0.05759699 -0.117099
vn -0.376067 0.746684 -0.548668
vn -0.9856032 -0.021298 -0.1677281
vn -0.121608 -0.056848 -0.990949
vn -0.9997423 -0.02269601 -0.0005030002
vn -0.9839675 -0.03927002 0.1739711
vn -0.9718713 -0.08378603 0.2201051
vn -0.9732441 -0.007151002 0.229662
vn -0.9823818 0.132601 0.131693
vn -0.9459615 0.2272199 -0.2313609
vn -0.3658352 0.3132921 -0.8763634
vn -0.9739188 -0.02542299 0.225468
vn -0.9459615 0.2272199 -0.2313609
vn -0.3658352 0.3132921 -0.8763634
vn -0.193207 0.4226569 -0.8854559
vn -0.08565 0.9383411 0.3349331
vn 0.9997951 -0.019463 0.005571001
vn 0.980625 0.025142 -0.194274
vn 0.421912 -0.135156 -0.8965061
vn 0.6248549 -0.1215 -0.771229
vn 0.710843 0.357902 0.605482
vn 0.5297531 0.4483501 0.719961
vn 0.9835302 0.157991 -0.08779001
vn 0.9997951 -0.019463 0.005571001
vn 0.1502659 0.8189895 -0.5537837
vn 0.4112791 0.5741161 0.7079832
vn 0.3974751 0.7148731 0.5753
vn 0.980625 0.025142 -0.194274
vn 0.1685459 0.3206409 -0.9320846
vn 0.240069 -0.116195 -0.9637768
vn 0.421912 -0.135156 -0.8965061
vn 0.2226969 -0.103821 -0.9693438
vn 0.005274998 0.3312519 -0.9435276
vn 0.6248549 -0.1215 -0.771229
vn 0.005580998 0.8212447 -0.5705488
vn 0.1502659 0.8189895 -0.5537837
vn 0.4112791 0.5741161 0.7079832
vn 0.3974751 0.7148731 0.5753
vn 0.9686327 -0.005264926 0.248441
vn 0.9759567 0.1553463 0.1528917
vn 0.980625 0.025142 -0.194274
vn 0.9712624 -0.08289304 0.2231101
vn 0.962722 -0.034668 0.268262
vn 0.9997951 -0.019463 0.005571001
vn 0.9521272 -0.05017101 0.3015571
vn 0.997906 -0.064681 0
vn 0.9406378 0.2523279 -0.2270049
vn 0.9858357 -0.02837699 -0.1652959
vn 0.9835302 0.157991 -0.08779001
vn 0.9658452 0.09587802 -0.2407291
vn 0.240069 -0.116195 -0.9637768
vn 0.2226969 -0.103821 -0.9693438
vn 0.6248549 -0.1215 -0.771229
g m_grave_gravestone_05_0
f 3/3/3 2/2/2 1/1/1
f 4/4/4 3/3/3 1/1/1
f 3/3/3 5/5/5 2/2/2
f 5/5/5 6/6/6 2/2/2
f 6/6/6 7/7/7 2/2/2
f 6/6/6 8/8/8 7/7/7
f 8/8/8 9/9/9 7/7/7
f 8/8/8 10/10/10 9/9/9
f 10/10/10 11/11/11 9/9/9
f 4/4/4 1/1/1 12/12/12
f 13/13/13 4/4/4 12/12/12
f 16/16/16 15/15/15 14/14/14
f 17/17/17 16/16/16 14/14/14
f 18/18/18 16/16/16 17/17/17
f 19/19/19 18/18/18 17/17/17
f 20/20/20 19/19/19 17/17/17
f 21/21/21 19/19/19 20/20/20
f 22/22/22 21/21/21 20/20/20
f 23/23/23 21/21/21 22/22/22
f 24/24/24 23/23/23 22/22/22
f 14/14/14 15/15/15 25/25/25
f 15/15/15 26/26/26 25/25/25
f 29/29/29 28/28/28 27/27/27
f 30/30/30 29/29/29 27/27/27
f 30/30/30 27/27/27 31/31/31
f 32/32/32 30/30/30 31/31/31
f 32/32/32 31/31/31 33/33/33
f 34/34/34 32/32/32 33/33/33
f 34/34/34 33/33/33 35/35/35
f 36/36/36 34/34/34 35/35/35
f 36/36/36 35/35/35 37/37/37
f 38/38/38 36/36/36 37/37/37
f 38/38/38 37/37/37 39/39/39
f 40/40/40 38/38/38 39/39/39
f 43/43/43 42/42/42 41/41/41
f 42/42/42 43/43/43 44/44/44
f 45/45/45 42/42/42 44/44/44
f 41/41/41 46/46/46 43/43/43
f 46/46/46 47/47/47 43/43/43
f 50/50/50 49/49/49 48/48/48
f 53/53/53 52/52/52 51/51/51
f 52/52/52 53/53/53 54/54/54
f 55/55/55 52/52/52 54/54/54
f 57/57/57 51/51/51 56/56/56
f 57/57/57 56/56/56 58/58/58
f 56/56/56 59/59/59 58/58/58
f 62/62/62 61/61/61 60/60/60
f 60/60/60 63/63/63 62/62/62
f 63/63/63 64/64/64 62/62/62
f 67/67/67 66/66/66 65/65/65
f 68/68/68 67/67/67 65/65/65
f 69/69/69 67/67/67 68/68/68
f 69/69/69 70/70/70 67/67/67
f 70/70/70 71/71/71 67/67/67
f 74/74/74 73/73/73 72/72/72
f 72/72/72 75/75/75 74/74/74
f 75/75/75 76/76/76 74/74/74
f 72/72/72 73/73/73 77/77/77
f 73/73/73 78/78/78 77/77/77
f 72/72/72 79/79/79 75/75/75
f 72/72/72 77/77/77 79/79/79
f 75/75/75 79/79/79 80/80/80
f 75/75/75 80/80/80 81/81/81
f 75/75/75 81/81/81 82/82/82
f 83/83/83 75/75/75 82/82/82
f 83/83/83 84/84/84 75/75/75
f 85/85/85 75/75/75 84/84/84
f 79/79/79 86/86/86 80/80/80
f 89/89/89 88/88/88 87/87/87
f 87/87/87 90/90/90 89/89/89
f 93/93/93 92/92/92 91/91/91
f 94/94/94 93/93/93 91/91/91
f 97/97/97 96/96/96 95/95/95
f 98/98/98 97/97/97 95/95/95
f 97/97/97 99/99/99 96/96/96
f 99/99/99 100/100/100 96/96/96
f 101/101/101 95/95/95 96/96/96
f 100/100/100 101/101/101 96/96/96
f 104/104/104 103/103/103 102/102/102
f 105/105/105 104/104/104 102/102/102
f 103/103/103 104/104/104 106/106/106
f 107/107/107 103/103/103 106/106/106
f 105/105/105 108/108/108 104/104/104
f 111/111/111 110/110/110 109/109/109
f 112/112/112 111/111/111 109/109/109
f 115/115/115 114/114/114 113/113/113
f 116/116/116 115/115/115 113/113/113
f 116/116/116 117/117/117 115/115/115
f 117/117/117 118/118/118 115/115/115
f 117/117/117 119/119/119 118/118/118
f 119/119/119 120/120/120 118/118/118
f 115/115/115 121/121/121 114/114/114
f 118/118/118 120/120/120 122/122/122
f 118/118/118 122/122/122 123/123/123
f 122/122/122 124/124/124 123/123/123
f 127/127/127 126/126/126 125/125/125
