g m_grave_clouds_01
v -60.70773 -12.64297 52.46804
v -33.391 -11.99914 56.11938
v -32.08049 15.5739 50.43733
v -57.13852 14.98334 47.08807
v -2.753477 15.571 50.42089
v -1.418126 -12.00234 56.1012
v 22.2 14.97555 47.04393
v 25.78992 -12.65152 52.41957
v -29.90977 38.59761 45.02108
v -51.2257 38.09519 42.17168
v -4.963535 38.59502 45.00637
v 16.26434 38.08855 42.13403
vt 1 0.003290176
vt 0.6831055 0.0001887083
vt 0.6679688 0.5419922
vt 0.9584961 0.5449219
vt 0.3310547 0.5419922
vt 0.3156738 0
vt 0.04177856 0.5449219
vt -5.960464E-08 0.002985001
vt 0.6430664 0.9970703
vt 0.8901367 1
vt 0.3562012 0.9970703
vt 0.1099243 1
vn 0.1344116 -0.2061213 -0.969251
vn 0.06398243 -0.2043307 -0.9768087
vn 0.06254704 -0.2170293 -0.9741592
vn 0.1343444 -0.218258 -0.9665998
vn -0.06380533 -0.2170975 -0.9740624
vn -0.06527258 -0.2043773 -0.9767135
vn -0.1359776 -0.2183941 -0.9663405
vn -0.1360476 -0.206218 -0.9690021
vn 0.05827351 -0.2338212 -0.9705316
vn 0.1341819 -0.2389014 -0.9617283
vn -0.05944667 -0.2339086 -0.9704395
vn -0.1358091 -0.239127 -0.9614438
g m_grave_clouds_01_0
f 3/3/3 2/2/2 1/1/1
f 4/4/4 3/3/3 1/1/1
f 3/3/3 5/5/5 2/2/2
f 5/5/5 6/6/6 2/2/2
f 5/5/5 7/7/7 6/6/6
f 7/7/7 8/8/8 6/6/6
f 9/9/9 3/3/3 4/4/4
f 10/10/10 9/9/9 4/4/4
f 11/11/11 5/5/5 3/3/3
f 9/9/9 11/11/11 3/3/3
f 12/12/12 7/7/7 5/5/5
f 11/11/11 12/12/12 5/5/5
