g m_mine_sign_01
v -0.6482477 0.01602297 0.1544415
v -0.6482477 -0.06713749 0.1544415
v -0.6673053 -0.06713749 0.129245
v -0.6673053 0.01602297 0.129245
v -0.6451782 0.03908066 0.1323151
v -0.266806 0.02558753 0.1630963
v -0.270293 0.003731792 0.1836957
v -0.6482477 0.01602297 0.1544415
v -0.6673053 0.01602297 0.129245
v 0.2194812 0.004072602 0.2669232
v 0.2229663 0.02592832 0.2463239
v 0.5808453 0.01090572 0.3285407
v 0.5839593 0.03548981 0.3061017
v 0.6055713 0.01090572 0.3090997
v 0.6055713 -0.07775998 0.3090997
v 0.5808453 -0.07775998 0.3285407
v 0.5808453 0.01090572 0.3285407
v -0.6064367 0.01602297 -0.3094842
v -0.6064367 -0.06713749 -0.3094842
v -0.5812402 -0.06713749 -0.3285407
v -0.5812402 0.01602297 -0.3285407
v -0.1936792 -0.07418435 -0.2668402
v -0.1937555 0.004512241 -0.2667169
v 0.2960181 0.004853051 -0.1834906
v 0.2960944 -0.07384357 -0.1836127
v 0.6488062 0.01090572 -0.1613019
v 0.6488062 -0.07775998 -0.1613019
v 0.6673053 -0.07775998 -0.1358624
v 0.6673053 0.01090572 -0.1358624
v -0.5812402 0.01602297 -0.3285407
v -0.1937555 0.004512241 -0.2667169
v -0.1972827 0.02629649 -0.246048
v 0.2924902 0.02663728 -0.1628217
v 0.2960181 0.004853051 -0.1834906
v 0.6456915 0.03548981 -0.1388617
v 0.6488062 0.01090572 -0.1613019
v 0.6673053 0.01090572 -0.1358624
v -0.5812402 0.01602297 -0.3285407
v -0.1972827 0.02629649 -0.246048
v -0.5843103 0.03908066 -0.3064142
v -0.6064367 0.01602297 -0.3094842
v -0.6381201 0.01602297 -0.03564026
v -0.6159808 0.03908066 -0.03267395
v -0.6256464 0.024098 -0.01791077
v -0.2332355 0.0259299 -0.03447082
v 0.2565387 0.02627068 0.04875549
v 0.2924902 0.02663728 -0.1628217
v -0.266806 0.02558753 0.1630963
v 0.2229663 0.02592832 0.2463239
v 0.6456915 0.03548981 -0.1388617
v 0.6131818 0.03548981 -0.008388061
v 0.4417175 0.03349372 0.02216247
v 0.6183056 0.01974976 0.008723754
v 0.6347253 0.01090572 -0.005009155
v 0.4619183 0.02656277 0.0234613
v -0.4923187 0.03716311 -0.003422241
v -0.6276263 0.03908066 0.04561951
v -0.6331805 0.02412726 0.02855286
v -0.6497247 0.01602297 0.04236755
v -0.5122656 0.03042907 -0.005342407
v -0.6451782 0.03908066 0.1323151
v 0.6041339 0.03548981 0.07866394
v 0.5839593 0.03548981 0.3061017
v -0.6482477 0.01602297 0.1544415
v -0.270293 0.003731792 0.1836957
v -0.2702173 -0.07496481 0.1835724
v -0.6482477 -0.06713749 0.1544415
v 0.2195563 -0.07462404 0.2667987
v 0.2194812 0.004072602 0.2669232
v 0.5808453 -0.07775998 0.3285407
v 0.5808453 0.01090572 0.3285407
v 0.5839593 0.03548981 0.3061017
v 0.6055713 0.01090572 0.3090997
v 0.5808453 0.01090572 0.3285407
v 0.6257745 0.01090572 0.08141296
v 0.6041339 0.03548981 0.07866394
v 0.6132178 0.01972469 0.06384949
v 0.4619183 0.02656277 0.0234613
v 0.6132178 0.01972469 0.06384949
v 0.6041339 0.03548981 0.07866394
v 0.4417175 0.03349372 0.02216247
v 0.6256701 -0.04560333 0.05483459
v 0.6183056 0.01974976 0.008723754
v 0.6347253 0.01090572 -0.005009155
v 0.4619183 0.02656277 0.0234613
v 0.6256701 -0.04560333 0.05483459
v 0.6347253 0.01090572 -0.005009155
v 0.6326264 -0.06564279 0.05512878
v 0.6673053 0.01090572 -0.1358624
v 0.6326264 -0.07775998 0.05512878
v 0.6055713 -0.07775998 0.3090997
v 0.6055713 0.01090572 0.3090997
v 0.6257745 0.01090572 0.08141296
v 0.6673053 -0.07775998 -0.1358624
v -0.6256464 0.024098 -0.01791077
v -0.6344556 -0.01990381 -0.008739624
v -0.6415747 -0.03976447 -0.009365845
v -0.6381201 0.01602297 -0.03564026
v -0.6344556 -0.01990381 -0.008739624
v -0.6331805 0.02412726 0.02855286
v -0.6497247 0.01602297 0.04236755
v -0.6415747 -0.03976447 -0.009365845
v -0.5122656 0.03042907 -0.005342407
v -0.6256464 0.024098 -0.01791077
v -0.6159808 0.03908066 -0.03267395
v -0.4923187 0.03716311 -0.003422241
v 0.6131818 0.03548981 -0.008388061
v 0.6456915 0.03548981 -0.1388617
v 0.6673053 0.01090572 -0.1358624
v 0.6347253 0.01090572 -0.005009155
v -0.6415747 -0.03976447 -0.009365845
v -0.6373224 -0.06713749 -0.06107239
v -0.6064367 -0.06713749 -0.3094842
v -0.6064367 0.01602297 -0.3094842
v -0.6381201 0.01602297 -0.03564026
v -0.6673053 0.01602297 0.129245
v -0.6673053 -0.06713749 0.129245
v -0.6497247 0.01602297 0.04236755
v -0.6673053 0.01602297 0.129245
v -0.6497247 0.01602297 0.04236755
v -0.6276263 0.03908066 0.04561951
v -0.6451782 0.03908066 0.1323151
v -0.6344556 -0.01990381 -0.008739624
v -0.5122656 0.03042907 -0.005342407
v -0.6331805 0.02412726 0.02855286
v -0.6344556 -0.01990381 -0.008739624
v -0.6256464 0.024098 -0.01791077
v -0.5122656 0.03042907 -0.005342407
v 0.6256701 -0.04560333 0.05483459
v 0.6132178 0.01972469 0.06384949
v 0.4619183 0.02656277 0.0234613
v 0.6326264 -0.06564279 0.05512878
v 0.6257745 0.01090572 0.08141296
v 0.5238806 0.02733172 -0.008484497
v 0.51831 0.05254584 -0.002914429
v 0.4823022 0.05254584 -0.01782898
v 0.4823022 0.02733172 -0.02570618
v 0.5411023 0.02733172 0.03309387
v 0.5332257 0.05254584 0.03309387
v 0.4823022 0.07100388 0.003693237
v 0.5030902 0.07100388 0.0123053
v 0.5117022 0.07100388 0.03309387
v 0.4823022 0.07775998 0.03309387
v 0.4823022 0.02733172 -0.02570618
v 0.4823022 0.05254584 -0.01782898
v 0.4462945 0.05254584 -0.002914429
v 0.4407239 0.02733172 -0.008484497
v 0.43138 0.05254584 0.03309387
v 0.4235022 0.02733172 0.03309387
v 0.4615143 0.07100388 0.0123053
v 0.4823022 0.07100388 0.003693237
v 0.4529022 0.07100388 0.03309387
v 0.4823022 0.07775998 0.03309387
v 0.4235022 0.02733172 0.03309387
v 0.43138 0.05254584 0.03309387
v 0.4462945 0.05254584 0.06910095
v 0.4407239 0.02733172 0.07467224
v 0.4823022 0.05254584 0.08401673
v 0.4823022 0.02733172 0.09189392
v 0.4615143 0.07100388 0.05388245
v 0.4529022 0.07100388 0.03309387
v 0.4823022 0.07100388 0.06249328
v 0.4823022 0.07775998 0.03309387
v 0.4615143 0.07100388 0.0123053
v 0.4823022 0.02733172 0.09189392
v 0.4823022 0.05254584 0.08401673
v 0.51831 0.05254584 0.06910095
v 0.5238806 0.02733172 0.07467224
v 0.5332257 0.05254584 0.03309387
v 0.5411023 0.02733172 0.03309387
v 0.5030902 0.07100388 0.05388245
v 0.4823022 0.07100388 0.06249328
v 0.5117022 0.07100388 0.03309387
v 0.4823022 0.07775998 0.03309387
v -0.4656464 0.02733172 -0.1136285
v -0.4712176 0.05254584 -0.1080572
v -0.5072247 0.05254584 -0.1229718
v -0.5072247 0.02733172 -0.1308502
v -0.4484241 0.02733172 -0.07205017
v -0.4563025 0.05254584 -0.07205017
v -0.5072247 0.07100388 -0.1014496
v -0.4864368 0.07100388 -0.09283874
v -0.4778247 0.07100388 -0.07205017
v -0.5072247 0.07775998 -0.07205017
v -0.5072247 0.02733172 -0.1308502
v -0.5072247 0.05254584 -0.1229718
v -0.5432324 0.05254584 -0.1080572
v -0.5488025 0.02733172 -0.1136285
v -0.5581464 0.05254584 -0.07205017
v -0.5660254 0.02733172 -0.07205017
v -0.5280139 0.07100388 -0.09283874
v -0.5072247 0.07100388 -0.1014496
v -0.5366247 0.07100388 -0.07205017
v -0.5072247 0.07775998 -0.07205017
v -0.5660254 0.02733172 -0.07205017
v -0.5581464 0.05254584 -0.07205017
v -0.5432324 0.05254584 -0.03604187
v -0.5488025 0.02733172 -0.0304718
v -0.5072247 0.05254584 -0.02112732
v -0.5072247 0.02733172 -0.0132489
v -0.5280139 0.07100388 -0.05126037
v -0.5366247 0.07100388 -0.07205017
v -0.5072247 0.07100388 -0.04264953
v -0.5072247 0.07775998 -0.07205017
v -0.5280139 0.07100388 -0.09283874
v -0.5072247 0.02733172 -0.0132489
v -0.5072247 0.05254584 -0.02112732
v -0.4712176 0.05254584 -0.03604187
v -0.4656464 0.02733172 -0.0304718
v -0.4563025 0.05254584 -0.07205017
v -0.4484241 0.02733172 -0.07205017
v -0.4864368 0.07100388 -0.05126037
v -0.5072247 0.07100388 -0.04264953
v -0.4778247 0.07100388 -0.07205017
v -0.5072247 0.07775998 -0.07205017
vt 0.5766602 0.1075439
vt 0.5766602 0.125
vt 0.5834961 0.125
vt 0.5834961 0.1075439
vt 0.4187012 0.7949219
vt 0.4970703 0.7988281
vt 0.4970703 0.7924805
vt 0.4172363 0.7885742
vt 0.4123535 0.793457
vt 0.5996094 0.7900391
vt 0.5996094 0.7963867
vt 0.6757813 0.7885742
vt 0.6743164 0.7949219
vt 0.3083496 0.1085815
vt 0.3083496 0.1273193
vt 0.3149414 0.1273193
vt 0.3149414 0.1085815
vt 0.8129883 0.0198822
vt 0.7954102 0.02023315
vt 0.7954102 0.02696228
vt 0.8129883 0.02661133
vt 0.7954102 0.1106567
vt 0.8125 0.1102905
vt 0.8144531 0.2161865
vt 0.7978516 0.2165527
vt 0.8173828 0.2915039
vt 0.7983398 0.2919922
vt 0.7983398 0.298584
vt 0.8173828 0.2980957
vt 0.4172363 0.8964844
vt 0.4992676 0.8955078
vt 0.4992676 0.8891602
vt 0.6025391 0.8862305
vt 0.6025391 0.8925781
vt 0.675293 0.8920898
vt 0.6772461 0.8984375
vt 0.6816406 0.8935547
vt 0.4172363 0.8964844
vt 0.4992676 0.8891602
vt 0.4187012 0.8901367
vt 0.4121094 0.8916016
vt 0.4101563 0.8334961
vt 0.4169922 0.8344727
vt 0.4140625 0.8305664
vt 0.4970703 0.8422852
vt 0.6015625 0.8398438
vt 0.6025391 0.8862305
vt 0.4970703 0.7988281
vt 0.5996094 0.7963867
vt 0.675293 0.8920898
vt 0.6728516 0.8652344
vt 0.6396484 0.8515625
vt 0.6762695 0.8618164
vt 0.6801758 0.8647461
vt 0.6445313 0.8520508
vt 0.4428711 0.8300781
vt 0.4187012 0.8125
vt 0.4152832 0.815918
vt 0.4118652 0.8125
vt 0.4384766 0.8291016
vt 0.4187012 0.7949219
vt 0.6743164 0.8408203
vt 0.6743164 0.7949219
vt 0.5766602 0.1075439
vt 0.4968262 0.1101074
vt 0.4968262 0.126709
vt 0.5766602 0.125
vt 0.3920898 0.1265869
vt 0.392334 0.1100464
vt 0.3149414 0.1273193
vt 0.3149414 0.1085815
vt 0.6743164 0.7949219
vt 0.6806641 0.793457
vt 0.6757813 0.7885742
vt 0.6811523 0.8417969
vt 0.6743164 0.8408203
vt 0.6772461 0.8447266
vt 0.6445313 0.8520508
vt 0.6772461 0.8447266
vt 0.6743164 0.8408203
vt 0.6396484 0.8515625
vt 0.8095703 0.3422852
vt 0.8208008 0.3291016
vt 0.8173828 0.3266602
vt 0.8505859 0.3354492
vt 0.8095703 0.3422852
vt 0.8173828 0.3266602
vt 0.8046875 0.3422852
vt 0.8173828 0.2980957
vt 0.8017578 0.3417969
vt 0.7944336 0.3964844
vt 0.8129883 0.3989258
vt 0.8178711 0.3525391
vt 0.7983398 0.298584
vt 0.4284668 0.7666016
vt 0.425293 0.7763672
vt 0.427002 0.7807617
vt 0.4328613 0.769043
vt 0.425293 0.7763672
vt 0.4128418 0.7749023
vt 0.4116211 0.7792969
vt 0.427002 0.7807617
vt 0.4384766 0.8291016
vt 0.4140625 0.8305664
vt 0.4169922 0.8344727
vt 0.4428711 0.8300781
vt 0.6728516 0.8652344
vt 0.675293 0.8920898
vt 0.6816406 0.8935547
vt 0.6801758 0.8647461
vt 0.6162109 0.1156616
vt 0.6240234 0.1251221
vt 0.6728516 0.1446533
vt 0.6796875 0.1282959
vt 0.6254883 0.1068115
vt 0.5834961 0.1075439
vt 0.5834961 0.125
vt 0.6020508 0.1075439
vt 0.4123535 0.793457
vt 0.4118652 0.8125
vt 0.4187012 0.8125
vt 0.4187012 0.7949219
vt 0.425293 0.7763672
vt 0.4116211 0.75
vt 0.4128418 0.7749023
vt 0.425293 0.7763672
vt 0.4284668 0.7666016
vt 0.4116211 0.75
vt 0.8095703 0.3422852
vt 0.8217773 0.3496094
vt 0.8505859 0.3354492
vt 0.8046875 0.3422852
vt 0.8178711 0.3525391
vt 0.1273193 0.5195313
vt 0.1248779 0.5244141
vt 0.1315918 0.5302734
vt 0.1364746 0.5288086
vt 0.114502 0.5195313
vt 0.1159058 0.5244141
vt 0.1265869 0.5327148
vt 0.12323 0.5297852
vt 0.1184692 0.5297852
vt 0.1209106 0.5351563
vt 0.1364746 0.5288086
vt 0.1315918 0.5302734
vt 0.131958 0.5390625
vt 0.1364746 0.5415039
vt 0.1259766 0.5458984
vt 0.1273193 0.5507813
vt 0.126709 0.5375977
vt 0.1265869 0.5327148
vt 0.1233521 0.5410156
vt 0.1209106 0.5351563
vt 0.1273193 0.5507813
vt 0.1259766 0.5458984
vt 0.1169434 0.5463867
vt 0.114502 0.5507813
vt 0.1102905 0.5405273
vt 0.1054077 0.5415039
vt 0.1186523 0.5410156
vt 0.1233521 0.5410156
vt 0.1152344 0.5375977
vt 0.1209106 0.5351563
vt 0.126709 0.5375977
vt 0.1054077 0.5415039
vt 0.1102905 0.5405273
vt 0.1098633 0.53125
vt 0.1054077 0.5288086
vt 0.1159058 0.5244141
vt 0.114502 0.5195313
vt 0.1151733 0.5332031
vt 0.1152344 0.5375977
vt 0.1184692 0.5297852
vt 0.1209106 0.5351563
vt 0.6933594 0.5371094
vt 0.6958008 0.5327148
vt 0.6889648 0.5263672
vt 0.684082 0.527832
vt 0.7060547 0.5371094
vt 0.7050781 0.5322266
vt 0.6943359 0.5239258
vt 0.6977539 0.5273438
vt 0.7021484 0.5273438
vt 0.699707 0.5214844
vt 0.684082 0.527832
vt 0.6889648 0.5263672
vt 0.6889648 0.5175781
vt 0.684082 0.5151367
vt 0.6948242 0.5107422
vt 0.6933594 0.5058594
vt 0.6943359 0.519043
vt 0.6943359 0.5239258
vt 0.6972656 0.515625
vt 0.699707 0.5214844
vt 0.6933594 0.5058594
vt 0.6948242 0.5107422
vt 0.7036133 0.5102539
vt 0.7060547 0.5058594
vt 0.7104492 0.5166016
vt 0.715332 0.5151367
vt 0.7021484 0.515625
vt 0.6972656 0.515625
vt 0.7055664 0.519043
vt 0.699707 0.5214844
vt 0.6943359 0.519043
vt 0.715332 0.5151367
vt 0.7104492 0.5166016
vt 0.7109375 0.5253906
vt 0.715332 0.527832
vt 0.7050781 0.5322266
vt 0.7060547 0.5371094
vt 0.7055664 0.5239258
vt 0.7055664 0.519043
vt 0.7021484 0.5273438
vt 0.699707 0.5214844
vn -0.7975529 0 0.603249
vn -0.7975529 0 0.603249
vn -0.7975529 0 0.603249
vn -0.7975529 0 0.603249
vn -0.001 0.9999982 0.0016
vn -0.001 0.9999982 0.0016
vn -0.121914 0.2032451 0.9715083
vn -0.121153 0.199292 0.972422
vn -0.9849586 0.1677519 -0.04142098
vn -0.166237 0.199413 0.965712
vn -0.001 0.9999982 0.0016
vn -0.115034 0.193867 0.9742602
vn -0.001 0.9999982 0.0016
vn 0.9679222 0.1864121 0.168455
vn 0.9828522 0.021767 0.183106
vn -0.105087 -0.0007609999 0.9944628
vn -0.115034 0.193867 0.9742602
vn -0.9633954 0.2015061 -0.1768181
vn -0.9816674 0.01279301 -0.1901721
vn 0.102118 0.0007820001 -0.994772
vn 0.112073 0.203148 -0.972713
vn 0.163023 0.001313 -0.9866214
vn 0.162096 0.202951 -0.965679
vn 0.117897 0.205168 -0.9715999
vn 0.122457 0.001296 -0.992473
vn 0.1167701 0.1920761 -0.9744083
vn 0.1314579 0.0007139997 -0.9913215
vn 0.9955707 0.04965698 0.07983298
vn 0.9782112 0.184573 0.09505602
vn 0.112073 0.203148 -0.972713
vn 0.162096 0.202951 -0.965679
vn -0.001 0.9999982 0.0016
vn -0.001 0.9999982 0.0016
vn 0.117897 0.205168 -0.9715999
vn -0.001 0.9999982 0.0016
vn 0.1167701 0.1920761 -0.9744083
vn 0.9782112 0.184573 0.09505602
vn 0.112073 0.203148 -0.972713
vn -0.001 0.9999982 0.0016
vn -0.001 0.9999982 0.0016
vn -0.9633954 0.2015061 -0.1768181
vn -0.9781078 0.182032 -0.100845
vn -0.001 0.9999982 0.0016
vn -0.274791 0.387262 0.8800671
vn -0.001 0.9999982 0.0016
vn -0.001 0.9999982 0.0016
vn -0.001 0.9999982 0.0016
vn -0.001 0.9999982 0.0016
vn -0.001 0.9999982 0.0016
vn -0.001 0.9999982 0.0016
vn -0.001 0.9999982 0.0016
vn -0.001 0.9999982 0.0016
vn 0.225482 0.606448 0.762482
vn 0.9570876 0.1861859 0.2220769
vn 0.1065231 0.6654834 0.7387725
vn -0.001 0.9999982 0.0016
vn -0.001 0.9999982 0.0016
vn -0.3556877 0.6569876 -0.6647206
vn -0.9656027 0.1655219 -0.2005339
vn -0.2152899 0.7442907 -0.6322038
vn -0.001 0.9999982 0.0016
vn -0.001 0.9999982 0.0016
vn -0.001 0.9999982 0.0016
vn -0.121153 0.199292 0.972422
vn -0.121914 0.2032451 0.9715083
vn -0.12817 -0.001309 0.9917514
vn -0.1365229 -0.0007479998 0.9906366
vn -0.167853 -0.001312 0.9858111
vn -0.166237 0.199413 0.965712
vn -0.105087 -0.0007609999 0.9944628
vn -0.115034 0.193867 0.9742602
vn -0.001 0.9999982 0.0016
vn 0.9679222 0.1864121 0.168455
vn -0.115034 0.193867 0.9742602
vn 0.9808092 0.1806401 0.07336502
vn -0.001 0.9999982 0.0016
vn 0.33791 0.342736 -0.8765551
vn 0.2371691 0.6024391 -0.7621142
vn 0.33791 0.342736 -0.8765551
vn -0.001 0.9999982 0.0016
vn -0.001 0.9999982 0.0016
vn 0.385113 0.5506599 0.7405819
vn 0.225482 0.606448 0.762482
vn 0.9570876 0.1861859 0.2220769
vn 0.1065231 0.6654834 0.7387725
vn 0.385113 0.5506599 0.7405819
vn 0.9570876 0.1861859 0.2220769
vn 0.9894069 0.041518 0.139105
vn 0.9782112 0.184573 0.09505602
vn 0.9893907 0.03714399 0.1404509
vn 0.9828522 0.021767 0.183106
vn 0.9679222 0.1864121 0.168455
vn 0.9808092 0.1806401 0.07336502
vn 0.9955707 0.04965698 0.07983298
vn -0.274791 0.387262 0.8800671
vn -0.5193637 0.2755069 0.8089236
vn -0.9885694 0.03413398 -0.1468509
vn -0.9781078 0.182032 -0.100845
vn -0.4714558 0.5652226 -0.6769437
vn -0.3556877 0.6569876 -0.6647206
vn -0.9656027 0.1655219 -0.2005339
vn -0.9885694 0.03413398 -0.1468509
vn -0.142936 0.586266 0.7974092
vn -0.274791 0.387262 0.8800671
vn -0.001 0.9999982 0.0016
vn -0.001 0.9999982 0.0016
vn -0.001 0.9999982 0.0016
vn -0.001 0.9999982 0.0016
vn 0.9782112 0.184573 0.09505602
vn 0.9570876 0.1861859 0.2220769
vn -0.9885694 0.03413398 -0.1468509
vn -0.9924205 0.01611399 -0.1218269
vn -0.9816674 0.01279301 -0.1901721
vn -0.9633954 0.2015061 -0.1768181
vn -0.9781078 0.182032 -0.100845
vn -0.9849586 0.1677519 -0.04142098
vn -0.9988851 0.036527 -0.029905
vn -0.9656027 0.1655219 -0.2005339
vn -0.9849586 0.1677519 -0.04142098
vn -0.9656027 0.1655219 -0.2005339
vn -0.001 0.9999982 0.0016
vn -0.001 0.9999982 0.0016
vn -0.4714558 0.5652226 -0.6769437
vn -0.2152899 0.7442907 -0.6322038
vn -0.3556877 0.6569876 -0.6647206
vn -0.5193637 0.2755069 0.8089236
vn -0.274791 0.387262 0.8800671
vn -0.142936 0.586266 0.7974092
vn 0.504611 0.216293 -0.835814
vn 0.33791 0.342736 -0.8765551
vn 0.2371691 0.6024391 -0.7621142
vn 0.9894069 0.041518 0.139105
vn 0.9808092 0.1806401 0.07336502
vn 0.6749319 0.298218 -0.6749319
vn 0.6172619 0.4878259 -0.617263
vn 0 0.487826 -0.872941
vn 0 0.298218 -0.9544978
vn 0.9544975 0.2982188 -9.999995E-07
vn 0.8729402 0.4878271 0
vn 0 0.8169469 -0.576713
vn 0.4077958 0.8169476 -0.4077978
vn 0.5767118 0.8169476 0
vn 0 1 0
vn 0 0.298218 -0.9544978
vn 0 0.487826 -0.872941
vn -0.6172619 0.4878259 -0.617263
vn -0.6749319 0.298218 -0.6749319
vn -0.8729402 0.4878271 0
vn -0.9544978 0.298218 0
vn -0.4077962 0.8169473 -0.4077982
vn 0 0.8169469 -0.576713
vn -0.5767111 0.8169481 0
vn 0 1 0
vn -0.9544978 0.298218 0
vn -0.8729402 0.4878271 0
vn -0.6172619 0.4878259 0.617263
vn -0.6749319 0.298218 0.6749319
vn 0 0.487826 0.872941
vn 0 0.298218 0.9544978
vn -0.407798 0.816947 0.407797
vn -0.5767111 0.8169481 0
vn 0 0.8169469 0.576713
vn 0 1 0
vn -0.4077962 0.8169473 -0.4077982
vn 0 0.298218 0.9544978
vn 0 0.487826 0.872941
vn 0.6172619 0.4878259 0.617263
vn 0.6749316 0.2982188 0.6749316
vn 0.8729402 0.4878271 0
vn 0.9544975 0.2982188 -9.999995E-07
vn 0.4077978 0.8169467 0.4077978
vn 0 0.8169469 0.576713
vn 0.5767118 0.8169476 0
vn 0 1 0
vn 0.6749324 0.2982182 -0.6749313
vn 0.617263 0.4878259 -0.6172619
vn 0 0.487826 -0.872941
vn 0 0.298218 -0.9544978
vn 0.9544972 0.2982201 -1E-06
vn 0.8729398 0.4878279 0
vn 0 0.8169469 -0.576713
vn 0.407798 0.816947 -0.407797
vn 0.5767118 0.8169476 0
vn 0 1 0
vn 0 0.298218 -0.9544978
vn 0 0.487826 -0.872941
vn -0.6172633 0.4878252 -0.6172622
vn -0.6749331 0.2982171 -0.6749311
vn -0.872941 0.487826 0
vn -0.9544982 0.2982171 0
vn -0.4077978 0.8169467 -0.4077978
vn 0 0.8169469 -0.576713
vn -0.5767111 0.8169481 0
vn 0 1 0
vn -0.9544982 0.2982171 0
vn -0.872941 0.487826 0
vn -0.6172619 0.4878259 0.617263
vn -0.6749321 0.298217 0.6749321
vn 0 0.4878271 0.8729402
vn 0 0.2982201 0.9544972
vn -0.407796 0.816948 0.407797
vn -0.5767111 0.8169481 0
vn 0 0.8169469 0.576713
vn 0 1 0
vn -0.4077978 0.8169467 -0.4077978
vn 0 0.2982201 0.9544972
vn 0 0.4878271 0.8729402
vn 0.6172608 0.4878288 0.6172618
vn 0.6749304 0.2982222 0.6749314
vn 0.8729398 0.4878279 0
vn 0.9544972 0.2982201 -1E-06
vn 0.407797 0.816947 0.407798
vn 0 0.8169469 0.576713
vn 0.5767118 0.8169476 0
vn 0 1 0
g m_mine_sign_01_0
f 3/3/3 2/2/2 1/1/1
f 4/4/4 3/3/3 1/1/1
f 7/7/7 6/6/6 5/5/5
f 8/8/8 7/7/7 5/5/5
f 8/8/8 5/5/5 9/9/9
f 7/7/7 10/10/10 6/6/6
f 10/10/10 11/11/11 6/6/6
f 10/10/10 12/12/12 11/11/11
f 12/12/12 13/13/13 11/11/11
f 16/16/16 15/15/15 14/14/14
f 17/17/17 16/16/16 14/14/14
f 20/20/20 19/19/19 18/18/18
f 21/21/21 20/20/20 18/18/18
f 22/22/22 20/20/20 21/21/21
f 23/23/23 22/22/22 21/21/21
f 23/23/23 24/24/24 22/22/22
f 24/24/24 25/25/25 22/22/22
f 24/24/24 26/26/26 25/25/25
f 26/26/26 27/27/27 25/25/25
f 28/28/28 27/27/27 26/26/26
f 29/29/29 28/28/28 26/26/26
f 32/32/32 31/31/31 30/30/30
f 32/32/32 33/33/33 31/31/31
f 33/33/33 34/34/34 31/31/31
f 33/33/33 35/35/35 34/34/34
f 35/35/35 36/36/36 34/34/34
f 35/35/35 37/37/37 36/36/36
f 40/40/40 39/39/39 38/38/38
f 40/40/40 38/38/38 41/41/41
f 40/40/40 41/41/41 42/42/42
f 43/43/43 40/40/40 42/42/42
f 39/39/39 40/40/40 43/43/43
f 44/44/44 43/43/43 42/42/42
f 43/43/43 45/45/45 39/39/39
f 45/45/45 46/46/46 39/39/39
f 46/46/46 47/47/47 39/39/39
f 45/45/45 48/48/48 46/46/46
f 48/48/48 49/49/49 46/46/46
f 50/50/50 47/47/47 46/46/46
f 46/46/46 51/51/51 50/50/50
f 46/46/46 52/52/52 51/51/51
f 51/51/51 52/52/52 53/53/53
f 53/53/53 54/54/54 51/51/51
f 52/52/52 55/55/55 53/53/53
f 48/48/48 45/45/45 56/56/56
f 43/43/43 56/56/56 45/45/45
f 56/56/56 57/57/57 48/48/48
f 58/58/58 57/57/57 56/56/56
f 59/59/59 57/57/57 58/58/58
f 60/60/60 58/58/58 56/56/56
f 57/57/57 61/61/61 48/48/48
f 62/62/62 52/52/52 46/46/46
f 46/46/46 49/49/49 62/62/62
f 49/49/49 63/63/63 62/62/62
f 66/66/66 65/65/65 64/64/64
f 67/67/67 66/66/66 64/64/64
f 66/66/66 68/68/68 65/65/65
f 68/68/68 69/69/69 65/65/65
f 68/68/68 70/70/70 69/69/69
f 70/70/70 71/71/71 69/69/69
f 74/74/74 73/73/73 72/72/72
f 73/73/73 75/75/75 72/72/72
f 75/75/75 76/76/76 72/72/72
f 76/76/76 75/75/75 77/77/77
f 80/80/80 79/79/79 78/78/78
f 81/81/81 80/80/80 78/78/78
f 84/84/84 83/83/83 82/82/82
f 83/83/83 85/85/85 82/82/82
f 88/88/88 87/87/87 86/86/86
f 89/89/89 87/87/87 88/88/88
f 89/89/89 88/88/88 90/90/90
f 91/91/91 90/90/90 88/88/88
f 88/88/88 92/92/92 91/91/91
f 88/88/88 93/93/93 92/92/92
f 90/90/90 94/94/94 89/89/89
f 97/97/97 96/96/96 95/95/95
f 98/98/98 97/97/97 95/95/95
f 101/101/101 100/100/100 99/99/99
f 102/102/102 101/101/101 99/99/99
f 105/105/105 104/104/104 103/103/103
f 106/106/106 105/105/105 103/103/103
f 109/109/109 108/108/108 107/107/107
f 110/110/110 109/109/109 107/107/107
f 113/113/113 112/112/112 111/111/111
f 111/111/111 114/114/114 113/113/113
f 111/111/111 115/115/115 114/114/114
f 116/116/116 111/111/111 112/112/112
f 112/112/112 117/117/117 116/116/116
f 116/116/116 118/118/118 111/111/111
f 121/121/121 120/120/120 119/119/119
f 122/122/122 121/121/121 119/119/119
f 125/125/125 124/124/124 123/123/123
f 128/128/128 127/127/127 126/126/126
f 131/131/131 130/130/130 129/129/129
f 129/129/129 130/130/130 132/132/132
f 130/130/130 133/133/133 132/132/132
f 136/136/136 135/135/135 134/134/134
f 137/137/137 136/136/136 134/134/134
f 134/134/134 135/135/135 138/138/138
f 135/135/135 139/139/139 138/138/138
f 136/136/136 140/140/140 135/135/135
f 140/140/140 141/141/141 135/135/135
f 135/135/135 141/141/141 139/139/139
f 141/141/141 142/142/142 139/139/139
f 140/140/140 143/143/143 141/141/141
f 141/141/141 143/143/143 142/142/142
f 146/146/146 145/145/145 144/144/144
f 147/147/147 146/146/146 144/144/144
f 148/148/148 146/146/146 147/147/147
f 149/149/149 148/148/148 147/147/147
f 146/146/146 150/150/150 145/145/145
f 150/150/150 151/151/151 145/145/145
f 152/152/152 150/150/150 146/146/146
f 148/148/148 152/152/152 146/146/146
f 150/150/150 153/153/153 151/151/151
f 156/156/156 155/155/155 154/154/154
f 157/157/157 156/156/156 154/154/154
f 158/158/158 156/156/156 157/157/157
f 159/159/159 158/158/158 157/157/157
f 156/156/156 160/160/160 155/155/155
f 160/160/160 161/161/161 155/155/155
f 162/162/162 160/160/160 156/156/156
f 158/158/158 162/162/162 156/156/156
f 160/160/160 163/163/163 161/161/161
f 162/162/162 163/163/163 160/160/160
f 161/161/161 163/163/163 164/164/164
f 167/167/167 166/166/166 165/165/165
f 168/168/168 167/167/167 165/165/165
f 169/169/169 167/167/167 168/168/168
f 170/170/170 169/169/169 168/168/168
f 167/167/167 171/171/171 166/166/166
f 171/171/171 172/172/172 166/166/166
f 173/173/173 171/171/171 167/167/167
f 169/169/169 173/173/173 167/167/167
f 171/171/171 174/174/174 172/172/172
f 173/173/173 174/174/174 171/171/171
f 177/177/177 176/176/176 175/175/175
f 178/178/178 177/177/177 175/175/175
f 175/175/175 176/176/176 179/179/179
f 176/176/176 180/180/180 179/179/179
f 177/177/177 181/181/181 176/176/176
f 181/181/181 182/182/182 176/176/176
f 176/176/176 182/182/182 180/180/180
f 182/182/182 183/183/183 180/180/180
f 181/181/181 184/184/184 182/182/182
f 182/182/182 184/184/184 183/183/183
f 187/187/187 186/186/186 185/185/185
f 188/188/188 187/187/187 185/185/185
f 189/189/189 187/187/187 188/188/188
f 190/190/190 189/189/189 188/188/188
f 187/187/187 191/191/191 186/186/186
f 191/191/191 192/192/192 186/186/186
f 193/193/193 191/191/191 187/187/187
f 189/189/189 193/193/193 187/187/187
f 191/191/191 194/194/194 192/192/192
f 197/197/197 196/196/196 195/195/195
f 198/198/198 197/197/197 195/195/195
f 199/199/199 197/197/197 198/198/198
f 200/200/200 199/199/199 198/198/198
f 197/197/197 201/201/201 196/196/196
f 201/201/201 202/202/202 196/196/196
f 203/203/203 201/201/201 197/197/197
f 199/199/199 203/203/203 197/197/197
f 201/201/201 204/204/204 202/202/202
f 203/203/203 204/204/204 201/201/201
f 202/202/202 204/204/204 205/205/205
f 208/208/208 207/207/207 206/206/206
f 209/209/209 208/208/208 206/206/206
f 210/210/210 208/208/208 209/209/209
f 211/211/211 210/210/210 209/209/209
f 208/208/208 212/212/212 207/207/207
f 212/212/212 213/213/213 207/207/207
f 214/214/214 212/212/212 208/208/208
f 210/210/210 214/214/214 208/208/208
f 212/212/212 215/215/215 213/213/213
f 214/214/214 215/215/215 212/212/212
