g m_mine_brokentiles_03
v 0.1477661 -0.02959208 0.2266138
v 0.1410931 0.007331985 0.2131812
v 0.1758154 0.007332006 0.191842
v 0.1847729 -0.02959208 0.2038708
v 0.1521551 0.02966438 0.1922632
v 0.2262646 0.02966438 -0.1181738
v 0.2471832 0.007332006 -0.1071106
v 0.1758154 0.007332006 0.191842
v 0.2606036 -0.02959208 -0.1137769
v 0.2258441 0.007331985 -0.1418347
v 0.2378601 -0.02959208 -0.1507837
v 0.1847729 -0.02959208 0.2038708
v 0.1410931 0.007331985 0.2131812
v 0.2262646 0.02966438 -0.1181738
v -0.08417236 0.02966438 -0.1922815
v -0.07311035 0.007331985 -0.2132007
v 0.2258441 0.007331985 -0.1418347
v -0.0797876 -0.02959208 -0.2266138
v -0.1078326 0.007332006 -0.1918616
v -0.116795 -0.02959208 -0.2038708
v 0.2378601 -0.02959208 -0.1507837
v 0.2471832 0.007332006 -0.1071106
v -0.1078326 0.007332006 -0.1918616
v -0.1352545 0.007332006 -0.07699218
v -0.1434467 -0.02959208 -0.09222778
v -0.116795 -0.02959208 -0.2038708
v -0.08417236 0.02966438 -0.1922815
v -0.1177386 0.02966438 -0.0516748
v 0.05432678 0.02966438 0.1689087
v 0.1521551 0.02966438 0.1922632
v 0.1410931 0.007331985 0.2131812
v 0.07986328 0.006959959 0.1987366
v -0.1177386 0.02966438 -0.0516748
v 0.2262646 0.02966438 -0.1181738
v -0.08417236 0.02966438 -0.1922815
v 0.07986328 0.006959959 0.1987366
v 0.1410931 0.007331985 0.2131812
v 0.1477661 -0.02959208 0.2266138
v 0.09553894 -0.02959208 0.2141467
v 0.09553894 -0.02959208 0.2141467
v -0.1434467 -0.02959208 -0.09222778
v -0.1352545 0.007332006 -0.07699218
v 0.07986328 0.006959959 0.1987366
v 0.05432678 0.02966438 0.1689087
v -0.1177386 0.02966438 -0.0516748
v -0.2606036 -0.02966438 0.1784644
v -0.2490973 0.007259706 0.168844
v -0.2183887 0.005453263 0.1984753
v -0.2298883 -0.02966438 0.2091797
v -0.2490973 0.007259706 -0.0204126
v -0.226181 0.02959208 0.0001464844
v -0.226181 0.02959208 0.1747473
v -0.2606036 -0.02966438 -0.03332886
v -0.226181 0.02959208 0.1747473
v -0.007600097 0.02959208 0.1747473
v 0.02416443 0.006887656 0.1978308
v -0.2183887 0.005453263 0.1984753
v 0.04299011 -0.02966438 0.2091797
v -0.2298883 -0.02966438 0.2091797
v -0.2490973 0.007259706 0.168844
v -0.226181 0.02959208 0.1747473
v -0.226181 0.02959208 0.0001464844
v -0.007600097 0.02959208 0.1747473
v 0.02416443 0.006887656 0.1978308
v -0.2490973 0.007259706 -0.0204126
v -0.2606036 -0.02966438 -0.03332886
v 0.04299011 -0.02966438 0.2091797
v -0.226181 0.02959208 0.0001464844
v -0.007600097 0.02959208 0.1747473
vt 0.9467773 0.9916992
vt 0.9501953 0.9765625
vt 0.9345703 0.9731445
vt 0.9282227 0.987793
vt 0.9448242 0.965332
vt 0.8603516 0.8823242
vt 0.8500977 0.8901367
vt 0.9345703 0.9731445
vt 0.8349609 0.8925781
vt 0.8496094 0.875
vt 0.8339844 0.875
vt 0.9282227 0.987793
vt 0.9501953 0.9765625
vt 0.8603516 0.8823242
vt 0.9311523 0.7875977
vt 0.9199219 0.7807617
vt 0.8496094 0.875
vt 0.9116211 0.7675781
vt 0.934082 0.7758789
vt 0.9282227 0.762207
vt 0.8339844 0.875
vt 0.8500977 0.8901367
vt 0.934082 0.7758789
vt 0.9804688 0.7910156
vt 0.9765625 0.7719727
vt 0.9282227 0.762207
vt 0.9311523 0.7875977
vt 0.9833984 0.8115234
vt 0.9794922 0.9482422
vt 0.9448242 0.965332
vt 0.9501953 0.9765625
vt 0.9736328 0.9692383
vt 0.9833984 0.8115234
vt 0.8603516 0.8823242
vt 0.9311523 0.7875977
vt 0.9736328 0.9692383
vt 0.9501953 0.9765625
vt 0.9467773 0.9916992
vt 0.9682617 0.9863281
vt 0.7880859 0.5805664
vt 0.7880859 0.4155273
vt 0.7724609 0.4228516
vt 0.7724609 0.5712891
vt 0.7626953 0.5541992
vt 0.7626953 0.435791
vt 0.6030273 0.1452637
vt 0.6010742 0.1287842
vt 0.5830078 0.1306152
vt 0.5839844 0.1469727
vt 0.6650391 0.08282471
vt 0.6494141 0.07476807
vt 0.5917969 0.1193848
vt 0.6777344 0.09515381
vt 0.5917969 0.1193848
vt 0.512207 0.07403564
vt 0.4921875 0.08172607
vt 0.5830078 0.1306152
vt 0.4785156 0.09515381
vt 0.5839844 0.1469727
vt 0.6010742 0.1287842
vt 0.5917969 0.1193848
vt 0.6494141 0.07476807
vt 0.512207 0.07403564
vt 0.7441406 0.5712891
vt 0.7441406 0.4228516
vt 0.7285156 0.4155273
vt 0.7285156 0.5800781
vt 0.7539063 0.435791
vt 0.7539063 0.5541992
vn 0.4853581 0.3750518 0.7897871
vn 0.485358 0.3750517 0.7897871
vn 0.485358 0.3750518 0.7897871
vn 0.4853581 0.3750518 0.7897871
vn 0.06399301 0.9972733 0.03675601
vn 0.08098599 0.9954718 -0.04977199
vn 0.8538808 0.4976359 0.152467
vn 0.8306851 0.4976261 0.249661
vn 0.9392387 0.3180689 0.1290849
vn 0.249683 0.49752 -0.8307419
vn 0.309148 0.317865 -0.8963199
vn 0.8962331 0.318124 0.309133
vn -0.012408 0.5215858 0.8531086
vn 0.08098599 0.9954718 -0.04977199
vn -0.01399099 0.9970606 -0.07532797
vn 0.1524899 0.4975189 -0.8539448
vn 0.249683 0.49752 -0.8307419
vn 0.1290599 0.3178638 -0.9393115
vn -0.8027539 0.5083919 -0.311647
vn -0.8431067 0.3401039 -0.4165338
vn 0.309148 0.317865 -0.8963199
vn 0.8538808 0.4976359 0.152467
vn -0.8027539 0.5083919 -0.311647
vn -0.7979997 0.5717568 -0.1905009
vn -0.9286313 0.2974891 -0.2216851
vn -0.8431067 0.3401039 -0.4165338
vn -0.01399099 0.9970606 -0.07532797
vn -0.01510101 0.9998795 -0.003605002
vn -0.001661999 0.9999747 0.006923998
vn 0.06399301 0.9972733 0.03675601
vn -0.012408 0.5215858 0.8531086
vn -0.184774 0.6085578 0.7716968
vn -0.01510101 0.9998795 -0.003605002
vn 0.08098599 0.9954718 -0.04977199
vn -0.01399099 0.9970606 -0.07532797
vn -0.184774 0.6085578 0.7716968
vn -0.012408 0.5215858 0.8531086
vn 0.114054 0.3574739 0.9269326
vn -0.2212901 0.2972901 0.9287893
vn -0.7860459 -0.07859899 0.6131509
vn -0.7860459 -0.07859899 0.6131509
vn -0.7860459 -0.07859899 0.6131509
vn -0.7860459 -0.07859899 0.6131509
vn -0.7860459 -0.07859098 0.6131519
vn -0.7860459 -0.07859098 0.6131519
vn -0.9331901 0.331195 0.139521
vn -0.8675988 0.4907228 0.08039497
vn -0.05991702 0.4867031 0.8715103
vn -0.118681 0.3237221 0.9386793
vn -0.9042767 0.4269469 0
vn -0.3169279 0.9484497 0
vn -0.137473 0.9749441 0.174886
vn -0.9547215 0.2975009 0
vn -0.137473 0.9749441 0.174886
vn -0.0007600003 0.8953253 0.4454121
vn -2E-06 0.4010599 0.9160518
vn -0.05991702 0.4867031 0.8715103
vn 0.0003770001 0.2941371 0.9557632
vn -0.118681 0.3237221 0.9386793
vn -0.8675988 0.4907228 0.08039497
vn -0.137473 0.9749441 0.174886
vn -0.3169279 0.9484497 0
vn -0.0007600003 0.8953253 0.4454121
vn 0.6221896 0.07859196 -0.7789115
vn 0.6221896 0.07859196 -0.7789115
vn 0.6221896 0.07859196 -0.7789115
vn 0.6221896 0.07859196 -0.7789115
vn 0.6221898 0.07858897 -0.7789118
vn 0.6221898 0.07858897 -0.7789118
g m_mine_brokentiles_03_0
f 3/3/3 2/2/2 1/1/1
f 4/4/4 3/3/3 1/1/1
f 7/7/7 6/6/6 5/5/5
f 8/8/8 7/7/7 5/5/5
f 9/9/9 7/7/7 8/8/8
f 10/10/10 7/7/7 9/9/9
f 11/11/11 10/10/10 9/9/9
f 12/12/12 9/9/9 8/8/8
f 13/13/13 8/8/8 5/5/5
f 16/16/16 15/15/15 14/14/14
f 17/17/17 16/16/16 14/14/14
f 18/18/18 16/16/16 17/17/17
f 19/19/19 16/16/16 18/18/18
f 16/16/16 19/19/19 15/15/15
f 20/20/20 19/19/19 18/18/18
f 21/21/21 18/18/18 17/17/17
f 22/22/22 17/17/17 14/14/14
f 25/25/25 24/24/24 23/23/23
f 26/26/26 25/25/25 23/23/23
f 27/27/27 23/23/23 24/24/24
f 28/28/28 27/27/27 24/24/24
f 31/31/31 30/30/30 29/29/29
f 32/32/32 31/31/31 29/29/29
f 33/33/33 29/29/29 30/30/30
f 33/33/33 30/30/30 34/34/34
f 34/34/34 35/35/35 33/33/33
f 38/38/38 37/37/37 36/36/36
f 39/39/39 38/38/38 36/36/36
f 42/42/42 41/41/41 40/40/40
f 43/43/43 42/42/42 40/40/40
f 42/42/42 43/43/43 44/44/44
f 45/45/45 42/42/42 44/44/44
f 48/48/48 47/47/47 46/46/46
f 49/49/49 48/48/48 46/46/46
f 46/46/46 47/47/47 50/50/50
f 51/51/51 50/50/50 47/47/47
f 52/52/52 51/51/51 47/47/47
f 53/53/53 46/46/46 50/50/50
f 56/56/56 55/55/55 54/54/54
f 57/57/57 56/56/56 54/54/54
f 58/58/58 56/56/56 57/57/57
f 59/59/59 58/58/58 57/57/57
f 57/57/57 54/54/54 60/60/60
f 63/63/63 62/62/62 61/61/61
f 66/66/66 65/65/65 64/64/64
f 67/67/67 66/66/66 64/64/64
f 64/64/64 65/65/65 68/68/68
f 69/69/69 64/64/64 68/68/68
