g m_Page_01
v 1.369658 0.05756737 3.440309
v 1.412565 0.05756737 3.440309
v 1.412565 0.05756737 2.605534
v 1.369658 0.05756737 2.605534
v 1.463145 0.05756737 3.440309
v 1.513085 0.05756738 3.440309
v 1.513085 0.05756738 2.605534
v 1.463145 0.05756737 2.605534
v 1.562045 0.05756738 3.440309
v 1.608121 0.05756738 3.440309
v 1.608121 0.05756738 2.605534
v 1.562045 0.05756738 2.605534
v 1.657203 0.05756738 3.440309
v 1.695579 0.05756737 3.440309
v 1.695579 0.05756737 2.605534
v 1.657203 0.05756738 2.605534
v 1.744514 0.05756737 3.440309
v 1.775178 0.05756737 3.440309
v 1.775178 0.05756737 2.605534
v 1.744514 0.05756737 2.605534
v 1.824291 0.05756738 3.440309
v 1.845368 0.05756737 3.440309
v 1.845368 0.05756737 2.605534
v 1.824291 0.05756738 2.605534
v 1.894525 0.05756738 3.440309
v 1.92438 0.05756738 3.440309
v 1.92438 0.05756738 2.605534
v 1.894525 0.05756738 2.605534
v 1.33288 0.05756738 3.440309
v 1.33288 0.05756738 2.605534
vt 0.2277557 0.980664
vt 0.211831 0.980664
vt 0.211831 0.6769699
vt 0.2277557 0.6769699
vt 0.1930592 0.980664
vt 0.1745245 0.980664
vt 0.1745244 0.6769699
vt 0.1930591 0.6769699
vt 0.1563533 0.980664
vt 0.1392529 0.980664
vt 0.1392528 0.6769699
vt 0.1563533 0.6769699
vt 0.1210367 0.980664
vt 0.1067941 0.980664
vt 0.106794 0.6769699
vt 0.1210366 0.6769699
vt 0.08863214 0.980664
vt 0.07725158 0.980664
vt 0.07725146 0.6769699
vt 0.08863214 0.6769699
vt 0.0590241 0.980664
vt 0.05120136 0.980664
vt 0.05120136 0.6769699
vt 0.05902398 0.6769699
vt 0.03295726 0.980664
vt 0.02187735 0.980664
vt 0.02187714 0.6769699
vt 0.03295726 0.6769699
vt 0.2414053 0.980664
vt 0.2414051 0.6769699
vn 0 1 0
vn 0 1 0
vn 0 1 0
vn 0 1 0
vn 0 1 0
vn 0 1 0
vn 0 1 0
vn 0 1 0
vn 0 1 0
vn 0 1 0
vn 0 1 0
vn 0 1 0
vn 0 1 0
vn 0 1 0
vn 0 1 0
vn 0 1 0
vn 0 1 0
vn 0 1 0
vn 0 1 0
vn 0 1 0
vn 0 1 0
vn 0 1 0
vn 0 1 0
vn 0 1 0
vn 0 1 0
vn 0 1 0
vn 0 1 0
vn 0 1 0
vn 0 1 0
vn 0 1 0
g m_Page_01_0
f 4/4/4 1/1/1 2/2/2
f 2/2/2 3/3/3 4/4/4
f 8/8/8 3/3/3 2/2/2
f 2/2/2 5/5/5 8/8/8
f 8/8/8 5/5/5 6/6/6
f 6/6/6 7/7/7 8/8/8
f 12/12/12 7/7/7 6/6/6
f 12/12/12 6/6/6 9/9/9
f 12/12/12 9/9/9 10/10/10
f 10/10/10 11/11/11 12/12/12
f 16/16/16 11/11/11 10/10/10
f 16/16/16 10/10/10 13/13/13
f 16/16/16 13/13/13 14/14/14
f 14/14/14 15/15/15 16/16/16
f 20/20/20 15/15/15 14/14/14
f 14/14/14 17/17/17 20/20/20
f 20/20/20 17/17/17 18/18/18
f 18/18/18 19/19/19 20/20/20
f 24/24/24 19/19/19 18/18/18
f 18/18/18 21/21/21 24/24/24
f 24/24/24 21/21/21 22/22/22
f 22/22/22 23/23/23 24/24/24
f 28/28/28 23/23/23 22/22/22
f 22/22/22 25/25/25 28/28/28
f 28/28/28 25/25/25 26/26/26
f 26/26/26 27/27/27 28/28/28
f 29/29/29 1/1/1 4/4/4
f 4/4/4 30/30/30 29/29/29
