g m_Page_11
v -0.1286629 0.05756737 2.578733
v -0.1715707 0.05756737 2.578733
v -0.1715707 0.05756737 1.743959
v -0.1286629 0.05756737 1.743959
v -0.2221502 0.05756737 2.578733
v -0.2720904 0.05756738 2.578733
v -0.2720904 0.05756738 1.743959
v -0.2221502 0.05756737 1.743959
v -0.3210506 0.05756738 2.578733
v -0.3671267 0.05756738 2.578733
v -0.3671267 0.05756738 1.743959
v -0.3210506 0.05756738 1.743959
v -0.4162087 0.05756738 2.578733
v -0.454584 0.05756737 2.578733
v -0.454584 0.05756737 1.743959
v -0.4162087 0.05756738 1.743959
v -0.5035198 0.05756737 2.578733
v -0.5341839 0.05756737 2.578733
v -0.5341839 0.05756737 1.743959
v -0.5035198 0.05756737 1.743959
v -0.5832961 0.05756738 2.578733
v -0.6043737 0.05756737 2.578733
v -0.6043737 0.05756737 1.743959
v -0.5832961 0.05756738 1.743959
v -0.6535308 0.05756738 2.578733
v -0.6833853 0.05756738 2.578733
v -0.6833853 0.05756738 1.743959
v -0.6535308 0.05756738 1.743959
v -0.0918856 0.05756738 2.578733
v -0.0918856 0.05756738 1.743959
vt 0.7464141 0.650953
vt 0.76241 0.650953
vt 0.76241 0.3487881
vt 0.7464141 0.348788
vt 0.7812662 0.6509529
vt 0.7998839 0.650953
vt 0.7998839 0.3487881
vt 0.7812662 0.3487881
vt 0.818136 0.650953
vt 0.8353132 0.650953
vt 0.8353132 0.3487881
vt 0.818136 0.348788
vt 0.8536109 0.650953
vt 0.8679172 0.650953
vt 0.8679172 0.3487881
vt 0.8536109 0.3487881
vt 0.8861605 0.650953
vt 0.8975921 0.650953
vt 0.8975921 0.348788
vt 0.8861605 0.348788
vt 0.9159009 0.650953
vt 0.9237586 0.650953
vt 0.9237586 0.348788
vt 0.9159009 0.3487881
vt 0.9420843 0.650953
vt 0.9532142 0.650953
vt 0.9532142 0.3487881
vt 0.9420843 0.3487881
vt 0.7327036 0.6509531
vt 0.7327036 0.348788
vn 0 1 0
vn 0 1 0
vn 0 1 0
vn 0 1 0
vn 0 1 0
vn 0 1 0
vn 0 1 0
vn 0 1 0
vn 0 1 0
vn 0 1 0
vn 0 1 0
vn 0 1 0
vn 0 1 0
vn 0 1 0
vn 0 1 0
vn 0 1 0
vn 0 1 0
vn 0 1 0
vn 0 1 0
vn 0 1 0
vn 0 1 0
vn 0 1 0
vn 0 1 0
vn 0 1 0
vn 0 1 0
vn 0 1 0
vn 0 1 0
vn 0 1 0
vn 0 1 0
vn 0 1 0
g m_Page_11_0
f 4/4/4 2/2/2 1/1/1
f 4/4/4 3/3/3 2/2/2
f 3/3/3 8/8/8 2/2/2
f 5/5/5 2/2/2 8/8/8
f 8/8/8 6/6/6 5/5/5
f 8/8/8 7/7/7 6/6/6
f 7/7/7 12/12/12 6/6/6
f 9/9/9 6/6/6 12/12/12
f 12/12/12 10/10/10 9/9/9
f 12/12/12 11/11/11 10/10/10
f 11/11/11 16/16/16 10/10/10
f 13/13/13 10/10/10 16/16/16
f 16/16/16 14/14/14 13/13/13
f 16/16/16 15/15/15 14/14/14
f 15/15/15 20/20/20 14/14/14
f 17/17/17 14/14/14 20/20/20
f 20/20/20 18/18/18 17/17/17
f 20/20/20 19/19/19 18/18/18
f 19/19/19 24/24/24 18/18/18
f 21/21/21 18/18/18 24/24/24
f 24/24/24 22/22/22 21/21/21
f 24/24/24 23/23/23 22/22/22
f 23/23/23 28/28/28 22/22/22
f 25/25/25 22/22/22 28/28/28
f 28/28/28 26/26/26 25/25/25
f 28/28/28 27/27/27 26/26/26
f 1/1/1 29/29/29 4/4/4
f 30/30/30 4/4/4 29/29/29
