g m_Page_05
v 1.369658 0.05756737 1.701811
v 1.412565 0.05756737 1.701811
v 1.412565 0.05756737 0.8670366
v 1.369658 0.05756737 0.8670366
v 1.463145 0.05756737 1.701811
v 1.513085 0.05756738 1.701811
v 1.513085 0.05756738 0.8670366
v 1.463145 0.05756737 0.8670366
v 1.562045 0.05756738 1.701811
v 1.608121 0.05756738 1.701811
v 1.608121 0.05756738 0.8670366
v 1.562045 0.05756738 0.8670366
v 1.657203 0.05756738 1.701811
v 1.695579 0.05756737 1.701811
v 1.695579 0.05756737 0.8670366
v 1.657203 0.05756738 0.8670366
v 1.744514 0.05756737 1.701811
v 1.775178 0.05756737 1.701811
v 1.775178 0.05756737 0.8670366
v 1.744514 0.05756737 0.8670366
v 1.824291 0.05756738 1.701811
v 1.845368 0.05756737 1.701811
v 1.845368 0.05756737 0.8670366
v 1.824291 0.05756738 0.8670366
v 1.894525 0.05756738 1.701811
v 1.92438 0.05756738 1.701811
v 1.92438 0.05756738 0.8670366
v 1.894525 0.05756738 0.8670366
v 1.33288 0.05756738 1.701811
v 1.33288 0.05756738 0.8670366
vt 0.2267084 0.3256063
vt 0.211046 0.3256063
vt 0.211046 0.02305635
vt 0.2267084 0.02305641
vt 0.1925831 0.3256064
vt 0.1743535 0.3256064
vt 0.1743535 0.02305641
vt 0.1925831 0.02305641
vt 0.1564816 0.3256064
vt 0.1396625 0.3256064
vt 0.1396625 0.02305635
vt 0.1564816 0.02305641
vt 0.1217464 0.3256064
vt 0.1077383 0.3256064
vt 0.1077384 0.02305641
vt 0.1217463 0.02305635
vt 0.08987549 0.3256064
vt 0.07868221 0.3256064
vt 0.07868221 0.02305641
vt 0.08987549 0.02305641
vt 0.06075484 0.3256064
vt 0.05306101 0.3256064
vt 0.05306101 0.02305641
vt 0.06075484 0.02305641
vt 0.03511731 0.3256064
vt 0.02421971 0.3256064
vt 0.02421971 0.02305641
vt 0.03511719 0.02305629
vt 0.2401332 0.3256063
vt 0.2401331 0.02305641
vn 0 1 0
vn 0 1 0
vn 0 1 0
vn 0 1 0
vn 0 1 0
vn 0 1 0
vn 0 1 0
vn 0 1 0
vn 0 1 0
vn 0 1 0
vn 0 1 0
vn 0 1 0
vn 0 1 0
vn 0 1 0
vn 0 1 0
vn 0 1 0
vn 0 1 0
vn 0 1 0
vn 0 1 0
vn 0 1 0
vn 0 1 0
vn 0 1 0
vn 0 1 0
vn 0 1 0
vn 0 1 0
vn 0 1 0
vn 0 1 0
vn 0 1 0
vn 0 1 0
vn 0 1 0
g m_Page_05_0
f 4/4/4 1/1/1 2/2/2
f 2/2/2 3/3/3 4/4/4
f 8/8/8 3/3/3 2/2/2
f 2/2/2 5/5/5 8/8/8
f 8/8/8 5/5/5 6/6/6
f 6/6/6 7/7/7 8/8/8
f 12/12/12 7/7/7 6/6/6
f 12/12/12 6/6/6 9/9/9
f 12/12/12 9/9/9 10/10/10
f 10/10/10 11/11/11 12/12/12
f 16/16/16 11/11/11 10/10/10
f 10/10/10 13/13/13 16/16/16
f 16/16/16 13/13/13 14/14/14
f 14/14/14 15/15/15 16/16/16
f 20/20/20 15/15/15 14/14/14
f 14/14/14 17/17/17 20/20/20
f 20/20/20 17/17/17 18/18/18
f 18/18/18 19/19/19 20/20/20
f 24/24/24 19/19/19 18/18/18
f 24/24/24 18/18/18 21/21/21
f 24/24/24 21/21/21 22/22/22
f 22/22/22 23/23/23 24/24/24
f 28/28/28 23/23/23 22/22/22
f 28/28/28 22/22/22 25/25/25
f 28/28/28 25/25/25 26/26/26
f 26/26/26 27/27/27 28/28/28
f 4/4/4 29/29/29 1/1/1
f 4/4/4 30/30/30 29/29/29
