g m_Page_06
v 1.209739 0.05756737 0.8670366
v 1.209739 0.05756737 1.701811
v 1.166831 0.05756737 1.701811
v 1.166831 0.05756737 0.8670366
v 1.116251 0.05756737 0.8670366
v 1.116251 0.05756737 1.701811
v 1.066311 0.05756738 1.701811
v 1.066311 0.05756738 0.8670366
v 1.017351 0.05756738 0.8670366
v 1.017351 0.05756738 1.701811
v 0.9712749 0.05756738 1.701811
v 0.9712749 0.05756738 0.8670366
v 0.9221928 0.05756738 0.8670366
v 0.9221928 0.05756738 1.701811
v 0.8838176 0.05756737 1.701811
v 0.8838176 0.05756737 0.8670366
v 0.8348817 0.05756737 0.8670366
v 0.8348817 0.05756737 1.701811
v 0.8042176 0.05756737 1.701811
v 0.8042176 0.05756737 0.8670366
v 0.7551054 0.05756738 0.8670366
v 0.7551054 0.05756738 1.701811
v 0.7340279 0.05756737 1.701811
v 0.7340279 0.05756737 0.8670366
v 0.6848707 0.05756738 0.8670366
v 0.6848707 0.05756738 1.701811
v 0.6550163 0.05756738 1.701811
v 0.6550163 0.05756738 0.8670366
v 1.246516 0.05756738 1.701811
v 1.246516 0.05756738 0.8670366
vt 0.2711845 0.02439176
vt 0.2711845 0.3252878
vt 0.2868469 0.3252878
vt 0.2868469 0.02439176
vt 0.3053097 0.02439176
vt 0.3053097 0.3252878
vt 0.3235393 0.3252879
vt 0.3235393 0.02439176
vt 0.3414112 0.02439176
vt 0.3414112 0.3252878
vt 0.3582301 0.3252878
vt 0.3582301 0.0243917
vt 0.3761464 0.02439176
vt 0.3761464 0.3252879
vt 0.3901545 0.3252878
vt 0.3901545 0.02439176
vt 0.4080173 0.02439176
vt 0.4080173 0.3252878
vt 0.4192106 0.3252879
vt 0.4192106 0.02439176
vt 0.437138 0.02439176
vt 0.437138 0.3252879
vt 0.4448318 0.3252879
vt 0.4448318 0.02439176
vt 0.4627755 0.02439176
vt 0.4627755 0.3252879
vt 0.4736733 0.3252878
vt 0.4736733 0.02439176
vt 0.2577597 0.3252878
vt 0.2577595 0.0243917
vn 0.330689 0.9437398 0
vn 0.330689 0.9437398 0
vn 0.2363441 0.9716694 0
vn 0.2363441 0.9716694 0
vn 0.1637459 0.9865025 0
vn 0.1637459 0.9865025 0
vn 0.09540299 0.9954388 0
vn 0.09540299 0.9954388 0
vn 0.03272701 0.9994643 0
vn 0.03272701 0.9994643 0
vn -0.03367699 0.9994327 0
vn -0.03367699 0.9994327 0
vn -0.09382696 0.9955885 0
vn -0.09382696 0.9955885 0
vn -0.113745 0.9935099 0
vn -0.113745 0.9935099 0
vn -0.08956797 0.9959807 0
vn -0.08956797 0.9959807 0
vn -0.06129399 0.9981198 0
vn -0.06129399 0.9981198 0
vn -0.04993198 0.9987526 0
vn -0.04993198 0.9987526 0
vn -0.03575499 0.9993606 0
vn -0.03575499 0.9993606 0
vn -0.03327601 0.9994462 0
vn -0.03327601 0.9994462 0
vn -0.03099901 0.9995193 0
vn -0.03099901 0.9995193 0
vn 0.388386 0.9214969 0
vn 0.388386 0.9214969 0
g m_Page_06_0
f 3/3/3 2/2/2 1/1/1
f 4/4/4 3/3/3 1/1/1
f 4/4/4 5/5/5 3/3/3
f 5/5/5 6/6/6 3/3/3
f 7/7/7 6/6/6 5/5/5
f 8/8/8 7/7/7 5/5/5
f 8/8/8 9/9/9 7/7/7
f 9/9/9 10/10/10 7/7/7
f 11/11/11 10/10/10 9/9/9
f 12/12/12 11/11/11 9/9/9
f 12/12/12 13/13/13 11/11/11
f 13/13/13 14/14/14 11/11/11
f 15/15/15 14/14/14 13/13/13
f 16/16/16 15/15/15 13/13/13
f 16/16/16 17/17/17 15/15/15
f 17/17/17 18/18/18 15/15/15
f 19/19/19 18/18/18 17/17/17
f 20/20/20 19/19/19 17/17/17
f 20/20/20 21/21/21 19/19/19
f 21/21/21 22/22/22 19/19/19
f 23/23/23 22/22/22 21/21/21
f 24/24/24 23/23/23 21/21/21
f 24/24/24 25/25/25 23/23/23
f 25/25/25 26/26/26 23/23/23
f 27/27/27 26/26/26 25/25/25
f 28/28/28 27/27/27 25/25/25
f 1/1/1 2/2/2 29/29/29
f 30/30/30 1/1/1 29/29/29
