g m_plated_pasta_wrong_02
v 0.3884735 0.08141735 -0.1857187
v 0.3092639 0.1188 -0.1443646
v 0.2172955 0.1169824 -0.2545489
v 0.2687787 0.08146324 -0.3247586
v 0.0777594 0.1140456 -0.30543
v 0.1015137 0.08069597 -0.3895061
v -0.07133484 0.1136902 -0.3018178
v -0.08804504 0.0803158 -0.3809042
v -0.2077258 0.1172494 -0.2445227
v -0.2575232 0.08141413 -0.3063573
v -0.3102356 0.1209199 -0.1375812
v -0.3885284 0.08146324 -0.1709146
v -0.3412585 0.1209254 0.005029602
v -0.4234509 0.08146324 0.009559326
v -0.2978296 0.1210667 0.1468436
v -0.3684631 0.08146324 0.1796646
v -0.2015423 0.1213729 0.2617429
v -0.2483588 0.08146324 0.3204474
v -0.07412231 0.1213729 0.3288025
v -0.1006335 0.08146324 0.4096591
v 0.07768127 0.1213729 0.3380961
v 0.093573 0.08146324 0.4262986
v 0.2100793 0.1213729 0.2758395
v 0.2648279 0.08146324 0.3513303
v 0.2951959 0.1198203 0.152334
v 0.3654633 0.08145531 0.1904242
v 0.3302338 0.1184765 0.004604492
v 0.4123645 0.0811911 -0.000402832
v -0.1485162 0.1539124 0.1908136
v -0.05241211 0.1554015 0.2409085
v 0.05440063 0.1555521 0.2418317
v 0.1505066 0.1546745 0.1955508
v 0.2168689 0.1524533 0.1118518
v 0.2406048 0.1508565 0.008031616
v 0.2172571 0.1486019 -0.09420807
v 0.1507507 0.1446379 -0.1727753
v 0.05425781 0.1429979 -0.2162674
v -0.05241211 0.1425055 -0.22008
v -0.1487238 0.1436265 -0.1827618
v -0.2174353 0.1480963 -0.1074698
v -0.24117 0.1502809 -0.005436096
v -0.2152307 0.1515967 0.1014499
v 0.09108581 0.1656024 -0.1025177
v 0.0331018 0.1644135 -0.1321002
v -0.03125549 0.1644983 -0.1353714
v -0.08923767 0.1646143 -0.1137778
v -0.1293616 0.1670412 -0.06857208
v -0.1436835 0.170387 -0.008770752
v -0.1293616 0.1736945 0.05422974
v -0.08923767 0.1767527 0.1087006
v -0.03125549 0.1778302 0.1396963
v 0.01658447 0.1799452 -0.06790802
v -0.01473694 0.1799104 -0.0700711
v -0.04295654 0.1804278 -0.05849396
v -0.06248718 0.1820861 -0.03588867
v -0.06945556 0.1841679 -0.007014465
v -0.06248718 0.1861642 0.02255615
v -0.04295654 0.1877753 0.04744812
v -0.01473694 0.188882 0.06245758
v 0.01658447 0.1889957 0.0646579
v 0.0009228516 0.189598 -0.004170837
v 0.0448053 0.1883689 0.05336761
v 0.0331018 0.1780709 0.1426205
v 0.09108581 0.1774109 0.1168939
v 0.1312122 0.1757416 0.06847656
v 0.1455316 0.1730414 0.007668762
v 0.1312122 0.1691847 -0.05315277
v 0.0448053 0.1808043 -0.05275024
v 0.0643341 0.1828179 -0.02792786
v 0.0643341 0.1871158 0.03102966
v 0.0713031 0.1852585 0.001998291
v 0.4224286 0.04935334 -0.0007315063
v 0.422818 0.06466226 -0.0007034302
v 0.3995306 0.06467537 -0.1914767
v 0.3990802 0.04935334 -0.1912656
v 0.2767218 0.04935334 -0.3336539
v 0.2770044 0.06467537 -0.3340005
v 0.1041144 0.04935334 -0.3998867
v 0.1041705 0.06461744 -0.4002246
v 0.1041705 0.06461744 -0.4002246
v -0.09027588 0.06448144 -0.391542
v -0.09018188 0.04935334 -0.3912983
v 0.1041144 0.04935334 -0.3998867
v -0.262384 0.04935334 -0.3137042
v -0.2631207 0.06467537 -0.314124
v -0.3961316 0.04935334 -0.1749124
v -0.3975855 0.06467537 -0.175292
v -0.3885284 0.08146324 -0.1709146
v -0.2575232 0.08141413 -0.3063573
v -0.3975855 0.06467537 -0.175292
v -0.4334808 0.06467537 0.009559326
v -0.4319855 0.04935334 0.009752807
v -0.3961316 0.04935334 -0.1749124
v -0.3759894 0.04935334 0.184035
v -0.3768445 0.06467537 0.184137
v -0.2543457 0.04935334 0.3279547
v -0.254613 0.06467537 0.3282907
v -0.3684631 0.08146324 0.1796646
v -0.4234509 0.08146324 0.009559326
v -0.254613 0.06467537 0.3282907
v -0.1027081 0.06467537 0.4197702
v -0.1025977 0.04935334 0.419383
v -0.2543457 0.04935334 0.3279547
v 0.09642578 0.04935334 0.437169
v 0.096521 0.06467537 0.4375875
v 0.2715692 0.04935334 0.3603537
v 0.2718371 0.06467537 0.3606893
v 0.2718371 0.06467537 0.3606893
v 0.374657 0.06467537 0.1951071
v 0.3742853 0.04935334 0.1949518
v 0.2715692 0.04935334 0.3603537
v 0.4224286 0.04935334 -0.0007315063
v 0.422818 0.06466226 -0.0007034302
v 0.3995306 0.06467537 -0.1914767
v 0.2770044 0.06467537 -0.3340005
v 0.1041705 0.06461744 -0.4002246
v -0.09027588 0.06448144 -0.391542
v -0.2631207 0.06467537 -0.314124
v 0.422818 0.06466226 -0.0007034302
v 0.374657 0.06467537 0.1951071
v 0.2718371 0.06467537 0.3606893
v 0.096521 0.06467537 0.4375875
v -0.1027081 0.06467537 0.4197702
v -0.254613 0.06467537 0.3282907
v -0.3768445 0.06467537 0.184137
v -0.3975855 0.06467537 -0.175292
v -0.4334808 0.06467537 0.009559326
vt 0.9272461 0.03598022
vt 0.934082 0.03689575
vt 0.9375 0.02661133
vt 0.9316406 0.02281189
vt 0.9462891 0.01913452
vt 0.9418945 0.01348877
vt 0.9570313 0.01538849
vt 0.9560547 0.008850098
vt 0.9682617 0.01602173
vt 0.9702148 0.009841919
vt 0.9780273 0.02114868
vt 0.9829102 0.01638794
vt 0.9838867 0.03038025
vt 0.9907227 0.02827454
vt 0.9848633 0.04156494
vt 0.9912109 0.04199219
vt 0.980957 0.05227661
vt 0.9868164 0.05560303
vt 0.9736328 0.06036377
vt 0.9780273 0.06591797
vt 0.9633789 0.06494141
vt 0.9643555 0.07214355
vt 0.9521484 0.06402588
vt 0.9501953 0.07128906
vt 0.9428711 0.05764771
vt 0.9384766 0.06274414
vt 0.9365234 0.04806519
vt 0.9296875 0.05004883
vt 0.9750977 0.04849243
vt 0.9697266 0.05444336
vt 0.9624023 0.05725098
vt 0.9545898 0.05651855
vt 0.9477539 0.05245972
vt 0.9433594 0.0458374
vt 0.9418945 0.0380249
vt 0.9448242 0.03068542
vt 0.9501953 0.02503967
vt 0.9575195 0.02198792
vt 0.965332 0.02215576
vt 0.972168 0.02577209
vt 0.9765625 0.03234863
vt 0.9775391 0.04049683
vt 0.9506836 0.03411865
vt 0.9541016 0.03053284
vt 0.9584961 0.02864075
vt 0.9628906 0.02865601
vt 0.9667969 0.03082275
vt 0.9697266 0.03463745
vt 0.9702148 0.03939819
vt 0.96875 0.04421997
vt 0.9658203 0.04785156
vt 0.9570313 0.03466797
vt 0.9589844 0.03372192
vt 0.9614258 0.03378296
vt 0.9633789 0.03488159
vt 0.9643555 0.03671265
vt 0.9648438 0.03894043
vt 0.9638672 0.0411377
vt 0.9624023 0.04290771
vt 0.9604492 0.04385376
vt 0.9594727 0.03869629
vt 0.9580078 0.04379272
vt 0.9614258 0.04968262
vt 0.956543 0.04940796
vt 0.9526367 0.04708862
vt 0.949707 0.04324341
vt 0.9492188 0.03863525
vt 0.9555664 0.03643799
vt 0.9545898 0.03866577
vt 0.9560547 0.04275513
vt 0.9550781 0.04092407
vt 0.9272461 0.05099487
vt 0.9287109 0.05056763
vt 0.925293 0.03579712
vt 0.9243164 0.03570557
vt 0.9296875 0.02139282
vt 0.9306641 0.02203369
vt 0.9404297 0.01126862
vt 0.9414063 0.01225281
vt 0.9414063 0.01225281
vt 0.9555664 0.007411957
vt 0.9555664 0.00630188
vt 0.9404297 0.01126862
vt 0.9707031 0.007328033
vt 0.9707031 0.00843811
vt 0.9848633 0.01446533
vt 0.984375 0.01531982
vt 0.9829102 0.01638794
vt 0.9702148 0.009841919
vt 0.984375 0.01531982
vt 0.9916992 0.02775574
vt 0.9931641 0.02742004
vt 0.9848633 0.01446533
vt 0.9941406 0.04232788
vt 0.9926758 0.04217529
vt 0.9887695 0.05691528
vt 0.987793 0.05633545
vt 0.9912109 0.04199219
vt 0.9907227 0.02827454
vt 0.987793 0.05633545
vt 0.9790039 0.06719971
vt 0.9794922 0.06811523
vt 0.9887695 0.05691528
vt 0.9648438 0.0748291
vt 0.9648438 0.07366943
vt 0.9492188 0.0737915
vt 0.949707 0.07275391
vt 0.949707 0.07275391
vt 0.9375 0.06378174
vt 0.9365234 0.06463623
vt 0.9492188 0.0737915
vt 0.9272461 0.05099487
vt 0.9287109 0.05056763
vt 0.925293 0.03579712
vt 0.9306641 0.02203369
vt 0.9414063 0.01225281
vt 0.9555664 0.007411957
vt 0.9707031 0.00843811
vt 0.9287109 0.05056763
vt 0.9375 0.06378174
vt 0.949707 0.07275391
vt 0.9648438 0.07366943
vt 0.9790039 0.06719971
vt 0.987793 0.05633545
vt 0.9926758 0.04217529
vt 0.984375 0.01531982
vt 0.9916992 0.02775574
vn 0.4596837 0.8639715 -0.2055335
vn 0.3140654 0.9383245 -0.1446034
vn 0.1844071 0.943002 -0.2770223
vn 0.2778949 0.872673 -0.4015175
vn 0.04941022 0.9395283 -0.3388882
vn 0.07640365 0.8724467 -0.4827
vn -0.07057837 0.9322191 -0.3549454
vn -0.1090614 0.8623723 -0.4943881
vn -0.2007471 0.9280006 -0.3138717
vn -0.3010217 0.8475502 -0.4370867
vn -0.3213269 0.9301122 -0.1778773
vn -0.4796727 0.8411437 -0.2497825
vn -0.3740322 0.9272836 0.01565338
vn -0.5464873 0.8369376 0.02978474
vn -0.3484498 0.9183437 0.18769
vn -0.4935862 0.8263518 0.2711373
vn -0.2633766 0.9127369 0.3123205
vn -0.3623983 0.8270194 0.4297749
vn -0.1069194 0.9181243 0.3815965
vn -0.1565878 0.8416884 0.51676
vn 0.06901797 0.9259328 0.3713285
vn 0.08436511 0.85553 0.5108337
vn 0.2458272 0.9275485 0.2814654
vn 0.3357143 0.8558067 0.3935618
vn 0.3628148 0.919405 0.1518551
vn 0.4918146 0.844966 0.2101208
vn 0.3821142 0.9239848 0.0155123
vn 0.5280648 0.848793 0.02642286
vn -0.1982858 0.955506 0.2183825
vn -0.07955477 0.9544693 0.2875056
vn 0.05909358 0.9568349 0.2845607
vn 0.1924315 0.9567592 0.2181328
vn 0.2825383 0.952406 0.1144331
vn 0.2935878 0.9559092 -0.006618334
vn 0.2275029 0.9654049 -0.1274203
vn 0.1330614 0.9662935 -0.22039
vn 0.046151 0.9602703 -0.275229
vn -0.04655646 0.9562336 -0.2888769
vn -0.1362535 0.9593564 -0.2471239
vn -0.2128543 0.9664824 -0.1435445
vn -0.2572967 0.9662998 -0.007948238
vn -0.2549677 0.9603269 0.1129768
vn 0.1138239 0.9735675 -0.1980166
vn 0.04898213 0.971464 -0.2320745
vn -0.03346999 0.9712803 -0.2355724
vn -0.105856 0.9737555 -0.2014814
vn -0.1606609 0.9783814 -0.1302226
vn -0.1990426 0.979414 -0.03361614
vn -0.2001725 0.9780562 0.05776774
vn -0.1509636 0.9791986 0.1355736
vn -0.06008105 0.9806952 0.1860839
vn 0.04686718 0.9771003 -0.2075535
vn -0.0261752 0.9778386 -0.2077174
vn -0.09204809 0.9790273 -0.1817492
vn -0.136952 0.981756 -0.1319068
vn -0.1613632 0.9851349 -0.05891744
vn -0.1520706 0.9882743 0.01372198
vn -0.109829 0.991407 0.0710616
vn -0.04578288 0.9932162 0.10689
vn 0.0237709 0.9936455 0.1100164
vn -0.001907961 0.9975634 -0.06974106
vn 0.08791541 0.9929709 0.07924529
vn 0.04227455 0.9805924 0.1914458
vn 0.1378932 0.9790148 0.1500514
vn 0.2012069 0.9771051 0.06914737
vn 0.210639 0.9769692 -0.034095
vn 0.1705801 0.9763391 -0.132907
vn 0.09777889 0.9780275 -0.1841239
vn 0.1315342 0.981725 -0.1375314
vn 0.1332913 0.9908915 0.01916601
vn 0.1482593 0.9870171 -0.06177716
vn 0.9975752 -0.02715797 0.06407896
vn 0.9532829 0.2964979 0.05779905
vn 0.8648347 0.3232729 -0.3841298
vn 0.9157404 -0.03024701 -0.4006302
vn 0.5770059 -0.02830338 -0.8162494
vn 0.5511804 0.3274167 -0.7674623
vn 0.1556033 -0.02242148 -0.9875651
vn 0.1514919 0.3131544 -0.9375418
vn 0.1514919 0.3131544 -0.9375418
vn -0.2175245 0.2959785 -0.9300967
vn -0.2284082 -0.02547487 -0.9732322
vn 0.1556033 -0.02242148 -0.9875651
vn -0.5739145 -0.05112996 -0.8173175
vn -0.5569087 0.2663977 -0.7866923
vn -0.8801527 -0.08668321 -0.4667088
vn -0.8592663 0.2476799 -0.4475667
vn -0.4796727 0.8411437 -0.2497825
vn -0.3010217 0.8475502 -0.4370867
vn -0.8592663 0.2476799 -0.4475667
vn -0.9679709 0.245773 0.05126482
vn -0.9943869 -0.08752256 0.0594518
vn -0.8801527 -0.08668321 -0.4667088
vn -0.870011 -0.05510898 0.4899427
vn -0.844012 0.2558912 0.4713422
vn -0.651854 -0.03246586 0.7576492
vn -0.6269235 0.2703931 0.7306535
vn -0.4935862 0.8263518 0.2711373
vn -0.5464873 0.8369376 0.02978474
vn -0.6269235 0.2703931 0.7306535
vn -0.2799301 0.2886529 0.9155975
vn -0.2972661 -0.02707428 0.9544107
vn -0.651854 -0.03246586 0.7576492
vn 0.1554967 -0.02760956 0.9874505
vn 0.1531455 0.3079674 0.9389902
vn 0.6570255 -0.02798218 0.7533489
vn 0.6214243 0.3087281 0.7200825
vn 0.6214243 0.3087281 0.7200825
vn 0.8819785 0.2904033 0.3711872
vn 0.9223781 -0.02618108 0.3854001
vn 0.6570255 -0.02798218 0.7533489
vn 0.9975752 -0.02715797 0.06407896
vn 0.9532829 0.2964979 0.05779905
vn 0.8648347 0.3232729 -0.3841298
vn 0.5511804 0.3274167 -0.7674623
vn 0.1514919 0.3131544 -0.9375418
vn -0.2175245 0.2959785 -0.9300967
vn -0.5569087 0.2663977 -0.7866923
vn 0.9532829 0.2964979 0.05779905
vn 0.8819785 0.2904033 0.3711872
vn 0.6214243 0.3087281 0.7200825
vn 0.1531455 0.3079674 0.9389902
vn -0.2799301 0.2886529 0.9155975
vn -0.6269235 0.2703931 0.7306535
vn -0.844012 0.2558912 0.4713422
vn -0.8592663 0.2476799 -0.4475667
vn -0.9679709 0.245773 0.05126482
g m_plated_pasta_wrong_02_0
f 3/3/3 2/2/2 1/1/1
f 4/4/4 3/3/3 1/1/1
f 5/5/5 3/3/3 4/4/4
f 6/6/6 5/5/5 4/4/4
f 7/7/7 5/5/5 6/6/6
f 8/8/8 7/7/7 6/6/6
f 9/9/9 7/7/7 8/8/8
f 10/10/10 9/9/9 8/8/8
f 11/11/11 9/9/9 10/10/10
f 12/12/12 11/11/11 10/10/10
f 13/13/13 11/11/11 12/12/12
f 14/14/14 13/13/13 12/12/12
f 15/15/15 13/13/13 14/14/14
f 16/16/16 15/15/15 14/14/14
f 17/17/17 15/15/15 16/16/16
f 18/18/18 17/17/17 16/16/16
f 19/19/19 17/17/17 18/18/18
f 20/20/20 19/19/19 18/18/18
f 21/21/21 19/19/19 20/20/20
f 22/22/22 21/21/21 20/20/20
f 23/23/23 21/21/21 22/22/22
f 24/24/24 23/23/23 22/22/22
f 25/25/25 23/23/23 24/24/24
f 26/26/26 25/25/25 24/24/24
f 27/27/27 25/25/25 26/26/26
f 28/28/28 27/27/27 26/26/26
f 2/2/2 27/27/27 28/28/28
f 1/1/1 2/2/2 28/28/28
f 17/17/17 29/29/29 15/15/15
f 30/30/30 29/29/29 17/17/17
f 19/19/19 30/30/30 17/17/17
f 31/31/31 30/30/30 19/19/19
f 21/21/21 31/31/31 19/19/19
f 32/32/32 31/31/31 21/21/21
f 23/23/23 32/32/32 21/21/21
f 33/33/33 32/32/32 23/23/23
f 25/25/25 33/33/33 23/23/23
f 34/34/34 33/33/33 25/25/25
f 27/27/27 34/34/34 25/25/25
f 35/35/35 34/34/34 27/27/27
f 2/2/2 35/35/35 27/27/27
f 36/36/36 35/35/35 2/2/2
f 3/3/3 36/36/36 2/2/2
f 37/37/37 36/36/36 3/3/3
f 5/5/5 37/37/37 3/3/3
f 38/38/38 37/37/37 5/5/5
f 7/7/7 38/38/38 5/5/5
f 39/39/39 38/38/38 7/7/7
f 9/9/9 39/39/39 7/7/7
f 40/40/40 39/39/39 9/9/9
f 11/11/11 40/40/40 9/9/9
f 41/41/41 40/40/40 11/11/11
f 13/13/13 41/41/41 11/11/11
f 42/42/42 41/41/41 13/13/13
f 15/15/15 42/42/42 13/13/13
f 29/29/29 42/42/42 15/15/15
f 36/36/36 43/43/43 35/35/35
f 44/44/44 43/43/43 36/36/36
f 37/37/37 44/44/44 36/36/36
f 45/45/45 44/44/44 37/37/37
f 38/38/38 45/45/45 37/37/37
f 46/46/46 45/45/45 38/38/38
f 39/39/39 46/46/46 38/38/38
f 47/47/47 46/46/46 39/39/39
f 40/40/40 47/47/47 39/39/39
f 48/48/48 47/47/47 40/40/40
f 41/41/41 48/48/48 40/40/40
f 49/49/49 48/48/48 41/41/41
f 42/42/42 49/49/49 41/41/41
f 50/50/50 49/49/49 42/42/42
f 29/29/29 50/50/50 42/42/42
f 51/51/51 50/50/50 29/29/29
f 44/44/44 52/52/52 43/43/43
f 53/53/53 52/52/52 44/44/44
f 45/45/45 53/53/53 44/44/44
f 54/54/54 53/53/53 45/45/45
f 46/46/46 54/54/54 45/45/45
f 55/55/55 54/54/54 46/46/46
f 47/47/47 55/55/55 46/46/46
f 56/56/56 55/55/55 47/47/47
f 48/48/48 56/56/56 47/47/47
f 57/57/57 56/56/56 48/48/48
f 49/49/49 57/57/57 48/48/48
f 58/58/58 57/57/57 49/49/49
f 50/50/50 58/58/58 49/49/49
f 59/59/59 58/58/58 50/50/50
f 51/51/51 59/59/59 50/50/50
f 60/60/60 59/59/59 51/51/51
f 53/53/53 61/61/61 52/52/52
f 54/54/54 61/61/61 53/53/53
f 55/55/55 61/61/61 54/54/54
f 56/56/56 61/61/61 55/55/55
f 57/57/57 61/61/61 56/56/56
f 58/58/58 61/61/61 57/57/57
f 59/59/59 61/61/61 58/58/58
f 60/60/60 61/61/61 59/59/59
f 62/62/62 61/61/61 60/60/60
f 62/62/62 60/60/60 63/63/63
f 63/63/63 60/60/60 51/51/51
f 63/63/63 51/51/51 30/30/30
f 30/30/30 51/51/51 29/29/29
f 31/31/31 63/63/63 30/30/30
f 64/64/64 63/63/63 31/31/31
f 64/64/64 62/62/62 63/63/63
f 32/32/32 64/64/64 31/31/31
f 65/65/65 64/64/64 32/32/32
f 33/33/33 65/65/65 32/32/32
f 66/66/66 65/65/65 33/33/33
f 34/34/34 66/66/66 33/33/33
f 67/67/67 66/66/66 34/34/34
f 35/35/35 67/67/67 34/34/34
f 43/43/43 67/67/67 35/35/35
f 43/43/43 68/68/68 67/67/67
f 68/68/68 69/69/69 67/67/67
f 67/67/67 69/69/69 66/66/66
f 52/52/52 68/68/68 43/43/43
f 65/65/65 70/70/70 64/64/64
f 70/70/70 62/62/62 64/64/64
f 71/71/71 70/70/70 65/65/65
f 66/66/66 71/71/71 65/65/65
f 69/69/69 71/71/71 66/66/66
f 68/68/68 61/61/61 69/69/69
f 52/52/52 61/61/61 68/68/68
f 70/70/70 61/61/61 62/62/62
f 71/71/71 61/61/61 70/70/70
f 69/69/69 61/61/61 71/71/71
f 74/74/74 73/73/73 72/72/72
f 75/75/75 74/74/74 72/72/72
f 75/75/75 76/76/76 74/74/74
f 76/76/76 77/77/77 74/74/74
f 76/76/76 78/78/78 77/77/77
f 78/78/78 79/79/79 77/77/77
f 82/82/82 81/81/81 80/80/80
f 83/83/83 82/82/82 80/80/80
f 82/82/82 84/84/84 81/81/81
f 84/84/84 85/85/85 81/81/81
f 84/84/84 86/86/86 85/85/85
f 86/86/86 87/87/87 85/85/85
f 87/87/87 88/88/88 85/85/85
f 88/88/88 89/89/89 85/85/85
f 92/92/92 91/91/91 90/90/90
f 93/93/93 92/92/92 90/90/90
f 92/92/92 94/94/94 91/91/91
f 94/94/94 95/95/95 91/91/91
f 94/94/94 96/96/96 95/95/95
f 96/96/96 97/97/97 95/95/95
f 95/95/95 98/98/98 91/91/91
f 98/98/98 99/99/99 91/91/91
f 102/102/102 101/101/101 100/100/100
f 103/103/103 102/102/102 100/100/100
f 102/102/102 104/104/104 101/101/101
f 104/104/104 105/105/105 101/101/101
f 104/104/104 106/106/106 105/105/105
f 106/106/106 107/107/107 105/105/105
f 110/110/110 109/109/109 108/108/108
f 111/111/111 110/110/110 108/108/108
f 110/110/110 112/112/112 109/109/109
f 112/112/112 113/113/113 109/109/109
f 4/4/4 1/1/1 114/114/114
f 115/115/115 4/4/4 114/114/114
f 6/6/6 4/4/4 115/115/115
f 116/116/116 6/6/6 115/115/115
f 8/8/8 6/6/6 116/116/116
f 117/117/117 8/8/8 116/116/116
f 10/10/10 8/8/8 117/117/117
f 118/118/118 10/10/10 117/117/117
f 114/114/114 1/1/1 119/119/119
f 1/1/1 28/28/28 119/119/119
f 119/119/119 28/28/28 120/120/120
f 28/28/28 26/26/26 120/120/120
f 120/120/120 26/26/26 121/121/121
f 26/26/26 24/24/24 121/121/121
f 121/121/121 24/24/24 122/122/122
f 24/24/24 22/22/22 122/122/122
f 122/122/122 22/22/22 123/123/123
f 22/22/22 20/20/20 123/123/123
f 123/123/123 20/20/20 124/124/124
f 20/20/20 18/18/18 124/124/124
f 124/124/124 18/18/18 125/125/125
f 18/18/18 16/16/16 125/125/125
f 14/14/14 12/12/12 126/126/126
f 127/127/127 14/14/14 126/126/126
