g m_raft_barrier_rope_01
v -0.04485302 0.175896 -1.022663
v -0.04512218 0.07847212 -0.7832199
v -0.04478466 0.02947484 -0.8045382
v -0.04273083 0.1311264 -1.049869
v 0.003367195 0.006435368 -0.8148312
v 0.004446296 0.1116374 -1.062389
v 0.05153064 0.02937078 -0.8047006
v 0.05154163 0.131118 -1.050027
v 0.05171497 0.07832009 -0.7833591
v 0.05350147 0.1757907 -1.022838
v 0.003309212 0.1018759 -0.7731009
v 0.004371834 0.1983593 -1.009167
v -0.04512218 0.07847212 -0.7832199
v -0.04485302 0.175896 -1.022663
v -0.04566479 -0.04876311 -0.5550803
v -0.04626293 0.002104504 -0.5402396
v 0.002319832 -0.07241362 -0.5622739
v 0.05032459 -0.04891432 -0.5552316
v 0.05080616 0.001949933 -0.5403684
v 0.002283211 0.02655259 -0.5331559
v -0.04626293 0.002104504 -0.5402396
v -0.04893383 -0.0864503 -0.2831729
v -0.0492799 -0.03319022 -0.2768509
v 0.001281013 -0.1112493 -0.2862088
v 0.05150379 -0.08649619 -0.2833219
v 0.05178272 -0.03324198 -0.2769858
v 0.001254158 -0.008064602 -0.2738596
v -0.0492799 -0.03319022 -0.2768509
v -0.05141796 -0.09615722 0.0003237574
v -0.05160778 -0.04223349 0.0003048365
v -1.335122E-06 -0.1210287 0.0002517359
v 0.05141834 -0.09615691 0.000152859
v 0.05160755 -0.04223337 0.0001437037
v 1.106284E-06 -0.01706992 0.0002187769
v -0.05160778 -0.04223349 0.0003048365
v -0.05149792 -0.08707877 0.2843594
v -0.05177807 -0.0340372 0.2767062
v -0.001283073 -0.1117152 0.2879415
v 0.0489275 -0.0870489 0.2842093
v 0.04927784 -0.03400412 0.2765713
v -0.001246452 -0.008985889 0.2729476
v -0.05177807 -0.0340372 0.2767062
v -0.05032421 -0.05015662 0.5555435
v -0.05081066 0.0007250714 0.5404104
v -0.002315788 -0.07361067 0.562745
v 0.04566761 -0.05000506 0.5553915
v 0.04627186 0.000804913 0.5402712
v -0.002273674 0.0253058 0.5330581
v -0.05081066 0.0007250714 0.5404104
v -0.05153393 0.02730363 0.8041299
v -0.05172619 0.07675382 0.783649
v -0.003358269 0.004179242 0.8138431
v 0.04479298 0.02748689 0.8039822
v 0.04513233 0.07694715 0.7835208
v -0.003310051 0.1006027 0.7738022
v -0.05172619 0.07675382 0.783649
v -0.05153515 0.1286951 1.049577
v -0.05351757 0.1734045 1.022364
v -0.00443737 0.1091965 1.061958
v 0.04272877 0.1287091 1.049416
v 0.04486744 0.1735115 1.02219
v -0.004376946 0.1960303 1.008672
v -0.05351757 0.1734045 1.022364
vt 0.003709056 -1.57288
vt 0.003709056 -1.056371
vt 0.1430916 -1.056371
vt 0.1430916 -1.57288
vt 0.2824742 -1.056371
vt 0.2824742 -1.57288
vt 0.4218567 -1.056371
vt 0.4218567 -1.57288
vt 0.5612393 -1.056371
vt 0.5612393 -1.57288
vt 0.7006219 -1.056371
vt 0.7006219 -1.57288
vt 0.8400046 -1.056371
vt 0.8400046 -1.57288
vt 0.1430916 -0.5398617
vt 0.003709056 -0.5398617
vt 0.2824742 -0.5398617
vt 0.4218567 -0.5398617
vt 0.5612393 -0.5398617
vt 0.7006219 -0.5398617
vt 0.8400046 -0.5398617
vt 0.1430916 -0.02335247
vt 0.003709056 -0.02335247
vt 0.2824742 -0.02335247
vt 0.4218567 -0.02335247
vt 0.5612393 -0.02335247
vt 0.7006219 -0.02335247
vt 0.8400046 -0.02335247
vt 0.1430916 0.4931564
vt 0.003709056 0.4931564
vt 0.2824742 0.4931564
vt 0.4218567 0.4931564
vt 0.5612393 0.4931564
vt 0.7006219 0.4931564
vt 0.8400046 0.4931564
vt 0.1430916 1.009665
vt 0.003709056 1.009665
vt 0.2824742 1.009665
vt 0.4218567 1.009665
vt 0.5612393 1.009665
vt 0.7006219 1.009665
vt 0.8400046 1.009665
vt 0.1430916 1.526174
vt 0.003709056 1.526174
vt 0.2824742 1.526174
vt 0.4218567 1.526174
vt 0.5612393 1.526174
vt 0.7006219 1.526174
vt 0.8400046 1.526174
vt 0.1430916 2.042683
vt 0.003709056 2.042683
vt 0.2824742 2.042683
vt 0.4218567 2.042683
vt 0.5612393 2.042683
vt 0.7006219 2.042683
vt 0.8400046 2.042683
vt 0.1430916 2.559193
vt 0.003709056 2.559193
vt 0.2824742 2.559193
vt 0.4218567 2.559193
vt 0.5612393 2.559193
vt 0.7006219 2.559193
vt 0.8400046 2.559193
vn -0.8795193 0.4419281 0.1764804
vn -0.8626368 0.4768831 0.1686424
vn -0.8365767 -0.5134395 -0.1911004
vn -0.8137838 -0.5343578 -0.2285121
vn -0.001427251 -0.9387255 -0.3446627
vn 0.0004658671 -0.9216834 -0.3879427
vn 0.836531 -0.5157098 -0.1850929
vn 0.814825 -0.535459 -0.2221347
vn 0.8627189 0.4743665 0.1751929
vn 0.8804126 0.4377454 0.182353
vn 0.001884675 0.9408071 0.338937
vn 0.00339296 0.9256521 0.3783603
vn -0.8626368 0.4768831 0.1686424
vn -0.8795193 0.4419281 0.1764804
vn -0.8296375 -0.5440435 -0.1253723
vn -0.8665294 0.4887345 0.1013182
vn -0.001441074 -0.9757349 -0.2189504
vn 0.8293954 -0.545765 -0.1193478
vn 0.8666801 0.4870091 0.1081091
vn 0.001591474 0.9773487 0.2116297
vn -0.8665294 0.4887345 0.1013182
vn -0.8295993 -0.5557034 -0.05439546
vn -0.8550596 0.5173988 0.03422826
vn -0.0005959873 -0.9962437 -0.08659165
vn 0.829608 -0.5563116 -0.04762488
vn 0.8552403 0.5165708 0.04145575
vn 0.0008484113 0.9968861 0.07885069
vn -0.8550596 0.5173988 0.03422826
vn -0.8304104 -0.5571364 -0.004219046
vn -0.8486399 0.528962 -0.003055955
vn -4.164297E-05 -0.9999996 -0.000911748
vn 0.8304071 -0.557148 0.003178734
vn 0.8486384 0.5289525 0.004703153
vn 4.225755E-05 0.9999988 0.001584619
vn -0.8486399 0.528962 -0.003055955
vn -0.8291363 -0.5571289 0.04626416
vn -0.8552222 0.516673 -0.04054492
vn 0.000519958 -0.9963894 0.08489992
vn 0.8290507 -0.5566532 0.05302847
vn 0.8550585 0.5174629 -0.0332735
vn -0.0005769266 0.9970921 -0.07620355
vn -0.8552222 0.516673 -0.04054492
vn -0.8301206 -0.5449888 0.1178431
vn -0.8664794 0.4874884 -0.1075561
vn 0.001599012 -0.976138 0.2171452
vn 0.8303 -0.5433579 0.1239519
vn 0.8663692 0.4891351 -0.1007533
vn -0.001233047 0.9776954 -0.210024
vn -0.8664794 0.4874884 -0.1075561
vn -0.8369226 -0.5154088 0.1841583
vn -0.863258 0.4738456 -0.1739421
vn 0.001798373 -0.9393612 0.3429247
vn 0.8370714 -0.512988 0.1901444
vn 0.8630307 0.4765787 -0.1674836
vn -0.001888333 0.9413197 -0.337511
vn -0.863258 0.4738456 -0.1739421
vn -0.8143246 -0.5364204 0.22165
vn -0.8814983 0.4362246 -0.1807458
vn -0.0001092222 -0.9222527 0.3865875
vn 0.8133962 -0.5352038 0.2279114
vn 0.8804905 0.4406263 -0.1748853
vn -0.003602857 0.9263965 -0.3765323
vn -0.8814983 0.4362246 -0.1807458
g m_raft_barrier_rope_01_0
f 3/3/3 2/2/2 1/1/1
f 4/4/4 3/3/3 1/1/1
f 5/5/5 3/3/3 4/4/4
f 6/6/6 5/5/5 4/4/4
f 7/7/7 5/5/5 6/6/6
f 8/8/8 7/7/7 6/6/6
f 9/9/9 7/7/7 8/8/8
f 10/10/10 9/9/9 8/8/8
f 11/11/11 9/9/9 10/10/10
f 12/12/12 11/11/11 10/10/10
f 13/13/13 11/11/11 12/12/12
f 14/14/14 13/13/13 12/12/12
f 3/3/3 15/15/15 2/2/2
f 15/15/15 16/16/16 2/2/2
f 17/17/17 15/15/15 3/3/3
f 5/5/5 17/17/17 3/3/3
f 18/18/18 17/17/17 5/5/5
f 7/7/7 18/18/18 5/5/5
f 19/19/19 18/18/18 7/7/7
f 9/9/9 19/19/19 7/7/7
f 20/20/20 19/19/19 9/9/9
f 11/11/11 20/20/20 9/9/9
f 21/21/21 20/20/20 11/11/11
f 13/13/13 21/21/21 11/11/11
f 15/15/15 22/22/22 16/16/16
f 22/22/22 23/23/23 16/16/16
f 24/24/24 22/22/22 15/15/15
f 17/17/17 24/24/24 15/15/15
f 25/25/25 24/24/24 17/17/17
f 18/18/18 25/25/25 17/17/17
f 26/26/26 25/25/25 18/18/18
f 19/19/19 26/26/26 18/18/18
f 27/27/27 26/26/26 19/19/19
f 20/20/20 27/27/27 19/19/19
f 28/28/28 27/27/27 20/20/20
f 21/21/21 28/28/28 20/20/20
f 22/22/22 29/29/29 23/23/23
f 29/29/29 30/30/30 23/23/23
f 31/31/31 29/29/29 22/22/22
f 24/24/24 31/31/31 22/22/22
f 32/32/32 31/31/31 24/24/24
f 25/25/25 32/32/32 24/24/24
f 33/33/33 32/32/32 25/25/25
f 26/26/26 33/33/33 25/25/25
f 34/34/34 33/33/33 26/26/26
f 27/27/27 34/34/34 26/26/26
f 35/35/35 34/34/34 27/27/27
f 28/28/28 35/35/35 27/27/27
f 29/29/29 36/36/36 30/30/30
f 36/36/36 37/37/37 30/30/30
f 38/38/38 36/36/36 29/29/29
f 31/31/31 38/38/38 29/29/29
f 39/39/39 38/38/38 31/31/31
f 32/32/32 39/39/39 31/31/31
f 40/40/40 39/39/39 32/32/32
f 33/33/33 40/40/40 32/32/32
f 41/41/41 40/40/40 33/33/33
f 34/34/34 41/41/41 33/33/33
f 42/42/42 41/41/41 34/34/34
f 35/35/35 42/42/42 34/34/34
f 36/36/36 43/43/43 37/37/37
f 43/43/43 44/44/44 37/37/37
f 45/45/45 43/43/43 36/36/36
f 38/38/38 45/45/45 36/36/36
f 46/46/46 45/45/45 38/38/38
f 39/39/39 46/46/46 38/38/38
f 47/47/47 46/46/46 39/39/39
f 40/40/40 47/47/47 39/39/39
f 48/48/48 47/47/47 40/40/40
f 41/41/41 48/48/48 40/40/40
f 49/49/49 48/48/48 41/41/41
f 42/42/42 49/49/49 41/41/41
f 43/43/43 50/50/50 44/44/44
f 50/50/50 51/51/51 44/44/44
f 52/52/52 50/50/50 43/43/43
f 45/45/45 52/52/52 43/43/43
f 53/53/53 52/52/52 45/45/45
f 46/46/46 53/53/53 45/45/45
f 54/54/54 53/53/53 46/46/46
f 47/47/47 54/54/54 46/46/46
f 55/55/55 54/54/54 47/47/47
f 48/48/48 55/55/55 47/47/47
f 56/56/56 55/55/55 48/48/48
f 49/49/49 56/56/56 48/48/48
f 50/50/50 57/57/57 51/51/51
f 57/57/57 58/58/58 51/51/51
f 59/59/59 57/57/57 50/50/50
f 52/52/52 59/59/59 50/50/50
f 60/60/60 59/59/59 52/52/52
f 53/53/53 60/60/60 52/52/52
f 61/61/61 60/60/60 53/53/53
f 54/54/54 61/61/61 53/53/53
f 62/62/62 61/61/61 54/54/54
f 55/55/55 62/62/62 54/54/54
f 63/63/63 62/62/62 55/55/55
f 56/56/56 63/63/63 55/55/55
