g m_raft_rock_05
v -3.583435 8.602193 -30.05725
v 2.244751 8.586843 -55.91101
v 4.62915 10.47934 -55.23169
v -1.383545 10.47934 -28.76343
v -2.858337 8.556577 -26.8717
v 4.878723 8.593472 -57.73462
v -2.858337 8.556577 -26.8717
v -6.589966 -10.47934 -27.21924
v -7.314331 -10.47934 -30.34521
v -3.583435 8.602193 -30.05725
v 22.07806 -10.47934 8.703491
v 21.97107 8.618527 4.226074
v 25.11975 8.646871 4.400879
v 25.27655 -10.47934 8.890137
v -1.383545 10.47934 -28.76343
v 23.61713 10.47934 2.371582
v 21.97107 8.618527 4.226074
v -2.858337 8.556577 -26.8717
v 46.3219 10.47934 -20.18005
v 47.68616 8.591878 -18.15149
v 25.11975 8.646871 4.400879
v 37.6936 10.47934 -50.5874
v 40.08905 8.624921 -50.99841
v 48.50482 8.594533 -21.29675
v 4.62915 10.47934 -55.23169
v 2.244751 8.586843 -55.91101
v -0.5328979 -10.47934 -60.41052
v 2.100098 -10.47934 -62.23572
v 4.878723 8.593472 -57.73462
v 40.078 -10.47934 -56.88721
v 37.56995 8.724759 -53.1001
v 42.4884 -10.47934 -54.77478
v 40.08905 8.624921 -50.99841
v 4.878723 8.593472 -57.73462
v 37.56995 8.724759 -53.1001
v 37.6936 10.47934 -50.5874
v 4.62915 10.47934 -55.23169
v 40.08905 8.624921 -50.99841
v 48.50482 8.594533 -21.29675
v 52.23328 -10.47934 -20.35876
v 51.42566 -10.47934 -17.25903
v 47.68616 8.591878 -18.15149
v 42.4884 -10.47934 -54.77478
v 40.08905 8.624921 -50.99841
v 25.11975 8.646871 4.400879
v 25.27655 -10.47934 8.890137
v 2.244751 8.586843 -55.91101
v -3.583435 8.602193 -30.05725
v -7.314331 -10.47934 -30.34521
v -0.5328979 -10.47934 -60.41052
v 48.50482 8.594533 -21.29675
v 47.68616 8.591878 -18.15149
v 46.3219 10.47934 -20.18005
v -23.5174 3.100682 -14.63721
v -3.852051 3.088414 -10.58667
v -5.607544 4.601445 -7.893555
v -24.47455 4.601445 -11.81201
v -2.939575 4.601445 20.68726
v -2.433594 3.093709 -8.61731
v 0.4154663 3.198674 21.59949
v -29.93719 4.601445 22.16309
v -2.029602 2.631978 23.68201
v -28.37823 2.609334 24.99036
v -46.24445 4.601445 6.344482
v -48.91479 2.963399 4.971191
v -26.19843 2.914914 -13.86853
v -32.54724 2.591672 23.87439
v -48.72034 2.632527 8.28186
v -26.19843 2.914914 -13.86853
v -25.992 -10.47934 -16.64026
v -23.35205 -10.47934 -17.46716
v -23.5174 3.100682 -14.63721
v -52.23328 -10.47934 5.112427
v -48.91479 2.963399 4.971191
v -3.852051 3.088414 -10.58667
v -0.4828491 -10.47934 -12.75403
v -48.72034 2.632527 8.28186
v -51.87872 -10.47934 8.451294
v -52.23328 -10.47934 5.112427
v -48.91479 2.963399 4.971191
v -33.12653 -10.47934 26.51855
v -32.54724 2.591672 23.87439
v -28.37823 2.609334 24.99036
v -28.99121 -10.47934 27.63403
v 0.6671143 -10.47934 25.32605
v -2.029602 2.631978 23.68201
v 0.4154663 3.198674 21.59949
v 3.319519 -10.47934 23.44592
v -3.852051 3.088414 -10.58667
v -0.4828491 -10.47934 -12.75403
v 0.9366455 -10.47934 -10.7854
v -2.433594 3.093709 -8.61731
v 3.319519 -10.47934 23.44592
v 0.4154663 3.198674 21.59949
v -6.141113 3.34142 57.40186
v -11.1955 3.190564 41.3147
v -8.793213 5.241811 41.54565
v -3.772278 5.241811 57.04456
v 12.86719 5.241811 39.12158
v 11.37561 5.241811 57.04456
v -4.025452 3.185086 59.42126
v -4.025452 3.185086 59.42126
v -7.013184 -10.47934 62.23572
v -9.163513 -10.47934 60.09119
v -6.141113 3.34142 57.40186
v -11.1955 3.190564 41.3147
v -14.18433 -10.47934 38.49927
v -3.772278 5.241811 57.04456
v 11.37561 5.241811 57.04456
v 11.7453 3.326817 59.39197
v -4.025452 3.185086 59.42126
v 11.37561 5.241811 57.04456
v 12.86719 5.241811 39.12158
v 15.27924 3.190564 38.88086
v 13.74432 3.34142 57.40186
v 11.7453 3.326817 59.39197
v 13.74432 3.34142 57.40186
v 16.76666 -10.47934 60.09119
v 14.61639 -10.47934 62.23572
v 11.7453 3.326817 59.39197
v 18.26801 -10.47934 36.06543
v 15.27924 3.190564 38.88086
v -11.1955 3.190564 41.3147
v -14.18433 -10.47934 38.49927
v -12.034 -10.47934 36.35449
v -9.046265 3.185086 39.16882
v 16.11786 -10.47934 33.9209
v 13.13013 3.185086 36.73523
v 18.26801 -10.47934 36.06543
v 15.27924 3.190564 38.88086
v -9.046265 3.185086 39.16882
v 13.13013 3.185086 36.73523
v 12.86719 5.241811 39.12158
v -8.793213 5.241811 41.54565
v -11.1955 3.190564 41.3147
v 15.27924 3.190564 38.88086
v -4.025452 3.185086 59.42126
v 11.7453 3.326817 59.39197
v 14.61639 -10.47934 62.23572
v -7.013184 -10.47934 62.23572
vt 0.06500244 0.8618164
vt 0.08013916 0.840332
vt 0.07739258 0.8388672
vt 0.06222534 0.8603516
vt 0.06204224 0.8637695
vt 0.07977295 0.8369141
vt 0.5058594 0.3310547
vt 0.5209961 0.3195801
vt 0.5195313 0.3168945
vt 0.5039063 0.3283691
vt 0.5429688 0.3588867
vt 0.5249023 0.3649902
vt 0.5258789 0.3679199
vt 0.5439453 0.3618164
vt 0.06222534 0.8603516
vt 0.02320862 0.8613281
vt 0.02243042 0.8642578
vt 0.06204224 0.8637695
vt 0.0249939 0.8300781
vt 0.02197266 0.8300781
vt 0.02020264 0.8618164
vt 0.05300903 0.8173828
vt 0.05184937 0.8144531
vt 0.02386475 0.8271484
vt 0.07739258 0.8388672
vt 0.5195313 0.4694824
vt 0.5371094 0.4777832
vt 0.5385742 0.4750977
vt 0.5209961 0.4665527
vt 0.5488281 0.4389648
vt 0.5297852 0.4355469
vt 0.5493164 0.435791
vt 0.5302734 0.432373
vt 0.07977295 0.8369141
vt 0.05514526 0.8149414
vt 0.05300903 0.8173828
vt 0.07739258 0.8388672
vt 0.05184937 0.8144531
vt 0.53125 0.4020996
vt 0.550293 0.4006348
vt 0.550293 0.3977051
vt 0.53125 0.3989258
vt 0.5493164 0.435791
vt 0.5302734 0.432373
vt 0.5258789 0.3679199
vt 0.5439453 0.3618164
vt 0.5195313 0.4694824
vt 0.5039063 0.4902344
vt 0.519043 0.5019531
vt 0.5371094 0.4777832
vt 0.02386475 0.8271484
vt 0.02197266 0.8300781
vt 0.0249939 0.8300781
vt 0.84375 0.08557129
vt 0.8242188 0.09008789
vt 0.8261719 0.09295654
vt 0.8447266 0.08868408
vt 0.8242188 0.1210938
vt 0.8227539 0.09210205
vt 0.8203125 0.1222534
vt 0.8505859 0.1221313
vt 0.8227539 0.1245728
vt 0.8491211 0.1256104
vt 0.8662109 0.1063843
vt 0.8691406 0.1050415
vt 0.8466797 0.08618164
vt 0.8535156 0.1243896
vt 0.8691406 0.1083984
vt 0.3635254 0.4702148
vt 0.3759766 0.4753418
vt 0.3771973 0.4729004
vt 0.3647461 0.4675293
vt 0.3591309 0.5039063
vt 0.348877 0.4951172
vt 0.371582 0.4492188
vt 0.3852539 0.451416
vt 0.3530273 0.3659668
vt 0.3635254 0.3579102
vt 0.3615723 0.3554688
vt 0.3508301 0.3635254
vt 0.3752441 0.3806152
vt 0.3630371 0.385498
vt 0.3647461 0.3894043
vt 0.3769531 0.3845215
vt 0.3857422 0.4123535
vt 0.3728027 0.4140625
vt 0.3728027 0.4172363
vt 0.3864746 0.4155273
vt 0.371582 0.4492188
vt 0.3852539 0.451416
vt 0.3857422 0.4489746
vt 0.3720703 0.4467773
vt 0.3864746 0.4155273
vt 0.3728027 0.4172363
vt 0.4807129 0.5351563
vt 0.4975586 0.5395508
vt 0.4968262 0.5366211
vt 0.4814453 0.5322266
vt 0.4990234 0.5151367
vt 0.4814453 0.5170898
vt 0.4785156 0.5327148
vt 0.1401367 0.5483398
vt 0.1467285 0.5610352
vt 0.1494141 0.5595703
vt 0.1425781 0.546875
vt 0.15625 0.5375977
vt 0.1668701 0.546875
vt 0.4814453 0.5322266
vt 0.4814453 0.5170898
vt 0.4785156 0.5166016
vt 0.4785156 0.5327148
vt 0.4814453 0.5170898
vt 0.4990234 0.5151367
vt 0.4997559 0.512207
vt 0.4807129 0.5141602
vt 0.4785156 0.5166016
vt 0.1224976 0.5527344
vt 0.1234131 0.5668945
vt 0.1263428 0.5668945
vt 0.1252441 0.5527344
vt 0.09997559 0.5644531
vt 0.1043701 0.5512695
vt 0.08068848 0.5366211
vt 0.07122803 0.546875
vt 0.07348633 0.5493164
vt 0.08288574 0.5385742
vt 0.09710693 0.5634766
vt 0.1015015 0.550293
vt 0.09997559 0.5644531
vt 0.1043701 0.5512695
vt 0.5 0.5371094
vt 0.5019531 0.5146484
vt 0.4990234 0.5151367
vt 0.4968262 0.5366211
vt 0.4975586 0.5395508
vt 0.4997559 0.512207
vt 0.1401367 0.5483398
vt 0.1252441 0.5527344
vt 0.1263428 0.5668945
vt 0.1467285 0.5610352
vn -0.9440429 0.2816763 -0.1715851
vn -0.9240258 0.2733648 -0.267298
vn -0.06825401 0.9908048 -0.1168219
vn -0.09788727 0.9946344 0.03347563
vn -0.7757514 0.2320942 0.5868067
vn 0.08598326 0.2895361 -0.9532973
vn -0.7757514 0.2320942 0.5868067
vn -0.794108 0.1449194 0.5902464
vn -0.9659601 0.1914736 -0.1739509
vn -0.9440429 0.2816763 -0.1715851
vn -0.7343733 0.1510204 0.6617317
vn -0.7338164 0.2215267 0.6422144
vn 0.6439936 0.250923 0.72271
vn 0.644723 0.1796626 0.7430031
vn -0.09788727 0.9946344 0.03347563
vn -0.02404816 0.9919132 0.1246192
vn -0.7338164 0.2215267 0.6422144
vn -0.7757514 0.2320942 0.5868067
vn 0.08872977 0.995773 0.02373083
vn 0.709031 0.2591408 0.6558362
vn 0.6439936 0.250923 0.72271
vn 0.06704476 0.9948302 -0.07627519
vn 0.9171646 0.2585536 -0.3032474
vn 0.9386947 0.2610076 -0.2252274
vn -0.06825401 0.9908048 -0.1168219
vn -0.9240258 0.2733648 -0.267298
vn -0.9348026 0.2046876 -0.2902536
vn 0.075133 0.2187095 -0.9728932
vn 0.08598326 0.2895361 -0.9532973
vn 0.1821776 0.2129139 -0.959937
vn 0.1715882 0.2961202 -0.9396118
vn 0.9300029 0.1802571 -0.3203153
vn 0.9171646 0.2585536 -0.3032474
vn 0.08598326 0.2895361 -0.9532973
vn 0.1715882 0.2961202 -0.9396118
vn 0.06704476 0.9948302 -0.07627519
vn -0.06825401 0.9908048 -0.1168219
vn 0.9171646 0.2585536 -0.3032474
vn 0.9386947 0.2610076 -0.2252274
vn 0.9588239 0.1764879 -0.2225059
vn 0.7281088 0.1738106 0.6630591
vn 0.709031 0.2591408 0.6558362
vn 0.9300029 0.1802571 -0.3203153
vn 0.9171646 0.2585536 -0.3032474
vn 0.6439936 0.250923 0.72271
vn 0.644723 0.1796626 0.7430031
vn -0.9240258 0.2733648 -0.267298
vn -0.9440429 0.2816763 -0.1715851
vn -0.9659601 0.1914736 -0.1739509
vn -0.9348026 0.2046876 -0.2902536
vn 0.9386947 0.2610076 -0.2252274
vn 0.709031 0.2591408 0.6558362
vn 0.08872977 0.995773 0.02373083
vn 0.1419322 0.344028 -0.9281703
vn 0.2473229 0.3159664 -0.9159676
vn 0.1091204 0.990701 -0.08126703
vn -0.04040904 0.9938459 -0.1031379
vn 0.09306275 0.9912137 0.09399385
vn 0.9268576 0.3597563 -0.1072866
vn 0.9379588 0.3464791 -0.01362433
vn -0.03670618 0.9942943 0.1001564
vn 0.1098657 0.2913953 0.9502728
vn 0.02358499 0.3328832 0.942673
vn -0.1524012 0.9880905 -0.02123468
vn -0.6647951 0.2603717 -0.7001815
vn -0.5930203 0.2766912 -0.7561539
vn -0.6109631 0.3259847 0.7214277
vn -0.7083361 0.3103776 0.6339761
vn -0.5930203 0.2766912 -0.7561539
vn -0.6032267 0.1527878 -0.7827985
vn 0.1459562 0.2034122 -0.968153
vn 0.1419322 0.344028 -0.9281703
vn -0.695691 0.1640975 -0.699347
vn -0.6647951 0.2603717 -0.7001815
vn 0.2473229 0.3159664 -0.9159676
vn 0.2726628 0.217412 -0.9372231
vn -0.7083361 0.3103776 0.6339761
vn -0.742953 0.1876599 0.6424987
vn -0.695691 0.1640975 -0.699347
vn -0.6647951 0.2603717 -0.7001815
vn -0.6243843 0.1814007 0.7597619
vn -0.6109631 0.3259847 0.7214277
vn 0.02358499 0.3328832 0.942673
vn 0.0198434 0.172201 0.984862
vn 0.1313411 0.1764423 0.9755089
vn 0.1098657 0.2913953 0.9502728
vn 0.9379588 0.3464791 -0.01362433
vn 0.9723776 0.2334118 0.0008832412
vn 0.2473229 0.3159664 -0.9159676
vn 0.2726628 0.217412 -0.9372231
vn 0.9658402 0.2312112 -0.1170218
vn 0.9268576 0.3597563 -0.1072866
vn 0.9723776 0.2334118 0.0008832412
vn 0.9379588 0.3464791 -0.01362433
vn -0.9019426 0.3056611 0.3050753
vn -0.9444267 0.2918412 0.1512848
vn -0.1170734 0.9887695 -0.0928903
vn -0.06672727 0.9932549 0.09482658
vn 0.09153534 0.9878103 -0.1259061
vn 0.09194158 0.9917434 0.08939686
vn -0.08200282 0.2937753 0.9523505
vn -0.08200282 0.2937753 0.9523505
vn -0.1097454 0.2228616 0.968653
vn -0.9209681 0.2207353 0.3210821
vn -0.9019426 0.3056611 0.3050753
vn -0.9444267 0.2918412 0.1512848
vn -0.9657042 0.2335362 0.1134727
vn -0.06672727 0.9932549 0.09482658
vn 0.09194158 0.9917434 0.08939686
vn 0.08178659 0.293788 0.9523652
vn -0.08200282 0.2937753 0.9523505
vn 0.09194158 0.9917434 0.08939686
vn 0.09153534 0.9878103 -0.1259061
vn 0.952517 0.3042596 -0.01171956
vn 0.9418344 0.3075829 0.135428
vn 0.08178659 0.293788 0.9523652
vn 0.9418344 0.3075829 0.135428
vn 0.9610412 0.2283076 0.1558055
vn 0.1095254 0.2222856 0.9688102
vn 0.08178659 0.293788 0.9523652
vn 0.9717103 0.2329144 -0.03911443
vn 0.952517 0.3042596 -0.01171956
vn -0.9444267 0.2918412 0.1512848
vn -0.9657042 0.2335362 0.1134727
vn -0.170232 0.2166949 -0.9612827
vn -0.149149 0.2984225 -0.9427081
vn 0.00313761 0.2203257 -0.9754214
vn -0.02452437 0.2921555 -0.9560564
vn 0.9717103 0.2329144 -0.03911443
vn 0.952517 0.3042596 -0.01171956
vn -0.149149 0.2984225 -0.9427081
vn -0.02452437 0.2921555 -0.9560564
vn 0.09153534 0.9878103 -0.1259061
vn -0.1170734 0.9887695 -0.0928903
vn -0.9444267 0.2918412 0.1512848
vn 0.952517 0.3042596 -0.01171956
vn -0.08200282 0.2937753 0.9523505
vn 0.08178659 0.293788 0.9523652
vn 0.1095254 0.2222856 0.9688102
vn -0.1097454 0.2228616 0.968653
g m_raft_rock_05_0
f 3/3/3 2/2/2 1/1/1
f 4/4/4 3/3/3 1/1/1
f 5/5/5 4/4/4 1/1/1
f 3/3/3 6/6/6 2/2/2
f 9/9/9 8/8/8 7/7/7
f 10/10/10 9/9/9 7/7/7
f 8/8/8 11/11/11 7/7/7
f 11/11/11 12/12/12 7/7/7
f 12/12/12 11/11/11 13/13/13
f 11/11/11 14/14/14 13/13/13
f 17/17/17 16/16/16 15/15/15
f 18/18/18 17/17/17 15/15/15
f 19/19/19 15/15/15 16/16/16
f 20/20/20 19/19/19 16/16/16
f 21/21/21 20/20/20 16/16/16
f 16/16/16 17/17/17 21/21/21
f 22/22/22 15/15/15 19/19/19
f 22/22/22 19/19/19 23/23/23
f 19/19/19 24/24/24 23/23/23
f 22/22/22 25/25/25 15/15/15
f 28/28/28 27/27/27 26/26/26
f 29/29/29 28/28/28 26/26/26
f 30/30/30 28/28/28 29/29/29
f 31/31/31 30/30/30 29/29/29
f 32/32/32 30/30/30 31/31/31
f 33/33/33 32/32/32 31/31/31
f 36/36/36 35/35/35 34/34/34
f 37/37/37 36/36/36 34/34/34
f 35/35/35 36/36/36 38/38/38
f 41/41/41 40/40/40 39/39/39
f 42/42/42 41/41/41 39/39/39
f 40/40/40 43/43/43 39/39/39
f 43/43/43 44/44/44 39/39/39
f 41/41/41 42/42/42 45/45/45
f 46/46/46 41/41/41 45/45/45
f 49/49/49 48/48/48 47/47/47
f 50/50/50 49/49/49 47/47/47
f 53/53/53 52/52/52 51/51/51
f 56/56/56 55/55/55 54/54/54
f 57/57/57 56/56/56 54/54/54
f 58/58/58 56/56/56 57/57/57
f 56/56/56 58/58/58 59/59/59
f 56/56/56 59/59/59 55/55/55
f 58/58/58 60/60/60 59/59/59
f 58/58/58 57/57/57 61/61/61
f 58/58/58 61/61/61 62/62/62
f 60/60/60 58/58/58 62/62/62
f 61/61/61 63/63/63 62/62/62
f 61/61/61 57/57/57 64/64/64
f 65/65/65 64/64/64 57/57/57
f 66/66/66 65/65/65 57/57/57
f 66/66/66 57/57/57 54/54/54
f 67/67/67 61/61/61 64/64/64
f 61/61/61 67/67/67 63/63/63
f 68/68/68 67/67/67 64/64/64
f 64/64/64 65/65/65 68/68/68
f 71/71/71 70/70/70 69/69/69
f 72/72/72 71/71/71 69/69/69
f 70/70/70 73/73/73 69/69/69
f 73/73/73 74/74/74 69/69/69
f 71/71/71 72/72/72 75/75/75
f 76/76/76 71/71/71 75/75/75
f 79/79/79 78/78/78 77/77/77
f 80/80/80 79/79/79 77/77/77
f 78/78/78 81/81/81 77/77/77
f 81/81/81 82/82/82 77/77/77
f 82/82/82 81/81/81 83/83/83
f 81/81/81 84/84/84 83/83/83
f 84/84/84 85/85/85 83/83/83
f 85/85/85 86/86/86 83/83/83
f 86/86/86 85/85/85 87/87/87
f 85/85/85 88/88/88 87/87/87
f 91/91/91 90/90/90 89/89/89
f 92/92/92 91/91/91 89/89/89
f 93/93/93 91/91/91 92/92/92
f 94/94/94 93/93/93 92/92/92
f 97/97/97 96/96/96 95/95/95
f 98/98/98 97/97/97 95/95/95
f 99/99/99 97/97/97 98/98/98
f 100/100/100 99/99/99 98/98/98
f 101/101/101 98/98/98 95/95/95
f 104/104/104 103/103/103 102/102/102
f 105/105/105 104/104/104 102/102/102
f 104/104/104 105/105/105 106/106/106
f 107/107/107 104/104/104 106/106/106
f 110/110/110 109/109/109 108/108/108
f 111/111/111 110/110/110 108/108/108
f 114/114/114 113/113/113 112/112/112
f 115/115/115 114/114/114 112/112/112
f 116/116/116 115/115/115 112/112/112
f 119/119/119 118/118/118 117/117/117
f 120/120/120 119/119/119 117/117/117
f 118/118/118 121/121/121 117/117/117
f 121/121/121 122/122/122 117/117/117
f 125/125/125 124/124/124 123/123/123
f 126/126/126 125/125/125 123/123/123
f 127/127/127 125/125/125 126/126/126
f 128/128/128 127/127/127 126/126/126
f 129/129/129 127/127/127 128/128/128
f 130/130/130 129/129/129 128/128/128
f 133/133/133 132/132/132 131/131/131
f 134/134/134 133/133/133 131/131/131
f 134/134/134 131/131/131 135/135/135
f 133/133/133 136/136/136 132/132/132
f 139/139/139 138/138/138 137/137/137
f 140/140/140 139/139/139 137/137/137
