g m_sk_switch_pad_01
v 0.3962794 0.5625041 -0.08423162
v 0.3962794 0.6807463 -0.08423162
v 0.370107 0.6807463 -0.1647821
v 0.370107 0.5625041 -0.1647821
v 0.3277592 0.6807463 -0.2381307
v 0.3277592 0.5625041 -0.2381307
v 0.3277592 0.5625041 -0.2381307
v 0.3277592 0.6807463 -0.2381307
v 0.2710866 0.6807463 -0.3010719
v 0.2710866 0.5625041 -0.3010719
v 0.2025664 0.6807463 -0.3508549
v 0.2025664 0.5625041 -0.3508549
v 0.1251929 0.6807463 -0.3853037
v 0.1251929 0.5625041 -0.3853037
v 0.04234801 0.6807463 -0.4029129
v 0.04234801 0.5625041 -0.4029129
v -0.04234773 0.6807463 -0.4029129
v -0.04234773 0.5625041 -0.4029129
v -0.1251927 0.6807463 -0.3853037
v -0.1251927 0.5625041 -0.3853037
v -0.202566 0.6807463 -0.3508549
v -0.202566 0.5625041 -0.3508549
v -0.2710863 0.6807463 -0.3010719
v -0.2710863 0.5625041 -0.3010719
v -0.2710863 0.5625041 -0.3010719
v -0.2710863 0.6807463 -0.3010719
v -0.3277588 0.6807463 -0.2381307
v -0.3277588 0.5625041 -0.2381307
v -0.3701066 0.6807463 -0.1647821
v -0.3701066 0.5625041 -0.1647821
v -0.3962791 0.6807463 -0.08423169
v -0.3962791 0.5625041 -0.08423169
v -0.4051322 0.6807463 5.229127E-08
v -0.4051322 0.5625041 5.229127E-08
v -0.396279 0.6807463 0.08423179
v -0.396279 0.5625041 0.08423179
v -0.396279 0.5625041 0.08423179
v -0.396279 0.6807463 0.08423179
v -0.3701066 0.6807463 0.1647822
v -0.3701066 0.5625041 0.1647822
v -0.3277588 0.6807463 0.2381308
v -0.3277588 0.5625041 0.2381308
v -0.2710863 0.6807463 0.301072
v -0.2710863 0.5625041 0.301072
v -0.202566 0.6807463 0.3508549
v -0.202566 0.5625041 0.3508549
v -0.1251927 0.6807463 0.3853037
v -0.1251927 0.5625041 0.3853037
v -0.0423478 0.6807463 0.4029129
v -0.0423478 0.5625041 0.4029129
v -0.0423478 0.5625041 0.4029129
v -0.0423478 0.6807463 0.4029129
v 0.04234789 0.6807463 0.4029129
v 0.04234789 0.5625041 0.4029129
v 0.1251927 0.6807463 0.3853037
v 0.1251927 0.5625041 0.3853037
v 0.2025662 0.6807463 0.3508548
v 0.2025662 0.5625041 0.3508548
v 0.2710864 0.6807463 0.301072
v 0.2710864 0.5625041 0.301072
v 0.3277588 0.6807463 0.2381308
v 0.3277588 0.5625041 0.2381308
v 0.3701066 0.6807463 0.1647822
v 0.3701066 0.5625041 0.1647822
v 0.3962791 0.6807463 0.08423179
v 0.3701066 0.5625041 0.1647822
v 0.3962791 0.6807463 0.08423179
v 0.3962791 0.5625041 0.08423179
v 0.4051322 0.6807463 8.85129E-08
v 0.4051322 0.5625041 8.85129E-08
v 0.3962794 0.6807463 -0.08423162
v 0.3962794 0.5625041 -0.08423162
v 0.3743252 0.7045487 -0.07956509
v 1.055349E-07 0.7045481 1.20287E-07
v 0.3496028 0.7045487 -0.155653
v 0.309601 0.7045487 -0.224938
v 0.2560683 0.7045487 -0.2843923
v 0.191344 0.7045487 -0.3314171
v 0.1182572 0.7045487 -0.3639575
v 0.04000193 0.7045487 -0.3805912
v -0.0400016 0.7045487 -0.3805912
v -0.1182568 0.7045487 -0.3639576
v -0.1913437 0.7045487 -0.3314172
v -0.2560679 0.7045487 -0.2843923
v -0.3096007 0.7045487 -0.224938
v -0.3496024 0.7045487 -0.155653
v -0.3743248 0.7045487 -0.07956515
v -0.3826875 0.7045487 8.607211E-08
v -0.3743248 0.7045487 0.0795653
v -0.3496024 0.7045487 0.1556532
v 0.362141 0.6960079 -0.1612354
v 0.3877501 0.6960079 -0.08241864
v 0.3207046 0.6960079 -0.2330053
v 0.2652519 0.6960079 -0.2945918
v 0.1982064 0.6960079 -0.3433032
v 0.1224984 0.6960079 -0.3770106
v 0.04143655 0.6960079 -0.3942408
v -0.04143624 0.6960079 -0.3942408
v -0.1224981 0.6960079 -0.3770107
v -0.1982061 0.6960079 -0.3433032
v -0.2652516 0.6960079 -0.2945918
v -0.3207043 0.6960079 -0.2330053
v -0.3621406 0.6960079 -0.1612354
v -0.3877497 0.6960079 -0.08241871
v -0.3964123 0.6960079 6.895793E-08
v -0.3877497 0.6960079 0.08241883
v -0.3621407 0.6960079 0.1612355
v -0.3096007 0.7045487 0.2249382
v -0.2560679 0.7045487 0.2843923
v -0.1913437 0.7045487 0.3314173
v -0.1182569 0.7045487 0.3639576
v -0.04000166 0.7045487 0.3805912
v 0.04000182 0.7045487 0.3805912
v 0.118257 0.7045487 0.3639576
v 0.1913439 0.7045487 0.3314172
v 0.256068 0.7045487 0.2843923
v 0.3096007 0.7045487 0.2249382
v 0.3496025 0.7045487 0.1556532
v 0.3743249 0.7045487 0.0795653
v 0.3826875 0.7045487 1.20287E-07
v -0.3207043 0.6960079 0.2330054
v -0.2652516 0.6960079 0.2945918
v -0.1982061 0.6960079 0.3433033
v -0.1224981 0.6960079 0.3770106
v -0.04143631 0.6960079 0.3942409
v 0.04143643 0.6960079 0.3942409
v 0.1224982 0.6960079 0.3770106
v 0.1982062 0.6960079 0.3433032
v 0.2652516 0.6960079 0.2945918
v 0.3207043 0.6960079 0.2330054
v 0.3621407 0.6960079 0.1612355
v 0.3877497 0.6960079 0.08241882
v 0.3964123 0.6960079 1.044E-07
v 0.3962794 0.6807463 -0.08423162
v 0.3877501 0.6960079 -0.08241864
v 0.362141 0.6960079 -0.1612354
v 0.370107 0.6807463 -0.1647821
v 0.3207046 0.6960079 -0.2330053
v 0.3277592 0.6807463 -0.2381307
v 0.2652519 0.6960079 -0.2945918
v 0.2710866 0.6807463 -0.3010719
v 0.4051322 0.6807463 8.85129E-08
v 0.3964123 0.6960079 1.044E-07
v 0.2710866 0.6807463 -0.3010719
v 0.2652519 0.6960079 -0.2945918
v 0.1982064 0.6960079 -0.3433032
v 0.2025664 0.6807463 -0.3508549
v 0.1224984 0.6960079 -0.3770106
v 0.1251929 0.6807463 -0.3853037
v 0.04143655 0.6960079 -0.3942408
v 0.04234801 0.6807463 -0.4029129
v -0.04143624 0.6960079 -0.3942408
v -0.04234773 0.6807463 -0.4029129
v -0.1224981 0.6960079 -0.3770107
v -0.1251927 0.6807463 -0.3853037
v -0.1982061 0.6960079 -0.3433032
v -0.202566 0.6807463 -0.3508549
v -0.2652516 0.6960079 -0.2945918
v -0.2710863 0.6807463 -0.3010719
v -0.3207043 0.6960079 -0.2330053
v -0.2710863 0.6807463 -0.3010719
v -0.3207043 0.6960079 -0.2330053
v -0.3277588 0.6807463 -0.2381307
v -0.3621406 0.6960079 -0.1612354
v -0.3701066 0.6807463 -0.1647821
v -0.3877497 0.6960079 -0.08241871
v -0.3962791 0.6807463 -0.08423169
v -0.3964123 0.6960079 6.895793E-08
v -0.4051322 0.6807463 5.229127E-08
v -0.3877497 0.6960079 0.08241883
v -0.396279 0.6807463 0.08423179
v -0.3621407 0.6960079 0.1612355
v -0.3701066 0.6807463 0.1647822
v -0.3207043 0.6960079 0.2330054
v -0.3277588 0.6807463 0.2381308
v -0.3277588 0.6807463 0.2381308
v -0.3207043 0.6960079 0.2330054
v -0.2652516 0.6960079 0.2945918
v -0.2710863 0.6807463 0.301072
v -0.1982061 0.6960079 0.3433033
v -0.202566 0.6807463 0.3508549
v -0.1224981 0.6960079 0.3770106
v -0.1251927 0.6807463 0.3853037
v -0.04143631 0.6960079 0.3942409
v -0.0423478 0.6807463 0.4029129
v -0.0423478 0.6807463 0.4029129
v -0.04143631 0.6960079 0.3942409
v 0.04143643 0.6960079 0.3942409
v 0.04234789 0.6807463 0.4029129
v 0.1224982 0.6960079 0.3770106
v 0.1251927 0.6807463 0.3853037
v 0.1982062 0.6960079 0.3433032
v 0.2025662 0.6807463 0.3508548
v 0.2652516 0.6960079 0.2945918
v 0.2710864 0.6807463 0.301072
v 0.3207043 0.6960079 0.2330054
v 0.3277588 0.6807463 0.2381308
v 0.3621407 0.6960079 0.1612355
v 0.3701066 0.6807463 0.1647822
v 0.3877497 0.6960079 0.08241882
v 0.3962791 0.6807463 0.08423179
v 0.3964123 0.6960079 1.044E-07
v 0.4051322 0.6807463 8.85129E-08
vt 0.9624023 0.8354492
vt 0.9624023 0.8085938
vt 0.9379883 0.8085938
vt 0.9379883 0.8354492
vt 0.9135742 0.8085938
vt 0.9135742 0.8354492
vt 0.9135742 0.8354492
vt 0.9135742 0.8085938
vt 0.8891602 0.8085938
vt 0.8891602 0.8354492
vt 0.8642578 0.8085938
vt 0.8642578 0.8354492
vt 0.8398438 0.8085938
vt 0.8398438 0.8354492
vt 0.8154297 0.8085938
vt 0.8154297 0.8354492
vt 0.7905273 0.8085938
vt 0.7905273 0.8354492
vt 0.7661133 0.8085938
vt 0.7661133 0.8354492
vt 0.7416992 0.8085938
vt 0.7416992 0.8354492
vt 0.7167969 0.8085938
vt 0.7167969 0.8354492
vt 0.7167969 0.8354492
vt 0.7167969 0.8085938
vt 0.6923828 0.8085938
vt 0.6923828 0.8354492
vt 0.6679688 0.8085938
vt 0.6679688 0.8354492
vt 0.6435547 0.8085938
vt 0.6435547 0.8354492
vt 0.6186523 0.8085938
vt 0.6186523 0.8354492
vt 0.5942383 0.8085938
vt 0.5942383 0.8354492
vt 0.9648438 0.7700195
vt 0.9648438 0.7431641
vt 0.9404297 0.7431641
vt 0.9404297 0.7700195
vt 0.9160156 0.7431641
vt 0.9160156 0.7700195
vt 0.8916016 0.7431641
vt 0.8916016 0.7700195
vt 0.8666992 0.7431641
vt 0.8666992 0.7700195
vt 0.8422852 0.7431641
vt 0.8422852 0.7700195
vt 0.8178711 0.7431641
vt 0.8178711 0.7700195
vt 0.8178711 0.7700195
vt 0.8178711 0.7431641
vt 0.7929688 0.7431641
vt 0.7929688 0.7700195
vt 0.7685547 0.7431641
vt 0.7685547 0.7700195
vt 0.7441406 0.7431641
vt 0.7441406 0.7700195
vt 0.7192383 0.7431641
vt 0.7192383 0.7700195
vt 0.6948242 0.7431641
vt 0.6948242 0.7700195
vt 0.6704102 0.7431641
vt 0.6704102 0.7700195
vt 0.6459961 0.7431641
vt 0.6704102 0.7700195
vt 0.6459961 0.7431641
vt 0.6459961 0.7700195
vt 0.6210938 0.7431641
vt 0.6210938 0.7700195
vt 0.5966797 0.7431641
vt 0.5966797 0.7700195
vt 0.9614258 0.5766602
vt 0.8769531 0.6113281
vt 0.9667969 0.5947266
vt 0.9682617 0.6137695
vt 0.9658203 0.6328125
vt 0.9594727 0.6508789
vt 0.9492188 0.6669922
vt 0.9360352 0.6811523
vt 0.9204102 0.6918945
vt 0.902832 0.6992188
vt 0.8837891 0.7026367
vt 0.8647461 0.7021484
vt 0.8461914 0.6972656
vt 0.8291016 0.6889648
vt 0.8139648 0.6772461
vt 0.8012695 0.6630859
vt 0.7924805 0.6459961
vt 0.7871094 0.6274414
vt 0.9707031 0.5942383
vt 0.965332 0.5751953
vt 0.972168 0.6142578
vt 0.9697266 0.6337891
vt 0.9628906 0.652832
vt 0.9526367 0.6694336
vt 0.9384766 0.684082
vt 0.9223633 0.6953125
vt 0.9038086 0.7026367
vt 0.8842773 0.706543
vt 0.8642578 0.7055664
vt 0.8447266 0.7011719
vt 0.8266602 0.6923828
vt 0.8110352 0.6801758
vt 0.7983398 0.6650391
vt 0.7885742 0.6474609
vt 0.7832031 0.628418
vt 0.7856445 0.6083984
vt 0.7880859 0.5898438
vt 0.7944336 0.5717773
vt 0.8046875 0.5551758
vt 0.8178711 0.5415039
vt 0.8334961 0.5307617
vt 0.8510742 0.5234375
vt 0.8701172 0.5200195
vt 0.8891602 0.5205078
vt 0.9077148 0.5249023
vt 0.9248047 0.5332031
vt 0.9399414 0.5449219
vt 0.9526367 0.5595703
vt 0.7817383 0.6083984
vt 0.7841797 0.5888672
vt 0.7910156 0.5698242
vt 0.8012695 0.5527344
vt 0.8154297 0.5385742
vt 0.831543 0.5273438
vt 0.8500977 0.5195313
vt 0.8696289 0.5161133
vt 0.8896484 0.5166016
vt 0.9091797 0.5214844
vt 0.9272461 0.5302734
vt 0.9428711 0.5424805
vt 0.9555664 0.5576172
vt 0.9692383 0.5732422
vt 0.965332 0.5751953
vt 0.9707031 0.5942383
vt 0.9750977 0.5932617
vt 0.972168 0.6142578
vt 0.9765625 0.6142578
vt 0.9697266 0.6337891
vt 0.9736328 0.6347656
vt 0.9589844 0.5551758
vt 0.9555664 0.5576172
vt 0.9736328 0.6347656
vt 0.9697266 0.6337891
vt 0.9628906 0.652832
vt 0.9667969 0.6542969
vt 0.9526367 0.6694336
vt 0.9555664 0.6723633
vt 0.9384766 0.684082
vt 0.9414063 0.6870117
vt 0.9223633 0.6953125
vt 0.9243164 0.6987305
vt 0.9038086 0.7026367
vt 0.9047852 0.7070313
vt 0.8842773 0.706543
vt 0.8842773 0.7104492
vt 0.8642578 0.7055664
vt 0.8637695 0.7099609
vt 0.8447266 0.7011719
vt 0.8637695 0.7099609
vt 0.8447266 0.7011719
vt 0.8432617 0.7050781
vt 0.8266602 0.6923828
vt 0.824707 0.6958008
vt 0.8110352 0.6801758
vt 0.8081055 0.6831055
vt 0.7983398 0.6650391
vt 0.7949219 0.6674805
vt 0.7885742 0.6474609
vt 0.784668 0.6489258
vt 0.7832031 0.628418
vt 0.7788086 0.6289063
vt 0.7817383 0.6083984
vt 0.7773438 0.6083984
vt 0.7773438 0.6083984
vt 0.7817383 0.6083984
vt 0.7841797 0.5888672
vt 0.7802734 0.5878906
vt 0.7910156 0.5698242
vt 0.7871094 0.5678711
vt 0.8012695 0.5527344
vt 0.7983398 0.550293
vt 0.8154297 0.5385742
vt 0.8125 0.5351563
vt 0.8125 0.5351563
vt 0.8154297 0.5385742
vt 0.831543 0.5273438
vt 0.8295898 0.5234375
vt 0.8500977 0.5195313
vt 0.8491211 0.515625
vt 0.8696289 0.5161133
vt 0.8696289 0.5117188
vt 0.8896484 0.5166016
vt 0.8901367 0.5126953
vt 0.9091797 0.5214844
vt 0.9106445 0.5175781
vt 0.9272461 0.5302734
vt 0.9291992 0.5263672
vt 0.9428711 0.5424805
vt 0.9458008 0.5390625
vt 0.9555664 0.5576172
vt 0.9589844 0.5551758
vn 0.9781481 0 -0.2079095
vn 0.9762256 0.06266659 -0.2075009
vn 0.91175 0.06266685 -0.405937
vn 0.9135456 0 -0.4067364
vn 0.8074267 0.06266699 -0.58663
vn 0.8090169 0 -0.5877854
vn 0.8090169 0 -0.5877854
vn 0.8074267 0.06266699 -0.58663
vn 0.6678154 0.06266694 -0.7416841
vn 0.6691306 0 -0.7431449
vn 0.4990172 0.06266696 -0.8643233
vn 0.5 0 -0.8660254
vn 0.3084094 0.06266695 -0.9491872
vn 0.3090169 0 -0.9510565
vn 0.1043231 0.06266695 -0.9925672
vn 0.1045287 0 -0.9945219
vn -0.1043228 0.06266683 -0.9925672
vn -0.1045284 0 -0.9945219
vn -0.3084094 0.0626669 -0.9491873
vn -0.3090168 0 -0.9510565
vn -0.4990177 0.06266714 -0.864323
vn -0.5000004 0 -0.8660253
vn -0.6678156 0.06266715 -0.741684
vn -0.6691308 0 -0.7431446
vn -0.6691308 0 -0.7431446
vn -0.6678156 0.06266715 -0.741684
vn -0.8074268 0.06266706 -0.58663
vn -0.8090169 0 -0.5877853
vn -0.9117499 0.0626674 -0.405937
vn -0.9135455 0 -0.4067365
vn -0.976225 0.06266735 -0.207503
vn -0.9781477 0 -0.2079116
vn -0.9980345 0.06266692 4.135891E-07
vn -1 0 4.388987E-07
vn -0.976225 0.06266677 0.207503
vn -0.9781476 0 0.2079117
vn -0.9781476 0 0.2079117
vn -0.976225 0.06266677 0.207503
vn -0.91175 0.06266676 0.4059368
vn -0.9135456 0 0.4067363
vn -0.8074268 0.06266687 0.58663
vn -0.809017 0 0.5877854
vn -0.6678153 0.06266687 0.7416842
vn -0.6691306 0 0.7431449
vn -0.4990171 0.06266687 0.8643233
vn -0.4999999 0 0.8660255
vn -0.3084097 0.062667 0.9491872
vn -0.309017 0 0.9510565
vn -0.1043233 0.06266686 0.9925672
vn -0.1045287 0 0.9945219
vn -0.1045287 0 0.9945219
vn -0.1043233 0.06266686 0.9925672
vn 0.1043233 0.0626668 0.9925672
vn 0.1045287 0 0.9945219
vn 0.3084103 0.06266691 0.949187
vn 0.3090176 0 0.9510564
vn 0.4990171 0.06266686 0.8643233
vn 0.4999999 0 0.8660255
vn 0.6678155 0.06266679 0.7416841
vn 0.6691307 0 0.7431446
vn 0.8074272 0.06266674 0.5866296
vn 0.8090174 0 0.5877848
vn 0.9117498 0.06266683 0.4059373
vn 0.9135453 0 0.4067368
vn 0.976225 0.0626671 0.2075031
vn 0.9135453 0 0.4067368
vn 0.976225 0.0626671 0.2075031
vn 0.9781476 0 0.2079117
vn 0.9980345 0.06266692 2.045608E-06
vn 1 0 2.023812E-06
vn 0.9762256 0.06266659 -0.2075009
vn 0.9781481 0 -0.2079095
vn 0 1 0
vn 0 1 0
vn 0 1 0
vn 0 1 0
vn 0 1 0
vn 0 1 0
vn 0 1 0
vn 0 1 0
vn 0 1 0
vn 0 1 0
vn 0 1 0
vn 0 1 0
vn 0 1 0
vn 0 1 0
vn 0 1 0
vn 0 1 0
vn 0 1 0
vn 0 1 0
vn 0.673956 0.6750882 -0.300065
vn 0.7216166 0.6750875 -0.1533828
vn 0.5968421 0.675088 -0.433631
vn 0.4936431 0.6750873 -0.548246
vn 0.3688685 0.6750872 -0.6389002
vn 0.2279731 0.6750871 -0.7016307
vn 0.07711442 0.675087 -0.7336968
vn -0.07711405 0.6750873 -0.7336966
vn -0.227973 0.6750879 -0.7016299
vn -0.3688689 0.6750883 -0.6388987
vn -0.4936426 0.675088 -0.5482455
vn -0.5968418 0.6750882 -0.433631
vn -0.6739557 0.6750892 -0.300064
vn -0.7216151 0.6750888 -0.1533842
vn -0.7377378 0.6750874 0
vn -0.7216165 0.6750873 0.1533845
vn -0.6739573 0.6750871 0.3000648
vn 0 1 0
vn 0 1 0
vn 0 1 0
vn 0 1 0
vn 0 1 0
vn 0 1 0
vn 0 1 0
vn 0 1 0
vn 0 1 0
vn 0 1 0
vn 0 1 0
vn 0 1 0
vn 0 1 0
vn -0.5968425 0.6750869 0.433632
vn -0.4936426 0.6750869 0.5482467
vn -0.3688688 0.6750867 0.6389005
vn -0.2279734 0.6750866 0.7016311
vn -0.07711474 0.6750869 0.7336969
vn 0.07711481 0.6750877 0.733696
vn 0.2279743 0.675087 0.7016305
vn 0.368869 0.6750863 0.6389007
vn 0.493643 0.6750867 0.5482468
vn 0.5968429 0.6750864 0.433632
vn 0.6739575 0.6750867 0.3000654
vn 0.7216167 0.675087 0.1533846
vn 0.737738 0.6750872 1.739761E-06
vn 0.9762256 0.06266659 -0.2075009
vn 0.7216166 0.6750875 -0.1533828
vn 0.673956 0.6750882 -0.300065
vn 0.91175 0.06266685 -0.405937
vn 0.5968421 0.675088 -0.433631
vn 0.8074267 0.06266699 -0.58663
vn 0.4936431 0.6750873 -0.548246
vn 0.6678154 0.06266694 -0.7416841
vn 0.9980345 0.06266692 2.045608E-06
vn 0.737738 0.6750872 1.739761E-06
vn 0.6678154 0.06266694 -0.7416841
vn 0.4936431 0.6750873 -0.548246
vn 0.3688685 0.6750872 -0.6389002
vn 0.4990172 0.06266696 -0.8643233
vn 0.2279731 0.6750871 -0.7016307
vn 0.3084094 0.06266695 -0.9491872
vn 0.07711442 0.675087 -0.7336968
vn 0.1043231 0.06266695 -0.9925672
vn -0.07711405 0.6750873 -0.7336966
vn -0.1043228 0.06266683 -0.9925672
vn -0.227973 0.6750879 -0.7016299
vn -0.3084094 0.0626669 -0.9491873
vn -0.3688689 0.6750883 -0.6388987
vn -0.4990177 0.06266714 -0.864323
vn -0.4936426 0.675088 -0.5482455
vn -0.6678156 0.06266715 -0.741684
vn -0.5968418 0.6750882 -0.433631
vn -0.6678156 0.06266715 -0.741684
vn -0.5968418 0.6750882 -0.433631
vn -0.8074268 0.06266706 -0.58663
vn -0.6739557 0.6750892 -0.300064
vn -0.9117499 0.0626674 -0.405937
vn -0.7216151 0.6750888 -0.1533842
vn -0.976225 0.06266735 -0.207503
vn -0.7377378 0.6750874 0
vn -0.9980345 0.06266692 4.135891E-07
vn -0.7216165 0.6750873 0.1533845
vn -0.976225 0.06266677 0.207503
vn -0.6739573 0.6750871 0.3000648
vn -0.91175 0.06266676 0.4059368
vn -0.5968425 0.6750869 0.433632
vn -0.8074268 0.06266687 0.58663
vn -0.8074268 0.06266687 0.58663
vn -0.5968425 0.6750869 0.433632
vn -0.4936426 0.6750869 0.5482467
vn -0.6678153 0.06266687 0.7416842
vn -0.3688688 0.6750867 0.6389005
vn -0.4990171 0.06266687 0.8643233
vn -0.2279734 0.6750866 0.7016311
vn -0.3084097 0.062667 0.9491872
vn -0.07711474 0.6750869 0.7336969
vn -0.1043233 0.06266686 0.9925672
vn -0.1043233 0.06266686 0.9925672
vn -0.07711474 0.6750869 0.7336969
vn 0.07711481 0.6750877 0.733696
vn 0.1043233 0.0626668 0.9925672
vn 0.2279743 0.675087 0.7016305
vn 0.3084103 0.06266691 0.949187
vn 0.368869 0.6750863 0.6389007
vn 0.4990171 0.06266686 0.8643233
vn 0.493643 0.6750867 0.5482468
vn 0.6678155 0.06266679 0.7416841
vn 0.5968429 0.6750864 0.433632
vn 0.8074272 0.06266674 0.5866296
vn 0.6739575 0.6750867 0.3000654
vn 0.9117498 0.06266683 0.4059373
vn 0.7216167 0.675087 0.1533846
vn 0.976225 0.0626671 0.2075031
vn 0.737738 0.6750872 1.739761E-06
vn 0.9980345 0.06266692 2.045608E-06
g m_sk_switch_pad_01_0
f 3/3/3 2/2/2 1/1/1
f 4/4/4 3/3/3 1/1/1
f 5/5/5 3/3/3 4/4/4
f 6/6/6 5/5/5 4/4/4
f 9/9/9 8/8/8 7/7/7
f 10/10/10 9/9/9 7/7/7
f 11/11/11 9/9/9 10/10/10
f 12/12/12 11/11/11 10/10/10
f 13/13/13 11/11/11 12/12/12
f 14/14/14 13/13/13 12/12/12
f 15/15/15 13/13/13 14/14/14
f 16/16/16 15/15/15 14/14/14
f 17/17/17 15/15/15 16/16/16
f 18/18/18 17/17/17 16/16/16
f 19/19/19 17/17/17 18/18/18
f 20/20/20 19/19/19 18/18/18
f 21/21/21 19/19/19 20/20/20
f 22/22/22 21/21/21 20/20/20
f 23/23/23 21/21/21 22/22/22
f 24/24/24 23/23/23 22/22/22
f 27/27/27 26/26/26 25/25/25
f 28/28/28 27/27/27 25/25/25
f 29/29/29 27/27/27 28/28/28
f 30/30/30 29/29/29 28/28/28
f 31/31/31 29/29/29 30/30/30
f 32/32/32 31/31/31 30/30/30
f 33/33/33 31/31/31 32/32/32
f 34/34/34 33/33/33 32/32/32
f 35/35/35 33/33/33 34/34/34
f 36/36/36 35/35/35 34/34/34
f 39/39/39 38/38/38 37/37/37
f 40/40/40 39/39/39 37/37/37
f 41/41/41 39/39/39 40/40/40
f 42/42/42 41/41/41 40/40/40
f 43/43/43 41/41/41 42/42/42
f 44/44/44 43/43/43 42/42/42
f 45/45/45 43/43/43 44/44/44
f 46/46/46 45/45/45 44/44/44
f 47/47/47 45/45/45 46/46/46
f 48/48/48 47/47/47 46/46/46
f 49/49/49 47/47/47 48/48/48
f 50/50/50 49/49/49 48/48/48
f 53/53/53 52/52/52 51/51/51
f 54/54/54 53/53/53 51/51/51
f 55/55/55 53/53/53 54/54/54
f 56/56/56 55/55/55 54/54/54
f 57/57/57 55/55/55 56/56/56
f 58/58/58 57/57/57 56/56/56
f 59/59/59 57/57/57 58/58/58
f 60/60/60 59/59/59 58/58/58
f 61/61/61 59/59/59 60/60/60
f 62/62/62 61/61/61 60/60/60
f 63/63/63 61/61/61 62/62/62
f 64/64/64 63/63/63 62/62/62
f 65/65/65 63/63/63 64/64/64
f 68/68/68 67/67/67 66/66/66
f 69/69/69 67/67/67 68/68/68
f 70/70/70 69/69/69 68/68/68
f 71/71/71 69/69/69 70/70/70
f 72/72/72 71/71/71 70/70/70
f 75/75/75 74/74/74 73/73/73
f 76/76/76 74/74/74 75/75/75
f 77/77/77 74/74/74 76/76/76
f 78/78/78 74/74/74 77/77/77
f 79/79/79 74/74/74 78/78/78
f 80/80/80 74/74/74 79/79/79
f 81/81/81 74/74/74 80/80/80
f 82/82/82 74/74/74 81/81/81
f 83/83/83 74/74/74 82/82/82
f 84/84/84 74/74/74 83/83/83
f 85/85/85 74/74/74 84/84/84
f 86/86/86 74/74/74 85/85/85
f 87/87/87 74/74/74 86/86/86
f 88/88/88 74/74/74 87/87/87
f 89/89/89 74/74/74 88/88/88
f 90/90/90 74/74/74 89/89/89
f 76/76/76 75/75/75 91/91/91
f 91/91/91 75/75/75 92/92/92
f 75/75/75 73/73/73 92/92/92
f 93/93/93 76/76/76 91/91/91
f 77/77/77 76/76/76 93/93/93
f 94/94/94 77/77/77 93/93/93
f 78/78/78 77/77/77 94/94/94
f 95/95/95 78/78/78 94/94/94
f 79/79/79 78/78/78 95/95/95
f 96/96/96 79/79/79 95/95/95
f 80/80/80 79/79/79 96/96/96
f 97/97/97 80/80/80 96/96/96
f 81/81/81 80/80/80 97/97/97
f 98/98/98 81/81/81 97/97/97
f 82/82/82 81/81/81 98/98/98
f 99/99/99 82/82/82 98/98/98
f 83/83/83 82/82/82 99/99/99
f 100/100/100 83/83/83 99/99/99
f 84/84/84 83/83/83 100/100/100
f 101/101/101 84/84/84 100/100/100
f 85/85/85 84/84/84 101/101/101
f 102/102/102 85/85/85 101/101/101
f 86/86/86 85/85/85 102/102/102
f 103/103/103 86/86/86 102/102/102
f 87/87/87 86/86/86 103/103/103
f 104/104/104 87/87/87 103/103/103
f 88/88/88 87/87/87 104/104/104
f 105/105/105 88/88/88 104/104/104
f 89/89/89 88/88/88 105/105/105
f 106/106/106 89/89/89 105/105/105
f 90/90/90 89/89/89 106/106/106
f 107/107/107 90/90/90 106/106/106
f 108/108/108 90/90/90 107/107/107
f 108/108/108 74/74/74 90/90/90
f 109/109/109 74/74/74 108/108/108
f 110/110/110 74/74/74 109/109/109
f 111/111/111 74/74/74 110/110/110
f 112/112/112 74/74/74 111/111/111
f 113/113/113 74/74/74 112/112/112
f 114/114/114 74/74/74 113/113/113
f 115/115/115 74/74/74 114/114/114
f 116/116/116 74/74/74 115/115/115
f 117/117/117 74/74/74 116/116/116
f 118/118/118 74/74/74 117/117/117
f 119/119/119 74/74/74 118/118/118
f 120/120/120 74/74/74 119/119/119
f 73/73/73 74/74/74 120/120/120
f 121/121/121 108/108/108 107/107/107
f 109/109/109 108/108/108 121/121/121
f 122/122/122 109/109/109 121/121/121
f 110/110/110 109/109/109 122/122/122
f 123/123/123 110/110/110 122/122/122
f 111/111/111 110/110/110 123/123/123
f 124/124/124 111/111/111 123/123/123
f 112/112/112 111/111/111 124/124/124
f 125/125/125 112/112/112 124/124/124
f 113/113/113 112/112/112 125/125/125
f 126/126/126 113/113/113 125/125/125
f 114/114/114 113/113/113 126/126/126
f 127/127/127 114/114/114 126/126/126
f 115/115/115 114/114/114 127/127/127
f 128/128/128 115/115/115 127/127/127
f 116/116/116 115/115/115 128/128/128
f 129/129/129 116/116/116 128/128/128
f 117/117/117 116/116/116 129/129/129
f 130/130/130 117/117/117 129/129/129
f 118/118/118 117/117/117 130/130/130
f 131/131/131 118/118/118 130/130/130
f 119/119/119 118/118/118 131/131/131
f 132/132/132 119/119/119 131/131/131
f 120/120/120 119/119/119 132/132/132
f 133/133/133 120/120/120 132/132/132
f 73/73/73 120/120/120 133/133/133
f 92/92/92 73/73/73 133/133/133
f 136/136/136 135/135/135 134/134/134
f 137/137/137 136/136/136 134/134/134
f 138/138/138 136/136/136 137/137/137
f 139/139/139 138/138/138 137/137/137
f 140/140/140 138/138/138 139/139/139
f 141/141/141 140/140/140 139/139/139
f 134/134/134 135/135/135 142/142/142
f 135/135/135 143/143/143 142/142/142
f 146/146/146 145/145/145 144/144/144
f 147/147/147 146/146/146 144/144/144
f 148/148/148 146/146/146 147/147/147
f 149/149/149 148/148/148 147/147/147
f 150/150/150 148/148/148 149/149/149
f 151/151/151 150/150/150 149/149/149
f 152/152/152 150/150/150 151/151/151
f 153/153/153 152/152/152 151/151/151
f 154/154/154 152/152/152 153/153/153
f 155/155/155 154/154/154 153/153/153
f 156/156/156 154/154/154 155/155/155
f 157/157/157 156/156/156 155/155/155
f 158/158/158 156/156/156 157/157/157
f 159/159/159 158/158/158 157/157/157
f 160/160/160 158/158/158 159/159/159
f 163/163/163 162/162/162 161/161/161
f 164/164/164 162/162/162 163/163/163
f 165/165/165 164/164/164 163/163/163
f 166/166/166 164/164/164 165/165/165
f 167/167/167 166/166/166 165/165/165
f 168/168/168 166/166/166 167/167/167
f 169/169/169 168/168/168 167/167/167
f 170/170/170 168/168/168 169/169/169
f 171/171/171 170/170/170 169/169/169
f 172/172/172 170/170/170 171/171/171
f 173/173/173 172/172/172 171/171/171
f 174/174/174 172/172/172 173/173/173
f 175/175/175 174/174/174 173/173/173
f 178/178/178 177/177/177 176/176/176
f 179/179/179 178/178/178 176/176/176
f 180/180/180 178/178/178 179/179/179
f 181/181/181 180/180/180 179/179/179
f 182/182/182 180/180/180 181/181/181
f 183/183/183 182/182/182 181/181/181
f 184/184/184 182/182/182 183/183/183
f 185/185/185 184/184/184 183/183/183
f 188/188/188 187/187/187 186/186/186
f 189/189/189 188/188/188 186/186/186
f 190/190/190 188/188/188 189/189/189
f 191/191/191 190/190/190 189/189/189
f 192/192/192 190/190/190 191/191/191
f 193/193/193 192/192/192 191/191/191
f 194/194/194 192/192/192 193/193/193
f 195/195/195 194/194/194 193/193/193
f 196/196/196 194/194/194 195/195/195
f 197/197/197 196/196/196 195/195/195
f 198/198/198 196/196/196 197/197/197
f 199/199/199 198/198/198 197/197/197
f 200/200/200 198/198/198 199/199/199
f 201/201/201 200/200/200 199/199/199
f 202/202/202 200/200/200 201/201/201
f 203/203/203 202/202/202 201/201/201
