g m_sk_vent_01
v -0.4387476 -0.06938987 -0.002131882
v -0.4387476 -0.1401339 -0.002131882
v 0.4387476 -0.1401339 -0.002131882
v 0.4387476 -0.06938987 -0.002131882
v -0.4387476 0.1377943 -0.002131882
v -0.4387476 0.07920235 -0.002131882
v 0.4387476 0.07920235 -0.002131882
v 0.4387476 0.1377943 -0.002131882
v -0.4387476 0.04143196 -0.002131939
v -0.4387476 -0.03395866 -0.002131939
v 0.4387476 -0.03395866 -0.002131939
v 0.4387476 0.04143196 -0.002131939
v -0.4387476 -0.05975441 -0.0459129
v -0.4387476 -0.06938987 -0.002131882
v 0.4387476 -0.06938987 -0.002131882
v 0.4387476 -0.05975441 -0.0459129
v 0.4387476 -0.1579606 -0.04683647
v 0.4387476 -0.1401339 -0.002131882
v -0.4387476 -0.1401339 -0.002131882
v -0.4387476 -0.1579606 -0.04683647
v -0.4387476 -0.1579606 -0.04683647
v -0.4387476 -0.1401339 -0.002131882
v -0.4387476 -0.06938987 -0.002131882
v -0.4387476 -0.05975441 -0.0459129
v -0.4387476 0.15796 -0.04683647
v -0.4387476 0.1377943 -0.002131882
v 0.4387476 0.1377943 -0.002131882
v 0.4387476 0.15796 -0.04683647
v 0.4387476 0.15796 -0.04683647
v 0.4387476 0.1377943 -0.002131882
v 0.4387476 0.07920235 -0.002131882
v 0.4387476 0.06746238 -0.04675884
v 0.4387476 0.06746238 -0.04675884
v 0.4387476 0.07920235 -0.002131882
v -0.4387476 0.07920235 -0.002131882
v -0.4387476 0.06746238 -0.04675884
v -0.4387476 0.05067192 -0.04673805
v -0.4387476 0.04143196 -0.002131939
v 0.4387476 0.04143196 -0.002131939
v 0.4387476 0.05067192 -0.04673805
v -0.4387476 -0.04296455 -0.04604286
v -0.4387476 -0.03395866 -0.002131939
v -0.4387476 0.04143196 -0.002131939
v -0.4387476 0.05067192 -0.04673805
v 0.4387476 -0.04296455 -0.04604286
v 0.4387476 -0.03395866 -0.002131939
v -0.4387476 -0.03395866 -0.002131939
v -0.4387476 -0.04296455 -0.04604286
v -0.4833203 0.07214683 -0.03533951
v -0.483291 -0.06249672 -0.03541084
v -0.4666699 -0.05875816 -0.04683647
v -0.466748 0.0676847 -0.04683647
v -0.4835278 0.1810406 -0.0348317
v -0.4665332 0.1655297 -0.04683647
v -0.4665259 -0.165525 -0.04683647
v -0.4845874 -0.1816181 -0.03223194
v -0.4845874 -0.1816181 -0.03223194
v -0.475979 -0.1883015 -0.03479782
v 0.466748 0.0676847 -0.04683647
v 0.4666699 -0.05875816 -0.04683647
v 0.483291 -0.06249672 -0.03541084
v 0.4833203 0.07214683 -0.03533951
v 0.4665332 0.1655263 -0.04683647
v 0.4833203 0.07214683 -0.03533951
v 0.4834619 0.181016 -0.0349935
v 0.4835278 -0.1810403 -0.03483322
v 0.483291 -0.06249672 -0.03541084
v 0.4665259 -0.165525 -0.04683647
v -0.4957202 0.1930448 0.04683647
v -0.5043408 0.1994341 0.03534147
v 0.5043311 0.1994303 0.03531759
v 0.4957202 0.1930448 0.04683647
v -0.4758032 0.1883013 -0.03479921
v 0.4757349 0.1882748 -0.03496906
v 0.5121264 -0.1921326 0.03533695
v 0.4957202 -0.1930447 0.04683647
v 0.4957202 -0.06447258 0.04683647
v 0.5120923 -0.06655189 0.03525539
v 0.5120972 0.07700218 0.03526543
v 0.4957202 0.07462288 0.04683647
v 0.5121167 0.1921294 0.03531431
v 0.4957202 0.1930448 0.04683647
v 0.5043311 0.1994303 0.03531759
v 0.4957202 0.1930448 0.04683647
v -0.5120923 -0.06655189 0.03525539
v -0.4957202 -0.06447258 0.04683647
v -0.4957202 -0.1930447 0.04683647
v -0.5121264 -0.1921326 0.03533695
v -0.5120972 0.07700218 0.03526543
v -0.4957202 0.07462288 0.04683647
v -0.4957202 0.1930448 0.04683647
v -0.5121264 0.1921326 0.03533718
v -0.4957202 0.1930448 0.04683647
v -0.5043408 0.1994341 0.03534147
v -0.4387476 0.05067192 -0.04673805
v 0.4387476 0.05067192 -0.04673805
v 0.4387476 0.06746238 -0.04675884
v -0.4387476 0.06746238 -0.04675884
v -0.466748 0.0676847 -0.04683647
v -0.4387476 0.15796 -0.04683647
v -0.4665332 0.1655297 -0.04683647
v -0.4666699 -0.05875816 -0.04683647
v -0.4387476 -0.04296455 -0.04604286
v -0.4387476 -0.05975441 -0.0459129
v 0.4387476 -0.04296455 -0.04604286
v 0.4387476 -0.05975441 -0.0459129
v 0.466748 0.0676847 -0.04683647
v 0.4666699 -0.05875816 -0.04683647
v 0.4387476 -0.1579606 -0.04683647
v 0.4665259 -0.165525 -0.04683647
v 0.4665332 0.1655263 -0.04683647
v 0.4387476 0.15796 -0.04683647
v 0.4588599 0.1727473 -0.04683647
v -0.458855 0.1727473 -0.04683647
v -0.4835278 0.1810406 -0.0348317
v -0.4758032 0.1883013 -0.03479921
v 0.458855 -0.172747 -0.04683647
v -0.458855 -0.172747 -0.04683647
v -0.4387476 -0.1579606 -0.04683647
v -0.4665259 -0.165525 -0.04683647
v -0.475979 -0.1883015 -0.03479782
v 0.4757349 0.1882748 -0.03496906
v 0.4665332 0.1655263 -0.04683647
v 0.4834619 0.181016 -0.0349935
v 0.4835278 -0.1810403 -0.03483322
v 0.4665259 -0.165525 -0.04683647
v 0.4758032 -0.1883015 -0.03479782
v -0.483291 -0.06249672 -0.03541084
v -0.4833203 0.07214683 -0.03533951
v -0.5120972 0.07700218 0.03526543
v -0.5120923 -0.06655189 0.03525539
v -0.5121264 0.1921326 0.03533718
v -0.4835278 0.1810406 -0.0348317
v -0.4845874 -0.1816181 -0.03223194
v -0.5121264 -0.1921326 0.03533695
v -0.4758032 0.1883013 -0.03479921
v -0.5043408 0.1994341 0.03534147
v -0.4835278 0.1810406 -0.0348317
v -0.4845874 -0.1816181 -0.03223194
v -0.5043408 -0.1994341 0.0353417
v -0.475979 -0.1883015 -0.03479782
v 0.5120972 0.07700218 0.03526543
v 0.4833203 0.07214683 -0.03533951
v 0.483291 -0.06249672 -0.03541084
v 0.5120923 -0.06655189 0.03525539
v 0.4835278 -0.1810403 -0.03483322
v 0.5121264 -0.1921326 0.03533695
v 0.4834619 0.181016 -0.0349935
v 0.5121167 0.1921294 0.03531431
v 0.4834619 0.181016 -0.0349935
v 0.5043311 0.1994303 0.03531759
v 0.4757349 0.1882748 -0.03496906
v 0.4758032 -0.1883015 -0.03479782
v 0.5043408 -0.1994341 0.0353417
v 0.4835278 -0.1810403 -0.03483322
v -0.458855 0.1727473 -0.04683647
v 0.4588599 0.1727473 -0.04683647
v 0.4757349 0.1882748 -0.03496906
v -0.4758032 0.1883013 -0.03479921
v -0.475979 -0.1883015 -0.03479782
v 0.4758032 -0.1883015 -0.03479782
v 0.458855 -0.172747 -0.04683647
v -0.458855 -0.172747 -0.04683647
v -0.475979 -0.1883015 -0.03479782
v -0.5043408 -0.1994341 0.0353417
v 0.5043408 -0.1994341 0.0353417
v 0.4758032 -0.1883015 -0.03479782
v -0.4957202 -0.1930447 0.04683647
v 0.4957202 -0.1930447 0.04683647
v -0.4957202 -0.1930447 0.04683647
v -0.5043408 -0.1994341 0.0353417
v -0.5121264 -0.1921326 0.03533695
v 0.5121264 -0.1921326 0.03533695
v 0.5043408 -0.1994341 0.0353417
v 0.4957202 -0.1930447 0.04683647
v -0.4387476 0.06746238 -0.04675884
v -0.4387476 0.07920235 -0.002131882
v -0.4387476 0.1377943 -0.002131882
v -0.4387476 0.15796 -0.04683647
v 0.4387476 0.05067192 -0.04673805
v 0.4387476 0.04143196 -0.002131939
v 0.4387476 -0.03395866 -0.002131939
v 0.4387476 -0.04296455 -0.04604286
v 0.4387476 -0.05975441 -0.0459129
v 0.4387476 -0.06938987 -0.002131882
v 0.4387476 -0.1401339 -0.002131882
v 0.4387476 -0.1579606 -0.04683647
vt 0.2169189 0.9125977
vt 0.2169189 0.8999023
vt 0.05935669 0.8999023
vt 0.05935669 0.9125977
vt 0.2169189 0.9545898
vt 0.2169189 0.9443359
vt 0.05935669 0.9443359
vt 0.05935669 0.9545898
vt 0.2169189 0.9360352
vt 0.2169189 0.9223633
vt 0.05935669 0.9223633
vt 0.05935669 0.9360352
vt 0.01000214 0.5048828
vt 0.01032257 0.5610352
vt 0.6899414 0.5610352
vt 0.6884766 0.5048828
vt 0.6708984 0.590332
vt 0.6645508 0.5483398
vt 0.0352478 0.5483398
vt 0.02711487 0.590332
vt 0.02711487 0.590332
vt 0.0352478 0.5483398
vt 0.01032257 0.5610352
vt 0.01000214 0.5048828
vt 0.02890015 0.5991211
vt 0.03598022 0.6411133
vt 0.6723633 0.6416016
vt 0.6816406 0.5996094
vt 0.6816406 0.5996094
vt 0.6723633 0.6416016
vt 0.6972656 0.6264648
vt 0.7001953 0.6821289
vt 0.7001953 0.6821289
vt 0.6972656 0.6264648
vt 0.01087189 0.6264648
vt 0.01000214 0.6821289
vt 0.9897461 0.3513184
vt 0.9892578 0.314209
vt 0.3376465 0.3139648
vt 0.3378906 0.3510742
vt 0.9897461 0.2731934
vt 0.9902344 0.3271484
vt 0.9892578 0.314209
vt 0.9897461 0.3513184
vt 0.3374023 0.2731934
vt 0.3378906 0.3271484
vt 0.9902344 0.3271484
vt 0.9897461 0.2731934
vt 0.01344299 0.7851563
vt 0.0116806 0.8891602
vt 0.02755737 0.8867188
vt 0.02937317 0.7880859
vt 0.01489258 0.6992188
vt 0.03027344 0.7128906
vt 0.02737427 0.9692383
vt 0.01000214 0.9829102
vt 0.01000214 0.9829102
vt 0.01727295 0.987793
vt 0.7578125 0.7875977
vt 0.7563477 0.8867188
vt 0.7719727 0.8891602
vt 0.7729492 0.7827148
vt 0.7548828 0.7114258
vt 0.7729492 0.7827148
vt 0.7680664 0.6958008
vt 0.7719727 0.984375
vt 0.7719727 0.8891602
vt 0.7583008 0.9697266
vt 0.01660156 0.4318848
vt 0.01000214 0.4418945
vt 0.7822266 0.4418945
vt 0.7753906 0.4318848
vt 0.03186035 0.4963379
vt 0.7602539 0.496582
vt 0.0243988 0.2519531
vt 0.01853943 0.2661133
vt 0.116394 0.2658691
vt 0.1154175 0.2502441
vt 0.223877 0.2504883
vt 0.2229004 0.2661133
vt 0.3071289 0.2519531
vt 0.3129883 0.2661133
vt 0.3149414 0.2539063
vt 0.3129883 0.2661133
vt 0.1157837 0.2919922
vt 0.1167603 0.2763672
vt 0.01887512 0.276123
vt 0.02470398 0.2902832
vt 0.2242432 0.291748
vt 0.2232666 0.276123
vt 0.3132324 0.276123
vt 0.307373 0.2902832
vt 0.3132324 0.276123
vt 0.3151855 0.2883301
vt 0.05133057 0.8017578
vt 0.7363281 0.8017578
vt 0.7358398 0.7885742
vt 0.05142212 0.7885742
vt 0.02937317 0.7880859
vt 0.05239868 0.7177734
vt 0.03027344 0.7128906
vt 0.02755737 0.8867188
vt 0.04983521 0.8745117
vt 0.04940796 0.8876953
vt 0.734375 0.875
vt 0.734375 0.8881836
vt 0.7578125 0.7875977
vt 0.7563477 0.8867188
vt 0.7363281 0.9648438
vt 0.7583008 0.9697266
vt 0.7548828 0.7114258
vt 0.7333984 0.7177734
vt 0.7490234 0.7060547
vt 0.03619385 0.7070313
vt 0.01489258 0.6992188
vt 0.02085876 0.6938477
vt 0.7524414 0.9755859
vt 0.03326416 0.9750977
vt 0.04959106 0.9643555
vt 0.02737427 0.9692383
vt 0.01727295 0.987793
vt 0.7612305 0.690918
vt 0.7548828 0.7114258
vt 0.7680664 0.6958008
vt 0.7719727 0.984375
vt 0.7583008 0.9697266
vt 0.765625 0.9902344
vt 0.114624 0.3505859
vt 0.2235107 0.3508301
vt 0.2242432 0.291748
vt 0.1157837 0.2919922
vt 0.307373 0.2902832
vt 0.3127441 0.3469238
vt 0.01867676 0.3449707
vt 0.02470398 0.2902832
vt 0.3210449 0.3466797
vt 0.3151855 0.2883301
vt 0.3127441 0.3469238
vt 0.01867676 0.3449707
vt 0.0168457 0.2883301
vt 0.01000214 0.3466797
vt 0.223877 0.2504883
vt 0.2231445 0.1915283
vt 0.1141357 0.1916504
vt 0.1154175 0.2502441
vt 0.01838684 0.1951904
vt 0.0243988 0.2519531
vt 0.3125 0.1951904
vt 0.3071289 0.2519531
vt 0.3125 0.1951904
vt 0.3149414 0.2539063
vt 0.3208008 0.1954346
vt 0.01000214 0.1954346
vt 0.01654053 0.2539063
vt 0.01838684 0.1951904
vt 0.03619385 0.7070313
vt 0.7490234 0.7060547
vt 0.7612305 0.690918
vt 0.02085876 0.6938477
vt 0.01727295 0.987793
vt 0.765625 0.9902344
vt 0.7524414 0.9755859
vt 0.03326416 0.9750977
vt 0.03170776 0.3591309
vt 0.01000214 0.4135742
vt 0.7822266 0.4135742
vt 0.7602539 0.3591309
vt 0.01660156 0.423584
vt 0.7753906 0.423584
vt 0.01887512 0.276123
vt 0.0168457 0.2883301
vt 0.02470398 0.2902832
vt 0.0243988 0.2519531
vt 0.01654053 0.2539063
vt 0.01853943 0.2661133
vt 0.01000214 0.6821289
vt 0.01087189 0.6264648
vt 0.03598022 0.6411133
vt 0.02890015 0.5991211
vt 0.3378906 0.3510742
vt 0.3376465 0.3139648
vt 0.3378906 0.3271484
vt 0.3374023 0.2731934
vt 0.6884766 0.5048828
vt 0.6899414 0.5610352
vt 0.6645508 0.5483398
vt 0.6708984 0.590332
vn 0 0 -1
vn 0 0 -1
vn 0 0 -1
vn 0 0 -1
vn 0 0 -1
vn 0 0 -1
vn 0 0 -1
vn 0 0 -1
vn 0 0 -1
vn 0 0 -1
vn 0 0 -1
vn 0 0 -1
vn 0 -0.986511 -0.163695
vn 0 -0.986511 -0.163695
vn 0 -0.986511 -0.163695
vn 0 -0.986511 -0.163695
vn 0 0.9572479 -0.289269
vn 0 0.9572479 -0.289269
vn 0 0.9572479 -0.289269
vn 0 0.9572479 -0.289269
vn 1 0 0
vn 1 0 0
vn 1 0 0
vn 1 0 0
vn 0 -0.9462414 -0.3234611
vn 0 -0.9462414 -0.3234611
vn 0 -0.9462414 -0.3234611
vn 0 -0.9462414 -0.3234611
vn -1 0 0
vn -1 0 0
vn -1 0 0
vn -1 0 0
vn 0 0.9807178 -0.195429
vn 0 0.9807178 -0.195429
vn 0 0.9807178 -0.195429
vn 0 0.9807178 -0.195429
vn 0.6622483 -0.7378353 -0.130485
vn 0.74339 -0.6586379 -0.116479
vn 0 -0.98472 -0.174145
vn 0 -0.98472 -0.174145
vn 1 0 0
vn 1 0 0
vn 0.74339 -0.6586379 -0.116479
vn 0.6622483 -0.7378353 -0.130485
vn 0 0.9850819 -0.172086
vn 0 0.9850819 -0.172086
vn 0 0.9850819 -0.172086
vn 0 0.9850819 -0.172086
vn -0.7803624 0.0006050003 -0.6253273
vn -0.784357 -0.002431 -0.6203049
vn -0.2961489 -0.002031999 -0.9551396
vn -0.295961 -0.000301 -0.9552
vn -0.700358 0.319874 -0.638106
vn -0.302514 0.09495799 -0.9484029
vn -0.328529 -0.08577599 -0.9405909
vn -0.72933 -0.32277 -0.603239
vn -0.72933 -0.32277 -0.603239
vn -0.2878079 -0.7504198 -0.5950099
vn 0.295528 -0.000404 -0.9553339
vn 0.289338 -0.0005479999 -0.9572269
vn 0.7799 -0.0005489999 -0.625904
vn 0.7800741 0.000468 -0.6256871
vn 0.3011331 0.09374302 -0.9489632
vn 0.7800741 0.000468 -0.6256871
vn 0.699612 0.31928 -0.639221
vn 0.7001179 -0.3198349 -0.6383889
vn 0.7799 -0.0005489999 -0.625904
vn 0.298903 -0.09401402 -0.9496412
vn -0.318725 0.599604 0.7340909
vn -0.4226449 0.8897549 0.172359
vn 0.422639 0.8898402 0.171932
vn 0.319111 0.5996999 0.7338449
vn -0.274605 0.7710729 -0.5744899
vn 0.273943 0.770555 -0.5755
vn 0.9062998 -0.3602569 0.2209879
vn 0.3187919 -0.5993639 0.7342578
vn 0.5765529 0.000138 0.8170599
vn 0.9597798 0.000104 0.2807539
vn 0.9597859 -8.699999E-05 0.280733
vn 0.5766837 -0.0001219999 0.8169675
vn 0.9063123 0.3604111 0.2206851
vn 0.319111 0.5996999 0.7338449
vn 0.422639 0.8898402 0.171932
vn 0.319111 0.5996999 0.7338449
vn -0.9597798 0.000104 0.2807539
vn -0.5765522 0.000138 0.8170604
vn -0.3187911 -0.5993641 0.7342581
vn -0.9062929 -0.360049 0.221355
vn -0.9597505 -0.0001220001 0.2808541
vn -0.5764579 -0.00017 0.8171269
vn -0.318725 0.599604 0.7340909
vn -0.9062694 0.3602861 0.2210651
vn -0.318725 0.599604 0.7340909
vn -0.4226449 0.8897549 0.172359
vn 0.007735 -0.002098 -0.9999679
vn -0.007735 -0.002098 -0.9999679
vn -0.001367999 -0.0009649995 -0.9999986
vn 0.001367999 -0.0009649995 -0.9999986
vn -0.295961 -0.000301 -0.9552
vn 0.0005199999 -0.000161 -0.9999999
vn -0.302514 0.09495799 -0.9484029
vn -0.2961489 -0.002031999 -0.9551396
vn 0.014377 -0.005710002 -0.9998803
vn 0.016151 -0.003561001 -0.9998633
vn -0.014377 -0.005710002 -0.9998803
vn -0.016151 -0.003561001 -0.9998633
vn 0.295528 -0.000404 -0.9553339
vn 0.289338 -0.0005479999 -0.9572269
vn -0.006254 0.00176 -0.9999789
vn 0.298903 -0.09401402 -0.9496412
vn 0.3011331 0.09374302 -0.9489632
vn -0.0005199999 -0.000161 -0.9999999
vn 0.080714 0.323373 -0.942823
vn -0.08136399 0.324171 -0.942493
vn -0.700358 0.319874 -0.638106
vn -0.274605 0.7710729 -0.5744899
vn 0.08139599 -0.325249 -0.9421188
vn -0.100766 -0.3165849 -0.9431968
vn 0.006254 0.00176 -0.9999789
vn -0.328529 -0.08577599 -0.9405909
vn -0.2878079 -0.7504198 -0.5950099
vn 0.273943 0.770555 -0.5755
vn 0.3011331 0.09374302 -0.9489632
vn 0.699612 0.31928 -0.639221
vn 0.7001179 -0.3198349 -0.6383889
vn 0.298903 -0.09401402 -0.9496412
vn 0.2745759 -0.7713597 -0.5741188
vn -0.784357 -0.002431 -0.6203049
vn -0.7803624 0.0006050003 -0.6253273
vn -0.9597505 -0.0001220001 0.2808541
vn -0.9597798 0.000104 0.2807539
vn -0.9062694 0.3602861 0.2210651
vn -0.700358 0.319874 -0.638106
vn -0.72933 -0.32277 -0.603239
vn -0.9062929 -0.360049 0.221355
vn -0.274605 0.7710729 -0.5744899
vn -0.4226449 0.8897549 0.172359
vn -0.700358 0.319874 -0.638106
vn -0.72933 -0.32277 -0.603239
vn -0.4223441 -0.8897724 0.1730051
vn -0.2878079 -0.7504198 -0.5950099
vn 0.9597859 -8.699999E-05 0.280733
vn 0.7800741 0.000468 -0.6256871
vn 0.7799 -0.0005489999 -0.625904
vn 0.9597798 0.000104 0.2807539
vn 0.7001179 -0.3198349 -0.6383889
vn 0.9062998 -0.3602569 0.2209879
vn 0.699612 0.31928 -0.639221
vn 0.9063123 0.3604111 0.2206851
vn 0.699612 0.31928 -0.639221
vn 0.422639 0.8898402 0.171932
vn 0.273943 0.770555 -0.5755
vn 0.2745759 -0.7713597 -0.5741188
vn 0.422667 -0.88972 0.172485
vn 0.7001179 -0.3198349 -0.6383889
vn -0.08136399 0.324171 -0.942493
vn 0.080714 0.323373 -0.942823
vn 0.273943 0.770555 -0.5755
vn -0.274605 0.7710729 -0.5744899
vn -0.2878079 -0.7504198 -0.5950099
vn 0.2745759 -0.7713597 -0.5741188
vn 0.08139599 -0.325249 -0.9421188
vn -0.100766 -0.3165849 -0.9431968
vn -0.2878079 -0.7504198 -0.5950099
vn -0.4223441 -0.8897724 0.1730051
vn 0.422667 -0.88972 0.172485
vn 0.2745759 -0.7713597 -0.5741188
vn -0.3187911 -0.5993641 0.7342581
vn 0.3187919 -0.5993639 0.7342578
vn -0.3187911 -0.5993641 0.7342581
vn -0.4223441 -0.8897724 0.1730051
vn -0.9062929 -0.360049 0.221355
vn 0.9062998 -0.3602569 0.2209879
vn 0.422667 -0.88972 0.172485
vn 0.3187919 -0.5993639 0.7342578
vn 1 0 0
vn 1 0 0
vn 1 0 0
vn 1 0 0
vn -1 0 0
vn -1 0 0
vn -1 0 0
vn -1 0 0
vn -1 0 0
vn -1 0 0
vn -1 0 0
vn -1 0 0
g m_sk_vent_01_0
f 3/3/3 2/2/2 1/1/1
f 4/4/4 3/3/3 1/1/1
f 7/7/7 6/6/6 5/5/5
f 8/8/8 7/7/7 5/5/5
f 11/11/11 10/10/10 9/9/9
f 12/12/12 11/11/11 9/9/9
f 15/15/15 14/14/14 13/13/13
f 16/16/16 15/15/15 13/13/13
f 19/19/19 18/18/18 17/17/17
f 20/20/20 19/19/19 17/17/17
f 23/23/23 22/22/22 21/21/21
f 24/24/24 23/23/23 21/21/21
f 27/27/27 26/26/26 25/25/25
f 28/28/28 27/27/27 25/25/25
f 31/31/31 30/30/30 29/29/29
f 32/32/32 31/31/31 29/29/29
f 35/35/35 34/34/34 33/33/33
f 36/36/36 35/35/35 33/33/33
f 39/39/39 38/38/38 37/37/37
f 40/40/40 39/39/39 37/37/37
f 43/43/43 42/42/42 41/41/41
f 44/44/44 43/43/43 41/41/41
f 47/47/47 46/46/46 45/45/45
f 48/48/48 47/47/47 45/45/45
f 51/51/51 50/50/50 49/49/49
f 52/52/52 51/51/51 49/49/49
f 52/52/52 49/49/49 53/53/53
f 54/54/54 52/52/52 53/53/53
f 50/50/50 51/51/51 55/55/55
f 56/56/56 50/50/50 55/55/55
f 58/58/58 57/57/57 55/55/55
f 61/61/61 60/60/60 59/59/59
f 62/62/62 61/61/61 59/59/59
f 64/64/64 59/59/59 63/63/63
f 65/65/65 64/64/64 63/63/63
f 60/60/60 67/67/67 66/66/66
f 68/68/68 60/60/60 66/66/66
f 71/71/71 70/70/70 69/69/69
f 72/72/72 71/71/71 69/69/69
f 70/70/70 71/71/71 73/73/73
f 71/71/71 74/74/74 73/73/73
f 77/77/77 76/76/76 75/75/75
f 78/78/78 77/77/77 75/75/75
f 78/78/78 79/79/79 77/77/77
f 79/79/79 80/80/80 77/77/77
f 79/79/79 81/81/81 80/80/80
f 81/81/81 82/82/82 80/80/80
f 84/84/84 81/81/81 83/83/83
f 87/87/87 86/86/86 85/85/85
f 88/88/88 87/87/87 85/85/85
f 85/85/85 86/86/86 89/89/89
f 86/86/86 90/90/90 89/89/89
f 89/89/89 90/90/90 91/91/91
f 92/92/92 89/89/89 91/91/91
f 94/94/94 92/92/92 93/93/93
f 97/97/97 96/96/96 95/95/95
f 98/98/98 97/97/97 95/95/95
f 95/95/95 99/99/99 98/98/98
f 98/98/98 99/99/99 100/100/100
f 99/99/99 101/101/101 100/100/100
f 102/102/102 99/99/99 95/95/95
f 103/103/103 102/102/102 95/95/95
f 104/104/104 102/102/102 103/103/103
f 103/103/103 105/105/105 104/104/104
f 105/105/105 106/106/106 104/104/104
f 96/96/96 107/107/107 105/105/105
f 97/97/97 107/107/107 96/96/96
f 107/107/107 108/108/108 105/105/105
f 105/105/105 108/108/108 106/106/106
f 106/106/106 108/108/108 109/109/109
f 108/108/108 110/110/110 109/109/109
f 111/111/111 107/107/107 97/97/97
f 112/112/112 111/111/111 97/97/97
f 113/113/113 112/112/112 100/100/100
f 113/113/113 111/111/111 112/112/112
f 114/114/114 113/113/113 100/100/100
f 101/101/101 114/114/114 100/100/100
f 114/114/114 101/101/101 115/115/115
f 116/116/116 114/114/114 115/115/115
f 110/110/110 117/117/117 109/109/109
f 117/117/117 118/118/118 109/109/109
f 118/118/118 119/119/119 109/109/109
f 119/119/119 118/118/118 120/120/120
f 118/118/118 121/121/121 120/120/120
f 104/104/104 119/119/119 120/120/120
f 102/102/102 104/104/104 120/120/120
f 123/123/123 113/113/113 122/122/122
f 124/124/124 123/123/123 122/122/122
f 117/117/117 126/126/126 125/125/125
f 127/127/127 117/117/117 125/125/125
f 130/130/130 129/129/129 128/128/128
f 131/131/131 130/130/130 128/128/128
f 130/130/130 132/132/132 129/129/129
f 132/132/132 133/133/133 129/129/129
f 131/131/131 128/128/128 134/134/134
f 135/135/135 131/131/131 134/134/134
f 132/132/132 137/137/137 136/136/136
f 138/138/138 132/132/132 136/136/136
f 140/140/140 135/135/135 139/139/139
f 141/141/141 140/140/140 139/139/139
f 144/144/144 143/143/143 142/142/142
f 145/145/145 144/144/144 142/142/142
f 146/146/146 144/144/144 145/145/145
f 147/147/147 146/146/146 145/145/145
f 142/142/142 143/143/143 148/148/148
f 149/149/149 142/142/142 148/148/148
f 151/151/151 149/149/149 150/150/150
f 152/152/152 151/151/151 150/150/150
f 147/147/147 154/154/154 153/153/153
f 155/155/155 147/147/147 153/153/153
f 158/158/158 157/157/157 156/156/156
f 159/159/159 158/158/158 156/156/156
f 162/162/162 161/161/161 160/160/160
f 163/163/163 162/162/162 160/160/160
f 166/166/166 165/165/165 164/164/164
f 167/167/167 166/166/166 164/164/164
f 165/165/165 166/166/166 168/168/168
f 166/166/166 169/169/169 168/168/168
f 172/172/172 171/171/171 170/170/170
f 175/175/175 174/174/174 173/173/173
f 178/178/178 177/177/177 176/176/176
f 179/179/179 178/178/178 176/176/176
f 182/182/182 181/181/181 180/180/180
f 183/183/183 182/182/182 180/180/180
f 186/186/186 185/185/185 184/184/184
f 187/187/187 186/186/186 184/184/184
