g m_sk_joystick_button
v 0.3926219 0.4556984 -0.08345432
v 0.3926219 0.5443016 -0.08345432
v 0.3666911 0.5443016 -0.1632613
v 0.3666911 0.4556984 -0.1632613
v 0.324734 0.5443016 -0.235933
v 0.324734 0.4556984 -0.235933
v 0.2685845 0.5443016 -0.2982933
v 0.2685845 0.4556984 -0.2982933
v 0.2006967 0.5443016 -0.3476168
v 0.2006967 0.4556984 -0.3476168
v 0.1240374 0.5443016 -0.3817477
v 0.1240374 0.4556984 -0.3817477
v 0.04195706 0.5443016 -0.3991944
v 0.04195706 0.4556984 -0.3991944
v -0.04195698 0.5443016 -0.3991944
v -0.04195698 0.4556984 -0.3991944
v -0.1240373 0.5443016 -0.3817477
v -0.1240373 0.4556984 -0.3817477
v -0.2006966 0.5443016 -0.3476168
v -0.2006966 0.4556984 -0.3476168
v -0.2685845 0.5443016 -0.2982933
v -0.2685845 0.4556984 -0.2982933
v -0.3247339 0.5443016 -0.235933
v -0.3247339 0.4556984 -0.235933
v -0.3666908 0.5443016 -0.1632614
v -0.3666908 0.4556984 -0.1632614
v -0.3926218 0.5443016 -0.08345439
v -0.3926218 0.4556984 -0.08345439
v -0.4013931 0.5443016 -5.694819E-08
v -0.4013931 0.4556984 -5.694819E-08
v -0.3926217 0.5443016 0.08345427
v -0.3926217 0.4556984 0.08345427
v -0.3926217 0.4556984 0.08345427
v -0.3926217 0.5443016 0.08345427
v -0.3666908 0.5443016 0.1632612
v -0.3666908 0.4556984 0.1632612
v -0.3247339 0.5443016 0.2359329
v -0.3247339 0.4556984 0.2359329
v -0.2685845 0.5443016 0.2982931
v -0.2685845 0.4556984 0.2982931
v -0.2006966 0.5443016 0.3476166
v -0.2006966 0.4556984 0.3476166
v -0.1240373 0.5443016 0.3817474
v -0.1240373 0.4556984 0.3817474
v -0.04195705 0.5443016 0.3991942
v -0.04195705 0.4556984 0.3991942
v 0.04195694 0.5443016 0.3991942
v 0.04195694 0.4556984 0.3991942
v 0.1240372 0.5443016 0.3817474
v 0.1240372 0.4556984 0.3817474
v 0.2006965 0.5443016 0.3476165
v 0.2006965 0.4556984 0.3476165
v 0.2685843 0.5443016 0.2982931
v 0.2685843 0.4556984 0.2982931
v 0.3247336 0.5443016 0.2359328
v 0.3247336 0.4556984 0.2359328
v 0.3666907 0.5443016 0.1632612
v 0.3666907 0.4556984 0.1632612
v 0.3926215 0.5443016 0.08345427
v 0.3926215 0.4556984 0.08345427
v 0.4013929 0.5443016 -2.106087E-08
v 0.4013929 0.4556984 -2.106087E-08
v 0.3926219 0.5443016 -0.08345432
v 0.3926219 0.4556984 -0.08345432
v 0.3708703 0.5681038 -0.07883085
v 6.90987E-09 0.5681034 1.042001E-08
v 0.346376 0.5681038 -0.1542165
v 0.3067435 0.5681038 -0.2228621
v 0.2537048 0.5681038 -0.2817676
v 0.1895779 0.5681038 -0.3283585
v 0.1171656 0.5681038 -0.3605985
v 0.03963263 0.5681038 -0.3770786
v -0.0396325 0.5681038 -0.3770786
v -0.1171655 0.5681038 -0.3605985
v -0.1895778 0.5681038 -0.3283585
v -0.2537046 0.5681038 -0.2817676
v -0.3067433 0.5681038 -0.2228621
v -0.3463759 0.5681038 -0.1542165
v -0.3708701 0.5681038 -0.07883091
v -0.3791556 0.5681038 -2.347913E-08
v -0.3708701 0.5681038 0.07883085
v -0.3463759 0.5681038 0.1542165
v 0.3587986 0.5595632 -0.1597474
v 0.3841713 0.5595631 -0.08165807
v 0.3177446 0.5595632 -0.2308549
v 0.2628037 0.5595632 -0.291873
v 0.196377 0.5595632 -0.3401348
v 0.1213677 0.5595632 -0.373531
v 0.04105401 0.5595632 -0.3906023
v -0.04105389 0.5595632 -0.3906023
v -0.1213676 0.5595632 -0.3735312
v -0.1963769 0.5595632 -0.3401348
v -0.2628036 0.5595632 -0.291873
v -0.3177445 0.5595632 -0.2308549
v -0.3587983 0.5595632 -0.1597474
v -0.3841711 0.5595632 -0.08165814
v -0.3927538 0.5595631 -4.043535E-08
v -0.3841711 0.5595632 0.08165805
v -0.3587984 0.5595632 0.1597473
v -0.3067433 0.5681038 0.2228621
v -0.2537046 0.5681038 0.2817675
v -0.1895778 0.5681038 0.3283584
v -0.1171655 0.5681038 0.3605983
v -0.03963257 0.5681038 0.3770785
v 0.03963252 0.5681038 0.3770785
v 0.1171655 0.5681038 0.3605983
v 0.1895777 0.5681038 0.3283583
v 0.2537045 0.5681038 0.2817675
v 0.3067432 0.5681038 0.222862
v 0.3463757 0.5681038 0.1542165
v 0.37087 0.5681038 0.07883085
v 0.3791554 0.5681038 1.042001E-08
v -0.3177445 0.5595632 0.2308548
v -0.2628036 0.5595632 0.2918728
v -0.1963769 0.5595632 0.3401347
v -0.1213676 0.5595632 0.3735308
v -0.04105397 0.5595631 0.3906021
v 0.0410539 0.5595631 0.3906021
v 0.1213675 0.5595632 0.3735308
v 0.1963768 0.5595632 0.3401345
v 0.2628034 0.5595632 0.2918728
v 0.3177443 0.5595631 0.2308548
v 0.3587982 0.5595632 0.1597473
v 0.3841709 0.5595632 0.08165804
v 0.3927535 0.5595632 -5.320428E-09
v -0.3247339 0.5443016 0.2359329
v -0.3666908 0.5443016 0.1632612
v -0.3926217 0.5443016 0.08345427
v -0.4013931 0.5443016 -5.694819E-08
v -0.3926218 0.5443016 -0.08345439
v -0.3666908 0.5443016 -0.1632614
v -0.3247339 0.5443016 -0.235933
v -0.2685845 0.5443016 -0.2982933
v -0.2006966 0.5443016 -0.3476168
v -0.1240373 0.5443016 -0.3817477
v -0.04195698 0.5443016 -0.3991944
v 0.04195706 0.5443016 -0.3991944
v 0.1240374 0.5443016 -0.3817477
v 0.2006967 0.5443016 -0.3476168
v 0.2685845 0.5443016 -0.2982933
v 0.324734 0.5443016 -0.235933
v 0.3666911 0.5443016 -0.1632613
v 0.3926219 0.5443016 -0.08345432
v 0.4013929 0.5443016 -2.106087E-08
v 0.3926215 0.5443016 0.08345427
v 0.3666907 0.5443016 0.1632612
v 0.3247336 0.5443016 0.2359328
v 0.2685843 0.5443016 0.2982931
v 0.2006965 0.5443016 0.3476165
v 0.1240372 0.5443016 0.3817474
v 0.04195694 0.5443016 0.3991942
v -0.04195705 0.5443016 0.3991942
v -0.1240373 0.5443016 0.3817474
v -0.2006966 0.5443016 0.3476166
v -0.2685845 0.5443016 0.2982931
vt 0.9811884 0.9063143
vt 0.9811884 0.8762539
vt 0.9462978 0.8762539
vt 0.9462978 0.9063143
vt 0.9114072 0.8762539
vt 0.9114072 0.9063143
vt 0.8765168 0.8762539
vt 0.8765168 0.9063143
vt 0.8416262 0.8762539
vt 0.8416262 0.9063143
vt 0.8067357 0.8762539
vt 0.8067357 0.9063143
vt 0.7718452 0.8762539
vt 0.7718452 0.9063143
vt 0.7369546 0.8762539
vt 0.7369546 0.9063143
vt 0.7020641 0.8762539
vt 0.7020641 0.9063143
vt 0.6671736 0.8762539
vt 0.6671736 0.9063143
vt 0.6322831 0.8762539
vt 0.6322831 0.9063143
vt 0.5973926 0.8762539
vt 0.5973926 0.9063143
vt 0.5625021 0.8762539
vt 0.5625021 0.9063143
vt 0.5276115 0.8762539
vt 0.5276115 0.9063143
vt 0.492721 0.8762539
vt 0.492721 0.9063143
vt 0.4578305 0.8762539
vt 0.4578305 0.9063143
vt 0.9798408 0.9812563
vt 0.9798408 0.9511959
vt 0.9449503 0.9511959
vt 0.9449503 0.9812563
vt 0.9100599 0.9511959
vt 0.9100599 0.9812563
vt 0.8751693 0.9511959
vt 0.8751693 0.9812563
vt 0.8402789 0.9511959
vt 0.8402789 0.9812563
vt 0.8053883 0.9511959
vt 0.8053883 0.9812563
vt 0.7704979 0.9511959
vt 0.7704979 0.9812563
vt 0.7356073 0.9511959
vt 0.7356073 0.9812563
vt 0.7007169 0.9511959
vt 0.7007169 0.9812563
vt 0.6658263 0.9511959
vt 0.6658263 0.9812563
vt 0.6309358 0.9511959
vt 0.6309358 0.9812563
vt 0.5960453 0.9511959
vt 0.5960453 0.9812563
vt 0.5611548 0.9511959
vt 0.5611548 0.9812563
vt 0.5262643 0.9511959
vt 0.5262643 0.9812563
vt 0.4913739 0.9511959
vt 0.4913739 0.9812563
vt 0.4564833 0.9511959
vt 0.4564833 0.9812563
vt 0.3920622 0.6965226
vt 0.2224888 0.7748495
vt 0.4046417 0.7334906
vt 0.4092602 0.7722661
vt 0.405716 0.8111544
vt 0.3941638 0.8484561
vt 0.3751086 0.8825409
vt 0.3493831 0.911919
vt 0.3181119 0.9353065
vt 0.2826614 0.9516813
vt 0.2445811 0.9603277
vt 0.2055352 0.9608678
vt 0.1672304 0.9532779
vt 0.1313405 0.9378901
vt 0.09943436 0.9153764
vt 0.07290623 0.8867211
vt 0.05291557 0.8531764
vt 0.0403361 0.8162085
vt 0.4119857 0.7318205
vt 0.3988986 0.6933621
vt 0.416791 0.7721593
vt 0.4131044 0.8126159
vt 0.4010869 0.8514218
vt 0.3812639 0.8868811
vt 0.3545015 0.9174442
vt 0.3219697 0.9417751
vt 0.2850901 0.9588106
vt 0.2454744 0.9678061
vt 0.2048542 0.9683685
vt 0.1650046 0.9604732
vt 0.1276675 0.9444652
vt 0.09447452 0.9210442
vt 0.06687631 0.8912339
vt 0.04607923 0.856337
vt 0.03299201 0.8178786
vt 0.03571755 0.777433
vt 0.03926183 0.7385447
vt 0.050814 0.7012429
vt 0.06986916 0.6671582
vt 0.09559458 0.6377801
vt 0.1268659 0.6143927
vt 0.1623163 0.5980179
vt 0.2003966 0.5893716
vt 0.2394424 0.5888314
vt 0.2777473 0.5964212
vt 0.3136371 0.6118093
vt 0.3455433 0.6343228
vt 0.3720714 0.6629781
vt 0.0281867 0.7775397
vt 0.0318734 0.7370833
vt 0.04389086 0.6982774
vt 0.06371391 0.6628181
vt 0.09047617 0.632255
vt 0.123008 0.6079241
vt 0.1598877 0.5908886
vt 0.1995033 0.5818932
vt 0.2401235 0.5813308
vt 0.2799729 0.589226
vt 0.3173101 0.605234
vt 0.3505031 0.628655
vt 0.3781013 0.6584653
vt 0.02071111 0.7776495
vt 0.0257026 0.8195403
vt 0.03929456 0.8594778
vt 0.06089301 0.8957168
vt 0.08955398 0.9266732
vt 0.1240248 0.9509941
vt 0.162799 0.9676169
vt 0.2041819 0.9758146
vt 0.246365 0.9752293
vt 0.2875046 0.9658864
vt 0.3258026 0.9481943
vt 0.3595853 0.9229261
vt 0.3873763 0.8911864
vt 0.4079609 0.8543621
vt 0.4204395 0.8140627
vt 0.4242666 0.7720496
vt 0.4192751 0.7301589
vt 0.4056831 0.6902213
vt 0.3840846 0.6539825
vt 0.3554236 0.6230261
vt 0.3209528 0.5987051
vt 0.2821786 0.5820825
vt 0.2407957 0.5738846
vt 0.1986127 0.57447
vt 0.1574732 0.5838128
vt 0.1191752 0.601505
vt 0.08539245 0.6267731
vt 0.05760148 0.6585128
vt 0.03701693 0.6953371
vt 0.02453834 0.7356365
vn 0.9781481 0 -0.2079095
vn 0.9735121 0.09724557 -0.2069241
vn 0.9092156 0.09724578 -0.404809
vn 0.9135454 0 -0.4067367
vn 0.8051826 0.09724557 -0.5849994
vn 0.809017 0 -0.5877852
vn 0.6659593 0.09724551 -0.7396225
vn 0.6691307 0 -0.7431448
vn 0.4976301 0.0972456 -0.8619208
vn 0.5 0 -0.8660254
vn 0.3075523 0.09724578 -0.9465489
vn 0.3090168 0 -0.9510565
vn 0.1040331 0.09724578 -0.9898083
vn 0.1045284 0 -0.9945219
vn -0.1040328 0.09724549 -0.9898084
vn -0.1045283 0 -0.9945219
vn -0.3075522 0.09724536 -0.946549
vn -0.3090167 0 -0.9510565
vn -0.4976303 0.09724571 -0.8619208
vn -0.5 0 -0.8660254
vn -0.6659593 0.09724601 -0.7396225
vn -0.6691307 0 -0.7431448
vn -0.8051828 0.09724575 -0.5849991
vn -0.8090171 0 -0.587785
vn -0.9092157 0.09724578 -0.4048087
vn -0.9135455 0 -0.4067365
vn -0.9735116 0.09724589 -0.2069265
vn -0.9781476 0 -0.2079118
vn -0.9952604 0.09724561 3.351369E-07
vn -1 0 3.818826E-07
vn -0.9735116 0.09724571 0.2069265
vn -0.9781476 0 0.2079119
vn -0.9781476 0 0.2079119
vn -0.9735116 0.09724571 0.2069265
vn -0.9092157 0.09724554 0.4048086
vn -0.9135455 0 0.4067364
vn -0.8051827 0.0972454 0.5849993
vn -0.8090171 0 0.5877852
vn -0.6659592 0.09724556 0.7396227
vn -0.6691306 0 0.7431449
vn -0.4976301 0.09724561 0.8619209
vn -0.4999999 0 0.8660255
vn -0.3075523 0.09724555 0.9465489
vn -0.3090169 0 0.9510565
vn -0.1040333 0.09724522 0.9898083
vn -0.1045287 0 0.9945219
vn 0.1040333 0.09724517 0.9898084
vn 0.1045287 0 0.9945219
vn 0.3075528 0.09724545 0.9465488
vn 0.3090174 0 0.9510565
vn 0.4976301 0.09724556 0.8619208
vn 0.5 0 0.8660254
vn 0.6659595 0.09724533 0.7396225
vn 0.6691309 0 0.7431445
vn 0.8051828 0.09724505 0.5849992
vn 0.8090171 0 0.5877851
vn 0.9092156 0.09724512 0.4048091
vn 0.9135453 0 0.4067368
vn 0.9735117 0.09724541 0.2069261
vn 0.9781477 0 0.2079115
vn 0.9952604 0.09724546 2.253581E-06
vn 1 0 2.234349E-06
vn 0.9735121 0.09724557 -0.2069241
vn 0.9781481 0 -0.2079095
vn 0 1 0
vn 0 1 0
vn 0 1 0
vn 0 1 0
vn 0 1 0
vn 0 1 0
vn 0 1 0
vn 0 1 0
vn 0 1 0
vn 0 1 0
vn 0 1 0
vn 0 1 0
vn 0 1 0
vn 0 1 0
vn 0 1 0
vn 0 1 0
vn 0 1 0
vn 0 1 0
vn 0.6117766 0.7426559 -0.2723811
vn 0.6550398 0.7426556 -0.1392316
vn 0.541777 0.7426558 -0.3936242
vn 0.4480992 0.7426556 -0.4976645
vn 0.3348367 0.7426556 -0.5799542
vn 0.2069406 0.7426562 -0.6368967
vn 0.07000005 0.7426559 -0.6660046
vn -0.06999962 0.7426559 -0.6660046
vn -0.2069404 0.7426565 -0.6368963
vn -0.3348367 0.7426564 -0.5799533
vn -0.4480985 0.7426566 -0.4976636
vn -0.5417764 0.7426568 -0.3936231
vn -0.6117762 0.7426566 -0.2723802
vn -0.6550385 0.7426564 -0.1392331
vn -0.6696729 0.7426562 0
vn -0.6550391 0.7426561 0.139233
vn -0.6117769 0.7426559 0.2723807
vn 0 1 0
vn 0 1 0
vn 0 1 0
vn 0 1 0
vn 0 1 0
vn 0 1 0
vn 0 1 0
vn 0 1 0
vn 0 1 0
vn 0 1 0
vn 0 1 0
vn 0 1 0
vn 0 1 0
vn -0.5417771 0.7426558 0.3936242
vn -0.4480989 0.7426556 0.4976646
vn -0.3348366 0.7426553 0.5799547
vn -0.2069405 0.7426554 0.6368977
vn -0.07000002 0.742655 0.6660057
vn 0.07000006 0.7426548 0.666006
vn 0.2069411 0.7426549 0.6368981
vn 0.3348373 0.7426548 0.579955
vn 0.4480995 0.7426551 0.4976648
vn 0.5417782 0.7426546 0.3936249
vn 0.611778 0.7426548 0.2723814
vn 0.6550403 0.742655 0.1392331
vn 0.6696739 0.7426553 1.386941E-06
vn -0.8051827 0.0972454 0.5849993
vn -0.9092157 0.09724554 0.4048086
vn -0.9735116 0.09724571 0.2069265
vn -0.9952604 0.09724561 3.351369E-07
vn -0.9735116 0.09724589 -0.2069265
vn -0.9092157 0.09724578 -0.4048087
vn -0.8051828 0.09724575 -0.5849991
vn -0.6659593 0.09724601 -0.7396225
vn -0.4976303 0.09724571 -0.8619208
vn -0.3075522 0.09724536 -0.946549
vn -0.1040328 0.09724549 -0.9898084
vn 0.1040331 0.09724578 -0.9898083
vn 0.3075523 0.09724578 -0.9465489
vn 0.4976301 0.0972456 -0.8619208
vn 0.6659593 0.09724551 -0.7396225
vn 0.8051826 0.09724557 -0.5849994
vn 0.9092156 0.09724578 -0.404809
vn 0.9735121 0.09724557 -0.2069241
vn 0.9952604 0.09724546 2.253581E-06
vn 0.9735117 0.09724541 0.2069261
vn 0.9092156 0.09724512 0.4048091
vn 0.8051828 0.09724505 0.5849992
vn 0.6659595 0.09724533 0.7396225
vn 0.4976301 0.09724556 0.8619208
vn 0.3075528 0.09724545 0.9465488
vn 0.1040333 0.09724517 0.9898084
vn -0.1040333 0.09724522 0.9898083
vn -0.3075523 0.09724555 0.9465489
vn -0.4976301 0.09724561 0.8619209
vn -0.6659592 0.09724556 0.7396227
g m_sk_joystick_button_0
f 3/3/3 2/2/2 1/1/1
f 4/4/4 3/3/3 1/1/1
f 5/5/5 3/3/3 4/4/4
f 6/6/6 5/5/5 4/4/4
f 7/7/7 5/5/5 6/6/6
f 8/8/8 7/7/7 6/6/6
f 9/9/9 7/7/7 8/8/8
f 10/10/10 9/9/9 8/8/8
f 11/11/11 9/9/9 10/10/10
f 12/12/12 11/11/11 10/10/10
f 13/13/13 11/11/11 12/12/12
f 14/14/14 13/13/13 12/12/12
f 15/15/15 13/13/13 14/14/14
f 16/16/16 15/15/15 14/14/14
f 17/17/17 15/15/15 16/16/16
f 18/18/18 17/17/17 16/16/16
f 19/19/19 17/17/17 18/18/18
f 20/20/20 19/19/19 18/18/18
f 21/21/21 19/19/19 20/20/20
f 22/22/22 21/21/21 20/20/20
f 23/23/23 21/21/21 22/22/22
f 24/24/24 23/23/23 22/22/22
f 25/25/25 23/23/23 24/24/24
f 26/26/26 25/25/25 24/24/24
f 27/27/27 25/25/25 26/26/26
f 28/28/28 27/27/27 26/26/26
f 29/29/29 27/27/27 28/28/28
f 30/30/30 29/29/29 28/28/28
f 31/31/31 29/29/29 30/30/30
f 32/32/32 31/31/31 30/30/30
f 35/35/35 34/34/34 33/33/33
f 36/36/36 35/35/35 33/33/33
f 37/37/37 35/35/35 36/36/36
f 38/38/38 37/37/37 36/36/36
f 39/39/39 37/37/37 38/38/38
f 40/40/40 39/39/39 38/38/38
f 41/41/41 39/39/39 40/40/40
f 42/42/42 41/41/41 40/40/40
f 43/43/43 41/41/41 42/42/42
f 44/44/44 43/43/43 42/42/42
f 45/45/45 43/43/43 44/44/44
f 46/46/46 45/45/45 44/44/44
f 47/47/47 45/45/45 46/46/46
f 48/48/48 47/47/47 46/46/46
f 49/49/49 47/47/47 48/48/48
f 50/50/50 49/49/49 48/48/48
f 51/51/51 49/49/49 50/50/50
f 52/52/52 51/51/51 50/50/50
f 53/53/53 51/51/51 52/52/52
f 54/54/54 53/53/53 52/52/52
f 55/55/55 53/53/53 54/54/54
f 56/56/56 55/55/55 54/54/54
f 57/57/57 55/55/55 56/56/56
f 58/58/58 57/57/57 56/56/56
f 59/59/59 57/57/57 58/58/58
f 60/60/60 59/59/59 58/58/58
f 61/61/61 59/59/59 60/60/60
f 62/62/62 61/61/61 60/60/60
f 63/63/63 61/61/61 62/62/62
f 64/64/64 63/63/63 62/62/62
f 67/67/67 66/66/66 65/65/65
f 68/68/68 66/66/66 67/67/67
f 69/69/69 66/66/66 68/68/68
f 70/70/70 66/66/66 69/69/69
f 71/71/71 66/66/66 70/70/70
f 72/72/72 66/66/66 71/71/71
f 73/73/73 66/66/66 72/72/72
f 74/74/74 66/66/66 73/73/73
f 75/75/75 66/66/66 74/74/74
f 76/76/76 66/66/66 75/75/75
f 77/77/77 66/66/66 76/76/76
f 78/78/78 66/66/66 77/77/77
f 79/79/79 66/66/66 78/78/78
f 80/80/80 66/66/66 79/79/79
f 81/81/81 66/66/66 80/80/80
f 82/82/82 66/66/66 81/81/81
f 68/68/68 67/67/67 83/83/83
f 83/83/83 67/67/67 84/84/84
f 67/67/67 65/65/65 84/84/84
f 85/85/85 68/68/68 83/83/83
f 69/69/69 68/68/68 85/85/85
f 86/86/86 69/69/69 85/85/85
f 70/70/70 69/69/69 86/86/86
f 87/87/87 70/70/70 86/86/86
f 71/71/71 70/70/70 87/87/87
f 88/88/88 71/71/71 87/87/87
f 72/72/72 71/71/71 88/88/88
f 89/89/89 72/72/72 88/88/88
f 73/73/73 72/72/72 89/89/89
f 90/90/90 73/73/73 89/89/89
f 74/74/74 73/73/73 90/90/90
f 91/91/91 74/74/74 90/90/90
f 75/75/75 74/74/74 91/91/91
f 92/92/92 75/75/75 91/91/91
f 76/76/76 75/75/75 92/92/92
f 93/93/93 76/76/76 92/92/92
f 77/77/77 76/76/76 93/93/93
f 94/94/94 77/77/77 93/93/93
f 78/78/78 77/77/77 94/94/94
f 95/95/95 78/78/78 94/94/94
f 79/79/79 78/78/78 95/95/95
f 96/96/96 79/79/79 95/95/95
f 80/80/80 79/79/79 96/96/96
f 97/97/97 80/80/80 96/96/96
f 81/81/81 80/80/80 97/97/97
f 98/98/98 81/81/81 97/97/97
f 82/82/82 81/81/81 98/98/98
f 99/99/99 82/82/82 98/98/98
f 100/100/100 82/82/82 99/99/99
f 100/100/100 66/66/66 82/82/82
f 101/101/101 66/66/66 100/100/100
f 102/102/102 66/66/66 101/101/101
f 103/103/103 66/66/66 102/102/102
f 104/104/104 66/66/66 103/103/103
f 105/105/105 66/66/66 104/104/104
f 106/106/106 66/66/66 105/105/105
f 107/107/107 66/66/66 106/106/106
f 108/108/108 66/66/66 107/107/107
f 109/109/109 66/66/66 108/108/108
f 110/110/110 66/66/66 109/109/109
f 111/111/111 66/66/66 110/110/110
f 112/112/112 66/66/66 111/111/111
f 65/65/65 66/66/66 112/112/112
f 113/113/113 100/100/100 99/99/99
f 101/101/101 100/100/100 113/113/113
f 114/114/114 101/101/101 113/113/113
f 102/102/102 101/101/101 114/114/114
f 115/115/115 102/102/102 114/114/114
f 103/103/103 102/102/102 115/115/115
f 116/116/116 103/103/103 115/115/115
f 104/104/104 103/103/103 116/116/116
f 117/117/117 104/104/104 116/116/116
f 105/105/105 104/104/104 117/117/117
f 118/118/118 105/105/105 117/117/117
f 106/106/106 105/105/105 118/118/118
f 119/119/119 106/106/106 118/118/118
f 107/107/107 106/106/106 119/119/119
f 120/120/120 107/107/107 119/119/119
f 108/108/108 107/107/107 120/120/120
f 121/121/121 108/108/108 120/120/120
f 109/109/109 108/108/108 121/121/121
f 122/122/122 109/109/109 121/121/121
f 110/110/110 109/109/109 122/122/122
f 123/123/123 110/110/110 122/122/122
f 111/111/111 110/110/110 123/123/123
f 124/124/124 111/111/111 123/123/123
f 112/112/112 111/111/111 124/124/124
f 125/125/125 112/112/112 124/124/124
f 65/65/65 112/112/112 125/125/125
f 84/84/84 65/65/65 125/125/125
f 114/114/114 113/113/113 126/126/126
f 126/126/126 113/113/113 127/127/127
f 113/113/113 99/99/99 127/127/127
f 127/127/127 99/99/99 128/128/128
f 99/99/99 98/98/98 128/128/128
f 128/128/128 98/98/98 129/129/129
f 98/98/98 97/97/97 129/129/129
f 129/129/129 97/97/97 130/130/130
f 97/97/97 96/96/96 130/130/130
f 130/130/130 96/96/96 131/131/131
f 96/96/96 95/95/95 131/131/131
f 131/131/131 95/95/95 132/132/132
f 95/95/95 94/94/94 132/132/132
f 132/132/132 94/94/94 133/133/133
f 94/94/94 93/93/93 133/133/133
f 133/133/133 93/93/93 134/134/134
f 93/93/93 92/92/92 134/134/134
f 134/134/134 92/92/92 135/135/135
f 92/92/92 91/91/91 135/135/135
f 135/135/135 91/91/91 136/136/136
f 91/91/91 90/90/90 136/136/136
f 136/136/136 90/90/90 137/137/137
f 90/90/90 89/89/89 137/137/137
f 137/137/137 89/89/89 138/138/138
f 89/89/89 88/88/88 138/138/138
f 138/138/138 88/88/88 139/139/139
f 88/88/88 87/87/87 139/139/139
f 139/139/139 87/87/87 140/140/140
f 87/87/87 86/86/86 140/140/140
f 140/140/140 86/86/86 141/141/141
f 86/86/86 85/85/85 141/141/141
f 141/141/141 85/85/85 142/142/142
f 85/85/85 83/83/83 142/142/142
f 142/142/142 83/83/83 143/143/143
f 83/83/83 84/84/84 143/143/143
f 143/143/143 84/84/84 144/144/144
f 84/84/84 125/125/125 144/144/144
f 144/144/144 125/125/125 145/145/145
f 125/125/125 124/124/124 145/145/145
f 145/145/145 124/124/124 146/146/146
f 124/124/124 123/123/123 146/146/146
f 146/146/146 123/123/123 147/147/147
f 123/123/123 122/122/122 147/147/147
f 147/147/147 122/122/122 148/148/148
f 122/122/122 121/121/121 148/148/148
f 148/148/148 121/121/121 149/149/149
f 121/121/121 120/120/120 149/149/149
f 149/149/149 120/120/120 150/150/150
f 120/120/120 119/119/119 150/150/150
f 150/150/150 119/119/119 151/151/151
f 119/119/119 118/118/118 151/151/151
f 151/151/151 118/118/118 152/152/152
f 118/118/118 117/117/117 152/152/152
f 152/152/152 117/117/117 153/153/153
f 117/117/117 116/116/116 153/153/153
f 153/153/153 116/116/116 154/154/154
f 116/116/116 115/115/115 154/154/154
f 154/154/154 115/115/115 155/155/155
f 115/115/115 114/114/114 155/155/155
f 155/155/155 114/114/114 126/126/126
