g m_sp_cliff_edge_07
v -0.6 -1.81431E-08 0.5750635
v -0.4714226 -1.81431E-08 0.5689497
v -0.4695368 -0.01244103 0.5904237
v -0.6 -0.01244103 0.5966594
v -0.6 0 1.136868E-15
v -0.3612382 -1.81431E-08 0.5551507
v -0.07835758 -1.81431E-08 0.3377579
v -0.07097045 -1.81431E-08 0.3317648
v -0.04080439 -1.81431E-08 0.184527
v -0.02493645 3.721544E-09 1.136868E-15
v -0.003340617 -0.01244102 1.136868E-15
v -0.01946397 -0.01244103 0.187727
v -0.05048238 -0.01244103 0.3391254
v -0.3477637 -0.01244103 0.5763324
v -0.06363337 -0.01244103 0.3554083
v -0.4694469 -0.8031279 0.5441576
v -0.4873379 -0.7805016 0.5690292
v -0.4700827 -0.03599441 0.5897678
v -0.3514952 -0.03668827 0.5753458
v -0.06470121 -0.04332921 0.3551147
v -0.09845506 -1.019684 0.3458323
v -0.3519093 -1.544888 0.4426244
v -0.1373001 -1.537093 0.4205658
v -0.3833877 -1.569311 0.5110991
v -0.3910173 -1.57523 0.5276951
v -0.6 -1.542808 0.489343
v -0.6 -0.767477 0.5581126
v -0.6 -2.399339 0.6366888
v -0.484248 -2.399339 0.5944453
v -0.4534629 -2.399339 0.5914911
v -0.3415546 -2.399339 0.5755026
v -0.08775193 -1.018929 0.3267441
v -0.1407457 -1.551156 0.3768608
v -0.6 -0.03661123 0.5954254
v -0.105606 -2.399339 0.4041968
v -0.06363337 -0.01244103 0.3554083
v -0.3477637 -0.01244103 0.5763324
v -0.4695368 -0.01244103 0.5904237
v -0.6 -0.01244103 0.5966594
v -0.04188751 -0.767477 1.136868E-15
v -0.06181898 -1.008573 0.2440456
v -0.02076283 -0.04298847 0.189454
v -0.004574576 -0.03661122 1.136868E-15
v -0.03591888 -1.56114 0.24998
v -0.1106571 -1.542808 1.136868E-15
v -0.04533766 -1.559012 0.2792645
v -0.01616275 -2.399339 0.188222
v -0.006028827 -2.399339 0.1521318
v -0.1407457 -1.551156 0.3768608
v -0.05427262 -2.399339 0.3500775
v -0.105606 -2.399339 0.4041968
v -0.1373001 -1.537093 0.4205658
v -0.09845506 -1.019684 0.3458323
v -0.08775193 -1.018929 0.3267441
v 0.03668881 -2.399339 1.136868E-15
v -0.05162529 -0.04330603 0.3387457
v -0.06470121 -0.04332921 0.3551147
v -0.01946397 -0.01244103 0.187727
v -0.003340617 -0.01244102 1.136868E-15
v -0.05048238 -0.01244103 0.3391254
v -0.06363337 -0.01244103 0.3554083
v -0.01616275 -2.399339 0.188222
v 1.962186 -2.399339 0.5001267
v 1.625523 -2.399339 1.235907
v -0.05427262 -2.399339 0.3500775
v -0.006028827 -2.399339 0.1521318
v 1.962186 -2.399339 0.5001267
v 1.980847 -2.399339 0.3921971
v 0.03668881 -2.399339 1.136868E-15
v 2.036689 -2.399339 1.136868E-15
v -0.05427262 -2.399339 0.3500775
v 1.625523 -2.399339 1.235907
v 1.253998 -2.399339 1.797628
v -0.105606 -2.399339 0.4041968
v -0.3415546 -2.399339 0.5755026
v 0.2670802 -2.399339 2.352937
v -0.2505159 -2.399339 2.570217
v -0.4534629 -2.399339 0.5914911
v -0.2505159 -2.399339 2.570217
v -0.3670115 -2.399339 2.601803
v -0.484248 -2.399339 0.5944453
v -0.484248 -2.399339 0.5944453
v -0.3670115 -2.399339 2.601803
v -0.6 -2.399339 2.636689
v -0.6 -2.399339 0.6366888
v -0.105606 -2.399339 0.4041968
v 1.253998 -2.399339 1.797628
v 0.2670802 -2.399339 2.352937
v -0.3415546 -2.399339 0.5755026
vt 3.659725E-05 0.5205078
vt 0.1070557 0.5258789
vt 0.1086426 0.5078125
vt 3.659725E-05 0.5029297
vt 3.689528E-05 1
vt 0.1988525 0.5371094
vt 0.4345703 0.7182617
vt 0.440918 0.7236328
vt 0.4660645 0.8461914
vt 0.479248 1
vt 0.4973145 1
vt 0.4838867 0.8432617
vt 0.4580078 0.7172852
vt 0.210083 0.5195313
vt 0.4470215 0.7036133
vt 0.03900146 0.5649414
vt 0.03082275 0.5732422
vt 0.03408813 0.8945313
vt 0.06494141 0.8945313
vt 0.1583252 0.8945313
vt 0.154541 0.489502
vt 0.07727051 0.3061523
vt 0.1318359 0.3068848
vt 0.05813599 0.2966309
vt 0.05343628 0.2939453
vt -1.192093E-06 0.3059082
vt -1.192093E-06 0.5727539
vt 0 0.01233673
vt 0.02238464 0.01233673
vt 0.02806091 0.01233673
vt 0.0491333 0.01233673
vt 0.1605225 0.4899902
vt 0.1422119 0.296875
vt -5.960464E-08 0.8950195
vt 0.1312256 0.01233673
vt 0.1585693 0.9155273
vt 0.06591797 0.9155273
vt 0.03445435 0.9155273
vt 0 0.9155273
vt 0.2519531 0.5727539
vt 0.1842041 0.4882813
vt 0.2036133 0.8945313
vt 0.2519531 0.8950195
vt 0.1845703 0.2924805
vt 0.2519531 0.3059082
vt 0.1767578 0.2932129
vt 0.1986084 0.01233673
vt 0.2089844 0.01233673
vt 0.1422119 0.296875
vt 0.1522217 0.01233673
vt 0.1312256 0.01233673
vt 0.1318359 0.3068848
vt 0.154541 0.489502
vt 0.1605225 0.4899902
vt 0.2519531 0.01233673
vt 0.1638184 0.8945313
vt 0.1583252 0.8945313
vt 0.2039795 0.9155273
vt 0.2519531 0.9155273
vt 0.1639404 0.9155273
vt 0.1585693 0.9155273
vt -0.6191406 -7.152557E-07
vt -0.6191406 -1
vt -0.6831055 -1
vt -0.6831055 -1.013279E-06
vt -0.5551758 -6.556511E-07
vt -0.6191406 -1
vt -0.5551758 -1
vt -0.5 -5.960464E-08
vt -0.5 -1
vt -0.6831055 -1.013279E-06
vt -0.6831055 -1
vt -0.7470703 -1
vt -0.7470703 -1.013279E-06
vt -0.8110352 -7.748604E-07
vt -0.8110352 -1
vt -0.875 -1
vt -0.875 -2.980232E-07
vt -0.875 -1
vt -0.9389648 -1
vt -0.9389648 -2.384186E-07
vt -0.9389648 -2.384186E-07
vt -0.9389648 -1
vt -1 -1
vt -1 2.384186E-07
vt -0.7470703 -1.013279E-06
vt -0.7470703 -1
vt -0.8110352 -1
vt -0.8110352 -7.748604E-07
vn 0 1 0
vn 0 1 0
vn 0.07092889 0.4872491 0.8703777
vn 0 0.3947881 0.9187722
vn 0 1 0
vn 0 1 0
vn 0 1 0
vn 0 1 0
vn 0 1 0
vn 0 1 0
vn 0.9187692 0.3947951 0
vn 0.8933361 0.4317737 0.1245879
vn 0.8877771 0.398041 0.2311173
vn 0.4673727 0.4533033 0.7589985
vn 0.5476297 0.4705824 0.6918482
vn 0.4971733 -0.04591037 0.8664357
vn 0.01055777 -0.06002557 0.9981411
vn 0.08855308 -0.04622344 0.9949983
vn 0.4918315 -0.06438984 0.8683063
vn 0.5427665 -0.06384306 0.8374536
vn 0.4862794 -0.03478196 0.8731108
vn 0.4247613 0.04645852 0.9041125
vn 0.455178 0.03535288 0.8896983
vn 0.6335847 0.08616623 0.76886
vn 0.03654447 0.04194199 0.9984515
vn 0 0.06110193 0.9981316
vn 0 -0.03199961 0.9994879
vn 0 0.09619637 0.9953625
vn 0.06629594 0.1172714 0.9908846
vn 0.4840525 0.07940987 0.8714283
vn 0.419088 0.07715433 0.9046615
vn 0.928686 -0.02092346 0.3702764
vn 0.8888725 0.02519102 0.4574616
vn 0 0 1
vn 0.5069546 0.07068241 0.8590698
vn 0.5476297 0.4705824 0.6918482
vn 0.4673727 0.4533033 0.7589985
vn 0.07092889 0.4872491 0.8703777
vn 0 0.3947881 0.9187722
vn 0.9994884 -0.03198363 0
vn 0.9973049 -0.0305158 0.06672169
vn 0.991419 -0.04036826 0.1243333
vn 1 0 0
vn 0.9976509 0.03776075 -0.05715611
vn 0.9981325 0.06108571 0
vn 0.8877731 0.02348179 0.4596818
vn 0.9063327 0.02327118 0.4219237
vn 0.9949956 0.095472 -0.02947585
vn 0.8888725 0.02519102 0.4574616
vn 0.8919857 0.0347048 0.4507294
vn 0.5069546 0.07068241 0.8590698
vn 0.455178 0.03535288 0.8896983
vn 0.4862794 -0.03478196 0.8731108
vn 0.928686 -0.02092346 0.3702764
vn 0.9953666 0.09615242 0
vn 0.9576905 -0.03408983 0.2857741
vn 0.5427665 -0.06384306 0.8374536
vn 0.8933361 0.4317737 0.1245879
vn 0.9187692 0.3947951 0
vn 0.8877771 0.398041 0.2311173
vn 0.5476297 0.4705824 0.6918482
vn 0 1 4.186139E-07
vn 0 1 4.186138E-07
vn 0 1 4.186139E-07
vn 0 1 4.186139E-07
vn 0 1 7.122239E-07
vn 0 1 -2.661999E-06
vn 0 1 7.122239E-07
vn 0 1 7.122238E-07
vn 0 1 7.122239E-07
vn 0 1 -5.51032E-07
vn 0 1 -5.51032E-07
vn 0 1 -5.510321E-07
vn 0 1 -5.51032E-07
vn 0 1 1.529562E-07
vn 0 1 1.529562E-07
vn 0 1 1.529561E-07
vn 0 1 1.529562E-07
vn 0 1 0
vn 0 1 0
vn 0 1 0
vn 0 1 0
vn 0 1 0
vn 0 1 0
vn 0 1 0
vn 0 1 0
vn 0 1 0
vn 0 1 0
vn 0 1 0
g m_sp_cliff_edge_07_0
f 3/3/3 2/2/2 1/1/1
f 4/4/4 3/3/3 1/1/1
f 1/1/1 2/2/2 5/5/5
f 5/5/5 2/2/2 6/6/6
f 2/2/2 3/3/3 6/6/6
f 7/7/7 5/5/5 6/6/6
f 7/7/7 8/8/8 5/5/5
f 8/8/8 9/9/9 5/5/5
f 9/9/9 10/10/10 5/5/5
f 11/11/11 10/10/10 9/9/9
f 12/12/12 11/11/11 9/9/9
f 9/9/9 8/8/8 13/13/13
f 12/12/12 9/9/9 13/13/13
f 13/13/13 8/8/8 7/7/7
f 3/3/3 14/14/14 6/6/6
f 15/15/15 7/7/7 6/6/6
f 14/14/14 15/15/15 6/6/6
f 15/15/15 13/13/13 7/7/7
g m_sp_cliff_edge_07_1
f 18/18/18 17/17/17 16/16/16
f 19/19/19 18/18/18 16/16/16
f 20/20/20 19/19/19 16/16/16
f 21/21/21 20/20/20 16/16/16
f 21/21/21 16/16/16 22/22/22
f 23/23/23 21/21/21 22/22/22
f 16/16/16 24/24/24 22/22/22
f 25/25/25 24/24/24 16/16/16
f 17/17/17 25/25/25 16/16/16
f 26/26/26 25/25/25 17/17/17
f 27/27/27 26/26/26 17/17/17
f 27/27/27 17/17/17 18/18/18
f 26/26/26 28/28/28 25/25/25
f 28/28/28 29/29/29 25/25/25
f 25/25/25 29/29/29 24/24/24
f 24/24/24 30/30/30 22/22/22
f 29/29/29 30/30/30 24/24/24
f 30/30/30 31/31/31 22/22/22
f 23/23/23 22/22/22 31/31/31
f 20/20/20 21/21/21 32/32/32
f 33/33/33 32/32/32 21/21/21
f 34/34/34 27/27/27 18/18/18
f 35/35/35 23/23/23 31/31/31
f 20/20/20 36/36/36 19/19/19
f 36/36/36 37/37/37 19/19/19
f 19/19/19 37/37/37 18/18/18
f 37/37/37 38/38/38 18/18/18
f 34/34/34 18/18/18 38/38/38
f 39/39/39 34/34/34 38/38/38
f 42/42/42 41/41/41 40/40/40
f 43/43/43 42/42/42 40/40/40
f 41/41/41 44/44/44 40/40/40
f 44/44/44 45/45/45 40/40/40
f 41/41/41 46/46/46 44/44/44
f 44/44/44 46/46/46 47/47/47
f 48/48/48 44/44/44 47/47/47
f 44/44/44 48/48/48 45/45/45
f 46/46/46 49/49/49 47/47/47
f 49/49/49 50/50/50 47/47/47
f 51/51/51 50/50/50 49/49/49
f 52/52/52 51/51/51 49/49/49
f 52/52/52 49/49/49 53/53/53
f 46/46/46 41/41/41 54/54/54
f 49/49/49 46/46/46 54/54/54
f 48/48/48 55/55/55 45/45/45
f 41/41/41 42/42/42 56/56/56
f 54/54/54 41/41/41 56/56/56
f 56/56/56 57/57/57 54/54/54
f 58/58/58 42/42/42 43/43/43
f 59/59/59 58/58/58 43/43/43
f 56/56/56 60/60/60 57/57/57
f 42/42/42 58/58/58 60/60/60
f 56/56/56 42/42/42 60/60/60
f 60/60/60 61/61/61 57/57/57
g m_sp_cliff_edge_07_2
f 64/64/64 63/63/63 62/62/62
f 65/65/65 64/64/64 62/62/62
f 62/62/62 67/67/67 66/66/66
f 67/67/67 68/68/68 66/66/66
f 66/66/66 68/68/68 69/69/69
f 68/68/68 70/70/70 69/69/69
f 73/73/73 72/72/72 71/71/71
f 74/74/74 73/73/73 71/71/71
f 77/77/77 76/76/76 75/75/75
f 78/78/78 77/77/77 75/75/75
f 80/80/80 79/79/79 78/78/78
f 81/81/81 80/80/80 78/78/78
f 84/84/84 83/83/83 82/82/82
f 85/85/85 84/84/84 82/82/82
f 88/88/88 87/87/87 86/86/86
f 89/89/89 88/88/88 86/86/86
