g m_sp_pressure_switch_base_01
v -0.8562435 0.008222814 0.7204551
v -0.8481628 0.008222814 0.7740105
v -0.8663661 0.004910519 0.7830241
v -0.8765358 0.004508543 0.7250367
v -0.8812587 -0.004615841 0.7938723
v -0.893212 -0.005975936 0.7344611
v -0.9561066 -0.06675721 0.7861773
v -0.9448003 -0.06675721 0.851113
v -0.8432678 -0.004203933 0.8492658
v -0.9045024 -0.06675721 0.9109359
v -0.8940354 -0.006771691 -1.91411E-16
v -0.9561066 -0.06675721 -1.767712E-16
v -1.727367E-18 0.008222814 0.8651794
v -7.105427E-17 0.008222814 0
v -0.8569424 0.008222814 -1.902794E-16
v -0.8158504 0.008222814 0.8219912
v -0.7681738 0.008222814 0.8551678
v -0.7120855 0.008222814 0.8644456
v -0.7167149 0.0045438 0.8847542
v -0.7773608 0.004929342 0.8732939
v -0.7260063 -0.005856525 0.9014416
v -0.7881784 -0.00455371 0.8881839
v -0.8450696 -0.06675721 0.9522935
v -0.7772348 -0.06675721 0.9650491
v 0 -0.006685391 0.9023073
v 0 -0.06675721 0.9650491
v -0.830312 0.005039294 0.8363044
v -4.479723E-19 0.004356546 0.885184
v -0.893212 -0.005975936 -0.7344611
v -0.8812587 -0.004615841 -0.7938723
v -0.8663661 0.004910519 -0.7830241
v -0.8765358 0.004508543 -0.7250367
v -0.8481628 0.008222814 -0.7740105
v -0.8562435 0.008222814 -0.7204551
v -0.9561066 -0.06675721 -0.7861773
v -0.9448003 -0.06675721 -0.851113
v -0.8432678 -0.004203933 -0.8492658
v -0.9045024 -0.06675721 -0.9109359
v -0.8940354 -0.006771691 -1.91411E-16
v -0.9561066 -0.06675721 -1.767712E-16
v -7.105427E-17 0.008222814 0
v -0.8158504 0.008222814 -0.8219912
v -0.7681738 0.008222814 -0.8551678
v -0.7120855 0.008222814 -0.8644456
v -0.7773608 0.004929342 -0.8732939
v -0.7167149 0.0045438 -0.8847542
v -0.7881784 -0.00455371 -0.8881839
v -0.7260063 -0.005856525 -0.9014416
v -0.8450696 -0.06675721 -0.9522935
v -0.7772348 -0.06675721 -0.9650491
v 0 -0.006685391 -0.9023073
v 0 -0.06675721 -0.9650491
v -1.727367E-18 0.008222814 -0.8651794
v -0.830312 0.005039294 -0.8363044
v -4.479723E-19 0.004356546 -0.885184
v 0.893212 -0.005975936 0.7344611
v 0.8812587 -0.004615841 0.7938723
v 0.8663661 0.004910519 0.7830241
v 0.8765358 0.004508543 0.7250367
v 0.8481628 0.008222814 0.7740105
v 0.8562435 0.008222814 0.7204551
v 0.9561066 -0.06675721 0.7861773
v 0.9448003 -0.06675721 0.851113
v 0.8432678 -0.004203933 0.8492658
v 0.9045024 -0.06675721 0.9109359
v 0.8940354 -0.006771691 -2.04469E-16
v 0.9561066 -0.06675721 -1.767712E-16
v -1.727367E-18 0.008222814 0.8651794
v -7.105427E-17 0.008222814 0
v 0.8569424 0.008222814 -2.062006E-16
v 0.8158504 0.008222814 0.8219912
v 0.7681738 0.008222814 0.8551678
v 0.7120855 0.008222814 0.8644456
v 0.7773608 0.004929342 0.8732939
v 0.7167149 0.0045438 0.8847542
v 0.7881784 -0.00455371 0.8881839
v 0.7260063 -0.005856525 0.9014416
v 0.8450696 -0.06675721 0.9522935
v 0.7772348 -0.06675721 0.9650491
v 0 -0.006685391 0.9023073
v 0 -0.06675721 0.9650491
v 0.830312 0.005039294 0.8363044
v -4.479723E-19 0.004356546 0.885184
v 0.8562435 0.008222814 -0.7204551
v 0.8481628 0.008222814 -0.7740105
v 0.8663661 0.004910519 -0.7830241
v 0.8765358 0.004508543 -0.7250367
v 0.8812587 -0.004615841 -0.7938723
v 0.893212 -0.005975936 -0.7344611
v 0.9561066 -0.06675721 -0.7861773
v 0.9448003 -0.06675721 -0.851113
v 0.8432678 -0.004203933 -0.8492658
v 0.9045024 -0.06675721 -0.9109359
v 0.8940354 -0.006771691 -2.04469E-16
v 0.9561066 -0.06675721 -1.767712E-16
v -7.105427E-17 0.008222814 0
v 0.8158504 0.008222814 -0.8219912
v 0.7681738 0.008222814 -0.8551678
v 0.7120855 0.008222814 -0.8644456
v 0.7167149 0.0045438 -0.8847542
v 0.7773608 0.004929342 -0.8732939
v 0.7260063 -0.005856525 -0.9014416
v 0.7881784 -0.00455371 -0.8881839
v 0.8450696 -0.06675721 -0.9522935
v 0.7772348 -0.06675721 -0.9650491
v 0 -0.006685391 -0.9023073
v 0 -0.06675721 -0.9650491
v -1.727367E-18 0.008222814 -0.8651794
v 0.830312 0.005039294 -0.8363044
v -4.479723E-19 0.004356546 -0.885184
v -0.8569424 0.008222814 -1.902794E-16
v -0.8769469 0.004332412 -1.92878E-16
v 0.8569424 0.008222814 -2.062006E-16
v 0.8769469 0.004332412 -2.082492E-16
v -0.8769469 0.004332412 -1.92878E-16
v 0.8769469 0.004332412 -2.082492E-16
vt 0.7314453 0.1469727
vt 0.7802734 0.1572266
vt 0.7885742 0.1380615
vt 0.7348633 0.1248169
vt 0.793457 0.1286621
vt 0.737793 0.1126099
vt 0.7495117 0.06048584
vt 0.8173828 0.08288574
vt 0.8457031 0.1665039
vt 0.8823242 0.128418
vt 0.04959106 0.0770874
vt 0.05514526 0.022995
vt 0.8876953 0.9604492
vt 0.02314758 0.9677734
vt 0.0475769 0.1121216
vt 0.8237305 0.1887207
vt 0.8554688 0.2325439
vt 0.8662109 0.2832031
vt 0.8886719 0.2802734
vt 0.875 0.2243652
vt 0.9008789 0.2775879
vt 0.8842773 0.2189941
vt 0.9296875 0.192749
vt 0.9536133 0.265625
vt 0.9223633 0.9589844
vt 0.9770508 0.9541016
vt 0.8383789 0.1740723
vt 0.9091797 0.9604492
vt 0.737793 0.1126099
vt 0.793457 0.1286621
vt 0.7885742 0.1380615
vt 0.7348633 0.1248169
vt 0.7802734 0.1572266
vt 0.7314453 0.1469727
vt 0.7495117 0.06048584
vt 0.8173828 0.08288574
vt 0.8457031 0.1665039
vt 0.8823242 0.128418
vt 0.04959106 0.0770874
vt 0.05514526 0.022995
vt 0.02314758 0.9677734
vt 0.8237305 0.1887207
vt 0.8554688 0.2325439
vt 0.8662109 0.2832031
vt 0.875 0.2243652
vt 0.8886719 0.2802734
vt 0.8842773 0.2189941
vt 0.9008789 0.2775879
vt 0.9296875 0.192749
vt 0.9536133 0.265625
vt 0.9223633 0.9589844
vt 0.9770508 0.9541016
vt 0.8876953 0.9604492
vt 0.8383789 0.1740723
vt 0.9091797 0.9604492
vt 0.737793 0.1126099
vt 0.793457 0.1286621
vt 0.7885742 0.1380615
vt 0.7348633 0.1248169
vt 0.7802734 0.1572266
vt 0.7314453 0.1469727
vt 0.7495117 0.06048584
vt 0.8173828 0.08288574
vt 0.8457031 0.1665039
vt 0.8823242 0.128418
vt 0.04959106 0.0770874
vt 0.05514526 0.022995
vt 0.8876953 0.9604492
vt 0.02314758 0.9677734
vt 0.0475769 0.1121216
vt 0.8237305 0.1887207
vt 0.8554688 0.2325439
vt 0.8662109 0.2832031
vt 0.875 0.2243652
vt 0.8886719 0.2802734
vt 0.8842773 0.2189941
vt 0.9008789 0.2775879
vt 0.9296875 0.192749
vt 0.9536133 0.265625
vt 0.9223633 0.9589844
vt 0.9770508 0.9541016
vt 0.8383789 0.1740723
vt 0.9091797 0.9604492
vt 0.7314453 0.1469727
vt 0.7802734 0.1572266
vt 0.7885742 0.1380615
vt 0.7348633 0.1248169
vt 0.793457 0.1286621
vt 0.737793 0.1126099
vt 0.7495117 0.06048584
vt 0.8173828 0.08288574
vt 0.8457031 0.1665039
vt 0.8823242 0.128418
vt 0.04959106 0.0770874
vt 0.05514526 0.022995
vt 0.02314758 0.9677734
vt 0.8237305 0.1887207
vt 0.8554688 0.2325439
vt 0.8662109 0.2832031
vt 0.8886719 0.2802734
vt 0.875 0.2243652
vt 0.9008789 0.2775879
vt 0.8842773 0.2189941
vt 0.9296875 0.192749
vt 0.9536133 0.265625
vt 0.9223633 0.9589844
vt 0.9770508 0.9541016
vt 0.8876953 0.9604492
vt 0.8383789 0.1740723
vt 0.9091797 0.9604492
vt 0.0475769 0.1121216
vt 0.04821777 0.09057617
vt 0.0475769 0.1121216
vt 0.04821777 0.09057617
vt 0.04821777 0.09057617
vt 0.04821777 0.09057617
vn 0 1 0
vn 0 1 0
vn -0.323954 0.9383551 0.1205964
vn -0.3977856 0.9174729 0.003201278
vn -0.5562229 0.8030928 0.2136773
vn -0.6759757 0.7368997 0.005966616
vn -0.6877632 0.7257468 0.01653699
vn -0.5486429 0.7961359 0.2552616
vn -0.4044426 0.8233843 0.398076
vn -0.4155575 0.8116105 0.4106098
vn -0.6686232 0.7436014 0
vn -0.6949226 0.7190846 0
vn 0 1 0
vn 0 1 0
vn 0 1 0
vn 0 1 0
vn 0 1 0
vn 0 1 0
vn -0.003705545 0.9187749 0.3947643
vn -0.1238705 0.938956 0.3209639
vn -0.006833674 0.740285 0.6722584
vn -0.2188539 0.8052087 0.5511279
vn -0.2585109 0.7978055 0.544682
vn -0.0183596 0.7295322 0.6837
vn 0 0.7464387 0.6654541
vn 0 0.722309 0.6915705
vn -0.2351475 0.9440327 0.2313177
vn 0 0.9309378 0.3651777
vn -0.6759757 0.7368998 -0.005966619
vn -0.5562227 0.803093 -0.2136772
vn -0.3239541 0.9383551 -0.1205963
vn -0.3977856 0.9174728 -0.003201286
vn 0 1 0
vn 0 1 0
vn -0.687763 0.7257468 -0.01653698
vn -0.5486428 0.7961361 -0.2552616
vn -0.4044425 0.8233843 -0.3980759
vn -0.4155575 0.8116104 -0.4106098
vn -0.6686232 0.7436014 0
vn -0.6949226 0.7190846 0
vn 0 1 0
vn 0 1 0
vn 0 1 0
vn 0 1 0
vn -0.1238705 0.938956 -0.3209637
vn -0.003705543 0.9187749 -0.3947643
vn -0.218854 0.8052087 -0.5511278
vn -0.006833671 0.7402851 -0.6722584
vn -0.2585109 0.7978055 -0.544682
vn -0.0183596 0.7295322 -0.6837
vn 0 0.7464387 -0.6654541
vn 0 0.722309 -0.6915705
vn 0 1 0
vn -0.235147 0.9440328 -0.2313175
vn 0 0.9309378 -0.3651777
vn 0.6759757 0.7368997 0.005966619
vn 0.5562227 0.803093 0.2136772
vn 0.3239541 0.9383551 0.1205963
vn 0.3977856 0.9174728 0.003201283
vn 0 1 0
vn 0 1 0
vn 0.687763 0.7257468 0.01653698
vn 0.5486428 0.7961361 0.2552616
vn 0.4044425 0.8233843 0.3980759
vn 0.4155575 0.8116104 0.4106098
vn 0.6686232 0.7436014 0
vn 0.6949226 0.7190846 0
vn 0 1 0
vn 0 1 0
vn 0 1 0
vn 0 1 0
vn 0 1 0
vn 0 1 0
vn 0.1238705 0.938956 0.3209637
vn 0.00370554 0.9187749 0.3947643
vn 0.218854 0.8052087 0.5511278
vn 0.006833671 0.7402851 0.6722584
vn 0.2585109 0.7978055 0.544682
vn 0.0183596 0.7295322 0.6837
vn 0 0.7464387 0.6654541
vn 0 0.722309 0.6915705
vn 0.235147 0.9440328 0.2313175
vn 0 0.9309378 0.3651777
vn 0 1 0
vn 0 1 0
vn 0.323954 0.9383551 -0.1205964
vn 0.3977856 0.9174728 -0.003201281
vn 0.5562229 0.8030928 -0.2136773
vn 0.6759757 0.7368998 -0.005966618
vn 0.6877632 0.7257468 -0.01653699
vn 0.5486429 0.7961359 -0.2552616
vn 0.4044426 0.8233843 -0.398076
vn 0.4155575 0.8116105 -0.4106098
vn 0.6686232 0.7436014 0
vn 0.6949226 0.7190846 0
vn 0 1 0
vn 0 1 0
vn 0 1 0
vn 0 1 0
vn 0.003705548 0.9187749 -0.3947643
vn 0.1238705 0.938956 -0.3209639
vn 0.006833674 0.740285 -0.6722584
vn 0.2188539 0.8052087 -0.5511279
vn 0.2585109 0.7978055 -0.544682
vn 0.0183596 0.7295322 -0.6837
vn 0 0.7464387 -0.6654541
vn 0 0.722309 -0.6915705
vn 0 1 0
vn 0.2351475 0.9440327 -0.2313177
vn 0 0.9309378 -0.3651777
vn 0 1 0
vn -0.3676767 0.9299537 0
vn 0 1 0
vn 0.3676767 0.9299537 0
vn -0.3676767 0.9299537 0
vn 0.3676767 0.9299537 0
g m_sp_pressure_switch_base_01_0
f 3/3/3 2/2/2 1/1/1
f 4/4/4 3/3/3 1/1/1
f 5/5/5 3/3/3 4/4/4
f 6/6/6 5/5/5 4/4/4
f 5/5/5 6/6/6 7/7/7
f 8/8/8 5/5/5 7/7/7
f 9/9/9 5/5/5 8/8/8
f 5/5/5 9/9/9 3/3/3
f 10/10/10 9/9/9 8/8/8
f 7/7/7 6/6/6 11/11/11
f 12/12/12 7/7/7 11/11/11
f 1/1/1 2/2/2 13/13/13
f 1/1/1 13/13/13 14/14/14
f 14/14/14 15/15/15 1/1/1
f 1/1/1 15/15/15 4/4/4
f 2/2/2 16/16/16 13/13/13
f 16/16/16 17/17/17 13/13/13
f 17/17/17 18/18/18 13/13/13
f 19/19/19 18/18/18 17/17/17
f 20/20/20 19/19/19 17/17/17
f 20/20/20 17/17/17 16/16/16
f 21/21/21 19/19/19 20/20/20
f 22/22/22 21/21/21 20/20/20
f 22/22/22 9/9/9 10/10/10
f 21/21/21 22/22/22 23/23/23
f 23/23/23 22/22/22 10/10/10
f 24/24/24 21/21/21 23/23/23
f 25/25/25 21/21/21 24/24/24
f 21/21/21 25/25/25 19/19/19
f 26/26/26 25/25/25 24/24/24
f 27/27/27 20/20/20 16/16/16
f 22/22/22 20/20/20 27/27/27
f 27/27/27 16/16/16 2/2/2
f 3/3/3 27/27/27 2/2/2
f 9/9/9 27/27/27 3/3/3
f 9/9/9 22/22/22 27/27/27
f 19/19/19 28/28/28 18/18/18
f 25/25/25 28/28/28 19/19/19
f 28/28/28 13/13/13 18/18/18
f 31/31/31 30/30/30 29/29/29
f 32/32/32 31/31/31 29/29/29
f 33/33/33 31/31/31 32/32/32
f 34/34/34 33/33/33 32/32/32
f 29/29/29 30/30/30 35/35/35
f 30/30/30 36/36/36 35/35/35
f 30/30/30 37/37/37 36/36/36
f 37/37/37 38/38/38 36/36/36
f 29/29/29 35/35/35 39/39/39
f 32/32/32 29/29/29 39/39/39
f 35/35/35 40/40/40 39/39/39
f 33/33/33 34/34/34 41/41/41
f 42/42/42 33/33/33 41/41/41
f 33/33/33 42/42/42 31/31/31
f 43/43/43 42/42/42 41/41/41
f 44/44/44 43/43/43 41/41/41
f 43/43/43 44/44/44 45/45/45
f 44/44/44 46/46/46 45/45/45
f 45/45/45 46/46/46 47/47/47
f 37/37/37 47/47/47 38/38/38
f 45/45/45 47/47/47 37/37/37
f 46/46/46 48/48/48 47/47/47
f 47/47/47 48/48/48 49/49/49
f 47/47/47 49/49/49 38/38/38
f 48/48/48 50/50/50 49/49/49
f 48/48/48 51/51/51 50/50/50
f 51/51/51 52/52/52 50/50/50
f 41/41/41 53/53/53 44/44/44
f 44/44/44 53/53/53 46/46/46
f 43/43/43 45/45/45 54/54/54
f 42/42/42 43/43/43 54/54/54
f 42/42/42 54/54/54 31/31/31
f 31/31/31 54/54/54 30/30/30
f 54/54/54 37/37/37 30/30/30
f 54/54/54 45/45/45 37/37/37
f 55/55/55 51/51/51 48/48/48
f 46/46/46 55/55/55 48/48/48
f 53/53/53 55/55/55 46/46/46
f 58/58/58 57/57/57 56/56/56
f 59/59/59 58/58/58 56/56/56
f 60/60/60 58/58/58 59/59/59
f 61/61/61 60/60/60 59/59/59
f 56/56/56 57/57/57 62/62/62
f 57/57/57 63/63/63 62/62/62
f 57/57/57 64/64/64 63/63/63
f 64/64/64 65/65/65 63/63/63
f 56/56/56 62/62/62 66/66/66
f 56/56/56 66/66/66 59/59/59
f 62/62/62 67/67/67 66/66/66
f 68/68/68 60/60/60 61/61/61
f 69/69/69 68/68/68 61/61/61
f 61/61/61 70/70/70 69/69/69
f 68/68/68 71/71/71 60/60/60
f 60/60/60 71/71/71 58/58/58
f 68/68/68 72/72/72 71/71/71
f 68/68/68 73/73/73 72/72/72
f 72/72/72 73/73/73 74/74/74
f 73/73/73 75/75/75 74/74/74
f 75/75/75 73/73/73 68/68/68
f 74/74/74 75/75/75 76/76/76
f 64/64/64 76/76/76 65/65/65
f 74/74/74 76/76/76 64/64/64
f 75/75/75 77/77/77 76/76/76
f 76/76/76 77/77/77 78/78/78
f 76/76/76 78/78/78 65/65/65
f 77/77/77 79/79/79 78/78/78
f 77/77/77 80/80/80 79/79/79
f 80/80/80 81/81/81 79/79/79
f 72/72/72 74/74/74 82/82/82
f 71/71/71 72/72/72 82/82/82
f 71/71/71 82/82/82 58/58/58
f 58/58/58 82/82/82 57/57/57
f 82/82/82 64/64/64 57/57/57
f 82/82/82 74/74/74 64/64/64
f 77/77/77 75/75/75 83/83/83
f 80/80/80 77/77/77 83/83/83
f 83/83/83 75/75/75 68/68/68
f 86/86/86 85/85/85 84/84/84
f 87/87/87 86/86/86 84/84/84
f 88/88/88 86/86/86 87/87/87
f 89/89/89 88/88/88 87/87/87
f 88/88/88 89/89/89 90/90/90
f 91/91/91 88/88/88 90/90/90
f 92/92/92 88/88/88 91/91/91
f 88/88/88 92/92/92 86/86/86
f 93/93/93 92/92/92 91/91/91
f 90/90/90 89/89/89 94/94/94
f 95/95/95 90/90/90 94/94/94
f 96/96/96 84/84/84 85/85/85
f 96/96/96 85/85/85 97/97/97
f 96/96/96 97/97/97 98/98/98
f 96/96/96 98/98/98 99/99/99
f 100/100/100 99/99/99 98/98/98
f 101/101/101 100/100/100 98/98/98
f 101/101/101 98/98/98 97/97/97
f 102/102/102 100/100/100 101/101/101
f 103/103/103 102/102/102 101/101/101
f 103/103/103 92/92/92 93/93/93
f 102/102/102 103/103/103 104/104/104
f 104/104/104 103/103/103 93/93/93
f 105/105/105 102/102/102 104/104/104
f 106/106/106 102/102/102 105/105/105
f 100/100/100 102/102/102 106/106/106
f 107/107/107 106/106/106 105/105/105
f 99/99/99 108/108/108 96/96/96
f 109/109/109 101/101/101 97/97/97
f 103/103/103 101/101/101 109/109/109
f 109/109/109 97/97/97 85/85/85
f 86/86/86 109/109/109 85/85/85
f 92/92/92 109/109/109 86/86/86
f 92/92/92 103/103/103 109/109/109
f 110/110/110 100/100/100 106/106/106
f 99/99/99 100/100/100 110/110/110
f 108/108/108 99/99/99 110/110/110
f 34/34/34 111/111/111 41/41/41
f 111/111/111 34/34/34 112/112/112
f 34/34/34 32/32/32 112/112/112
f 112/112/112 32/32/32 39/39/39
f 96/96/96 113/113/113 84/84/84
f 87/87/87 84/84/84 113/113/113
f 114/114/114 87/87/87 113/113/113
f 89/89/89 87/87/87 114/114/114
f 94/94/94 89/89/89 114/114/114
f 115/115/115 11/11/11 6/6/6
f 4/4/4 115/115/115 6/6/6
f 15/15/15 115/115/115 4/4/4
f 116/116/116 70/70/70 61/61/61
f 59/59/59 116/116/116 61/61/61
f 66/66/66 116/116/116 59/59/59
