g m_sp_cliff_edge_06
v 0.1544368 -2.410176 -0.5021399
v 0.2201848 -2.012409 -0.4229407
v 0.1907331 -2.005063 -0.4217749
v 0.1237927 -2.410189 -0.5029828
v 0.2326121 -1.890181 -0.3873596
v 0.4776827 -2.410181 -0.2600147
v 0.2557808 -1.909706 -0.3943744
v 0.3251846 -1.820398 -0.3309454
v 0.4400518 -1.762661 -0.224169
v 0.4256322 -1.738206 -0.2112567
v 0.461901 -1.72871 -0.1258108
v 0.4809511 -1.752247 -0.1284454
v 0.5163278 -2.410184 -0.1467291
v 0.2201848 -2.012409 -0.4229407
v 0.2557808 -1.909706 -0.3943744
v 0.2326121 -1.890181 -0.3873596
v 0.3027413 -1.800485 -0.3248584
v 0.3251846 -1.820398 -0.3309454
v 0.4256322 -1.738206 -0.2112567
v 0.2691194 -1.791504 -0.2967966
v 0.1977229 -1.884687 -0.3614233
v 0.1907331 -2.005063 -0.4217749
v 0.1547716 -2.002543 -0.39531
v 0.08793964 -2.41022 -0.4779297
v 0.1237927 -2.410189 -0.5029828
v 0.4041865 -1.728809 -0.1921518
v 0.4809511 -1.752247 -0.1284454
v 0.4734543 -1.754063 -0.007315674
v 0.4554566 -1.729904 -0.01115875
v 0.461901 -1.72871 -0.1258108
v 0.3892163 -1.77157 0.2022394
v 0.4026897 -1.799331 0.2121729
v 0.31858 -1.834643 0.3285846
v 0.3361562 -1.858507 0.3400635
v 0.4950949 -2.41019 -0.007321777
v 0.5163278 -2.410184 -0.1467291
v 0.379323 -2.410191 0.2156311
v 0.3646907 -2.410185 0.3747973
v 0.2794209 -1.912236 0.3922751
v 0.2297001 -1.990781 0.4409692
v 0.1253421 -2.210326 0.5380621
v 0.1358858 -2.410181 0.5454239
v 0.1135478 -2.41018 0.5783276
v 0.08492196 -2.410194 0.5892526
v 0.3361562 -1.858507 0.3400635
v 0.2794209 -1.912236 0.3922751
v 0.2547076 -1.895117 0.387753
v 0.31858 -1.834643 0.3285846
v 0.2026769 -1.977329 0.4385498
v 0.2297001 -1.990781 0.4409692
v 0.1006502 -2.184361 0.5293927
v 0.1253421 -2.210326 0.5380621
v 0.08492196 -2.410194 0.5892526
v 0.06624184 -2.181749 0.5125561
v 0.04286111 -2.410226 0.5777749
v 0.1673901 -1.972028 0.4118496
v 0.2830163 -1.825803 0.3065961
v 0.2202604 -1.887948 0.3602991
v 0.3892163 -1.77157 0.2022394
v 0.3750022 -1.763095 0.1924133
v 0.4554566 -1.729904 -0.01115875
v 0.4141912 -1.716757 -0.02028229
v 0.4208145 -1.717148 -0.1209833
v 0.461901 -1.72871 -0.1258108
v 0.4256322 -1.738206 -0.2112567
v 0.4041865 -1.728809 -0.1921518
v -0.6 0 -0.6000022
v 0.01890968 -1.81431E-08 -0.4797095
v 0.2016909 -1.81431E-08 -0.1277826
v -0.6 0 0.6
v -0.02493645 0 -0.6000022
v 0.04117032 -0.01244103 -0.4818652
v 0.2248669 -0.01244103 -0.1273324
v -0.003340623 -0.01244103 -0.6000022
v 0.2216227 -1.81431E-08 -0.003394165
v 0.1925111 -1.81431E-08 0.1523587
v 0.07219028 -1.81431E-08 0.3445209
v -0.02493639 0 0.6
v 0.09310784 -0.01244103 0.3502194
v -0.003340617 -0.01244103 0.6
v 0.214121 -0.01244103 0.1536502
v 0.244008 -0.01244103 -0.002656555
v 0.244008 -0.01244103 -0.002656555
v 0.2497452 -0.03726879 -0.005589599
v 0.2229767 -0.03755122 0.1502438
v 0.214121 -0.01244103 0.1536502
v 0.1040577 -0.03772578 0.3486633
v 0.09310784 -0.01244103 0.3502194
v -0.004574575 -0.03661123 0.6
v -0.003340617 -0.01244103 0.6
v -0.04188734 -0.767477 0.6
v 0.429691 -0.7896616 0.3023895
v 0.4034877 -1.532508 0.1895853
v 0.4139532 -1.545915 -0.01203949
v 0.4863361 -0.7842959 0.04894257
v 0.4184234 -1.544991 -0.1092465
v 0.4441204 -2.399339 -0.01944794
v 0.464851 -2.399339 -0.1422217
v 0.3018626 -2.399339 0.1951749
v 0.04488867 -1.535687 0.4831076
v -0.1106571 -1.542808 0.6
v 0.1015804 -2.399339 0.5055664
v 0.03668881 -2.399339 0.6
v 0.3104526 -2.399339 0.3436957
v 0.03914927 -0.03777647 -0.4830316
v 0.04117032 -0.01244103 -0.4818652
v -0.003340623 -0.01244103 -0.6000022
v -0.004574486 -0.03661121 -0.6000022
v 0.2248669 -0.01244103 -0.1273324
v 0.2281642 -0.03713619 -0.1294186
v 0.2497452 -0.03726879 -0.005589599
v 0.244008 -0.01244103 -0.002656555
v 0.4203623 -0.7756144 -0.09281616
v 0.4863361 -0.7842959 0.04894257
v 0.4184234 -1.544991 -0.1092465
v 0.4000628 -1.542596 -0.1752954
v 0.464851 -2.399339 -0.1422217
v 0.4369388 -2.399339 -0.2312207
v 0.07246266 -2.399339 -0.5032184
v -0.07889606 -1.542762 -0.5168927
v -0.1106571 -1.542808 -0.6000022
v -0.02095412 -0.7912199 -0.5177063
v -0.04188734 -0.767477 -0.6000022
v 0.03668881 -2.399339 -0.6000022
v 0.3262192 -0.7715384 -0.1914633
v 0.464851 -2.399339 -0.1422217
v 2.464851 -2.399339 -0.1422217
v 2.44412 -2.399339 -0.01944794
v 0.4441204 -2.399339 -0.01944794
v 0.1015804 -2.399339 0.5055664
v 2.10158 -2.399339 0.5055664
v 2.036689 -2.399339 0.6
v 0.03668881 -2.399339 0.6
v 0.07246266 -2.399339 -0.5032184
v 2.072463 -2.399339 -0.5032184
v 2.436939 -2.399339 -0.2312207
v 0.4369388 -2.399339 -0.2312207
v 0.03668881 -2.399339 -0.6000022
v 2.036689 -2.399339 -0.6000022
v 0.4441204 -2.399339 -0.01944794
v 2.44412 -2.399339 -0.01944794
v 2.301862 -2.399339 0.1951749
v 0.3018626 -2.399339 0.1951749
v 0.3018626 -2.399339 0.1951749
v 2.301862 -2.399339 0.1951749
v 2.310452 -2.399339 0.3436957
v 0.3104526 -2.399339 0.3436957
v 0.3104526 -2.399339 0.3436957
v 2.310452 -2.399339 0.3436957
v 2.10158 -2.399339 0.5055664
v 0.1015804 -2.399339 0.5055664
v 0.4369388 -2.399339 -0.2312207
v 2.436939 -2.399339 -0.2312207
v 2.464851 -2.399339 -0.1422217
v 0.464851 -2.399339 -0.1422217
vt 0.5952148 0.5229492
vt 0.5776367 0.5742188
vt 0.5825195 0.5761719
vt 0.6000977 0.5234375
vt 0.5722656 0.5898438
vt 0.5419922 0.5209961
vt 0.5693359 0.5864258
vt 0.5600586 0.5981445
vt 0.5366211 0.6049805
vt 0.5366211 0.609375
vt 0.5239258 0.609375
vt 0.5234375 0.6049805
vt 0.5268555 0.5195313
vt 0.5776367 0.5742188
vt 0.5693359 0.5864258
vt 0.5722656 0.5898438
vt 0.5634766 0.6020508
vt 0.5600586 0.5981445
vt 0.5366211 0.609375
vt 0.5678711 0.6064453
vt 0.5771484 0.5927734
vt 0.5825195 0.5761719
vt 0.5883789 0.5771484
vt 0.605957 0.5244141
vt 0.6000977 0.5234375
vt 0.5371094 0.6132813
vt 0.5234375 0.6049805
vt 0.5073242 0.6044922
vt 0.5073242 0.609375
vt 0.5239258 0.609375
vt 0.4760742 0.6040039
vt 0.4758301 0.5991211
vt 0.4536133 0.5966797
vt 0.4550781 0.5927734
vt 0.5078125 0.5200195
vt 0.5268555 0.5195313
vt 0.4724121 0.5209961
vt 0.4519043 0.5214844
vt 0.4445801 0.5859375
vt 0.4353027 0.5761719
vt 0.416748 0.5478516
vt 0.416748 0.5219727
vt 0.4121094 0.5209961
vt 0.4067383 0.5195313
vt 0.4550781 0.5927734
vt 0.4445801 0.5859375
vt 0.4411621 0.5888672
vt 0.4536133 0.5966797
vt 0.4311523 0.578125
vt 0.4353027 0.5761719
vt 0.4128418 0.550293
vt 0.416748 0.5478516
vt 0.4067383 0.5195313
vt 0.4069824 0.5488281
vt 0.3996582 0.5170898
vt 0.4257813 0.5795898
vt 0.4501953 0.6005859
vt 0.4365234 0.5917969
vt 0.4760742 0.6040039
vt 0.4760742 0.605957
vt 0.5073242 0.609375
vt 0.5078125 0.6142578
vt 0.5253906 0.6142578
vt 0.5239258 0.609375
vt 0.5366211 0.609375
vt 0.5371094 0.6132813
vt 0.002944946 0.9946289
vt 0.515625 0.8994141
vt 0.6513672 0.6362305
vt 0.0026474 -0.002820969
vt 0.479248 1
vt 0.5341797 0.9013672
vt 0.6704102 0.6357422
vt 0.4973145 1
vt 0.652832 0.5244141
vt 0.6547852 0.3830566
vt 0.5600586 0.2127686
vt 0.4797363 0
vt 0.5776367 0.2081299
vt 0.5 0
vt 0.671875 0.3835449
vt 0.6708984 0.5244141
vt 0.6254883 0.9155273
vt 0.6259766 0.8945313
vt 0.5952148 0.8945313
vt 0.5942383 0.9155273
vt 0.5507813 0.8945313
vt 0.5498047 0.9155273
vt 0.5 0.8950195
vt 0.5 0.9155273
vt 0.5 0.5727539
vt 0.5820313 0.581543
vt 0.5976563 0.3110352
vt 0.6274414 0.3059082
vt 0.6201172 0.5859375
vt 0.6416016 0.3059082
vt 0.6235352 0.01233673
vt 0.6430664 0.01233673
vt 0.5834961 0.01233673
vt 0.5288086 0.3081055
vt 0.5 0.3059082
vt 0.5180664 0.01233673
vt 0.5 0.01233673
vt 0.5595703 0.01233673
vt 0.7250977 0.8945313
vt 0.7246094 0.9155273
vt 0.7480469 0.9155273
vt 0.7480469 0.8950195
vt 0.6499023 0.9155273
vt 0.6503906 0.8945313
vt 0.6259766 0.8945313
vt 0.6254883 0.9155273
vt 0.6430664 0.5893555
vt 0.6201172 0.5859375
vt 0.6416016 0.3059082
vt 0.6518555 0.3063965
vt 0.6430664 0.01233673
vt 0.6577148 0.01233673
vt 0.7299805 0.01233673
vt 0.7363281 0.2976074
vt 0.7480469 0.3059082
vt 0.7358398 0.5805664
vt 0.7480469 0.5727539
vt 0.7480469 0.01233673
vt 0.6630859 0.5927734
vt -0.6293945 -1.192093E-07
vt -0.6293945 -1
vt -0.7006836 -1
vt -0.7006836 -1.192093E-07
vt -0.9145508 1.192093E-07
vt -0.9145508 -1
vt -1 -1
vt -1 0
vt -0.4868164 -1.192093E-07
vt -0.4868164 -1
vt -0.5581055 -1
vt -0.5581055 -1.192093E-07
vt -0.3999023 0
vt -0.3999023 -1
vt -0.7006836 -1.192093E-07
vt -0.7006836 -1
vt -0.7719727 -1
vt -0.7719727 0
vt -0.7719727 0
vt -0.7719727 -1
vt -0.8432617 -1
vt -0.8432617 -1.192093E-07
vt -0.8432617 -1.192093E-07
vt -0.8432617 -1
vt -0.9145508 -1
vt -0.9145508 1.192093E-07
vt -0.5581055 -1.192093E-07
vt -0.5581055 -1
vt -0.6293945 -1
vt -0.6293945 -1.192093E-07
vn 0.5258085 0.07397423 -0.8473802
vn 0.5539854 0.06685416 -0.8298377
vn -0.3512652 0.271664 -0.8959975
vn -0.3589939 0.2401858 -0.9019058
vn -0.244177 0.5302867 -0.8118952
vn 0.7707188 0.06469644 -0.6338823
vn 0.6045455 0.08206084 -0.7923325
vn 0.6275263 0.1059954 -0.7713467
vn 0.8145439 0.1040054 -0.5707023
vn 0.2608672 0.8267906 -0.4983628
vn 0.5486646 0.8291198 -0.1073666
vn 0.9919609 0.07652859 -0.1007812
vn 0.9922787 0.05492525 -0.1112028
vn 0.5539854 0.06685416 -0.8298377
vn 0.6045455 0.08206084 -0.7923325
vn -0.244177 0.5302867 -0.8118952
vn -0.01264029 0.7503431 -0.6609277
vn 0.6275263 0.1059954 -0.7713467
vn 0.2608672 0.8267906 -0.4983628
vn -0.2053663 0.8197718 -0.5346014
vn -0.4357598 0.5636116 -0.7017517
vn -0.3512652 0.271664 -0.8959975
vn -0.5491287 0.2885018 -0.7843624
vn -0.5584345 0.2512565 -0.7905827
vn -0.3589939 0.2401858 -0.9019058
vn 0.04092919 0.9327388 -0.3582222
vn 0.9919609 0.07652859 -0.1007812
vn 0.9581439 0.04274814 0.2830773
vn 0.5480187 0.8078477 0.2169275
vn 0.5486646 0.8291198 -0.1073666
vn 0.4627688 0.7795681 0.422041
vn 0.9297389 0.02976615 0.3670144
vn 0.1780164 0.757788 0.6277479
vn 0.9135407 0.05594577 0.4028815
vn 0.9570056 0.01518494 0.2896718
vn 0.9922787 0.05492525 -0.1112028
vn 0.9377284 0.004755653 0.3473367
vn 0.8438831 0.03938035 0.5350799
vn 0.6039161 0.1157342 0.7886006
vn 0.5725924 0.1098423 0.8124485
vn 0.555568 0.08958343 0.8266311
vn 0.6116731 0.06502913 0.7884333
vn 0.414072 0.1778418 0.8927019
vn -0.1586633 0.2624673 0.9518071
vn 0.9135407 0.05594577 0.4028815
vn 0.6039161 0.1157342 0.7886006
vn -0.13238 0.6608763 0.7387272
vn 0.1780164 0.757788 0.6277479
vn -0.1963916 0.5185262 0.8322024
vn 0.5725924 0.1098423 0.8124485
vn -0.1963085 0.3971398 0.8965172
vn 0.555568 0.08958343 0.8266311
vn -0.1586633 0.2624673 0.9518071
vn -0.3694322 0.4153722 0.8312556
vn -0.3254207 0.2769295 0.9041081
vn -0.3995277 0.5745277 0.7143498
vn -0.1154518 0.8390234 0.5317055
vn -0.3178651 0.7145612 0.6231887
vn 0.4627688 0.7795681 0.422041
vn 0.186896 0.9242494 0.3329156
vn 0.5480187 0.8078477 0.2169275
vn 0.2806738 0.9470891 0.1557061
vn 0.2702125 0.960645 -0.06439178
vn 0.5486646 0.8291198 -0.1073666
vn 0.2608672 0.8267906 -0.4983628
vn 0.04092919 0.9327388 -0.3582222
vn 0 1 0
vn 0 1 0
vn 0 1 0
vn 0 1 0
vn 0 1 0
vn 0.7679755 0.5176156 -0.3772105
vn 0.8058143 0.4865369 -0.3375576
vn 0.9187692 0.3947951 0
vn 0 1 0
vn 0 1 0
vn 0 1 0
vn 0 1 0
vn 0.7342343 0.5764828 0.3585631
vn 0.9187692 0.3947951 0
vn 0.7547751 0.5691348 0.3261904
vn 0.8123382 0.5822709 0.03266902
vn 0.8123382 0.5822709 0.03266902
vn 0.9331563 0.2591574 -0.249112
vn 0.9385275 0.2731418 0.2110918
vn 0.7547751 0.5691348 0.3261904
vn 0.731084 0.144374 0.6668376
vn 0.7342343 0.5764828 0.3585631
vn 1 0 0
vn 0.9187692 0.3947951 0
vn 0.9994884 -0.03198363 0
vn 0.7692727 0.01583609 0.6387242
vn 0.7825096 -0.09750714 0.6149561
vn 0.997237 -0.04729979 0.05728075
vn 0.994045 0.1047209 0.03013904
vn 0.9725697 0.02471621 -0.2312948
vn 0.9337234 0.03364012 0.3564111
vn 0.9968721 0.05131894 -0.06010284
vn 0.8781879 0.06159876 0.4743328
vn 0.6155167 -0.052037 0.786404
vn 0.9981325 0.06108571 0
vn 0.6525913 0.07676674 0.7538113
vn 0.9953666 0.09615242 0
vn 0.8643195 0.1906417 0.4654111
vn 0.8236369 0.03931479 -0.5657532
vn 0.7679755 0.5176156 -0.3772105
vn 0.9187692 0.3947951 0
vn 1 0 0
vn 0.8058143 0.4865369 -0.3375576
vn 0.8112311 0.09426216 -0.5770778
vn 0.9331563 0.2591574 -0.249112
vn 0.8123382 0.5822709 0.03266902
vn 0.9342529 0.1436139 -0.3264147
vn 0.994045 0.1047209 0.03013904
vn 0.9725697 0.02471621 -0.2312948
vn 0.6599301 0.04600611 -0.7499171
vn 0.9968721 0.05131894 -0.06010284
vn 0.6495853 0.08324393 -0.7557178
vn 0.6461504 0.09651569 -0.7570829
vn 0.6769566 0.04518602 -0.7346345
vn 0.9981325 0.06108571 0
vn 0.7505894 0.00830766 -0.6607165
vn 0.9994884 -0.03198363 0
vn 0.9953666 0.09615242 0
vn 0.7342294 0.04610532 -0.6773341
vn 0 1 1.590833E-06
vn 0 1 1.590833E-06
vn 0 1 1.590833E-06
vn 0 1 1.590833E-06
vn 0 1 0
vn 0 1 0
vn 0 1 0
vn 0 1 0
vn 0 1 0
vn 0 1 0
vn 0 1 0
vn 0 1 0
vn 0 1 0
vn 0 1 0
vn 0 1 9.100268E-07
vn 0 1 9.100269E-07
vn 0 1 9.100269E-07
vn 0 1 9.100269E-07
vn 0 1 0
vn 0 1 0
vn 0 1 0
vn 0 1 0
vn 0 1 1.206596E-06
vn 0 1 1.206596E-06
vn 0 1 1.206596E-06
vn 0 1 1.206596E-06
vn 0 1 -2.194547E-06
vn 0 1 -2.194547E-06
vn 0 1 -2.194547E-06
vn 0 1 -2.194547E-06
g m_sp_cliff_edge_06_0
f 3/3/3 2/2/2 1/1/1
f 4/4/4 3/3/3 1/1/1
f 3/3/3 5/5/5 2/2/2
f 1/1/1 2/2/2 6/6/6
f 2/2/2 7/7/7 6/6/6
f 6/6/6 7/7/7 8/8/8
f 9/9/9 6/6/6 8/8/8
f 9/9/9 8/8/8 10/10/10
f 10/10/10 11/11/11 9/9/9
f 11/11/11 12/12/12 9/9/9
f 13/13/13 6/6/6 9/9/9
f 12/12/12 13/13/13 9/9/9
f 16/16/16 15/15/15 14/14/14
f 16/16/16 17/17/17 15/15/15
f 17/17/17 18/18/18 15/15/15
f 18/18/18 17/17/17 19/19/19
f 20/20/20 17/17/17 16/16/16
f 21/21/21 20/20/20 16/16/16
f 21/21/21 16/16/16 22/22/22
f 23/23/23 21/21/21 22/22/22
f 24/24/24 23/23/23 22/22/22
f 25/25/25 24/24/24 22/22/22
f 26/26/26 19/19/19 17/17/17
f 20/20/20 26/26/26 17/17/17
f 29/29/29 28/28/28 27/27/27
f 30/30/30 29/29/29 27/27/27
f 29/29/29 31/31/31 28/28/28
f 31/31/31 32/32/32 28/28/28
f 31/31/31 33/33/33 32/32/32
f 33/33/33 34/34/34 32/32/32
f 28/28/28 35/35/35 27/27/27
f 28/28/28 32/32/32 35/35/35
f 35/35/35 36/36/36 27/27/27
f 32/32/32 37/37/37 35/35/35
f 32/32/32 34/34/34 38/38/38
f 37/37/37 32/32/32 38/38/38
f 34/34/34 39/39/39 38/38/38
f 39/39/39 40/40/40 38/38/38
f 38/38/38 40/40/40 41/41/41
f 42/42/42 38/38/38 41/41/41
f 41/41/41 43/43/43 42/42/42
f 44/44/44 43/43/43 41/41/41
f 47/47/47 46/46/46 45/45/45
f 48/48/48 47/47/47 45/45/45
f 47/47/47 49/49/49 46/46/46
f 49/49/49 50/50/50 46/46/46
f 49/49/49 51/51/51 50/50/50
f 51/51/51 52/52/52 50/50/50
f 51/51/51 53/53/53 52/52/52
f 51/51/51 54/54/54 53/53/53
f 54/54/54 55/55/55 53/53/53
f 56/56/56 54/54/54 51/51/51
f 49/49/49 56/56/56 51/51/51
f 56/56/56 49/49/49 47/47/47
f 48/48/48 57/57/57 47/47/47
f 57/57/57 58/58/58 47/47/47
f 58/58/58 56/56/56 47/47/47
f 57/57/57 48/48/48 59/59/59
f 60/60/60 57/57/57 59/59/59
f 60/60/60 59/59/59 61/61/61
f 62/62/62 60/60/60 61/61/61
f 63/63/63 62/62/62 61/61/61
f 64/64/64 63/63/63 61/61/61
f 63/63/63 64/64/64 65/65/65
f 66/66/66 63/63/63 65/65/65
f 69/69/69 68/68/68 67/67/67
f 70/70/70 69/69/69 67/67/67
f 68/68/68 71/71/71 67/67/67
f 72/72/72 68/68/68 69/69/69
f 73/73/73 72/72/72 69/69/69
f 74/74/74 71/71/71 68/68/68
f 72/72/72 74/74/74 68/68/68
f 73/73/73 69/69/69 75/75/75
f 70/70/70 75/75/75 69/69/69
f 70/70/70 76/76/76 75/75/75
f 70/70/70 77/77/77 76/76/76
f 77/77/77 70/70/70 78/78/78
f 79/79/79 77/77/77 78/78/78
f 80/80/80 79/79/79 78/78/78
f 81/81/81 76/76/76 77/77/77
f 79/79/79 81/81/81 77/77/77
f 82/82/82 75/75/75 76/76/76
f 81/81/81 82/82/82 76/76/76
f 82/82/82 73/73/73 75/75/75
g m_sp_cliff_edge_06_1
f 85/85/85 84/84/84 83/83/83
f 86/86/86 85/85/85 83/83/83
f 87/87/87 85/85/85 86/86/86
f 88/88/88 87/87/87 86/86/86
f 89/89/89 87/87/87 88/88/88
f 90/90/90 89/89/89 88/88/88
f 89/89/89 91/91/91 87/87/87
f 91/91/91 92/92/92 87/87/87
f 92/92/92 91/91/91 93/93/93
f 92/92/92 93/93/93 94/94/94
f 95/95/95 92/92/92 94/94/94
f 95/95/95 85/85/85 87/87/87
f 85/85/85 95/95/95 84/84/84
f 87/87/87 92/92/92 95/95/95
f 95/95/95 94/94/94 96/96/96
f 94/94/94 97/97/97 96/96/96
f 97/97/97 98/98/98 96/96/96
f 99/99/99 97/97/97 94/94/94
f 94/94/94 93/93/93 99/99/99
f 91/91/91 100/100/100 93/93/93
f 99/99/99 93/93/93 100/100/100
f 101/101/101 100/100/100 91/91/91
f 100/100/100 101/101/101 102/102/102
f 101/101/101 103/103/103 102/102/102
f 104/104/104 100/100/100 102/102/102
f 104/104/104 99/99/99 100/100/100
f 107/107/107 106/106/106 105/105/105
f 108/108/108 107/107/107 105/105/105
f 105/105/105 106/106/106 109/109/109
f 110/110/110 105/105/105 109/109/109
f 111/111/111 110/110/110 109/109/109
f 112/112/112 111/111/111 109/109/109
f 111/111/111 113/113/113 110/110/110
f 114/114/114 113/113/113 111/111/111
f 113/113/113 114/114/114 115/115/115
f 113/113/113 115/115/115 116/116/116
f 115/115/115 117/117/117 116/116/116
f 117/117/117 118/118/118 116/116/116
f 116/116/116 118/118/118 119/119/119
f 120/120/120 116/116/116 119/119/119
f 120/120/120 119/119/119 121/121/121
f 122/122/122 120/120/120 121/121/121
f 120/120/120 122/122/122 116/116/116
f 123/123/123 122/122/122 121/121/121
f 123/123/123 108/108/108 122/122/122
f 119/119/119 124/124/124 121/121/121
f 122/122/122 125/125/125 116/116/116
f 125/125/125 113/113/113 116/116/116
f 113/113/113 125/125/125 110/110/110
f 125/125/125 122/122/122 105/105/105
f 110/110/110 125/125/125 105/105/105
f 108/108/108 105/105/105 122/122/122
g m_sp_cliff_edge_06_2
f 128/128/128 127/127/127 126/126/126
f 129/129/129 128/128/128 126/126/126
f 132/132/132 131/131/131 130/130/130
f 133/133/133 132/132/132 130/130/130
f 136/136/136 135/135/135 134/134/134
f 137/137/137 136/136/136 134/134/134
f 134/134/134 135/135/135 138/138/138
f 135/135/135 139/139/139 138/138/138
f 142/142/142 141/141/141 140/140/140
f 143/143/143 142/142/142 140/140/140
f 146/146/146 145/145/145 144/144/144
f 147/147/147 146/146/146 144/144/144
f 150/150/150 149/149/149 148/148/148
f 151/151/151 150/150/150 148/148/148
f 154/154/154 153/153/153 152/152/152
f 155/155/155 154/154/154 152/152/152
