g m_sp_wall_detail_03
v 0.07266358 -0.445193 0.3738127
v 0.07125122 0.4440876 0.3741319
v 0.09200073 0.4408855 0.3500248
v 0.09200073 -0.4404874 0.3496263
v 0.09200073 -0.356892 0.2709233
v 0.09200073 0.3568918 0.2709233
v 0.09200073 0.4404871 -0.3496269
v 0.07330078 0.4655679 0.353792
v 0.07152221 0.4660677 -0.3523027
v 0.09200073 0.3568918 -0.2709236
v 0.07152221 -0.4660682 0.3523027
v -0.08519409 -0.5101444 0.3876787
v -0.08519409 -0.4880878 0.4094462
v 0.07266358 -0.445193 0.3738127
v 0.07330078 -0.4655679 -0.353791
v -0.08519409 -0.5101444 -0.387679
v 0.09200073 -0.4404874 0.3496263
v 0.09200073 -0.4408857 -0.3500243
v 0.07330078 -0.4655679 -0.353791
v 0.09200073 -0.356892 -0.2709236
v 0.09200073 0.3568918 -0.2709236
v 0.07105102 -0.3361754 -0.2502067
v 0.07010376 0.3361754 -0.2502067
v 0.09200073 0.4404871 -0.3496269
v 0.09200073 -0.356892 0.2709233
v 0.07266358 -0.445193 0.3738127
v 0.07152221 -0.4660682 0.3523027
v 0.09200073 -0.4404874 0.3496263
v 0.07330078 -0.4655679 -0.353791
v 0.07152221 -0.4660682 0.3523027
v 0.07125122 0.4440876 0.3741319
v -0.08519409 0.4880877 0.4094462
v -0.08519409 0.5101444 0.3876787
v 0.07330078 0.4655679 0.353792
v 0.07125122 -0.4440881 -0.374131
v -0.08519409 -0.4880878 -0.4094462
v -0.08519409 -0.5101444 -0.387679
v 0.07330078 -0.4655679 -0.353791
v -0.08519409 0.4880878 -0.4094462
v 0.07266358 0.4451929 -0.3738124
v 0.09200073 -0.4408857 -0.3500243
v 0.09200073 0.4404871 -0.3496269
v 0.07266358 0.4451929 -0.3738124
v 0.07125122 -0.4440881 -0.374131
v 0.07330078 -0.4655679 -0.353791
v 0.07152221 0.4660677 -0.3523027
v -0.08519409 0.5101444 -0.387679
v -0.08519409 0.4880878 -0.4094462
v 0.07266358 0.4451929 -0.3738124
v 0.09200073 -0.356892 -0.2709236
v 0.09200073 -0.356892 0.2709233
v 0.07010376 -0.3361754 0.2502067
v 0.07105102 -0.3361754 -0.2502067
v 0.07010376 0.3361754 -0.2502067
v 0.07010376 0.3361754 0.2502067
v 0.09200073 0.3568918 0.2709233
v 0.09200073 0.3568918 -0.2709236
v 0.07010376 0.3361754 0.2502067
v 0.07010376 -0.3361754 0.2502067
v 0.09200073 -0.356892 0.2709233
v 0.09200073 0.3568918 0.2709233
v 0.07266358 -0.445193 0.3738127
v -0.08519409 -0.4880878 0.4094462
v -0.08519409 0.4880877 0.4094462
v 0.07125122 0.4440876 0.3741319
v 0.07330078 0.4655679 0.353792
v -0.08519409 0.5101444 0.3876787
v -0.08519409 0.5101444 -0.387679
v 0.07152221 0.4660677 -0.3523027
v 0.07105102 -0.3361754 -0.2502067
v -0.09105346 -0.3361754 -0.2502067
v -0.09200073 0.3361754 -0.2502067
v 0.07010376 0.3361754 -0.2502067
v 0.07010376 0.3361754 -0.2502067
v -0.09200073 0.3361754 -0.2502067
v -0.09200073 0.3361754 0.2502067
v 0.07010376 0.3361754 0.2502067
v 0.07010376 0.3361754 0.2502067
v -0.09200073 0.3361754 0.2502067
v -0.09200073 -0.3361754 0.2502067
v 0.07010376 -0.3361754 0.2502067
v 0.07010376 -0.3361754 0.2502067
v -0.09200073 -0.3361754 0.2502067
v -0.09105346 -0.3361754 -0.2502067
v 0.07105102 -0.3361754 -0.2502067
v 0.07266358 0.4451929 -0.3738124
v 0.09200073 0.4404871 -0.3496269
v 0.07152221 0.4660677 -0.3523027
v -0.01315918 0.3777399 0.2788579
v -0.01315918 0.3777399 -0.2760249
v 0.04986816 0.1960951 -0.2760249
v 0.04986816 0.1960951 0.2788579
v 0.03497436 0.1704357 -0.2760249
v -0.01315918 0.16143 -0.2760249
v -0.01315918 0.16143 0.2788579
v 0.03497436 0.1704357 0.2788579
v 0.04986816 0.1960951 0.2788579
v 0.04986816 0.1960951 -0.2760249
v -0.01315918 0.16143 -0.2760249
v 0.04986816 -0.02021521 -0.2760249
v 0.04986816 -0.02021521 0.2788579
v -0.01315918 0.16143 0.2788579
v 0.03497436 -0.04587454 -0.2760249
v -0.01315918 -0.05488005 -0.2760249
v -0.01315918 -0.05488005 0.2788579
v 0.03497436 -0.04587454 0.2788579
v 0.04986816 -0.02021521 0.2788579
v 0.04986816 -0.02021521 -0.2760249
v -0.01315918 -0.05488005 -0.2760249
v 0.04986816 -0.2365249 -0.2760249
v 0.04986816 -0.2365249 0.2788579
v -0.01315918 -0.05488005 0.2788579
v 0.03497436 -0.2621843 -0.2760249
v -0.01315918 -0.2711898 -0.2760249
v -0.01315918 -0.2711898 0.2788579
v 0.03497436 -0.2621843 0.2788579
v 0.04986816 -0.2365249 0.2788579
v 0.04986816 -0.2365249 -0.2760249
v -0.01315918 -0.2711898 -0.2760249
v 0.04870117 -0.4526154 -0.2760249
v 0.04870117 -0.4526154 0.2788579
v -0.01315918 -0.2711898 0.2788579
vt 0.9404297 0.7626953
vt 0.9067383 0.8154297
vt 0.9091797 0.8164063
vt 0.9418945 0.7641602
vt 0.9433594 0.7724609
vt 0.9169922 0.8154297
vt 0.9438477 0.8505859
vt 0.9072266 0.8178711
vt 0.9423828 0.8525391
vt 0.9433594 0.8427734
vt 0.4467773 0.7470703
vt 0.4353027 0.7495117
vt 0.435791 0.7514648
vt 0.4472656 0.7490234
vt 0.4467773 0.6967773
vt 0.4353027 0.6943359
vt 0.8217773 0.03198242
vt 0.8569336 0.06610107
vt 0.8583984 0.06488037
vt 0.8486328 0.06719971
vt 0.8222656 0.1101074
vt 0.8461914 0.06750488
vt 0.8212891 0.1077881
vt 0.8237305 0.118103
vt 0.8222656 0.04003906
vt 0.8212891 0.02987671
vt 0.8232422 0.03024292
vt 0.8217773 0.03198242
vt 0.8583984 0.06488037
vt 0.8232422 0.03024292
vt 0.9536133 0.4138184
vt 0.9423828 0.4169922
vt 0.9428711 0.4189453
vt 0.9541016 0.4157715
vt 0.1027222 0.0531311
vt 0.09960938 0.04180908
vt 0.09747314 0.04229736
vt 0.100708 0.05374146
vt 0.1685791 0.04180908
vt 0.1655273 0.05325317
vt 0.8569336 0.06610107
vt 0.8237305 0.118103
vt 0.8251953 0.1195679
vt 0.8588867 0.06695557
vt 0.8583984 0.06488037
vt 0.3295898 0.4240723
vt 0.3178711 0.4265137
vt 0.3183594 0.4287109
vt 0.3300781 0.4262695
vt 0.8486328 0.06719971
vt 0.8222656 0.04003906
vt 0.8217773 0.04257202
vt 0.8461914 0.06750488
vt 0.9438477 0.840332
vt 0.9199219 0.8149414
vt 0.9169922 0.8154297
vt 0.9433594 0.8427734
vt 0.9199219 0.8149414
vt 0.9443359 0.7744141
vt 0.9433594 0.7724609
vt 0.9169922 0.8154297
vt 0.9541016 0.3510742
vt 0.9428711 0.3479004
vt 0.9423828 0.4169922
vt 0.9536133 0.4138184
vt 0.3300781 0.3742676
vt 0.3183594 0.3718262
vt 0.3178711 0.4265137
vt 0.3295898 0.4240723
vt 0.6025391 0.3537598
vt 0.6137695 0.3537598
vt 0.6137695 0.3061523
vt 0.6025391 0.3061523
vt 0.1491699 0.9545898
vt 0.1376953 0.9545898
vt 0.1376953 0.9902344
vt 0.1491699 0.9902344
vt 0.07958984 0.2504883
vt 0.06811523 0.2504883
vt 0.06811523 0.2980957
vt 0.07958984 0.2980957
vt 0.5727539 0.2147217
vt 0.5610352 0.2147217
vt 0.5610352 0.25
vt 0.5727539 0.2502441
vt 0.9443359 0.8530273
vt 0.9438477 0.8505859
vt 0.9423828 0.8525391
vt 0.6899414 0.02789307
vt 0.6899414 0.06707764
vt 0.7036133 0.06707764
vt 0.7036133 0.02789307
vt 0.7055664 0.06707764
vt 0.7089844 0.06707764
vt 0.7089844 0.02789307
vt 0.7055664 0.02789307
vt 0.7036133 0.02789307
vt 0.7036133 0.06707764
vt 0.7089844 0.06707764
vt 0.7226563 0.06707764
vt 0.7226563 0.02789307
vt 0.7089844 0.02789307
vt 0.7246094 0.06707764
vt 0.7280273 0.06707764
vt 0.7280273 0.02789307
vt 0.7246094 0.02789307
vt 0.7226563 0.02789307
vt 0.7226563 0.06707764
vt 0.7280273 0.06707764
vt 0.7416992 0.06707764
vt 0.7416992 0.02789307
vt 0.7280273 0.02789307
vt 0.7436523 0.06707764
vt 0.7470703 0.06707764
vt 0.7470703 0.02789307
vt 0.7436523 0.02789307
vt 0.7416992 0.02789307
vt 0.7416992 0.06707764
vt 0.7470703 0.06707764
vt 0.7607422 0.06707764
vt 0.7607422 0.02789307
vt 0.7470703 0.02789307
vn 0.2997182 -0.0172694 0.9538715
vn 0.3012365 0.01715503 0.9533951
vn 1 0 0
vn 1 0 0
vn 1 0 0
vn 1 0 0
vn 1 0 0
vn 0.3500431 0.9364576 0.02273861
vn 0.3508388 0.9361576 -0.02282859
vn 1 0 0
vn 0.3508359 -0.9361587 0.02282877
vn 0.2767805 -0.9604607 0.03012836
vn 0.2272173 -0.02704337 0.9734685
vn 0.2997182 -0.0172694 0.9538715
vn 0.350041 -0.9364583 -0.02273831
vn 0.2768923 -0.9604052 -0.03086249
vn 1 0 0
vn 1 0 0
vn 0.350041 -0.9364583 -0.02273831
vn 1 0 0
vn 1 0 0
vn 0.1523501 0.0001041379 0.9883266
vn 0.1513964 0.000103486 0.9884731
vn 1 0 0
vn 1 0 0
vn 0.2997182 -0.0172694 0.9538715
vn 0.3508359 -0.9361587 0.02282877
vn 1 0 0
vn 0.350041 -0.9364583 -0.02273831
vn 0.3508359 -0.9361587 0.02282877
vn 0.3012365 0.01715503 0.9533951
vn 0.2269486 0.02615011 0.9735556
vn 0.2768954 0.9604043 0.03086259
vn 0.3500431 0.9364576 0.02273861
vn 0.301237 -0.0171554 -0.953395
vn 0.2269525 -0.02614995 -0.9735547
vn 0.2768923 -0.9604052 -0.03086249
vn 0.350041 -0.9364583 -0.02273831
vn 0.227221 0.02704269 -0.9734676
vn 0.2997186 0.01726874 -0.9538714
vn 1 0 0
vn 1 0 0
vn 0.2997186 0.01726874 -0.9538714
vn 0.301237 -0.0171554 -0.953395
vn 0.350041 -0.9364583 -0.02273831
vn 0.3508388 0.9361576 -0.02282859
vn 0.2767835 0.9604598 -0.03012835
vn 0.227221 0.02704269 -0.9734676
vn 0.2997186 0.01726874 -0.9538714
vn 1 0 0
vn 1 0 0
vn 0.1526125 0.9882861 0.0001386934
vn 0.1536899 0.9881192 0.0001396725
vn 0.1523156 -0.988332 0
vn 0.1523152 -0.988332 0
vn 1 0 0
vn 1 0 0
vn 0.1510479 0 -0.9885265
vn 0.1510482 0 -0.9885265
vn 1 0 0
vn 1 0 0
vn 0.2997182 -0.0172694 0.9538715
vn 0.2272173 -0.02704337 0.9734685
vn 0.2269486 0.02615011 0.9735556
vn 0.3012365 0.01715503 0.9533951
vn 0.3500431 0.9364576 0.02273861
vn 0.2768954 0.9604043 0.03086259
vn 0.2767835 0.9604598 -0.03012835
vn 0.3508388 0.9361576 -0.02282859
vn 0.1523501 0.0001041379 0.9883266
vn 0 0 1
vn 0 0 1
vn 0.1513964 0.000103486 0.9884731
vn 0.1523156 -0.988332 0
vn 0 -1 0
vn 0 -1 0
vn 0.1523152 -0.988332 0
vn 0.1510479 0 -0.9885265
vn 0 0 -1
vn 0 0 -1
vn 0.1510482 0 -0.9885265
vn 0.1526125 0.9882861 0.0001386934
vn 0 1 0
vn 0 1 0
vn 0.1536899 0.9881192 0.0001396725
vn 0.2997186 0.01726874 -0.9538714
vn 1 0 0
vn 0.3508388 0.9361576 -0.02282859
vn 0.9447448 0.3278069 0
vn 0.9447448 0.3278069 0
vn 0.9740883 0.2261681 0
vn 0.9740883 0.2261681 0
vn 0.4819208 -0.8762147 0
vn 0.1839141 -0.9829423 0
vn 0.1839141 -0.9829423 0
vn 0.4819208 -0.8762147 0
vn 0.9740883 0.2261681 0
vn 0.9740883 0.2261681 0
vn 0.9447448 0.3278069 0
vn 0.9740885 0.2261669 0
vn 0.9740885 0.2261669 0
vn 0.9447448 0.3278069 0
vn 0.4819182 -0.8762163 0
vn 0.183905 -0.982944 0
vn 0.183905 -0.982944 0
vn 0.4819182 -0.8762163 0
vn 0.9740885 0.2261669 0
vn 0.9740885 0.2261669 0
vn 0.9447448 0.3278069 0
vn 0.9740885 0.2261669 0
vn 0.9740885 0.2261669 0
vn 0.9447448 0.3278069 0
vn 0.4819189 -0.8762158 0
vn 0.183906 -0.9829438 0
vn 0.183906 -0.9829438 0
vn 0.4819189 -0.8762158 0
vn 0.9740885 0.2261669 0
vn 0.9740885 0.2261669 0
vn 0.9464946 0.3227198 0
vn 0.9464946 0.3227198 0
vn 0.9464946 0.3227198 0
vn 0.9464946 0.3227198 0
g m_sp_wall_detail_03_0
f 3/3/3 2/2/2 1/1/1
f 4/4/4 3/3/3 1/1/1
f 4/4/4 5/5/5 3/3/3
f 5/5/5 6/6/6 3/3/3
f 3/3/3 6/6/6 7/7/7
f 3/3/3 7/7/7 8/8/8
f 2/2/2 3/3/3 8/8/8
f 7/7/7 9/9/9 8/8/8
f 6/6/6 10/10/10 7/7/7
f 13/13/13 12/12/12 11/11/11
f 14/14/14 13/13/13 11/11/11
f 11/11/11 12/12/12 15/15/15
f 12/12/12 16/16/16 15/15/15
f 19/19/19 18/18/18 17/17/17
f 18/18/18 20/20/20 17/17/17
f 21/21/21 20/20/20 18/18/18
f 20/20/20 21/21/21 22/22/22
f 21/21/21 23/23/23 22/22/22
f 24/24/24 21/21/21 18/18/18
f 20/20/20 25/25/25 17/17/17
f 27/27/27 17/17/17 26/26/26
f 30/30/30 29/29/29 28/28/28
f 33/33/33 32/32/32 31/31/31
f 34/34/34 33/33/33 31/31/31
f 37/37/37 36/36/36 35/35/35
f 38/38/38 37/37/37 35/35/35
f 36/36/36 39/39/39 35/35/35
f 39/39/39 40/40/40 35/35/35
f 43/43/43 42/42/42 41/41/41
f 44/44/44 43/43/43 41/41/41
f 44/44/44 41/41/41 45/45/45
f 48/48/48 47/47/47 46/46/46
f 49/49/49 48/48/48 46/46/46
f 52/52/52 51/51/51 50/50/50
f 53/53/53 52/52/52 50/50/50
f 56/56/56 55/55/55 54/54/54
f 57/57/57 56/56/56 54/54/54
f 60/60/60 59/59/59 58/58/58
f 61/61/61 60/60/60 58/58/58
f 64/64/64 63/63/63 62/62/62
f 65/65/65 64/64/64 62/62/62
f 68/68/68 67/67/67 66/66/66
f 69/69/69 68/68/68 66/66/66
f 72/72/72 71/71/71 70/70/70
f 73/73/73 72/72/72 70/70/70
f 76/76/76 75/75/75 74/74/74
f 77/77/77 76/76/76 74/74/74
f 80/80/80 79/79/79 78/78/78
f 81/81/81 80/80/80 78/78/78
f 84/84/84 83/83/83 82/82/82
f 85/85/85 84/84/84 82/82/82
f 88/88/88 87/87/87 86/86/86
f 91/91/91 90/90/90 89/89/89
f 92/92/92 91/91/91 89/89/89
f 95/95/95 94/94/94 93/93/93
f 96/96/96 95/95/95 93/93/93
f 96/96/96 93/93/93 97/97/97
f 93/93/93 98/98/98 97/97/97
f 101/101/101 100/100/100 99/99/99
f 102/102/102 101/101/101 99/99/99
f 105/105/105 104/104/104 103/103/103
f 106/106/106 105/105/105 103/103/103
f 106/106/106 103/103/103 107/107/107
f 103/103/103 108/108/108 107/107/107
f 111/111/111 110/110/110 109/109/109
f 112/112/112 111/111/111 109/109/109
f 115/115/115 114/114/114 113/113/113
f 116/116/116 115/115/115 113/113/113
f 116/116/116 113/113/113 117/117/117
f 113/113/113 118/118/118 117/117/117
f 121/121/121 120/120/120 119/119/119
f 122/122/122 121/121/121 119/119/119
