g m_sp_cliff_edge_04
v -0.02493645 0 0.5999979
v -0.6 0 0.5999979
v 0.03067017 -1.81431E-08 0.38794
v 0.07915861 -1.81431E-08 0.316
v 0.3126234 -1.81431E-08 0.07313568
v 0.6 0 -0.6
v 0.3871424 -1.81431E-08 0.03370453
v -0.6 0 -0.6
v 0.05049489 -0.01244103 0.3991409
v 0.1084028 -0.01244103 0.3192462
v -0.003340665 -0.01244103 0.5999979
v 0.3133526 -0.01244104 0.09624878
v 0.3989265 -0.01244106 0.051922
v 0.4988253 -1.81431E-08 0.001003418
v 0.6 0 -0.02493652
v 0.6 -0.01244103 -0.003340759
v 0.5007033 -0.01244104 0.0226831
v 0.6 -0.01244103 -0.003340759
v 0.6 -0.03661123 -0.004574585
v 0.4994634 -0.03872877 0.02209137
v 0.5007033 -0.01244104 0.0226831
v 0.3989265 -0.01244106 0.051922
v 0.3967007 -0.03821324 0.05283905
v 0.3133526 -0.01244104 0.09624878
v 0.3106283 -0.03822586 0.09831238
v 0.1048418 -0.03871819 0.3189807
v 0.1084028 -0.01244103 0.3192462
v 0.04716 -0.03910296 0.3983722
v 0.05049489 -0.01244103 0.3991409
v -0.003340665 -0.01244103 0.5999979
v -0.00457456 -0.03661123 0.5999979
v -0.04229643 -0.7542924 0.3777457
v -0.04188734 -0.767477 0.5999979
v -0.1106571 -1.542808 0.5999979
v -0.02865859 -1.532167 0.4310333
v 0.04947713 -2.399339 0.4551239
v 0.03668881 -2.399339 0.5999979
v 0.009321187 -0.7435864 0.3118607
v 0.07144341 -1.493209 0.3142978
v 0.1323052 -2.399339 0.3194669
v 0.2560295 -1.413174 0.1313559
v 0.237551 -0.7298871 0.1536642
v 0.4337429 -1.438557 -0.02940124
v 0.4787548 -2.399339 0.06462616
v 0.6 -2.399339 0.03668884
v 0.6 -1.542808 -0.110657
v 0.6 -0.767477 -0.04188721
v 0.4662063 -0.7438803 0.006219177
v 0.3329727 -2.399339 0.1369275
v 0.336994 -0.7295356 0.07744171
v 0.04947713 -2.399339 0.4551239
v 0.4785089 -2.399339 0.4546271
v 0.5997598 -2.399339 0.6000024
v 0.03668881 -2.399339 0.5999979
v 0.1323052 -2.399339 0.3194669
v 0.4426826 -2.399339 0.3194669
v 0.4785089 -2.399339 0.4546271
v 0.04947713 -2.399339 0.4551239
v 0.3329727 -2.399339 0.1369275
v 0.3329727 -2.399339 0.1369275
v 0.4426826 -2.399339 0.3194669
v 0.1323052 -2.399339 0.3194669
v 0.6 -2.399339 0.03668884
v 0.5997598 -2.399339 0.6000024
v 0.4785089 -2.399339 0.4546271
v 0.4787548 -2.399339 0.06462616
v 0.4787548 -2.399339 0.06462616
v 0.4785089 -2.399339 0.4546271
v 0.4426826 -2.399339 0.3194669
v 0.3329727 -2.399339 0.1369275
v 0.3329727 -2.399339 0.1369275
v 0.3329727 -2.399339 0.1369275
v 0.4787548 -2.399339 0.06462616
vt 0.479248 0.0004718304
vt -0.0001121759 2.43783E-05
vt 0.5253906 0.1766357
vt 0.565918 0.2365723
vt 0.7607422 0.4389648
vt 1 1
vt 0.8227539 0.4719238
vt -0.0001538992 1
vt 0.5419922 0.1672363
vt 0.590332 0.2338867
vt 0.4973145 6.383657E-05
vt 0.7612305 0.4196777
vt 0.8325195 0.4567871
vt 0.9160156 0.4992676
vt 1 0.5209961
vt 1 0.5029297
vt 0.9174805 0.480957
vt 1 0.9155273
vt 1 0.8950195
vt 0.9716797 0.8945313
vt 0.9716797 0.9155273
vt 0.9428711 0.9155273
vt 0.9428711 0.8945313
vt 0.9179688 0.9155273
vt 0.9169922 0.8945313
vt 0.8359375 0.8945313
vt 0.8374023 0.9155273
vt 0.8076172 0.8945313
vt 0.8081055 0.9155273
vt 0.7480469 0.9155273
vt 0.7480469 0.8950195
vt 0.8022461 0.5991211
vt 0.7480469 0.5727539
vt 0.7480469 0.3059082
vt 0.7939453 0.3164063
vt 0.7910156 0.01233673
vt 0.7480469 0.01233673
vt 0.8232422 0.6040039
vt 0.831543 0.3312988
vt 0.8374023 0.01233673
vt 0.8955078 0.3586426
vt 0.8945313 0.6030273
vt 0.9541016 0.3449707
vt 0.9628906 0.01233673
vt 1 0.01233673
vt 1 0.3059082
vt 1 0.5727539
vt 0.965332 0.6005859
vt 0.9125977 0.01163483
vt 0.9277344 0.6020508
vt -0.8945313 -1.353025E-05
vt -0.8935547 -0.1989746
vt -1 -0.2824707
vt -1 -1.353025E-05
vt -0.7963867 -1.353025E-05
vt -0.8076172 -0.1347656
vt -0.8935547 -0.1989746
vt -0.8945313 -1.353025E-05
vt -0.6962891 1.353025E-05
vt -0.6962891 1.353025E-05
vt -0.8076172 -0.1347656
vt -0.7963867 -1.353025E-05
vt -0.5 -1.353025E-05
vt -0.5 -0.2824707
vt -0.5996094 -0.1947021
vt -0.5996094 -1.353025E-05
vt -0.5996094 -1.353025E-05
vt -0.5996094 -0.1947021
vt -0.8076172 -0.1347656
vt -0.6962891 1.353025E-05
vt -0.6962891 1.353025E-05
vt -0.6962891 1.353025E-05
vt -0.5996094 -1.353025E-05
vn 0 1 0
vn 0 1 0
vn 0 1 0
vn 0 1 0
vn 0 1 0
vn 0 1 0
vn 0 1 0
vn 0 1 0
vn 0.8099112 0.4929931 0.3178077
vn 0.65367 0.4862997 0.5798517
vn 0.9187692 0.3947951 0
vn 0.5778275 0.5276633 0.6226449
vn 0.3134114 0.495046 0.810372
vn 0 1 0
vn 0 1 0
vn 0 0.3947881 0.9187722
vn 0.2348236 0.4812451 0.8445478
vn 0 0.3947881 0.9187722
vn 0 0 1
vn 0.347514 -0.03179046 0.9371357
vn 0.2348236 0.4812451 0.8445478
vn 0.3134114 0.495046 0.810372
vn 0.464123 -0.01345664 0.8856685
vn 0.5778275 0.5276633 0.6226449
vn 0.6274525 -0.03873325 0.7776909
vn 0.6945468 -0.0681368 0.7162138
vn 0.65367 0.4862997 0.5798517
vn 0.9574807 -0.09935744 0.2708482
vn 0.8099112 0.4929931 0.3178077
vn 0.9187692 0.3947951 0
vn 1 0 0
vn 0.9428321 -0.04143254 0.3306826
vn 0.9994884 -0.03198363 0
vn 0.9981325 0.06108571 0
vn 0.9098507 0.05568302 0.4111825
vn 0.8889353 0.102172 0.4464916
vn 0.9953666 0.09615242 0
vn 0.688784 -0.01522261 0.7248068
vn 0.7057791 0.05150566 0.7065572
vn 0.7256288 0.06048335 0.685423
vn 0.6400006 0.03785475 0.7674414
vn 0.63658 -0.0156874 0.7710511
vn 0.5088088 0.02614288 0.8604826
vn 0.5074583 0.1010391 0.855732
vn 0 0.09619637 0.9953625
vn 0 0.06110193 0.9981316
vn 0 -0.03199961 0.9994879
vn 0.3751658 -0.05111312 0.9255475
vn 0.6397216 0.06485935 0.7658652
vn 0.5468946 -0.02115943 0.836934
vn 0 1 0
vn 0 1 0
vn 0 1 0
vn 0 1 0
vn 0 1 9.754825E-07
vn 0 1 9.754826E-07
vn 0 1 9.754827E-07
vn 0 1 9.754826E-07
vn 0 1 2.16348E-07
vn 0 1 2.163479E-07
vn 0 1 2.163479E-07
vn 0 1 2.163479E-07
vn 0 1 0
vn 0 1 0
vn 0 1 0
vn 0 1 0
vn -8.009591E-07 1 0
vn -8.00959E-07 1 0
vn -8.009591E-07 1 0
vn -8.00959E-07 1 0
vn -8.00959E-07 1 0
vn -8.00959E-07 1 0
vn -8.009591E-07 1 0
g m_sp_cliff_edge_04_0
f 3/3/3 2/2/2 1/1/1
f 3/3/3 4/4/4 2/2/2
f 2/2/2 4/4/4 5/5/5
f 2/2/2 5/5/5 6/6/6
f 7/7/7 6/6/6 5/5/5
f 6/6/6 8/8/8 2/2/2
f 3/3/3 9/9/9 4/4/4
f 9/9/9 3/3/3 1/1/1
f 9/9/9 10/10/10 4/4/4
f 11/11/11 9/9/9 1/1/1
f 12/12/12 5/5/5 4/4/4
f 10/10/10 12/12/12 4/4/4
f 7/7/7 5/5/5 12/12/12
f 13/13/13 7/7/7 12/12/12
f 6/6/6 7/7/7 14/14/14
f 14/14/14 7/7/7 13/13/13
f 14/14/14 15/15/15 6/6/6
f 16/16/16 15/15/15 14/14/14
f 17/17/17 16/16/16 14/14/14
f 17/17/17 14/14/14 13/13/13
g m_sp_cliff_edge_04_1
f 20/20/20 19/19/19 18/18/18
f 21/21/21 20/20/20 18/18/18
f 21/21/21 22/22/22 20/20/20
f 22/22/22 23/23/23 20/20/20
f 22/22/22 24/24/24 23/23/23
f 24/24/24 25/25/25 23/23/23
f 26/26/26 25/25/25 24/24/24
f 27/27/27 26/26/26 24/24/24
f 28/28/28 26/26/26 27/27/27
f 29/29/29 28/28/28 27/27/27
f 28/28/28 29/29/29 30/30/30
f 31/31/31 28/28/28 30/30/30
f 32/32/32 28/28/28 31/31/31
f 28/28/28 32/32/32 26/26/26
f 33/33/33 32/32/32 31/31/31
f 33/33/33 34/34/34 32/32/32
f 34/34/34 35/35/35 32/32/32
f 35/35/35 34/34/34 36/36/36
f 34/34/34 37/37/37 36/36/36
f 38/38/38 32/32/32 35/35/35
f 32/32/32 38/38/38 26/26/26
f 26/26/26 38/38/38 25/25/25
f 39/39/39 38/38/38 35/35/35
f 40/40/40 39/39/39 35/35/35
f 36/36/36 40/40/40 35/35/35
f 39/39/39 41/41/41 38/38/38
f 41/41/41 42/42/42 38/38/38
f 41/41/41 43/43/43 42/42/42
f 44/44/44 43/43/43 41/41/41
f 44/44/44 45/45/45 43/43/43
f 45/45/45 46/46/46 43/43/43
f 46/46/46 47/47/47 43/43/43
f 47/47/47 48/48/48 43/43/43
f 49/49/49 44/44/44 41/41/41
f 49/49/49 41/41/41 39/39/39
f 40/40/40 49/49/49 39/39/39
f 43/43/43 50/50/50 42/42/42
f 48/48/48 50/50/50 43/43/43
f 38/38/38 42/42/42 25/25/25
f 25/25/25 42/42/42 50/50/50
f 23/23/23 25/25/25 50/50/50
f 23/23/23 50/50/50 48/48/48
f 20/20/20 23/23/23 48/48/48
f 48/48/48 47/47/47 19/19/19
f 20/20/20 48/48/48 19/19/19
g m_sp_cliff_edge_04_2
f 53/53/53 52/52/52 51/51/51
f 54/54/54 53/53/53 51/51/51
f 57/57/57 56/56/56 55/55/55
f 58/58/58 57/57/57 55/55/55
f 61/61/61 60/60/60 59/59/59
f 62/62/62 61/61/61 59/59/59
f 65/65/65 64/64/64 63/63/63
f 66/66/66 65/65/65 63/63/63
f 69/69/69 68/68/68 67/67/67
f 67/67/67 70/70/70 69/69/69
f 73/73/73 72/72/72 71/71/71
