g m_wizard_window_01_godray_01
v -150.1567 52.91798 -16.75696
v -211.2908 -45.84633 -345.8691
v -205.4724 -47.07247 -358.1688
v -146.5073 67.78423 -16.75696
v -198.1721 -48.19881 -369.4674
v -141.4478 82.21439 -16.75696
v -189.5425 -49.24995 -380.0115
v -135.0261 96.06959 -16.75696
v -179.7349 -50.16167 -389.1572
v -127.3042 109.2164 -16.75696
v -163.615 -51.51951 -402.7781
v -118.356 121.5283 -16.75696
v -147.4387 -52.6752 -414.3711
v -108.2676 132.8865 -16.75696
v -130.585 -53.58635 -423.511
v -97.13647 143.1817 -16.75696
v -116.8211 -54.24051 -430.0732
v -85.06909 152.3145 -16.75696
v -99.55835 -54.93735 -437.0635
v -72.18188 160.1968 -16.75696
v -84.90625 -55.41847 -441.8898
v -58.59888 166.7525 -16.75696
v -68.65259 -55.78511 -445.5675
v -44.45068 171.9183 -16.75696
v -46.08008 -56.2116 -449.8457
v -29.87402 175.6442 -16.75696
v -23.51099 -56.47997 -452.5376
v -15.00928 177.8942 -16.75696
v 3.042634E-15 -56.54276 -453.1675
v 3.013171E-15 178.6467 -16.75696
v 23.948 -56.44302 -452.1672
v 15.00928 177.8942 -16.75696
v 46.09888 -56.19124 -449.6418
v 29.87402 175.6442 -16.75696
v 68.65259 -55.78506 -445.5675
v 44.45068 171.9183 -16.75696
v 84.90625 -55.41843 -441.8896
v 58.59888 166.7525 -16.75696
v 99.55835 -54.93732 -437.0635
v 72.18188 160.1968 -16.75696
v 116.8211 -54.2405 -430.0731
v 85.06909 152.3145 -16.75696
v 130.585 -53.58635 -423.511
v 97.13647 143.1817 -16.75696
v 147.4387 -52.6752 -414.371
v 108.2676 132.8865 -16.75696
v 163.615 -51.51951 -402.7781
v 118.356 121.5283 -16.75696
v 179.7346 -50.16166 -389.1572
v 127.3042 109.2164 -16.75696
v 179.7346 -50.16166 -389.1572
v 189.5425 -49.24994 -380.0115
v 135.0261 96.06959 -16.75696
v 198.1721 -48.19881 -369.4673
v 141.4478 82.21439 -16.75696
v 205.4724 -47.07247 -358.1688
v 146.5073 67.78423 -16.75696
v 211.2908 -45.84634 -345.8691
v 150.1567 52.91798 -16.75696
v 215.4868 -44.36493 -331.0087
v 152.3604 37.75866 -16.75696
v 118.356 121.5283 -16.75696
v 219.4658 -42.50897 -312.3911
v 153.7888 21.16235 -17.63074
v -152.3604 37.75866 -16.75696
v -215.4868 -44.36493 -331.0088
v -211.2908 -45.84633 -345.8691
v -152.3604 37.75866 -16.75696
v -211.2908 -45.84633 -345.8691
v -150.1567 52.91798 -16.75696
v -153.7886 21.16235 -17.63074
v -219.4658 -42.50897 -312.3911
v -215.4868 -44.36493 -331.0088
v -153.7886 21.16235 -17.63074
v -215.4868 -44.36493 -331.0088
v -152.3604 37.75866 -16.75696
vt 1.178711 1.171875
vt 1.213867 0.05227661
vt 1.189453 0.01622009
vt 1.131836 1.185547
vt 1.162109 -0.01667786
vt 1.085938 1.200195
vt 1.131836 -0.04730225
vt 1.039063 1.21582
vt 1.097656 -0.07373047
vt 0.9936523 1.230469
vt 1.043945 -0.1132813
vt 0.9477539 1.246094
vt 0.9902344 -0.1469727
vt 0.9018555 1.260742
vt 0.9355469 -0.1734619
vt 0.8554688 1.274414
vt 0.8911133 -0.1925049
vt 0.809082 1.287109
vt 0.8354492 -0.2128906
vt 0.7626953 1.298828
vt 0.7885742 -0.2268066
vt 0.7158203 1.308594
vt 0.7363281 -0.2373047
vt 0.668457 1.316406
vt 0.6645508 -0.2495117
vt 0.6210938 1.321289
vt 0.5927734 -0.2570801
vt 0.5737305 1.325195
vt 0.5180664 -0.2585449
vt 0.5258789 1.327148
vt 0.4421387 -0.2553711
vt 0.4782715 1.326172
vt 0.3718262 -0.2475586
vt 0.4306641 1.322266
vt 0.300293 -0.2352295
vt 0.3833008 1.317383
vt 0.2485352 -0.2241211
vt 0.3359375 1.30957
vt 0.2016602 -0.2097168
vt 0.2890625 1.300781
vt 0.1462402 -0.1888428
vt 0.2423096 1.290039
vt 0.1019287 -0.1694336
vt 0.1959229 1.277344
vt 0.04736328 -0.142334
vt 0.1496582 1.264648
vt -0.005859375 -0.1081543
vt 0.1036377 1.25
vt -0.05969238 -0.0680542
vt 0.05761719 1.235352
vt -0.05969238 -0.0680542
vt -0.09289551 -0.04129028
vt 0.01152802 1.220703
vt -0.1233521 -0.01038361
vt -0.03466797 1.206055
vt -0.1503906 0.02278137
vt -0.08111572 1.191406
vt -0.1741943 0.05908203
vt -0.1278076 1.178711
vt -0.1953125 0.1035156
vt -0.1749268 1.166016
vt 0.1036377 1.25
vt -0.2193604 0.1593018
vt -0.2249756 1.151367
vt 1.225586 1.15918
vt 1.235352 0.09655762
vt 1.213867 0.05227661
vt 1.225586 1.15918
vt 1.213867 0.05227661
vt 1.178711 1.171875
vt 1.275391 1.144531
vt 1.259766 0.1519775
vt 1.235352 0.09655762
vt 1.275391 1.144531
vt 1.235352 0.09655762
vt 1.225586 1.15918
vn -0.8547068 0.51911 -0.001029417
vn -0.8416373 0.5397847 -0.01670752
vn -0.7819235 0.6179296 -0.08221142
vn -0.7931342 0.6049216 -0.07076772
vn -0.7181119 0.6808803 -0.1439348
vn -0.7265322 0.6734914 -0.1362361
vn -0.6516371 0.7314493 -0.2008757
vn -0.6576067 0.7274065 -0.1960439
vn -0.5432991 0.7946047 -0.2709789
vn -0.5490615 0.7917603 -0.2676695
vn -0.4792825 0.8192633 -0.3147948
vn -0.4813227 0.8186903 -0.3131686
vn -0.4227432 0.8354523 -0.3511518
vn -0.4243836 0.8350152 -0.3502117
vn -0.385088 0.8425736 -0.3765327
vn -0.3853409 0.8425507 -0.3763252
vn -0.3276616 0.8543121 -0.4034708
vn -0.3278841 0.8542665 -0.4033868
vn -0.2772183 0.8624962 -0.4233795
vn -0.2772281 0.8624951 -0.4233754
vn -0.2204228 0.8698699 -0.4412938
vn -0.2197277 0.8699536 -0.4414756
vn -0.1558523 0.8759489 -0.4565342
vn -0.1549588 0.8760086 -0.456724
vn -0.1038039 0.8786566 -0.4660335
vn -0.1035309 0.8786665 -0.4660756
vn -0.0505789 0.8801908 -0.4719173
vn -0.0503315 0.8801953 -0.4719355
vn 0.001729 0.8805737 -0.473906
vn 0.001842669 0.8805735 -0.4739061
vn 0.05162082 0.880062 -0.4720447
vn 0.05143318 0.8800654 -0.472059
vn 0.1027119 0.8786846 -0.4662227
vn 0.1023378 0.8786972 -0.4662814
vn 0.1547886 0.8760599 -0.4566829
vn 0.1537947 0.8761265 -0.4568913
vn 0.2204231 0.8698698 -0.4412938
vn 0.219728 0.8699534 -0.4414755
vn 0.2772183 0.8624962 -0.4233796
vn 0.2772281 0.8624951 -0.4233755
vn 0.327663 0.8543118 -0.4034705
vn 0.3278854 0.8542661 -0.4033865
vn 0.3850883 0.8425736 -0.3765326
vn 0.3853412 0.8425506 -0.3763252
vn 0.4227436 0.8354521 -0.3511518
vn 0.4243838 0.8350151 -0.3502117
vn 0.4792825 0.8192633 -0.314795
vn 0.481323 0.8186902 -0.3131686
vn 0.5433007 0.7946037 -0.2709784
vn 0.5490626 0.7917597 -0.2676692
vn 0.5433007 0.7946037 -0.2709784
vn 0.6516333 0.7314522 -0.2008774
vn 0.6576034 0.7274091 -0.1960454
vn 0.7181124 0.6808799 -0.1439345
vn 0.7265325 0.6734911 -0.136236
vn 0.7819235 0.6179296 -0.08221148
vn 0.7931341 0.6049216 -0.07076775
vn 0.8416372 0.5397848 -0.01670752
vn 0.8547067 0.5191103 -0.001029411
vn 0.8883721 0.4566074 0.04800789
vn 0.8913129 0.4494404 0.05970495
vn 0.481323 0.8186902 -0.3131686
vn 0.8973237 0.432884 0.08614926
vn 0.8973236 0.432884 0.08614927
vn -0.8913147 0.4494368 0.05970638
vn -0.8883728 0.4566057 0.04800845
vn -0.8416373 0.5397847 -0.01670752
vn -0.8913147 0.4494368 0.05970638
vn -0.8416373 0.5397847 -0.01670752
vn -0.8547068 0.51911 -0.001029417
vn -0.8973274 0.4328756 0.08615256
vn -0.8973274 0.4328756 0.08615256
vn -0.8883728 0.4566057 0.04800845
vn -0.8973274 0.4328756 0.08615256
vn -0.8883728 0.4566057 0.04800845
vn -0.8913147 0.4494368 0.05970638
g m_wizard_window_01_godray_01_0
f 3/3/3 2/2/2 1/1/1
f 4/4/4 3/3/3 1/1/1
f 5/5/5 3/3/3 4/4/4
f 6/6/6 5/5/5 4/4/4
f 7/7/7 5/5/5 6/6/6
f 8/8/8 7/7/7 6/6/6
f 9/9/9 7/7/7 8/8/8
f 10/10/10 9/9/9 8/8/8
f 11/11/11 9/9/9 10/10/10
f 12/12/12 11/11/11 10/10/10
f 13/13/13 11/11/11 12/12/12
f 14/14/14 13/13/13 12/12/12
f 15/15/15 13/13/13 14/14/14
f 16/16/16 15/15/15 14/14/14
f 17/17/17 15/15/15 16/16/16
f 18/18/18 17/17/17 16/16/16
f 19/19/19 17/17/17 18/18/18
f 20/20/20 19/19/19 18/18/18
f 21/21/21 19/19/19 20/20/20
f 22/22/22 21/21/21 20/20/20
f 23/23/23 21/21/21 22/22/22
f 24/24/24 23/23/23 22/22/22
f 25/25/25 23/23/23 24/24/24
f 26/26/26 25/25/25 24/24/24
f 27/27/27 25/25/25 26/26/26
f 28/28/28 27/27/27 26/26/26
f 29/29/29 27/27/27 28/28/28
f 30/30/30 29/29/29 28/28/28
f 31/31/31 29/29/29 30/30/30
f 32/32/32 31/31/31 30/30/30
f 33/33/33 31/31/31 32/32/32
f 34/34/34 33/33/33 32/32/32
f 35/35/35 33/33/33 34/34/34
f 36/36/36 35/35/35 34/34/34
f 37/37/37 35/35/35 36/36/36
f 38/38/38 37/37/37 36/36/36
f 39/39/39 37/37/37 38/38/38
f 40/40/40 39/39/39 38/38/38
f 41/41/41 39/39/39 40/40/40
f 42/42/42 41/41/41 40/40/40
f 43/43/43 41/41/41 42/42/42
f 44/44/44 43/43/43 42/42/42
f 45/45/45 43/43/43 44/44/44
f 46/46/46 45/45/45 44/44/44
f 47/47/47 45/45/45 46/46/46
f 48/48/48 47/47/47 46/46/46
f 49/49/49 47/47/47 48/48/48
f 52/52/52 51/51/51 50/50/50
f 53/53/53 52/52/52 50/50/50
f 54/54/54 52/52/52 53/53/53
f 55/55/55 54/54/54 53/53/53
f 56/56/56 54/54/54 55/55/55
f 57/57/57 56/56/56 55/55/55
f 58/58/58 56/56/56 57/57/57
f 59/59/59 58/58/58 57/57/57
f 60/60/60 58/58/58 59/59/59
f 61/61/61 60/60/60 59/59/59
f 50/50/50 51/51/51 62/62/62
f 63/63/63 60/60/60 61/61/61
f 64/64/64 63/63/63 61/61/61
f 67/67/67 66/66/66 65/65/65
f 70/70/70 69/69/69 68/68/68
f 73/73/73 72/72/72 71/71/71
f 76/76/76 75/75/75 74/74/74
