g m_worldtext_4_3
v 0.2320183 -0.01195589 -1.104167
v 2.639641 -0.01195589 -1.104167
v 2.639641 -0.01195589 1.207537
v 0.2320183 -0.01195589 1.207537
v -2.639641 -0.01195589 1.005867
v -2.639641 -0.01195589 -1.207537
v -0.5489341 -0.01195589 -1.207537
v -0.5489341 -0.01195589 1.005869
v -0.4299275 0.01195589 0.2675317
v -0.4299275 0.01195589 -0.2911035
v 0.5266985 0.01195589 -0.2911035
v 0.5266985 0.01195589 0.2675317
vt 0.6665039 1
vt 1 1
vt 1 0.6801758
vt 0.6665039 0.6801758
vt 0 0.2480469
vt 0 0.5546875
vt 0.2895508 0.5546875
vt 0.2895508 0.2480469
vt 0.0769043 0.04806519
vt 0.0769043 0.1253662
vt 0.2093506 0.1253662
vt 0.2093506 0.04806519
vn 0 1 0
vn 0 1 0
vn 0 1 0
vn 0 1 0
vn 0 1 0
vn 0 1 0
vn 0 1 0
vn 0 1 0
vn 0 1 0
vn 0 1 0
vn 0 1 0
vn 0 1 0
g m_worldtext_4_3_0
f 3/3/3 2/2/2 1/1/1
f 4/4/4 3/3/3 1/1/1
f 7/7/7 6/6/6 5/5/5
f 8/8/8 7/7/7 5/5/5
f 11/11/11 10/10/10 9/9/9
f 12/12/12 11/11/11 9/9/9
