g m_worldtext_4_6
v 2.774024 -0.01195589 -1.137024
v 2.774024 -0.01195589 1.055461
v 0.3664021 -0.01195589 1.055461
v 0.3664021 -0.01195589 -1.137024
v -0.5643114 0.01195589 0.3986889
v -0.5643114 0.01195589 -0.1599487
v 0.3923146 0.01195589 -0.1599487
v 0.3923146 0.01195589 0.3986889
v -2.774024 -0.01195589 1.137024
v -2.774024 -0.01195589 -1.076382
v -0.683318 -0.01195589 -1.076382
v -0.683318 -0.01195589 1.137024
vt 1 0.5546875
vt 1 0.2509766
vt 0.6665039 0.2509766
vt 0.6665039 0.5546875
vt 0.0769043 0.04806519
vt 0.0769043 0.1253662
vt 0.2093506 0.1253662
vt 0.2093506 0.04806519
vt 0 0.2480469
vt 0 0.5546875
vt 0.2895508 0.5546875
vt 0.2895508 0.2480469
vn 0 1 0
vn 0 1 0
vn 0 1 0
vn 0 1 0
vn 0 1 0
vn 0 1 0
vn 0 1 0
vn 0 1 0
vn 0 1 0
vn 0 1 0
vn 0 1 0
vn 0 1 0
g m_worldtext_4_6_0
f 3/3/3 2/2/2 1/1/1
f 4/4/4 3/3/3 1/1/1
f 7/7/7 6/6/6 5/5/5
f 8/8/8 7/7/7 5/5/5
f 11/11/11 10/10/10 9/9/9
f 12/12/12 11/11/11 9/9/9
