g m_worldtext_3_4
v 0.5780557 -0.01195589 1.070463
v 0.5780557 -0.01195589 -1.142936
v 2.668762 -0.01195589 -1.142936
v 2.668762 -0.01195589 1.070468
v -0.5057995 0.01195589 0.2920547
v -0.5057995 0.01195589 -0.2665781
v 0.4508264 0.01195589 -0.2665781
v 0.4508264 0.01195589 0.2920547
v -2.788808 -0.01195589 -1.145689
v -0.3811853 -0.01195589 -1.145689
v -0.3811853 -0.01195589 1.16601
v -2.788808 -0.01195589 1.16601
vt 0 0.2480469
vt 0 0.5546875
vt 0.2895508 0.5546875
vt 0.2895508 0.2480469
vt 0.0769043 0.04806519
vt 0.0769043 0.1253662
vt 0.2093506 0.1253662
vt 0.2093506 0.04806519
vt 0.6665039 1
vt 1 1
vt 1 0.6801758
vt 0.6665039 0.6801758
vn 0 1 0
vn 0 1 0
vn 0 1 0
vn 0 1 0
vn 0 1 0
vn 0 1 0
vn 0 1 0
vn 0 1 0
vn 0 1 0
vn 0 1 0
vn 0 1 0
vn 0 1 0
g m_worldtext_3_4_0
f 3/3/3 2/2/2 1/1/1
f 4/4/4 3/3/3 1/1/1
f 7/7/7 6/6/6 5/5/5
f 8/8/8 7/7/7 5/5/5
f 11/11/11 10/10/10 9/9/9
f 12/12/12 11/11/11 9/9/9
