g m_worldtext_6_3
v 0.4215239 -0.01195589 -1.149929
v 2.829147 -0.01195589 -1.149929
v 2.829147 -0.01195589 1.16177
v 0.4215239 -0.01195589 1.16177
v -0.293855 0.01195589 0.1299243
v -0.293855 0.01195589 -0.4287085
v 0.662771 0.01195589 -0.4287085
v 0.662771 0.01195589 0.1299243
v -0.421524 -0.01195589 -1.16177
v -0.421524 -0.01195589 1.030715
v -2.829147 -0.01195589 1.030715
v -2.829147 -0.01195589 -1.16177
vt 0.6665039 1
vt 1 1
vt 1 0.6801758
vt 0.6665039 0.6801758
vt 0.0769043 0.04806519
vt 0.0769043 0.1253662
vt 0.2093506 0.1253662
vt 0.2093506 0.04806519
vt 1 0.5546875
vt 1 0.2509766
vt 0.6665039 0.2509766
vt 0.6665039 0.5546875
vn 0 1 0
vn 0 1 0
vn 0 1 0
vn 0 1 0
vn 0 1 0
vn 0 1 0
vn 0 1 0
vn 0 1 0
vn 0 1 0
vn 0 1 0
vn 0 1 0
vn 0 1 0
g m_worldtext_6_3_0
f 3/3/3 2/2/2 1/1/1
f 4/4/4 3/3/3 1/1/1
f 7/7/7 6/6/6 5/5/5
f 8/8/8 7/7/7 5/5/5
f 11/11/11 10/10/10 9/9/9
f 12/12/12 11/11/11 9/9/9
