g m_worldtext_3_1
v 0.3769049 -0.03155901 1.122073
v 0.3769049 -0.03155901 -1.189631
v 2.784524 -0.03155901 -1.189631
v 2.784524 -0.03155901 1.122073
v -0.5015161 0.03155901 0.3327551
v -0.5015161 0.03155901 -0.2258801
v 0.4551099 0.03155901 -0.2258801
v 0.4551099 0.03155901 0.3327551
v -2.784524 0.007647225 -1.122073
v -0.3769018 0.007647225 -1.122073
v -0.3769018 0.007647225 1.189631
v -2.784524 0.007647225 1.189631
vt 0 0.6801758
vt 0 1
vt 0.333252 1
vt 0.333252 0.6801758
vt 0.0769043 0.04806519
vt 0.0769043 0.1253662
vt 0.2093506 0.1253662
vt 0.2093506 0.04806519
vt 0.6665039 1
vt 1 1
vt 1 0.6801758
vt 0.6665039 0.6801758
vn 0 1 0
vn 0 1 0
vn 0 1 0
vn 0 1 0
vn 0 1 0
vn 0 1 0
vn 0 1 0
vn 0 1 0
vn 0 1 0
vn 0 1 0
vn 0 1 0
vn 0 1 0
g m_worldtext_3_1_0
f 3/3/3 2/2/2 1/1/1
f 4/4/4 3/3/3 1/1/1
f 7/7/7 6/6/6 5/5/5
f 8/8/8 7/7/7 5/5/5
f 11/11/11 10/10/10 9/9/9
f 12/12/12 11/11/11 9/9/9
