g m_worldtext_4_1
v 0.3402574 -0.03155901 1.155852
v 0.3402574 -0.03155901 -1.155852
v 2.747877 -0.03155901 -1.155852
v 2.747877 -0.03155901 1.155852
v -2.747877 0.007647225 1.128555
v -2.747877 0.007647225 -1.084849
v -0.6571702 0.007647225 -1.084849
v -0.6571702 0.007647225 1.128556
v -0.5381636 0.03155901 0.4819871
v -0.5381636 0.03155901 -0.07664841
v 0.4184624 0.03155901 -0.07664841
v 0.4184624 0.03155901 0.4819871
vt 0 0.6801758
vt 0 1
vt 0.333252 1
vt 0.333252 0.6801758
vt 0 0.2480469
vt 0 0.5546875
vt 0.2895508 0.5546875
vt 0.2895508 0.2480469
vt 0.0769043 0.04806519
vt 0.0769043 0.1253662
vt 0.2093506 0.1253662
vt 0.2093506 0.04806519
vn 0 1 0
vn 0 1 0
vn 0 1 0
vn 0 1 0
vn 0 1 0
vn 0 1 0
vn 0 1 0
vn 0 1 0
vn 0 1 0
vn 0 1 0
vn 0 1 0
vn 0 1 0
g m_worldtext_4_1_0
f 3/3/3 2/2/2 1/1/1
f 4/4/4 3/3/3 1/1/1
f 7/7/7 6/6/6 5/5/5
f 8/8/8 7/7/7 5/5/5
f 11/11/11 10/10/10 9/9/9
f 12/12/12 11/11/11 9/9/9
