g m_worldtext_5_3
v 0.3059908 -0.01195589 -1.15585
v 2.713614 -0.01195589 -1.15585
v 2.713614 -0.01195589 1.15585
v 0.3059908 -0.01195589 1.15585
v -0.3059904 -0.01195589 -1.074468
v -0.3059904 -0.01195589 1.109409
v -2.713614 -0.01195589 1.109409
v -2.713614 -0.01195589 -1.074468
v -0.4093881 0.01195589 0.233208
v -0.4093881 0.01195589 -0.3254248
v 0.5472378 0.01195589 -0.3254248
v 0.5472378 0.01195589 0.233208
vt 0.6665039 1
vt 1 1
vt 1 0.6801758
vt 0.6665039 0.6801758
vt 0.6665039 0.5546875
vt 0.6665039 0.2521973
vt 0.333252 0.2521973
vt 0.333252 0.5546875
vt 0.0769043 0.04806519
vt 0.0769043 0.1253662
vt 0.2093506 0.1253662
vt 0.2093506 0.04806519
vn 0 1 0
vn 0 1 0
vn 0 1 0
vn 0 1 0
vn 0 1 0
vn 0 1 0
vn 0 1 0
vn 0 1 0
vn 0 1 0
vn 0 1 0
vn 0 1 0
vn 0 1 0
g m_worldtext_5_3_0
f 3/3/3 2/2/2 1/1/1
f 4/4/4 3/3/3 1/1/1
f 7/7/7 6/6/6 5/5/5
f 8/8/8 7/7/7 5/5/5
f 11/11/11 10/10/10 9/9/9
f 12/12/12 11/11/11 9/9/9
