g m_worldtext_1_2
v 0.2226305 0.007647225 -1.149965
v 2.630253 0.007647225 -1.149965
v 2.630253 0.007647225 1.161739
v 0.2226305 0.007647225 1.161739
v -2.630253 -0.03155901 1.149964
v -2.630253 -0.03155901 -1.161739
v -0.2226337 -0.03155901 -1.161739
v -0.2226337 -0.03155901 1.149964
v -0.5136108 0.03155901 0.2356503
v -0.5136108 0.03155901 -0.3229849
v 0.4430151 0.03155901 -0.3229849
v 0.4430151 0.03155901 0.2356503
vt 0.333252 1
vt 0.6665039 1
vt 0.6665039 0.6801758
vt 0.333252 0.6801758
vt 0 0.6801758
vt 0 1
vt 0.333252 1
vt 0.333252 0.6801758
vt 0.0769043 0.04806519
vt 0.0769043 0.1253662
vt 0.2093506 0.1253662
vt 0.2093506 0.04806519
vn 0 1 0
vn 0 1 0
vn 0 1 0
vn 0 1 0
vn 0 1 0
vn 0 1 0
vn 0 1 0
vn 0 1 0
vn 0 1 0
vn 0 1 0
vn 0 1 0
vn 0 1 0
g m_worldtext_1_2_0
f 3/3/3 2/2/2 1/1/1
f 4/4/4 3/3/3 1/1/1
f 7/7/7 6/6/6 5/5/5
f 8/8/8 7/7/7 5/5/5
f 11/11/11 10/10/10 9/9/9
f 12/12/12 11/11/11 9/9/9
