g m_worldtext_5_4
v 0.6486869 -0.01195589 1.07769
v 0.6486869 -0.01195589 -1.135708
v 2.739394 -0.01195589 -1.135708
v 2.739394 -0.01195589 1.077695
v -0.3317706 -0.01195589 -1.048169
v -0.3317706 -0.01195589 1.135708
v -2.739394 -0.01195589 1.135708
v -2.739394 -0.01195589 -1.048169
v -0.4351683 0.01195589 0.2595068
v -0.4351683 0.01195589 -0.299126
v 0.5214577 0.01195589 -0.299126
v 0.5214577 0.01195589 0.2595068
vt 0 0.2480469
vt 0 0.5546875
vt 0.2895508 0.5546875
vt 0.2895508 0.2480469
vt 0.6665039 0.5546875
vt 0.6665039 0.2521973
vt 0.333252 0.2521973
vt 0.333252 0.5546875
vt 0.0769043 0.04806519
vt 0.0769043 0.1253662
vt 0.2093506 0.1253662
vt 0.2093506 0.04806519
vn 0 1 0
vn 0 1 0
vn 0 1 0
vn 0 1 0
vn 0 1 0
vn 0 1 0
vn 0 1 0
vn 0 1 0
vn 0 1 0
vn 0 1 0
vn 0 1 0
vn 0 1 0
g m_worldtext_5_4_0
f 3/3/3 2/2/2 1/1/1
f 4/4/4 3/3/3 1/1/1
f 7/7/7 6/6/6 5/5/5
f 8/8/8 7/7/7 5/5/5
f 11/11/11 10/10/10 9/9/9
f 12/12/12 11/11/11 9/9/9
