g m_worldtext_6_1
v 0.5030466 -0.03155901 1.155852
v 0.5030466 -0.03155901 -1.155852
v 2.910666 -0.03155901 -1.155852
v 2.910666 -0.03155901 1.155852
v -0.3753744 0.03155901 0.3975659
v -0.3753744 0.03155901 -0.1610693
v 0.5812515 0.03155901 -0.1610693
v 0.5812515 0.03155901 0.3975659
v -0.5030435 0.007647225 -1.057588
v -0.5030435 0.007647225 1.134895
v -2.910666 0.007647225 1.134895
v -2.910666 0.007647225 -1.057588
vt 0 0.6801758
vt 0 1
vt 0.333252 1
vt 0.333252 0.6801758
vt 0.0769043 0.04806519
vt 0.0769043 0.1253662
vt 0.2093506 0.1253662
vt 0.2093506 0.04806519
vt 1 0.5546875
vt 1 0.2509766
vt 0.6665039 0.2509766
vt 0.6665039 0.5546875
vn 0 1 0
vn 0 1 0
vn 0 1 0
vn 0 1 0
vn 0 1 0
vn 0 1 0
vn 0 1 0
vn 0 1 0
vn 0 1 0
vn 0 1 0
vn 0 1 0
vn 0 1 0
g m_worldtext_6_1_0
f 3/3/3 2/2/2 1/1/1
f 4/4/4 3/3/3 1/1/1
f 7/7/7 6/6/6 5/5/5
f 8/8/8 7/7/7 5/5/5
f 11/11/11 10/10/10 9/9/9
f 12/12/12 11/11/11 9/9/9
