g Magic_Tree1
v 1.182099 1.010026 -0.09207661
v 0.887803 1.356256 -0.06905746
v 0.682424 1.356256 -0.344798
v 1.220174 1.010026 -0.61847
v 0.5803808 1.356256 -0.6731285
v 0.7722017 1.010026 -0.8975022
v 0.32141 1.356256 -0.972482
v 0.426908 1.010026 -1.296642
v -0.06414146 1.356256 -0.882887
v -0.0871606 1.010026 -1.177183
v -0.458936 1.356256 -0.911444
v -0.613554 1.010026 -1.215258
v -0.6682125 1.356256 -0.5754648
v -0.8925886 1.010026 -0.7672856
v -0.967566 1.356256 -0.316494
v -1.291726 1.010026 -0.421994
v -0.877971 1.356256 0.06905746
v -1.172267 1.010026 0.09207894
v -0.906528 1.356256 0.463852
v -1.210342 1.010026 0.61847
v -0.5705488 1.356256 0.6731285
v -0.7623697 1.010026 0.8975022
v -0.311578 1.356256 0.972482
v -0.417076 1.010026 1.296642
v 0.07397345 1.356256 0.882887
v 0.09699493 1.010026 1.177183
v 0.468768 1.356256 0.911444
v 0.623386 1.010026 1.215258
v 0.6780445 1.356256 0.5754648
v 0.9024183 1.010026 0.7672856
v 0.977398 1.356256 0.316494
v 1.301558 1.010026 0.421992
v -0.378728 1.795838 0.4487523
v -0.20608 1.795838 0.648322
v 0.05095431 1.795838 0.5885913
v 0.314152 1.795838 0.60763
v 0.4536683 1.795838 0.3836417
v 0.653238 1.795838 0.210996
v 0.5935073 1.795838 -0.0460383
v 0.456588 1.795838 -0.229866
v 0.3885576 1.795838 -0.4487523
v 0.215912 1.795838 -0.648322
v -0.04112231 1.795838 -0.5885913
v -0.30432 1.795838 -0.60763
v -0.4438363 1.795838 -0.383644
v -0.643406 1.795838 -0.210996
v -0.5836753 1.795838 0.0460383
v -0.602714 1.795838 0.309236
v 0.8537216 1.659836 -0.3515873
v 0.6415213 1.978624 -0.2636904
v 0.567584 1.978624 -0.562668
v 0.75514 1.659836 -0.750224
v 0.231272 1.978624 -0.54647
v 0.306724 1.659836 -0.7286279
v 0.004916 1.978624 -0.795732
v 0.004916 1.659836 -1.060976
v -0.2587745 1.978624 -0.6366054
v -0.3466713 1.659836 -0.8488055
v -0.557752 1.978624 -0.562668
v -0.745308 1.659836 -0.750224
v -0.6316894 1.978624 -0.2636904
v -0.8438896 1.659836 -0.3515873
v -0.790816 1.978624 0
v -1.056062 1.659836 0
v -0.6316894 1.978624 0.2636904
v -0.8438896 1.659836 0.3515873
v -0.557752 1.978624 0.562668
v -0.745308 1.659836 0.750224
v -0.2587745 1.978624 0.6366054
v -0.3466713 1.659836 0.8488055
v 0.004916 1.978624 0.795732
v 0.004916 1.659836 1.060976
v 0.2686065 1.978624 0.6366054
v 0.3565033 1.659836 0.8488055
v 0.567584 1.978624 0.562668
v 0.75514 1.659836 0.750224
v 0.6415191 1.978624 0.2636904
v 0.8537216 1.659836 0.3515873
v 0.800648 1.978624 0
v 1.065892 1.659836 0
v -0.1708777 2.307774 0.4244028
v 0.004916 2.307774 0.530488
v 0.1807096 2.307774 0.4244028
v 0.380028 2.307774 0.375112
v 0.4293188 2.307774 0.1757936
v 0.535404 2.307774 0
v 0.4293188 2.307774 -0.1757936
v 0.380028 2.307774 -0.375112
v 0.15582 2.307774 -0.364314
v 0.004916 2.307774 -0.530488
v -0.1708777 2.307774 -0.4244028
v -0.370196 2.307774 -0.375112
v -0.4194868 2.307774 -0.1757936
v -0.525572 2.307774 0
v -0.4194868 2.307774 0.1757936
v -0.370196 2.307774 0.375112
v 1.218512 0.254234 -0.5026865
v 0.9151137 0.6443999 -0.3770155
v 0.809402 0.6443999 -0.804486
v 1.077564 0.254234 -1.072646
v 0.3819315 0.6443999 -0.9101978
v 0.5076049 0.254234 -1.213596
v 0.004916 0.6443999 -1.137714
v 0.004916 0.254234 -1.516952
v -0.3720995 0.6443999 -0.9101978
v -0.4977729 0.254234 -1.213596
v -0.7995701 0.6443999 -0.804486
v -1.067732 0.254234 -1.072648
v -0.9052818 0.6443999 -0.3770155
v -1.20868 0.254234 -0.5026889
v -1.132798 0.6443999 0
v -1.512036 0.254234 0
v -0.9052818 0.6443999 0.3770155
v -1.20868 0.254234 0.5026889
v -0.7995701 0.6443999 0.804486
v -1.067732 0.254234 1.072648
v -0.3720995 0.6443999 0.9101978
v -0.4977729 0.254234 1.213596
v 0.004916 0.6443999 1.137714
v 0.004916 0.254234 1.516952
v 0.3819315 0.6443999 0.9101978
v 0.5076049 0.254234 1.213596
v 0.809402 0.6443999 0.804486
v 1.077564 0.254234 1.072648
v 0.9151137 0.6443999 0.3770155
v 1.218512 0.254234 0.5026889
v 1.14263 0.6443999 0
v 1.521868 0.254234 0
v -0.2464284 1.125534 0.6067993
v 0.004916 1.125534 0.758476
v 0.2562605 1.125534 0.6067993
v 0.54124 1.125534 0.536324
v 0.6117153 1.125534 0.2513444
v 0.763392 1.125534 0
v 0.6117153 1.125534 -0.2513444
v 0.54124 1.125534 -0.536324
v 0.2562605 1.125534 -0.6067993
v 0.004916 1.125534 -0.758476
v -0.2464284 1.125534 -0.6067993
v -0.531408 1.125534 -0.536324
v -0.6018833 1.125534 -0.2513444
v -0.7535599 1.125534 0
v -0.6018833 1.125534 0.2513444
v -0.531408 1.125534 0.536324
v 0.412567 2.345784 -0.4368699
v 0.2087403 2.8413 -0.218435
v 0.125846 2.8413 -0.323126
v 0.246778 2.345784 -0.646254
v -0.005414662 2.8413 -0.2985826
v -0.01574532 2.345784 -0.5971652
v -0.138058 2.8413 -0.313996
v -0.281032 2.345784 -0.627992
v -0.213519 2.8413 -0.2038243
v -0.431954 2.345784 -0.4076511
v -0.31821 2.8413 -0.12093
v -0.6413379 2.345784 -0.241862
v -0.2936667 2.8413 0.01033066
v -0.5922493 2.345784 0.02066132
v -0.30908 2.8413 0.142974
v -0.623076 2.345784 0.285948
v -0.1989083 2.8413 0.218435
v -0.402735 2.345784 0.4368699
v -0.116014 2.8413 0.323126
v -0.236946 2.345784 0.646254
v 0.01524666 2.8413 0.2985826
v 0.02557732 2.345784 0.5971652
v 0.14789 2.8413 0.313996
v 0.290864 2.345784 0.627992
v 0.223351 2.8413 0.2038243
v 0.4417859 2.345784 0.4076511
v 0.328042 2.8413 0.12093
v 0.65117 2.345784 0.241862
v 0.3034986 2.8413 -0.01033066
v 0.6020812 2.345784 -0.02066132
v 0.318912 2.8413 -0.142974
v 0.632908 2.345784 -0.285948
v 0.004915998 3.336814 0
vt 0.610333 0.380127
vt 0.656841 0.33275
vt 0.629534 0.294977
vt 0.525636 0.339919
vt 0.617916 0.249631
vt 0.547438 0.248638
vt 0.602552 0.17847
vt 0.525636 0.150504
vt 0.653973 0.138029
vt 0.601066 0.092153
vt 0.688379 0.078115
vt 0.651662 0.001144
vt 0.760567 0.08403
vt 0.758773 0.013526
vt 0.827348 0.075741
vt 0.864259 0
vt 0.862786 0.132625
vt 0.915612 0.086057
vt 0.91818 0.176044
vt 0.995297 0.149876
vt 0.90383 0.238123
vt 0.971559 0.242588
vt 0.911967 0.305751
vt 0.982817 0.340837
vt 0.859152 0.338433
vt 0.902913 0.388324
vt 0.817747 0.391155
vt 0.842961 0.464822
vt 0.757974 0.377291
vt 0.754089 0.442792
vt 0.691008 0.385738
vt 0.659016 0.455821
vt 0.833156 0.236929
vt 0.845762 0.270863
vt 0.811148 0.287962
vt 0.796028 0.320519
vt 0.759792 0.308156
vt 0.726701 0.320701
vt 0.71065 0.287995
vt 0.69666 0.266234
vt 0.690157 0.240347
vt 0.674967 0.208047
vt 0.71077 0.18695
vt 0.728202 0.150257
vt 0.757995 0.138679
vt 0.79018 0.149277
vt 0.810116 0.18456
vt 0.844281 0.200145
vt 0.068236 0.858059
vt 0.113594 0.812155
vt 0.068729 0.779639
vt 0 0.806563
vt 0.07637 0.725481
vt 0.011838 0.725866
vt 0.067637 0.670765
vt 1E-06 0.641204
vt 0.111335 0.637871
vt 0.065431 0.592513
vt 0.14385 0.593006
vt 0.116926 0.524277
vt 0.198009 0.600646
vt 0.197623 0.536114
vt 0.252725 0.591913
vt 0.282286 0.524275
vt 0.285618 0.635612
vt 0.330977 0.589708
vt 0.330484 0.668127
vt 0.399212 0.641203
vt 0.322843 0.722285
vt 0.387375 0.7219
vt 0.331576 0.777001
vt 0.399212 0.806561
vt 0.287878 0.809895
vt 0.333782 0.855252
vt 0.255363 0.85476
vt 0.282288 0.923489
vt 0.201205 0.84712
vt 0.201591 0.911653
vt 0.146488 0.855854
vt 0.116927 0.923492
vt 0.267942 0.722298
vt 0.272385 0.752282
vt 0.249047 0.771083
vt 0.230988 0.795426
vt 0.201191 0.792218
vt 0.171208 0.796662
vt 0.152407 0.773324
vt 0.128063 0.755265
vt 0.131271 0.725468
vt 0.126828 0.695485
vt 0.150166 0.676683
vt 0.168225 0.65234
vt 0.198022 0.655548
vt 0.228005 0.651104
vt 0.246806 0.674442
vt 0.27115 0.692502
vt 0.253743 0.498362
vt 0.254456 0.417744
vt 0.17764 0.42976
vt 0.138594 0.511445
vt 0.141357 0.371888
vt 0.085355 0.421598
vt 0.083136 0.32649
vt 0 0.355665
vt 0.097928 0.257797
vt 0.022765 0.254805
vt 0.086877 0.18279
vt 0.006114 0.1463
vt 0.144956 0.143865
vt 0.092888 0.089434
vt 0.188991 0.082301
vt 0.156372 0
vt 0.257666 0.094621
vt 0.258231 0.019527
vt 0.331656 0.081384
vt 0.365962 0
vt 0.37167 0.138008
vt 0.424733 0.084923
vt 0.433661 0.180698
vt 0.515869 0.146686
vt 0.422145 0.249177
vt 0.498137 0.248871
vt 0.436237 0.324919
vt 0.520432 0.359275
vt 0.378376 0.366263
vt 0.43425 0.420804
vt 0.334649 0.430643
vt 0.370439 0.519084
vt 0.319392 0.194111
vt 0.355557 0.209447
vt 0.344184 0.251027
vt 0.359606 0.288681
vt 0.320477 0.309635
vt 0.300978 0.350048
vt 0.244864 0.339689
vt 0.213528 0.355218
vt 0.196321 0.322621
vt 0.164298 0.300719
vt 0.17624 0.258159
vt 0.161533 0.21966
vt 0.20137 0.199071
vt 0.217311 0.160516
vt 0.260011 0.172799
vt 0.29772 0.156321
vt 0.447341 0.751704
vt 0.507481 0.691755
vt 0.491881 0.680228
vt 0.403204 0.714775
vt 0.493217 0.66064
vt 0.408301 0.660504
vt 0.490337 0.641459
vt 0.403205 0.603183
vt 0.505132 0.628552
vt 0.445183 0.568411
vt 0.516659 0.612952
vt 0.482112 0.524275
vt 0.536247 0.614287
vt 0.536383 0.529372
vt 0.555429 0.611407
vt 0.593705 0.524275
vt 0.568335 0.626203
vt 0.628476 0.566254
vt 0.583935 0.637729
vt 0.672612 0.603183
vt 0.5826 0.657318
vt 0.667516 0.657453
vt 0.58548 0.676499
vt 0.672612 0.714775
vt 0.570684 0.689406
vt 0.630633 0.749547
vt 0.559158 0.705006
vt 0.593704 0.793683
vt 0.539569 0.70367
vt 0.539434 0.788586
vt 0.520388 0.706551
vt 0.482112 0.793682
vt 0.537908 0.658979
vn 0.7281098 0.6662778 -0.1610279
vn 0.7681796 0.5939416 -0.2390258
vn 0.6329689 0.7039759 -0.322131
vn 0.5409013 0.7947634 -0.2752761
vn 0.645362 0.5939419 -0.480355
vn 0.5587207 0.6662776 -0.4938677
vn 0.2280209 0.6761077 -0.7006317
vn 0.2205229 0.7015957 -0.6775936
vn -0.06549699 0.5427079 -0.8373638
vn -0.06292699 0.5906019 -0.8045058
vn -0.3341859 0.6761078 -0.6566567
vn -0.323198 0.7015949 -0.635065
vn -0.638419 0.542708 -0.545792
vn -0.6133679 0.5906019 -0.524375
vn -0.7006317 0.6761077 -0.2280209
vn -0.6775936 0.7015957 -0.2205229
vn -0.8373638 0.5427079 0.06549799
vn -0.8045058 0.5906019 0.06292798
vn -0.6566567 0.6761078 0.3341859
vn -0.6350645 0.7015955 0.3231978
vn -0.545792 0.542708 0.638419
vn -0.5243753 0.5906013 0.6133683
vn -0.2280209 0.6761077 0.7006317
vn -0.2205229 0.7015957 0.6775936
vn 0.06549799 0.5427079 0.8373638
vn 0.06292798 0.5906019 0.8045058
vn 0.3341861 0.6761082 0.6566562
vn 0.323198 0.701596 0.6350639
vn 0.638419 0.542708 0.545792
vn 0.6133679 0.5906019 0.524375
vn 0.7006312 0.6761082 0.2280211
vn 0.6775931 0.7015962 0.220523
vn -0.562972 0.499419 0.658516
vn -0.244553 0.612819 0.7514299
vn 0.06755902 0.4994192 0.8637224
vn 0.3584161 0.6128191 0.7042661
vn 0.658516 0.499419 0.562972
vn 0.7514299 0.6128189 0.244553
vn 0.8061249 0.4789059 -0.3475799
vn 0.7721213 0.4994192 -0.3929491
vn 0.7554557 0.4789058 -0.4471418
vn 0.2445539 0.6128187 -0.7514296
vn -0.06755902 0.4994192 -0.8637224
vn -0.3584161 0.6128191 -0.7042661
vn -0.6585154 0.4994193 -0.5629724
vn -0.7514299 0.6128189 -0.244553
vn -0.8637224 0.4994192 0.06755902
vn -0.7042666 0.6128187 0.3584158
vn 0.7857413 0.5260072 -0.3254642
vn 0.7891288 0.5200319 -0.3268679
vn 0.5455219 0.6362489 -0.545521
vn 0.5435612 0.6395963 -0.5435603
vn 0.3268679 0.5200319 -0.7891288
vn 0.3254651 0.5260071 -0.7857411
vn 0 0.6362489 -0.7714839
vn 0 0.6395961 -0.7687111
vn -0.326867 0.520032 -0.789129
vn -0.3254642 0.5260072 -0.7857413
vn -0.545521 0.6362489 -0.5455219
vn -0.5435603 0.6395963 -0.5435612
vn -0.7891284 0.5200323 -0.3268682
vn -0.7857411 0.5260071 -0.3254651
vn -0.7714839 0.6362489 0
vn -0.7687111 0.6395961 0
vn -0.7891288 0.5200319 0.3268679
vn -0.7857411 0.5260071 0.3254651
vn -0.5455217 0.6362486 0.5455217
vn -0.543561 0.639596 0.543561
vn -0.3268679 0.5200319 0.7891288
vn -0.3254651 0.5260071 0.7857411
vn 0 0.6362489 0.7714839
vn 0 0.6395961 0.7687111
vn 0.3268679 0.5200319 0.7891288
vn 0.3254651 0.5260071 0.7857411
vn 0.545521 0.6362489 0.5455219
vn 0.543561 0.639596 0.543561
vn 0.7891288 0.5200319 0.3268679
vn 0.7857411 0.5260071 0.3254651
vn 0.7714839 0.6362489 0
vn 0.7687111 0.6395961 0
vn -0.333863 0.488747 0.806016
vn 0 0.6128079 0.7902318
vn 0.333863 0.488747 0.806016
vn 0.5587782 0.6128082 0.5587782
vn 0.806016 0.488747 0.333863
vn 0.7902318 0.6128079 0
vn 0.806016 0.488747 -0.333863
vn 0.5587782 0.6128082 -0.5587782
vn 0.333863 0.488747 -0.806016
vn 0 0.6128079 -0.7902318
vn -0.3338621 0.4887471 -0.8060163
vn -0.5587782 0.6128082 -0.5587782
vn -0.806016 0.488747 -0.333863
vn -0.7902318 0.6128079 0
vn -0.806016 0.488747 0.333863
vn -0.5587782 0.6128082 0.5587782
vn 0.7488658 0.5856468 -0.3101899
vn 0.7752755 0.5438966 -0.3211298
vn 0.5218342 0.6748172 -0.5218342
vn 0.5070511 0.6969931 -0.5070501
vn 0.32113 0.543896 -0.7752759
vn 0.3101911 0.5856471 -0.7488651
vn 0 0.674817 -0.737985
vn 0 0.696994 -0.717077
vn -0.321129 0.5438961 -0.7752762
vn -0.3101899 0.5856468 -0.7488658
vn -0.5218342 0.6748172 -0.5218342
vn -0.5070497 0.6969936 -0.5070507
vn -0.7752751 0.543897 -0.32113
vn -0.7488656 0.5856467 -0.3101908
vn -0.737985 0.674817 0
vn -0.717078 0.6969931 0
vn -0.7752755 0.5438966 0.3211298
vn -0.7488658 0.5856468 0.3101899
vn -0.5218342 0.6748172 0.5218342
vn -0.5070511 0.6969931 0.5070501
vn -0.32113 0.543896 0.7752759
vn -0.3101908 0.5856467 0.7488656
vn 0 0.674817 0.737985
vn 0 0.6969935 0.7170774
vn 0.32113 0.543896 0.7752759
vn 0.3101899 0.5856468 0.7488658
vn 0.5218342 0.6748172 0.5218342
vn 0.5070503 0.6969935 0.5070503
vn 0.7752759 0.543896 0.32113
vn 0.7488658 0.5856468 0.3101899
vn 0.737985 0.674817 0
vn 0.717078 0.6969931 0
vn -0.3301829 0.5055298 0.7971317
vn 0 0.6190369 0.7853619
vn 0.3301829 0.5055298 0.7971317
vn 0.5553348 0.6190367 0.5553348
vn 0.7971317 0.5055298 0.3301829
vn 0.7853619 0.6190369 0
vn 0.7971317 0.5055298 -0.3301829
vn 0.5553351 0.6190371 -0.5553341
vn 0.3301829 0.5055298 -0.7971317
vn 0 0.6190369 -0.7853619
vn -0.3301829 0.5055298 -0.7971317
vn -0.5553341 0.6190371 -0.5553351
vn -0.7971317 0.5055298 -0.3301829
vn -0.7853619 0.6190369 0
vn -0.7971317 0.5055298 0.3301829
vn -0.5553351 0.6190371 0.5553341
vn 0.6058921 0.4596501 -0.6493201
vn 0.6058918 0.4596509 -0.6493198
vn 0.2876509 0.5714089 -0.7686019
vn 0.2876509 0.5714089 -0.7686019
vn -0.030708 0.4596501 -0.887569
vn -0.030708 0.4596501 -0.887569
vn -0.3400841 0.5714091 -0.7468832
vn -0.3400841 0.5714091 -0.7468832
vn -0.6493201 0.4596501 -0.6058921
vn -0.6493201 0.4596501 -0.6058921
vn -0.7686019 0.5714089 -0.2876509
vn -0.7686019 0.5714089 -0.2876509
vn -0.887569 0.4596501 0.030708
vn -0.887569 0.4596501 0.030708
vn -0.7468832 0.5714091 0.3400841
vn -0.7468832 0.5714091 0.3400841
vn -0.6058921 0.4596501 0.6493201
vn -0.6058921 0.4596501 0.6493201
vn -0.2876509 0.5714089 0.7686019
vn -0.28765 0.571409 0.7686021
vn 0.030708 0.4596501 0.887569
vn 0.030709 0.4596501 0.887569
vn 0.3400841 0.5714091 0.7468832
vn 0.3400841 0.5714091 0.7468832
vn 0.6493201 0.4596501 0.6058921
vn 0.6493201 0.4596501 0.6058921
vn 0.7686021 0.571409 0.28765
vn 0.7686021 0.571409 0.28765
vn 0.887569 0.4596501 -0.030709
vn 0.887569 0.4596501 -0.030709
vn 0.7468832 0.5714091 -0.3400841
vn 0.7468832 0.5714091 -0.3400841
vn 0 1 0
g Magic_Tree1_0
f 3/3/3 2/2/2 1/1/1
f 4/4/4 3/3/3 1/1/1
f 5/5/5 3/3/3 4/4/4
f 6/6/6 5/5/5 4/4/4
f 7/7/7 5/5/5 6/6/6
f 8/8/8 7/7/7 6/6/6
f 9/9/9 7/7/7 8/8/8
f 10/10/10 9/9/9 8/8/8
f 11/11/11 9/9/9 10/10/10
f 12/12/12 11/11/11 10/10/10
f 13/13/13 11/11/11 12/12/12
f 14/14/14 13/13/13 12/12/12
f 15/15/15 13/13/13 14/14/14
f 16/16/16 15/15/15 14/14/14
f 17/17/17 15/15/15 16/16/16
f 18/18/18 17/17/17 16/16/16
f 19/19/19 17/17/17 18/18/18
f 20/20/20 19/19/19 18/18/18
f 21/21/21 19/19/19 20/20/20
f 22/22/22 21/21/21 20/20/20
f 23/23/23 21/21/21 22/22/22
f 24/24/24 23/23/23 22/22/22
f 25/25/25 23/23/23 24/24/24
f 26/26/26 25/25/25 24/24/24
f 27/27/27 25/25/25 26/26/26
f 28/28/28 27/27/27 26/26/26
f 29/29/29 27/27/27 28/28/28
f 30/30/30 29/29/29 28/28/28
f 31/31/31 29/29/29 30/30/30
f 32/32/32 31/31/31 30/30/30
f 2/2/2 31/31/31 32/32/32
f 1/1/1 2/2/2 32/32/32
f 21/21/21 33/33/33 19/19/19
f 34/34/34 33/33/33 21/21/21
f 23/23/23 34/34/34 21/21/21
f 35/35/35 34/34/34 23/23/23
f 25/25/25 35/35/35 23/23/23
f 36/36/36 35/35/35 25/25/25
f 27/27/27 36/36/36 25/25/25
f 37/37/37 36/36/36 27/27/27
f 29/29/29 37/37/37 27/27/27
f 38/38/38 37/37/37 29/29/29
f 31/31/31 38/38/38 29/29/29
f 39/39/39 38/38/38 31/31/31
f 2/2/2 39/39/39 31/31/31
f 40/40/40 39/39/39 2/2/2
f 3/3/3 40/40/40 2/2/2
f 41/41/41 40/40/40 3/3/3
f 5/5/5 41/41/41 3/3/3
f 42/42/42 41/41/41 5/5/5
f 7/7/7 42/42/42 5/5/5
f 43/43/43 42/42/42 7/7/7
f 9/9/9 43/43/43 7/7/7
f 44/44/44 43/43/43 9/9/9
f 11/11/11 44/44/44 9/9/9
f 45/45/45 44/44/44 11/11/11
f 13/13/13 45/45/45 11/11/11
f 46/46/46 45/45/45 13/13/13
f 15/15/15 46/46/46 13/13/13
f 47/47/47 46/46/46 15/15/15
f 17/17/17 47/47/47 15/15/15
f 48/48/48 47/47/47 17/17/17
f 19/19/19 48/48/48 17/17/17
f 33/33/33 48/48/48 19/19/19
f 51/51/51 50/50/50 49/49/49
f 52/52/52 51/51/51 49/49/49
f 53/53/53 51/51/51 52/52/52
f 54/54/54 53/53/53 52/52/52
f 55/55/55 53/53/53 54/54/54
f 56/56/56 55/55/55 54/54/54
f 57/57/57 55/55/55 56/56/56
f 58/58/58 57/57/57 56/56/56
f 59/59/59 57/57/57 58/58/58
f 60/60/60 59/59/59 58/58/58
f 61/61/61 59/59/59 60/60/60
f 62/62/62 61/61/61 60/60/60
f 63/63/63 61/61/61 62/62/62
f 64/64/64 63/63/63 62/62/62
f 65/65/65 63/63/63 64/64/64
f 66/66/66 65/65/65 64/64/64
f 67/67/67 65/65/65 66/66/66
f 68/68/68 67/67/67 66/66/66
f 69/69/69 67/67/67 68/68/68
f 70/70/70 69/69/69 68/68/68
f 71/71/71 69/69/69 70/70/70
f 72/72/72 71/71/71 70/70/70
f 73/73/73 71/71/71 72/72/72
f 74/74/74 73/73/73 72/72/72
f 75/75/75 73/73/73 74/74/74
f 76/76/76 75/75/75 74/74/74
f 77/77/77 75/75/75 76/76/76
f 78/78/78 77/77/77 76/76/76
f 79/79/79 77/77/77 78/78/78
f 80/80/80 79/79/79 78/78/78
f 50/50/50 79/79/79 80/80/80
f 49/49/49 50/50/50 80/80/80
f 69/69/69 81/81/81 67/67/67
f 82/82/82 81/81/81 69/69/69
f 71/71/71 82/82/82 69/69/69
f 83/83/83 82/82/82 71/71/71
f 73/73/73 83/83/83 71/71/71
f 84/84/84 83/83/83 73/73/73
f 75/75/75 84/84/84 73/73/73
f 85/85/85 84/84/84 75/75/75
f 77/77/77 85/85/85 75/75/75
f 86/86/86 85/85/85 77/77/77
f 79/79/79 86/86/86 77/77/77
f 87/87/87 86/86/86 79/79/79
f 50/50/50 87/87/87 79/79/79
f 88/88/88 87/87/87 50/50/50
f 51/51/51 88/88/88 50/50/50
f 89/89/89 88/88/88 51/51/51
f 53/53/53 89/89/89 51/51/51
f 90/90/90 89/89/89 53/53/53
f 55/55/55 90/90/90 53/53/53
f 91/91/91 90/90/90 55/55/55
f 57/57/57 91/91/91 55/55/55
f 92/92/92 91/91/91 57/57/57
f 59/59/59 92/92/92 57/57/57
f 93/93/93 92/92/92 59/59/59
f 61/61/61 93/93/93 59/59/59
f 94/94/94 93/93/93 61/61/61
f 63/63/63 94/94/94 61/61/61
f 95/95/95 94/94/94 63/63/63
f 65/65/65 95/95/95 63/63/63
f 96/96/96 95/95/95 65/65/65
f 67/67/67 96/96/96 65/65/65
f 81/81/81 96/96/96 67/67/67
f 99/99/99 98/98/98 97/97/97
f 100/100/100 99/99/99 97/97/97
f 101/101/101 99/99/99 100/100/100
f 102/102/102 101/101/101 100/100/100
f 103/103/103 101/101/101 102/102/102
f 104/104/104 103/103/103 102/102/102
f 105/105/105 103/103/103 104/104/104
f 106/106/106 105/105/105 104/104/104
f 107/107/107 105/105/105 106/106/106
f 108/108/108 107/107/107 106/106/106
f 109/109/109 107/107/107 108/108/108
f 110/110/110 109/109/109 108/108/108
f 111/111/111 109/109/109 110/110/110
f 112/112/112 111/111/111 110/110/110
f 113/113/113 111/111/111 112/112/112
f 114/114/114 113/113/113 112/112/112
f 115/115/115 113/113/113 114/114/114
f 116/116/116 115/115/115 114/114/114
f 117/117/117 115/115/115 116/116/116
f 118/118/118 117/117/117 116/116/116
f 119/119/119 117/117/117 118/118/118
f 120/120/120 119/119/119 118/118/118
f 121/121/121 119/119/119 120/120/120
f 122/122/122 121/121/121 120/120/120
f 123/123/123 121/121/121 122/122/122
f 124/124/124 123/123/123 122/122/122
f 125/125/125 123/123/123 124/124/124
f 126/126/126 125/125/125 124/124/124
f 127/127/127 125/125/125 126/126/126
f 128/128/128 127/127/127 126/126/126
f 98/98/98 127/127/127 128/128/128
f 97/97/97 98/98/98 128/128/128
f 117/117/117 129/129/129 115/115/115
f 130/130/130 129/129/129 117/117/117
f 119/119/119 130/130/130 117/117/117
f 131/131/131 130/130/130 119/119/119
f 121/121/121 131/131/131 119/119/119
f 132/132/132 131/131/131 121/121/121
f 123/123/123 132/132/132 121/121/121
f 133/133/133 132/132/132 123/123/123
f 125/125/125 133/133/133 123/123/123
f 134/134/134 133/133/133 125/125/125
f 127/127/127 134/134/134 125/125/125
f 135/135/135 134/134/134 127/127/127
f 98/98/98 135/135/135 127/127/127
f 136/136/136 135/135/135 98/98/98
f 99/99/99 136/136/136 98/98/98
f 137/137/137 136/136/136 99/99/99
f 101/101/101 137/137/137 99/99/99
f 138/138/138 137/137/137 101/101/101
f 103/103/103 138/138/138 101/101/101
f 139/139/139 138/138/138 103/103/103
f 105/105/105 139/139/139 103/103/103
f 140/140/140 139/139/139 105/105/105
f 107/107/107 140/140/140 105/105/105
f 141/141/141 140/140/140 107/107/107
f 109/109/109 141/141/141 107/107/107
f 142/142/142 141/141/141 109/109/109
f 111/111/111 142/142/142 109/109/109
f 143/143/143 142/142/142 111/111/111
f 113/113/113 143/143/143 111/111/111
f 144/144/144 143/143/143 113/113/113
f 115/115/115 144/144/144 113/113/113
f 129/129/129 144/144/144 115/115/115
f 147/147/147 146/146/146 145/145/145
f 148/148/148 147/147/147 145/145/145
f 149/149/149 147/147/147 148/148/148
f 150/150/150 149/149/149 148/148/148
f 151/151/151 149/149/149 150/150/150
f 152/152/152 151/151/151 150/150/150
f 153/153/153 151/151/151 152/152/152
f 154/154/154 153/153/153 152/152/152
f 155/155/155 153/153/153 154/154/154
f 156/156/156 155/155/155 154/154/154
f 157/157/157 155/155/155 156/156/156
f 158/158/158 157/157/157 156/156/156
f 159/159/159 157/157/157 158/158/158
f 160/160/160 159/159/159 158/158/158
f 161/161/161 159/159/159 160/160/160
f 162/162/162 161/161/161 160/160/160
f 163/163/163 161/161/161 162/162/162
f 164/164/164 163/163/163 162/162/162
f 165/165/165 163/163/163 164/164/164
f 166/166/166 165/165/165 164/164/164
f 167/167/167 165/165/165 166/166/166
f 168/168/168 167/167/167 166/166/166
f 169/169/169 167/167/167 168/168/168
f 170/170/170 169/169/169 168/168/168
f 171/171/171 169/169/169 170/170/170
f 172/172/172 171/171/171 170/170/170
f 173/173/173 171/171/171 172/172/172
f 174/174/174 173/173/173 172/172/172
f 175/175/175 173/173/173 174/174/174
f 176/176/176 175/175/175 174/174/174
f 146/146/146 175/175/175 176/176/176
f 145/145/145 146/146/146 176/176/176
f 165/165/165 177/177/177 163/163/163
f 167/167/167 177/177/177 165/165/165
f 169/169/169 177/177/177 167/167/167
f 171/171/171 177/177/177 169/169/169
f 173/173/173 177/177/177 171/171/171
f 175/175/175 177/177/177 173/173/173
f 146/146/146 177/177/177 175/175/175
f 147/147/147 177/177/177 146/146/146
f 149/149/149 177/177/177 147/147/147
f 151/151/151 177/177/177 149/149/149
f 153/153/153 177/177/177 151/151/151
f 155/155/155 177/177/177 153/153/153
f 157/157/157 177/177/177 155/155/155
f 159/159/159 177/177/177 157/157/157
f 161/161/161 177/177/177 159/159/159
f 163/163/163 177/177/177 161/161/161
