g mh_pfx_fall_02_FBX
v 0.002585429 -0.01061352 -0.008161439
v 0.002022478 -0.01498738 -0.006384358
v 0.005294919 -0.01498738 -0.003945761
v 0.00676875 -0.01061352 -0.005044054
v 0.006544871 -0.01498738 -5.923531E-09
v 0.008366629 -0.01061352 -4.499962E-09
v 0.00331526 -0.00346313 -0.01031997
v 0.008679463 -0.00346313 -0.006378106
v 0.01072838 -0.00346313 -3.636548E-09
v 0.004420924 0.005085581 -0.01325716
v 0.01157413 0.005085581 -0.008193363
v 0.01430639 0.005085581 -2.078021E-09
v 0.01456778 0.01040918 -0.01022941
v 0.01800675 0.01040918 -3.133476E-11
v 0.01813668 0.01299518 -0.0129786
v 0.02241814 0.01299518 1.653498E-09
v 0.02324959 0.0146685 -0.0168918
v 0.008880549 0.0146685 -0.02733151
v 0.006927591 0.01299518 -0.02099981
v 0.02873803 0.0146685 3.219277E-09
v 0.005564396 0.01040918 -0.01655152
v 0.009777796 0.01498738 -0.03009295
v 0.02559861 0.01498738 -0.01859846
v 0.03164159 0.01498738 3.785424E-09
v -0.002585431 -0.01061352 -0.008161439
v -0.002022478 -0.01498738 -0.006384358
v 0.002022478 -0.01498738 -0.006384358
v 0.002585429 -0.01061352 -0.008161439
v -0.006768744 -0.01061352 -0.00504405
v -0.005294913 -0.01498738 -0.003945761
v -0.008679442 -0.00346313 -0.006378101
v -0.003315253 -0.00346313 -0.01031997
v 0.00331526 -0.00346313 -0.01031997
v -0.01157412 0.005085581 -0.008193367
v -0.004420921 0.005085581 -0.01325716
v 0.004420924 0.005085581 -0.01325716
v -0.005564396 0.01040918 -0.01655152
v 0.005564396 0.01040918 -0.01655152
v -0.006927589 0.01299518 -0.02099981
v 0.006927591 0.01299518 -0.02099981
v -0.008880544 0.0146685 -0.02733151
v -0.02324956 0.0146685 -0.0168918
v -0.01813666 0.01299518 -0.01297859
v 0.008880549 0.0146685 -0.02733151
v -0.01456777 0.01040918 -0.01022941
v -0.02559858 0.01498738 -0.01859846
v -0.009777793 0.01498738 -0.03009295
v 0.009777796 0.01498738 -0.03009295
v -0.008366631 -0.01061352 -4.499962E-09
v -0.006544874 -0.01498738 -5.923531E-09
v -0.005294913 -0.01498738 -0.003945761
v -0.006768744 -0.01061352 -0.00504405
v -0.006768746 -0.01061352 0.005044045
v -0.005294913 -0.01498738 0.003945749
v -0.008679452 -0.00346313 0.006378094
v -0.01072838 -0.00346313 -3.636548E-09
v -0.008679442 -0.00346313 -0.006378101
v -0.01157412 0.005085581 0.008193364
v -0.0143064 0.005085581 -2.078021E-09
v -0.01157412 0.005085581 -0.008193367
v -0.01800675 0.01040918 -3.133476E-11
v -0.01456777 0.01040918 -0.01022941
v -0.02241815 0.01299518 1.653498E-09
v -0.01813666 0.01299518 -0.01297859
v -0.02873804 0.0146685 3.219277E-09
v -0.02324956 0.0146685 0.01689181
v -0.01813666 0.01299518 0.0129786
v -0.02324956 0.0146685 -0.0168918
v -0.01456777 0.01040918 0.0102294
v -0.02559858 0.01498738 0.01859847
v -0.03164159 0.01498738 3.785424E-09
v -0.02559858 0.01498738 -0.01859846
v -0.002585431 -0.01061352 0.00816144
v -0.002022478 -0.01498738 0.006384351
v -0.005294913 -0.01498738 0.003945749
v -0.006768746 -0.01061352 0.005044045
v 0.002022475 -0.01498738 0.006384351
v 0.002585429 -0.01061352 0.00816144
v -0.003315252 -0.00346313 0.01031997
v 0.003315251 -0.00346313 0.01031997
v -0.008679452 -0.00346313 0.006378094
v -0.004420921 0.005085581 0.01325714
v 0.004420918 0.005085581 0.01325714
v -0.01157412 0.005085581 0.008193364
v -0.005564395 0.01040918 0.01655152
v -0.01456777 0.01040918 0.0102294
v -0.006927589 0.01299518 0.02099981
v 0.006927587 0.01299518 0.02099981
v 0.008880544 0.0146685 0.0273315
v -0.008880544 0.0146685 0.0273315
v -0.01813666 0.01299518 0.0129786
v -0.02324956 0.0146685 0.01689181
v 0.005564393 0.01040918 0.01655152
v -0.009777789 0.01498738 0.03009295
v -0.02559858 0.01498738 0.01859847
v 0.009777791 0.01498738 0.03009295
v 0.006768744 -0.01061352 0.005044051
v 0.005294911 -0.01498738 0.003945749
v 0.002022475 -0.01498738 0.006384351
v 0.002585429 -0.01061352 0.00816144
v 0.008366629 -0.01061352 -4.499962E-09
v 0.006544871 -0.01498738 -5.923531E-09
v 0.01072838 -0.00346313 -3.636548E-09
v 0.00867945 -0.00346313 0.006378089
v 0.003315251 -0.00346313 0.01031997
v 0.01430639 0.005085581 -2.078021E-09
v 0.01157412 0.005085581 0.008193355
v 0.004420918 0.005085581 0.01325714
v 0.01456777 0.01040918 0.0102294
v 0.005564393 0.01040918 0.01655152
v 0.01813666 0.01299518 0.0129786
v 0.006927587 0.01299518 0.02099981
v 0.02324956 0.0146685 0.0168918
v 0.02873803 0.0146685 3.219277E-09
v 0.02241814 0.01299518 1.653498E-09
v 0.008880544 0.0146685 0.0273315
v 0.01800675 0.01040918 -3.133476E-11
v 0.03164159 0.01498738 3.785424E-09
v 0.02559858 0.01498738 0.01859846
v 0.009777791 0.01498738 0.03009295
vt 0.9999998 0.1454006
vt 0.9999998 0
vt 0.5 0
vt 0.5 0.1454006
vt 0 0
vt 0 0.1454006
vt 0.9999999 0.2874103
vt 0.5 0.2874103
vt 0 0.2874103
vt 0.9999998 0.4294199
vt 0.5 0.4294199
vt 0 0.4294199
vt 0.5 0.5714296
vt 0 0.5714296
vt 0.5 0.7134392
vt 0 0.7134392
vt 0.5 0.8554488
vt 1 0.8554488
vt 0.9999999 0.7134392
vt 0 0.8554488
vt 0.9999998 0.5714296
vt 1 1
vt 0.5 1
vt 0 1
vt 0.5 0.1454006
vt 0.5 0
vt 0 0
vt 0 0.1454006
vt 0.9999999 0.1454006
vt 0.9999999 0
vt 0.9999999 0.2874103
vt 0.5 0.2874103
vt 0 0.2874103
vt 0.9999999 0.4294199
vt 0.5 0.4294199
vt 0 0.4294199
vt 0.5 0.5714296
vt 0 0.5714296
vt 0.5 0.7134392
vt 0 0.7134392
vt 0.5 0.8554488
vt 0.9999999 0.8554488
vt 0.9999999 0.7134392
vt 0 0.8554488
vt 0.9999999 0.5714296
vt 0.9999999 1
vt 0.5 1
vt 0 1
vt 0.5 0.1454006
vt 0.5 0
vt 0 0
vt 0 0.1454006
vt 0.9999999 0.1454006
vt 0.9999999 0
vt 0.9999999 0.2874103
vt 0.5 0.2874103
vt 0 0.2874103
vt 0.9999999 0.4294199
vt 0.5 0.4294199
vt 0 0.4294199
vt 0.4999999 0.5714296
vt 0 0.5714296
vt 0.4999999 0.7134392
vt 0 0.7134392
vt 0.5 0.8554488
vt 0.9999999 0.8554488
vt 0.9999999 0.7134392
vt 0 0.8554488
vt 0.9999999 0.5714296
vt 0.9999999 1
vt 0.5 1
vt 0 1
vt 0.5 0.1454006
vt 0.5 0
vt 0 0
vt 0 0.1454006
vt 0.9999999 0
vt 1 0.1454006
vt 0.5 0.2874103
vt 0.9999999 0.2874103
vt 0 0.2874103
vt 0.5 0.4294199
vt 0.9999999 0.4294199
vt 0 0.4294199
vt 0.5 0.5714296
vt 0 0.5714296
vt 0.5 0.7134392
vt 0.9999999 0.7134392
vt 0.9999999 0.8554488
vt 0.5 0.8554488
vt 0 0.7134392
vt 0 0.8554488
vt 0.9999999 0.5714296
vt 0.5 1
vt 0 1
vt 0.9999999 1
vt 0.5 0.1454006
vt 0.5 0
vt 0 0
vt 0 0.1454006
vt 0.9999999 0.1454006
vt 0.9999999 0
vt 0.9999999 0.2874103
vt 0.5 0.2874103
vt 0 0.2874103
vt 0.9999999 0.4294199
vt 0.5 0.4294199
vt 0 0.4294199
vt 0.5 0.5714296
vt 0 0.5714296
vt 0.5 0.7134392
vt 0 0.7134392
vt 0.5 0.8554488
vt 0.9999999 0.8554488
vt 0.9999999 0.7134392
vt 0 0.8554488
vt 0.9999999 0.5714296
vt 0.9999999 1
vt 0.5 1
vt 0 1
vn 0.30059 -0.231938 -0.9251218
vn 0.3020276 -0.2114752 -0.929547
vn 0.7907199 -0.2114753 -0.5744913
vn 0.7869558 -0.231938 -0.5717563
vn 0.9773834 -0.2114751 5.802535E-07
vn 0.9727306 -0.2319378 6.919568E-07
vn 0.2650318 -0.5142151 -0.8156844
vn 0.6938627 -0.5142151 -0.5041203
vn 0.8576614 -0.5142148 6.158341E-07
vn 0.1758447 -0.822306 -0.5411946
vn 0.4603675 -0.822306 -0.3344763
vn 0.5690458 -0.8223058 3.480553E-07
vn 0.3759284 -0.8854824 -0.2731276
vn 0.4646732 -0.8854823 2.876748E-07
vn 0.1934885 -0.970979 -0.1405775
vn 0.2391651 -0.9709789 1.519041E-07
vn 0.1320709 -0.9865849 -0.09595498
vn 0.05044659 -0.9865849 -0.1552586
vn 0.073906 -0.9709789 -0.2274594
vn 0.1632487 -0.9865849 0
vn 0.1435918 -0.8854823 -0.4419304
vn 0.1510285 -0.8724303 -0.464818
vn 0.3953978 -0.8724303 -0.287273
vn 0.4887387 -0.8724303 2.252557E-07
vn -0.3005905 -0.2319379 -0.9251217
vn -0.302028 -0.2114751 -0.9295468
vn 0.3020276 -0.2114752 -0.929547
vn 0.30059 -0.231938 -0.9251218
vn -0.7869557 -0.2319378 -0.5717565
vn -0.7907199 -0.2114751 -0.5744914
vn -0.6938628 -0.5142149 -0.5041205
vn -0.2650321 -0.5142151 -0.8156843
vn 0.2650318 -0.5142151 -0.8156844
vn -0.4603678 -0.8223058 -0.3344766
vn -0.1758448 -0.8223059 -0.5411946
vn 0.1758447 -0.822306 -0.5411946
vn -0.1435919 -0.8854823 -0.4419304
vn 0.1435918 -0.8854823 -0.4419304
vn -0.07390607 -0.9709789 -0.2274594
vn 0.073906 -0.9709789 -0.2274594
vn -0.05044665 -0.9865849 -0.1552586
vn -0.132071 -0.9865849 -0.09595512
vn -0.1934886 -0.9709789 -0.1405776
vn 0.05044659 -0.9865849 -0.1552586
vn -0.3759286 -0.8854823 -0.2731279
vn -0.395398 -0.8724303 -0.2872734
vn -0.1510286 -0.8724303 -0.4648182
vn 0.1510285 -0.8724303 -0.464818
vn -0.9727306 -0.2319377 1.40397E-07
vn -0.9773834 -0.2114751 0
vn -0.7907199 -0.2114751 -0.5744914
vn -0.7869557 -0.2319378 -0.5717565
vn -0.7869557 -0.2319379 0.5717567
vn -0.7907199 -0.2114752 0.5744914
vn -0.6938627 -0.5142149 0.5041206
vn -0.8576615 -0.5142148 0
vn -0.6938628 -0.5142149 -0.5041205
vn -0.4603676 -0.8223059 0.3344766
vn -0.5690458 -0.8223058 0
vn -0.4603678 -0.8223058 -0.3344766
vn -0.4646731 -0.8854823 0
vn -0.3759286 -0.8854823 -0.2731279
vn -0.239165 -0.9709789 0
vn -0.1934886 -0.9709789 -0.1405776
vn -0.1632488 -0.9865849 0
vn -0.132071 -0.9865849 0.09595515
vn -0.1934885 -0.970979 0.1405776
vn -0.132071 -0.9865849 -0.09595512
vn -0.3759284 -0.8854823 0.2731279
vn -0.3953979 -0.8724303 0.2872734
vn -0.4887388 -0.8724301 0
vn -0.395398 -0.8724303 -0.2872734
vn -0.3005902 -0.231938 0.9251217
vn -0.3020277 -0.2114753 0.9295468
vn -0.7907199 -0.2114752 0.5744914
vn -0.7869557 -0.2319379 0.5717567
vn 0.3020279 -0.2114753 0.9295468
vn 0.3005904 -0.231938 0.9251217
vn -0.2650319 -0.5142149 0.8156844
vn 0.2650321 -0.514215 0.8156844
vn -0.6938627 -0.5142149 0.5041206
vn -0.1758447 -0.8223059 0.5411946
vn 0.1758448 -0.8223059 0.5411946
vn -0.4603676 -0.8223059 0.3344766
vn -0.1435919 -0.8854823 0.4419304
vn -0.3759284 -0.8854823 0.2731279
vn -0.07390607 -0.970979 0.2274594
vn 0.07390603 -0.970979 0.2274593
vn 0.05044664 -0.9865849 0.1552587
vn -0.05044662 -0.9865849 0.1552588
vn -0.1934885 -0.970979 0.1405776
vn -0.132071 -0.9865849 0.09595515
vn 0.1435918 -0.8854823 0.4419303
vn -0.1510285 -0.8724303 0.4648181
vn -0.3953979 -0.8724303 0.2872734
vn 0.1510285 -0.8724303 0.4648181
vn 0.7869557 -0.2319379 0.5717566
vn 0.7907197 -0.2114752 0.5744915
vn 0.3020279 -0.2114753 0.9295468
vn 0.3005904 -0.231938 0.9251217
vn 0.9727306 -0.2319378 6.919568E-07
vn 0.9773834 -0.2114751 5.802535E-07
vn 0.8576614 -0.5142148 6.158341E-07
vn 0.6938627 -0.5142149 0.5041206
vn 0.2650321 -0.514215 0.8156844
vn 0.5690458 -0.8223058 3.480553E-07
vn 0.4603676 -0.8223059 0.3344766
vn 0.1758448 -0.8223059 0.5411946
vn 0.3759284 -0.8854823 0.2731278
vn 0.1435918 -0.8854823 0.4419303
vn 0.1934886 -0.9709789 0.1405775
vn 0.07390603 -0.970979 0.2274593
vn 0.132071 -0.9865849 0.09595504
vn 0.1632487 -0.9865849 0
vn 0.2391651 -0.9709789 1.519041E-07
vn 0.05044664 -0.9865849 0.1552587
vn 0.4646732 -0.8854823 2.876748E-07
vn 0.4887387 -0.8724303 2.252557E-07
vn 0.3953978 -0.8724303 0.2872734
vn 0.1510285 -0.8724303 0.4648181
g mh_pfx_fall_02_FBX_0
f 3/3/3 2/2/2 1/1/1
f 4/4/4 3/3/3 1/1/1
f 5/5/5 3/3/3 4/4/4
f 6/6/6 5/5/5 4/4/4
f 4/4/4 1/1/1 7/7/7
f 8/8/8 4/4/4 7/7/7
f 6/6/6 4/4/4 8/8/8
f 9/9/9 6/6/6 8/8/8
f 8/8/8 7/7/7 10/10/10
f 11/11/11 8/8/8 10/10/10
f 9/9/9 8/8/8 11/11/11
f 12/12/12 9/9/9 11/11/11
f 12/12/12 11/11/11 13/13/13
f 14/14/14 12/12/12 13/13/13
f 14/14/14 13/13/13 15/15/15
f 16/16/16 14/14/14 15/15/15
f 16/16/16 15/15/15 17/17/17
f 17/17/17 15/15/15 18/18/18
f 15/15/15 19/19/19 18/18/18
f 15/15/15 13/13/13 19/19/19
f 20/20/20 16/16/16 17/17/17
f 13/13/13 21/21/21 19/19/19
f 11/11/11 10/10/10 21/21/21
f 13/13/13 11/11/11 21/21/21
f 17/17/17 18/18/18 22/22/22
f 23/23/23 17/17/17 22/22/22
f 20/20/20 17/17/17 23/23/23
f 24/24/24 20/20/20 23/23/23
f 27/27/27 26/26/26 25/25/25
f 28/28/28 27/27/27 25/25/25
f 25/25/25 26/26/26 29/29/29
f 26/26/26 30/30/30 29/29/29
f 25/25/25 29/29/29 31/31/31
f 32/32/32 25/25/25 31/31/31
f 28/28/28 25/25/25 32/32/32
f 33/33/33 28/28/28 32/32/32
f 32/32/32 31/31/31 34/34/34
f 35/35/35 32/32/32 34/34/34
f 33/33/33 32/32/32 35/35/35
f 36/36/36 33/33/33 35/35/35
f 36/36/36 35/35/35 37/37/37
f 38/38/38 36/36/36 37/37/37
f 38/38/38 37/37/37 39/39/39
f 40/40/40 38/38/38 39/39/39
f 40/40/40 39/39/39 41/41/41
f 41/41/41 39/39/39 42/42/42
f 39/39/39 43/43/43 42/42/42
f 39/39/39 37/37/37 43/43/43
f 44/44/44 40/40/40 41/41/41
f 37/37/37 45/45/45 43/43/43
f 35/35/35 34/34/34 45/45/45
f 37/37/37 35/35/35 45/45/45
f 41/41/41 42/42/42 46/46/46
f 47/47/47 41/41/41 46/46/46
f 44/44/44 41/41/41 47/47/47
f 48/48/48 44/44/44 47/47/47
f 51/51/51 50/50/50 49/49/49
f 52/52/52 51/51/51 49/49/49
f 49/49/49 50/50/50 53/53/53
f 50/50/50 54/54/54 53/53/53
f 49/49/49 53/53/53 55/55/55
f 56/56/56 49/49/49 55/55/55
f 52/52/52 49/49/49 56/56/56
f 57/57/57 52/52/52 56/56/56
f 56/56/56 55/55/55 58/58/58
f 59/59/59 56/56/56 58/58/58
f 57/57/57 56/56/56 59/59/59
f 60/60/60 57/57/57 59/59/59
f 60/60/60 59/59/59 61/61/61
f 62/62/62 60/60/60 61/61/61
f 62/62/62 61/61/61 63/63/63
f 64/64/64 62/62/62 63/63/63
f 64/64/64 63/63/63 65/65/65
f 65/65/65 63/63/63 66/66/66
f 63/63/63 67/67/67 66/66/66
f 63/63/63 61/61/61 67/67/67
f 68/68/68 64/64/64 65/65/65
f 61/61/61 69/69/69 67/67/67
f 59/59/59 58/58/58 69/69/69
f 61/61/61 59/59/59 69/69/69
f 65/65/65 66/66/66 70/70/70
f 71/71/71 65/65/65 70/70/70
f 68/68/68 65/65/65 71/71/71
f 72/72/72 68/68/68 71/71/71
f 75/75/75 74/74/74 73/73/73
f 76/76/76 75/75/75 73/73/73
f 74/74/74 77/77/77 73/73/73
f 77/77/77 78/78/78 73/73/73
f 73/73/73 78/78/78 79/79/79
f 76/76/76 73/73/73 79/79/79
f 78/78/78 80/80/80 79/79/79
f 81/81/81 76/76/76 79/79/79
f 79/79/79 80/80/80 82/82/82
f 81/81/81 79/79/79 82/82/82
f 80/80/80 83/83/83 82/82/82
f 84/84/84 81/81/81 82/82/82
f 84/84/84 82/82/82 85/85/85
f 86/86/86 84/84/84 85/85/85
f 86/86/86 85/85/85 87/87/87
f 87/87/87 85/85/85 88/88/88
f 87/87/87 88/88/88 89/89/89
f 90/90/90 87/87/87 89/89/89
f 91/91/91 87/87/87 90/90/90
f 91/91/91 86/86/86 87/87/87
f 92/92/92 91/91/91 90/90/90
f 85/85/85 93/93/93 88/88/88
f 82/82/82 83/83/83 93/93/93
f 85/85/85 82/82/82 93/93/93
f 92/92/92 90/90/90 94/94/94
f 95/95/95 92/92/92 94/94/94
f 90/90/90 89/89/89 96/96/96
f 94/94/94 90/90/90 96/96/96
f 99/99/99 98/98/98 97/97/97
f 100/100/100 99/99/99 97/97/97
f 97/97/97 98/98/98 101/101/101
f 98/98/98 102/102/102 101/101/101
f 97/97/97 101/101/101 103/103/103
f 104/104/104 97/97/97 103/103/103
f 100/100/100 97/97/97 104/104/104
f 105/105/105 100/100/100 104/104/104
f 104/104/104 103/103/103 106/106/106
f 107/107/107 104/104/104 106/106/106
f 105/105/105 104/104/104 107/107/107
f 108/108/108 105/105/105 107/107/107
f 108/108/108 107/107/107 109/109/109
f 110/110/110 108/108/108 109/109/109
f 110/110/110 109/109/109 111/111/111
f 112/112/112 110/110/110 111/111/111
f 112/112/112 111/111/111 113/113/113
f 113/113/113 111/111/111 114/114/114
f 111/111/111 115/115/115 114/114/114
f 111/111/111 109/109/109 115/115/115
f 116/116/116 112/112/112 113/113/113
f 109/109/109 117/117/117 115/115/115
f 107/107/107 106/106/106 117/117/117
f 109/109/109 107/107/107 117/117/117
f 113/113/113 114/114/114 118/118/118
f 119/119/119 113/113/113 118/118/118
f 116/116/116 113/113/113 119/119/119
f 120/120/120 116/116/116 119/119/119
