g mh_pfx_fall_01
v 0.001383304 -0.006813998 -0.004257378
v 0.0008368194 -0.01498738 -0.002575469
v 0.002190825 -0.01498738 -0.00159173
v 0.003621542 -0.006813998 -0.002631205
v 0.002708004 -0.01498738 -1.856167E-09
v 0.004476469 -0.006813998 -1.133509E-09
v 0.002050706 0.00179652 -0.006311428
v 0.005368822 0.00179652 -0.003900677
v 0.006636221 0.00179652 -7.89976E-10
v 0.003884897 0.00924084 -0.01195648
v 0.01017079 0.00924084 -0.007389513
v 0.01257178 0.00924084 6.711275E-11
v 0.007054776 0.01498738 -0.02171236
v 0.01846965 0.01498738 -0.01341898
v 0.02282972 0.01498738 2.067248E-09
v -0.001383306 -0.006813998 -0.004257378
v -0.0008368212 -0.01498738 -0.002575469
v 0.0008368194 -0.01498738 -0.002575469
v 0.001383304 -0.006813998 -0.004257378
v -0.003621541 -0.006813998 -0.002631204
v -0.002190826 -0.01498738 -0.001591729
v -0.00536882 0.00179652 -0.003900675
v -0.002050708 0.00179652 -0.006311428
v 0.002050706 0.00179652 -0.006311428
v -0.01017079 0.00924084 -0.007389511
v -0.003884897 0.00924084 -0.01195648
v 0.003884897 0.00924084 -0.01195648
v -0.01846963 0.01498738 -0.01341897
v -0.007054775 0.01498738 -0.02171236
v 0.007054776 0.01498738 -0.02171236
v -0.004476471 -0.006813998 -1.133509E-09
v -0.002708006 -0.01498738 -1.856167E-09
v -0.002190826 -0.01498738 -0.001591729
v -0.003621541 -0.006813998 -0.002631204
v -0.00362154 -0.006813998 0.002631203
v -0.002190826 -0.01498738 0.001591725
v -0.005368819 0.00179652 0.003900674
v -0.006636224 0.00179652 -7.89976E-10
v -0.00536882 0.00179652 -0.003900675
v -0.01017079 0.00924084 0.007389511
v -0.01257178 0.00924084 6.711275E-11
v -0.01017079 0.00924084 -0.007389511
v -0.01846963 0.01498738 0.01341898
v -0.02282972 0.01498738 2.067248E-09
v -0.01846963 0.01498738 -0.01341897
v -0.001383306 -0.006813998 0.004257374
v -0.0008368212 -0.01498738 0.002575464
v -0.002190826 -0.01498738 0.001591725
v -0.00362154 -0.006813998 0.002631203
v 0.0008368188 -0.01498738 0.002575464
v 0.001383304 -0.006813998 0.004257374
v -0.002050707 0.00179652 0.006311425
v 0.002050705 0.00179652 0.006311425
v -0.005368819 0.00179652 0.003900674
v -0.003884895 0.00924084 0.01195648
v 0.003884894 0.00924084 0.01195648
v -0.01017079 0.00924084 0.007389511
v 0.007054773 0.01498738 0.02171236
v -0.007054772 0.01498738 0.02171236
v -0.01846963 0.01498738 0.01341898
v 0.003621538 -0.006813998 0.002631201
v 0.002190823 -0.01498738 0.001591725
v 0.0008368188 -0.01498738 0.002575464
v 0.001383304 -0.006813998 0.004257374
v 0.004476469 -0.006813998 -1.133509E-09
v 0.002708004 -0.01498738 -1.856167E-09
v 0.006636221 0.00179652 -7.89976E-10
v 0.005368816 0.00179652 0.003900673
v 0.002050705 0.00179652 0.006311425
v 0.01257178 0.00924084 6.711275E-11
v 0.01017079 0.00924084 0.007389508
v 0.003884894 0.00924084 0.01195648
v 0.02282972 0.01498738 2.067248E-09
v 0.01846963 0.01498738 0.01341898
v 0.007054773 0.01498738 0.02171236
vt 0.9999998 0.25
vt 0.9999998 0
vt 0.5 0
vt 0.5 0.25
vt 0 0
vt 0 0.25
vt 0.9999999 0.5
vt 0.5 0.5
vt 0 0.5
vt 0.9999998 0.75
vt 0.5 0.75
vt 0 0.75
vt 1 1
vt 0.5 1
vt 0 1
vt 0.5 0.25
vt 0.5 0
vt 0 0
vt 0 0.25
vt 0.9999999 0.25
vt 0.9999999 0
vt 0.9999999 0.5
vt 0.5 0.5
vt 0 0.5
vt 0.9999999 0.75
vt 0.5 0.75
vt 0 0.75
vt 0.9999999 1
vt 0.5 1
vt 0 1
vt 0.5 0.25
vt 0.5 0
vt 0 0
vt 0 0.25
vt 0.9999999 0.25
vt 0.9999999 0
vt 0.9999999 0.5
vt 0.5 0.5
vt 0 0.5
vt 0.9999999 0.75
vt 0.5 0.75
vt 0 0.75
vt 0.9999999 1
vt 0.5 1
vt 0 1
vt 0.5 0.25
vt 0.5 0
vt 0 0
vt 0 0.25
vt 0.9999999 0
vt 1 0.25
vt 0.5 0.5
vt 0.9999999 0.5
vt 0 0.5
vt 0.5 0.75
vt 0.9999999 0.75
vt 0 0.75
vt 0.9999999 1
vt 0.5 1
vt 0 1
vt 0.5 0.25
vt 0.5 0
vt 0 0
vt 0 0.25
vt 0.9999999 0.25
vt 0.9999999 0
vt 0.9999999 0.5
vt 0.5 0.5
vt 0 0.5
vt 0.9999999 0.75
vt 0.5 0.75
vt 0 0.75
vt 0.9999999 1
vt 0.5 1
vt 0 1
vn 0.30059 -0.231938 -0.9251218
vn 0.3020276 -0.2114752 -0.929547
vn 0.7907199 -0.2114753 -0.5744913
vn 0.7869558 -0.231938 -0.5717563
vn 0.9773834 -0.2114751 5.802535E-07
vn 0.9727306 -0.2319378 6.919568E-07
vn 0.2650318 -0.5142151 -0.8156844
vn 0.6938627 -0.5142151 -0.5041203
vn 0.8576614 -0.5142148 6.158341E-07
vn 0.1758447 -0.822306 -0.5411946
vn 0.4603675 -0.822306 -0.3344763
vn 0.5690458 -0.8223058 3.480553E-07
vn 0.1510285 -0.8724303 -0.464818
vn 0.3953978 -0.8724303 -0.287273
vn 0.4887387 -0.8724303 2.252557E-07
vn -0.3005905 -0.2319379 -0.9251217
vn -0.302028 -0.2114751 -0.9295468
vn 0.3020276 -0.2114752 -0.929547
vn 0.30059 -0.231938 -0.9251218
vn -0.7869557 -0.2319378 -0.5717565
vn -0.7907199 -0.2114751 -0.5744914
vn -0.6938628 -0.5142149 -0.5041205
vn -0.2650322 -0.5142151 -0.8156843
vn 0.2650318 -0.5142151 -0.8156844
vn -0.4603678 -0.8223058 -0.3344766
vn -0.1758448 -0.8223059 -0.5411946
vn 0.1758447 -0.822306 -0.5411946
vn -0.395398 -0.8724303 -0.2872734
vn -0.1510286 -0.8724303 -0.4648182
vn 0.1510285 -0.8724303 -0.464818
vn -0.9727306 -0.2319377 1.40397E-07
vn -0.9773834 -0.211475 0
vn -0.7907199 -0.2114751 -0.5744914
vn -0.7869557 -0.2319378 -0.5717565
vn -0.7869557 -0.2319379 0.5717567
vn -0.7907199 -0.2114752 0.5744914
vn -0.6938627 -0.5142149 0.5041206
vn -0.8576615 -0.5142148 0
vn -0.6938628 -0.5142149 -0.5041205
vn -0.4603676 -0.8223059 0.3344766
vn -0.5690458 -0.8223058 0
vn -0.4603678 -0.8223058 -0.3344766
vn -0.3953979 -0.8724303 0.2872734
vn -0.4887388 -0.8724301 0
vn -0.395398 -0.8724303 -0.2872734
vn -0.3005902 -0.231938 0.9251217
vn -0.3020277 -0.2114753 0.9295468
vn -0.7907199 -0.2114752 0.5744914
vn -0.7869557 -0.2319379 0.5717567
vn 0.3020279 -0.2114753 0.9295468
vn 0.3005904 -0.231938 0.9251217
vn -0.2650319 -0.5142149 0.8156844
vn 0.2650321 -0.514215 0.8156844
vn -0.6938627 -0.5142149 0.5041206
vn -0.1758447 -0.8223059 0.5411947
vn 0.1758448 -0.8223059 0.5411946
vn -0.4603676 -0.8223059 0.3344766
vn 0.1510285 -0.8724303 0.4648181
vn -0.1510285 -0.8724303 0.4648181
vn -0.3953979 -0.8724303 0.2872734
vn 0.7869557 -0.2319379 0.5717566
vn 0.7907197 -0.2114752 0.5744915
vn 0.3020279 -0.2114753 0.9295468
vn 0.3005904 -0.231938 0.9251217
vn 0.9727306 -0.2319378 6.919568E-07
vn 0.9773834 -0.2114751 5.802535E-07
vn 0.8576614 -0.5142148 6.158341E-07
vn 0.6938627 -0.5142149 0.5041206
vn 0.2650321 -0.514215 0.8156844
vn 0.5690458 -0.8223058 3.480553E-07
vn 0.4603677 -0.8223059 0.3344766
vn 0.1758448 -0.8223059 0.5411946
vn 0.4887387 -0.8724303 2.252557E-07
vn 0.3953978 -0.8724303 0.2872734
vn 0.1510285 -0.8724303 0.4648181
g mh_pfx_fall_01_0
f 3/3/3 2/2/2 1/1/1
f 4/4/4 3/3/3 1/1/1
f 5/5/5 3/3/3 4/4/4
f 6/6/6 5/5/5 4/4/4
f 4/4/4 1/1/1 7/7/7
f 8/8/8 4/4/4 7/7/7
f 6/6/6 4/4/4 8/8/8
f 9/9/9 6/6/6 8/8/8
f 8/8/8 7/7/7 10/10/10
f 11/11/11 8/8/8 10/10/10
f 9/9/9 8/8/8 11/11/11
f 12/12/12 9/9/9 11/11/11
f 11/11/11 10/10/10 13/13/13
f 14/14/14 11/11/11 13/13/13
f 12/12/12 11/11/11 14/14/14
f 15/15/15 12/12/12 14/14/14
f 18/18/18 17/17/17 16/16/16
f 19/19/19 18/18/18 16/16/16
f 16/16/16 17/17/17 20/20/20
f 17/17/17 21/21/21 20/20/20
f 16/16/16 20/20/20 22/22/22
f 23/23/23 16/16/16 22/22/22
f 19/19/19 16/16/16 23/23/23
f 24/24/24 19/19/19 23/23/23
f 23/23/23 22/22/22 25/25/25
f 26/26/26 23/23/23 25/25/25
f 24/24/24 23/23/23 26/26/26
f 27/27/27 24/24/24 26/26/26
f 26/26/26 25/25/25 28/28/28
f 29/29/29 26/26/26 28/28/28
f 27/27/27 26/26/26 29/29/29
f 30/30/30 27/27/27 29/29/29
f 33/33/33 32/32/32 31/31/31
f 34/34/34 33/33/33 31/31/31
f 31/31/31 32/32/32 35/35/35
f 32/32/32 36/36/36 35/35/35
f 31/31/31 35/35/35 37/37/37
f 38/38/38 31/31/31 37/37/37
f 34/34/34 31/31/31 38/38/38
f 39/39/39 34/34/34 38/38/38
f 38/38/38 37/37/37 40/40/40
f 41/41/41 38/38/38 40/40/40
f 39/39/39 38/38/38 41/41/41
f 42/42/42 39/39/39 41/41/41
f 41/41/41 40/40/40 43/43/43
f 44/44/44 41/41/41 43/43/43
f 42/42/42 41/41/41 44/44/44
f 45/45/45 42/42/42 44/44/44
f 48/48/48 47/47/47 46/46/46
f 49/49/49 48/48/48 46/46/46
f 47/47/47 50/50/50 46/46/46
f 50/50/50 51/51/51 46/46/46
f 46/46/46 51/51/51 52/52/52
f 49/49/49 46/46/46 52/52/52
f 51/51/51 53/53/53 52/52/52
f 54/54/54 49/49/49 52/52/52
f 52/52/52 53/53/53 55/55/55
f 54/54/54 52/52/52 55/55/55
f 53/53/53 56/56/56 55/55/55
f 57/57/57 54/54/54 55/55/55
f 55/55/55 56/56/56 58/58/58
f 59/59/59 55/55/55 58/58/58
f 57/57/57 55/55/55 59/59/59
f 60/60/60 57/57/57 59/59/59
f 63/63/63 62/62/62 61/61/61
f 64/64/64 63/63/63 61/61/61
f 61/61/61 62/62/62 65/65/65
f 62/62/62 66/66/66 65/65/65
f 61/61/61 65/65/65 67/67/67
f 68/68/68 61/61/61 67/67/67
f 64/64/64 61/61/61 68/68/68
f 69/69/69 64/64/64 68/68/68
f 68/68/68 67/67/67 70/70/70
f 71/71/71 68/68/68 70/70/70
f 69/69/69 68/68/68 71/71/71
f 72/72/72 69/69/69 71/71/71
f 71/71/71 70/70/70 73/73/73
f 74/74/74 71/71/71 73/73/73
f 72/72/72 71/71/71 74/74/74
f 75/75/75 72/72/72 74/74/74
