g Model_1:quad_normal2
v 2.101438 1.492413 1.492413
v 0 0 0
v 2.101438 -1.492413 -1.492413
v -2.101438 1.492413 1.492413
v -2.101438 -1.492413 -1.492413
vt 0.999977 2E-05
vt 0.5 0.5
vt 0.999996 0.999996
vt 9E-06 1.2E-05
vt 7E-06 0.999997
vn 0.6086857 0.6949267 -0.3828558
vn 0 0.7071068 -0.7071068
vn 0.497353 0.192283 -0.8459711
vn -0.627829 0.651255 -0.42626
vn -0.6096661 0.08322602 -0.7882771
g Model_1:quad_normal2_0
f 3/3/3 2/2/2 1/1/1
f 1/1/1 2/2/2 4/4/4
f 3/3/3 5/5/5 2/2/2
f 2/2/2 5/5/5 4/4/4
