g ms_pfx_Swirl_08
v -0.164696 -0.1099477 -0.06622088
v -0.6572986 -0.1684536 -0.0353261
v -0.6581067 -0.3909865 -0.4773098
v -0.1655951 -0.3323195 -0.5072878
v -0.6598035 -0.5985597 -0.9279933
v -0.1675684 -0.5396279 -0.9557826
v -0.6615955 -0.7906802 -1.386941
v -0.1698169 -0.7313821 -1.411316
v -0.6626092 -0.9668923 -1.853643
v -0.1714569 -0.9071316 -1.873433
v -0.6618847 -1.126791 -2.32751
v -0.1715185 -1.066476 -2.341616
v -0.6583813 -1.270033 -2.807907
v -0.1689496 -1.209082 -2.815309
v -0.6509753 -1.396339 -3.294127
v -0.1626111 -1.334674 -3.293898
v -0.6384643 -1.505499 -3.785388
v -0.1512854 -1.443051 -3.776711
v -0.6195721 -1.597374 -4.280824
v -0.1336798 -1.534081 -4.262996
v -0.5929553 -1.671912 -4.779529
v -0.1084302 -1.607723 -4.751983
v -0.5572162 -1.729136 -5.280439
v -0.07411681 -1.664011 -5.24275
v -0.5109094 -1.769171 -5.782468
v -0.02927184 -1.703085 -5.73437
v -0.4525659 -1.792238 -6.2844
v 0.02759889 -1.725175 -6.225791
v -0.3807141 -1.79867 -6.784912
v 0.09799195 -1.730629 -6.715871
v -0.2939087 -1.788916 -7.2826
v 0.1833826 -1.719913 -7.203393
v -0.1907672 -1.763552 -7.775947
v 0.2851801 -1.693615 -7.687031
v -0.07000732 -1.723285 -8.263362
v 0.404696 -1.652456 -8.16539
v 0.06950807 -1.668955 -8.743191
v 0.5430963 -1.597296 -8.637012
v 0.2281604 -1.601596 -9.214021
v 0.7007825 -1.529175 -9.100647
v 0.4037463 -1.522565 -9.675587
v 0.8755401 -1.449435 -9.556096
v 0.5934924 -1.433261 -10.12823
v 1.064576 -1.359456 -10.00373
v 0.79479 -1.335011 -10.57261
v 1.265259 -1.260541 -10.44422
v 1.005205 -1.229051 -11.00956
v 1.475137 -1.153908 -10.87845
v 1.222468 -1.116526 -11.44011
v 1.691918 -1.040676 -11.30745
v 1.44444 -0.9984975 -11.86537
v 1.913444 -0.9218898 -11.73236
v 1.669074 -0.8759633 -12.28652
v 2.13765 -0.7985207 -12.1544
v 1.894369 -0.7498745 -12.70479
v 2.362513 -0.671498 -12.57485
v 2.118315 -0.6211623 -13.12144
v 2.586004 -0.5417348 -12.995
v 2.33884 -0.4907631 -13.53776
v 2.806032 -0.4101357 -13.41623
v 2.55374 -0.3596474 -13.95502
v 3.020369 -0.2776455 -13.83988
v 2.760622 -0.2288588 -14.37452
v 3.2266 -0.1452797 -14.26734
v 2.956832 -0.09954488 -14.79748
v 3.422046 -0.01414937 -14.69994
v 3.139379 0.02699809 -15.22508
v 3.603688 0.1144761 -15.13896
v 3.30488 0.1492759 -15.65829
v 3.768115 0.2391441 -15.58551
v 3.44953 0.2655759 -16.09785
v 3.911492 0.3581809 -16.04043
v 3.569972 0.374542 -16.54385
v 4.030415 0.47025 -16.50388
v 3.664734 0.4761656 -16.99521
v 4.12333 0.575316 -16.97467
v 3.732665 0.5707163 -17.45063
v 4.188989 0.6736094 -17.45134
v 3.772604 0.6584922 -17.90861
v 4.226131 0.765388 -17.93224
v 3.783407 0.7398459 -18.36757
v 4.233506 0.8509531 -18.41557
v 3.763969 0.8151621 -18.82568
v 4.209897 0.9306406 -18.89931
v 3.713254 0.8848716 -19.28098
v 4.154153 1.004825 -19.38124
v 3.63035 0.9494492 -19.73126
v 4.065246 1.073919 -19.85891
v 3.514531 1.009411 -20.17414
v 3.942338 1.13837 -20.32963
v 3.365332 1.065311 -20.60704
v 3.784853 1.198663 -20.7905
v 3.182632 1.117738 -21.02723
v 3.592576 1.255314 -21.23847
v 2.966737 1.167306 -21.43191
v 3.365729 1.308861 -21.67039
v 2.718442 1.214642 -21.81832
v 3.105049 1.359859 -22.08313
v 2.288285 1.282818 -22.35801
v 2.653556 1.432787 -22.65987
v 4.698476 1.152917 -19.50502
v 4.760428 1.073209 -18.9902
v 4.789188 0.9881247 -18.47482
v 4.786045 0.8973582 -17.9614
v 4.752355 0.8006406 -17.45222
v 4.689501 0.6977256 -16.94931
v 4.598867 0.5884104 -16.45453
v 4.481819 0.4725108 -15.96953
v 4.340015 0.3500938 -15.49564
v 4.176913 0.2224717 -15.03263
v 3.996387 0.09127421 -14.57951
v 3.801886 -0.04209248 -14.13502
v 3.596458 -0.1764052 -13.69774
v 3.382816 -0.3105922 -13.2662
v 3.163403 -0.4436757 -12.83891
v 2.940472 -0.5747402 -12.41442
v 2.716141 -0.7029116 -11.99129
v 2.492465 -0.827311 -11.56815
v 2.271489 -0.9470351 -11.14367
v 2.055303 -1.061139 -10.71659
v 1.846089 -1.168606 -10.28573
v 1.646165 -1.26834 -9.850028
v 1.458006 -1.359153 -9.408576
v 1.284271 -1.439766 -8.960678
v 1.127777 -1.508827 -8.505925
v 0.9907532 -1.565012 -8.044438
v 0.8727728 -1.607269 -7.577258
v 0.7726343 -1.634723 -7.105607
v 0.6889917 -1.646628 -6.630637
v 0.6203979 -1.64238 -6.153432
v 0.5653467 -1.621495 -5.674988
v 0.5223065 -1.583611 -5.19622
v 0.4897534 -1.528475 -4.717974
v 0.4661914 -1.455939 -4.240985
v 0.4501733 -1.365952 -3.765996
v 0.4403119 -1.258546 -3.293616
v 0.4352917 -1.133836 -2.824446
v 0.4338751 -0.9920168 -2.359031
v 0.4349078 -0.8333535 -1.897865
v 0.4373206 -0.6581728 -1.441409
v 0.4401324 -0.4668703 -0.9900917
v 0.4424481 -0.2598903 -0.5442983
v 0.4434607 -0.03771871 -0.104363
v 4.602159 1.227586 -20.0165
v 4.470498 1.297579 -20.52159
v 4.302785 1.363297 -21.01701
v 4.098684 1.425162 -21.49928
v 3.858316 1.483623 -21.96482
v 3.582343 1.539142 -22.41006
v 3.104509 1.617934 -23.03255
vt 0.5522461 -0.3161621
vt 1 -0.3161621
vt 1 -0.3049316
vt 0.5522461 -0.3049316
vt 1 -0.293457
vt 0.5522461 -0.293457
vt 1 -0.2819824
vt 0.5522461 -0.2819824
vt 1 -0.2702637
vt 0.5522461 -0.2702637
vt 1 -0.2580566
vt 0.5522461 -0.2580566
vt 1 -0.2459717
vt 0.5522461 -0.2459717
vt 1 -0.2336426
vt 0.5522461 -0.2336426
vt 1 -0.2211914
vt 0.5522461 -0.2211914
vt 1 -0.2086182
vt 0.5522461 -0.2086182
vt 1 -0.1958008
vt 0.5522461 -0.1958008
vt 1 -0.1828613
vt 0.5522461 -0.1828613
vt 1 -0.1697998
vt 0.5522461 -0.1697998
vt 1 -0.1566162
vt 0.5522461 -0.1566162
vt 1 -0.1433105
vt 0.5522461 -0.1433105
vt 1 -0.1300049
vt 0.5522461 -0.1300049
vt 1 -0.1166382
vt 0.5522461 -0.1166382
vt 1 -0.1032104
vt 0.5522461 -0.1032104
vt 1 -0.08978271
vt 0.5522461 -0.08978271
vt 1 -0.07635498
vt 0.5522461 -0.07635498
vt 1 -0.06298828
vt 0.5522461 -0.06298828
vt 1 -0.04968262
vt 0.5522461 -0.04968262
vt 1 -0.03643799
vt 0.5522461 -0.03643799
vt 1 -0.02322388
vt 0.5522461 -0.02322388
vt 1 -0.01003265
vt 0.5522461 -0.01003265
vt 1 0.003135681
vt 0.5522461 0.003135681
vt 1 0.01631165
vt 0.5522461 0.01631165
vt 1 0.02952576
vt 0.5522461 0.02952576
vt 1 0.04281616
vt 0.5522461 0.04281616
vt 1 0.05615234
vt 0.5522461 0.05615234
vt 1 0.06964111
vt 0.5522461 0.06964111
vt 1 0.08325195
vt 0.5522461 0.08325195
vt 1 0.09698486
vt 0.5522461 0.09698486
vt 1 0.1109619
vt 0.5522461 0.1109619
vt 1 0.1251221
vt 0.5522461 0.1251221
vt 1 0.1394043
vt 0.5522461 0.1394043
vt 1 0.1539307
vt 0.5522461 0.1539307
vt 1 0.1687012
vt 0.5522461 0.1687012
vt 1 0.1835938
vt 0.5522461 0.1835938
vt 1 0.1987305
vt 0.5522461 0.1987305
vt 1 0.2139893
vt 0.5522461 0.2139893
vt 1 0.2293701
vt 0.5522461 0.2293701
vt 1 0.2449951
vt 0.5522461 0.2449951
vt 1 0.2607422
vt 0.5522461 0.2607422
vt 1 0.2766113
vt 0.5522461 0.2766113
vt 1 0.2924805
vt 0.5522461 0.2924805
vt 1 0.3083496
vt 0.5522461 0.3083496
vt 1 0.3244629
vt 0.5522461 0.3244629
vt 1 0.340332
vt 0.5522461 0.340332
vt 1 0.3640137
vt 0.5522461 0.3640137
vt 0 0.2449951
vt 0 0.2293701
vt 0 0.2139893
vt 0 0.1987305
vt 0 0.1835938
vt 0 0.1687012
vt 0 0.1539307
vt 0 0.1394043
vt 0 0.1251221
vt 0 0.1109619
vt 0 0.09698486
vt 0 0.08325195
vt 0 0.06964111
vt 0 0.05615234
vt 0 0.04281616
vt 0 0.02952576
vt 0 0.01631165
vt 0 0.003135681
vt 0 -0.01003265
vt 0 -0.02322388
vt 0 -0.03643799
vt 0 -0.04968262
vt 0 -0.06298828
vt 0 -0.07635498
vt 0 -0.08978271
vt 0 -0.1032104
vt 0 -0.1166382
vt 0 -0.1300049
vt 0 -0.1433105
vt 0 -0.1566162
vt 0 -0.1697998
vt 0 -0.1828613
vt 0 -0.1958008
vt 0 -0.2086182
vt 0 -0.2211914
vt 0 -0.2336426
vt 0 -0.2459717
vt 0 -0.2580566
vt 0 -0.2702637
vt 0 -0.2819824
vt 0 -0.293457
vt 0 -0.3049316
vt 0 -0.3161621
vt 0 0.2607422
vt 0 0.2766113
vt 0 0.2924805
vt 0 0.3083496
vt 0 0.3244629
vt 0 0.340332
vt 0 0.3640137
vn -0.1328387 0.885102 -0.4460362
vn -0.1328372 0.885245 -0.4457529
vn -0.1323626 0.8928975 -0.4303651
vn -0.1323645 0.8926541 -0.4308693
vn -0.1310371 0.9074876 -0.3991185
vn -0.1310403 0.9070935 -0.4000125
vn -0.1291742 0.9211166 -0.3672305
vn -0.1291762 0.9206408 -0.3684208
vn -0.1270481 0.9336811 -0.3348112
vn -0.1270438 0.9331834 -0.3361972
vn -0.124928 0.945091 -0.3019866
vn -0.1249131 0.9446197 -0.3034638
vn -0.1230693 0.9552745 -0.2688954
vn -0.1230432 0.9548643 -0.2703601
vn -0.1217103 0.9641746 -0.2356991
vn -0.121674 0.9638487 -0.237047
vn -0.1210645 0.9717535 -0.2025797
vn -0.1210219 0.9715216 -0.2037144
vn -0.1213054 0.9779955 -0.1697345
vn -0.1212642 0.977855 -0.1705716
vn -0.1225611 0.9829057 -0.1373867
vn -0.1225319 0.9828439 -0.1378549
vn -0.1249063 0.9865143 -0.1057736
vn -0.1249047 0.9865095 -0.1058193
vn -0.1283545 0.9888775 -0.07514361
vn -0.1284 0.9889024 -0.0747358
vn -0.1328572 0.9900786 -0.04575321
vn -0.13297 0.9901032 -0.04488453
vn -0.1383027 0.990229 -0.01785462
vn -0.1385012 0.9902241 -0.01654355
vn -0.1445209 0.9894667 0.008327416
vn -0.1448197 0.9894071 0.01003664
vn -0.1512941 0.9879511 0.03259723
vn -0.1516988 0.9878198 0.03463558
vn -0.1583648 0.9858586 0.05480273
vn -0.1588702 0.9856482 0.05707942
vn -0.1654667 0.9833688 0.07487664
vn -0.1660576 0.9830827 0.07728836
vn -0.172392 0.9806353 0.09292791
vn -0.173043 0.9802849 0.09538031
vn -0.1790015 0.9777768 0.1091379
vn -0.1796832 0.9773792 0.111552
vn -0.18519 0.9748964 0.1236194
vn -0.1858745 0.97447 0.1259321
vn -0.1908804 0.9720795 0.1364769
vn -0.1915437 0.9716429 0.1386403
vn -0.196021 0.9693937 0.1478223
vn -0.1966433 0.9689639 0.1498012
vn -0.2005804 0.9668912 0.1577624
vn -0.2011458 0.9664833 0.1595322
vn -0.2045414 0.9646127 0.1663884
vn -0.2050368 0.96424 0.167932
vn -0.207897 0.9625921 0.1737678
vn -0.2083131 0.962265 0.1750758
vn -0.210646 0.9608589 0.1799399
vn -0.2109773 0.9605861 0.1810054
vn -0.2127944 0.9594393 0.1849187
vn -0.213043 0.9592252 0.1857407
vn -0.2143625 0.9583554 0.1886898
vn -0.2145334 0.9582025 0.1892707
vn -0.2153781 0.9576316 0.1911907
vn -0.2154772 0.95754 0.1915377
vn -0.2158851 0.9572902 0.1923253
vn -0.2159237 0.9572548 0.1924579
vn -0.2159539 0.9573475 0.1919627
vn -0.215948 0.9573594 0.1919099
vn -0.215688 0.9578133 0.1899273
vn -0.2156598 0.9578577 0.1897353
vn -0.2152471 0.9586776 0.1860263
vn -0.2152231 0.958733 0.1857686
vn -0.2148886 0.959823 0.1804515
vn -0.2148921 0.9598557 0.1802732
vn -0.2149345 0.9608911 0.1746183
vn -0.2149708 0.9608667 0.1747076
vn -0.2155415 0.9615717 0.1700642
vn -0.215588 0.961494 0.1704439
vn -0.216625 0.9618365 0.1671654
vn -0.216653 0.9617171 0.1678147
vn -0.2180043 0.9617084 0.1661058
vn -0.2179854 0.9615602 0.1669864
vn -0.2194214 0.9612202 0.1670629
vn -0.2193334 0.9610565 0.1681166
vn -0.2205483 0.960416 0.1701753
vn -0.2203785 0.96025 0.1713276
vn -0.2209966 0.9593489 0.1755285
vn -0.2207467 0.9591929 0.1766914
vn -0.2203366 0.9580789 0.1831299
vn -0.2200293 0.9579435 0.1842043
vn -0.2181314 0.9566676 0.192888
vn -0.2178111 0.9565614 0.193775
vn -0.213976 0.9551712 0.2046023
vn -0.2137075 0.9551007 0.2052115
vn -0.2075345 0.9536361 0.2179628
vn -0.2074005 0.9536064 0.2182201
vn -0.1985757 0.9520936 0.2325631
vn -0.198669 0.9521092 0.2324195
vn -0.1835296 0.9501811 0.2519383
vn -0.1840535 0.9502606 0.2512548
vn -0.1769538 0.9493312 0.2597261
vn -0.1776691 0.949441 0.258835
vn -0.2205596 0.9590607 0.1776397
vn -0.2202618 0.9601132 0.1722419
vn -0.2192835 0.9609247 0.1689336
vn -0.2179887 0.9614434 0.1676526
vn -0.2166905 0.9616262 0.168286
vn -0.2156359 0.96144 0.1706879
vn -0.2150043 0.9608603 0.1747015
vn -0.2148916 0.9599014 0.1800304
vn -0.2151956 0.9587975 0.1854678
vn -0.2156278 0.9579097 0.189509
vn -0.2159361 0.9573802 0.19182
vn -0.2159549 0.9572303 0.1925454
vn -0.2155677 0.9574618 0.1918268
vn -0.2146957 0.9580654 0.1897803
vn -0.213284 0.9590285 0.1864786
vn -0.211301 0.9603319 0.1819744
vn -0.2087225 0.961957 0.1762769
vn -0.2055282 0.9638855 0.1693603
vn -0.2017101 0.9660922 0.1611795
vn -0.1972679 0.9685486 0.1516541
vn -0.1922113 0.9712185 0.140675
vn -0.1865649 0.9740534 0.1281158
vn -0.1803704 0.9769892 0.113836
vn -0.1736969 0.979941 0.09769946
vn -0.1666463 0.9828016 0.07956026
vn -0.1593676 0.985442 0.05921021
vn -0.1520899 0.9876916 0.03652387
vn -0.1451017 0.9893488 0.01159692
vn -0.1386821 0.9902176 -0.0153727
vn -0.1330673 0.9901237 -0.04413797
vn -0.1284344 0.9889216 -0.07442179
vn -0.1248974 0.9864995 -0.1059211
vn -0.1225025 0.9827801 -0.1383342
vn -0.1212274 0.9777197 -0.1713712
vn -0.1209869 0.9713055 -0.2047631
vn -0.1216467 0.9635517 -0.2382648
vn -0.1230257 0.9544975 -0.2716602
vn -0.1249052 0.9442049 -0.3047554
vn -0.1270438 0.9327519 -0.3373927
vn -0.1291804 0.9202337 -0.3694354
vn -0.1310441 0.9067603 -0.4007659
vn -0.1323663 0.892451 -0.4312893
vn -0.1328399 0.8849858 -0.4462663
vn -0.2197828 0.9578248 0.1851145
vn -0.2175321 0.9564628 0.1945729
vn -0.2134406 0.9550285 0.2058246
vn -0.2072072 0.9535652 0.2185828
vn -0.1986245 0.9521034 0.2324809
vn -0.184314 0.9503034 0.2509023
vn -0.1781754 0.9495179 0.2582039
g ms_pfx_Swirl_08_0
f 3/3/3 2/2/2 1/1/1
f 4/4/4 3/3/3 1/1/1
f 5/5/5 3/3/3 4/4/4
f 6/6/6 5/5/5 4/4/4
f 7/7/7 5/5/5 6/6/6
f 8/8/8 7/7/7 6/6/6
f 9/9/9 7/7/7 8/8/8
f 10/10/10 9/9/9 8/8/8
f 11/11/11 9/9/9 10/10/10
f 12/12/12 11/11/11 10/10/10
f 13/13/13 11/11/11 12/12/12
f 14/14/14 13/13/13 12/12/12
f 15/15/15 13/13/13 14/14/14
f 16/16/16 15/15/15 14/14/14
f 17/17/17 15/15/15 16/16/16
f 18/18/18 17/17/17 16/16/16
f 19/19/19 17/17/17 18/18/18
f 20/20/20 19/19/19 18/18/18
f 21/21/21 19/19/19 20/20/20
f 22/22/22 21/21/21 20/20/20
f 23/23/23 21/21/21 22/22/22
f 24/24/24 23/23/23 22/22/22
f 25/25/25 23/23/23 24/24/24
f 26/26/26 25/25/25 24/24/24
f 27/27/27 25/25/25 26/26/26
f 28/28/28 27/27/27 26/26/26
f 29/29/29 27/27/27 28/28/28
f 30/30/30 29/29/29 28/28/28
f 31/31/31 29/29/29 30/30/30
f 32/32/32 31/31/31 30/30/30
f 33/33/33 31/31/31 32/32/32
f 34/34/34 33/33/33 32/32/32
f 35/35/35 33/33/33 34/34/34
f 36/36/36 35/35/35 34/34/34
f 37/37/37 35/35/35 36/36/36
f 38/38/38 37/37/37 36/36/36
f 39/39/39 37/37/37 38/38/38
f 40/40/40 39/39/39 38/38/38
f 41/41/41 39/39/39 40/40/40
f 42/42/42 41/41/41 40/40/40
f 43/43/43 41/41/41 42/42/42
f 44/44/44 43/43/43 42/42/42
f 45/45/45 43/43/43 44/44/44
f 46/46/46 45/45/45 44/44/44
f 47/47/47 45/45/45 46/46/46
f 48/48/48 47/47/47 46/46/46
f 49/49/49 47/47/47 48/48/48
f 50/50/50 49/49/49 48/48/48
f 51/51/51 49/49/49 50/50/50
f 52/52/52 51/51/51 50/50/50
f 53/53/53 51/51/51 52/52/52
f 54/54/54 53/53/53 52/52/52
f 55/55/55 53/53/53 54/54/54
f 56/56/56 55/55/55 54/54/54
f 57/57/57 55/55/55 56/56/56
f 58/58/58 57/57/57 56/56/56
f 59/59/59 57/57/57 58/58/58
f 60/60/60 59/59/59 58/58/58
f 61/61/61 59/59/59 60/60/60
f 62/62/62 61/61/61 60/60/60
f 63/63/63 61/61/61 62/62/62
f 64/64/64 63/63/63 62/62/62
f 65/65/65 63/63/63 64/64/64
f 66/66/66 65/65/65 64/64/64
f 67/67/67 65/65/65 66/66/66
f 68/68/68 67/67/67 66/66/66
f 69/69/69 67/67/67 68/68/68
f 70/70/70 69/69/69 68/68/68
f 71/71/71 69/69/69 70/70/70
f 72/72/72 71/71/71 70/70/70
f 73/73/73 71/71/71 72/72/72
f 74/74/74 73/73/73 72/72/72
f 75/75/75 73/73/73 74/74/74
f 76/76/76 75/75/75 74/74/74
f 77/77/77 75/75/75 76/76/76
f 78/78/78 77/77/77 76/76/76
f 79/79/79 77/77/77 78/78/78
f 80/80/80 79/79/79 78/78/78
f 81/81/81 79/79/79 80/80/80
f 82/82/82 81/81/81 80/80/80
f 83/83/83 81/81/81 82/82/82
f 84/84/84 83/83/83 82/82/82
f 85/85/85 83/83/83 84/84/84
f 86/86/86 85/85/85 84/84/84
f 87/87/87 85/85/85 86/86/86
f 88/88/88 87/87/87 86/86/86
f 89/89/89 87/87/87 88/88/88
f 90/90/90 89/89/89 88/88/88
f 91/91/91 89/89/89 90/90/90
f 92/92/92 91/91/91 90/90/90
f 93/93/93 91/91/91 92/92/92
f 94/94/94 93/93/93 92/92/92
f 95/95/95 93/93/93 94/94/94
f 96/96/96 95/95/95 94/94/94
f 97/97/97 95/95/95 96/96/96
f 98/98/98 97/97/97 96/96/96
f 99/99/99 97/97/97 98/98/98
f 100/100/100 99/99/99 98/98/98
f 88/88/88 86/86/86 101/101/101
f 101/101/101 86/86/86 102/102/102
f 86/86/86 84/84/84 102/102/102
f 102/102/102 84/84/84 103/103/103
f 84/84/84 82/82/82 103/103/103
f 103/103/103 82/82/82 104/104/104
f 82/82/82 80/80/80 104/104/104
f 104/104/104 80/80/80 105/105/105
f 80/80/80 78/78/78 105/105/105
f 105/105/105 78/78/78 106/106/106
f 78/78/78 76/76/76 106/106/106
f 106/106/106 76/76/76 107/107/107
f 76/76/76 74/74/74 107/107/107
f 107/107/107 74/74/74 108/108/108
f 74/74/74 72/72/72 108/108/108
f 108/108/108 72/72/72 109/109/109
f 72/72/72 70/70/70 109/109/109
f 109/109/109 70/70/70 110/110/110
f 70/70/70 68/68/68 110/110/110
f 110/110/110 68/68/68 111/111/111
f 68/68/68 66/66/66 111/111/111
f 111/111/111 66/66/66 112/112/112
f 66/66/66 64/64/64 112/112/112
f 112/112/112 64/64/64 113/113/113
f 64/64/64 62/62/62 113/113/113
f 113/113/113 62/62/62 114/114/114
f 62/62/62 60/60/60 114/114/114
f 114/114/114 60/60/60 115/115/115
f 60/60/60 58/58/58 115/115/115
f 115/115/115 58/58/58 116/116/116
f 58/58/58 56/56/56 116/116/116
f 116/116/116 56/56/56 117/117/117
f 56/56/56 54/54/54 117/117/117
f 117/117/117 54/54/54 118/118/118
f 54/54/54 52/52/52 118/118/118
f 118/118/118 52/52/52 119/119/119
f 52/52/52 50/50/50 119/119/119
f 119/119/119 50/50/50 120/120/120
f 50/50/50 48/48/48 120/120/120
f 120/120/120 48/48/48 121/121/121
f 48/48/48 46/46/46 121/121/121
f 121/121/121 46/46/46 122/122/122
f 46/46/46 44/44/44 122/122/122
f 122/122/122 44/44/44 123/123/123
f 44/44/44 42/42/42 123/123/123
f 123/123/123 42/42/42 124/124/124
f 42/42/42 40/40/40 124/124/124
f 124/124/124 40/40/40 125/125/125
f 40/40/40 38/38/38 125/125/125
f 125/125/125 38/38/38 126/126/126
f 38/38/38 36/36/36 126/126/126
f 126/126/126 36/36/36 127/127/127
f 36/36/36 34/34/34 127/127/127
f 127/127/127 34/34/34 128/128/128
f 34/34/34 32/32/32 128/128/128
f 128/128/128 32/32/32 129/129/129
f 32/32/32 30/30/30 129/129/129
f 129/129/129 30/30/30 130/130/130
f 30/30/30 28/28/28 130/130/130
f 130/130/130 28/28/28 131/131/131
f 28/28/28 26/26/26 131/131/131
f 131/131/131 26/26/26 132/132/132
f 26/26/26 24/24/24 132/132/132
f 132/132/132 24/24/24 133/133/133
f 24/24/24 22/22/22 133/133/133
f 133/133/133 22/22/22 134/134/134
f 22/22/22 20/20/20 134/134/134
f 134/134/134 20/20/20 135/135/135
f 20/20/20 18/18/18 135/135/135
f 135/135/135 18/18/18 136/136/136
f 18/18/18 16/16/16 136/136/136
f 136/136/136 16/16/16 137/137/137
f 16/16/16 14/14/14 137/137/137
f 137/137/137 14/14/14 138/138/138
f 14/14/14 12/12/12 138/138/138
f 138/138/138 12/12/12 139/139/139
f 12/12/12 10/10/10 139/139/139
f 139/139/139 10/10/10 140/140/140
f 10/10/10 8/8/8 140/140/140
f 140/140/140 8/8/8 141/141/141
f 8/8/8 6/6/6 141/141/141
f 141/141/141 6/6/6 142/142/142
f 6/6/6 4/4/4 142/142/142
f 142/142/142 4/4/4 143/143/143
f 4/4/4 1/1/1 143/143/143
f 144/144/144 88/88/88 101/101/101
f 90/90/90 88/88/88 144/144/144
f 145/145/145 90/90/90 144/144/144
f 92/92/92 90/90/90 145/145/145
f 146/146/146 92/92/92 145/145/145
f 94/94/94 92/92/92 146/146/146
f 147/147/147 94/94/94 146/146/146
f 96/96/96 94/94/94 147/147/147
f 148/148/148 96/96/96 147/147/147
f 98/98/98 96/96/96 148/148/148
f 149/149/149 98/98/98 148/148/148
f 100/100/100 98/98/98 149/149/149
f 150/150/150 100/100/100 149/149/149
