g ms_pfx_Swirl_09
v 0.0459875 0.08313496 -0.05655244
v -0.4580921 0.2060305 0.02621245
v -0.5084394 0.3161965 -0.4248959
v -0.004728138 0.1940139 -0.5091879
v -0.5632858 0.4031972 -0.882944
v -0.05994603 0.2820583 -0.9663485
v -0.6211942 0.4661196 -1.347074
v -0.1182236 0.3463515 -1.427218
v -0.6804514 0.5042714 -1.816261
v -0.1778458 0.3861757 -1.890857
v -0.7390751 0.5172377 -2.289339
v -0.2368256 0.4010903 -2.356233
v -0.7948344 0.5049062 -2.765045
v -0.2929261 0.3909511 -2.822263
v -0.8452768 0.4675063 -3.242087
v -0.3436914 0.3559474 -3.287883
v -0.8877597 0.4056142 -3.719043
v -0.3864731 0.2966079 -3.751943
v -0.9195091 0.3201564 -4.194522
v -0.4184909 0.2138051 -4.213367
v -0.9376646 0.212416 -4.667037
v -0.4368808 0.1087661 -4.671019
v -0.9393607 0.08402362 -5.135067
v -0.4387714 -0.01694439 -5.123761
v -0.9218119 -0.06306256 -5.597054
v -0.4213709 -0.1614293 -5.570441
v -0.8824125 -0.2265586 -6.051362
v -0.38207 -0.3224705 -6.00984
v -0.8188565 -0.4039073 -6.496338
v -0.3185596 -0.4975767 -6.440726
v -0.7292631 -0.5923106 -6.9303
v -0.2289539 -0.6840099 -6.861826
v -0.6122641 -0.7888548 -7.351701
v -0.1118845 -0.878917 -7.271963
v -0.4681961 -0.9908385 -7.759568
v 0.03230433 -1.079614 -7.670419
v -0.3012601 -1.196435 -8.154514
v 0.1993694 -1.284228 -8.057778
v -0.1158286 -1.404356 -8.537807
v 0.3848937 -1.491412 -8.435238
v 0.08435786 -1.613636 -8.910941
v 0.5850946 -1.700141 -8.804232
v 0.29608 -1.823544 -9.27553
v 0.7967116 -1.909632 -9.166327
v 0.5165133 -2.033506 -9.633244
v 1.016879 -2.119269 -9.523175
v 0.7430862 -2.243048 -9.985785
v 1.24298 -2.328528 -9.876493
v 0.9733373 -2.451731 -10.3349
v 1.472503 -2.53692 -10.22806
v 1.204778 -2.659102 -10.68241
v 1.702901 -2.74395 -10.5798
v 1.434731 -2.864664 -11.03033
v 1.931427 -2.949055 -10.93383
v 1.660017 -3.067711 -11.38079
v 2.154811 -3.151471 -11.29249
v 1.876719 -3.267318 -11.73631
v 2.369021 -3.350184 -11.65855
v 2.079535 -3.462021 -12.09972
v 2.568601 -3.543634 -12.03521
v 2.260883 -3.649445 -12.47413
v 2.745761 -3.729292 -12.42609
v 2.409525 -3.825599 -12.86261
v 2.888986 -3.902979 -12.83491
v 2.511081 -3.984378 -13.26618
v 2.983587 -4.058351 -13.26337
v 2.558341 -4.120426 -13.68104
v 3.022201 -4.18986 -13.70779
v 2.548666 -4.228831 -14.10023
v 3.002146 -4.292435 -14.161
v 2.482473 -4.305273 -14.51588
v 2.923853 -4.361583 -14.6146
v 2.36313 -4.346117 -14.92001
v 2.790727 -4.393467 -15.05994
v 2.196098 -4.347913 -15.30527
v 2.608228 -4.384355 -15.48898
v 1.988057 -4.306026 -15.66439
v 2.382928 -4.329134 -15.89376
v 1.746786 -4.211932 -15.98811
v 2.122265 -4.21839 -16.26439
v 1.484176 -4.04699 -16.2585
v 1.837339 -4.031627 -16.58188
v 1.226844 -3.780697 -16.43458
v 1.554379 -3.736351 -16.80187
v 1.009447 -3.423671 -16.48818
v 1.312318 -3.348849 -16.88941
v 0.8409246 -3.018517 -16.4561
v 1.125451 -2.921334 -16.87879
v 0.6269265 -2.344096 -16.4161
v 0.9072652 -2.254865 -16.85141
v 3.067294 -4.424947 -15.69361
v 3.26702 -4.446209 -15.21582
v 3.415499 -4.424305 -14.72457
v 3.50727 -4.363283 -14.22869
v 3.538886 -4.267203 -13.73759
v 3.509903 -4.140746 -13.26023
v 3.42305 -3.98917 -12.80406
v 3.28586 -3.818231 -12.37257
v 3.113362 -3.634539 -11.96335
v 2.917387 -3.442489 -11.57193
v 2.705954 -3.244768 -11.19413
v 2.484687 -3.043055 -10.82635
v 2.257753 -2.838457 -10.4655
v 2.028515 -2.631811 -10.10906
v 1.799803 -2.42374 -9.754753
v 1.574228 -2.214798 -9.400572
v 1.354358 -2.005525 -9.044686
v 1.142857 -1.796495 -8.68537
v 0.9426396 -1.58838 -8.32099
v 0.757012 -1.382021 -7.950027
v 0.5898034 -1.178498 -7.571115
v 0.44548 -0.9792345 -7.183143
v 0.3283316 -0.7861546 -6.785555
v 0.238713 -0.6019139 -6.378783
v 0.1752523 -0.4293052 -5.96359
v 0.136062 -0.2709971 -5.540794
v 0.1188272 -0.1294102 -5.111166
v 0.1209335 -0.006689267 -4.675454
v 0.139584 0.09534321 -4.234356
v 0.1719015 0.1751882 -3.78859
v 0.2150155 0.2316848 -3.338892
v 0.266141 0.26402 -2.885997
v 0.3226217 0.2717153 -2.430744
v 0.3819979 0.2546303 -1.973946
v 0.4420263 0.2129433 -1.516487
v 0.5007162 0.1471242 -1.05925
v 0.5563467 0.057914 -0.6030807
v 0.6074731 -0.05375836 -0.1487424
v 2.822769 -4.354873 -16.14926
v 2.540503 -4.225582 -16.57212
v 2.230722 -4.014515 -16.94209
v 1.919214 -3.686954 -17.211
v 1.64968 -3.265501 -17.33633
v 1.442379 -2.813086 -17.34962
v 1.21953 -2.155477 -17.3363
vt 0.5268555 0.3410645
vt 1 0.3410645
vt 1 0.3515625
vt 0.5268555 0.3515625
vt 1 0.3623047
vt 0.5268555 0.3623047
vt 1 0.3735352
vt 0.5268555 0.3735352
vt 1 0.3850098
vt 0.5268555 0.3850098
vt 1 0.3964844
vt 0.5268555 0.3964844
vt 1 0.4084473
vt 0.5268555 0.4084473
vt 1 0.4206543
vt 0.5268555 0.4206543
vt 1 0.4328613
vt 0.5268555 0.4328613
vt 1 0.4453125
vt 0.5268555 0.4453125
vt 1 0.4577637
vt 0.5268555 0.4577637
vt 1 0.470459
vt 0.5268555 0.470459
vt 1 0.4831543
vt 0.5268555 0.4831543
vt 1 0.4958496
vt 0.5268555 0.4958496
vt 1 0.5083008
vt 0.5268555 0.5083008
vt 1 0.5209961
vt 0.5268555 0.5209961
vt 1 0.5336914
vt 0.5268555 0.5336914
vt 1 0.5458984
vt 0.5268555 0.5458984
vt 1 0.5581055
vt 0.5268555 0.5581055
vt 1 0.5698242
vt 0.5268555 0.5698242
vt 1 0.5820313
vt 0.5268555 0.5820313
vt 1 0.59375
vt 0.5268555 0.59375
vt 1 0.6054688
vt 0.5268555 0.6054688
vt 1 0.6171875
vt 0.5268555 0.6171875
vt 1 0.6293945
vt 0.5268555 0.6293945
vt 1 0.6416016
vt 0.5268555 0.6416016
vt 1 0.6538086
vt 0.5268555 0.6538086
vt 1 0.6665039
vt 0.5268555 0.6665039
vt 1 0.6796875
vt 0.5268555 0.6796875
vt 1 0.6938477
vt 0.5268555 0.6938477
vt 1 0.7084961
vt 0.5268555 0.7084961
vt 1 0.7236328
vt 0.5268555 0.7236328
vt 1 0.7402344
vt 0.5268555 0.7402344
vt 1 0.7583008
vt 0.5268555 0.7583008
vt 1 0.7768555
vt 0.5268555 0.7768555
vt 1 0.796875
vt 0.5268555 0.796875
vt 1 0.8173828
vt 0.5268555 0.8173828
vt 1 0.8393555
vt 0.5268555 0.8393555
vt 1 0.862793
vt 0.5268555 0.862793
vt 1 0.8886719
vt 0.5268555 0.8886719
vt 1 0.918457
vt 0.5268555 0.918457
vt 1 0.9541016
vt 0.5268555 0.9541016
vt 1 0.9941406
vt 0.5268555 0.9941406
vt 1 1.035156
vt 0.5268555 1.035156
vt 1 1.108398
vt 0.5268555 1.108398
vt 0 0.8393555
vt 0 0.8173828
vt 0 0.796875
vt 0 0.7768555
vt 0 0.7583008
vt 0 0.7402344
vt 0 0.7236328
vt 0 0.7084961
vt 0 0.6938477
vt 0 0.6796875
vt 0 0.6665039
vt 0 0.6538086
vt 0 0.6416016
vt 0 0.6293945
vt 0 0.6171875
vt 0 0.6054688
vt 0 0.59375
vt 0 0.5820313
vt 0 0.5698242
vt 0 0.5581055
vt 0 0.5458984
vt 0 0.5336914
vt 0 0.5209961
vt 0 0.5083008
vt 0 0.4958496
vt 0 0.4831543
vt 0 0.470459
vt 0 0.4577637
vt 0 0.4453125
vt 0 0.4328613
vt 0 0.4206543
vt 0 0.4084473
vt 0 0.3964844
vt 0 0.3850098
vt 0 0.3735352
vt 0 0.3623047
vt 0 0.3515625
vt 0 0.3410645
vt 0 0.862793
vt 0 0.8886719
vt 0 0.918457
vt 0 0.9541016
vt 0 0.9941406
vt 0 1.035156
vt 0 1.108398
vn 0.2628829 0.9435084 0.2017039
vn 0.2628484 0.9435839 0.2013959
vn 0.2594803 0.9494588 0.1766295
vn 0.2595738 0.9492843 0.1774285
vn 0.2516623 0.95948 0.1267443
vn 0.2518448 0.9592357 0.1282234
vn 0.2423473 0.9671838 0.07631205
vn 0.2425889 0.9669725 0.07819807
vn 0.2323047 0.9722997 0.02584039
vn 0.2325642 0.9721824 0.02784504
vn 0.2223172 0.9746764 -0.02410392
vn 0.2225492 0.9746673 -0.02226053
vn 0.2131264 0.9743008 -0.07290477
vn 0.2132947 0.9743696 -0.07147984
vn 0.2053864 0.9713082 -0.1199035
vn 0.2054712 0.9713877 -0.1191114
vn 0.1996074 0.9659809 -0.1644319
vn 0.19961 0.9659814 -0.1644257
vn 0.1961166 0.9587386 -0.2058119
vn 0.196061 0.9585654 -0.2066702
vn 0.1950243 0.9501156 -0.2434047
vn 0.1949546 0.949688 -0.2451235
vn 0.1962167 0.9407291 -0.2766363
vn 0.1961868 0.9399987 -0.2791291
vn 0.1993703 0.9312363 -0.305042
vn 0.199433 0.9302002 -0.308146
vn 0.2039925 0.9222796 -0.3283098
vn 0.2041878 0.9209856 -0.3318022
vn 0.2094866 0.9144346 -0.3463014
vn 0.2098283 0.9129786 -0.3499175
vn 0.2152247 0.9081578 -0.3590651
vn 0.2156931 0.906671 -0.3625248
vn 0.2206482 0.9036363 -0.3670909
vn 0.2211946 0.9022473 -0.3701659
vn 0.2254295 0.9004936 -0.3718775
vn 0.2259973 0.8992534 -0.3745243
vn 0.2294488 0.8981602 -0.3750486
vn 0.2299806 0.897114 -0.3772208
vn 0.2326269 0.8964596 -0.3771537
vn 0.2330679 0.8956489 -0.3788041
vn 0.2348986 0.8953223 -0.3784453
vn 0.2352076 0.8947777 -0.3795394
vn 0.2362172 0.8946919 -0.3791146
vn 0.2363589 0.8944412 -0.3796174
vn 0.2365324 0.894533 -0.379293
vn 0.2364767 0.8946023 -0.3791642
vn 0.2357803 0.8948318 -0.3790564
vn 0.2354992 0.8952509 -0.3782406
vn 0.2338694 0.8956045 -0.3784146
vn 0.2333393 0.8964083 -0.3768357
vn 0.2306727 0.8969042 -0.3772968
vn 0.2298717 0.8981352 -0.3748495
vn 0.2260117 0.8988317 -0.3755264
vn 0.2249239 0.9005432 -0.3720637
vn 0.2196434 0.9015561 -0.3727645
vn 0.2182657 0.9038106 -0.3680849
vn 0.211248 0.9053497 -0.3683968
vn 0.2095995 0.9082196 -0.3622225
vn 0.2004163 0.9106455 -0.3613282
vn 0.1985648 0.9141951 -0.3532979
vn 0.1866826 0.9181055 -0.3496169
vn 0.1848024 0.9223471 -0.3392995
vn 0.1697424 0.9285013 -0.3302617
vn 0.1681917 0.9332541 -0.3174087
vn 0.1499587 0.9417123 -0.3011487
vn 0.1492256 0.9464639 -0.2862479
vn 0.1287252 0.9565374 -0.26166
vn 0.129264 0.9607478 -0.245468
vn 0.1086281 0.9715728 -0.2103481
vn 0.1106995 0.9747469 -0.1939433
vn 0.09347594 0.9848237 -0.1462349
vn 0.0969849 0.9866351 -0.1309389
vn 0.08801258 0.9936977 -0.06941707
vn 0.09243411 0.9941134 -0.05651958
vn 0.09790038 0.994998 0.01986575
vn 0.1023123 0.9943206 0.02930413
vn 0.13116 0.9836262 0.1235988
vn 0.1342296 0.9825603 0.1286758
vn 0.2042419 0.9462593 0.2507561
vn 0.2037238 0.9465182 0.2501999
vn 0.348924 0.8414212 0.4126287
vn 0.3402448 0.8488989 0.40448
vn 0.5461128 0.6281934 0.5541966
vn 0.528987 0.6517057 0.5435554
vn 0.7005342 0.3879704 0.5989414
vn 0.6857643 0.4187176 0.5953175
vn 0.7760577 0.2494998 0.5792101
vn 0.7702708 0.2656398 0.5797572
vn 0.7903256 0.226119 0.5694345
vn 0.7875448 0.2352519 0.5695875
vn 0.1055914 0.9937432 0.03639699
vn 0.09572172 0.9942911 -0.04714419
vn 0.09968176 0.9877849 -0.1197685
vn 0.112374 0.976925 -0.1816302
vn 0.1297331 0.9638364 -0.2327852
vn 0.1485811 0.9501959 -0.273955
vn 0.1667474 0.9372509 -0.3061961
vn 0.1829948 0.9261274 -0.3298501
vn 0.1967416 0.9174954 -0.3456804
vn 0.2079438 0.9109761 -0.3562049
vn 0.2168571 0.9060405 -0.3634054
vn 0.2237904 0.9022872 -0.3685043
vn 0.2290173 0.8994393 -0.3722365
vn 0.2327555 0.8973111 -0.3750435
vn 0.2351684 0.8957873 -0.3771749
vn 0.2363786 0.8947992 -0.3787607
vn 0.2364697 0.8943214 -0.3798307
vn 0.2354986 0.8943615 -0.3803393
vn 0.2335058 0.8949561 -0.3801693
vn 0.2305242 0.8961691 -0.3791298
vn 0.226593 0.8980901 -0.3769479
vn 0.2217784 0.9009048 -0.3730749
vn 0.2162049 0.9051934 -0.3658967
vn 0.2102093 0.9115071 -0.3535066
vn 0.2044124 0.9196677 -0.3353013
vn 0.1995125 0.9291449 -0.3112628
vn 0.1961639 0.93926 -0.2816208
vn 0.1948874 0.9492624 -0.2468194
vn 0.1960079 0.9583995 -0.2074878
vn 0.1996173 0.9659887 -0.1643744
vn 0.2055628 0.971469 -0.1182868
vn 0.2134691 0.9744352 -0.07005029
vn 0.222784 0.9746534 -0.02044833
vn 0.2328213 0.9720633 0.02978514
vn 0.2428243 0.9667659 0.07999981
vn 0.2520199 0.9590015 0.1296227
vn 0.2596628 0.9491184 0.1781842
vn 0.2629134 0.9434415 0.2019769
vn 0.1367591 0.9816245 0.1330798
vn 0.2043706 0.9460881 0.2512966
vn 0.3364552 0.8520781 0.4009498
vn 0.5189264 0.665167 0.5369061
vn 0.6748679 0.4406032 0.5919646
vn 0.7650738 0.2800122 0.579875
vn 0.7848355 0.2439109 0.5696846
g ms_pfx_Swirl_09_0
f 3/3/3 2/2/2 1/1/1
f 4/4/4 3/3/3 1/1/1
f 5/5/5 3/3/3 4/4/4
f 6/6/6 5/5/5 4/4/4
f 7/7/7 5/5/5 6/6/6
f 8/8/8 7/7/7 6/6/6
f 9/9/9 7/7/7 8/8/8
f 10/10/10 9/9/9 8/8/8
f 11/11/11 9/9/9 10/10/10
f 12/12/12 11/11/11 10/10/10
f 13/13/13 11/11/11 12/12/12
f 14/14/14 13/13/13 12/12/12
f 15/15/15 13/13/13 14/14/14
f 16/16/16 15/15/15 14/14/14
f 17/17/17 15/15/15 16/16/16
f 18/18/18 17/17/17 16/16/16
f 19/19/19 17/17/17 18/18/18
f 20/20/20 19/19/19 18/18/18
f 21/21/21 19/19/19 20/20/20
f 22/22/22 21/21/21 20/20/20
f 23/23/23 21/21/21 22/22/22
f 24/24/24 23/23/23 22/22/22
f 25/25/25 23/23/23 24/24/24
f 26/26/26 25/25/25 24/24/24
f 27/27/27 25/25/25 26/26/26
f 28/28/28 27/27/27 26/26/26
f 29/29/29 27/27/27 28/28/28
f 30/30/30 29/29/29 28/28/28
f 31/31/31 29/29/29 30/30/30
f 32/32/32 31/31/31 30/30/30
f 33/33/33 31/31/31 32/32/32
f 34/34/34 33/33/33 32/32/32
f 35/35/35 33/33/33 34/34/34
f 36/36/36 35/35/35 34/34/34
f 37/37/37 35/35/35 36/36/36
f 38/38/38 37/37/37 36/36/36
f 39/39/39 37/37/37 38/38/38
f 40/40/40 39/39/39 38/38/38
f 41/41/41 39/39/39 40/40/40
f 42/42/42 41/41/41 40/40/40
f 43/43/43 41/41/41 42/42/42
f 44/44/44 43/43/43 42/42/42
f 45/45/45 43/43/43 44/44/44
f 46/46/46 45/45/45 44/44/44
f 47/47/47 45/45/45 46/46/46
f 48/48/48 47/47/47 46/46/46
f 49/49/49 47/47/47 48/48/48
f 50/50/50 49/49/49 48/48/48
f 51/51/51 49/49/49 50/50/50
f 52/52/52 51/51/51 50/50/50
f 53/53/53 51/51/51 52/52/52
f 54/54/54 53/53/53 52/52/52
f 55/55/55 53/53/53 54/54/54
f 56/56/56 55/55/55 54/54/54
f 57/57/57 55/55/55 56/56/56
f 58/58/58 57/57/57 56/56/56
f 59/59/59 57/57/57 58/58/58
f 60/60/60 59/59/59 58/58/58
f 61/61/61 59/59/59 60/60/60
f 62/62/62 61/61/61 60/60/60
f 63/63/63 61/61/61 62/62/62
f 64/64/64 63/63/63 62/62/62
f 65/65/65 63/63/63 64/64/64
f 66/66/66 65/65/65 64/64/64
f 67/67/67 65/65/65 66/66/66
f 68/68/68 67/67/67 66/66/66
f 69/69/69 67/67/67 68/68/68
f 70/70/70 69/69/69 68/68/68
f 71/71/71 69/69/69 70/70/70
f 72/72/72 71/71/71 70/70/70
f 73/73/73 71/71/71 72/72/72
f 74/74/74 73/73/73 72/72/72
f 75/75/75 73/73/73 74/74/74
f 76/76/76 75/75/75 74/74/74
f 77/77/77 75/75/75 76/76/76
f 78/78/78 77/77/77 76/76/76
f 79/79/79 77/77/77 78/78/78
f 80/80/80 79/79/79 78/78/78
f 81/81/81 79/79/79 80/80/80
f 82/82/82 81/81/81 80/80/80
f 83/83/83 81/81/81 82/82/82
f 84/84/84 83/83/83 82/82/82
f 85/85/85 83/83/83 84/84/84
f 86/86/86 85/85/85 84/84/84
f 87/87/87 85/85/85 86/86/86
f 88/88/88 87/87/87 86/86/86
f 89/89/89 87/87/87 88/88/88
f 90/90/90 89/89/89 88/88/88
f 78/78/78 76/76/76 91/91/91
f 91/91/91 76/76/76 92/92/92
f 76/76/76 74/74/74 92/92/92
f 92/92/92 74/74/74 93/93/93
f 74/74/74 72/72/72 93/93/93
f 93/93/93 72/72/72 94/94/94
f 72/72/72 70/70/70 94/94/94
f 94/94/94 70/70/70 95/95/95
f 70/70/70 68/68/68 95/95/95
f 95/95/95 68/68/68 96/96/96
f 68/68/68 66/66/66 96/96/96
f 96/96/96 66/66/66 97/97/97
f 66/66/66 64/64/64 97/97/97
f 97/97/97 64/64/64 98/98/98
f 64/64/64 62/62/62 98/98/98
f 98/98/98 62/62/62 99/99/99
f 62/62/62 60/60/60 99/99/99
f 99/99/99 60/60/60 100/100/100
f 60/60/60 58/58/58 100/100/100
f 100/100/100 58/58/58 101/101/101
f 58/58/58 56/56/56 101/101/101
f 101/101/101 56/56/56 102/102/102
f 56/56/56 54/54/54 102/102/102
f 102/102/102 54/54/54 103/103/103
f 54/54/54 52/52/52 103/103/103
f 103/103/103 52/52/52 104/104/104
f 52/52/52 50/50/50 104/104/104
f 104/104/104 50/50/50 105/105/105
f 50/50/50 48/48/48 105/105/105
f 105/105/105 48/48/48 106/106/106
f 48/48/48 46/46/46 106/106/106
f 106/106/106 46/46/46 107/107/107
f 46/46/46 44/44/44 107/107/107
f 107/107/107 44/44/44 108/108/108
f 44/44/44 42/42/42 108/108/108
f 108/108/108 42/42/42 109/109/109
f 42/42/42 40/40/40 109/109/109
f 109/109/109 40/40/40 110/110/110
f 40/40/40 38/38/38 110/110/110
f 110/110/110 38/38/38 111/111/111
f 38/38/38 36/36/36 111/111/111
f 111/111/111 36/36/36 112/112/112
f 36/36/36 34/34/34 112/112/112
f 112/112/112 34/34/34 113/113/113
f 34/34/34 32/32/32 113/113/113
f 113/113/113 32/32/32 114/114/114
f 32/32/32 30/30/30 114/114/114
f 114/114/114 30/30/30 115/115/115
f 30/30/30 28/28/28 115/115/115
f 115/115/115 28/28/28 116/116/116
f 28/28/28 26/26/26 116/116/116
f 116/116/116 26/26/26 117/117/117
f 26/26/26 24/24/24 117/117/117
f 117/117/117 24/24/24 118/118/118
f 24/24/24 22/22/22 118/118/118
f 118/118/118 22/22/22 119/119/119
f 22/22/22 20/20/20 119/119/119
f 119/119/119 20/20/20 120/120/120
f 20/20/20 18/18/18 120/120/120
f 120/120/120 18/18/18 121/121/121
f 18/18/18 16/16/16 121/121/121
f 121/121/121 16/16/16 122/122/122
f 16/16/16 14/14/14 122/122/122
f 122/122/122 14/14/14 123/123/123
f 14/14/14 12/12/12 123/123/123
f 123/123/123 12/12/12 124/124/124
f 12/12/12 10/10/10 124/124/124
f 124/124/124 10/10/10 125/125/125
f 10/10/10 8/8/8 125/125/125
f 125/125/125 8/8/8 126/126/126
f 8/8/8 6/6/6 126/126/126
f 126/126/126 6/6/6 127/127/127
f 6/6/6 4/4/4 127/127/127
f 127/127/127 4/4/4 128/128/128
f 4/4/4 1/1/1 128/128/128
f 129/129/129 78/78/78 91/91/91
f 80/80/80 78/78/78 129/129/129
f 130/130/130 80/80/80 129/129/129
f 82/82/82 80/80/80 130/130/130
f 131/131/131 82/82/82 130/130/130
f 84/84/84 82/82/82 131/131/131
f 132/132/132 84/84/84 131/131/131
f 86/86/86 84/84/84 132/132/132
f 133/133/133 86/86/86 132/132/132
f 88/88/88 86/86/86 133/133/133
f 134/134/134 88/88/88 133/133/133
f 90/90/90 88/88/88 134/134/134
f 135/135/135 90/90/90 134/134/134
