g ms_pfx_Teleport_1
v -0.3154342 2.101814 -0.1430677
v 0 2.17374 -0.1430677
v 0 2.201033 -0.01520567
v -0.343998 2.13357 -0.01520567
v -0.5318404 1.986304 -0.1430677
v -0.5841129 2.005287 -0.01520567
v -0.7343044 1.747592 -0.1430677
v -0.8327968 1.74333 -0.01520567
v -0.8522952 1.302428 -0.1430677
v -0.9488534 1.305098 -0.03166821
v -0.8644609 0.9157785 -0.1430677
v -0.9593697 0.9016972 -0.0645933
v -0.8062281 0.6263919 -0.1983771
v -0.9139967 0.5552135 -0.1386828
v -0.7293145 0.3236445 -0.2467619
v -0.8374853 0.2331543 -0.2256218
v -0.6329055 0.3786207 -0.2525193
v -0.661731 0.6687223 -0.2521101
v -0.6972952 0.933184 -0.2521101
v -0.6744933 1.271959 -0.2521101
v -0.5683857 1.636485 -0.2521101
v -0.4144264 1.854036 -0.2521101
v -0.241351 1.966777 -0.2521101
v 0 2.015686 -0.2521101
v -0.2085254 1.792088 -0.3015916
v 0 1.8359 -0.302147
v -0.1776074 1.64351 -0.2428846
v -0.3130923 1.561563 -0.2431093
v -0.1664213 1.560901 -0.1677927
v -0.2942615 1.4812 -0.1686271
v -0.4351692 1.41578 -0.2434712
v -0.4062772 1.34123 -0.1703324
v -0.5134776 1.167906 -0.2433883
v -0.4598202 1.124881 -0.1717023
v -0.5320324 0.9253711 -0.2432262
v -0.4637264 0.9002962 -0.1724429
v -0.5117019 0.6812483 -0.2435208
v -0.4453202 0.6733413 -0.173319
v -0.4717396 0.43032 -0.2440865
v -0.4086885 0.4347224 -0.1736056
v 0 1.596017 -0.1672319
v 0 1.677639 -0.2427069
v -0.5820371 0.6812428 -0.2749296
v -0.558019 0.4129817 -0.2615663
v -0.6030383 0.9374982 -0.2879148
v -0.5835606 1.216788 -0.293601
v -0.4852185 1.52347 -0.297819
v -0.3837414 0.4234907 -0.01421115
v -0.419888 0.6618432 -0.01421113
v -0.4401017 0.8861983 -0.01421113
v -0.4418665 1.10318 -0.01421113
v -0.3947308 1.313124 -0.01421113
v -0.2867666 1.449881 -0.01421113
v -0.162317 1.527385 -0.01421113
v 0 1.561311 -0.01421113
v -0.3483096 1.694421 -0.3003908
v -0.5511115 0.1562316 -0.3016935
v -0.4827954 0.2012929 -0.2596461
v -0.4081668 0.1253034 -0.2481994
v -0.3650794 0.1499669 -0.1785328
v -0.1889593 0.1395855 -0.1525597
v -0.3197086 0.1597338 -0.08372241
v -0.1676879 0.1375081 -0.07657777
v 0 0.1398061 -0.1527639
v 0 0.139364 -0.07857809
v -0.3761462 0.2426447 -0.1137206
v -0.430754 0.2328309 -0.2140953
v -0.2095533 0.1228698 -0.2319996
v 0 0.1213516 -0.2320187
v 0 0.1310535 -0.01421115
v -0.1623169 0.1310535 -0.01421118
v -0.3079645 0.1496481 -0.01421113
v -0.3613509 0.2349606 -0.01421113
v -0.4834046 0.09256858 -0.3128788
v -0.6596754 0.09826294 -0.3566925
v -0.5946975 0.04722466 -0.4435295
v -0.7640415 0.00044838 -0.3732817
v -0.643972 0.00841103 -0.518856
v -0.2931441 0.04035446 -0.4842976
v -0.3091821 0.00780952 -0.5943105
v 0 0.03734833 -0.4884669
v 0 0.00671051 -0.5916418
v 0 0.08595978 -0.3168595
v -0.2388043 0.08605461 -0.3032666
v 0.3091821 0.00780952 -0.5943105
v 0.2931441 0.04035446 -0.4842976
v 0.643972 0.00841103 -0.518856
v 0.5946975 0.04722466 -0.4435295
v 0.7640415 0.00044838 -0.3732817
v 0.6596754 0.09826294 -0.3566925
v 0.2388043 0.08605461 -0.3032666
v 0.4834046 0.09256858 -0.3128788
v 0.5511115 0.1562316 -0.3016935
v 0.4081668 0.1253034 -0.2481994
v 0.4827954 0.2012929 -0.2596461
v 0.3650794 0.1499669 -0.1785328
v 0.1889593 0.1395855 -0.1525597
v 0.3197086 0.1597338 -0.08372241
v 0.1676879 0.1375081 -0.07657777
v 0.3761462 0.2426447 -0.1137206
v 0.430754 0.2328309 -0.2140953
v 0.2095533 0.1228698 -0.2319996
v 0.1623169 0.1310535 -0.01421118
v 0.3079645 0.1496481 -0.01421113
v 0.3613509 0.2349606 -0.01421113
v 0.3837414 0.4234907 -0.01421115
v 0.4086885 0.4347224 -0.1736056
v 0.4453202 0.6733413 -0.173319
v 0.4717396 0.43032 -0.2440865
v 0.5117019 0.6812483 -0.2435208
v 0.4637264 0.9002962 -0.1724429
v 0.5320324 0.9253711 -0.2432262
v 0.4598202 1.124881 -0.1717023
v 0.5134776 1.167906 -0.2433883
v 0.4062772 1.34123 -0.1703324
v 0.4351692 1.41578 -0.2434712
v 0.2942615 1.4812 -0.1686271
v 0.3130923 1.561563 -0.2431093
v 0.1664213 1.560901 -0.1677927
v 0.1776074 1.64351 -0.2428846
v 0 1.596017 -0.1672319
v 0 1.677639 -0.2427069
v 0.5820371 0.6812428 -0.2749296
v 0.558019 0.4129817 -0.2615663
v 0.6030383 0.9374982 -0.2879148
v 0.5835606 1.216788 -0.293601
v 0.4852185 1.52347 -0.297819
v 0.3483096 1.694421 -0.3003908
v 0.2085254 1.792088 -0.3015916
v 0 1.8359 -0.302147
v 0.3947308 1.313124 -0.01421113
v 0.4418665 1.10318 -0.01421113
v 0.4401017 0.8861983 -0.01421113
v 0.419888 0.6618432 -0.01421113
v 0 2.015686 -0.2521101
v 0.241351 1.966777 -0.2521101
v 0 2.17374 -0.1430677
v 0.3154342 2.101814 -0.1430677
v 0 2.201033 -0.01520567
v 0.343998 2.13357 -0.01520567
v 0.5318404 1.986304 -0.1430677
v 0.5841129 2.005287 -0.01520567
v 0.7343044 1.747592 -0.1430677
v 0.8327968 1.74333 -0.01520567
v 0.8522952 1.302428 -0.1430677
v 0.9488534 1.305098 -0.03166821
v 0.8644609 0.9157785 -0.1430677
v 0.9593697 0.9016972 -0.0645933
v 0.8062281 0.6263919 -0.1983771
v 0.9139967 0.5552135 -0.1386828
v 0.7293145 0.3236445 -0.2467619
v 0.8374853 0.2331543 -0.2256218
v 0.6329055 0.3786207 -0.2525193
v 0.661731 0.6687223 -0.2521101
v 0.6972952 0.933184 -0.2521101
v 0.6744933 1.271959 -0.2521101
v 0.5683857 1.636485 -0.2521101
v 0.4144264 1.854036 -0.2521101
v 0.2867666 1.449881 -0.01421113
v 0.162317 1.527385 -0.01421113
v 0 1.561311 -0.01421113
vt -0.9454448 0.106156
vt -1.000357 0.06628507
vt -1.000412 0
vt -0.9564266 0
vt -0.883826 0.110611
vt -0.8830581 0
vt -0.787479 0.1295604
vt -0.7647281 0
vt -0.6434524 0.1542866
vt -0.6298447 0
vt -0.4941276 0.1499386
vt -0.4782968 0
vt -0.3772088 0.1846045
vt -0.3492544 0
vt -0.2554651 0.1956267
vt -0.2305563 0
vt -0.2706683 0.3423812
vt -0.3969837 0.3831036
vt -0.5165497 0.3674791
vt -0.6558812 0.3606997
vt -0.7938482 0.3196011
vt -0.8810365 0.2702501
vt -0.9432158 0.2407051
vt -1.00025 0.1950521
vt -0.9333344 0.4328446
vt -1.000089 0.3891917
vt -0.9314189 0.6426451
vt -0.8624653 0.6538329
vt -0.9318504 0.7943207
vt -0.8609104 0.7961471
vt -0.7743896 0.6555931
vt -0.7690898 0.7898244
vt -0.654425 0.6532362
vt -0.6525292 0.7903459
vt -0.5321528 0.6367946
vt -0.5291396 0.7858875
vt -0.40722 0.6257743
vt -0.4042088 0.7763789
vt -0.281727 0.6115509
vt -0.2756079 0.766811
vt -0.999759 0.7871268
vt -0.9998958 0.6223148
vt -0.4056419 0.5007056
vt -0.2807854 0.4614404
vt -0.5283511 0.5042678
vt -0.6546555 0.5074569
vt -0.784727 0.4949
vt -0.2608055 1
vt -0.4016626 1
vt -0.5350216 1
vt -0.663946 1
vt -0.7888923 1
vt -0.8801625 1
vt -0.9461402 1
vt -0.999588 1
vt -0.870808 0.4677107
vt -0.1718091 0.3265148
vt -0.1789135 0.4761323
vt -0.1319667 0.5002561
vt -0.1276389 0.6547728
vt -0.06264073 0.7579204
vt -0.1157845 0.8547261
vt -0.0564574 0.8879433
vt 0 0.7644676
vt 0 0.8893757
vt -0.1683891 0.8116752
vt -0.181007 0.6098341
vt -0.06665719 0.6158843
vt 0 0.6218789
vt 0 1
vt -0.0544492 1
vt -0.1099845 1
vt -0.1548628 1
vt -0.137529 0.3446815
vt -0.1578062 0.1568487
vt -0.1185785 0.123535
vt -0.1387993 0
vt -0.102722 0
vt -0.06079036 0.1764157
vt -0.05166799 0
vt 0 0.1624035
vt 0 0
vt 0 0.4563342
vt -0.06902605 0.4692297
vt 0.05166793 0
vt 0.0607903 0.1764157
vt 0.1027222 0
vt 0.1185784 0.123535
vt 0.1387994 0
vt 0.1578062 0.1568487
vt 0.06902599 0.4692297
vt 0.1375289 0.3446815
vt 0.1718092 0.3265148
vt 0.1319666 0.5002561
vt 0.1789136 0.4761323
vt 0.1276391 0.6547728
vt 0.06264067 0.7579204
vt 0.1157846 0.8547261
vt 0.05645752 0.8879433
vt 0.1683891 0.8116752
vt 0.1810071 0.6098341
vt 0.0666573 0.6158843
vt 0.05444932 1
vt 0.1099846 1
vt 0.1548626 1
vt 0.2608056 1
vt 0.2756078 0.766811
vt 0.4042089 0.7763789
vt 0.2817268 0.6115509
vt 0.4072201 0.6257743
vt 0.5291398 0.7858875
vt 0.5321529 0.6367946
vt 0.6525292 0.7903459
vt 0.6544249 0.6532362
vt 0.7690897 0.7898244
vt 0.7743895 0.6555931
vt 0.8609104 0.7961471
vt 0.8624654 0.6538329
vt 0.9318504 0.7943207
vt 0.9314191 0.6426451
vt 0.999759 0.7871268
vt 0.9998958 0.6223148
vt 0.4056418 0.5007056
vt 0.2807856 0.4614404
vt 0.5283513 0.5042678
vt 0.6546557 0.5074569
vt 0.7847273 0.4949
vt 0.8708081 0.4677107
vt 0.9333346 0.4328446
vt 1.000089 0.3891917
vt 0.7888923 1
vt 0.6639459 1
vt 0.5350215 1
vt 0.4016626 1
vt 1.00025 0.1950521
vt 0.9432158 0.2407051
vt 1.000357 0.06628507
vt 0.9454448 0.106156
vt 1.000412 0
vt 0.9564269 0
vt 0.8838263 0.110611
vt 0.8830581 0
vt 0.7874794 0.1295604
vt 0.7647281 0
vt 0.6434524 0.1542866
vt 0.6298447 0
vt 0.4941275 0.1499386
vt 0.4782968 0
vt 0.3772087 0.1846045
vt 0.3492544 0
vt 0.2554653 0.1956267
vt 0.2305562 0
vt 0.2706683 0.3423812
vt 0.3969839 0.3831036
vt 0.5165496 0.3674791
vt 0.6558814 0.3606997
vt 0.793848 0.3196011
vt 0.8810368 0.2702501
vt 0.8801625 1
vt 0.9461403 1
vt 0.999588 1
vn -0.3560015 0.8657984 -0.3516475
vn -0.2192833 0.9168068 -0.3337368
vn -0.2367955 0.9701807 -0.0517428
vn -0.392334 0.9177133 -0.06225987
vn -0.6049754 0.7062955 -0.3676294
vn -0.6783139 0.7291651 -0.09060137
vn -0.788492 0.4474258 -0.422008
vn -0.8854566 0.3824211 -0.2640473
vn -0.8252386 0.1476606 -0.5451399
vn -0.8886939 0.1661619 -0.427333
vn -0.757573 0.03831877 -0.6516248
vn -0.7919274 0.06252745 -0.6074055
vn -0.5914649 0.02301 -0.8060023
vn -0.6071169 0.05798934 -0.7924938
vn -0.3289666 0.198867 -0.9231647
vn -0.4874075 0.2545023 -0.8352619
vn -0.1184439 0.1098732 -0.9868631
vn -0.4399341 -0.03844905 -0.8972066
vn -0.5909473 -0.008014954 -0.8066703
vn -0.6085188 0.09700549 -0.7875879
vn -0.5186149 0.2573645 -0.815354
vn -0.3793472 0.4225281 -0.8231438
vn -0.211644 0.529218 -0.8216661
vn -0.1262939 0.5604832 -0.8184794
vn -0.01306006 0.0005307952 -0.9999146
vn -0.00343078 0.009119567 -0.9999526
vn 0.1933016 -0.4890146 -0.8505876
vn 0.3738588 -0.4281763 -0.822736
vn 0.3289379 -0.8102294 -0.4851063
vn 0.5996715 -0.6603946 -0.4519655
vn 0.5525771 -0.2995856 -0.7777578
vn 0.8253675 -0.3899859 -0.4082638
vn 0.6567205 -0.1227398 -0.7440786
vn 0.9125333 -0.1211154 -0.3906585
vn 0.6429462 -0.0001952169 -0.7659113
vn 0.9147339 0.03240328 -0.4027554
vn 0.5974307 0.05922609 -0.7997304
vn 0.9083266 0.1099091 -0.4035626
vn 0.6219785 0.06386774 -0.7804254
vn 0.9187849 0.1091664 -0.3793639
vn 0.1769876 -0.8521205 -0.4925099
vn 0.1025914 -0.5078561 -0.8553111
vn 0.05588638 -0.02113667 -0.9982134
vn 0.149888 0.03832372 -0.98796
vn 0.03735346 -0.02395877 -0.9990149
vn 0.01407027 -0.03456099 -0.9993036
vn -0.02582074 -0.03729014 -0.9989709
vn 0.9807081 0.1332459 -0.1430287
vn 0.9822034 0.1195817 -0.1448334
vn 0.9893206 0.04371013 -0.1390474
vn 0.9859332 -0.1049909 -0.1300478
vn 0.9006109 -0.4089323 -0.1472216
vn 0.6658823 -0.7237615 -0.1810248
vn 0.373174 -0.9042397 -0.2075854
vn 0.2010686 -0.9556183 -0.2153253
vn -0.01044622 -0.02600094 -0.9996074
vn 0.2366168 0.4736832 -0.848314
vn 0.4492101 0.2616146 -0.8542646
vn 0.3243075 0.7232972 -0.609644
vn 0.4732237 0.7709886 -0.4261875
vn 0.04714182 0.9885893 -0.1430694
vn 0.5183873 0.8471827 -0.1164309
vn 0.05375954 0.997501 0.04584591
vn -0.001382271 0.9950796 -0.09906892
vn -0.005307857 0.9977798 0.06638849
vn 0.9100854 0.2753116 -0.3097547
vn 0.7160251 0.2022625 -0.6681302
vn 0.02708937 0.9365842 -0.349394
vn -0.003079568 0.9484609 -0.3168792
vn -0.00488326 0.993246 0.1159242
vn 0.05845921 0.9920092 0.1118049
vn 0.4703288 0.8818316 0.03411455
vn 0.9274017 0.3580936 -0.1081443
vn 0.1931451 0.8168445 -0.5435624
vn -0.2262263 0.6047516 -0.763608
vn -0.1335183 0.8830184 -0.449946
vn -0.4956911 0.5784925 -0.6477938
vn -0.2929952 0.850058 -0.4376702
vn -0.01198763 0.9556646 -0.2942134
vn -0.0263094 0.9484577 -0.31581
vn 0.001737656 0.9624795 -0.2713487
vn 0.006600172 0.9587027 -0.2843333
vn -0.006218756 0.9419124 -0.3358009
vn 0.01377735 0.9316967 -0.3629758
vn 0.0263094 0.9484577 -0.31581
vn 0.01198763 0.9556646 -0.2942134
vn 0.2929952 0.850058 -0.4376702
vn 0.1335183 0.8830184 -0.449946
vn 0.4956911 0.5784925 -0.6477938
vn 0.2262263 0.6047516 -0.763608
vn -0.01377735 0.9316967 -0.3629758
vn -0.1931451 0.8168445 -0.5435624
vn -0.2366168 0.4736832 -0.848314
vn -0.3243075 0.7232972 -0.609644
vn -0.4492101 0.2616146 -0.8542646
vn -0.4732237 0.7709886 -0.4261875
vn -0.04714182 0.9885893 -0.1430694
vn -0.5183873 0.8471827 -0.1164309
vn -0.05375954 0.997501 0.04584591
vn -0.9100854 0.2753116 -0.3097547
vn -0.7160251 0.2022625 -0.6681302
vn -0.02708937 0.9365842 -0.349394
vn -0.05845921 0.9920092 0.1118049
vn -0.4703288 0.8818316 0.03411455
vn -0.9274017 0.3580936 -0.1081443
vn -0.9807081 0.1332459 -0.1430287
vn -0.9187849 0.1091664 -0.3793639
vn -0.9083266 0.1099091 -0.4035626
vn -0.6219785 0.06386774 -0.7804254
vn -0.5974307 0.05922609 -0.7997304
vn -0.9147339 0.03240328 -0.4027554
vn -0.6429462 -0.0001952169 -0.7659113
vn -0.9125333 -0.1211154 -0.3906585
vn -0.6567205 -0.1227398 -0.7440786
vn -0.8253675 -0.3899859 -0.4082638
vn -0.5525771 -0.2995856 -0.7777578
vn -0.5996715 -0.6603946 -0.4519655
vn -0.3738588 -0.4281763 -0.822736
vn -0.3289379 -0.8102294 -0.4851063
vn -0.1933016 -0.4890146 -0.8505876
vn -0.1769876 -0.8521205 -0.4925099
vn -0.1025914 -0.5078561 -0.8553111
vn -0.05588638 -0.02113667 -0.9982134
vn -0.149888 0.03832372 -0.98796
vn -0.03735346 -0.02395877 -0.9990149
vn -0.01407027 -0.03456099 -0.9993036
vn 0.02582074 -0.03729014 -0.9989709
vn 0.01044622 -0.02600094 -0.9996074
vn 0.01306006 0.0005307952 -0.9999146
vn 0.00343078 0.009119567 -0.9999526
vn -0.9006109 -0.4089323 -0.1472216
vn -0.9859332 -0.1049909 -0.1300478
vn -0.9893206 0.04371013 -0.1390474
vn -0.9822034 0.1195817 -0.1448334
vn 0.1262939 0.5604832 -0.8184794
vn 0.211644 0.529218 -0.8216661
vn 0.2192833 0.9168068 -0.3337368
vn 0.3560015 0.8657984 -0.3516475
vn 0.2367955 0.9701807 -0.0517428
vn 0.392334 0.9177133 -0.06225987
vn 0.6049754 0.7062955 -0.3676294
vn 0.6783139 0.7291651 -0.09060137
vn 0.788492 0.4474258 -0.422008
vn 0.8854566 0.3824211 -0.2640473
vn 0.8252386 0.1476606 -0.5451399
vn 0.8886939 0.1661619 -0.427333
vn 0.757573 0.03831877 -0.6516248
vn 0.7919274 0.06252745 -0.6074055
vn 0.5914649 0.02301 -0.8060023
vn 0.6071169 0.05798934 -0.7924938
vn 0.3289666 0.198867 -0.9231647
vn 0.4874075 0.2545023 -0.8352619
vn 0.1184439 0.1098732 -0.9868631
vn 0.4399341 -0.03844905 -0.8972066
vn 0.5909473 -0.008014954 -0.8066703
vn 0.6085188 0.09700549 -0.7875879
vn 0.5186149 0.2573645 -0.815354
vn 0.3793472 0.4225281 -0.8231438
vn -0.6658823 -0.7237615 -0.1810248
vn -0.373174 -0.9042397 -0.2075854
vn -0.2010686 -0.9556183 -0.2153253
g ms_pfx_Teleport_1_0
f 3/3/3 2/2/2 1/1/1
f 4/4/4 3/3/3 1/1/1
f 4/4/4 1/1/1 5/5/5
f 6/6/6 4/4/4 5/5/5
f 6/6/6 5/5/5 7/7/7
f 8/8/8 6/6/6 7/7/7
f 8/8/8 7/7/7 9/9/9
f 10/10/10 8/8/8 9/9/9
f 10/10/10 9/9/9 11/11/11
f 12/12/12 10/10/10 11/11/11
f 12/12/12 11/11/11 13/13/13
f 14/14/14 12/12/12 13/13/13
f 14/14/14 13/13/13 15/15/15
f 16/16/16 14/14/14 15/15/15
f 15/15/15 13/13/13 17/17/17
f 13/13/13 18/18/18 17/17/17
f 13/13/13 11/11/11 18/18/18
f 11/11/11 19/19/19 18/18/18
f 11/11/11 9/9/9 19/19/19
f 9/9/9 20/20/20 19/19/19
f 9/9/9 7/7/7 20/20/20
f 7/7/7 21/21/21 20/20/20
f 7/7/7 5/5/5 21/21/21
f 5/5/5 22/22/22 21/21/21
f 5/5/5 1/1/1 22/22/22
f 1/1/1 23/23/23 22/22/22
f 1/1/1 2/2/2 23/23/23
f 2/2/2 24/24/24 23/23/23
f 23/23/23 24/24/24 25/25/25
f 24/24/24 26/26/26 25/25/25
f 25/25/25 26/26/26 27/27/27
f 25/25/25 27/27/27 28/28/28
f 27/27/27 29/29/29 28/28/28
f 29/29/29 30/30/30 28/28/28
f 28/28/28 30/30/30 31/31/31
f 30/30/30 32/32/32 31/31/31
f 31/31/31 32/32/32 33/33/33
f 32/32/32 34/34/34 33/33/33
f 33/33/33 34/34/34 35/35/35
f 34/34/34 36/36/36 35/35/35
f 35/35/35 36/36/36 37/37/37
f 36/36/36 38/38/38 37/37/37
f 37/37/37 38/38/38 39/39/39
f 38/38/38 40/40/40 39/39/39
f 41/41/41 29/29/29 27/27/27
f 42/42/42 41/41/41 27/27/27
f 43/43/43 37/37/37 39/39/39
f 44/44/44 43/43/43 39/39/39
f 45/45/45 35/35/35 37/37/37
f 43/43/43 45/45/45 37/37/37
f 46/46/46 33/33/33 35/35/35
f 45/45/45 46/46/46 35/35/35
f 47/47/47 31/31/31 33/33/33
f 46/46/46 47/47/47 33/33/33
f 40/40/40 38/38/38 48/48/48
f 38/38/38 49/49/49 48/48/48
f 38/38/38 36/36/36 49/49/49
f 36/36/36 50/50/50 49/49/49
f 36/36/36 34/34/34 50/50/50
f 34/34/34 51/51/51 50/50/50
f 34/34/34 32/32/32 51/51/51
f 32/32/32 52/52/52 51/51/51
f 32/32/32 30/30/30 52/52/52
f 30/30/30 53/53/53 52/52/52
f 30/30/30 29/29/29 53/53/53
f 29/29/29 54/54/54 53/53/53
f 29/29/29 41/41/41 54/54/54
f 41/41/41 55/55/55 54/54/54
f 21/21/21 47/47/47 46/46/46
f 21/21/21 22/22/22 47/47/47
f 22/22/22 56/56/56 47/47/47
f 22/22/22 23/23/23 56/56/56
f 23/23/23 25/25/25 56/56/56
f 56/56/56 25/25/25 28/28/28
f 56/56/56 28/28/28 31/31/31
f 47/47/47 56/56/56 31/31/31
f 20/20/20 21/21/21 46/46/46
f 20/20/20 46/46/46 45/45/45
f 19/19/19 20/20/20 45/45/45
f 19/19/19 45/45/45 43/43/43
f 18/18/18 19/19/19 43/43/43
f 18/18/18 43/43/43 44/44/44
f 17/17/17 18/18/18 44/44/44
f 17/17/17 44/44/44 57/57/57
f 44/44/44 58/58/58 57/57/57
f 57/57/57 58/58/58 59/59/59
f 59/59/59 58/58/58 60/60/60
f 59/59/59 60/60/60 61/61/61
f 60/60/60 62/62/62 61/61/61
f 62/62/62 63/63/63 61/61/61
f 61/61/61 63/63/63 64/64/64
f 63/63/63 65/65/65 64/64/64
f 66/66/66 62/62/62 60/60/60
f 67/67/67 66/66/66 60/60/60
f 58/58/58 67/67/67 60/60/60
f 68/68/68 61/61/61 64/64/64
f 68/68/68 59/59/59 61/61/61
f 69/69/69 68/68/68 64/64/64
f 65/65/65 63/63/63 70/70/70
f 63/63/63 71/71/71 70/70/70
f 63/63/63 62/62/62 71/71/71
f 62/62/62 72/72/72 71/71/71
f 62/62/62 66/66/66 72/72/72
f 66/66/66 73/73/73 72/72/72
f 74/74/74 59/59/59 68/68/68
f 74/74/74 57/57/57 59/59/59
f 75/75/75 57/57/57 74/74/74
f 76/76/76 75/75/75 74/74/74
f 77/77/77 75/75/75 76/76/76
f 78/78/78 77/77/77 76/76/76
f 78/78/78 76/76/76 79/79/79
f 80/80/80 78/78/78 79/79/79
f 80/80/80 79/79/79 81/81/81
f 82/82/82 80/80/80 81/81/81
f 81/81/81 79/79/79 83/83/83
f 79/79/79 84/84/84 83/83/83
f 76/76/76 74/74/74 84/84/84
f 79/79/79 76/76/76 84/84/84
f 84/84/84 74/74/74 68/68/68
f 84/84/84 68/68/68 69/69/69
f 83/83/83 84/84/84 69/69/69
f 17/17/17 57/57/57 75/75/75
f 15/15/15 17/17/17 75/75/75
f 15/15/15 75/75/75 77/77/77
f 16/16/16 15/15/15 77/77/77
f 85/85/85 82/82/82 81/81/81
f 86/86/86 85/85/85 81/81/81
f 86/86/86 81/81/81 83/83/83
f 87/87/87 85/85/85 86/86/86
f 88/88/88 87/87/87 86/86/86
f 89/89/89 87/87/87 88/88/88
f 90/90/90 89/89/89 88/88/88
f 91/91/91 86/86/86 83/83/83
f 88/88/88 86/86/86 91/91/91
f 91/91/91 83/83/83 69/69/69
f 92/92/92 88/88/88 91/91/91
f 90/90/90 88/88/88 92/92/92
f 93/93/93 90/90/90 92/92/92
f 93/93/93 92/92/92 94/94/94
f 95/95/95 93/93/93 94/94/94
f 95/95/95 94/94/94 96/96/96
f 96/96/96 94/94/94 97/97/97
f 98/98/98 96/96/96 97/97/97
f 99/99/99 98/98/98 97/97/97
f 99/99/99 97/97/97 64/64/64
f 65/65/65 99/99/99 64/64/64
f 98/98/98 100/100/100 96/96/96
f 100/100/100 101/101/101 96/96/96
f 101/101/101 95/95/95 96/96/96
f 97/97/97 102/102/102 64/64/64
f 94/94/94 102/102/102 97/97/97
f 92/92/92 91/91/91 102/102/102
f 94/94/94 92/92/92 102/102/102
f 102/102/102 69/69/69 64/64/64
f 102/102/102 91/91/91 69/69/69
f 99/99/99 65/65/65 70/70/70
f 103/103/103 99/99/99 70/70/70
f 98/98/98 99/99/99 103/103/103
f 104/104/104 98/98/98 103/103/103
f 100/100/100 98/98/98 104/104/104
f 105/105/105 100/100/100 104/104/104
f 105/105/105 106/106/106 100/100/100
f 106/106/106 107/107/107 100/100/100
f 100/100/100 107/107/107 101/101/101
f 108/108/108 107/107/107 106/106/106
f 107/107/107 108/108/108 109/109/109
f 107/107/107 109/109/109 101/101/101
f 108/108/108 110/110/110 109/109/109
f 108/108/108 111/111/111 110/110/110
f 111/111/111 112/112/112 110/110/110
f 111/111/111 113/113/113 112/112/112
f 113/113/113 114/114/114 112/112/112
f 113/113/113 115/115/115 114/114/114
f 115/115/115 116/116/116 114/114/114
f 115/115/115 117/117/117 116/116/116
f 117/117/117 118/118/118 116/116/116
f 117/117/117 119/119/119 118/118/118
f 119/119/119 120/120/120 118/118/118
f 119/119/119 121/121/121 120/120/120
f 121/121/121 122/122/122 120/120/120
f 110/110/110 123/123/123 109/109/109
f 123/123/123 124/124/124 109/109/109
f 125/125/125 123/123/123 110/110/110
f 112/112/112 125/125/125 110/110/110
f 126/126/126 125/125/125 112/112/112
f 114/114/114 126/126/126 112/112/112
f 127/127/127 126/126/126 114/114/114
f 116/116/116 127/127/127 114/114/114
f 128/128/128 127/127/127 116/116/116
f 118/118/118 128/128/128 116/116/116
f 129/129/129 128/128/128 118/118/118
f 120/120/120 129/129/129 118/118/118
f 130/130/130 129/129/129 120/120/120
f 122/122/122 130/130/130 120/120/120
f 117/117/117 115/115/115 131/131/131
f 131/131/131 115/115/115 132/132/132
f 115/115/115 113/113/113 132/132/132
f 132/132/132 113/113/113 133/133/133
f 113/113/113 111/111/111 133/133/133
f 133/133/133 111/111/111 134/134/134
f 111/111/111 108/108/108 134/134/134
f 134/134/134 108/108/108 106/106/106
f 130/130/130 135/135/135 129/129/129
f 135/135/135 136/136/136 129/129/129
f 129/129/129 136/136/136 128/128/128
f 135/135/135 137/137/137 136/136/136
f 137/137/137 138/138/138 136/136/136
f 137/137/137 139/139/139 138/138/138
f 139/139/139 140/140/140 138/138/138
f 138/138/138 140/140/140 141/141/141
f 140/140/140 142/142/142 141/141/141
f 141/141/141 142/142/142 143/143/143
f 142/142/142 144/144/144 143/143/143
f 143/143/143 144/144/144 145/145/145
f 144/144/144 146/146/146 145/145/145
f 145/145/145 146/146/146 147/147/147
f 146/146/146 148/148/148 147/147/147
f 147/147/147 148/148/148 149/149/149
f 148/148/148 150/150/150 149/149/149
f 149/149/149 150/150/150 151/151/151
f 150/150/150 152/152/152 151/151/151
f 149/149/149 151/151/151 153/153/153
f 154/154/154 149/149/149 153/153/153
f 147/147/147 149/149/149 154/154/154
f 155/155/155 147/147/147 154/154/154
f 145/145/145 147/147/147 155/155/155
f 156/156/156 145/145/145 155/155/155
f 143/143/143 145/145/145 156/156/156
f 157/157/157 143/143/143 156/156/156
f 141/141/141 143/143/143 157/157/157
f 158/158/158 141/141/141 157/157/157
f 138/138/138 141/141/141 158/158/158
f 136/136/136 138/138/138 158/158/158
f 136/136/136 158/158/158 128/128/128
f 158/158/158 157/157/157 127/127/127
f 128/128/128 158/158/158 127/127/127
f 157/157/157 156/156/156 126/126/126
f 127/127/127 157/157/157 126/126/126
f 156/156/156 155/155/155 125/125/125
f 126/126/126 156/156/156 125/125/125
f 155/155/155 154/154/154 123/123/123
f 125/125/125 155/155/155 123/123/123
f 154/154/154 153/153/153 124/124/124
f 123/123/123 154/154/154 124/124/124
f 124/124/124 153/153/153 93/93/93
f 95/95/95 124/124/124 93/93/93
f 109/109/109 124/124/124 95/95/95
f 101/101/101 109/109/109 95/95/95
f 93/93/93 153/153/153 90/90/90
f 153/153/153 151/151/151 90/90/90
f 90/90/90 151/151/151 89/89/89
f 151/151/151 152/152/152 89/89/89
f 26/26/26 42/42/42 27/27/27
f 48/48/48 73/73/73 66/66/66
f 40/40/40 48/48/48 66/66/66
f 40/40/40 66/66/66 67/67/67
f 39/39/39 40/40/40 67/67/67
f 39/39/39 67/67/67 58/58/58
f 44/44/44 39/39/39 58/58/58
f 159/159/159 117/117/117 131/131/131
f 119/119/119 117/117/117 159/159/159
f 160/160/160 119/119/119 159/159/159
f 121/121/121 119/119/119 160/160/160
f 161/161/161 121/121/121 160/160/160
