g Oven_Wide
v 0 1.25 -0.05
v 0 2 -0.05
v 0 2 0
v 0 1.25 0
v 0 1.25 -1
v 0 2 -1
v 0 0.25 -1
v 0 0.25 -0.05
v 0 0 -1
v 0 0 -0.05
v 0 0 0
v 0 0.25 0
v 1.4 2 -0.05
v 1.5 2 -0.05
v 1.5 2 0
v 1.4 2 0
v 1.4 2 -1
v 1.5 2 -1
v 0.09999999 2 -1
v 0.09999999 2 -0.05
v 0 2 -1
v 0 2 -0.05
v 0.09999999 2 0
v 0 2 0
v 1.5 2 -0.05
v 1.5 1.25 -0.05
v 1.5 1.25 0
v 1.5 2 0
v 1.5 2 -1
v 1.5 1.25 -1
v 1.5 0.25 -0.05
v 1.5 0.25 -1
v 1.5 0 -0.05
v 1.5 0 0
v 1.5 0.25 0
v 1.5 0 -1
v 1.4 1.25 0
v 1.4 2 0
v 1.5 2 0
v 1.5 1.25 0
v 0.09999999 1.25 0
v 0.09999999 2 0
v 0 1.25 0
v 0 2 0
v 1.5 1.25 -1
v 1.5 2 -1
v 1.4 2 -1
v 1.4 1.25 -1
v 1.5 0.25 -1
v 1.4 0.25 -1
v 1.5 0 -1
v 1.4 0 -1
v 0.09999999 0 -1
v 0.09999999 0.25 -1
v 0 0 -1
v 0 0.25 -1
v 0.09999999 1.25 -1
v 0 1.25 -1
v 0.09999999 2 -1
v 0 2 -1
v 1.4 0 0
v 1.4 0.25 0
v 1.5 0.25 0
v 1.5 0 0
v 0.09999999 0 0
v 0.09999999 0.25 0
v 0 0 0
v 0 0.25 0
v 1.5 1.25 -0.05
v 1.4 1.25 -0.05
v 1.4 1.25 0
v 1.5 1.25 0
v 0.09999999 1.25 0
v 0.09999999 1.25 -0.05
v 0 1.25 0
v 0 1.25 -0.05
v 1.5 0.25 -0.05
v 1.4 0.25 -0.05
v 1.4 1.25 -0.05
v 1.5 1.25 -0.05
v 1.5 0.25 0
v 1.4 0.25 0
v 1.4 0.25 -0.05
v 1.5 0.25 -0.05
v 0.09999999 0.25 -0.05
v 0.09999999 0.25 0
v 0 0.25 -0.05
v 0 0.25 0
v 0.09999999 0.25 -0.05
v 0 0.25 -0.05
v 0 1.25 -0.05
v 0.09999999 1.25 -0.05
v 1.4 0.25 -0.9
v 0.09999999 0.25 -0.9
v 0.09999999 1.25 -0.9
v 1.4 1.25 -0.9
v 1.4 0.25 -0.05
v 1.4 0.25 -0.9
v 1.4 1.25 -0.9
v 1.4 1.25 -0.05
v 1.4 1.25 -0.05
v 1.4 1.25 -0.9
v 0.09999999 1.25 -0.9
v 0.09999999 1.25 -0.05
v 0.09999999 1.25 -0.05
v 0.09999999 1.25 -0.9
v 0.09999999 0.25 -0.9
v 0.09999999 0.25 -0.05
v 0.09999999 0.25 -0.05
v 0.09999999 0.25 -0.9
v 1.4 0.25 -0.9
v 1.4 0.25 -0.05
vt 0.2323321 0.468859
vt 0.3666782 0.468877
vt 0.3666782 0.4595553
vt 0.2323321 0.4598953
vt 0.232332 0.6390063
vt 0.3666784 0.6390011
vt 0.05320366 0.6390149
vt 0.05320364 0.4688576
vt 0.0084216 0.6390165
vt 0.0084216 0.4688635
vt 0.00842154 0.4599032
vt 0.0532037 0.4598983
vt 0.3755866 0.2097607
vt 0.3755866 0.191944
vt 0.3666782 0.1915818
vt 0.3666782 0.2094447
vt 0.5448431 0.2097605
vt 0.5448431 0.191944
vt 0.5448431 0.4413749
vt 0.3755865 0.4413746
vt 0.5448431 0.4591913
vt 0.3755866 0.4591911
vt 0.3666782 0.4416898
vt 0.3666782 0.4595553
vt 0.3666782 0.1822657
vt 0.2323321 0.1822324
vt 0.2323321 0.1911904
vt 0.3666782 0.1915818
vt 0.3666782 0.01210117
vt 0.232332 0.01207252
vt 0.0532037 0.1822398
vt 0.0532037 0.01209108
vt 0.008421481 0.1822373
vt 0.008421481 0.1911948
vt 0.0532037 0.1911964
vt 0.008421481 0.0120994
vt 0.2323319 0.2091034
vt 0.3666782 0.2094447
vt 0.3666782 0.1915818
vt 0.2323321 0.1911904
vt 0.2323321 0.4419814
vt 0.3666782 0.4416898
vt 0.2323321 0.4598953
vt 0.3666782 0.4595553
vt 0.2323321 0.9077135
vt 0.3666783 0.9077173
vt 0.3666783 0.8898051
vt 0.2323321 0.889802
vt 0.05320365 0.9077373
vt 0.05320366 0.8898239
vt 0.008421543 0.9077327
vt 0.008421543 0.8898239
vt 0.00842154 0.6569255
vt 0.05320366 0.6569281
vt 0.0084216 0.6390165
vt 0.05320366 0.6390149
vt 0.2323321 0.6569193
vt 0.232332 0.6390063
vt 0.3666784 0.656914
vt 0.3666784 0.6390011
vt 0.00842154 0.2091024
vt 0.0532037 0.2091102
vt 0.0532037 0.1911964
vt 0.008421481 0.1911948
vt 0.00842154 0.4419793
vt 0.05320361 0.4419816
vt 0.00842154 0.4599032
vt 0.0532037 0.4598983
vt 0.2160863 0.1911961
vt 0.2160863 0.2091091
vt 0.2323319 0.2091034
vt 0.2323321 0.1911904
vt 0.2323321 0.4419814
vt 0.2160863 0.441976
vt 0.2323321 0.4598953
vt 0.2160863 0.4598888
vt 0.8215132 0.6081743
vt 0.8081659 0.6081744
vt 0.8081658 0.7416457
vt 0.8215132 0.7416457
vt 0.0532037 0.1911964
vt 0.0532037 0.2091102
vt 0.0709337 0.2091129
vt 0.07093376 0.1912001
vt 0.07093364 0.4419797
vt 0.05320361 0.4419816
vt 0.07093364 0.4598926
vt 0.0532037 0.4598983
vt 0.4077508 0.6081743
vt 0.3944051 0.6081743
vt 0.394405 0.7416458
vt 0.4077506 0.7416458
vt 0.6943263 0.6081743
vt 0.5215912 0.6081744
vt 0.521591 0.7416457
vt 0.6943263 0.7416457
vt 0.8081659 0.6081744
vt 0.6943263 0.6081743
vt 0.6943263 0.7416457
vt 0.8081658 0.7416457
vt 0.6939383 0.8540803
vt 0.6943263 0.7416457
vt 0.521591 0.7416457
vt 0.5219793 0.8540803
vt 0.4077506 0.7416458
vt 0.521591 0.7416457
vt 0.5215912 0.6081744
vt 0.4077508 0.6081743
vt 0.5219794 0.4957395
vt 0.5215912 0.6081744
vt 0.6943263 0.6081743
vt 0.6939384 0.4957395
vn -1 0 0
vn -1 0 0
vn -1 0 0
vn -1 0 0
vn -1 0 0
vn -1 0 0
vn -1 0 0
vn -1 0 0
vn -1 0 0
vn -1 0 0
vn -1 0 0
vn -1 0 0
vn 0 1 0
vn 0 1 0
vn 0 1 0
vn 0 1 0
vn 0 1 0
vn 0 1 0
vn 0 1 0
vn 0 1 0
vn 0 1 0
vn 0 1 0
vn 0 1 0
vn 0 1 0
vn 1 0 0
vn 1 0 0
vn 1 0 0
vn 1 0 0
vn 1 0 0
vn 1 0 0
vn 1 0 0
vn 1 0 0
vn 1 0 0
vn 1 0 0
vn 1 0 0
vn 1 0 0
vn 0 0 1
vn 0 0 1
vn 0 0 1
vn 0 0 1
vn 0 0 1
vn 0 0 1
vn 0 0 1
vn 0 0 1
vn 0 0 -1
vn 0 0 -1
vn 0 0 -1
vn 0 0 -1
vn 0 0 -1
vn 0 0 -1
vn 0 0 -1
vn 0 0 -1
vn 0 0 -1
vn 0 0 -1
vn 0 0 -1
vn 0 0 -1
vn 0 0 -1
vn 0 0 -1
vn 0 0 -1
vn 0 0 -1
vn 0 0 1
vn 0 0 1
vn 0 0 1
vn 0 0 1
vn 0 0 1
vn 0 0 1
vn 0 0 1
vn 0 0 1
vn 0 -1 0
vn 0 -1 0
vn 0 -1 0
vn 0 -1 0
vn 0 -1 0
vn 0 -1 0
vn 0 -1 0
vn 0 -1 0
vn 0 0 1
vn 0 0 1
vn 0 0 1
vn 0 0 1
vn 0 1 0
vn 0 1 0
vn 0 1 0
vn 0 1 0
vn 0 1 0
vn 0 1 0
vn 0 1 0
vn 0 1 0
vn 0 0 1
vn 0 0 1
vn 0 0 1
vn 0 0 1
vn 0 0 1
vn 0 0 1
vn 0 0 1
vn 0 0 1
vn -1 0 0
vn -1 0 0
vn -1 0 0
vn -1 0 0
vn 0 -1 0
vn 0 -1 0
vn 0 -1 0
vn 0 -1 0
vn 1 0 0
vn 1 0 0
vn 1 0 0
vn 1 0 0
vn 0 1 0
vn 0 1 0
vn 0 1 0
vn 0 1 0
g Oven_Wide_0
f 3/3/3 2/2/2 1/1/1
f 4/4/4 3/3/3 1/1/1
f 1/1/1 2/2/2 5/5/5
f 2/2/2 6/6/6 5/5/5
f 1/1/1 5/5/5 7/7/7
f 8/8/8 1/1/1 7/7/7
f 8/8/8 7/7/7 9/9/9
f 10/10/10 8/8/8 9/9/9
f 10/10/10 11/11/11 8/8/8
f 11/11/11 12/12/12 8/8/8
f 15/15/15 14/14/14 13/13/13
f 16/16/16 15/15/15 13/13/13
f 13/13/13 14/14/14 17/17/17
f 14/14/14 18/18/18 17/17/17
f 13/13/13 17/17/17 19/19/19
f 20/20/20 13/13/13 19/19/19
f 16/16/16 13/13/13 20/20/20
f 20/20/20 19/19/19 21/21/21
f 22/22/22 20/20/20 21/21/21
f 23/23/23 20/20/20 22/22/22
f 23/23/23 16/16/16 20/20/20
f 24/24/24 23/23/23 22/22/22
f 27/27/27 26/26/26 25/25/25
f 28/28/28 27/27/27 25/25/25
f 25/25/25 26/26/26 29/29/29
f 26/26/26 30/30/30 29/29/29
f 26/26/26 31/31/31 30/30/30
f 31/31/31 32/32/32 30/30/30
f 31/31/31 33/33/33 32/32/32
f 34/34/34 33/33/33 31/31/31
f 35/35/35 34/34/34 31/31/31
f 33/33/33 36/36/36 32/32/32
f 39/39/39 38/38/38 37/37/37
f 40/40/40 39/39/39 37/37/37
f 37/37/37 38/38/38 41/41/41
f 38/38/38 42/42/42 41/41/41
f 41/41/41 42/42/42 43/43/43
f 42/42/42 44/44/44 43/43/43
f 47/47/47 46/46/46 45/45/45
f 48/48/48 47/47/47 45/45/45
f 48/48/48 45/45/45 49/49/49
f 50/50/50 48/48/48 49/49/49
f 50/50/50 49/49/49 51/51/51
f 52/52/52 50/50/50 51/51/51
f 52/52/52 53/53/53 50/50/50
f 53/53/53 54/54/54 50/50/50
f 50/50/50 54/54/54 48/48/48
f 53/53/53 55/55/55 54/54/54
f 55/55/55 56/56/56 54/54/54
f 54/54/54 56/56/56 57/57/57
f 54/54/54 57/57/57 48/48/48
f 48/48/48 57/57/57 47/47/47
f 56/56/56 58/58/58 57/57/57
f 57/57/57 58/58/58 59/59/59
f 57/57/57 59/59/59 47/47/47
f 58/58/58 60/60/60 59/59/59
f 63/63/63 62/62/62 61/61/61
f 64/64/64 63/63/63 61/61/61
f 61/61/61 62/62/62 65/65/65
f 62/62/62 66/66/66 65/65/65
f 65/65/65 66/66/66 67/67/67
f 66/66/66 68/68/68 67/67/67
f 71/71/71 70/70/70 69/69/69
f 72/72/72 71/71/71 69/69/69
f 71/71/71 73/73/73 70/70/70
f 73/73/73 74/74/74 70/70/70
f 73/73/73 75/75/75 74/74/74
f 75/75/75 76/76/76 74/74/74
f 79/79/79 78/78/78 77/77/77
f 80/80/80 79/79/79 77/77/77
f 83/83/83 82/82/82 81/81/81
f 84/84/84 83/83/83 81/81/81
f 83/83/83 85/85/85 82/82/82
f 85/85/85 86/86/86 82/82/82
f 85/85/85 87/87/87 86/86/86
f 87/87/87 88/88/88 86/86/86
f 91/91/91 90/90/90 89/89/89
f 92/92/92 91/91/91 89/89/89
f 95/95/95 94/94/94 93/93/93
f 96/96/96 95/95/95 93/93/93
f 99/99/99 98/98/98 97/97/97
f 100/100/100 99/99/99 97/97/97
f 103/103/103 102/102/102 101/101/101
f 104/104/104 103/103/103 101/101/101
f 107/107/107 106/106/106 105/105/105
f 108/108/108 107/107/107 105/105/105
f 111/111/111 110/110/110 109/109/109
f 112/112/112 111/111/111 109/109/109
