g pCube4
v -0.02333331 0.07975702 0.02290469
v -0.02333331 0.1046843 0.001405188
v 0.0233333 0.1046843 0.001405188
v 0.0233333 0.07975702 0.02290469
v -0.03141467 0.1131565 -0.002238981
v -0.03141467 0.1131565 -0.03108572
v 0.03141465 0.1131565 -0.03108572
v 0.03141465 0.1131565 -0.002238981
v -0.03141467 0.1131565 -0.03108572
v -0.03141467 0.07519838 -0.03108572
v 0.03141465 0.07519838 -0.03108572
v 0.03141465 0.1131565 -0.03108572
v -0.03141467 0.0493837 -0.03108572
v -0.03141467 0.0493837 0.03108573
v 0.03141465 0.0493837 0.03108573
v 0.03141465 0.0493837 -0.03108572
v 0.03141465 0.07519838 0.03108573
v 0.03141465 0.1131565 -0.002238981
v 0.03141465 0.1131565 -0.03108572
v 0.03141465 0.07519838 -0.03108572
v -0.03141467 0.07519838 -0.03108572
v -0.03141467 0.1131565 -0.03108572
v -0.03141467 0.1131565 -0.002238981
v -0.03141467 0.07519838 0.03108573
v -0.03141467 0.07519838 0.03108573
v -0.02333331 0.08172149 0.02540909
v 0.0233333 0.08172149 0.02540909
v 0.03141465 0.07519838 0.03108573
v 0.0233333 0.1066384 0.003752146
v 0.03141465 0.1131565 -0.002238981
v -0.02333331 0.1066384 0.003752146
v -0.03141467 0.1131565 -0.002238981
v -0.02333331 0.08172149 0.02540909
v -0.02333331 0.07975702 0.02290469
v 0.0233333 0.07975702 0.02290469
v 0.0233333 0.08172149 0.02540909
v 0.0233333 0.08172149 0.02540909
v 0.0233333 0.07975702 0.02290469
v 0.0233333 0.1046843 0.001405188
v 0.0233333 0.1066384 0.003752146
v 0.0233333 0.1066384 0.003752146
v 0.0233333 0.1046843 0.001405188
v -0.02333331 0.1046843 0.001405188
v -0.02333331 0.1066384 0.003752146
v -0.02333331 0.1066384 0.003752146
v -0.02333331 0.1046843 0.001405188
v -0.02333331 0.07975702 0.02290469
v -0.02333331 0.08172149 0.02540909
v -0.03141467 0.07519838 -0.03108572
v -0.03141467 0.0493837 -0.03108572
v 0.03141465 0.0493837 -0.03108572
v 0.03141465 0.07519838 -0.03108572
v 0.03141465 0.07519838 -0.03108572
v 0.03141465 0.0493837 -0.03108572
v 0.03141465 0.0493837 0.03108573
v 0.03141465 0.07519838 0.03108573
v 0.03141465 0.07519838 0.03108573
v 0.03141465 0.0493837 0.03108573
v -0.03141467 0.0493837 0.03108573
v -0.03141467 0.07519838 0.03108573
v -0.03141467 0.07519838 0.03108573
v -0.03141467 0.0493837 0.03108573
v -0.03141467 0.0493837 -0.03108572
v -0.03141467 0.07519838 -0.03108572
v -0.007860283 0.01447484 0.006285334
v -0.007860283 0.04916827 0.006285334
v 0.008407339 0.04916827 0.006285334
v 0.008407339 0.01447484 0.006285334
v -0.007860283 0.04916827 -0.01363325
v -0.007860283 0.01447484 -0.01363325
v 0.008407339 0.01447484 -0.01363325
v 0.008407339 0.04916827 -0.01363325
v -0.02204222 -6.20842E-06 -0.03099809
v -0.02204222 -6.20842E-06 0.02365017
v 0.02258928 -6.20842E-06 0.02365017
v 0.02258928 -6.20842E-06 -0.03099809
v 0.008407339 0.01447484 0.006285334
v 0.008407339 0.04916827 0.006285334
v 0.008407339 0.04916827 -0.01363325
v 0.008407339 0.01447484 -0.01363325
v -0.007860283 0.01447484 -0.01363325
v -0.007860283 0.04916827 -0.01363325
v -0.007860283 0.04916827 0.006285334
v -0.007860283 0.01447484 0.006285334
v -0.007860283 0.01447484 -0.01363325
v -0.02204222 0.006867132 -0.03099809
v 0.02258928 0.006867132 -0.03099809
v 0.008407339 0.01447484 -0.01363325
v 0.008407339 0.01447484 -0.01363325
v 0.02258928 0.006867132 -0.03099809
v 0.02258928 0.006867132 0.02365017
v 0.008407339 0.01447484 0.006285334
v 0.008407339 0.01447484 0.006285334
v 0.02258928 0.006867132 0.02365017
v -0.02204222 0.006867132 0.02365017
v -0.007860283 0.01447484 0.006285334
v -0.007860283 0.01447484 0.006285334
v -0.02204222 0.006867132 0.02365017
v -0.02204222 0.006867132 -0.03099809
v -0.007860283 0.01447484 -0.01363325
v -0.02204222 0.006867132 -0.03099809
v -0.02204222 -6.20842E-06 -0.03099809
v 0.02258928 -6.20842E-06 -0.03099809
v 0.02258928 0.006867132 -0.03099809
v 0.02258928 0.006867132 -0.03099809
v 0.02258928 -6.20842E-06 -0.03099809
v 0.02258928 -6.20842E-06 0.02365017
v 0.02258928 0.006867132 0.02365017
v 0.02258928 0.006867132 0.02365017
v 0.02258928 -6.20842E-06 0.02365017
v -0.02204222 -6.20842E-06 0.02365017
v -0.02204222 0.006867132 0.02365017
v -0.02204222 0.006867132 0.02365017
v -0.02204222 -6.20842E-06 0.02365017
v -0.02204222 -6.20842E-06 -0.03099809
v -0.02204222 0.006867132 -0.03099809
vt 0.8198195 0.5589248
vt 0.8816097 0.5589248
vt 0.8816097 0.4248035
vt 0.8198195 0.4248035
vt 0.347326 0.5462232
vt 0.4008289 0.5462232
vt 0.4008289 0.4296915
vt 0.347326 0.4296915
vt 0.4969309 0.5
vt 0.4969309 0.5336645
vt 0.5305954 0.5336645
vt 0.5305954 0.5
vt 0.4969309 0.5336645
vt 0.4969309 0.5673289
vt 0.5305954 0.5673289
vt 0.5305954 0.5336645
vt 0.5305954 0.4326711
vt 0.5305954 0.4663355
vt 0.5642599 0.4663355
vt 0.5642599 0.4326711
vt 0.4632665 0.4326711
vt 0.4632665 0.4663355
vt 0.4969309 0.4663355
vt 0.4969309 0.4326711
vt 0.4969309 0.4326711
vt 0.4969309 0.4326711
vt 0.5305954 0.4326711
vt 0.5305954 0.4326711
vt 0.5305954 0.4663355
vt 0.5305954 0.4663355
vt 0.4969309 0.4663355
vt 0.4969309 0.4663355
vt 0.6601413 0.5425112
vt 0.6655495 0.5425112
vt 0.6655495 0.4417342
vt 0.6601413 0.4417342
vt 0.7239814 0.4459765
vt 0.7185732 0.4417342
vt 0.6721448 0.4955649
vt 0.677213 0.4997848
vt 0.6713269 0.4417342
vt 0.6662586 0.4417342
vt 0.6662586 0.5425112
vt 0.6713269 0.5425112
vt 0.7625058 0.5582659
vt 0.767574 0.554046
vt 0.7211456 0.5002153
vt 0.7157374 0.5044577
vt 0.4969309 0.5336645
vt 0.4969309 0.5336645
vt 0.5305954 0.5336645
vt 0.5305954 0.5336645
vt 0.5305954 0.5336645
vt 0.5305954 0.5336645
vt 0.5305954 0.5673289
vt 0.5305954 0.5673289
vt 0.5305954 0.5673289
vt 0.5305954 0.5673289
vt 0.4969309 0.5673289
vt 0.4969309 0.5673289
vt 0.4969309 0.5673289
vt 0.4969309 0.5673289
vt 0.4969309 0.5336645
vt 0.4969309 0.5336645
vt 0.5641236 0.8903831
vt 0.5641236 0.9334503
vt 0.5843176 0.9334503
vt 0.5843176 0.8903831
vt 0.5431035 0.8903831
vt 0.5431035 0.9334503
vt 0.5632976 0.9334503
vt 0.5632976 0.8903831
vt 0.4689516 0.8220072
vt 0.4689516 0.8898457
vt 0.5243557 0.8898457
vt 0.5243557 0.8220072
vt 0.5175514 0.8903831
vt 0.5175514 0.9334503
vt 0.5422776 0.9334503
vt 0.5422776 0.8903831
vt 0.4919992 0.8903831
vt 0.4919992 0.9334503
vt 0.5167254 0.9334503
vt 0.5167254 0.8903831
vt 0.3726255 0.8682896
vt 0.3550205 0.8898457
vt 0.4104246 0.8898457
vt 0.3928196 0.8682896
vt 0.3928196 0.8682896
vt 0.4104246 0.8898457
vt 0.4104246 0.8220072
vt 0.3928196 0.8435633
vt 0.3928196 0.8435633
vt 0.4104246 0.8220072
vt 0.3550205 0.8220072
vt 0.3726255 0.8435633
vt 0.3726255 0.8435633
vt 0.3550205 0.8220072
vt 0.3550205 0.8898457
vt 0.3726255 0.8682896
vt 0.5945017 0.9457871
vt 0.6030341 0.9457871
vt 0.6030341 0.8903831
vt 0.5945017 0.8903831
vt 0.5903275 0.8220072
vt 0.5817951 0.8220072
vt 0.5817951 0.8898457
vt 0.5903275 0.8898457
vt 0.5936759 0.8903831
vt 0.5851434 0.8903831
vt 0.5851434 0.9457871
vt 0.5936759 0.9457871
vt 0.5997726 0.8220072
vt 0.5912403 0.8220072
vt 0.5912403 0.8898457
vt 0.5997726 0.8898457
vn 0 0.653122 0.7572528
vn 0 0.653122 0.7572528
vn 0 0.653122 0.7572528
vn 0 0.653122 0.7572528
vn 0 1 0
vn 0 1 0
vn 0 1 0
vn 0 1 0
vn 0 0 -1
vn 0 0 -1
vn 0 0 -1
vn 0 0 -1
vn 0 -1 0
vn 0 -1 0
vn 0 -1 0
vn 0 -1 0
vn 1 -4.41659E-07 0
vn 1 -4.41659E-07 0
vn 1 -4.41659E-07 0
vn 1 -4.41659E-07 0
vn -1 2.208295E-07 0
vn -1 2.208295E-07 0
vn -1 2.208295E-07 0
vn -1 2.208295E-07 0
vn 0 0.6564665 0.7543552
vn 0 0.6564665 0.7543552
vn 0 0.6564665 0.7543552
vn 0 0.6564665 0.7543552
vn 0.01484921 0.6582024 0.7526946
vn 0.01484921 0.6582023 0.7526947
vn 0 0.6767179 0.7362425
vn 0 0.6767179 0.7362425
vn 0 0.7868152 -0.6171886
vn 0 0.7868152 -0.6171886
vn 0 0.7868152 -0.6171886
vn 0 0.7868152 -0.6171886
vn -1 9.283239E-07 0
vn -1 9.283238E-07 0
vn -1 9.283239E-07 0
vn -1 9.283239E-07 0
vn 0 -0.7684963 0.6398542
vn 0 -0.7684963 0.6398542
vn 0 -0.7684963 0.6398542
vn 0 -0.7684963 0.6398542
vn 1 3.249134E-06 0
vn 1 3.249134E-06 0
vn 1 3.249134E-06 0
vn 1 3.249134E-06 0
vn 0 0 -1
vn 0 0 -1
vn 0 0 -1
vn 0 0 -1
vn 1 0 0
vn 1 0 0
vn 1 0 0
vn 1 0 0
vn 0 0 1
vn 0 0 1
vn 0 0 1
vn 0 0 1
vn -1 0 0
vn -1 0 0
vn -1 0 0
vn -1 0 0
vn 0 0 1
vn 0 0 1
vn 0 0 1
vn 0 0 1
vn 0 0 -1
vn 0 0 -1
vn 0 0 -1
vn 0 0 -1
vn 0 -1 0
vn 0 -1 0
vn 0 -1 0
vn 0 -1 0
vn 1 0 0
vn 1 0 0
vn 1 0 0
vn 1 0 0
vn -1 0 0
vn -1 0 0
vn -1 0 0
vn -1 0 0
vn 0 0.9159521 -0.4012876
vn 0 0.9159521 -0.4012876
vn 0 0.9159521 -0.4012876
vn 0 0.9159521 -0.4012876
vn 0.4727154 0.8812152 0
vn 0.4727154 0.8812152 0
vn 0.4727154 0.8812152 0
vn 0.4727154 0.8812152 0
vn 0 0.9159521 0.4012876
vn 0 0.9159521 0.4012876
vn 0 0.9159521 0.4012876
vn 0 0.9159521 0.4012876
vn -0.4727158 0.881215 0
vn -0.4727157 0.881215 0
vn -0.4727157 0.881215 0
vn -0.4727158 0.881215 0
vn 0 0 -1
vn 0 0 -1
vn 0 0 -1
vn 0 0 -1
vn 1 0 0
vn 1 0 0
vn 1 0 0
vn 1 0 0
vn 0 0 1
vn 0 0 1
vn 0 0 1
vn 0 0 1
vn -1 0 0
vn -1 0 0
vn -1 0 0
vn -1 0 0
g pCube4_0
f 3/3/3 2/2/2 1/1/1
f 4/4/4 3/3/3 1/1/1
f 7/7/7 6/6/6 5/5/5
f 8/8/8 7/7/7 5/5/5
f 11/11/11 10/10/10 9/9/9
f 12/12/12 11/11/11 9/9/9
f 15/15/15 14/14/14 13/13/13
f 16/16/16 15/15/15 13/13/13
f 19/19/19 18/18/18 17/17/17
f 20/20/20 19/19/19 17/17/17
f 23/23/23 22/22/22 21/21/21
f 24/24/24 23/23/23 21/21/21
f 27/27/27 26/26/26 25/25/25
f 28/28/28 27/27/27 25/25/25
f 29/29/29 27/27/27 28/28/28
f 30/30/30 29/29/29 28/28/28
f 31/31/31 29/29/29 30/30/30
f 32/32/32 31/31/31 30/30/30
f 26/26/26 31/31/31 32/32/32
f 25/25/25 26/26/26 32/32/32
f 35/35/35 34/34/34 33/33/33
f 36/36/36 35/35/35 33/33/33
f 39/39/39 38/38/38 37/37/37
f 40/40/40 39/39/39 37/37/37
f 43/43/43 42/42/42 41/41/41
f 44/44/44 43/43/43 41/41/41
f 47/47/47 46/46/46 45/45/45
f 48/48/48 47/47/47 45/45/45
f 51/51/51 50/50/50 49/49/49
f 52/52/52 51/51/51 49/49/49
f 55/55/55 54/54/54 53/53/53
f 56/56/56 55/55/55 53/53/53
f 59/59/59 58/58/58 57/57/57
f 60/60/60 59/59/59 57/57/57
f 63/63/63 62/62/62 61/61/61
f 64/64/64 63/63/63 61/61/61
f 67/67/67 66/66/66 65/65/65
f 68/68/68 67/67/67 65/65/65
f 71/71/71 70/70/70 69/69/69
f 72/72/72 71/71/71 69/69/69
f 75/75/75 74/74/74 73/73/73
f 76/76/76 75/75/75 73/73/73
f 79/79/79 78/78/78 77/77/77
f 80/80/80 79/79/79 77/77/77
f 83/83/83 82/82/82 81/81/81
f 84/84/84 83/83/83 81/81/81
f 87/87/87 86/86/86 85/85/85
f 88/88/88 87/87/87 85/85/85
f 91/91/91 90/90/90 89/89/89
f 92/92/92 91/91/91 89/89/89
f 95/95/95 94/94/94 93/93/93
f 96/96/96 95/95/95 93/93/93
f 99/99/99 98/98/98 97/97/97
f 100/100/100 99/99/99 97/97/97
f 103/103/103 102/102/102 101/101/101
f 104/104/104 103/103/103 101/101/101
f 107/107/107 106/106/106 105/105/105
f 108/108/108 107/107/107 105/105/105
f 111/111/111 110/110/110 109/109/109
f 112/112/112 111/111/111 109/109/109
f 115/115/115 114/114/114 113/113/113
f 116/116/116 115/115/115 113/113/113
