g pCube201
v 0.3 1.8 0.6
v 0 1.8 0.6
v 0 1.8 -0.6
v 0.3 1.8 -0.6
v 0.3583389 1.8 -0.6
v 0.3583389 1.8 0.6
v 0.3 -0.6 -0.6
v 0 -0.6 -0.6
v 0 -0.6 0.6
v 0.3 -0.6 0.6
v 0.4495034 -0.599714 0.6
v 0.4495034 -0.599714 -0.6
v 0 0 0.6
v 0 0 -0.6
v 0 0.6 -0.6
v 0 0.6 0.6
v 0 -0.6 0.6
v 0 -0.6 -0.6
v 0 1.2 0.6
v 0 1.2 -0.6
v 0 1.5 -0.6
v 0 1.5 0.6
v 0 1.8 -0.6
v 0 1.8 0.6
v 0.6415371 0.02128024 -0.5713535
v 0.6415371 0.02128024 0.5713535
v 0.7541558 0.6 0.5713535
v 0.7541558 0.6 -0.5713535
v 0.6544878 1.217571 0.5713535
v 0.6544878 1.217571 -0.5713535
v 0.4956548 1.491776 0.5713535
v 0.4956548 1.491776 -0.5713535
v 0.5015405 -0.6251392 -0.5713535
v 0.5015405 -0.6251392 0.5713535
v 0.7535098 -0.04408192 0.5713535
v 0.7535098 -0.04408192 -0.5713535
v 0.5344819 1.527828 -0.5713535
v 0.5344819 1.527828 0.5713535
v 0.4102573 1.825667 0.5713535
v 0.4102573 1.825667 -0.5713535
v 0.4956548 1.491776 -0.5713535
v 0.4956548 1.491776 0.5713535
v 0.5344819 1.527828 0.5713535
v 0.5344819 1.527828 -0.5713535
v 0.6415371 0.02128024 0.5713535
v 0.6415371 0.02128024 -0.5713535
v 0.7535098 -0.04408192 -0.5713535
v 0.7535098 -0.04408192 0.5713535
v 0.6963911 0.1853985 -0.03728906
v 0.7518281 0.2316904 -0.06458789
v 0.7051612 0.2392855 -0.1118701
v 0.6694483 0.1897836 -0.06458789
v 0.6414126 0.2496607 -0.1291758
v 0.6326426 0.1957737 -0.07457959
v 0.7062539 0.1837934 2.728484E-15
v 0.7689111 0.2289103 2.728484E-15
v 0.6963911 0.1853985 0.03728906
v 0.7518281 0.2316904 0.06458789
v 0.6694483 0.1897836 0.06458789
v 0.7051612 0.2392855 0.1118701
v 0.6326426 0.1957737 0.07457959
v 0.6414126 0.2496607 0.1291758
v 0.7270034 0.3112915 -0.1291758
v 0.7808906 0.3025214 -0.07457959
v 0.6533936 0.3232718 -0.1491592
v 0.7270034 0.3112915 0.1291758
v 0.6533936 0.3232718 0.1491592
v 0.7808906 0.3025214 0.07457959
v 0.8006148 0.2993113 2.728484E-15
v 0.7291216 0.3865076 -0.1118701
v 0.77579 0.3789124 -0.06458789
v 0.665373 0.3968828 -0.1291758
v 0.7291216 0.3865076 0.1118701
v 0.665373 0.3968828 0.1291758
v 0.77579 0.3789124 0.06458789
v 0.7928701 0.3761324 2.728484E-15
v 0.7109488 0.4447798 -0.06458789
v 0.7378916 0.4403947 -0.03728906
v 0.6741431 0.4507699 -0.07457959
v 0.7109488 0.4447798 0.06458789
v 0.6741431 0.4507699 0.07457959
v 0.7378916 0.4403947 0.03728906
v 0.7477544 0.4387896 2.728484E-15
v 0.6773525 0.4704939 2.728484E-15
v 0.6294317 0.1760496 2.728484E-15
v 0.6 0 -0.6
v 0.6415371 0.02128024 -0.5713535
v 0.7541558 0.6 -0.5713535
v 0.6969814 0.6 -0.6
v 0.6969814 0.6 0.6
v 0.7541558 0.6 0.5713535
v 0.6415371 0.02128024 0.5713535
v 0.6 0 0.6
v 0.7535098 -0.04408192 0.5713535
v 0.7145405 -0.05727026 0.6
v 0.5015405 -0.6251392 0.5713535
v 0.4495034 -0.599714 0.6
v 0.6 1.2 0.6
v 0.6544878 1.217571 0.5713535
v 0.45 1.5 0.6
v 0.4956548 1.491776 0.5713535
v 0.4887685 1.536168 0.6
v 0.5344819 1.527828 0.5713535
v 0.3583389 1.8 0.6
v 0.4102573 1.825667 0.5713535
v 0.6 1.2 -0.6
v 0.6544878 1.217571 -0.5713535
v 0.4956548 1.491776 -0.5713535
v 0.45 1.5 -0.6
v 0.4495034 -0.599714 -0.6
v 0.5015405 -0.6251392 -0.5713535
v 0.7535098 -0.04408192 -0.5713535
v 0.7145405 -0.05727026 -0.6
v 0.4495034 -0.599714 0.6
v 0.5015405 -0.6251392 0.5713535
v 0.5015405 -0.6251392 -0.5713535
v 0.4495034 -0.599714 -0.6
v 0.4887685 1.536168 -0.6
v 0.5344819 1.527828 -0.5713535
v 0.4102573 1.825667 -0.5713535
v 0.3583389 1.8 -0.6
v 0.3583389 1.8 -0.6
v 0.4102573 1.825667 -0.5713535
v 0.4102573 1.825667 0.5713535
v 0.3583389 1.8 0.6
v 0.45 1.5 -0.6
v 0.4956548 1.491776 -0.5713535
v 0.5344819 1.527828 -0.5713535
v 0.4887685 1.536168 -0.6
v 0.7145405 -0.05727026 -0.6
v 0.7535098 -0.04408192 -0.5713535
v 0.6415371 0.02128024 -0.5713535
v 0.6 0 -0.6
v 0.6969814 0.6 -0.6
v 0.7541558 0.6 -0.5713535
v 0.6544878 1.217571 -0.5713535
v 0.6 1.2 -0.6
v 0.6645615 0.8486417 0.4496294
v 0.8342724 0.9039237 0.4496294
v 0.8342724 0.9039237 -0.4512935
v 0.6645615 0.8486417 -0.4512935
v 0.8342724 0.9039237 0.4496294
v 0.6791294 1.335689 0.4496294
v 0.6791294 1.335689 -0.4512935
v 0.8342724 0.9039237 -0.4512935
v 0.6791294 1.335689 0.4496294
v 0.4851592 1.399386 0.4496294
v 0.4851592 1.399386 -0.4512935
v 0.6791294 1.335689 -0.4512935
v 0.6645615 0.8486417 -0.4512935
v 0.8342724 0.9039237 -0.4512935
v 0.6791294 1.335689 -0.4512935
v 0.4851592 1.399386 -0.4512935
v 0.4851592 1.399386 0.4496294
v 0.6791294 1.335689 0.4496294
v 0.8342724 0.9039237 0.4496294
v 0.6645615 0.8486417 0.4496294
vt 0.01779211 0.7962991
vt 0.01779204 0.8646632
vt 0.2883725 0.8646632
vt 0.2883725 0.7962991
vt 0.2863741 0.7612324
vt 0.01579352 0.7612324
vt 0.2832872 0.1035371
vt 0.2832873 0.03533673
vt 0.01270672 0.03533679
vt 0.01270671 0.1035371
vt 0.01294811 0.1392782
vt 0.2835287 0.1392782
vt 0.5872718 0.1701791
vt 0.3074031 0.1701792
vt 0.3074031 0.3098652
vt 0.5872718 0.3098652
vt 0.5872717 0.03024575
vt 0.3074031 0.03024575
vt 0.5872718 0.4495753
vt 0.3074031 0.4495753
vt 0.307403 0.5194404
vt 0.5872717 0.5194404
vt 0.3074031 0.5899792
vt 0.5872718 0.5899791
vt 0.2766799 0.310223
vt 0.02145149 0.3102229
vt 0.02145149 0.4472693
vt 0.2766799 0.4472694
vt 0.02145149 0.5843157
vt 0.2766799 0.5843138
vt 0.02145149 0.6599445
vt 0.2766799 0.6599445
vt 0.2759334 0.1392782
vt 0.02070488 0.1392782
vt 0.02070488 0.274703
vt 0.2759333 0.274703
vt 0.2786173 0.6950243
vt 0.02338886 0.6950243
vt 0.02338885 0.7612324
vt 0.2786173 0.7612324
vt 0.2766799 0.6599445
vt 0.02145149 0.6599445
vt 0.02338886 0.6950243
vt 0.2786173 0.6950243
vt 0.02145149 0.3102229
vt 0.2766799 0.310223
vt 0.2759333 0.274703
vt 0.02070488 0.274703
vt 0.7349997 0.4881316
vt 0.7188097 0.4961253
vt 0.7260703 0.5102087
vt 0.7416818 0.4962475
vt 0.7395359 0.5267053
vt 0.7526674 0.5023764
vt 0.7316023 0.4791538
vt 0.7146331 0.4829409
vt 0.7310997 0.4694315
vt 0.7124388 0.4691527
vt 0.7340018 0.4587826
vt 0.7122544 0.4527828
vt 0.7422419 0.4472462
vt 0.7158362 0.4300373
vt 0.7079511 0.517815
vt 0.7035508 0.5006937
vt 0.714799 0.5420586
vt 0.6920513 0.454281
vt 0.6852033 0.4300373
vt 0.6964492 0.4714022
vt 0.7000012 0.486048
vt 0.687748 0.5193155
vt 0.6875635 0.5029435
vt 0.684166 0.5420586
vt 0.6739321 0.4618897
vt 0.660464 0.4453907
vt 0.6811903 0.4759731
vt 0.6853692 0.4891574
vt 0.6660006 0.5133157
vt 0.6689026 0.5026667
vt 0.6577604 0.524852
vt 0.6583205 0.4758508
vt 0.6473328 0.469722
vt 0.6650026 0.4839666
vt 0.6683978 0.4929421
vt 0.644848 0.4977895
vt 0.755152 0.4743088
vt 0.2843201 0.310223
vt 0.2766799 0.310223
vt 0.2766799 0.4472694
vt 0.2843201 0.4472694
vt 0.01373964 0.4472693
vt 0.02145149 0.4472693
vt 0.02145149 0.3102229
vt 0.01373964 0.3102229
vt 0.02070488 0.274703
vt 0.01294812 0.274703
vt 0.02070488 0.1392782
vt 0.01294811 0.1392782
vt 0.01373964 0.5843157
vt 0.02145149 0.5843157
vt 0.01373964 0.6599445
vt 0.02145149 0.6599445
vt 0.01579353 0.6950243
vt 0.02338886 0.6950243
vt 0.01579352 0.7612324
vt 0.02338885 0.7612324
vt 0.2843201 0.5843138
vt 0.2766799 0.5843138
vt 0.2766799 0.6599445
vt 0.2843201 0.6599445
vt 0.2835287 0.1392782
vt 0.2759334 0.1392782
vt 0.2759333 0.274703
vt 0.2835286 0.274703
vt 0.01294811 0.1392782
vt 0.02070488 0.1392782
vt 0.2759334 0.1392782
vt 0.2835287 0.1392782
vt 0.2863741 0.6950243
vt 0.2786173 0.6950243
vt 0.2786173 0.7612324
vt 0.2863741 0.7612324
vt 0.2863741 0.7612324
vt 0.2786173 0.7612324
vt 0.02338885 0.7612324
vt 0.01579352 0.7612324
vt 0.2843201 0.6599445
vt 0.2766799 0.6599445
vt 0.2786173 0.6950243
vt 0.2863741 0.6950243
vt 0.2835286 0.274703
vt 0.2759333 0.274703
vt 0.2766799 0.310223
vt 0.2843201 0.310223
vt 0.2843201 0.4472694
vt 0.2766799 0.4472694
vt 0.2766799 0.5843138
vt 0.2843201 0.5843138
vt 0.8858418 0.335364
vt 0.8858418 0.3013499
vt 0.7141582 0.3013499
vt 0.7141582 0.335364
vt 0.8858418 0.3013499
vt 0.8858418 0.213921
vt 0.7141582 0.213921
vt 0.7141582 0.3013499
vt 0.8858418 0.213921
vt 0.8858418 0.1750154
vt 0.7141582 0.1750154
vt 0.7141582 0.213921
vt 0.6801602 0.3003282
vt 0.7141582 0.3013499
vt 0.7141582 0.213921
vt 0.6834766 0.1899986
vt 0.9165235 0.1899986
vt 0.8858418 0.213921
vt 0.8858418 0.3013499
vt 0.9198399 0.3003282
vn 0 1 0
vn 0 1 0
vn 0 1 0
vn 0 1 0
vn -0.1849475 0.9827484 0
vn -0.1849475 0.9827484 0
vn 0 -1 0
vn 0 -1 0
vn 0 -1 0
vn 0 -1 0
vn -0.09275056 -0.9956893 0
vn -0.09275056 -0.9956893 0
vn -1 0 0
vn -1 0 0
vn -1 0 0
vn -1 0 0
vn -1 0 0
vn -1 0 0
vn -1 0 0
vn -1 0 0
vn -1 0 0
vn -1 0 0
vn -1 0 0
vn -1 0 0
vn 0.9815872 -0.1910145 0
vn 0.9815872 -0.1910145 0
vn 0.9999415 -0.01082465 0
vn 0.9999415 -0.01082465 0
vn 0.9604626 0.2784094 0
vn 0.9604626 0.2784094 0
vn 0.8653145 0.5012293 0
vn 0.8653145 0.5012293 0
vn 0.9174538 -0.3978423 0
vn 0.9174538 -0.3978423 0
vn 0.9174538 -0.3978423 0
vn 0.9174538 -0.3978423 0
vn 0.9229392 0.3849457 0
vn 0.9229392 0.3849457 0
vn 0.9229392 0.3849457 0
vn 0.9229392 0.3849457 0
vn 0.680428 -0.7328148 0
vn 0.680428 -0.7328148 0
vn 0.680428 -0.7328148 0
vn 0.680428 -0.7328148 0
vn 0.504132 0.8636266 0
vn 0.504132 0.8636266 0
vn 0.504132 0.8636266 0
vn 0.504132 0.8636266 0
vn 0.4086039 -0.8575889 -0.3123845
vn 0.6941976 -0.5634846 -0.4478558
vn 0.3706065 -0.5108237 -0.7756996
vn 0.1828989 -0.820853 -0.5410622
vn 0.160881 -0.4642509 -0.8709698
vn 0.03925073 -0.7866096 -0.6162018
vn 0.4912249 -0.8710327 -1.106154E-06
vn 0.8126477 -0.5827553 -3.036313E-07
vn 0.4085984 -0.8575934 0.3123794
vn 0.6941985 -0.563485 0.4478539
vn 0.1829011 -0.8208555 0.5410578
vn 0.370608 -0.5108267 0.7756969
vn 0.03925779 -0.7866095 0.6162015
vn 0.1608879 -0.4642541 0.8709669
vn 0.4935088 -0.08031756 -0.8660244
vn 0.8547781 -0.1391201 -0.5
vn 0.2554538 -0.04157519 -0.9659269
vn 0.4935087 -0.0803199 0.8660242
vn 0.2554538 -0.04157806 0.9659268
vn 0.8547796 -0.1391168 0.4999984
vn 0.9870121 -0.1606459 1.671782E-07
vn 0.5134636 0.3669423 -0.7756988
vn 0.8370559 0.3142741 -0.4478495
vn 0.2997991 0.3892791 -0.8709663
vn 0.5134619 0.3669429 0.7756996
vn 0.2997954 0.3892798 0.8709673
vn 0.8370566 0.3142749 0.4478476
vn 0.9554983 0.2949967 -1.219482E-07
vn 0.4337539 0.7205 -0.5410519
vn 0.6594617 0.6837623 -0.312377
vn 0.2866633 0.7335892 -0.6161746
vn 0.4337508 0.7205012 0.5410529
vn 0.2866633 0.7335891 0.6161748
vn 0.6594616 0.6837624 0.312377
vn 0.7420772 0.6703145 0
vn 0.3316955 0.9433865 1.462882E-07
vn 0.01543165 -0.9998809 3.169324E-06
vn 0.5145605 -0.09150018 -0.852558
vn 0.5145605 -0.09150019 -0.8525581
vn 0.5145605 -0.09150018 -0.852558
vn 0.5145606 -0.09150019 -0.852558
vn 0.4794297 -0.002590914 0.8775764
vn 0.4790812 -0.001764512 0.8777688
vn 0.4993182 0.003341851 0.8664122
vn 0.4987332 0.006481661 0.8667313
vn 0.488887 -0.1125295 0.8650588
vn 0.489026 -0.1139988 0.8647878
vn 0.4964834 -0.2284704 0.8374398
vn 0.4964834 -0.2284704 0.8374398
vn 0.4532475 0.1278673 0.8821659
vn 0.4530827 0.1263939 0.8824629
vn 0.4700343 0.1681363 0.866486
vn 0.4699341 0.1697208 0.8662314
vn 0.4716647 0.1317455 0.8718804
vn 0.471502 0.1352616 0.87143
vn 0.466476 0.2114953 0.8588771
vn 0.466476 0.2114953 0.8588771
vn 0.4633 0.2491772 -0.8504493
vn 0.4633 0.2491772 -0.8504493
vn 0.4633 0.2491772 -0.8504493
vn 0.4633 0.2491772 -0.8504493
vn 0.4964891 -0.2284695 -0.8374367
vn 0.4964891 -0.2284695 -0.8374367
vn 0.4964891 -0.2284695 -0.8374367
vn 0.4964891 -0.2284695 -0.8374367
vn -0.09275056 -0.9956893 0
vn -0.438987 -0.8984935 0
vn -0.438987 -0.8984935 0
vn -0.09275056 -0.9956893 0
vn 0.4664792 0.2114947 -0.8588755
vn 0.4664791 0.2114947 -0.8588755
vn 0.4664792 0.2114947 -0.8588755
vn 0.4664792 0.2114947 -0.8588755
vn -0.1849475 0.9827484 0
vn -0.4431643 0.8964404 0
vn -0.4431643 0.8964404 0
vn -0.1849475 0.9827484 0
vn 0.415771 -0.4467183 -0.7921978
vn 0.415771 -0.4467184 -0.7921978
vn 0.415771 -0.4467184 -0.7921978
vn 0.415771 -0.4467183 -0.7921976
vn 0.3050788 0.5635156 -0.767709
vn 0.3050788 0.5635156 -0.767709
vn 0.3050788 0.5635156 -0.767709
vn 0.3050788 0.5635155 -0.767709
vn 0.4463216 0.07208603 -0.8919646
vn 0.4463216 0.07208603 -0.8919646
vn 0.4463216 0.07208603 -0.8919646
vn 0.4463216 0.07208603 -0.8919646
vn 0.3097243 -0.9508264 0
vn 0.3097243 -0.9508264 0
vn 0.3097243 -0.9508264 0
vn 0.3097243 -0.9508264 0
vn 0.9410903 0.3381555 0
vn 0.9410903 0.3381555 0
vn 0.9410903 0.3381555 0
vn 0.9410903 0.3381555 0
vn 0.3119922 0.9500846 0
vn 0.3119922 0.9500846 0
vn 0.3119922 0.9500846 0
vn 0.3119922 0.9500846 0
vn 3.966798E-07 0 -1
vn 3.966798E-07 0 -1
vn 3.966798E-07 0 -1
vn 3.966798E-07 0 -1
vn 0 0 1
vn 0 0 1
vn 0 0 1
vn 0 0 1
g pCube201_0
f 3/3/3 2/2/2 1/1/1
f 4/4/4 3/3/3 1/1/1
f 5/5/5 4/4/4 1/1/1
f 6/6/6 5/5/5 1/1/1
f 9/9/9 8/8/8 7/7/7
f 10/10/10 9/9/9 7/7/7
f 11/11/11 10/10/10 7/7/7
f 12/12/12 11/11/11 7/7/7
f 15/15/15 14/14/14 13/13/13
f 16/16/16 15/15/15 13/13/13
f 13/13/13 14/14/14 17/17/17
f 14/14/14 18/18/18 17/17/17
f 16/16/16 19/19/19 15/15/15
f 19/19/19 20/20/20 15/15/15
f 21/21/21 20/20/20 19/19/19
f 22/22/22 21/21/21 19/19/19
f 23/23/23 21/21/21 22/22/22
f 24/24/24 23/23/23 22/22/22
f 27/27/27 26/26/26 25/25/25
f 28/28/28 27/27/27 25/25/25
f 27/27/27 28/28/28 29/29/29
f 28/28/28 30/30/30 29/29/29
f 31/31/31 29/29/29 30/30/30
f 32/32/32 31/31/31 30/30/30
f 35/35/35 34/34/34 33/33/33
f 36/36/36 35/35/35 33/33/33
f 39/39/39 38/38/38 37/37/37
f 40/40/40 39/39/39 37/37/37
f 43/43/43 42/42/42 41/41/41
f 44/44/44 43/43/43 41/41/41
f 47/47/47 46/46/46 45/45/45
f 48/48/48 47/47/47 45/45/45
f 51/51/51 50/50/50 49/49/49
f 52/52/52 51/51/51 49/49/49
f 53/53/53 51/51/51 52/52/52
f 54/54/54 53/53/53 52/52/52
f 49/49/49 50/50/50 55/55/55
f 50/50/50 56/56/56 55/55/55
f 55/55/55 56/56/56 57/57/57
f 56/56/56 58/58/58 57/57/57
f 57/57/57 58/58/58 59/59/59
f 58/58/58 60/60/60 59/59/59
f 59/59/59 60/60/60 61/61/61
f 60/60/60 62/62/62 61/61/61
f 51/51/51 63/63/63 50/50/50
f 63/63/63 64/64/64 50/50/50
f 50/50/50 64/64/64 56/56/56
f 65/65/65 63/63/63 51/51/51
f 53/53/53 65/65/65 51/51/51
f 60/60/60 66/66/66 62/62/62
f 66/66/66 67/67/67 62/62/62
f 68/68/68 66/66/66 60/60/60
f 58/58/58 68/68/68 60/60/60
f 69/69/69 68/68/68 58/58/58
f 56/56/56 69/69/69 58/58/58
f 64/64/64 69/69/69 56/56/56
f 63/63/63 70/70/70 64/64/64
f 70/70/70 71/71/71 64/64/64
f 64/64/64 71/71/71 69/69/69
f 72/72/72 70/70/70 63/63/63
f 65/65/65 72/72/72 63/63/63
f 66/66/66 73/73/73 67/67/67
f 73/73/73 74/74/74 67/67/67
f 75/75/75 73/73/73 66/66/66
f 68/68/68 75/75/75 66/66/66
f 76/76/76 75/75/75 68/68/68
f 69/69/69 76/76/76 68/68/68
f 71/71/71 76/76/76 69/69/69
f 70/70/70 77/77/77 71/71/71
f 77/77/77 78/78/78 71/71/71
f 71/71/71 78/78/78 76/76/76
f 79/79/79 77/77/77 70/70/70
f 72/72/72 79/79/79 70/70/70
f 73/73/73 80/80/80 74/74/74
f 80/80/80 81/81/81 74/74/74
f 82/82/82 80/80/80 73/73/73
f 75/75/75 82/82/82 73/73/73
f 83/83/83 82/82/82 75/75/75
f 76/76/76 83/83/83 75/75/75
f 78/78/78 83/83/83 76/76/76
f 77/77/77 84/84/84 78/78/78
f 79/79/79 84/84/84 77/77/77
f 80/80/80 84/84/84 81/81/81
f 82/82/82 84/84/84 80/80/80
f 83/83/83 84/84/84 82/82/82
f 78/78/78 84/84/84 83/83/83
f 49/49/49 85/85/85 52/52/52
f 52/52/52 85/85/85 54/54/54
f 55/55/55 85/85/85 49/49/49
f 57/57/57 85/85/85 55/55/55
f 59/59/59 85/85/85 57/57/57
f 61/61/61 85/85/85 59/59/59
f 88/88/88 87/87/87 86/86/86
f 89/89/89 88/88/88 86/86/86
f 92/92/92 91/91/91 90/90/90
f 93/93/93 92/92/92 90/90/90
f 94/94/94 92/92/92 93/93/93
f 95/95/95 94/94/94 93/93/93
f 96/96/96 94/94/94 95/95/95
f 97/97/97 96/96/96 95/95/95
f 90/90/90 91/91/91 98/98/98
f 91/91/91 99/99/99 98/98/98
f 98/98/98 99/99/99 100/100/100
f 99/99/99 101/101/101 100/100/100
f 100/100/100 101/101/101 102/102/102
f 101/101/101 103/103/103 102/102/102
f 102/102/102 103/103/103 104/104/104
f 103/103/103 105/105/105 104/104/104
f 108/108/108 107/107/107 106/106/106
f 109/109/109 108/108/108 106/106/106
f 112/112/112 111/111/111 110/110/110
f 113/113/113 112/112/112 110/110/110
f 116/116/116 115/115/115 114/114/114
f 117/117/117 116/116/116 114/114/114
f 120/120/120 119/119/119 118/118/118
f 121/121/121 120/120/120 118/118/118
f 124/124/124 123/123/123 122/122/122
f 125/125/125 124/124/124 122/122/122
f 128/128/128 127/127/127 126/126/126
f 129/129/129 128/128/128 126/126/126
f 132/132/132 131/131/131 130/130/130
f 133/133/133 132/132/132 130/130/130
f 136/136/136 135/135/135 134/134/134
f 137/137/137 136/136/136 134/134/134
f 140/140/140 139/139/139 138/138/138
f 141/141/141 140/140/140 138/138/138
f 144/144/144 143/143/143 142/142/142
f 145/145/145 144/144/144 142/142/142
f 148/148/148 147/147/147 146/146/146
f 149/149/149 148/148/148 146/146/146
f 152/152/152 151/151/151 150/150/150
f 153/153/153 152/152/152 150/150/150
f 156/156/156 155/155/155 154/154/154
f 157/157/157 156/156/156 154/154/154
