g pPlane1
v -0.4068125 -0.1191405 0.515799
v -0.2525761 -0.02275475 0.1577213
v -0.2145641 0.009217313 0.1642943
v -0.3455883 -0.0100705 0.5223719
v -0.173107 0.02607035 0.004804289
v -0.2037745 9.592327E-17 -0.001768702
v -0.5515112 -0.2451235 0.8622313
v -0.4685102 -0.02136154 0.8688043
v -0.2314914 0.1005172 0.8875743
v -0.1707556 0.1005172 0.541142
v 0.1707556 0.1005172 0.541142
v 0.1060163 0.1005172 0.1830643
v -0.1060163 0.1005172 0.1830643
v 0.199405 0.0219677 0.1669156
v 0.3211722 0.01264933 0.5249934
v 0.08553235 0.1005172 0.02357432
v -0.08553235 0.1005172 0.02357432
v 0.1608768 0.03646714 0.007425634
v 0.2314914 0.1005172 0.8875743
v 0.4354096 0.003803282 0.8714256
v 0.5515112 -0.2451235 0.8622313
v 0.4068125 -0.1191405 0.515799
v 0.2525761 -0.02275475 0.1577213
v 0.2037745 9.592327E-17 -0.001768702
vt 0 0.098473
vt 0 0.5
vt 0.04813006 0.5
vt 0.04813006 0.098473
vt 0.04813006 1
vt 0 1
vt 0 0
vt 0.04813006 0
vt 0.185571 0
vt 0.185571 0.098473
vt 0.3711419 0.098473
vt 0.3711419 0.5
vt 0.185571 0.5
vt 0.4893887 0.5
vt 0.4893887 0.098473
vt 0.3711419 1
vt 0.185571 1
vt 0.4893887 1
vt 0.3711419 0
vt 0.4893887 0
vt 0.5567129 0
vt 0.5567129 0.098473
vt 0.5567129 0.5
vt 0.5567129 1
vn -0.8632169 0.4362353 -0.2540776
vn -0.7694615 0.6058366 -0.2022156
vn -0.6357946 0.7584822 -0.1430731
vn -0.6659554 0.7249305 -0.1760094
vn -0.6339689 0.7689111 -0.08281998
vn -0.6337959 0.768941 -0.08385958
vn -0.8814909 0.3923517 -0.2627429
vn -0.7191064 0.6659448 -0.1985035
vn -0.2068527 0.9771577 -0.04873009
vn -0.2039005 0.9778184 -0.04791388
vn 0.1740696 0.9838895 -0.0407597
vn 0.2035019 0.9781383 -0.04280699
vn -0.2316438 0.9716219 -0.04787616
vn 0.6373426 0.7571 -0.1435058
vn 0.6676112 0.7249897 -0.1693673
vn 0.2438295 0.9693009 -0.03166844
vn -0.268475 0.9626531 -0.03493159
vn 0.6339685 0.7689112 -0.08282166
vn 0.1747984 0.9838007 -0.03976989
vn 0.7181067 0.6710422 -0.1844589
vn 0.8554347 0.4643715 -0.2293262
vn 0.8344144 0.5039378 -0.2231577
vn 0.7428799 0.64362 -0.1840727
vn 0.6338189 0.7689372 -0.08372033
g pPlane1_0
f 3/3/3 2/2/2 1/1/1
f 4/4/4 3/3/3 1/1/1
f 3/3/3 5/5/5 2/2/2
f 5/5/5 6/6/6 2/2/2
f 4/4/4 1/1/1 7/7/7
f 8/8/8 4/4/4 7/7/7
f 8/8/8 9/9/9 4/4/4
f 9/9/9 10/10/10 4/4/4
f 4/4/4 10/10/10 3/3/3
f 11/11/11 10/10/10 9/9/9
f 11/11/11 12/12/12 10/10/10
f 12/12/12 13/13/13 10/10/10
f 10/10/10 13/13/13 3/3/3
f 3/3/3 13/13/13 5/5/5
f 14/14/14 12/12/12 11/11/11
f 15/15/15 14/14/14 11/11/11
f 12/12/12 16/16/16 13/13/13
f 16/16/16 17/17/17 13/13/13
f 13/13/13 17/17/17 5/5/5
f 18/18/18 16/16/16 12/12/12
f 14/14/14 18/18/18 12/12/12
f 19/19/19 11/11/11 9/9/9
f 15/15/15 11/11/11 19/19/19
f 20/20/20 15/15/15 19/19/19
f 20/20/20 21/21/21 15/15/15
f 21/21/21 22/22/22 15/15/15
f 15/15/15 22/22/22 14/14/14
f 22/22/22 23/23/23 14/14/14
f 14/14/14 23/23/23 18/18/18
f 23/23/23 24/24/24 18/18/18
