g Rice_Raw1
v -12.00006 -1.691596 25.32182
v -19.28904 -1.691596 15.58956
v -26.7623 1.402389 18.85279
v -18.82318 1.40239 28.46089
v -6.492336 -1.691596 24.8992
v -9.271725 1.400051 32.14848
v -10.37173 -1.691596 16.31518
v -0.09082413 -1.691596 26.46696
v -0.208744 1.399621 32.63387
v 6.533504 -1.691596 24.62163
v 9.438213 1.400493 31.78986
v 10.42118 -1.691596 16.30914
v 3.814697E-06 -1.691596 16.12563
v 12.16927 -1.691596 24.78378
v 19.3191 1.402531 28.08671
v 19.29196 -1.691596 15.57783
v 26.7623 1.402389 18.85279
v 21.45084 -1.691596 6.983948
v 29.51134 1.400537 6.995705
v 30.27893 1.399496 -3.509048
v 22.21787 -1.691596 -3.938087
v 12.00449 -1.691596 7.145683
v 11.94771 -1.691596 -3.780327
v -8.010864E-05 -1.691596 7.268166
v 8.773804E-05 -1.691596 -3.658859
v -11.95789 -1.691596 7.145683
v -11.90106 -1.691596 -3.780327
v -21.45082 -1.691596 6.983932
v -22.21785 -1.691596 -3.938072
v -29.51132 1.400538 6.995705
v -30.27893 1.399496 -3.509048
v -28.53511 1.401138 -15.47165
v -20.93827 -1.691596 -12.41964
v -21.80633 1.402779 -26.32848
v -17.2695 -1.691596 -22.06887
v -11.57003 1.400941 -31.28076
v -9.25259 -1.691596 -24.36287
v -11.26249 -1.691596 -12.98004
v 3.814697E-06 1.399621 -32.63387
v 0.06059647 -1.691596 -25.0648
v 11.05082 1.40017 -31.96411
v 8.57423 -1.691596 -24.72224
v 3.814697E-06 -1.691596 -12.64995
v 11.30652 -1.691596 -12.94633
v 22.36508 1.40288 -25.69971
v 15.80797 -1.691596 -22.76546
v 28.53511 1.401138 -15.47165
v 20.9383 -1.691596 -12.3543
v -15.26112 14.19796 23.075
v -21.69785 14.19792 15.28512
v -12.91681 22.37971 10.40154
v -9.094471 22.34282 14.83894
v -6.389172 25.5754 10.01463
v -4.348103 22.30757 16.69852
v -7.517162 14.13706 26.06476
v -15.26112 14.19796 23.075
v -17.68849 8.407568 26.89879
v -8.745197 8.375681 30.3588
v -18.82318 1.40239 28.46089
v -9.271725 1.400051 32.14848
v -17.68849 8.407568 26.89879
v -25.23982 8.407305 17.7118
v -26.7623 1.402389 18.85279
v -18.82318 1.40239 28.46089
v -0.208744 1.399621 32.63387
v -0.1884193 8.368088 30.84583
v 9.438213 1.400493 31.78986
v 8.900349 8.380835 30.0206
v -0.1692467 14.12587 26.45828
v 7.652142 14.14857 25.77399
v -0.06081772 22.23883 17.72949
v 4.374584 22.3234 16.51267
v 3.814697E-06 28.7135 8.996651
v 6.418636 25.5743 10.0109
v 18.14515 8.409559 26.53289
v 19.3191 1.402531 28.08671
v 15.66318 14.20162 22.77163
v 9.390789 22.34206 14.69416
v 12.91877 22.37986 10.39368
v 21.69785 14.19792 15.28512
v 15.66318 14.20162 22.77163
v 18.14515 8.409559 26.53289
v 25.23983 8.407305 17.7118
v 19.3191 1.402531 28.08671
v 26.7623 1.402389 18.85279
v 23.9267 14.14973 5.671562
v 14.37602 22.41275 4.513184
v 14.96143 22.30168 -2.555794
v 24.54901 14.12263 -2.844727
v 27.85942 8.380442 6.312706
v 28.55642 8.368088 -3.165627
v 7.249752 26.34055 -2.217094
v 7.30904 26.14483 4.208855
v 29.51134 1.400537 6.995705
v 30.27893 1.399496 -3.509048
v -0.0001869202 30.19109 -1.909081
v 0.0001869202 30.06543 3.806175
v -7.22234 26.34279 -2.217072
v -7.281498 26.14728 4.208786
v -14.96096 22.30213 -2.555763
v -14.37644 22.41231 4.513237
v -24.549 14.12263 -2.844727
v -23.92669 14.14973 5.671562
v -28.55639 8.368088 -3.165627
v -27.8594 8.380442 6.312706
v -30.27893 1.399496 -3.509048
v -29.51132 1.400538 6.995705
v -14.02121 22.36353 -8.354691
v -23.13517 14.16537 -12.54382
v -10.18745 22.33189 -14.38065
v -17.67974 14.20808 -21.34612
v -5.454334 22.33917 -16.12784
v -17.67974 14.20808 -21.34612
v -9.380535 14.16024 -25.36125
v -6.937817 25.67459 -8.030334
v -20.55368 8.412558 -24.96332
v -26.91178 8.391245 -14.65997
v -21.80633 1.402779 -26.32848
v -28.53511 1.401138 -15.47165
v -10.91268 8.386587 -29.57007
v -20.55368 8.412558 -24.96332
v -11.57003 1.400941 -31.28076
v -21.80633 1.402779 -26.32848
v 3.814697E-06 28.89295 -7.114136
v 0.04057693 22.3246 -16.82246
v 6.964016 25.6743 -8.009575
v 5.318043 22.30948 -16.51083
v 3.814697E-06 14.12588 -26.4583
v 8.959576 14.14017 -25.91528
v 3.814697E-06 8.368088 -30.84584
v 10.42129 8.37748 -30.21455
v 3.814697E-06 1.399621 -32.63387
v 11.05082 1.40017 -31.96411
v 14.02122 22.36465 -8.310928
v 10.49102 22.3599 -13.68896
v 18.13275 14.2107 -20.83634
v 23.13518 14.16537 -12.54382
v 21.0158 8.413654 -24.44945
v 26.91179 8.391245 -14.65997
v 28.53511 1.401138 -15.47165
v 22.36508 1.40288 -25.69971
v 18.13275 14.2107 -20.83634
v 21.0158 8.413654 -24.44945
v 22.36508 1.40288 -25.69971
vt 0.123877 0.643904
vt 0.197509 0.637768
vt 0.204589 0.582396
vt 0.12508 0.594305
vt 0.106323 0.673871
vt 0.074397 0.632812
vt 0.164413 0.681949
vt 0.077324 0.702505
vt 0.041231 0.679288
vt 0.064841 0.743264
vt 0.01335 0.733487
vt 0.095546 0.791236
vt 0.131131 0.73703
vt 0.045558 0.77245
vt 0 0.799146
vt 0.070006 0.839974
vt 0.024465 0.870521
vt 0.107878 0.880124
vt 0.078328 0.925613
vt 0.132104 0.965312
vt 0.163039 0.920327
vt 0.138426 0.829902
vt 0.196111 0.865716
vt 0.177625 0.766397
vt 0.235013 0.802616
vt 0.217912 0.704015
vt 0.275167 0.740617
vt 0.250272 0.654621
vt 0.310592 0.686877
vt 0.278787 0.607624
vt 0.337778 0.639809
vt 0.395148 0.690252
vt 0.350737 0.722166
vt 0.429715 0.762726
vt 0.387849 0.773653
vt 0.422303 0.834365
vt 0.374004 0.822709
vt 0.321158 0.774664
vt 0.390464 0.900866
vt 0.347011 0.873912
vt 0.349306 0.95698
vt 0.31687 0.917273
vt 0.282145 0.832407
vt 0.24636 0.892471
vt 0.27854 0.995855
vt 0.282331 0.9477
vt 0.202854 0.995855
vt 0.211702 0.941237
vt 0.092796 0.283674
vt 0.115192 0.344058
vt 0.18588 0.310727
vt 0.178309 0.274436
vt 0.217547 0.281863
vt 0.190565 0.243264
vt 0.117008 0.206889
vt 0.092942 0.255404
vt 0.046727 0.238002
vt 0.07685 0.18256
vt 0.00228 0.21652
vt 0.037229 0.156616
vt 0.044859 0.293112
vt 0.075449 0.363391
vt 0.034423 0.385074
vt 0 0.310246
vt 0.075256 0.108471
vt 0.111424 0.139704
vt 0.121228 0.060869
vt 0.152984 0.09766
vt 0.146707 0.170254
vt 0.182534 0.13428
vt 0.203883 0.219078
vt 0.22772 0.202394
vt 0.250509 0.260575
vt 0.268594 0.224715
vt 0.205834 0.057639
vt 0.178119 0.016203
vt 0.229518 0.101963
vt 0.258165 0.184964
vt 0.294403 0.189314
vt 0.32046 0.113803
vt 0.260969 0.097603
vt 0.265884 0.048341
vt 0.336126 0.071617
vt 0.279474 0
vt 0.355674 0.028135
vt 0.37165 0.146742
vt 0.326301 0.207513
vt 0.35933 0.233213
vt 0.411578 0.179837
vt 0.397522 0.111607
vt 0.442729 0.150086
vt 0.323262 0.267872
vt 0.297101 0.243296
vt 0.423692 0.072776
vt 0.477026 0.118874
vt 0.292271 0.296949
vt 0.271004 0.278433
vt 0.266308 0.33058
vt 0.238967 0.307648
vt 0.235771 0.369937
vt 0.206856 0.340171
vt 0.188705 0.427161
vt 0.151886 0.391327
vt 0.162086 0.460945
vt 0.119814 0.419978
vt 0.133797 0.497386
vt 0.083507 0.448861
vt 0.265153 0.388331
vt 0.23758 0.460951
vt 0.309098 0.396137
vt 0.299452 0.481156
vt 0.336434 0.381269
vt 0.325513 0.479356
vt 0.376602 0.448958
vt 0.292096 0.35112
vt 0.293374 0.529892
vt 0.22076 0.50203
vt 0.278182 0.57663
vt 0.199046 0.543455
vt 0.403186 0.485556
vt 0.346588 0.524182
vt 0.432426 0.522229
vt 0.371054 0.565219
vt 0.312469 0.314693
vt 0.361643 0.358577
vt 0.346356 0.291246
vt 0.381401 0.333729
vt 0.418494 0.408873
vt 0.452432 0.366126
vt 0.45214 0.43794
vt 0.491343 0.387817
vt 0.487052 0.468028
vt 0.530637 0.410251
vt 0.38046 0.26056
vt 0.390376 0.298408
vt 0.474745 0.281355
vt 0.449657 0.225479
vt 0.522346 0.269945
vt 0.488808 0.204678
vt 0.527999 0.180361
vt 0.565378 0.249448
vt 0.475691 0.305404
vt 0.521765 0.318873
vt 0.565378 0.334944
vn -0.171724 -0.9776847 0.121011
vn -0.198036 -0.9771591 0.077084
vn -0.6998612 -0.6622742 0.2675581
vn -0.6108669 -0.6844838 0.3978989
vn -0.08053497 -0.9922407 0.09472296
vn -0.4527092 -0.6983793 0.5543652
vn 0 -1 0
vn 0.005719999 -0.9895359 0.144174
vn 0.01939801 -0.7514532 0.6595012
vn 0.083946 -0.9917051 0.09733501
vn 0.4513201 -0.7002631 0.5531201
vn 0 -1 0
vn 0 -1 0
vn 0.1689909 -0.9781497 0.1211
vn 0.605582 -0.688129 0.399686
vn 0.196843 -0.9774548 0.07638699
vn 0.6986629 -0.665278 0.263202
vn 0.185202 -0.9817408 0.043418
vn 0.7195458 -0.6743878 0.165695
vn 0.73088 -0.6799989 0.05844699
vn 0.1783359 -0.9838605 0.01465499
vn 0 -1 0
vn 0 -1 0
vn 0 -1 0
vn 0 -1 0
vn 0 -1 0
vn 0 -1 0
vn -0.1848031 -0.9818204 0.04331902
vn -0.1778501 -0.9839495 0.01459301
vn -0.7195228 -0.6744148 0.1656859
vn -0.7305571 -0.6803501 0.05839501
vn -0.7360009 -0.6585729 -0.156794
vn -0.1861529 -0.9819455 -0.03361598
vn -0.5537319 -0.7099378 -0.4351659
vn -0.141864 -0.9828039 -0.118199
vn -0.223807 -0.758596 -0.611917
vn -0.034709 -0.992243 -0.119369
vn 0 -1 0
vn -0.023593 -0.7883949 -0.6147169
vn -0.003835002 -0.9938154 -0.110978
vn 0.2404 -0.7482849 -0.618286
vn 0.033731 -0.9924452 -0.117961
vn 0 -1 0
vn 0 -1 0
vn 0.5486701 -0.724975 -0.41638
vn 0.1316891 -0.9838355 -0.1213501
vn 0.7189183 -0.6788282 -0.1494951
vn 0.1867951 -0.9816835 -0.03748702
vn -0.6726405 0.5905556 0.4458687
vn -0.7792494 0.5506582 0.2992421
vn -0.5284361 0.8242691 0.203312
vn -0.4719403 0.8263315 0.3073252
vn -0.2802821 0.9503325 0.1353151
vn -0.353597 0.872482 0.33726
vn -0.5186372 0.6192463 0.5895333
vn -0.6726405 0.5905556 0.4458687
vn -0.8297508 -0.0003979999 0.5581339
vn -0.6252424 -0.0004860003 0.7804305
vn -0.6108669 -0.6844838 0.3978989
vn -0.4527092 -0.6983793 0.5543652
vn -0.8297508 -0.0003979999 0.5581339
vn -0.9335167 -0.0002469999 0.3585339
vn -0.6998612 -0.6622742 0.2675581
vn -0.6108669 -0.6844838 0.3978989
vn 0.01939801 -0.7514532 0.6595012
vn 0.03096 -0.001179 0.9995199
vn 0.4513201 -0.7002631 0.5531201
vn 0.623164 -0.000418 0.7820911
vn 0.021746 0.6683921 0.7434911
vn 0.5169364 0.6168764 0.5934984
vn 0.011102 0.9086717 0.4173639
vn 0.3533831 0.8706023 0.3423041
vn 0.00133 0.9899318 0.141539
vn 0.279535 0.9504499 0.136034
vn 0.8263178 -0.0004029999 0.5632039
vn 0.605582 -0.688129 0.399686
vn 0.6695451 0.5908861 0.4500701
vn 0.4673738 0.8280388 0.3096989
vn 0.528821 0.824949 0.199518
vn 0.7823502 0.5489791 0.2941941
vn 0.6695451 0.5908861 0.4500701
vn 0.8263178 -0.0004029999 0.5632039
vn 0.9357327 -0.0002369999 0.3527099
vn 0.605582 -0.688129 0.399686
vn 0.6986629 -0.665278 0.263202
vn 0.8096759 0.5575929 0.183071
vn 0.5271131 0.8423461 0.112271
vn 0.5136399 0.8572998 0.03480099
vn 0.8192156 0.5698437 0.06452797
vn 0.9735556 -0.0001889999 0.2284499
vn 0.996822 -0.000277 0.079661
vn 0.260464 0.9654722 -0.004699001
vn 0.2830511 0.9581124 0.04362101
vn 0.7195458 -0.6743878 0.165695
vn 0.73088 -0.6799989 0.05844699
vn -6.900004E-05 0.9998684 -0.01622301
vn 1.4E-05 0.9993537 0.03594699
vn -0.26042 0.9654841 -0.004679
vn -0.2830081 0.9581273 0.04357201
vn -0.5126301 0.8579101 0.03465001
vn -0.5262668 0.8429006 0.112079
vn -0.8190809 0.5700449 0.06446099
vn -0.8096751 0.557597 0.183062
vn -0.996822 -0.000278 0.079661
vn -0.9735559 -0.00019 0.228449
vn -0.7305571 -0.6803501 0.05839501
vn -0.7195228 -0.6744148 0.1656859
vn -0.493504 0.861869 -0.116772
vn -0.7833998 0.5959638 -0.176386
vn -0.350658 0.883624 -0.310238
vn -0.5983349 0.6513198 -0.4666668
vn -0.163796 0.9099669 -0.3809609
vn -0.5983349 0.6513198 -0.4666668
vn -0.2598568 0.6763256 -0.6892446
vn -0.200224 0.9729028 -0.115631
vn -0.7778733 -0.001013 -0.6284203
vn -0.9755146 -0.0008759996 -0.2199329
vn -0.5537319 -0.7099378 -0.4351659
vn -0.7360009 -0.6585729 -0.156794
vn -0.358962 -0.000515 -0.9333521
vn -0.7778733 -0.001013 -0.6284203
vn -0.223807 -0.758596 -0.611917
vn -0.5537319 -0.7099378 -0.4351659
vn -0.001618 0.9897452 -0.142835
vn -0.011346 0.9199779 -0.3918059
vn 0.2015229 0.9726446 -0.1155469
vn 0.172703 0.9083372 -0.3809161
vn -0.03000899 0.6866857 -0.7263348
vn 0.280433 0.6861659 -0.6712179
vn -0.039645 -0.000265 -0.9992138
vn 0.3801548 -0.0006619997 -0.9249226
vn -0.023593 -0.7883949 -0.6147169
vn 0.2404 -0.7482849 -0.618286
vn 0.4923049 0.8631299 -0.11244
vn 0.3598849 0.8822178 -0.3036029
vn 0.5983444 0.6539134 -0.4630133
vn 0.7847451 0.5964361 -0.168639
vn 0.7800528 -0.0009599998 -0.6257129
vn 0.9779363 -0.0008639994 -0.2089009
vn 0.7189183 -0.6788282 -0.1494951
vn 0.5486701 -0.724975 -0.41638
vn 0.5983444 0.6539134 -0.4630133
vn 0.7800528 -0.0009599998 -0.6257129
vn 0.5486701 -0.724975 -0.41638
g Rice_Raw1_0
f 3/3/3 2/2/2 1/1/1
f 4/4/4 3/3/3 1/1/1
f 1/1/1 5/5/5 4/4/4
f 5/5/5 1/1/1 2/2/2
f 5/5/5 6/6/6 4/4/4
f 7/7/7 5/5/5 2/2/2
f 5/5/5 8/8/8 6/6/6
f 8/8/8 9/9/9 6/6/6
f 8/8/8 10/10/10 9/9/9
f 10/10/10 11/11/11 9/9/9
f 12/12/12 10/10/10 8/8/8
f 13/13/13 12/12/12 8/8/8
f 13/13/13 8/8/8 5/5/5
f 7/7/7 13/13/13 5/5/5
f 10/10/10 14/14/14 11/11/11
f 14/14/14 15/15/15 11/11/11
f 15/15/15 14/14/14 16/16/16
f 16/16/16 14/14/14 10/10/10
f 12/12/12 16/16/16 10/10/10
f 17/17/17 15/15/15 16/16/16
f 17/17/17 16/16/16 18/18/18
f 18/18/18 16/16/16 12/12/12
f 19/19/19 17/17/17 18/18/18
f 19/19/19 18/18/18 20/20/20
f 18/18/18 21/21/21 20/20/20
f 18/18/18 22/22/22 21/21/21
f 22/22/22 12/12/12 13/13/13
f 22/22/22 18/18/18 12/12/12
f 22/22/22 23/23/23 21/21/21
f 23/23/23 22/22/22 24/24/24
f 24/24/24 22/22/22 13/13/13
f 25/25/25 23/23/23 24/24/24
f 24/24/24 26/26/26 25/25/25
f 26/26/26 27/27/27 25/25/25
f 27/27/27 26/26/26 28/28/28
f 29/29/29 27/27/27 28/28/28
f 29/29/29 28/28/28 30/30/30
f 31/31/31 29/29/29 30/30/30
f 29/29/29 31/31/31 32/32/32
f 33/33/33 29/29/29 32/32/32
f 27/27/27 29/29/29 33/33/33
f 33/33/33 32/32/32 34/34/34
f 35/35/35 33/33/33 34/34/34
f 34/34/34 36/36/36 35/35/35
f 36/36/36 37/37/37 35/35/35
f 38/38/38 33/33/33 35/35/35
f 37/37/37 38/38/38 35/35/35
f 38/38/38 27/27/27 33/33/33
f 36/36/36 39/39/39 37/37/37
f 39/39/39 40/40/40 37/37/37
f 37/37/37 40/40/40 38/38/38
f 39/39/39 41/41/41 40/40/40
f 41/41/41 42/42/42 40/40/40
f 40/40/40 42/42/42 43/43/43
f 40/40/40 43/43/43 38/38/38
f 42/42/42 44/44/44 43/43/43
f 41/41/41 45/45/45 42/42/42
f 45/45/45 46/46/46 42/42/42
f 42/42/42 46/46/46 44/44/44
f 45/45/45 47/47/47 46/46/46
f 47/47/47 48/48/48 46/46/46
f 46/46/46 48/48/48 44/44/44
f 47/47/47 20/20/20 48/48/48
f 20/20/20 21/21/21 48/48/48
f 43/43/43 44/44/44 25/25/25
f 44/44/44 23/23/23 25/25/25
f 48/48/48 21/21/21 23/23/23
f 44/44/44 48/48/48 23/23/23
f 43/43/43 25/25/25 27/27/27
f 38/38/38 43/43/43 27/27/27
f 51/51/51 50/50/50 49/49/49
f 52/52/52 51/51/51 49/49/49
f 53/53/53 51/51/51 52/52/52
f 54/54/54 53/53/53 52/52/52
f 55/55/55 54/54/54 52/52/52
f 56/56/56 55/55/55 52/52/52
f 55/55/55 56/56/56 57/57/57
f 58/58/58 55/55/55 57/57/57
f 58/58/58 57/57/57 59/59/59
f 60/60/60 58/58/58 59/59/59
f 61/61/61 49/49/49 50/50/50
f 62/62/62 61/61/61 50/50/50
f 62/62/62 63/63/63 61/61/61
f 63/63/63 64/64/64 61/61/61
f 60/60/60 65/65/65 58/58/58
f 65/65/65 66/66/66 58/58/58
f 58/58/58 66/66/66 55/55/55
f 66/66/66 65/65/65 67/67/67
f 68/68/68 66/66/66 67/67/67
f 66/66/66 68/68/68 69/69/69
f 66/66/66 69/69/69 55/55/55
f 55/55/55 69/69/69 54/54/54
f 68/68/68 70/70/70 69/69/69
f 69/69/69 70/70/70 71/71/71
f 70/70/70 72/72/72 71/71/71
f 71/71/71 72/72/72 73/73/73
f 72/72/72 74/74/74 73/73/73
f 68/68/68 67/67/67 75/75/75
f 68/68/68 75/75/75 70/70/70
f 67/67/67 76/76/76 75/75/75
f 75/75/75 77/77/77 70/70/70
f 70/70/70 77/77/77 72/72/72
f 77/77/77 78/78/78 72/72/72
f 72/72/72 78/78/78 74/74/74
f 78/78/78 79/79/79 74/74/74
f 80/80/80 79/79/79 78/78/78
f 81/81/81 80/80/80 78/78/78
f 80/80/80 81/81/81 82/82/82
f 83/83/83 80/80/80 82/82/82
f 83/83/83 82/82/82 84/84/84
f 85/85/85 83/83/83 84/84/84
f 71/71/71 73/73/73 53/53/53
f 54/54/54 71/71/71 53/53/53
f 80/80/80 86/86/86 79/79/79
f 86/86/86 87/87/87 79/79/79
f 88/88/88 87/87/87 86/86/86
f 89/89/89 88/88/88 86/86/86
f 86/86/86 90/90/90 89/89/89
f 83/83/83 85/85/85 90/90/90
f 90/90/90 86/86/86 80/80/80
f 83/83/83 90/90/90 80/80/80
f 90/90/90 91/91/91 89/89/89
f 88/88/88 92/92/92 87/87/87
f 92/92/92 93/93/93 87/87/87
f 91/91/91 90/90/90 94/94/94
f 85/85/85 94/94/94 90/90/90
f 95/95/95 91/91/91 94/94/94
f 92/92/92 96/96/96 93/93/93
f 96/96/96 97/97/97 93/93/93
f 97/97/97 96/96/96 98/98/98
f 99/99/99 97/97/97 98/98/98
f 99/99/99 98/98/98 100/100/100
f 101/101/101 99/99/99 100/100/100
f 100/100/100 102/102/102 101/101/101
f 102/102/102 103/103/103 101/101/101
f 102/102/102 104/104/104 103/103/103
f 104/104/104 105/105/105 103/103/103
f 105/105/105 104/104/104 106/106/106
f 107/107/107 105/105/105 106/106/106
f 101/101/101 103/103/103 50/50/50
f 51/51/51 101/101/101 50/50/50
f 99/99/99 101/101/101 51/51/51
f 100/100/100 108/108/108 102/102/102
f 108/108/108 109/109/109 102/102/102
f 104/104/104 102/102/102 109/109/109
f 109/109/109 108/108/108 110/110/110
f 111/111/111 109/109/109 110/110/110
f 112/112/112 110/110/110 108/108/108
f 110/110/110 112/112/112 113/113/113
f 112/112/112 114/114/114 113/113/113
f 115/115/115 112/112/112 108/108/108
f 109/109/109 111/111/111 116/116/116
f 117/117/117 109/109/109 116/116/116
f 117/117/117 104/104/104 109/109/109
f 117/117/117 116/116/116 118/118/118
f 119/119/119 117/117/117 118/118/118
f 114/114/114 120/120/120 113/113/113
f 120/120/120 121/121/121 113/113/113
f 120/120/120 122/122/122 121/121/121
f 122/122/122 123/123/123 121/121/121
f 115/115/115 124/124/124 112/112/112
f 124/124/124 125/125/125 112/112/112
f 112/112/112 125/125/125 114/114/114
f 124/124/124 126/126/126 125/125/125
f 126/126/126 127/127/127 125/125/125
f 125/125/125 127/127/127 128/128/128
f 125/125/125 128/128/128 114/114/114
f 114/114/114 128/128/128 120/120/120
f 127/127/127 129/129/129 128/128/128
f 130/130/130 128/128/128 129/129/129
f 128/128/128 130/130/130 120/120/120
f 120/120/120 130/130/130 122/122/122
f 131/131/131 130/130/130 129/129/129
f 130/130/130 131/131/131 132/132/132
f 130/130/130 132/132/132 122/122/122
f 131/131/131 133/133/133 132/132/132
f 126/126/126 134/134/134 127/127/127
f 134/134/134 135/135/135 127/127/127
f 127/127/127 135/135/135 129/129/129
f 136/136/136 135/135/135 134/134/134
f 137/137/137 136/136/136 134/134/134
f 138/138/138 136/136/136 137/137/137
f 139/139/139 138/138/138 137/137/137
f 139/139/139 140/140/140 138/138/138
f 140/140/140 141/141/141 138/138/138
f 135/135/135 142/142/142 129/129/129
f 129/129/129 142/142/142 143/143/143
f 131/131/131 129/129/129 143/143/143
f 131/131/131 143/143/143 133/133/133
f 143/143/143 144/144/144 133/133/133
f 137/137/137 134/134/134 88/88/88
f 89/89/89 137/137/137 88/88/88
f 139/139/139 137/137/137 89/89/89
f 95/95/95 140/140/140 139/139/139
f 91/91/91 95/95/95 139/139/139
f 91/91/91 139/139/139 89/89/89
f 88/88/88 134/134/134 126/126/126
f 92/92/92 88/88/88 126/126/126
f 92/92/92 126/126/126 124/124/124
f 96/96/96 92/92/92 124/124/124
f 96/96/96 124/124/124 115/115/115
f 98/98/98 96/96/96 115/115/115
f 98/98/98 115/115/115 100/100/100
f 115/115/115 108/108/108 100/100/100
f 69/69/69 71/71/71 54/54/54
f 2/2/2 3/3/3 30/30/30
f 28/28/28 2/2/2 30/30/30
f 7/7/7 2/2/2 28/28/28
f 26/26/26 7/7/7 28/28/28
f 26/26/26 24/24/24 7/7/7
f 24/24/24 13/13/13 7/7/7
f 119/119/119 106/106/106 104/104/104
f 117/117/117 119/119/119 104/104/104
f 53/53/53 99/99/99 51/51/51
f 53/53/53 73/73/73 99/99/99
f 73/73/73 97/97/97 99/99/99
f 73/73/73 74/74/74 97/97/97
f 74/74/74 93/93/93 97/97/97
f 74/74/74 79/79/79 93/93/93
f 79/79/79 87/87/87 93/93/93
f 107/107/107 63/63/63 62/62/62
f 105/105/105 107/107/107 62/62/62
f 105/105/105 62/62/62 103/103/103
f 62/62/62 50/50/50 103/103/103
