g Snow_Corner_Outer
v 16.21341 5.272345 50
v 17.37271 5.268533 39.53845
v 35.37121 9.216696 45.75789
v 34.98219 9.216696 50
v 23.282 5.272347 26.86749
v 38.21961 9.216696 38.64522
v 50 9.216696 50.00001
v 44.27079 9.216696 35.0575
v 50 9.216696 34.98199
v 35.85211 5.190954 18.74304
v 50 5.272345 15.64893
v 17.37271 5.268533 39.53845
v -4.475285E-06 1.848609E-07 50
v -2.567936E-06 1.848609E-07 36.89974
v 23.282 5.272347 26.86749
v 9.272309 1.848609E-07 14.51872
v 28.55466 1.848609E-07 3.334892
v 35.85211 5.190954 18.74304
v 38.21961 9.216696 38.64522
v 44.27079 9.216696 35.0575
v 50 5.272345 15.64893
v 50 1.848609E-07 8.242296E-13
vt 0.375 0.1430107
vt 0.375 0.2808686
vt 0.4491817 0.2817543
vt 0.4505944 0.25
vt 0.3750002 0.3125
vt 0.4491817 0.3098938
vt 0.625 0.2792969
vt 0.455267 0.3388832
vt 0.4659877 0.3726806
vt 0.375 0.3473223
vt 0.375 0.3674093
vt 0.3442419 0.1429074
vt 0.3750001 -1.397019E-08
vt 0.34375 0
vt 0.3125 0.1430106
vt 0.3125 0
vt 0.28125 2.90484E-08
vt 0.2765079 0.140803
vt 0.3125 0.25
vt 0.2844746 0.25
vt 0.25 0.1430107
vt 0.25 8.779351E-08
vn -0.2644679 0.9642357 -0.01750219
vn -0.2503153 0.9653457 -0.07382354
vn -0.16156 0.9857522 -0.04680749
vn -0.172157 0.9848989 -0.01834024
vn -0.1920754 0.9671407 -0.1665709
vn -0.1272508 0.9852546 -0.1143701
vn 0 1 0
vn -0.06109988 0.9839185 -0.1678427
vn -0.03065964 0.984669 -0.1717177
vn -0.09560623 0.963447 -0.2502581
vn -0.05111409 0.9599103 -0.2756077
vn -0.2503153 0.9653457 -0.07382354
vn -0.2983508 0.9543411 -0.01483412
vn -0.2792138 0.9572002 -0.07620657
vn -0.1920754 0.9671407 -0.1665709
vn -0.2084247 0.9610485 -0.1815071
vn -0.1083555 0.9556571 -0.2738223
vn -0.09560623 0.963447 -0.2502581
vn -0.1272508 0.9852546 -0.1143701
vn -0.06109988 0.9839185 -0.1678427
vn -0.05111409 0.9599103 -0.2756077
vn -0.05754727 0.9501056 -0.3065739
g Snow_Corner_Outer_0
f 3/3/3 2/2/2 1/1/1
f 4/4/4 3/3/3 1/1/1
f 5/5/5 2/2/2 3/3/3
f 6/6/6 5/5/5 3/3/3
f 6/6/6 3/3/3 7/7/7
f 4/4/4 7/7/7 3/3/3
f 7/7/7 8/8/8 6/6/6
f 7/7/7 9/9/9 8/8/8
f 10/10/10 8/8/8 9/9/9
f 11/11/11 10/10/10 9/9/9
f 13/13/13 1/1/1 12/12/12
f 14/14/14 13/13/13 12/12/12
f 14/14/14 12/12/12 15/15/15
f 16/16/16 14/14/14 15/15/15
f 16/16/16 15/15/15 17/17/17
f 15/15/15 18/18/18 17/17/17
f 15/15/15 19/19/19 18/18/18
f 19/19/19 20/20/20 18/18/18
f 17/17/17 18/18/18 21/21/21
f 22/22/22 17/17/17 21/21/21
