g Tent:Arctic_Cargo
v -29.62652 -0.233091 88.29524
v -34.9576 12.8001 91.31734
v -13.96514 12.8001 98.15797
v -11.84173 -0.2330929 94.90706
v 13.79813 12.8001 98.18159
v 11.68024 -0.2330929 94.92702
v 32.54639 12.8001 92.34944
v 27.56495 -0.2330929 89.28627
v -13.96514 29.0312 98.15797
v -34.9576 29.0312 91.31734
v 13.79813 29.0312 98.18159
v 32.54639 29.0312 92.34944
v -10.64596 43.00364 94.1913
v -26.62295 43.00364 87.63087
v 10.48572 43.00364 94.2093
v 24.75666 43.00364 88.60988
v -13.94659 48.46019 76.34248
v -31.75982 43.00364 73.23994
v 13.81669 48.46019 76.3661
v 31.63514 43.00364 73.29384
v -13.92803 48.46019 54.52693
v -31.742 43.00364 52.30653
v 13.83527 48.46019 54.55055
v 31.65296 43.00364 52.36042
v 41.57996 29.0312 76.38972
v 32.54639 12.8001 92.34944
v 41.57996 12.8001 76.38972
v 27.56495 -0.2330929 89.28627
v 35.22016 -0.2330929 73.85439
v 41.59852 12.8001 54.57423
v 35.23811 -0.2330929 52.76167
v 41.59852 29.0312 54.57423
v -41.69131 29.0312 54.50337
v -41.70986 29.0312 76.31886
v -41.69131 12.8001 54.50337
v -41.70986 12.8001 76.31886
v -35.32781 -0.233091 52.70167
v -35.34573 -0.233091 73.79439
v -34.9576 12.8001 91.31734
v -29.62652 -0.233091 88.29524
v 36.0423 12.34021 35.2314
v 30.62375 -0.2330929 35.25544
v 36.0423 28.67811 35.2314
v 27.50745 39.64359 35.23317
v -30.68368 -0.233091 35.20332
v -36.1022 12.34021 35.16999
v -36.1022 28.67811 35.16999
v -27.56738 39.64359 35.18629
v -14.35992 45.21769 35.22822
v 14.29999 45.21769 35.25264
v -30.03808 43.00364 10.44118
v -30.02029 43.00364 -10.49224
v -13.14178 48.46019 -10.91893
v -13.16033 48.46019 10.89656
v 13.16031 48.46019 -10.89659
v 13.14176 48.46019 10.91893
v 30.03809 43.00364 -10.44118
v 30.02027 43.00364 10.49223
v 39.44379 32.22909 10.94133
v 39.46235 32.22909 -10.87419
v 39.44379 15.99801 10.94133
v 39.46235 15.99801 -10.87419
v 33.41697 -0.2330929 10.57478
v 33.43491 -0.2330929 -10.5179
v -39.44381 32.22909 -10.94127
v -39.46236 32.22909 10.87422
v -39.44381 15.99801 -10.94127
v -39.46236 15.99801 10.87422
v -33.41698 -0.233091 -10.57472
v -33.43493 -0.233091 10.51793
v 14.03022 45.25382 28.87462
v -14.07934 45.25382 28.85075
v -27.51489 39.58706 28.8795
v 31.9152 14.2093 -28.9615
v 27.14524 -0.2330929 -28.95079
v -27.09594 -0.233091 -28.99687
v -31.8659 14.2093 -29.0157
v -35.8388 12.64041 28.83351
v -30.30316 -0.233091 28.81508
v -35.83233 28.91195 28.86552
v 27.46573 39.58706 28.92622
v 35.78315 28.91195 28.9264
v 35.78968 12.64041 28.89439
v 30.2541 -0.2330929 28.86656
v 31.8769 24.79017 -30.88933
v 24.4098 33.25277 -30.92873
v 12.74189 38.95377 -30.88677
v -12.68936 38.95377 -30.90837
v -24.35717 33.25276 -30.97017
v -31.82434 24.79017 -30.94347
v -27.98272 36.01468 -52.35732
v -27.96493 36.01468 -73.29073
v -12.20934 41.47124 -76.3647
v -12.2279 41.47124 -54.54918
v 12.33924 41.47124 -76.34386
v 12.32068 41.47124 -54.52834
v 28.08957 36.01468 -73.24309
v 28.07178 36.01468 -52.30968
v -9.262293 36.01468 -94.20824
v -22.64099 36.01468 -87.67271
v 9.422552 36.01468 -94.19237
v 22.03449 36.01468 -91.37584
v -12.19079 27.70448 -98.18019
v -29.76653 27.70448 -91.37239
v 12.35779 27.70448 -98.15935
v 28.92829 27.70448 -95.22121
v -12.19079 13.93774 -98.18019
v -29.76653 13.93774 -91.37239
v 12.35779 13.93774 -98.15935
v 28.92829 13.93774 -95.22121
v -10.31845 -0.2330929 -94.92586
v -25.20989 -0.2330929 -88.34184
v 10.47993 -0.2330929 -94.90819
v 24.51868 -0.2330929 -92.06911
v 36.88783 27.70448 -76.32295
v 36.88783 13.93774 -76.32295
v 28.92829 13.93774 -95.22121
v 31.26032 -0.2330929 -73.79781
v 24.51868 -0.2330929 -92.06911
v 31.24238 -0.2330929 -52.70516
v 36.86927 13.93774 -54.50743
v 36.86927 27.70448 -54.50743
v 26.85975 -0.2330929 -35.21502
v 31.61667 14.1377 -35.18444
v 31.58899 24.39205 -36.889
v 24.50275 32.43362 -36.92366
v 12.77128 38.16014 -36.97847
v -12.70837 38.16014 -37.00014
v -24.43991 32.43362 -36.96529
v -36.77648 27.70448 -54.57006
v -36.75793 27.70448 -76.38554
v -36.75793 13.93774 -76.38554
v -29.76653 13.93774 -91.37239
v -25.20989 -0.2330929 -88.34184
v -31.13476 -0.233091 -73.85088
v -36.77648 13.93774 -54.57006
v -31.1527 -0.233091 -52.7582
v -31.55676 14.1377 -35.23815
v -26.7998 -0.2330929 -35.26061
v -31.52618 24.39205 -36.94265
v -27.56738 39.64359 35.18629
v -36.1022 28.67811 35.16999
v -35.83233 28.91195 28.86552
v -27.51489 39.58706 28.8795
v -14.35992 45.21769 35.22822
v -14.07934 45.25382 28.85075
v 14.29999 45.21769 35.25264
v 14.03022 45.25382 28.87462
v 27.50745 39.64359 35.23317
v 27.46573 39.58706 28.92622
v 36.0423 28.67811 35.2314
v 35.78315 28.91195 28.9264
v 36.0423 12.34021 35.2314
v 35.78968 12.64041 28.89439
v 30.62375 -0.2330929 35.25544
v 30.2541 -0.2330929 28.86656
v -35.8388 12.64041 28.83351
v -36.1022 12.34021 35.16999
v -30.30316 -0.233091 28.81508
v -30.68368 -0.233091 35.20332
v -24.35717 33.25276 -30.97017
v -31.82434 24.79017 -30.94347
v -31.52618 24.39205 -36.94265
v -24.43991 32.43362 -36.96529
v -12.68936 38.95377 -30.90837
v -12.70837 38.16014 -37.00014
v 12.74189 38.95377 -30.88677
v 12.77128 38.16014 -36.97847
v 24.4098 33.25277 -30.92873
v 24.50275 32.43362 -36.92366
v 31.8769 24.79017 -30.88933
v 31.58899 24.39205 -36.889
v 31.9152 14.2093 -28.9615
v 31.61667 14.1377 -35.18444
v 27.14524 -0.2330929 -28.95079
v 26.85975 -0.2330929 -35.21502
v -31.55676 14.1377 -35.23815
v -31.8659 14.2093 -29.0157
v -26.7998 -0.2330929 -35.26061
v -27.09594 -0.233091 -28.99687
vt 0.990335 0.2130247
vt 0.931985 0.2024897
vt 0.943477 0.2872947
vt 0.9956419 0.2903467
vt 0.944536 0.3871977
vt 0.9954581 0.3828708
vt 0.939204 0.4616878
vt 0.9936261 0.4488307
vt 0.887292 0.2925248
vt 0.867543 0.2156408
vt 0.888997 0.3821288
vt 0.873338 0.4551578
vt 0.843862 0.3065047
vt 0.827271 0.2595438
vt 0.845248 0.3671048
vt 0.834245 0.4099058
vt 0.789189 0.2954578
vt 0.786851 0.2384548
vt 0.790795 0.3781837
vt 0.790754 0.4357718
vt 0.719741 0.2898887
vt 0.721586 0.2265908
vt 0.720631 0.3844517
vt 0.723679 0.4478538
vt 0.811891 0.4867128
vt 0.898829 0.5200428
vt 0.827763 0.5407177
vt 0.9120271 0.5815327
vt 0.838409 0.5978727
vt 0.751566 0.5607607
vt 0.753781 0.6172338
vt 0.741226 0.5039577
vt 0.740626 0.1712438
vt 0.811994 0.1881568
vt 0.753759 0.1139988
vt 0.830563 0.1355458
vt 0.759036 0.05529577
vt 0.841828 0.08092076
vt 0.890044 0.1530398
vt 0.901611 0.09701976
vt 0.676233 0.5773537
vt 0.682227 0.6323317
vt 0.665847 0.5117347
vt 0.653881 0.4554667
vt 0.683089 0.03483877
vt 0.674211 0.09400877
vt 0.663802 0.1632238
vt 0.655741 0.2207098
vt 0.646453 0.2787058
vt 0.646453 0.3958938
vt 0.539701 0.1889279
vt 0.472414 0.1939119
vt 0.472329 0.2501649
vt 0.545648 0.2486469
vt 0.472462 0.3365309
vt 0.545706 0.3391589
vt 0.473433 0.393436
vt 0.540039 0.3988369
vt 0.536031 0.4461859
vt 0.466417 0.4382709
vt 0.530293 0.5029079
vt 0.454173 0.4902029
vt 0.520765 0.5692189
vt 0.438611 0.5523459
vt 0.467951 0.1499149
vt 0.536969 0.1407599
vt 0.456956 0.0976119
vt 0.532082 0.08526391
vt 0.442462 0.03421792
vt 0.523469 0.02157593
vt 0.612114 0.3486779
vt 0.612761 0.2399979
vt 0.609687 0.1826599
vt 0.3822 0.4798539
vt 0.364059 0.5365369
vt 0.364059 0.04934993
vt 0.382918 0.1083149
vt 0.598452 0.06557193
vt 0.594449 0.01161292
vt 0.603652 0.1289119
vt 0.606857 0.4049569
vt 0.6029871 0.4573029
vt 0.599923 0.5225549
vt 0.596592 0.5797039
vt 0.385934 0.4376799
vt 0.38894 0.3926409
vt 0.392205 0.3420569
vt 0.393371 0.2432959
vt 0.392952 0.1932929
vt 0.388451 0.1505159
vt 0.2658352 0.1964907
vt 0.1968241 0.2053787
vt 0.1943002 0.2596777
vt 0.2659321 0.2543597
vt 0.1960012 0.3353497
vt 0.2670302 0.3388427
vt 0.2020131 0.3877497
vt 0.2685072 0.3955497
vt 0.1373132 0.2696097
vt 0.1525322 0.2265927
vt 0.1377032 0.3265657
vt 0.1469692 0.3661608
vt 0.1091902 0.2582457
vt 0.1260152 0.1921037
vt 0.1084722 0.3374287
vt 0.1190142 0.3973207
vt 0.06367118 0.2521718
vt 0.07265518 0.1835417
vt 0.06009416 0.3393958
vt 0.06438518 0.4041457
vt 0.00984416 0.2519217
vt 0.01502917 0.1899867
vt 0.00429318 0.3329368
vt 0.00429318 0.3907957
vt 0.1867892 0.4243457
vt 0.1752462 0.4678407
vt 0.1034482 0.4493817
vt 0.1684462 0.5238967
vt 0.09571118 0.5070317
vt 0.2510172 0.5407968
vt 0.2502441 0.4809427
vt 0.2551302 0.4335498
vt 0.3267751 0.5505397
vt 0.3289902 0.4860017
vt 0.3228592 0.4438198
vt 0.3274062 0.4005497
vt 0.3336682 0.3480707
vt 0.3335952 0.2445557
vt 0.3288141 0.1905597
vt 0.2529241 0.1563727
vt 0.1820711 0.1679397
vt 0.1718192 0.1211347
vt 0.1075012 0.1365247
vt 0.09962318 0.07113272
vt 0.1665062 0.06043172
vt 0.2493781 0.1084837
vt 0.2525992 0.04916573
vt 0.3265432 0.1041017
vt 0.3255911 0.04258072
vt 0.3219652 0.1462937
vt 0.3594807 0.1917518
vt 0.3590987 0.1420938
vt 0.3365747 0.1434928
vt 0.3369407 0.1918548
vt 0.3596507 0.2429827
vt 0.3368577 0.2439657
vt 0.3596477 0.3454047
vt 0.3368557 0.3444208
vt 0.3594747 0.3966337
vt 0.3369357 0.3965298
vt 0.3590897 0.4462878
vt 0.3365687 0.4448878
vt 0.3576277 0.5046518
vt 0.3349997 0.5030128
vt 0.3555298 0.5535318
vt 0.3326667 0.5530337
vt 0.3350087 0.08536276
vt 0.3576398 0.08372375
vt 0.3326778 0.03533578
vt 0.3555427 0.03483877
vt 0.6406983 0.2212844
vt 0.6369832 0.1811234
vt 0.6155353 0.1827945
vt 0.6190752 0.2209355
vt 0.6434953 0.2676084
vt 0.6215422 0.2675225
vt 0.6434953 0.3584895
vt 0.6215422 0.3585764
vt 0.6406983 0.4048134
vt 0.6190752 0.4051634
vt 0.6369832 0.4449735
vt 0.6155362 0.4433025
vt 0.6383762 0.4833834
vt 0.6163052 0.4804424
vt 0.6298403 0.5370635
vt 0.6076632 0.5338454
vt 0.6163052 0.1456534
vt 0.6383762 0.1427134
vt 0.6076632 0.09225044
vt 0.6298403 0.08903244
vn -0.5712028 -0.3935269 0.7203222
vn -0.6304931 -0.175708 0.7560458
vn -0.1472433 -0.1194291 0.9818636
vn -0.1319548 -0.272106 0.9531769
vn 0.1313497 -0.117174 0.9843869
vn 0.1167906 -0.268064 0.9562957
vn 0.6284535 -0.1762309 0.7576205
vn 0.5716676 -0.3903812 0.7216638
vn -0.1527006 0.144818 0.9776044
vn -0.6373764 0.238483 0.7327191
vn 0.136492 0.14102 0.9805525
vn 0.6346166 0.240118 0.7345783
vn -0.1046977 0.7220489 0.6838741
vn -0.4452301 0.71988 0.5324875
vn 0.09584758 0.7269068 0.6800146
vn 0.4461667 0.7189866 0.5329105
vn -0.1036526 0.9882442 0.1123819
vn -0.5803959 0.8080286 0.1011453
vn 0.1040437 0.9881107 0.1131915
vn 0.5881191 0.7991546 0.1243692
vn -0.1146369 0.9901708 -0.08012552
vn -0.581845 0.805056 -0.115504
vn 0.114773 0.9901708 -0.07993039
vn 0.5820406 0.805056 -0.114514
vn 0.9311584 0.2943191 0.2152212
vn 0.6284535 -0.1762309 0.7576205
vn 0.9519757 -0.206288 0.2262468
vn 0.5716676 -0.3903812 0.7216638
vn 0.874021 -0.4481752 0.1876866
vn 0.9735796 -0.194315 -0.1199349
vn 0.9000505 -0.4176601 -0.1243755
vn 0.9479657 0.2935698 -0.1231986
vn -0.9477548 0.2935699 -0.1248102
vn -0.9397418 0.2982101 0.1672008
vn -0.9733742 -0.194315 -0.121591
vn -0.9622667 -0.207709 0.1757835
vn -0.8998376 -0.4176601 -0.1259065
vn -0.8826916 -0.4479162 0.1422203
vn -0.6304931 -0.175708 0.7560458
vn -0.5712028 -0.3935269 0.7203222
vn 0.945836 -0.1881769 -0.2645445
vn 0.8881445 -0.3917689 -0.2402426
vn 0.91487 0.2874919 -0.2834807
vn 0.561137 0.7915728 -0.2419457
vn -0.8877347 -0.391768 -0.2417542
vn -0.9453848 -0.188176 -0.2661532
vn -0.9143863 0.2874921 -0.285037
vn -0.5607246 0.7915729 -0.2429
vn -0.1190041 0.9762707 -0.1809243
vn 0.1193117 0.9762707 -0.1807215
vn -0.5389029 0.8370905 0.09414358
vn -0.5235589 0.823367 -0.2189814
vn -0.1258483 0.9674293 -0.2196422
vn -0.1235704 0.9888777 0.0827719
vn 0.1262208 0.9674295 -0.2194278
vn 0.1234294 0.9888777 0.082982
vn 0.5239307 0.8233669 -0.2180904
vn 0.5387421 0.8370905 0.09506022
vn 0.9384418 0.328603 0.1065223
vn 0.9160793 0.3446529 -0.2049708
vn 0.9819838 -0.171434 0.07948831
vn 0.9717519 -0.177261 -0.1558105
vn 0.9319304 -0.3573752 0.06155375
vn 0.9284925 -0.3384171 -0.1528903
vn -0.9157293 0.3446529 -0.2065289
vn -0.9386213 0.3286039 0.1049256
vn -0.9714853 -0.177262 -0.1574634
vn -0.9821176 -0.171434 0.07781763
vn -0.9282306 -0.3384179 -0.1544706
vn -0.9320339 -0.3573748 0.05996719
vn 0.1383627 0.9736108 0.1814877
vn -0.1386722 0.9736106 0.1812521
vn -0.5479888 0.8078459 0.2170099
vn 0.9197175 -0.187607 -0.3448528
vn 0.8917187 -0.3177501 -0.3222927
vn -0.8911687 -0.3177509 -0.32381
vn -0.9191293 -0.1876079 -0.3464168
vn -0.9637163 -0.20814 0.1671183
vn -0.91992 -0.3672479 0.1373906
vn -0.9297522 0.2879369 0.2294631
vn 0.547618 0.8078464 0.217942
vn 0.9293607 0.287936 0.2310446
vn 0.9634303 -0.2081419 0.1687575
vn 0.9196843 -0.3672491 0.1389564
vn 0.8506685 0.2891949 -0.4390094
vn 0.4984603 0.7318479 -0.4646891
vn 0.134449 0.8869293 -0.4419049
vn -0.133698 0.8869291 -0.4421329
vn -0.4976702 0.731847 -0.4655365
vn -0.8499205 0.2891949 -0.440456
vn -0.5110802 0.8500909 0.1270533
vn -0.4915176 0.8666978 -0.0851201
vn -0.1163611 0.9866509 -0.11393
vn -0.1297001 0.9879279 0.0847137
vn 0.1141488 0.9871999 -0.1113839
vn 0.1295558 0.9879279 0.08493423
vn 0.4924657 0.866033 -0.08639813
vn 0.5108634 0.8500909 0.1279226
vn -0.0970064 0.8288879 -0.5509397
vn -0.3979259 0.8203821 -0.4106437
vn 0.07073105 0.8434151 -0.5325861
vn 0.3791589 0.8318511 -0.4052927
vn -0.1717499 0.190021 -0.9666405
vn -0.6626418 0.2889622 -0.6909463
vn 0.07888195 0.1739109 -0.9815969
vn 0.6685114 0.299267 -0.6808317
vn -0.1676473 -0.125073 -0.977881
vn -0.6715462 -0.1755661 -0.7198627
vn 0.07648127 -0.117214 -0.9901574
vn 0.6757399 -0.181491 -0.7144485
vn -0.1548225 -0.2515941 -0.9553692
vn -0.633637 -0.3484981 -0.6906905
vn 0.06851647 -0.23627 -0.9692689
vn 0.6254588 -0.360435 -0.6920173
vn 0.9212723 0.345957 -0.1776824
vn 0.9626109 -0.195449 -0.1875633
vn 0.6757399 -0.181491 -0.7144485
vn 0.9129174 -0.3768629 -0.1567045
vn 0.6254588 -0.360435 -0.6920173
vn 0.9298868 -0.345485 0.126296
vn 0.9761515 -0.185745 0.1123693
vn 0.9228882 0.3641801 0.1251011
vn 0.9166145 -0.3184779 0.2416397
vn 0.9484421 -0.1822101 0.2593399
vn 0.9016547 0.298847 0.3125851
vn 0.5144933 0.8130996 0.2723337
vn 0.1352044 0.9698012 0.2029911
vn -0.1355496 0.9698012 0.2027608
vn -0.5149552 0.8131001 0.2714581
vn -0.9230993 0.364181 0.1235308
vn -0.9221702 0.3456259 -0.1736224
vn -0.9633111 -0.195915 -0.1834364
vn -0.6715462 -0.1755661 -0.7198627
vn -0.633637 -0.3484981 -0.6906905
vn -0.9126347 -0.3790792 -0.1529604
vn -0.9763414 -0.185745 0.1107085
vn -0.9301006 -0.345484 0.1247139
vn -0.9488822 -0.1822089 0.2577259
vn -0.9170243 -0.3184779 0.24008
vn -0.9021848 0.2988479 0.3110507
vn -0.6022736 0.7981995 -0.01199629
vn -0.9575197 0.286778 -0.03023848
vn -0.9517418 0.3054951 -0.02933258
vn -0.6021903 0.7982625 -0.01199724
vn -0.1378077 0.990459 -0.0003822198
vn -0.12812 0.9917586 4.702067E-05
vn 0.1378091 0.9904588 -0.0001477792
vn 0.1281208 0.9917585 0.0002649799
vn 0.6022937 0.7981992 -0.01097169
vn 0.6022105 0.798262 -0.01097176
vn 0.9575694 0.2867789 -0.02860949
vn 0.9517899 0.305496 -0.02771342
vn 0.9804827 -0.1906759 -0.04791999
vn 0.9822915 -0.1812159 -0.04758546
vn 0.9171647 -0.3948101 -0.0541639
vn 0.9171647 -0.3948101 -0.0541639
vn -0.982209 -0.1812159 -0.04925647
vn -0.9803997 -0.1906759 -0.04958792
vn -0.9170718 -0.3948089 -0.05572408
vn -0.9170718 -0.3948089 -0.05572408
vn -0.579612 0.8084317 -0.102412
vn -0.9362168 0.3445511 -0.06915739
vn -0.928309 0.3651401 -0.07010767
vn -0.5980456 0.7951478 -0.1004057
vn -0.1454106 0.9811171 -0.1275347
vn -0.1536877 0.9798777 -0.1273577
vn 0.1456254 0.9811172 -0.1272882
vn 0.1539041 0.9798777 -0.1270961
vn 0.5797828 0.8084334 -0.1014269
vn 0.5982127 0.7951498 -0.09939017
vn 0.9363318 0.344554 -0.06756558
vn 0.9284253 0.3651439 -0.06853028
vn 0.9790475 -0.198586 -0.04505223
vn 0.9815591 -0.185717 -0.04528711
vn 0.9485949 -0.3136171 -0.04256815
vn 0.9485949 -0.3136171 -0.04256815
vn -0.9814803 -0.185719 -0.04695686
vn -0.9789692 -0.1985869 -0.04671672
vn -0.9485214 -0.3136159 -0.04418182
vn -0.9485214 -0.3136159 -0.04418182
g Tent:Arctic_Cargo_0
f 3/3/3 2/2/2 1/1/1
f 4/4/4 3/3/3 1/1/1
f 5/5/5 3/3/3 4/4/4
f 6/6/6 5/5/5 4/4/4
f 7/7/7 5/5/5 6/6/6
f 8/8/8 7/7/7 6/6/6
f 3/3/3 9/9/9 2/2/2
f 9/9/9 10/10/10 2/2/2
f 11/11/11 9/9/9 3/3/3
f 5/5/5 11/11/11 3/3/3
f 12/12/12 11/11/11 5/5/5
f 7/7/7 12/12/12 5/5/5
f 9/9/9 13/13/13 10/10/10
f 13/13/13 14/14/14 10/10/10
f 15/15/15 13/13/13 9/9/9
f 11/11/11 15/15/15 9/9/9
f 16/16/16 15/15/15 11/11/11
f 12/12/12 16/16/16 11/11/11
f 13/13/13 17/17/17 14/14/14
f 17/17/17 18/18/18 14/14/14
f 19/19/19 17/17/17 13/13/13
f 15/15/15 19/19/19 13/13/13
f 20/20/20 19/19/19 15/15/15
f 16/16/16 20/20/20 15/15/15
f 20/20/20 16/16/16 12/12/12
f 17/17/17 21/21/21 18/18/18
f 21/21/21 22/22/22 18/18/18
f 23/23/23 21/21/21 17/17/17
f 19/19/19 23/23/23 17/17/17
f 24/24/24 23/23/23 19/19/19
f 20/20/20 24/24/24 19/19/19
f 24/24/24 20/20/20 25/25/25
f 25/25/25 20/20/20 12/12/12
f 25/25/25 12/12/12 26/26/26
f 27/27/27 25/25/25 26/26/26
f 27/27/27 26/26/26 28/28/28
f 29/29/29 27/27/27 28/28/28
f 30/30/30 27/27/27 29/29/29
f 31/31/31 30/30/30 29/29/29
f 32/32/32 25/25/25 27/27/27
f 30/30/30 32/32/32 27/27/27
f 32/32/32 24/24/24 25/25/25
f 18/18/18 22/22/22 33/33/33
f 34/34/34 18/18/18 33/33/33
f 34/34/34 33/33/33 35/35/35
f 36/36/36 34/34/34 35/35/35
f 36/36/36 35/35/35 37/37/37
f 38/38/38 36/36/36 37/37/37
f 39/39/39 36/36/36 38/38/38
f 40/40/40 39/39/39 38/38/38
f 10/10/10 34/34/34 36/36/36
f 39/39/39 10/10/10 36/36/36
f 10/10/10 14/14/14 34/34/34
f 14/14/14 18/18/18 34/34/34
f 41/41/41 30/30/30 31/31/31
f 42/42/42 41/41/41 31/31/31
f 43/43/43 32/32/32 30/30/30
f 41/41/41 43/43/43 30/30/30
f 43/43/43 44/44/44 32/32/32
f 37/37/37 35/35/35 45/45/45
f 35/35/35 46/46/46 45/45/45
f 35/35/35 33/33/33 46/46/46
f 33/33/33 47/47/47 46/46/46
f 33/33/33 22/22/22 47/47/47
f 22/22/22 48/48/48 47/47/47
f 49/49/49 48/48/48 22/22/22
f 21/21/21 49/49/49 22/22/22
f 50/50/50 49/49/49 21/21/21
f 23/23/23 50/50/50 21/21/21
f 44/44/44 50/50/50 23/23/23
f 24/24/24 44/44/44 23/23/23
f 44/44/44 24/24/24 32/32/32
f 53/53/53 52/52/52 51/51/51
f 54/54/54 53/53/53 51/51/51
f 55/55/55 53/53/53 54/54/54
f 56/56/56 55/55/55 54/54/54
f 57/57/57 55/55/55 56/56/56
f 58/58/58 57/57/57 56/56/56
f 57/57/57 58/58/58 59/59/59
f 60/60/60 57/57/57 59/59/59
f 60/60/60 59/59/59 61/61/61
f 62/62/62 60/60/60 61/61/61
f 62/62/62 61/61/61 63/63/63
f 64/64/64 62/62/62 63/63/63
f 51/51/51 52/52/52 65/65/65
f 66/66/66 51/51/51 65/65/65
f 66/66/66 65/65/65 67/67/67
f 68/68/68 66/66/66 67/67/67
f 68/68/68 67/67/67 69/69/69
f 70/70/70 68/68/68 69/69/69
f 58/58/58 56/56/56 71/71/71
f 71/71/71 56/56/56 72/72/72
f 56/56/56 54/54/54 72/72/72
f 72/72/72 54/54/54 73/73/73
f 54/54/54 51/51/51 73/73/73
f 73/73/73 51/51/51 66/66/66
f 74/74/74 62/62/62 64/64/64
f 75/75/75 74/74/74 64/64/64
f 69/69/69 67/67/67 76/76/76
f 67/67/67 77/77/77 76/76/76
f 67/67/67 65/65/65 77/77/77
f 78/78/78 68/68/68 70/70/70
f 79/79/79 78/78/78 70/70/70
f 78/78/78 80/80/80 68/68/68
f 80/80/80 66/66/66 68/68/68
f 80/80/80 73/73/73 66/66/66
f 81/81/81 58/58/58 71/71/71
f 58/58/58 81/81/81 82/82/82
f 59/59/59 58/58/58 82/82/82
f 59/59/59 82/82/82 83/83/83
f 61/61/61 59/59/59 83/83/83
f 61/61/61 83/83/83 84/84/84
f 63/63/63 61/61/61 84/84/84
f 74/74/74 85/85/85 62/62/62
f 85/85/85 60/60/60 62/62/62
f 85/85/85 86/86/86 60/60/60
f 86/86/86 57/57/57 60/60/60
f 57/57/57 86/86/86 55/55/55
f 86/86/86 87/87/87 55/55/55
f 55/55/55 87/87/87 53/53/53
f 87/87/87 88/88/88 53/53/53
f 53/53/53 88/88/88 52/52/52
f 88/88/88 89/89/89 52/52/52
f 52/52/52 89/89/89 90/90/90
f 65/65/65 52/52/52 90/90/90
f 65/65/65 90/90/90 77/77/77
f 93/93/93 92/92/92 91/91/91
f 94/94/94 93/93/93 91/91/91
f 95/95/95 93/93/93 94/94/94
f 96/96/96 95/95/95 94/94/94
f 97/97/97 95/95/95 96/96/96
f 98/98/98 97/97/97 96/96/96
f 93/93/93 99/99/99 92/92/92
f 99/99/99 100/100/100 92/92/92
f 101/101/101 99/99/99 93/93/93
f 95/95/95 101/101/101 93/93/93
f 102/102/102 101/101/101 95/95/95
f 97/97/97 102/102/102 95/95/95
f 99/99/99 103/103/103 100/100/100
f 103/103/103 104/104/104 100/100/100
f 92/92/92 100/100/100 104/104/104
f 105/105/105 103/103/103 99/99/99
f 101/101/101 105/105/105 99/99/99
f 106/106/106 105/105/105 101/101/101
f 102/102/102 106/106/106 101/101/101
f 103/103/103 107/107/107 104/104/104
f 107/107/107 108/108/108 104/104/104
f 109/109/109 107/107/107 103/103/103
f 105/105/105 109/109/109 103/103/103
f 110/110/110 109/109/109 105/105/105
f 106/106/106 110/110/110 105/105/105
f 107/107/107 111/111/111 108/108/108
f 111/111/111 112/112/112 108/108/108
f 113/113/113 111/111/111 107/107/107
f 109/109/109 113/113/113 107/107/107
f 114/114/114 113/113/113 109/109/109
f 110/110/110 114/114/114 109/109/109
f 106/106/106 102/102/102 115/115/115
f 106/106/106 115/115/115 116/116/116
f 117/117/117 106/106/106 116/116/116
f 117/117/117 116/116/116 118/118/118
f 119/119/119 117/117/117 118/118/118
f 118/118/118 116/116/116 120/120/120
f 116/116/116 121/121/121 120/120/120
f 116/116/116 115/115/115 121/121/121
f 115/115/115 122/122/122 121/121/121
f 115/115/115 97/97/97 122/122/122
f 102/102/102 97/97/97 115/115/115
f 97/97/97 98/98/98 122/122/122
f 120/120/120 121/121/121 123/123/123
f 121/121/121 124/124/124 123/123/123
f 121/121/121 122/122/122 124/124/124
f 122/122/122 125/125/125 124/124/124
f 122/122/122 98/98/98 125/125/125
f 98/98/98 126/126/126 125/125/125
f 126/126/126 98/98/98 127/127/127
f 98/98/98 96/96/96 127/127/127
f 127/127/127 96/96/96 128/128/128
f 96/96/96 94/94/94 128/128/128
f 128/128/128 94/94/94 129/129/129
f 94/94/94 91/91/91 129/129/129
f 129/129/129 91/91/91 130/130/130
f 130/130/130 91/91/91 131/131/131
f 130/130/130 131/131/131 132/132/132
f 132/132/132 131/131/131 133/133/133
f 132/132/132 133/133/133 134/134/134
f 135/135/135 132/132/132 134/134/134
f 136/136/136 132/132/132 135/135/135
f 136/136/136 130/130/130 132/132/132
f 137/137/137 136/136/136 135/135/135
f 131/131/131 104/104/104 133/133/133
f 131/131/131 92/92/92 104/104/104
f 91/91/91 92/92/92 131/131/131
f 138/138/138 136/136/136 137/137/137
f 139/139/139 138/138/138 137/137/137
f 140/140/140 130/130/130 136/136/136
f 138/138/138 140/140/140 136/136/136
f 140/140/140 129/129/129 130/130/130
f 143/143/143 142/142/142 141/141/141
f 144/144/144 143/143/143 141/141/141
f 141/141/141 145/145/145 144/144/144
f 145/145/145 146/146/146 144/144/144
f 145/145/145 147/147/147 146/146/146
f 147/147/147 148/148/148 146/146/146
f 147/147/147 149/149/149 148/148/148
f 149/149/149 150/150/150 148/148/148
f 149/149/149 151/151/151 150/150/150
f 151/151/151 152/152/152 150/150/150
f 152/152/152 151/151/151 153/153/153
f 154/154/154 152/152/152 153/153/153
f 154/154/154 153/153/153 155/155/155
f 156/156/156 154/154/154 155/155/155
f 142/142/142 143/143/143 157/157/157
f 158/158/158 142/142/142 157/157/157
f 158/158/158 157/157/157 159/159/159
f 160/160/160 158/158/158 159/159/159
f 163/163/163 162/162/162 161/161/161
f 164/164/164 163/163/163 161/161/161
f 161/161/161 165/165/165 164/164/164
f 165/165/165 166/166/166 164/164/164
f 165/165/165 167/167/167 166/166/166
f 167/167/167 168/168/168 166/166/166
f 167/167/167 169/169/169 168/168/168
f 169/169/169 170/170/170 168/168/168
f 169/169/169 171/171/171 170/170/170
f 171/171/171 172/172/172 170/170/170
f 172/172/172 171/171/171 173/173/173
f 174/174/174 172/172/172 173/173/173
f 174/174/174 173/173/173 175/175/175
f 176/176/176 174/174/174 175/175/175
f 162/162/162 163/163/163 177/177/177
f 178/178/178 162/162/162 177/177/177
f 178/178/178 177/177/177 179/179/179
f 180/180/180 178/178/178 179/179/179
