g VelvetRope_SupportOnly
v 3.671272 -1.662205 2.805038
v 3.671272 55.30275 2.805038
v 1.981033 55.30275 1.114807
v 1.981033 -1.662205 1.114807
v -0.3278809 55.30275 0.4961243
v -0.3278809 -1.662205 0.4961243
v -2.636795 55.30275 1.114807
v -2.636795 -1.662205 1.114807
v -4.327034 55.30275 2.805038
v -4.327034 -1.662205 2.805038
v -4.945705 55.30275 5.113953
v -4.945705 -1.662205 5.113953
v -4.327034 55.30275 7.422867
v -4.327034 -1.662205 7.422867
v -2.636795 55.30275 9.113098
v -2.636795 -1.662205 9.113098
v -0.3278809 55.30275 9.731781
v -0.3278809 -1.662205 9.731781
v 1.981033 55.30275 9.113098
v 1.981033 -1.662205 9.113098
v 3.671272 55.30275 7.422867
v 3.671272 -1.662205 7.422867
v 4.289944 55.30275 5.113953
v 4.289944 -1.662205 5.113953
v 3.671272 55.30275 2.805038
v 3.671272 -1.662205 2.805038
v 1.981033 -1.662205 1.114807
v -0.3278809 -1.662205 5.113953
v 3.671272 -1.662205 2.805038
v -0.3278809 -1.662205 0.4961243
v -2.636795 -1.662205 1.114807
v -4.327034 -1.662205 2.805038
v -4.945705 -1.662205 5.113953
v -4.327034 -1.662205 7.422867
v -2.636795 -1.662205 9.113098
v -0.3278809 -1.662205 9.731781
v 1.981033 -1.662205 9.113098
v 3.671272 -1.662205 7.422867
v 4.289944 -1.662205 5.113953
v 3.671272 55.30275 2.805038
v -0.3278809 55.30275 5.113953
v 1.981033 55.30275 1.114807
v -0.3278809 55.30275 0.4961243
v -2.636795 55.30275 1.114807
v -4.327034 55.30275 2.805038
v -4.945705 55.30275 5.113953
v -4.327034 55.30275 7.422867
v -2.636795 55.30275 9.113098
v -0.3278809 55.30275 9.731781
v 1.981033 55.30275 9.113098
v 3.671272 55.30275 7.422867
v 4.289944 55.30275 5.113953
vt 0.1898979 0.4497387
vt 0.1445718 0.4497388
vt 0.1445718 0.4522506
vt 0.1898979 0.4522506
vt 0.1445718 0.4547624
vt 0.1898979 0.4547624
vt 0.1445718 0.4572742
vt 0.1898979 0.4572742
vt 0.1445718 0.4597861
vt 0.1898979 0.459786
vt 0.1445718 0.4622979
vt 0.1898979 0.4622979
vt 0.1445718 0.4648097
vt 0.1898979 0.4648097
vt 0.1445718 0.4673215
vt 0.1898979 0.4673215
vt 0.1445718 0.4698333
vt 0.1898979 0.4698333
vt 0.1445718 0.4723451
vt 0.1898979 0.4723451
vt 0.1445718 0.4748569
vt 0.1898979 0.4748569
vt 0.1445718 0.4773688
vt 0.1898979 0.4773687
vt 0.1445718 0.4798806
vt 0.1898978 0.4798806
vt 0.2250513 0.474229
vt 0.20949 0.4648097
vt 0.2181559 0.4811244
vt 0.2275752 0.4648096
vt 0.2250513 0.4553904
vt 0.2181558 0.4484949
vt 0.2087365 0.445971
vt 0.1993171 0.4484949
vt 0.1924217 0.4553903
vt 0.1898979 0.4648097
vt 0.1924218 0.474229
vt 0.1993172 0.4811244
vt 0.2087365 0.4836483
vt 0.1164272 0.4811244
vt 0.1266 0.4648097
vt 0.1095317 0.474229
vt 0.1070078 0.4648097
vt 0.1095317 0.4553903
vt 0.1164271 0.4484949
vt 0.1258464 0.445971
vt 0.1352658 0.4484949
vt 0.1421612 0.4553904
vt 0.1446851 0.4648097
vt 0.1421612 0.474229
vt 0.1352658 0.4811244
vt 0.1258464 0.4836483
vn 0.8660246 0 -0.5000014
vn 0.8660246 0 -0.5000014
vn 0.499998 0 -0.8660266
vn 0.499998 0 -0.8660266
vn 0 0 -1
vn 0 0 -1
vn -0.499998 0 -0.8660266
vn -0.499998 0 -0.8660266
vn -0.8660246 0 -0.5000014
vn -0.8660246 0 -0.5000014
vn -1 0 0
vn -1 0 0
vn -0.8660255 0 0.4999997
vn -0.8660255 0 0.4999997
vn -0.5000008 0 0.8660249
vn -0.5000008 0 0.8660249
vn 0 0 1
vn 0 0 1
vn 0.5000008 0 0.8660249
vn 0.5000008 0 0.8660249
vn 0.8660255 0 0.4999997
vn 0.8660255 0 0.4999997
vn 1 0 0
vn 1 0 0
vn 0.8660246 0 -0.5000014
vn 0.8660246 0 -0.5000014
vn 0 -1 0
vn 0 -1 0
vn 0 -1 0
vn 0 -1 0
vn 0 -1 0
vn 0 -1 0
vn 0 -1 0
vn 0 -1 0
vn 0 -1 0
vn 0 -1 0
vn 0 -1 0
vn 0 -1 0
vn 0 -1 0
vn 0 1 0
vn 0 1 0
vn 0 1 0
vn 0 1 0
vn 0 1 0
vn 0 1 0
vn 0 1 0
vn 0 1 0
vn 0 1 0
vn 0 1 0
vn 0 1 0
vn 0 1 0
vn 0 1 0
g VelvetRope_SupportOnly_0
f 3/3/3 2/2/2 1/1/1
f 4/4/4 3/3/3 1/1/1
f 5/5/5 3/3/3 4/4/4
f 6/6/6 5/5/5 4/4/4
f 7/7/7 5/5/5 6/6/6
f 8/8/8 7/7/7 6/6/6
f 9/9/9 7/7/7 8/8/8
f 10/10/10 9/9/9 8/8/8
f 11/11/11 9/9/9 10/10/10
f 12/12/12 11/11/11 10/10/10
f 13/13/13 11/11/11 12/12/12
f 14/14/14 13/13/13 12/12/12
f 15/15/15 13/13/13 14/14/14
f 16/16/16 15/15/15 14/14/14
f 17/17/17 15/15/15 16/16/16
f 18/18/18 17/17/17 16/16/16
f 19/19/19 17/17/17 18/18/18
f 20/20/20 19/19/19 18/18/18
f 21/21/21 19/19/19 20/20/20
f 22/22/22 21/21/21 20/20/20
f 23/23/23 21/21/21 22/22/22
f 24/24/24 23/23/23 22/22/22
f 25/25/25 23/23/23 24/24/24
f 26/26/26 25/25/25 24/24/24
f 29/29/29 28/28/28 27/27/27
f 27/27/27 28/28/28 30/30/30
f 30/30/30 28/28/28 31/31/31
f 31/31/31 28/28/28 32/32/32
f 32/32/32 28/28/28 33/33/33
f 33/33/33 28/28/28 34/34/34
f 34/34/34 28/28/28 35/35/35
f 35/35/35 28/28/28 36/36/36
f 36/36/36 28/28/28 37/37/37
f 37/37/37 28/28/28 38/38/38
f 38/38/38 28/28/28 39/39/39
f 39/39/39 28/28/28 29/29/29
f 42/42/42 41/41/41 40/40/40
f 43/43/43 41/41/41 42/42/42
f 44/44/44 41/41/41 43/43/43
f 45/45/45 41/41/41 44/44/44
f 46/46/46 41/41/41 45/45/45
f 47/47/47 41/41/41 46/46/46
f 48/48/48 41/41/41 47/47/47
f 49/49/49 41/41/41 48/48/48
f 50/50/50 41/41/41 49/49/49
f 51/51/51 41/41/41 50/50/50
f 52/52/52 41/41/41 51/51/51
f 40/40/40 41/41/41 52/52/52
