g VelvetRope
v 41.48084 46.42551 1.114807
v 42.07843 44.19526 5.113953
v 41.04337 48.05816 2.805023
v 42.07843 44.19526 0.4961243
v 42.67601 41.96503 1.114807
v 43.11348 40.33238 2.805023
v 43.27361 39.73479 5.113953
v 43.11348 40.33238 7.422852
v 42.67601 41.96503 9.113098
v 42.07843 44.19526 9.731781
v 41.48084 46.42551 9.113098
v 41.04337 48.05816 7.422852
v 40.88325 48.65575 5.113953
v -40.32727 48.3467 2.805023
v -41.36234 44.48381 5.113968
v -40.76474 46.71405 1.114807
v -41.36234 44.48381 0.4961395
v -41.95992 42.25357 1.114807
v -42.39738 40.62093 2.805023
v -42.55751 40.02333 5.113968
v -42.39738 40.62093 7.422852
v -41.95992 42.25357 9.113129
v -41.36234 44.48381 9.731796
v -40.76474 46.71405 9.113129
v -40.32727 48.3467 7.422852
v -40.16714 48.94429 5.113968
v -8.001266 41.53448 2.805023
v -7.841125 42.13206 5.113968
v -22.88335 44.0496 5.113968
v -23.04358 43.45163 2.803513
v -23.04358 43.45163 7.424393
v -8.001266 41.53448 7.422852
v -23.74468 41.95761 9.112747
v -8.360687 40.02718 9.113129
v -24.5602 39.86478 9.728867
v -9.41642 37.92785 9.731796
v -24.91594 37.5664 9.12735
v -9.8405 35.56671 9.113129
v -25.09093 35.81161 7.451202
v -10.07138 33.80871 7.422852
v -25.25298 35.20681 5.113968
v -10.23151 33.21111 5.113968
v -25.09093 35.81161 2.776703
v -10.07138 33.80871 2.805023
v -24.91594 37.5664 1.100586
v -9.8405 35.56671 1.114807
v -24.5602 39.86478 0.499054
v -9.41642 37.92785 0.4961395
v -23.74468 41.95761 1.115189
v -8.36068 40.02718 1.114807
v -23.04358 43.45163 2.803513
v -8.001266 41.53448 2.805023
v 9.221046 40.02717 1.114807
v 8.861633 41.53447 2.805023
v 24.60507 41.95761 1.115173
v 23.90395 43.45162 2.803513
v 25.42056 39.86477 0.499054
v 10.2768 37.92784 0.4961395
v 25.77631 37.5664 1.100586
v 10.70089 35.5667 1.114807
v 25.95129 35.81161 2.776703
v 10.93175 33.8087 2.805023
v 26.11335 35.2068 5.113968
v 11.09187 33.21111 5.113968
v 25.95129 35.81161 7.451202
v 10.93175 33.8087 7.422852
v 25.77631 37.5664 9.12735
v 10.70089 35.5667 9.113129
v 25.42056 39.86477 9.728867
v 10.2768 37.92784 9.731796
v 24.60507 41.95761 9.112747
v 9.221054 40.02717 9.113129
v 23.90395 43.45162 7.424377
v 8.861633 41.53447 7.422852
v 23.74372 44.04959 5.113968
v 8.701508 42.13206 5.113968
v 23.90395 43.45162 2.803513
v 8.861633 41.53447 2.805023
v -23.04358 43.45163 2.803513
v -40.32727 48.3467 2.805023
v -40.76474 46.71405 1.114807
v -41.36234 44.48381 0.4961395
v -41.95992 42.25357 1.114807
v -42.39738 40.62093 2.805023
v -42.55751 40.02333 5.113968
v -42.39738 40.62093 7.422852
v -41.95992 42.25357 9.113129
v -41.36234 44.48381 9.731796
v -40.76474 46.71405 9.113129
v -40.32727 48.3467 7.422852
v -40.16714 48.94429 5.113968
v -40.32727 48.3467 2.805023
v 41.04337 48.05816 2.805023
v 23.90395 43.45162 2.803513
v 41.48084 46.42551 1.114807
v 42.07843 44.19526 0.4961243
v 42.67601 41.96503 1.114807
v 43.11348 40.33238 2.805023
v 43.27361 39.73479 5.113953
v 43.11348 40.33238 7.422852
v 42.67601 41.96503 9.113098
v 42.07843 44.19526 9.731781
v 41.48084 46.42551 9.113098
v 41.04337 48.05816 7.422852
v 40.88325 48.65575 5.113953
v 23.90395 43.45162 2.803513
v 41.04337 48.05816 2.805023
vt 0.3631266 0.5356756
vt 0.3496414 0.5579537
vt 0.3729984 0.5455474
vt 0.3496414 0.5320623
vt 0.3361562 0.5356756
vt 0.3262843 0.5455474
vt 0.322671 0.5590326
vt 0.3262843 0.5725178
vt 0.3361562 0.5823896
vt 0.3496414 0.586003
vt 0.3631266 0.5823896
vt 0.3729984 0.5725178
vt 0.3766117 0.5590326
vt 0.3729984 0.6911874
vt 0.3496414 0.6766234
vt 0.3631266 0.7010593
vt 0.3496414 0.7046726
vt 0.3361562 0.7010593
vt 0.3262843 0.6911874
vt 0.322671 0.6777022
vt 0.3262843 0.6642171
vt 0.3361562 0.6543452
vt 0.3496414 0.6507319
vt 0.3631266 0.6543452
vt 0.3729984 0.6642171
vt 0.3766117 0.6777022
vt 0.3706375 0.6282015
vt 0.3676216 0.6250961
vt 0.3676216 0.636539
vt 0.3712177 0.6365599
vt 0.3640256 0.63656
vt 0.3640256 0.6251573
vt 0.3604321 0.6368616
vt 0.3604295 0.6252648
vt 0.3568494 0.6371645
vt 0.3568335 0.6258311
vt 0.3532375 0.6372877
vt 0.3532375 0.6258816
vt 0.3496414 0.6371583
vt 0.3496414 0.6258516
vt 0.3460454 0.6370198
vt 0.3460454 0.6258987
vt 0.3424493 0.6371584
vt 0.3424493 0.6258517
vt 0.3388532 0.6372878
vt 0.3388532 0.6258816
vt 0.3352413 0.6371645
vt 0.3352572 0.6258312
vt 0.3316585 0.6368616
vt 0.3316611 0.6252649
vt 0.3280651 0.631246
vt 0.3280651 0.6251574
vt 0.3316611 0.6116325
vt 0.3280651 0.6117398
vt 0.3316585 0.6000358
vt 0.3280651 0.6056512
vt 0.3352413 0.5997327
vt 0.3352572 0.6110662
vt 0.3388532 0.5996093
vt 0.3388532 0.6110155
vt 0.3424493 0.5997389
vt 0.3424493 0.6110457
vt 0.3460454 0.5998772
vt 0.3460454 0.6109983
vt 0.3496414 0.5997388
vt 0.3496414 0.6110455
vt 0.3532375 0.5996093
vt 0.3532375 0.6110156
vt 0.3568494 0.5997325
vt 0.3568335 0.611066
vt 0.3604321 0.6000355
vt 0.3604295 0.6116323
vt 0.3640256 0.6003371
vt 0.3640256 0.6117398
vt 0.3676216 0.6003582
vt 0.3676216 0.611801
vt 0.3685901 0.6163608
vt 0.369359 0.6214929
vt 0.32807 0.6365654
vt 0.3280651 0.650894
vt 0.3316611 0.6508941
vt 0.3352572 0.6508941
vt 0.3388532 0.6508941
vt 0.3424493 0.6508941
vt 0.3460454 0.6508941
vt 0.3496414 0.6508941
vt 0.3532375 0.6508941
vt 0.3568335 0.6508941
vt 0.3604295 0.6508941
vt 0.3640256 0.6508941
vt 0.3676216 0.6508941
vt 0.3712177 0.6508941
vt 0.3280651 0.586003
vt 0.32807 0.6003317
vt 0.3316611 0.586003
vt 0.3352572 0.586003
vt 0.3388532 0.586003
vt 0.3424493 0.586003
vt 0.3460454 0.586003
vt 0.3496414 0.586003
vt 0.3532375 0.586003
vt 0.3568335 0.586003
vt 0.3604295 0.586003
vt 0.3640256 0.586003
vt 0.3676216 0.586003
vt 0.3712177 0.6003371
vt 0.3712177 0.586003
vn 0.9659268 0.2588155 0
vn 0.9659268 0.2588154 0
vn 0.9659268 0.2588154 0
vn 0.9659257 0.2588193 0
vn 0.9659254 0.2588208 0
vn 0.9659254 0.258821 0
vn 0.9659262 0.2588179 0
vn 0.9659261 0.2588181 0
vn 0.9659257 0.2588193 0
vn 0.9659254 0.2588208 0
vn 0.9659265 0.2588167 0
vn 0.9659261 0.2588181 0
vn 0.9659261 0.2588181 0
vn -0.9659262 0.2588179 0
vn -0.9659262 0.2588179 0
vn -0.9659262 0.2588179 0
vn -0.965924 0.2588261 0
vn -0.9659236 0.2588275 0
vn -0.9659268 0.2588154 0
vn -0.9659262 0.2588179 0
vn -0.9659261 0.2588183 0
vn -0.9659284 0.2588097 0
vn -0.9659236 0.2588275 0
vn -0.965924 0.2588261 0
vn -0.9659284 0.2588097 0
vn -0.9659246 0.2588236 0
vn 0.05184921 0.8766556 -0.4783165
vn 0.05827867 0.9983004 0
vn 0.2054935 0.9786586 0
vn 0.176458 0.8531867 -0.4908513
vn 0.1764587 0.8531865 0.4908516
vn 0.05184956 0.8766558 0.4783161
vn 0.1048677 0.4954011 0.8623111
vn 0.02968423 0.5150724 0.8566325
vn -0.001103477 -0.008655803 0.999962
vn 0.001839082 -0.01997205 0.9997988
vn -0.1029848 -0.4888669 0.8662582
vn -0.02726663 -0.4976151 0.8669692
vn -0.1763194 -0.8463027 0.502676
vn -0.04736069 -0.8633487 0.5023805
vn -0.2068821 -0.9783659 0
vn -0.05735441 -0.9983538 0
vn -0.1763196 -0.846303 -0.5026754
vn -0.04736066 -0.8633488 -0.5023801
vn -0.102984 -0.4888605 -0.8662619
vn -0.02726603 -0.4976067 -0.8669741
vn -0.001104339 -0.008655896 -0.999962
vn 0.001839097 -0.01997196 -0.9997988
vn 0.1048655 0.4953953 -0.8623147
vn 0.0296833 0.5150646 -0.8566372
vn 0.176458 0.8531867 -0.4908513
vn 0.05184921 0.8766556 -0.4783165
vn -0.02968359 0.5150645 -0.8566373
vn -0.0518489 0.8766558 -0.4783162
vn -0.1011456 0.4973568 -0.8616297
vn -0.1701631 0.8549279 -0.4900437
vn 0.0008096913 -0.0075454 -0.9999713
vn -0.001839612 -0.01997294 -0.9997988
vn 0.09887399 -0.4886891 -0.8668374
vn 0.0272664 -0.4976068 -0.8669741
vn 0.1699057 -0.847266 -0.5032619
vn 0.04736045 -0.8633487 -0.5023803
vn 0.1993528 -0.9799278 0
vn 0.05735404 -0.998354 0
vn 0.1699066 -0.8472657 0.5032619
vn 0.04736023 -0.8633485 0.5023805
vn 0.09887527 -0.4886937 0.8668345
vn 0.02726642 -0.4976153 0.8669692
vn 0.0008098489 -0.007543522 0.9999713
vn -0.001839304 -0.0199722 0.9997988
vn -0.1011463 0.497363 0.8616261
vn -0.02968376 0.5150729 0.8566322
vn -0.1701635 0.8549275 0.4900443
vn -0.05184863 0.8766558 0.4783162
vn -0.1979506 0.980212 0
vn -0.05827844 0.9983004 0
vn -0.1701631 0.8549279 -0.4900437
vn -0.0518489 0.8766558 -0.4783162
vn 0.176458 0.8531867 -0.4908513
vn 0.2364546 0.8372748 -0.4930112
vn 0.1374515 0.4903133 -0.8606393
vn 0.0008582012 0.002493338 -0.9999965
vn -0.1326242 -0.4781445 -0.86821
vn -0.2315253 -0.8325183 -0.5032983
vn -0.2681494 -0.9633773 0
vn -0.2315255 -0.8325184 0.5032982
vn -0.1326244 -0.4781506 0.8682066
vn 0.0008596965 0.002493218 0.9999965
vn 0.137454 0.4903192 0.8606355
vn 0.2364552 0.8372747 0.493011
vn 0.2724788 0.9621618 0
vn 0.2364546 0.8372748 -0.4930112
vn -0.2250466 0.8400332 -0.493658
vn -0.1701631 0.8549279 -0.4900437
vn -0.1304056 0.4908366 -0.861437
vn -0.0002423418 0.00027765 -1
vn 0.1264262 -0.4812204 -0.8674349
vn 0.2203379 -0.8359496 -0.5026326
vn 0.2551354 -0.9669054 0
vn 0.2203403 -0.8359495 0.5026316
vn 0.1264283 -0.4812238 0.8674327
vn -0.0002423454 0.0002796066 1
vn -0.1304067 0.4908417 0.861434
vn -0.2250476 0.8400328 0.4936583
vn -0.2595361 0.9657335 0
vn -0.1701631 0.8549279 -0.4900437
vn -0.2250466 0.8400332 -0.493658
g VelvetRope_0
f 3/3/3 2/2/2 1/1/1
f 1/1/1 2/2/2 4/4/4
f 4/4/4 2/2/2 5/5/5
f 5/5/5 2/2/2 6/6/6
f 6/6/6 2/2/2 7/7/7
f 7/7/7 2/2/2 8/8/8
f 8/8/8 2/2/2 9/9/9
f 9/9/9 2/2/2 10/10/10
f 10/10/10 2/2/2 11/11/11
f 11/11/11 2/2/2 12/12/12
f 12/12/12 2/2/2 13/13/13
f 13/13/13 2/2/2 3/3/3
f 16/16/16 15/15/15 14/14/14
f 17/17/17 15/15/15 16/16/16
f 18/18/18 15/15/15 17/17/17
f 19/19/19 15/15/15 18/18/18
f 20/20/20 15/15/15 19/19/19
f 21/21/21 15/15/15 20/20/20
f 22/22/22 15/15/15 21/21/21
f 23/23/23 15/15/15 22/22/22
f 24/24/24 15/15/15 23/23/23
f 25/25/25 15/15/15 24/24/24
f 26/26/26 15/15/15 25/25/25
f 14/14/14 15/15/15 26/26/26
f 29/29/29 28/28/28 27/27/27
f 30/30/30 29/29/29 27/27/27
f 29/29/29 31/31/31 28/28/28
f 31/31/31 32/32/32 28/28/28
f 32/32/32 31/31/31 33/33/33
f 34/34/34 32/32/32 33/33/33
f 34/34/34 33/33/33 35/35/35
f 36/36/36 34/34/34 35/35/35
f 36/36/36 35/35/35 37/37/37
f 38/38/38 36/36/36 37/37/37
f 38/38/38 37/37/37 39/39/39
f 40/40/40 38/38/38 39/39/39
f 40/40/40 39/39/39 41/41/41
f 42/42/42 40/40/40 41/41/41
f 42/42/42 41/41/41 43/43/43
f 44/44/44 42/42/42 43/43/43
f 44/44/44 43/43/43 45/45/45
f 46/46/46 44/44/44 45/45/45
f 46/46/46 45/45/45 47/47/47
f 48/48/48 46/46/46 47/47/47
f 48/48/48 47/47/47 49/49/49
f 50/50/50 48/48/48 49/49/49
f 50/50/50 49/49/49 51/51/51
f 52/52/52 50/50/50 51/51/51
f 53/53/53 50/50/50 52/52/52
f 54/54/54 53/53/53 52/52/52
f 55/55/55 53/53/53 54/54/54
f 56/56/56 55/55/55 54/54/54
f 55/55/55 57/57/57 53/53/53
f 57/57/57 58/58/58 53/53/53
f 58/58/58 48/48/48 50/50/50
f 53/53/53 58/58/58 50/50/50
f 57/57/57 59/59/59 58/58/58
f 59/59/59 60/60/60 58/58/58
f 60/60/60 46/46/46 48/48/48
f 58/58/58 60/60/60 48/48/48
f 59/59/59 61/61/61 60/60/60
f 61/61/61 62/62/62 60/60/60
f 61/61/61 63/63/63 62/62/62
f 63/63/63 64/64/64 62/62/62
f 63/63/63 65/65/65 64/64/64
f 65/65/65 66/66/66 64/64/64
f 65/65/65 67/67/67 66/66/66
f 67/67/67 68/68/68 66/66/66
f 67/67/67 69/69/69 68/68/68
f 69/69/69 70/70/70 68/68/68
f 69/69/69 71/71/71 70/70/70
f 71/71/71 72/72/72 70/70/70
f 71/71/71 73/73/73 72/72/72
f 73/73/73 74/74/74 72/72/72
f 74/74/74 73/73/73 75/75/75
f 76/76/76 74/74/74 75/75/75
f 76/76/76 75/75/75 77/77/77
f 78/78/78 76/76/76 77/77/77
f 28/28/28 76/76/76 78/78/78
f 27/27/27 28/28/28 78/78/78
f 66/66/66 68/68/68 40/40/40
f 66/66/66 40/40/40 42/42/42
f 64/64/64 66/66/66 42/42/42
f 64/64/64 42/42/42 44/44/44
f 62/62/62 64/64/64 44/44/44
f 62/62/62 44/44/44 46/46/46
f 60/60/60 62/62/62 46/46/46
f 76/76/76 28/28/28 32/32/32
f 74/74/74 76/76/76 32/32/32
f 74/74/74 32/32/32 34/34/34
f 72/72/72 74/74/74 34/34/34
f 72/72/72 34/34/34 36/36/36
f 70/70/70 72/72/72 36/36/36
f 70/70/70 36/36/36 38/38/38
f 68/68/68 38/38/38 40/40/40
f 68/68/68 70/70/70 38/38/38
f 81/81/81 80/80/80 79/79/79
f 49/49/49 81/81/81 79/79/79
f 82/82/82 81/81/81 49/49/49
f 47/47/47 82/82/82 49/49/49
f 83/83/83 82/82/82 47/47/47
f 45/45/45 83/83/83 47/47/47
f 84/84/84 83/83/83 45/45/45
f 43/43/43 84/84/84 45/45/45
f 85/85/85 84/84/84 43/43/43
f 41/41/41 85/85/85 43/43/43
f 86/86/86 85/85/85 41/41/41
f 39/39/39 86/86/86 41/41/41
f 87/87/87 86/86/86 39/39/39
f 37/37/37 87/87/87 39/39/39
f 88/88/88 87/87/87 37/37/37
f 35/35/35 88/88/88 37/37/37
f 89/89/89 88/88/88 35/35/35
f 33/33/33 89/89/89 35/35/35
f 90/90/90 89/89/89 33/33/33
f 31/31/31 90/90/90 33/33/33
f 91/91/91 90/90/90 31/31/31
f 29/29/29 91/91/91 31/31/31
f 92/92/92 91/91/91 29/29/29
f 30/30/30 92/92/92 29/29/29
f 55/55/55 94/94/94 93/93/93
f 95/95/95 55/55/55 93/93/93
f 57/57/57 55/55/55 95/95/95
f 96/96/96 57/57/57 95/95/95
f 59/59/59 57/57/57 96/96/96
f 97/97/97 59/59/59 96/96/96
f 61/61/61 59/59/59 97/97/97
f 98/98/98 61/61/61 97/97/97
f 63/63/63 61/61/61 98/98/98
f 99/99/99 63/63/63 98/98/98
f 65/65/65 63/63/63 99/99/99
f 100/100/100 65/65/65 99/99/99
f 67/67/67 65/65/65 100/100/100
f 101/101/101 67/67/67 100/100/100
f 69/69/69 67/67/67 101/101/101
f 102/102/102 69/69/69 101/101/101
f 71/71/71 69/69/69 102/102/102
f 103/103/103 71/71/71 102/102/102
f 73/73/73 71/71/71 103/103/103
f 104/104/104 73/73/73 103/103/103
f 75/75/75 73/73/73 104/104/104
f 105/105/105 75/75/75 104/104/104
f 106/106/106 75/75/75 105/105/105
f 107/107/107 106/106/106 105/105/105
