g WindSwirl_06g
v -9.375275 1.710129 -42.66763
v 12.01656 2.755676 -33.70926
v 21.67368 4.421722 -66.30013
v -0.3452301 3.311005 -72.84629
v 28.21096 5.234055 -100.0554
v 5.517021 4.053192 -103.5865
v 31.99026 5.526001 -133.9647
v 8.770706 4.290512 -134.9975
v 33.23528 5.57283 -167.2651
v 9.804985 4.315445 -167.2651
v -21.0611 -0.6147766 -12.80536
v -0.05665588 0.3905029 -2.764648
v -33.75411 -3.039932 17.57388
v -12.66582 -2.02594 26.8343
v -44.8973 -4.770615 49.74121
v -23.18963 -3.692245 55.72217
v -51.25678 -5.543167 84.33359
v -29.50896 -4.460632 84.53
v -49.17492 -5.326965 120.8416
v -29.71163 -4.481842 113.5824
v -32.26971 -3.570099 153.3158
v -19.73626 -3.44516 138.9522
v 3.561958 0.153656 167.2651
v 3.235466 -1.057846 150.2457
v 39.31284 3.869034 152.7143
v 25.96835 1.304642 141.5902
v 51.54094 5.139816 114.2913
v 32.99123 2.034485 117.629
v 35.91678 3.516098 78.26343
v 21.67577 0.8585358 96.72125
vt 1 0.5358479
vt 0 0.5358478
vt 0 0.5843489
vt 1 0.584349
vt 0 0.6296899
vt 1 0.62969
vt 0 0.6730545
vt 1 0.6730545
vt 0 0.7154098
vt 1 0.7154099
vt 1 0.4834647
vt 0 0.4834646
vt 1 0.4262472
vt 0 0.4262471
vt 1 0.3630443
vt 0 0.3630442
vt 1 0.2951521
vt 0 0.295152
vt 1 0.2247671
vt 0 0.224767
vt 1 0.1476333
vt 0 0.1476331
vt 1 0.06560922
vt 0 0.0656091
vt 1 -0.02459413
vt 0 -0.02459425
vt 1 -0.121007
vt 0 -0.1210071
vt 1 -0.2845901
vt 0 -0.2845902
vn 0.06578103 -0.9969829 -0.0412061
vn 0.06613176 -0.9969335 -0.04183695
vn 0.05801827 -0.9980283 -0.02394237
vn 0.05779745 -0.9980555 -0.02333889
vn 0.05351847 -0.9985348 -0.008010168
vn 0.05351387 -0.9985353 -0.007974555
vn 0.05307635 -0.9985902 -0.0007840254
vn 0.05306696 -0.9985905 -0.0008380072
vn 0.05334503 -0.9985759 0.0007614907
vn 0.05334502 -0.9985759 0.0007614906
vn 0.07061733 -0.9962542 -0.0499076
vn 0.07063981 -0.9962506 -0.04994801
vn 0.0661125 -0.9969043 -0.04255319
vn 0.06585091 -0.99694 -0.04212341
vn 0.05636589 -0.9981172 -0.0241857
vn 0.05638066 -0.9981155 -0.02421772
vn 0.04928535 -0.9987665 -0.006039145
vn 0.04951334 -0.9987503 -0.006804724
vn 0.04742724 -0.9987776 0.01392559
vn 0.04735973 -0.9988062 0.01196
vn 0.06123561 -0.9971488 0.04409646
vn 0.06029255 -0.9972619 0.0428215
vn 0.1024205 -0.9925064 0.0666414
vn 0.1009984 -0.9926616 0.06650002
vn 0.1521924 -0.9874242 0.04278907
vn 0.1505639 -0.9875855 0.04477892
vn 0.1622026 -0.9867377 -0.006256344
vn 0.1631318 -0.9865996 -0.003063843
vn 0.1565559 -0.9873393 -0.02552595
vn 0.1565559 -0.9873393 -0.02552595
g WindSwirl_06g_0
f 3/3/3 2/2/2 1/1/1
f 4/4/4 3/3/3 1/1/1
f 5/5/5 3/3/3 4/4/4
f 6/6/6 5/5/5 4/4/4
f 7/7/7 5/5/5 6/6/6
f 8/8/8 7/7/7 6/6/6
f 9/9/9 7/7/7 8/8/8
f 10/10/10 9/9/9 8/8/8
f 1/1/1 2/2/2 11/11/11
f 2/2/2 12/12/12 11/11/11
f 11/11/11 12/12/12 13/13/13
f 12/12/12 14/14/14 13/13/13
f 13/13/13 14/14/14 15/15/15
f 14/14/14 16/16/16 15/15/15
f 15/15/15 16/16/16 17/17/17
f 16/16/16 18/18/18 17/17/17
f 17/17/17 18/18/18 19/19/19
f 18/18/18 20/20/20 19/19/19
f 19/19/19 20/20/20 21/21/21
f 20/20/20 22/22/22 21/21/21
f 21/21/21 22/22/22 23/23/23
f 22/22/22 24/24/24 23/23/23
f 23/23/23 24/24/24 25/25/25
f 24/24/24 26/26/26 25/25/25
f 25/25/25 26/26/26 27/27/27
f 26/26/26 28/28/28 27/27/27
f 27/27/27 28/28/28 29/29/29
f 28/28/28 30/30/30 29/29/29
