g WindSwirl_06a
v -34.75736 0.5176176 -3.051924
v -15.82683 1.977298 1.043038
v -16.19332 2.301448 11.46253
v -33.92196 0.2018469 17.18189
v -12.49187 1.506799 -4.880312
v -25.4735 0.878289 -20.68266
v -5.400345 0.6940147 -8.321203
v -5.532209 0.7198859 -27.15892
v 10.21462 -0.9171816 -23.19912
v 2.823142 -0.8498471 -7.032898
v 6.640871 -2.716213 -1.668214
v 21.35688 -3.193611 -12.45599
v 27.02812 -4.842216 1.071872
v 9.007089 -4.35496 7.618318
v 10.6136 -5.551054 19.67163
v 29.91651 -5.818349 15.6875
v 12.92149 -6.275979 37.97831
v 32.743 -6.274164 35.73859
v 33.41893 -5.809286 56.5565
v 13.41268 -6.19401 58.7949
v 34.02302 -4.006835 76.53342
v 14.01182 -4.370269 78.91064
v 34.75736 -1.798141 101.3745
v 14.68731 -1.867708 103.2631
v 34.6676 -0.009195656 126.2621
v 14.54181 0.1691007 127.6924
v 33.85916 1.308348 151.0604
v 13.7033 1.623601 152.2611
v 32.53815 2.264955 175.7687
v 12.37593 2.621283 176.951
v 21.04573 5.011635 28.88502
v 5.951103 5.961187 15.09089
v 11.53717 6.275976 8.616088
v 30.39356 5.758467 13.78745
v 0.04942477 5.056015 19.10825
v 6.692902 3.546158 36.6286
v -7.368721 3.781669 20.1404
v -7.052782 1.728163 38.90522
v -26.30366 0.4356032 31.93278
v -13.54883 2.783192 18.18229
v 31.88038 5.661219 -1.824484
v 12.66014 5.935584 -2.607852
v 11.94862 5.194742 -17.282
v 31.14049 5.02149 -18.51531
v 28.27767 4.19659 -37.56768
v 7.916036 4.342956 -35.60693
v 3.766396 2.853549 -54.04449
v 24.23824 2.696955 -55.98505
v -0.7059554 1.95282 -78.01128
v 19.77691 1.813973 -78.91773
v -4.410856 1.512001 -102.5395
v 15.8472 1.420441 -103.3467
v -7.070162 1.31919 -127.3193
v 13.1238 1.27487 -127.7656
v -8.630738 1.252271 -152.153
v 11.56199 1.240658 -152.2793
v -9.135159 1.240375 -176.951
v 11.06484 1.240375 -176.951
vt 1 0.5577869
vt 0 0.5577869
vt 0 0.5967908
vt 1 0.5967908
vt 0 0.5086423
vt 1 0.5086423
vt 0 0.4569559
vt 1 0.4569559
vt 1 0.3962078
vt 0 0.3962078
vt 0 0.340498
vt 1 0.340498
vt 1 0.2951082
vt 0 0.2951082
vt 0 0.2571033
vt 1 0.2571033
vt 0 0.2227336
vt 1 0.2227336
vt 1 0.1602747
vt 0 0.1602747
vt 1 0.1086699
vt 0 0.1086699
vt 1 0.06920765
vt 0 0.06920765
vt 1 0.04034465
vt 0 0.04034465
vt 1 0.01811799
vt 0 0.01811799
vt 1 0
vt 0 0
vt 1 0.7444502
vt 0 0.7444502
vt 0 0.7727705
vt 1 0.7727705
vt 0 0.7127571
vt 1 0.7127571
vt 0 0.6754336
vt 1 0.6754336
vt 1 0.634148
vt 0 0.634148
vt 1 0.7986975
vt 0 0.7986975
vt 0 0.8222366
vt 1 0.8222366
vt 1 0.8432228
vt 0 0.8432228
vt 0 0.8791906
vt 1 0.8791906
vt 0 0.9096658
vt 1 0.9096658
vt 0 0.9362644
vt 1 0.9362644
vt 0 0.9598038
vt 1 0.9598038
vt 0 0.9808893
vt 1 0.9808893
vt 0 1
vt 1 1
vn -0.07337535 0.9972165 -0.01324033
vn -0.07240896 0.997279 -0.01384088
vn -0.1086315 0.9940136 0.0116709
vn -0.1103466 0.993806 0.01316252
vn -0.01070162 0.9995368 -0.02849093
vn -0.008967528 0.9995555 -0.02843059
vn 0.06772455 0.997689 -0.005494141
vn 0.07250808 0.9973633 -0.003004653
vn 0.1392268 0.988359 0.06133739
vn 0.1409549 0.9878022 0.06617139
vn 0.1159842 0.9871292 0.1101077
vn 0.1202989 0.9866384 0.1098763
vn 0.06365307 0.9937121 0.09211156
vn 0.06067102 0.9941147 0.08975089
vn 0.02280859 0.9986578 0.04650146
vn 0.02379921 0.9985636 0.04800471
vn -0.0005801651 0.9999763 0.006861844
vn -0.0001207807 0.9999702 0.007717549
vn -0.01946617 0.9986296 -0.04858067
vn -0.02038624 0.9984108 -0.05253778
vn -0.02467333 0.9954455 -0.09208442
vn -0.02423218 0.9954282 -0.09238747
vn -0.01270505 0.9961713 -0.08649462
vn -0.01181786 0.9962599 -0.08559611
vn 0.002096827 0.9977378 -0.06719311
vn 0.002803768 0.9978189 -0.06595061
vn 0.01128074 0.9987918 -0.04783211
vn 0.01166078 0.9988405 -0.04670973
vn 0.01435195 0.9991455 -0.03875875
vn 0.01435195 0.9991455 -0.03875875
vn -0.01601134 0.9965211 0.08178877
vn -0.0194421 0.9961999 0.08489873
vn 0.01679299 0.9995776 0.02372261
vn 0.01746742 0.9996549 0.0196183
vn -0.0854045 0.9894907 0.1166805
vn -0.08516574 0.9895141 0.1166558
vn -0.1221908 0.9872268 0.1022391
vn -0.1224918 0.9869856 0.1041882
vn -0.1234606 0.9906246 0.05848432
vn -0.1233516 0.9905825 0.05941937
vn 0.01666903 0.9994026 -0.03027276
vn 0.01655786 0.9993958 -0.03055764
vn 0.007251269 0.9989544 -0.04513775
vn 0.007457606 0.9989545 -0.04510292
vn 0.002134393 0.9980457 -0.06245193
vn 0.001819921 0.9978967 -0.06479866
vn 0.002537899 0.9984294 -0.05596712
vn 0.002208786 0.9982659 -0.05882407
vn 0.004725212 0.999615 -0.02734376
vn 0.004692966 0.999567 -0.02904667
vn 0.003972266 0.9999174 -0.01222491
vn 0.004075788 0.9999093 -0.01284379
vn 0.002209355 0.9999871 -0.004576318
vn 0.002281835 0.9999859 -0.004783338
vn 0.0008080368 0.999999 -0.001171249
vn 0.0008321464 0.9999989 -0.001213761
vn 0.0002867056 1 -0.0002519942
vn 0.0002867056 1 -0.0002519942
g WindSwirl_06a_0
f 3/3/3 2/2/2 1/1/1
f 4/4/4 3/3/3 1/1/1
f 1/1/1 2/2/2 5/5/5
f 6/6/6 1/1/1 5/5/5
f 6/6/6 5/5/5 7/7/7
f 8/8/8 6/6/6 7/7/7
f 8/8/8 7/7/7 9/9/9
f 7/7/7 10/10/10 9/9/9
f 9/9/9 10/10/10 11/11/11
f 12/12/12 9/9/9 11/11/11
f 12/12/12 11/11/11 13/13/13
f 11/11/11 14/14/14 13/13/13
f 13/13/13 14/14/14 15/15/15
f 16/16/16 13/13/13 15/15/15
f 16/16/16 15/15/15 17/17/17
f 18/18/18 16/16/16 17/17/17
f 19/19/19 18/18/18 17/17/17
f 20/20/20 19/19/19 17/17/17
f 21/21/21 19/19/19 20/20/20
f 22/22/22 21/21/21 20/20/20
f 23/23/23 21/21/21 22/22/22
f 24/24/24 23/23/23 22/22/22
f 25/25/25 23/23/23 24/24/24
f 26/26/26 25/25/25 24/24/24
f 27/27/27 25/25/25 26/26/26
f 28/28/28 27/27/27 26/26/26
f 29/29/29 27/27/27 28/28/28
f 30/30/30 29/29/29 28/28/28
f 33/33/33 32/32/32 31/31/31
f 34/34/34 33/33/33 31/31/31
f 31/31/31 32/32/32 35/35/35
f 36/36/36 31/31/31 35/35/35
f 36/36/36 35/35/35 37/37/37
f 38/38/38 36/36/36 37/37/37
f 38/38/38 37/37/37 39/39/39
f 37/37/37 40/40/40 39/39/39
f 39/39/39 40/40/40 3/3/3
f 4/4/4 39/39/39 3/3/3
f 34/34/34 41/41/41 33/33/33
f 41/41/41 42/42/42 33/33/33
f 43/43/43 42/42/42 41/41/41
f 44/44/44 43/43/43 41/41/41
f 44/44/44 45/45/45 43/43/43
f 45/45/45 46/46/46 43/43/43
f 46/46/46 45/45/45 47/47/47
f 45/45/45 48/48/48 47/47/47
f 47/47/47 48/48/48 49/49/49
f 48/48/48 50/50/50 49/49/49
f 49/49/49 50/50/50 51/51/51
f 50/50/50 52/52/52 51/51/51
f 51/51/51 52/52/52 53/53/53
f 52/52/52 54/54/54 53/53/53
f 53/53/53 54/54/54 55/55/55
f 54/54/54 56/56/56 55/55/55
f 55/55/55 56/56/56 57/57/57
f 56/56/56 58/58/58 57/57/57
