g balloon_string
v -0.04283447 4.162925 0.2103772
v -0.04260986 4.200104 0.01112183
v 0.1050781 4.186094 0.074823
v -0.1906299 4.200799 0.07533325
v -0.2520996 4.197572 0.2247913
v -0.1908472 4.195899 0.3684338
v -0.04308838 4.217135 0.4181042
v 0.1048462 4.203171 0.3675622
v 0.16625 4.191098 0.2243591
v 0.1246387 4.133436 0.05600952
v -0.04293457 4.154503 -0.02312134
v -0.2104907 4.147108 0.05678833
v -0.2799023 4.138443 0.2294714
v -0.2104956 4.140018 0.395658
v -0.0429248 4.171404 0.4594373
v 0.1246387 4.1483 0.3949719
v 0.1940479 4.13305 0.2295203
v -0.04293457 4.154503 -0.02312134
v -0.04323242 4.050326 0.01056274
v 0.09412109 4.045685 0.08263061
v 0.1246387 4.133436 0.05600952
v -0.2104907 4.147108 0.05678833
v -0.1802637 4.051872 0.08241577
v -0.2799023 4.138443 0.2294714
v -0.236875 4.06007 0.2252014
v -0.2104956 4.140018 0.395658
v -0.1800562 4.069656 0.3655041
v -0.0429248 4.171404 0.4594373
v -0.04277344 4.080113 0.4288293
v 0.1246387 4.1483 0.3949719
v 0.0943457 4.076778 0.3646789
v 0.1940479 4.13305 0.2295203
v 0.1510229 4.053639 0.2262732
v -0.04301269 4.032201 0.2191809
v 0.04069092 0.1971933 0.0414917
v 0.0361206 0.5614575 0.06424805
v -0.01253174 0.5627066 0.04413574
v -0.01253174 0.198826 0.01950684
v -0.06118408 0.5614575 0.06424805
v -0.06575439 0.1971933 0.0414917
v -0.08133789 0.5584424 0.1128076
v -0.08779785 0.1932516 0.09456787
v -0.06118408 0.555427 0.1613672
v -0.06575439 0.18931 0.147644
v -0.01253174 0.5541782 0.1814819
v -0.01253174 0.1876773 0.1696289
v 0.06273682 0.1932516 0.09456787
v 0.05627441 0.5584424 0.1128076
v 0.04069092 0.18931 0.147644
v 0.0361206 0.555427 0.1613672
v -0.01253174 0.1876773 0.1696289
v -0.01253174 0.5541782 0.1814819
v -0.05753174 0.9263549 0.07170654
v -0.07616943 0.9243374 0.1166602
v -0.05753174 0.9223202 0.1616162
v -0.01253174 0.9214846 0.1802368
v 0.03246826 0.9223202 0.1616162
v -0.01253174 0.9214846 0.1802368
v 0.0511084 0.9243374 0.1166602
v 0.03246826 0.9263549 0.07170654
v -0.01253174 0.9271905 0.05308594
v -0.01253174 1.292204 0.04252197
v 0.03246826 1.291711 0.06115478
v -0.05753174 1.291711 0.06115478
v -0.07616943 1.290522 0.1061377
v -0.05753174 1.289333 0.151123
v -0.01253174 1.28884 0.1697559
v 0.03246826 1.289333 0.151123
v -0.01253174 1.28884 0.1697559
v 0.0511084 1.290522 0.1061377
v -0.01253174 1.657208 0.02371094
v 0.03246826 1.657006 0.04235107
v -0.05753174 1.657006 0.04235107
v -0.07616943 1.656517 0.08734619
v -0.05753174 1.656028 0.1323438
v -0.01253174 1.655826 0.1509814
v 0.03246826 1.656028 0.1323438
v -0.01253174 1.655826 0.1509814
v 0.0511084 1.656517 0.08734619
v -0.01253174 2.022316 0.007363281
v 0.03246826 2.022287 0.02600098
v -0.05753174 2.022287 0.02600098
v -0.07616943 2.022215 0.07100098
v -0.05753174 2.022143 0.116001
v -0.01253174 2.022113 0.1346387
v 0.03246826 2.022143 0.116001
v -0.01253174 2.022113 0.1346387
v 0.0511084 2.022215 0.07100098
v -0.01253174 2.38781 0.003852539
v 0.03246826 2.38781 0.02249268
v -0.05753174 2.38781 0.02249268
v -0.07616943 2.38781 0.06749267
v -0.05753174 2.38781 0.1124902
v -0.01253174 2.38781 0.1311304
v 0.03246826 2.38781 0.1124902
v -0.01253174 2.38781 0.1311304
v 0.0511084 2.38781 0.06749267
v -0.01253174 2.753402 0.003852539
v 0.03246826 2.753402 0.02249268
v -0.05753174 2.753402 0.02249268
v -0.07616943 2.753402 0.06749267
v -0.05753174 2.753402 0.1124902
v -0.01253174 2.753402 0.1311304
v 0.03246826 2.753402 0.1124902
v -0.01253174 2.753402 0.1311304
v 0.0511084 2.753402 0.06749267
v -0.01253174 3.118994 0.003852539
v 0.03246826 3.118994 0.02249268
v -0.05753174 3.118994 0.02249268
v -0.07616943 3.118994 0.06749267
v -0.05753174 3.118994 0.1124902
v -0.01253174 3.118994 0.1311304
v 0.03246826 3.118994 0.1124902
v -0.01253174 3.118994 0.1311304
v 0.0511084 3.118994 0.06749267
v -0.01253174 3.484587 0.003852539
v 0.03246826 3.484587 0.02249268
v -0.05753174 3.484587 0.02249268
v -0.07616943 3.484587 0.06749267
v -0.05753174 3.484587 0.1124902
v -0.01253174 3.484587 0.1311304
v 0.03246826 3.484587 0.1124902
v -0.01253174 3.484587 0.1311304
v 0.0511084 3.484587 0.06749267
v -0.00951416 3.831414 0.02248291
v 0.03466064 3.829493 0.04291015
v -0.05525879 3.829767 0.03913086
v -0.07577637 3.825515 0.08310059
v -0.05904785 3.821151 0.1286353
v -0.01487305 3.819229 0.1490625
v 0.03087158 3.820877 0.132417
v -0.01487305 3.819229 0.1490625
v 0.05138916 3.825128 0.08844727
v -0.007163086 4.174801 0.07426025
v 0.03610351 4.170773 0.09626465
v -0.05357422 4.17169 0.0887085
v -0.07594238 4.163261 0.131145
v -0.06116699 4.154452 0.1767139
v -0.01790039 4.150423 0.1987183
v 0.02851074 4.153534 0.18427
v -0.01790039 4.150423 0.1987183
v 0.0508789 4.161963 0.1418335
v 0.04724365 -0.1410263 0.009553222
v -0.01253174 -0.1391025 -0.01513184
v -0.01253174 -0.1711929 0.01467285
v 0.02454834 -0.1723972 0.02998291
v 0.07200439 -0.1456711 0.06914794
v 0.03986816 -0.1753042 0.06694824
v -0.04958496 -0.1723993 0.03000977
v -0.07230712 -0.1410263 0.009553222
v -0.06487793 -0.1753042 0.06694824
v -0.09706787 -0.1456711 0.06914794
v -0.04951904 -0.1782043 0.1038208
v -0.07230712 -0.1503159 0.1287451
v -0.01253174 -0.1794055 0.1190967
v -0.01253174 -0.1522394 0.1534302
v 0.04724365 -0.1503159 0.1287451
v 0.02448242 -0.1782068 0.1038477
v -0.01253174 -0.1522394 0.1534302
v 0.07200439 -0.1456711 0.06914794
v 0.04724365 -0.1410263 0.009553222
v -0.01253174 -0.1391025 -0.01513184
v -0.07230712 -0.1410263 0.009553222
v -0.09706787 -0.1456711 0.06914794
v -0.07230712 -0.1503159 0.1287451
v -0.01253174 -0.1522394 0.1534302
v -0.01253174 -0.1753042 0.06694824
vt 0.5932617 0.3571777
vt 0.5991211 0.355957
vt 0.5961914 0.3515625
vt 0.5981445 0.361084
vt 0.5942383 0.3640137
vt 0.5893555 0.3632813
vt 0.5869141 0.3586426
vt 0.5878906 0.3535156
vt 0.5917969 0.3505859
vt 0.597168 0.3498535
vt 0.6010742 0.3554688
vt 0.5996094 0.3623047
vt 0.5942383 0.3662109
vt 0.5883789 0.3649902
vt 0.5854492 0.3591309
vt 0.5859375 0.3525391
vt 0.5908203 0.3486328
vt 0.6230469 0.3586426
vt 0.6201172 0.3586426
vt 0.6176758 0.3630371
vt 0.6201172 0.3654785
vt 0.6201172 0.3518066
vt 0.6181641 0.3544922
vt 0.6137695 0.3493652
vt 0.6137695 0.3522949
vt 0.6079102 0.3520508
vt 0.6098633 0.3540039
vt 0.6049805 0.3583984
vt 0.6074219 0.3586426
vt 0.6074219 0.3649902
vt 0.609375 0.3632813
vt 0.6132813 0.3679199
vt 0.6137695 0.3649902
vt 0.6137695 0.3586426
vt 0.512207 0.2685547
vt 0.512207 0.277832
vt 0.5146484 0.277832
vt 0.5146484 0.2685547
vt 0.5170898 0.277832
vt 0.5170898 0.2685547
vt 0.5195313 0.277832
vt 0.5195313 0.2685547
vt 0.5224609 0.277832
vt 0.5224609 0.2685547
vt 0.5249023 0.277832
vt 0.5249023 0.2685547
vt 0.5097656 0.2685547
vt 0.5097656 0.277832
vt 0.5078125 0.2685547
vt 0.5078125 0.277832
vt 0.5053711 0.2685547
vt 0.5053711 0.277832
vt 0.5170898 0.2871094
vt 0.5195313 0.2871094
vt 0.5224609 0.2871094
vt 0.5249023 0.2871094
vt 0.5078125 0.2871094
vt 0.5053711 0.2871094
vt 0.5097656 0.2871094
vt 0.512207 0.2871094
vt 0.5146484 0.2871094
vt 0.5146484 0.2966309
vt 0.512207 0.2966309
vt 0.5170898 0.2966309
vt 0.5195313 0.2966309
vt 0.5224609 0.2966309
vt 0.5249023 0.2966309
vt 0.5078125 0.2966309
vt 0.5053711 0.2966309
vt 0.5097656 0.2966309
vt 0.5146484 0.3059082
vt 0.512207 0.3059082
vt 0.5170898 0.3059082
vt 0.5195313 0.3059082
vt 0.5224609 0.3059082
vt 0.5249023 0.3059082
vt 0.5078125 0.3059082
vt 0.5053711 0.3059082
vt 0.5097656 0.3059082
vt 0.5146484 0.3154297
vt 0.512207 0.3154297
vt 0.5170898 0.3154297
vt 0.5195313 0.3154297
vt 0.5224609 0.3154297
vt 0.5249023 0.3154297
vt 0.5078125 0.3154297
vt 0.5053711 0.3154297
vt 0.5097656 0.3154297
vt 0.5146484 0.324707
vt 0.512207 0.324707
vt 0.5170898 0.324707
vt 0.5195313 0.324707
vt 0.5224609 0.324707
vt 0.5249023 0.324707
vt 0.5078125 0.324707
vt 0.5053711 0.324707
vt 0.5097656 0.324707
vt 0.5146484 0.3342285
vt 0.512207 0.3342285
vt 0.5170898 0.3342285
vt 0.5195313 0.3342285
vt 0.5224609 0.3342285
vt 0.5249023 0.3342285
vt 0.5078125 0.3342285
vt 0.5053711 0.3342285
vt 0.5097656 0.3342285
vt 0.5146484 0.3435059
vt 0.512207 0.3435059
vt 0.5170898 0.3435059
vt 0.5195313 0.3435059
vt 0.5224609 0.3435059
vt 0.5249023 0.3435059
vt 0.5078125 0.3435059
vt 0.5053711 0.3435059
vt 0.5097656 0.3435059
vt 0.5146484 0.3530273
vt 0.512207 0.3530273
vt 0.5170898 0.3530273
vt 0.5195313 0.3530273
vt 0.5224609 0.3530273
vt 0.5249023 0.3530273
vt 0.5078125 0.3530273
vt 0.5053711 0.3530273
vt 0.5097656 0.3530273
vt 0.5146484 0.3618164
vt 0.512207 0.3618164
vt 0.5170898 0.3618164
vt 0.5195313 0.3618164
vt 0.5224609 0.3618164
vt 0.5249023 0.3618164
vt 0.5078125 0.3618164
vt 0.5053711 0.3618164
vt 0.5097656 0.3618164
vt 0.5146484 0.3703613
vt 0.512207 0.3703613
vt 0.5170898 0.3703613
vt 0.5195313 0.3703613
vt 0.5224609 0.3703613
vt 0.5249023 0.3703613
vt 0.5078125 0.3703613
vt 0.5053711 0.3703613
vt 0.5097656 0.3703613
vt 0.5107422 0.2526855
vt 0.5083008 0.2495117
vt 0.5073242 0.251709
vt 0.5083008 0.2536621
vt 0.5107422 0.2568359
vt 0.5083008 0.2558594
vt 0.5048828 0.2514648
vt 0.5043945 0.2490234
vt 0.503418 0.2529297
vt 0.5014648 0.2514648
vt 0.503418 0.2553711
vt 0.5009766 0.2556152
vt 0.5043945 0.2573242
vt 0.5029297 0.2592773
vt 0.5078125 0.2600098
vt 0.5068359 0.2573242
vt 0.5053711 0.2597656
vt 0.5097656 0.2597656
vt 0.512207 0.2597656
vt 0.5146484 0.2597656
vt 0.5170898 0.2597656
vt 0.5195313 0.2597656
vt 0.5224609 0.2597656
vt 0.5249023 0.2597656
vt 0.5058594 0.2546387
vn 0.01553857 0.9995851 -0.02425462
vn 0.03618589 0.9259691 -0.3758614
vn 0.3541586 0.8906177 -0.2852573
vn -0.3084215 0.9142175 -0.2628352
vn -0.4394282 0.898266 0.004589043
vn -0.3491699 0.902797 0.2510738
vn -0.02094234 0.961453 0.2741708
vn 0.3353175 0.9176174 0.2134022
vn 0.4560526 0.8885135 -0.05059422
vn 0.721995 -0.08812732 -0.686263
vn -0.01079307 -0.03484119 -0.9993345
vn -0.725838 -0.0652696 -0.6847621
vn -0.9948834 -0.1008861 0.005383656
vn -0.6884341 -0.0672086 0.7221783
vn 0.002361832 0.04578414 0.9989486
vn 0.6881028 -0.04359484 0.7243025
vn 0.9938532 -0.1094271 0.01677885
vn -0.01079307 -0.03484119 -0.9993345
vn -0.02035271 -0.681908 -0.7311547
vn 0.4808436 -0.7390168 -0.4718513
vn 0.721995 -0.08812732 -0.686263
vn -0.725838 -0.0652696 -0.6847621
vn -0.5074293 -0.713957 -0.4824736
vn -0.9948834 -0.1008861 0.005383656
vn -0.6564242 -0.75439 0.001683387
vn -0.6884341 -0.0672086 0.7221783
vn -0.4222718 -0.7579977 0.4971179
vn 0.002361832 0.04578414 0.9989486
vn 0.0172518 -0.7117262 0.7022451
vn 0.6881028 -0.04359484 0.7243025
vn 0.4307264 -0.7365124 0.5215594
vn 0.9938532 -0.1094271 0.01677885
vn 0.6342461 -0.77201 0.04162242
vn -0.008082495 -0.9971343 0.07521772
vn 0.7086459 0.06667775 -0.7024066
vn 0.709557 0.03786333 -0.70363
vn 0 0.04687916 -0.9989005
vn 0 0.08508258 -0.996374
vn -0.7095571 0.03786341 -0.7036299
vn -0.7086461 0.06667789 -0.7024065
vn -0.9998558 0.01594124 0.00586556
vn -0.9997385 0.0223397 0.004869517
vn -0.7042044 -0.006179616 0.7099704
vn -0.7051911 -0.02186155 0.7086802
vn 0 -0.01539489 0.9998815
vn 0 -0.04013 0.9991944
vn 0.9997385 0.02233962 0.004869473
vn 0.9998558 0.01594126 0.005865643
vn 0.7051911 -0.02186164 0.7086802
vn 0.7042044 -0.006179644 0.7099704
vn 0 -0.04013 0.9991944
vn 0 -0.01539489 0.9998815
vn -0.7093117 0.0009440977 -0.7048943
vn -0.9999576 0.00748456 0.005371731
vn -0.7039031 0.01333338 0.7101708
vn 0 0.01554966 0.9998791
vn 0.7039031 0.01333324 0.7101709
vn 0 0.01554966 0.9998791
vn 0.9999576 0.007484357 0.005371767
vn 0.7093117 0.0009439491 -0.7048942
vn 0 -0.001961864 -0.9999981
vn 0 -0.04035776 -0.9991853
vn 0.7078982 -0.0283556 -0.705745
vn -0.7078982 -0.02835568 -0.705745
vn -0.9999949 0.0002815663 0.003180827
vn -0.70473 0.02828323 0.7089115
vn 0 0.03965358 0.9992135
vn 0.70473 0.02828321 0.7089115
vn 0 0.03965358 0.9992135
vn 0.9999949 0.000281564 0.003180812
vn 0 -0.04803257 -0.9988458
vn 0.7061871 -0.03402867 -0.7072071
vn -0.7061871 -0.0340288 -0.7072072
vn -0.9999999 -9.116609E-05 -0.0004983858
vn -0.7066844 0.03387215 0.7067177
vn 0 0.04790121 0.9988521
vn 0.7066844 0.03387224 0.7067177
vn 0 0.04790121 0.9988521
vn 0.9999999 -9.111489E-05 -0.000498408
vn 0 -0.0270435 -0.9996343
vn 0.7048404 -0.01926812 -0.7091042
vn -0.7048404 -0.0192681 -0.7091042
vn -0.9999914 -0.0002395742 -0.004135424
vn -0.7089698 0.01912559 0.7049796
vn 0 0.02723671 0.999629
vn 0.7089697 0.01912559 0.7049796
vn 0 0.02723671 0.999629
vn 0.9999914 -0.0002396688 -0.004135424
vn 0 -0.004794679 -0.9999886
vn 0.7065289 -0.003396742 -0.707676
vn -0.7065289 -0.003396673 -0.707676
vn -0.9999994 -1.096364E-05 -0.001148498
vn -0.7076672 0.003390828 0.7065378
vn 0 0.004804761 0.9999884
vn 0.7076672 0.003390829 0.7065378
vn 0 0.004804761 0.9999884
vn 0.9999994 -1.096386E-05 -0.001148498
vn 0 0 -1
vn 0.7071144 0 -0.7070991
vn -0.7071144 0 -0.7070991
vn -1 0 0
vn -0.7070996 0 0.707114
vn 0 0 1
vn 0.7070996 0 0.7071139
vn 0 0 1
vn 1 0 0
vn 0 0 -1
vn 0.7071144 0 -0.7070991
vn -0.7071144 0 -0.7070991
vn -1 0 0
vn -0.7070996 0 0.707114
vn 0 0 1
vn 0.7070996 0 0.707114
vn 0 0 1
vn 1 0 0
vn 0.009129153 0.02584396 -0.9996243
vn 0.7097093 0.01780638 -0.7042696
vn -0.6966856 0.0191526 -0.7171209
vn -0.9998584 0.001371122 -0.0167721
vn -0.7173036 -0.01739043 0.6965437
vn -0.009363329 -0.02586797 0.9996215
vn 0.7041908 -0.01879795 0.7097619
vn -0.009363329 -0.02586797 0.9996215
vn 0.9999985 -0.0005753807 0.001653853
vn 0.04190387 0.1009958 -0.994004
vn 0.7292666 0.06860485 -0.6807815
vn -0.6692801 0.07577346 -0.7391364
vn -0.9984044 0.006678532 -0.05607083
vn -0.7432083 -0.06708111 0.6656888
vn -0.04251907 -0.1012665 0.9939504
vn 0.6838199 -0.07458293 0.725829
vn -0.04251907 -0.1012665 0.9939504
vn 0.9996094 -0.003691542 0.02770256
vn 0.06550195 0.1483674 -0.9867606
vn 0.745185 0.09986413 -0.6593379
vn -0.6517028 0.1120792 -0.7501479
vn -0.9969063 0.01069494 -0.07786709
vn -0.7573624 -0.09786069 0.6456202
vn -0.06491239 -0.1485137 0.9867777
vn 0.6662217 -0.1102929 0.7375528
vn -0.06491239 -0.1485137 0.9867777
vn 0.9986516 -0.006749627 0.05147485
vn 0.7069134 0.01578801 -0.7071239
vn -8.387379E-06 0.03770157 -0.999289
vn -0.0001166683 -0.7890372 -0.6143454
vn 0.3901314 -0.8013492 -0.4534721
vn 0.9993081 -0.03712843 -0.002175173
vn 0.5521638 -0.8312479 -0.0643597
vn -0.3901246 -0.8014818 -0.4532435
vn -0.7069203 0.01574657 -0.7071179
vn -0.5519106 -0.8314151 -0.06436952
vn -0.999306 -0.03718661 -0.002179335
vn -0.3905587 -0.861334 0.324912
vn -0.7063195 -0.09005821 0.7021412
vn -0.0001138455 -0.8736986 0.4864677
vn -7.765487E-06 -0.1119293 0.9937162
vn 0.7063128 -0.0900174 0.7021531
vn 0.3905725 -0.8612337 0.3251609
vn -7.765487E-06 -0.1119293 0.9937162
vn 0.9993081 -0.03712843 -0.002175173
vn 0.7069134 0.01578801 -0.7071239
vn -8.387379E-06 0.03770157 -0.999289
vn -0.7069203 0.01574657 -0.7071179
vn -0.999306 -0.03718661 -0.002179335
vn -0.7063195 -0.09005821 0.7021412
vn -7.765487E-06 -0.1119293 0.9937162
vn -7.867379E-07 -0.9969214 -0.07840748
g balloon_string_0
f 3/3/3 2/2/2 1/1/1
f 2/2/2 4/4/4 1/1/1
f 4/4/4 5/5/5 1/1/1
f 5/5/5 6/6/6 1/1/1
f 6/6/6 7/7/7 1/1/1
f 7/7/7 8/8/8 1/1/1
f 8/8/8 9/9/9 1/1/1
f 9/9/9 3/3/3 1/1/1
f 3/3/3 10/10/10 2/2/2
f 10/10/10 11/11/11 2/2/2
f 2/2/2 11/11/11 4/4/4
f 11/11/11 12/12/12 4/4/4
f 4/4/4 12/12/12 5/5/5
f 12/12/12 13/13/13 5/5/5
f 5/5/5 13/13/13 6/6/6
f 13/13/13 14/14/14 6/6/6
f 6/6/6 14/14/14 7/7/7
f 14/14/14 15/15/15 7/7/7
f 7/7/7 15/15/15 8/8/8
f 15/15/15 16/16/16 8/8/8
f 8/8/8 16/16/16 9/9/9
f 16/16/16 17/17/17 9/9/9
f 17/17/17 10/10/10 3/3/3
f 9/9/9 17/17/17 3/3/3
f 20/20/20 19/19/19 18/18/18
f 21/21/21 20/20/20 18/18/18
f 18/18/18 19/19/19 22/22/22
f 19/19/19 23/23/23 22/22/22
f 22/22/22 23/23/23 24/24/24
f 23/23/23 25/25/25 24/24/24
f 24/24/24 25/25/25 26/26/26
f 25/25/25 27/27/27 26/26/26
f 26/26/26 27/27/27 28/28/28
f 27/27/27 29/29/29 28/28/28
f 28/28/28 29/29/29 30/30/30
f 29/29/29 31/31/31 30/30/30
f 30/30/30 31/31/31 32/32/32
f 31/31/31 33/33/33 32/32/32
f 33/33/33 20/20/20 21/21/21
f 32/32/32 33/33/33 21/21/21
f 20/20/20 34/34/34 19/19/19
f 19/19/19 34/34/34 23/23/23
f 23/23/23 34/34/34 25/25/25
f 25/25/25 34/34/34 27/27/27
f 27/27/27 34/34/34 29/29/29
f 29/29/29 34/34/34 31/31/31
f 31/31/31 34/34/34 33/33/33
f 33/33/33 34/34/34 20/20/20
f 37/37/37 36/36/36 35/35/35
f 38/38/38 37/37/37 35/35/35
f 39/39/39 37/37/37 38/38/38
f 40/40/40 39/39/39 38/38/38
f 41/41/41 39/39/39 40/40/40
f 42/42/42 41/41/41 40/40/40
f 43/43/43 41/41/41 42/42/42
f 44/44/44 43/43/43 42/42/42
f 45/45/45 43/43/43 44/44/44
f 46/46/46 45/45/45 44/44/44
f 35/35/35 36/36/36 47/47/47
f 36/36/36 48/48/48 47/47/47
f 47/47/47 48/48/48 49/49/49
f 48/48/48 50/50/50 49/49/49
f 49/49/49 50/50/50 51/51/51
f 50/50/50 52/52/52 51/51/51
f 39/39/39 53/53/53 37/37/37
f 54/54/54 53/53/53 39/39/39
f 41/41/41 54/54/54 39/39/39
f 55/55/55 54/54/54 41/41/41
f 43/43/43 55/55/55 41/41/41
f 56/56/56 55/55/55 43/43/43
f 45/45/45 56/56/56 43/43/43
f 50/50/50 57/57/57 52/52/52
f 57/57/57 58/58/58 52/52/52
f 59/59/59 57/57/57 50/50/50
f 48/48/48 59/59/59 50/50/50
f 60/60/60 59/59/59 48/48/48
f 36/36/36 60/60/60 48/48/48
f 61/61/61 60/60/60 36/36/36
f 37/37/37 61/61/61 36/36/36
f 53/53/53 61/61/61 37/37/37
f 61/61/61 62/62/62 60/60/60
f 62/62/62 63/63/63 60/60/60
f 60/60/60 63/63/63 59/59/59
f 64/64/64 62/62/62 61/61/61
f 53/53/53 64/64/64 61/61/61
f 65/65/65 64/64/64 53/53/53
f 54/54/54 65/65/65 53/53/53
f 66/66/66 65/65/65 54/54/54
f 55/55/55 66/66/66 54/54/54
f 67/67/67 66/66/66 55/55/55
f 56/56/56 67/67/67 55/55/55
f 57/57/57 68/68/68 58/58/58
f 68/68/68 69/69/69 58/58/58
f 70/70/70 68/68/68 57/57/57
f 59/59/59 70/70/70 57/57/57
f 63/63/63 70/70/70 59/59/59
f 62/62/62 71/71/71 63/63/63
f 71/71/71 72/72/72 63/63/63
f 63/63/63 72/72/72 70/70/70
f 73/73/73 71/71/71 62/62/62
f 64/64/64 73/73/73 62/62/62
f 74/74/74 73/73/73 64/64/64
f 65/65/65 74/74/74 64/64/64
f 75/75/75 74/74/74 65/65/65
f 66/66/66 75/75/75 65/65/65
f 76/76/76 75/75/75 66/66/66
f 67/67/67 76/76/76 66/66/66
f 68/68/68 77/77/77 69/69/69
f 77/77/77 78/78/78 69/69/69
f 79/79/79 77/77/77 68/68/68
f 70/70/70 79/79/79 68/68/68
f 72/72/72 79/79/79 70/70/70
f 71/71/71 80/80/80 72/72/72
f 80/80/80 81/81/81 72/72/72
f 72/72/72 81/81/81 79/79/79
f 82/82/82 80/80/80 71/71/71
f 73/73/73 82/82/82 71/71/71
f 83/83/83 82/82/82 73/73/73
f 74/74/74 83/83/83 73/73/73
f 84/84/84 83/83/83 74/74/74
f 75/75/75 84/84/84 74/74/74
f 85/85/85 84/84/84 75/75/75
f 76/76/76 85/85/85 75/75/75
f 77/77/77 86/86/86 78/78/78
f 86/86/86 87/87/87 78/78/78
f 88/88/88 86/86/86 77/77/77
f 79/79/79 88/88/88 77/77/77
f 81/81/81 88/88/88 79/79/79
f 80/80/80 89/89/89 81/81/81
f 89/89/89 90/90/90 81/81/81
f 81/81/81 90/90/90 88/88/88
f 91/91/91 89/89/89 80/80/80
f 82/82/82 91/91/91 80/80/80
f 92/92/92 91/91/91 82/82/82
f 83/83/83 92/92/92 82/82/82
f 93/93/93 92/92/92 83/83/83
f 84/84/84 93/93/93 83/83/83
f 94/94/94 93/93/93 84/84/84
f 85/85/85 94/94/94 84/84/84
f 86/86/86 95/95/95 87/87/87
f 95/95/95 96/96/96 87/87/87
f 97/97/97 95/95/95 86/86/86
f 88/88/88 97/97/97 86/86/86
f 90/90/90 97/97/97 88/88/88
f 89/89/89 98/98/98 90/90/90
f 98/98/98 99/99/99 90/90/90
f 90/90/90 99/99/99 97/97/97
f 100/100/100 98/98/98 89/89/89
f 91/91/91 100/100/100 89/89/89
f 101/101/101 100/100/100 91/91/91
f 92/92/92 101/101/101 91/91/91
f 102/102/102 101/101/101 92/92/92
f 93/93/93 102/102/102 92/92/92
f 103/103/103 102/102/102 93/93/93
f 94/94/94 103/103/103 93/93/93
f 95/95/95 104/104/104 96/96/96
f 104/104/104 105/105/105 96/96/96
f 106/106/106 104/104/104 95/95/95
f 97/97/97 106/106/106 95/95/95
f 99/99/99 106/106/106 97/97/97
f 98/98/98 107/107/107 99/99/99
f 107/107/107 108/108/108 99/99/99
f 99/99/99 108/108/108 106/106/106
f 109/109/109 107/107/107 98/98/98
f 100/100/100 109/109/109 98/98/98
f 110/110/110 109/109/109 100/100/100
f 101/101/101 110/110/110 100/100/100
f 111/111/111 110/110/110 101/101/101
f 102/102/102 111/111/111 101/101/101
f 112/112/112 111/111/111 102/102/102
f 103/103/103 112/112/112 102/102/102
f 104/104/104 113/113/113 105/105/105
f 113/113/113 114/114/114 105/105/105
f 115/115/115 113/113/113 104/104/104
f 106/106/106 115/115/115 104/104/104
f 108/108/108 115/115/115 106/106/106
f 107/107/107 116/116/116 108/108/108
f 116/116/116 117/117/117 108/108/108
f 108/108/108 117/117/117 115/115/115
f 118/118/118 116/116/116 107/107/107
f 109/109/109 118/118/118 107/107/107
f 119/119/119 118/118/118 109/109/109
f 110/110/110 119/119/119 109/109/109
f 120/120/120 119/119/119 110/110/110
f 111/111/111 120/120/120 110/110/110
f 121/121/121 120/120/120 111/111/111
f 112/112/112 121/121/121 111/111/111
f 113/113/113 122/122/122 114/114/114
f 122/122/122 123/123/123 114/114/114
f 124/124/124 122/122/122 113/113/113
f 115/115/115 124/124/124 113/113/113
f 117/117/117 124/124/124 115/115/115
f 116/116/116 125/125/125 117/117/117
f 125/125/125 126/126/126 117/117/117
f 117/117/117 126/126/126 124/124/124
f 127/127/127 125/125/125 116/116/116
f 118/118/118 127/127/127 116/116/116
f 128/128/128 127/127/127 118/118/118
f 119/119/119 128/128/128 118/118/118
f 129/129/129 128/128/128 119/119/119
f 120/120/120 129/129/129 119/119/119
f 130/130/130 129/129/129 120/120/120
f 121/121/121 130/130/130 120/120/120
f 122/122/122 131/131/131 123/123/123
f 131/131/131 132/132/132 123/123/123
f 133/133/133 131/131/131 122/122/122
f 124/124/124 133/133/133 122/122/122
f 126/126/126 133/133/133 124/124/124
f 125/125/125 134/134/134 126/126/126
f 134/134/134 135/135/135 126/126/126
f 126/126/126 135/135/135 133/133/133
f 136/136/136 134/134/134 125/125/125
f 127/127/127 136/136/136 125/125/125
f 137/137/137 136/136/136 127/127/127
f 128/128/128 137/137/137 127/127/127
f 138/138/138 137/137/137 128/128/128
f 129/129/129 138/138/138 128/128/128
f 139/139/139 138/138/138 129/129/129
f 130/130/130 139/139/139 129/129/129
f 131/131/131 140/140/140 132/132/132
f 140/140/140 141/141/141 132/132/132
f 142/142/142 140/140/140 131/131/131
f 133/133/133 142/142/142 131/131/131
f 135/135/135 142/142/142 133/133/133
f 145/145/145 144/144/144 143/143/143
f 146/146/146 145/145/145 143/143/143
f 143/143/143 147/147/147 146/146/146
f 147/147/147 148/148/148 146/146/146
f 145/145/145 149/149/149 144/144/144
f 149/149/149 150/150/150 144/144/144
f 149/149/149 151/151/151 150/150/150
f 151/151/151 152/152/152 150/150/150
f 151/151/151 153/153/153 152/152/152
f 153/153/153 154/154/154 152/152/152
f 153/153/153 155/155/155 154/154/154
f 155/155/155 156/156/156 154/154/154
f 148/148/148 147/147/147 157/157/157
f 158/158/158 148/148/148 157/157/157
f 158/158/158 157/157/157 159/159/159
f 155/155/155 158/158/158 159/159/159
f 157/157/157 49/49/49 159/159/159
f 49/49/49 51/51/51 159/159/159
f 47/47/47 49/49/49 157/157/157
f 160/160/160 47/47/47 157/157/157
f 35/35/35 47/47/47 160/160/160
f 161/161/161 35/35/35 160/160/160
f 38/38/38 35/35/35 161/161/161
f 162/162/162 38/38/38 161/161/161
f 40/40/40 38/38/38 162/162/162
f 163/163/163 40/40/40 162/162/162
f 42/42/42 40/40/40 163/163/163
f 164/164/164 42/42/42 163/163/163
f 44/44/44 42/42/42 164/164/164
f 165/165/165 44/44/44 164/164/164
f 46/46/46 44/44/44 165/165/165
f 166/166/166 46/46/46 165/165/165
f 146/146/146 167/167/167 145/145/145
f 145/145/145 167/167/167 149/149/149
f 149/149/149 167/167/167 151/151/151
f 151/151/151 167/167/167 153/153/153
f 153/153/153 167/167/167 155/155/155
f 155/155/155 167/167/167 158/158/158
f 158/158/158 167/167/167 148/148/148
f 148/148/148 167/167/167 146/146/146
