g balloon_string
v 0.03835937 0.2882591 -0.02365479
v 0.03378906 0.6525233 -0.0008984375
v -0.01486328 0.6537724 -0.02101074
v -0.01486328 0.2898918 -0.04563965
v -0.06351563 0.6525233 -0.0008984375
v -0.06808349 0.2882591 -0.02365479
v -0.08366699 0.6495082 0.04766113
v -0.09012939 0.2843175 0.02942139
v -0.06351563 0.6464928 0.0962207
v -0.06808349 0.2803758 0.08249756
v -0.01486328 0.645244 0.1163354
v -0.01486328 0.2787431 0.1044824
v 0.06040527 0.2843175 0.02942139
v 0.05394287 0.6495082 0.04766113
v 0.03835937 0.2803758 0.08249756
v 0.03378906 0.6464928 0.0962207
v -0.01486328 0.2787431 0.1044824
v -0.01486328 0.645244 0.1163354
v -0.05986084 1.017421 0.006560058
v -0.07850097 1.015403 0.05151367
v -0.05986084 1.013386 0.09646972
v -0.01486328 1.01255 0.1150903
v 0.03013672 1.013386 0.09646972
v -0.01486328 1.01255 0.1150903
v 0.04877685 1.015403 0.05151367
v 0.03013672 1.017421 0.006560058
v -0.01486328 1.018256 -0.01206055
v -0.01486328 1.383269 -0.02262451
v 0.03013672 1.382777 -0.003991699
v -0.05986084 1.382777 -0.003991699
v -0.07850097 1.381588 0.04099121
v -0.05986084 1.380398 0.08597656
v -0.01486328 1.379906 0.1046094
v 0.03013672 1.380398 0.08597656
v -0.01486328 1.379906 0.1046094
v 0.04877685 1.381588 0.04099121
v -0.01486328 1.748274 -0.04143555
v 0.03013672 1.748072 -0.02279541
v -0.05986084 1.748072 -0.02279541
v -0.07850097 1.747583 0.02219971
v -0.05986084 1.747094 0.06719726
v -0.01486328 1.746892 0.08583496
v 0.03013672 1.747094 0.06719726
v -0.01486328 1.746892 0.08583496
v 0.04877685 1.747583 0.02219971
v -0.01486328 2.113382 -0.0577832
v 0.03013672 2.113353 -0.03914551
v -0.05986084 2.113353 -0.03914551
v -0.07850097 2.113281 0.005854492
v -0.05986084 2.113209 0.05085449
v -0.01486328 2.113178 0.06949218
v 0.03013672 2.113209 0.05085449
v -0.01486328 2.113178 0.06949218
v 0.04877685 2.113281 0.005854492
v -0.01486328 2.478876 -0.06129394
v 0.03013672 2.478876 -0.04265381
v -0.05986084 2.478876 -0.04265381
v -0.07850097 2.478876 0.002346191
v -0.05986084 2.478876 0.04734375
v -0.01486328 2.478876 0.06598388
v 0.03013672 2.478876 0.04734375
v -0.01486328 2.478876 0.06598388
v 0.04877685 2.478876 0.002346191
v -0.01486328 2.844468 -0.06129394
v 0.03013672 2.844468 -0.04265381
v -0.05986084 2.844468 -0.04265381
v -0.07850097 2.844468 0.002346191
v -0.05986084 2.844468 0.04734375
v -0.01486328 2.844468 0.06598388
v 0.03013672 2.844468 0.04734375
v -0.01486328 2.844468 0.06598388
v 0.04877685 2.844468 0.002346191
v -0.01486328 3.21006 -0.06129394
v 0.03013672 3.21006 -0.04265381
v -0.05986084 3.21006 -0.04265381
v -0.07850097 3.21006 0.002346191
v -0.05986084 3.21006 0.04734375
v -0.01486328 3.21006 0.06598388
v 0.03013672 3.21006 0.04734375
v -0.01486328 3.21006 0.06598388
v 0.04877685 3.21006 0.002346191
v -0.01486328 3.575652 -0.06129394
v 0.03013672 3.575652 -0.04265381
v -0.05986084 3.575652 -0.04265381
v -0.07850097 3.575652 0.002346191
v -0.05986084 3.575652 0.04734375
v -0.01486328 3.575652 0.06598388
v 0.03013672 3.575652 0.04734375
v -0.01486328 3.575652 0.06598388
v 0.04877685 3.575652 0.002346191
v -0.01184326 3.92248 -0.04266357
v 0.03233154 3.920558 -0.02223633
v -0.05758789 3.920832 -0.02601562
v -0.07810546 3.916581 0.0179541
v -0.06137939 3.912216 0.06348877
v -0.01720459 3.910295 0.08391602
v 0.02854004 3.911943 0.06727051
v -0.01720459 3.910295 0.08391602
v 0.04905762 3.916194 0.02330078
v -0.009494629 4.265867 0.009113769
v 0.03377197 4.261838 0.03111816
v -0.05590332 4.262756 0.02356201
v -0.07827392 4.254327 0.06599853
v -0.06349609 4.245518 0.1115674
v -0.02023193 4.241488 0.1335718
v 0.0261792 4.2446 0.1191235
v -0.02023193 4.241488 0.1335718
v 0.04854736 4.253029 0.07668701
v 0.04491455 -0.04996048 -0.05559326
v -0.01486328 -0.04803665 -0.08027832
v -0.01486328 -0.08012711 -0.05047363
v 0.0222168 -0.08133133 -0.03516357
v 0.06967529 -0.05460525 0.004001465
v 0.03753662 -0.08423843 0.001801758
v -0.05191406 -0.08133347 -0.03513672
v -0.07463867 -0.04996048 -0.05559326
v -0.06720947 -0.08423843 0.001801758
v -0.09939941 -0.05460525 0.004001465
v -0.05185058 -0.08713852 0.03867432
v -0.07463867 -0.05925003 0.06359863
v -0.01486328 -0.08833969 0.05395019
v -0.01486328 -0.06117355 0.08828369
v 0.04491455 -0.05925003 0.06359863
v 0.02215088 -0.08714096 0.03870117
v -0.01486328 -0.06117355 0.08828369
v 0.06967529 -0.05460525 0.004001465
v 0.04491455 -0.04996048 -0.05559326
v -0.01486328 -0.04803665 -0.08027832
v -0.07463867 -0.04996048 -0.05559326
v -0.09939941 -0.05460525 0.004001465
v -0.07463867 -0.05925003 0.06359863
v -0.01486328 -0.06117355 0.08828369
v -0.01486328 -0.08423843 0.001801758
v -0.01890137 4.253991 0.154939
v -0.01867676 4.291169 -0.0443164
v 0.1290112 4.27716 0.01938477
v -0.1666968 4.291865 0.01989502
v -0.2281641 4.288638 0.169353
v -0.1669116 4.286965 0.3129956
v -0.01915283 4.308201 0.362666
v 0.1287793 4.294237 0.312124
v 0.1901831 4.282164 0.1689209
v 0.1485742 4.224502 0.000571289
v -0.01900147 4.245569 -0.07855957
v -0.1865576 4.238173 0.001350098
v -0.2559668 4.229508 0.1740332
v -0.18656 4.231083 0.3402197
v -0.01898926 4.26247 0.403999
v 0.1485742 4.239365 0.3395337
v 0.217981 4.224116 0.174082
v -0.01900147 4.245569 -0.07855957
v -0.01929932 4.141392 -0.04487549
v 0.1180566 4.136751 0.02719238
v 0.1485742 4.224502 0.000571289
v -0.1865576 4.238173 0.001350098
v -0.1563281 4.142938 0.02697754
v -0.2559668 4.229508 0.1740332
v -0.2129394 4.151135 0.1697632
v -0.18656 4.231083 0.3402197
v -0.156123 4.160722 0.3100659
v -0.01898926 4.26247 0.403999
v -0.01883789 4.171178 0.3733911
v 0.1485742 4.239365 0.3395337
v 0.1182812 4.167844 0.3092407
v 0.217981 4.224116 0.174082
v 0.1749561 4.144705 0.170835
v -0.01907715 4.123267 0.1637427
vt 0.512207 0.2685547
vt 0.512207 0.277832
vt 0.5146484 0.277832
vt 0.5146484 0.2685547
vt 0.5170898 0.277832
vt 0.5170898 0.2685547
vt 0.5195313 0.277832
vt 0.5195313 0.2685547
vt 0.5224609 0.277832
vt 0.5224609 0.2685547
vt 0.5249023 0.277832
vt 0.5249023 0.2685547
vt 0.5097656 0.2685547
vt 0.5097656 0.277832
vt 0.5078125 0.2685547
vt 0.5078125 0.277832
vt 0.5053711 0.2685547
vt 0.5053711 0.277832
vt 0.5170898 0.2871094
vt 0.5195313 0.2871094
vt 0.5224609 0.2871094
vt 0.5249023 0.2871094
vt 0.5078125 0.2871094
vt 0.5053711 0.2871094
vt 0.5097656 0.2871094
vt 0.512207 0.2871094
vt 0.5146484 0.2871094
vt 0.5146484 0.2966309
vt 0.512207 0.2966309
vt 0.5170898 0.2966309
vt 0.5195313 0.2966309
vt 0.5224609 0.2966309
vt 0.5249023 0.2966309
vt 0.5078125 0.2966309
vt 0.5053711 0.2966309
vt 0.5097656 0.2966309
vt 0.5146484 0.3059082
vt 0.512207 0.3059082
vt 0.5170898 0.3059082
vt 0.5195313 0.3059082
vt 0.5224609 0.3059082
vt 0.5249023 0.3059082
vt 0.5078125 0.3059082
vt 0.5053711 0.3059082
vt 0.5097656 0.3059082
vt 0.5146484 0.3154297
vt 0.512207 0.3154297
vt 0.5170898 0.3154297
vt 0.5195313 0.3154297
vt 0.5224609 0.3154297
vt 0.5249023 0.3154297
vt 0.5078125 0.3154297
vt 0.5053711 0.3154297
vt 0.5097656 0.3154297
vt 0.5146484 0.324707
vt 0.512207 0.324707
vt 0.5170898 0.324707
vt 0.5195313 0.324707
vt 0.5224609 0.324707
vt 0.5249023 0.324707
vt 0.5078125 0.324707
vt 0.5053711 0.324707
vt 0.5097656 0.324707
vt 0.5146484 0.3342285
vt 0.512207 0.3342285
vt 0.5170898 0.3342285
vt 0.5195313 0.3342285
vt 0.5224609 0.3342285
vt 0.5249023 0.3342285
vt 0.5078125 0.3342285
vt 0.5053711 0.3342285
vt 0.5097656 0.3342285
vt 0.5146484 0.3435059
vt 0.512207 0.3435059
vt 0.5170898 0.3435059
vt 0.5195313 0.3435059
vt 0.5224609 0.3435059
vt 0.5249023 0.3435059
vt 0.5078125 0.3435059
vt 0.5053711 0.3435059
vt 0.5097656 0.3435059
vt 0.5146484 0.3530273
vt 0.512207 0.3530273
vt 0.5170898 0.3530273
vt 0.5195313 0.3530273
vt 0.5224609 0.3530273
vt 0.5249023 0.3530273
vt 0.5078125 0.3530273
vt 0.5053711 0.3530273
vt 0.5097656 0.3530273
vt 0.5146484 0.3618164
vt 0.512207 0.3618164
vt 0.5170898 0.3618164
vt 0.5195313 0.3618164
vt 0.5224609 0.3618164
vt 0.5249023 0.3618164
vt 0.5078125 0.3618164
vt 0.5053711 0.3618164
vt 0.5097656 0.3618164
vt 0.5146484 0.3703613
vt 0.512207 0.3703613
vt 0.5170898 0.3703613
vt 0.5195313 0.3703613
vt 0.5224609 0.3703613
vt 0.5249023 0.3703613
vt 0.5078125 0.3703613
vt 0.5053711 0.3703613
vt 0.5097656 0.3703613
vt 0.5107422 0.2526855
vt 0.5083008 0.2495117
vt 0.5073242 0.251709
vt 0.5083008 0.2536621
vt 0.5107422 0.2568359
vt 0.5083008 0.2558594
vt 0.5048828 0.2514648
vt 0.5043945 0.2490234
vt 0.503418 0.2529297
vt 0.5014648 0.2514648
vt 0.503418 0.2553711
vt 0.5009766 0.2556152
vt 0.5043945 0.2573242
vt 0.5029297 0.2592773
vt 0.5078125 0.2600098
vt 0.5068359 0.2573242
vt 0.5053711 0.2597656
vt 0.5097656 0.2597656
vt 0.512207 0.2597656
vt 0.5146484 0.2597656
vt 0.5170898 0.2597656
vt 0.5195313 0.2597656
vt 0.5224609 0.2597656
vt 0.5249023 0.2597656
vt 0.5058594 0.2546387
vt 0.5927734 0.2578125
vt 0.5986328 0.2563477
vt 0.5957031 0.2519531
vt 0.5976563 0.2617188
vt 0.59375 0.2646484
vt 0.5888672 0.2636719
vt 0.5864258 0.2592773
vt 0.5874023 0.2541504
vt 0.5913086 0.2512207
vt 0.5966797 0.2502441
vt 0.6005859 0.2561035
vt 0.5991211 0.2629395
vt 0.59375 0.2668457
vt 0.5878906 0.2653809
vt 0.5849609 0.2595215
vt 0.5854492 0.2529297
vt 0.5908203 0.2490234
vt 0.6240234 0.3344727
vt 0.6210938 0.3344727
vt 0.6191406 0.338623
vt 0.6210938 0.3410645
vt 0.6210938 0.3273926
vt 0.6191406 0.3300781
vt 0.6147461 0.3249512
vt 0.6147461 0.3278809
vt 0.6088867 0.3278809
vt 0.6108398 0.3295898
vt 0.605957 0.3342285
vt 0.6088867 0.3342285
vt 0.6083984 0.3405762
vt 0.6103516 0.3388672
vt 0.6142578 0.3435059
vt 0.6147461 0.3405762
vt 0.6147461 0.3342285
vn 0.7086453 0.06667767 -0.7024072
vn 0.7095556 0.0378636 -0.7036315
vn 0 0.04687924 -0.9989005
vn 0 0.08508272 -0.9963738
vn -0.7095556 0.03786332 -0.7036315
vn -0.7086452 0.06667791 -0.7024072
vn -0.9998558 0.01594061 0.005865556
vn -0.9997385 0.0223393 0.004871008
vn -0.7042055 -0.006179991 0.7099693
vn -0.7051898 -0.02186175 0.7086815
vn 0 -0.01539484 0.9998815
vn 0 -0.04013005 0.9991944
vn 0.9997386 0.0223389 0.004870988
vn 0.9998558 0.01594147 0.005865571
vn 0.7051898 -0.02186207 0.7086814
vn 0.7042054 -0.006179587 0.7099693
vn 0 -0.04013005 0.9991944
vn 0 -0.01539484 0.9998815
vn -0.7093115 0.000943726 -0.7048944
vn -0.9999576 0.00748409 0.005371267
vn -0.7039022 0.01333324 0.7101716
vn 0 0.01554974 0.9998791
vn 0.7039022 0.0133337 0.7101717
vn 0 0.01554974 0.9998791
vn 0.9999576 0.007485041 0.005371275
vn 0.7093115 0.0009440669 -0.7048944
vn 0 -0.001962076 -0.9999981
vn 0 -0.04035783 -0.9991853
vn 0.7078991 -0.0283559 -0.7057441
vn -0.7078991 -0.02835574 -0.7057441
vn -0.9999949 0.0002815849 0.003181796
vn -0.7047285 0.02828342 0.7089132
vn 0 0.03965371 0.9992135
vn 0.7047285 0.02828333 0.7089131
vn 0 0.03965371 0.9992135
vn 0.9999949 0.000281274 0.003181811
vn 0 -0.04803263 -0.9988458
vn 0.7061859 -0.03402899 -0.7072083
vn -0.7061859 -0.03402853 -0.7072083
vn -0.9999999 -9.074243E-05 -0.0004974426
vn -0.7066852 0.03387217 0.7067169
vn 0 0.04790135 0.9988521
vn 0.7066852 0.03387208 0.7067169
vn 0 0.04790135 0.9988521
vn 0.9999999 -9.158112E-05 -0.0004974426
vn 0 -0.02704361 -0.9996343
vn 0.7048378 -0.01926858 -0.7091067
vn -0.7048378 -0.01926798 -0.7091067
vn -0.9999914 -0.0002394534 -0.004135397
vn -0.7089731 0.01912544 0.7049761
vn 0 0.02723665 0.999629
vn 0.7089731 0.01912541 0.7049762
vn 0 0.02723665 0.999629
vn 0.9999914 -0.0002399186 -0.004135398
vn 0 -0.004794735 -0.9999886
vn 0.7065303 -0.00339692 -0.7076746
vn -0.7065303 -0.003396688 -0.7076746
vn -0.9999994 -1.094088E-05 -0.001148487
vn -0.7076687 0.00339081 0.7065363
vn 0 0.00480461 0.9999884
vn 0.7076687 0.00339088 0.7065363
vn 0 0.00480461 0.9999884
vn 0.9999994 -1.094215E-05 -0.001148487
vn 0 0 -1
vn 0.7071144 0 -0.7070991
vn -0.7071144 0 -0.7070991
vn -1 0 0
vn -0.7070996 0 0.7071139
vn 0 0 1
vn 0.7070996 0 0.7071139
vn 0 0 1
vn 1 0 0
vn 0 0 -1
vn 0.7071144 0 -0.7070991
vn -0.7071144 0 -0.7070991
vn -1 0 0
vn -0.7070996 0 0.7071139
vn 0 0 1
vn 0.7070996 0 0.7071139
vn 0 0 1
vn 1 0 0
vn 0.009129041 0.02584392 -0.9996243
vn 0.7097108 0.01780649 -0.7042681
vn -0.6966849 0.01915235 -0.7171216
vn -0.9998584 0.001370844 -0.01677347
vn -0.7173052 -0.01739037 0.6965421
vn -0.009366189 -0.02586805 0.9996215
vn 0.7041895 -0.01879799 0.7097631
vn -0.009366189 -0.02586805 0.9996215
vn 0.9999985 -0.0005750714 0.001654638
vn 0.04190074 0.1009963 -0.9940041
vn 0.7292668 0.06860508 -0.6807814
vn -0.669278 0.07577372 -0.7391382
vn -0.9984044 0.006677778 -0.05607174
vn -0.743209 -0.06708106 0.665688
vn -0.04252214 -0.1012667 0.9939501
vn 0.6838182 -0.07458364 0.7258306
vn -0.04252214 -0.1012667 0.9939501
vn 0.9996094 -0.003691385 0.02770301
vn 0.06549584 0.1483685 -0.986761
vn 0.7451828 0.09986457 -0.6593403
vn -0.6517001 0.1120803 -0.75015
vn -0.9969065 0.01069403 -0.07786611
vn -0.7573609 -0.09786078 0.6456218
vn -0.06491243 -0.1485136 0.9867777
vn 0.6662208 -0.1102941 0.7375534
vn -0.06491243 -0.1485136 0.9867777
vn 0.9986516 -0.006749936 0.05147413
vn 0.7069175 0.01578813 -0.7071198
vn -7.356937E-06 0.03770186 -0.999289
vn -0.0001076488 -0.7890366 -0.6143462
vn 0.3901359 -0.8013464 -0.4534732
vn 0.9993081 -0.03712928 -0.002173525
vn 0.5521638 -0.8312478 -0.06435952
vn -0.3901241 -0.8014823 -0.4532431
vn -0.7069243 0.01574652 -0.7071139
vn -0.5519172 -0.8314108 -0.06437054
vn -0.999306 -0.03718587 -0.002177699
vn -0.3905595 -0.8613325 0.3249151
vn -0.7063144 -0.09005831 0.7021464
vn -0.0001192763 -0.873694 0.4864759
vn -8.436548E-06 -0.111929 0.9937162
vn 0.7063074 -0.09001844 0.7021585
vn 0.3905697 -0.8612337 0.3251643
vn -8.436548E-06 -0.111929 0.9937162
vn 0.9993081 -0.03712928 -0.002173525
vn 0.7069175 0.01578813 -0.7071198
vn -7.356937E-06 0.03770186 -0.999289
vn -0.7069243 0.01574652 -0.7071139
vn -0.999306 -0.03718587 -0.002177699
vn -0.7063144 -0.09005831 0.7021464
vn -8.436548E-06 -0.111929 0.9937162
vn -9.833988E-07 -0.9969215 -0.07840617
vn 0.0155389 0.9995851 -0.02425445
vn 0.03618395 0.9259693 -0.3758611
vn 0.3541572 0.8906184 -0.2852568
vn -0.3084214 0.9142179 -0.2628342
vn -0.4394277 0.8982662 0.004589135
vn -0.3491697 0.9027973 0.2510727
vn -0.02094127 0.9614534 0.2741694
vn 0.3353173 0.9176176 0.2134016
vn 0.4560517 0.888514 -0.05059408
vn 0.7219941 -0.08812732 -0.6862639
vn -0.01079593 -0.03484068 -0.9993345
vn -0.7258381 -0.06526945 -0.6847618
vn -0.9948835 -0.1008847 0.005383431
vn -0.6884359 -0.06720734 0.7221767
vn 0.002361259 0.04578366 0.9989486
vn 0.6881027 -0.04359397 0.7243026
vn 0.9938532 -0.1094264 0.01677933
vn -0.01079593 -0.03484068 -0.9993345
vn -0.0203536 -0.6819075 -0.7311552
vn 0.4808432 -0.7390171 -0.4718513
vn 0.7219941 -0.08812732 -0.6862639
vn -0.7258381 -0.06526945 -0.6847618
vn -0.5074279 -0.7139581 -0.4824735
vn -0.9948835 -0.1008847 0.005383431
vn -0.656424 -0.7543904 0.001682634
vn -0.6884359 -0.06720734 0.7221767
vn -0.4222739 -0.7579963 0.4971181
vn 0.002361259 0.04578366 0.9989486
vn 0.01725058 -0.711726 0.7022454
vn 0.6881027 -0.04359397 0.7243026
vn 0.4307264 -0.7365127 0.5215592
vn 0.9938532 -0.1094264 0.01677933
vn 0.634245 -0.7720109 0.04162259
vn -0.008082281 -0.9971344 0.07521756
g balloon_string_0
f 3/3/3 2/2/2 1/1/1
f 4/4/4 3/3/3 1/1/1
f 5/5/5 3/3/3 4/4/4
f 6/6/6 5/5/5 4/4/4
f 7/7/7 5/5/5 6/6/6
f 8/8/8 7/7/7 6/6/6
f 9/9/9 7/7/7 8/8/8
f 10/10/10 9/9/9 8/8/8
f 11/11/11 9/9/9 10/10/10
f 12/12/12 11/11/11 10/10/10
f 1/1/1 2/2/2 13/13/13
f 2/2/2 14/14/14 13/13/13
f 13/13/13 14/14/14 15/15/15
f 14/14/14 16/16/16 15/15/15
f 15/15/15 16/16/16 17/17/17
f 16/16/16 18/18/18 17/17/17
f 5/5/5 19/19/19 3/3/3
f 20/20/20 19/19/19 5/5/5
f 7/7/7 20/20/20 5/5/5
f 21/21/21 20/20/20 7/7/7
f 9/9/9 21/21/21 7/7/7
f 22/22/22 21/21/21 9/9/9
f 11/11/11 22/22/22 9/9/9
f 16/16/16 23/23/23 18/18/18
f 23/23/23 24/24/24 18/18/18
f 25/25/25 23/23/23 16/16/16
f 14/14/14 25/25/25 16/16/16
f 26/26/26 25/25/25 14/14/14
f 2/2/2 26/26/26 14/14/14
f 27/27/27 26/26/26 2/2/2
f 3/3/3 27/27/27 2/2/2
f 19/19/19 27/27/27 3/3/3
f 27/27/27 28/28/28 26/26/26
f 28/28/28 29/29/29 26/26/26
f 26/26/26 29/29/29 25/25/25
f 30/30/30 28/28/28 27/27/27
f 19/19/19 30/30/30 27/27/27
f 31/31/31 30/30/30 19/19/19
f 20/20/20 31/31/31 19/19/19
f 32/32/32 31/31/31 20/20/20
f 21/21/21 32/32/32 20/20/20
f 33/33/33 32/32/32 21/21/21
f 22/22/22 33/33/33 21/21/21
f 23/23/23 34/34/34 24/24/24
f 34/34/34 35/35/35 24/24/24
f 36/36/36 34/34/34 23/23/23
f 25/25/25 36/36/36 23/23/23
f 29/29/29 36/36/36 25/25/25
f 28/28/28 37/37/37 29/29/29
f 37/37/37 38/38/38 29/29/29
f 29/29/29 38/38/38 36/36/36
f 39/39/39 37/37/37 28/28/28
f 30/30/30 39/39/39 28/28/28
f 40/40/40 39/39/39 30/30/30
f 31/31/31 40/40/40 30/30/30
f 41/41/41 40/40/40 31/31/31
f 32/32/32 41/41/41 31/31/31
f 42/42/42 41/41/41 32/32/32
f 33/33/33 42/42/42 32/32/32
f 34/34/34 43/43/43 35/35/35
f 43/43/43 44/44/44 35/35/35
f 45/45/45 43/43/43 34/34/34
f 36/36/36 45/45/45 34/34/34
f 38/38/38 45/45/45 36/36/36
f 37/37/37 46/46/46 38/38/38
f 46/46/46 47/47/47 38/38/38
f 38/38/38 47/47/47 45/45/45
f 48/48/48 46/46/46 37/37/37
f 39/39/39 48/48/48 37/37/37
f 49/49/49 48/48/48 39/39/39
f 40/40/40 49/49/49 39/39/39
f 50/50/50 49/49/49 40/40/40
f 41/41/41 50/50/50 40/40/40
f 51/51/51 50/50/50 41/41/41
f 42/42/42 51/51/51 41/41/41
f 43/43/43 52/52/52 44/44/44
f 52/52/52 53/53/53 44/44/44
f 54/54/54 52/52/52 43/43/43
f 45/45/45 54/54/54 43/43/43
f 47/47/47 54/54/54 45/45/45
f 46/46/46 55/55/55 47/47/47
f 55/55/55 56/56/56 47/47/47
f 47/47/47 56/56/56 54/54/54
f 57/57/57 55/55/55 46/46/46
f 48/48/48 57/57/57 46/46/46
f 58/58/58 57/57/57 48/48/48
f 49/49/49 58/58/58 48/48/48
f 59/59/59 58/58/58 49/49/49
f 50/50/50 59/59/59 49/49/49
f 60/60/60 59/59/59 50/50/50
f 51/51/51 60/60/60 50/50/50
f 52/52/52 61/61/61 53/53/53
f 61/61/61 62/62/62 53/53/53
f 63/63/63 61/61/61 52/52/52
f 54/54/54 63/63/63 52/52/52
f 56/56/56 63/63/63 54/54/54
f 55/55/55 64/64/64 56/56/56
f 64/64/64 65/65/65 56/56/56
f 56/56/56 65/65/65 63/63/63
f 66/66/66 64/64/64 55/55/55
f 57/57/57 66/66/66 55/55/55
f 67/67/67 66/66/66 57/57/57
f 58/58/58 67/67/67 57/57/57
f 68/68/68 67/67/67 58/58/58
f 59/59/59 68/68/68 58/58/58
f 69/69/69 68/68/68 59/59/59
f 60/60/60 69/69/69 59/59/59
f 61/61/61 70/70/70 62/62/62
f 70/70/70 71/71/71 62/62/62
f 72/72/72 70/70/70 61/61/61
f 63/63/63 72/72/72 61/61/61
f 65/65/65 72/72/72 63/63/63
f 64/64/64 73/73/73 65/65/65
f 73/73/73 74/74/74 65/65/65
f 65/65/65 74/74/74 72/72/72
f 75/75/75 73/73/73 64/64/64
f 66/66/66 75/75/75 64/64/64
f 76/76/76 75/75/75 66/66/66
f 67/67/67 76/76/76 66/66/66
f 77/77/77 76/76/76 67/67/67
f 68/68/68 77/77/77 67/67/67
f 78/78/78 77/77/77 68/68/68
f 69/69/69 78/78/78 68/68/68
f 70/70/70 79/79/79 71/71/71
f 79/79/79 80/80/80 71/71/71
f 81/81/81 79/79/79 70/70/70
f 72/72/72 81/81/81 70/70/70
f 74/74/74 81/81/81 72/72/72
f 73/73/73 82/82/82 74/74/74
f 82/82/82 83/83/83 74/74/74
f 74/74/74 83/83/83 81/81/81
f 84/84/84 82/82/82 73/73/73
f 75/75/75 84/84/84 73/73/73
f 85/85/85 84/84/84 75/75/75
f 76/76/76 85/85/85 75/75/75
f 86/86/86 85/85/85 76/76/76
f 77/77/77 86/86/86 76/76/76
f 87/87/87 86/86/86 77/77/77
f 78/78/78 87/87/87 77/77/77
f 79/79/79 88/88/88 80/80/80
f 88/88/88 89/89/89 80/80/80
f 90/90/90 88/88/88 79/79/79
f 81/81/81 90/90/90 79/79/79
f 83/83/83 90/90/90 81/81/81
f 82/82/82 91/91/91 83/83/83
f 91/91/91 92/92/92 83/83/83
f 83/83/83 92/92/92 90/90/90
f 93/93/93 91/91/91 82/82/82
f 84/84/84 93/93/93 82/82/82
f 94/94/94 93/93/93 84/84/84
f 85/85/85 94/94/94 84/84/84
f 95/95/95 94/94/94 85/85/85
f 86/86/86 95/95/95 85/85/85
f 96/96/96 95/95/95 86/86/86
f 87/87/87 96/96/96 86/86/86
f 88/88/88 97/97/97 89/89/89
f 97/97/97 98/98/98 89/89/89
f 99/99/99 97/97/97 88/88/88
f 90/90/90 99/99/99 88/88/88
f 92/92/92 99/99/99 90/90/90
f 91/91/91 100/100/100 92/92/92
f 100/100/100 101/101/101 92/92/92
f 92/92/92 101/101/101 99/99/99
f 102/102/102 100/100/100 91/91/91
f 93/93/93 102/102/102 91/91/91
f 103/103/103 102/102/102 93/93/93
f 94/94/94 103/103/103 93/93/93
f 104/104/104 103/103/103 94/94/94
f 95/95/95 104/104/104 94/94/94
f 105/105/105 104/104/104 95/95/95
f 96/96/96 105/105/105 95/95/95
f 97/97/97 106/106/106 98/98/98
f 106/106/106 107/107/107 98/98/98
f 108/108/108 106/106/106 97/97/97
f 99/99/99 108/108/108 97/97/97
f 101/101/101 108/108/108 99/99/99
f 111/111/111 110/110/110 109/109/109
f 112/112/112 111/111/111 109/109/109
f 109/109/109 113/113/113 112/112/112
f 113/113/113 114/114/114 112/112/112
f 111/111/111 115/115/115 110/110/110
f 115/115/115 116/116/116 110/110/110
f 115/115/115 117/117/117 116/116/116
f 117/117/117 118/118/118 116/116/116
f 117/117/117 119/119/119 118/118/118
f 119/119/119 120/120/120 118/118/118
f 119/119/119 121/121/121 120/120/120
f 121/121/121 122/122/122 120/120/120
f 114/114/114 113/113/113 123/123/123
f 124/124/124 114/114/114 123/123/123
f 124/124/124 123/123/123 125/125/125
f 121/121/121 124/124/124 125/125/125
f 123/123/123 15/15/15 125/125/125
f 15/15/15 17/17/17 125/125/125
f 13/13/13 15/15/15 123/123/123
f 126/126/126 13/13/13 123/123/123
f 1/1/1 13/13/13 126/126/126
f 127/127/127 1/1/1 126/126/126
f 4/4/4 1/1/1 127/127/127
f 128/128/128 4/4/4 127/127/127
f 6/6/6 4/4/4 128/128/128
f 129/129/129 6/6/6 128/128/128
f 8/8/8 6/6/6 129/129/129
f 130/130/130 8/8/8 129/129/129
f 10/10/10 8/8/8 130/130/130
f 131/131/131 10/10/10 130/130/130
f 12/12/12 10/10/10 131/131/131
f 132/132/132 12/12/12 131/131/131
f 112/112/112 133/133/133 111/111/111
f 111/111/111 133/133/133 115/115/115
f 115/115/115 133/133/133 117/117/117
f 117/117/117 133/133/133 119/119/119
f 119/119/119 133/133/133 121/121/121
f 121/121/121 133/133/133 124/124/124
f 124/124/124 133/133/133 114/114/114
f 114/114/114 133/133/133 112/112/112
f 136/136/136 135/135/135 134/134/134
f 135/135/135 137/137/137 134/134/134
f 137/137/137 138/138/138 134/134/134
f 138/138/138 139/139/139 134/134/134
f 139/139/139 140/140/140 134/134/134
f 140/140/140 141/141/141 134/134/134
f 141/141/141 142/142/142 134/134/134
f 142/142/142 136/136/136 134/134/134
f 136/136/136 143/143/143 135/135/135
f 143/143/143 144/144/144 135/135/135
f 135/135/135 144/144/144 137/137/137
f 144/144/144 145/145/145 137/137/137
f 137/137/137 145/145/145 138/138/138
f 145/145/145 146/146/146 138/138/138
f 138/138/138 146/146/146 139/139/139
f 146/146/146 147/147/147 139/139/139
f 139/139/139 147/147/147 140/140/140
f 147/147/147 148/148/148 140/140/140
f 140/140/140 148/148/148 141/141/141
f 148/148/148 149/149/149 141/141/141
f 141/141/141 149/149/149 142/142/142
f 149/149/149 150/150/150 142/142/142
f 150/150/150 143/143/143 136/136/136
f 142/142/142 150/150/150 136/136/136
f 153/153/153 152/152/152 151/151/151
f 154/154/154 153/153/153 151/151/151
f 151/151/151 152/152/152 155/155/155
f 152/152/152 156/156/156 155/155/155
f 155/155/155 156/156/156 157/157/157
f 156/156/156 158/158/158 157/157/157
f 157/157/157 158/158/158 159/159/159
f 158/158/158 160/160/160 159/159/159
f 159/159/159 160/160/160 161/161/161
f 160/160/160 162/162/162 161/161/161
f 161/161/161 162/162/162 163/163/163
f 162/162/162 164/164/164 163/163/163
f 163/163/163 164/164/164 165/165/165
f 164/164/164 166/166/166 165/165/165
f 166/166/166 153/153/153 154/154/154
f 165/165/165 166/166/166 154/154/154
f 153/153/153 167/167/167 152/152/152
f 152/152/152 167/167/167 156/156/156
f 156/156/156 167/167/167 158/158/158
f 158/158/158 167/167/167 160/160/160
f 160/160/160 167/167/167 162/162/162
f 162/162/162 167/167/167 164/164/164
f 164/164/164 167/167/167 166/166/166
f 166/166/166 167/167/167 153/153/153
