g m_dlc08_hay_03
v 0.261027 0.02677388 0.3102975
v 0.2545988 0.07104214 0.6291723
v -0.2769973 0.1456543 0.6398944
v -0.2681588 0.06308438 0.3179556
v 0.2616074 0.02414563 0.001065066
v -0.2627926 0.02422829 0.0009249904
v 0.2538627 0.0599503 -0.2935407
v -0.2635866 0.02656796 -0.3058334
v 0.2355979 0.1302767 -0.5690579
v -0.2729836 0.0668086 -0.597399
vt 0.9912109 0.1307373
vt 0.9912109 0.01273346
vt 0.7695313 0.01273346
vt 0.7695313 0.1307373
vt 0.9912109 0.2486572
vt 0.7695313 0.2486572
vt 0.9912109 0.3666992
vt 0.7695313 0.3666992
vt 0.9912109 0.4846191
vt 0.7695313 0.4846191
vn 0.06675128 0.9893914 -0.1290305
vn 0.09881277 0.9766136 -0.1909499
vn 0.09881275 0.9766136 -0.1909499
vn 0.06837793 0.9888654 -0.132172
vn 0.001805062 0.9999932 -0.003210348
vn 0.001684267 0.9999942 -0.002975602
vn -0.06429343 0.9899923 0.1256245
vn -0.06628361 0.9893594 0.1295162
vn -0.09982534 0.9756891 0.1951044
vn -0.09982534 0.9756891 0.1951044
g m_dlc08_hay_03_0
f 3/3/3 2/2/2 1/1/1
f 4/4/4 3/3/3 1/1/1
f 4/4/4 1/1/1 5/5/5
f 6/6/6 4/4/4 5/5/5
f 6/6/6 5/5/5 7/7/7
f 8/8/8 6/6/6 7/7/7
f 8/8/8 7/7/7 9/9/9
f 10/10/10 8/8/8 9/9/9
