g m_dlc08_organhorn_011
v 0.01228221 1.064305 -0.1134899
v 0.01464671 1.249218 -0.1353393
v -0.08534352 1.249218 -0.1060558
v -0.07156544 1.064305 -0.08893424
v -0.1353386 1.249218 -0.01464835
v -0.1134905 1.064305 -0.01228263
v -0.1060576 1.249218 0.08534371
v -0.08893605 1.064305 0.07156563
v -0.0146465 1.249218 0.13534
v -0.012282 1.064305 0.1134907
v 0.08534251 1.249218 0.106059
v 0.07156444 1.064305 0.08893685
v 0.1353388 1.249218 0.01464974
v 0.1134895 1.064305 0.01228402
v 0.1060566 1.249218 -0.08534171
v 0.08893504 1.064305 -0.07156364
v 0.01464671 1.249218 -0.1353393
v 0.01228221 1.064305 -0.1134899
v -0.06315724 0.7337635 -0.07848381
v -0.1001555 0.7337635 -0.01083854
v -0.09133595 0.4032557 -0.009885172
v -0.05759571 0.4032557 -0.07157341
v 0.01083934 0.7337635 -0.1001549
v 0.009884751 0.4032557 -0.09133536
v -0.05759571 0.07281379 -0.07157341
v 0.009884751 0.07281379 -0.09133536
v -0.05759571 -0.2576281 -0.07157341
v 0.009884751 -0.2576281 -0.09133536
v -0.07157399 0.4032557 0.0575959
v -0.07848561 0.7337635 0.06315682
v -0.009884534 0.4032557 0.09133676
v -0.01083912 0.7337635 0.1001563
v 0.05759349 0.4032557 0.07157601
v 0.06315502 0.7337635 0.07848702
v 0.09133616 0.4032557 0.009886556
v 0.1001557 0.7337635 0.01084115
v 0.0715742 0.4032557 -0.05759391
v 0.07848582 0.7337635 -0.06315544
v 0.01083934 0.7337635 -0.1001549
v 0.009884751 0.4032557 -0.09133536
v 0.01083934 -0.5881362 -0.1001549
v -0.06315724 -0.5881362 -0.07848381
v 0.01228221 -0.9186773 -0.1134899
v -0.07156544 -0.9186773 -0.08893424
v -0.1001555 -0.5881362 -0.01083854
v -0.1134905 -0.9186773 -0.01228263
v -0.07848561 -0.5881362 0.06315682
v -0.08893605 -0.9186773 0.07156563
v -0.01083912 -0.5881362 0.1001563
v -0.012282 -0.9186773 0.1134907
v 0.06315502 -0.5881362 0.07848702
v 0.07156444 -0.9186773 0.08893685
v 0.1001557 -0.5881362 0.01084115
v 0.1134895 -0.9186773 0.01228402
v 0.07848582 -0.5881362 -0.06315544
v 0.08893504 -0.9186773 -0.07156364
v 0.01083934 -0.5881362 -0.1001549
v 0.01228221 -0.9186773 -0.1134899
v -0.07157399 -0.2576281 0.0575959
v -0.09133595 -0.2576281 -0.009885172
v -0.009884534 -0.2576281 0.09133676
v 0.05759349 -0.2576281 0.07157601
v 0.09133616 -0.2576281 0.009886556
v 0.0715742 -0.2576281 -0.05759391
v 0.009884751 -0.2576281 -0.09133536
v -0.09133595 0.07281379 -0.009885172
v -0.07157399 0.07281379 0.0575959
v -0.009884534 0.07281379 0.09133676
v 0.05759349 0.07281379 0.07157601
v 0.09133616 0.07281379 0.009886556
v 0.0715742 0.07281379 -0.05759391
v 0.009884751 0.07281379 -0.09133536
v -0.08534352 -1.249218 -0.1060558
v -0.1353386 -1.249218 -0.01464835
v -0.1060576 -1.249218 0.08534371
v -0.0146465 -1.249218 0.13534
v 0.08534251 -1.249218 0.106059
v 0.1353388 -1.249218 0.01464974
v 0.1060566 -1.249218 -0.08534171
v 0.01464671 -1.249218 -0.1353393
v 0.01464671 -1.249218 -0.1353393
vt 0.3874512 0.5620117
vt 0.3862305 0.565918
vt 0.3886719 0.5664063
vt 0.3894043 0.5625
vt 0.3911133 0.5668945
vt 0.3916016 0.5625
vt 0.3933105 0.5668945
vt 0.3935547 0.5625
vt 0.395752 0.5673828
vt 0.395752 0.5629883
vt 0.3979492 0.5673828
vt 0.3977051 0.5629883
vt 0.4003906 0.5668945
vt 0.3999023 0.5625
vt 0.402832 0.5668945
vt 0.4018555 0.5625
vt 0.4050293 0.5664063
vt 0.4040527 0.5620117
vt 0.3903809 0.5546875
vt 0.3920898 0.5546875
vt 0.3925781 0.546875
vt 0.3908691 0.546875
vt 0.3884277 0.5546875
vt 0.3891602 0.546875
vt 0.3908691 0.5390625
vt 0.3891602 0.5390625
vt 0.3908691 0.5317383
vt 0.3891602 0.5317383
vt 0.394043 0.546875
vt 0.394043 0.5546875
vt 0.395752 0.546875
vt 0.395752 0.5551758
vt 0.3974609 0.546875
vt 0.3974609 0.5546875
vt 0.3991699 0.546875
vt 0.3994141 0.5546875
vt 0.4008789 0.546875
vt 0.401123 0.5546875
vt 0.4030762 0.5546875
vt 0.4023438 0.546875
vt 0.3886719 0.5239258
vt 0.3903809 0.5239258
vt 0.3876953 0.5166016
vt 0.3896484 0.5161133
vt 0.392334 0.5239258
vt 0.3918457 0.5161133
vt 0.394043 0.5234375
vt 0.3937988 0.515625
vt 0.3959961 0.5234375
vt 0.3959961 0.515625
vt 0.3977051 0.5239258
vt 0.3979492 0.5161133
vt 0.3994141 0.5239258
vt 0.4001465 0.5161133
vt 0.4013672 0.5239258
vt 0.4020996 0.5161133
vt 0.4030762 0.5239258
vt 0.4040527 0.5166016
vt 0.3942871 0.53125
vt 0.3925781 0.5317383
vt 0.395752 0.53125
vt 0.3974609 0.5317383
vt 0.3991699 0.5317383
vt 0.4008789 0.5317383
vt 0.4025879 0.5317383
vt 0.3925781 0.5390625
vt 0.3942871 0.5390625
vt 0.395752 0.5390625
vt 0.3974609 0.5390625
vt 0.3991699 0.5395508
vt 0.4006348 0.5395508
vt 0.4023438 0.5395508
vt 0.3886719 0.5083008
vt 0.3911133 0.5083008
vt 0.3935547 0.5078125
vt 0.3959961 0.5078125
vt 0.3984375 0.5083008
vt 0.4008789 0.5083008
vt 0.4033203 0.5083008
vt 0.4055176 0.5087891
vt 0.3862305 0.5087891
vn 0.107317 -0.07198843 -0.9916152
vn 0.1068455 -0.1180193 -0.9872464
vn -0.6225368 -0.1180184 -0.7736403
vn -0.6252914 -0.07198865 -0.7770638
vn -0.9872468 -0.1180156 -0.1068466
vn -0.9916152 -0.07198752 -0.1073172
vn -0.7736409 -0.1180179 0.6225365
vn -0.7770633 -0.07198831 0.6252922
vn -0.1068504 -0.1180194 0.9872459
vn -0.1073241 -0.07198836 0.9916145
vn 0.6225362 -0.1180219 0.7736403
vn 0.6252908 -0.07198917 0.7770644
vn 0.9872463 -0.1180196 0.1068465
vn 0.9916148 -0.07198741 0.107321
vn 0.773644 -0.1180191 -0.6225324
vn 0.7770674 -0.07198733 -0.6252872
vn 0.1068455 -0.1180193 -0.9872464
vn 0.107317 -0.07198843 -0.9916152
vn -0.626554 -0.03412146 -0.7786307
vn -0.9936161 -0.03412184 -0.1075299
vn -0.994101 -0.01378014 -0.1075797
vn -0.6268571 -0.01377966 -0.7790123
vn 0.1075319 -0.03412135 -0.993616
vn 0.1075851 -0.01378014 -0.9941004
vn -0.6269155 0 -0.7790873
vn 0.1075972 0 -0.9941946
vn -0.6268572 0.01377968 -0.7790123
vn 0.1075851 0.01378016 -0.9941004
vn -0.7790114 -0.0137805 0.6268582
vn -0.7786303 -0.03412199 0.6265546
vn -0.1075939 -0.01378009 0.9940995
vn -0.1075416 -0.03412111 0.9936149
vn 0.6268556 -0.0137802 0.7790136
vn 0.626551 -0.0341211 0.7786332
vn 0.9940991 -0.01378044 0.1075968
vn 0.9936148 -0.03412057 0.1075426
vn 0.7790126 -0.0137806 -0.6268569
vn 0.7786335 -0.03412079 -0.6265505
vn 0.1075319 -0.03412135 -0.993616
vn 0.1075851 -0.01378014 -0.9941004
vn 0.1075319 0.0341214 -0.993616
vn -0.6265539 0.03412152 -0.7786309
vn 0.1074359 0.05460401 -0.9927114
vn -0.6259826 0.05460421 -0.777923
vn -0.9936161 0.03412181 -0.10753
vn -0.9927114 0.0546033 -0.1074364
vn -0.7786304 0.03412192 0.6265543
vn -0.7779227 0.05460382 0.6259829
vn -0.1075416 0.03412107 0.9936149
vn -0.1074425 0.05460379 0.9927107
vn 0.6265512 0.03412114 0.778633
vn 0.625982 0.05460447 0.7779234
vn 0.9936148 0.03412077 0.1075424
vn 0.9927111 0.05460332 0.1074391
vn 0.7786336 0.03412095 -0.6265504
vn 0.7779264 0.05460324 -0.6259785
vn 0.1075319 0.0341214 -0.993616
vn 0.1074359 0.05460401 -0.9927114
vn -0.7790114 0.01378042 0.6268582
vn -0.994101 0.0137801 -0.1075796
vn -0.1075939 0.01378006 0.9940995
vn 0.6268557 0.01378026 0.7790135
vn 0.9940991 0.01378051 0.1075965
vn 0.7790124 0.01378063 -0.626857
vn 0.1075851 0.01378016 -0.9941004
vn -0.9941955 0 -0.1075886
vn -0.7790865 0 0.6269165
vn -0.1076038 0 0.9941939
vn 0.6269154 0 0.7790874
vn 0.9941936 0 0.1076066
vn 0.7790865 0 -0.6269165
vn 0.1075972 0 -0.9941946
vn -0.6255368 0.06634084 -0.777369
vn -0.9920043 0.06633928 -0.1073616
vn -0.7773696 0.06634048 0.6255361
vn -0.1073653 0.06634124 0.9920039
vn 0.6255362 0.0663427 0.7773694
vn 0.9920042 0.06634154 0.1073612
vn 0.7773726 0.06634123 -0.6255323
vn 0.1073604 0.06634133 -0.9920042
vn 0.1073604 0.06634133 -0.9920042
g m_dlc08_organhorn_011_0
f 3/3/3 2/2/2 1/1/1
f 4/4/4 3/3/3 1/1/1
f 5/5/5 3/3/3 4/4/4
f 6/6/6 5/5/5 4/4/4
f 7/7/7 5/5/5 6/6/6
f 8/8/8 7/7/7 6/6/6
f 9/9/9 7/7/7 8/8/8
f 10/10/10 9/9/9 8/8/8
f 11/11/11 9/9/9 10/10/10
f 12/12/12 11/11/11 10/10/10
f 13/13/13 11/11/11 12/12/12
f 14/14/14 13/13/13 12/12/12
f 15/15/15 13/13/13 14/14/14
f 16/16/16 15/15/15 14/14/14
f 17/17/17 15/15/15 16/16/16
f 18/18/18 17/17/17 16/16/16
f 6/6/6 4/4/4 19/19/19
f 20/20/20 6/6/6 19/19/19
f 8/8/8 6/6/6 20/20/20
f 21/21/21 20/20/20 19/19/19
f 22/22/22 21/21/21 19/19/19
f 22/22/22 19/19/19 23/23/23
f 24/24/24 22/22/22 23/23/23
f 25/25/25 22/22/22 24/24/24
f 26/26/26 25/25/25 24/24/24
f 27/27/27 25/25/25 26/26/26
f 28/28/28 27/27/27 26/26/26
f 21/21/21 29/29/29 20/20/20
f 29/29/29 30/30/30 20/20/20
f 29/29/29 31/31/31 30/30/30
f 31/31/31 32/32/32 30/30/30
f 31/31/31 33/33/33 32/32/32
f 33/33/33 34/34/34 32/32/32
f 33/33/33 35/35/35 34/34/34
f 35/35/35 36/36/36 34/34/34
f 35/35/35 37/37/37 36/36/36
f 37/37/37 38/38/38 36/36/36
f 39/39/39 38/38/38 37/37/37
f 40/40/40 39/39/39 37/37/37
f 28/28/28 41/41/41 27/27/27
f 41/41/41 42/42/42 27/27/27
f 42/42/42 41/41/41 43/43/43
f 44/44/44 42/42/42 43/43/43
f 45/45/45 42/42/42 44/44/44
f 46/46/46 45/45/45 44/44/44
f 47/47/47 45/45/45 46/46/46
f 48/48/48 47/47/47 46/46/46
f 49/49/49 47/47/47 48/48/48
f 50/50/50 49/49/49 48/48/48
f 51/51/51 49/49/49 50/50/50
f 52/52/52 51/51/51 50/50/50
f 53/53/53 51/51/51 52/52/52
f 54/54/54 53/53/53 52/52/52
f 55/55/55 53/53/53 54/54/54
f 56/56/56 55/55/55 54/54/54
f 57/57/57 55/55/55 56/56/56
f 58/58/58 57/57/57 56/56/56
f 45/45/45 47/47/47 59/59/59
f 60/60/60 45/45/45 59/59/59
f 42/42/42 45/45/45 60/60/60
f 27/27/27 42/42/42 60/60/60
f 47/47/47 49/49/49 61/61/61
f 59/59/59 47/47/47 61/61/61
f 49/49/49 51/51/51 62/62/62
f 61/61/61 49/49/49 62/62/62
f 51/51/51 53/53/53 63/63/63
f 62/62/62 51/51/51 63/63/63
f 53/53/53 55/55/55 64/64/64
f 63/63/63 53/53/53 64/64/64
f 64/64/64 55/55/55 57/57/57
f 65/65/65 64/64/64 57/57/57
f 27/27/27 60/60/60 25/25/25
f 60/60/60 66/66/66 25/25/25
f 60/60/60 59/59/59 66/66/66
f 25/25/25 66/66/66 22/22/22
f 66/66/66 21/21/21 22/22/22
f 66/66/66 67/67/67 21/21/21
f 67/67/67 29/29/29 21/21/21
f 59/59/59 67/67/67 66/66/66
f 59/59/59 61/61/61 67/67/67
f 67/67/67 68/68/68 29/29/29
f 68/68/68 31/31/31 29/29/29
f 61/61/61 68/68/68 67/67/67
f 68/68/68 69/69/69 31/31/31
f 69/69/69 33/33/33 31/31/31
f 62/62/62 69/69/69 68/68/68
f 61/61/61 62/62/62 68/68/68
f 69/69/69 70/70/70 33/33/33
f 70/70/70 35/35/35 33/33/33
f 63/63/63 70/70/70 69/69/69
f 62/62/62 63/63/63 69/69/69
f 70/70/70 71/71/71 35/35/35
f 71/71/71 37/37/37 35/35/35
f 64/64/64 71/71/71 70/70/70
f 63/63/63 64/64/64 70/70/70
f 71/71/71 64/64/64 65/65/65
f 72/72/72 71/71/71 65/65/65
f 37/37/37 71/71/71 72/72/72
f 40/40/40 37/37/37 72/72/72
f 30/30/30 8/8/8 20/20/20
f 10/10/10 8/8/8 30/30/30
f 32/32/32 10/10/10 30/30/30
f 12/12/12 10/10/10 32/32/32
f 34/34/34 12/12/12 32/32/32
f 14/14/14 12/12/12 34/34/34
f 36/36/36 14/14/14 34/34/34
f 16/16/16 14/14/14 36/36/36
f 38/38/38 16/16/16 36/36/36
f 18/18/18 16/16/16 38/38/38
f 39/39/39 18/18/18 38/38/38
f 4/4/4 1/1/1 23/23/23
f 19/19/19 4/4/4 23/23/23
f 46/46/46 44/44/44 73/73/73
f 74/74/74 46/46/46 73/73/73
f 48/48/48 46/46/46 74/74/74
f 75/75/75 48/48/48 74/74/74
f 50/50/50 48/48/48 75/75/75
f 76/76/76 50/50/50 75/75/75
f 52/52/52 50/50/50 76/76/76
f 77/77/77 52/52/52 76/76/76
f 54/54/54 52/52/52 77/77/77
f 78/78/78 54/54/54 77/77/77
f 56/56/56 54/54/54 78/78/78
f 79/79/79 56/56/56 78/78/78
f 58/58/58 56/56/56 79/79/79
f 80/80/80 58/58/58 79/79/79
f 73/73/73 44/44/44 81/81/81
f 44/44/44 43/43/43 81/81/81
