g m_dlc08_corn_glass
v -2.260583 2.109262 1.290665
v -2.260583 2.109262 1.202205
v -2.304803 2.153483 1.202205
v -2.304803 2.153483 1.290665
v -2.304803 2.847948 1.290665
v -2.260583 2.847948 1.334887
v -2.260583 2.153483 1.334887
v -2.304803 2.847948 1.202205
v -2.260583 2.89217 1.202205
v -2.260583 2.89217 1.290665
v -0.7424102 2.109262 1.290665
v -0.7424102 2.109262 1.202205
v -0.7424102 2.89217 1.202205
v -0.7424102 2.89217 1.290665
v -0.7424102 2.847948 1.334887
v -0.7424102 2.153483 1.334887
v -0.5829119 2.109262 1.202205
v -0.5829119 2.109262 1.290665
v -0.5829119 2.701083 1.290665
v -0.5829119 2.701083 1.202205
v -0.6094427 2.153483 1.334887
v -0.6094427 2.688646 1.334887
v -0.5829119 2.656861 1.184514
v -0.5829119 2.656861 1.308356
v -0.5829119 2.153483 1.184514
v -0.5829119 2.153483 1.308356
v 2.213526 2.153483 1.290665
v 2.213526 2.153483 1.202205
v 2.169306 2.109262 1.202205
v 2.169306 2.109262 1.290665
v 2.213526 2.847948 1.202205
v 2.213526 2.847948 1.290665
v 2.169306 2.153483 1.334887
v 2.169306 2.847948 1.334887
v 2.169306 2.89217 1.290665
v 2.169306 2.89217 1.202205
v 0.6527192 2.153483 1.334887
v 0.6527192 2.109262 1.290665
v 0.6527192 2.89217 1.290665
v 0.6527192 2.847948 1.334887
v 0.6527192 2.89217 1.202205
v 0.6527192 2.109262 1.202205
v 0.4932221 2.109262 1.202205
v 0.4932221 2.109262 1.290665
v 0.4932221 2.701083 1.290665
v 0.4932221 2.701083 1.202205
v 0.5197529 2.688646 1.334887
v 0.5197529 2.153483 1.334887
v 0.4932221 2.656861 1.308356
v 0.4932221 2.656861 1.184514
v 0.4932221 2.153483 1.308356
v 0.4932221 2.153483 1.184514
v -2.304803 2.847948 1.202205
v -2.304803 2.153483 1.202205
v -2.260583 2.153483 1.157984
v -2.260583 2.847948 1.157984
v -2.260583 2.89217 1.202205
v -2.260583 2.109262 1.202205
v -0.7424102 2.153483 1.157984
v -0.7424102 2.109262 1.202205
v -0.7424102 2.847948 1.157984
v -0.7424102 2.89217 1.202205
v -0.6094427 2.688646 1.157984
v -0.6094427 2.153483 1.157984
v -0.5829119 2.701083 1.202205
v -0.5829119 2.109262 1.202205
v -0.5829119 2.153483 1.184514
v -0.5829119 2.656861 1.184514
v 2.169306 2.847948 1.157984
v 2.169306 2.153483 1.157984
v 2.213526 2.153483 1.202205
v 2.213526 2.847948 1.202205
v 2.169306 2.89217 1.202205
v 2.169306 2.109262 1.202205
v 0.6527192 2.847948 1.157984
v 0.6527192 2.89217 1.202205
v 0.6527192 2.109262 1.202205
v 0.6527192 2.153483 1.157984
v 0.5197529 2.153483 1.157984
v 0.4932221 2.109262 1.202205
v 0.5197529 2.688646 1.157984
v 0.4932221 2.701083 1.202205
v 0.4932221 2.656861 1.184514
v 0.4932221 2.153483 1.184514
vt 0.2454834 0.1313477
vt 0.2462158 0.1334229
vt 0.2487793 0.1307373
vt 0.2468262 0.130127
vt 0.2471924 0.1047974
vt 0.2457275 0.1050415
vt 0.2453613 0.1297607
vt 0.2492676 0.1040649
vt 0.2467041 0.1013794
vt 0.2459717 0.1035156
vt 0.2054443 0.1307373
vt 0.2052002 0.1330566
vt 0.206543 0.09991455
vt 0.2069092 0.1020508
vt 0.2069092 0.1036987
vt 0.2055664 0.1290283
vt 0.1998291 0.1304932
vt 0.2012939 0.1295166
vt 0.2022705 0.1068115
vt 0.2001953 0.1057129
vt 0.2022705 0.12854
vt 0.2033691 0.1074219
vt 0.1992188 0.1072998
vt 0.2023926 0.1080322
vt 0.1983643 0.1290283
vt 0.201416 0.12854
vt 0.2468262 0.06890869
vt 0.2490234 0.0682373
vt 0.2463379 0.06555176
vt 0.2457275 0.06756592
vt 0.2481689 0.09490967
vt 0.2462158 0.09417725
vt 0.2453613 0.0690918
vt 0.244751 0.09387207
vt 0.244873 0.09539795
vt 0.2456055 0.09753418
vt 0.2056885 0.06811523
vt 0.2055664 0.06646729
vt 0.2059326 0.09515381
vt 0.2060547 0.09356689
vt 0.2054443 0.09735107
vt 0.2054443 0.06414795
vt 0.1998291 0.06652832
vt 0.2015381 0.06750488
vt 0.201416 0.090271
vt 0.1994629 0.09124756
vt 0.2026367 0.08972168
vt 0.2023926 0.06854248
vt 0.2016602 0.08905029
vt 0.1984863 0.08966064
vt 0.2015381 0.06854248
vt 0.1983643 0.06793213
vt 0.2463379 0.02931213
vt 0.2463379 0.004051208
vt 0.244751 0.00415802
vt 0.244751 0.02920532
vt 0.244873 0.0308075
vt 0.244873 0.002563477
vt 0.2055664 0.00422287
vt 0.2054443 0.002605438
vt 0.2058105 0.02922058
vt 0.2056885 0.03082275
vt 0.2023926 0.02528381
vt 0.2021484 0.00440979
vt 0.2011719 0.02598572
vt 0.2011719 0.002994537
vt 0.2011719 0.004375458
vt 0.201416 0.02453613
vt 0.2026367 0.05914307
vt 0.2026367 0.03411865
vt 0.2010498 0.03399658
vt 0.2010498 0.05926514
vt 0.2026367 0.06072998
vt 0.2025146 0.03250122
vt 0.2415771 0.05908203
vt 0.2416992 0.06069946
vt 0.2418213 0.0324707
vt 0.2418213 0.03408813
vt 0.2452393 0.03427124
vt 0.2460938 0.03283691
vt 0.2449951 0.05514526
vt 0.2462158 0.05581665
vt 0.2459717 0.05438232
vt 0.2460938 0.03421021
vn -0.0210392 -0.9496811 0.3125112
vn -0.02103922 -0.9496811 -0.3125112
vn -0.9502751 -0.04484324 -0.308166
vn -0.9502751 -0.04484324 0.308166
vn -0.9502751 0.04484324 0.3081659
vn -0.02714779 0.05867863 0.9979078
vn -0.0271478 -0.05867867 0.9979078
vn -0.9502751 0.04484324 -0.3081659
vn -0.02103946 0.94968 -0.3125144
vn -0.02103945 0.94968 0.3125144
vn 0 -0.9491965 0.3146843
vn 0 -0.9491965 -0.3146843
vn 0.09407932 0.9469991 -0.3071509
vn 0.09407938 0.9469991 0.3071509
vn 0.009048399 0.06498253 0.9978454
vn 0 -0.06073258 0.9981541
vn 0.2937195 -0.9241473 -0.2442962
vn 0.2937188 -0.9241475 0.2442963
vn 0.8210663 0.545083 0.1695134
vn 0.8210661 0.5450832 -0.1695134
vn 0.1336035 -0.07823237 0.9879422
vn 0.1156294 0.05012555 0.9920269
vn 0.9733493 0.001949935 -0.2293188
vn 0.9733495 0.001949903 0.2293184
vn 0.9841822 -0.00336047 -0.1771276
vn 0.9841822 -0.003360413 0.1771276
vn 0.9502751 -0.04484312 0.308166
vn 0.9502751 -0.04484312 -0.308166
vn 0.02106073 -0.9496815 -0.3125081
vn 0.02106072 -0.9496815 0.3125081
vn 0.9502751 0.04484311 -0.3081659
vn 0.9502751 0.04484311 0.3081659
vn 0.02717538 -0.05867754 0.997907
vn 0.02717538 0.05867751 0.997907
vn 0.02106098 0.9496811 0.3125098
vn 0.021061 0.9496811 -0.3125098
vn 0 -0.0607335 0.998154
vn 0 -0.9491966 0.3146836
vn -0.09416906 0.9469936 0.3071403
vn -0.009057503 0.06498775 0.9978449
vn -0.09416898 0.9469936 -0.3071404
vn 0 -0.9491966 -0.3146836
vn -0.2937215 -0.9241467 -0.244296
vn -0.2937208 -0.9241469 0.2442962
vn -0.8210682 0.5450801 0.1695135
vn -0.8210679 0.5450802 -0.1695141
vn -0.1156301 0.05012545 0.9920267
vn -0.1336046 -0.07823238 0.987942
vn -0.9733497 0.00194989 0.2293176
vn -0.9733493 0.001949935 -0.2293188
vn -0.9841823 -0.003360449 0.177127
vn -0.9841822 -0.003360537 -0.1771276
vn -0.9502751 0.04484324 -0.3081659
vn -0.9502751 -0.04484324 -0.308166
vn -0.0271478 -0.05867867 -0.9979078
vn -0.02714779 0.05867863 -0.9979078
vn -0.02103946 0.94968 -0.3125144
vn -0.02103922 -0.9496811 -0.3125112
vn 0 -0.06073258 -0.9981541
vn 0 -0.9491965 -0.3146843
vn 0.009048379 0.06498253 -0.9978454
vn 0.09407932 0.9469991 -0.3071509
vn 0.1156287 0.05012558 -0.9920269
vn 0.1336021 -0.07823242 -0.9879424
vn 0.8210661 0.5450832 -0.1695134
vn 0.2937195 -0.9241473 -0.2442962
vn 0.9841822 -0.00336047 -0.1771276
vn 0.9733493 0.001949935 -0.2293188
vn 0.02717538 0.05867751 -0.997907
vn 0.02717539 -0.05867754 -0.997907
vn 0.9502751 -0.04484312 -0.308166
vn 0.9502751 0.04484311 -0.3081659
vn 0.021061 0.9496811 -0.3125098
vn 0.02106073 -0.9496815 -0.3125081
vn -0.009057474 0.06498775 -0.9978449
vn -0.09416898 0.9469936 -0.3071404
vn 0 -0.9491966 -0.3146836
vn 0 -0.0607335 -0.998154
vn -0.1336029 -0.07823242 -0.9879423
vn -0.2937215 -0.9241467 -0.244296
vn -0.1156291 0.05012548 -0.9920269
vn -0.8210679 0.5450802 -0.1695141
vn -0.9733493 0.001949935 -0.2293188
vn -0.9841822 -0.003360537 -0.1771276
g m_dlc08_corn_glass_0
f 3/3/3 2/2/2 1/1/1
f 4/4/4 3/3/3 1/1/1
f 4/4/4 5/5/5 3/3/3
f 6/6/6 5/5/5 4/4/4
f 7/7/7 6/6/6 4/4/4
f 7/7/7 4/4/4 1/1/1
f 5/5/5 8/8/8 3/3/3
f 9/9/9 8/8/8 5/5/5
f 10/10/10 9/9/9 5/5/5
f 6/6/6 10/10/10 5/5/5
f 11/11/11 1/1/1 2/2/2
f 1/1/1 11/11/11 7/7/7
f 12/12/12 11/11/11 2/2/2
f 13/13/13 9/9/9 10/10/10
f 14/14/14 13/13/13 10/10/10
f 15/15/15 14/14/14 10/10/10
f 6/6/6 15/15/15 10/10/10
f 15/15/15 6/6/6 7/7/7
f 16/16/16 15/15/15 7/7/7
f 11/11/11 16/16/16 7/7/7
f 11/11/11 12/12/12 17/17/17
f 18/18/18 11/11/11 17/17/17
f 13/13/13 14/14/14 19/19/19
f 20/20/20 13/13/13 19/19/19
f 15/15/15 16/16/16 21/21/21
f 21/21/21 16/16/16 11/11/11
f 18/18/18 21/21/21 11/11/11
f 22/22/22 15/15/15 21/21/21
f 14/14/14 15/15/15 22/22/22
f 19/19/19 14/14/14 22/22/22
f 20/20/20 19/19/19 23/23/23
f 19/19/19 24/24/24 23/23/23
f 22/22/22 21/21/21 24/24/24
f 19/19/19 22/22/22 24/24/24
f 23/23/23 24/24/24 25/25/25
f 24/24/24 26/26/26 25/25/25
f 17/17/17 25/25/25 26/26/26
f 18/18/18 17/17/17 26/26/26
f 21/21/21 26/26/26 24/24/24
f 21/21/21 18/18/18 26/26/26
f 29/29/29 28/28/28 27/27/27
f 30/30/30 29/29/29 27/27/27
f 28/28/28 31/31/31 27/27/27
f 31/31/31 32/32/32 27/27/27
f 27/27/27 32/32/32 33/33/33
f 33/33/33 30/30/30 27/27/27
f 32/32/32 34/34/34 33/33/33
f 32/32/32 31/31/31 35/35/35
f 34/34/34 32/32/32 35/35/35
f 31/31/31 36/36/36 35/35/35
f 30/30/30 33/33/33 37/37/37
f 38/38/38 30/30/30 37/37/37
f 29/29/29 30/30/30 38/38/38
f 34/34/34 35/35/35 39/39/39
f 40/40/40 34/34/34 39/39/39
f 33/33/33 34/34/34 40/40/40
f 37/37/37 33/33/33 40/40/40
f 35/35/35 36/36/36 41/41/41
f 39/39/39 35/35/35 41/41/41
f 42/42/42 29/29/29 38/38/38
f 43/43/43 42/42/42 38/38/38
f 44/44/44 43/43/43 38/38/38
f 45/45/45 39/39/39 41/41/41
f 46/46/46 45/45/45 41/41/41
f 47/47/47 40/40/40 39/39/39
f 45/45/45 47/47/47 39/39/39
f 48/48/48 37/37/37 40/40/40
f 47/47/47 48/48/48 40/40/40
f 38/38/38 37/37/37 48/48/48
f 44/44/44 38/38/38 48/48/48
f 49/49/49 45/45/45 46/46/46
f 47/47/47 45/45/45 49/49/49
f 50/50/50 49/49/49 46/46/46
f 51/51/51 49/49/49 50/50/50
f 51/51/51 48/48/48 47/47/47
f 49/49/49 51/51/51 47/47/47
f 44/44/44 48/48/48 51/51/51
f 52/52/52 51/51/51 50/50/50
f 52/52/52 43/43/43 44/44/44
f 51/51/51 52/52/52 44/44/44
f 55/55/55 54/54/54 53/53/53
f 56/56/56 55/55/55 53/53/53
f 57/57/57 56/56/56 53/53/53
f 55/55/55 58/58/58 54/54/54
f 55/55/55 59/59/59 58/58/58
f 59/59/59 55/55/55 56/56/56
f 59/59/59 60/60/60 58/58/58
f 61/61/61 59/59/59 56/56/56
f 62/62/62 61/61/61 56/56/56
f 57/57/57 62/62/62 56/56/56
f 59/59/59 61/61/61 63/63/63
f 64/64/64 59/59/59 63/63/63
f 60/60/60 59/59/59 64/64/64
f 61/61/61 62/62/62 65/65/65
f 63/63/63 61/61/61 65/65/65
f 66/66/66 60/60/60 64/64/64
f 64/64/64 63/63/63 67/67/67
f 66/66/66 64/64/64 67/67/67
f 63/63/63 68/68/68 67/67/67
f 63/63/63 65/65/65 68/68/68
f 71/71/71 70/70/70 69/69/69
f 72/72/72 71/71/71 69/69/69
f 73/73/73 72/72/72 69/69/69
f 70/70/70 71/71/71 74/74/74
f 73/73/73 69/69/69 75/75/75
f 76/76/76 73/73/73 75/75/75
f 70/70/70 74/74/74 77/77/77
f 78/78/78 70/70/70 77/77/77
f 69/69/69 70/70/70 78/78/78
f 75/75/75 69/69/69 78/78/78
f 79/79/79 78/78/78 77/77/77
f 80/80/80 79/79/79 77/77/77
f 81/81/81 75/75/75 78/78/78
f 79/79/79 81/81/81 78/78/78
f 82/82/82 76/76/76 75/75/75
f 81/81/81 82/82/82 75/75/75
f 83/83/83 81/81/81 79/79/79
f 82/82/82 81/81/81 83/83/83
f 84/84/84 83/83/83 79/79/79
f 79/79/79 80/80/80 84/84/84
