g m_dlc08_gobstopper_01
v 0.07122528 -0.1746744 0.01272003
v 0.131608 -0.1336899 0.02350372
v 0.1096805 -0.1336899 -0.07644134
v 0.05935821 -0.1746744 -0.04136993
v 0.02350372 -0.1336899 -0.131608
v 0.01272003 -0.1746744 -0.07122589
v -0.07644134 -0.1336899 -0.1096811
v -0.04136993 -0.1746744 -0.05935882
v -0.131608 -0.1336899 -0.02350372
v -0.07122589 -0.1746744 -0.01272064
v -0.1096805 -0.1336899 0.07644074
v -0.05935882 -0.1746744 0.04136932
v -0.02350372 -0.1336899 0.131608
v -0.01272003 -0.1746744 0.07122528
v 0.07644074 -0.1336899 0.1096805
v 0.04136932 -0.1746744 0.05935821
v 0.131608 -0.1336899 0.02350372
v 0.07122528 -0.1746744 0.01272003
v 0.03070892 -0.0723526 -0.171954
v -0.09987518 -0.0723526 -0.1433048
v -0.171954 -0.0723526 -0.03070953
v -0.1433048 -0.0723526 0.09987457
v -0.03070953 -0.0723526 0.1719534
v 0.09987518 -0.0723526 0.1433041
v 0.171954 -0.0723526 0.03070892
v -0.1081045 0 -0.155112
v 0.03323883 0 -0.1861215
v 0.1433041 -0.0723526 -0.09987518
v 0.171954 -0.0723526 0.03070892
v 0.1551114 0 -0.1081045
v 0.1861215 0 0.03323883
v -0.1861215 0 -0.03323944
v -0.1551114 0 0.1081039
v -0.03323944 0 0.1861215
v 0.1081039 0 0.1551114
v 0.1861215 0 0.03323883
v 0.1433041 0.0723529 -0.09987518
v 0.171954 0.0723529 0.03070892
v 0.03070892 0.0723529 -0.171954
v -0.09987518 0.0723529 -0.1433048
v -0.171954 0.0723529 -0.03070953
v -0.1433048 0.0723529 0.09987457
v -0.03070953 0.0723529 0.1719534
v 0.09987518 0.0723529 0.1433041
v 0.171954 0.0723529 0.03070892
v 0.1096805 0.1336902 -0.07644134
v 0.131608 0.1336902 0.02350372
v 0.02350372 0.1336902 -0.131608
v -0.07644134 0.1336902 -0.1096811
v -0.131608 0.1336902 -0.02350372
v -0.1096805 0.1336902 0.07644074
v -0.02350372 0.1336902 0.131608
v 0.07644074 0.1336902 0.1096805
v 0.131608 0.1336902 0.02350372
v 0.05935821 0.1746744 -0.04136993
v 0.07122528 0.1746744 0.01272003
v 0.01272003 0.1746744 -0.07122589
v -0.04136993 0.1746744 -0.05935882
v -0.07122589 0.1746744 -0.01272064
v -0.05935882 0.1746744 0.04136932
v -0.01272003 0.1746744 0.07122528
v 0.04136932 0.1746744 0.05935821
v 0.07122528 0.1746744 0.01272003
v -3.051758E-07 0.1890665 -3.051758E-07
v -3.051758E-07 0.1890665 -3.051758E-07
v -3.051758E-07 0.1890665 -3.051758E-07
v -3.051758E-07 0.1890665 -3.051758E-07
v -3.051758E-07 0.1890665 -3.051758E-07
v -3.051758E-07 0.1890665 -3.051758E-07
v -3.051758E-07 0.1890665 -3.051758E-07
v -3.051758E-07 0.1890665 -3.051758E-07
v -3.051758E-07 -0.1890665 -3.051758E-07
v -3.051758E-07 -0.1890665 -3.051758E-07
v -3.051758E-07 -0.1890665 -3.051758E-07
v -3.051758E-07 -0.1890665 -3.051758E-07
v -3.051758E-07 -0.1890665 -3.051758E-07
v -3.051758E-07 -0.1890665 -3.051758E-07
v -3.051758E-07 -0.1890665 -3.051758E-07
v -3.051758E-07 -0.1890665 -3.051758E-07
vt 0.3764648 0.4897461
vt 0.3764648 0.4912109
vt 0.3779297 0.4912109
vt 0.3779297 0.4897461
vt 0.3791504 0.4912109
vt 0.3791504 0.4897461
vt 0.3806152 0.4912109
vt 0.3806152 0.4897461
vt 0.3818359 0.4912109
vt 0.3818359 0.4897461
vt 0.3830566 0.4912109
vt 0.3830566 0.4897461
vt 0.3845215 0.4912109
vt 0.3845215 0.4897461
vt 0.3857422 0.4912109
vt 0.3857422 0.4897461
vt 0.387207 0.4912109
vt 0.387207 0.4897461
vt 0.3791504 0.4924316
vt 0.3806152 0.4924316
vt 0.3818359 0.4924316
vt 0.3830566 0.4924316
vt 0.3845215 0.4924316
vt 0.3857422 0.4924316
vt 0.387207 0.4924316
vt 0.3806152 0.4938965
vt 0.3791504 0.4938965
vt 0.3779297 0.4924316
vt 0.3764648 0.4924316
vt 0.3779297 0.4938965
vt 0.3764648 0.4938965
vt 0.3818359 0.4938965
vt 0.3830566 0.4938965
vt 0.3845215 0.4938965
vt 0.3857422 0.4938965
vt 0.387207 0.4938965
vt 0.3779297 0.4953613
vt 0.3764648 0.4953613
vt 0.3791504 0.4953613
vt 0.3806152 0.4953613
vt 0.3818359 0.4953613
vt 0.3830566 0.4953613
vt 0.3845215 0.4953613
vt 0.3857422 0.4953613
vt 0.387207 0.4953613
vt 0.3779297 0.4968262
vt 0.3764648 0.4968262
vt 0.3791504 0.4968262
vt 0.3806152 0.4968262
vt 0.3818359 0.4968262
vt 0.3830566 0.4968262
vt 0.3845215 0.4968262
vt 0.3857422 0.4968262
vt 0.387207 0.4968262
vt 0.3779297 0.4980469
vt 0.3764648 0.4980469
vt 0.3791504 0.4980469
vt 0.3806152 0.4980469
vt 0.3818359 0.4980469
vt 0.3830566 0.4980469
vt 0.3845215 0.4980469
vt 0.3857422 0.4980469
vt 0.387207 0.4980469
vt 0.3818359 0.4995117
vt 0.3818359 0.4995117
vt 0.3818359 0.4995117
vt 0.3818359 0.4995117
vt 0.3818359 0.4995117
vt 0.3818359 0.4995117
vt 0.3818359 0.4995117
vt 0.3818359 0.4995117
vt 0.3818359 0.4882813
vt 0.3818359 0.4882813
vt 0.3818359 0.4882813
vt 0.3818359 0.4882813
vt 0.3818359 0.4882813
vt 0.3818359 0.4882813
vt 0.3818359 0.4882813
vt 0.3818359 0.4882813
vn 0.4884903 -0.8681974 0.08723968
vn 0.7444838 -0.6542676 0.1329575
vn 0.6204452 -0.6542662 -0.4324157
vn 0.4071029 -0.8681968 -0.2837278
vn 0.1329587 -0.654266 -0.744485
vn 0.08723988 -0.8681962 -0.488492
vn -0.4324151 -0.6542664 -0.6204456
vn -0.2837284 -0.8681964 -0.4071036
vn -0.744485 -0.6542666 -0.1329558
vn -0.4884929 -0.8681958 -0.08723985
vn -0.6204447 -0.6542668 0.4324158
vn -0.4071036 -0.8681961 0.2837291
vn -0.1329574 -0.6542658 0.7444855
vn -0.08723956 -0.8681972 0.4884906
vn 0.4324142 -0.6542664 0.6204462
vn 0.2837283 -0.8681971 0.4071021
vn 0.7444838 -0.6542676 0.1329575
vn 0.4884903 -0.8681974 0.08723968
vn 0.1646958 -0.3498934 -0.9221984
vn -0.5356354 -0.3498944 -0.7685497
vn -0.9221984 -0.3498934 -0.1646954
vn -0.7685509 -0.3498935 0.5356343
vn -0.1646969 -0.3498944 0.9221978
vn 0.5356365 -0.3498933 0.7685494
vn 0.9221985 -0.3498935 0.1646947
vn -0.5717793 0 -0.8204075
vn 0.1758073 0 -0.9844246
vn 0.7685491 -0.3498937 -0.5356367
vn 0.9221985 -0.3498935 0.1646947
vn 0.8204064 0 -0.5717809
vn 0.9844247 0 0.1758061
vn -0.9844247 0 -0.1758062
vn -0.8204072 0 0.5717797
vn -0.1758069 0 0.9844246
vn 0.5717775 0 0.8204088
vn 0.9844247 0 0.1758061
vn 0.7685493 0.3498928 -0.535637
vn 0.9221989 0.3498927 0.1646948
vn 0.1646959 0.3498927 -0.9221987
vn -0.5356355 0.3498936 -0.7685499
vn -0.9221988 0.3498926 -0.1646955
vn -0.7685511 0.3498927 0.5356345
vn -0.1646969 0.3498936 0.9221981
vn 0.5356367 0.3498926 0.7685497
vn 0.9221989 0.3498927 0.1646948
vn 0.6204448 0.6542668 -0.4324154
vn 0.7444832 0.6542683 0.1329574
vn 0.1329586 0.6542666 -0.7444845
vn -0.4324148 0.654267 -0.6204452
vn -0.7444844 0.6542673 -0.1329557
vn -0.6204442 0.6542674 0.4324155
vn -0.1329574 0.6542665 0.7444849
vn 0.4324138 0.654267 0.6204458
vn 0.7444832 0.6542683 0.1329574
vn 0.4071008 0.8681983 -0.2837263
vn 0.4884877 0.8681988 0.08723921
vn 0.08723941 0.8681977 -0.4884896
vn -0.2837268 0.8681979 -0.4071015
vn -0.4884904 0.8681973 -0.08723941
vn -0.4071015 0.8681976 0.2837276
vn -0.08723907 0.8681986 0.488488
vn 0.2837268 0.8681985 0.4071001
vn 0.4884877 0.8681988 0.08723921
vn -2.134403E-07 1 -1.119516E-07
vn -2.134403E-07 1 -1.119516E-07
vn -2.134403E-07 1 -1.119516E-07
vn -2.134403E-07 1 -1.119516E-07
vn -2.134403E-07 1 -1.119516E-07
vn -2.134403E-07 1 -1.119516E-07
vn -2.134403E-07 1 -1.119516E-07
vn -2.134403E-07 1 -1.119516E-07
vn -2.134403E-07 -1 0
vn -2.134403E-07 -1 0
vn -2.134403E-07 -1 0
vn -2.134403E-07 -1 0
vn -2.134403E-07 -1 0
vn -2.134403E-07 -1 0
vn -2.134403E-07 -1 0
vn -2.134403E-07 -1 0
g m_dlc08_gobstopper_01_0
f 3/3/3 2/2/2 1/1/1
f 4/4/4 3/3/3 1/1/1
f 5/5/5 3/3/3 4/4/4
f 6/6/6 5/5/5 4/4/4
f 7/7/7 5/5/5 6/6/6
f 8/8/8 7/7/7 6/6/6
f 9/9/9 7/7/7 8/8/8
f 10/10/10 9/9/9 8/8/8
f 11/11/11 9/9/9 10/10/10
f 12/12/12 11/11/11 10/10/10
f 13/13/13 11/11/11 12/12/12
f 14/14/14 13/13/13 12/12/12
f 15/15/15 13/13/13 14/14/14
f 16/16/16 15/15/15 14/14/14
f 17/17/17 15/15/15 16/16/16
f 18/18/18 17/17/17 16/16/16
f 5/5/5 19/19/19 3/3/3
f 20/20/20 19/19/19 5/5/5
f 7/7/7 20/20/20 5/5/5
f 21/21/21 20/20/20 7/7/7
f 9/9/9 21/21/21 7/7/7
f 22/22/22 21/21/21 9/9/9
f 11/11/11 22/22/22 9/9/9
f 23/23/23 22/22/22 11/11/11
f 13/13/13 23/23/23 11/11/11
f 24/24/24 23/23/23 13/13/13
f 15/15/15 24/24/24 13/13/13
f 25/25/25 24/24/24 15/15/15
f 17/17/17 25/25/25 15/15/15
f 20/20/20 26/26/26 19/19/19
f 26/26/26 27/27/27 19/19/19
f 19/19/19 27/27/27 28/28/28
f 19/19/19 28/28/28 3/3/3
f 3/3/3 28/28/28 2/2/2
f 28/28/28 29/29/29 2/2/2
f 28/28/28 30/30/30 29/29/29
f 27/27/27 30/30/30 28/28/28
f 30/30/30 31/31/31 29/29/29
f 32/32/32 26/26/26 20/20/20
f 21/21/21 32/32/32 20/20/20
f 33/33/33 32/32/32 21/21/21
f 22/22/22 33/33/33 21/21/21
f 34/34/34 33/33/33 22/22/22
f 23/23/23 34/34/34 22/22/22
f 35/35/35 34/34/34 23/23/23
f 24/24/24 35/35/35 23/23/23
f 36/36/36 35/35/35 24/24/24
f 25/25/25 36/36/36 24/24/24
f 30/30/30 37/37/37 31/31/31
f 37/37/37 38/38/38 31/31/31
f 39/39/39 37/37/37 30/30/30
f 27/27/27 39/39/39 30/30/30
f 40/40/40 39/39/39 27/27/27
f 26/26/26 40/40/40 27/27/27
f 41/41/41 40/40/40 26/26/26
f 32/32/32 41/41/41 26/26/26
f 42/42/42 41/41/41 32/32/32
f 33/33/33 42/42/42 32/32/32
f 43/43/43 42/42/42 33/33/33
f 34/34/34 43/43/43 33/33/33
f 44/44/44 43/43/43 34/34/34
f 35/35/35 44/44/44 34/34/34
f 45/45/45 44/44/44 35/35/35
f 36/36/36 45/45/45 35/35/35
f 37/37/37 46/46/46 38/38/38
f 46/46/46 47/47/47 38/38/38
f 48/48/48 46/46/46 37/37/37
f 39/39/39 48/48/48 37/37/37
f 49/49/49 48/48/48 39/39/39
f 40/40/40 49/49/49 39/39/39
f 50/50/50 49/49/49 40/40/40
f 41/41/41 50/50/50 40/40/40
f 51/51/51 50/50/50 41/41/41
f 42/42/42 51/51/51 41/41/41
f 52/52/52 51/51/51 42/42/42
f 43/43/43 52/52/52 42/42/42
f 53/53/53 52/52/52 43/43/43
f 44/44/44 53/53/53 43/43/43
f 54/54/54 53/53/53 44/44/44
f 45/45/45 54/54/54 44/44/44
f 46/46/46 55/55/55 47/47/47
f 55/55/55 56/56/56 47/47/47
f 57/57/57 55/55/55 46/46/46
f 48/48/48 57/57/57 46/46/46
f 58/58/58 57/57/57 48/48/48
f 49/49/49 58/58/58 48/48/48
f 59/59/59 58/58/58 49/49/49
f 50/50/50 59/59/59 49/49/49
f 60/60/60 59/59/59 50/50/50
f 51/51/51 60/60/60 50/50/50
f 61/61/61 60/60/60 51/51/51
f 52/52/52 61/61/61 51/51/51
f 62/62/62 61/61/61 52/52/52
f 53/53/53 62/62/62 52/52/52
f 63/63/63 62/62/62 53/53/53
f 54/54/54 63/63/63 53/53/53
f 55/55/55 64/64/64 56/56/56
f 57/57/57 65/65/65 55/55/55
f 58/58/58 66/66/66 57/57/57
f 59/59/59 67/67/67 58/58/58
f 60/60/60 68/68/68 59/59/59
f 61/61/61 69/69/69 60/60/60
f 62/62/62 70/70/70 61/61/61
f 63/63/63 71/71/71 62/62/62
f 1/1/1 72/72/72 4/4/4
f 4/4/4 73/73/73 6/6/6
f 6/6/6 74/74/74 8/8/8
f 8/8/8 75/75/75 10/10/10
f 10/10/10 76/76/76 12/12/12
f 12/12/12 77/77/77 14/14/14
f 14/14/14 78/78/78 16/16/16
f 16/16/16 79/79/79 18/18/18
