g m_dlc08_city_h18_broken_floor_01
v 0.8686007 -0.02883407 0.6
v 0.6237396 -0.02930266 0.8608462
v 0.6 -5.613663E-16 0.8346759
v 0.8282077 -5.618971E-16 0.6
v 0.6 -5.572042E-16 0.6
v 0.599992 -0.02931277 0.868517
v 0.6237396 -0.02930266 0.8608462
v 0.6234552 -0.2624022 0.8611361
v 0.6000079 -0.2624022 0.8686845
v 0.599992 -0.02931277 0.868517
v 0.8686007 -0.2624022 0.6
v 0.8686007 -0.02883407 0.6
vt 1.043945 0.3986816
vt 1.001953 0.355957
vt 0.9995117 0.3598633
vt 1.037109 0.3986816
vt 0.9995117 0.3986816
vt 0.9985352 0.3554688
vt 1.003906 0.5449219
vt 1.003906 0.5063477
vt 0.9995117 0.5063477
vt 0.9995117 0.5449219
vt 1.043945 0.5063477
vt 1.043945 0.5454102
vn 0.7265074 0.07663126 0.6828722
vn 0.7034706 0.1100944 0.7021456
vn 0.278696 0.9217436 0.2696613
vn 0.3111242 0.9026122 0.2974776
vn 0 1 0
vn 0.3064187 0.05671319 0.9502059
vn 0.7034706 0.1100944 0.7021456
vn 0.7070844 3.156722E-05 0.7071292
vn 0.3069105 0.000757153 0.9517381
vn 0.3064187 0.05671319 0.9502059
vn 0.7290854 -1.89989E-05 0.6844227
vn 0.7265074 0.07663126 0.6828722
g m_dlc08_city_h18_broken_floor_01_0
f 3/3/3 2/2/2 1/1/1
f 4/4/4 3/3/3 1/1/1
f 3/3/3 4/4/4 5/5/5
f 3/3/3 6/6/6 2/2/2
f 9/9/9 8/8/8 7/7/7
f 10/10/10 9/9/9 7/7/7
f 8/8/8 11/11/11 7/7/7
f 11/11/11 12/12/12 7/7/7
