g m_dlc08_cart_door_left_01
v 0.1085477 0.699577 0.01077722
v 0.109017 0.7502112 -0.03985566
v 0.7147255 0.7502112 -0.03423652
v 0.7142555 0.699577 0.01639618
v 0.1097299 0.7502112 -0.1166939
v 0.05909729 0.699577 -0.1171632
v 0.0583847 0.699577 -0.04032513
v 0.1085477 -0.9749493 0.01077722
v 0.05838501 -0.9749493 -0.04032499
v 0.05909729 -0.9749493 -0.1171632
v 0.7154385 0.7502112 -0.1110744
v 0.7653581 0.699577 -0.03376682
v 0.7660711 0.699577 -0.1106049
v 0.7653583 -0.9749493 -0.03376671
v 0.7142558 -0.9749493 0.01639633
v 0.7660711 -0.9749493 -0.1106046
v 0.1847443 0.6233764 0.01148408
v 0.6380594 0.6233764 0.01568935
v 0.1847443 -0.8987494 0.01148408
v 0.6380591 -0.8987494 0.01568939
v 0.2199545 0.5885767 -0.03259128
v 0.6036721 0.5885767 -0.02903164
v 0.2199545 -0.8639495 -0.03259128
v 0.2199545 0.5885767 -0.03259128
v 0.6036721 -0.8639495 -0.02903164
v 0.2199545 -0.8639495 -0.03259128
v 0.6036721 0.5885767 -0.02903164
v 0.6036721 -0.8639495 -0.02903164
v 0.1090176 -1.025584 -0.03985516
v 0.1085477 -0.9749493 0.01077722
v 0.7142558 -0.9749493 0.01639633
v 0.7147255 -1.025584 -0.03423633
v 0.7154385 -1.025584 -0.1110744
v 0.7660711 -0.9749493 -0.1106046
v 0.7653583 -0.9749493 -0.03376671
v 0.1097302 -1.025584 -0.1166936
v 0.05838501 -0.9749493 -0.04032499
v 0.05909729 -0.9749493 -0.1171632
v 0.1101999 -0.9749493 -0.1673262
v 0.1101999 0.699577 -0.1673265
v 0.05909729 0.699577 -0.1171632
v 0.7159082 -0.9749493 -0.161707
v 0.7660711 0.699577 -0.1106049
v 0.7159082 0.699577 -0.161707
v 0.1097299 0.7502112 -0.1166939
v 0.7154385 0.7502112 -0.1110744
v 0.6036721 0.5885767 -0.02903164
v 0.6036721 -0.8639495 -0.02903164
v 0.2199545 -0.8639495 -0.03259128
v 0.2199545 0.5885767 -0.03259128
v 0.07087646 -0.7641876 -0.02220219
v 0.01614594 -0.7641876 -0.07693256
v -0.003886414 -0.7641876 -0.002170048
v 0.0508435 -0.7641876 0.05256023
v -0.02391876 -0.7641876 0.07259308
v -0.07864929 -0.7641876 0.01786266
v -0.05861694 -0.7641876 -0.05690018
v -0.02391876 -0.4392944 0.07259308
v 0.0508435 -0.4392944 0.05256023
v 0.03442657 -0.4191876 0.03614296
v 0.04845001 -0.4191876 -0.01619312
v 0.07087646 -0.4392944 -0.02220219
v 0.01013702 -0.4191876 -0.05450611
v 0.01614594 -0.4392944 -0.07693256
v -0.0421991 -0.4191876 -0.04048263
v -0.05861694 -0.4392944 -0.05690018
v -0.01790985 -0.4191876 0.05016645
v -0.07864929 -0.4392944 0.01786266
v -0.05622253 -0.4191876 0.01185341
v 0.07087646 -0.7641876 -0.02220219
v 0.07087646 -0.4392944 -0.02220219
v 0.01614594 -0.7641876 -0.07693256
v 0.01614594 -0.4392944 -0.07693256
v -0.003886414 -0.4191876 -0.002170048
v 0.01614594 -0.4392944 -0.07693256
v 0.01614594 -0.7641876 -0.07693256
v 0.07087646 0.05825989 -0.02220251
v 0.01614563 0.05825989 -0.07693291
v -0.003886108 0.05825989 -0.002169971
v 0.0508435 0.05825989 0.05255989
v -0.02391907 0.05825989 0.07259274
v -0.07864929 0.05825989 0.01786232
v -0.05861664 0.05825989 -0.05690006
v -0.02391907 0.3831531 0.07259274
v 0.0508435 0.3831531 0.05255989
v 0.03442627 0.4032599 0.03614264
v 0.04844971 0.4032599 -0.01619345
v 0.07087646 0.3831531 -0.02220251
v 0.01013672 0.4032599 -0.05450626
v 0.01614563 0.3831531 -0.07693291
v -0.0421994 0.4032599 -0.04048279
v -0.05861664 0.3831531 -0.05690006
v -0.01790985 0.4032599 0.05016613
v -0.07864929 0.3831531 0.01786232
v -0.05622253 0.4032599 0.0118531
v 0.07087646 0.05825989 -0.02220251
v 0.07087646 0.3831531 -0.02220251
v 0.01614563 0.05825989 -0.07693291
v 0.01614563 0.3831531 -0.07693291
v -0.003886108 0.4032599 -0.002169971
v 0.01614563 0.3831531 -0.07693291
v 0.01614563 0.05825989 -0.07693291
vt 0.2104492 0.4799805
vt 0.2092285 0.4797363
vt 0.2093506 0.4921875
vt 0.2105713 0.4919434
vt 0.2078857 0.4794922
vt 0.210083 0.4772949
vt 0.2103271 0.4787598
vt 0.2436523 0.4794922
vt 0.2436523 0.4780273
vt 0.2436523 0.4765625
vt 0.2080078 0.4926758
vt 0.2104492 0.4934082
vt 0.2103271 0.4946289
vt 0.2438965 0.4931641
vt 0.2438965 0.4916992
vt 0.2438965 0.4946289
vt 0.2119141 0.4814453
vt 0.2119141 0.4904785
vt 0.2423096 0.480957
vt 0.2424316 0.4902344
vt 0.2126465 0.4824219
vt 0.2127686 0.489502
vt 0.2414551 0.4819336
vt 0.2126465 0.4824219
vt 0.2415771 0.4892578
vt 0.2414551 0.4819336
vt 0.2127686 0.489502
vt 0.2415771 0.4892578
vt 0.1130981 0.4335938
vt 0.1141357 0.4335938
vt 0.1140747 0.4245605
vt 0.1130981 0.4245605
vt 0.1119995 0.4245605
vt 0.1112061 0.423584
vt 0.112793 0.423584
vt 0.1120605 0.4335938
vt 0.112915 0.4345703
vt 0.1112061 0.4345703
vt 0.111145 0.4335938
vt 0.08734131 0.4335938
vt 0.08728027 0.4348145
vt 0.111084 0.4248047
vt 0.08721924 0.4238281
vt 0.08728027 0.4248047
vt 0.08630371 0.4338379
vt 0.08624268 0.4248047
vt 0.2127686 0.489502
vt 0.2415771 0.4892578
vt 0.2414551 0.4819336
vt 0.2126465 0.4824219
vt 0.1900635 0.2980957
vt 0.1883545 0.2983398
vt 0.189209 0.2971191
vt 0.19104 0.2966309
vt 0.1898193 0.2963867
vt 0.1885986 0.2963867
vt 0.1873779 0.2966309
vt 0.1898193 0.2907715
vt 0.19104 0.2905273
vt 0.1904297 0.2900391
vt 0.1898193 0.2890625
vt 0.1900635 0.2885742
vt 0.1885986 0.2890625
vt 0.1882324 0.2885742
vt 0.1879883 0.2900391
vt 0.1873779 0.2905273
vt 0.1896973 0.2902832
vt 0.1884766 0.2907715
vt 0.1887207 0.2902832
vt 0.1923828 0.2966309
vt 0.1925049 0.2905273
vt 0.1938477 0.2966309
vt 0.1938477 0.2905273
vt 0.189209 0.2897949
vt 0.1859131 0.2905273
vt 0.1859131 0.2966309
vt 0.2408447 0.4519043
vt 0.2391357 0.4519043
vt 0.2399902 0.4509277
vt 0.2418213 0.4504395
vt 0.2406006 0.4499512
vt 0.2393799 0.4499512
vt 0.2381592 0.4504395
vt 0.2406006 0.4445801
vt 0.2418213 0.4440918
vt 0.2412109 0.4438477
vt 0.2406006 0.4428711
vt 0.2408447 0.4423828
vt 0.2393799 0.4428711
vt 0.2390137 0.4423828
vt 0.2387695 0.4438477
vt 0.2380371 0.4440918
vt 0.2404785 0.4440918
vt 0.2392578 0.4445801
vt 0.239502 0.4440918
vt 0.2431641 0.4504395
vt 0.2432861 0.4443359
vt 0.2446289 0.4504395
vt 0.2446289 0.4443359
vt 0.2399902 0.4436035
vt 0.2366943 0.4440918
vt 0.2366943 0.4504395
vn -0.009263414 0 0.9999571
vn -0.05728272 0.9319803 0.3579547
vn 0.05063169 0.9319803 0.3589557
vn -0.009263414 0 0.9999571
vn -0.05063163 0.9319798 -0.3589567
vn -0.9272498 0.0202398 -0.3738961
vn -0.9340255 0.02023981 0.3566326
vn -0.009263414 0 0.9999571
vn -0.9340255 -0.02024013 0.3566325
vn -0.9272498 -0.02024005 -0.3738961
vn 0.05728279 0.9319797 -0.3579559
vn 0.9272482 0.02024003 0.3738998
vn 0.9340262 0.02023991 -0.3566307
vn 0.9272482 -0.02023983 0.3738998
vn -0.009263414 0 0.9999571
vn 0.9340262 -0.02023995 -0.3566305
vn -0.009263414 0 0.9999571
vn -0.009263414 0 0.9999571
vn -0.009263414 0 0.9999571
vn -0.009263414 0 0.9999571
vn -0.005722367 -0.7870583 0.6168522
vn -0.005722367 -0.7870583 0.6168522
vn 0.7813012 0 0.6241543
vn 0.7813012 0 0.6241543
vn -0.005722396 0.7870584 0.6168519
vn -0.005722396 0.7870584 0.6168519
vn -0.7927415 1.091152E-07 0.6095579
vn -0.7927415 1.091152E-07 0.609558
vn -0.05728285 -0.9319784 0.3579596
vn -0.009263414 0 0.9999571
vn -0.009263414 0 0.9999571
vn 0.05063218 -0.9319785 0.3589601
vn 0.05728311 -0.9319785 -0.3579592
vn 0.9340262 -0.02023995 -0.3566305
vn 0.9272482 -0.02023983 0.3738998
vn -0.05063242 -0.9319785 -0.3589603
vn -0.9340255 -0.02024013 0.3566325
vn -0.9272498 -0.02024005 -0.3738961
vn 0.009263414 0 -0.9999571
vn 0.009263414 0 -0.9999571
vn -0.9272498 0.0202398 -0.3738961
vn 0.009263414 0 -0.9999571
vn 0.9340262 0.02023991 -0.3566307
vn 0.009263414 0 -0.9999571
vn -0.05063163 0.9319798 -0.3589567
vn 0.05728279 0.9319797 -0.3579559
vn -0.009276329 0 0.999957
vn -0.009276329 0 0.999957
vn -0.009276329 0 0.999957
vn -0.009276329 0 0.999957
vn 0.9628944 -0.07916134 -0.2580074
vn 0.2580091 -0.07916147 -0.962894
vn 0 -1 0
vn 0.7048879 -0.07916192 0.7048876
vn -0.2580074 -0.07916178 0.9628944
vn -0.9628935 -0.07916185 0.2580108
vn -0.7048877 -0.07916163 -0.7048877
vn -0.2585692 0.04396891 0.9649916
vn 0.706423 0.04396873 0.7064229
vn 0.3511183 0.8680049 0.3511174
vn 0.4796365 0.8680043 -0.1285196
vn 0.9649916 0.04396839 -0.2585694
vn 0.1285199 0.8680047 -0.4796358
vn 0.2585709 0.04396879 -0.9649912
vn -0.3511146 0.868007 -0.3511159
vn -0.7064231 0.0439692 -0.7064229
vn -0.1285197 0.868006 0.4796335
vn -0.9649907 0.04396917 0.2585726
vn -0.4796328 0.8680066 0.1285177
vn 0.9628944 -0.07916134 -0.2580074
vn 0.9649916 0.04396839 -0.2585694
vn 0.2580091 -0.07916147 -0.962894
vn 0.2585709 0.04396879 -0.9649912
vn 0 1 0
vn 0.2585709 0.04396879 -0.9649912
vn 0.2580091 -0.07916147 -0.962894
vn 0.9628938 -0.07916105 -0.2580095
vn 0.2580067 -0.07916155 -0.9628946
vn 0 -1 0
vn 0.7048867 -0.07916138 0.7048888
vn -0.2580073 -0.07916145 0.9628944
vn -0.9628944 -0.07916193 0.2580073
vn -0.7048888 -0.07916208 -0.7048865
vn -0.2585693 0.0439689 0.9649915
vn 0.7064218 0.04396889 0.7064239
vn 0.3511178 0.8680049 0.3511181
vn 0.479635 0.8680052 -0.1285201
vn 0.964991 0.04396878 -0.2585714
vn 0.1285186 0.8680053 -0.4796351
vn 0.2585685 0.04396884 -0.9649918
vn -0.3511172 0.8680058 -0.3511161
vn -0.7064241 0.04396895 -0.7064218
vn -0.1285185 0.8680058 0.4796341
vn -0.9649916 0.04396892 0.2585694
vn -0.4796332 0.8680063 0.1285178
vn 0.9628938 -0.07916105 -0.2580095
vn 0.964991 0.04396878 -0.2585714
vn 0.2580067 -0.07916155 -0.9628946
vn 0.2585685 0.04396884 -0.9649918
vn 0 1 0
vn 0.2585685 0.04396884 -0.9649918
vn 0.2580067 -0.07916155 -0.9628946
g m_dlc08_cart_door_left_01_0
f 3/3/3 2/2/2 1/1/1
f 4/4/4 3/3/3 1/1/1
f 5/5/5 2/2/2 3/3/3
f 5/5/5 6/6/6 2/2/2
f 6/6/6 7/7/7 2/2/2
f 2/2/2 7/7/7 1/1/1
f 8/8/8 1/1/1 7/7/7
f 9/9/9 8/8/8 7/7/7
f 10/10/10 9/9/9 7/7/7
f 6/6/6 10/10/10 7/7/7
f 11/11/11 5/5/5 3/3/3
f 3/3/3 12/12/12 11/11/11
f 4/4/4 12/12/12 3/3/3
f 12/12/12 13/13/13 11/11/11
f 14/14/14 12/12/12 4/4/4
f 12/12/12 14/14/14 13/13/13
f 15/15/15 14/14/14 4/4/4
f 14/14/14 16/16/16 13/13/13
f 1/1/1 17/17/17 4/4/4
f 17/17/17 18/18/18 4/4/4
f 4/4/4 18/18/18 15/15/15
f 19/19/19 17/17/17 1/1/1
f 8/8/8 19/19/19 1/1/1
f 20/20/20 19/19/19 8/8/8
f 15/15/15 20/20/20 8/8/8
f 18/18/18 20/20/20 15/15/15
f 17/17/17 21/21/21 18/18/18
f 21/21/21 22/22/22 18/18/18
f 19/19/19 23/23/23 17/17/17
f 23/23/23 24/24/24 17/17/17
f 20/20/20 25/25/25 19/19/19
f 25/25/25 26/26/26 19/19/19
f 18/18/18 27/27/27 20/20/20
f 27/27/27 28/28/28 20/20/20
f 31/31/31 30/30/30 29/29/29
f 32/32/32 31/31/31 29/29/29
f 33/33/33 32/32/32 29/29/29
f 32/32/32 33/33/33 34/34/34
f 35/35/35 32/32/32 34/34/34
f 32/32/32 35/35/35 31/31/31
f 36/36/36 33/33/33 29/29/29
f 36/36/36 29/29/29 37/37/37
f 30/30/30 37/37/37 29/29/29
f 38/38/38 36/36/36 37/37/37
f 33/33/33 36/36/36 39/39/39
f 36/36/36 38/38/38 39/39/39
f 39/39/39 38/38/38 40/40/40
f 38/38/38 41/41/41 40/40/40
f 42/42/42 33/33/33 39/39/39
f 42/42/42 39/39/39 40/40/40
f 33/33/33 42/42/42 34/34/34
f 34/34/34 42/42/42 43/43/43
f 42/42/42 44/44/44 43/43/43
f 44/44/44 42/42/42 40/40/40
f 44/44/44 40/40/40 45/45/45
f 40/40/40 41/41/41 45/45/45
f 46/46/46 44/44/44 45/45/45
f 43/43/43 44/44/44 46/46/46
f 49/49/49 48/48/48 47/47/47
f 50/50/50 49/49/49 47/47/47
f 53/53/53 52/52/52 51/51/51
f 53/53/53 51/51/51 54/54/54
f 53/53/53 54/54/54 55/55/55
f 53/53/53 55/55/55 56/56/56
f 53/53/53 56/56/56 57/57/57
f 53/53/53 57/57/57 52/52/52
f 58/58/58 55/55/55 54/54/54
f 59/59/59 58/58/58 54/54/54
f 58/58/58 59/59/59 60/60/60
f 60/60/60 59/59/59 61/61/61
f 59/59/59 62/62/62 61/61/61
f 61/61/61 62/62/62 63/63/63
f 62/62/62 64/64/64 63/63/63
f 65/65/65 63/63/63 64/64/64
f 66/66/66 65/65/65 64/64/64
f 66/66/66 57/57/57 56/56/56
f 67/67/67 58/58/58 60/60/60
f 68/68/68 58/58/58 67/67/67
f 68/68/68 56/56/56 55/55/55
f 58/58/58 68/68/68 55/55/55
f 68/68/68 66/66/66 56/56/56
f 69/69/69 68/68/68 67/67/67
f 66/66/66 68/68/68 69/69/69
f 65/65/65 66/66/66 69/69/69
f 59/59/59 54/54/54 70/70/70
f 71/71/71 59/59/59 70/70/70
f 71/71/71 70/70/70 72/72/72
f 73/73/73 71/71/71 72/72/72
f 74/74/74 61/61/61 63/63/63
f 74/74/74 60/60/60 61/61/61
f 74/74/74 67/67/67 60/60/60
f 74/74/74 69/69/69 67/67/67
f 74/74/74 65/65/65 69/69/69
f 74/74/74 63/63/63 65/65/65
f 66/66/66 75/75/75 57/57/57
f 75/75/75 76/76/76 57/57/57
f 79/79/79 78/78/78 77/77/77
f 79/79/79 77/77/77 80/80/80
f 79/79/79 80/80/80 81/81/81
f 79/79/79 81/81/81 82/82/82
f 79/79/79 82/82/82 83/83/83
f 79/79/79 83/83/83 78/78/78
f 84/84/84 81/81/81 80/80/80
f 85/85/85 84/84/84 80/80/80
f 84/84/84 85/85/85 86/86/86
f 86/86/86 85/85/85 87/87/87
f 85/85/85 88/88/88 87/87/87
f 87/87/87 88/88/88 89/89/89
f 88/88/88 90/90/90 89/89/89
f 91/91/91 89/89/89 90/90/90
f 92/92/92 91/91/91 90/90/90
f 92/92/92 83/83/83 82/82/82
f 93/93/93 84/84/84 86/86/86
f 94/94/94 84/84/84 93/93/93
f 94/94/94 82/82/82 81/81/81
f 84/84/84 94/94/94 81/81/81
f 94/94/94 92/92/92 82/82/82
f 95/95/95 94/94/94 93/93/93
f 92/92/92 94/94/94 95/95/95
f 91/91/91 92/92/92 95/95/95
f 85/85/85 80/80/80 96/96/96
f 97/97/97 85/85/85 96/96/96
f 97/97/97 96/96/96 98/98/98
f 99/99/99 97/97/97 98/98/98
f 100/100/100 87/87/87 89/89/89
f 100/100/100 86/86/86 87/87/87
f 100/100/100 93/93/93 86/86/86
f 100/100/100 95/95/95 93/93/93
f 100/100/100 91/91/91 95/95/95
f 100/100/100 89/89/89 91/91/91
f 92/92/92 101/101/101 83/83/83
f 101/101/101 102/102/102 83/83/83
