g m_dlc08_popcorn_05
v -0.125498 -0.007230763 0.09608764
v -0.08167847 0.01971373 0.1244189
v -0.1422357 0.03636635 0.1244189
v -0.1087604 0.03636635 0.1702588
v -0.07133423 -0.007230763 0.1702588
v -0.08167847 -0.03417526 0.1244189
v -0.125498 -0.007230763 0.09608764
v -0.1693176 0.01971373 0.1702588
v -0.1796619 -0.007230768 0.1244189
v -0.125498 -0.007230763 0.1985901
v -0.125498 -0.007230763 0.09608764
v -0.1422357 0.03636635 0.1244189
v -0.1796619 -0.007230768 0.1244189
v -0.1422357 -0.05082787 0.1244189
v -0.1693176 -0.03417526 0.1702588
v -0.1087604 -0.05082787 0.1702588
v -0.08167847 -0.03417526 0.1244189
v -0.125498 -0.007230763 0.09608764
v -0.07133423 -0.007230763 0.1702588
v -0.125498 -0.007230763 0.1985901
v -0.1693176 0.01971373 0.1702588
v -0.1796619 -0.007230768 0.1244189
v -0.125498 -0.007230763 0.1985901
v -0.1087604 0.03636635 0.1702588
v 0.07250915 0.001240234 -0.2515881
v 0.1142261 -0.001358948 -0.2722046
v 0.1107806 0.03370636 -0.2291968
v 0.1052985 0.02010956 -0.1751282
v 0.1603882 0.01490692 -0.2458301
v 0.1488025 0.01853943 -0.1915747
v 0.07250915 0.001240234 -0.2515881
v 0.09607483 -0.0613681 -0.1986548
v 0.1010565 -0.05221435 -0.2540051
v 0.07250915 0.001240234 -0.2515881
v 0.1010565 -0.05221435 -0.2540051
v 0.1142261 -0.001358948 -0.2722046
v 0.154378 -0.03819549 -0.2611633
v 0.1603882 0.01490692 -0.2458301
v 0.1052985 0.02010956 -0.1751282
v 0.1356323 -0.03231659 -0.1733752
v 0.09607483 -0.0613681 -0.1986548
v 0.1488025 0.01853943 -0.1915747
v 0.1757483 -0.02589813 -0.2113318
v 0.1603882 0.01490692 -0.2458301
v 0.154378 -0.03819549 -0.2611633
v 0.09607483 -0.0613681 -0.1986548
v 0.1390778 -0.0673822 -0.2163831
v 0.1010565 -0.05221435 -0.2540051
v 0.1356323 -0.03231659 -0.1733752
v 0.154378 -0.03819549 -0.2611633
v 0.1757483 -0.02589813 -0.2113318
v 0.07250915 0.001240234 -0.2515881
v 0.02342041 -0.06797821 -0.2428638
v 0.09607483 -0.0613681 -0.1986548
v -0.01226013 0.009412536 -0.2466626
v 0.07250915 0.001240234 -0.2515881
v 0.1052985 0.02010956 -0.1751282
v 0.03834229 0.06385437 -0.2047998
v -0.01226013 0.009412536 -0.2466626
v 0.04079041 0.03994537 -0.1229517
v -0.03186401 0.03333404 -0.1671606
v 0.02342041 -0.06797821 -0.2428638
v 0.02586975 -0.09188843 -0.1610144
v 0.09607483 -0.0613681 -0.1986548
v -0.04108642 -0.04814361 -0.1906873
v 0.07647155 -0.03744598 -0.1191516
v -0.008296508 -0.02927399 -0.1142273
v 0.09607483 -0.0613681 -0.1986548
v 0.07647155 -0.03744598 -0.1191516
v 0.1052985 0.02010956 -0.1751282
v 0.04079041 0.03994537 -0.1229517
v -0.008296508 -0.02927399 -0.1142273
v -0.03186401 0.03333404 -0.1671606
v -0.01226013 0.009412536 -0.2466626
v -0.04108642 -0.04814361 -0.1906873
v 0.02342041 -0.06797821 -0.2428638
v -0.03186401 0.03333404 -0.1671606
v -0.008296508 -0.02927399 -0.1142273
v 0.05183044 0.07292359 0.1599316
v 0.03765503 0.08482055 0.2126514
v 0.001231689 0.03755737 0.1829492
v 0.1012482 0.06485718 0.2126526
v 0.002545776 0.04174438 0.2494568
v 0.06436035 0.05861694 0.2678149
v 0.1054456 0.009447021 0.2494568
v 0.1161151 0.001447754 0.1948328
v 0.05183044 0.07292359 0.1599316
v 0.04444336 -0.004840088 0.2722046
v 0.002545776 0.04174438 0.2494568
v 0.05183044 0.07292359 0.1599316
v 0.001231689 0.03755737 0.1829492
v 0.02127075 -0.02444458 0.1666663
v 0.001231689 0.03755737 0.1829492
v 0.005428466 -0.01785523 0.2197534
v 0.02127075 -0.02444458 0.1666663
v 0.002545776 0.04174438 0.2494568
v 0.04444336 -0.004840088 0.2722046
v 0.02127075 -0.02444458 0.1666663
v 0.06902283 -0.03781616 0.2197534
v 0.1161151 0.001447754 0.1948328
v 0.005428466 -0.01785523 0.2197534
v 0.1054456 0.009447021 0.2494568
v 0.04444336 -0.004840088 0.2722046
v 0.05183044 0.07292359 0.1599316
v 0.1497217 0.0733435 0.130332
v 0.1161151 0.001447754 0.1948328
v 0.0756488 0.09188843 0.06230102
v -0.003739014 0.03145264 0.08475586
v 0.05980896 0.006246338 0.008692627
v 0.1546527 0.03213989 0.03686035
v 0.1240924 -0.06522827 0.04359619
v 0.05183044 0.07292359 0.1599316
v 0.02127075 -0.02444458 0.1666663
v -0.003739014 0.03145264 0.08475586
v 0.02620178 -0.06564819 0.07319458
v 0.05980896 0.006246338 0.008692627
v 0.1497217 0.0733435 0.130332
v 0.1796619 -0.02375854 0.1187707
v 0.1161151 0.001447754 0.1948328
v 0.1546527 0.03213989 0.03686035
v 0.1240924 -0.06522827 0.04359619
v 0.1161151 0.001447754 0.1948328
v 0.1002747 -0.08419433 0.1412256
v 0.02127075 -0.02444458 0.1666663
v 0.1796619 -0.02375854 0.1187707
v 0.02620178 -0.06564819 0.07319458
v 0.1240924 -0.06522827 0.04359619
v 0.05980896 0.006246338 0.008692627
vt 0.8876953 0.01000977
vt 0.8881836 0.008529663
vt 0.8867188 0.008964539
vt 0.887207 0.007518768
vt 0.8886719 0.00711441
vt 0.8896484 0.008155823
vt 0.8891602 0.009712219
vt 0.8857422 0.007957458
vt 0.8852539 0.009376526
vt 0.8862305 0.006477356
vt 0.8427734 0.02932739
vt 0.8422852 0.02786255
vt 0.8413086 0.02868652
vt 0.8413086 0.0302124
vt 0.8398438 0.0296936
vt 0.840332 0.03134155
vt 0.8417969 0.03186035
vt 0.8427734 0.03065491
vt 0.8408203 0.03286743
vt 0.8388672 0.03091431
vt 0.8388672 0.02937317
vt 0.8398438 0.02828979
vt 0.8393555 0.03222656
vt 0.8393555 0.03369141
vt 0.8769531 0.02314758
vt 0.8764648 0.02438354
vt 0.8779297 0.02441406
vt 0.8793945 0.02407837
vt 0.8774414 0.02577209
vt 0.8789063 0.02540588
vt 0.762207 0.01207733
vt 0.7631836 0.0100708
vt 0.7617188 0.01046753
vt 0.8227539 0.001001358
vt 0.8212891 0.001942635
vt 0.8227539 0.002258301
vt 0.8217773 0.003377914
vt 0.8232422 0.003692627
vt 0.7783203 0.008232117
vt 0.7768555 0.009277344
vt 0.777832 0.01050568
vt 0.7768555 0.007774353
vt 0.7758789 0.008453369
vt 0.7758789 0.006946564
vt 0.7744141 0.007621765
vt 0.8378906 0.003124237
vt 0.8393555 0.002655029
vt 0.8383789 0.00147438
vt 0.8393555 0.00409317
vt 0.8398438 0.001442909
vt 0.840332 0.002983093
vt 0.762207 0.01207733
vt 0.7641602 0.0120697
vt 0.7631836 0.0100708
vt 0.7631836 0.01407623
vt 0.8769531 0.02314758
vt 0.8793945 0.02407837
vt 0.8789063 0.0219574
vt 0.8769531 0.02055359
vt 0.8808594 0.02209473
vt 0.8793945 0.01991272
vt 0.8325195 0.01072693
vt 0.8300781 0.010849
vt 0.8310547 0.01290894
vt 0.8305664 0.008712769
vt 0.8286133 0.01224518
vt 0.828125 0.009651184
vt 0.8134766 0.0206604
vt 0.8129883 0.02293396
vt 0.8154297 0.02218628
vt 0.8149414 0.02445984
vt 0.8125 0.02520752
vt 0.8144531 0.0267334
vt 0.8144531 0.02729797
vt 0.8164063 0.02893066
vt 0.8168945 0.02670288
vt 0.8139648 0.02952576
vt 0.815918 0.03117371
vt 0.8505859 0.02284241
vt 0.8520508 0.02328491
vt 0.8520508 0.02154541
vt 0.8515625 0.02485657
vt 0.8540039 0.0226593
vt 0.8535156 0.02456665
vt 0.8525391 0.02626038
vt 0.8510742 0.0266571
vt 0.8496094 0.02435303
vt 0.8544922 0.02598572
vt 0.8549805 0.02429199
vt 0.8671875 0.01756287
vt 0.8662109 0.01902771
vt 0.8676758 0.02032471
vt 0.8598633 0.003952026
vt 0.8583984 0.003042221
vt 0.8583984 0.004547119
vt 0.8598633 0.002145767
vt 0.8583984 0.001235008
vt 0.7724609 0.03253174
vt 0.7709961 0.03096008
vt 0.7695313 0.03161621
vt 0.7729492 0.03091431
vt 0.7700195 0.02993774
vt 0.7719727 0.02931213
vt 0.7851563 0.01170349
vt 0.7880859 0.01215363
vt 0.7871094 0.009521484
vt 0.7866211 0.01403046
vt 0.7836914 0.0144577
vt 0.7861328 0.01660156
vt 0.7885742 0.0152359
vt 0.7885742 0.01808167
vt 0.8671875 0.01756287
vt 0.8676758 0.02032471
vt 0.8696289 0.01873779
vt 0.8701172 0.02149963
vt 0.8720703 0.01989746
vt 0.8320313 0.03363037
vt 0.8344727 0.03381348
vt 0.8334961 0.03134155
vt 0.8330078 0.03613281
vt 0.8359375 0.03631592
vt 0.7695313 0.03161621
vt 0.7705078 0.03411865
vt 0.7724609 0.03253174
vt 0.7675781 0.03411865
vt 0.7724609 0.03564453
vt 0.7695313 0.03659058
vt 0.7719727 0.03845215
vn 0.0007297862 0 -0.9999998
vn 0.6831236 0.5561883 -0.4732828
vn -0.2482753 0.8576434 -0.4503413
vn 0.2482748 0.8576428 0.4503426
vn 0.8726657 -1.132831E-06 0.4883182
vn 0.6831205 -0.5561912 -0.473284
vn 0.0007297862 0 -0.9999998
vn -0.6831185 0.5561933 0.4732844
vn -0.8726675 -1.004925E-06 -0.4883149
vn -0.0007284543 -3.989551E-07 0.9999998
vn 0.0007297862 0 -0.9999998
vn -0.2482753 0.8576434 -0.4503413
vn -0.8726675 -1.004925E-06 -0.4883149
vn -0.2482757 -0.8576434 -0.4503409
vn -0.6831191 -0.5561935 0.4732834
vn 0.2482774 -0.8576421 0.4503424
vn 0.6831205 -0.5561912 -0.473284
vn 0.0007297862 0 -0.9999998
vn 0.8726657 -1.132831E-06 0.4883182
vn -0.0007284543 -3.989551E-07 0.9999998
vn -0.6831185 0.5561933 0.4732844
vn -0.8726675 -1.004925E-06 -0.4883149
vn -0.0007284543 -3.989551E-07 0.9999998
vn 0.2482748 0.8576428 0.4503426
vn -0.77118 0.2646222 -0.5790133
vn -0.06335947 0.2701056 -0.9607437
vn -0.2109567 0.9660718 -0.1490052
vn -0.1610382 0.6077769 0.7776078
vn 0.6706143 0.6003469 -0.4357293
vn 0.5778977 0.6352744 0.512309
vn -0.77118 0.2646222 -0.5790133
vn -0.448493 -0.8030524 0.3923783
vn -0.4759659 -0.6685287 -0.5714245
vn -0.77118 0.2646222 -0.5790133
vn -0.4759659 -0.6685287 -0.5714245
vn -0.06335947 0.2701056 -0.9607437
vn 0.5569446 -0.4039288 -0.7257094
vn 0.6706143 0.6003469 -0.4357293
vn -0.1610382 0.6077769 0.7776078
vn 0.1887237 -0.297378 0.9359219
vn -0.448493 -0.8030524 0.3923783
vn 0.5778977 0.6352744 0.512309
vn 0.9610852 -0.171348 0.2166913
vn 0.6706143 0.6003469 -0.4357293
vn 0.5569446 -0.4039288 -0.7257094
vn -0.448493 -0.8030524 0.3923783
vn 0.3592946 -0.9303853 0.07273615
vn -0.4759659 -0.6685287 -0.5714245
vn 0.1887237 -0.297378 0.9359219
vn 0.5569446 -0.4039288 -0.7257094
vn 0.9610852 -0.171348 0.2166913
vn 0.3277434 0.2276591 -0.9169273
vn -0.1070614 -0.6651229 -0.7390191
vn 0.6843958 -0.7198498 -0.1158391
vn -0.5468563 0.2887944 -0.7858409
vn 0.3277434 0.2276591 -0.9169273
vn 0.8239653 0.5132143 0.2401923
vn 0.0768668 0.9598302 -0.2698471
vn -0.5468563 0.2887944 -0.7858409
vn 0.1070503 0.6651317 0.7390129
vn -0.7884846 0.5836285 0.194087
vn -0.1070614 -0.6651229 -0.7390191
vn -0.07685788 -0.9598306 0.2698481
vn 0.6843958 -0.7198498 -0.1158391
vn -0.9021475 -0.4206384 -0.09588169
vn 0.5468599 -0.2887895 0.7858402
vn -0.4980029 -0.1880557 0.846539
vn 0.6843958 -0.7198498 -0.1158391
vn 0.5468599 -0.2887895 0.7858402
vn 0.8239653 0.5132143 0.2401923
vn 0.1070503 0.6651317 0.7390129
vn -0.4980029 -0.1880557 0.846539
vn -0.7884846 0.5836285 0.194087
vn -0.5468563 0.2887944 -0.7858409
vn -0.9021475 -0.4206384 -0.09588169
vn -0.1070614 -0.6651229 -0.7390191
vn -0.7884846 0.5836285 0.194087
vn -0.4980029 -0.1880557 0.846539
vn -0.02326331 0.7571077 -0.6528758
vn -0.2719551 0.9585581 0.08489327
vn -0.8509969 0.2356177 -0.4693492
vn 0.7639235 0.6399291 -0.08313589
vn -0.8012422 0.287768 0.5245954
vn 0.1738718 0.553948 0.814193
vn 0.766348 -0.1955757 0.6119321
vn 0.919428 -0.307317 -0.2453742
vn -0.02326331 0.7571077 -0.6528758
vn -0.1403244 -0.4470777 0.8834198
vn -0.8012422 0.287768 0.5245954
vn -0.02326331 0.7571077 -0.6528758
vn -0.8509969 0.2356177 -0.4693492
vn -0.4926273 -0.6903074 -0.5298999
vn -0.8509969 0.2356177 -0.4693492
vn -0.7677209 -0.608332 0.2013377
vn -0.4926273 -0.6903074 -0.5298999
vn -0.8012422 0.287768 0.5245954
vn -0.1403244 -0.4470777 0.8834198
vn -0.4926273 -0.6903074 -0.5298999
vn 0.2562748 -0.9655716 0.04466176
vn 0.919428 -0.307317 -0.2453742
vn -0.7677209 -0.608332 0.2013377
vn 0.766348 -0.1955757 0.6119321
vn -0.1403244 -0.4470777 0.8834198
vn -0.3565902 0.8208041 0.4462332
vn 0.6349787 0.7145126 0.293724
vn 0.4549088 -0.0814554 0.8868049
vn -0.1266044 0.9051797 -0.405735
vn -0.9427978 0.2838252 -0.1748581
vn -0.2894379 0.02467002 -0.9568788
vn 0.6856642 0.2908643 -0.6672799
vn 0.3714791 -0.7101758 -0.5980416
vn -0.3565902 0.8208041 0.4462332
vn -0.7423564 -0.4082815 0.5312375
vn -0.9427978 0.2838252 -0.1748581
vn -0.6349739 -0.7145157 -0.2937264
vn -0.2894379 0.02467002 -0.9568788
vn 0.6349787 0.7145126 0.293724
vn 0.9427994 -0.2838241 0.1748516
vn 0.4549088 -0.0814554 0.8868049
vn 0.6856642 0.2908643 -0.6672799
vn 0.3714791 -0.7101758 -0.5980416
vn 0.4549088 -0.0814554 0.8868049
vn 0.1265888 -0.9051841 0.4057303
vn -0.7423564 -0.4082815 0.5312375
vn 0.9427994 -0.2838241 0.1748516
vn -0.6349739 -0.7145157 -0.2937264
vn 0.3714791 -0.7101758 -0.5980416
vn -0.2894379 0.02467002 -0.9568788
g m_dlc08_popcorn_05_0
f 3/3/3 2/2/2 1/1/1
f 3/3/3 4/4/4 2/2/2
f 4/4/4 5/5/5 2/2/2
f 2/2/2 5/5/5 6/6/6
f 2/2/2 6/6/6 7/7/7
f 8/8/8 4/4/4 3/3/3
f 9/9/9 8/8/8 3/3/3
f 8/8/8 10/10/10 4/4/4
f 13/13/13 12/12/12 11/11/11
f 14/14/14 13/13/13 11/11/11
f 14/14/14 15/15/15 13/13/13
f 16/16/16 15/15/15 14/14/14
f 17/17/17 16/16/16 14/14/14
f 17/17/17 14/14/14 18/18/18
f 19/19/19 16/16/16 17/17/17
f 16/16/16 20/20/20 15/15/15
f 15/15/15 20/20/20 21/21/21
f 15/15/15 21/21/21 22/22/22
f 19/19/19 23/23/23 16/16/16
f 24/24/24 23/23/23 19/19/19
f 27/27/27 26/26/26 25/25/25
f 28/28/28 27/27/27 25/25/25
f 27/27/27 29/29/29 26/26/26
f 28/28/28 30/30/30 27/27/27
f 30/30/30 29/29/29 27/27/27
f 33/33/33 32/32/32 31/31/31
f 36/36/36 35/35/35 34/34/34
f 36/36/36 37/37/37 35/35/35
f 38/38/38 37/37/37 36/36/36
f 41/41/41 40/40/40 39/39/39
f 40/40/40 42/42/42 39/39/39
f 40/40/40 43/43/43 42/42/42
f 42/42/42 43/43/43 44/44/44
f 44/44/44 43/43/43 45/45/45
f 48/48/48 47/47/47 46/46/46
f 47/47/47 49/49/49 46/46/46
f 50/50/50 47/47/47 48/48/48
f 47/47/47 51/51/51 49/49/49
f 50/50/50 51/51/51 47/47/47
f 54/54/54 53/53/53 52/52/52
f 53/53/53 55/55/55 52/52/52
f 58/58/58 57/57/57 56/56/56
f 59/59/59 58/58/58 56/56/56
f 58/58/58 60/60/60 57/57/57
f 59/59/59 61/61/61 58/58/58
f 61/61/61 60/60/60 58/58/58
f 64/64/64 63/63/63 62/62/62
f 63/63/63 65/65/65 62/62/62
f 66/66/66 63/63/63 64/64/64
f 63/63/63 67/67/67 65/65/65
f 66/66/66 67/67/67 63/63/63
f 70/70/70 69/69/69 68/68/68
f 71/71/71 69/69/69 70/70/70
f 71/71/71 72/72/72 69/69/69
f 73/73/73 72/72/72 71/71/71
f 76/76/76 75/75/75 74/74/74
f 75/75/75 77/77/77 74/74/74
f 75/75/75 78/78/78 77/77/77
f 81/81/81 80/80/80 79/79/79
f 80/80/80 82/82/82 79/79/79
f 81/81/81 83/83/83 80/80/80
f 80/80/80 84/84/84 82/82/82
f 83/83/83 84/84/84 80/80/80
f 84/84/84 85/85/85 82/82/82
f 82/82/82 85/85/85 86/86/86
f 82/82/82 86/86/86 87/87/87
f 84/84/84 88/88/88 85/85/85
f 89/89/89 88/88/88 84/84/84
f 92/92/92 91/91/91 90/90/90
f 95/95/95 94/94/94 93/93/93
f 94/94/94 96/96/96 93/93/93
f 94/94/94 97/97/97 96/96/96
f 100/100/100 99/99/99 98/98/98
f 99/99/99 101/101/101 98/98/98
f 102/102/102 99/99/99 100/100/100
f 99/99/99 103/103/103 101/101/101
f 102/102/102 103/103/103 99/99/99
f 106/106/106 105/105/105 104/104/104
f 105/105/105 107/107/107 104/104/104
f 107/107/107 108/108/108 104/104/104
f 107/107/107 109/109/109 108/108/108
f 105/105/105 110/110/110 107/107/107
f 110/110/110 109/109/109 107/107/107
f 110/110/110 111/111/111 109/109/109
f 114/114/114 113/113/113 112/112/112
f 114/114/114 115/115/115 113/113/113
f 116/116/116 115/115/115 114/114/114
f 119/119/119 118/118/118 117/117/117
f 118/118/118 120/120/120 117/117/117
f 118/118/118 121/121/121 120/120/120
f 124/124/124 123/123/123 122/122/122
f 123/123/123 125/125/125 122/122/122
f 126/126/126 123/123/123 124/124/124
f 123/123/123 127/127/127 125/125/125
f 126/126/126 127/127/127 123/123/123
f 128/128/128 127/127/127 126/126/126
