g m_dlc08_juggling_pin_01
v 0.0692138 -0.2764127 0.009678955
v 0.08779388 -0.3738787 0.01227692
v 0.05339836 -0.3738788 0.07076111
v 0.04209752 -0.2764127 0.05578552
v -0.01227707 -0.3738788 0.08779388
v -0.009678861 -0.2764127 0.06921387
v -0.07076085 -0.3738788 0.05339844
v -0.05578554 -0.2764127 0.04209747
v -0.08779386 -0.3738788 -0.01227722
v -0.06921382 -0.2764127 -0.00967865
v -0.05339849 -0.3738788 -0.07076111
v -0.04209757 -0.2764127 -0.05578552
v 0.01227713 -0.3738788 -0.08779388
v 0.009678835 -0.2764127 -0.06921387
v 0.07076085 -0.3738787 -0.05339813
v 0.05578551 -0.2764127 -0.04209747
v 0.08779388 -0.3738787 0.01227692
v 0.0692138 -0.2764127 0.009678955
v 0.07421409 -0.4648216 -0.05600403
v 0.0128762 -0.4648216 -0.09207825
v 0.06257341 -0.539755 -0.04721985
v 0.01085649 -0.539755 -0.0776355
v -0.05600441 -0.4648216 -0.07421417
v -0.04721987 -0.539755 -0.06257324
v -0.09207839 -0.4648216 -0.01287628
v -0.0776355 -0.539755 -0.01085663
v -0.07421405 -0.4648216 0.05600433
v -0.06257333 -0.539755 0.04721985
v -0.01287622 -0.4648216 0.09207825
v -0.01085654 -0.539755 0.0776355
v 0.05600434 -0.4648216 0.07421447
v 0.04721982 -0.539755 0.06257324
v 0.09207839 -0.4648216 0.01287598
v 0.07763558 -0.539755 0.01085632
v 0.07763558 -0.539755 0.01085632
v 0.03376083 -0.6134267 -0.02547699
v 0.005857534 -0.6134267 -0.04188751
v -0.02547704 -0.6134267 -0.03376099
v -0.04188754 -0.6134267 -0.005857544
v -0.03376087 -0.6134267 0.02547699
v -0.005857544 -0.6134267 0.04188751
v 0.025477 -0.6134267 0.03376099
v 0.04188744 -0.6134267 0.005857544
v 0.0003777233 -0.6134267 2.685547E-05
v 0.04188744 -0.6134267 0.005857544
v 0.09207839 -0.4648216 0.01287598
v 0.02946904 -0.1955497 0.0390509
v 0.04845088 -0.1955496 0.006775512
v -0.006775371 -0.1955497 0.04845093
v -0.03905087 -0.1955496 0.02946899
v -0.0484509 -0.1955497 -0.006775512
v -0.02946907 -0.1955497 -0.0390509
v 0.006775367 -0.1955496 -0.04845093
v 0.03905085 -0.1955497 -0.02946899
v 0.04845088 -0.1955496 0.006775512
v 0.028629 -0.08581993 -0.02160431
v 0.004967148 -0.08581987 -0.03552032
v 0.02862898 0.09970111 -0.02160431
v 0.004967161 0.09970108 -0.03552063
v -0.02160438 -0.08581989 -0.02862915
v -0.02160438 0.09970108 -0.02862915
v -0.03552037 -0.08581993 -0.004967041
v -0.03552037 0.09970108 -0.004967041
v -0.028629 -0.08581989 0.02160431
v -0.02862895 0.09970108 0.02160431
v -0.004967172 -0.08581989 0.03552032
v -0.004967161 0.09970111 0.03552032
v 0.02160437 -0.08581991 0.02862915
v 0.02160436 0.09970108 0.02862915
v 0.03552035 -0.08581987 0.004967041
v 0.03552037 0.09970104 0.004967041
v 0.03552037 0.09970104 0.004967041
v -0.05419519 0.1226115 -0.00757843
v -0.0329629 0.1226115 -0.04368103
v -0.03296292 0.1531535 -0.04368103
v 0.007578641 0.1531535 -0.05419556
v 0.007578641 0.1226115 -0.05419556
v 0.04368068 0.1531535 -0.03296265
v 0.04368066 0.1226115 -0.03296265
v -0.05419518 0.1531535 -0.00757843
v -0.04368065 0.1226115 0.03296265
v -0.04368069 0.1531535 0.03296265
v -0.007578672 0.1226115 0.05419525
v -0.007578701 0.1531535 0.05419525
v 0.03296285 0.1226115 0.04368103
v 0.03296285 0.1531535 0.04368103
v 0.05419519 0.1226114 0.007578735
v 0.05419521 0.1531534 0.007578735
v 0.05419521 0.1531534 0.007578735
v 0.05419519 0.1226114 0.007578735
v 0.004967161 0.1789164 -0.03552063
v 0.028629 0.1789163 -0.02160431
v -0.03552035 0.1789164 -0.004967041
v -0.02160441 0.1789164 -0.02862915
v -0.02862902 0.1789164 0.02160431
v -0.00496721 0.1789164 0.03552032
v 0.02160436 0.1789164 0.02862915
v 0.03552039 0.1789163 0.004967041
v 8.033944E-09 0.1904469 3.051758E-07
v 0.03552039 0.1789163 0.004967041
v 0.03552035 -0.08581987 0.004967041
vt 0.8491211 0.3432617
vt 0.8178711 0.3322754
vt 0.8168945 0.3493652
vt 0.8447266 0.3564453
vt 0.8178711 0.3659668
vt 0.8432617 0.3703613
vt 0.8183594 0.3823242
vt 0.8427734 0.3845215
vt 0.8188477 0.3986816
vt 0.8422852 0.3989258
vt 0.8183594 0.4150391
vt 0.8422852 0.4133301
vt 0.8168945 0.4313965
vt 0.8427734 0.4277344
vt 0.815918 0.4482422
vt 0.8442383 0.4418945
vt 0.815918 0.4658203
vt 0.8481445 0.4558105
vt 0.7895508 0.4458008
vt 0.7939453 0.4299316
vt 0.769043 0.4360352
vt 0.7753906 0.4240723
vt 0.796875 0.4143066
vt 0.7792969 0.411377
vt 0.7978516 0.3984375
vt 0.7807617 0.3981934
vt 0.7973633 0.3828125
vt 0.7792969 0.3852539
vt 0.7949219 0.3669434
vt 0.7758789 0.3723145
vt 0.7910156 0.3508301
vt 0.7705078 0.3596191
vt 0.7861328 0.3337402
vt 0.7617188 0.3474121
vt 0.7597656 0.4472656
vt 0.7519531 0.4160156
vt 0.7568359 0.4111328
vt 0.7602539 0.4050293
vt 0.7612305 0.3979492
vt 0.7602539 0.3908691
vt 0.7573242 0.3842773
vt 0.7529297 0.3789063
vt 0.7456055 0.3747559
vt 0.7495117 0.3974609
vt 0.7456055 0.4194336
vt 0.7836914 0.4624023
vt 0.8666992 0.3669434
vt 0.8706055 0.3571777
vt 0.8647461 0.3771973
vt 0.8637695 0.3881836
vt 0.8632813 0.3994141
vt 0.8637695 0.4106445
vt 0.8642578 0.4216309
vt 0.8662109 0.4318848
vt 0.8696289 0.4414063
vt 0.8950195 0.4226074
vt 0.8945313 0.4150391
vt 0.9458008 0.4216309
vt 0.9443359 0.4140625
vt 0.8935547 0.4074707
vt 0.9428711 0.4064941
vt 0.8935547 0.3994141
vt 0.9423828 0.3986816
vt 0.8935547 0.3916016
vt 0.9428711 0.3908691
vt 0.894043 0.3837891
vt 0.9438477 0.3833008
vt 0.8950195 0.3762207
vt 0.9448242 0.3757324
vt 0.8959961 0.3691406
vt 0.9453125 0.3684082
vt 0.9467773 0.4289551
vt 0.9487305 0.3984375
vt 0.949707 0.4060059
vt 0.956543 0.4050293
vt 0.9589844 0.4116211
vt 0.9516602 0.4135742
vt 0.9628906 0.4182129
vt 0.9545898 0.4213867
vt 0.9555664 0.3981934
vt 0.9492188 0.390625
vt 0.9560547 0.3913574
vt 0.9506836 0.3830566
vt 0.9580078 0.3845215
vt 0.953125 0.375
vt 0.9614258 0.3776855
vt 0.9555664 0.3659668
vt 0.9663086 0.3693848
vt 0.9682617 0.4255371
vt 0.9580078 0.4304199
vt 0.9658203 0.4074707
vt 0.9697266 0.4118652
vt 0.9628906 0.3979492
vt 0.9638672 0.402832
vt 0.9633789 0.3928223
vt 0.965332 0.3881836
vt 0.96875 0.3835449
vt 0.9736328 0.3796387
vt 0.9731445 0.3974609
vt 0.9746094 0.4150391
vt 0.8964844 0.4301758
vn 0.967958 0.2115064 0.13536
vn 0.9838239 0.1147295 0.137578
vn 0.5983868 0.1147297 0.7929504
vn 0.5887365 0.2115065 0.780163
vn -0.1375798 0.1147293 0.9838237
vn -0.1353605 0.2115068 0.9679579
vn -0.7929507 0.1147289 0.5983864
vn -0.7801633 0.2115062 0.5887363
vn -0.9838239 0.1147294 -0.1375778
vn -0.9679583 0.2115066 -0.1353581
vn -0.5983859 0.1147294 -0.7929512
vn -0.5887368 0.211507 -0.7801626
vn 0.1375811 0.1147287 -0.9838235
vn 0.1353612 0.2115064 -0.9679578
vn 0.7929505 0.1147289 -0.5983869
vn 0.7801633 0.211506 -0.5887364
vn 0.9838239 0.1147295 0.137578
vn 0.967958 0.2115064 0.13536
vn 0.7969626 -0.05612715 -0.6014153
vn 0.1382765 -0.05612801 -0.988802
vn 0.7636582 -0.2910728 -0.5762836
vn 0.1324966 -0.2910725 -0.9474816
vn -0.6014136 -0.05612865 -0.7969638
vn -0.5762817 -0.2910735 -0.7636594
vn -0.9888024 -0.0561281 -0.1382732
vn -0.9474815 -0.2910735 -0.1324956
vn -0.7969633 -0.05612783 0.6014143
vn -0.7636592 -0.2910731 0.5762822
vn -0.138276 -0.05612835 0.988802
vn -0.1324968 -0.2910736 0.9474813
vn 0.6014147 -0.05612842 0.7969629
vn 0.576283 -0.2910743 0.763658
vn 0.9888023 -0.05612757 0.1382743
vn 0.9474813 -0.2910737 0.1324962
vn 0.9474813 -0.2910737 0.1324962
vn 0.6768091 -0.5301606 -0.5107436
vn 0.1173838 -0.5306701 -0.8394107
vn -0.5103472 -0.5312076 -0.6762869
vn -0.8389213 -0.5314589 -0.1173144
vn -0.6762511 -0.5312789 0.5103208
vn -0.1173751 -0.5307712 0.839348
vn 0.5107166 -0.5302307 0.6767747
vn 0.8398395 -0.5299779 0.1174444
vn 2.711008E-07 -1 0
vn 0.8398395 -0.5299779 0.1174444
vn 0.9888023 -0.05612757 0.1382743
vn 0.5914098 0.1898389 0.7837063
vn 0.9723539 0.1898389 0.1359743
vn -0.1359755 0.1898391 0.9723537
vn -0.7837061 0.189839 0.59141
vn -0.9723539 0.1898388 -0.1359745
vn -0.5914104 0.1898388 -0.7837059
vn 0.1359756 0.1898391 -0.9723538
vn 0.7837066 0.1898391 -0.5914095
vn 0.9723539 0.1898389 0.1359743
vn 0.7972344 0.04971662 -0.6016191
vn 0.1383246 0.04971626 -0.9891383
vn 0.7919838 -0.124772 -0.5976568
vn 0.1374146 -0.1247737 -0.9826234
vn -0.6016207 0.04971653 -0.7972333
vn -0.5976601 -0.1247733 -0.7919812
vn -0.9891389 0.04971687 -0.1383201
vn -0.9826244 -0.1247719 -0.1374091
vn -0.7972339 0.04971689 0.6016198
vn -0.7919825 -0.1247714 0.5976585
vn -0.1383246 0.04971682 0.9891383
vn -0.1374146 -0.1247724 0.9826235
vn 0.6016195 0.04971686 0.7972342
vn 0.5976573 -0.1247732 0.7919832
vn 0.9891389 0.04971667 0.1383205
vn 0.9826244 -0.1247719 0.1374093
vn 0.9826244 -0.1247719 0.1374093
vn -0.9529591 -0.2722326 -0.1332606
vn -0.5796177 -0.2722332 -0.7680706
vn -0.5810186 0.2638755 -0.7699268
vn 0.1335897 0.2638752 -0.955261
vn 0.1332676 -0.2722331 -0.952958
vn 0.7699323 0.2638734 -0.581012
vn 0.7680761 -0.2722313 -0.5796113
vn -0.9552623 0.2638741 -0.1335828
vn -0.7680736 -0.2722324 0.579614
vn -0.7699302 0.2638737 0.5810146
vn -0.1332677 -0.2722326 0.9529581
vn -0.13359 0.2638751 0.955261
vn 0.5796127 -0.2722337 0.7680742
vn 0.5810137 0.2638764 0.7699301
vn 0.9529588 -0.2722329 0.1332622
vn 0.9552622 0.2638742 0.1335843
vn 0.9552622 0.2638742 0.1335843
vn 0.9529588 -0.2722329 0.1332622
vn 0.09876965 0.701017 -0.7062716
vn 0.5692506 0.7010141 -0.4295729
vn -0.7062747 0.7010145 -0.0987649
vn -0.4295765 0.7010171 -0.5692443
vn -0.5692502 0.7010131 0.4295752
vn -0.09877002 0.7010145 0.7062742
vn 0.4295742 0.7010158 0.5692475
vn 0.7062753 0.7010143 0.09876356
vn 6.765424E-07 1 9.324424E-07
vn 0.7062753 0.7010143 0.09876356
vn 0.9891389 0.04971667 0.1383205
g m_dlc08_juggling_pin_01_0
f 3/3/3 2/2/2 1/1/1
f 4/4/4 3/3/3 1/1/1
f 5/5/5 3/3/3 4/4/4
f 6/6/6 5/5/5 4/4/4
f 7/7/7 5/5/5 6/6/6
f 8/8/8 7/7/7 6/6/6
f 9/9/9 7/7/7 8/8/8
f 10/10/10 9/9/9 8/8/8
f 11/11/11 9/9/9 10/10/10
f 12/12/12 11/11/11 10/10/10
f 13/13/13 11/11/11 12/12/12
f 14/14/14 13/13/13 12/12/12
f 15/15/15 13/13/13 14/14/14
f 16/16/16 15/15/15 14/14/14
f 17/17/17 15/15/15 16/16/16
f 18/18/18 17/17/17 16/16/16
f 15/15/15 19/19/19 13/13/13
f 19/19/19 20/20/20 13/13/13
f 13/13/13 20/20/20 11/11/11
f 19/19/19 21/21/21 20/20/20
f 21/21/21 22/22/22 20/20/20
f 20/20/20 22/22/22 23/23/23
f 20/20/20 23/23/23 11/11/11
f 11/11/11 23/23/23 9/9/9
f 22/22/22 24/24/24 23/23/23
f 23/23/23 24/24/24 25/25/25
f 24/24/24 26/26/26 25/25/25
f 25/25/25 26/26/26 27/27/27
f 26/26/26 28/28/28 27/27/27
f 27/27/27 28/28/28 29/29/29
f 28/28/28 30/30/30 29/29/29
f 29/29/29 30/30/30 31/31/31
f 30/30/30 32/32/32 31/31/31
f 31/31/31 32/32/32 33/33/33
f 32/32/32 34/34/34 33/33/33
f 35/35/35 21/21/21 19/19/19
f 21/21/21 36/36/36 22/22/22
f 36/36/36 37/37/37 22/22/22
f 22/22/22 37/37/37 24/24/24
f 37/37/37 38/38/38 24/24/24
f 24/24/24 38/38/38 26/26/26
f 38/38/38 39/39/39 26/26/26
f 26/26/26 39/39/39 28/28/28
f 39/39/39 40/40/40 28/28/28
f 28/28/28 40/40/40 30/30/30
f 40/40/40 41/41/41 30/30/30
f 30/30/30 41/41/41 32/32/32
f 41/41/41 42/42/42 32/32/32
f 32/32/32 42/42/42 34/34/34
f 42/42/42 43/43/43 34/34/34
f 29/29/29 31/31/31 3/3/3
f 5/5/5 29/29/29 3/3/3
f 31/31/31 33/33/33 2/2/2
f 3/3/3 31/31/31 2/2/2
f 37/37/37 44/44/44 38/38/38
f 36/36/36 44/44/44 37/37/37
f 42/42/42 44/44/44 43/43/43
f 41/41/41 44/44/44 42/42/42
f 40/40/40 44/44/44 41/41/41
f 39/39/39 44/44/44 40/40/40
f 38/38/38 44/44/44 39/39/39
f 45/45/45 44/44/44 36/36/36
f 45/45/45 36/36/36 21/21/21
f 35/35/35 45/45/45 21/21/21
f 46/46/46 35/35/35 19/19/19
f 46/46/46 19/19/19 15/15/15
f 17/17/17 46/46/46 15/15/15
f 27/27/27 29/29/29 5/5/5
f 7/7/7 27/27/27 5/5/5
f 25/25/25 27/27/27 7/7/7
f 9/9/9 25/25/25 7/7/7
f 23/23/23 25/25/25 9/9/9
f 47/47/47 4/4/4 1/1/1
f 48/48/48 47/47/47 1/1/1
f 47/47/47 49/49/49 4/4/4
f 49/49/49 6/6/6 4/4/4
f 49/49/49 50/50/50 6/6/6
f 50/50/50 8/8/8 6/6/6
f 50/50/50 51/51/51 8/8/8
f 51/51/51 10/10/10 8/8/8
f 51/51/51 52/52/52 10/10/10
f 52/52/52 12/12/12 10/10/10
f 52/52/52 53/53/53 12/12/12
f 53/53/53 14/14/14 12/12/12
f 53/53/53 54/54/54 14/14/14
f 54/54/54 16/16/16 14/14/14
f 54/54/54 55/55/55 16/16/16
f 55/55/55 18/18/18 16/16/16
f 56/56/56 54/54/54 53/53/53
f 57/57/57 56/56/56 53/53/53
f 57/57/57 53/53/53 52/52/52
f 58/58/58 56/56/56 57/57/57
f 59/59/59 58/58/58 57/57/57
f 59/59/59 57/57/57 60/60/60
f 60/60/60 57/57/57 52/52/52
f 60/60/60 52/52/52 51/51/51
f 61/61/61 59/59/59 60/60/60
f 61/61/61 60/60/60 62/62/62
f 63/63/63 61/61/61 62/62/62
f 63/63/63 62/62/62 64/64/64
f 65/65/65 63/63/63 64/64/64
f 65/65/65 64/64/64 66/66/66
f 67/67/67 65/65/65 66/66/66
f 67/67/67 66/66/66 68/68/68
f 69/69/69 67/67/67 68/68/68
f 69/69/69 68/68/68 70/70/70
f 71/71/71 69/69/69 70/70/70
f 58/58/58 72/72/72 56/56/56
f 62/62/62 60/60/60 51/51/51
f 62/62/62 51/51/51 50/50/50
f 64/64/64 62/62/62 50/50/50
f 64/64/64 50/50/50 49/49/49
f 66/66/66 64/64/64 49/49/49
f 66/66/66 49/49/49 47/47/47
f 68/68/68 66/66/66 47/47/47
f 68/68/68 47/47/47 48/48/48
f 70/70/70 68/68/68 48/48/48
f 73/73/73 63/63/63 65/65/65
f 73/73/73 74/74/74 63/63/63
f 74/74/74 73/73/73 75/75/75
f 74/74/74 75/75/75 76/76/76
f 77/77/77 74/74/74 76/76/76
f 76/76/76 78/78/78 77/77/77
f 78/78/78 79/79/79 77/77/77
f 73/73/73 80/80/80 75/75/75
f 73/73/73 81/81/81 80/80/80
f 81/81/81 82/82/82 80/80/80
f 81/81/81 83/83/83 82/82/82
f 83/83/83 84/84/84 82/82/82
f 83/83/83 85/85/85 84/84/84
f 85/85/85 86/86/86 84/84/84
f 85/85/85 87/87/87 86/86/86
f 87/87/87 88/88/88 86/86/86
f 79/79/79 78/78/78 89/89/89
f 90/90/90 79/79/79 89/89/89
f 76/76/76 91/91/91 78/78/78
f 91/91/91 92/92/92 78/78/78
f 93/93/93 80/80/80 82/82/82
f 93/93/93 94/94/94 80/80/80
f 94/94/94 91/91/91 75/75/75
f 94/94/94 75/75/75 80/80/80
f 91/91/91 76/76/76 75/75/75
f 95/95/95 93/93/93 82/82/82
f 95/95/95 82/82/82 84/84/84
f 96/96/96 95/95/95 84/84/84
f 96/96/96 84/84/84 86/86/86
f 97/97/97 96/96/96 86/86/86
f 97/97/97 86/86/86 88/88/88
f 98/98/98 97/97/97 88/88/88
f 87/87/87 85/85/85 71/71/71
f 85/85/85 69/69/69 71/71/71
f 85/85/85 83/83/83 69/69/69
f 83/83/83 67/67/67 69/69/69
f 83/83/83 81/81/81 67/67/67
f 81/81/81 65/65/65 67/67/67
f 81/81/81 73/73/73 65/65/65
f 96/96/96 99/99/99 95/95/95
f 96/96/96 97/97/97 99/99/99
f 97/97/97 98/98/98 99/99/99
f 99/99/99 91/91/91 94/94/94
f 99/99/99 92/92/92 91/91/91
f 100/100/100 92/92/92 99/99/99
f 92/92/92 100/100/100 78/78/78
f 100/100/100 89/89/89 78/78/78
f 99/99/99 94/94/94 93/93/93
f 99/99/99 93/93/93 95/95/95
f 72/72/72 101/101/101 56/56/56
f 56/56/56 101/101/101 54/54/54
f 101/101/101 55/55/55 54/54/54
f 90/90/90 72/72/72 58/58/58
f 79/79/79 90/90/90 58/58/58
f 79/79/79 58/58/58 59/59/59
f 77/77/77 79/79/79 59/59/59
f 77/77/77 59/59/59 61/61/61
f 74/74/74 77/77/77 61/61/61
f 74/74/74 61/61/61 63/63/63
