g m_dlc08_down
v 0.06497925 -0.07218508 -0.1830975
v 0.1064905 -0.07227223 0.1826715
v 0.1449206 -0.03502459 0.182359
v 0.1029895 -0.034974 -0.1840985
v -0.0648645 -0.07223677 -0.1829938
v -0.1063757 -0.07232445 0.1825543
v -0.1029675 -0.03490794 -0.1840155
v -0.1449206 -0.03496681 0.1821515
v -0.1104578 -0.03492372 0.2208368
v 0.1084314 -0.03295654 0.2209894
v 0.1085315 0.03312838 0.2209247
v 0.1448376 0.03319002 0.1802094
v 0.1449206 -0.03502459 0.182359
v -0.1084412 0.03317847 0.2209064
v -0.1065906 0.07228538 0.1827362
v 0.1066785 0.07228534 0.1827362
v -0.1449206 -0.03496681 0.1821515
v -0.1447546 0.03322886 0.1801361
v 0.06501099 0.07232445 -0.1830011
v 0.1030823 0.03496522 -0.1840033
v 0.1448376 0.03319002 0.1802094
v -0.06494751 0.07227235 -0.1831061
v -0.06152466 0.03512114 -0.2209894
v 0.06335083 0.03675577 -0.2208929
v -0.1447546 0.03322886 0.1801361
v -0.1029285 0.03503114 -0.1840863
v 0.06161255 -0.03500932 -0.2209894
v 0.1029895 -0.034974 -0.1840985
v 0.1030823 0.03496522 -0.1840033
v -0.0632605 -0.03664384 -0.2208929
v -0.0648645 -0.07223677 -0.1829938
v 0.06497925 -0.07218508 -0.1830975
v -0.1029285 0.03503114 -0.1840863
v -0.1029675 -0.03490794 -0.1840155
v -0.1447546 0.03322886 0.1801361
v -0.1449206 -0.03496681 0.1821515
v 0.1449206 -0.03502459 0.182359
v 0.1448376 0.03319002 0.1802094
vt 0.4084473 0.9819336
vt 0.402832 0.7680664
vt 0.375 0.7680664
vt 0.375 0.9819336
vt 0.581543 0.9819336
vt 0.5908203 0.7680664
vt 0.625 0.9819336
vt 0.625 0.7680664
vt 0.597168 0.7104492
vt 0.404541 0.7080078
vt 0.404541 0.5419922
vt 0.378418 0.5419922
vt 0.3781738 0.7104492
vt 0.5957031 0.5419922
vt 0.597168 0.4819336
vt 0.4091797 0.4819336
vt 0.621582 0.7104492
vt 0.621582 0.5419922
vt 0.418457 0.2680664
vt 0.375 0.2678223
vt 0.375 0.480957
vt 0.5917969 0.2680664
vt 0.5820313 0.2105713
vt 0.4157715 0.2126465
vt 0.625 0.480957
vt 0.625 0.2678223
vt 0.4179688 0.03939819
vt 0.3571777 0.03939819
vt 0.3571777 0.2105713
vt 0.5839844 0.037323
vt 0.5864258 0
vt 0.4133301 0
vt 0.6430664 0.2105713
vt 0.6430664 0.03939819
vt 0.855957 0.2081299
vt 0.8569336 0.03939819
vt 0.1428223 0.03939819
vt 0.1439209 0.2081299
vn 0.1564541 -0.9848613 -0.07463611
vn 0.1774802 -0.9802287 0.08747777
vn 0.9464613 -0.3211825 -0.03244763
vn 0.9279034 -0.3305873 -0.1723582
vn -0.1553715 -0.9850034 -0.07502058
vn -0.1758566 -0.9803845 0.08899801
vn -0.9286485 -0.3284172 -0.172494
vn -0.9470893 -0.3192266 -0.03340907
vn -0.1206185 -0.3130235 0.9420549
vn 0.1182541 -0.3109238 0.9430495
vn 0.1169001 0.3131777 0.9424723
vn 0.9484974 0.3147792 -0.03558886
vn 0.9464613 -0.3211825 -0.03244763
vn -0.1164729 0.3120691 0.9428929
vn -0.1775783 0.9799702 0.09013449
vn 0.1777999 0.9799366 0.09006415
vn -0.9470893 -0.3192266 -0.03340907
vn -0.947962 0.3163183 -0.03620402
vn 0.1584269 0.984545 -0.07464714
vn 0.9300769 0.3249011 -0.1714536
vn 0.9484974 0.3147792 -0.03558886
vn -0.1593263 0.9844267 -0.07429226
vn -0.1660112 0.2984298 -0.939883
vn 0.1686005 0.3016849 -0.9383816
vn -0.947962 0.3163183 -0.03620402
vn -0.9291243 0.3275636 -0.1715525
vn 0.1660815 -0.2982552 -0.939926
vn 0.9279034 -0.3305873 -0.1723582
vn 0.9300769 0.3249011 -0.1714536
vn -0.1686723 -0.3015035 -0.9384271
vn -0.1553715 -0.9850034 -0.07502058
vn 0.1564541 -0.9848613 -0.07463611
vn -0.9291243 0.3275636 -0.1715525
vn -0.9286485 -0.3284172 -0.172494
vn -0.947962 0.3163183 -0.03620402
vn -0.9470893 -0.3192266 -0.03340907
vn 0.9464613 -0.3211825 -0.03244763
vn 0.9484974 0.3147792 -0.03558886
g m_dlc08_down_0
f 3/3/3 2/2/2 1/1/1
f 4/4/4 3/3/3 1/1/1
f 5/5/5 1/1/1 2/2/2
f 6/6/6 5/5/5 2/2/2
f 5/5/5 6/6/6 7/7/7
f 6/6/6 8/8/8 7/7/7
f 9/9/9 6/6/6 2/2/2
f 10/10/10 9/9/9 2/2/2
f 9/9/9 10/10/10 11/11/11
f 11/11/11 10/10/10 12/12/12
f 10/10/10 13/13/13 12/12/12
f 10/10/10 2/2/2 13/13/13
f 14/14/14 9/9/9 11/11/11
f 15/15/15 14/14/14 11/11/11
f 16/16/16 15/15/15 11/11/11
f 17/17/17 9/9/9 14/14/14
f 9/9/9 17/17/17 6/6/6
f 18/18/18 17/17/17 14/14/14
f 15/15/15 16/16/16 19/19/19
f 19/19/19 16/16/16 20/20/20
f 16/16/16 21/21/21 20/20/20
f 16/16/16 11/11/11 21/21/21
f 22/22/22 15/15/15 19/19/19
f 23/23/23 22/22/22 19/19/19
f 24/24/24 23/23/23 19/19/19
f 25/25/25 15/15/15 22/22/22
f 15/15/15 25/25/25 14/14/14
f 26/26/26 25/25/25 22/22/22
f 23/23/23 24/24/24 27/27/27
f 27/27/27 24/24/24 28/28/28
f 24/24/24 29/29/29 28/28/28
f 24/24/24 19/19/19 29/29/29
f 30/30/30 23/23/23 27/27/27
f 31/31/31 30/30/30 27/27/27
f 32/32/32 31/31/31 27/27/27
f 27/27/27 28/28/28 32/32/32
f 33/33/33 23/23/23 30/30/30
f 23/23/23 33/33/33 22/22/22
f 34/34/34 33/33/33 30/30/30
f 30/30/30 31/31/31 34/34/34
f 35/35/35 33/33/33 34/34/34
f 36/36/36 35/35/35 34/34/34
f 28/28/28 29/29/29 37/37/37
f 29/29/29 38/38/38 37/37/37
