g m_dlc08_organhorn_019
v 0.01228282 1.064305 -0.1134899
v 0.0146461 1.249218 -0.1353393
v -0.08534291 1.249218 -0.1060558
v -0.07156483 1.064305 -0.08893424
v -0.1353392 1.249218 -0.01464835
v -0.1134899 1.064305 -0.01228263
v -0.106057 1.249218 0.08534371
v -0.08893544 1.064305 0.07156563
v -0.01464589 1.249218 0.13534
v -0.01228139 1.064305 0.1134907
v 0.08534312 1.249218 0.106059
v 0.07156505 1.064305 0.08893685
v 0.1353395 1.249218 0.01464974
v 0.1134913 1.064305 0.01228402
v 0.1060572 1.249218 -0.08534171
v 0.08893565 1.064305 -0.07156364
v 0.0146461 1.249218 -0.1353393
v 0.01228282 1.064305 -0.1134899
v -0.06315663 0.7337635 -0.07848381
v -0.1001549 0.7337635 -0.01083854
v -0.09133534 0.4032557 -0.009885172
v -0.0575951 0.4032557 -0.07157341
v 0.01083995 0.7337635 -0.1001549
v 0.009885362 0.4032557 -0.09133536
v -0.0575951 0.07281379 -0.07157341
v 0.009885362 0.07281379 -0.09133536
v -0.0575951 -0.2576281 -0.07157341
v 0.009885362 -0.2576281 -0.09133536
v -0.0715746 0.4032557 0.0575959
v -0.078485 0.7337635 0.06315682
v -0.009883924 0.4032557 0.09133676
v -0.01083851 0.7337635 0.1001563
v 0.05759532 0.4032557 0.07157601
v 0.06315563 0.7337635 0.07848702
v 0.09133677 0.4032557 0.009886556
v 0.1001564 0.7337635 0.01084115
v 0.07157481 0.4032557 -0.05759391
v 0.07848644 0.7337635 -0.06315544
v 0.01083995 0.7337635 -0.1001549
v 0.009885362 0.4032557 -0.09133536
v 0.01083995 -0.5881362 -0.1001549
v -0.06315663 -0.5881362 -0.07848381
v 0.01228282 -0.9186773 -0.1134899
v -0.07156483 -0.9186773 -0.08893424
v -0.1001549 -0.5881362 -0.01083854
v -0.1134899 -0.9186773 -0.01228263
v -0.078485 -0.5881362 0.06315682
v -0.08893544 -0.9186773 0.07156563
v -0.01083851 -0.5881362 0.1001563
v -0.01228139 -0.9186773 0.1134907
v 0.06315563 -0.5881362 0.07848702
v 0.07156505 -0.9186773 0.08893685
v 0.1001564 -0.5881362 0.01084115
v 0.1134913 -0.9186773 0.01228402
v 0.07848644 -0.5881362 -0.06315544
v 0.08893565 -0.9186773 -0.07156364
v 0.01083995 -0.5881362 -0.1001549
v 0.01228282 -0.9186773 -0.1134899
v -0.0715746 -0.2576281 0.0575959
v -0.09133534 -0.2576281 -0.009885172
v -0.009883924 -0.2576281 0.09133676
v 0.05759532 -0.2576281 0.07157601
v 0.09133677 -0.2576281 0.009886556
v 0.07157481 -0.2576281 -0.05759391
v 0.009885362 -0.2576281 -0.09133536
v -0.09133534 0.07281379 -0.009885172
v -0.0715746 0.07281379 0.0575959
v -0.009883924 0.07281379 0.09133676
v 0.05759532 0.07281379 0.07157601
v 0.09133677 0.07281379 0.009886556
v 0.07157481 0.07281379 -0.05759391
v 0.009885362 0.07281379 -0.09133536
v -0.08534291 -1.249218 -0.1060558
v -0.1353392 -1.249218 -0.01464835
v -0.106057 -1.249218 0.08534371
v -0.01464589 -1.249218 0.13534
v 0.08534312 -1.249218 0.106059
v 0.1353395 -1.249218 0.01464974
v 0.1060572 -1.249218 -0.08534171
v 0.0146461 -1.249218 -0.1353393
v 0.0146461 -1.249218 -0.1353393
vt 0.1612549 0.6933594
vt 0.1601563 0.6977539
vt 0.1624756 0.6982422
vt 0.1633301 0.6938477
vt 0.1647949 0.6982422
vt 0.1654053 0.6938477
vt 0.1671143 0.6987305
vt 0.1674805 0.6943359
vt 0.1694336 0.6987305
vt 0.1695557 0.6943359
vt 0.171875 0.6987305
vt 0.1716309 0.6943359
vt 0.1741943 0.6987305
vt 0.1737061 0.6943359
vt 0.1765137 0.6982422
vt 0.1757813 0.6938477
vt 0.1789551 0.6977539
vt 0.1777344 0.6933594
vt 0.1641846 0.6860352
vt 0.1658936 0.6865234
vt 0.1662598 0.6787109
vt 0.1646729 0.6787109
vt 0.1623535 0.6860352
vt 0.1629639 0.6782227
vt 0.1646729 0.6708984
vt 0.1630859 0.6708984
vt 0.1646729 0.6630859
vt 0.1630859 0.6630859
vt 0.1679688 0.6787109
vt 0.1677246 0.6865234
vt 0.1695557 0.6787109
vt 0.1695557 0.6865234
vt 0.1712646 0.6787109
vt 0.1713867 0.6865234
vt 0.1728516 0.6787109
vt 0.1732178 0.6865234
vt 0.1745605 0.6787109
vt 0.1749268 0.6860352
vt 0.1767578 0.6860352
vt 0.1761475 0.6787109
vt 0.1624756 0.6552734
vt 0.1643066 0.6552734
vt 0.161499 0.6479492
vt 0.1635742 0.6474609
vt 0.1661377 0.6552734
vt 0.1656494 0.6474609
vt 0.1678467 0.6552734
vt 0.1677246 0.6474609
vt 0.1696777 0.6552734
vt 0.1697998 0.6474609
vt 0.1715088 0.6552734
vt 0.1717529 0.6474609
vt 0.1733398 0.6552734
vt 0.1738281 0.6474609
vt 0.1751709 0.6552734
vt 0.1759033 0.6474609
vt 0.1768799 0.6557617
vt 0.1779785 0.6479492
vt 0.1679688 0.6630859
vt 0.1663818 0.6630859
vt 0.1696777 0.6630859
vt 0.1712646 0.6630859
vt 0.1729736 0.6630859
vt 0.1746826 0.6630859
vt 0.1762695 0.6630859
vt 0.1663818 0.6708984
vt 0.1679688 0.6708984
vt 0.1696777 0.6708984
vt 0.1712646 0.6708984
vt 0.1729736 0.6708984
vt 0.1745605 0.6708984
vt 0.1761475 0.6708984
vt 0.1624756 0.6401367
vt 0.164917 0.6396484
vt 0.1673584 0.6396484
vt 0.1697998 0.6396484
vt 0.1722412 0.6396484
vt 0.1745605 0.6396484
vt 0.177002 0.6401367
vt 0.1794434 0.640625
vt 0.1601563 0.6401367
vn 0.1073175 -0.07198824 -0.9916152
vn 0.1068438 -0.1180185 -0.9872466
vn -0.6225364 -0.1180204 -0.7736405
vn -0.6252912 -0.07198953 -0.7770639
vn -0.9872463 -0.1180191 -0.1068468
vn -0.9916152 -0.07198919 -0.1073174
vn -0.7736391 -0.1180193 0.6225382
vn -0.7770626 -0.07198907 0.625293
vn -0.1068504 -0.1180192 0.9872459
vn -0.1073241 -0.07198826 0.9916145
vn 0.622535 -0.1180202 0.7736416
vn 0.6252891 -0.07198913 0.7770656
vn 0.9872466 -0.1180167 0.1068463
vn 0.9916149 -0.0719876 0.1073206
vn 0.7736406 -0.118016 -0.6225372
vn 0.7770647 -0.07198676 -0.6252908
vn 0.1068438 -0.1180185 -0.9872466
vn 0.1073175 -0.07198824 -0.9916152
vn -0.626554 -0.03412152 -0.7786307
vn -0.993616 -0.0341215 -0.1075319
vn -0.9941003 -0.01377957 -0.1075863
vn -0.6268571 -0.01377966 -0.7790123
vn 0.107532 -0.03412144 -0.993616
vn 0.1075851 -0.01378015 -0.9941004
vn -0.6269155 0 -0.7790873
vn 0.1075972 0 -0.9941946
vn -0.6268572 0.01377963 -0.7790123
vn 0.1075851 0.01378016 -0.9941004
vn -0.7790114 -0.01377987 0.6268582
vn -0.7786302 -0.03412154 0.6265547
vn -0.1075925 -0.01377979 0.9940996
vn -0.1075412 -0.03412087 0.9936149
vn 0.6268559 -0.01377975 0.7790133
vn 0.6265498 -0.03412128 0.7786341
vn 0.9940999 -0.01378003 0.1075897
vn 0.993615 -0.03412142 0.1075403
vn 0.7790126 -0.01378061 -0.6268569
vn 0.7786325 -0.03412138 -0.6265517
vn 0.107532 -0.03412144 -0.993616
vn 0.1075851 -0.01378015 -0.9941004
vn 0.1075319 0.03412141 -0.993616
vn -0.6265539 0.03412147 -0.7786309
vn 0.1074364 0.05460386 -0.9927114
vn -0.6259825 0.05460483 -0.777923
vn -0.9936159 0.03412141 -0.107532
vn -0.9927113 0.05460453 -0.1074366
vn -0.7786303 0.03412147 0.6265546
vn -0.7779217 0.05460435 0.625984
vn -0.1075412 0.03412089 0.9936149
vn -0.1074425 0.05460381 0.9927107
vn 0.62655 0.03412126 0.778634
vn 0.6259802 0.05460456 0.777925
vn 0.993615 0.03412131 0.1075404
vn 0.9927112 0.05460336 0.107439
vn 0.7786325 0.03412134 -0.6265517
vn 0.7779236 0.05460271 -0.625982
vn 0.1075319 0.03412141 -0.993616
vn 0.1074364 0.05460386 -0.9927114
vn -0.7790117 0.01377979 0.6268579
vn -0.9941003 0.01377947 -0.1075863
vn -0.1075925 0.01377977 0.9940996
vn 0.6268562 0.01377967 0.7790131
vn 0.9940999 0.0137799 0.1075897
vn 0.7790124 0.01378055 -0.626857
vn 0.1075851 0.01378016 -0.9941004
vn -0.9941946 0 -0.1075979
vn -0.7790864 0 0.6269167
vn -0.1076017 0 0.9941941
vn 0.6269155 0 0.7790873
vn 0.9941946 0 0.1075973
vn 0.7790865 0 -0.6269165
vn 0.1075972 0 -0.9941946
vn -0.6255368 0.06634197 -0.777369
vn -0.9920041 0.06634124 -0.1073616
vn -0.7773679 0.06634124 0.6255381
vn -0.1073653 0.06634119 0.9920039
vn 0.6255346 0.06634185 0.7773707
vn 0.9920043 0.06633986 0.1073612
vn 0.7773693 0.06633955 -0.6255367
vn 0.1073596 0.06634102 -0.9920043
vn 0.1073596 0.06634102 -0.9920043
g m_dlc08_organhorn_019_0
f 3/3/3 2/2/2 1/1/1
f 4/4/4 3/3/3 1/1/1
f 5/5/5 3/3/3 4/4/4
f 6/6/6 5/5/5 4/4/4
f 7/7/7 5/5/5 6/6/6
f 8/8/8 7/7/7 6/6/6
f 9/9/9 7/7/7 8/8/8
f 10/10/10 9/9/9 8/8/8
f 11/11/11 9/9/9 10/10/10
f 12/12/12 11/11/11 10/10/10
f 13/13/13 11/11/11 12/12/12
f 14/14/14 13/13/13 12/12/12
f 15/15/15 13/13/13 14/14/14
f 16/16/16 15/15/15 14/14/14
f 17/17/17 15/15/15 16/16/16
f 18/18/18 17/17/17 16/16/16
f 6/6/6 4/4/4 19/19/19
f 20/20/20 6/6/6 19/19/19
f 8/8/8 6/6/6 20/20/20
f 21/21/21 20/20/20 19/19/19
f 22/22/22 21/21/21 19/19/19
f 22/22/22 19/19/19 23/23/23
f 24/24/24 22/22/22 23/23/23
f 25/25/25 22/22/22 24/24/24
f 26/26/26 25/25/25 24/24/24
f 27/27/27 25/25/25 26/26/26
f 28/28/28 27/27/27 26/26/26
f 21/21/21 29/29/29 20/20/20
f 29/29/29 30/30/30 20/20/20
f 29/29/29 31/31/31 30/30/30
f 31/31/31 32/32/32 30/30/30
f 31/31/31 33/33/33 32/32/32
f 33/33/33 34/34/34 32/32/32
f 33/33/33 35/35/35 34/34/34
f 35/35/35 36/36/36 34/34/34
f 35/35/35 37/37/37 36/36/36
f 37/37/37 38/38/38 36/36/36
f 39/39/39 38/38/38 37/37/37
f 40/40/40 39/39/39 37/37/37
f 28/28/28 41/41/41 27/27/27
f 41/41/41 42/42/42 27/27/27
f 42/42/42 41/41/41 43/43/43
f 44/44/44 42/42/42 43/43/43
f 45/45/45 42/42/42 44/44/44
f 46/46/46 45/45/45 44/44/44
f 47/47/47 45/45/45 46/46/46
f 48/48/48 47/47/47 46/46/46
f 49/49/49 47/47/47 48/48/48
f 50/50/50 49/49/49 48/48/48
f 51/51/51 49/49/49 50/50/50
f 52/52/52 51/51/51 50/50/50
f 53/53/53 51/51/51 52/52/52
f 54/54/54 53/53/53 52/52/52
f 55/55/55 53/53/53 54/54/54
f 56/56/56 55/55/55 54/54/54
f 57/57/57 55/55/55 56/56/56
f 58/58/58 57/57/57 56/56/56
f 45/45/45 47/47/47 59/59/59
f 60/60/60 45/45/45 59/59/59
f 42/42/42 45/45/45 60/60/60
f 27/27/27 42/42/42 60/60/60
f 47/47/47 49/49/49 61/61/61
f 59/59/59 47/47/47 61/61/61
f 49/49/49 51/51/51 62/62/62
f 61/61/61 49/49/49 62/62/62
f 51/51/51 53/53/53 63/63/63
f 62/62/62 51/51/51 63/63/63
f 53/53/53 55/55/55 64/64/64
f 63/63/63 53/53/53 64/64/64
f 64/64/64 55/55/55 57/57/57
f 65/65/65 64/64/64 57/57/57
f 27/27/27 60/60/60 25/25/25
f 60/60/60 66/66/66 25/25/25
f 60/60/60 59/59/59 66/66/66
f 25/25/25 66/66/66 22/22/22
f 66/66/66 21/21/21 22/22/22
f 66/66/66 67/67/67 21/21/21
f 67/67/67 29/29/29 21/21/21
f 59/59/59 67/67/67 66/66/66
f 59/59/59 61/61/61 67/67/67
f 67/67/67 68/68/68 29/29/29
f 68/68/68 31/31/31 29/29/29
f 61/61/61 68/68/68 67/67/67
f 68/68/68 69/69/69 31/31/31
f 69/69/69 33/33/33 31/31/31
f 62/62/62 69/69/69 68/68/68
f 61/61/61 62/62/62 68/68/68
f 69/69/69 70/70/70 33/33/33
f 70/70/70 35/35/35 33/33/33
f 63/63/63 70/70/70 69/69/69
f 62/62/62 63/63/63 69/69/69
f 70/70/70 71/71/71 35/35/35
f 71/71/71 37/37/37 35/35/35
f 64/64/64 71/71/71 70/70/70
f 63/63/63 64/64/64 70/70/70
f 71/71/71 64/64/64 65/65/65
f 72/72/72 71/71/71 65/65/65
f 37/37/37 71/71/71 72/72/72
f 40/40/40 37/37/37 72/72/72
f 30/30/30 8/8/8 20/20/20
f 10/10/10 8/8/8 30/30/30
f 32/32/32 10/10/10 30/30/30
f 12/12/12 10/10/10 32/32/32
f 34/34/34 12/12/12 32/32/32
f 14/14/14 12/12/12 34/34/34
f 36/36/36 14/14/14 34/34/34
f 16/16/16 14/14/14 36/36/36
f 38/38/38 16/16/16 36/36/36
f 18/18/18 16/16/16 38/38/38
f 39/39/39 18/18/18 38/38/38
f 4/4/4 1/1/1 23/23/23
f 19/19/19 4/4/4 23/23/23
f 46/46/46 44/44/44 73/73/73
f 74/74/74 46/46/46 73/73/73
f 48/48/48 46/46/46 74/74/74
f 75/75/75 48/48/48 74/74/74
f 50/50/50 48/48/48 75/75/75
f 76/76/76 50/50/50 75/75/75
f 52/52/52 50/50/50 76/76/76
f 77/77/77 52/52/52 76/76/76
f 54/54/54 52/52/52 77/77/77
f 78/78/78 54/54/54 77/77/77
f 56/56/56 54/54/54 78/78/78
f 79/79/79 56/56/56 78/78/78
f 58/58/58 56/56/56 79/79/79
f 80/80/80 58/58/58 79/79/79
f 73/73/73 44/44/44 81/81/81
f 44/44/44 43/43/43 81/81/81
