g m_dlc08_firebreather_torch_02
v 0 -0.1705656 0.02749998
v 0 -0.1504342 0.04763138
v 0.03368049 -0.1504342 0.03368049
v 0.01944542 -0.1705656 0.01944544
v 0.04763138 -0.1504342 0
v 0.0275 -0.1705656 0
v 0.03368049 -0.1504342 -0.03368048
v 0.01944542 -0.1705656 -0.01944546
v 0 -0.1504342 -0.04763138
v 0 -0.1705656 -0.0275
v -0.03368049 -0.1504342 -0.03368049
v -0.01944542 -0.1705656 -0.01944546
v -0.04763138 -0.1504342 0
v -0.0275 -0.1705656 0
v -0.03368049 -0.1504342 0.03368049
v -0.01944542 -0.1705656 0.01944544
v 0 -0.1504342 0.04763138
v 0 -0.1705656 0.02749998
v 0.055 -0.1229342 0
v 0.03889088 -0.1229342 -0.03889088
v 0 -0.1229342 -0.05500002
v -0.03889088 -0.1229342 -0.03889088
v -0.055 -0.1229342 0
v -0.03889088 -0.1229342 0.03889086
v 0 -0.1229342 0.05499998
v 0.03889088 0.109534 -0.03889089
v 0.055 0.109534 0
v 0.03889088 -0.1229342 0.03889086
v 0 -0.1229342 0.05499998
v 0.03889088 0.109534 0.03889086
v 0 0.109534 0.05499998
v 0 0.109534 -0.05499998
v -0.03889088 0.109534 -0.03889089
v -0.055 0.109534 0
v -0.03889088 0.109534 0.03889086
v 0 0.109534 0.05499998
v 0.04825066 0.1379749 -0.0006838035
v 0.03460186 0.1379748 0.03363483
v 0.03363483 0.1379749 -0.03460188
v -0.0006837845 0.1379749 -0.04825063
v -0.03460186 0.1379749 -0.03363485
v 0.0006837845 0.1379749 0.04825063
v -0.04825066 0.1379749 0.0006837654
v -0.03363483 0.1379749 0.03460188
v 0.0006837845 0.1379749 0.04825063
v 0.02779602 0.1556058 -0.0002258682
v 0.01981445 0.1556057 0.01949503
v 0.01949505 0.1556058 -0.01981447
v -0.0002258682 0.1556058 -0.027796
v -0.01981445 0.1556058 -0.01949505
v 0.0002258682 0.1556057 0.02779602
v -0.02779602 0.1556058 0.0002258491
v -0.01949505 0.1556058 0.01981445
v 0.0002258682 0.1556057 0.02779602
v 0 -0.1779342 -1.907349E-08
v 0.01981445 0.1556057 0.01949503
v 0.02006393 0.4527877 0.01923815
v 0.02779079 0.4527877 -0.0005838966
v 0.02779602 0.1556058 -0.0002258682
v 0.01923817 0.4527877 -0.02006395
v 0.01949505 0.1556058 -0.01981447
v -0.0005839157 0.4527877 -0.02779081
v -0.0002258682 0.1556058 -0.027796
v -0.02006393 0.4527877 -0.0192382
v -0.01981445 0.1556058 -0.01949505
v 0.0002258682 0.1556057 0.02779602
v 0.0005839157 0.4527877 0.02779079
v -0.02779079 0.4527877 0.0005839157
v -0.02779602 0.1556058 0.0002258491
v -0.01923817 0.4527877 0.02006395
v -0.01949505 0.1556058 0.01981445
v 0.0005839157 0.4527877 0.02779079
v 0.0002258682 0.1556057 0.02779602
vt 0.5550122 0.03457903
vt 0.5463504 0.03803498
vt 0.5511209 0.04141799
vt 0.5568933 0.03741465
vt 0.5562308 0.04362351
vt 0.5598082 0.03932337
vt 0.5614926 0.04500407
vt 0.5632336 0.04053503
vt 0.5668966 0.04548608
vt 0.5669605 0.04096466
vt 0.5723292 0.04498563
vt 0.570695 0.04050158
vt 0.5776681 0.04357441
vt 0.5741488 0.03926573
vt 0.5828959 0.04132476
vt 0.577143 0.03730127
vt 0.5879823 0.03781353
vt 0.579156 0.03421904
vt 0.5539831 0.04829764
vt 0.5604525 0.04953722
vt 0.5669334 0.04996046
vt 0.5734468 0.04946723
vt 0.5800088 0.04815048
vt 0.5867487 0.0463112
vt 0.5940076 0.04461998
vt 0.5604724 0.09154006
vt 0.5535059 0.091825
vt 0.5473761 0.04651643
vt 0.5402048 0.04474609
vt 0.5462956 0.092366
vt 0.5386899 0.09305707
vt 0.5673156 0.09141847
vt 0.5741296 0.09141536
vt 0.5810094 0.09157369
vt 0.5880861 0.0919993
vt 0.5955945 0.09270766
vt 0.5555876 0.09694851
vt 0.5495299 0.0975336
vt 0.5615139 0.09670798
vt 0.5673895 0.0966055
vt 0.5732659 0.0965983
vt 0.5433201 0.09946351
vt 0.5792026 0.09674238
vt 0.5852848 0.0972684
vt 0.5912881 0.09920051
vt 0.5581006 0.1017023
vt 0.5536511 0.101922
vt 0.5627252 0.1015945
vt 0.5674263 0.1015553
vt 0.5721161 0.10157
vt 0.549503 0.1023443
vt 0.5767067 0.1016477
vt 0.5810992 0.1018163
vt 0.5851699 0.1021036
vt 0.5669963 0.0356756
vt 0.5536511 0.101922
vt 0.5530741 0.1581465
vt 0.5578172 0.1584478
vt 0.5581006 0.1017023
vt 0.5628807 0.1585201
vt 0.5627252 0.1015945
vt 0.568085 0.1584802
vt 0.5674263 0.1015553
vt 0.5732847 0.1583654
vt 0.5721161 0.10157
vt 0.549503 0.1023443
vt 0.5489041 0.1574594
vt 0.5783384 0.1581439
vt 0.5767067 0.1016477
vt 0.5830703 0.1577032
vt 0.5810992 0.1018163
vt 0.587221 0.1568989
vt 0.5851699 0.1021036
vn 0 -0.7728025 0.6346467
vn 0 -0.4349713 0.9004443
vn 0.63671 -0.4349716 0.6367103
vn 0.4487628 -0.7728026 0.448763
vn 0.900444 -0.4349718 -1.364578E-07
vn 0.6346467 -0.7728024 0
vn 0.6367102 -0.4349718 -0.63671
vn 0.4487629 -0.7728023 -0.4487634
vn 1.273606E-07 -0.4349716 -0.9004441
vn 0 -0.7728021 -0.6346471
vn -0.6367102 -0.4349717 -0.63671
vn -0.448763 -0.7728024 -0.4487631
vn -0.900444 -0.4349718 0
vn -0.6346467 -0.7728024 1.367478E-07
vn -0.63671 -0.4349716 0.6367103
vn -0.4487627 -0.7728025 0.4487631
vn 0 -0.4349713 0.9004443
vn 0 -0.7728025 0.6346467
vn 0.9996849 -0.02510185 0
vn 0.706884 -0.02510187 -0.706884
vn 0 -0.02510185 -0.9996849
vn -0.706884 -0.02510185 -0.706884
vn -0.9996849 -0.02510185 0
vn -0.7068839 -0.02510182 0.7068841
vn 0 -0.02510177 0.9996849
vn 0.7068779 0.02318078 -0.7069556
vn 0.9997312 0.02318076 -5.482452E-05
vn 0.706884 -0.02510182 0.706884
vn 0 -0.02510177 0.9996849
vn 0.7069554 0.02318077 0.7068782
vn 5.472912E-05 0.02318072 0.9997312
vn -5.483512E-05 0.0231808 -0.9997312
vn -0.7069556 0.02318078 -0.7068779
vn -0.9997312 0.02318076 5.489266E-05
vn -0.7068779 0.02318077 0.7069556
vn 5.472912E-05 0.02318072 0.9997312
vn 0.9024355 0.430663 -0.01180891
vn 0.6464685 0.4306628 0.6297683
vn 0.629768 0.4306629 -0.6464688
vn -0.01180901 0.4306629 -0.9024356
vn -0.6464682 0.430663 -0.6297683
vn 0.01180935 0.430663 0.9024356
vn -0.9024355 0.430663 0.01180873
vn -0.629768 0.430663 0.6464686
vn 0.01180935 0.430663 0.9024356
vn 0.6527852 0.7575169 -0.006295886
vn 0.4660414 0.7575167 0.4571366
vn 0.4571365 0.7575168 -0.4660413
vn -0.006296706 0.7575167 -0.6527854
vn -0.466041 0.7575167 -0.4571369
vn 0.00629716 0.757517 0.652785
vn -0.6527853 0.7575167 0.006296294
vn -0.4571368 0.757517 0.4660408
vn 0.00629716 0.757517 0.652785
vn 0 -1 0
vn 0.7171268 0 0.6969426
vn 0.717536 0 0.6965214
vn 0.9998896 0 -0.01485915
vn 0.9998982 0 -0.0142722
vn 0.6965211 0 -0.7175363
vn 0.6969424 0 -0.717127
vn -0.01485945 0 -0.9998896
vn -0.01427246 0 -0.9998982
vn -0.717536 0 -0.6965216
vn -0.717127 0 -0.6969424
vn 0.01427336 0 0.9998982
vn 0.0148604 0 0.9998896
vn -0.9998896 0 0.01485946
vn -0.9998982 0 0.01427239
vn -0.6965213 0 0.7175361
vn -0.6969423 0 0.7171272
vn 0.0148604 0 0.9998896
vn 0.01427336 0 0.9998982
g m_dlc08_firebreather_torch_02_0
f 3/3/3 2/2/2 1/1/1
f 4/4/4 3/3/3 1/1/1
f 5/5/5 3/3/3 4/4/4
f 6/6/6 5/5/5 4/4/4
f 7/7/7 5/5/5 6/6/6
f 8/8/8 7/7/7 6/6/6
f 9/9/9 7/7/7 8/8/8
f 10/10/10 9/9/9 8/8/8
f 11/11/11 9/9/9 10/10/10
f 12/12/12 11/11/11 10/10/10
f 13/13/13 11/11/11 12/12/12
f 14/14/14 13/13/13 12/12/12
f 15/15/15 13/13/13 14/14/14
f 16/16/16 15/15/15 14/14/14
f 17/17/17 15/15/15 16/16/16
f 18/18/18 17/17/17 16/16/16
f 5/5/5 19/19/19 3/3/3
f 20/20/20 19/19/19 5/5/5
f 7/7/7 20/20/20 5/5/5
f 21/21/21 20/20/20 7/7/7
f 9/9/9 21/21/21 7/7/7
f 22/22/22 21/21/21 9/9/9
f 11/11/11 22/22/22 9/9/9
f 23/23/23 22/22/22 11/11/11
f 13/13/13 23/23/23 11/11/11
f 24/24/24 23/23/23 13/13/13
f 15/15/15 24/24/24 13/13/13
f 25/25/25 24/24/24 15/15/15
f 17/17/17 25/25/25 15/15/15
f 20/20/20 26/26/26 19/19/19
f 26/26/26 27/27/27 19/19/19
f 19/19/19 27/27/27 28/28/28
f 19/19/19 28/28/28 3/3/3
f 3/3/3 28/28/28 2/2/2
f 28/28/28 29/29/29 2/2/2
f 28/28/28 30/30/30 29/29/29
f 27/27/27 30/30/30 28/28/28
f 30/30/30 31/31/31 29/29/29
f 32/32/32 26/26/26 20/20/20
f 21/21/21 32/32/32 20/20/20
f 33/33/33 32/32/32 21/21/21
f 22/22/22 33/33/33 21/21/21
f 34/34/34 33/33/33 22/22/22
f 23/23/23 34/34/34 22/22/22
f 35/35/35 34/34/34 23/23/23
f 24/24/24 35/35/35 23/23/23
f 36/36/36 35/35/35 24/24/24
f 25/25/25 36/36/36 24/24/24
f 27/27/27 37/37/37 30/30/30
f 37/37/37 38/38/38 30/30/30
f 30/30/30 38/38/38 31/31/31
f 39/39/39 37/37/37 27/27/27
f 26/26/26 39/39/39 27/27/27
f 40/40/40 39/39/39 26/26/26
f 32/32/32 40/40/40 26/26/26
f 41/41/41 40/40/40 32/32/32
f 33/33/33 41/41/41 32/32/32
f 38/38/38 42/42/42 31/31/31
f 43/43/43 41/41/41 33/33/33
f 34/34/34 43/43/43 33/33/33
f 44/44/44 43/43/43 34/34/34
f 35/35/35 44/44/44 34/34/34
f 45/45/45 44/44/44 35/35/35
f 36/36/36 45/45/45 35/35/35
f 37/37/37 46/46/46 38/38/38
f 46/46/46 47/47/47 38/38/38
f 38/38/38 47/47/47 42/42/42
f 48/48/48 46/46/46 37/37/37
f 39/39/39 48/48/48 37/37/37
f 49/49/49 48/48/48 39/39/39
f 40/40/40 49/49/49 39/39/39
f 50/50/50 49/49/49 40/40/40
f 41/41/41 50/50/50 40/40/40
f 47/47/47 51/51/51 42/42/42
f 52/52/52 50/50/50 41/41/41
f 43/43/43 52/52/52 41/41/41
f 53/53/53 52/52/52 43/43/43
f 44/44/44 53/53/53 43/43/43
f 54/54/54 53/53/53 44/44/44
f 45/45/45 54/54/54 44/44/44
f 1/1/1 55/55/55 4/4/4
f 4/4/4 55/55/55 6/6/6
f 6/6/6 55/55/55 8/8/8
f 8/8/8 55/55/55 10/10/10
f 10/10/10 55/55/55 12/12/12
f 12/12/12 55/55/55 14/14/14
f 14/14/14 55/55/55 16/16/16
f 16/16/16 55/55/55 18/18/18
f 58/58/58 57/57/57 56/56/56
f 59/59/59 58/58/58 56/56/56
f 60/60/60 58/58/58 59/59/59
f 61/61/61 60/60/60 59/59/59
f 62/62/62 60/60/60 61/61/61
f 63/63/63 62/62/62 61/61/61
f 64/64/64 62/62/62 63/63/63
f 65/65/65 64/64/64 63/63/63
f 56/56/56 57/57/57 66/66/66
f 57/57/57 67/67/67 66/66/66
f 68/68/68 64/64/64 65/65/65
f 69/69/69 68/68/68 65/65/65
f 70/70/70 68/68/68 69/69/69
f 71/71/71 70/70/70 69/69/69
f 72/72/72 70/70/70 71/71/71
f 73/73/73 72/72/72 71/71/71
