g m_dlc08_wagon_sign_candy_01
v 1.334622 5.191579 2.289642
v 1.132546 5.382902 2.288251
v 1.163095 5.427506 2.223407
v 1.380039 5.220728 2.224428
v 1.403938 4.980322 2.291289
v 1.457931 4.980788 2.225497
v 0.8352548 5.586219 2.222409
v 0.8169952 5.535155 2.287056
v 0.4274834 5.686722 2.221687
v 0.4189459 5.633069 2.286242
v -0.0224839 5.721189 2.221426
v -0.02248391 5.666831 2.285956
v -0.4724511 5.686722 2.221687
v -0.4639136 5.633069 2.286242
v -0.8802226 5.586219 2.222409
v -0.8619629 5.535155 2.287056
v -1.208062 5.427506 2.223407
v -1.177513 5.382902 2.288251
v -1.425006 5.220727 2.224428
v -1.379589 5.191579 2.289642
v -1.502899 4.980788 2.225498
v -1.448905 4.980322 2.291289
v -1.425437 4.740677 2.226876
v -1.37991 4.768937 2.293331
v -1.208584 4.533541 2.228573
v -1.177881 4.577374 2.295401
v -0.8806049 4.374585 2.230062
v -0.8622247 4.424972 2.297019
v -0.4726439 4.273967 2.23103
v -0.4640436 4.326991 2.298028
v -0.02248392 4.239466 2.231363
v -0.02248392 4.29321 2.29837
v 0.4276761 4.273967 2.23103
v 0.4190758 4.326991 2.298028
v 0.835637 4.374586 2.230063
v 0.8172565 4.424973 2.297019
v 1.163616 4.533542 2.228573
v 1.132913 4.577374 2.295401
v 1.380469 4.740676 2.226876
v 1.334941 4.768937 2.293331
v -0.02248391 4.980487 2.296879
v 1.457931 4.984206 2.036612
v 1.380038 4.744266 2.037682
v 1.163094 4.537488 2.038703
v 0.8352545 4.378776 2.0397
v 0.4274832 4.278273 2.040422
v -0.02248392 4.243806 2.040683
v -0.472451 4.278273 2.040422
v -0.8802224 4.378776 2.0397
v -1.208062 4.537488 2.038703
v -1.425006 4.744267 2.037682
v -1.502899 4.984206 2.036612
v -1.425437 5.224318 2.035233
v -1.208584 5.431453 2.033537
v -0.880605 5.590409 2.032047
v -0.4726441 5.691028 2.031079
v -0.02248391 5.725529 2.030746
v 0.4276763 5.691028 2.031079
v 0.8356373 5.590409 2.032047
v 1.163617 5.431453 2.033537
v 1.38047 5.224318 2.035233
v 1.38047 5.224318 2.035233
v 1.163617 5.431453 2.033537
v 1.132914 5.38762 1.966709
v 1.334942 5.196057 1.968778
v 1.457931 4.984206 2.036612
v 1.403938 4.984672 1.970821
v 0.8172569 5.540023 1.965091
v 0.8356373 5.590409 2.032047
v 0.4190761 5.638004 1.964082
v 0.4276763 5.691028 2.031079
v -0.02248391 5.671786 1.963739
v -0.02248391 5.725529 2.030746
v -0.4640438 5.638004 1.964082
v -0.4726441 5.691028 2.031079
v -0.8622249 5.540023 1.965091
v -0.880605 5.590409 2.032047
v -1.177881 5.38762 1.966709
v -1.208584 5.431453 2.033537
v -1.37991 5.196057 1.968778
v -1.425437 5.224318 2.035233
v -1.448905 4.984672 1.970821
v -1.502899 4.984206 2.036612
v -1.379589 4.773415 1.972467
v -1.425006 4.744267 2.037682
v -1.177513 4.582093 1.973858
v -1.208062 4.537488 2.038703
v -0.8619629 4.429839 1.975054
v -0.8802224 4.378776 2.0397
v -0.4639134 4.331926 1.975867
v -0.472451 4.278273 2.040422
v -0.02248392 4.298163 1.976154
v -0.02248392 4.243806 2.040683
v 0.4189457 4.331926 1.975867
v 0.4274832 4.278273 2.040422
v 0.8169948 4.42984 1.975054
v 0.8352545 4.378776 2.0397
v 1.132545 4.582093 1.973858
v 1.163094 4.537488 2.038703
v 1.334621 4.773415 1.972467
v 1.380038 4.744266 2.037682
v -0.0224838 4.984507 1.965231
vt 0.1126709 0.2200928
vt 0.105957 0.2270508
vt 0.1067505 0.2280273
vt 0.1137695 0.2205811
vt 0.1147461 0.2127686
vt 0.1159668 0.2127686
vt 0.09527588 0.2340088
vt 0.0947876 0.2329102
vt 0.08062744 0.2380371
vt 0.0803833 0.2368164
vt 0.06420898 0.239502
vt 0.06420898 0.2382813
vt 0.04776001 0.2385254
vt 0.04797363 0.2373047
vt 0.0329895 0.2349854
vt 0.03344727 0.2337646
vt 0.02137756 0.2293701
vt 0.02215576 0.2282715
vt 0.01412201 0.222168
vt 0.01522064 0.2215576
vt 0.01167297 0.2143555
vt 0.01290894 0.2143555
vt 0.01386261 0.206543
vt 0.01498413 0.2070313
vt 0.02088928 0.1990967
vt 0.021698 0.2000732
vt 0.03234863 0.1931152
vt 0.03283691 0.1942139
vt 0.04702759 0.1890869
vt 0.04727173 0.1903076
vt 0.06341553 0.1876221
vt 0.06347656 0.1888428
vt 0.07989502 0.1885986
vt 0.07965088 0.1898193
vt 0.09466553 0.1921387
vt 0.09417725 0.1933594
vt 0.1062622 0.1977539
vt 0.1054688 0.1988525
vt 0.1135254 0.2049561
vt 0.1124268 0.2055664
vt 0.06384277 0.213623
vt 0.1199341 0.2126465
vt 0.1170044 0.2030029
vt 0.1087646 0.194458
vt 0.09613037 0.1882324
vt 0.08050537 0.1844482
vt 0.06335449 0.1833496
vt 0.04626465 0.1850586
vt 0.03074646 0.189209
vt 0.01826477 0.1959229
vt 0.01023102 0.2047119
vt 0.007705688 0.2144775
vt 0.01063538 0.2241211
vt 0.01890564 0.232666
vt 0.03152466 0.2388916
vt 0.04711914 0.2426758
vt 0.06427002 0.2437744
vt 0.08135986 0.2421875
vt 0.09692383 0.237915
vt 0.109375 0.2313232
vt 0.1174316 0.2224121
vt 0.182251 0.2303467
vt 0.1773682 0.225708
vt 0.177002 0.2264404
vt 0.1815186 0.2307129
vt 0.18396 0.2354736
vt 0.1831055 0.2354736
vt 0.1696777 0.2229004
vt 0.1699219 0.222168
vt 0.1604004 0.2205811
vt 0.1605225 0.2198486
vt 0.1500244 0.2198486
vt 0.1500244 0.2191162
vt 0.1397705 0.2207031
vt 0.1396484 0.2199707
vt 0.1304932 0.2230225
vt 0.130249 0.22229
vt 0.12323 0.2266846
vt 0.1227417 0.2259521
vt 0.1187134 0.2310791
vt 0.117981 0.2305908
vt 0.1171875 0.2357178
vt 0.116333 0.2357178
vt 0.1187134 0.2404785
vt 0.118042 0.2408447
vt 0.123291 0.244873
vt 0.1228638 0.2454834
vt 0.1306152 0.248291
vt 0.1303711 0.2490234
vt 0.1398926 0.2504883
vt 0.1397705 0.2514648
vt 0.1501465 0.2512207
vt 0.1502686 0.2521973
vt 0.1605225 0.2504883
vt 0.1606445 0.2512207
vt 0.1697998 0.2481689
vt 0.1700439 0.2489014
vt 0.177002 0.2445068
vt 0.1774902 0.2452393
vt 0.1816406 0.2401123
vt 0.182251 0.2406006
vt 0.1501465 0.2355957
vn 0.1094437 0.07963873 0.9907975
vn 0.0808064 0.1274568 0.988547
vn 0.5447625 0.8126155 0.2070986
vn 0.8188523 0.5399995 0.1946315
vn 0.1272008 0.00805825 0.9918442
vn 0.9835154 -0.002062715 0.1808128
vn 0.3243472 0.9214029 0.2140457
vn 0.05375129 0.1597262 0.9856969
vn 0.1515624 0.9643224 0.2170509
vn 0.02704843 0.179204 0.98344
vn 0 0.9759756 0.2178795
vn 0 0.1857658 0.9825941
vn -0.1515627 0.9643226 0.2170495
vn -0.02704833 0.1792039 0.98344
vn -0.3243476 0.9214032 0.2140435
vn -0.05375119 0.159726 0.9856969
vn -0.5447631 0.8126153 0.2070976
vn -0.08080685 0.127456 0.988547
vn -0.8188524 0.5399998 0.1946305
vn -0.1094442 0.0796399 0.9907974
vn -0.9835153 -0.002062082 0.1808134
vn -0.1272001 0.008059349 0.9918444
vn -0.8207838 -0.5437439 0.17509
vn -0.1117547 -0.06464684 0.9916309
vn -0.5479565 -0.817405 0.1777433
vn -0.08388621 -0.1147057 0.9898514
vn -0.326997 -0.9275872 0.1807068
vn -0.05634314 -0.1492359 0.9871951
vn -0.1529624 -0.9713045 0.1821267
vn -0.02847439 -0.1702389 0.9849914
vn 1.416297E-07 -0.9832012 0.1825248
vn 0 -0.1773236 0.9841526
vn 0.1529631 -0.9713048 0.182124
vn 0.02847426 -0.1702382 0.9849915
vn 0.3269974 -0.9275876 0.1807036
vn 0.05634288 -0.1492354 0.9871952
vn 0.547956 -0.8174055 0.1777424
vn 0.0838863 -0.114706 0.9898514
vn 0.8207836 -0.5437444 0.1750897
vn 0.1117549 -0.06464691 0.9916307
vn 0 0.009016278 0.9999593
vn 0.9835153 0.002059984 -0.1808134
vn 0.8188514 -0.5400014 -0.1946298
vn 0.5447627 -0.8126162 -0.2070954
vn 0.3243472 -0.9214038 -0.2140425
vn 0.1515626 -0.964323 -0.2170484
vn 1.395609E-07 -0.9759763 -0.2178769
vn -0.1515619 -0.9643232 -0.2170477
vn -0.324347 -0.9214038 -0.2140428
vn -0.5447634 -0.8126155 -0.2070966
vn -0.818852 -0.5400004 -0.1946304
vn -0.9835153 0.002061722 -0.1808134
vn -0.8207839 0.5437438 -0.1750898
vn -0.5479569 0.8174052 -0.1777413
vn -0.3269979 0.9275872 -0.1807051
vn -0.1529633 0.9713044 -0.1821264
vn 0 0.9832013 -0.1825245
vn 0.152963 0.9713044 -0.1821267
vn 0.3269976 0.9275872 -0.180706
vn 0.5479563 0.8174054 -0.177742
vn 0.820784 0.5437435 -0.1750904
vn 0.820784 0.5437435 -0.1750904
vn 0.5479563 0.8174054 -0.177742
vn 0.0838865 0.1147054 -0.9898514
vn 0.1117545 0.06464689 -0.9916309
vn 0.9835153 0.002059984 -0.1808134
vn 0.1272003 -0.008058361 -0.9918444
vn 0.05634304 0.1492354 -0.9871952
vn 0.3269976 0.9275872 -0.180706
vn 0.02847426 0.1702377 -0.9849915
vn 0.152963 0.9713044 -0.1821267
vn 0 0.177323 -0.9841527
vn 0 0.9832013 -0.1825245
vn -0.02847434 0.1702379 -0.9849915
vn -0.1529633 0.9713044 -0.1821264
vn -0.05634338 0.1492361 -0.9871951
vn -0.3269979 0.9275872 -0.1807051
vn -0.08388658 0.1147062 -0.9898512
vn -0.5479569 0.8174052 -0.1777413
vn -0.1117548 0.06464697 -0.9916309
vn -0.8207839 0.5437438 -0.1750898
vn -0.1272002 -0.008058678 -0.9918444
vn -0.9835153 0.002061722 -0.1808134
vn -0.1094437 -0.07963905 -0.9907975
vn -0.818852 -0.5400004 -0.1946304
vn -0.08080643 -0.1274565 -0.988547
vn -0.5447634 -0.8126155 -0.2070966
vn -0.05375137 -0.1597262 -0.9856969
vn -0.324347 -0.9214038 -0.2140428
vn -0.02704837 -0.1792028 -0.9834403
vn -0.1515619 -0.9643232 -0.2170477
vn 0 -0.185766 -0.9825941
vn 1.395609E-07 -0.9759763 -0.2178769
vn 0.02704855 -0.1792033 -0.9834402
vn 0.1515626 -0.964323 -0.2170484
vn 0.05375139 -0.1597263 -0.9856969
vn 0.3243472 -0.9214038 -0.2140425
vn 0.08080644 -0.1274567 -0.988547
vn 0.5447627 -0.8126162 -0.2070954
vn 0.1094441 -0.07963946 -0.9907974
vn 0.8188514 -0.5400014 -0.1946298
vn 0 -0.009016163 -0.9999593
g m_dlc08_wagon_sign_candy_01_0
f 3/3/3 2/2/2 1/1/1
f 4/4/4 3/3/3 1/1/1
f 1/1/1 5/5/5 4/4/4
f 5/5/5 6/6/6 4/4/4
f 3/3/3 7/7/7 2/2/2
f 7/7/7 8/8/8 2/2/2
f 7/7/7 9/9/9 8/8/8
f 9/9/9 10/10/10 8/8/8
f 9/9/9 11/11/11 10/10/10
f 11/11/11 12/12/12 10/10/10
f 11/11/11 13/13/13 12/12/12
f 13/13/13 14/14/14 12/12/12
f 13/13/13 15/15/15 14/14/14
f 15/15/15 16/16/16 14/14/14
f 15/15/15 17/17/17 16/16/16
f 17/17/17 18/18/18 16/16/16
f 17/17/17 19/19/19 18/18/18
f 19/19/19 20/20/20 18/18/18
f 19/19/19 21/21/21 20/20/20
f 21/21/21 22/22/22 20/20/20
f 21/21/21 23/23/23 22/22/22
f 23/23/23 24/24/24 22/22/22
f 23/23/23 25/25/25 24/24/24
f 25/25/25 26/26/26 24/24/24
f 25/25/25 27/27/27 26/26/26
f 27/27/27 28/28/28 26/26/26
f 27/27/27 29/29/29 28/28/28
f 29/29/29 30/30/30 28/28/28
f 29/29/29 31/31/31 30/30/30
f 31/31/31 32/32/32 30/30/30
f 31/31/31 33/33/33 32/32/32
f 33/33/33 34/34/34 32/32/32
f 33/33/33 35/35/35 34/34/34
f 35/35/35 36/36/36 34/34/34
f 35/35/35 37/37/37 36/36/36
f 37/37/37 38/38/38 36/36/36
f 37/37/37 39/39/39 38/38/38
f 39/39/39 40/40/40 38/38/38
f 39/39/39 6/6/6 40/40/40
f 6/6/6 5/5/5 40/40/40
f 30/30/30 41/41/41 28/28/28
f 32/32/32 41/41/41 30/30/30
f 34/34/34 41/41/41 32/32/32
f 36/36/36 41/41/41 34/34/34
f 38/38/38 41/41/41 36/36/36
f 40/40/40 41/41/41 38/38/38
f 5/5/5 41/41/41 40/40/40
f 28/28/28 41/41/41 26/26/26
f 26/26/26 41/41/41 24/24/24
f 24/24/24 41/41/41 22/22/22
f 22/22/22 41/41/41 20/20/20
f 20/20/20 41/41/41 18/18/18
f 18/18/18 41/41/41 16/16/16
f 16/16/16 41/41/41 14/14/14
f 14/14/14 41/41/41 12/12/12
f 12/12/12 41/41/41 10/10/10
f 10/10/10 41/41/41 8/8/8
f 8/8/8 41/41/41 2/2/2
f 2/2/2 41/41/41 1/1/1
f 1/1/1 41/41/41 5/5/5
f 43/43/43 42/42/42 6/6/6
f 44/44/44 43/43/43 39/39/39
f 37/37/37 44/44/44 39/39/39
f 45/45/45 44/44/44 37/37/37
f 35/35/35 45/45/45 37/37/37
f 46/46/46 45/45/45 35/35/35
f 33/33/33 46/46/46 35/35/35
f 47/47/47 46/46/46 33/33/33
f 31/31/31 47/47/47 33/33/33
f 48/48/48 47/47/47 31/31/31
f 29/29/29 48/48/48 31/31/31
f 49/49/49 48/48/48 29/29/29
f 27/27/27 49/49/49 29/29/29
f 50/50/50 49/49/49 27/27/27
f 25/25/25 50/50/50 27/27/27
f 51/51/51 50/50/50 25/25/25
f 23/23/23 51/51/51 25/25/25
f 52/52/52 51/51/51 23/23/23
f 21/21/21 52/52/52 23/23/23
f 53/53/53 52/52/52 21/21/21
f 19/19/19 53/53/53 21/21/21
f 54/54/54 53/53/53 19/19/19
f 17/17/17 54/54/54 19/19/19
f 55/55/55 54/54/54 17/17/17
f 15/15/15 55/55/55 17/17/17
f 56/56/56 55/55/55 15/15/15
f 13/13/13 56/56/56 15/15/15
f 57/57/57 56/56/56 13/13/13
f 11/11/11 57/57/57 13/13/13
f 58/58/58 57/57/57 11/11/11
f 9/9/9 58/58/58 11/11/11
f 59/59/59 58/58/58 9/9/9
f 7/7/7 59/59/59 9/9/9
f 60/60/60 59/59/59 7/7/7
f 3/3/3 60/60/60 7/7/7
f 61/61/61 60/60/60 3/3/3
f 4/4/4 61/61/61 3/3/3
f 42/42/42 61/61/61 4/4/4
f 6/6/6 42/42/42 4/4/4
f 39/39/39 43/43/43 6/6/6
f 64/64/64 63/63/63 62/62/62
f 65/65/65 64/64/64 62/62/62
f 62/62/62 66/66/66 65/65/65
f 66/66/66 67/67/67 65/65/65
f 64/64/64 68/68/68 63/63/63
f 68/68/68 69/69/69 63/63/63
f 68/68/68 70/70/70 69/69/69
f 70/70/70 71/71/71 69/69/69
f 70/70/70 72/72/72 71/71/71
f 72/72/72 73/73/73 71/71/71
f 72/72/72 74/74/74 73/73/73
f 74/74/74 75/75/75 73/73/73
f 74/74/74 76/76/76 75/75/75
f 76/76/76 77/77/77 75/75/75
f 76/76/76 78/78/78 77/77/77
f 78/78/78 79/79/79 77/77/77
f 78/78/78 80/80/80 79/79/79
f 80/80/80 81/81/81 79/79/79
f 80/80/80 82/82/82 81/81/81
f 82/82/82 83/83/83 81/81/81
f 82/82/82 84/84/84 83/83/83
f 84/84/84 85/85/85 83/83/83
f 84/84/84 86/86/86 85/85/85
f 86/86/86 87/87/87 85/85/85
f 86/86/86 88/88/88 87/87/87
f 88/88/88 89/89/89 87/87/87
f 88/88/88 90/90/90 89/89/89
f 90/90/90 91/91/91 89/89/89
f 90/90/90 92/92/92 91/91/91
f 92/92/92 93/93/93 91/91/91
f 92/92/92 94/94/94 93/93/93
f 94/94/94 95/95/95 93/93/93
f 94/94/94 96/96/96 95/95/95
f 96/96/96 97/97/97 95/95/95
f 96/96/96 98/98/98 97/97/97
f 98/98/98 99/99/99 97/97/97
f 98/98/98 100/100/100 99/99/99
f 100/100/100 101/101/101 99/99/99
f 100/100/100 67/67/67 101/101/101
f 67/67/67 66/66/66 101/101/101
f 88/88/88 102/102/102 90/90/90
f 90/90/90 102/102/102 92/92/92
f 92/92/92 102/102/102 94/94/94
f 94/94/94 102/102/102 96/96/96
f 96/96/96 102/102/102 98/98/98
f 98/98/98 102/102/102 100/100/100
f 100/100/100 102/102/102 67/67/67
f 86/86/86 102/102/102 88/88/88
f 84/84/84 102/102/102 86/86/86
f 82/82/82 102/102/102 84/84/84
f 80/80/80 102/102/102 82/82/82
f 78/78/78 102/102/102 80/80/80
f 76/76/76 102/102/102 78/78/78
f 74/74/74 102/102/102 76/76/76
f 72/72/72 102/102/102 74/74/74
f 70/70/70 102/102/102 72/72/72
f 68/68/68 102/102/102 70/70/70
f 64/64/64 102/102/102 68/68/68
f 65/65/65 102/102/102 64/64/64
f 67/67/67 102/102/102 65/65/65
