g m_dlc08_right
v -0.1830981 -0.07218495 -0.06497741
v 0.1826733 -0.07227226 -0.1064899
v 0.1823608 -0.0350247 -0.14492
v -0.1840991 -0.03497386 -0.1029877
v -0.1829932 -0.07223666 0.06486633
v 0.1825562 -0.07232444 0.1063763
v -0.1840161 -0.03490786 0.1029694
v 0.1821533 -0.03496674 0.14492
v 0.2208374 -0.0349237 0.1104584
v 0.2209888 -0.03295664 -0.1084308
v 0.2209253 0.03312854 -0.1085309
v 0.1802099 0.03319015 -0.1448358
v 0.1823608 -0.0350247 -0.14492
v 0.2209058 0.03317854 0.108443
v 0.1827368 0.07228541 0.1065912
v 0.1827368 0.07228544 -0.1066779
v 0.1821533 -0.03496674 0.14492
v 0.1801367 0.0332289 0.1447552
v -0.1830005 0.07232444 -0.06500915
v -0.1840015 0.03496516 -0.1030829
v 0.1802099 0.03319015 -0.1448358
v -0.1831055 0.07227229 0.06494934
v -0.2209888 0.03512099 0.06152649
v -0.2208911 0.03675562 -0.063349
v 0.1801367 0.0332289 0.1447552
v -0.1840845 0.03503105 0.1029291
v -0.2209888 -0.03500907 -0.06161316
v -0.1840991 -0.03497386 -0.1029877
v -0.1840015 0.03496516 -0.1030829
v -0.2208911 -0.0366437 0.06326233
v -0.1829932 -0.07223666 0.06486633
v -0.1830981 -0.07218495 -0.06497741
v -0.1840845 0.03503105 0.1029291
v -0.1840161 -0.03490786 0.1029694
v 0.1801367 0.0332289 0.1447552
v 0.1821533 -0.03496674 0.14492
v 0.1823608 -0.0350247 -0.14492
v 0.1802099 0.03319015 -0.1448358
vt 0.4084473 0.9819336
vt 0.402832 0.7680664
vt 0.375 0.7680664
vt 0.375 0.9819336
vt 0.581543 0.9819336
vt 0.5908203 0.7680664
vt 0.625 0.9819336
vt 0.625 0.7680664
vt 0.597168 0.7104492
vt 0.404541 0.7080078
vt 0.404541 0.5419922
vt 0.378418 0.5419922
vt 0.3781738 0.7104492
vt 0.5957031 0.5419922
vt 0.597168 0.4819336
vt 0.4091797 0.4819336
vt 0.621582 0.7104492
vt 0.621582 0.5419922
vt 0.418457 0.2680664
vt 0.375 0.2678223
vt 0.375 0.480957
vt 0.5917969 0.2680664
vt 0.5820313 0.2105713
vt 0.4157715 0.2126465
vt 0.625 0.480957
vt 0.625 0.2678223
vt 0.4179688 0.03939819
vt 0.3571777 0.03939819
vt 0.3571777 0.2105713
vt 0.5839844 0.037323
vt 0.5864258 0
vt 0.4133301 0
vt 0.6430664 0.2105713
vt 0.6430664 0.03939819
vt 0.855957 0.2081299
vt 0.8569336 0.03939819
vt 0.1428223 0.03939819
vt 0.1439209 0.2081299
vn -0.07463939 -0.9848605 -0.1564565
vn 0.08747658 -0.9802279 -0.1774859
vn -0.03244882 -0.3211629 -0.9464679
vn -0.1723601 -0.3305646 -0.9279111
vn -0.07501977 -0.9850028 0.1553752
vn 0.08899744 -0.9803841 0.1758596
vn -0.1724915 -0.3283978 0.9286558
vn -0.03340727 -0.3192035 0.9470971
vn 0.9420625 -0.3130024 0.1206138
vn 0.9430529 -0.3109134 -0.1182534
vn 0.9424733 0.3131764 -0.1168954
vn -0.03558853 0.314764 -0.9485026
vn -0.03244882 -0.3211629 -0.9464679
vn 0.9428914 0.3120734 0.1164735
vn 0.09013572 0.9799696 0.1775813
vn 0.09006551 0.9799362 -0.1778012
vn -0.03340727 -0.3192035 0.9470971
vn -0.03620619 0.316321 0.9479611
vn -0.07464812 0.9845449 -0.1584267
vn -0.1714476 0.32489 -0.9300818
vn -0.03558853 0.314764 -0.9485026
vn -0.07429358 0.9844261 0.1593287
vn -0.9398873 0.2984191 0.1660055
vn -0.9383836 0.3016813 -0.168596
vn -0.03620619 0.316321 0.9479611
vn -0.1715474 0.3275644 0.9291249
vn -0.9399251 -0.2982587 -0.16608
vn -0.1723601 -0.3305646 -0.9279111
vn -0.1714476 0.32489 -0.9300818
vn -0.9384226 -0.3015188 0.16867
vn -0.07501977 -0.9850028 0.1553752
vn -0.07463939 -0.9848605 -0.1564565
vn -0.1715474 0.3275644 0.9291249
vn -0.1724915 -0.3283978 0.9286558
vn -0.03620619 0.316321 0.9479611
vn -0.03340727 -0.3192035 0.9470971
vn -0.03244882 -0.3211629 -0.9464679
vn -0.03558853 0.314764 -0.9485026
g m_dlc08_right_0
f 3/3/3 2/2/2 1/1/1
f 4/4/4 3/3/3 1/1/1
f 5/5/5 1/1/1 2/2/2
f 6/6/6 5/5/5 2/2/2
f 5/5/5 6/6/6 7/7/7
f 6/6/6 8/8/8 7/7/7
f 9/9/9 6/6/6 2/2/2
f 10/10/10 9/9/9 2/2/2
f 9/9/9 10/10/10 11/11/11
f 11/11/11 10/10/10 12/12/12
f 10/10/10 13/13/13 12/12/12
f 10/10/10 2/2/2 13/13/13
f 14/14/14 9/9/9 11/11/11
f 15/15/15 14/14/14 11/11/11
f 16/16/16 15/15/15 11/11/11
f 17/17/17 9/9/9 14/14/14
f 9/9/9 17/17/17 6/6/6
f 18/18/18 17/17/17 14/14/14
f 15/15/15 16/16/16 19/19/19
f 19/19/19 16/16/16 20/20/20
f 16/16/16 21/21/21 20/20/20
f 16/16/16 11/11/11 21/21/21
f 22/22/22 15/15/15 19/19/19
f 23/23/23 22/22/22 19/19/19
f 24/24/24 23/23/23 19/19/19
f 25/25/25 15/15/15 22/22/22
f 15/15/15 25/25/25 14/14/14
f 26/26/26 25/25/25 22/22/22
f 23/23/23 24/24/24 27/27/27
f 27/27/27 24/24/24 28/28/28
f 24/24/24 29/29/29 28/28/28
f 24/24/24 19/19/19 29/29/29
f 30/30/30 23/23/23 27/27/27
f 31/31/31 30/30/30 27/27/27
f 32/32/32 31/31/31 27/27/27
f 27/27/27 28/28/28 32/32/32
f 33/33/33 23/23/23 30/30/30
f 23/23/23 33/33/33 22/22/22
f 34/34/34 33/33/33 30/30/30
f 30/30/30 31/31/31 34/34/34
f 35/35/35 33/33/33 34/34/34
f 36/36/36 35/35/35 34/34/34
f 28/28/28 29/29/29 37/37/37
f 29/29/29 38/38/38 37/37/37
