g m_dlc08_hoop_standing_01
v 0.4375531 -2.861023E-08 -0.317417
v 0.0006665039 -2.861023E-08 -1.220703E-06
v 0.5142572 -2.861023E-08 -0.1668762
v 0.3180829 -2.861023E-08 -0.4368872
v 0.1675421 -2.861023E-08 -0.5135913
v 0.0006665039 -2.861023E-08 -0.540022
v -0.1662091 -2.861023E-08 -0.5135913
v -0.3167499 -2.861023E-08 -0.4368872
v -0.4362195 -2.861023E-08 -0.317417
v -0.5129242 -2.861023E-08 -0.1668762
v -0.5393543 -2.861023E-08 -1.220703E-06
v -0.5129242 -2.861023E-08 0.166875
v -0.4362195 -2.861023E-08 0.3174158
v -0.3167499 -2.861023E-08 0.436886
v -0.1662091 -2.861023E-08 0.5135901
v 0.0006665039 -2.861023E-08 0.5400208
v 0.1675421 -2.861023E-08 0.5135901
v 0.3180829 -2.861023E-08 0.436886
v 0.4375525 -2.861023E-08 0.3174158
v 0.5142572 -2.861023E-08 0.166875
v 0.5406879 -2.861023E-08 -1.220703E-06
v 0.5142572 0.1168519 -0.1668762
v 0.5406879 0.1168519 -1.220703E-06
v 0.4899915 0.1669241 -1.220703E-06
v 0.4660425 0.1669241 -0.1512109
v 0.4375531 0.1168519 -0.317417
v 0.3965387 0.1669241 -0.2876184
v 0.3180829 0.1168519 -0.4368872
v 0.2882843 0.1669241 -0.3958728
v 0.1675421 0.1168519 -0.5135913
v 0.1518762 0.1669241 -0.465376
v 0.0006665039 0.1168519 -0.540022
v 0.0006665039 0.1669241 -0.4893249
v -0.1662091 0.1168519 -0.5135913
v -0.1505432 0.1669241 -0.465376
v 0.4660419 0.1669241 0.1512085
v 0.5142572 0.1168519 0.166875
v 0.3965387 0.1669241 0.2876172
v 0.4375525 0.1168519 0.3174158
v 0.2882843 0.1669241 0.3958716
v 0.3180829 0.1168519 0.436886
v 0.1518762 0.1669241 0.4653747
v 0.1675421 0.1168519 0.5135901
v 0.0006665039 0.1669241 0.4893237
v 0.0006665039 0.1168519 0.5400208
v -0.1505432 0.1669241 0.4653747
v -0.1662091 0.1168519 0.5135901
v -0.2869513 0.1669241 0.3958716
v -0.3167499 0.1168519 0.436886
v -0.3952051 0.1669241 0.2876172
v -0.4362195 0.1168519 0.3174158
v -0.4647089 0.1669241 0.1512085
v -0.5129242 0.1168519 0.166875
v -0.4886578 0.1669241 -1.220703E-06
v -0.5393543 0.1168519 -1.220703E-06
v -0.4647089 0.1669241 -0.1512109
v -0.5129242 0.1168519 -0.1668762
v -0.3952057 0.1669241 -0.2876184
v -0.4362195 0.1168519 -0.317417
v -0.2869513 0.1669241 -0.3958728
v -0.3167499 0.1168519 -0.4368872
v -0.1505432 0.1669241 -0.465376
v -0.1662091 0.1168519 -0.5135913
v -0.1662091 -2.861023E-08 -0.5135913
v -0.3167499 -2.861023E-08 -0.4368872
v -0.4362195 -2.861023E-08 -0.317417
v -0.5129242 -2.861023E-08 -0.1668762
v -0.5393543 -2.861023E-08 -1.220703E-06
v -0.5129242 -2.861023E-08 0.166875
v -0.181593 0.1669241 -0.2508594
v -0.09515259 0.1669241 -0.2949023
v -0.2501917 0.1669241 -0.1822607
v -0.2942346 0.1669241 -0.09582031
v -0.309411 0.1669241 -1.220703E-06
v -0.2942346 0.1669241 0.09581909
v -0.2501917 0.1669241 0.1822595
v -0.181593 0.1669241 0.2508582
v -0.09515259 0.1669241 0.2949011
v 0.0006665039 0.1669241 0.3100769
v 0.0964862 0.1669241 0.2949011
v 0.1829266 0.1669241 0.2508582
v 0.2515253 0.1669241 0.1822595
v 0.2955682 0.1669241 0.09581909
v 0.310744 0.1669241 -1.220703E-06
v 0.2955682 0.1669241 -0.09582031
v 0.2515253 0.1669241 -0.1822607
v 0.1829266 0.1669241 -0.2508594
v 0.0964862 0.1669241 -0.2949023
v 0.0006665039 0.1669241 -0.3100793
v -0.09515259 0.1669241 -0.2949023
v 0.04544983 0.1669241 -0.08789306
v 0.08855896 0.1669241 -0.04478393
v -0.0147644 0.1669241 -0.09743042
v 0.04045288 0.1764672 -0.07808594
v 0.07875183 0.1764672 -0.0397876
v -0.0130426 0.1764672 -0.08655883
v 0.09809631 0.1669241 0.01543091
v 0.07041809 0.1669241 0.06975097
v 0.01609802 0.1669241 0.09742919
v -0.04411682 0.1669241 0.08789185
v -0.08722534 0.1669241 0.04478271
v -0.09676269 0.1669241 -0.01543213
v -0.06908508 0.1669241 -0.06975219
v -0.0147644 0.1669241 -0.09743042
v -0.06130188 0.1764672 -0.06196899
v -0.0130426 0.1764672 -0.08655883
v -0.08589111 0.1764672 -0.01370972
v -0.07741821 0.1764672 0.03978515
v -0.03911987 0.1764672 0.07808471
v 0.01437622 0.1764672 0.0865564
v 0.06263489 0.1764672 0.06196777
v 0.08722473 0.1764672 0.0137085
v 0.5142572 -2.861023E-08 -0.1668762
v 0.4375531 -2.861023E-08 -0.317417
v 0.3180829 -2.861023E-08 -0.4368872
v 0.1675421 -2.861023E-08 -0.5135913
v 0.0006665039 -2.861023E-08 -0.540022
v -0.1662091 -2.861023E-08 -0.5135913
v 0.5406879 -2.861023E-08 -1.220703E-06
v 0.5142572 -2.861023E-08 0.166875
v 0.4375525 -2.861023E-08 0.3174158
v 0.3180829 -2.861023E-08 0.436886
v 0.1675421 -2.861023E-08 0.5135901
v 0.0006665039 -2.861023E-08 0.5400208
v -0.1662091 -2.861023E-08 0.5135901
v -0.3167499 -2.861023E-08 0.436886
v -0.4362195 -2.861023E-08 0.3174158
v 0.07875183 0.1764672 -0.0397876
v 0.07875183 1.448525 -0.0397876
v 0.04045288 1.448525 -0.07808594
v 0.04045288 0.1764672 -0.07808594
v -0.0130426 1.448525 -0.08655883
v -0.0130426 0.1764672 -0.08655883
v 0.08722473 0.1764672 0.0137085
v 0.08722473 1.448525 0.0137085
v 0.06263489 0.1764672 0.06196777
v 0.06263489 1.448525 0.06196777
v 0.01437622 0.1764672 0.0865564
v 0.01437622 1.448525 0.0865564
v -0.03911987 0.1764672 0.07808471
v -0.03911987 1.448525 0.07808471
v -0.07741821 0.1764672 0.03978515
v -0.07741821 1.448525 0.03978515
v -0.08589111 0.1764672 -0.01370972
v -0.08589111 1.448525 -0.01370972
v -0.06130188 0.1764672 -0.06196899
v -0.06130188 1.448525 -0.06196899
v -0.0130426 0.1764672 -0.08655883
v -0.0130426 1.448525 -0.08655883
v -0.08434387 1.622315 -0.08858764
v -0.08434387 1.658961 -0.0001159668
v -0.1057257 1.635818 -0.0001159668
v -0.1057257 1.60595 -0.0722229
v -0.08434387 1.533842 -0.1252344
v -0.1057257 1.533842 -0.1020911
v -0.1057257 1.60595 0.07199219
v -0.08434387 1.622315 0.08835693
v -0.1057257 1.533842 0.1018591
v -0.08434387 1.533842 0.1250037
v -0.1057257 1.461735 0.07199219
v -0.08434387 1.44537 0.08835693
v -0.1057257 1.431867 -0.0001159668
v -0.08434387 1.408724 -0.0001159668
v -0.08434387 1.44537 -0.08858764
v -0.1057257 1.461735 -0.0722229
v -0.08434387 1.408724 -0.0001159668
v -0.1057257 1.431867 -0.0001159668
v 0.08673278 1.533842 0.1250037
v 0.08673278 1.622315 0.08835693
v 0.108114 1.60595 0.07199219
v 0.108114 1.635818 -0.0001159668
v 0.08673278 1.658961 -0.0001159668
v 0.108114 1.60595 -0.0722229
v 0.08673278 1.622315 -0.08858764
v 0.108114 1.533842 -0.1020911
v 0.08673278 1.533842 -0.1252344
v 0.108114 1.533842 0.1018591
v 0.08673278 1.44537 0.08835693
v 0.108114 1.461735 0.07199219
v 0.08673278 1.408724 -0.0001159668
v 0.108114 1.431867 -0.0001159668
v 0.108114 1.461735 -0.0722229
v 0.08673278 1.44537 -0.08858764
v 0.108114 1.431867 -0.0001159668
v 0.08673278 1.408724 -0.0001159668
v -0.1057257 1.635818 -0.0001159668
v -0.1057257 1.533842 -0.0001159668
v -0.1057257 1.60595 -0.0722229
v -0.1057257 1.60595 0.07199219
v -0.1057257 1.533842 0.1018591
v -0.1057257 1.461735 0.07199219
v -0.1057257 1.431867 -0.0001159668
v -0.1057257 1.533842 -0.1020911
v -0.1057257 1.461735 -0.0722229
v -0.1057257 1.431867 -0.0001159668
v 0.108114 1.60595 -0.0722229
v 0.108114 1.533842 -0.0001159668
v 0.108114 1.635818 -0.0001159668
v 0.108114 1.60595 0.07199219
v 0.108114 1.533842 0.1018591
v 0.108114 1.461735 0.07199219
v 0.108114 1.431867 -0.0001159668
v 0.108114 1.461735 -0.0722229
v 0.108114 1.533842 -0.1020911
vt 0.4777832 0.8710938
vt 0.4689941 0.8613281
vt 0.4743652 0.8730469
vt 0.4802246 0.8676758
vt 0.4816895 0.8637695
vt 0.4816895 0.8598633
vt 0.4807129 0.855957
vt 0.4785156 0.8525391
vt 0.4753418 0.8500977
vt 0.4716797 0.8486328
vt 0.4675293 0.8486328
vt 0.463623 0.8496094
vt 0.4604492 0.8520508
vt 0.4577637 0.8549805
vt 0.456543 0.8588867
vt 0.4562988 0.862793
vt 0.4572754 0.8666992
vt 0.4594727 0.8701172
vt 0.4626465 0.8725586
vt 0.4665527 0.8740234
vt 0.470459 0.8740234
vt 0.4648438 0.8164063
vt 0.4611816 0.8178711
vt 0.4619141 0.8193359
vt 0.4650879 0.8183594
vt 0.46875 0.8164063
vt 0.4685059 0.8178711
vt 0.4724121 0.8173828
vt 0.4719238 0.8188477
vt 0.4758301 0.8188477
vt 0.4748535 0.8203125
vt 0.4787598 0.8212891
vt 0.4775391 0.8227539
vt 0.480957 0.824707
vt 0.4794922 0.8256836
vt 0.4592285 0.8212891
vt 0.4580078 0.8198242
vt 0.4567871 0.8237305
vt 0.4555664 0.8227539
vt 0.4555664 0.8266602
vt 0.4538574 0.8261719
vt 0.454834 0.8300781
vt 0.453125 0.8300781
vt 0.4550781 0.8334961
vt 0.4536133 0.8339844
vt 0.4562988 0.8364258
vt 0.454834 0.8374023
vt 0.4584961 0.8393555
vt 0.4572754 0.840332
vt 0.4609375 0.8413086
vt 0.4602051 0.8427734
vt 0.4641113 0.8427734
vt 0.463623 0.8442383
vt 0.4675293 0.8432617
vt 0.4675293 0.8447266
vt 0.4709473 0.8427734
vt 0.4711914 0.8442383
vt 0.473877 0.8413086
vt 0.4748535 0.8427734
vt 0.4768066 0.8393555
vt 0.4777832 0.8408203
vt 0.479248 0.8369141
vt 0.4807129 0.8378906
vt 0.4824219 0.8398438
vt 0.4794922 0.8427734
vt 0.4760742 0.8452148
vt 0.4719238 0.847168
vt 0.4675293 0.8476563
vt 0.4628906 0.847168
vt 0.4736328 0.8364258
vt 0.4750977 0.8344727
vt 0.4719238 0.8378906
vt 0.4697266 0.8383789
vt 0.4675293 0.8388672
vt 0.465332 0.8383789
vt 0.4633789 0.8378906
vt 0.4614258 0.8364258
vt 0.4602051 0.8344727
vt 0.4594727 0.8325195
vt 0.4592285 0.8300781
vt 0.4594727 0.828125
vt 0.4604492 0.8261719
vt 0.4619141 0.8242188
vt 0.4638672 0.8232422
vt 0.4660645 0.8222656
vt 0.4682617 0.8222656
vt 0.470459 0.8227539
vt 0.4724121 0.8237305
vt 0.4741211 0.8256836
vt 0.4753418 0.8276367
vt 0.46875 0.8276367
vt 0.4672852 0.8276367
vt 0.4699707 0.8286133
vt 0.46875 0.828125
vt 0.4672852 0.8276367
vt 0.4697266 0.8291016
vt 0.4658203 0.828125
vt 0.4648438 0.8291016
vt 0.4645996 0.8310547
vt 0.4650879 0.8325195
vt 0.4663086 0.8334961
vt 0.4680176 0.8334961
vt 0.4694824 0.8330078
vt 0.4702148 0.8320313
vt 0.4692383 0.8330078
vt 0.4699707 0.831543
vt 0.4677734 0.8334961
vt 0.4665527 0.8330078
vt 0.465332 0.8320313
vt 0.4648438 0.8310547
vt 0.4650879 0.8295898
vt 0.4660645 0.828125
vt 0.4643555 0.8139648
vt 0.46875 0.8134766
vt 0.4731445 0.8144531
vt 0.4772949 0.8164063
vt 0.4807129 0.8193359
vt 0.4831543 0.8227539
vt 0.4599609 0.8154297
vt 0.4560547 0.8178711
vt 0.453125 0.8212891
vt 0.4511719 0.8251953
vt 0.4504395 0.8300781
vt 0.4509277 0.8344727
vt 0.4523926 0.8388672
vt 0.4550781 0.8422852
vt 0.4587402 0.8452148
vt 0.46875 0.8774414
vt 0.46875 0.9072266
vt 0.4697266 0.9072266
vt 0.4697266 0.8774414
vt 0.4709473 0.9072266
vt 0.4709473 0.8774414
vt 0.4677734 0.8774414
vt 0.4677734 0.9072266
vt 0.4665527 0.8774414
vt 0.4665527 0.9072266
vt 0.4655762 0.8774414
vt 0.4655762 0.9072266
vt 0.4645996 0.8774414
vt 0.4645996 0.9072266
vt 0.4633789 0.8774414
vt 0.4633789 0.9072266
vt 0.4624023 0.8774414
vt 0.4624023 0.9072266
vt 0.4611816 0.8774414
vt 0.4611816 0.9072266
vt 0.4602051 0.8774414
vt 0.4602051 0.9072266
vt 0.4807129 0.8955078
vt 0.4804688 0.8974609
vt 0.4812012 0.8974609
vt 0.4814453 0.8955078
vt 0.4807129 0.8930664
vt 0.4814453 0.8930664
vt 0.4812012 0.8999023
vt 0.4804688 0.8999023
vt 0.4812012 0.9018555
vt 0.4804688 0.9018555
vt 0.480957 0.9042969
vt 0.4802246 0.9042969
vt 0.4812012 0.90625
vt 0.4804688 0.9067383
vt 0.480957 0.8911133
vt 0.4814453 0.8911133
vt 0.4812012 0.8886719
vt 0.4819336 0.8891602
vt 0.4763184 0.9018555
vt 0.4763184 0.8999023
vt 0.4755859 0.8994141
vt 0.4758301 0.8974609
vt 0.4765625 0.8974609
vt 0.4758301 0.8950195
vt 0.4765625 0.8955078
vt 0.4760742 0.8930664
vt 0.4768066 0.8930664
vt 0.4755859 0.9018555
vt 0.4763184 0.9042969
vt 0.4755859 0.9038086
vt 0.4760742 0.90625
vt 0.4753418 0.9057617
vt 0.4760742 0.8911133
vt 0.4768066 0.890625
vt 0.4760742 0.8886719
vt 0.4768066 0.8886719
vt 0.4775391 0.8769531
vt 0.4799805 0.8779297
vt 0.4790039 0.8754883
vt 0.4775391 0.8789063
vt 0.4787598 0.8798828
vt 0.4804688 0.8803711
vt 0.4819336 0.8793945
vt 0.4807129 0.8754883
vt 0.4821777 0.8769531
vt 0.4821777 0.8789063
vt 0.4777832 0.8823242
vt 0.4799805 0.8833008
vt 0.4790039 0.8808594
vt 0.480957 0.8808594
vt 0.4821777 0.8823242
vt 0.4821777 0.8842773
vt 0.4807129 0.8852539
vt 0.4787598 0.8852539
vt 0.4775391 0.8837891
vn 0 -1 0
vn 0 -1 0
vn 0 -1 0
vn 0 -1 0
vn 0 -1 0
vn 0 -1 0
vn 0 -1 0
vn 0 -1 0
vn 0 -1 0
vn 0 -1 0
vn 0 -1 0
vn 0 -1 0
vn 0 -1 0
vn 0 -1 0
vn 0 -1 0
vn 0 -1 0
vn 0 -1 0
vn 0 -1 0
vn 0 -1 0
vn 0 -1 0
vn 0 -1 0
vn 0.9161953 0.2682665 -0.2976901
vn 0.9633446 0.2682673 2.739768E-07
vn 0 1 0
vn 0 1 0
vn 0.7793621 0.2682669 -0.5662397
vn 0 1 0
vn 0.5662394 0.2682681 -0.7793621
vn 0 1 0
vn 0.2976893 0.2682689 -0.9161948
vn 0 1 0
vn 0 0.2682694 -0.9633439
vn 0 1 0
vn -0.2976893 0.2682689 -0.9161948
vn 0 1 0
vn 0 1 0
vn 0.9161947 0.2682679 0.2976907
vn 0 1 0
vn 0.7793623 0.2682676 0.5662394
vn 0 1 0
vn 0.5662401 0.2682675 0.7793617
vn 0 1 0
vn 0.2976893 0.2682689 0.9161948
vn 0 1 0
vn 0 0.2682694 0.9633439
vn 0 1 0
vn -0.2976893 0.2682689 0.9161948
vn 0 1 0
vn -0.5662401 0.268268 0.7793616
vn 0 1 0
vn -0.7793621 0.2682687 0.5662391
vn 0 1 0
vn -0.916195 0.2682683 0.2976892
vn 0 1 0
vn -0.9633443 0.2682681 0
vn 0 1 0
vn -0.9161953 0.2682668 -0.2976898
vn 0 1 0
vn -0.7793623 0.2682666 -0.5662397
vn 0 1 0
vn -0.5662401 0.2682675 -0.7793617
vn 0 1 0
vn -0.2976893 0.2682689 -0.9161948
vn -0.3090168 0 -0.9510565
vn -0.5877858 0 -0.8090166
vn -0.8090172 0 -0.5877849
vn -0.9510565 0 -0.3090174
vn -1 0 0
vn -0.9510568 0 0.3090162
vn 0 1 0
vn 0 1 0
vn 0 1 0
vn 0 1 0
vn 0 1 0
vn 0 1 0
vn 0 1 0
vn 0 1 0
vn 0 1 0
vn 0 1 0
vn 0 1 0
vn 0 1 0
vn 0 1 0
vn 0 1 0
vn 0 1 0
vn 0 1 0
vn 0 1 0
vn 0 1 0
vn 0 1 0
vn 0 1 0
vn 0 1 0
vn 0 1 0
vn 0 1 0
vn 0 1 0
vn 0.4539629 0.01047902 -0.890959
vn 0.8909565 0.01047902 -0.4539675
vn -0.1564313 0.01047935 -0.9876332
vn 0 1 0
vn 0 1 0
vn 0 1 0
vn 0 1 0
vn 0 1 0
vn 0 1 0
vn 0 1 0
vn 0 1 0
vn -0.7070709 0.01047941 -0.7070649
vn -0.1564313 0.01047935 -0.9876332
vn -0.9876341 0.01047943 -0.1564264
vn -0.8909591 0.01047924 0.4539627
vn -0.4539629 0.01047969 0.890959
vn 0.1564313 0.01047988 0.9876332
vn 0.7070649 0.01047973 0.7070709
vn 0.9876335 0.01047935 0.1564303
vn 0.9510565 0 -0.3090174
vn 0.8090172 0 -0.587785
vn 0.5877849 0 -0.8090173
vn 0.3090168 0 -0.9510565
vn 0 0 -1
vn -0.3090168 0 -0.9510565
vn 1 0 0
vn 0.9510562 0 0.3090179
vn 0.8090173 0 0.5877849
vn 0.5877858 0 0.8090166
vn 0.3090168 0 0.9510565
vn 0 0 1
vn -0.3090168 0 0.9510565
vn -0.5877858 0 0.8090166
vn -0.8090173 0 0.5877849
vn 0.8909565 0.01047902 -0.4539675
vn 0.8910059 0 -0.4539918
vn 0.4539882 0 -0.8910077
vn 0.4539629 0.01047902 -0.890959
vn -0.1564405 0 -0.9876874
vn -0.1564313 0.01047935 -0.9876332
vn 0.9876335 0.01047935 0.1564303
vn 0.9876876 0 0.156439
vn 0.7070649 0.01047973 0.7070709
vn 0.7071038 0 0.7071097
vn 0.1564313 0.01047988 0.9876332
vn 0.1564399 0 0.9876875
vn -0.4539629 0.01047969 0.890959
vn -0.4539877 0 0.891008
vn -0.8909591 0.01047924 0.4539627
vn -0.891008 0 0.4539877
vn -0.9876341 0.01047943 -0.1564264
vn -0.9876882 0 -0.156435
vn -0.7070709 0.01047941 -0.7070649
vn -0.7071102 0 -0.7071033
vn -0.1564313 0.01047935 -0.9876332
vn -0.1564405 0 -0.9876874
vn -0.09157522 0.7041343 -0.7041371
vn -0.09157547 0.9957982 0
vn -1 0 0
vn -1 0 0
vn -0.09157498 0 -0.9957982
vn -1 0 0
vn -1 0 0
vn -0.09157635 0.7041374 0.7041336
vn -1 0 0
vn -0.09157667 0 0.9957981
vn -1 0 0
vn -0.09157652 -0.7041377 0.7041333
vn -1 0 0
vn -0.09157565 -0.9957981 0
vn -0.0915754 -0.7041346 -0.7041367
vn -1 0 0
vn -0.09157565 -0.9957981 0
vn -1 0 0
vn 0.09157667 0 0.9957981
vn 0.09157631 0.7041374 0.7041336
vn 1 0 0
vn 1 0 0
vn 0.09157544 0.9957982 0
vn 1 0 0
vn 0.09157518 0.7041343 -0.7041371
vn 1 0 0
vn 0.09157493 0 -0.9957982
vn 1 0 0
vn 0.09157649 -0.7041377 0.7041333
vn 1 0 0
vn 0.09157564 -0.9957981 0
vn 1 0 0
vn 1 0 0
vn 0.09157538 -0.7041347 -0.7041367
vn 1 0 0
vn 0.09157564 -0.9957981 0
vn -1 0 0
vn -1 0 0
vn -1 0 0
vn -1 0 0
vn -1 0 0
vn -1 0 0
vn -1 0 0
vn -1 0 0
vn -1 0 0
vn -1 0 0
vn 1 0 0
vn 1 0 0
vn 1 0 0
vn 1 0 0
vn 1 0 0
vn 1 0 0
vn 1 0 0
vn 1 0 0
vn 1 0 0
g m_dlc08_hoop_standing_01_0
f 3/3/3 2/2/2 1/1/1
f 1/1/1 2/2/2 4/4/4
f 4/4/4 2/2/2 5/5/5
f 5/5/5 2/2/2 6/6/6
f 6/6/6 2/2/2 7/7/7
f 7/7/7 2/2/2 8/8/8
f 8/8/8 2/2/2 9/9/9
f 9/9/9 2/2/2 10/10/10
f 10/10/10 2/2/2 11/11/11
f 11/11/11 2/2/2 12/12/12
f 12/12/12 2/2/2 13/13/13
f 13/13/13 2/2/2 14/14/14
f 14/14/14 2/2/2 15/15/15
f 15/15/15 2/2/2 16/16/16
f 16/16/16 2/2/2 17/17/17
f 17/17/17 2/2/2 18/18/18
f 18/18/18 2/2/2 19/19/19
f 19/19/19 2/2/2 20/20/20
f 20/20/20 2/2/2 21/21/21
f 21/21/21 2/2/2 3/3/3
f 24/24/24 23/23/23 22/22/22
f 25/25/25 24/24/24 22/22/22
f 22/22/22 26/26/26 25/25/25
f 26/26/26 27/27/27 25/25/25
f 26/26/26 28/28/28 27/27/27
f 28/28/28 29/29/29 27/27/27
f 28/28/28 30/30/30 29/29/29
f 30/30/30 31/31/31 29/29/29
f 30/30/30 32/32/32 31/31/31
f 32/32/32 33/33/33 31/31/31
f 32/32/32 34/34/34 33/33/33
f 34/34/34 35/35/35 33/33/33
f 23/23/23 24/24/24 36/36/36
f 37/37/37 23/23/23 36/36/36
f 37/37/37 36/36/36 38/38/38
f 39/39/39 37/37/37 38/38/38
f 39/39/39 38/38/38 40/40/40
f 41/41/41 39/39/39 40/40/40
f 41/41/41 40/40/40 42/42/42
f 43/43/43 41/41/41 42/42/42
f 43/43/43 42/42/42 44/44/44
f 45/45/45 43/43/43 44/44/44
f 45/45/45 44/44/44 46/46/46
f 47/47/47 45/45/45 46/46/46
f 47/47/47 46/46/46 48/48/48
f 49/49/49 47/47/47 48/48/48
f 49/49/49 48/48/48 50/50/50
f 51/51/51 49/49/49 50/50/50
f 51/51/51 50/50/50 52/52/52
f 53/53/53 51/51/51 52/52/52
f 53/53/53 52/52/52 54/54/54
f 55/55/55 53/53/53 54/54/54
f 55/55/55 54/54/54 56/56/56
f 57/57/57 55/55/55 56/56/56
f 57/57/57 56/56/56 58/58/58
f 59/59/59 57/57/57 58/58/58
f 59/59/59 58/58/58 60/60/60
f 61/61/61 59/59/59 60/60/60
f 61/61/61 60/60/60 62/62/62
f 63/63/63 61/61/61 62/62/62
f 61/61/61 63/63/63 64/64/64
f 65/65/65 61/61/61 64/64/64
f 59/59/59 61/61/61 65/65/65
f 66/66/66 59/59/59 65/65/65
f 57/57/57 59/59/59 66/66/66
f 67/67/67 57/57/57 66/66/66
f 55/55/55 57/57/57 67/67/67
f 68/68/68 55/55/55 67/67/67
f 53/53/53 55/55/55 68/68/68
f 69/69/69 53/53/53 68/68/68
f 60/60/60 70/70/70 62/62/62
f 70/70/70 71/71/71 62/62/62
f 72/72/72 70/70/70 60/60/60
f 58/58/58 72/72/72 60/60/60
f 73/73/73 72/72/72 58/58/58
f 56/56/56 73/73/73 58/58/58
f 74/74/74 73/73/73 56/56/56
f 54/54/54 74/74/74 56/56/56
f 75/75/75 74/74/74 54/54/54
f 52/52/52 75/75/75 54/54/54
f 76/76/76 75/75/75 52/52/52
f 50/50/50 76/76/76 52/52/52
f 77/77/77 76/76/76 50/50/50
f 48/48/48 77/77/77 50/50/50
f 78/78/78 77/77/77 48/48/48
f 46/46/46 78/78/78 48/48/48
f 79/79/79 78/78/78 46/46/46
f 44/44/44 79/79/79 46/46/46
f 80/80/80 79/79/79 44/44/44
f 42/42/42 80/80/80 44/44/44
f 81/81/81 80/80/80 42/42/42
f 40/40/40 81/81/81 42/42/42
f 82/82/82 81/81/81 40/40/40
f 38/38/38 82/82/82 40/40/40
f 83/83/83 82/82/82 38/38/38
f 36/36/36 83/83/83 38/38/38
f 84/84/84 83/83/83 36/36/36
f 24/24/24 84/84/84 36/36/36
f 85/85/85 84/84/84 24/24/24
f 25/25/25 85/85/85 24/24/24
f 86/86/86 85/85/85 25/25/25
f 27/27/27 86/86/86 25/25/25
f 87/87/87 86/86/86 27/27/27
f 29/29/29 87/87/87 27/27/27
f 88/88/88 87/87/87 29/29/29
f 31/31/31 88/88/88 29/29/29
f 89/89/89 88/88/88 31/31/31
f 33/33/33 89/89/89 31/31/31
f 90/90/90 89/89/89 33/33/33
f 35/35/35 90/90/90 33/33/33
f 87/87/87 91/91/91 86/86/86
f 88/88/88 91/91/91 87/87/87
f 91/91/91 92/92/92 86/86/86
f 85/85/85 92/92/92 84/84/84
f 86/86/86 92/92/92 85/85/85
f 93/93/93 91/91/91 88/88/88
f 89/89/89 93/93/93 88/88/88
f 90/90/90 93/93/93 89/89/89
f 91/91/91 94/94/94 92/92/92
f 94/94/94 95/95/95 92/92/92
f 96/96/96 94/94/94 91/91/91
f 93/93/93 96/96/96 91/91/91
f 92/92/92 95/95/95 97/97/97
f 92/92/92 97/97/97 84/84/84
f 84/84/84 97/97/97 83/83/83
f 83/83/83 97/97/97 82/82/82
f 97/97/97 98/98/98 82/82/82
f 82/82/82 98/98/98 81/81/81
f 81/81/81 98/98/98 80/80/80
f 98/98/98 99/99/99 80/80/80
f 80/80/80 99/99/99 79/79/79
f 79/79/79 99/99/99 78/78/78
f 99/99/99 100/100/100 78/78/78
f 78/78/78 100/100/100 77/77/77
f 77/77/77 100/100/100 76/76/76
f 100/100/100 101/101/101 76/76/76
f 76/76/76 101/101/101 75/75/75
f 75/75/75 101/101/101 74/74/74
f 101/101/101 102/102/102 74/74/74
f 74/74/74 102/102/102 73/73/73
f 73/73/73 102/102/102 72/72/72
f 102/102/102 103/103/103 72/72/72
f 72/72/72 103/103/103 70/70/70
f 70/70/70 103/103/103 71/71/71
f 103/103/103 104/104/104 71/71/71
f 103/103/103 105/105/105 104/104/104
f 105/105/105 106/106/106 104/104/104
f 107/107/107 105/105/105 103/103/103
f 102/102/102 107/107/107 103/103/103
f 108/108/108 107/107/107 102/102/102
f 101/101/101 108/108/108 102/102/102
f 109/109/109 108/108/108 101/101/101
f 100/100/100 109/109/109 101/101/101
f 110/110/110 109/109/109 100/100/100
f 99/99/99 110/110/110 100/100/100
f 111/111/111 110/110/110 99/99/99
f 98/98/98 111/111/111 99/99/99
f 112/112/112 111/111/111 98/98/98
f 97/97/97 112/112/112 98/98/98
f 95/95/95 112/112/112 97/97/97
f 26/26/26 22/22/22 113/113/113
f 114/114/114 26/26/26 113/113/113
f 28/28/28 26/26/26 114/114/114
f 115/115/115 28/28/28 114/114/114
f 30/30/30 28/28/28 115/115/115
f 116/116/116 30/30/30 115/115/115
f 32/32/32 30/30/30 116/116/116
f 117/117/117 32/32/32 116/116/116
f 34/34/34 32/32/32 117/117/117
f 118/118/118 34/34/34 117/117/117
f 113/113/113 22/22/22 119/119/119
f 22/22/22 23/23/23 119/119/119
f 119/119/119 23/23/23 120/120/120
f 23/23/23 37/37/37 120/120/120
f 120/120/120 37/37/37 121/121/121
f 37/37/37 39/39/39 121/121/121
f 121/121/121 39/39/39 122/122/122
f 39/39/39 41/41/41 122/122/122
f 122/122/122 41/41/41 123/123/123
f 41/41/41 43/43/43 123/123/123
f 123/123/123 43/43/43 124/124/124
f 43/43/43 45/45/45 124/124/124
f 124/124/124 45/45/45 125/125/125
f 45/45/45 47/47/47 125/125/125
f 125/125/125 47/47/47 126/126/126
f 47/47/47 49/49/49 126/126/126
f 126/126/126 49/49/49 127/127/127
f 49/49/49 51/51/51 127/127/127
f 127/127/127 51/51/51 69/69/69
f 51/51/51 53/53/53 69/69/69
f 130/130/130 129/129/129 128/128/128
f 131/131/131 130/130/130 128/128/128
f 132/132/132 130/130/130 131/131/131
f 133/133/133 132/132/132 131/131/131
f 128/128/128 129/129/129 134/134/134
f 129/129/129 135/135/135 134/134/134
f 134/134/134 135/135/135 136/136/136
f 135/135/135 137/137/137 136/136/136
f 136/136/136 137/137/137 138/138/138
f 137/137/137 139/139/139 138/138/138
f 138/138/138 139/139/139 140/140/140
f 139/139/139 141/141/141 140/140/140
f 140/140/140 141/141/141 142/142/142
f 141/141/141 143/143/143 142/142/142
f 142/142/142 143/143/143 144/144/144
f 143/143/143 145/145/145 144/144/144
f 144/144/144 145/145/145 146/146/146
f 145/145/145 147/147/147 146/146/146
f 146/146/146 147/147/147 148/148/148
f 147/147/147 149/149/149 148/148/148
f 152/152/152 151/151/151 150/150/150
f 153/153/153 152/152/152 150/150/150
f 150/150/150 154/154/154 153/153/153
f 154/154/154 155/155/155 153/153/153
f 152/152/152 156/156/156 151/151/151
f 156/156/156 157/157/157 151/151/151
f 156/156/156 158/158/158 157/157/157
f 158/158/158 159/159/159 157/157/157
f 158/158/158 160/160/160 159/159/159
f 160/160/160 161/161/161 159/159/159
f 160/160/160 162/162/162 161/161/161
f 162/162/162 163/163/163 161/161/161
f 155/155/155 154/154/154 164/164/164
f 165/165/165 155/155/155 164/164/164
f 165/165/165 164/164/164 166/166/166
f 167/167/167 165/165/165 166/166/166
f 159/159/159 168/168/168 157/157/157
f 168/168/168 169/169/169 157/157/157
f 169/169/169 168/168/168 170/170/170
f 169/169/169 170/170/170 171/171/171
f 172/172/172 169/169/169 171/171/171
f 172/172/172 171/171/171 173/173/173
f 174/174/174 172/172/172 173/173/173
f 173/173/173 175/175/175 174/174/174
f 175/175/175 176/176/176 174/174/174
f 168/168/168 177/177/177 170/170/170
f 168/168/168 178/178/178 177/177/177
f 178/178/178 179/179/179 177/177/177
f 178/178/178 180/180/180 179/179/179
f 180/180/180 181/181/181 179/179/179
f 176/176/176 175/175/175 182/182/182
f 183/183/183 176/176/176 182/182/182
f 183/183/183 182/182/182 184/184/184
f 185/185/185 183/183/183 184/184/184
f 172/172/172 174/174/174 150/150/150
f 151/151/151 172/172/172 150/150/150
f 169/169/169 172/172/172 151/151/151
f 157/157/157 169/169/169 151/151/151
f 180/180/180 178/178/178 161/161/161
f 161/161/161 178/178/178 159/159/159
f 178/178/178 168/168/168 159/159/159
f 163/163/163 180/180/180 161/161/161
f 183/183/183 185/185/185 166/166/166
f 164/164/164 183/183/183 166/166/166
f 176/176/176 183/183/183 164/164/164
f 154/154/154 176/176/176 164/164/164
f 174/174/174 176/176/176 154/154/154
f 150/150/150 174/174/174 154/154/154
f 188/188/188 187/187/187 186/186/186
f 186/186/186 187/187/187 189/189/189
f 189/189/189 187/187/187 190/190/190
f 190/190/190 187/187/187 191/191/191
f 191/191/191 187/187/187 192/192/192
f 193/193/193 187/187/187 188/188/188
f 194/194/194 187/187/187 193/193/193
f 195/195/195 187/187/187 194/194/194
f 198/198/198 197/197/197 196/196/196
f 199/199/199 197/197/197 198/198/198
f 200/200/200 197/197/197 199/199/199
f 201/201/201 197/197/197 200/200/200
f 202/202/202 197/197/197 201/201/201
f 203/203/203 197/197/197 202/202/202
f 204/204/204 197/197/197 203/203/203
f 196/196/196 197/197/197 204/204/204
