g m_dlc08_tent_wall_rope_01
v 0.3991049 0.1031534 -0.3056771
v 0.4468637 0.206071 -0.3377111
v 0.5261927 0.2028522 -0.1815648
v 0.4714749 0.09831672 -0.1645461
v 0.5521067 0.1942383 -0.0096627
v 0.4959329 0.07782809 -0.0124839
v 0.6356845 0.2074621 -0.2174773
v 0.5419945 0.2087399 -0.4023965
v 0.6677233 0.2050032 -0.01001971
v 0.6900799 0.1093954 -0.235429
v 0.5889382 0.109952 -0.4345535
v 0.7256088 0.1076905 -0.01070042
v 0.63683 0.009416733 -0.2184294
v 0.5426314 0.01075031 -0.4031366
v 0.6708145 0.007431755 -0.01177534
v 0.5278725 0.002572679 -0.1834904
v 0.4476984 0.006020756 -0.3388454
v 0.5563815 -0.009569234 -0.01403668
v 0.4714749 0.09831672 -0.1645461
v 0.3991049 0.1031534 -0.3056771
v 0.4959329 0.07782809 -0.0124839
v 0.6809676 0.1025077 0.1928452
v 0.6339164 0.1955554 0.156898
v 0.5624718 0.06193791 0.2912471
v 0.5353626 0.1572273 0.2407329
v 0.5406721 0.1768238 0.08274821
v 0.4901869 0.1487675 0.1357155
v 0.4942947 0.06317177 0.04127947
v 0.473697 0.04343643 0.07605256
v 0.5487819 -0.03990022 0.2361382
v 0.6413022 -0.001577911 0.1531121
v 0.5084192 -0.05142597 0.1288071
v 0.550817 -0.02597625 0.07548974
v 0.473697 0.04343643 0.07605256
v 0.4942947 0.06317177 0.04127947
v 0.3349221 -0.0361411 0.09088998
v 0.3401424 0.06605116 0.1473071
v 0.3669821 0.07378516 0.2570764
v 0.3838001 -0.1222088 0.2545113
v 0.3890269 -0.02133826 0.3108117
v 0.3568462 -0.1303033 0.1454819
v 0.3349221 -0.0361411 0.09088998
v 0.2077204 0.009749517 0.2783781
v 0.1900815 0.007189111 0.1674789
v 0.2219592 -0.08875392 0.3324318
v 0.2177165 -0.1881401 0.2766961
v 0.1999809 -0.1906364 0.1673407
v 0.1863058 -0.09342045 0.1122692
v 0.04119864 -0.01049767 0.1916773
v 0.03708127 -0.1105252 0.1369134
v 0.1863058 -0.09342045 0.1122692
v 0.04982979 -0.01043333 0.3034607
v 0.05364836 -0.1105469 0.3581264
v 0.04957869 -0.2093082 0.3027985
v 0.04154708 -0.2093937 0.1925878
v 0.03708127 -0.1105252 0.1369134
v -0.1124663 -0.09313247 0.161558
v -0.1080475 0.007564526 0.216119
v -0.1087487 0.009290905 0.3282833
v -0.1152199 -0.08893829 0.3838154
v -0.1191884 -0.1883936 0.3283969
v -0.1172323 -0.1902657 0.2178187
v -0.1124663 -0.09313247 0.161558
v -0.2620218 -0.03636731 0.1890879
v -0.258895 0.06690326 0.2448575
v -0.2696136 0.07354206 0.3572091
v -0.2835682 -0.02041241 0.4136667
v -0.2865117 -0.12359 0.3572655
v -0.2750803 -0.1288539 0.2463346
v -0.2620218 -0.03636731 0.1890879
v -0.403848 0.04121317 0.2199285
v -0.4087159 0.1480517 0.2813257
v -0.4830596 0.1808774 0.2477574
v -0.45 0.06932966 0.1943392
v -0.5525767 0.1950496 0.3434065
v -0.4386883 0.1574487 0.3927769
v -0.5883961 0.10145 0.3902034
v -0.4591672 0.06303257 0.4472639
v -0.5603697 -0.002550373 0.3410792
v -0.4523166 -0.04165788 0.3909298
v -0.4943689 -0.02099546 0.2427302
v -0.4276266 -0.05130409 0.2781001
v -0.45 0.06932966 0.1943392
v -0.403848 0.04121317 0.2199285
v -0.5247036 0.1972918 0.1609573
v -0.4710383 0.08454327 0.1408496
v -0.553151 0.2040491 -0.01076472
v -0.4955396 0.1001737 -0.01131449
v -0.5259201 0.2067979 -0.1837219
v -0.4704567 0.1040771 -0.1679645
v -0.6364396 0.2089101 -0.215809
v -0.6684061 0.2080185 -0.01099392
v -0.634788 0.2058287 0.196277
v -0.6909717 0.1099093 -0.2318337
v -0.7256178 0.1096865 -0.01120163
v -0.689943 0.108442 0.2134324
v -0.6371486 0.01091085 -0.2162129
v -0.6695372 0.009918881 -0.01142581
v -0.6377742 0.008086214 0.1953685
v -0.5269299 0.006735 -0.184403
v -0.5549643 0.003869247 -0.01175063
v -0.5289865 -0.004519138 0.1581022
v -0.4704567 0.1040771 -0.1679645
v -0.4955396 0.1001737 -0.01131449
v -0.4710383 0.08454327 0.1408496
vt 0.004070282 2.134766
vt 0.1756592 2.134766
vt 0.1756592 1.874023
vt 0.004070282 1.874023
vt 0.1756592 1.612305
vt 0.004070282 1.612305
vt 0.3435059 1.874023
vt 0.3435059 2.134766
vt 0.3435059 1.612305
vt 0.5068359 1.874023
vt 0.5068359 2.134766
vt 0.5068359 1.612305
vt 0.6723633 1.874023
vt 0.6723633 2.134766
vt 0.6723633 1.612305
vt 0.8422852 1.874023
vt 0.8422852 2.134766
vt 0.8422852 1.612305
vt 1.001953 1.874023
vt 1.001953 2.134766
vt 1.001953 1.612305
vt 0.5068359 1.459961
vt 0.3435059 1.459961
vt 0.5068359 1.321289
vt 0.3435059 1.321289
vt 0.1756592 1.459961
vt 0.1756592 1.321289
vt 0.004070282 1.459961
vt 0.004070282 1.321289
vt 0.6723633 1.321289
vt 0.6723633 1.459961
vt 0.8422852 1.321289
vt 0.8422852 1.459961
vt 1.001953 1.382813
vt 1.001953 1.459961
vt 0.004070282 1.087891
vt 0.1756592 1.087891
vt 0.3435059 1.087891
vt 0.6723633 1.087891
vt 0.5068359 1.087891
vt 0.8422852 1.087891
vt 1.001953 1.087891
vt 0.3435059 0.8530273
vt 0.1756592 0.8530273
vt 0.5068359 0.8530273
vt 0.6723633 0.8530273
vt 0.8422852 0.8530273
vt 1.001953 0.8530273
vt 0.1756592 0.6293945
vt 0.004070282 0.6293945
vt 0.004070282 0.8530273
vt 0.3435059 0.6293945
vt 0.5068359 0.6293945
vt 0.6723633 0.6293945
vt 0.8422852 0.6293945
vt 1.001953 0.6293945
vt 0.004070282 0.4030762
vt 0.1756592 0.4030762
vt 0.3435059 0.4030762
vt 0.5068359 0.4030762
vt 0.6723633 0.4030762
vt 0.8422852 0.4030762
vt 1.001953 0.4030762
vt 0.004070282 0.1663818
vt 0.1756592 0.1663818
vt 0.3435059 0.1663818
vt 0.5068359 0.1663818
vt 0.6723633 0.1663818
vt 0.8422852 0.1663818
vt 1.001953 0.1663818
vt 0.004070282 -0.07043457
vt 0.1756592 -0.07043457
vt 0.1756592 -0.2103271
vt 0.004070282 -0.2103271
vt 0.3435059 -0.2103271
vt 0.3435059 -0.07043457
vt 0.5068359 -0.2103271
vt 0.5068359 -0.07043457
vt 0.6723633 -0.2103271
vt 0.6723633 -0.07043457
vt 0.8422852 -0.2103271
vt 0.8422852 -0.07043457
vt 1.001953 -0.2103271
vt 1.001953 -0.07043457
vt 0.1756592 -0.3674316
vt 0.004070282 -0.3674316
vt 0.1756592 -0.6279297
vt 0.004070282 -0.6279297
vt 0.1756592 -0.8901367
vt 0.004070282 -0.8901367
vt 0.3435059 -0.8901367
vt 0.3435059 -0.6279297
vt 0.3435059 -0.3674316
vt 0.5068359 -0.8901367
vt 0.5068359 -0.6279297
vt 0.5068359 -0.3674316
vt 0.6723633 -0.8901367
vt 0.6723633 -0.6279297
vt 0.6723633 -0.3674316
vt 0.8422852 -0.8901367
vt 0.8422852 -0.6279297
vt 0.8422852 -0.3674316
vt 1.001953 -0.8901367
vt 1.001953 -0.6279297
vt 1.001953 -0.3674316
vn -0.8901107 -0.0008209868 0.4557437
vn -0.4104865 0.8838038 0.224481
vn -0.4447642 0.8796209 0.1686768
vn -0.9507549 0.001779261 0.3099383
vn -0.4871874 0.8681672 0.09452116
vn -0.9962341 -0.0219372 0.08388336
vn 0.5201794 0.8396446 -0.1562386
vn 0.491563 0.8368105 -0.2410688
vn 0.5503615 0.8340222 0.03884921
vn 0.9515222 0.009425085 -0.3074358
vn 0.8914903 0.006137667 -0.4529984
vn 0.9997614 0.02004873 0.008666122
vn 0.5672625 -0.7997386 -0.1965487
vn 0.5182613 -0.8106849 -0.272388
vn 0.6620437 -0.7489998 -0.02640762
vn -0.351069 -0.9324568 0.08529325
vn -0.3642799 -0.9154702 0.1709227
vn -0.2687312 -0.9623148 -0.04163854
vn -0.9507549 0.001779261 0.3099383
vn -0.8901107 -0.0008209868 0.4557437
vn -0.9962341 -0.0219372 0.08388336
vn 0.8680183 0.05759606 0.4931803
vn 0.4517756 0.8167181 0.3589852
vn 0.3375834 0.04681769 0.9401307
vn -0.08219015 0.783809 0.6155389
vn -0.4764663 0.8791428 0.009368829
vn -0.4994348 0.8486915 -0.1740334
vn -0.954747 -0.01365969 -0.2971052
vn -0.3555778 0.05562253 -0.9329902
vn 0.5021322 -0.7156519 0.4854952
vn 0.7061252 -0.6643558 0.2449869
vn 0.3091489 -0.8519346 -0.4226516
vn 0.01779814 -0.979384 -0.2012222
vn -0.3555778 0.05562253 -0.9329902
vn -0.954747 -0.01365969 -0.2971052
vn -0.1051221 -0.02296127 -0.9941942
vn -0.4216539 0.7995669 -0.4276689
vn -0.2957294 0.7798361 0.5517244
vn 0.4121152 -0.7978378 0.4400182
vn 0.1307843 -0.01793186 0.9912486
vn 0.2980897 -0.8109076 -0.5035588
vn -0.1051221 -0.02296127 -0.9941942
vn -0.1438726 0.8248958 0.5466695
vn -0.2895078 0.821839 -0.490679
vn 0.1613876 -0.04769067 0.9857382
vn 0.2806622 -0.8399342 0.4644776
vn 0.1410016 -0.8633192 -0.48456
vn -0.1300787 -0.05184479 -0.9901473
vn -0.08831026 0.8493973 -0.520313
vn -0.1604878 -0.04819582 -0.9858605
vn -0.1300787 -0.05184479 -0.9901473
vn 0.08492188 0.8381371 0.5388083
vn 0.1516335 -0.05118649 0.9871106
vn 0.07431624 -0.8626305 0.5003456
vn -0.07294886 -0.8790953 -0.4710307
vn -0.1604878 -0.04819582 -0.9858605
vn -0.18775 -0.04410818 -0.981226
vn 0.117944 0.8370869 -0.5342048
vn 0.3047813 0.8026404 0.512715
vn 0.1417995 -0.053685 0.9884385
vn -0.1382574 -0.8509145 0.5067834
vn -0.2805968 -0.8455611 -0.4541937
vn -0.18775 -0.04410818 -0.981226
vn -0.2058613 -0.01116898 -0.9785175
vn 0.2678514 0.8195378 -0.5065701
vn 0.4399118 0.7480491 0.4968906
vn 0.1719115 -0.0249615 0.984796
vn -0.2699529 -0.8161706 0.5108728
vn -0.4305225 -0.7814975 -0.451566
vn -0.2058613 -0.01116898 -0.9785175
vn 0.01065593 0.05031548 -0.9986765
vn 0.4265929 0.8571437 -0.2886577
vn 0.4349525 0.8910985 -0.1294592
vn 0.7613699 0.01152995 -0.6482153
vn -0.3189846 0.8186841 0.4774989
vn 0.2601265 0.7574159 0.5988784
vn -0.6930479 0.05282691 0.7189533
vn -0.05562278 0.03803422 0.9977272
vn -0.5966517 -0.6865599 0.4155024
vn -0.3275717 -0.7357892 0.592715
vn -0.06823281 -0.9654812 -0.2513769
vn -0.4085276 -0.8279404 -0.3842132
vn 0.7613699 0.01152995 -0.6482153
vn 0.01065593 0.05031548 -0.9986765
vn 0.4736679 0.8784618 -0.0627969
vn 0.9718588 -0.009828845 -0.235359
vn 0.4658687 0.8846694 0.01806723
vn 0.9999996 0.0008419511 8.909981E-05
vn 0.4561243 0.8859901 0.08349837
vn 0.9874673 -0.001087038 0.1578198
vn -0.544786 0.8347966 -0.07951687
vn -0.5470602 0.837034 0.009960384
vn -0.5151523 0.8321357 0.2053491
vn -0.9878681 0.004786064 -0.1552221
vn -0.999966 0.008039682 0.001827111
vn -0.9494275 0.01961551 0.313373
vn -0.5739543 -0.8131809 -0.09650601
vn -0.5940812 -0.8043609 -0.008423607
vn -0.6269464 -0.7595118 0.1734361
vn 0.4028414 -0.9137368 0.05295141
vn 0.3702296 -0.9287108 -0.02064713
vn 0.2713897 -0.9539464 -0.1278045
vn 0.9874673 -0.001087038 0.1578198
vn 0.9999996 0.0008419511 8.909981E-05
vn 0.9718588 -0.009828845 -0.235359
g m_dlc08_tent_wall_rope_01_0
f 3/3/3 2/2/2 1/1/1
f 4/4/4 3/3/3 1/1/1
f 5/5/5 3/3/3 4/4/4
f 6/6/6 5/5/5 4/4/4
f 3/3/3 7/7/7 2/2/2
f 7/7/7 8/8/8 2/2/2
f 9/9/9 7/7/7 3/3/3
f 5/5/5 9/9/9 3/3/3
f 7/7/7 10/10/10 8/8/8
f 10/10/10 11/11/11 8/8/8
f 12/12/12 10/10/10 7/7/7
f 9/9/9 12/12/12 7/7/7
f 10/10/10 13/13/13 11/11/11
f 13/13/13 14/14/14 11/11/11
f 15/15/15 13/13/13 10/10/10
f 12/12/12 15/15/15 10/10/10
f 13/13/13 16/16/16 14/14/14
f 16/16/16 17/17/17 14/14/14
f 18/18/18 16/16/16 13/13/13
f 15/15/15 18/18/18 13/13/13
f 16/16/16 19/19/19 17/17/17
f 19/19/19 20/20/20 17/17/17
f 21/21/21 19/19/19 16/16/16
f 18/18/18 21/21/21 16/16/16
f 22/22/22 12/12/12 9/9/9
f 23/23/23 22/22/22 9/9/9
f 24/24/24 22/22/22 23/23/23
f 25/25/25 24/24/24 23/23/23
f 25/25/25 23/23/23 26/26/26
f 27/27/27 25/25/25 26/26/26
f 27/27/27 26/26/26 28/28/28
f 29/29/29 27/27/27 28/28/28
f 24/24/24 30/30/30 22/22/22
f 30/30/30 31/31/31 22/22/22
f 30/30/30 32/32/32 31/31/31
f 32/32/32 33/33/33 31/31/31
f 33/33/33 32/32/32 34/34/34
f 35/35/35 33/33/33 34/34/34
f 29/29/29 36/36/36 27/27/27
f 36/36/36 37/37/37 27/27/27
f 27/27/27 37/37/37 25/25/25
f 28/28/28 26/26/26 6/6/6
f 26/26/26 5/5/5 6/6/6
f 37/37/37 38/38/38 25/25/25
f 26/26/26 23/23/23 5/5/5
f 23/23/23 9/9/9 5/5/5
f 30/30/30 39/39/39 32/32/32
f 40/40/40 39/39/39 30/30/30
f 38/38/38 40/40/40 24/24/24
f 24/24/24 40/40/40 30/30/30
f 25/25/25 38/38/38 24/24/24
f 39/39/39 41/41/41 32/32/32
f 34/34/34 32/32/32 41/41/41
f 42/42/42 34/34/34 41/41/41
f 33/33/33 35/35/35 18/18/18
f 33/33/33 18/18/18 15/15/15
f 31/31/31 33/33/33 15/15/15
f 31/31/31 15/15/15 12/12/12
f 22/22/22 31/31/31 12/12/12
f 38/38/38 43/43/43 40/40/40
f 44/44/44 43/43/43 38/38/38
f 43/43/43 45/45/45 40/40/40
f 40/40/40 45/45/45 39/39/39
f 45/45/45 46/46/46 39/39/39
f 39/39/39 46/46/46 41/41/41
f 46/46/46 47/47/47 41/41/41
f 42/42/42 41/41/41 47/47/47
f 48/48/48 42/42/42 47/47/47
f 44/44/44 49/49/49 43/43/43
f 50/50/50 49/49/49 44/44/44
f 51/51/51 50/50/50 44/44/44
f 51/51/51 44/44/44 37/37/37
f 36/36/36 51/51/51 37/37/37
f 37/37/37 44/44/44 38/38/38
f 49/49/49 52/52/52 43/43/43
f 43/43/43 52/52/52 45/45/45
f 52/52/52 53/53/53 45/45/45
f 45/45/45 53/53/53 46/46/46
f 53/53/53 54/54/54 46/46/46
f 46/46/46 54/54/54 47/47/47
f 54/54/54 55/55/55 47/47/47
f 48/48/48 47/47/47 55/55/55
f 56/56/56 48/48/48 55/55/55
f 50/50/50 57/57/57 49/49/49
f 57/57/57 58/58/58 49/49/49
f 49/49/49 58/58/58 52/52/52
f 58/58/58 59/59/59 52/52/52
f 52/52/52 59/59/59 53/53/53
f 59/59/59 60/60/60 53/53/53
f 53/53/53 60/60/60 54/54/54
f 60/60/60 61/61/61 54/54/54
f 54/54/54 61/61/61 55/55/55
f 61/61/61 62/62/62 55/55/55
f 56/56/56 55/55/55 62/62/62
f 63/63/63 56/56/56 62/62/62
f 57/57/57 64/64/64 58/58/58
f 64/64/64 65/65/65 58/58/58
f 58/58/58 65/65/65 59/59/59
f 65/65/65 66/66/66 59/59/59
f 59/59/59 66/66/66 60/60/60
f 66/66/66 67/67/67 60/60/60
f 60/60/60 67/67/67 61/61/61
f 67/67/67 68/68/68 61/61/61
f 61/61/61 68/68/68 62/62/62
f 68/68/68 69/69/69 62/62/62
f 63/63/63 62/62/62 69/69/69
f 70/70/70 63/63/63 69/69/69
f 64/64/64 71/71/71 65/65/65
f 71/71/71 72/72/72 65/65/65
f 65/65/65 72/72/72 66/66/66
f 73/73/73 72/72/72 71/71/71
f 74/74/74 73/73/73 71/71/71
f 73/73/73 75/75/75 72/72/72
f 75/75/75 76/76/76 72/72/72
f 72/72/72 76/76/76 66/66/66
f 66/66/66 76/76/76 67/67/67
f 75/75/75 77/77/77 76/76/76
f 77/77/77 78/78/78 76/76/76
f 76/76/76 78/78/78 67/67/67
f 67/67/67 78/78/78 68/68/68
f 77/77/77 79/79/79 78/78/78
f 79/79/79 80/80/80 78/78/78
f 78/78/78 80/80/80 68/68/68
f 68/68/68 80/80/80 69/69/69
f 79/79/79 81/81/81 80/80/80
f 81/81/81 82/82/82 80/80/80
f 80/80/80 82/82/82 69/69/69
f 82/82/82 81/81/81 83/83/83
f 84/84/84 82/82/82 83/83/83
f 69/69/69 82/82/82 84/84/84
f 70/70/70 69/69/69 84/84/84
f 85/85/85 73/73/73 74/74/74
f 86/86/86 85/85/85 74/74/74
f 87/87/87 85/85/85 86/86/86
f 88/88/88 87/87/87 86/86/86
f 89/89/89 87/87/87 88/88/88
f 90/90/90 89/89/89 88/88/88
f 89/89/89 91/91/91 87/87/87
f 91/91/91 92/92/92 87/87/87
f 87/87/87 92/92/92 85/85/85
f 92/92/92 93/93/93 85/85/85
f 91/91/91 94/94/94 92/92/92
f 94/94/94 95/95/95 92/92/92
f 92/92/92 95/95/95 93/93/93
f 95/95/95 96/96/96 93/93/93
f 94/94/94 97/97/97 95/95/95
f 97/97/97 98/98/98 95/95/95
f 95/95/95 98/98/98 96/96/96
f 98/98/98 99/99/99 96/96/96
f 97/97/97 100/100/100 98/98/98
f 100/100/100 101/101/101 98/98/98
f 98/98/98 101/101/101 99/99/99
f 101/101/101 102/102/102 99/99/99
f 100/100/100 103/103/103 101/101/101
f 103/103/103 104/104/104 101/101/101
f 101/101/101 104/104/104 102/102/102
f 104/104/104 105/105/105 102/102/102
f 93/93/93 96/96/96 75/75/75
f 93/93/93 75/75/75 73/73/73
f 85/85/85 93/93/93 73/73/73
f 96/96/96 77/77/77 75/75/75
f 96/96/96 99/99/99 77/77/77
f 99/99/99 79/79/79 77/77/77
f 99/99/99 102/102/102 79/79/79
f 102/102/102 81/81/81 79/79/79
f 102/102/102 105/105/105 81/81/81
f 105/105/105 83/83/83 81/81/81
f 35/35/35 21/21/21 18/18/18
