g m_dlc08_cart_shutter_left_01
v -0.1009149 -1.517928 -0.161061
v -0.1005371 -1.517928 0.1159399
v -0.06591614 -1.483307 0.1158927
v -0.06629455 -1.483307 -0.1611083
v -1.220007 -1.517928 -0.1595363
v -0.1009619 -1.483307 -0.1956818
v -1.220053 -1.483307 -0.1941569
v -0.1009619 1.161198 -0.1956818
v -0.06629455 1.161198 -0.1611083
v -1.013641 0.6777691 -0.1944377
v -1.220054 0.6777698 -0.1941574
v -1.254627 0.6777698 -0.1594893
v -1.254627 -1.483307 -0.159489
v -1.219628 -1.517928 0.1174644
v -1.25425 -1.483307 0.1175119
v -1.041763 0.7123901 -0.159779
v -1.220007 0.7123907 -0.1595364
v -1.219582 -1.483307 0.1520846
v -0.9721014 0.8777515 -0.1944951
v -1.004191 0.893266 -0.1598297
v -1.041763 0.7123901 -0.159779
v -0.8701758 1.054093 -0.1600125
v -0.847959 1.02673 -0.1946637
v -0.678385 1.15637 -0.160274
v -0.6672113 1.123118 -0.1949103
v -0.4355261 1.195818 -0.160605
v -0.4327795 1.161198 -0.1952292
v -0.1009149 1.195818 -0.161061
v -0.1004901 -1.483307 0.1505606
v -0.06629455 1.161198 -0.1611083
v -0.06591614 1.161198 0.1158927
v -0.1005371 1.195818 0.11594
v -0.1009149 1.195818 -0.161061
v -0.06629455 -1.483307 -0.1611083
v -0.06591614 -1.483307 0.1158927
v -0.1004901 -1.483307 0.1505606
v -0.1004901 1.161198 0.1505606
v -0.4351489 1.195818 0.1163957
v -0.4323071 1.161198 0.1510128
v -0.6780078 1.15637 0.1167267
v -0.6667395 1.123118 0.1513319
v -0.8697985 1.054093 0.1169882
v -0.8474877 1.02673 0.1515781
v -1.003814 0.893266 0.1171704
v -0.9716296 0.8777515 0.1517477
v -1.041386 0.7123901 0.117222
v -1.013171 0.6777691 0.1518043
v -0.4355261 1.195818 -0.160605
v -0.8701758 1.054093 -0.1600125
v -1.004191 0.893266 -0.1598297
v -0.678385 1.15637 -0.160274
v -1.041763 0.7123901 -0.159779
v -0.4192365 1.01395 0.150995
v -0.8302209 0.8051544 0.151555
v -0.7521027 0.9105816 0.1514488
v -0.890332 0.515769 0.1516371
v -1.082205 0.515769 0.151898
v -1.219582 0.6777698 0.1520846
v -1.219628 0.7123907 0.1174644
v -1.041386 0.7123901 0.117222
v -1.041763 0.7123901 -0.159779
v -1.220007 0.7123907 -0.1595364
v -1.25425 0.6777698 0.1175119
v -1.254627 0.6777698 -0.1594893
v -1.25425 -1.483307 0.1175119
v -1.219582 -1.483307 0.1520846
v -1.254627 -1.483307 -0.159489
v -1.082205 -1.330736 0.1518982
v -0.2231 -1.330736 0.1507277
v -0.2231 1.01395 0.1507276
v -0.2760766 0.9505206 0.04159958
v -0.2760754 -1.267307 0.04160004
v -0.4283758 0.9505206 0.0418074
v -0.2760766 0.9505206 0.04159958
v -0.596637 0.9206909 0.04203636
v -0.6036981 0.9821765 0.1512461
v -0.7266937 0.8561133 0.0422139
v -0.7921979 0.7651239 0.04230301
v -0.8530908 0.4634112 0.04238602
v -1.029526 0.4634112 0.04262619
v -1.029526 0.4634112 0.04262619
v -1.029526 -1.267307 0.04262619
v -1.029526 -1.267307 0.04262619
v -0.2760754 -1.267307 0.04160004
v -0.8530908 0.4634112 0.04238602
v -0.7921979 0.7651239 0.04230301
v -0.7266937 0.8561133 0.0422139
v -0.2760766 0.9505206 0.04159958
v -0.2760754 -1.267307 0.04160004
v -0.596637 0.9206909 0.04203636
v -0.4283758 0.9505206 0.0418074
v -1.029526 -1.267307 0.04262619
v -1.029526 0.4634112 0.04262619
v 0.06096008 -1.144476 0.04310448
v 0.07779907 -1.144476 -0.03244186
v 0.003953857 -1.144476 -0.009251861
v -0.01288452 -1.144476 0.06629329
v -0.06989074 -1.144476 0.01393669
v -0.05305054 -1.144476 -0.06160881
v 0.02079468 -1.144476 -0.08479797
v -0.06989074 -0.8195831 0.01393669
v -0.01288452 -0.8195831 0.06629329
v -0.007833252 -0.7994763 0.04363266
v 0.04385986 -0.7994763 0.02739914
v 0.06096008 -0.8195831 0.04310448
v 0.05564819 -0.7994763 -0.02548538
v 0.07779907 -0.8195831 -0.03244186
v 0.0157428 -0.7994763 -0.06213653
v 0.02079468 -0.8195831 -0.08479797
v -0.04773865 -0.7994763 0.006980362
v -0.05305054 -0.8195831 -0.06160881
v -0.03594971 -0.7994763 -0.04590271
v 0.06096008 -1.144476 0.04310448
v 0.06096008 -0.8195831 0.04310448
v 0.07779907 -1.144476 -0.03244186
v 0.07779907 -0.8195831 -0.03244186
v 0.003953857 -0.7994763 -0.009251861
v 0.07779907 -0.8195831 -0.03244186
v 0.07779907 -1.144476 -0.03244186
v 0.06096008 0.3787549 0.04310428
v 0.07779968 0.3787549 -0.03244133
v 0.003954468 0.3787549 -0.009252052
v -0.01288452 0.3787549 0.06629329
v -0.06989013 0.3787549 0.01393669
v -0.05305054 0.3787549 -0.06160873
v 0.02079468 0.3787549 -0.08479752
v -0.06989013 0.7036474 0.01393669
v -0.01288452 0.7036474 0.06629329
v -0.007833252 0.7237549 0.0436322
v 0.04385986 0.7237549 0.02739895
v 0.06096008 0.7036474 0.04310428
v 0.0556488 0.7237549 -0.02548523
v 0.07779968 0.7036474 -0.03244133
v 0.0157428 0.7237549 -0.0621368
v 0.02079468 0.7036474 -0.08479752
v -0.04773865 0.7237549 0.006980209
v -0.05305054 0.7036474 -0.06160873
v -0.03595032 0.7237549 -0.04590324
v 0.06096008 0.3787549 0.04310428
v 0.06096008 0.7036474 0.04310428
v 0.07779968 0.3787549 -0.03244133
v 0.07779968 0.7036474 -0.03244133
v 0.003954468 0.7237549 -0.009252052
v 0.07779968 0.7036474 -0.03244133
v 0.07779968 0.3787549 -0.03244133
vt 0.239624 0.3791504
vt 0.2429199 0.3791504
vt 0.2429199 0.378418
vt 0.2391357 0.378418
vt 0.239502 0.3925781
vt 0.2390137 0.3791504
vt 0.2388916 0.3925781
vt 0.2099609 0.3786621
vt 0.2099609 0.3781738
vt 0.2156982 0.3898926
vt 0.2156982 0.392334
vt 0.2156982 0.3928223
vt 0.2390137 0.3933105
vt 0.2427979 0.3928223
vt 0.2427979 0.3933105
vt 0.2150879 0.3903809
vt 0.2150879 0.392334
vt 0.2434082 0.3928223
vt 0.2132568 0.3891602
vt 0.2130127 0.3898926
vt 0.2150879 0.3903809
vt 0.2109375 0.3881836
vt 0.2114258 0.3876953
vt 0.2097168 0.3857422
vt 0.2103271 0.385498
vt 0.2092285 0.3828125
vt 0.2098389 0.3825684
vt 0.2093506 0.3786621
vt 0.2435303 0.3791504
vt 0.1960449 0.3674316
vt 0.1966553 0.362793
vt 0.196167 0.3623047
vt 0.1947021 0.3662109
vt 0.2443848 0.3684082
vt 0.2443848 0.3632813
vt 0.2443848 0.3623047
vt 0.1967773 0.3620605
vt 0.1951904 0.3564453
vt 0.1960449 0.3564453
vt 0.1955566 0.3518066
vt 0.1962891 0.3520508
vt 0.1970215 0.3479004
vt 0.1977539 0.3483887
vt 0.199585 0.3449707
vt 0.2000732 0.345459
vt 0.2025146 0.3427734
vt 0.2036133 0.3435059
vt 0.1905518 0.357666
vt 0.192749 0.3459473
vt 0.1958008 0.3417969
vt 0.1907959 0.3513184
vt 0.1992188 0.338623
vt 0.1984863 0.355957
vt 0.2017822 0.3476563
vt 0.2000732 0.3496094
vt 0.2067871 0.3461914
vt 0.2075195 0.3427734
vt 0.2045898 0.340332
vt 0.2039795 0.3400879
vt 0.2025146 0.3427734
vt 0.1992188 0.338623
vt 0.2026367 0.3354492
vt 0.2045898 0.3395996
vt 0.2038574 0.3347168
vt 0.2443848 0.3388672
vt 0.2443848 0.3398438
vt 0.2442627 0.3339844
vt 0.2415771 0.3425293
vt 0.2416992 0.3601074
vt 0.1993408 0.3598633
vt 0.2005615 0.3579102
vt 0.2401123 0.3581543
vt 0.2005615 0.3554688
vt 0.2005615 0.3579102
vt 0.2009277 0.3525391
vt 0.1988525 0.3525391
vt 0.2019043 0.3503418
vt 0.2033691 0.3491211
vt 0.2087402 0.3479004
vt 0.2087402 0.3447266
vt 0.2087402 0.3447266
vt 0.2399902 0.3444824
vt 0.2399902 0.3444824
vt 0.2401123 0.3581543
vt 0.1505127 0.378418
vt 0.142334 0.3798828
vt 0.1398926 0.3815918
vt 0.1373291 0.3937988
vt 0.1968994 0.3937988
vt 0.1381836 0.3852539
vt 0.1373291 0.3896484
vt 0.1968994 0.3735352
vt 0.1505127 0.3735352
vt 0.1871338 0.4916992
vt 0.1854248 0.4916992
vt 0.1862793 0.4907227
vt 0.1881104 0.4899902
vt 0.1870117 0.4897461
vt 0.185791 0.4897461
vt 0.1844482 0.4899902
vt 0.1868896 0.4841309
vt 0.1882324 0.4838867
vt 0.1875 0.4833984
vt 0.1868896 0.4824219
vt 0.1872559 0.4819336
vt 0.1856689 0.4824219
vt 0.1854248 0.4819336
vt 0.1851807 0.4833984
vt 0.1844482 0.4838867
vt 0.1867676 0.4838867
vt 0.1856689 0.4841309
vt 0.1859131 0.4838867
vt 0.1895752 0.4899902
vt 0.1895752 0.4838867
vt 0.190918 0.4899902
vt 0.19104 0.4838867
vt 0.1862793 0.4831543
vt 0.1829834 0.4838867
vt 0.1831055 0.4899902
vt 0.08398438 0.2866211
vt 0.08227539 0.2866211
vt 0.08312988 0.2856445
vt 0.08496094 0.2851563
vt 0.08374023 0.284668
vt 0.08251953 0.284668
vt 0.08129883 0.2851563
vt 0.08374023 0.2792969
vt 0.08502197 0.2788086
vt 0.08435059 0.2785645
vt 0.08374023 0.2775879
vt 0.08404541 0.2770996
vt 0.08251953 0.2775879
vt 0.08221436 0.2770996
vt 0.08197021 0.2785645
vt 0.08129883 0.2788086
vt 0.08361816 0.2788086
vt 0.0824585 0.2792969
vt 0.08270264 0.2788086
vt 0.08636475 0.2851563
vt 0.08642578 0.2790527
vt 0.08776855 0.2851563
vt 0.08782959 0.2790527
vt 0.08312988 0.2783203
vt 0.07983398 0.2788086
vt 0.07989502 0.2851563
vn 0.02752491 -0.9937184 -0.1084714
vn 0.02782042 -0.9937185 0.1083956
vn 0.9940557 -0.01190377 0.1082191
vn 0.9937569 -0.01190377 -0.1109308
vn -0.02782047 -0.9937185 -0.1083951
vn -0.001368599 0 -0.999999
vn -0.001368599 0 -0.999999
vn -0.001368599 0 -0.999999
vn 0.9937569 0.01190377 -0.1109308
vn -0.001368599 0 -0.999999
vn -0.001368599 0 -0.999999
vn -0.994041 0.0145276 -0.1080338
vn -0.994041 -0.01452766 -0.1080338
vn -0.02752489 -0.9937184 0.1084719
vn -0.9937431 -0.01452759 0.1107411
vn -0.0002013511 0.9885979 -0.1505794
vn -0.1489165 0.9832684 -0.1049141
vn 0.001368599 0 0.999999
vn -0.001368599 0 -0.999999
vn -0.8895434 0.4453766 -0.1017468
vn -0.9685854 0.2011542 -0.1462171
vn -0.6251478 0.7740902 -0.09987272
vn -0.001368599 0 -0.999999
vn -0.3084202 0.9457658 -0.1020004
vn -0.001368599 0 -0.999999
vn -0.06785644 0.9920263 -0.1062045
vn -0.001368599 0 -0.999999
vn 0.08652192 0.9908419 -0.1036648
vn 0.001368599 0 0.999999
vn 0.9937569 0.01190377 -0.1109308
vn 0.9940557 0.01190378 0.1082191
vn 0.08680417 0.9908419 0.1034284
vn 0.08652192 0.9908419 -0.1036648
vn 0.9937569 -0.01190377 -0.1109308
vn 0.9940557 -0.01190377 0.1082191
vn 0.001368599 0 0.999999
vn 0.001368599 0 0.999999
vn -0.06756696 0.9920263 0.1063889
vn 0.001368599 0 0.999999
vn -0.3081412 0.9457658 0.1028401
vn 0.001368599 0 0.999999
vn -0.6248735 0.7740902 0.1015752
vn 0.001368599 0 0.999999
vn -0.889263 0.4453765 0.104169
vn 0.001368599 0 0.999999
vn -0.9681834 0.2011547 0.1488547
vn 0.001368599 0 0.999999
vn -0.06785644 0.9920263 -0.1062045
vn -0.6251478 0.7740902 -0.09987272
vn -0.8895434 0.4453766 -0.1017468
vn -0.3084202 0.9457658 -0.1020004
vn -0.9685854 0.2011542 -0.1462171
vn 0.001368599 0 0.999999
vn 0.001368599 0 0.999999
vn 0.001368599 0 0.999999
vn 0.001368599 0 0.999999
vn 0.001368599 0 0.999999
vn 0.001368599 0 0.999999
vn -0.1486297 0.9832684 0.1053199
vn 0.0002079878 0.9885981 0.1505779
vn -0.0002013511 0.9885979 -0.1505794
vn -0.1489165 0.9832684 -0.1049141
vn -0.9937431 0.01452763 0.110741
vn -0.994041 0.0145276 -0.1080338
vn -0.9937431 -0.01452759 0.1107411
vn 0.001368599 0 0.999999
vn -0.994041 -0.01452766 -0.1080338
vn 0.001368599 0 0.999999
vn 0.001368599 0 0.999999
vn 0.001368599 0 0.999999
vn -0.8996018 -1.985012E-07 0.4367113
vn -0.8996018 -1.985012E-07 0.4367113
vn 0.08193172 -0.8639306 0.4969015
vn 0.0006850503 -0.8647118 0.5022678
vn 0.268814 -0.8310232 0.4869697
vn 0.001368599 0 0.999999
vn 0.5590919 -0.6829731 0.4700681
vn 0.8706183 -0.2754178 0.4076383
vn 0.6619549 -0.5658525 0.4915554
vn 0.0005882217 -0.9017107 0.4323393
vn 0.9007876 0 0.4342601
vn 0.9007876 0 0.4342601
vn 0.0006841987 0.864713 0.5022659
vn 0.0006841987 0.864713 0.502266
vn 0.001362258 0 0.999999
vn 0.001363063 -4.309531E-07 0.999999
vn 0.001363056 -4.222131E-07 0.999999
vn 0.001362795 1.604703E-07 0.999999
vn 0.001361968 0 0.999999
vn 0.001362495 2.7006E-07 0.999999
vn 0.001362495 2.7006E-07 0.999999
vn 0.001361803 0 0.999999
vn 0.001361803 0 0.999999
vn 0.7341872 -0.07916174 0.6743163
vn 0.9510689 -0.07916272 -0.2986656
vn 0 -1 0
vn -0.2168861 -0.07916117 0.972982
vn -0.9510676 -0.07916061 0.2986705
vn -0.7341787 -0.07916155 -0.6743257
vn 0.2168821 -0.07916216 -0.9729828
vn -0.9531388 0.04396967 0.2993208
vn -0.2173587 0.04396879 0.9751011
vn -0.1080373 0.8680031 0.4846633
vn 0.3657106 0.8680059 0.335889
vn 0.7357863 0.04396841 0.6757849
vn 0.4737419 0.8680074 -0.1487676
vn 0.9531403 0.04396926 -0.2993163
vn 0.108029 0.8680078 -0.4846568
vn 0.2173547 0.0439694 -0.9751018
vn -0.473741 0.8680075 0.1487691
vn -0.7357779 0.04396973 -0.6757939
vn -0.3657035 0.8680093 -0.3358882
vn 0.7341872 -0.07916174 0.6743163
vn 0.7357863 0.04396841 0.6757849
vn 0.9510689 -0.07916272 -0.2986656
vn 0.9531403 0.04396926 -0.2993163
vn 0 1 -4.001282E-07
vn 0.9531403 0.04396926 -0.2993163
vn 0.9510689 -0.07916272 -0.2986656
vn 0.734183 -0.0791619 0.6743209
vn 0.9510685 -0.07916212 -0.298667
vn 0 -1 0
vn -0.2168858 -0.07916135 0.9729821
vn -0.9510674 -0.07916129 0.2986706
vn -0.7341795 -0.07916149 -0.6743248
vn 0.2168843 -0.07916187 -0.9729823
vn -0.9531388 0.0439694 0.2993213
vn -0.2173582 0.04396912 0.9751011
vn -0.1080395 0.8679978 0.4846725
vn 0.3657154 0.868 0.3358991
vn 0.7357823 0.04396894 0.6757892
vn 0.473754 0.8679996 -0.1487741
vn 0.9531399 0.0439692 -0.2993175
vn 0.1080338 0.8679974 -0.4846744
vn 0.217357 0.04396872 -0.9751014
vn -0.4737534 0.8679998 0.1487747
vn -0.7357786 0.0439688 -0.6757932
vn -0.3657162 0.8679994 -0.3358998
vn 0.734183 -0.0791619 0.6743209
vn 0.7357823 0.04396894 0.6757892
vn 0.9510685 -0.07916212 -0.298667
vn 0.9531399 0.0439692 -0.2993175
vn 0 1 1.000228E-07
vn 0.9531399 0.0439692 -0.2993175
vn 0.9510685 -0.07916212 -0.298667
g m_dlc08_cart_shutter_left_01_0
f 3/3/3 2/2/2 1/1/1
f 4/4/4 3/3/3 1/1/1
f 1/1/1 2/2/2 5/5/5
f 1/1/1 5/5/5 6/6/6
f 6/6/6 4/4/4 1/1/1
f 5/5/5 7/7/7 6/6/6
f 6/6/6 8/8/8 4/4/4
f 8/8/8 9/9/9 4/4/4
f 10/10/10 8/8/8 6/6/6
f 7/7/7 10/10/10 6/6/6
f 7/7/7 11/11/11 10/10/10
f 12/12/12 11/11/11 7/7/7
f 13/13/13 12/12/12 7/7/7
f 7/7/7 5/5/5 13/13/13
f 5/5/5 14/14/14 13/13/13
f 2/2/2 14/14/14 5/5/5
f 14/14/14 15/15/15 13/13/13
f 16/16/16 10/10/10 11/11/11
f 17/17/17 16/16/16 11/11/11
f 11/11/11 12/12/12 17/17/17
f 18/18/18 14/14/14 2/2/2
f 14/14/14 18/18/18 15/15/15
f 10/10/10 19/19/19 8/8/8
f 20/20/20 19/19/19 10/10/10
f 21/21/21 20/20/20 10/10/10
f 20/20/20 22/22/22 19/19/19
f 22/22/22 23/23/23 19/19/19
f 19/19/19 23/23/23 8/8/8
f 23/23/23 22/22/22 24/24/24
f 25/25/25 23/23/23 24/24/24
f 25/25/25 24/24/24 26/26/26
f 27/27/27 25/25/25 26/26/26
f 27/27/27 26/26/26 28/28/28
f 8/8/8 27/27/27 28/28/28
f 25/25/25 27/27/27 8/8/8
f 23/23/23 25/25/25 8/8/8
f 8/8/8 28/28/28 9/9/9
f 29/29/29 18/18/18 2/2/2
f 3/3/3 29/29/29 2/2/2
f 32/32/32 31/31/31 30/30/30
f 33/33/33 32/32/32 30/30/30
f 34/34/34 30/30/30 31/31/31
f 35/35/35 34/34/34 31/31/31
f 35/35/35 31/31/31 36/36/36
f 31/31/31 37/37/37 36/36/36
f 31/31/31 32/32/32 37/37/37
f 32/32/32 38/38/38 37/37/37
f 38/38/38 32/32/32 33/33/33
f 38/38/38 39/39/39 37/37/37
f 38/38/38 40/40/40 39/39/39
f 40/40/40 41/41/41 39/39/39
f 41/41/41 40/40/40 42/42/42
f 43/43/43 41/41/41 42/42/42
f 42/42/42 44/44/44 43/43/43
f 44/44/44 45/45/45 43/43/43
f 45/45/45 44/44/44 46/46/46
f 47/47/47 45/45/45 46/46/46
f 48/48/48 38/38/38 33/33/33
f 40/40/40 38/38/38 48/48/48
f 44/44/44 42/42/42 49/49/49
f 50/50/50 44/44/44 49/49/49
f 46/46/46 44/44/44 50/50/50
f 51/51/51 40/40/40 48/48/48
f 42/42/42 40/40/40 51/51/51
f 49/49/49 42/42/42 51/51/51
f 52/52/52 46/46/46 50/50/50
f 39/39/39 53/53/53 37/37/37
f 45/45/45 54/54/54 43/43/43
f 54/54/54 55/55/55 43/43/43
f 43/43/43 55/55/55 41/41/41
f 56/56/56 54/54/54 45/45/45
f 47/47/47 56/56/56 45/45/45
f 57/57/57 56/56/56 47/47/47
f 58/58/58 57/57/57 47/47/47
f 58/58/58 47/47/47 59/59/59
f 47/47/47 60/60/60 59/59/59
f 59/59/59 60/60/60 61/61/61
f 62/62/62 59/59/59 61/61/61
f 63/63/63 59/59/59 62/62/62
f 59/59/59 63/63/63 58/58/58
f 64/64/64 63/63/63 62/62/62
f 58/58/58 63/63/63 65/65/65
f 65/65/65 63/63/63 64/64/64
f 66/66/66 58/58/58 65/65/65
f 67/67/67 65/65/65 64/64/64
f 68/68/68 57/57/57 58/58/58
f 66/66/66 68/68/68 58/58/58
f 69/69/69 68/68/68 66/66/66
f 36/36/36 69/69/69 66/66/66
f 69/69/69 36/36/36 70/70/70
f 36/36/36 37/37/37 70/70/70
f 53/53/53 70/70/70 37/37/37
f 70/70/70 71/71/71 69/69/69
f 71/71/71 72/72/72 69/69/69
f 53/53/53 73/73/73 70/70/70
f 73/73/73 74/74/74 70/70/70
f 75/75/75 73/73/73 53/53/53
f 76/76/76 75/75/75 53/53/53
f 76/76/76 53/53/53 39/39/39
f 41/41/41 76/76/76 39/39/39
f 55/55/55 76/76/76 41/41/41
f 77/77/77 75/75/75 76/76/76
f 55/55/55 77/77/77 76/76/76
f 78/78/78 77/77/77 55/55/55
f 54/54/54 78/78/78 55/55/55
f 79/79/79 78/78/78 54/54/54
f 56/56/56 79/79/79 54/54/54
f 80/80/80 79/79/79 56/56/56
f 57/57/57 80/80/80 56/56/56
f 82/82/82 81/81/81 57/57/57
f 68/68/68 82/82/82 57/57/57
f 84/84/84 83/83/83 68/68/68
f 69/69/69 84/84/84 68/68/68
f 87/87/87 86/86/86 85/85/85
f 88/88/88 87/87/87 85/85/85
f 85/85/85 89/89/89 88/88/88
f 90/90/90 87/87/87 88/88/88
f 91/91/91 90/90/90 88/88/88
f 89/89/89 85/85/85 92/92/92
f 85/85/85 93/93/93 92/92/92
f 96/96/96 95/95/95 94/94/94
f 96/96/96 94/94/94 97/97/97
f 96/96/96 97/97/97 98/98/98
f 96/96/96 98/98/98 99/99/99
f 96/96/96 99/99/99 100/100/100
f 96/96/96 100/100/100 95/95/95
f 101/101/101 98/98/98 97/97/97
f 102/102/102 101/101/101 97/97/97
f 101/101/101 102/102/102 103/103/103
f 103/103/103 102/102/102 104/104/104
f 102/102/102 105/105/105 104/104/104
f 104/104/104 105/105/105 106/106/106
f 105/105/105 107/107/107 106/106/106
f 108/108/108 106/106/106 107/107/107
f 109/109/109 108/108/108 107/107/107
f 109/109/109 100/100/100 99/99/99
f 110/110/110 101/101/101 103/103/103
f 111/111/111 101/101/101 110/110/110
f 111/111/111 99/99/99 98/98/98
f 101/101/101 111/111/111 98/98/98
f 111/111/111 109/109/109 99/99/99
f 112/112/112 111/111/111 110/110/110
f 109/109/109 111/111/111 112/112/112
f 108/108/108 109/109/109 112/112/112
f 102/102/102 97/97/97 113/113/113
f 114/114/114 102/102/102 113/113/113
f 114/114/114 113/113/113 115/115/115
f 116/116/116 114/114/114 115/115/115
f 117/117/117 104/104/104 106/106/106
f 117/117/117 103/103/103 104/104/104
f 117/117/117 110/110/110 103/103/103
f 117/117/117 112/112/112 110/110/110
f 117/117/117 108/108/108 112/112/112
f 117/117/117 106/106/106 108/108/108
f 109/109/109 118/118/118 100/100/100
f 118/118/118 119/119/119 100/100/100
f 122/122/122 121/121/121 120/120/120
f 122/122/122 120/120/120 123/123/123
f 122/122/122 123/123/123 124/124/124
f 122/122/122 124/124/124 125/125/125
f 122/122/122 125/125/125 126/126/126
f 122/122/122 126/126/126 121/121/121
f 127/127/127 124/124/124 123/123/123
f 128/128/128 127/127/127 123/123/123
f 127/127/127 128/128/128 129/129/129
f 129/129/129 128/128/128 130/130/130
f 128/128/128 131/131/131 130/130/130
f 130/130/130 131/131/131 132/132/132
f 131/131/131 133/133/133 132/132/132
f 134/134/134 132/132/132 133/133/133
f 135/135/135 134/134/134 133/133/133
f 135/135/135 126/126/126 125/125/125
f 136/136/136 127/127/127 129/129/129
f 137/137/137 127/127/127 136/136/136
f 137/137/137 125/125/125 124/124/124
f 127/127/127 137/137/137 124/124/124
f 137/137/137 135/135/135 125/125/125
f 138/138/138 137/137/137 136/136/136
f 135/135/135 137/137/137 138/138/138
f 134/134/134 135/135/135 138/138/138
f 128/128/128 123/123/123 139/139/139
f 140/140/140 128/128/128 139/139/139
f 140/140/140 139/139/139 141/141/141
f 142/142/142 140/140/140 141/141/141
f 143/143/143 130/130/130 132/132/132
f 143/143/143 129/129/129 130/130/130
f 143/143/143 136/136/136 129/129/129
f 143/143/143 138/138/138 136/136/136
f 143/143/143 134/134/134 138/138/138
f 143/143/143 132/132/132 134/134/134
f 135/135/135 144/144/144 126/126/126
f 144/144/144 145/145/145 126/126/126
