g m_dlc08_popcorn_02
v -0.2655717 0.04269317 -0.009069757
v -0.2805296 -0.004644435 -0.2795568
v -0.3169029 0.03117397 -0.2879858
v -0.300493 0.07475709 -0.01455437
v -0.2817247 0.0270277 -0.3216527
v -0.3559184 0.2376022 -0.2495336
v -0.3136906 0.2301622 -0.3069567
v -0.3181401 0.2579913 0.02698493
v -0.3362156 0.3948918 -0.0375866
v -0.3129576 0.5469758 -0.4302965
v -0.3136906 0.2301622 -0.3069567
v -0.2711631 0.5468117 -0.4568078
v -0.3585569 0.1260567 0.2791077
v -0.3659397 0.2692639 0.2918165
v -0.3856016 0.3402916 0.2729066
v -0.3438847 0.4202265 0.314087
v -0.3114463 0.09048963 0.2818909
v -0.3538646 0.528567 -0.1006347
v -0.3438847 0.4202265 0.314087
v -0.4291776 0.5627154 0.2885401
v -0.3973802 0.7202151 -0.01649651
v -0.3129576 0.5469758 -0.4302965
v -0.416873 0.7929555 -0.3744909
v -0.3698905 0.8274935 -0.373109
v -0.3588347 0.7511638 -0.01204705
v -0.2711631 0.5468117 -0.4568078
v -0.3683506 0.7900948 -0.4203344
v -0.2918803 0.7457207 -0.009641046
v -0.3123094 0.8127693 -0.3142614
v -0.281154 0.7834825 -0.2832812
v -0.2544725 0.7087564 -0.01168572
v -0.1943638 0.1642924 -0.02258904
v -0.2092027 0.1392883 -0.2257397
v -0.4161918 0.7201279 0.3878382
v -0.3795738 0.7484504 0.395055
v -0.3162022 0.75048 0.3314674
v -0.2847068 0.7275983 0.2957557
v -0.2092381 0.1946719 0.2022071
v 0.001786088 0.1257036 0.2993055
v 0.2868312 0.1363759 0.3523511
v 0.2851894 0.08694343 0.3060328
v 0.002564897 0.09240383 0.2698524
v 0.05430501 0.2911338 0.3121485
v 0.3284169 0.2864451 0.3357569
v -0.3409935 0.3310169 0.2933399
v -0.3243467 0.2733043 0.3286817
v -0.3147026 0.1327509 0.3225709
v -0.3585569 0.1260567 0.2791077
v -0.3114463 0.09048963 0.2818909
v -0.3659397 0.2692639 0.2918165
v -0.3856016 0.3402916 0.2729066
v -0.4291776 0.5627154 0.2885401
v -0.4161918 0.7201279 0.3878382
v -0.38124 0.7146769 0.4259425
v -0.4115928 0.5742961 0.3312916
v -0.3795738 0.7484504 0.395055
v -0.119279 0.6782473 0.3996497
v -0.1125328 0.7121255 0.3709827
v 0.3861696 0.633314 0.4229652
v 0.3940505 0.6678699 0.3928785
v 0.2509743 0.4661229 0.3561585
v -0.0756486 0.5364132 0.3596375
v -0.105858 0.7189252 0.2999806
v 0.3317629 0.6831865 0.3300098
v -0.1053874 0.6951075 0.2640198
v 0.295884 0.6672536 0.2940638
v 0.003349809 0.1957164 0.1851734
v 0.2226101 0.1960264 0.2021314
v 0.3284169 0.2864451 0.3357569
v 0.01415181 0.3534882 0.3180079
v -0.2847068 0.7275983 0.2957557
v -0.2092381 0.1946719 0.2022071
v -0.3162022 0.75048 0.3314674
v -0.2938774 0.4422395 0.3626209
v -0.4115928 0.5742961 0.3312916
v -0.3438847 0.4202265 0.314087
v -0.4291776 0.5627154 0.2885401
v 0.05430501 0.2911338 0.3121485
v -0.3409935 0.3310169 0.2933399
v -0.3438847 0.4202265 0.314087
v -0.3856016 0.3402916 0.2729066
v 0.3138027 0.07462642 -0.01403924
v 0.3334706 0.03476696 -0.3248766
v 0.2906887 -0.006982082 -0.3152086
v 0.2789882 0.04269317 -0.009069757
v 0.002564897 -0.002438014 -0.262661
v 0.002788896 0.04161609 -0.008072442
v 0.3233248 0.2503088 -0.07413568
v 0.2923592 0.2214562 -0.3296581
v -0.2805296 -0.004644435 -0.2795568
v -0.2655717 0.04269317 -0.009069757
v 0.3389663 0.1278139 0.3030469
v 0.3582277 0.2831147 0.2978382
v 0.2868312 0.1363759 0.3523511
v 0.2851894 0.08694343 0.3060328
v 0.3284169 0.2864451 0.3357569
v 0.3086244 0.4580152 0.3126075
v 0.3284169 0.2864451 0.3357569
v 0.2509743 0.4661229 0.3561585
v 0.344767 0.4575517 0.01426276
v 0.3994655 0.3593774 -0.3357018
v 0.2923592 0.2214562 -0.3296581
v 0.002564897 0.09240383 0.2698524
v -0.3114463 0.09048963 0.2818909
v 0.3834828 0.4894569 -0.2658849
v 0.2509743 0.4661229 0.3561585
v 0.3861696 0.633314 0.4229652
v 0.4243215 0.6344814 0.3879847
v 0.3086244 0.4580152 0.3126075
v 0.3940505 0.6678699 0.3928785
v 0.4099196 0.6709598 -0.01368157
v 0.3715651 0.7167574 -0.01121331
v 0.4290498 0.7067901 -0.3800365
v 0.3991555 0.7425224 -0.3813818
v 0.4523586 0.541998 -0.3260717
v 0.3834828 0.4894569 -0.2658849
v 0.344767 0.4575517 0.01426276
v 0.3045131 0.7175125 -0.008643731
v 0.3357839 0.7456767 -0.3178405
v 0.2682418 0.6939093 -0.01000237
v 0.2994374 0.7232256 -0.2860851
v 0.2077651 0.1683151 -0.02298821
v 0.2225844 0.141746 -0.2260595
v 0.295884 0.6672536 0.2940638
v 0.2226101 0.1960264 0.2021314
v 0.3317629 0.6831865 0.3300098
v 0.3945204 0.7161564 -0.4175316
v 0.4257717 0.554616 -0.3659801
v 0.4523586 0.541998 -0.3260717
v 0.4290498 0.7067901 -0.3800365
v 0.3991555 0.7425224 -0.3813818
v 0.3355983 0.497775 -0.3314281
v 0.3834828 0.4894569 -0.2658849
v 0.1556661 0.6993718 -0.4474865
v 0.05251363 0.4993836 -0.3859801
v 0.02863179 0.5964516 -0.3887475
v -0.2711631 0.5468117 -0.4568078
v -0.05003886 0.2270768 -0.3290856
v -0.3136906 0.2301622 -0.3069567
v -0.09327006 0.7188786 -0.3990844
v -0.3683506 0.7900948 -0.4203344
v 0.2536714 0.2218444 -0.3576598
v 0.003321733 0.02878589 -0.3030382
v 0.2936305 0.02922138 -0.3646252
v 0.002564897 -0.002438014 -0.262661
v 0.2906887 -0.006982082 -0.3152086
v 0.3334706 0.03476696 -0.3248766
v 0.2923592 0.2214562 -0.3296581
v -0.2805296 -0.004644435 -0.2795568
v -0.2817247 0.0270277 -0.3216527
v -0.3136906 0.2301622 -0.3069567
v -0.09111186 0.7488011 -0.3608434
v 0.01774129 0.6684947 -0.3575915
v 0.0130721 0.6967314 -0.3214416
v -0.3698905 0.8274935 -0.373109
v -0.09046794 0.7443362 -0.2941027
v -0.3123094 0.8127693 -0.3142614
v -0.09289835 0.7179072 -0.2643676
v -0.281154 0.7834825 -0.2832812
v -0.2092027 0.1392883 -0.2257397
v -0.001808272 0.4097942 -0.2176879
v 0.003349809 0.1436806 -0.2104894
v 0.1559273 0.6975375 -0.3146777
v 0.2225844 0.141746 -0.2260595
v 0.2994374 0.7232256 -0.2860851
v 0.1583559 0.723961 -0.3445348
v 0.3357839 0.7456767 -0.3178405
v 0.1575777 0.7269362 -0.4101049
v 0.0130721 0.6967314 -0.3214416
v 0.01774129 0.6684947 -0.3575915
v -0.006720381 0.6631953 -0.2245409
v 0.001226396 0.6914523 -0.2537804
v 0.2225844 0.141746 -0.2260595
v 0.2077651 0.1683151 -0.02298821
v 0.003556108 0.1744965 -0.02358514
v 0.003349809 0.1436806 -0.2104894
v -0.1943638 0.1642924 -0.02258904
v -0.2092027 0.1392883 -0.2257397
v 0.003349809 0.1957164 0.1851734
v -0.2092381 0.1946719 0.2022071
v 0.2226101 0.1960264 0.2021314
v 0.2923592 0.2214562 -0.3296581
v 0.3994655 0.3593774 -0.3357018
v 0.3692385 0.3606317 -0.3743652
v 0.3355983 0.497775 -0.3314281
v 0.3834828 0.4894569 -0.2658849
vt 0.6054688 0.4614258
vt 0.6083984 0.4519043
vt 0.6064453 0.451416
vt 0.6035156 0.4609375
vt 0.6074219 0.4499512
vt 0.5986328 0.4516602
vt 0.5996094 0.4492188
vt 0.5966797 0.4614258
vt 0.5917969 0.4584961
vt 0.5893555 0.4431152
vt 0.5996094 0.4492188
vt 0.5898438 0.4414063
vt 0.6000977 0.4714355
vt 0.5947266 0.4711914
vt 0.5922852 0.4702148
vt 0.5888672 0.4709473
vt 0.6020508 0.4716797
vt 0.5874023 0.4553223
vt 0.5888672 0.4709473
vt 0.5830078 0.4689941
vt 0.5791016 0.4570313
vt 0.5893555 0.4431152
vt 0.5800781 0.4440918
vt 0.578125 0.4433594
vt 0.5771484 0.4567871
vt 0.5898438 0.4414063
vt 0.5805664 0.4418945
vt 0.574707 0.456543
vt 0.5761719 0.4453125
vt 0.574707 0.4462891
vt 0.5722656 0.4562988
vt 0.5522461 0.4550781
vt 0.5517578 0.4477539
vt 0.5766602 0.4716797
vt 0.5751953 0.4716797
vt 0.5732422 0.4689941
vt 0.5722656 0.4675293
vt 0.5527344 0.4631348
vt 0.5458984 0.4873047
vt 0.543457 0.4975586
vt 0.5458984 0.4978027
vt 0.5478516 0.4875488
vt 0.5395508 0.487793
vt 0.5375977 0.4978027
vt 0.5410156 0.4731445
vt 0.543457 0.4746094
vt 0.5478516 0.4758301
vt 0.5493164 0.4741211
vt 0.550293 0.4763184
vt 0.5439453 0.4726563
vt 0.5410156 0.4714355
vt 0.5336914 0.4677734
vt 0.5263672 0.4677734
vt 0.5263672 0.4694824
vt 0.5322266 0.4689941
vt 0.5249023 0.4689941
vt 0.5258789 0.4790039
vt 0.5244141 0.4790039
vt 0.5249023 0.4975586
vt 0.5229492 0.4978027
vt 0.5317383 0.4936523
vt 0.53125 0.4814453
vt 0.5214844 0.479248
vt 0.5209961 0.4951172
vt 0.5200195 0.479248
vt 0.5195313 0.4938965
vt 0.5014648 0.4833984
vt 0.5019531 0.4914551
vt 0.5375977 0.4978027
vt 0.5375977 0.4858398
vt 0.5209961 0.4726563
vt 0.5014648 0.4755859
vt 0.5224609 0.4714355
vt 0.5361328 0.4743652
vt 0.5322266 0.4689941
vt 0.5375977 0.472168
vt 0.5336914 0.4677734
vt 0.5395508 0.487793
vt 0.5410156 0.4731445
vt 0.5375977 0.472168
vt 0.5410156 0.4714355
vt 0.5297852 0.4208984
vt 0.5283203 0.4094238
vt 0.5258789 0.4099121
vt 0.527832 0.4211426
vt 0.5161133 0.4138184
vt 0.5180664 0.4228516
vt 0.5366211 0.418457
vt 0.5351563 0.4091797
vt 0.5058594 0.4147949
vt 0.5083008 0.4245605
vt 0.5322266 0.4321289
vt 0.5375977 0.4321289
vt 0.5317383 0.4345703
vt 0.5297852 0.4326172
vt 0.5375977 0.4338379
vt 0.5439453 0.4335938
vt 0.5375977 0.4338379
vt 0.5439453 0.4362793
vt 0.5444336 0.4221191
vt 0.5410156 0.4089355
vt 0.5351563 0.4091797
vt 0.5195313 0.4331055
vt 0.5083008 0.4353027
vt 0.5454102 0.4116211
vt 0.5439453 0.4362793
vt 0.5522461 0.4365234
vt 0.5522461 0.4348145
vt 0.5439453 0.4335938
vt 0.5537109 0.4353027
vt 0.5522461 0.4206543
vt 0.5546875 0.4206543
vt 0.5541992 0.4069824
vt 0.5556641 0.4069824
vt 0.5483398 0.4089355
vt 0.5454102 0.4116211
vt 0.5444336 0.4221191
vt 0.5571289 0.4208984
vt 0.5576172 0.409668
vt 0.5585938 0.4211426
vt 0.559082 0.4111328
vt 0.578125 0.4240723
vt 0.5800781 0.416748
vt 0.5576172 0.4318848
vt 0.5751953 0.4318848
vt 0.5561523 0.4331055
vt 0.5307617 0.4030762
vt 0.5249023 0.4038086
vt 0.5239258 0.4052734
vt 0.5307617 0.4047852
vt 0.5322266 0.4038086
vt 0.5224609 0.4006348
vt 0.5209961 0.4035645
vt 0.5317383 0.3950195
vt 0.5258789 0.3896484
vt 0.5297852 0.3894043
vt 0.5283203 0.3776855
vt 0.515625 0.3840332
vt 0.5166016 0.3742676
vt 0.5341797 0.3845215
vt 0.5366211 0.3740234
vt 0.5131836 0.3947754
vt 0.5078125 0.3845215
vt 0.5063477 0.3945313
vt 0.5058594 0.3840332
vt 0.5043945 0.3942871
vt 0.5053711 0.3964844
vt 0.5126953 0.3964844
vt 0.5078125 0.3740234
vt 0.5097656 0.3742676
vt 0.5166016 0.3742676
vt 0.5361328 0.3845215
vt 0.5336914 0.3894043
vt 0.5356445 0.3894043
vt 0.5385742 0.3742676
vt 0.5380859 0.3852539
vt 0.5395508 0.3769531
vt 0.5395508 0.3857422
vt 0.5405273 0.378418
vt 0.5610352 0.3876953
vt 0.5493164 0.3920898
vt 0.5585938 0.3947754
vt 0.5371094 0.3955078
vt 0.5571289 0.4023438
vt 0.5361328 0.4008789
vt 0.5356445 0.3955078
vt 0.5351563 0.4020996
vt 0.5332031 0.3952637
vt 0.5356445 0.3894043
vt 0.5336914 0.3894043
vt 0.5405273 0.3894043
vt 0.5385742 0.3894043
vt 0.5800781 0.416748
vt 0.578125 0.4240723
vt 0.5854492 0.4262695
vt 0.5874023 0.4196777
vt 0.5922852 0.4284668
vt 0.5952148 0.4216309
vt 0.5830078 0.4335938
vt 0.590332 0.4365234
vt 0.5751953 0.4318848
vt 0.5126953 0.3964844
vt 0.5166016 0.401123
vt 0.5175781 0.3996582
vt 0.5224609 0.4006348
vt 0.5209961 0.4035645
vn -0.09774314 -0.981584 0.1641314
vn -0.1104379 -0.9927516 0.04741194
vn -0.9623349 -0.2682094 -0.04444435
vn -0.9570821 -0.2889873 0.02191625
vn -0.1027255 -0.1810097 -0.9781017
vn -0.9981452 -0.04947367 -0.03547465
vn -0.1858873 -0.03618228 -0.9819047
vn -0.9978123 -0.03519903 -0.05596099
vn -0.9955492 -0.08845868 -0.03250918
vn -0.9477124 -0.09620861 -0.304278
vn -0.1207522 -0.3425209 -0.9317179
vn 0.01087557 -0.1241641 -0.9922022
vn -0.9727374 -0.2230857 -0.06336298
vn -0.9936448 -0.08647981 -0.07205006
vn -0.9942872 -0.009195463 -0.1063409
vn -0.9919201 0.01500072 0.1259742
vn -0.1055688 -0.9612547 0.2546464
vn -0.9655087 -0.2447869 -0.08872581
vn -0.9215557 -0.3849507 0.05047901
vn -0.9837964 -0.1729712 -0.04717805
vn -0.9971174 0.03655394 -0.06648896
vn -0.9352096 -0.2752062 -0.2228105
vn -0.9903807 -0.09299757 -0.1024572
vn -0.1388332 0.9870996 -0.07974762
vn -0.2828293 0.9543737 0.09580442
vn 0.01087557 -0.1241641 -0.9922022
vn -0.005563082 0.2527502 -0.9675156
vn 0.3135005 0.9451103 0.0921087
vn 0.2087077 0.9657447 0.1542024
vn 0.9758965 0.2134369 -0.04550572
vn 0.9871517 0.1597805 0.001312356
vn 0.9936537 0.1122136 -0.007781302
vn 0.9913706 0.1071798 -0.07547799
vn -0.9778332 0.2091638 -0.009633061
vn -0.1957535 0.951659 0.2366971
vn 0.1375707 0.9901418 0.02633432
vn 0.9726437 0.2219669 0.06852016
vn 0.9903761 0.1175438 0.0730667
vn -0.01578404 -0.1306361 0.9913048
vn -0.0281118 -0.120711 0.9922896
vn 0.0908813 -0.9625162 0.2555446
vn -0.01152374 -0.9661908 0.2575701
vn -0.04041189 0.05053044 0.9979045
vn 0.05353843 0.02221964 0.9983186
vn 0.001193849 0.0617559 0.9980906
vn -0.01311392 0.04262123 0.9990053
vn -0.02886116 -0.09579017 0.9949831
vn -0.9727374 -0.2230857 -0.06336298
vn -0.1055688 -0.9612547 0.2546464
vn -0.9936448 -0.08647981 -0.07205006
vn -0.9942872 -0.009195463 -0.1063409
vn -0.9837964 -0.1729712 -0.04717805
vn -0.9778332 0.2091638 -0.009633061
vn -0.09177841 -0.2367149 0.9672346
vn -0.2236492 -0.4175055 0.8807214
vn -0.1957535 0.951659 0.2366971
vn -0.03264164 -0.1481574 0.9884249
vn 0.09491411 0.8981979 0.4292223
vn 0.07764287 -0.1042113 0.9915199
vn 0.3141354 0.8841423 0.3458486
vn -0.001126338 -0.272582 0.9621318
vn -0.04072551 -0.2371429 0.9706207
vn 0.1000543 0.9887654 -0.11105
vn 0.03829938 0.9970415 0.06664345
vn -0.006171924 0.2249825 -0.9743432
vn 0.08892702 0.2900757 -0.952863
vn 0.01739028 0.1658487 -0.9859978
vn 0.08210274 0.1756105 -0.9810301
vn 0.1555416 -0.1007386 0.9826792
vn -0.04374152 -0.2375764 0.9703835
vn -0.09325126 0.2466443 -0.9646091
vn -0.1107725 0.1444419 -0.9832934
vn 0.1375707 0.9901418 0.02633432
vn -0.05676654 -0.1648729 0.9846799
vn -0.2497172 -0.1573232 0.9554531
vn -0.9215557 -0.3849507 0.05047901
vn -0.9837964 -0.1729712 -0.04717805
vn -0.0575447 -0.3048829 0.9506498
vn -0.1417127 -0.3683945 0.9188052
vn -0.9919201 0.01500072 0.1259742
vn -0.9942872 -0.009195463 -0.1063409
vn 0.9761405 -0.2166073 -0.01519873
vn 0.9899065 -0.09546287 -0.1047472
vn 0.1163153 -0.9928802 0.02568654
vn 0.1157644 -0.980492 0.1588524
vn -0.003281025 -0.9985011 0.05463281
vn -0.001835731 -0.9860578 0.1663929
vn 0.9941619 -0.1072407 0.01190009
vn 0.9821631 0.09635386 -0.1614665
vn -0.1104379 -0.9927516 0.04741194
vn -0.09774314 -0.981584 0.1641314
vn 0.9671122 -0.2499856 0.04691849
vn 0.9983139 0.0001349422 0.05804574
vn -0.0281118 -0.120711 0.9922896
vn 0.0908813 -0.9625162 0.2555446
vn 0.05353843 0.02221964 0.9983186
vn 0.9864291 0.09663153 0.1327397
vn 0.1555416 -0.1007386 0.9826792
vn -0.001126338 -0.272582 0.9621318
vn 0.9980611 -0.05029626 0.03666289
vn 0.9663666 -0.2558963 -0.02554625
vn 0.9087172 -0.4172097 -0.01300098
vn -0.01152374 -0.9661908 0.2575701
vn -0.1055688 -0.9612547 0.2546464
vn 0.9905591 0.1338766 -0.02949282
vn -0.001126338 -0.272582 0.9621318
vn 0.07764287 -0.1042113 0.9915199
vn 0.9651139 -0.2357678 0.1138797
vn 0.8792465 -0.465907 0.09927814
vn 0.3141354 0.8841423 0.3458486
vn 0.9917393 -0.09291065 0.08843529
vn 0.4201825 0.9029923 0.08973005
vn 0.9982482 0.03687034 0.04627142
vn 0.3731493 0.9241379 -0.08202804
vn 0.9680987 -0.2378878 0.07870444
vn 0.9666874 -0.2266729 0.1188897
vn 0.9436281 -0.3244099 0.06575995
vn -0.1641197 0.9819925 0.0935702
vn -0.05281119 0.9963778 0.06665103
vn -0.9826417 0.1854574 -0.00456747
vn -0.9703756 0.2274064 -0.08159354
vn -0.9924401 0.1216657 -0.01612654
vn -0.988458 0.1186112 -0.0942454
vn -0.9682065 0.2336247 0.08941858
vn -0.989072 0.1243788 0.07916238
vn 0.03829938 0.9970415 0.06664345
vn 0.1150969 -0.2107806 -0.9707338
vn 0.1604968 -0.3774785 -0.9120037
vn 0.9680987 -0.2378878 0.07870444
vn 0.9982482 0.03687034 0.04627142
vn 0.3731493 0.9241379 -0.08202804
vn 0.08720214 -0.3857478 -0.918474
vn 0.9666874 -0.2266729 0.1188897
vn 0.03568967 -0.23244 -0.9719558
vn 0.05474477 -0.2085503 -0.9764782
vn 0.1176056 -0.07884395 -0.9899255
vn 0.01087557 -0.1241641 -0.9922022
vn -0.01978517 -0.1903447 -0.981518
vn -0.1207522 -0.3425209 -0.9317179
vn 0.2049374 0.2377621 -0.9494577
vn -0.005563082 0.2527502 -0.9675156
vn -0.04083983 -0.1232969 -0.9915291
vn -0.0877187 -0.2436023 -0.9659004
vn -0.0337774 -0.2140871 -0.9762304
vn -0.003281025 -0.9985011 0.05463281
vn 0.1163153 -0.9928802 0.02568654
vn 0.9899065 -0.09546287 -0.1047472
vn 0.9821631 0.09635386 -0.1614665
vn -0.1104379 -0.9927516 0.04741194
vn -0.1027255 -0.1810097 -0.9781017
vn -0.1858873 -0.03618228 -0.9819047
vn 0.3398763 0.8953739 -0.287732
vn 0.506426 0.5530761 -0.6615433
vn 0.4988075 0.8501329 -0.1687162
vn -0.1388332 0.9870996 -0.07974762
vn 0.3043604 0.9203886 0.2454576
vn 0.2087077 0.9657447 0.1542024
vn -0.09902769 0.1157752 0.9883267
vn -0.07307216 0.1610282 0.9842409
vn -0.1046242 0.07530107 0.991657
vn -0.02228919 0.1003343 0.9947041
vn -0.02515304 0.1034891 0.9943125
vn 0.08520389 0.1773369 0.980455
vn 0.0577567 0.1320469 0.9895594
vn 0.03607393 0.1966378 0.9798124
vn -0.1087908 0.9804725 0.1638236
vn -0.05281119 0.9963778 0.06665103
vn -0.1662678 0.932595 -0.320346
vn -0.279979 0.951826 -0.1250563
vn -0.5358523 0.5340506 -0.6539512
vn 0.1682043 0.1295217 0.977206
vn 0.1948811 0.8772174 0.4387607
vn 0.01383259 0.989326 -0.1450613
vn 0.01625288 0.9916291 -0.1280921
vn -0.00719674 0.9916585 -0.1286915
vn -0.007930106 0.9897161 -0.1428252
vn -0.03142387 0.9911027 -0.1293369
vn -0.03031349 0.9896231 -0.1404537
vn -0.006633389 0.9932343 -0.1159377
vn -0.03242841 0.9923368 -0.1192309
vn 0.0184448 0.9934622 -0.1126613
vn 0.9087172 -0.4172097 -0.01300098
vn 0.9663666 -0.2558963 -0.02554625
vn 0.1347748 -0.07156552 -0.9882885
vn 0.3678479 0.362351 -0.8563818
vn 0.9905591 0.1338766 -0.02949282
g m_dlc08_popcorn_02_0
f 3/3/3 2/2/2 1/1/1
f 4/4/4 3/3/3 1/1/1
f 5/5/5 2/2/2 3/3/3
f 5/5/5 3/3/3 6/6/6
f 7/7/7 5/5/5 6/6/6
f 8/8/8 6/6/6 3/3/3
f 4/4/4 8/8/8 3/3/3
f 8/8/8 9/9/9 6/6/6
f 9/9/9 10/10/10 6/6/6
f 11/11/11 6/6/6 10/10/10
f 12/12/12 11/11/11 10/10/10
f 8/8/8 4/4/4 13/13/13
f 13/13/13 14/14/14 8/8/8
f 14/14/14 15/15/15 8/8/8
f 8/8/8 15/15/15 16/16/16
f 9/9/9 8/8/8 16/16/16
f 4/4/4 1/1/1 17/17/17
f 13/13/13 4/4/4 17/17/17
f 9/9/9 18/18/18 10/10/10
f 18/18/18 9/9/9 19/19/19
f 20/20/20 18/18/18 19/19/19
f 18/18/18 20/20/20 21/21/21
f 18/18/18 21/21/21 22/22/22
f 21/21/21 23/23/23 22/22/22
f 24/24/24 23/23/23 21/21/21
f 25/25/25 24/24/24 21/21/21
f 26/26/26 22/22/22 23/23/23
f 27/27/27 26/26/26 23/23/23
f 23/23/23 24/24/24 27/27/27
f 25/25/25 28/28/28 24/24/24
f 28/28/28 29/29/29 24/24/24
f 30/30/30 29/29/29 28/28/28
f 31/31/31 30/30/30 28/28/28
f 31/31/31 32/32/32 30/30/30
f 32/32/32 33/33/33 30/30/30
f 20/20/20 34/34/34 21/21/21
f 25/25/25 21/21/21 34/34/34
f 35/35/35 25/25/25 34/34/34
f 25/25/25 35/35/35 28/28/28
f 35/35/35 36/36/36 28/28/28
f 31/31/31 28/28/28 36/36/36
f 37/37/37 31/31/31 36/36/36
f 31/31/31 37/37/37 32/32/32
f 37/37/37 38/38/38 32/32/32
f 41/41/41 40/40/40 39/39/39
f 42/42/42 41/41/41 39/39/39
f 39/39/39 40/40/40 43/43/43
f 40/40/40 44/44/44 43/43/43
f 39/39/39 43/43/43 45/45/45
f 45/45/45 46/46/46 39/39/39
f 46/46/46 47/47/47 39/39/39
f 42/42/42 39/39/39 47/47/47
f 47/47/47 46/46/46 48/48/48
f 47/47/47 48/48/48 49/49/49
f 49/49/49 42/42/42 47/47/47
f 46/46/46 50/50/50 48/48/48
f 51/51/51 50/50/50 46/46/46
f 45/45/45 51/51/51 46/46/46
f 54/54/54 53/53/53 52/52/52
f 55/55/55 54/54/54 52/52/52
f 54/54/54 56/56/56 53/53/53
f 54/54/54 57/57/57 56/56/56
f 57/57/57 54/54/54 55/55/55
f 57/57/57 58/58/58 56/56/56
f 57/57/57 59/59/59 58/58/58
f 59/59/59 60/60/60 58/58/58
f 61/61/61 59/59/59 57/57/57
f 62/62/62 61/61/61 57/57/57
f 62/62/62 57/57/57 55/55/55
f 58/58/58 60/60/60 63/63/63
f 58/58/58 63/63/63 56/56/56
f 60/60/60 64/64/64 63/63/63
f 63/63/63 64/64/64 65/65/65
f 64/64/64 66/66/66 65/65/65
f 65/65/65 66/66/66 67/67/67
f 66/66/66 68/68/68 67/67/67
f 69/69/69 61/61/61 62/62/62
f 70/70/70 69/69/69 62/62/62
f 65/65/65 67/67/67 71/71/71
f 63/63/63 65/65/65 71/71/71
f 67/67/67 72/72/72 71/71/71
f 73/73/73 63/63/63 71/71/71
f 63/63/63 73/73/73 56/56/56
f 70/70/70 62/62/62 74/74/74
f 62/62/62 75/75/75 74/74/74
f 74/74/74 75/75/75 76/76/76
f 75/75/75 77/77/77 76/76/76
f 78/78/78 70/70/70 74/74/74
f 70/70/70 78/78/78 69/69/69
f 79/79/79 78/78/78 74/74/74
f 74/74/74 80/80/80 79/79/79
f 80/80/80 81/81/81 79/79/79
f 84/84/84 83/83/83 82/82/82
f 85/85/85 84/84/84 82/82/82
f 86/86/86 84/84/84 85/85/85
f 87/87/87 86/86/86 85/85/85
f 82/82/82 83/83/83 88/88/88
f 83/83/83 89/89/89 88/88/88
f 86/86/86 87/87/87 90/90/90
f 87/87/87 91/91/91 90/90/90
f 82/82/82 88/88/88 92/92/92
f 85/85/85 82/82/82 92/92/92
f 88/88/88 93/93/93 92/92/92
f 92/92/92 93/93/93 94/94/94
f 94/94/94 95/95/95 92/92/92
f 95/95/95 85/85/85 92/92/92
f 93/93/93 96/96/96 94/94/94
f 93/93/93 88/88/88 97/97/97
f 93/93/93 97/97/97 98/98/98
f 97/97/97 99/99/99 98/98/98
f 88/88/88 100/100/100 97/97/97
f 101/101/101 100/100/100 88/88/88
f 102/102/102 101/101/101 88/88/88
f 87/87/87 103/103/103 91/91/91
f 85/85/85 95/95/95 103/103/103
f 87/87/87 85/85/85 103/103/103
f 103/103/103 104/104/104 91/91/91
f 105/105/105 100/100/100 101/101/101
f 108/108/108 107/107/107 106/106/106
f 109/109/109 108/108/108 106/106/106
f 108/108/108 110/110/110 107/107/107
f 108/108/108 111/111/111 110/110/110
f 111/111/111 108/108/108 109/109/109
f 111/111/111 112/112/112 110/110/110
f 111/111/111 113/113/113 112/112/112
f 113/113/113 114/114/114 112/112/112
f 115/115/115 113/113/113 111/111/111
f 116/116/116 115/115/115 111/111/111
f 111/111/111 117/117/117 116/116/116
f 117/117/117 111/111/111 109/109/109
f 112/112/112 114/114/114 118/118/118
f 112/112/112 118/118/118 110/110/110
f 114/114/114 119/119/119 118/118/118
f 118/118/118 119/119/119 120/120/120
f 119/119/119 121/121/121 120/120/120
f 120/120/120 121/121/121 122/122/122
f 121/121/121 123/123/123 122/122/122
f 120/120/120 122/122/122 124/124/124
f 118/118/118 120/120/120 124/124/124
f 122/122/122 125/125/125 124/124/124
f 126/126/126 118/118/118 124/124/124
f 118/118/118 126/126/126 110/110/110
f 129/129/129 128/128/128 127/127/127
f 130/130/130 129/129/129 127/127/127
f 127/127/127 131/131/131 130/130/130
f 132/132/132 128/128/128 129/129/129
f 127/127/127 128/128/128 132/132/132
f 133/133/133 132/132/132 129/129/129
f 132/132/132 134/134/134 127/127/127
f 131/131/131 127/127/127 134/134/134
f 132/132/132 135/135/135 134/134/134
f 135/135/135 136/136/136 134/134/134
f 136/136/136 135/135/135 137/137/137
f 135/135/135 138/138/138 137/137/137
f 138/138/138 139/139/139 137/137/137
f 137/137/137 140/140/140 136/136/136
f 137/137/137 141/141/141 140/140/140
f 142/142/142 138/138/138 135/135/135
f 138/138/138 142/142/142 143/143/143
f 142/142/142 144/144/144 143/143/143
f 143/143/143 144/144/144 145/145/145
f 144/144/144 146/146/146 145/145/145
f 144/144/144 147/147/147 146/146/146
f 147/147/147 144/144/144 142/142/142
f 148/148/148 147/147/147 142/142/142
f 143/143/143 145/145/145 149/149/149
f 150/150/150 143/143/143 149/149/149
f 143/143/143 150/150/150 151/151/151
f 138/138/138 143/143/143 151/151/151
f 152/152/152 140/140/140 141/141/141
f 140/140/140 152/152/152 153/153/153
f 152/152/152 154/154/154 153/153/153
f 155/155/155 152/152/152 141/141/141
f 152/152/152 155/155/155 156/156/156
f 152/152/152 156/156/156 154/154/154
f 155/155/155 157/157/157 156/156/156
f 156/156/156 157/157/157 158/158/158
f 157/157/157 159/159/159 158/158/158
f 158/158/158 159/159/159 160/160/160
f 161/161/161 158/158/158 160/160/160
f 160/160/160 162/162/162 161/161/161
f 163/163/163 161/161/161 162/162/162
f 163/163/163 162/162/162 164/164/164
f 164/164/164 165/165/165 163/163/163
f 166/166/166 163/163/163 165/165/165
f 167/167/167 166/166/166 165/165/165
f 166/166/166 167/167/167 131/131/131
f 168/168/168 166/166/166 131/131/131
f 168/168/168 131/131/131 134/134/134
f 169/169/169 168/168/168 134/134/134
f 170/170/170 169/169/169 134/134/134
f 170/170/170 134/134/134 136/136/136
f 163/163/163 171/171/171 161/161/161
f 171/171/171 163/163/163 166/166/166
f 161/161/161 171/171/171 158/158/158
f 172/172/172 166/166/166 168/168/168
f 169/169/169 172/172/172 168/168/168
f 172/172/172 171/171/171 166/166/166
f 158/158/158 171/171/171 172/172/172
f 156/156/156 158/158/158 172/172/172
f 156/156/156 172/172/172 154/154/154
f 140/140/140 153/153/153 136/136/136
f 175/175/175 174/174/174 173/173/173
f 176/176/176 175/175/175 173/173/173
f 175/175/175 176/176/176 177/177/177
f 176/176/176 178/178/178 177/177/177
f 175/175/175 177/177/177 179/179/179
f 175/175/175 179/179/179 174/174/174
f 177/177/177 180/180/180 179/179/179
f 179/179/179 181/181/181 174/174/174
f 184/184/184 183/183/183 182/182/182
f 142/142/142 184/184/184 182/182/182
f 183/183/183 184/184/184 185/185/185
f 186/186/186 183/183/183 185/185/185
f 185/185/185 184/184/184 135/135/135
f 184/184/184 142/142/142 135/135/135
