g m_dlc08_railtrack_middle_02
v -1.2 0.02682775 0.1225038
v -1.2 0.06196269 0.08629745
v 0 0.06196269 0.08629745
v 0 0.02682775 0.1225038
v -1.2 0 0.1887646
v 0 0 0.1887646
v -1.2 0.06810701 0.07495285
v 0 0.06810701 0.07495285
v 0 0.06810701 0.0456044
v -1.2 0.06810703 0.0456044
v 0 0.02682775 -0.1225038
v 0 0.06196269 -0.08629745
v -1.2 0.06196269 -0.08629745
v -1.2 0.02682775 -0.1225038
v 0 0 -0.1887646
v -1.2 0 -0.1887646
v 0 0.06810701 -0.07495285
v -1.2 0.06810701 -0.07495285
v -1.2 0.06810703 -0.04560425
v 0 0.06810701 -0.04560425
v -1.2 0.1394831 0.02550986
v -5.968559E-15 0.1394831 0.02596192
v -5.968559E-15 0.1290037 0.03535212
v -1.2 0.1290037 0.03535212
v -1.2 0.1045484 0.03324729
v -5.968559E-15 0.1045484 0.03324729
v -1.2 0.09054525 0.04109268
v 0 0.09054525 0.04109268
v 0 0.06810701 0.0456044
v -1.2 0.06810703 0.0456044
v -5.968559E-15 0.1394831 -0.02550986
v -1.2 0.1394831 -0.02596191
v -5.968559E-15 0.1290037 -0.03535211
v -1.2 0.1290037 -0.03535211
v -5.968559E-15 0.1045484 -0.03324728
v -1.2 0.1045484 -0.03324728
v 0 0.09054525 -0.04109253
v -1.2 0.09054525 -0.04109253
v -1.2 0.06810703 -0.04560425
v 0 0.06810701 -0.04560425
vt 0.482666 0.5644531
vt 0.4802246 0.5644531
vt 0.4802246 0.6240234
vt 0.482666 0.6240234
vt 0.4863281 0.5644531
vt 0.4863281 0.6240234
vt 0.4797363 0.5644531
vt 0.4797363 0.6240234
vt 0.4782715 0.6240234
vt 0.4782715 0.5644531
vt 0.4770508 0.6298828
vt 0.4743652 0.6298828
vt 0.4743652 0.6894531
vt 0.4770508 0.6894531
vt 0.4804688 0.6298828
vt 0.4804688 0.6894531
vt 0.473877 0.6298828
vt 0.473877 0.6894531
vt 0.4724121 0.6894531
vt 0.4724121 0.6298828
vt 0.4638672 0.6894531
vt 0.4638672 0.6298828
vt 0.4631348 0.6298828
vt 0.4631348 0.6894531
vt 0.4619141 0.6894531
vt 0.4619141 0.6298828
vt 0.4611816 0.6894531
vt 0.4611816 0.6298828
vt 0.4599609 0.6298828
vt 0.4599609 0.6894531
vt 0.4663086 0.6298828
vt 0.4663086 0.6894531
vt 0.467041 0.6298828
vt 0.467041 0.6894531
vt 0.4682617 0.6298828
vt 0.4682617 0.6894531
vt 0.4689941 0.6298828
vt 0.4689941 0.6894531
vt 0.4702148 0.6894531
vt 0.4702148 0.6298828
vn 0 0.8557106 0.5174546
vn 0 0.7551508 0.6555511
vn 0 0.755151 0.6555509
vn 0 0.8557106 0.5174546
vn 0 0.9269084 0.3752876
vn 0 0.9269084 0.3752876
vn 0 0.9887918 0.1493011
vn 0 0.9887919 0.1492999
vn 0 1 2.95084E-07
vn 0 1 2.950839E-07
vn 0 0.8557106 -0.5174546
vn 0 0.755151 -0.6555509
vn 0 0.7551508 -0.6555511
vn 0 0.8557106 -0.5174546
vn 0 0.9269084 -0.3752876
vn 0 0.9269084 -0.3752876
vn 0 0.988792 -0.1492994
vn 0 0.9887918 -0.1493006
vn 0 1 -3.466103E-07
vn 0 1 -3.466103E-07
vn -3.183632E-05 0.9856124 0.1690213
vn -3.18571E-05 0.9855935 0.1691316
vn -5.523911E-05 0.210208 0.9776567
vn -5.523886E-05 0.2102067 0.977657
vn 0 0.1476309 0.9890426
vn 0 0.1476309 0.9890426
vn 0 0.3211356 0.9470332
vn 0 0.321135 0.9470334
vn 0 0.1971273 0.9803779
vn 0 0.1971274 0.9803779
vn 3.183584E-05 0.9856126 -0.1690203
vn 3.185696E-05 0.9855934 -0.1691325
vn 5.523856E-05 0.210208 -0.9776567
vn 5.523832E-05 0.2102067 -0.977657
vn 0 0.1476273 -0.9890431
vn 0 0.1476273 -0.9890431
vn 0 0.3211316 -0.9470346
vn 0 0.3211323 -0.9470344
vn 0 0.1971274 -0.9803779
vn 0 0.1971273 -0.9803779
g m_dlc08_railtrack_middle_02_0
f 3/3/3 2/2/2 1/1/1
f 4/4/4 3/3/3 1/1/1
f 4/4/4 1/1/1 5/5/5
f 6/6/6 4/4/4 5/5/5
f 2/2/2 3/3/3 7/7/7
f 3/3/3 8/8/8 7/7/7
f 8/8/8 9/9/9 7/7/7
f 9/9/9 10/10/10 7/7/7
f 13/13/13 12/12/12 11/11/11
f 14/14/14 13/13/13 11/11/11
f 14/14/14 11/11/11 15/15/15
f 16/16/16 14/14/14 15/15/15
f 17/17/17 12/12/12 13/13/13
f 18/18/18 17/17/17 13/13/13
f 18/18/18 19/19/19 17/17/17
f 19/19/19 20/20/20 17/17/17
f 23/23/23 22/22/22 21/21/21
f 24/24/24 23/23/23 21/21/21
f 23/23/23 24/24/24 25/25/25
f 26/26/26 23/23/23 25/25/25
f 26/26/26 25/25/25 27/27/27
f 28/28/28 26/26/26 27/27/27
f 29/29/29 28/28/28 27/27/27
f 30/30/30 29/29/29 27/27/27
f 22/22/22 31/31/31 21/21/21
f 31/31/31 32/32/32 21/21/21
f 31/31/31 33/33/33 32/32/32
f 33/33/33 34/34/34 32/32/32
f 33/33/33 35/35/35 34/34/34
f 35/35/35 36/36/36 34/34/34
f 36/36/36 35/35/35 37/37/37
f 38/38/38 36/36/36 37/37/37
f 38/38/38 37/37/37 39/39/39
f 37/37/37 40/40/40 39/39/39
