g m_dlc08_gobstopper_02
v 0.03958801 -0.1351607 -0.0395874
v 0.07314819 -0.1034476 -0.07314819
v 0 -0.1034476 -0.1034473
v 0 -0.1351607 -0.05598511
v -0.07314819 -0.1034476 -0.07314819
v -0.0395874 -0.1351607 -0.0395874
v -0.1034473 -0.1034476 0
v -0.05598511 -0.1351607 0
v -0.07314819 -0.1034476 0.07314819
v -0.0395874 -0.1351607 0.0395874
v 0 -0.1034476 0.1034473
v 0 -0.1351607 0.05598511
v 0.07314819 -0.1034476 0.07314819
v 0.03958801 -0.1351607 0.0395874
v 0.1034473 -0.1034476 0
v 0.05598572 -0.1351607 0
v 0.07314819 -0.1034476 -0.07314819
v 0.03958801 -0.1351607 -0.0395874
v -0.09557312 -0.05598541 -0.09557312
v -0.1351605 -0.05598541 0
v -0.09557312 -0.05598541 0.09557312
v 0 -0.05598541 0.1351605
v 0.09557312 -0.05598541 0.09557312
v 0.1351605 -0.05598541 0
v 0.09557312 -0.05598541 -0.09557312
v -0.146297 0 0
v -0.1034473 0 -0.1034473
v 0 -0.05598541 -0.1351605
v 0.09557312 -0.05598541 -0.09557312
v 0 0 -0.146297
v 0.1034473 0 -0.1034473
v -0.1034473 0 0.1034473
v 0 0 0.146297
v 0.1034473 0 0.1034473
v 0.146297 0 0
v 0.1034473 0 -0.1034473
v 0 0.05598541 -0.1351605
v 0.09557312 0.05598541 -0.09557312
v -0.09557312 0.05598541 -0.09557312
v -0.1351605 0.05598541 0
v -0.09557312 0.05598541 0.09557312
v 0 0.05598541 0.1351605
v 0.09557312 0.05598541 0.09557312
v 0.1351605 0.05598541 0
v 0.09557312 0.05598541 -0.09557312
v 0 0.1034476 -0.1034473
v 0.07314819 0.1034476 -0.07314819
v -0.07314819 0.1034476 -0.07314819
v -0.1034473 0.1034476 0
v -0.07314819 0.1034476 0.07314819
v 0 0.1034476 0.1034473
v 0.07314819 0.1034476 0.07314819
v 0.1034473 0.1034476 0
v 0.07314819 0.1034476 -0.07314819
v 0 0.1351605 -0.05598511
v 0.03958801 0.1351605 -0.0395874
v -0.0395874 0.1351605 -0.0395874
v -0.05598511 0.1351605 0
v -0.0395874 0.1351605 0.0395874
v 0 0.1351605 0.05598511
v 0.03958801 0.1351605 0.0395874
v 0.05598572 0.1351605 0
v 0.03958801 0.1351605 -0.0395874
v 0 0.146297 0
v 0 0.146297 0
v 0 0.146297 0
v 0 0.146297 0
v 0 0.146297 0
v 0 0.146297 0
v 0 0.146297 0
v 0 0.146297 0
v 0 -0.1462968 0
v 0 -0.1462968 0
v 0 -0.1462968 0
v 0 -0.1462968 0
v 0 -0.1462968 0
v 0 -0.1462968 0
v 0 -0.1462968 0
v 0 -0.1462968 0
vt 0.3989258 0.4897461
vt 0.3989258 0.4912109
vt 0.4003906 0.4912109
vt 0.4003906 0.4897461
vt 0.4016113 0.4912109
vt 0.4016113 0.4897461
vt 0.402832 0.4912109
vt 0.402832 0.4897461
vt 0.4042969 0.4912109
vt 0.4042969 0.4897461
vt 0.4055176 0.4912109
vt 0.4055176 0.4897461
vt 0.4069824 0.4912109
vt 0.4069824 0.4897461
vt 0.4082031 0.4912109
vt 0.4082031 0.4897461
vt 0.4094238 0.4912109
vt 0.4094238 0.4897461
vt 0.4016113 0.4926758
vt 0.402832 0.4926758
vt 0.4042969 0.4926758
vt 0.4055176 0.4926758
vt 0.4069824 0.4926758
vt 0.4082031 0.4926758
vt 0.4094238 0.4926758
vt 0.402832 0.4938965
vt 0.4016113 0.4938965
vt 0.4003906 0.4926758
vt 0.3989258 0.4926758
vt 0.4003906 0.4938965
vt 0.3989258 0.4938965
vt 0.4042969 0.4938965
vt 0.4055176 0.4938965
vt 0.4069824 0.4938965
vt 0.4082031 0.4938965
vt 0.4094238 0.4938965
vt 0.4003906 0.4953613
vt 0.3989258 0.4953613
vt 0.4016113 0.4953613
vt 0.402832 0.4953613
vt 0.4042969 0.4953613
vt 0.4055176 0.4953613
vt 0.4069824 0.4953613
vt 0.4082031 0.4953613
vt 0.4094238 0.4953613
vt 0.4003906 0.496582
vt 0.3989258 0.496582
vt 0.4016113 0.496582
vt 0.402832 0.496582
vt 0.4042969 0.496582
vt 0.4055176 0.496582
vt 0.4069824 0.496582
vt 0.4082031 0.496582
vt 0.4094238 0.496582
vt 0.4003906 0.4980469
vt 0.3989258 0.4980469
vt 0.4016113 0.4980469
vt 0.402832 0.4980469
vt 0.4042969 0.4980469
vt 0.4055176 0.4980469
vt 0.4069824 0.4980469
vt 0.4082031 0.4980469
vt 0.4094238 0.4980469
vt 0.4042969 0.4995117
vt 0.4042969 0.4995117
vt 0.4042969 0.4995117
vt 0.4042969 0.4995117
vt 0.4042969 0.4995117
vt 0.4042969 0.4995117
vt 0.4042969 0.4995117
vt 0.4042969 0.4995117
vt 0.4042969 0.4885254
vt 0.4042969 0.4885254
vt 0.4042969 0.4885254
vt 0.4042969 0.4885254
vt 0.4042969 0.4885254
vt 0.4042969 0.4885254
vt 0.4042969 0.4885254
vt 0.4042969 0.4885254
vn 0.3508813 -0.868196 -0.3508819
vn 0.5347589 -0.6542665 -0.5347601
vn 0 -0.6542671 -0.7562635
vn -1.937612E-07 -0.8681969 -0.4962198
vn -0.5347588 -0.6542675 -0.5347589
vn -0.3508804 -0.8681969 -0.3508804
vn -0.7562634 -0.6542673 0
vn -0.4962196 -0.868197 0
vn -0.5347588 -0.6542675 0.5347589
vn -0.3508804 -0.8681969 0.3508804
vn 0 -0.6542671 0.7562635
vn -1.937612E-07 -0.8681969 0.4962199
vn 0.5347588 -0.6542665 0.5347601
vn 0.3508813 -0.868196 0.3508819
vn 0.756265 -0.6542654 0
vn 0.4962226 -0.8681953 0
vn 0.5347589 -0.6542665 -0.5347601
vn 0.3508813 -0.868196 -0.3508819
vn -0.6624098 -0.3498944 -0.66241
vn -0.9367891 -0.3498945 0
vn -0.66241 -0.3498944 0.66241
vn 0 -0.3498946 0.9367891
vn 0.6624098 -0.3498944 0.66241
vn 0.9367891 -0.3498945 0
vn 0.6624098 -0.3498944 -0.66241
vn -1 0 0
vn -0.7071068 0 -0.7071068
vn 0 -0.3498946 -0.9367891
vn 0.6624098 -0.3498944 -0.66241
vn 0 0 -1
vn 0.7071068 0 -0.7071068
vn -0.7071068 0 0.7071068
vn 0 0 1
vn 0.7071068 0 0.7071068
vn 1 0 0
vn 0.7071068 0 -0.7071068
vn 0 0.3498946 -0.9367891
vn 0.66241 0.3498943 -0.66241
vn -0.66241 0.3498943 -0.66241
vn -0.9367891 0.3498945 0
vn -0.66241 0.3498943 0.66241
vn 0 0.3498946 0.9367891
vn 0.66241 0.3498943 0.66241
vn 0.9367891 0.3498945 0
vn 0.66241 0.3498943 -0.66241
vn 0 0.6542675 -0.7562631
vn 0.5347586 0.654267 -0.5347597
vn -0.5347586 0.6542679 -0.5347587
vn -0.756263 0.6542677 0
vn -0.5347586 0.6542678 0.5347586
vn 0 0.6542675 0.7562631
vn 0.5347586 0.654267 0.5347598
vn 0.7562647 0.6542659 0
vn 0.5347586 0.654267 -0.5347597
vn -1.872755E-07 0.8681974 -0.4962188
vn 0.3508806 0.8681965 -0.3508812
vn -0.3508797 0.8681974 -0.3508797
vn -0.4962187 0.8681976 0
vn -0.3508798 0.8681974 0.3508797
vn -1.872755E-07 0.8681974 0.4962188
vn 0.3508806 0.8681965 0.3508812
vn 0.4962217 0.8681958 0
vn 0.3508806 0.8681965 -0.3508812
vn -2.743505E-07 1 0
vn -2.743505E-07 1 0
vn -2.743505E-07 1 0
vn -2.743505E-07 1 0
vn -2.743505E-07 1 0
vn -2.743505E-07 1 0
vn -2.743505E-07 1 0
vn -2.743505E-07 1 0
vn -2.551282E-07 -1 0
vn -2.551282E-07 -1 0
vn -2.551282E-07 -1 0
vn -2.551282E-07 -1 0
vn -2.551282E-07 -1 0
vn -2.551282E-07 -1 0
vn -2.551282E-07 -1 0
vn -2.551282E-07 -1 0
g m_dlc08_gobstopper_02_0
f 3/3/3 2/2/2 1/1/1
f 4/4/4 3/3/3 1/1/1
f 5/5/5 3/3/3 4/4/4
f 6/6/6 5/5/5 4/4/4
f 7/7/7 5/5/5 6/6/6
f 8/8/8 7/7/7 6/6/6
f 9/9/9 7/7/7 8/8/8
f 10/10/10 9/9/9 8/8/8
f 11/11/11 9/9/9 10/10/10
f 12/12/12 11/11/11 10/10/10
f 13/13/13 11/11/11 12/12/12
f 14/14/14 13/13/13 12/12/12
f 15/15/15 13/13/13 14/14/14
f 16/16/16 15/15/15 14/14/14
f 17/17/17 15/15/15 16/16/16
f 18/18/18 17/17/17 16/16/16
f 5/5/5 19/19/19 3/3/3
f 20/20/20 19/19/19 5/5/5
f 7/7/7 20/20/20 5/5/5
f 21/21/21 20/20/20 7/7/7
f 9/9/9 21/21/21 7/7/7
f 22/22/22 21/21/21 9/9/9
f 11/11/11 22/22/22 9/9/9
f 23/23/23 22/22/22 11/11/11
f 13/13/13 23/23/23 11/11/11
f 24/24/24 23/23/23 13/13/13
f 15/15/15 24/24/24 13/13/13
f 25/25/25 24/24/24 15/15/15
f 17/17/17 25/25/25 15/15/15
f 20/20/20 26/26/26 19/19/19
f 26/26/26 27/27/27 19/19/19
f 19/19/19 27/27/27 28/28/28
f 19/19/19 28/28/28 3/3/3
f 3/3/3 28/28/28 2/2/2
f 28/28/28 29/29/29 2/2/2
f 28/28/28 30/30/30 29/29/29
f 27/27/27 30/30/30 28/28/28
f 30/30/30 31/31/31 29/29/29
f 32/32/32 26/26/26 20/20/20
f 21/21/21 32/32/32 20/20/20
f 33/33/33 32/32/32 21/21/21
f 22/22/22 33/33/33 21/21/21
f 34/34/34 33/33/33 22/22/22
f 23/23/23 34/34/34 22/22/22
f 35/35/35 34/34/34 23/23/23
f 24/24/24 35/35/35 23/23/23
f 36/36/36 35/35/35 24/24/24
f 25/25/25 36/36/36 24/24/24
f 30/30/30 37/37/37 31/31/31
f 37/37/37 38/38/38 31/31/31
f 39/39/39 37/37/37 30/30/30
f 27/27/27 39/39/39 30/30/30
f 40/40/40 39/39/39 27/27/27
f 26/26/26 40/40/40 27/27/27
f 41/41/41 40/40/40 26/26/26
f 32/32/32 41/41/41 26/26/26
f 42/42/42 41/41/41 32/32/32
f 33/33/33 42/42/42 32/32/32
f 43/43/43 42/42/42 33/33/33
f 34/34/34 43/43/43 33/33/33
f 44/44/44 43/43/43 34/34/34
f 35/35/35 44/44/44 34/34/34
f 45/45/45 44/44/44 35/35/35
f 36/36/36 45/45/45 35/35/35
f 37/37/37 46/46/46 38/38/38
f 46/46/46 47/47/47 38/38/38
f 48/48/48 46/46/46 37/37/37
f 39/39/39 48/48/48 37/37/37
f 49/49/49 48/48/48 39/39/39
f 40/40/40 49/49/49 39/39/39
f 50/50/50 49/49/49 40/40/40
f 41/41/41 50/50/50 40/40/40
f 51/51/51 50/50/50 41/41/41
f 42/42/42 51/51/51 41/41/41
f 52/52/52 51/51/51 42/42/42
f 43/43/43 52/52/52 42/42/42
f 53/53/53 52/52/52 43/43/43
f 44/44/44 53/53/53 43/43/43
f 54/54/54 53/53/53 44/44/44
f 45/45/45 54/54/54 44/44/44
f 46/46/46 55/55/55 47/47/47
f 55/55/55 56/56/56 47/47/47
f 57/57/57 55/55/55 46/46/46
f 48/48/48 57/57/57 46/46/46
f 58/58/58 57/57/57 48/48/48
f 49/49/49 58/58/58 48/48/48
f 59/59/59 58/58/58 49/49/49
f 50/50/50 59/59/59 49/49/49
f 60/60/60 59/59/59 50/50/50
f 51/51/51 60/60/60 50/50/50
f 61/61/61 60/60/60 51/51/51
f 52/52/52 61/61/61 51/51/51
f 62/62/62 61/61/61 52/52/52
f 53/53/53 62/62/62 52/52/52
f 63/63/63 62/62/62 53/53/53
f 54/54/54 63/63/63 53/53/53
f 55/55/55 64/64/64 56/56/56
f 57/57/57 65/65/65 55/55/55
f 58/58/58 66/66/66 57/57/57
f 59/59/59 67/67/67 58/58/58
f 60/60/60 68/68/68 59/59/59
f 61/61/61 69/69/69 60/60/60
f 62/62/62 70/70/70 61/61/61
f 63/63/63 71/71/71 62/62/62
f 1/1/1 72/72/72 4/4/4
f 4/4/4 73/73/73 6/6/6
f 6/6/6 74/74/74 8/8/8
f 8/8/8 75/75/75 10/10/10
f 10/10/10 76/76/76 12/12/12
f 12/12/12 77/77/77 14/14/14
f 14/14/14 78/78/78 16/16/16
f 16/16/16 79/79/79 18/18/18
