g m_dlc08_city_h18_broken_floor_03
v 0.5747793 -0.02930266 0.8622198
v 0.1730548 -0.02883407 0.6727862
v 0.1722967 -5.080852E-16 0.6405597
v 0.6 -5.613663E-16 0.8346759
v 0.6 -5.572042E-16 0.6
v -0.6 -5.32907E-16 0.6
v -0.6 -5.587091E-16 0.8389148
v -0.3121019 -4.900792E-17 0.8135678
v -0.3299266 -0.02968555 0.8457574
v -0.5792664 -0.02981671 0.8713714
v 0.1730548 -0.02883407 0.6727862
v -0.288343 -0.02968555 0.8399899
v 0.599992 -0.02931277 0.8685168
v -0.6003261 -0.02981671 0.86854
v -0.5792664 -0.02981671 0.8713714
v -0.5799496 -0.2624022 0.8712246
v -0.5996898 -0.2624022 0.8688293
v -0.6003261 -0.02981671 0.86854
v -0.3293002 -0.2624022 0.8458917
v -0.3299266 -0.02968555 0.8457574
v -0.288343 -0.02968555 0.8399899
v -0.2889093 -0.2624022 0.8402899
v 0.1730548 -0.2624022 0.6727862
v 0.1730548 -0.02883407 0.6727862
v 0.1730548 -0.02883407 0.6727862
v 0.5747793 -0.02930266 0.8622198
v 0.5751471 -0.2624022 0.8623928
v 0.1730548 -0.2624022 0.6727862
v 0.599992 -0.02931277 0.8685168
v 0.6000079 -0.2624022 0.8686846
vt 0.9951172 0.3549805
vt 0.9282227 0.3867188
vt 0.9282227 0.3920898
vt 0.9995117 0.3598633
vt 0.9995117 0.3986816
vt 0.7998047 0.3986816
vt 0.7998047 0.3588867
vt 0.8476563 0.3632813
vt 0.8442383 0.357666
vt 0.8037109 0.3537598
vt 0.9282227 0.3867188
vt 0.8515625 0.3588867
vt 0.9985352 0.3554688
vt 0.8007813 0.3544922
vt 0.8032227 0.5449219
vt 0.8032227 0.5063477
vt 0.800293 0.5063477
vt 0.7998047 0.5449219
vt 0.8447266 0.5063477
vt 0.8447266 0.5449219
vt 0.8515625 0.5449219
vt 0.8515625 0.5063477
vt 0.9282227 0.5063477
vt 0.9282227 0.5454102
vt 0.9282227 0.5454102
vt 0.9951172 0.5449219
vt 0.9956055 0.5063477
vt 0.9282227 0.5063477
vt 0.9995117 0.5449219
vt 0.9995117 0.5063477
vn -0.4129155 0.1364883 0.9004841
vn -0.420832 0.1481151 0.894965
vn -0.001528553 0.9836261 0.1802148
vn -0.09371299 0.9744381 0.2041771
vn 0 1 0
vn 0 1 0
vn 0.005046122 0.9984573 0.05529457
vn 0.02060337 0.9968059 0.07715884
vn 0.1038762 0.1467301 0.9837072
vn 0.08409708 0.1475427 0.9854739
vn 0.337079 0.1389086 0.9311725
vn 0.3234936 0.1351434 0.9365298
vn -0.243283 0.05962303 0.9681211
vn -0.1272045 0.0646712 0.9897659
vn 0.08409708 0.1475427 0.9854739
vn 0.08418854 -1.216342E-05 0.9964498
vn -0.1270669 0.0003167275 0.9918941
vn -0.1272045 0.0646712 0.9897659
vn 0.1064865 0.000100002 0.9943141
vn 0.1038762 0.1467301 0.9837072
vn 0.3234936 0.1351434 0.9365298
vn 0.3254716 0.0002498348 0.9455519
vn 0.3407889 0.0001909969 0.9401398
vn 0.337079 0.1389086 0.9311725
vn -0.420832 0.1481151 0.894965
vn -0.4129155 0.1364883 0.9004841
vn -0.4168749 2.731288E-05 0.9089638
vn -0.4265094 -7.064106E-07 0.9044831
vn -0.243283 0.05962303 0.9681211
vn -0.2438186 0.0005085386 0.9698207
g m_dlc08_city_h18_broken_floor_03_0
f 3/3/3 2/2/2 1/1/1
f 4/4/4 3/3/3 1/1/1
f 5/5/5 3/3/3 4/4/4
f 5/5/5 6/6/6 3/3/3
f 6/6/6 7/7/7 3/3/3
f 7/7/7 8/8/8 3/3/3
f 9/9/9 8/8/8 7/7/7
f 10/10/10 9/9/9 7/7/7
f 11/11/11 3/3/3 8/8/8
f 12/12/12 11/11/11 8/8/8
f 8/8/8 9/9/9 12/12/12
f 4/4/4 1/1/1 13/13/13
f 7/7/7 14/14/14 10/10/10
f 17/17/17 16/16/16 15/15/15
f 18/18/18 17/17/17 15/15/15
f 16/16/16 19/19/19 15/15/15
f 19/19/19 20/20/20 15/15/15
f 20/20/20 19/19/19 21/21/21
f 19/19/19 22/22/22 21/21/21
f 22/22/22 23/23/23 21/21/21
f 23/23/23 24/24/24 21/21/21
f 27/27/27 26/26/26 25/25/25
f 28/28/28 27/27/27 25/25/25
f 26/26/26 27/27/27 29/29/29
f 27/27/27 30/30/30 29/29/29
