g m_dlc08_railtrack_middle_01
v -1.2 0.02682775 0.1225038
v -1.2 0.06196269 0.08629745
v 0 0.06196269 0.08629745
v 0 0.02682775 0.1225038
v -1.2 0 0.1887643
v 0 0 0.1887643
v -1.2 0.06810701 0.07495285
v 0 0.06810701 0.07495285
v 0 0.06810701 0.0456044
v -1.2 0.06810703 0.0456044
v 0 0.02682775 -0.1225038
v 0 0.06196269 -0.08629745
v -1.2 0.06196269 -0.08629745
v -1.2 0.02682775 -0.1225038
v 0 0 -0.1887643
v -1.2 0 -0.1887643
v 0 0.06810701 -0.07495285
v -1.2 0.06810701 -0.07495285
v -1.2 0.06810703 -0.04560425
v 0 0.06810701 -0.04560425
v -1.2 0.1394831 0.02550986
v 0 0.1394831 0.02596192
v 0 0.1290037 0.03535212
v -1.2 0.1290037 0.03535212
v -1.2 0.1045484 0.03324729
v 0 0.1045484 0.03324729
v -1.2 0.09054525 0.04109268
v 0 0.09054525 0.04109268
v 0 0.06810701 0.0456044
v -1.2 0.06810703 0.0456044
v -0.3722189 0.1394831 -0.007713795
v -0.2678299 0.1394831 -0.005565662
v -0.3676953 0.1383321 -0.01231119
v -0.2678133 0.1384476 -0.01079242
v -0.1445853 0.1394831 -0.02556433
v -0.1556811 0.135304 -0.02828898
v -0.1453952 0.1290037 -0.03535211
v -0.1555295 0.1319301 -0.03133651
v -0.4189778 0.1361282 -0.02716522
v -0.4291162 0.1394831 -0.02567154
v -0.4178635 0.1319506 -0.03142773
v -0.4290556 0.1290037 -0.03535211
v -0.3636575 0.1215707 -0.03227928
v -0.368555 0.1159807 -0.03423123
v -0.2437082 0.1219211 -0.03222907
v -0.2391165 0.1165381 -0.03427919
v -1.2 0.1290037 -0.03535211
v -1.2 0.1394831 -0.02596191
v -1.2 0.1045484 -0.03324728
v 0 0.1394831 -0.02550986
v -0.2595853 0.1259425 -0.02727903
v -0.3644656 0.1255447 -0.02867648
v -0.2636301 0.1332506 -0.01988707
v -0.3653499 0.133195 -0.01910222
v 0 0.1045484 -0.03324728
v 0 0.09054525 -0.04109253
v -1.2 0.09054525 -0.04109253
v -1.2 0.06810703 -0.04560425
v 0 0.06810701 -0.04560425
v 0 0.1290037 -0.03535211
v -0.6414207 0.1268307 0.2085661
v -0.651094 0.1268307 0.1787933
v -0.6359003 0.1412814 0.1787933
v -0.6291279 0.1412814 0.199635
v -0.6160936 0.1268307 0.2269666
v -0.6113994 0.1412814 0.2125163
v -0.5847889 0.1268307 0.2269666
v -0.5894848 0.1412814 0.2125163
v -0.5594634 0.1268307 0.2085661
v -0.5717554 0.1412814 0.199635
v -0.5497888 0.1268307 0.1787933
v -0.5649824 0.1412814 0.1787933
v -0.5594634 0.1268307 0.1490205
v -0.5717554 0.1412814 0.1579515
v -0.5847889 0.1268307 0.1306199
v -0.5894848 0.1412814 0.1450703
v -0.6160936 0.1268307 0.1306199
v -0.6113994 0.1412814 0.1450703
v -0.6414207 0.1268307 0.1490205
v -0.6291279 0.1412814 0.1579515
v -0.5847889 0.0822394 0.2269666
v -0.6160936 0.0822394 0.2269666
v -0.6414207 0.0822394 0.2085661
v -0.5594634 0.0822394 0.1490205
v -0.5497888 0.0822394 0.1787933
v -0.5594634 0.0822394 0.2085661
v -0.6414207 0.0822394 0.1490205
v -0.6160936 0.0822394 0.1306199
v -0.5847889 0.0822394 0.1306199
v -0.651094 0.0822394 0.1787933
v -0.536295 0.03882927 0.3272005
v -0.5329462 0.08566444 0.2703989
v -0.5119721 0.06503158 0.2617792
v -0.5119721 0.00905159 0.3272005
v -0.5119721 0.06503158 0.1832104
v -0.5329462 0.08566444 0.1832104
v -0.5119721 0.06503158 0.04042671
v -0.5329462 0.08566444 0.04042671
v -0.6670539 0.08566444 0.2703989
v -0.6670539 0.08566444 0.1832104
v -0.688028 0.06503158 0.2617792
v -0.688028 0.00905159 0.3272005
v -0.663705 0.03882927 0.3272005
v -0.5119721 0.00905159 0.3272005
v -0.688028 0.00905159 0.3272005
v -0.688028 0.06503158 0.1832104
v -0.6670539 0.08566444 0.04042671
v -0.688028 0.06503158 0.04042671
v -0.688028 -0.01007082 0.3272005
v -0.5119721 -0.01007082 0.3272005
v -0.688028 -0.01007082 0.2703989
v -0.688028 -0.01007082 0.1832104
v -0.688028 -0.01007082 0.04042671
v -0.688028 -0.01007082 0.3272005
v -0.5119721 -0.01007082 0.1832104
v -0.5119721 -0.01007082 0.2703989
v -0.5119721 -0.01007082 0.04042671
v -0.5119721 -0.01007082 0.3272005
v -0.5585793 0.1268307 -0.2083139
v -0.5489055 0.1268307 -0.1785411
v -0.5640997 0.1412814 -0.1785411
v -0.5708721 0.1412814 -0.1993828
v -0.5839063 0.1268307 -0.2267144
v -0.5886006 0.1412814 -0.2122642
v -0.6152111 0.1268307 -0.2267144
v -0.6105152 0.1412814 -0.2122642
v -0.6405365 0.1268307 -0.2083139
v -0.6282445 0.1412814 -0.1993833
v -0.6502116 0.1268307 -0.1785411
v -0.6350176 0.1412814 -0.1785411
v -0.6405365 0.1268307 -0.1487684
v -0.6282445 0.1412814 -0.1576993
v -0.6152111 0.1268307 -0.1303677
v -0.6105152 0.1412814 -0.1448181
v -0.5839063 0.1268307 -0.1303677
v -0.5886006 0.1412814 -0.1448181
v -0.5585793 0.1268307 -0.1487684
v -0.5708721 0.1412814 -0.1576993
v -0.6152111 0.0822394 -0.2267144
v -0.5839063 0.0822394 -0.2267144
v -0.5585793 0.0822394 -0.2083139
v -0.6405365 0.0822394 -0.1487684
v -0.6502116 0.0822394 -0.1785411
v -0.6405365 0.0822394 -0.2083139
v -0.5585793 0.0822394 -0.1487684
v -0.5839063 0.0822394 -0.1303677
v -0.6152111 0.0822394 -0.1303677
v -0.5489055 0.0822394 -0.1785411
v -0.663705 0.03882927 -0.3231749
v -0.6670538 0.08566444 -0.2663735
v -0.6880279 0.06503158 -0.2577538
v -0.6880279 0.00905159 -0.3231749
v -0.6880279 0.06503158 -0.179185
v -0.6670538 0.08566444 -0.179185
v -0.6880279 0.06503158 -0.03640131
v -0.6670538 0.08566444 -0.03640131
v -0.5329461 0.08566444 -0.2663735
v -0.5329461 0.08566444 -0.179185
v -0.5119719 0.06503158 -0.2577538
v -0.5119719 0.00905159 -0.3231749
v -0.536295 0.03882927 -0.3231749
v -0.6880279 0.00905159 -0.3231749
v -0.5119719 0.00905159 -0.3231749
v -0.5119719 0.06503158 -0.179185
v -0.5329461 0.08566444 -0.03640131
v -0.5119719 0.06503158 -0.03640131
v -0.5119719 -0.01007082 -0.3231749
v -0.6880279 -0.01007082 -0.3231749
v -0.5119719 -0.01007082 -0.2663735
v -0.5119719 -0.01007082 -0.179185
v -0.5119719 -0.01007082 -0.03640131
v -0.5119719 -0.01007082 -0.3231749
v -0.6880279 -0.01007082 -0.179185
v -0.6880279 -0.01007082 -0.2663735
v -0.6880279 -0.01007082 -0.03640131
v -0.6880279 -0.01007082 -0.3231749
v -0.6004421 0.1377883 0.1787933
v -0.5995579 0.1377883 -0.1785411
vt 0.4042969 0.6826172
vt 0.4018555 0.6826172
vt 0.4018555 0.7416992
vt 0.4042969 0.7416992
vt 0.4077148 0.6826172
vt 0.4077148 0.7416992
vt 0.401123 0.6826172
vt 0.401123 0.7416992
vt 0.3996582 0.7416992
vt 0.3996582 0.6826172
vt 0.482666 0.503418
vt 0.4802246 0.503418
vt 0.4802246 0.5625
vt 0.482666 0.5625
vt 0.4863281 0.503418
vt 0.4863281 0.5625
vt 0.4797363 0.503418
vt 0.4797363 0.5625
vt 0.4782715 0.5625
vt 0.4782715 0.503418
vt 0.472168 0.5688477
vt 0.472168 0.6279297
vt 0.4726563 0.6279297
vt 0.4729004 0.5688477
vt 0.4741211 0.5688477
vt 0.473877 0.6279297
vt 0.4748535 0.5688477
vt 0.4748535 0.6279297
vt 0.4758301 0.6279297
vt 0.4760742 0.5688477
vt 0.470459 0.6098633
vt 0.470459 0.6147461
vt 0.4702148 0.6098633
vt 0.4702148 0.6147461
vt 0.4694824 0.6210938
vt 0.4694824 0.6206055
vt 0.4689941 0.6210938
vt 0.4692383 0.6206055
vt 0.4694824 0.6074219
vt 0.4697266 0.6069336
vt 0.4692383 0.6074219
vt 0.4689941 0.6069336
vt 0.46875 0.6098633
vt 0.4682617 0.6098633
vt 0.46875 0.6162109
vt 0.4682617 0.6162109
vt 0.4689941 0.5688477
vt 0.4697266 0.5688477
vt 0.4677734 0.5688477
vt 0.4694824 0.6279297
vt 0.4689941 0.6152344
vt 0.4689941 0.6098633
vt 0.4697266 0.6152344
vt 0.4697266 0.6098633
vt 0.4677734 0.6279297
vt 0.467041 0.6279297
vt 0.467041 0.5688477
vt 0.4658203 0.5688477
vt 0.4658203 0.6279297
vt 0.4689941 0.6279297
vt 0.409668 0.6435547
vt 0.4082031 0.644043
vt 0.4086914 0.6445313
vt 0.409668 0.6445313
vt 0.4111328 0.644043
vt 0.4106445 0.6445313
vt 0.4121094 0.6450195
vt 0.4111328 0.6455078
vt 0.4121094 0.6469727
vt 0.4111328 0.6464844
vt 0.4111328 0.6479492
vt 0.4106445 0.6474609
vt 0.409668 0.6484375
vt 0.409668 0.6474609
vt 0.4082031 0.6479492
vt 0.4086914 0.6469727
vt 0.4072266 0.6464844
vt 0.4082031 0.6464844
vt 0.4072266 0.6450195
vt 0.4082031 0.6455078
vt 0.4138184 0.6445313
vt 0.4123535 0.6425781
vt 0.409668 0.6416016
vt 0.409668 0.6503906
vt 0.4123535 0.6494141
vt 0.4138184 0.6474609
vt 0.4055176 0.6445313
vt 0.4055176 0.6474609
vt 0.4072266 0.6494141
vt 0.4072266 0.6425781
vt 0.2773438 0.7231445
vt 0.2810059 0.7236328
vt 0.2810059 0.722168
vt 0.2770996 0.7211914
vt 0.2849121 0.722168
vt 0.2849121 0.7236328
vt 0.2919922 0.7216797
vt 0.2919922 0.7231445
vt 0.2807617 0.7294922
vt 0.2849121 0.7299805
vt 0.2810059 0.730957
vt 0.2770996 0.7319336
vt 0.2773438 0.7299805
vt 0.2758789 0.722168
vt 0.2758789 0.730957
vt 0.284668 0.7314453
vt 0.2919922 0.7304688
vt 0.291748 0.7319336
vt 0.2749023 0.730957
vt 0.2749023 0.722168
vt 0.279541 0.734375
vt 0.2841797 0.7353516
vt 0.2915039 0.7358398
vt 0.2766113 0.7329102
vt 0.2844238 0.7182617
vt 0.2797852 0.7192383
vt 0.291748 0.7182617
vt 0.2768555 0.7202148
vt 0.4155273 0.7021484
vt 0.4140625 0.7016602
vt 0.4140625 0.7026367
vt 0.4150391 0.7026367
vt 0.4165039 0.703125
vt 0.4155273 0.7036133
vt 0.4165039 0.7050781
vt 0.4155273 0.7045898
vt 0.4155273 0.7060547
vt 0.4150391 0.7050781
vt 0.4140625 0.706543
vt 0.4140625 0.7055664
vt 0.4125977 0.7060547
vt 0.4130859 0.7050781
vt 0.4116211 0.7045898
vt 0.4125977 0.7045898
vt 0.4116211 0.703125
vt 0.4125977 0.7036133
vt 0.4125977 0.7016602
vt 0.4130859 0.7026367
vt 0.4182129 0.7055664
vt 0.4182129 0.7026367
vt 0.4165039 0.7006836
vt 0.411377 0.7075195
vt 0.4140625 0.7084961
vt 0.4165039 0.7075195
vt 0.411377 0.7006836
vt 0.4099121 0.7026367
vt 0.4099121 0.7055664
vt 0.4140625 0.699707
vt 0.4545898 0.7338867
vt 0.458252 0.7338867
vt 0.4584961 0.7329102
vt 0.4543457 0.7314453
vt 0.4621582 0.7324219
vt 0.4624023 0.7338867
vt 0.4692383 0.7324219
vt 0.4694824 0.7338867
vt 0.4580078 0.7402344
vt 0.4621582 0.7402344
vt 0.458252 0.7416992
vt 0.4543457 0.7421875
vt 0.4545898 0.7402344
vt 0.453125 0.7324219
vt 0.453125 0.7416992
vt 0.4621582 0.7416992
vt 0.4692383 0.7407227
vt 0.4689941 0.7421875
vt 0.4521484 0.7416992
vt 0.4521484 0.7324219
vt 0.4567871 0.7446289
vt 0.4614258 0.7456055
vt 0.46875 0.7460938
vt 0.4541016 0.7431641
vt 0.4619141 0.7285156
vt 0.4570313 0.7294922
vt 0.4689941 0.7285156
vt 0.4541016 0.7304688
vt 0.409668 0.6459961
vt 0.4140625 0.7041016
vn 0 0.85571 0.5174558
vn 0 0.7551508 0.655551
vn 0 0.755151 0.6555509
vn 0 0.85571 0.5174558
vn 0 0.9269078 0.3752891
vn 0 0.9269078 0.3752891
vn 0 0.9887918 0.1493011
vn 0 0.9887919 0.1492999
vn 0 1 2.95084E-07
vn 0 1 2.950839E-07
vn 0 0.85571 -0.5174558
vn 0 0.755151 -0.6555509
vn 0 0.7551508 -0.655551
vn 0 0.85571 -0.5174558
vn 0 0.9269078 -0.3752891
vn 0 0.9269078 -0.3752891
vn 0 0.988792 -0.1492994
vn 0 0.9887918 -0.1493006
vn 0 1 -3.466103E-07
vn 0 1 -3.466103E-07
vn -5.697765E-05 0.9530845 0.3027047
vn -9.732811E-05 0.8563602 0.5163789
vn -5.523911E-05 0.210208 0.9776567
vn -5.523886E-05 0.2102067 0.977657
vn 0 0.1476309 0.9890426
vn 0 0.1476309 0.9890426
vn 0 0.3211356 0.9470332
vn 0 0.3211349 0.9470334
vn 0 0.1971274 0.9803779
vn 0 0.1971274 0.9803779
vn 0.000907228 0.9999888 -0.004641415
vn -0.0008285466 0.9999598 -0.008925294
vn 0.02910509 0.9090669 -0.4156324
vn -0.02331495 0.88372 -0.4674349
vn -0.001131531 0.9951638 -0.09822319
vn -0.0683908 0.7950402 -0.6026888
vn -0.001971646 0.09779266 -0.9952048
vn -0.06792205 0.6023337 -0.7953495
vn 0.1165016 0.8281676 -0.5482388
vn 0.0003613626 0.9902973 -0.1389652
vn 0.1111792 0.6157701 -0.7800425
vn 0.0005838655 0.1357712 -0.9907401
vn 0.01791454 0.5170588 -0.8557624
vn 0.002468908 -0.06252058 -0.9980406
vn -0.02969733 0.4943339 -0.8687647
vn -0.002833552 -0.04970307 -0.99876
vn 6.331234E-05 0.2514327 -0.9678747
vn 4.178204E-05 0.9751467 -0.2215603
vn 0 0.2462965 -0.9691945
vn 2.866099E-05 0.9881182 -0.1536956
vn -0.02240535 0.7212228 -0.6923408
vn 0.03313867 0.7449533 -0.6662931
vn -0.02280683 0.7830736 -0.6215107
vn 0.03174936 0.7934833 -0.6077633
vn 0 0.4005394 -0.9162796
vn 0 0.3211316 -0.9470346
vn 0 0.3211323 -0.9470344
vn 0 0.1971274 -0.9803779
vn 0 0.1971274 -0.9803779
vn 5.215265E-05 0.2002578 -0.9797432
vn -0.7932026 0.1967412 0.5763007
vn -0.9804546 0.1967453 0
vn -0.4675142 0.8839856 0
vn -0.3782215 0.8839889 0.274795
vn -0.3029729 0.196742 0.9324698
vn -0.144475 0.883985 0.4446318
vn 0.3029817 0.1967454 0.9324662
vn 0.1444659 0.8839897 0.4446255
vn 0.7932025 0.196744 0.5762998
vn 0.3782156 0.8839909 0.2747963
vn 0.9804558 0.1967395 0
vn 0.4675178 0.8839837 0
vn 0.7932027 0.1967441 -0.5762997
vn 0.3782157 0.8839909 -0.2747962
vn 0.302982 0.1967457 -0.9324661
vn 0.1444665 0.8839898 -0.444625
vn -0.302973 0.1967423 -0.9324698
vn -0.1444753 0.8839852 -0.4446312
vn -0.7932029 0.1967413 -0.5763004
vn -0.3782216 0.8839888 -0.2747948
vn 0.3090205 0 0.9510553
vn -0.309013 0 0.9510577
vn -0.8090137 0 0.5877899
vn 0.8090163 0 -0.5877861
vn 1 0 0
vn 0.8090161 0 0.5877864
vn -0.8090139 0 -0.5877895
vn -0.3090131 0 -0.9510577
vn 0.3090207 0 -0.9510553
vn -1 0 0
vn 0.1327446 0.5443492 0.8282891
vn 0.1294767 0.9428752 0.3069564
vn 0.9516575 0.2870992 0.1091876
vn 0.6065838 0.1072474 0.7877526
vn 0.9768319 0.214008 0
vn 0.1297766 0.9915433 0
vn 0.9768319 0.214008 0
vn 0.1318829 0.9912652 0
vn -0.1294767 0.9428751 0.3069564
vn -0.1297765 0.9915433 0
vn -0.9516571 0.2871006 0.1091883
vn -0.6065842 0.1072475 0.7877522
vn -0.1327442 0.544349 0.8282893
vn 0.6065838 0.1072474 0.7877526
vn -0.6065842 0.1072475 0.7877522
vn -0.9768317 0.2140088 0
vn -0.1318829 0.9912652 0
vn -0.9768319 0.2140084 0
vn -0.6337843 0 0.7735098
vn 0.6337842 7.011689E-07 0.7735099
vn -1 0 0
vn -1 0 0
vn -1 0 0
vn -0.6337843 0 0.7735098
vn 1 -1.800683E-07 0
vn 1 0 0
vn 1 0 0
vn 0.6337842 7.011689E-07 0.7735099
vn 0.7931997 0.1967425 -0.5763044
vn 0.980454 0.196748 0
vn 0.4675093 0.8839881 -1.025742E-07
vn 0.3782198 0.8839895 -0.2747952
vn 0.3029731 0.1967407 -0.9324701
vn 0.1444764 0.8839841 -0.4446332
vn -0.3029815 0.1967423 -0.932467
vn -0.1444649 0.8839889 -0.4446273
vn -0.7932001 0.1967438 -0.5763031
vn -0.3782154 0.8839899 -0.2747998
vn -0.9804553 0.1967417 0
vn -0.4675126 0.8839864 2.222418E-07
vn -0.7931997 0.1967456 0.5763034
vn -0.3782139 0.8839913 0.2747975
vn -0.3029844 0.196745 0.9324655
vn -0.1444671 0.8839897 0.444625
vn 0.3029752 0.1967414 0.9324692
vn 0.1444762 0.8839846 0.4446322
vn 0.7931998 0.1967426 0.5763041
vn 0.3782195 0.8839893 0.2747966
vn -0.3090204 0 -0.9510553
vn 0.3090125 0 -0.951058
vn 0.8090103 0 -0.5877944
vn -0.8090129 0 0.5877908
vn -1 0 0
vn -0.8090127 0 -0.5877911
vn 0.8090104 0 0.5877943
vn 0.3090156 0 0.951057
vn -0.3090234 0 0.9510544
vn 1 0 0
vn -0.1327443 0.5443481 -0.8282899
vn -0.1294765 0.9428751 -0.3069567
vn -0.951657 0.2871008 -0.1091879
vn -0.6065828 0.1072473 -0.7877533
vn -0.9768316 0.214009 0
vn -0.1297765 0.9915433 0
vn -0.9768317 0.2140088 0
vn -0.1318829 0.9912652 0
vn 0.1294766 0.942875 -0.3069568
vn 0.1297765 0.9915433 0
vn 0.9516569 0.2871009 -0.1091886
vn 0.6065832 0.1072478 -0.787753
vn 0.1327439 0.5443479 -0.8282901
vn -0.6065828 0.1072473 -0.7877533
vn 0.6065832 0.1072478 -0.787753
vn 0.9768316 0.2140092 0
vn 0.1318829 0.9912652 0
vn 0.9768316 0.2140092 0
vn 0.6337831 0 -0.7735108
vn -0.633783 0 -0.7735108
vn 1 0 0
vn 1 0 0
vn 1 0 0
vn 0.6337831 0 -0.7735108
vn -1 3.601365E-07 0
vn -1 6.482283E-07 0
vn -1 0 0
vn -0.633783 0 -0.7735108
vn 0 1 0
vn 0 1 -1.019147E-07
g m_dlc08_railtrack_middle_01_0
f 3/3/3 2/2/2 1/1/1
f 4/4/4 3/3/3 1/1/1
f 4/4/4 1/1/1 5/5/5
f 6/6/6 4/4/4 5/5/5
f 2/2/2 3/3/3 7/7/7
f 3/3/3 8/8/8 7/7/7
f 8/8/8 9/9/9 7/7/7
f 9/9/9 10/10/10 7/7/7
f 13/13/13 12/12/12 11/11/11
f 14/14/14 13/13/13 11/11/11
f 14/14/14 11/11/11 15/15/15
f 16/16/16 14/14/14 15/15/15
f 17/17/17 12/12/12 13/13/13
f 18/18/18 17/17/17 13/13/13
f 18/18/18 19/19/19 17/17/17
f 19/19/19 20/20/20 17/17/17
f 23/23/23 22/22/22 21/21/21
f 24/24/24 23/23/23 21/21/21
f 23/23/23 24/24/24 25/25/25
f 26/26/26 23/23/23 25/25/25
f 26/26/26 25/25/25 27/27/27
f 28/28/28 26/26/26 27/27/27
f 29/29/29 28/28/28 27/27/27
f 30/30/30 29/29/29 27/27/27
f 21/21/21 22/22/22 31/31/31
f 22/22/22 32/32/32 31/31/31
f 33/33/33 31/31/31 32/32/32
f 34/34/34 33/33/33 32/32/32
f 34/34/34 32/32/32 35/35/35
f 36/36/36 34/34/34 35/35/35
f 35/35/35 37/37/37 36/36/36
f 37/37/37 38/38/38 36/36/36
f 33/33/33 39/39/39 31/31/31
f 39/39/39 40/40/40 31/31/31
f 39/39/39 41/41/41 40/40/40
f 41/41/41 42/42/42 40/40/40
f 41/41/41 43/43/43 42/42/42
f 43/43/43 44/44/44 42/42/42
f 43/43/43 45/45/45 44/44/44
f 45/45/45 46/46/46 44/44/44
f 38/38/38 37/37/37 46/46/46
f 45/45/45 38/38/38 46/46/46
f 40/40/40 42/42/42 47/47/47
f 47/47/47 42/42/42 44/44/44
f 48/48/48 40/40/40 47/47/47
f 49/49/49 47/47/47 44/44/44
f 35/35/35 50/50/50 37/37/37
f 50/50/50 35/35/35 32/32/32
f 22/22/22 50/50/50 32/32/32
f 45/45/45 43/43/43 51/51/51
f 43/43/43 52/52/52 51/51/51
f 43/43/43 41/41/41 52/52/52
f 53/53/53 51/51/51 52/52/52
f 54/54/54 53/53/53 52/52/52
f 34/34/34 53/53/53 54/54/54
f 33/33/33 34/34/34 54/54/54
f 44/44/44 46/46/46 55/55/55
f 49/49/49 44/44/44 55/55/55
f 49/49/49 55/55/55 56/56/56
f 57/57/57 49/49/49 56/56/56
f 57/57/57 56/56/56 58/58/58
f 56/56/56 59/59/59 58/58/58
f 34/34/34 36/36/36 53/53/53
f 53/53/53 36/36/36 51/51/51
f 36/36/36 38/38/38 51/51/51
f 45/45/45 51/51/51 38/38/38
f 54/54/54 52/52/52 41/41/41
f 39/39/39 54/54/54 41/41/41
f 33/33/33 54/54/54 39/39/39
f 37/37/37 60/60/60 55/55/55
f 50/50/50 60/60/60 37/37/37
f 46/46/46 37/37/37 55/55/55
f 63/63/63 62/62/62 61/61/61
f 64/64/64 63/63/63 61/61/61
f 61/61/61 65/65/65 64/64/64
f 65/65/65 66/66/66 64/64/64
f 65/65/65 67/67/67 66/66/66
f 67/67/67 68/68/68 66/66/66
f 67/67/67 69/69/69 68/68/68
f 69/69/69 70/70/70 68/68/68
f 69/69/69 71/71/71 70/70/70
f 71/71/71 72/72/72 70/70/70
f 71/71/71 73/73/73 72/72/72
f 73/73/73 74/74/74 72/72/72
f 73/73/73 75/75/75 74/74/74
f 75/75/75 76/76/76 74/74/74
f 75/75/75 77/77/77 76/76/76
f 77/77/77 78/78/78 76/76/76
f 77/77/77 79/79/79 78/78/78
f 79/79/79 80/80/80 78/78/78
f 79/79/79 62/62/62 80/80/80
f 62/62/62 63/63/63 80/80/80
f 69/69/69 67/67/67 81/81/81
f 81/81/81 67/67/67 82/82/82
f 67/67/67 65/65/65 82/82/82
f 82/82/82 65/65/65 83/83/83
f 65/65/65 61/61/61 83/83/83
f 75/75/75 73/73/73 84/84/84
f 84/84/84 73/73/73 85/85/85
f 73/73/73 71/71/71 85/85/85
f 85/85/85 71/71/71 86/86/86
f 86/86/86 69/69/69 81/81/81
f 71/71/71 69/69/69 86/86/86
f 62/62/62 79/79/79 87/87/87
f 87/87/87 79/79/79 88/88/88
f 79/79/79 77/77/77 88/88/88
f 88/88/88 77/77/77 89/89/89
f 89/89/89 75/75/75 84/84/84
f 77/77/77 75/75/75 89/89/89
f 83/83/83 61/61/61 90/90/90
f 90/90/90 62/62/62 87/87/87
f 61/61/61 62/62/62 90/90/90
f 93/93/93 92/92/92 91/91/91
f 94/94/94 93/93/93 91/91/91
f 92/92/92 93/93/93 95/95/95
f 96/96/96 92/92/92 95/95/95
f 96/96/96 95/95/95 97/97/97
f 98/98/98 96/96/96 97/97/97
f 99/99/99 92/92/92 96/96/96
f 100/100/100 99/99/99 96/96/96
f 101/101/101 99/99/99 100/100/100
f 99/99/99 101/101/101 102/102/102
f 103/103/103 99/99/99 102/102/102
f 103/103/103 91/91/91 92/92/92
f 99/99/99 103/103/103 92/92/92
f 91/91/91 103/103/103 104/104/104
f 103/103/103 105/105/105 104/104/104
f 106/106/106 101/101/101 100/100/100
f 106/106/106 100/100/100 107/107/107
f 107/107/107 100/100/100 96/96/96
f 98/98/98 107/107/107 96/96/96
f 108/108/108 106/106/106 107/107/107
f 105/105/105 109/109/109 104/104/104
f 109/109/109 110/110/110 104/104/104
f 111/111/111 101/101/101 106/106/106
f 112/112/112 111/111/111 106/106/106
f 106/106/106 108/108/108 113/113/113
f 112/112/112 106/106/106 113/113/113
f 114/114/114 102/102/102 101/101/101
f 111/111/111 114/114/114 101/101/101
f 115/115/115 95/95/95 93/93/93
f 116/116/116 115/115/115 93/93/93
f 115/115/115 117/117/117 95/95/95
f 117/117/117 97/97/97 95/95/95
f 116/116/116 93/93/93 118/118/118
f 93/93/93 94/94/94 118/118/118
f 121/121/121 120/120/120 119/119/119
f 122/122/122 121/121/121 119/119/119
f 119/119/119 123/123/123 122/122/122
f 123/123/123 124/124/124 122/122/122
f 123/123/123 125/125/125 124/124/124
f 125/125/125 126/126/126 124/124/124
f 125/125/125 127/127/127 126/126/126
f 127/127/127 128/128/128 126/126/126
f 127/127/127 129/129/129 128/128/128
f 129/129/129 130/130/130 128/128/128
f 129/129/129 131/131/131 130/130/130
f 131/131/131 132/132/132 130/130/130
f 131/131/131 133/133/133 132/132/132
f 133/133/133 134/134/134 132/132/132
f 133/133/133 135/135/135 134/134/134
f 135/135/135 136/136/136 134/134/134
f 135/135/135 137/137/137 136/136/136
f 137/137/137 138/138/138 136/136/136
f 137/137/137 120/120/120 138/138/138
f 120/120/120 121/121/121 138/138/138
f 127/127/127 125/125/125 139/139/139
f 139/139/139 125/125/125 140/140/140
f 125/125/125 123/123/123 140/140/140
f 140/140/140 123/123/123 141/141/141
f 123/123/123 119/119/119 141/141/141
f 133/133/133 131/131/131 142/142/142
f 142/142/142 131/131/131 143/143/143
f 131/131/131 129/129/129 143/143/143
f 143/143/143 129/129/129 144/144/144
f 144/144/144 127/127/127 139/139/139
f 129/129/129 127/127/127 144/144/144
f 120/120/120 137/137/137 145/145/145
f 145/145/145 137/137/137 146/146/146
f 137/137/137 135/135/135 146/146/146
f 146/146/146 135/135/135 147/147/147
f 147/147/147 133/133/133 142/142/142
f 135/135/135 133/133/133 147/147/147
f 141/141/141 119/119/119 148/148/148
f 148/148/148 120/120/120 145/145/145
f 119/119/119 120/120/120 148/148/148
f 151/151/151 150/150/150 149/149/149
f 152/152/152 151/151/151 149/149/149
f 150/150/150 151/151/151 153/153/153
f 154/154/154 150/150/150 153/153/153
f 154/154/154 153/153/153 155/155/155
f 156/156/156 154/154/154 155/155/155
f 157/157/157 150/150/150 154/154/154
f 158/158/158 157/157/157 154/154/154
f 159/159/159 157/157/157 158/158/158
f 157/157/157 159/159/159 160/160/160
f 161/161/161 157/157/157 160/160/160
f 161/161/161 149/149/149 150/150/150
f 157/157/157 161/161/161 150/150/150
f 149/149/149 161/161/161 162/162/162
f 161/161/161 163/163/163 162/162/162
f 164/164/164 159/159/159 158/158/158
f 164/164/164 158/158/158 165/165/165
f 165/165/165 158/158/158 154/154/154
f 156/156/156 165/165/165 154/154/154
f 166/166/166 164/164/164 165/165/165
f 163/163/163 167/167/167 162/162/162
f 167/167/167 168/168/168 162/162/162
f 169/169/169 159/159/159 164/164/164
f 170/170/170 169/169/169 164/164/164
f 164/164/164 166/166/166 171/171/171
f 170/170/170 164/164/164 171/171/171
f 172/172/172 160/160/160 159/159/159
f 169/169/169 172/172/172 159/159/159
f 173/173/173 153/153/153 151/151/151
f 174/174/174 173/173/173 151/151/151
f 173/173/173 175/175/175 153/153/153
f 175/175/175 155/155/155 153/153/153
f 174/174/174 151/151/151 176/176/176
f 151/151/151 152/152/152 176/176/176
f 66/66/66 68/68/68 177/177/177
f 64/64/64 66/66/66 177/177/177
f 63/63/63 64/64/64 177/177/177
f 68/68/68 70/70/70 177/177/177
f 70/70/70 72/72/72 177/177/177
f 72/72/72 74/74/74 177/177/177
f 74/74/74 76/76/76 177/177/177
f 76/76/76 78/78/78 177/177/177
f 78/78/78 80/80/80 177/177/177
f 80/80/80 63/63/63 177/177/177
f 124/124/124 126/126/126 178/178/178
f 122/122/122 124/124/124 178/178/178
f 121/121/121 122/122/122 178/178/178
f 126/126/126 128/128/128 178/178/178
f 128/128/128 130/130/130 178/178/178
f 130/130/130 132/132/132 178/178/178
f 132/132/132 134/134/134 178/178/178
f 134/134/134 136/136/136 178/178/178
f 136/136/136 138/138/138 178/178/178
f 138/138/138 121/121/121 178/178/178
f 31/31/31 40/40/40 48/48/48
f 21/21/21 31/31/31 48/48/48
