g m_dlc08_organ_paper
v -0.349301 0.7392581 -0.04400809
v -0.3672197 0.669632 0.1204853
v -0.4011711 0.6499009 0.1023371
v -0.3824871 0.7134541 -0.04825919
v -0.3189507 0.7247887 -0.2799841
v -0.348709 0.6989942 -0.2844518
v -0.4131853 0.4673691 0.1808521
v -0.3806841 0.4724196 0.2071369
v -0.4044963 0.2481927 0.1558198
v -0.3696746 0.2504967 0.1799586
v -0.3793608 0.06670616 0.1670441
v -0.3552031 0.07033043 0.1977717
v -0.3854546 -0.1291102 0.2384968
v -0.3567168 -0.115207 0.2760957
v -0.3709123 -0.3422709 0.2562141
v -0.3386602 -0.3380257 0.2847517
v -0.380595 -0.5363753 0.2181019
v -0.3490203 -0.5435031 0.2437727
v -0.3742119 -0.7048145 0.1119276
v -0.3442436 -0.7197613 0.1348243
v 0.004922594 0.4641566 0.1877405
v 0.003928942 0.6488915 0.1082972
v 0.3745894 0.6713369 0.1271137
v 0.3556465 0.740232 -0.04020561
v 0.3886958 0.7141743 -0.04397697
v 0.4080683 0.6510813 0.1094099
v 0.3557832 0.6988076 -0.2835485
v 0.3263704 0.7248868 -0.2795153
v 0.3798884 0.4748328 0.2164021
v 0.4101875 0.469838 0.1900758
v 0.3779084 0.2522494 0.1867695
v 0.4131855 0.2505587 0.1627741
v 0.3641035 0.07167671 0.1970802
v 0.3874275 0.06728859 0.1703571
v 0.3618611 -0.1147865 0.2711323
v 0.3907332 -0.1280616 0.236601
v 0.3498432 -0.3359856 0.2775422
v 0.3828633 -0.3393662 0.2495002
v 0.3523274 -0.5398917 0.2324427
v 0.3849604 -0.5327415 0.2068195
v 0.3502339 -0.7155535 0.1291102
v 0.3799775 -0.7010262 0.106363
v 0.406092 0.4177259 0.06569466
v 0.4100215 0.5437255 0.03152413
v 0.3804719 0.5222182 0.01220833
v 0.371479 0.5557554 -0.07606864
v 0.396562 0.5830746 -0.06965019
v 0.333697 0.5381757 -0.2785015
v 0.3603852 0.5655996 -0.2744195
v 0.3744123 0.4114121 0.03713448
v 0.4069197 0.2340548 0.04778878
v 0.3777327 0.2296384 0.01841866
v 0.3888301 0.05170693 0.05407784
v 0.3628218 0.04641838 0.02360421
v 0.3874067 -0.1503052 0.121844
v 0.3629951 -0.1648344 0.09465096
v 0.3950385 -0.3386192 0.1402375
v 0.3713655 -0.3398741 0.1094672
v 0.3968562 -0.506906 0.09036569
v 0.3708381 -0.4973464 0.06401375
v 0.3833845 -0.6435375 -0.02340629
v 0.3545332 -0.6285427 -0.04560966
v 0.3509394 -0.7355985 0.08979318
v 0.3539424 -0.6748339 -0.03288627
v 0.003133043 -0.7317095 0.07836251
v 0.002820543 -0.7089536 0.1101209
v 0.001447252 -0.5395402 0.210561
v 0.003651842 -0.3355066 0.2562025
v 0.004951891 -0.1224784 0.2488923
v 0.004667467 0.06958305 0.1749323
v 0.004213366 0.2441622 0.1581135
v -0.344456 -0.740232 0.09647164
v -0.3744939 -0.6500054 -0.01014762
v -0.3858904 -0.5090763 0.1070454
v -0.3455437 -0.6351202 -0.03279655
v -0.3604912 -0.5013065 0.07935067
v -0.3913933 -0.3416544 0.1368989
v -0.3662603 -0.3473813 0.1063593
v -0.3867778 -0.1616749 0.1259382
v -0.3577397 -0.1659301 0.1003486
v -0.3848149 0.04966103 0.05597054
v -0.3583245 0.04472359 0.02212044
v -0.4029827 0.2326566 0.04119393
v -0.3732097 0.2277608 0.01160225
v -0.4008037 0.4152634 0.05610543
v -0.370324 0.4089417 0.02769539
v -0.3891985 0.5415133 0.02283761
v -0.3622075 0.519934 0.003574911
v -0.3768828 0.5848212 -0.07762382
v -0.3525286 0.557269 -0.0838787
v -0.3561956 0.5649188 -0.2775738
v -0.3298711 0.5372805 -0.2818383
v 0.004207262 0.7025754 -0.2784783
v 0.003473619 0.7159241 -0.04848991
v 0.001159166 0.5398344 -0.08948783
v 0.371479 0.5557554 -0.07606864
v 0.333697 0.5381757 -0.2785015
v 0.001800035 0.5137998 -0.2847509
v -0.3525286 0.557269 -0.0838787
v -0.3298711 0.5372805 -0.2818383
v 0.3804719 0.5222182 0.01220833
v 0.001399645 0.5072246 -0.002325968
v -0.3622075 0.519934 0.003574911
v 0.3744123 0.4114121 0.03713448
v 0.001559557 0.4044155 0.01259774
v -0.370324 0.4089417 0.02769539
v 0.3777327 0.2296384 0.01841866
v 0.001759752 0.221359 -0.01039604
v -0.3732097 0.2277608 0.01160225
v 0.3628218 0.04641838 0.02360421
v 0.003479723 0.04427772 0.004090048
v -0.3583245 0.04472359 0.02212044
v 0.3629951 -0.1648344 0.09465096
v 0.006459459 -0.1656303 0.08577096
v -0.3577397 -0.1659301 0.1003486
v 0.3713655 -0.3398741 0.1094672
v 0.006167711 -0.3394029 0.08688851
v -0.3662603 -0.3473813 0.1063593
v 0.3708381 -0.4973464 0.06401375
v 0.004899401 -0.4979572 0.05400459
v -0.3604912 -0.5013065 0.07935067
v 0.004929918 -0.6309627 -0.0398632
v -0.3455437 -0.6351202 -0.03279655
v 0.3545332 -0.6285427 -0.04560966
v 0.004647936 -0.6757339 -0.03140922
v -0.3453631 -0.6812418 -0.02075004
v 0.003133043 -0.7317095 0.07836251
v -0.344456 -0.740232 0.09647164
v 0.3509394 -0.7355985 0.08979318
v 0.3539424 -0.6748339 -0.03288627
v -0.3453631 -0.6812418 -0.02075004
vt 0.1045532 0.5722656
vt 0.1045532 0.5761719
vt 0.1054688 0.5761719
vt 0.1055298 0.5722656
vt 0.1048584 0.5668945
vt 0.105957 0.5668945
vt 0.1060791 0.5800781
vt 0.1051636 0.5800781
vt 0.1065674 0.5849609
vt 0.1055298 0.5854492
vt 0.1063843 0.5893555
vt 0.1054077 0.5893555
vt 0.1060791 0.5947266
vt 0.1049805 0.5942383
vt 0.1055908 0.5996094
vt 0.1045532 0.5991211
vt 0.1057129 0.6040039
vt 0.1047974 0.6040039
vt 0.105896 0.6083984
vt 0.1050415 0.6088867
vt 0.09631348 0.5805664
vt 0.09643555 0.5756836
vt 0.08813477 0.5761719
vt 0.08825684 0.5722656
vt 0.08728027 0.5727539
vt 0.08728027 0.5761719
vt 0.08685303 0.5668945
vt 0.08795166 0.5668945
vt 0.08782959 0.5805664
vt 0.08691406 0.5800781
vt 0.08740234 0.5854492
vt 0.08636475 0.5849609
vt 0.08752441 0.5898438
vt 0.08660889 0.5898438
vt 0.08807373 0.5942383
vt 0.08703613 0.5947266
vt 0.08837891 0.5991211
vt 0.08740234 0.5996094
vt 0.08837891 0.6040039
vt 0.08740234 0.6040039
vt 0.08813477 0.6088867
vt 0.08734131 0.6083984
vt 0.08404541 0.5805664
vt 0.08441162 0.5766602
vt 0.08349609 0.5766602
vt 0.08343506 0.5732422
vt 0.08428955 0.5732422
vt 0.0826416 0.5678711
vt 0.08355713 0.5678711
vt 0.08306885 0.5805664
vt 0.08361816 0.5854492
vt 0.0826416 0.5854492
vt 0.0836792 0.5898438
vt 0.08276367 0.5898438
vt 0.08428955 0.5947266
vt 0.08343506 0.5952148
vt 0.08483887 0.5996094
vt 0.08392334 0.6000977
vt 0.0847168 0.6044922
vt 0.08380127 0.6044922
vt 0.08404541 0.6088867
vt 0.08312988 0.6088867
vt 0.08789063 0.6098633
vt 0.08422852 0.6098633
vt 0.09655762 0.6098633
vt 0.09655762 0.6088867
vt 0.09655762 0.6044922
vt 0.09655762 0.5996094
vt 0.09649658 0.5942383
vt 0.09643555 0.5898438
vt 0.09643555 0.5854492
vt 0.1052856 0.6098633
vt 0.1089478 0.6088867
vt 0.1082764 0.6040039
vt 0.1098633 0.6088867
vt 0.1091919 0.6044922
vt 0.1083984 0.5996094
vt 0.109314 0.6000977
vt 0.1087036 0.5952148
vt 0.1096191 0.5952148
vt 0.1091919 0.5893555
vt 0.1101685 0.5898438
vt 0.1092529 0.5849609
vt 0.1102905 0.5849609
vt 0.1088867 0.5800781
vt 0.1098633 0.5800781
vt 0.1084595 0.5761719
vt 0.109375 0.5761719
vt 0.1084595 0.5732422
vt 0.109314 0.5732422
vt 0.1092529 0.5678711
vt 0.1101685 0.5678711
vt 0.09637451 0.5664063
vt 0.09643555 0.5717773
vt 0.1459961 0.7060547
vt 0.137207 0.706543
vt 0.1383057 0.7109375
vt 0.1459961 0.7109375
vt 0.1542969 0.7060547
vt 0.1538086 0.7109375
vt 0.1369629 0.7041016
vt 0.145874 0.7041016
vt 0.154541 0.7041016
vt 0.137085 0.7016602
vt 0.145874 0.7016602
vt 0.1546631 0.7011719
vt 0.1369629 0.6972656
vt 0.145874 0.6972656
vt 0.1546631 0.6972656
vt 0.1373291 0.6928711
vt 0.145752 0.6928711
vt 0.1541748 0.6928711
vt 0.137207 0.6879883
vt 0.1456299 0.6875
vt 0.1541748 0.6875
vt 0.1369629 0.6835938
vt 0.1455078 0.6835938
vt 0.1542969 0.6835938
vt 0.1369629 0.6801758
vt 0.1455078 0.6796875
vt 0.1541748 0.6796875
vt 0.1453857 0.6757813
vt 0.1536865 0.6757813
vt 0.137207 0.6757813
vt 0.1453857 0.6748047
vt 0.1536865 0.6743164
vt 0.1455078 0.671875
vt 0.1535645 0.6713867
vt 0.1373291 0.6713867
vt 0.1373291 0.6748047
vt 0.1088257 0.6098633
vn -0.003172045 0.9879947 0.1544552
vn -0.0006985057 0.6704713 0.7419352
vn -0.9627413 0.23538 0.1331371
vn -0.959172 0.271179 -0.08031922
vn -0.005677164 0.9978876 -0.06471682
vn -0.9656704 0.2212022 -0.1361992
vn -0.9727384 0.04740196 0.227009
vn -0.0101701 0.1332322 0.9910327
vn -0.9786326 -0.06498863 0.1950756
vn -0.01615009 -0.0389678 0.9991099
vn -0.9828953 4.01633E-05 0.1841658
vn -0.02421655 0.242226 0.9699176
vn -0.9682603 0.03661507 0.2472475
vn -0.01763029 0.2081486 0.9779383
vn -0.9458464 -0.0325698 0.3229765
vn 0.00640323 -0.08075556 0.9967134
vn -0.9539043 -0.1153326 0.2770649
vn 0.01070358 -0.3634833 0.9315392
vn -0.9637699 -0.2437285 0.1083699
vn 0.01112963 -0.5798826 0.814624
vn -0.0112332 0.1282647 0.9916763
vn -0.008810915 0.6781493 0.7348714
vn -0.01347906 0.6781707 0.7347808
vn -0.000664692 0.9882996 0.1525232
vn 0.9472425 0.3086344 -0.0864659
vn 0.9517214 0.2499869 0.1781377
vn 0.9556511 0.2468174 -0.1606617
vn 0.005897333 0.9977793 -0.06634568
vn -0.01325734 0.1334551 0.9909662
vn 0.9585504 0.04213823 0.2817898
vn 0.0006902248 -0.0484184 0.9988269
vn 0.9822123 -0.053005 0.1801371
vn 0.01657858 0.2237412 0.9745076
vn 0.9871889 -0.01920993 0.1583955
vn 0.02022386 0.1998574 0.9796163
vn 0.9737004 0.03211771 0.2255572
vn 0.01362456 -0.08817808 0.9960115
vn 0.9515254 -0.03297044 0.305798
vn 0.01231807 -0.3619746 0.9321066
vn 0.9497495 -0.1283184 0.2855004
vn 0.01234707 -0.574742 0.8182416
vn 0.9576407 -0.2563092 0.1312622
vn 0.9851259 -0.002905054 -0.1718096
vn 0.9941984 -0.02164484 -0.1053608
vn 0.1618471 -0.592495 -0.7891484
vn 0.1406218 -0.9862677 -0.08661141
vn 0.9882209 -0.04460761 -0.1463881
vn 0.1043305 -0.9901845 0.09300347
vn 0.9818897 -0.1201828 -0.1464537
vn 0.1337387 -0.002552196 -0.9910133
vn 0.9758036 -0.04296362 -0.2143862
vn 0.1368248 0.02960031 -0.9901529
vn 0.975081 -0.0890611 -0.2031875
vn 0.1179756 -0.2110908 -0.9703208
vn 0.9900056 -0.03124403 -0.1375235
vn 0.1190978 -0.2067347 -0.9711213
vn 0.9974793 0.008821805 -0.07040881
vn 0.1276455 0.09811167 -0.9869553
vn 0.99775 0.008334863 -0.06652332
vn 0.1074722 0.4265747 -0.8980445
vn 0.9792468 -0.07825796 -0.1869526
vn 0.0566982 0.4702983 -0.8806843
vn 0.08107609 -0.9670312 -0.2414069
vn 0.09056262 -0.7774294 -0.6224161
vn 0.003289845 -0.9696851 -0.2443358
vn 0.01297542 -0.5818292 0.8132075
vn 0.01447194 -0.367391 0.929954
vn 0.01136269 -0.08601563 0.996229
vn 0.006000578 0.20129 0.9795133
vn -0.0003774278 0.2386495 0.9711057
vn -0.007434988 -0.03248962 0.9994444
vn -0.07294477 -0.9693491 -0.2346088
vn -0.9757863 -0.05503856 -0.2116885
vn -0.9971992 0.0126761 -0.0737105
vn -0.09545116 0.4686816 -0.878195
vn -0.136354 0.3977647 -0.9072986
vn -0.9980209 -0.004451836 -0.06272583
vn -0.1299401 0.07876786 -0.9883881
vn -0.9932646 -0.02719091 -0.1126323
vn -0.1190065 -0.2033609 -0.9718445
vn -0.978441 -0.0860407 -0.1877504
vn -0.1150828 -0.2281766 -0.9667944
vn -0.9771724 -0.05424081 -0.2054066
vn -0.1246086 0.01686037 -0.9920626
vn -0.9767655 0.001262914 -0.2143075
vn -0.1175912 0.004269263 -0.9930529
vn -0.9811555 -0.03326233 -0.1903354
vn -0.1422564 -0.5611856 -0.8153734
vn -0.9867166 -0.09360209 -0.1327744
vn -0.1400562 -0.9872722 -0.07535143
vn -0.9829597 -0.1513075 -0.1043852
vn -0.1121283 -0.9881032 0.1052585
vn -0.0009435143 0.9984296 -0.05601291
vn -0.002546371 0.9892094 0.1464867
vn 0.0008250292 -0.9988616 -0.04769558
vn 0.1406218 -0.9862677 -0.08661141
vn 0.1043305 -0.9901845 0.09300347
vn -0.001027661 -0.9941099 0.1083721
vn -0.1400562 -0.9872722 -0.07535143
vn -0.1121283 -0.9881032 0.1052585
vn 0.1618471 -0.592495 -0.7891484
vn 0.01025902 -0.5989849 -0.8006946
vn -0.1422564 -0.5611856 -0.8153734
vn 0.1337387 -0.002552196 -0.9910133
vn 0.01143393 0.003575091 -0.9999282
vn -0.1175912 0.004269263 -0.9930529
vn 0.1368248 0.02960031 -0.9901529
vn 0.007926328 0.02346434 -0.9996933
vn -0.1246086 0.01686037 -0.9920626
vn 0.1179756 -0.2110908 -0.9703208
vn 0.001442166 -0.2219467 -0.9750577
vn -0.1150828 -0.2281766 -0.9667944
vn 0.1190978 -0.2067347 -0.9711213
vn -0.001911047 -0.2113898 -0.9774
vn -0.1190065 -0.2033609 -0.9718445
vn 0.1276455 0.09811167 -0.9869553
vn -0.005430731 0.08661459 -0.9962271
vn -0.1299401 0.07876786 -0.9883881
vn 0.1074722 0.4265747 -0.8980445
vn -0.01541244 0.4255538 -0.9048018
vn -0.136354 0.3977647 -0.9072986
vn -0.02038265 0.4608933 -0.8872215
vn -0.09545116 0.4686816 -0.878195
vn 0.0566982 0.4702983 -0.8806843
vn -0.003699535 -0.7691802 -0.6390213
vn -0.09251492 -0.7766044 -0.6231586
vn 0.003289845 -0.9696851 -0.2443358
vn -0.07294477 -0.9693491 -0.2346088
vn 0.08107609 -0.9670312 -0.2414069
vn 0.09056262 -0.7774294 -0.6224161
vn -0.09251492 -0.7766044 -0.6231586
g m_dlc08_organ_paper_0
f 3/3/3 2/2/2 1/1/1
f 4/4/4 3/3/3 1/1/1
f 1/1/1 5/5/5 4/4/4
f 5/5/5 6/6/6 4/4/4
f 3/3/3 7/7/7 2/2/2
f 7/7/7 8/8/8 2/2/2
f 7/7/7 9/9/9 8/8/8
f 9/9/9 10/10/10 8/8/8
f 9/9/9 11/11/11 10/10/10
f 11/11/11 12/12/12 10/10/10
f 11/11/11 13/13/13 12/12/12
f 13/13/13 14/14/14 12/12/12
f 13/13/13 15/15/15 14/14/14
f 15/15/15 16/16/16 14/14/14
f 15/15/15 17/17/17 16/16/16
f 17/17/17 18/18/18 16/16/16
f 17/17/17 19/19/19 18/18/18
f 19/19/19 20/20/20 18/18/18
f 8/8/8 10/10/10 21/21/21
f 8/8/8 21/21/21 22/22/22
f 22/22/22 21/21/21 23/23/23
f 22/22/22 23/23/23 24/24/24
f 24/24/24 23/23/23 25/25/25
f 23/23/23 26/26/26 25/25/25
f 25/25/25 27/27/27 24/24/24
f 27/27/27 28/28/28 24/24/24
f 23/23/23 29/29/29 26/26/26
f 21/21/21 29/29/29 23/23/23
f 29/29/29 30/30/30 26/26/26
f 29/29/29 31/31/31 30/30/30
f 31/31/31 32/32/32 30/30/30
f 31/31/31 33/33/33 32/32/32
f 33/33/33 34/34/34 32/32/32
f 33/33/33 35/35/35 34/34/34
f 35/35/35 36/36/36 34/34/34
f 35/35/35 37/37/37 36/36/36
f 37/37/37 38/38/38 36/36/36
f 37/37/37 39/39/39 38/38/38
f 39/39/39 40/40/40 38/38/38
f 39/39/39 41/41/41 40/40/40
f 41/41/41 42/42/42 40/40/40
f 30/30/30 32/32/32 43/43/43
f 30/30/30 43/43/43 44/44/44
f 44/44/44 43/43/43 45/45/45
f 44/44/44 45/45/45 46/46/46
f 47/47/47 44/44/44 46/46/46
f 46/46/46 48/48/48 47/47/47
f 48/48/48 49/49/49 47/47/47
f 43/43/43 50/50/50 45/45/45
f 43/43/43 51/51/51 50/50/50
f 51/51/51 52/52/52 50/50/50
f 51/51/51 53/53/53 52/52/52
f 53/53/53 54/54/54 52/52/52
f 53/53/53 55/55/55 54/54/54
f 55/55/55 56/56/56 54/54/54
f 55/55/55 57/57/57 56/56/56
f 57/57/57 58/58/58 56/56/56
f 57/57/57 59/59/59 58/58/58
f 59/59/59 60/60/60 58/58/58
f 59/59/59 61/61/61 60/60/60
f 61/61/61 62/62/62 60/60/60
f 49/49/49 27/27/27 47/47/47
f 34/34/34 53/53/53 51/51/51
f 32/32/32 34/34/34 51/51/51
f 32/32/32 51/51/51 43/43/43
f 36/36/36 55/55/55 53/53/53
f 34/34/34 36/36/36 53/53/53
f 38/38/38 57/57/57 55/55/55
f 36/36/36 38/38/38 55/55/55
f 40/40/40 59/59/59 57/57/57
f 38/38/38 40/40/40 57/57/57
f 42/42/42 61/61/61 59/59/59
f 40/40/40 42/42/42 59/59/59
f 42/42/42 63/63/63 61/61/61
f 63/63/63 64/64/64 61/61/61
f 64/64/64 62/62/62 61/61/61
f 42/42/42 41/41/41 63/63/63
f 63/63/63 41/41/41 65/65/65
f 41/41/41 66/66/66 65/65/65
f 66/66/66 41/41/41 39/39/39
f 67/67/67 66/66/66 39/39/39
f 67/67/67 39/39/39 37/37/37
f 68/68/68 67/67/67 37/37/37
f 68/68/68 37/37/37 35/35/35
f 69/69/69 68/68/68 35/35/35
f 69/69/69 35/35/35 33/33/33
f 70/70/70 69/69/69 33/33/33
f 70/70/70 33/33/33 31/31/31
f 71/71/71 70/70/70 31/31/31
f 71/71/71 31/31/31 29/29/29
f 21/21/21 71/71/71 29/29/29
f 10/10/10 71/71/71 21/21/21
f 12/12/12 70/70/70 71/71/71
f 10/10/10 12/12/12 71/71/71
f 14/14/14 69/69/69 70/70/70
f 12/12/12 14/14/14 70/70/70
f 16/16/16 68/68/68 69/69/69
f 14/14/14 16/16/16 69/69/69
f 18/18/18 67/67/67 68/68/68
f 16/16/16 18/18/18 68/68/68
f 18/18/18 20/20/20 67/67/67
f 20/20/20 66/66/66 67/67/67
f 66/66/66 20/20/20 72/72/72
f 65/65/65 66/66/66 72/72/72
f 72/72/72 20/20/20 19/19/19
f 72/72/72 19/19/19 73/73/73
f 73/73/73 19/19/19 17/17/17
f 74/74/74 73/73/73 17/17/17
f 75/75/75 73/73/73 74/74/74
f 76/76/76 75/75/75 74/74/74
f 76/76/76 74/74/74 77/77/77
f 78/78/78 76/76/76 77/77/77
f 78/78/78 77/77/77 79/79/79
f 80/80/80 78/78/78 79/79/79
f 80/80/80 79/79/79 81/81/81
f 82/82/82 80/80/80 81/81/81
f 82/82/82 81/81/81 83/83/83
f 84/84/84 82/82/82 83/83/83
f 84/84/84 83/83/83 85/85/85
f 86/86/86 84/84/84 85/85/85
f 86/86/86 85/85/85 87/87/87
f 88/88/88 86/86/86 87/87/87
f 88/88/88 87/87/87 89/89/89
f 90/90/90 88/88/88 89/89/89
f 89/89/89 91/91/91 90/90/90
f 91/91/91 92/92/92 90/90/90
f 89/89/89 4/4/4 91/91/91
f 89/89/89 87/87/87 4/4/4
f 4/4/4 6/6/6 91/91/91
f 87/87/87 3/3/3 4/4/4
f 87/87/87 85/85/85 3/3/3
f 85/85/85 7/7/7 3/3/3
f 85/85/85 83/83/83 7/7/7
f 83/83/83 9/9/9 7/7/7
f 83/83/83 81/81/81 9/9/9
f 81/81/81 11/11/11 9/9/9
f 81/81/81 79/79/79 11/11/11
f 79/79/79 13/13/13 11/11/11
f 79/79/79 77/77/77 13/13/13
f 77/77/77 15/15/15 13/13/13
f 77/77/77 74/74/74 15/15/15
f 74/74/74 17/17/17 15/15/15
f 24/24/24 28/28/28 93/93/93
f 94/94/94 24/24/24 93/93/93
f 94/94/94 93/93/93 1/1/1
f 93/93/93 5/5/5 1/1/1
f 94/94/94 22/22/22 24/24/24
f 2/2/2 22/22/22 94/94/94
f 1/1/1 2/2/2 94/94/94
f 2/2/2 8/8/8 22/22/22
f 97/97/97 96/96/96 95/95/95
f 98/98/98 97/97/97 95/95/95
f 98/98/98 95/95/95 99/99/99
f 100/100/100 98/98/98 99/99/99
f 96/96/96 101/101/101 95/95/95
f 101/101/101 102/102/102 95/95/95
f 95/95/95 102/102/102 99/99/99
f 102/102/102 103/103/103 99/99/99
f 101/101/101 104/104/104 102/102/102
f 104/104/104 105/105/105 102/102/102
f 102/102/102 105/105/105 103/103/103
f 105/105/105 106/106/106 103/103/103
f 104/104/104 107/107/107 105/105/105
f 107/107/107 108/108/108 105/105/105
f 105/105/105 108/108/108 106/106/106
f 108/108/108 109/109/109 106/106/106
f 107/107/107 110/110/110 108/108/108
f 110/110/110 111/111/111 108/108/108
f 108/108/108 111/111/111 109/109/109
f 111/111/111 112/112/112 109/109/109
f 110/110/110 113/113/113 111/111/111
f 113/113/113 114/114/114 111/111/111
f 111/111/111 114/114/114 112/112/112
f 114/114/114 115/115/115 112/112/112
f 113/113/113 116/116/116 114/114/114
f 116/116/116 117/117/117 114/114/114
f 114/114/114 117/117/117 115/115/115
f 117/117/117 118/118/118 115/115/115
f 116/116/116 119/119/119 117/117/117
f 119/119/119 120/120/120 117/117/117
f 117/117/117 120/120/120 118/118/118
f 120/120/120 121/121/121 118/118/118
f 120/120/120 122/122/122 121/121/121
f 122/122/122 123/123/123 121/121/121
f 124/124/124 122/122/122 120/120/120
f 119/119/119 124/124/124 120/120/120
f 122/122/122 125/125/125 123/123/123
f 125/125/125 126/126/126 123/123/123
f 125/125/125 127/127/127 126/126/126
f 127/127/127 128/128/128 126/126/126
f 129/129/129 127/127/127 125/125/125
f 130/130/130 129/129/129 125/125/125
f 130/130/130 125/125/125 122/122/122
f 124/124/124 130/130/130 122/122/122
f 27/27/27 25/25/25 47/47/47
f 25/25/25 26/26/26 47/47/47
f 26/26/26 44/44/44 47/47/47
f 26/26/26 30/30/30 44/44/44
f 131/131/131 72/72/72 73/73/73
f 75/75/75 131/131/131 73/73/73
