g Hat_Cap
v -0.1928223 1.163762 0.06240731
v -0.1948512 1.321872 -0.04634401
v -0.1031767 1.360222 -0.0005276655
v -0.09781837 1.193556 0.1080718
v 0.00240186 1.374746 0.01925008
v 0.002784015 1.20706 0.1268953
v -0.2462274 1.105452 -0.0302275
v -0.2420014 1.249539 -0.1323023
v -0.2747986 1.04151 -0.1274336
v -0.2583899 1.174343 -0.2199705
v -0.2580798 0.9783852 -0.2218612
v -0.2391544 1.099038 -0.2906889
v -0.1964324 0.9203575 -0.3177096
v -0.1823223 1.027303 -0.3722236
v -0.08054175 0.8964657 -0.3600193
v -0.07881152 0.9940149 -0.4067619
v 0.03436927 0.8893796 -0.3744933
v 0.03259292 0.9831083 -0.4202672
v 0.005088311 1.374692 -0.05648242
v 0.1051364 1.199876 0.115724
v 0.1096813 1.365649 0.007125666
v 0.2049755 1.176304 0.07719529
v 0.2059672 1.33257 -0.03156593
v 0.2688959 1.121738 -0.01164904
v 0.2628995 1.26414 -0.1136333
v 0.3098587 1.060152 -0.1069032
v 0.2905827 1.191074 -0.2019143
v 0.3065741 1.001028 -0.1962343
v 0.2839316 1.118879 -0.2703606
v 0.2570699 0.9375593 -0.3000854
v 0.2391783 1.043291 -0.355843
v 0.1469468 0.9050945 -0.3511785
v 0.1414706 1.00237 -0.3982012
v 0.03436927 0.8893796 -0.3744933
v 0.03259292 0.9831083 -0.4202672
v 0.2059672 1.33257 -0.03156593
v 0.09089831 1.366443 -0.06736401
v 0.1716824 1.338392 -0.1027526
v 0.1165065 1.31326 -0.1808681
v 0.2189554 1.281354 -0.1710694
v 0.01077386 1.321925 -0.1793319
v -0.07921116 1.362128 -0.07341111
v -0.09402522 1.307798 -0.1885224
v -0.1558278 1.329899 -0.1146641
v -0.1950923 1.269845 -0.186325
v -0.09451901 1.235951 -0.2796888
v -0.207512 1.205336 -0.2617076
v 0.01649525 1.245378 -0.2820556
v -0.08494132 1.151486 -0.3804663
v -0.1901552 1.137929 -0.3580219
v 0.02239471 1.15316 -0.3863955
v -0.0581196 1.060012 -0.4021449
v -0.1427364 1.087601 -0.3723772
v 0.02978726 1.050598 -0.413945
v -0.1948512 1.321872 -0.04634401
v -0.2420014 1.249539 -0.1323023
v -0.2583899 1.174343 -0.2199705
v -0.2391544 1.099038 -0.2906889
v -0.07881152 0.9940149 -0.4067619
v -0.1823223 1.027303 -0.3722236
v 0.03259292 0.9831083 -0.4202672
v 0.1274604 1.242225 -0.2715174
v 0.2406313 1.218602 -0.2451987
v 0.1289892 1.156908 -0.3728845
v 0.2329024 1.148651 -0.3430285
v 0.1155507 1.066599 -0.3953957
v 0.1952761 1.100422 -0.3592412
v 0.2905827 1.191074 -0.2019143
v 0.2628995 1.26414 -0.1136333
v 0.2839316 1.118879 -0.2703606
v 0.1414706 1.00237 -0.3982012
v 0.2391783 1.043291 -0.355843
v -0.1964324 0.9203575 -0.3177096
v -0.2580798 0.9783852 -0.2218612
v -0.1155502 0.9682784 -0.2394265
v -0.08054175 0.8964657 -0.3600193
v 0.02660085 0.9672194 -0.2433781
v 0.03436927 0.8893796 -0.3744933
v -0.1297388 1.047108 -0.119658
v -0.2747986 1.04151 -0.1274336
v 0.01738404 1.052878 -0.1098765
v -0.1195408 1.122604 -0.004644108
v -0.2462274 1.105452 -0.0302275
v 0.00946425 1.133086 0.01477724
v -0.09781837 1.193556 0.1080718
v -0.1928223 1.163762 0.06240731
v 0.002784015 1.20706 0.1268953
v 0.1469468 0.9050945 -0.3511785
v 0.1675061 0.9775049 -0.2295123
v 0.2570699 0.9375593 -0.3000854
v 0.3065741 1.001028 -0.1962343
v 0.1644215 1.056911 -0.1100946
v 0.3098587 1.060152 -0.1069032
v 0.1396896 1.130797 0.004290652
v 0.2688959 1.121738 -0.01164904
v 0.1051364 1.199876 0.115724
v 0.2049755 1.176304 0.07719529
vt 0.2743447 0.7074316
vt 0.2743447 0.7559087
vt 0.3085519 0.7551681
vt 0.3085518 0.7074316
vt 0.3390349 0.7502624
vt 0.3390396 0.7074316
vt 0.23369 0.7074316
vt 0.23369 0.7559087
vt 0.1913246 0.7074316
vt 0.1913246 0.755909
vt 0.1476993 0.707432
vt 0.1476993 0.7559087
vt 0.106001 0.707432
vt 0.1060008 0.7559087
vt 0.0589259 0.707432
vt 0.0589259 0.7559087
vt 0.01068649 0.707432
vt 0.01068649 0.7559087
vt 0.3390349 0.7747418
vt 0.3695273 0.7074316
vt 0.3695273 0.7551681
vt 0.4037345 0.7074316
vt 0.4037345 0.7559087
vt 0.4443894 0.7074316
vt 0.4443894 0.7559087
vt 0.4867547 0.7074316
vt 0.4867547 0.755909
vt 0.53038 0.707432
vt 0.53038 0.7559087
vt 0.5720784 0.707432
vt 0.5720784 0.7559087
vt 0.6191534 0.707432
vt 0.6191534 0.7559087
vt 0.667393 0.707432
vt 0.667393 0.7559087
vt 0.4064832 0.7758046
vt 0.3646871 0.7792802
vt 0.3916638 0.7963032
vt 0.3715242 0.8222522
vt 0.4074363 0.8291187
vt 0.3390349 0.8184623
vt 0.3133923 0.7792802
vt 0.306555 0.8222522
vt 0.2864156 0.7963032
vt 0.270643 0.8291187
vt 0.3041296 0.86336
vt 0.2646955 0.8648087
vt 0.3390349 0.8634188
vt 0.3055858 0.904319
vt 0.2695272 0.9001464
vt 0.3390349 0.9073341
vt 0.3117004 0.9455082
vt 0.2838878 0.9295313
vt 0.3390349 0.9519951
vt 0.2715962 0.7758046
vt 0.2503932 0.8170701
vt 0.2420081 0.8606519
vt 0.2470329 0.9055987
vt 0.3017486 0.9661292
vt 0.2664993 0.9452197
vt 0.3390396 0.974274
vt 0.3739498 0.86336
vt 0.4133836 0.8648087
vt 0.3724933 0.904319
vt 0.408552 0.9001464
vt 0.3663788 0.9455082
vt 0.3941915 0.9295313
vt 0.4360711 0.8606519
vt 0.4276861 0.8170701
vt 0.4310463 0.9055987
vt 0.3763308 0.9661292
vt 0.4115801 0.9452197
vt 0.1790718 0.9522204
vt 0.1951782 0.9162315
vt 0.1530405 0.9253722
vt 0.145255 0.9688343
vt 0.1105754 0.9288567
vt 0.1113129 0.9756934
vt 0.1543843 0.8790976
vt 0.1981151 0.8790976
vt 0.1100962 0.8790976
vt 0.1491172 0.8352976
vt 0.1876373 0.8382495
vt 0.1100962 0.8319411
vt 0.1406466 0.7946581
vt 0.1654506 0.8101557
vt 0.1100962 0.7885796
vt 0.07735258 0.9692614
vt 0.06846273 0.9253266
vt 0.04357237 0.9536498
vt 0.02652329 0.9184943
vt 0.06279004 0.8790976
vt 0.02207667 0.8790976
vt 0.07107472 0.8352976
vt 0.03255492 0.8382495
vt 0.07954538 0.7946581
vt 0.04902232 0.8101557
vn -0.7492818 0.3699204 0.5493047
vn -0.7405907 0.5347922 0.4068446
vn -0.3791127 0.6819016 0.6255267
vn -0.3769297 0.5031304 0.7776784
vn -0.04522096 0.7174832 0.6951063
vn -0.04681123 0.5410011 0.8397182
vn -0.9495311 0.2040167 0.2382601
vn -0.9303702 0.3529665 0.09912609
vn -0.9956148 0.08892967 -0.02902768
vn -0.9623123 0.2262193 -0.1509301
vn -0.9339532 -0.06771389 -0.3509221
vn -0.9063858 0.04204333 -0.4203535
vn -0.6927893 -0.2584363 -0.6732411
vn -0.6489184 -0.155881 -0.7447188
vn -0.2784242 -0.4091652 -0.868944
vn -0.2656526 -0.2380524 -0.934216
vn 0.05137445 -0.4317903 -0.9005097
vn 0.04742746 -0.2630924 -0.9636042
vn -0.01618273 0.9706303 -0.2400311
vn 0.287867 0.5247633 0.8010967
vn 0.2932728 0.7029717 0.6479366
vn 0.6823419 0.4158269 0.6012467
vn 0.6762664 0.5781866 0.4564691
vn 0.9143618 0.2658711 0.3053768
vn 0.8958684 0.4123612 0.1654632
vn 0.984566 0.16597 0.0555314
vn 0.9492134 0.3043651 -0.0797232
vn 0.9624843 0.004221042 -0.2713046
vn 0.9282718 0.1193071 -0.3522463
vn 0.7654725 -0.2030612 -0.6105883
vn 0.7188245 -0.1027854 -0.6875511
vn 0.3750762 -0.3843772 -0.8435473
vn 0.3544951 -0.2145296 -0.9101155
vn 0.05137445 -0.4317903 -0.9005097
vn 0.04742746 -0.2630924 -0.9636042
vn 0.6762664 0.5781866 0.4564691
vn 0.1465019 0.9575477 -0.2482734
vn 0.3678882 0.8835142 -0.2899324
vn 0.1533677 0.8423228 -0.5166922
vn 0.4543639 0.7784011 -0.4331803
vn -0.004336936 0.862156 -0.5066242
vn -0.1781063 0.9490783 -0.2598625
vn -0.1612248 0.8328562 -0.5294877
vn -0.3952374 0.8618006 -0.3179419
vn -0.4702085 0.7479047 -0.4685535
vn -0.1714128 0.7647335 -0.6211283
vn -0.505077 0.6558547 -0.5610274
vn 0.002134256 0.7752917 -0.6315996
vn -0.1667509 0.5797011 -0.7975844
vn -0.4860214 0.4865623 -0.7259755
vn 0.01300103 0.5706247 -0.8211079
vn -0.1568942 0.1679141 -0.9732364
vn -0.3785956 0.1119019 -0.9187727
vn 0.03202537 0.1766709 -0.9837489
vn -0.7405907 0.5347922 0.4068446
vn -0.9303702 0.3529665 0.09912609
vn -0.9623123 0.2262193 -0.1509301
vn -0.9063858 0.04204333 -0.4203535
vn -0.2656526 -0.2380524 -0.934216
vn -0.6489184 -0.155881 -0.7447188
vn 0.04742746 -0.2630924 -0.9636042
vn 0.1735031 0.7735775 -0.6094873
vn 0.4907351 0.6930742 -0.528041
vn 0.188527 0.5945879 -0.7816155
vn 0.4927692 0.5286629 -0.6911541
vn 0.2186523 0.1850983 -0.9580866
vn 0.4348722 0.1559929 -0.8868779
vn 0.9492134 0.3043651 -0.0797232
vn 0.8958684 0.4123612 0.1654632
vn 0.9282718 0.1193071 -0.3522463
vn 0.3544951 -0.2145296 -0.9101155
vn 0.7188245 -0.1027854 -0.6875511
vn 0.007093707 -0.8561131 0.5167398
vn 0.006142046 -0.8398448 0.542792
vn 0.005884947 -0.8462403 0.5327688
vn 0.008846696 -0.8580741 0.5134497
vn 0.01027826 -0.8483534 0.5293307
vn 0.01140841 -0.8593189 0.5113129
vn 0.0008713168 -0.8366109 0.5477968
vn 0.004387755 -0.8343908 0.5511558
vn 0.009096086 -0.8382089 0.5452735
vn -0.0007489213 -0.8405516 0.5417311
vn 0.004116723 -0.8387276 0.5445357
vn 0.007928157 -0.8396198 0.5431166
vn 0.0005544517 -0.8423775 0.5388875
vn 0.009089564 -0.8477539 0.5303118
vn 0.006828961 -0.8406785 0.5414916
vn 0.01510343 -0.8596335 0.5106878
vn 0.01458324 -0.8470206 0.53136
vn 0.01985212 -0.8590832 0.5114508
vn 0.01098485 -0.840704 0.5413835
vn 0.01421577 -0.8369286 0.5471275
vn 0.007503403 -0.8356791 0.5491669
vn 0.01514513 -0.8418087 0.5395635
vn 0.006733784 -0.8414184 0.5403423
vn 0.01299846 -0.8432757 0.537324
vn 0.004188127 -0.849975 0.5268062
g Hat_Cap_0
f 3/3/3 2/2/2 1/1/1
f 4/4/4 3/3/3 1/1/1
f 5/5/5 3/3/3 4/4/4
f 6/6/6 5/5/5 4/4/4
f 1/1/1 2/2/2 7/7/7
f 2/2/2 8/8/8 7/7/7
f 7/7/7 8/8/8 9/9/9
f 8/8/8 10/10/10 9/9/9
f 9/9/9 10/10/10 11/11/11
f 10/10/10 12/12/12 11/11/11
f 11/11/11 12/12/12 13/13/13
f 12/12/12 14/14/14 13/13/13
f 15/15/15 13/13/13 14/14/14
f 16/16/16 15/15/15 14/14/14
f 17/17/17 15/15/15 16/16/16
f 18/18/18 17/17/17 16/16/16
f 5/5/5 19/19/19 3/3/3
f 5/5/5 6/6/6 20/20/20
f 21/21/21 5/5/5 20/20/20
f 21/21/21 20/20/20 22/22/22
f 23/23/23 21/21/21 22/22/22
f 23/23/23 22/22/22 24/24/24
f 25/25/25 23/23/23 24/24/24
f 25/25/25 24/24/24 26/26/26
f 27/27/27 25/25/25 26/26/26
f 27/27/27 26/26/26 28/28/28
f 29/29/29 27/27/27 28/28/28
f 29/29/29 28/28/28 30/30/30
f 31/31/31 29/29/29 30/30/30
f 30/30/30 32/32/32 31/31/31
f 32/32/32 33/33/33 31/31/31
f 32/32/32 34/34/34 33/33/33
f 34/34/34 35/35/35 33/33/33
f 37/37/37 21/21/21 36/36/36
f 38/38/38 37/37/37 36/36/36
f 39/39/39 37/37/37 38/38/38
f 40/40/40 39/39/39 38/38/38
f 39/39/39 41/41/41 37/37/37
f 41/41/41 19/19/19 37/37/37
f 19/19/19 41/41/41 42/42/42
f 41/41/41 43/43/43 42/42/42
f 42/42/42 43/43/43 44/44/44
f 43/43/43 45/45/45 44/44/44
f 43/43/43 46/46/46 45/45/45
f 46/46/46 47/47/47 45/45/45
f 48/48/48 46/46/46 43/43/43
f 41/41/41 48/48/48 43/43/43
f 48/48/48 41/41/41 39/39/39
f 46/46/46 49/49/49 47/47/47
f 49/49/49 50/50/50 47/47/47
f 51/51/51 49/49/49 46/46/46
f 48/48/48 51/51/51 46/46/46
f 49/49/49 52/52/52 50/50/50
f 52/52/52 53/53/53 50/50/50
f 54/54/54 52/52/52 49/49/49
f 51/51/51 54/54/54 49/49/49
f 42/42/42 44/44/44 55/55/55
f 3/3/3 42/42/42 55/55/55
f 19/19/19 42/42/42 3/3/3
f 44/44/44 45/45/45 56/56/56
f 55/55/55 44/44/44 56/56/56
f 45/45/45 47/47/47 57/57/57
f 56/56/56 45/45/45 57/57/57
f 47/47/47 50/50/50 58/58/58
f 57/57/57 47/47/47 58/58/58
f 53/53/53 52/52/52 59/59/59
f 60/60/60 53/53/53 59/59/59
f 50/50/50 53/53/53 60/60/60
f 58/58/58 50/50/50 60/60/60
f 52/52/52 54/54/54 61/61/61
f 59/59/59 52/52/52 61/61/61
f 51/51/51 48/48/48 62/62/62
f 62/62/62 48/48/48 39/39/39
f 62/62/62 39/39/39 40/40/40
f 63/63/63 62/62/62 40/40/40
f 64/64/64 62/62/62 63/63/63
f 65/65/65 64/64/64 63/63/63
f 64/64/64 51/51/51 62/62/62
f 66/66/66 64/64/64 65/65/65
f 67/67/67 66/66/66 65/65/65
f 54/54/54 51/51/51 64/64/64
f 66/66/66 54/54/54 64/64/64
f 54/54/54 66/66/66 61/61/61
f 63/63/63 40/40/40 68/68/68
f 40/40/40 69/69/69 68/68/68
f 40/40/40 38/38/38 69/69/69
f 38/38/38 36/36/36 69/69/69
f 63/63/63 68/68/68 70/70/70
f 65/65/65 63/63/63 70/70/70
f 66/66/66 67/67/67 71/71/71
f 67/67/67 72/72/72 71/71/71
f 65/65/65 70/70/70 72/72/72
f 67/67/67 65/65/65 72/72/72
f 66/66/66 71/71/71 61/61/61
f 75/75/75 74/74/74 73/73/73
f 76/76/76 75/75/75 73/73/73
f 77/77/77 75/75/75 76/76/76
f 78/78/78 77/77/77 76/76/76
f 75/75/75 79/79/79 74/74/74
f 79/79/79 80/80/80 74/74/74
f 81/81/81 79/79/79 75/75/75
f 77/77/77 81/81/81 75/75/75
f 79/79/79 82/82/82 80/80/80
f 82/82/82 83/83/83 80/80/80
f 84/84/84 82/82/82 79/79/79
f 81/81/81 84/84/84 79/79/79
f 82/82/82 85/85/85 83/83/83
f 85/85/85 86/86/86 83/83/83
f 87/87/87 85/85/85 82/82/82
f 84/84/84 87/87/87 82/82/82
f 77/77/77 78/78/78 88/88/88
f 89/89/89 77/77/77 88/88/88
f 81/81/81 77/77/77 89/89/89
f 89/89/89 88/88/88 90/90/90
f 91/91/91 89/89/89 90/90/90
f 92/92/92 89/89/89 91/91/91
f 92/92/92 81/81/81 89/89/89
f 84/84/84 81/81/81 92/92/92
f 93/93/93 92/92/92 91/91/91
f 94/94/94 92/92/92 93/93/93
f 94/94/94 84/84/84 92/92/92
f 87/87/87 84/84/84 94/94/94
f 95/95/95 94/94/94 93/93/93
f 96/96/96 94/94/94 95/95/95
f 96/96/96 87/87/87 94/94/94
f 97/97/97 96/96/96 95/95/95
f 19/19/19 5/5/5 21/21/21
f 37/37/37 19/19/19 21/21/21
