g m_city_wall_left_angle_top_01
v -0.1729196 1.006028 0.1379439
v -0.1729196 1.006028 -0.4379433
v 0.420679 1.006028 -0.4380502
v -0.1563082 1.006028 0.1384592
v 0.4326957 0.9939717 -0.4500697
v -0.1729196 0.9939717 -0.4499998
v -0.1727829 0.9939717 0.1502399
v 0.4432913 0.9939717 -0.4456652
v 0.4312747 1.006028 -0.4336457
v 0.4476956 0.9939717 -0.4350711
v 0.435679 1.006028 -0.4230515
v 0.4350931 1.006028 0.1700791
v -0.1407956 1.006028 0.1700791
v -0.1413082 1.006028 0.1534579
v 0.4471488 0.9939717 0.1700791
v -0.1530905 0.9939717 0.1699208
v -0.1457125 1.006028 0.1428599
v -0.1577291 0.9939717 0.1548799
vt 0.3129883 0.4555664
vt 0.3129883 0.3688965
vt 0.4438477 0.3688965
vt 0.357666 0.4555664
vt 0.4458008 0.3652344
vt 0.3129883 0.3652344
vt 0.3342285 0.4592285
vt 0.447998 0.3652344
vt 0.4460449 0.3688965
vt 0.4458008 0.3652344
vt 0.4438477 0.3688965
vt 0.3129883 0.3688965
vt 0.3129883 0.4555664
vt 0.357666 0.4555664
vt 0.3129883 0.3652344
vt 0.3342285 0.4592285
vt 0.3598633 0.4555664
vt 0.3579102 0.4592285
vn 0 1 0
vn 0 1 0
vn 0 1 0
vn 0 1 0
vn 0 0 -1
vn 0 0 -1
vn -0.2884824 0.1018693 0.9520508
vn 0.7024532 0.1141212 -0.702521
vn 0 1 0
vn 1 0 0
vn 0 1 0
vn 0 1 0
vn 0 1 0
vn 0 1 0
vn 1 0 0
vn -0.9519971 0.1019984 0.2886137
vn 0 1 0
vn -0.6981583 0.1568597 0.6985486
g m_city_wall_left_angle_top_01_0
f 3/3/3 2/2/2 1/1/1
f 4/4/4 3/3/3 1/1/1
f 2/2/2 3/3/3 5/5/5
f 6/6/6 2/2/2 5/5/5
f 1/1/1 7/7/7 4/4/4
f 8/8/8 5/5/5 3/3/3
f 9/9/9 8/8/8 3/3/3
f 3/3/3 4/4/4 9/9/9
f 10/10/10 8/8/8 9/9/9
f 11/11/11 10/10/10 9/9/9
f 11/11/11 12/12/12 10/10/10
f 12/12/12 11/11/11 13/13/13
f 11/11/11 14/14/14 13/13/13
f 12/12/12 15/15/15 10/10/10
f 16/16/16 13/13/13 14/14/14
f 17/17/17 14/14/14 11/11/11
f 9/9/9 17/17/17 11/11/11
f 4/4/4 17/17/17 9/9/9
f 4/4/4 7/7/7 17/17/17
f 18/18/18 16/16/16 14/14/14
f 17/17/17 18/18/18 14/14/14
f 7/7/7 18/18/18 17/17/17
