g m_dlc5_camp_4_1_river_ripples
v -7.301194 0.03211392 1.835895
v -7.330844 0.03211397 2.654139
v -7.904778 0.03211397 2.692001
v -8.117062 0.03211392 1.926987
v -6.654995 0.03211392 1.801507
v -6.713613 0.03211397 2.633929
v -5.999375 0.03211392 1.787128
v -6.009407 0.03211397 2.646997
v -4.218148 0.03211392 1.819344
v -4.236498 0.03211397 2.727663
v -1.106017 0.03211392 2.096347
v -1.40416 0.03211397 3.059409
v 1.445655 0.03211392 2.378862
v 0.9893438 0.03211397 3.433409
v 2.502911 0.03211392 2.475809
v 1.982812 0.03211397 3.564609
v 3.562064 0.03211392 2.525917
v 2.985423 0.03211397 3.640296
v 4.640244 0.03211392 2.508472
v 4.018902 0.03211398 3.628199
v 5.119432 0.03211392 2.428864
v 4.96185 0.03211398 3.545474
v 5.621535 0.03211392 2.250908
v 5.69288 0.032114 3.395976
v 6.300182 0.032114 3.16895
v 6.023157 0.03211392 2.006814
v 6.295813 0.03211392 1.803685
v 6.87195 0.032114 2.85364
v 7.368503 0.032114 2.420896
v 6.532601 0.03211392 1.524902
v 6.714607 0.03211391 1.151682
v 7.75017 0.03211397 1.841562
v 8.004389 0.03211393 1.17694
v 6.835834 0.03211389 0.7235199
v 6.890287 0.03211388 0.2798996
v 8.118576 0.03211388 0.4883243
v 8.117135 0.03211385 -0.2218723
v 6.889598 0.03211386 -0.1776236
v 6.845396 0.03211385 -0.6474912
v 8.024438 0.03211382 -0.9512314
v 7.816132 0.0321138 -1.631612
v 6.746061 0.03211383 -1.085806
v 6.579984 0.03211383 -1.448669
v 7.467865 0.03211378 -2.194871
v 7.032135 0.03211378 -2.644964
v 6.3722 0.03211382 -1.738628
v 6.147743 0.03211382 -1.958238
v 6.561442 0.03211377 -2.985857
v 6.048207 0.03211377 -3.239494
v 5.902998 0.03211382 -2.121637
v 5.634339 0.03211383 -2.274296
v 5.484821 0.03211377 -3.42783
v 5.200308 0.03211383 -2.457386
v 4.840777 0.03211378 -3.554541
v 4.675033 0.03211383 -2.603067
v 4.085574 0.0321138 -3.623297
v 3.219911 0.03211381 -3.640296
v 3.684415 0.03211384 -2.606132
v 2.639443 0.03211385 -2.58275
v 2.244478 0.03211383 -3.611727
v 1.55408 0.03211386 -2.553335
v 1.197145 0.03211384 -3.563662
v -1.085114 0.03211386 -2.51965
v -1.3641 0.03211384 -3.489085
v -4.359825 0.03211386 -2.522115
v -4.508026 0.03211384 -3.431358
v -6.149692 0.03211386 -2.552882
v -6.328465 0.03211384 -3.413919
v -6.8269 0.03211386 -2.613162
v -6.977553 0.03211384 -3.423481
v -7.445204 0.03211386 -2.719902
v -7.506612 0.03211384 -3.45258
v -8.118575 0.03211386 -2.923932
v -7.950434 0.03211384 -3.501997
vt -22 0.980957
vt -22.3125 0.007507324
vt -22.82813 0.007507324
vt -22.64063 0.980957
vt -21.51563 0.980957
vt -21.78125 0.007507324
vt -21.03125 0.980957
vt -21.1875 0.007507324
vt -19.73438 0.980957
vt -19.78125 0.007507324
vt -17.59375 0.980957
vt -17.70313 0.007507324
vt -15.98438 0.980957
vt -16.09375 0.007507324
vt -15.34375 0.980957
vt -15.5 0.007507324
vt -14.69531 0.980957
vt -14.92188 0.007507324
vt -14.00781 0.980957
vt -14.34375 0.007507324
vt -13.67969 0.980957
vt -13.84375 0.007507324
vt -13.32031 0.980957
vt -13.47656 0.007507324
vt -13.17969 0.007507324
vt -13 0.980957
vt -12.76563 0.980957
vt -12.89844 0.007507324
vt -12.63281 0.007507324
vt -12.51563 0.980957
vt -12.24219 0.980957
vt -12.35156 0.007507324
vt -12.05469 0.007507324
vt -11.95313 0.980957
vt -11.67188 0.980957
vt -11.75 0.007507324
vt -11.41406 0.007507324
vt -11.38281 0.980957
vt -11.07813 0.980957
vt -11.07031 0.007507324
vt -10.75 0.007507324
vt -10.78125 0.980957
vt -10.51563 0.980957
vt -10.45313 0.007507324
vt -10.17188 0.007507324
vt -10.25781 0.980957
vt -10.03125 0.980957
vt -9.898438 0.007507324
vt -9.617188 0.007507324
vt -9.820313 0.980957
vt -9.59375 0.980957
vt -9.3125 0.007507324
vt -9.25 0.980957
vt -8.945313 0.007507324
vt -8.851563 0.980957
vt -8.5 0.007507324
vt -7.964844 0.007507324
vt -8.164063 0.980957
vt -7.480469 0.980957
vt -7.335938 0.007507324
vt -6.785156 0.980957
vt -6.640625 0.007507324
vt -5.0625 0.980957
vt -4.882813 0.007507324
vt -2.839844 0.980957
vt -2.638672 0.007507324
vt -1.587891 0.980957
vt -1.258789 0.007507324
vt -1.116211 0.980957
vt -0.7167969 0.007507324
vt -0.6645508 0.980957
vt -0.237915 0.007507324
vt -0.1238403 0.980957
vt 0.2033691 0.007507324
vn 0 1 0
vn 0 1 0
vn 0 1 0
vn 0 1 0
vn 0 1 0
vn 0 1 0
vn 0 1 0
vn 0 1 0
vn 0 1 0
vn 0 1 0
vn 0 1 0
vn 0 1 0
vn 0 1 0
vn 0 1 0
vn 0 1 0
vn 0 1 0
vn 0 1 0
vn 0 1 0
vn 0 1 0
vn 0 1 0
vn 0 1 0
vn 0 1 0
vn 0 1 0
vn 0 1 0
vn 0 1 0
vn 0 1 0
vn 0 1 0
vn 0 1 0
vn 0 1 0
vn 0 1 0
vn 0 1 0
vn 0 1 0
vn 0 1 0
vn 0 1 0
vn 0 1 0
vn 0 1 0
vn 0 1 0
vn 0 1 0
vn 0 1 0
vn 0 1 0
vn 0 1 0
vn 0 1 0
vn 0 1 0
vn 0 1 0
vn 0 1 0
vn 0 1 0
vn 0 1 0
vn 0 1 0
vn 0 1 0
vn 0 1 0
vn 0 1 0
vn 0 1 0
vn 0 1 0
vn 0 1 0
vn 0 1 0
vn 0 1 0
vn 0 1 0
vn 0 1 0
vn 0 1 0
vn 0 1 0
vn 0 1 0
vn 0 1 0
vn 0 1 0
vn 0 1 0
vn 0 1 0
vn 0 1 0
vn 0 1 0
vn 0 1 0
vn 0 1 0
vn 0 1 0
vn 0 1 0
vn 0 1 0
vn 0 1 0
vn 0 1 0
g m_dlc5_camp_4_1_river_ripples_0
f 3/3/3 2/2/2 1/1/1
f 4/4/4 3/3/3 1/1/1
f 1/1/1 2/2/2 5/5/5
f 2/2/2 6/6/6 5/5/5
f 5/5/5 6/6/6 7/7/7
f 6/6/6 8/8/8 7/7/7
f 9/9/9 7/7/7 8/8/8
f 10/10/10 9/9/9 8/8/8
f 9/9/9 10/10/10 11/11/11
f 10/10/10 12/12/12 11/11/11
f 11/11/11 12/12/12 13/13/13
f 12/12/12 14/14/14 13/13/13
f 13/13/13 14/14/14 15/15/15
f 14/14/14 16/16/16 15/15/15
f 15/15/15 16/16/16 17/17/17
f 16/16/16 18/18/18 17/17/17
f 17/17/17 18/18/18 19/19/19
f 18/18/18 20/20/20 19/19/19
f 19/19/19 20/20/20 21/21/21
f 20/20/20 22/22/22 21/21/21
f 21/21/21 22/22/22 23/23/23
f 22/22/22 24/24/24 23/23/23
f 23/23/23 24/24/24 25/25/25
f 26/26/26 23/23/23 25/25/25
f 27/27/27 26/26/26 25/25/25
f 28/28/28 27/27/27 25/25/25
f 27/27/27 28/28/28 29/29/29
f 30/30/30 27/27/27 29/29/29
f 31/31/31 30/30/30 29/29/29
f 32/32/32 31/31/31 29/29/29
f 31/31/31 32/32/32 33/33/33
f 34/34/34 31/31/31 33/33/33
f 35/35/35 34/34/34 33/33/33
f 36/36/36 35/35/35 33/33/33
f 35/35/35 36/36/36 37/37/37
f 38/38/38 35/35/35 37/37/37
f 39/39/39 38/38/38 37/37/37
f 40/40/40 39/39/39 37/37/37
f 39/39/39 40/40/40 41/41/41
f 42/42/42 39/39/39 41/41/41
f 43/43/43 42/42/42 41/41/41
f 44/44/44 43/43/43 41/41/41
f 43/43/43 44/44/44 45/45/45
f 46/46/46 43/43/43 45/45/45
f 47/47/47 46/46/46 45/45/45
f 48/48/48 47/47/47 45/45/45
f 47/47/47 48/48/48 49/49/49
f 50/50/50 47/47/47 49/49/49
f 51/51/51 50/50/50 49/49/49
f 52/52/52 51/51/51 49/49/49
f 51/51/51 52/52/52 53/53/53
f 52/52/52 54/54/54 53/53/53
f 53/53/53 54/54/54 55/55/55
f 54/54/54 56/56/56 55/55/55
f 55/55/55 56/56/56 57/57/57
f 58/58/58 55/55/55 57/57/57
f 58/58/58 57/57/57 59/59/59
f 57/57/57 60/60/60 59/59/59
f 59/59/59 60/60/60 61/61/61
f 60/60/60 62/62/62 61/61/61
f 61/61/61 62/62/62 63/63/63
f 62/62/62 64/64/64 63/63/63
f 63/63/63 64/64/64 65/65/65
f 64/64/64 66/66/66 65/65/65
f 67/67/67 65/65/65 66/66/66
f 68/68/68 67/67/67 66/66/66
f 67/67/67 68/68/68 69/69/69
f 68/68/68 70/70/70 69/69/69
f 69/69/69 70/70/70 71/71/71
f 70/70/70 72/72/72 71/71/71
f 71/71/71 72/72/72 73/73/73
f 72/72/72 74/74/74 73/73/73
