g m_dlc5_wall_window_01_glass
v -0.353501 1.184029 0.01218687
v -0.353501 1.732981 0.01218687
v 0.497373 1.732981 0.01218687
v 0.497373 1.184029 0.01218687
v -0.353501 1.732981 -0.02185083
v -0.353501 1.184029 -0.02185083
v 0.497373 1.184029 -0.02185083
v 0.497373 1.732981 -0.02185083
v 0.6956347 1.184029 0.01218687
v 0.6956347 1.732981 0.01218687
v 1.546514 1.732981 0.01218687
v 1.546514 1.184029 0.01218687
v 0.6956347 1.732981 -0.02185083
v 0.6956347 1.184029 -0.02185083
v 1.546514 1.184029 -0.02185083
v 1.546514 1.732981 -0.02185083
vt 0.5297852 0.621582
vt 0.5297852 0.7368164
vt 0.715332 0.7368164
vt 0.715332 0.621582
vt 0.5297852 0.621582
vt 0.5297852 0.7368164
vt 0.715332 0.7368164
vt 0.715332 0.621582
vt 0.5297852 0.621582
vt 0.5297852 0.7368164
vt 0.715332 0.7368164
vt 0.715332 0.621582
vt 0.5297852 0.621582
vt 0.5297852 0.7368164
vt 0.715332 0.7368164
vt 0.715332 0.621582
vn 0 0 1
vn 0 0 1
vn 0 0 1
vn 0 0 1
vn 0 0 -1
vn 0 0 -1
vn 0 0 -1
vn 0 0 -1
vn 0 0 1
vn 0 0 1
vn 0 0 1
vn 0 0 1
vn 0 0 -1
vn 0 0 -1
vn 0 0 -1
vn 0 0 -1
g m_dlc5_wall_window_01_glass_0
f 3/3/3 2/2/2 1/1/1
f 4/4/4 3/3/3 1/1/1
f 7/7/7 6/6/6 5/5/5
f 8/8/8 7/7/7 5/5/5
f 11/11/11 10/10/10 9/9/9
f 12/12/12 11/11/11 9/9/9
f 15/15/15 14/14/14 13/13/13
f 16/16/16 15/15/15 13/13/13
