g m_dlc4_flooredge_corner_01
v 0.2870595 0.08617073 -0.2631313
v 0.2960733 0.07715696 -0.03472641
v 0.2480482 0.125182 -0.03472641
v 0.2570621 0.1161682 -0.2631313
v -0.01173447 0.1161682 -0.006152649
v 0.2480482 0.07715696 0.01329849
v 0.03303451 0.1254453 -0.2538542
v -0.0356279 0.1254453 -0.2538542
v -0.2660756 0.1161682 -0.2631313
v -0.2660756 0.1161682 -0.01692657
v -0.2660756 0.1161682 0.02549621
v -0.2660756 0.1161682 0.2724085
v -0.03129455 0.1161682 0.2724085
v 0.01314545 0.08700518 0.01900543
v -0.001296692 0.08617073 0.2724085
v 0.2570621 0.08617073 -0.293129
v 0.2570621 -0.1254453 -0.293129
v 0.2870595 -0.1254453 -0.2631313
v 0.2870595 0.08617073 -0.2631313
v 0.2960733 0.07715696 -0.03472641
v 0.2870595 -0.1254453 -0.02571274
v 0.2570621 0.1161682 -0.2631313
v 0.03303451 0.1254453 -0.2538542
v 0.03303451 0.07689361 -0.302406
v 0.2570621 0.08617073 -0.293129
v -0.0356279 0.07689361 -0.302406
v -0.0356279 0.1254453 -0.2538542
v -0.2660756 0.08617073 -0.293129
v -0.2660756 0.1161682 -0.2631313
v -0.0356279 0.07689361 -0.302406
v -0.02250824 -0.1254453 -0.293129
v 0.0199147 -0.1254453 -0.293129
v 0.03303451 0.07689361 -0.302406
v -0.2660756 -0.1254453 -0.293129
v -0.2660756 0.08617073 -0.293129
v 0.2570621 0.08617073 -0.293129
v 0.2570621 -0.1254453 -0.293129
v 0.2960733 0.07715696 -0.03472641
v 0.2870595 -0.1254453 -0.02571274
v 0.2570621 -0.1254453 0.004284668
v 0.2480482 0.07715696 0.01329849
v 0.01370193 -0.1254453 0.0192836
v 0.01314545 0.08700518 0.01900543
v 0.2480482 0.07715696 0.01329849
v 0.01314545 0.08700518 0.01900543
v -0.01173447 0.1161682 -0.006152649
v -0.2660756 -0.1254453 -0.293129
v -0.2660756 0.08617073 -0.293129
v -0.2960733 0.08617073 -0.2631313
v -0.2960733 -0.1254453 -0.2631313
v -0.2960733 -0.1254453 -0.01692657
v -0.2960733 0.08617073 -0.01692657
v -0.2960733 0.08617073 0.02549621
v -0.2960733 -0.1254453 0.02549621
v -0.2960733 -0.1254453 0.2724085
v -0.2960733 0.08617073 0.2724085
v -0.2660756 0.1161682 -0.2631313
v -0.2660756 0.1161682 -0.01692657
v -0.2960733 0.08617073 -0.01692657
v -0.2960733 0.08617073 -0.2631313
v -0.2660756 0.08617073 -0.293129
v -0.2660756 0.1161682 0.02549621
v -0.2960733 0.08617073 0.02549621
v -0.2960733 0.08617073 0.2724085
v -0.2660756 0.1161682 0.2724085
v -0.03129455 0.08617073 0.302406
v -0.2660756 0.08617073 0.302406
v -0.2660756 0.1161682 0.2724085
v -0.03129455 0.1161682 0.2724085
v -0.2960733 0.08617073 0.2724085
v -0.001296692 0.08617073 0.2724085
v -0.001296692 -0.1254453 0.2724085
v -0.03129455 -0.1254453 0.302406
v -0.03129455 0.08617073 0.302406
v 0.01370193 -0.1254453 0.0192836
v 0.01314545 0.08700518 0.01900543
v -0.2660756 0.08617073 0.302406
v -0.2660756 -0.1254453 0.302406
v -0.2960733 -0.1254453 0.2724085
v -0.2960733 0.08617073 0.2724085
v -0.03129455 -0.1254453 0.302406
v -0.03129455 0.08617073 0.302406
v 0.2870595 0.08617073 -0.2631313
v 0.2570621 0.1161682 -0.2631313
v 0.2570621 0.08617073 -0.293129
v -0.03129455 0.08617073 0.302406
v -0.03129455 0.1161682 0.2724085
v -0.001296692 0.08617073 0.2724085
vt 0.7158203 0.1973877
vt 0.706543 0.2486572
vt 0.7216797 0.2480469
vt 0.7246094 0.1999512
vt 0.7773438 0.263916
vt 0.7158203 0.2614746
vt 0.7729492 0.2059326
vt 0.7871094 0.2072754
vt 0.8364258 0.2092285
vt 0.8364258 0.2619629
vt 0.8364258 0.270752
vt 0.8354492 0.324707
vt 0.7861328 0.3251953
vt 0.7695313 0.2709961
vt 0.7773438 0.3283691
vt 0.2436523 0.637207
vt 0.1970215 0.637207
vt 0.1970215 0.6469727
vt 0.2436523 0.6469727
vt 0.2416992 0.6972656
vt 0.1970215 0.6992188
vt 0.7246094 0.1999512
vt 0.7729492 0.2059326
vt 0.7729492 0.1907959
vt 0.7231445 0.19104
vt 0.7880859 0.1917725
vt 0.7871094 0.2072754
vt 0.8388672 0.2001953
vt 0.8364258 0.2092285
vt 0.2415771 0.5727539
vt 0.1968994 0.5756836
vt 0.1970215 0.5849609
vt 0.2415771 0.5878906
vt 0.1968994 0.5219727
vt 0.2435303 0.5219727
vt 0.2436523 0.637207
vt 0.1970215 0.637207
vt 0.2416992 0.6972656
vt 0.1970215 0.6992188
vt 0.1967773 0.7084961
vt 0.241333 0.7119141
vt 0.1949463 0.762207
vt 0.2416992 0.7641602
vt 0.7158203 0.2614746
vt 0.7695313 0.2709961
vt 0.7773438 0.263916
vt 0.1968994 0.5219727
vt 0.2435303 0.5219727
vt 0.2435303 0.5126953
vt 0.1968994 0.5126953
vt 0.1967773 0.4584961
vt 0.2434082 0.4584961
vt 0.2434082 0.4489746
vt 0.1967773 0.4492188
vt 0.1966553 0.3947754
vt 0.2432861 0.3945313
vt 0.8364258 0.2092285
vt 0.8364258 0.2619629
vt 0.8457031 0.2617188
vt 0.8452148 0.2072754
vt 0.8388672 0.2001953
vt 0.8364258 0.270752
vt 0.8461914 0.2709961
vt 0.8447266 0.3271484
vt 0.8354492 0.324707
vt 0.784668 0.3347168
vt 0.8378906 0.3339844
vt 0.8354492 0.324707
vt 0.7861328 0.3251953
vt 0.8447266 0.3271484
vt 0.2431641 0.3242188
vt 0.1965332 0.3242188
vt 0.1965332 0.3334961
vt 0.2431641 0.3334961
vt 0.1964111 0.2683105
vt 0.2432861 0.2680664
vt 0.2432861 0.3852539
vt 0.1966553 0.3852539
vt 0.1966553 0.3947754
vt 0.2432861 0.3945313
vt 0.1965332 0.3334961
vt 0.2431641 0.3334961
vt 0.7158203 0.1973877
vt 0.7246094 0.1999512
vt 0.7231445 0.19104
vt 0.784668 0.3347168
vt 0.7861328 0.3251953
vt 0.7773438 0.3283691
vn 0.9840299 0.132754 -0.1185809
vn 0.9869543 0.1201079 0.1072159
vn 0.1228534 0.985247 0.1191439
vn 0.1292358 0.9834486 -0.1269919
vn 0.02690899 0.9984987 0.04770999
vn 0.157362 0.124362 0.9796792
vn 0.000453 0.990862 -0.134879
vn -0.015127 0.9923587 -0.122455
vn -0.1159929 0.9869354 -0.111821
vn -0.1301771 0.9913623 0.01596
vn -0.10425 0.9945511 0
vn -0.09686004 0.9910103 0.09228602
vn 0.09612404 0.9908034 0.09523004
vn 0.04795098 0.1882879 0.9809426
vn 0.9822478 0.11564 0.147705
vn 0.12025 0.132135 -0.9839107
vn 0.134364 -0.020165 -0.9907268
vn 0.9909782 -0.019433 -0.132607
vn 0.9840299 0.132754 -0.1185809
vn 0.9869543 0.1201079 0.1072159
vn 0.991172 -0.018713 0.131255
vn 0.1292358 0.9834486 -0.1269919
vn 0.000453 0.990862 -0.134879
vn 0.01411699 0.136739 -0.9905066
vn 0.12025 0.132135 -0.9839107
vn -0.0138 0.136681 -0.990519
vn -0.015127 0.9923587 -0.122455
vn -0.117319 0.132332 -0.9842381
vn -0.1159929 0.9869354 -0.111821
vn -0.0138 0.136681 -0.990519
vn -0.016023 -0.02757701 -0.9994912
vn 0.016379 -0.02769101 -0.9994823
vn 0.01411699 0.136739 -0.9905066
vn -0.131196 -0.020223 -0.9911501
vn -0.117319 0.132332 -0.9842381
vn 0.12025 0.132135 -0.9839107
vn 0.134364 -0.020165 -0.9907268
vn 0.9869543 0.1201079 0.1072159
vn 0.991172 -0.018713 0.131255
vn 0.1795401 -0.01685101 0.9836063
vn 0.157362 0.124362 0.9796792
vn 0.04283301 -0.02003601 0.9988813
vn 0.04795098 0.1882879 0.9809426
vn 0.157362 0.124362 0.9796792
vn 0.04795098 0.1882879 0.9809426
vn 0.02690899 0.9984987 0.04770999
vn -0.131196 -0.020223 -0.9911501
vn -0.117319 0.132332 -0.9842381
vn -0.9884003 0.114862 -0.09935503
vn -0.9941539 0 -0.107972
vn -1 0 0
vn -0.9923807 0.123209 0
vn -0.9923807 0.123209 0
vn -1 0 0
vn -0.9941835 0 0.1077
vn -0.988423 0.114885 0.09910201
vn -0.1159929 0.9869354 -0.111821
vn -0.1301771 0.9913623 0.01596
vn -0.9923807 0.123209 0
vn -0.9884003 0.114862 -0.09935503
vn -0.117319 0.132332 -0.9842381
vn -0.10425 0.9945511 0
vn -0.9923807 0.123209 0
vn -0.988423 0.114885 0.09910201
vn -0.09686004 0.9910103 0.09228602
vn 0.103641 0.114474 0.9880052
vn -0.103641 0.114474 0.9880052
vn -0.09686004 0.9910103 0.09228602
vn 0.09612404 0.9908034 0.09523004
vn -0.988423 0.114885 0.09910201
vn 0.9822478 0.11564 0.147705
vn 0.9877927 0.001193 0.1557699
vn 0.112572 0 0.9936435
vn 0.103641 0.114474 0.9880052
vn 0.04283301 -0.02003601 0.9988813
vn 0.04795098 0.1882879 0.9809426
vn -0.103641 0.114474 0.9880052
vn -0.112572 0 0.9936435
vn -0.9941835 0 0.1077
vn -0.988423 0.114885 0.09910201
vn 0.112572 0 0.9936435
vn 0.103641 0.114474 0.9880052
vn 0.9840299 0.132754 -0.1185809
vn 0.1292358 0.9834486 -0.1269919
vn 0.12025 0.132135 -0.9839107
vn 0.103641 0.114474 0.9880052
vn 0.09612404 0.9908034 0.09523004
vn 0.9822478 0.11564 0.147705
g m_dlc4_flooredge_corner_01_0
f 3/3/3 2/2/2 1/1/1
f 4/4/4 3/3/3 1/1/1
f 5/5/5 3/3/3 4/4/4
f 3/3/3 5/5/5 6/6/6
f 3/3/3 6/6/6 2/2/2
f 7/7/7 5/5/5 4/4/4
f 8/8/8 5/5/5 7/7/7
f 8/8/8 9/9/9 5/5/5
f 9/9/9 10/10/10 5/5/5
f 10/10/10 11/11/11 5/5/5
f 11/11/11 12/12/12 5/5/5
f 12/12/12 13/13/13 5/5/5
f 5/5/5 13/13/13 14/14/14
f 13/13/13 15/15/15 14/14/14
f 18/18/18 17/17/17 16/16/16
f 19/19/19 18/18/18 16/16/16
f 18/18/18 19/19/19 20/20/20
f 21/21/21 18/18/18 20/20/20
f 24/24/24 23/23/23 22/22/22
f 25/25/25 24/24/24 22/22/22
f 23/23/23 24/24/24 26/26/26
f 27/27/27 23/23/23 26/26/26
f 26/26/26 28/28/28 27/27/27
f 28/28/28 29/29/29 27/27/27
f 32/32/32 31/31/31 30/30/30
f 33/33/33 32/32/32 30/30/30
f 31/31/31 34/34/34 30/30/30
f 34/34/34 35/35/35 30/30/30
f 32/32/32 33/33/33 36/36/36
f 37/37/37 32/32/32 36/36/36
f 40/40/40 39/39/39 38/38/38
f 41/41/41 40/40/40 38/38/38
f 42/42/42 40/40/40 41/41/41
f 43/43/43 42/42/42 41/41/41
f 46/46/46 45/45/45 44/44/44
f 49/49/49 48/48/48 47/47/47
f 50/50/50 49/49/49 47/47/47
f 50/50/50 51/51/51 49/49/49
f 51/51/51 52/52/52 49/49/49
f 52/52/52 51/51/51 53/53/53
f 51/51/51 54/54/54 53/53/53
f 54/54/54 55/55/55 53/53/53
f 55/55/55 56/56/56 53/53/53
f 59/59/59 58/58/58 57/57/57
f 60/60/60 59/59/59 57/57/57
f 60/60/60 57/57/57 61/61/61
f 58/58/58 59/59/59 62/62/62
f 59/59/59 63/63/63 62/62/62
f 63/63/63 64/64/64 62/62/62
f 64/64/64 65/65/65 62/62/62
f 68/68/68 67/67/67 66/66/66
f 69/69/69 68/68/68 66/66/66
f 68/68/68 70/70/70 67/67/67
f 73/73/73 72/72/72 71/71/71
f 74/74/74 73/73/73 71/71/71
f 71/71/71 72/72/72 75/75/75
f 76/76/76 71/71/71 75/75/75
f 79/79/79 78/78/78 77/77/77
f 80/80/80 79/79/79 77/77/77
f 77/77/77 78/78/78 81/81/81
f 82/82/82 77/77/77 81/81/81
f 85/85/85 84/84/84 83/83/83
f 88/88/88 87/87/87 86/86/86
