g m_dlc4_grass_01
v 0.02088676 0.6865711 -3.051758E-07
v -0.1176089 0.6865711 -0.3663656
v 0.1176089 -0.02132965 -0.3663656
v 0.2561045 -0.02132965 -3.051758E-07
v -0.1176089 0.6865711 0.3663656
v 0.1176089 -0.02132965 0.3663656
vt 0.02784729 0.2753906
vt 0.02789307 0.5322266
vt 0.5512695 0.5322266
vt 0.5512695 0.2753906
vt 0.02778625 0.01844788
vt 0.5512695 0.01834106
vn -0.02552291 0.9996742 0
vn -0.02552291 0.9996742 0
vn -0.02552291 0.9996742 0
vn -0.02552291 0.9996742 0
vn -0.02552291 0.9996742 0
vn -0.02552291 0.9996742 0
g m_dlc4_grass_01_0
f 3/3/3 2/2/2 1/1/1
f 4/4/4 3/3/3 1/1/1
f 4/4/4 1/1/1 5/5/5
f 6/6/6 4/4/4 5/5/5
