g m_dlc5_stone_kerb_01
v 0.6455215 0.2487641 0.3235655
v 0.6455215 0.2487641 -0.3407008
v 0.6116611 0.214904 -0.3407008
v 0.6116611 0.214904 0.3235655
v 0.6116611 0.2487641 0.3574256
v 0.6116611 0.3434201 0.3574256
v 0.6455215 0.3434201 0.3235655
v 0.6455215 0.2487641 0.3235655
v 0.6116611 0.214904 0.3235655
v 0.6116611 0.3772803 0.3235655
v -0.6132744 0.214904 0.3235655
v -0.6132744 0.2487641 0.3574256
v -0.6132744 0.3434201 0.3574256
v -0.6471345 0.2487641 0.3235655
v -0.6471345 0.3434201 0.3235655
v -0.6132744 0.3772803 0.3235655
v 0.6116611 0.3772803 -0.3407008
v 0.6455215 0.3434201 -0.3407008
v 0.6455215 0.3434201 0.3235655
v 0.6455215 0.2487641 0.3235655
v 0.6455215 0.2487641 -0.3407008
v -0.6132744 0.3772803 -0.3407008
v -0.6471345 0.3434201 0.3235655
v -0.6471345 0.3434201 -0.3407008
v 0.6116611 0.3434201 -0.374561
v 0.6455215 0.3434201 -0.3407008
v 0.6455215 0.2487641 -0.3407008
v 0.6116611 0.2487641 -0.374561
v 0.6116611 0.214904 -0.3407008
v -0.6132744 0.3434201 -0.374561
v -0.6132744 0.2487641 -0.374561
v -0.6471345 0.3434201 -0.3407008
v -0.6471345 0.2487641 -0.3407008
v -0.6132744 0.214904 -0.3407008
v -0.6471345 0.2487641 0.3235655
v -0.6471345 0.2487641 -0.3407008
v -0.6132744 0.214904 0.3235655
v -0.6132744 0.214904 -0.3407008
v 0.5991934 -0.7456763 -0.3197839
v 0.5991934 -0.7456763 0.2099631
v 0.5991934 0.2543237 0.2099631
v 0.5991934 0.2543237 -0.3197839
v 0.5640671 -0.7456763 0.2450895
v 0.5640671 0.2543237 0.2450895
v 0.5640671 0.2543237 -0.3549104
v 0.5640671 -0.7456763 -0.3549104
v -0.5656801 -0.7456763 0.2450895
v -0.5656801 0.2543237 0.2450895
v 0.5640671 -0.7456763 -0.3549104
v 0.5640671 0.2543237 -0.3549104
v -0.5656801 0.2543237 -0.3549104
v -0.5656801 -0.7456763 -0.3549104
v -0.6008064 0.2543237 -0.3197839
v -0.6008064 -0.7456763 -0.3197839
v -0.6008064 -0.7456763 0.2099631
v -0.6008064 0.2543237 0.2099631
v -0.5656801 0.2543237 0.2450895
v -0.5656801 -0.7456763 0.2450895
vt 0.4802246 0.6235352
vt 0.4804688 0.6533203
vt 0.4824219 0.6533203
vt 0.4824219 0.6235352
vt 0.4733887 0.6171875
vt 0.4733887 0.621582
vt 0.4755859 0.621582
vt 0.4755859 0.6171875
vt 0.4736328 0.6152344
vt 0.4736328 0.6235352
vt 0.418457 0.6152344
vt 0.4187012 0.6176758
vt 0.4187012 0.621582
vt 0.416748 0.6171875
vt 0.416748 0.6220703
vt 0.418457 0.6240234
vt 0.473877 0.6533203
vt 0.4760742 0.6533203
vt 0.4758301 0.6235352
vt 0.4802246 0.6235352
vt 0.4804688 0.6533203
vt 0.4187012 0.6538086
vt 0.4162598 0.6240234
vt 0.4165039 0.6538086
vt 0.4736328 0.6557617
vt 0.4758301 0.6552734
vt 0.4758301 0.6601563
vt 0.4736328 0.659668
vt 0.473877 0.6621094
vt 0.4189453 0.6557617
vt 0.4189453 0.6601563
vt 0.4169922 0.6557617
vt 0.4169922 0.6606445
vt 0.4187012 0.6621094
vt 0.4121094 0.6240234
vt 0.4123535 0.6538086
vt 0.4099121 0.6240234
vt 0.4101563 0.6538086
vt 0.5898438 0.6972656
vt 0.5693359 0.6972656
vt 0.5693359 0.7358398
vt 0.5898438 0.7358398
vt 0.5673828 0.6972656
vt 0.5673828 0.7358398
vt 0.5917969 0.7358398
vt 0.5917969 0.6972656
vt 0.5239258 0.6972656
vt 0.5239258 0.7358398
vt 0.5532227 0.6748047
vt 0.5917969 0.6748047
vt 0.5917969 0.6313477
vt 0.5532227 0.6313477
vt 0.5917969 0.6293945
vt 0.5532227 0.6293945
vt 0.5532227 0.6088867
vt 0.5917969 0.6088867
vt 0.5917969 0.6069336
vt 0.5532227 0.6069336
vn 0.7071026 -0.7071109 0
vn 0.7071026 -0.7071109 0
vn 0.7071026 -0.7071109 0
vn 0.7071026 -0.7071109 0
vn 0.023786 -0.253126 0.9671409
vn 0.02378601 0.253125 0.9671412
vn 0.9668532 0.2516931 0.04295901
vn 0.9668532 -0.2516931 0.04295901
vn 0.2881169 -0.8019587 0.5233077
vn 0.02643599 0.9984968 0.04801499
vn -0.2881179 -0.8019577 0.5233087
vn -0.023786 -0.253126 0.9671409
vn -0.02378601 0.253125 0.9671412
vn -0.9668538 -0.251691 0.042958
vn -0.9668538 0.251691 0.042958
vn -0.02643599 0.9984968 0.04801499
vn 0.02643599 0.9984968 -0.04801499
vn 0.9668532 0.2516931 -0.04295901
vn 0.9668532 0.2516931 0.04295901
vn 0.9668532 -0.2516931 0.04295901
vn 0.9668532 -0.2516931 -0.04295901
vn -0.02643599 0.9984968 -0.04801499
vn -0.9668538 0.251691 0.042958
vn -0.9668538 0.251691 -0.042958
vn 0.023786 0.253126 -0.9671409
vn 0.9668532 0.2516931 -0.04295901
vn 0.9668532 -0.2516931 -0.04295901
vn 0.023786 -0.253126 -0.9671409
vn 0.288117 -0.801959 -0.523307
vn -0.023786 0.253126 -0.9671409
vn -0.023786 -0.253126 -0.9671409
vn -0.9668538 0.251691 -0.042958
vn -0.9668538 -0.251691 -0.042958
vn -0.2881171 -0.8019584 -0.5233082
vn -0.9668538 -0.251691 0.042958
vn -0.9668538 -0.251691 -0.042958
vn -0.2881179 -0.8019577 0.5233087
vn -0.2881171 -0.8019584 -0.5233082
vn 0.9980721 0 -0.06206501
vn 0.9980721 0 0.06206501
vn 0.9980721 0 0.06206501
vn 0.9980721 0 -0.06206501
vn 0.03014099 0 0.9995456
vn 0.03014099 0 0.9995456
vn 0.03014099 0 -0.9995456
vn 0.03014099 0 -0.9995456
vn -0.03014099 0 0.9995456
vn -0.03014099 0 0.9995456
vn 0.03014099 0 -0.9995456
vn 0.03014099 0 -0.9995456
vn -0.03014099 0 -0.9995456
vn -0.03014099 0 -0.9995456
vn -0.9980721 0 -0.06206501
vn -0.9980721 0 -0.06206501
vn -0.9980721 0 0.06206501
vn -0.9980721 0 0.06206501
vn -0.03014099 0 0.9995456
vn -0.03014099 0 0.9995456
g m_dlc5_stone_kerb_01_0
f 3/3/3 2/2/2 1/1/1
f 4/4/4 3/3/3 1/1/1
f 7/7/7 6/6/6 5/5/5
f 8/8/8 7/7/7 5/5/5
f 5/5/5 9/9/9 8/8/8
f 6/6/6 7/7/7 10/10/10
f 11/11/11 9/9/9 5/5/5
f 12/12/12 11/11/11 5/5/5
f 12/12/12 5/5/5 6/6/6
f 13/13/13 6/6/6 10/10/10
f 13/13/13 12/12/12 6/6/6
f 12/12/12 13/13/13 14/14/14
f 11/11/11 12/12/12 14/14/14
f 13/13/13 15/15/15 14/14/14
f 16/16/16 13/13/13 10/10/10
f 16/16/16 15/15/15 13/13/13
f 16/16/16 10/10/10 17/17/17
f 18/18/18 17/17/17 10/10/10
f 19/19/19 18/18/18 10/10/10
f 19/19/19 20/20/20 18/18/18
f 20/20/20 21/21/21 18/18/18
f 22/22/22 16/16/16 17/17/17
f 16/16/16 22/22/22 23/23/23
f 22/22/22 24/24/24 23/23/23
f 22/22/22 17/17/17 25/25/25
f 17/17/17 26/26/26 25/25/25
f 26/26/26 27/27/27 25/25/25
f 27/27/27 28/28/28 25/25/25
f 29/29/29 28/28/28 27/27/27
f 30/30/30 22/22/22 25/25/25
f 30/30/30 25/25/25 28/28/28
f 31/31/31 28/28/28 29/29/29
f 31/31/31 30/30/30 28/28/28
f 30/30/30 31/31/31 32/32/32
f 22/22/22 30/30/30 32/32/32
f 31/31/31 33/33/33 32/32/32
f 34/34/34 31/31/31 29/29/29
f 34/34/34 33/33/33 31/31/31
f 23/23/23 24/24/24 35/35/35
f 24/24/24 36/36/36 35/35/35
f 35/35/35 36/36/36 37/37/37
f 36/36/36 38/38/38 37/37/37
f 41/41/41 40/40/40 39/39/39
f 42/42/42 41/41/41 39/39/39
f 40/40/40 41/41/41 43/43/43
f 41/41/41 44/44/44 43/43/43
f 42/42/42 39/39/39 45/45/45
f 39/39/39 46/46/46 45/45/45
f 47/47/47 43/43/43 44/44/44
f 48/48/48 47/47/47 44/44/44
f 51/51/51 50/50/50 49/49/49
f 52/52/52 51/51/51 49/49/49
f 51/51/51 52/52/52 53/53/53
f 52/52/52 54/54/54 53/53/53
f 53/53/53 54/54/54 55/55/55
f 56/56/56 53/53/53 55/55/55
f 57/57/57 56/56/56 55/55/55
f 58/58/58 57/57/57 55/55/55
