g m_dlc5_rope_04
v 0.05558539 0.3350365 -1.616908
v 0.05558539 0.1538271 -1.285128
v -0.05558519 0.1538271 -1.285128
v -0.05558519 0.3350365 -1.616908
v -0.1111704 0.06671043 -1.326115
v -0.1111704 0.2534685 -1.668053
v -0.05558519 -0.02040596 -1.367102
v -0.05558519 0.1719002 -1.719198
v -0.05558519 0.1719002 -1.719198
v -0.05558519 -0.02040596 -1.367102
v 0.05558531 -0.02040596 -1.367102
v 0.05558531 0.1719002 -1.719198
v 0.1111706 0.06671043 -1.326115
v 0.1111706 0.2534685 -1.668053
v 0.05558539 0.1538271 -1.285128
v 0.05558539 0.3350365 -1.616908
v 0.05558539 0.01374306 -0.9340006
v 0.05558539 -0.08319099 -0.5685995
v -0.05558519 -0.08319099 -0.5685995
v -0.05558519 0.01374306 -0.9340006
v -0.1111704 -0.1775645 -0.5876474
v -0.1111704 -0.07766258 -0.9642367
v -0.05558519 -0.2719379 -0.6066952
v -0.05558519 -0.1690681 -0.9944723
v 0.05558539 0.1538271 -1.285128
v -0.05558519 0.1538271 -1.285128
v -0.1111704 0.06671043 -1.326115
v -0.05558519 -0.02040596 -1.367102
v -0.05558519 -0.1690681 -0.9944723
v -0.05558519 -0.2719379 -0.6066952
v 0.05558531 -0.2719379 -0.6066952
v 0.05558531 -0.1690681 -0.9944723
v 0.1111706 -0.1775645 -0.5876474
v 0.1111706 -0.07766258 -0.9642367
v 0.05558539 -0.08319099 -0.5685995
v 0.05558539 0.01374306 -0.9340006
v -0.05558519 -0.02040596 -1.367102
v 0.05558531 -0.02040596 -1.367102
v 0.1111706 0.06671043 -1.326115
v 0.05558539 0.1538271 -1.285128
v 0.05558539 -0.135574 -0.1942056
v 0.05558539 -0.1426487 0.1837686
v -0.05558519 -0.1426487 0.1837686
v -0.05558519 -0.135574 -0.1942056
v -0.1111704 -0.2388425 0.1877566
v -0.1111704 -0.2315513 -0.2017905
v -0.05558519 -0.3350365 0.1917447
v -0.05558519 -0.3275286 -0.2093753
v 0.05558539 -0.08319099 -0.5685995
v -0.05558519 -0.08319099 -0.5685995
v -0.1111704 -0.1775645 -0.5876474
v -0.05558519 -0.2719379 -0.6066952
v -0.05558519 -0.3275286 -0.2093753
v -0.05558519 -0.3350365 0.1917447
v 0.05558531 -0.3350365 0.1917447
v 0.05558531 -0.3275286 -0.2093753
v 0.1111706 -0.2388425 0.1877566
v 0.1111706 -0.2315513 -0.2017905
v 0.05558539 -0.1426487 0.1837686
v 0.05558539 -0.135574 -0.1942056
v -0.05558519 -0.2719379 -0.6066952
v 0.05558531 -0.2719379 -0.6066952
v 0.1111706 -0.1775645 -0.5876474
v 0.05558539 -0.08319099 -0.5685995
v 0.05558539 -0.1043128 0.5598599
v 0.05558539 -0.02112068 0.9286325
v -0.05558519 -0.02112068 0.9286325
v -0.05558519 -0.1043128 0.5598599
v -0.1111704 -0.1135937 0.9554269
v -0.1111704 -0.1993331 0.5753629
v -0.05558519 -0.2060667 0.9822208
v -0.05558519 -0.2943532 0.5908658
v 0.05558539 -0.1426487 0.1837686
v -0.05558519 -0.1426487 0.1837686
v -0.1111704 -0.2388425 0.1877566
v -0.05558519 -0.3350365 0.1917447
v -0.05558519 -0.2943532 0.5908658
v -0.05558519 -0.2060667 0.9822208
v 0.05558531 -0.2060667 0.9822208
v 0.05558531 -0.2943532 0.5908658
v 0.1111706 -0.1135937 0.9554269
v 0.1111706 -0.1993331 0.5753629
v 0.05558539 -0.02112068 0.9286325
v 0.05558539 -0.1043128 0.5598599
v -0.05558519 -0.3350365 0.1917447
v 0.05558531 -0.3350365 0.1917447
v 0.1111706 -0.2388425 0.1877566
v 0.05558539 -0.1426487 0.1837686
v 0.05558539 0.1057256 1.284757
v 0.05558539 0.2743923 1.623086
v -0.05558519 0.2743923 1.623086
v -0.05558519 0.1057256 1.284757
v -0.1111704 0.1909673 1.671142
v -0.1111704 0.01713615 1.322454
v -0.05558519 0.107542 1.719198
v -0.05558519 -0.07145302 1.360152
v 0.05558539 -0.02112068 0.9286325
v -0.05558519 -0.02112068 0.9286325
v -0.1111704 -0.1135937 0.9554269
v -0.05558519 -0.2060667 0.9822208
v -0.05558519 -0.07145302 1.360152
v -0.05558519 0.107542 1.719198
v 0.05558531 0.107542 1.719198
v 0.05558531 -0.07145302 1.360152
v 0.1111706 0.1909673 1.671142
v 0.1111706 0.01713615 1.322454
v 0.05558539 0.2743923 1.623086
v 0.05558539 0.1057256 1.284757
v -0.05558519 -0.2060667 0.9822208
v 0.05558531 -0.2060667 0.9822208
v 0.1111706 -0.1135937 0.9554269
v 0.05558539 -0.02112068 0.9286325
vt 0 0.5
vt 0 1
vt 0.1707764 1
vt 0.1707764 0.5
vt 0.3354492 1
vt 0.3354492 0.5
vt 0.5 1
vt 0.5 0.5
vt 0.5 0.5
vt 0.5 1
vt 0.6645508 1
vt 0.6645508 0.5
vt 0.8291016 1
vt 0.8291016 0.5
vt 1 1
vt 1 0.5
vt 0 0.5
vt 0 1
vt 0.1707764 1
vt 0.1707764 0.5
vt 0.3354492 1
vt 0.3354492 0.5
vt 0.5 1
vt 0.5 0.5
vt 0 0
vt 0.1707764 0
vt 0.3354492 0
vt 0.5 0
vt 0.5 0.5
vt 0.5 1
vt 0.6645508 1
vt 0.6645508 0.5
vt 0.8291016 1
vt 0.8291016 0.5
vt 1 1
vt 1 0.5
vt 0.5 0
vt 0.6645508 0
vt 0.8291016 0
vt 1 0
vt 0 0.5
vt 0 1
vt 0.1707764 1
vt 0.1707764 0.5
vt 0.3354492 1
vt 0.3354492 0.5
vt 0.5 1
vt 0.5 0.5
vt 0 0
vt 0.1707764 0
vt 0.3354492 0
vt 0.5 0
vt 0.5 0.5
vt 0.5 1
vt 0.6645508 1
vt 0.6645508 0.5
vt 0.8291016 1
vt 0.8291016 0.5
vt 1 1
vt 1 0.5
vt 0.5 0
vt 0.6645508 0
vt 0.8291016 0
vt 1 0
vt 0 0.5
vt 0 1
vt 0.1707764 1
vt 0.1707764 0.5
vt 0.3354492 1
vt 0.3354492 0.5
vt 0.5 1
vt 0.5 0.5
vt 0 0
vt 0.1707764 0
vt 0.3354492 0
vt 0.5 0
vt 0.5 0.5
vt 0.5 1
vt 0.6645508 1
vt 0.6645508 0.5
vt 0.8291016 1
vt 0.8291016 0.5
vt 1 1
vt 1 0.5
vt 0.5 0
vt 0.6645508 0
vt 0.8291016 0
vt 1 0
vt 0 0.5
vt 0 1
vt 0.1707764 1
vt 0.1707764 0.5
vt 0.3354492 1
vt 0.3354492 0.5
vt 0.5 1
vt 0.5 0.5
vt 0 0
vt 0.1707764 0
vt 0.3354492 0
vt 0.5 0
vt 0.5 0.5
vt 0.5 1
vt 0.6645508 1
vt 0.6645508 0.5
vt 0.8291016 1
vt 0.8291016 0.5
vt 1 1
vt 1 0.5
vt 0.5 0
vt 0.6645508 0
vt 0.8291016 0
vt 1 0
vn 0.5112188 0.7542795 0.411968
vn 0.5119025 0.7773116 0.3657085
vn -0.5119023 0.7773116 0.3657086
vn -0.5112188 0.7542796 0.411968
vn -0.9996164 -0.02505987 -0.01179025
vn -0.9996151 -0.02434973 -0.01329958
vn -0.4878928 -0.7898527 -0.3716092
vn -0.4872203 -0.7664156 -0.4185972
vn -0.4872203 -0.7664156 -0.4185972
vn -0.4878928 -0.7898527 -0.3716092
vn 0.4878925 -0.7898528 -0.3716092
vn 0.4872202 -0.7664156 -0.4185972
vn 0.9996164 -0.02506008 -0.01179033
vn 0.999615 -0.02435041 -0.01329982
vn 0.5119025 0.7773116 0.3657085
vn 0.5112188 0.7542795 0.411968
vn 0.5119026 0.8155813 0.2697831
vn 0.511902 0.8420632 0.1699585
vn -0.5119019 0.8420633 0.1699584
vn -0.5119023 0.8155814 0.2697832
vn -0.9996164 -0.02714729 -0.005479329
vn -0.9996164 -0.02629384 -0.008697583
vn -0.4878929 -0.855649 -0.1727004
vn -0.4878927 -0.8287401 -0.2741358
vn 0.5119025 0.7773116 0.3657085
vn -0.5119023 0.7773116 0.3657086
vn -0.9996164 -0.02505987 -0.01179025
vn -0.4878928 -0.7898527 -0.3716092
vn -0.4878927 -0.8287401 -0.2741358
vn -0.4878929 -0.855649 -0.1727004
vn 0.4878929 -0.8556489 -0.1727004
vn 0.4878926 -0.8287402 -0.2741359
vn 0.9996164 -0.02714763 -0.005479305
vn 0.9996164 -0.02629355 -0.008697463
vn 0.511902 0.8420632 0.1699585
vn 0.5119026 0.8155813 0.2697831
vn -0.4878928 -0.7898527 -0.3716092
vn 0.4878925 -0.7898528 -0.3716092
vn 0.9996164 -0.02506008 -0.01179033
vn 0.5119025 0.7773116 0.3657085
vn 0.5119016 0.856374 0.06767696
vn 0.5119023 0.8583064 -0.0355827
vn -0.511902 0.8583065 -0.03558259
vn -0.5119016 0.8563741 0.06767696
vn -0.9996164 -0.02767078 0.001147076
vn -0.9996164 -0.02760857 -0.002181767
vn -0.4878932 -0.8721542 0.03615656
vn -0.487893 -0.8701903 -0.06876877
vn 0.511902 0.8420632 0.1699585
vn -0.5119019 0.8420633 0.1699584
vn -0.9996164 -0.02714729 -0.005479329
vn -0.4878929 -0.855649 -0.1727004
vn -0.487893 -0.8701903 -0.06876877
vn -0.4878932 -0.8721542 0.03615656
vn 0.4878933 -0.8721542 0.03615657
vn 0.4878932 -0.8701903 -0.06876879
vn 0.9996164 -0.02767106 0.001146998
vn 0.9996164 -0.02760907 -0.002181822
vn 0.5119023 0.8583064 -0.0355827
vn 0.5119016 0.856374 0.06767696
vn -0.4878929 -0.855649 -0.1727004
vn 0.4878929 -0.8556489 -0.1727004
vn 0.9996164 -0.02714763 -0.005479305
vn 0.511902 0.8420632 0.1699585
vn 0.5119026 0.8478332 -0.1383279
vn 0.5119025 0.8251058 -0.2390737
vn -0.5119022 0.825106 -0.2390737
vn -0.5119024 0.8478333 -0.1383278
vn -0.9996164 -0.02660031 0.007707339
vn -0.9996164 -0.02733318 0.004459592
vn -0.4878925 -0.8384184 0.2429311
vn -0.4878928 -0.8615123 0.1405597
vn 0.5119023 0.8583064 -0.0355827
vn -0.511902 0.8583065 -0.03558259
vn -0.9996164 -0.02767078 0.001147076
vn -0.4878932 -0.8721542 0.03615656
vn -0.4878928 -0.8615123 0.1405597
vn -0.4878925 -0.8384184 0.2429311
vn 0.4878924 -0.8384184 0.2429311
vn 0.4878928 -0.8615124 0.1405597
vn 0.9996164 -0.02660124 0.007707652
vn 0.9996164 -0.02733378 0.004459619
vn 0.5119025 0.8251058 -0.2390737
vn 0.5119026 0.8478332 -0.1383279
vn -0.4878932 -0.8721542 0.03615656
vn 0.4878933 -0.8721542 0.03615657
vn 0.9996164 -0.02767106 0.001146998
vn 0.5119023 0.8583064 -0.0355827
vn 0.5119025 0.7904524 -0.3363641
vn 0.511219 0.7691678 -0.3834529
vn -0.511219 0.7691677 -0.383453
vn -0.5119023 0.7904525 -0.3363642
vn -0.9996151 -0.02482965 0.01237839
vn -0.9996164 -0.02548304 0.01084386
vn -0.487221 -0.7815433 0.3896226
vn -0.4878925 -0.8032059 0.3417911
vn 0.5119025 0.8251058 -0.2390737
vn -0.5119022 0.825106 -0.2390737
vn -0.9996164 -0.02660031 0.007707339
vn -0.4878925 -0.8384184 0.2429311
vn -0.4878925 -0.8032059 0.3417911
vn -0.487221 -0.7815433 0.3896226
vn 0.4872211 -0.7815434 0.3896225
vn 0.4878926 -0.8032058 0.341791
vn 0.9996151 -0.02482988 0.01237864
vn 0.9996164 -0.02548373 0.01084419
vn 0.511219 0.7691678 -0.3834529
vn 0.5119025 0.7904524 -0.3363641
vn -0.4878925 -0.8384184 0.2429311
vn 0.4878924 -0.8384184 0.2429311
vn 0.9996164 -0.02660124 0.007707652
vn 0.5119025 0.8251058 -0.2390737
g m_dlc5_rope_04_0
f 3/3/3 2/2/2 1/1/1
f 4/4/4 3/3/3 1/1/1
f 5/5/5 3/3/3 4/4/4
f 6/6/6 5/5/5 4/4/4
f 7/7/7 5/5/5 6/6/6
f 8/8/8 7/7/7 6/6/6
f 11/11/11 10/10/10 9/9/9
f 12/12/12 11/11/11 9/9/9
f 13/13/13 11/11/11 12/12/12
f 14/14/14 13/13/13 12/12/12
f 15/15/15 13/13/13 14/14/14
f 16/16/16 15/15/15 14/14/14
f 19/19/19 18/18/18 17/17/17
f 20/20/20 19/19/19 17/17/17
f 21/21/21 19/19/19 20/20/20
f 22/22/22 21/21/21 20/20/20
f 23/23/23 21/21/21 22/22/22
f 24/24/24 23/23/23 22/22/22
f 20/20/20 17/17/17 25/25/25
f 26/26/26 20/20/20 25/25/25
f 22/22/22 20/20/20 26/26/26
f 27/27/27 22/22/22 26/26/26
f 24/24/24 22/22/22 27/27/27
f 28/28/28 24/24/24 27/27/27
f 31/31/31 30/30/30 29/29/29
f 32/32/32 31/31/31 29/29/29
f 33/33/33 31/31/31 32/32/32
f 34/34/34 33/33/33 32/32/32
f 35/35/35 33/33/33 34/34/34
f 36/36/36 35/35/35 34/34/34
f 32/32/32 29/29/29 37/37/37
f 38/38/38 32/32/32 37/37/37
f 34/34/34 32/32/32 38/38/38
f 39/39/39 34/34/34 38/38/38
f 36/36/36 34/34/34 39/39/39
f 40/40/40 36/36/36 39/39/39
f 43/43/43 42/42/42 41/41/41
f 44/44/44 43/43/43 41/41/41
f 45/45/45 43/43/43 44/44/44
f 46/46/46 45/45/45 44/44/44
f 47/47/47 45/45/45 46/46/46
f 48/48/48 47/47/47 46/46/46
f 44/44/44 41/41/41 49/49/49
f 50/50/50 44/44/44 49/49/49
f 46/46/46 44/44/44 50/50/50
f 51/51/51 46/46/46 50/50/50
f 48/48/48 46/46/46 51/51/51
f 52/52/52 48/48/48 51/51/51
f 55/55/55 54/54/54 53/53/53
f 56/56/56 55/55/55 53/53/53
f 57/57/57 55/55/55 56/56/56
f 58/58/58 57/57/57 56/56/56
f 59/59/59 57/57/57 58/58/58
f 60/60/60 59/59/59 58/58/58
f 56/56/56 53/53/53 61/61/61
f 62/62/62 56/56/56 61/61/61
f 58/58/58 56/56/56 62/62/62
f 63/63/63 58/58/58 62/62/62
f 60/60/60 58/58/58 63/63/63
f 64/64/64 60/60/60 63/63/63
f 67/67/67 66/66/66 65/65/65
f 68/68/68 67/67/67 65/65/65
f 69/69/69 67/67/67 68/68/68
f 70/70/70 69/69/69 68/68/68
f 71/71/71 69/69/69 70/70/70
f 72/72/72 71/71/71 70/70/70
f 68/68/68 65/65/65 73/73/73
f 74/74/74 68/68/68 73/73/73
f 70/70/70 68/68/68 74/74/74
f 75/75/75 70/70/70 74/74/74
f 72/72/72 70/70/70 75/75/75
f 76/76/76 72/72/72 75/75/75
f 79/79/79 78/78/78 77/77/77
f 80/80/80 79/79/79 77/77/77
f 81/81/81 79/79/79 80/80/80
f 82/82/82 81/81/81 80/80/80
f 83/83/83 81/81/81 82/82/82
f 84/84/84 83/83/83 82/82/82
f 80/80/80 77/77/77 85/85/85
f 86/86/86 80/80/80 85/85/85
f 82/82/82 80/80/80 86/86/86
f 87/87/87 82/82/82 86/86/86
f 84/84/84 82/82/82 87/87/87
f 88/88/88 84/84/84 87/87/87
f 91/91/91 90/90/90 89/89/89
f 92/92/92 91/91/91 89/89/89
f 93/93/93 91/91/91 92/92/92
f 94/94/94 93/93/93 92/92/92
f 95/95/95 93/93/93 94/94/94
f 96/96/96 95/95/95 94/94/94
f 92/92/92 89/89/89 97/97/97
f 98/98/98 92/92/92 97/97/97
f 94/94/94 92/92/92 98/98/98
f 99/99/99 94/94/94 98/98/98
f 96/96/96 94/94/94 99/99/99
f 100/100/100 96/96/96 99/99/99
f 103/103/103 102/102/102 101/101/101
f 104/104/104 103/103/103 101/101/101
f 105/105/105 103/103/103 104/104/104
f 106/106/106 105/105/105 104/104/104
f 107/107/107 105/105/105 106/106/106
f 108/108/108 107/107/107 106/106/106
f 104/104/104 101/101/101 109/109/109
f 110/110/110 104/104/104 109/109/109
f 106/106/106 104/104/104 110/110/110
f 111/111/111 106/106/106 110/110/110
f 108/108/108 106/106/106 111/111/111
f 112/112/112 108/108/108 111/111/111
