g m_dlc4_lvl7_squarefloor_01
v -3.607804 7.168062E-08 -4.201301
v 1.88 7.168062E-08 -4.201301
v -3.607804 -7.16807E-08 -2.998699
v 1.88 -7.16807E-08 -2.998699
v -7.215608 1.433612E-07 -5.411706
v -3.607804 1.433612E-07 -5.411706
v -7.215608 -1.433613E-07 -3.006503
v -3.607804 -1.433613E-07 -3.006503
v -9.019507 1.075209E-07 3.006501
v 9.019507 1.075209E-07 3.006501
v -9.019507 -1.07521E-07 4.810405
v 9.019507 -1.07521E-07 4.810405
v -7.215608 7.168062E-08 -0.6013013
v 7.215605 7.168062E-08 -0.6013013
v -7.215608 -7.16807E-08 0.6013013
v 7.215605 -7.16807E-08 0.6013013
v -9.019507 1.792015E-07 4.810403
v -2.405202 1.792015E-07 4.810403
v -9.019507 -1.792016E-07 7.816907
v -2.405202 -1.792016E-07 7.816907
v -9.62081 5.017644E-07 -5.411706
v -7.215608 5.017644E-07 -5.411706
v -9.62081 -5.017645E-07 3.006504
v -7.215608 -5.017645E-07 3.006504
v 1.88 2.867225E-07 -7.816907
v 7.215607 2.867225E-07 -7.816907
v 1.88 -2.867226E-07 -3.006503
v 7.215607 -2.867226E-07 -3.006503
v 7.215607 6.451256E-07 -7.816907
v 9.62081 6.451256E-07 -7.816907
v 7.215607 -6.451257E-07 3.006504
v 9.62081 -6.451257E-07 3.006504
vt -1.085938 2.769531
vt 2.072266 2.769531
vt -1.085938 2.119141
vt 2.072266 2.119141
vt -2.666016 3.421875
vt -1.083008 3.421875
vt -2.666016 2.123047
vt -1.083008 2.123047
vt -3.457031 -1.124023
vt 4.457031 -1.124023
vt -3.457031 -2.097656
vt 4.457031 -2.097656
vt -2.666016 0.824707
vt 3.666016 0.824707
vt -2.666016 0.175293
vt 3.666016 0.175293
vt -3.457031 -2.097656
vt -0.5551758 -2.097656
vt -3.457031 -3.720703
vt -0.5551758 -3.720703
vt -3.720703 3.421875
vt -2.666016 3.421875
vt -3.720703 -1.124023
vt -2.666016 -1.124023
vt 2.082031 4.722656
vt 3.666016 4.722656
vt 2.082031 2.123047
vt 3.666016 2.123047
vt 3.666016 4.722656
vt 4.722656 4.722656
vt 3.666016 -1.124023
vt 4.722656 -1.124023
vn 0 1 1.192093E-07
vn 0 1 1.192093E-07
vn 0 1 1.192093E-07
vn 0 1 1.192093E-07
vn 0 1 1.192093E-07
vn 0 1 1.192093E-07
vn 0 1 1.192093E-07
vn 0 1 1.192093E-07
vn 0 1 1.192093E-07
vn 0 1 1.192093E-07
vn 0 1 1.192093E-07
vn 0 1 1.192093E-07
vn 0 1 1.192093E-07
vn 0 1 1.192093E-07
vn 0 1 1.192093E-07
vn 0 1 1.192093E-07
vn 0 1 1.192093E-07
vn 0 1 1.192093E-07
vn 0 1 1.192093E-07
vn 0 1 1.192093E-07
vn 0 1 1.192093E-07
vn 0 1 1.192093E-07
vn 0 1 1.192093E-07
vn 0 1 1.192093E-07
vn 0 1 1.192093E-07
vn 0 1 1.192093E-07
vn 0 1 1.192093E-07
vn 0 1 1.192093E-07
vn 0 1 1.192093E-07
vn 0 1 1.192093E-07
vn 0 1 1.192093E-07
vn 0 1 1.192093E-07
g m_dlc4_lvl7_squarefloor_01_0
f 3/3/3 2/2/2 1/1/1
f 2/2/2 3/3/3 4/4/4
f 7/7/7 6/6/6 5/5/5
f 6/6/6 7/7/7 8/8/8
f 11/11/11 10/10/10 9/9/9
f 10/10/10 11/11/11 12/12/12
f 15/15/15 14/14/14 13/13/13
f 14/14/14 15/15/15 16/16/16
f 19/19/19 18/18/18 17/17/17
f 18/18/18 19/19/19 20/20/20
f 23/23/23 22/22/22 21/21/21
f 22/22/22 23/23/23 24/24/24
f 27/27/27 26/26/26 25/25/25
f 26/26/26 27/27/27 28/28/28
f 31/31/31 30/30/30 29/29/29
f 30/30/30 31/31/31 32/32/32
