g m_DLC_04_PathEdge_02
v 0.2912445 0.05233362 -0.201098
v 0.2294133 0.2152967 -0.2142804
v 0.2491165 0.2164181 -0.2881595
v 0.3107715 0.05371214 -0.2742841
v 0.262876 0.06031616 -0.5275879
v 0.2138692 0.2217944 -0.4735223
v 0.08688247 0.2137042 -0.04784195
v 0.1116852 0.05034622 0.008571167
v 0.1917912 0.2605687 -0.2629223
v 0.2294133 0.2152967 -0.2142804
v 0.08688247 0.2137042 -0.04784195
v 0.03205841 0.2587991 -0.0763295
v 0.1917912 0.2605687 -0.2629223
v -0.09664246 0.2608654 -0.07735519
v 0.01759766 0.214069 -0.01598816
v -0.1084422 0.216359 -0.0161882
v -0.1124097 0.2696593 -0.4476794
v -0.1590211 0.2182837 -0.06482117
v -0.173768 0.2266696 -0.4313354
v 0.1518536 0.2659668 -0.4694296
v 0.2138692 0.2217944 -0.4735223
v 0.2491165 0.2164181 -0.2881595
v -0.03695099 0.2701837 -0.5223206
v -0.01068512 0.2278226 -0.5803412
v 0.1596567 0.2240183 -0.5326214
v -0.1461192 0.2278711 -0.5024286
v -0.0892015 0.2285905 -0.5596124
v 0.262876 0.06031616 -0.5275879
v 0.2138692 0.2217944 -0.4735223
v 0.1596567 0.2240183 -0.5326214
v 0.2116832 0.06241614 -0.5833948
v -0.03404633 0.06790428 -0.6522315
v -0.01068512 0.2278226 -0.5803412
v -0.0892015 0.2285905 -0.5596124
v -0.1072926 0.0686207 -0.6328961
v -0.2097923 0.06786464 -0.52961
v -0.1461192 0.2278711 -0.5024286
v -0.173768 0.2266696 -0.4313354
v -0.2372485 0.06667166 -0.459013
v -0.0892015 0.2285905 -0.5596124
v -0.1072926 0.0686207 -0.6328961
v -0.2194237 0.05608596 -0.0124353
v -0.1590211 0.2182837 -0.06482117
v -0.1124097 0.2696593 -0.4476794
v -0.2194237 0.05608596 -0.0124353
v -0.1590211 0.2182837 -0.06482117
v -0.1084422 0.216359 -0.0161882
v -0.1648331 0.05400862 0.04005249
v 0.04285309 0.0507086 0.04021805
v 0.01759766 0.214069 -0.01598816
v 0.08688247 0.2137042 -0.04784195
v 0.1116852 0.05034622 0.008571167
v 0.262876 0.06031616 -0.5275879
v 0.2574699 -0.2803783 -0.5354474
v 0.3053642 -0.2869823 -0.2821436
v 0.3107715 0.05371214 -0.2742841
v 0.2858385 -0.2883608 -0.2089575
v 0.2912445 0.05233362 -0.201098
v 0.106277 -0.2903482 0.0007125855
v 0.1116852 0.05034622 0.008571167
v -0.03404633 0.06790428 -0.6522315
v -0.03945343 -0.27279 -0.6600915
v 0.206277 -0.2782783 -0.5912542
v 0.2116832 0.06241614 -0.5833948
v 0.2574699 -0.2803783 -0.5354474
v 0.262876 0.06031616 -0.5275879
v -0.1072926 0.0686207 -0.6328961
v -0.1127005 -0.2720738 -0.6407556
v -0.2097923 0.06786464 -0.52961
v -0.2151993 -0.2728298 -0.5374713
v -0.1127005 -0.2720738 -0.6407556
v -0.1072926 0.0686207 -0.6328961
v -0.2372485 0.06667166 -0.459013
v -0.2426552 -0.2740228 -0.4668735
v -0.2194237 0.05608596 -0.0124353
v -0.2248309 -0.2846084 -0.02029495
v 0.04285309 0.0507086 0.04021805
v 0.03744492 -0.2899858 0.03235626
v -0.1702415 -0.2866859 0.03219269
v -0.1648331 0.05400862 0.04005249
v -0.2248309 -0.2846084 -0.02029495
v -0.2194237 0.05608596 -0.0124353
v 0.1116852 0.05034622 0.008571167
v 0.106277 -0.2903482 0.0007125855
v 0.2018431 0.09060936 0.3638223
v 0.1423256 0.2530795 0.3586892
v 0.1384294 0.2486512 0.282111
v 0.197952 0.08663464 0.2882678
v 0.1199384 0.07570007 0.05916489
v 0.08026489 0.2413414 0.1121368
v 0.1053812 0.2626804 0.5190968
v 0.1505952 0.1034223 0.5872438
v 0.08857483 0.2956977 0.3208833
v 0.1423256 0.2530795 0.3586892
v 0.1053812 0.2626804 0.5190968
v 0.04588806 0.3060595 0.5011705
v 0.08857483 0.2956977 0.3208833
v -0.1119676 0.3087038 0.5007826
v 0.04680908 0.2661547 0.5655835
v -0.111741 0.268811 0.5651962
v -0.1708826 0.2990814 0.3022447
v -0.1727075 0.2673877 0.5193341
v -0.2248125 0.2583327 0.3404751
v -0.1038654 0.2888049 0.1312352
v -0.2216034 0.2542023 0.264248
v -0.1647357 0.2457203 0.1166748
v 0.02153488 0.2865165 0.1280316
v 0.08026489 0.2413414 0.1121368
v 0.1384294 0.2486512 0.282111
v -0.100415 0.242209 0.07131515
v 0.01731873 0.2400603 0.06830887
v 0.1199384 0.07570007 0.05916489
v 0.08026489 0.2413414 0.1121368
v 0.01731873 0.2400603 0.06830887
v 0.0577742 0.07443494 0.01588211
v -0.1466345 0.078165 0.02110062
v -0.100415 0.242209 0.07131515
v -0.1647357 0.2457203 0.1166748
v -0.2084851 0.08154174 0.06471787
v 0.02153488 0.2865165 0.1280316
v -0.2875748 0.09388053 0.2704823
v -0.2216034 0.2542023 0.264248
v -0.2248125 0.2583327 0.3404751
v -0.2907559 0.09797607 0.3460634
v -0.1647357 0.2457203 0.1166748
v -0.2084851 0.08154174 0.06471787
v -0.2204437 0.1097345 0.5881411
v -0.1727075 0.2673877 0.5193341
v -0.1708826 0.2990814 0.3022447
v -0.2204437 0.1097345 0.5881411
v -0.1727075 0.2673877 0.5193341
v -0.111741 0.268811 0.5651962
v -0.1599123 0.1111475 0.6336735
v 0.0913179 0.1069389 0.6342871
v 0.04680908 0.2661547 0.5655835
v 0.1053812 0.2626804 0.5190968
v 0.1505952 0.1034223 0.5872438
v 0.1199384 0.07570007 0.05916489
v 0.1141931 -0.2645932 0.07736374
v 0.1922064 -0.2536586 0.3064659
v 0.197952 0.08663464 0.2882678
v 0.1960968 -0.2496839 0.3820207
v 0.2018431 0.09060936 0.3638223
v 0.1448503 -0.236871 0.6054407
v 0.1505952 0.1034223 0.5872438
v -0.1466345 0.078165 0.02110062
v -0.1523801 -0.2621283 0.03929855
v 0.05202881 -0.2658583 0.03407959
v 0.0577742 0.07443494 0.01588211
v 0.1141931 -0.2645932 0.07736374
v 0.1199384 0.07570007 0.05916489
v -0.2084851 0.08154174 0.06471787
v -0.2142296 -0.2587516 0.08291504
v -0.2875748 0.09388053 0.2704823
v -0.2933197 -0.2464127 0.2886806
v -0.2142296 -0.2587516 0.08291504
v -0.2084851 0.08154174 0.06471787
v -0.2907559 0.09797607 0.3460634
v -0.2964996 -0.2423172 0.3642603
v -0.2204437 0.1097345 0.5881411
v -0.2261891 -0.2305588 0.6063371
v 0.0913179 0.1069389 0.6342871
v 0.08557342 -0.2333543 0.652487
v -0.1656589 -0.2291458 0.6518724
v -0.1599123 0.1111475 0.6336735
v -0.2261891 -0.2305588 0.6063371
v -0.2204437 0.1097345 0.5881411
v 0.1505952 0.1034223 0.5872438
v 0.1448503 -0.236871 0.6054407
vt 0.6782227 0.1627197
vt 0.7128906 0.1450195
vt 0.7036133 0.1297607
vt 0.668457 0.1427002
vt 0.668457 0.07043457
vt 0.7026367 0.0871582
vt 0.7519531 0.1729736
vt 0.7446289 0.2094727
vt 0.7197266 0.1296387
vt 0.7128906 0.1450195
vt 0.7519531 0.1729736
vt 0.7617188 0.1594238
vt 0.7197266 0.1296387
vt 0.7866211 0.149292
vt 0.7680664 0.1748047
vt 0.7939453 0.1639404
vt 0.7744141 0.07067871
vt 0.8022461 0.1490479
vt 0.7910156 0.06811523
vt 0.71875 0.08477783
vt 0.7026367 0.0871582
vt 0.7036133 0.1297607
vt 0.7543945 0.06188965
vt 0.7456055 0.04830933
vt 0.7119141 0.06982422
vt 0.7802734 0.05511475
vt 0.7641602 0.04803467
vt 0.668457 0.07043457
vt 0.7026367 0.0871582
vt 0.7119141 0.06982422
vt 0.6777344 0.05136108
vt 0.7392578 0.0111618
vt 0.7456055 0.04830933
vt 0.7641602 0.04803467
vt 0.7626953 0.00957489
vt 0.8051758 0.02796936
vt 0.7802734 0.05511475
vt 0.7910156 0.06811523
vt 0.8208008 0.04605103
vt 0.7641602 0.04803467
vt 0.7626953 0.00957489
vt 0.8359375 0.1673584
vt 0.8022461 0.1490479
vt 0.7744141 0.07067871
vt 0.8359375 0.1673584
vt 0.8022461 0.1490479
vt 0.7939453 0.1639404
vt 0.8261719 0.1859131
vt 0.769043 0.2115479
vt 0.7680664 0.1748047
vt 0.7519531 0.1729736
vt 0.7446289 0.2094727
vt 0.2521973 0.4724121
vt 0.2521973 0.5488281
vt 0.3098145 0.5488281
vt 0.3098145 0.4724121
vt 0.3269043 0.5488281
vt 0.3269043 0.4724121
vt 0.3884277 0.5488281
vt 0.3884277 0.4724121
vt 0.1783447 0.4724121
vt 0.1783447 0.5488281
vt 0.2353516 0.5488281
vt 0.2353516 0.4724121
vt 0.2521973 0.5488281
vt 0.2521973 0.4724121
vt 0.161377 0.4724121
vt 0.161377 0.5488281
vt 0.1289063 0.4724121
vt 0.1289063 0.5488281
vt 0.161377 0.5488281
vt 0.161377 0.4724121
vt 0.1119385 0.4724121
vt 0.1119385 0.5488281
vt 0.0120697 0.4724121
vt 0.0120697 0.5488281
vt 0.4052734 0.4724121
vt 0.4052734 0.5488281
vt 0.4519043 0.5488281
vt 0.4519043 0.4724121
vt 0.46875 0.5488281
vt 0.46875 0.4724121
vt 0.3884277 0.4724121
vt 0.3884277 0.5488281
vt 0.5581055 0.3823242
vt 0.5620117 0.4189453
vt 0.578125 0.4187012
vt 0.5810547 0.3823242
vt 0.644043 0.4101563
vt 0.6142578 0.4338379
vt 0.5292969 0.4333496
vt 0.4975586 0.4116211
vt 0.5708008 0.4343262
vt 0.5620117 0.4189453
vt 0.5292969 0.4333496
vt 0.5351563 0.4484863
vt 0.5708008 0.4343262
vt 0.5351563 0.4816895
vt 0.5195313 0.4487305
vt 0.5195313 0.4838867
vt 0.5761719 0.4943848
vt 0.53125 0.4973145
vt 0.5698242 0.5102539
vt 0.6098633 0.4753418
vt 0.5864258 0.5078125
vt 0.6166992 0.4902344
vt 0.6098633 0.4487305
vt 0.6142578 0.4338379
vt 0.578125 0.4187012
vt 0.6264648 0.4748535
vt 0.625 0.4484863
vt 0.644043 0.4101563
vt 0.6142578 0.4338379
vt 0.625 0.4484863
vt 0.6572266 0.427002
vt 0.6625977 0.4863281
vt 0.6264648 0.4748535
vt 0.6166992 0.4902344
vt 0.6523438 0.5068359
vt 0.6098633 0.4487305
vt 0.5957031 0.5429688
vt 0.5864258 0.5078125
vt 0.5698242 0.5102539
vt 0.5712891 0.5463867
vt 0.6166992 0.4902344
vt 0.6523438 0.5068359
vt 0.5014648 0.5195313
vt 0.53125 0.4973145
vt 0.5761719 0.4943848
vt 0.5014648 0.5195313
vt 0.53125 0.4973145
vt 0.5195313 0.4838867
vt 0.4875488 0.5024414
vt 0.4868164 0.4304199
vt 0.5195313 0.4487305
vt 0.5292969 0.4333496
vt 0.4975586 0.4116211
vt 0.227417 0.2751465
vt 0.227417 0.1988525
vt 0.1733398 0.1988525
vt 0.1733398 0.2751465
vt 0.1563721 0.1988525
vt 0.1563721 0.2751465
vt 0.1051025 0.1988525
vt 0.1051025 0.2751465
vt 0.2900391 0.2751465
vt 0.2900391 0.1988525
vt 0.2443848 0.1988525
vt 0.2443848 0.2751465
vt 0.227417 0.1988525
vt 0.227417 0.2751465
vt 0.3068848 0.2751465
vt 0.3068848 0.1988525
vt 0.3562012 0.2751465
vt 0.3562012 0.1988525
vt 0.3068848 0.1988525
vt 0.3068848 0.2751465
vt 0.373291 0.2751465
vt 0.373291 0.1988525
vt 0.4296875 0.2751465
vt 0.4296875 0.1988525
vt 0.0881958 0.2751465
vt 0.0881958 0.1988525
vt 0.03204346 0.1988525
vt 0.03204346 0.2751465
vt 0.0151062 0.1988525
vt 0.0151062 0.2751465
vt 0.1051025 0.2751465
vt 0.1051025 0.1988525
vn 0.8173652 0.08433805 0.5699134
vn 0.7139121 0.4712819 0.5179026
vn 0.8756296 0.4778303 -0.07036375
vn 0.9924347 0.09502304 -0.0777429
vn 0.9449442 0.1034543 -0.3104475
vn 0.8388019 0.4846963 -0.2479536
vn 0.6189286 0.4703179 0.6290695
vn 0.6906344 0.08278121 0.7184506
vn 0.1052732 0.9931855 0.04999948
vn 0.7139121 0.4712819 0.5179026
vn 0.6189286 0.4703179 0.6290695
vn 0.05808458 0.9941115 0.09147995
vn 0.1052732 0.9931855 0.04999948
vn -0.110936 0.991024 0.074596
vn 0.1080198 0.452639 0.8851269
vn -0.1594072 0.4678016 0.8693394
vn -0.08207045 0.9965773 0.009903213
vn -0.8595309 0.4961121 0.122798
vn -0.8602055 0.5099459 0.001301926
vn 0.08403067 0.9957704 -0.03715176
vn 0.8388019 0.4846963 -0.2479536
vn 0.8756296 0.4778303 -0.07036375
vn 0.009827313 0.9988447 -0.04703743
vn 0.145882 0.5073681 -0.8492916
vn 0.3410281 0.5029188 -0.7942119
vn -0.6986644 0.4989484 -0.5127558
vn -0.4890085 0.5074977 -0.7094483
vn 0.9449442 0.1034543 -0.3104475
vn 0.8388019 0.4846963 -0.2479536
vn 0.3410281 0.5029188 -0.7942119
vn 0.3964537 0.1250199 -0.9095024
vn 0.1444107 0.130516 -0.9808726
vn 0.145882 0.5073681 -0.8492916
vn -0.4890085 0.5074977 -0.7094483
vn -0.5535074 0.1411923 -0.8207887
vn -0.8001848 0.1342941 -0.5845249
vn -0.6986644 0.4989484 -0.5127558
vn -0.8602055 0.5099459 0.001301926
vn -0.9919927 0.1249015 -0.01871107
vn -0.4890085 0.5074977 -0.7094483
vn -0.5535074 0.1411923 -0.8207887
vn -0.9809268 0.1205626 0.1524705
vn -0.8595309 0.4961121 0.122798
vn -0.08207045 0.9965773 0.009903213
vn -0.9809268 0.1205626 0.1524705
vn -0.8595309 0.4961121 0.122798
vn -0.1594072 0.4678016 0.8693394
vn -0.2101051 0.0937639 0.9731722
vn 0.1219625 0.08197661 0.9891436
vn 0.1080198 0.452639 0.8851269
vn 0.6189286 0.4703179 0.6290695
vn 0.6906344 0.08278121 0.7184506
vn 0.9449442 0.1034543 -0.3104475
vn 0.9521731 -0.008063727 -0.3054529
vn 0.9961223 -0.0138035 -0.08688993
vn 0.9924347 0.09502304 -0.0777429
vn 0.8176171 -0.02624378 0.5751639
vn 0.8173652 0.08433805 0.5699134
vn 0.6966417 -0.02759421 0.7168884
vn 0.6906344 0.08278121 0.7184506
vn 0.1444107 0.130516 -0.9808726
vn 0.1537069 0.02035186 -0.9879069
vn 0.3873489 0.01511919 -0.9218091
vn 0.3964537 0.1250199 -0.9095024
vn 0.9521731 -0.008063727 -0.3054529
vn 0.9449442 0.1034543 -0.3104475
vn -0.5535074 0.1411923 -0.8207887
vn -0.5719855 0.0279917 -0.819786
vn -0.8001848 0.1342941 -0.5845249
vn -0.8008692 0.0265135 -0.5982521
vn -0.5719855 0.0279917 -0.819786
vn -0.5535074 0.1411923 -0.8207887
vn -0.9919927 0.1249015 -0.01871107
vn -0.9997009 0.0162867 -0.01824688
vn -0.9809268 0.1205626 0.1524705
vn -0.9895157 0.01238469 0.1438933
vn 0.1219625 0.08197661 0.9891436
vn 0.1127582 -0.0247081 0.9933152
vn -0.1971713 -0.01948509 0.9801754
vn -0.2101051 0.0937639 0.9731722
vn -0.9895157 0.01238469 0.1438933
vn -0.9809268 0.1205626 0.1524705
vn 0.6906344 0.08278121 0.7184506
vn 0.6966417 -0.02759421 0.7168884
vn 0.9841353 0.09981007 0.1466817
vn 0.8686244 0.482354 0.1132532
vn 0.8475031 0.4658653 -0.2543778
vn 0.9625698 0.07884825 -0.2593114
vn 0.8802829 0.07307681 -0.4687876
vn 0.7867469 0.4585572 -0.4132247
vn 0.8186097 0.4941398 0.2927527
vn 0.9170291 0.1183439 0.3808574
vn 0.1124368 0.9918972 -0.05914417
vn 0.8686244 0.482354 0.1132532
vn 0.8186097 0.4941398 0.2927527
vn 0.09198651 0.9951543 0.03473388
vn 0.1124368 0.9918972 -0.05914417
vn -0.06166949 0.9974341 0.03636178
vn 0.1352407 0.5252169 0.840153
vn -0.1172044 0.5291768 0.8403779
vn -0.08271495 0.995041 -0.0552437
vn -0.7886099 0.5230926 0.3232158
vn -0.8428426 0.5148846 0.1565574
vn -0.04884388 0.9904878 -0.1286399
vn -0.8273051 0.4901222 -0.274493
vn -0.7535639 0.4819748 -0.4470367
vn 0.09202302 0.9869168 -0.1323902
vn 0.7867469 0.4585572 -0.4132247
vn 0.8475031 0.4658653 -0.2543778
vn -0.1540115 0.4358455 -0.8867463
vn 0.1331775 0.4318923 -0.8920385
vn 0.8802829 0.07307681 -0.4687876
vn 0.7867469 0.4585572 -0.4132247
vn 0.1331775 0.4318923 -0.8920385
vn 0.1567982 0.05529351 -0.9860816
vn -0.1927815 0.0610229 -0.9793423
vn -0.1540115 0.4358455 -0.8867463
vn -0.7535639 0.4819748 -0.4470367
vn -0.8576545 0.1006317 -0.5042838
vn 0.09202302 0.9869168 -0.1323902
vn -0.953487 0.1099354 -0.2806721
vn -0.8273051 0.4901222 -0.274493
vn -0.8428426 0.5148846 0.1565574
vn -0.9714687 0.1356294 0.1945592
vn -0.7535639 0.4819748 -0.4470367
vn -0.8576545 0.1006317 -0.5042838
vn -0.8979951 0.1498143 0.4137153
vn -0.7886099 0.5230926 0.3232158
vn -0.08271495 0.995041 -0.0552437
vn -0.8979951 0.1498143 0.4137153
vn -0.7886099 0.5230926 0.3232158
vn -0.1172044 0.5291768 0.8403779
vn -0.1557528 0.1641509 0.9740614
vn 0.1629819 0.1590054 0.9737321
vn 0.1352407 0.5252169 0.840153
vn 0.8186097 0.4941398 0.2927527
vn 0.9170291 0.1183439 0.3808574
vn 0.8802829 0.07307681 -0.4687876
vn 0.8891905 -0.03939026 -0.4558384
vn 0.965641 -0.03010841 -0.25813
vn 0.9625698 0.07884825 -0.2593114
vn 0.9875807 -0.008284751 0.1568939
vn 0.9841353 0.09981007 0.1466817
vn 0.9257789 0.004585801 0.3780374
vn 0.9170291 0.1183439 0.3808574
vn -0.1927815 0.0610229 -0.9793423
vn -0.1814611 -0.04945853 -0.9821536
vn 0.1406425 -0.05523737 -0.9885183
vn 0.1567982 0.05529351 -0.9860816
vn 0.8891905 -0.03939026 -0.4558384
vn 0.8802829 0.07307681 -0.4687876
vn -0.8576545 0.1006317 -0.5042838
vn -0.8708391 -0.01157868 -0.4914317
vn -0.953487 0.1099354 -0.2806721
vn -0.9597865 0.001190067 -0.2807282
vn -0.8708391 -0.01157868 -0.4914317
vn -0.8576545 0.1006317 -0.5042838
vn -0.9714687 0.1356294 0.1945592
vn -0.9782977 0.02749642 0.2053718
vn -0.8979951 0.1498143 0.4137153
vn -0.910243 0.03741825 0.4123803
vn 0.1629819 0.1590054 0.9737321
vn 0.148924 0.050302 0.9875684
vn -0.1457184 0.05528734 0.98778
vn -0.1557528 0.1641509 0.9740614
vn -0.910243 0.03741825 0.4123803
vn -0.8979951 0.1498143 0.4137153
vn 0.9170291 0.1183439 0.3808574
vn 0.9257789 0.004585801 0.3780374
g m_DLC_04_PathEdge_02_0
f 3/3/3 2/2/2 1/1/1
f 4/4/4 3/3/3 1/1/1
f 4/4/4 5/5/5 3/3/3
f 5/5/5 6/6/6 3/3/3
f 1/1/1 2/2/2 7/7/7
f 8/8/8 1/1/1 7/7/7
f 3/3/3 9/9/9 2/2/2
f 12/12/12 11/11/11 10/10/10
f 13/13/13 12/12/12 10/10/10
f 14/14/14 12/12/12 13/13/13
f 15/15/15 12/12/12 14/14/14
f 15/15/15 11/11/11 12/12/12
f 16/16/16 15/15/15 14/14/14
f 17/17/17 14/14/14 13/13/13
f 18/18/18 14/14/14 17/17/17
f 18/18/18 16/16/16 14/14/14
f 19/19/19 18/18/18 17/17/17
f 17/17/17 13/13/13 20/20/20
f 21/21/21 20/20/20 13/13/13
f 22/22/22 21/21/21 13/13/13
f 20/20/20 23/23/23 17/17/17
f 24/24/24 23/23/23 20/20/20
f 25/25/25 24/24/24 20/20/20
f 21/21/21 25/25/25 20/20/20
f 26/26/26 17/17/17 23/23/23
f 27/27/27 26/26/26 23/23/23
f 24/24/24 27/27/27 23/23/23
f 30/30/30 29/29/29 28/28/28
f 31/31/31 30/30/30 28/28/28
f 31/31/31 32/32/32 30/30/30
f 32/32/32 33/33/33 30/30/30
f 34/34/34 33/33/33 32/32/32
f 35/35/35 34/34/34 32/32/32
f 38/38/38 37/37/37 36/36/36
f 39/39/39 38/38/38 36/36/36
f 36/36/36 37/37/37 40/40/40
f 41/41/41 36/36/36 40/40/40
f 39/39/39 42/42/42 38/38/38
f 42/42/42 43/43/43 38/38/38
f 37/37/37 38/38/38 44/44/44
f 47/47/47 46/46/46 45/45/45
f 48/48/48 47/47/47 45/45/45
f 48/48/48 49/49/49 47/47/47
f 49/49/49 50/50/50 47/47/47
f 51/51/51 50/50/50 49/49/49
f 52/52/52 51/51/51 49/49/49
f 55/55/55 54/54/54 53/53/53
f 56/56/56 55/55/55 53/53/53
f 57/57/57 55/55/55 56/56/56
f 58/58/58 57/57/57 56/56/56
f 59/59/59 57/57/57 58/58/58
f 60/60/60 59/59/59 58/58/58
f 63/63/63 62/62/62 61/61/61
f 64/64/64 63/63/63 61/61/61
f 65/65/65 63/63/63 64/64/64
f 66/66/66 65/65/65 64/64/64
f 61/61/61 62/62/62 67/67/67
f 62/62/62 68/68/68 67/67/67
f 71/71/71 70/70/70 69/69/69
f 72/72/72 71/71/71 69/69/69
f 69/69/69 70/70/70 73/73/73
f 70/70/70 74/74/74 73/73/73
f 73/73/73 74/74/74 75/75/75
f 74/74/74 76/76/76 75/75/75
f 79/79/79 78/78/78 77/77/77
f 80/80/80 79/79/79 77/77/77
f 81/81/81 79/79/79 80/80/80
f 82/82/82 81/81/81 80/80/80
f 77/77/77 78/78/78 83/83/83
f 78/78/78 84/84/84 83/83/83
f 87/87/87 86/86/86 85/85/85
f 88/88/88 87/87/87 85/85/85
f 88/88/88 89/89/89 87/87/87
f 89/89/89 90/90/90 87/87/87
f 85/85/85 86/86/86 91/91/91
f 92/92/92 85/85/85 91/91/91
f 87/87/87 93/93/93 86/86/86
f 96/96/96 95/95/95 94/94/94
f 97/97/97 96/96/96 94/94/94
f 98/98/98 96/96/96 97/97/97
f 99/99/99 96/96/96 98/98/98
f 99/99/99 95/95/95 96/96/96
f 100/100/100 99/99/99 98/98/98
f 101/101/101 98/98/98 97/97/97
f 102/102/102 98/98/98 101/101/101
f 102/102/102 100/100/100 98/98/98
f 103/103/103 102/102/102 101/101/101
f 104/104/104 101/101/101 97/97/97
f 105/105/105 101/101/101 104/104/104
f 106/106/106 105/105/105 104/104/104
f 97/97/97 107/107/107 104/104/104
f 108/108/108 107/107/107 97/97/97
f 109/109/109 108/108/108 97/97/97
f 110/110/110 104/104/104 107/107/107
f 110/110/110 106/106/106 104/104/104
f 111/111/111 110/110/110 107/107/107
f 114/114/114 113/113/113 112/112/112
f 115/115/115 114/114/114 112/112/112
f 115/115/115 116/116/116 114/114/114
f 116/116/116 117/117/117 114/114/114
f 118/118/118 117/117/117 116/116/116
f 119/119/119 118/118/118 116/116/116
f 113/113/113 114/114/114 120/120/120
f 123/123/123 122/122/122 121/121/121
f 124/124/124 123/123/123 121/121/121
f 121/121/121 122/122/122 125/125/125
f 126/126/126 121/121/121 125/125/125
f 124/124/124 127/127/127 123/123/123
f 127/127/127 128/128/128 123/123/123
f 122/122/122 123/123/123 129/129/129
f 132/132/132 131/131/131 130/130/130
f 133/133/133 132/132/132 130/130/130
f 133/133/133 134/134/134 132/132/132
f 134/134/134 135/135/135 132/132/132
f 136/136/136 135/135/135 134/134/134
f 137/137/137 136/136/136 134/134/134
f 140/140/140 139/139/139 138/138/138
f 141/141/141 140/140/140 138/138/138
f 142/142/142 140/140/140 141/141/141
f 143/143/143 142/142/142 141/141/141
f 144/144/144 142/142/142 143/143/143
f 145/145/145 144/144/144 143/143/143
f 148/148/148 147/147/147 146/146/146
f 149/149/149 148/148/148 146/146/146
f 150/150/150 148/148/148 149/149/149
f 151/151/151 150/150/150 149/149/149
f 146/146/146 147/147/147 152/152/152
f 147/147/147 153/153/153 152/152/152
f 156/156/156 155/155/155 154/154/154
f 157/157/157 156/156/156 154/154/154
f 154/154/154 155/155/155 158/158/158
f 155/155/155 159/159/159 158/158/158
f 158/158/158 159/159/159 160/160/160
f 159/159/159 161/161/161 160/160/160
f 164/164/164 163/163/163 162/162/162
f 165/165/165 164/164/164 162/162/162
f 166/166/166 164/164/164 165/165/165
f 167/167/167 166/166/166 165/165/165
f 162/162/162 163/163/163 168/168/168
f 163/163/163 169/169/169 168/168/168
