g m_dlc5_shadowcast_02
v -0.2421225 -3.484332E-16 0.05348648
v -0.0864658 4.254289E-16 -1.277821
v 0.375021 -4.254289E-16 -0.03602951
v 0.5014566 4.254289E-16 -1.057058
v 0.456481 4.254289E-16 -4.370904
v -1.224439 4.254289E-16 -1.964432
v 1.686278 4.254289E-16 -2.267339
v -1.418199 4.254289E-16 -3.578661
vt 0 0.04525757
vt 0.1313477 0.1606445
vt 0.06762695 0
vt 0.1690674 0.08789063
vt 0.4543457 0.4130859
vt 0.08111572 0.3266602
vt 0.3896484 0.1016846
vt 0.2033691 0.5
vn 0 1 0
vn 0 1 0
vn 0 1 0
vn 0 1 0
vn 0 1 0
vn 0 1 0
vn 0 1 0
vn 0 1 0
g m_dlc5_shadowcast_02_0
f 3/3/3 2/2/2 1/1/1
f 3/3/3 4/4/4 2/2/2
f 4/4/4 5/5/5 2/2/2
f 5/5/5 6/6/6 2/2/2
f 4/4/4 7/7/7 5/5/5
f 5/5/5 8/8/8 6/6/6
