g m_dlc3_icecliff_90
v 0.6 -2.065156 1.2
v 0.6 -1.523299 1.2
v 0.5847141 -1.523014 1.029373
v 0.5847141 -2.065156 1.029373
v 0.6 -1.01746 1.2
v 0.5847141 -1.523014 1.029373
v 0.5844815 -1.405012 1.026773
v 0.5828394 -1.361574 1.008441
v 0.5777658 -1.075408 0.9518014
v 0.7523245 -1.181781 0.8439078
v 0.5945285 -1.024303 0.9062112
v 0.5999908 -0.533581 0.8575802
v 0.7219159 -0.4927967 0.8372006
v 0.5945285 -1.024303 0.9062112
v 0.7523245 -1.181781 0.8439078
v 0.687742 -0.05160591 0.8488882
v 0.5999908 -0.533581 0.8575802
v 0.6835324 -0.0335424 0.8898816
v 0.687742 -0.05160591 0.8488882
v 1.129261 -1.523014 0.634971
v 1.2 -1.523299 0.6000003
v 1.2 -1.553969 0.6000003
v 1.2 -1.01746 0.6000003
v 1.2 -2.065156 0.6000003
v 1.129261 -2.065156 0.634971
v 1.198219 -0.02504463 0.6158188
v 1.043801 -0.03339958 0.5726071
v 0.9948205 0 0.5344882
v 1.198219 -0.02504463 0.6158188
v 0.9948205 0 0.5344882
v 1.2 -0.001427612 0.5923504
v 1.2 -0.0007229614 0.3
v 0.3 -0.005413513 0.3
v 1.2 0 0
v 0.3 0 0
v 0 0 0
v 0 0 0.3
v 0 0 1.2
v 0.3 -0.0007226563 1.2
v 0.643739 0 0.8794674
v 0.5923504 -0.001427002 1.2
v 0.7714779 -3.051758E-07 1.036712
v 0.6835324 -0.0335424 0.8898816
v 0.7904379 -0.03488167 1.014933
v 0.787322 -0.03673164 1.05649
v 0.6158178 -0.02504402 1.20178
v 0.6888369 -0.01747887 0.8183008
v 0.8950079 -0.01747887 0.923551
v 1.097511 0 0.7666513
v 0.687742 -0.05160591 0.8488882
v 0.6835324 -0.0335424 0.8898816
v 1.158082 -0.4009829 0.5821286
v 1.198219 -0.02504463 0.6158188
v 1.196757 -0.4343218 0.5877084
v 1.043801 -0.03339958 0.5726071
v 1.055145 -0.4232079 0.561416
v 1.043801 -0.03339958 0.5726071
v 1.12261 -0.03369682 0.7541605
v 1.097511 0 0.7666513
v 0.9948205 0 0.5344882
v 0.6888369 -0.01747887 0.8183008
v 0.8950079 -0.01747887 0.923551
v 0.8786029 -0.05129372 0.9463546
v 0.687742 -0.05160591 0.8488882
v 0.919884 -0.04993034 0.9422244
v 1.111732 -0.03111793 0.7943192
v 1.213324 -2.065156 0.8722421
v 1.20728 -1.521911 0.8688684
v 1.218701 -1.523014 0.8297531
v 1.219733 -2.065156 0.832001
v 1.265504 -0.8071846 0.817341
v 1.245421 -0.8055365 0.8527713
v 1.28813 -0.4940696 0.865463
v 1.269067 -0.5114228 0.9019558
v 1.145005 -1.523014 0.9092105
v 1.163088 -2.065156 0.9265622
v 1.131169 -0.9459286 0.8877295
v 1.095467 -0.9245611 0.8958304
v 0.9623218 -0.6490439 0.9758343
v 0.9631067 -0.6016268 0.9674985
v 1.268922 -0.462163 0.8839163
v 1.139261 -0.4671439 0.7884787
v 1.055145 -0.4232079 0.561416
v 1.158082 -0.4009829 0.5821286
v 0.9625708 -1.03436 0.9415503
v 0.9219293 -1.064579 0.9366562
v 0.9200964 -0.6168739 0.9714782
v 0.7219159 -0.4927967 0.8372006
v 0.7523245 -1.181781 0.8439078
v 0.687742 -0.05160591 0.8488882
v 0.8786029 -0.05129372 0.9463546
v 0.919884 -0.04993034 0.9422244
v 0.9631067 -0.6016268 0.9674985
v 1.268922 -0.462163 0.8839163
v 1.158082 -0.4009829 0.5821286
v 1.196757 -0.4343218 0.5877084
v 1.28813 -0.4940696 0.865463
v 1.2 -1.01746 0.6000003
v 1.265504 -0.8071846 0.817341
v 1.129261 -1.523014 0.634971
v 1.218701 -1.523014 0.8297531
v 1.129261 -2.065156 0.634971
v 1.219733 -2.065156 0.832001
v 0.8950079 -0.01747887 0.923551
v 1.097511 0 0.7666513
v 1.111732 -0.03111793 0.7943192
v 1.12261 -0.03369682 0.7541605
v 1.12261 -0.03369682 0.7541605
v 1.139261 -0.4671439 0.7884787
v 1.129072 -0.4850484 0.8293011
v 1.111732 -0.03111793 0.7943192
v 0.9631067 -0.6016268 0.9674985
v 0.919884 -0.04993034 0.9422244
v 0.9631067 -0.6016268 0.9674985
v 1.129072 -0.4850484 0.8293011
v 1.139261 -0.4671439 0.7884787
v 1.12261 -0.03369682 0.7541605
v 1.043801 -0.03339958 0.5726071
v 1.055145 -0.4232079 0.561416
v 1.139261 -0.4671439 0.7884787
v 0.687742 -0.05160591 0.8488882
v 0.643739 0 0.8794674
v 0.6888369 -0.01747887 0.8183008
v 0.5777658 -1.075408 0.9518014
v 0.7076953 -0.6916068 1.032819
v 0.698518 -0.7197759 0.9668484
v 0.5945285 -1.024303 0.9062112
v 0.7588803 -0.3950602 1.010225
v 0.7570434 -0.37604 1.052054
v 0.5966403 -0.6452738 1.2
v 0.6 -1.01746 1.2
v 0.7904379 -0.03488167 1.014933
v 0.787322 -0.03673164 1.05649
v 0.5956564 -0.5362313 1.2
v 0.5928863 -0.229388 1.2
v 0.6158178 -0.02504402 1.20178
v 0.698518 -0.7197759 0.9668484
v 0.7588803 -0.3950602 1.010225
v 0.5999908 -0.533581 0.8575802
v 0.5945285 -1.024303 0.9062112
v 0.6835324 -0.0335424 0.8898816
v 0.7904379 -0.03488167 1.014933
v 0.7904379 -0.03488167 1.014933
v 0.787322 -0.03673164 1.05649
v 0.7714779 -3.051758E-07 1.036712
v 0.8968539 -2.065156 1.198637
v 0.896713 -1.525555 1.198563
v 0.9376745 -1.523014 1.196563
v 0.9375513 -2.065156 1.19661
v 0.8855889 -1.213125 1.192109
v 0.8474545 -1.237496 1.189598
v 1.172643 -1.523014 1.041997
v 1.170553 -2.065156 1.042931
v 1.167056 -0.9343425 1.028677
v 0.8560254 -1.191954 1.1729
v 1.151381 -0.89391 1.003181
v 0.5847141 -1.523014 1.029373
v 0.5847141 -2.065156 1.029373
v 0.5844815 -1.405012 1.026773
v 0.5828394 -1.361574 1.008441
v 0.5828394 -1.361574 1.008441
v 0.8560254 -1.191954 1.1729
v 0.8474545 -1.237496 1.189598
v 0.7523245 -1.181781 0.8439078
v 0.9219293 -1.064579 0.9366562
v 0.9625708 -1.03436 0.9415503
v 1.095467 -0.9245611 0.8958304
v 1.151381 -0.89391 1.003181
v 1.181561 -0.9173641 0.9886832
v 1.184497 -1.523014 1.003011
v 1.172643 -1.523014 1.041997
v 1.167056 -0.9343425 1.028677
v 1.170553 -2.065156 1.042931
v 1.184841 -2.065156 1.00477
v 1.163088 -2.065156 0.9265622
v 1.145005 -1.523014 0.9092105
v 1.131169 -0.9459286 0.8877295
v 1.151381 -0.89391 1.003181
v 1.151381 -0.89391 1.003181
v 1.095467 -0.9245611 0.8958304
v 1.131169 -0.9459286 0.8877295
v 1.181561 -0.9173641 0.9886832
vt 0.4370117 0.5400391
vt 0.442627 0.6513672
vt 0.4794922 0.6508789
vt 0.4729004 0.5336914
vt 0.4348145 0.7705078
vt 0.4794922 0.6508789
vt 0.4790039 0.6796875
vt 0.4819336 0.690918
vt 0.4870605 0.7597656
vt 0.5268555 0.7397461
vt 0.4968262 0.7724609
vt 0.5200195 0.8710938
vt 0.5463867 0.8764648
vt 0.4968262 0.7724609
vt 0.5268555 0.7397461
vt 0.5463867 0.9711914
vt 0.5200195 0.8710938
vt 0.5371094 0.9755859
vt 0.5463867 0.9711914
vt 0.7216797 0.6367188
vt 0.7382813 0.6381836
vt 0.7382813 0.6308594
vt 0.7216797 0.746582
vt 0.7382813 0.5288086
vt 0.7216797 0.5249023
vt 0.8710938 0.3676758
vt 0.8730469 0.3972168
vt 0.8808594 0.4091797
vt 0.8710938 0.3676758
vt 0.8808594 0.4091797
vt 0.8774414 0.3684082
vt 0.9301758 0.3720703
vt 0.9243164 0.5380859
vt 0.984375 0.3762207
vt 0.9824219 0.5390625
vt 0.9819336 0.5932617
vt 0.9267578 0.5961914
vt 0.7597656 0.6044922
vt 0.7573242 0.5478516
vt 0.8125 0.4777832
vt 0.7548828 0.4926758
vt 0.7797852 0.4584961
vt 0.8095703 0.4677734
vt 0.7827148 0.4511719
vt 0.7739258 0.4528809
vt 0.7524414 0.4868164
vt 0.8232422 0.4672852
vt 0.8095703 0.425293
vt 0.8374023 0.3896484
vt 0.8144531 0.4645996
vt 0.8095703 0.4677734
vt 0.7099609 0.8857422
vt 0.7456055 0.9536133
vt 0.7148438 0.8754883
vt 0.7119141 0.9643555
vt 0.6962891 0.8979492
vt 0.8730469 0.3972168
vt 0.8393555 0.3820801
vt 0.8374023 0.3896484
vt 0.8808594 0.4091797
vt 0.8232422 0.4672852
vt 0.8095703 0.425293
vt 0.8017578 0.427002
vt 0.8144531 0.4645996
vt 0.8037109 0.4191895
vt 0.8310547 0.3847656
vt 0.6660156 0.5249023
vt 0.6679688 0.6367188
vt 0.6767578 0.6367188
vt 0.6748047 0.5249023
vt 0.6704102 0.7880859
vt 0.6611328 0.7885742
vt 0.6650391 0.8466797
vt 0.6577148 0.84375
vt 0.652832 0.6357422
vt 0.6499023 0.5249023
vt 0.6352539 0.7587891
vt 0.6240234 0.7661133
vt 0.6005859 0.8354492
vt 0.6025391 0.8461914
vt 0.6601563 0.8525391
vt 0.6582031 0.875
vt 0.6962891 0.8979492
vt 0.7099609 0.8857422
vt 0.5844727 0.7514648
vt 0.5727539 0.7485352
vt 0.5932617 0.84375
vt 0.5463867 0.8764648
vt 0.5268555 0.7397461
vt 0.5463867 0.9711914
vt 0.59375 0.9682617
vt 0.6025391 0.9677734
vt 0.6025391 0.8461914
vt 0.6601563 0.8525391
vt 0.7099609 0.8857422
vt 0.7148438 0.8754883
vt 0.6650391 0.8466797
vt 0.7216797 0.746582
vt 0.6704102 0.7880859
vt 0.7216797 0.6367188
vt 0.6767578 0.6367188
vt 0.7216797 0.5249023
vt 0.6748047 0.5249023
vt 0.8095703 0.425293
vt 0.8374023 0.3896484
vt 0.8310547 0.3847656
vt 0.8393555 0.3820801
vt 0.6635742 0.9707031
vt 0.6582031 0.875
vt 0.6484375 0.8706055
vt 0.6547852 0.9707031
vt 0.6025391 0.8461914
vt 0.6025391 0.9677734
vt 0.6025391 0.8461914
vt 0.6484375 0.8706055
vt 0.6582031 0.875
vt 0.6635742 0.9707031
vt 0.7119141 0.9643555
vt 0.6962891 0.8979492
vt 0.6582031 0.875
vt 0.8144531 0.4645996
vt 0.8125 0.4777832
vt 0.8232422 0.4672852
vt 0.4870605 0.7597656
vt 0.4699707 0.8466797
vt 0.4833984 0.8398438
vt 0.4968262 0.7724609
vt 0.4841309 0.9101563
vt 0.4763184 0.9150391
vt 0.4277344 0.855957
vt 0.4348145 0.7705078
vt 0.5014648 0.9848633
vt 0.4921875 0.9863281
vt 0.4279785 0.8808594
vt 0.4335938 0.9506836
vt 0.4438477 0.9941406
vt 0.4833984 0.8398438
vt 0.4841309 0.9101563
vt 0.5200195 0.8710938
vt 0.4968262 0.7724609
vt 0.5371094 0.9755859
vt 0.5014648 0.9848633
vt 0.7827148 0.4511719
vt 0.7739258 0.4528809
vt 0.7797852 0.4584961
vt 0.5512695 0.5263672
vt 0.5527344 0.6342773
vt 0.5620117 0.6337891
vt 0.5605469 0.5258789
vt 0.5581055 0.6918945
vt 0.5507813 0.6899414
vt 0.6235352 0.6318359
vt 0.6225586 0.5244141
vt 0.6171875 0.7368164
vt 0.5551758 0.6992188
vt 0.6166992 0.7441406
vt 0.4794922 0.6508789
vt 0.4729004 0.5336914
vt 0.4790039 0.6796875
vt 0.4819336 0.690918
vt 0.4819336 0.690918
vt 0.5551758 0.6992188
vt 0.5507813 0.6899414
vt 0.5268555 0.7397461
vt 0.5727539 0.7485352
vt 0.5844727 0.7514648
vt 0.6240234 0.7661133
vt 0.6166992 0.7441406
vt 0.6235352 0.7426758
vt 0.6323242 0.6333008
vt 0.6235352 0.6318359
vt 0.6171875 0.7368164
vt 0.6225586 0.5244141
vt 0.6318359 0.5244141
vt 0.6499023 0.5249023
vt 0.652832 0.6357422
vt 0.6352539 0.7587891
vt 0.6166992 0.7441406
vt 0.6166992 0.7441406
vt 0.6240234 0.7661133
vt 0.6352539 0.7587891
vt 0.6235352 0.7426758
vn 0.9960111 0 -0.0892292
vn 0.9960111 0 -0.0892292
vn 0.9960111 0 -0.08922919
vn 0.9960111 0 -0.08922919
vn 0.9960115 -9.999995E-07 -0.08922496
vn 0.9960113 0 -0.08922702
vn 0.996012 -2E-06 -0.08922
vn 0.960382 0.070398 0.269649
vn 0.9362537 0.111383 0.3332009
vn 0.4897218 0.09893095 0.8662477
vn 0.4029972 0.06060503 0.9131924
vn 0.257518 0.03464501 0.9656522
vn 0.3528139 -0.004914998 0.9356806
vn 0.4029972 0.06060503 0.9131924
vn 0.4897218 0.09893095 0.8662477
vn 0.4868979 -0.021837 0.8731858
vn 0.257518 0.03464501 0.9656522
vn 0.5105668 0.004257997 0.8598275
vn 0.4868979 -0.021837 0.8731858
vn 0.443165 0 0.89644
vn 0.4431658 0 0.8964397
vn 0.443165 0 0.89644
vn 0.4431658 0 0.8964397
vn 0.443165 0 0.89644
vn 0.443165 0 0.89644
vn -0.267544 0.07718801 0.960449
vn -0.260877 0.139342 0.9552628
vn -0.006999734 0.999962 -0.005199802
vn -0.267544 0.07718801 0.960449
vn -0.006999734 0.999962 -0.005199802
vn -0.006999734 0.999962 -0.005199802
vn -0.006999734 0.999962 -0.005199802
vn -0.006999734 0.999962 -0.005199802
vn -0.006999734 0.999962 -0.005199802
vn -0.006999734 0.999962 -0.005199802
vn -0.006999734 0.999962 -0.005199802
vn -0.006999734 0.999962 -0.005199802
vn -0.006999734 0.999962 -0.005199802
vn -0.006999734 0.999962 -0.005199802
vn -0.006999734 0.999962 -0.005199802
vn -0.006999734 0.999962 -0.005199802
vn -0.006999734 0.999962 -0.005199802
vn 0.7424704 0.009374004 -0.6698133
vn 0.8138998 -0.013559 -0.580847
vn 0.7414773 -0.008015002 0.6709302
vn 0.6428063 0.03032601 0.7654284
vn -0.006999734 0.999962 -0.005199802
vn -0.006999734 0.999962 -0.005199802
vn -0.006999734 0.999962 -0.005199802
vn 0.4868979 -0.021837 0.8731858
vn 0.5105668 0.004257997 0.8598275
vn -0.208542 -0.04823602 0.9768232
vn -0.267544 0.07718801 0.960449
vn -0.19837 -0.06645399 0.9778718
vn -0.260877 0.139342 0.9552628
vn -0.1901501 -0.03370201 0.9811764
vn 0.9217985 0.1168499 -0.3696398
vn 0.9563077 0.08411998 -0.2799989
vn -0.006999734 0.999962 -0.005199802
vn -0.006999734 0.999962 -0.005199802
vn -0.006999734 0.999962 -0.005199802
vn -0.006999734 0.999962 -0.005199802
vn -0.429213 0.033198 0.902593
vn -0.5131291 0.037149 0.8575071
vn 0.5233729 0.131045 0.8419667
vn 0.6618503 0.1409891 0.7362583
vn 0.8000199 0.023142 0.599527
vn 0.6774327 0.008597995 0.7355346
vn 0.9667195 -0.05260397 -0.2503718
vn 0.9457918 0.001273 -0.3247709
vn 0.9769572 -0.04177101 -0.209308
vn 0.6908703 -0.08726104 0.7176933
vn 0.9709609 0.054251 -0.233006
vn 0.4238531 -0.017387 0.9055641
vn 0.487899 0.024009 0.8725699
vn 0.6433448 0.02991699 0.7649918
vn 0.3693429 0.002529999 0.9292897
vn 0.3139378 -0.1054849 0.9435655
vn 0.179116 -0.07202599 0.9811879
vn 0.048895 0.405143 0.9129449
vn 0.135495 0.878471 0.458181
vn -0.2582001 0.9176794 0.3019891
vn -0.246249 0.9292332 0.2754761
vn -0.04907501 0.9749962 0.2167351
vn 0.09092797 -0.08469297 0.9922496
vn -0.5041321 -0.03882901 0.8627532
vn -0.4669091 -0.02873701 0.8838382
vn -0.520653 -0.030509 0.853223
vn -0.525412 -0.035929 0.850089
vn -0.5131291 0.037149 0.8575071
vn -0.429213 0.033198 0.902593
vn 0.5233729 0.131045 0.8419667
vn 0.4851309 0.077876 0.8709669
vn 0.135495 0.878471 0.458181
vn -0.04907501 0.9749962 0.2167351
vn 0.9544755 0.09776504 -0.2818131
vn 0.9709609 0.054251 -0.233006
vn 0.9496168 -0.08046498 -0.3029079
vn 0.9769572 -0.04177101 -0.209308
vn 0.9326636 -0.05638798 -0.3563129
vn 0.9667195 -0.05260397 -0.2503718
vn 0.908773 0 -0.417291
vn 0.9457918 0.001273 -0.3247709
vn -0.006999734 0.999962 -0.005199802
vn -0.006999734 0.999962 -0.005199802
vn 0.6618503 0.1409891 0.7362583
vn 0.9563077 0.08411998 -0.2799989
vn 0.9563077 0.08411998 -0.2799989
vn 0.9739752 0.03113501 -0.2245061
vn 0.6402202 0.08303002 0.7636911
vn 0.6618503 0.1409891 0.7362583
vn 0.4851309 0.077876 0.8709669
vn 0.5233729 0.131045 0.8419667
vn 0.048895 0.405143 0.9129449
vn -0.2905891 0.8801863 0.3752731
vn -0.2582001 0.9176794 0.3019891
vn 0.9563077 0.08411998 -0.2799989
vn 0.9217985 0.1168499 -0.3696398
vn 0.9294642 0.02126001 -0.3682991
vn 0.9739752 0.03113501 -0.2245061
vn 0.4868979 -0.021837 0.8731858
vn -0.006999734 0.999962 -0.005199802
vn -0.006999734 0.999962 -0.005199802
vn 0.9553003 -0.2106161 0.2074661
vn 0.9303462 -0.170259 0.3247581
vn 0.8055153 -0.122526 -0.5797693
vn 0.9258223 -0.2456971 -0.287204
vn 0.8130969 -0.085898 -0.5757561
vn 0.7803521 -0.086264 0.619362
vn 0.9410563 -0.15742 0.2993861
vn 0.9502736 -0.1858749 0.2498609
vn 0.8138998 -0.013559 -0.580847
vn 0.7414773 -0.008015002 0.6709302
vn 0.7216666 -0.06984997 0.6887076
vn 0.663391 -0.072483 0.7447541
vn 0.6428063 0.03032601 0.7654284
vn 0.8055153 -0.122526 -0.5797693
vn 0.8130969 -0.085898 -0.5757561
vn 0.7052017 -0.06347398 -0.7061598
vn 0.9258223 -0.2456971 -0.287204
vn 0.7424704 0.009374004 -0.6698133
vn 0.8138998 -0.013559 -0.580847
vn 0.8138998 -0.013559 -0.580847
vn 0.7414773 -0.008015002 0.6709302
vn -0.006999734 0.999962 -0.005199802
vn -0.4281782 1E-05 0.9036943
vn -0.423571 -0.006827001 0.9058371
vn 0.4841691 0.023451 0.8746601
vn 0.4940938 -0.0003209999 0.8694086
vn 0.4445031 0.09345301 0.8908892
vn -0.4576079 0.059918 0.8871329
vn 0.6025791 0.022245 0.7977491
vn 0.6147528 -0.0004359999 0.7887198
vn 0.560024 0.153431 0.814145
vn -0.5310828 0.7000977 0.4772988
vn -0.4405659 0.833508 0.333416
vn -0.4810348 -0.009712995 0.8766477
vn -0.4766961 -2E-06 0.8790681
vn -0.515991 0.012351 0.856505
vn -0.6485031 0.640596 0.4111941
vn -0.6485031 0.640596 0.4111941
vn -0.5310828 0.7000977 0.4772988
vn -0.4576079 0.059918 0.8871329
vn -0.6149151 0.7580722 0.217269
vn -0.6260421 0.7458641 0.227504
vn -0.5585977 0.7822976 0.2756428
vn -0.5554578 0.8272548 0.08435696
vn -0.4405659 0.833508 0.333416
vn 0.9624647 0.06941398 -0.26238
vn 0.982692 0.005731 -0.185158
vn 0.6025791 0.022245 0.7977491
vn 0.560024 0.153431 0.814145
vn 0.6147528 -0.0004359999 0.7887198
vn 0.9902763 0.007330002 -0.138921
vn 0.9420153 0.01045 -0.3354071
vn 0.9230239 0.004453 -0.3847169
vn 0.8997736 0.05653798 -0.4326788
vn -0.4405659 0.833508 0.333416
vn -0.4405659 0.833508 0.333416
vn -0.5554578 0.8272548 0.08435696
vn 0.8997736 0.05653798 -0.4326788
vn 0.9624647 0.06941398 -0.26238
g m_dlc3_icecliff_90_0
f 3/3/3 2/2/2 1/1/1
f 4/4/4 3/3/3 1/1/1
f 6/6/6 5/5/5 2/2/2
f 7/7/7 5/5/5 6/6/6
f 8/8/8 5/5/5 7/7/7
f 8/8/8 9/9/9 5/5/5
f 8/8/8 10/10/10 9/9/9
f 10/10/10 11/11/11 9/9/9
f 14/14/14 13/13/13 12/12/12
f 13/13/13 14/14/14 15/15/15
f 13/13/13 16/16/16 12/12/12
f 19/19/19 18/18/18 17/17/17
f 22/22/22 21/21/21 20/20/20
f 20/20/20 21/21/21 23/23/23
f 24/24/24 22/22/22 20/20/20
f 25/25/25 24/24/24 20/20/20
f 28/28/28 27/27/27 26/26/26
f 31/31/31 30/30/30 29/29/29
f 31/31/31 32/32/32 30/30/30
f 32/32/32 33/33/33 30/30/30
f 34/34/34 33/33/33 32/32/32
f 34/34/34 35/35/35 33/33/33
f 36/36/36 33/33/33 35/35/35
f 37/37/37 33/33/33 36/36/36
f 33/33/33 37/37/37 38/38/38
f 33/33/33 38/38/38 39/39/39
f 33/33/33 39/39/39 40/40/40
f 39/39/39 41/41/41 40/40/40
f 40/40/40 41/41/41 42/42/42
f 40/40/40 42/42/42 43/43/43
f 42/42/42 44/44/44 43/43/43
f 42/42/42 41/41/41 45/45/45
f 41/41/41 46/46/46 45/45/45
f 33/33/33 40/40/40 47/47/47
f 33/33/33 47/47/47 30/30/30
f 47/47/47 48/48/48 30/30/30
f 48/48/48 49/49/49 30/30/30
f 40/40/40 51/51/51 50/50/50
f 54/54/54 53/53/53 52/52/52
f 53/53/53 55/55/55 52/52/52
f 52/52/52 55/55/55 56/56/56
f 59/59/59 58/58/58 57/57/57
f 60/60/60 59/59/59 57/57/57
f 63/63/63 62/62/62 61/61/61
f 64/64/64 63/63/63 61/61/61
f 62/62/62 63/63/63 65/65/65
f 65/65/65 66/66/66 62/62/62
f 69/69/69 68/68/68 67/67/67
f 70/70/70 69/69/69 67/67/67
f 69/69/69 71/71/71 68/68/68
f 71/71/71 72/72/72 68/68/68
f 71/71/71 73/73/73 72/72/72
f 73/73/73 74/74/74 72/72/72
f 68/68/68 75/75/75 67/67/67
f 75/75/75 76/76/76 67/67/67
f 77/77/77 75/75/75 68/68/68
f 72/72/72 77/77/77 68/68/68
f 72/72/72 74/74/74 77/77/77
f 77/77/77 74/74/74 78/78/78
f 78/78/78 74/74/74 79/79/79
f 79/79/79 74/74/74 80/80/80
f 74/74/74 81/81/81 80/80/80
f 74/74/74 73/73/73 81/81/81
f 81/81/81 82/82/82 80/80/80
f 82/82/82 81/81/81 83/83/83
f 81/81/81 84/84/84 83/83/83
f 85/85/85 78/78/78 79/79/79
f 85/85/85 79/79/79 86/86/86
f 79/79/79 87/87/87 86/86/86
f 79/79/79 80/80/80 87/87/87
f 86/86/86 87/87/87 88/88/88
f 89/89/89 86/86/86 88/88/88
f 88/88/88 87/87/87 90/90/90
f 87/87/87 91/91/91 90/90/90
f 92/92/92 91/91/91 87/87/87
f 93/93/93 92/92/92 87/87/87
f 96/96/96 95/95/95 94/94/94
f 97/97/97 96/96/96 94/94/94
f 96/96/96 97/97/97 98/98/98
f 97/97/97 99/99/99 98/98/98
f 98/98/98 99/99/99 100/100/100
f 99/99/99 101/101/101 100/100/100
f 100/100/100 101/101/101 102/102/102
f 101/101/101 103/103/103 102/102/102
f 106/106/106 105/105/105 104/104/104
f 105/105/105 106/106/106 107/107/107
f 110/110/110 109/109/109 108/108/108
f 111/111/111 110/110/110 108/108/108
f 110/110/110 111/111/111 112/112/112
f 111/111/111 113/113/113 112/112/112
f 116/116/116 115/115/115 114/114/114
f 119/119/119 118/118/118 117/117/117
f 120/120/120 119/119/119 117/117/117
f 123/123/123 122/122/122 121/121/121
f 126/126/126 125/125/125 124/124/124
f 127/127/127 126/126/126 124/124/124
f 126/126/126 128/128/128 125/125/125
f 128/128/128 129/129/129 125/125/125
f 125/125/125 130/130/130 124/124/124
f 130/130/130 131/131/131 124/124/124
f 129/129/129 128/128/128 132/132/132
f 133/133/133 129/129/129 132/132/132
f 125/125/125 129/129/129 134/134/134
f 125/125/125 134/134/134 130/130/130
f 129/129/129 135/135/135 134/134/134
f 129/129/129 133/133/133 135/135/135
f 133/133/133 136/136/136 135/135/135
f 139/139/139 138/138/138 137/137/137
f 140/140/140 139/139/139 137/137/137
f 139/139/139 141/141/141 138/138/138
f 141/141/141 142/142/142 138/138/138
f 145/145/145 144/144/144 143/143/143
f 148/148/148 147/147/147 146/146/146
f 149/149/149 148/148/148 146/146/146
f 148/148/148 150/150/150 147/147/147
f 150/150/150 151/151/151 147/147/147
f 148/148/148 149/149/149 152/152/152
f 149/149/149 153/153/153 152/152/152
f 148/148/148 152/152/152 154/154/154
f 150/150/150 148/148/148 154/154/154
f 150/150/150 154/154/154 155/155/155
f 151/151/151 150/150/150 155/155/155
f 154/154/154 156/156/156 155/155/155
f 146/146/146 147/147/147 157/157/157
f 157/157/157 147/147/147 151/151/151
f 158/158/158 146/146/146 157/157/157
f 159/159/159 157/157/157 151/151/151
f 159/159/159 151/151/151 160/160/160
f 163/163/163 162/162/162 161/161/161
f 162/162/162 164/164/164 161/161/161
f 162/162/162 165/165/165 164/164/164
f 165/165/165 162/162/162 166/166/166
f 166/166/166 162/162/162 167/167/167
f 167/167/167 162/162/162 168/168/168
f 171/171/171 170/170/170 169/169/169
f 172/172/172 171/171/171 169/169/169
f 171/171/171 173/173/173 170/170/170
f 173/173/173 174/174/174 170/170/170
f 174/174/174 175/175/175 170/170/170
f 175/175/175 176/176/176 170/170/170
f 170/170/170 176/176/176 169/169/169
f 176/176/176 177/177/177 169/169/169
f 178/178/178 172/172/172 169/169/169
f 181/181/181 180/180/180 179/179/179
f 182/182/182 181/181/181 179/179/179
