g m_dlc5_forestfog_03
v -2.72523 0.4765951 2.524395
v -0.6667544 0.502623 3.135625
v -0.336131 0.4562109 3.257731
v -0.001550771 0.2977781 3.207783
v 0.2866417 0.03389116 3.039175
v 0.5064638 -0.371851 2.725691
v 0.8208012 -1.016832 2.421664
v 1.214096 -1.606508 2.547676
v 1.564677 -1.882252 2.982008
v 1.879899 -1.961345 3.586825
v 3.407259 -1.916356 4.507782
v -2.448255 0.4821351 2.072538
v -0.3838342 0.5492178 2.543136
v -0.0404034 0.5118285 2.645401
v 0.3032537 0.3431071 2.610683
v 0.5975317 0.06781755 2.464295
v 0.8199146 -0.3565042 2.20781
v 1.12575 -0.9929098 1.953385
v 1.523421 -1.573473 2.054633
v 1.898172 -1.862432 2.406274
v 2.241274 -1.957111 2.919339
v 3.778893 -1.916356 3.840153
v -2.363247 0.4566114 1.68387
v -0.2853285 0.5245593 2.012506
v 0.07539819 0.4934676 2.082207
v 0.4221484 0.3334375 2.060959
v 0.7130333 0.05498806 1.937029
v 0.9042337 -0.37738 1.733065
v 1.153118 -1.020776 1.529923
v 1.519758 -1.578367 1.562324
v 1.908115 -1.848535 1.761302
v 2.29648 -1.949557 2.074087
v 3.909502 -1.916356 2.7363
v -2.351643 0.4216484 1.270532
v -0.2756169 0.4686043 1.463678
v 0.08586001 0.4260189 1.465593
v 0.4329784 0.2465061 1.407156
v 0.7089315 -0.04166707 1.315739
v 0.8743221 -0.4782592 1.192842
v 1.09238 -1.103057 1.058481
v 1.440587 -1.648854 1.051578
v 1.839897 -1.891229 1.141247
v 2.286688 -1.964714 1.272395
v 4.219676 -1.916356 1.532517
v -2.261194 0.3957476 0.6647328
v -0.191658 0.3870133 0.7524147
v 0.1745158 0.2932033 0.7363743
v 0.5307499 0.08398312 0.6888479
v 0.8186771 -0.2368702 0.6257944
v 0.9914702 -0.696763 0.5599567
v 1.221699 -1.300042 0.5105084
v 1.598257 -1.761154 0.5305951
v 2.082529 -1.931682 0.5585474
v 2.609426 -1.977007 0.5913486
v 4.726882 -1.916356 0.702612
v -2.204636 0.4270765 0.003746084
v -0.1363118 0.3564135 0.0337613
v 0.2306287 0.2612686 0.03535986
v 0.5884389 0.05846165 0.03188903
v 0.8874643 -0.2620436 0.02005856
v 1.094771 -0.7152891 0.00469027
v 1.378803 -1.303056 -0.008515273
v 1.826339 -1.755237 -0.0144539
v 2.365013 -1.925686 -0.02137303
v 3.901221 -1.970721 -0.007803682
v 5.039803 -1.916356 -0.02909398
v -2.289465 0.4987735 -0.6505821
v -0.2633484 0.4626271 -0.6836784
v 0.06930953 0.3989224 -0.6507457
v 0.4073111 0.2154113 -0.6128796
v 0.7044303 -0.09987113 -0.5726994
v 0.9363248 -0.5746036 -0.5371664
v 1.293492 -1.215355 -0.5159265
v 1.763171 -1.706612 -0.5423532
v 2.321093 -1.905337 -0.5868857
v 3.867354 -1.964591 -0.6674017
v 5.011573 -1.916356 -0.7442375
v -2.449512 0.5592298 -1.241862
v -0.4654398 0.5569576 -1.407496
v -0.1692221 0.5352554 -1.393435
v 0.1334273 0.4034907 -1.355454
v 0.4100812 0.1401126 -1.288063
v 0.6480715 -0.3115898 -1.201309
v 1.032909 -1.006993 -1.081471
v 1.470936 -1.592632 -1.049125
v 1.978 -1.869579 -1.108626
v 2.511555 -1.95784 -1.205861
v 4.63153 -1.916356 -1.462407
v -2.504502 0.5740751 -1.749409
v -0.5431416 0.5737067 -2.057801
v -0.2671736 0.5483814 -2.098507
v 0.01981209 0.4187345 -2.106515
v 0.2843579 0.1702408 -2.06178
v 0.5131359 -0.2641932 -1.937033
v 0.8805978 -0.941892 -1.730265
v 1.300534 -1.536152 -1.659975
v 1.763273 -1.837484 -1.741021
v 2.234084 -1.947839 -1.943082
v 4.124959 -1.916356 -2.47644
v -2.52916 0.5750411 -2.258635
v -0.5663205 0.5527857 -2.718154
v -0.2840269 0.4838693 -2.818886
v 0.009261969 0.3293251 -2.857564
v 0.2758662 0.06674938 -2.806403
v 0.4951 -0.3559291 -2.635976
v 0.8494947 -0.9917864 -2.364997
v 1.280132 -1.571665 -2.337108
v 1.747888 -1.864116 -2.527025
v 2.189982 -1.952841 -2.878656
v 3.908774 -1.916356 -3.69168
v -2.639399 0.5295252 -2.828869
v -0.6514524 0.4730119 -3.426494
v -0.344285 0.398436 -3.545678
v -0.03772249 0.2266839 -3.554692
v 0.2320265 -0.03583448 -3.464249
v 0.4409358 -0.4491207 -3.249099
v 0.782064 -1.071379 -2.954914
v 1.232133 -1.618846 -2.968966
v 1.694285 -1.873569 -3.266517
v 2.132129 -1.953249 -3.778868
v 3.845917 -1.916356 -4.615467
vt 0.0125196 0.9751661
vt 0.0125196 0.3957181
vt 0.01251957 0.3502389
vt 0.01251957 0.3147343
vt 0.01251957 0.2805521
vt 0.01251957 0.2425415
vt 0.0125196 0.200575
vt 0.01251954 0.1590185
vt 0.01251954 0.1187872
vt 0.01251954 0.07709573
vt 0.0125196 0.011802
vt 0.1100157 0.9751661
vt 0.120002 0.3621953
vt 0.121359 0.327032
vt 0.1296173 0.2972927
vt 0.139691 0.2700268
vt 0.1381457 0.2363849
vt 0.1310253 0.187619
vt 0.1189236 0.1377312
vt 0.1109728 0.1006171
vt 0.1055618 0.0735026
vt 0.1100156 0.011802
vt 0.2075118 0.9751661
vt 0.1993501 0.351564
vt 0.2092411 0.3203211
vt 0.2241672 0.2932053
vt 0.2359594 0.266314
vt 0.233472 0.2335716
vt 0.2236483 0.1860697
vt 0.2170948 0.1395825
vt 0.2199126 0.1072311
vt 0.2242362 0.08187613
vt 0.2075117 0.011802
vt 0.3050078 0.9751661
vt 0.2804399 0.3494196
vt 0.2927173 0.3214087
vt 0.3083246 0.295293
vt 0.3188917 0.2682833
vt 0.3174079 0.2359016
vt 0.3128291 0.1903365
vt 0.3135364 0.147189
vt 0.3236667 0.1168737
vt 0.3344203 0.0908917
vt 0.3050078 0.011802
vt 0.4025039 0.9751661
vt 0.3838044 0.3405438
vt 0.3925378 0.3142348
vt 0.401618 0.2879165
vt 0.4085928 0.260986
vt 0.4085876 0.2290357
vt 0.4061596 0.1826867
vt 0.4079148 0.1375197
vt 0.4169948 0.1051064
vt 0.4172581 0.07637481
vt 0.4025039 0.011802
vt 0.5 0.9751661
vt 0.4877663 0.3357844
vt 0.4896461 0.3100128
vt 0.4901525 0.2838088
vt 0.4916297 0.2564728
vt 0.4978001 0.2237534
vt 0.5030938 0.1742711
vt 0.504972 0.1255237
vt 0.5052639 0.09100828
vt 0.5042489 0.06342433
vt 0.5 0.011802
vt 0.5974961 0.9751661
vt 0.5913702 0.3448412
vt 0.5868609 0.3200381
vt 0.5816841 0.2951205
vt 0.5794174 0.2688168
vt 0.5886396 0.2363111
vt 0.59029 0.1852111
vt 0.5906034 0.1362916
vt 0.5893859 0.1010473
vt 0.593931 0.07169864
vt 0.5974961 0.011802
vt 0.6949922 0.9751661
vt 0.6951654 0.3611729
vt 0.6897193 0.3362263
vt 0.6857622 0.31152
vt 0.6871675 0.2848977
vt 0.6969819 0.2508381
vt 0.6947157 0.1970431
vt 0.6896242 0.1488182
vt 0.6788255 0.1149539
vt 0.6733985 0.08660699
vt 0.6949922 0.011802
vt 0.7924883 0.9751661
vt 0.7909015 0.3690993
vt 0.7896274 0.3433627
vt 0.7886081 0.3173728
vt 0.7899995 0.2896762
vt 0.7956209 0.2552493
vt 0.795117 0.2033454
vt 0.7928257 0.1571597
vt 0.7864347 0.1227035
vt 0.7794164 0.09484112
vt 0.7924882 0.011802
vt 0.8899844 0.9751661
vt 0.8865063 0.3757418
vt 0.8893175 0.344992
vt 0.890674 0.3153671
vt 0.8924707 0.2848774
vt 0.8937219 0.2480069
vt 0.8943672 0.1965077
vt 0.8965263 0.1492796
vt 0.8963338 0.1117862
vt 0.8925383 0.0820377
vt 0.8899843 0.011802
vt 0.9874804 0.9751661
vt 0.9874804 0.3957181
vt 0.9874804 0.3502388
vt 0.9874804 0.3147343
vt 0.9874804 0.2805521
vt 0.9874804 0.2425415
vt 0.9874804 0.200575
vt 0.9874804 0.1590184
vt 0.9874804 0.1187871
vt 0.9874804 0.07709567
vt 0.9874804 0.011802
vn -0.03124972 0.9989629 0.03311564
vn -0.01507655 0.9988244 0.04607083
vn 0.2258303 0.9550855 0.1918657
vn 0.540992 0.7706655 0.3367527
vn 0.787735 0.4163888 0.4539758
vn 0.8494408 0.1385373 0.5091736
vn 0.7868105 0.340062 0.5150604
vn 0.5509179 0.7410147 0.3839096
vn 0.2122012 0.9653067 0.1521633
vn -0.001185544 0.9999862 0.00513862
vn -0.02246211 0.9997057 -0.009161866
vn -0.02724067 0.9996216 -0.003797218
vn -0.004088535 0.9999886 0.002517391
vn 0.2842288 0.9483356 0.1409738
vn 0.6089674 0.7500973 0.2579007
vn 0.8471895 0.4022741 0.3470525
vn 0.897418 0.2533181 0.3612073
vn 0.8460641 0.4513901 0.2835888
vn 0.6462867 0.7348037 0.2058568
vn 0.3036682 0.9457248 0.1157151
vn 0.002537961 0.9999512 0.009544877
vn -0.02328368 0.9997199 -0.004241013
vn -0.01835957 0.9968531 -0.07711662
vn 0.005005862 0.9972542 -0.07388459
vn 0.2880867 0.9569574 -0.03519267
vn 0.5797254 0.8147979 0.004766509
vn 0.8311472 0.5553771 0.02739934
vn 0.9237651 0.3829028 -0.006601952
vn 0.8824627 0.4632373 -0.08167478
vn 0.7306606 0.6755249 -0.09900092
vn 0.4029593 0.9143268 -0.04037803
vn 0.01347672 0.9998957 -0.005202136
vn -0.02235984 0.9997413 -0.004169922
vn -0.008693061 0.9961611 -0.08710551
vn 0.01609601 0.9956637 -0.09162362
vn 0.3021473 0.9464729 -0.1135611
vn 0.5748906 0.8118356 -0.1020965
vn 0.8256531 0.5607212 -0.06235943
vn 0.9309632 0.363748 -0.03154365
vn 0.8955992 0.4427904 -0.04287926
vn 0.7116956 0.6997305 -0.06218272
vn 0.3524745 0.9348841 -0.04187395
vn 0.0159835 0.9997391 -0.01631299
vn -0.02277184 0.9996015 -0.01668373
vn 0.007415855 0.9991263 -0.0411296
vn 0.04187071 0.9981317 -0.04449804
vn 0.3606201 0.9302047 -0.0683553
vn 0.6211711 0.7829366 -0.03401163
vn 0.8589813 0.5098715 0.04671237
vn 0.9273133 0.3551454 0.1181597
vn 0.8529181 0.4997089 0.1510684
vn 0.5963437 0.7914394 0.1341564
vn 0.1910189 0.9792122 0.06822915
vn 0.003474009 0.9999833 0.004614122
vn -0.03009867 0.999096 -0.03001826
vn 0.02265021 0.9976566 0.06456313
vn 0.05990466 0.9964624 0.05894117
vn 0.3835379 0.9226266 0.04072812
vn 0.6381071 0.7697839 0.01587942
vn 0.8532948 0.5212718 -0.01278905
vn 0.9087472 0.4167141 0.02297569
vn 0.8145265 0.5723566 0.09462818
vn 0.5122109 0.8520854 0.1076593
vn 0.1013112 0.9936051 0.0498507
vn -0.01665696 0.9998161 -0.009509994
vn -0.03931498 0.9991042 -0.01565056
vn 0.02007499 0.9927867 0.1182005
vn 0.04313693 0.9918436 0.1199393
vn 0.328663 0.9403812 0.08754225
vn 0.6085854 0.7934803 -0.00357873
vn 0.8274311 0.5447507 -0.1363987
vn 0.8784658 0.4430615 -0.1788695
vn 0.8112628 0.5678538 -0.139265
vn 0.5527758 0.830173 -0.072469
vn 0.1205783 0.9924473 -0.02256824
vn -0.01000634 0.9996943 0.02260743
vn -0.03355655 0.9991713 0.02303659
vn 0.009542807 0.9974922 0.07013084
vn 0.02232864 0.9970176 0.07387473
vn 0.2668394 0.9630693 0.03597767
vn 0.5690419 0.821609 -0.03391059
vn 0.8111105 0.5719486 -0.1223699
vn 0.8810003 0.4393859 -0.1754376
vn 0.8389487 0.5144103 -0.1776153
vn 0.6589433 0.7373745 -0.1485684
vn 0.2692904 0.9600717 -0.07579643
vn 0.02201408 0.999715 -0.009230629
vn -0.0195672 0.9994928 0.02512596
vn 0.003188462 0.9999772 0.005961943
vn 0.01857347 0.9998275 -0.0002620927
vn 0.2795705 0.9586923 -0.05243566
vn 0.5697563 0.8174571 -0.08450735
vn 0.8120285 0.5753366 -0.09796713
vn 0.8878943 0.4471468 -0.1081825
vn 0.8536694 0.5081806 -0.1140223
vn 0.7020221 0.7053445 -0.0982552
vn 0.3715178 0.9269075 -0.05307258
vn 0.02445087 0.9997008 -0.0006851333
vn -0.01726844 0.999831 0.006318818
vn -0.001796712 0.9983793 -0.05688171
vn 0.02287841 0.9974015 -0.06831494
vn 0.3239325 0.9387299 -0.1177026
vn 0.592723 0.7950132 -0.1289706
vn 0.8258218 0.5519198 -0.115771
vn 0.8938666 0.4344512 -0.1107012
vn 0.8478397 0.5196912 -0.1053041
vn 0.6763667 0.7318926 -0.08283354
vn 0.3435951 0.9381656 -0.04228058
vn 0.01506823 0.9998815 -0.003162418
vn -0.01991436 0.9998016 0.0006056306
vn -0.006007827 0.9953039 -0.09661347
vn 0.02969735 0.9942122 -0.1032484
vn 0.3504224 0.9255083 -0.1436618
vn 0.5921038 0.7912481 -0.1527731
vn 0.8135888 0.5631693 -0.1446157
vn 0.8992349 0.4139815 -0.1414069
vn 0.8466766 0.5117974 -0.1456094
vn 0.6329508 0.7671303 -0.1043282
vn 0.2707422 0.9620175 -0.03494062
vn -0.003999099 0.9999919 -0.0004864481
vn -0.02081766 0.9997826 0.001153964
g m_dlc5_forestfog_03_0
f 13/13/13 12/12/12 1/1/1
f 2/2/2 13/13/13 1/1/1
f 14/14/14 13/13/13 2/2/2
f 3/3/3 14/14/14 2/2/2
f 15/15/15 14/14/14 3/3/3
f 4/4/4 15/15/15 3/3/3
f 16/16/16 15/15/15 4/4/4
f 5/5/5 16/16/16 4/4/4
f 17/17/17 16/16/16 5/5/5
f 6/6/6 17/17/17 5/5/5
f 18/18/18 17/17/17 6/6/6
f 7/7/7 18/18/18 6/6/6
f 19/19/19 18/18/18 7/7/7
f 8/8/8 19/19/19 7/7/7
f 20/20/20 19/19/19 8/8/8
f 9/9/9 20/20/20 8/8/8
f 21/21/21 20/20/20 9/9/9
f 10/10/10 21/21/21 9/9/9
f 22/22/22 21/21/21 10/10/10
f 11/11/11 22/22/22 10/10/10
f 16/16/16 27/27/27 15/15/15
f 28/28/28 27/27/27 16/16/16
f 17/17/17 28/28/28 16/16/16
f 29/29/29 28/28/28 17/17/17
f 18/18/18 29/29/29 17/17/17
f 30/30/30 29/29/29 18/18/18
f 19/19/19 30/30/30 18/18/18
f 31/31/31 30/30/30 19/19/19
f 20/20/20 31/31/31 19/19/19
f 32/32/32 31/31/31 20/20/20
f 21/21/21 32/32/32 20/20/20
f 33/33/33 32/32/32 21/21/21
f 22/22/22 33/33/33 21/21/21
f 28/28/28 39/39/39 27/27/27
f 39/39/39 38/38/38 27/27/27
f 27/27/27 38/38/38 26/26/26
f 27/27/27 26/26/26 15/15/15
f 15/15/15 26/26/26 14/14/14
f 26/26/26 25/25/25 14/14/14
f 14/14/14 25/25/25 13/13/13
f 25/25/25 24/24/24 13/13/13
f 13/13/13 24/24/24 12/12/12
f 24/24/24 23/23/23 12/12/12
f 24/24/24 35/35/35 23/23/23
f 35/35/35 34/34/34 23/23/23
f 36/36/36 35/35/35 24/24/24
f 25/25/25 36/36/36 24/24/24
f 37/37/37 36/36/36 25/25/25
f 26/26/26 37/37/37 25/25/25
f 38/38/38 37/37/37 26/26/26
f 33/33/33 44/44/44 32/32/32
f 35/35/35 46/46/46 34/34/34
f 46/46/46 45/45/45 34/34/34
f 47/47/47 46/46/46 35/35/35
f 36/36/36 47/47/47 35/35/35
f 48/48/48 47/47/47 36/36/36
f 37/37/37 48/48/48 36/36/36
f 49/49/49 48/48/48 37/37/37
f 38/38/38 49/49/49 37/37/37
f 50/50/50 49/49/49 38/38/38
f 39/39/39 50/50/50 38/38/38
f 51/51/51 50/50/50 39/39/39
f 40/40/40 51/51/51 39/39/39
f 40/40/40 39/39/39 28/28/28
f 29/29/29 40/40/40 28/28/28
f 41/41/41 40/40/40 29/29/29
f 30/30/30 41/41/41 29/29/29
f 42/42/42 41/41/41 30/30/30
f 31/31/31 42/42/42 30/30/30
f 43/43/43 42/42/42 31/31/31
f 32/32/32 43/43/43 31/31/31
f 44/44/44 43/43/43 32/32/32
f 52/52/52 51/51/51 40/40/40
f 41/41/41 52/52/52 40/40/40
f 53/53/53 52/52/52 41/41/41
f 42/42/42 53/53/53 41/41/41
f 54/54/54 53/53/53 42/42/42
f 43/43/43 54/54/54 42/42/42
f 55/55/55 54/54/54 43/43/43
f 44/44/44 55/55/55 43/43/43
f 52/52/52 63/63/63 51/51/51
f 63/63/63 62/62/62 51/51/51
f 64/64/64 63/63/63 52/52/52
f 53/53/53 64/64/64 52/52/52
f 65/65/65 64/64/64 53/53/53
f 54/54/54 65/65/65 53/53/53
f 66/66/66 65/65/65 54/54/54
f 55/55/55 66/66/66 54/54/54
f 63/63/63 74/74/74 62/62/62
f 74/74/74 73/73/73 62/62/62
f 62/62/62 73/73/73 61/61/61
f 62/62/62 61/61/61 50/50/50
f 50/50/50 61/61/61 49/49/49
f 61/61/61 60/60/60 49/49/49
f 49/49/49 60/60/60 48/48/48
f 60/60/60 59/59/59 48/48/48
f 48/48/48 59/59/59 47/47/47
f 59/59/59 58/58/58 47/47/47
f 47/47/47 58/58/58 46/46/46
f 58/58/58 57/57/57 46/46/46
f 46/46/46 57/57/57 45/45/45
f 57/57/57 56/56/56 45/45/45
f 57/57/57 68/68/68 56/56/56
f 68/68/68 67/67/67 56/56/56
f 69/69/69 68/68/68 57/57/57
f 58/58/58 69/69/69 57/57/57
f 70/70/70 69/69/69 58/58/58
f 59/59/59 70/70/70 58/58/58
f 71/71/71 70/70/70 59/59/59
f 60/60/60 71/71/71 59/59/59
f 72/72/72 71/71/71 60/60/60
f 61/61/61 72/72/72 60/60/60
f 73/73/73 72/72/72 61/61/61
f 68/68/68 79/79/79 67/67/67
f 79/79/79 78/78/78 67/67/67
f 80/80/80 79/79/79 68/68/68
f 69/69/69 80/80/80 68/68/68
f 81/81/81 80/80/80 69/69/69
f 70/70/70 81/81/81 69/69/69
f 82/82/82 81/81/81 70/70/70
f 71/71/71 82/82/82 70/70/70
f 83/83/83 82/82/82 71/71/71
f 72/72/72 83/83/83 71/71/71
f 84/84/84 83/83/83 72/72/72
f 73/73/73 84/84/84 72/72/72
f 85/85/85 84/84/84 73/73/73
f 74/74/74 85/85/85 73/73/73
f 86/86/86 85/85/85 74/74/74
f 75/75/75 86/86/86 74/74/74
f 75/75/75 74/74/74 63/63/63
f 64/64/64 75/75/75 63/63/63
f 76/76/76 75/75/75 64/64/64
f 65/65/65 76/76/76 64/64/64
f 77/77/77 76/76/76 65/65/65
f 66/66/66 77/77/77 65/65/65
f 87/87/87 86/86/86 75/75/75
f 76/76/76 87/87/87 75/75/75
f 88/88/88 87/87/87 76/76/76
f 77/77/77 88/88/88 76/76/76
f 82/82/82 93/93/93 81/81/81
f 94/94/94 93/93/93 82/82/82
f 83/83/83 94/94/94 82/82/82
f 95/95/95 94/94/94 83/83/83
f 84/84/84 95/95/95 83/83/83
f 96/96/96 95/95/95 84/84/84
f 85/85/85 96/96/96 84/84/84
f 97/97/97 96/96/96 85/85/85
f 86/86/86 97/97/97 85/85/85
f 98/98/98 97/97/97 86/86/86
f 87/87/87 98/98/98 86/86/86
f 99/99/99 98/98/98 87/87/87
f 88/88/88 99/99/99 87/87/87
f 94/94/94 105/105/105 93/93/93
f 105/105/105 104/104/104 93/93/93
f 93/93/93 104/104/104 92/92/92
f 93/93/93 92/92/92 81/81/81
f 81/81/81 92/92/92 80/80/80
f 92/92/92 91/91/91 80/80/80
f 80/80/80 91/91/91 79/79/79
f 91/91/91 90/90/90 79/79/79
f 79/79/79 90/90/90 78/78/78
f 90/90/90 89/89/89 78/78/78
f 90/90/90 101/101/101 89/89/89
f 101/101/101 100/100/100 89/89/89
f 102/102/102 101/101/101 90/90/90
f 91/91/91 102/102/102 90/90/90
f 103/103/103 102/102/102 91/91/91
f 92/92/92 103/103/103 91/91/91
f 104/104/104 103/103/103 92/92/92
f 99/99/99 110/110/110 98/98/98
f 101/101/101 112/112/112 100/100/100
f 112/112/112 111/111/111 100/100/100
f 113/113/113 112/112/112 101/101/101
f 102/102/102 113/113/113 101/101/101
f 114/114/114 113/113/113 102/102/102
f 103/103/103 114/114/114 102/102/102
f 115/115/115 114/114/114 103/103/103
f 104/104/104 115/115/115 103/103/103
f 116/116/116 115/115/115 104/104/104
f 105/105/105 116/116/116 104/104/104
f 117/117/117 116/116/116 105/105/105
f 106/106/106 117/117/117 105/105/105
f 106/106/106 105/105/105 94/94/94
f 95/95/95 106/106/106 94/94/94
f 107/107/107 106/106/106 95/95/95
f 96/96/96 107/107/107 95/95/95
f 108/108/108 107/107/107 96/96/96
f 97/97/97 108/108/108 96/96/96
f 109/109/109 108/108/108 97/97/97
f 98/98/98 109/109/109 97/97/97
f 110/110/110 109/109/109 98/98/98
f 118/118/118 117/117/117 106/106/106
f 107/107/107 118/118/118 106/106/106
f 119/119/119 118/118/118 107/107/107
f 108/108/108 119/119/119 107/107/107
f 120/120/120 119/119/119 108/108/108
f 109/109/109 120/120/120 108/108/108
f 121/121/121 120/120/120 109/109/109
f 110/110/110 121/121/121 109/109/109
f 51/51/51 62/62/62 50/50/50
