g m_dlc5_tent_lightshaft_02
v 2.547346 8.698739E-17 0.5912048
v 0.006794434 0 0.3970028
v 0.02239868 0.4178643 0.4172461
v 2.54728 0.511718 0.6208243
v 2.547425 1.313415 0.5562366
v 0.02239868 1.072523 0.3737909
v 0.02239807 1.456188 0.3783023
v 2.54741 1.783253 0.5629419
v 0.02239868 1.8012 0.3681726
v 2.547444 2.205756 0.5478862
v 0.02730347 2.401426 0.3483376
v 2.547515 2.97976 0.5166872
v 0.0287085 2.573357 0.3426559
v 2.54753 3.151341 0.5097711
v 2.548674 8.737899E-17 0.001342735
v 0 0 0
v 2.547621 2.982695 0.4693293
v 0.02908813 2.404917 0.3093834
v 0.0299176 2.037609 0.2368277
v 2.547884 2.495263 0.3524421
v 2.54753 3.151341 0.5097711
v 0.0287085 2.573357 0.3426559
v 2.548144 2.228925 0.2369589
v 0.01102966 1.82012 0.1587479
v 0.004882202 1.616572 0.06934723
v 2.548442 1.979659 0.1042671
v 0.008353272 1.414359 -0.049086
v 2.548838 1.732029 -0.0718647
v 0.006950683 1.196265 -0.2261032
v 2.549431 1.46495 -0.3349236
v -0.01334106 1.071708 -0.4245743
v 2.550093 1.312417 -0.6293024
v -0.007415771 0.9661689 -0.4311118
v 2.550116 1.183174 -0.639197
v -0.001514893 0.5849867 -0.3871493
v 2.549969 0.7163768 -0.5740328
v -0.001210938 0.2633552 -0.4381155
v 2.550139 0.3225057 -0.6497931
v -0.006794434 0 -0.3970027
v 2.550001 8.777062E-17 -0.5885193
v 2.548674 8.737899E-17 0.001342735
v 0 0 0
v 0.02239868 0.4178643 0.4172461
v 0.006794434 0 0.3970028
v 0 0 0
v -0.006794434 0 -0.3970027
v -0.001210938 0.2633552 -0.4381155
v -0.001514893 0.5849867 -0.3871493
v 0.02239868 1.072523 0.3737909
v -0.007415771 0.9661689 -0.4311118
v -0.01334106 1.071708 -0.4245743
v 0.006950683 1.196265 -0.2261032
v 0.02239807 1.456188 0.3783023
v 0.008353272 1.414359 -0.049086
v 0.004882202 1.616572 0.06934723
v 0.02239868 1.8012 0.3681726
v 0.01102966 1.82012 0.1587479
v 0.0299176 2.037609 0.2368277
v 0.02730347 2.401426 0.3483376
v 0.02908813 2.404917 0.3093834
v 0.0287085 2.573357 0.3426559
vt 0.9897461 0.1520996
vt 0.0120163 0.1520996
vt 0.0120163 0.2895508
vt 0.9897461 0.2895508
vt 0.9897461 0.5068359
vt 0.0120163 0.5068359
vt 0.0120163 0.6333008
vt 0.9897461 0.6333008
vt 0.0120163 0.7470703
vt 0.9897461 0.7470703
vt 0.0120163 0.9511719
vt 0.9897461 0.9511719
vt 0.0120163 0.9931641
vt 0.9897461 0.9931641
vt 0.9897461 0.01029968
vt 0.0120163 0.01029968
vt 0.9897461 0.9550781
vt 0.0120163 0.9550781
vt 0.0120163 0.8369141
vt 0.9897461 0.8369141
vt 0.9897461 0.9931641
vt 0.0120163 0.9931641
vt 0.9897461 0.7666016
vt 0.0120163 0.7666016
vt 0.0120163 0.6982422
vt 0.9897461 0.6982422
vt 0.0120163 0.6254883
vt 0.9897461 0.6254883
vt 0.0120163 0.5371094
vt 0.9897461 0.5371094
vt 0.0120163 0.4606934
vt 0.9897461 0.4606934
vt 0.0120163 0.4289551
vt 0.9897461 0.4289551
vt 0.0120163 0.314209
vt 0.9897461 0.314209
vt 0.0120163 0.2166748
vt 0.9897461 0.2166748
vt 0.0120163 0.137085
vt 0.9897461 0.137085
vt 0.9897461 0.01029968
vt 0.0120163 0.01029968
vt 0.1356201 0.1955566
vt 0.1466064 0.1202393
vt 0.3620605 0.1202393
vt 0.5776367 0.1202393
vt 0.6000977 0.1677246
vt 0.5722656 0.225708
vt 0.1593018 0.3137207
vt 0.5961914 0.2944336
vt 0.5927734 0.3134766
vt 0.4848633 0.3361816
vt 0.1568604 0.3830566
vt 0.388916 0.3754883
vt 0.3244629 0.4118652
vt 0.1623535 0.4453125
vt 0.2758789 0.4487305
vt 0.2336426 0.487793
vt 0.1730957 0.5537109
vt 0.1942139 0.5541992
vt 0.1761475 0.5844727
vn -0.05298818 -0.728304 0.6832025
vn -0.04928368 -0.770577 0.6354385
vn -0.07954029 0.02264587 0.9965744
vn -0.07963673 0.02609963 0.9964821
vn -0.07703822 0.03934864 0.9962514
vn -0.07757483 0.0441178 0.9960099
vn -0.07347564 0.006745088 0.9972742
vn -0.07393107 0.01046166 0.9972084
vn -0.07626059 0.03541572 0.9964587
vn -0.07620187 0.03584041 0.996448
vn -0.07581443 0.03721208 0.9964274
vn -0.07570288 0.03717287 0.9964373
vn -0.07479869 0.03685501 0.9965173
vn -0.07479869 0.03685501 0.9965173
vn 0 -1 0
vn 0 -1 0
vn 0.01082936 0.2154322 -0.9764588
vn 0.01017 0.2157641 -0.9763925
vn -0.00744879 0.2859528 -0.9582147
vn -0.002957494 0.2670124 -0.9636886
vn 0.01440667 0.2136294 -0.9768085
vn 0.01440667 0.2136294 -0.9768085
vn -0.03658021 0.4028368 -0.9145405
vn -0.03880844 0.4109508 -0.9108312
vn -0.0606377 0.5006692 -0.8635123
vn -0.05858576 0.4917096 -0.868786
vn -0.0859056 0.618915 -0.7807461
vn -0.08449016 0.6120096 -0.7863241
vn -0.1074717 0.7766736 -0.6206674
vn -0.1067715 0.7697392 -0.6293659
vn -0.1190344 0.691304 -0.7126918
vn -0.1191749 0.7069755 -0.6971248
vn -0.0717949 -0.08782605 -0.9935453
vn -0.07237034 -0.08198738 -0.9940023
vn -0.07589916 0.01480811 -0.9970055
vn -0.0754513 0.006173201 -0.9971305
vn -0.08084924 0.01530817 -0.9966089
vn -0.08097429 0.02137939 -0.9964869
vn -0.03498122 -0.8899093 -0.4547942
vn -0.03795299 -0.8689569 -0.4934303
vn 0 -1 0
vn 0 -1 0
vn -0.9995576 0.006779113 0.02896089
vn -0.9995576 0.006779113 0.02896089
vn -0.9995576 0.006779113 0.02896089
vn -0.9995576 0.006779113 0.02896089
vn -0.9995576 0.006779113 0.02896089
vn -0.9995576 0.006779113 0.02896089
vn -0.9995576 0.006779112 0.02896089
vn -0.9995576 0.006779114 0.02896089
vn -0.9995576 0.006779113 0.02896089
vn -0.9995576 0.006779114 0.02896089
vn -0.9995576 0.006779113 0.02896089
vn -0.9995576 0.006779113 0.0289609
vn -0.9995576 0.006779113 0.02896089
vn -0.9995576 0.006779114 0.02896089
vn -0.9995576 0.006779113 0.02896089
vn -0.9995576 0.006779113 0.02896089
vn -0.9995576 0.006779113 0.02896089
vn -0.9995576 0.006779113 0.02896089
vn -0.9995576 0.006779113 0.02896089
g m_dlc5_tent_lightshaft_02_0
f 3/3/3 2/2/2 1/1/1
f 4/4/4 3/3/3 1/1/1
f 4/4/4 5/5/5 3/3/3
f 5/5/5 6/6/6 3/3/3
f 7/7/7 6/6/6 5/5/5
f 8/8/8 7/7/7 5/5/5
f 9/9/9 7/7/7 8/8/8
f 10/10/10 9/9/9 8/8/8
f 11/11/11 9/9/9 10/10/10
f 12/12/12 11/11/11 10/10/10
f 13/13/13 11/11/11 12/12/12
f 14/14/14 13/13/13 12/12/12
f 15/15/15 1/1/1 2/2/2
f 16/16/16 15/15/15 2/2/2
f 19/19/19 18/18/18 17/17/17
f 20/20/20 19/19/19 17/17/17
f 17/17/17 18/18/18 21/21/21
f 18/18/18 22/22/22 21/21/21
f 20/20/20 23/23/23 19/19/19
f 23/23/23 24/24/24 19/19/19
f 25/25/25 24/24/24 23/23/23
f 26/26/26 25/25/25 23/23/23
f 27/27/27 25/25/25 26/26/26
f 28/28/28 27/27/27 26/26/26
f 29/29/29 27/27/27 28/28/28
f 30/30/30 29/29/29 28/28/28
f 31/31/31 29/29/29 30/30/30
f 32/32/32 31/31/31 30/30/30
f 33/33/33 31/31/31 32/32/32
f 34/34/34 33/33/33 32/32/32
f 35/35/35 33/33/33 34/34/34
f 36/36/36 35/35/35 34/34/34
f 37/37/37 35/35/35 36/36/36
f 38/38/38 37/37/37 36/36/36
f 37/37/37 38/38/38 39/39/39
f 38/38/38 40/40/40 39/39/39
f 39/39/39 40/40/40 41/41/41
f 42/42/42 39/39/39 41/41/41
f 45/45/45 44/44/44 43/43/43
f 43/43/43 46/46/46 45/45/45
f 43/43/43 47/47/47 46/46/46
f 43/43/43 48/48/48 47/47/47
f 43/43/43 49/49/49 48/48/48
f 49/49/49 50/50/50 48/48/48
f 49/49/49 51/51/51 50/50/50
f 49/49/49 52/52/52 51/51/51
f 49/49/49 53/53/53 52/52/52
f 53/53/53 54/54/54 52/52/52
f 53/53/53 55/55/55 54/54/54
f 53/53/53 56/56/56 55/55/55
f 56/56/56 57/57/57 55/55/55
f 56/56/56 58/58/58 57/57/57
f 56/56/56 59/59/59 58/58/58
f 59/59/59 60/60/60 58/58/58
f 59/59/59 61/61/61 60/60/60
