g m_dlc3_iceberg_03
v -0.004459808 0.003864442 0.007556967
v -0.00987976 0.003864442 0.003094325
v -0.008286488 0.005 0.00266499
v -0.003749623 0.005 0.006400528
v -0.00027951 0.003864442 0.009386949
v -0.0004744124 0.005 0.007834299
v 0.008181725 0.003864442 0.0027878
v 0.006959008 0.005 0.002036772
v 0.009607025 0.003864442 -0.004496703
v 0.008141581 0.005 -0.004007204
v 0.005290193 0.003864442 -0.008381865
v 0.004729431 0.005 -0.007078142
v -0.00293128 0.003864442 -0.009037606
v -0.002469506 0.005 -0.007652333
v -0.006566152 0.003864442 -0.005829503
v 0 0.005 0
v -0.005423563 0.005 -0.005045111
v -0.005423563 0.005 -0.005045111
v -0.008286488 0.005 0.00266499
v -0.00987976 0.003864442 0.003094325
v -0.006566152 0.003864442 -0.005829503
v -0.002469506 0.005 -0.007652333
v -0.006041963 -0.0005677795 -0.005340009
v -0.009085425 -0.0005677795 0.002856307
v -0.002703423 -0.0005677795 -0.008286574
v -0.00293128 0.003864442 -0.009037606
v -0.00027951 0.003864442 0.009386949
v 0.008181725 0.003864442 0.0027878
v 0.007503588 -0.0005677795 0.002574763
v -0.0002678394 -0.0005677795 0.008635912
v 0.009607025 0.003864442 -0.004496703
v 0.008812691 -0.0005677795 -0.00411587
v 0.004847791 -0.0005677795 -0.007684285
v 0.005290193 0.003864442 -0.008381865
v -0.00293128 0.003864442 -0.009037606
v -0.002703423 -0.0005677795 -0.008286574
v 0.009607025 0.003864442 -0.004496703
v 0.008812691 -0.0005677795 -0.00411587
v -0.00987976 0.003864442 0.003094325
v -0.004459808 0.003864442 0.007556967
v -0.004107337 -0.0005677795 0.006955128
v -0.009085425 -0.0005677795 0.002856307
v -0.00027951 0.003864442 0.009386949
v -0.0002678394 -0.0005677795 0.008635912
v -0.00830732 -0.005000001 0.003171391
v -0.009113516 -0.005000001 -0.0002236056
v -0.01076842 -0.003680407 9.209871E-05
v -0.009414157 -0.003678798 0.004003625
v -0.0002308702 -0.005000001 0.00987124
v -0.0002808023 -0.003684993 0.01148727
v 0.008031709 -0.005082309 0.003608902
v 0.009251617 -0.003766668 0.004418616
v -0.008060364 -0.003679249 -0.00638736
v -0.006872086 -0.005000001 -0.005610228
v -0.002863176 -0.003675241 -0.008813126
v -0.002386937 -0.005000001 -0.007404642
v 0.007756437 -0.005000001 -0.003366711
v 0.009243956 -0.003671974 -0.003828976
v 0.00555307 -0.005000001 -0.006381004
v 0 -0.005000001 0
v -0.002386937 -0.005000001 -0.007404642
v 0.00555307 -0.005000001 -0.006381004
v 0.006087412 -0.003670467 -0.007722561
v -0.002863176 -0.003675241 -0.008813126
v 0.009243956 -0.003671974 -0.003828976
v 0.004847791 -0.0005677795 -0.007684285
v 0.008812691 -0.0005677795 -0.00411587
v -0.002703423 -0.0005677795 -0.008286574
v 0.007503588 -0.0005677795 0.002574763
v 0.009251617 -0.003766668 0.004418616
v -0.0002808023 -0.003684993 0.01148727
v -0.0002678394 -0.0005677795 0.008635912
v 0.008812691 -0.0005677795 -0.00411587
v 0.009243956 -0.003671974 -0.003828976
v -0.006041963 -0.0005677795 -0.005340009
v -0.008060364 -0.003679249 -0.00638736
v -0.002863176 -0.003675241 -0.008813126
v -0.002703423 -0.0005677795 -0.008286574
v -0.009085425 -0.0005677795 0.002856307
v -0.01076842 -0.003680407 9.209871E-05
v -0.004107337 -0.0005677795 0.006955128
v -0.009414157 -0.003678798 0.004003625
v -0.01076842 -0.003680407 9.209871E-05
v -0.004107337 -0.0005677795 0.006955128
v -0.01076842 -0.003680407 9.209871E-05
v -0.009085425 -0.0005677795 0.002856307
v -0.009414157 -0.003678798 0.004003625
v -0.0002678394 -0.0005677795 0.008635912
v -0.0002808023 -0.003684993 0.01148727
vt 0.078125 0.6186523
vt 0.142334 0.690918
vt 0.1517334 0.6674805
vt 0.1034546 0.6083984
vt 0.07348633 0.5566406
vt 0.09674072 0.5634766
vt 0.1749268 0.4416504
vt 0.1849365 0.467041
vt 0.2766113 0.4499512
vt 0.2658691 0.4709473
vt 0.328125 0.5083008
vt 0.3039551 0.5175781
vt 0.3232422 0.6274414
vt 0.3007813 0.6171875
vt 0.2753906 0.6777344
vt 0.2010498 0.5683594
vt 0.2634277 0.6538086
vt 0.2634277 0.6538086
vt 0.1517334 0.6674805
vt 0.142334 0.690918
vt 0.2753906 0.6777344
vt 0.3007813 0.6171875
vt 0.2983398 0.7255859
vt 0.1210327 0.7485352
vt 0.3730469 0.6523438
vt 0.3232422 0.6274414
vt 0.07348633 0.5566406
vt 0.1749268 0.4416504
vt 0.151123 0.3942871
vt 0.015625 0.5356445
vt 0.2766113 0.4499512
vt 0.3037109 0.3942871
vt 0.3840332 0.4921875
vt 0.328125 0.5083008
vt 0.3232422 0.6274414
vt 0.3730469 0.6523438
vt 0.2766113 0.4499512
vt 0.3037109 0.3942871
vt 0.142334 0.690918
vt 0.078125 0.6186523
vt 0.02938843 0.637207
vt 0.1210327 0.7485352
vt 0.07348633 0.5566406
vt 0.015625 0.5356445
vt 0.2988281 0.114563
vt 0.3178711 0.1551514
vt 0.3400879 0.1397705
vt 0.3146973 0.09094238
vt 0.1693115 0.07739258
vt 0.1595459 0.05078125
vt 0.08770752 0.1854248
vt 0.06268311 0.1746826
vt 0.3430176 0.2421875
vt 0.3178711 0.237915
vt 0.2954102 0.3103027
vt 0.2751465 0.2883301
vt 0.1119995 0.2756348
vt 0.08477783 0.2888184
vt 0.1547852 0.3083496
vt 0.2071533 0.2036133
vt 0.2751465 0.2883301
vt 0.1547852 0.3083496
vt 0.1506348 0.3354492
vt 0.2954102 0.3103027
vt 0.08477783 0.2888184
vt 0.1625977 0.3796387
vt 0.05267334 0.3166504
vt 0.3164063 0.34375
vt 0.015625 0.1697998
vt 0.06268311 0.1746826
vt 0.1595459 0.05078125
vt 0.1346436 0.015625
vt 0.05267334 0.3166504
vt 0.08477783 0.2888184
vt 0.3935547 0.2634277
vt 0.3430176 0.2421875
vt 0.2954102 0.3103027
vt 0.3164063 0.34375
vt 0.3615723 0.07269287
vt 0.3400879 0.1397705
vt 0.2322998 0.015625
vt 0.3146973 0.09094238
vt 0.3400879 0.1397705
vt 0.2322998 0.015625
vt 0.3400879 0.1397705
vt 0.3615723 0.07269287
vt 0.3146973 0.09094238
vt 0.1346436 0.015625
vt 0.1595459 0.05078125
vn -0.5458533 0.09464662 0.8325181
vn -0.9856337 0.06472212 0.1560041
vn -0.2439847 0.9690675 0.03714244
vn -0.08749726 0.987257 0.1329209
vn 0.3485481 0.08239352 0.9336624
vn 0.08228997 0.9741478 0.210391
vn 0.8145512 0.09444893 0.572351
vn 0.162148 0.9798505 0.1166232
vn 0.9652348 0.05372496 -0.2558036
vn 0.1689786 0.984696 -0.04266105
vn 0.3430281 0.07046278 -0.9366786
vn 0.05697564 0.9852884 -0.1611222
vn -0.2078681 0.07260842 -0.9754583
vn -0.03587077 0.984413 -0.1721756
vn -0.8629073 0.09292058 -0.4967462
vn 0 1 0
vn -0.152968 0.9843956 -0.08698317
vn -0.152968 0.9843956 -0.08698317
vn -0.2439847 0.9690675 0.03714244
vn -0.9856337 0.06472212 0.1560041
vn -0.8629073 0.09292058 -0.4967462
vn -0.03587077 0.984413 -0.1721756
vn -0.8334714 0.1679755 -0.526412
vn -0.9786742 0.09587207 0.181674
vn -0.1834785 -0.000135558 -0.9830237
vn -0.2078681 0.07260842 -0.9754583
vn 0.3485481 0.08239352 0.9336624
vn 0.8145512 0.09444893 0.572351
vn 0.8141214 0.1929459 0.5477026
vn 0.2524132 0.2989294 0.9202874
vn 0.9652348 0.05372496 -0.2558036
vn 0.9661696 0.01432861 -0.2575093
vn 0.3198297 -0.04952155 -0.94618
vn 0.3430281 0.07046278 -0.9366786
vn -0.2078681 0.07260842 -0.9754583
vn -0.1834785 -0.000135558 -0.9830237
vn 0.9652348 0.05372496 -0.2558036
vn 0.9661696 0.01432861 -0.2575093
vn -0.9856337 0.06472212 0.1560041
vn -0.5458533 0.09464662 0.8325181
vn -0.5687549 0.1429254 0.809994
vn -0.9786742 0.09587207 0.181674
vn 0.3485481 0.08239352 0.9336624
vn 0.2524132 0.2989294 0.9202874
vn -0.1410431 -0.9820802 0.125001
vn -0.1520042 -0.9879894 -0.0277779
vn -0.9373403 0.3123019 -0.1544693
vn -0.7308981 -0.1417811 0.6675972
vn -0.009776121 -0.9636998 0.2668092
vn 0.08891384 0.1511818 0.984499
vn 0.1751754 -0.9793927 0.1005166
vn 0.796282 0.1711477 0.5802098
vn -0.79985 0.2068834 -0.5634175
vn -0.1411594 -0.9804402 -0.1371535
vn -0.1356544 -0.1316594 -0.9819693
vn -0.01198263 -0.9778531 -0.2089488
vn 0.1496901 -0.9877802 -0.04339484
vn 0.9744278 -0.03593369 -0.2218091
vn 0.08423867 -0.977143 -0.1951798
vn -0.003197479 -0.9999931 -0.001929241
vn -0.01198263 -0.9778531 -0.2089488
vn 0.08423867 -0.977143 -0.1951798
vn 0.4005991 -0.1919462 -0.8959224
vn -0.1356544 -0.1316594 -0.9819693
vn 0.9744278 -0.03593369 -0.2218091
vn 0.3198297 -0.04952155 -0.94618
vn 0.9661696 0.01432861 -0.2575093
vn -0.1834785 -0.000135558 -0.9830237
vn 0.8141214 0.1929459 0.5477026
vn 0.796282 0.1711477 0.5802098
vn 0.08891384 0.1511818 0.984499
vn 0.2524132 0.2989294 0.9202874
vn 0.9661696 0.01432861 -0.2575093
vn 0.9744278 -0.03593369 -0.2218091
vn -0.8334714 0.1679755 -0.526412
vn -0.79985 0.2068834 -0.5634175
vn -0.1356544 -0.1316594 -0.9819693
vn -0.1834785 -0.000135558 -0.9830237
vn -0.9786742 0.09587207 0.181674
vn -0.9373403 0.3123019 -0.1544693
vn -0.5687549 0.1429254 0.809994
vn -0.7308981 -0.1417811 0.6675972
vn -0.9373403 0.3123019 -0.1544693
vn -0.5687549 0.1429254 0.809994
vn -0.9373403 0.3123019 -0.1544693
vn -0.9786742 0.09587207 0.181674
vn -0.7308981 -0.1417811 0.6675972
vn 0.2524132 0.2989294 0.9202874
vn 0.08891384 0.1511818 0.984499
g m_dlc3_iceberg_03_0
f 3/3/3 2/2/2 1/1/1
f 4/4/4 3/3/3 1/1/1
f 1/1/1 5/5/5 4/4/4
f 5/5/5 6/6/6 4/4/4
f 5/5/5 7/7/7 6/6/6
f 7/7/7 8/8/8 6/6/6
f 7/7/7 9/9/9 8/8/8
f 9/9/9 10/10/10 8/8/8
f 9/9/9 11/11/11 10/10/10
f 11/11/11 12/12/12 10/10/10
f 12/12/12 11/11/11 13/13/13
f 14/14/14 12/12/12 13/13/13
f 10/10/10 12/12/12 14/14/14
f 14/14/14 13/13/13 15/15/15
f 16/16/16 10/10/10 14/14/14
f 8/8/8 10/10/10 16/16/16
f 6/6/6 8/8/8 16/16/16
f 16/16/16 14/14/14 3/3/3
f 16/16/16 3/3/3 4/4/4
f 6/6/6 16/16/16 4/4/4
f 14/14/14 17/17/17 3/3/3
f 20/20/20 19/19/19 18/18/18
f 21/21/21 20/20/20 18/18/18
f 18/18/18 22/22/22 21/21/21
f 20/20/20 21/21/21 23/23/23
f 24/24/24 20/20/20 23/23/23
f 25/25/25 23/23/23 21/21/21
f 26/26/26 25/25/25 21/21/21
f 29/29/29 28/28/28 27/27/27
f 30/30/30 29/29/29 27/27/27
f 31/31/31 28/28/28 29/29/29
f 32/32/32 31/31/31 29/29/29
f 35/35/35 34/34/34 33/33/33
f 36/36/36 35/35/35 33/33/33
f 33/33/33 34/34/34 37/37/37
f 38/38/38 33/33/33 37/37/37
f 41/41/41 40/40/40 39/39/39
f 42/42/42 41/41/41 39/39/39
f 43/43/43 40/40/40 41/41/41
f 44/44/44 43/43/43 41/41/41
f 47/47/47 46/46/46 45/45/45
f 48/48/48 47/47/47 45/45/45
f 45/45/45 49/49/49 48/48/48
f 49/49/49 45/45/45 46/46/46
f 49/49/49 50/50/50 48/48/48
f 49/49/49 51/51/51 50/50/50
f 51/51/51 52/52/52 50/50/50
f 46/46/46 47/47/47 53/53/53
f 54/54/54 46/46/46 53/53/53
f 53/53/53 55/55/55 54/54/54
f 55/55/55 56/56/56 54/54/54
f 52/52/52 51/51/51 57/57/57
f 57/57/57 51/51/51 49/49/49
f 58/58/58 52/52/52 57/57/57
f 58/58/58 57/57/57 59/59/59
f 59/59/59 57/57/57 60/60/60
f 56/56/56 59/59/59 60/60/60
f 60/60/60 57/57/57 49/49/49
f 60/60/60 49/49/49 46/46/46
f 60/60/60 46/46/46 54/54/54
f 56/56/56 60/60/60 54/54/54
f 63/63/63 62/62/62 61/61/61
f 64/64/64 63/63/63 61/61/61
f 63/63/63 65/65/65 62/62/62
f 65/65/65 63/63/63 66/66/66
f 66/66/66 63/63/63 64/64/64
f 67/67/67 65/65/65 66/66/66
f 68/68/68 66/66/66 64/64/64
f 71/71/71 70/70/70 69/69/69
f 72/72/72 71/71/71 69/69/69
f 73/73/73 69/69/69 70/70/70
f 74/74/74 73/73/73 70/70/70
f 77/77/77 76/76/76 75/75/75
f 78/78/78 77/77/77 75/75/75
f 79/79/79 75/75/75 76/76/76
f 80/80/80 79/79/79 76/76/76
f 83/83/83 82/82/82 81/81/81
f 86/86/86 85/85/85 84/84/84
f 88/88/88 84/84/84 87/87/87
f 89/89/89 88/88/88 87/87/87
