g m_dlc5_wall_straight_top_01b
v 0.6 2 0.2831348
v 0.2690942 2.015815 0.2768555
v 0.06447022 2.000277 0.2830249
v 0.6 2 -0.2927515
v 0.2703833 1.991198 0.3014722
v 0.06030761 1.987943 0.2951904
v 0.2701562 1.953823 0.3014697
v 0.06030761 1.954831 0.2951904
v 0 1.878641 0.2951904
v 0.6 1.878641 0.2951904
v 0.6 1.864225 0.2901904
v -0.6 1.864225 0.2901904
v -0.6 1.878641 0.2951904
v -0.6 1.799419 0.2407544
v 0.6 1.799419 0.2407544
v 0.6 1.792534 0.2304688
v -0.6 1.792534 0.2304688
v -0.09767578 1.958118 0.2951904
v -0.6 1.987943 0.2951904
v -0.1031616 1.987943 0.2951904
v -0.6 2 0.2831348
v -0.1029614 2 0.2831348
v 0.6 1.987943 0.2951904
v -0.07922119 1.957566 0.2859546
v -0.0865747 1.987943 0.288584
v -0.04147217 1.956968 0.2071582
v -0.04990967 1.987943 0.2154712
v -0.06496826 2 0.2144189
v -0.02070312 2 0.02279297
v -0.6 2 -0.2927515
v -0.6 1.987943 -0.3048096
v 0.6 1.987943 -0.3048096
v 0.6 1.879423 -0.3048096
v -0.6 1.879423 -0.3048096
v -0.6 1.865482 -0.2998096
v 0.6 1.865482 -0.2998096
v 0.6 1.798287 -0.2500195
v -0.6 1.798287 -0.2500195
v -0.6 1.792534 -0.2402124
v 0.6 1.792534 -0.2402124
v 0.04322265 2 0.2120068
v 0.02835693 1.987943 0.2209619
v -0.01804687 1.987943 0.08890136
v 0.01182861 1.9556 0.1961157
v -0.009882812 1.956071 0.1263232
v 0.04766846 1.955081 0.2853027
v 0.04569336 1.987943 0.284458
v 0.0597583 2 0.2791064
v -0.009882812 1.956071 0.1263232
v -0.01804687 1.987943 0.08890136
v -0.6 1.878641 0.2951904
v -0.6 1.864225 0.2901904
v -0.6 1.865482 -0.2998096
v -0.6 1.879423 -0.3048096
v -0.6 1.987943 0.2951904
v -0.6 1.987943 -0.3048096
v -0.6 2 0.2831348
v -0.6 2 -0.2927515
v -0.6 1.798287 -0.2500195
v -0.6 1.799419 0.2407544
v -0.6 1.792534 -0.2402124
v -0.6 1.792534 0.2304688
v 0.6 1.878641 0.2951904
v 0.6 1.879423 -0.3048096
v 0.6 1.865482 -0.2998096
v 0.6 1.864225 0.2901904
v 0.6 1.987943 0.2951904
v 0.6 1.987943 -0.3048096
v 0.6 2 -0.2927515
v 0.6 2 0.2831348
v 0.6 1.798287 -0.2500195
v 0.6 1.799419 0.2407544
v 0.6 1.792534 -0.2402124
v 0.6 1.792534 0.2304688
vt 0.4643555 0.5874023
vt 0.4741211 0.5874023
vt 0.4799805 0.5874023
vt 0.4643555 0.5708008
vt 0.4741211 0.5878906
vt 0.4802246 0.5878906
vt 0.4741211 0.5883789
vt 0.4802246 0.5888672
vt 0.4819336 0.5913086
vt 0.4643555 0.5913086
vt 0.4643555 0.5913086
vt 0.4992676 0.5913086
vt 0.4992676 0.5913086
vt 0.4992676 0.59375
vt 0.4643555 0.59375
vt 0.4643555 0.5942383
vt 0.4992676 0.5942383
vt 0.4846191 0.5888672
vt 0.4992676 0.5878906
vt 0.4846191 0.5878906
vt 0.4992676 0.5874023
vt 0.4848633 0.5874023
vt 0.4643555 0.5878906
vt 0.4838867 0.5888672
vt 0.4841309 0.5874023
vt 0.4831543 0.5888672
vt 0.4833984 0.5869141
vt 0.4836426 0.5854492
vt 0.4824219 0.5800781
vt 0.4992676 0.5708008
vt 0.4992676 0.5698242
vt 0.4643555 0.5698242
vt 0.4643555 0.5668945
vt 0.4992676 0.5668945
vt 0.4992676 0.5664063
vt 0.4643555 0.5664063
vt 0.4643555 0.5639648
vt 0.4992676 0.5639648
vt 0.4992676 0.5634766
vt 0.4643555 0.5634766
vt 0.4807129 0.5849609
vt 0.4814453 0.5864258
vt 0.4824219 0.5854492
vt 0.4819336 0.5883789
vt 0.4821777 0.5883789
vt 0.4814453 0.5888672
vt 0.4812012 0.5869141
vt 0.4802246 0.5869141
vt 0.4821777 0.5883789
vt 0.4824219 0.5854492
vt 0.4084473 0.5219727
vt 0.4084473 0.5219727
vt 0.4055176 0.5219727
vt 0.4055176 0.5219727
vt 0.4084473 0.5224609
vt 0.4055176 0.5224609
vt 0.4084473 0.5229492
vt 0.4055176 0.5229492
vt 0.4057617 0.5219727
vt 0.4082031 0.5219727
vt 0.4057617 0.5214844
vt 0.4082031 0.5214844
vt 0.4055176 0.5209961
vt 0.4086914 0.5209961
vt 0.4084473 0.5209961
vt 0.4055176 0.5209961
vt 0.4055176 0.5214844
vt 0.4086914 0.5214844
vt 0.4084473 0.5214844
vt 0.4055176 0.5214844
vt 0.4082031 0.5205078
vt 0.4057617 0.5205078
vt 0.4082031 0.5205078
vt 0.4057617 0.5205078
vn 0 1 0
vn 0 1 0
vn 0 1 0
vn 0 1 0
vn 0.0004952453 0.444632 0.8957133
vn -0.08264564 0.4162481 0.9054873
vn 0 0 1
vn 0 0 1
vn 0 0 1
vn 0 0 1
vn 1.30251E-05 -0.60878 0.7933391
vn 1.30251E-05 -0.60878 0.7933391
vn 0 0 1
vn 1.30251E-05 -0.60878 0.7933391
vn 1.30251E-05 -0.60878 0.7933391
vn 0 0 1
vn 0 0 1
vn 0 0 1
vn 0 0 1
vn 0.01525633 0.382069 0.9240078
vn 0 1 0
vn 0 1 0
vn 0 0 1
vn 1 0 0
vn 1 0 0
vn 1 0 0
vn 1 0 0
vn 0 1 0
vn 0 1 0
vn 0 1 0
vn 0 0 -1
vn 0 0 -1
vn 0 0 -1
vn 0 0 -1
vn 1.421489E-05 -0.5967817 -0.8024036
vn 1.421489E-05 -0.5967817 -0.8024036
vn 1.421489E-05 -0.5967817 -0.8024036
vn 1.421489E-05 -0.5967817 -0.8024036
vn 0 0 -1
vn 0 0 -1
vn 0 1 0
vn -1 0 0
vn -1 0 0
vn -1 0 0
vn -1 0 0
vn -1 0 0
vn -1 0 0
vn 0 1 0
vn 1 0 0
vn 1 0 0
vn -1 1.012921E-05 0
vn -1 1.012921E-05 0
vn -1 1.012921E-05 0
vn -1 1.012921E-05 0
vn -1 0 0
vn -1 0 0
vn -1 0 0
vn -1 0 0
vn -1 -0.0002732831 0
vn -1 -0.0002732831 0
vn -1 -0.0002732831 0
vn -1 -0.0002732831 0
vn 1 0 0
vn 1 0 0
vn 1 0 0
vn 1 0 0
vn 1 -3.370455E-07 0
vn 1 -3.370455E-07 0
vn 1 -3.370455E-07 0
vn 1 -3.370455E-07 0
vn 1 0 0
vn 1 0 0
vn 1 0 0
vn 1 0 0
g m_dlc5_wall_straight_top_01b_0
f 3/3/3 2/2/2 1/1/1
f 4/4/4 3/3/3 1/1/1
f 5/5/5 2/2/2 3/3/3
f 6/6/6 5/5/5 3/3/3
f 7/7/7 5/5/5 6/6/6
f 8/8/8 7/7/7 6/6/6
f 7/7/7 8/8/8 9/9/9
f 7/7/7 9/9/9 10/10/10
f 11/11/11 10/10/10 9/9/9
f 9/9/9 12/12/12 11/11/11
f 9/9/9 13/13/13 12/12/12
f 11/11/11 12/12/12 14/14/14
f 15/15/15 11/11/11 14/14/14
f 16/16/16 15/15/15 14/14/14
f 17/17/17 16/16/16 14/14/14
f 9/9/9 18/18/18 13/13/13
f 18/18/18 19/19/19 13/13/13
f 18/18/18 20/20/20 19/19/19
f 19/19/19 20/20/20 21/21/21
f 20/20/20 22/22/22 21/21/21
f 10/10/10 23/23/23 7/7/7
f 9/9/9 24/24/24 18/18/18
f 18/18/18 24/24/24 20/20/20
f 24/24/24 25/25/25 20/20/20
f 20/20/20 25/25/25 22/22/22
f 24/24/24 26/26/26 25/25/25
f 9/9/9 26/26/26 24/24/24
f 26/26/26 27/27/27 25/25/25
f 25/25/25 27/27/27 22/22/22
f 27/27/27 28/28/28 22/22/22
f 22/22/22 28/28/28 29/29/29
f 30/30/30 22/22/22 29/29/29
f 30/30/30 21/21/21 22/22/22
f 29/29/29 4/4/4 30/30/30
f 30/30/30 4/4/4 31/31/31
f 4/4/4 32/32/32 31/31/31
f 32/32/32 33/33/33 31/31/31
f 33/33/33 34/34/34 31/31/31
f 34/34/34 33/33/33 35/35/35
f 33/33/33 36/36/36 35/35/35
f 36/36/36 37/37/37 35/35/35
f 37/37/37 38/38/38 35/35/35
f 39/39/39 38/38/38 37/37/37
f 40/40/40 39/39/39 37/37/37
f 4/4/4 29/29/29 41/41/41
f 42/42/42 41/41/41 29/29/29
f 43/43/43 42/42/42 29/29/29
f 44/44/44 42/42/42 43/43/43
f 45/45/45 44/44/44 43/43/43
f 9/9/9 44/44/44 45/45/45
f 9/9/9 46/46/46 44/44/44
f 44/44/44 46/46/46 42/42/42
f 9/9/9 8/8/8 46/46/46
f 46/46/46 8/8/8 47/47/47
f 46/46/46 47/47/47 42/42/42
f 42/42/42 47/47/47 41/41/41
f 8/8/8 6/6/6 47/47/47
f 48/48/48 47/47/47 6/6/6
f 47/47/47 48/48/48 41/41/41
f 41/41/41 48/48/48 3/3/3
f 3/3/3 48/48/48 6/6/6
f 41/41/41 3/3/3 4/4/4
f 9/9/9 49/49/49 26/26/26
f 26/26/26 49/49/49 27/27/27
f 49/49/49 50/50/50 27/27/27
f 27/27/27 50/50/50 28/28/28
f 50/50/50 29/29/29 28/28/28
f 53/53/53 52/52/52 51/51/51
f 54/54/54 53/53/53 51/51/51
f 54/54/54 51/51/51 55/55/55
f 55/55/55 56/56/56 54/54/54
f 55/55/55 57/57/57 56/56/56
f 57/57/57 58/58/58 56/56/56
f 53/53/53 59/59/59 52/52/52
f 59/59/59 60/60/60 52/52/52
f 59/59/59 61/61/61 60/60/60
f 61/61/61 62/62/62 60/60/60
f 65/65/65 64/64/64 63/63/63
f 66/66/66 65/65/65 63/63/63
f 67/67/67 63/63/63 64/64/64
f 64/64/64 68/68/68 67/67/67
f 68/68/68 69/69/69 67/67/67
f 69/69/69 70/70/70 67/67/67
f 71/71/71 65/65/65 66/66/66
f 72/72/72 71/71/71 66/66/66
f 73/73/73 71/71/71 72/72/72
f 74/74/74 73/73/73 72/72/72
f 7/7/7 23/23/23 5/5/5
f 5/5/5 23/23/23 2/2/2
f 23/23/23 1/1/1 2/2/2
