g m_dlc5_small_rock_03
v -0.05490436 0.005321108 0.002407265
v -0.0557686 0.02040287 0.002224464
v -0.0493502 0.019011 0.02540466
v -0.04992582 0.004977097 0.02584808
v -0.03711855 0.01761914 0.0423333
v -0.03663142 0.004625176 0.0419326
v -0.03173665 0.02948314 0.0359935
v -0.03870362 0.03461978 0.02293594
v -0.01772117 0.03461978 0.04074821
v -0.02076458 0.04406459 0.02306877
v 0.003397579 0.03711494 0.04278519
v 0.001518412 0.04720597 0.02463249
v -0.02461828 0.047246 0.0007972717
v -0.0008379841 0.0505912 0.001991501
v 0.02519684 0.04390448 0.02645637
v 0.02362957 0.0471059 0.007168083
v 0.02633299 0.03445967 0.04055092
v 0.04136153 0.02923408 0.03700203
v 0.04536278 0.03433959 0.02855549
v 0.04408453 0.03690979 0.01263428
v -0.003363094 0.04722598 -0.02252483
v 0.01925724 0.04398452 -0.01721062
v 0.03777197 0.03447968 -0.01248386
v 0.01557184 0.03459977 -0.03928345
v 0.03000969 0.02942086 -0.03134804
v 0.04843376 0.01885088 -0.01288589
v 0.03511705 0.0175791 -0.03920338
v 0.05582703 0.02012267 0.01469723
v 0.05410921 0.005099493 0.01349991
v 0.04655726 0.00484732 -0.01305801
v 0.03417143 0.004592731 -0.03863999
v 0.05710834 0.01869078 0.03094482
v 0.04929693 0.01733894 0.04083557
v 0.04791227 0.004403561 0.03879257
v 0.05735165 0.004707871 0.03010319
v 0.02823523 0.004847323 0.04709385
v 0.02941204 0.01885089 0.04934822
v 0.004119453 0.005288664 0.05247658
v 0.004491024 0.02036284 0.05383655
v -0.01863612 0.004977097 0.05241039
v -0.01842865 0.019011 0.05165443
v -0.0557686 0.02040287 0.002224464
v -0.0441242 0.03715497 0.001552582
v -0.03870362 0.03461978 0.02293594
v -0.0493502 0.019011 0.02540466
v -0.05701874 0.019011 -0.02585136
v -0.05730133 0.004977097 -0.02537159
v -0.04853544 0.004625176 -0.04695953
v -0.04978936 0.01761914 -0.04884369
v -0.05490436 0.005321108 0.002407265
v -0.04558978 0.03461978 -0.02406834
v -0.04205529 0.02948314 -0.04059364
v -0.02634167 0.04406459 -0.02388512
v -0.02777767 0.03461978 -0.04505104
v -0.02461828 0.047246 0.0007972717
v -0.0008379841 0.0505912 0.001991501
v -0.003363094 0.04722598 -0.02252483
v -0.005477762 0.03714996 -0.04354377
v -0.02076458 0.04406459 0.02306877
v 0.01925724 0.04398452 -0.01721062
v 0.01557184 0.03459977 -0.03928345
v -0.03073926 0.004977097 -0.05666153
v -0.03076923 0.019011 -0.05677322
v -0.006363439 0.005321108 -0.05477356
v -0.006602821 0.02040287 -0.05569259
v 0.01642742 0.004977096 -0.05231522
v 0.01606541 0.019011 -0.05165413
v 0.03417143 0.004592731 -0.03863999
v 0.03511705 0.0175791 -0.03920338
v 0.03000969 0.02942086 -0.03134804
v -0.03663142 0.004625176 0.0419326
v -0.0245451 0.0002411103 0.02821419
v -0.03765198 0.0002569342 0.01963928
v -0.04992582 0.004977097 0.02584808
v -0.05490436 0.005321108 0.002407265
v -0.03688432 0.0002411103 0.001695404
v -0.004174142 0.000176053 -0.001164246
v -0.04311035 0.0002569342 -0.0187664
v -0.05730133 0.004977097 -0.02537159
v -0.04853544 0.004625176 -0.04695953
v -0.03225797 0.0002411103 -0.03068272
v -0.01409266 0.0002569342 0.03963917
v -0.01863612 0.004977097 0.05241039
v 0.004119453 0.005288664 0.05247658
v 0.001603537 0.0002314198 0.03339523
v 0.02823523 0.004847323 0.04709385
v 0.01660385 0.0002181721 0.02803322
v 0.04791227 0.004403561 0.03879257
v 0.03053179 0.0001952481 0.02419174
v 0.04301086 0.0001407051 0.02250935
v 0.05735165 0.004707871 0.03010319
v 0.05410921 0.005099493 0.01349991
v 0.03418334 0.0001952481 0.009185295
v 0.04655726 0.00484732 -0.01305801
v 0.02745712 0.0002181721 -0.007641449
v 0.03417143 0.004592731 -0.03863999
v 0.02084191 0.0002314198 -0.02483494
v 0.02392667 0.0002193046 0.01245972
v 0.01088783 0.0002472007 0.00538269
v 0.01234736 0.0002569342 -0.03925934
v 0.01642742 0.004977096 -0.05231522
v -0.006363439 0.005321108 -0.05477356
v -0.004384789 0.0002411103 -0.03658874
v -0.02311066 0.0002569342 -0.0423259
v -0.03073926 0.004977097 -0.05666153
vt 0.5087891 0.1464844
vt 0.5092773 0.1463623
vt 0.5092773 0.1463623
vt 0.5087891 0.1464844
vt 0.5092773 0.1463623
vt 0.5087891 0.1464844
vt 0.5092773 0.1462402
vt 0.5092773 0.1462402
vt 0.5092773 0.1462402
vt 0.5092773 0.1461182
vt 0.5092773 0.1462402
vt 0.5092773 0.1459961
vt 0.5097656 0.1459961
vt 0.5097656 0.145874
vt 0.5092773 0.1461182
vt 0.5092773 0.1459961
vt 0.5092773 0.1462402
vt 0.5092773 0.1462402
vt 0.5092773 0.1462402
vt 0.5092773 0.1461182
vt 0.5092773 0.1459961
vt 0.5092773 0.1459961
vt 0.5092773 0.1461182
vt 0.5092773 0.1461182
vt 0.5092773 0.1462402
vt 0.5087891 0.1462402
vt 0.5087891 0.1462402
vt 0.5087891 0.1462402
vt 0.5087891 0.1464844
vt 0.5087891 0.1463623
vt 0.5087891 0.1463623
vt 0.5087891 0.1463623
vt 0.5087891 0.1463623
vt 0.5087891 0.1464844
vt 0.5087891 0.1464844
vt 0.5087891 0.1464844
vt 0.5087891 0.1463623
vt 0.5087891 0.1464844
vt 0.5092773 0.1463623
vt 0.5087891 0.1464844
vt 0.5092773 0.1463623
vt 0.5092773 0.1463623
vt 0.5092773 0.1461182
vt 0.5092773 0.1462402
vt 0.5092773 0.1463623
vt 0.5092773 0.1463623
vt 0.5087891 0.1464844
vt 0.5087891 0.1463623
vt 0.5092773 0.1462402
vt 0.5087891 0.1464844
vt 0.5092773 0.1462402
vt 0.5092773 0.1462402
vt 0.5092773 0.1459961
vt 0.5092773 0.1461182
vt 0.5097656 0.1459961
vt 0.5097656 0.145874
vt 0.5092773 0.1459961
vt 0.5092773 0.1461182
vt 0.5092773 0.1461182
vt 0.5092773 0.1459961
vt 0.5092773 0.1461182
vt 0.5087891 0.1463623
vt 0.5092773 0.1462402
vt 0.5087891 0.1463623
vt 0.5092773 0.1462402
vt 0.5087891 0.1463623
vt 0.5092773 0.1462402
vt 0.5087891 0.1463623
vt 0.5087891 0.1462402
vt 0.5092773 0.1462402
vt 0.5048828 0.145752
vt 0.5068359 0.1478271
vt 0.5053711 0.1485596
vt 0.5039063 0.1477051
vt 0.503418 0.1497803
vt 0.5058594 0.1500244
vt 0.5083008 0.1502686
vt 0.5048828 0.1517334
vt 0.503418 0.1524658
vt 0.503418 0.1552734
vt 0.5058594 0.15271
vt 0.5073242 0.1468506
vt 0.5068359 0.1452637
vt 0.5087891 0.1447754
vt 0.5087891 0.1474609
vt 0.5112305 0.1456299
vt 0.5097656 0.1478271
vt 0.5136719 0.1463623
vt 0.5112305 0.1481934
vt 0.512207 0.1483154
vt 0.5136719 0.1474609
vt 0.5141602 0.1484375
vt 0.5112305 0.1494141
vt 0.5131836 0.1514893
vt 0.5107422 0.1507568
vt 0.512207 0.154541
vt 0.5102539 0.1522217
vt 0.5107422 0.1491699
vt 0.5092773 0.1496582
vt 0.5097656 0.1533203
vt 0.5102539 0.1550293
vt 0.5083008 0.1555176
vt 0.5083008 0.1531982
vt 0.5068359 0.1536865
vt 0.5058594 0.1553955
vn -0.8112232 -0.5722767 0.1200674
vn -0.930111 0.3420357 0.1338097
vn -0.8606697 0.3137332 0.4010225
vn -0.7547179 -0.5613792 0.3394911
vn -0.6223359 0.276802 0.7321739
vn -0.5252295 -0.5833283 0.6195659
vn -0.5019583 0.6311965 0.5912942
vn -0.6033498 0.7207614 0.3412798
vn -0.2484261 0.7130936 0.6555776
vn -0.2786826 0.9072958 0.3148815
vn 0.002263871 0.7265847 0.6870732
vn -0.01713452 0.9490002 0.3148093
vn -0.2943157 0.9552004 0.03115372
vn 0.006149932 0.9999534 -0.00745127
vn 0.2360867 0.9220282 0.3068012
vn 0.3017826 0.9525589 -0.03948196
vn 0.220051 0.6860598 0.6934692
vn 0.4245989 0.6142271 0.6651624
vn 0.5950283 0.761888 0.2558669
vn 0.6505289 0.7527609 -0.1008124
vn 0.03813463 0.9593303 -0.2796981
vn 0.3253224 0.9023584 -0.2826918
vn 0.6434186 0.7046409 -0.2991548
vn 0.3271364 0.7451137 -0.5811947
vn 0.5930477 0.6454639 -0.4813219
vn 0.9011746 0.2586778 -0.3478078
vn 0.7450534 0.2551937 -0.616256
vn 0.9345387 0.3073058 -0.1794455
vn 0.7745554 -0.6000563 -0.1999914
vn 0.6953384 -0.6693683 -0.2616304
vn 0.6192358 -0.621536 -0.4798333
vn 0.9215326 0.3039614 0.2416304
vn 0.5404323 0.1734646 0.8233122
vn 0.3548447 -0.6999015 0.6198574
vn 0.7906901 -0.5859376 0.1774436
vn 0.1917686 -0.711129 0.6764026
vn 0.2767501 0.2121751 0.9372252
vn 0.07941478 -0.63235 0.7706015
vn 0.05141193 0.2928309 0.9547811
vn -0.2018524 -0.5603676 0.8032706
vn -0.2536546 0.306547 0.9174357
vn -0.930111 0.3420357 0.1338097
vn -0.6457386 0.7584316 0.08833522
vn -0.6033498 0.7207614 0.3412798
vn -0.8606697 0.3137332 0.4010225
vn -0.9385651 0.3209077 -0.1269403
vn -0.792255 -0.6025977 -0.09595846
vn -0.5817503 -0.6513959 -0.4870831
vn -0.7222133 0.2892146 -0.6283015
vn -0.8112232 -0.5722767 0.1200674
vn -0.6361017 0.7570511 -0.1491584
vn -0.5302359 0.7212093 -0.4457656
vn -0.2626069 0.9366148 -0.2319273
vn -0.1859929 0.7791256 -0.5986401
vn -0.2943157 0.9552004 0.03115372
vn 0.006149932 0.9999534 -0.00745127
vn 0.03813463 0.9593303 -0.2796981
vn 0.07340804 0.7861148 -0.6137057
vn -0.2786826 0.9072958 0.3148815
vn 0.3253224 0.9023584 -0.2826918
vn 0.3271364 0.7451137 -0.5811947
vn -0.1359417 -0.616878 -0.7752299
vn -0.170851 0.3250121 -0.930149
vn 0.08240841 -0.5868294 -0.8055062
vn 0.09931868 0.355606 -0.9293439
vn 0.2941294 -0.560476 -0.7741799
vn 0.3525032 0.3336783 -0.8742998
vn 0.6192358 -0.621536 -0.4798333
vn 0.7450534 0.2551937 -0.616256
vn 0.5930477 0.6454639 -0.4813219
vn -0.5252295 -0.5833283 0.6195659
vn -0.05652133 -0.9961767 0.06661234
vn -0.1339656 -0.9894459 0.05522747
vn -0.7547179 -0.5613792 0.3394911
vn -0.8112232 -0.5722767 0.1200674
vn -0.09921176 -0.9949703 0.01382678
vn -0.000219702 -1 -3.932178E-05
vn -0.1401151 -0.9901012 -0.008208319
vn -0.792255 -0.6025977 -0.09595846
vn -0.5817503 -0.6513959 -0.4870831
vn -0.06159076 -0.9967936 -0.0510793
vn -0.02464772 -0.9887304 0.1476642
vn -0.2018524 -0.5603676 0.8032706
vn 0.07941478 -0.63235 0.7706015
vn 0.02263434 -0.9938093 0.1087691
vn 0.1917686 -0.711129 0.6764026
vn 0.03019966 -0.9924526 0.1188522
vn 0.3548447 -0.6999015 0.6198574
vn 0.0427315 -0.9907115 0.129092
vn 0.1919247 -0.981125 0.02363349
vn 0.7906901 -0.5859376 0.1774436
vn 0.7745554 -0.6000563 -0.1999914
vn 0.1564066 -0.9862584 -0.05321053
vn 0.6953384 -0.6693683 -0.2616304
vn 0.1246654 -0.9911743 -0.04507744
vn 0.6192358 -0.621536 -0.4798333
vn 0.09671388 -0.9936646 -0.05724483
vn -0.002247537 -0.9999973 -0.0006631949
vn 0.0009904435 -0.9999995 0.000326033
vn 0.05413854 -0.9890591 -0.1372268
vn 0.2941294 -0.560476 -0.7741799
vn 0.08240841 -0.5868294 -0.8055062
vn 0.006742809 -0.9958349 -0.09092412
vn -0.01536745 -0.9900609 -0.1397969
vn -0.1359417 -0.616878 -0.7752299
g m_dlc5_small_rock_03_0
f 3/3/3 2/2/2 1/1/1
f 4/4/4 3/3/3 1/1/1
f 5/5/5 3/3/3 4/4/4
f 6/6/6 5/5/5 4/4/4
f 5/5/5 7/7/7 3/3/3
f 7/7/7 8/8/8 3/3/3
f 7/7/7 9/9/9 8/8/8
f 9/9/9 7/7/7 5/5/5
f 9/9/9 10/10/10 8/8/8
f 9/9/9 11/11/11 10/10/10
f 11/11/11 12/12/12 10/10/10
f 10/10/10 12/12/12 13/13/13
f 12/12/12 14/14/14 13/13/13
f 12/12/12 15/15/15 14/14/14
f 15/15/15 16/16/16 14/14/14
f 17/17/17 15/15/15 12/12/12
f 11/11/11 17/17/17 12/12/12
f 17/17/17 18/18/18 15/15/15
f 18/18/18 19/19/19 15/15/15
f 15/15/15 19/19/19 16/16/16
f 19/19/19 20/20/20 16/16/16
f 14/14/14 16/16/16 21/21/21
f 16/16/16 22/22/22 21/21/21
f 16/16/16 20/20/20 22/22/22
f 20/20/20 23/23/23 22/22/22
f 22/22/22 23/23/23 24/24/24
f 23/23/23 25/25/25 24/24/24
f 23/23/23 26/26/26 25/25/25
f 26/26/26 27/27/27 25/25/25
f 28/28/28 26/26/26 23/23/23
f 20/20/20 28/28/28 23/23/23
f 28/28/28 29/29/29 26/26/26
f 29/29/29 30/30/30 26/26/26
f 26/26/26 30/30/30 27/27/27
f 30/30/30 31/31/31 27/27/27
f 32/32/32 28/28/28 20/20/20
f 19/19/19 32/32/32 20/20/20
f 33/33/33 32/32/32 19/19/19
f 18/18/18 33/33/33 19/19/19
f 33/33/33 34/34/34 32/32/32
f 34/34/34 35/35/35 32/32/32
f 35/35/35 29/29/29 28/28/28
f 32/32/32 35/35/35 28/28/28
f 34/34/34 33/33/33 36/36/36
f 33/33/33 37/37/37 36/36/36
f 36/36/36 37/37/37 38/38/38
f 37/37/37 39/39/39 38/38/38
f 33/33/33 18/18/18 37/37/37
f 18/18/18 17/17/17 37/37/37
f 37/37/37 17/17/17 39/39/39
f 17/17/17 11/11/11 39/39/39
f 38/38/38 39/39/39 40/40/40
f 39/39/39 41/41/41 40/40/40
f 39/39/39 11/11/11 41/41/41
f 40/40/40 41/41/41 6/6/6
f 41/41/41 5/5/5 6/6/6
f 11/11/11 9/9/9 41/41/41
f 41/41/41 9/9/9 5/5/5
f 44/44/44 43/43/43 42/42/42
f 45/45/45 44/44/44 42/42/42
f 42/42/42 43/43/43 46/46/46
f 42/42/42 46/46/46 47/47/47
f 47/47/47 46/46/46 48/48/48
f 46/46/46 49/49/49 48/48/48
f 50/50/50 42/42/42 47/47/47
f 43/43/43 51/51/51 46/46/46
f 46/46/46 51/51/51 49/49/49
f 51/51/51 52/52/52 49/49/49
f 51/51/51 53/53/53 52/52/52
f 53/53/53 54/54/54 52/52/52
f 55/55/55 53/53/53 51/51/51
f 43/43/43 55/55/55 51/51/51
f 55/55/55 56/56/56 53/53/53
f 56/56/56 57/57/57 53/53/53
f 53/53/53 57/57/57 54/54/54
f 57/57/57 58/58/58 54/54/54
f 59/59/59 55/55/55 43/43/43
f 44/44/44 59/59/59 43/43/43
f 57/57/57 60/60/60 58/58/58
f 60/60/60 61/61/61 58/58/58
f 48/48/48 49/49/49 62/62/62
f 52/52/52 54/54/54 63/63/63
f 62/62/62 63/63/63 64/64/64
f 63/63/63 65/65/65 64/64/64
f 54/54/54 58/58/58 65/65/65
f 63/63/63 54/54/54 65/65/65
f 49/49/49 63/63/63 62/62/62
f 49/49/49 52/52/52 63/63/63
f 64/64/64 65/65/65 66/66/66
f 65/65/65 67/67/67 66/66/66
f 58/58/58 61/61/61 67/67/67
f 65/65/65 58/58/58 67/67/67
f 66/66/66 67/67/67 68/68/68
f 67/67/67 69/69/69 68/68/68
f 67/67/67 61/61/61 69/69/69
f 61/61/61 70/70/70 69/69/69
f 73/73/73 72/72/72 71/71/71
f 74/74/74 73/73/73 71/71/71
f 73/73/73 74/74/74 75/75/75
f 76/76/76 73/73/73 75/75/75
f 73/73/73 76/76/76 77/77/77
f 72/72/72 73/73/73 77/77/77
f 78/78/78 76/76/76 75/75/75
f 76/76/76 78/78/78 77/77/77
f 79/79/79 78/78/78 75/75/75
f 78/78/78 79/79/79 80/80/80
f 81/81/81 78/78/78 80/80/80
f 78/78/78 81/81/81 77/77/77
f 72/72/72 82/82/82 71/71/71
f 82/82/82 72/72/72 77/77/77
f 82/82/82 83/83/83 71/71/71
f 83/83/83 82/82/82 84/84/84
f 82/82/82 85/85/85 84/84/84
f 85/85/85 82/82/82 77/77/77
f 84/84/84 85/85/85 86/86/86
f 85/85/85 87/87/87 86/86/86
f 85/85/85 77/77/77 87/87/87
f 86/86/86 87/87/87 88/88/88
f 87/87/87 89/89/89 88/88/88
f 89/89/89 90/90/90 88/88/88
f 90/90/90 91/91/91 88/88/88
f 91/91/91 90/90/90 92/92/92
f 90/90/90 93/93/93 92/92/92
f 92/92/92 93/93/93 94/94/94
f 93/93/93 95/95/95 94/94/94
f 94/94/94 95/95/95 96/96/96
f 95/95/95 97/97/97 96/96/96
f 93/93/93 98/98/98 95/95/95
f 90/90/90 89/89/89 98/98/98
f 93/93/93 90/90/90 98/98/98
f 98/98/98 99/99/99 95/95/95
f 95/95/95 99/99/99 97/97/97
f 99/99/99 98/98/98 89/89/89
f 87/87/87 99/99/99 89/89/89
f 99/99/99 77/77/77 97/97/97
f 77/77/77 99/99/99 87/87/87
f 97/97/97 100/100/100 96/96/96
f 100/100/100 97/97/97 77/77/77
f 100/100/100 101/101/101 96/96/96
f 101/101/101 100/100/100 102/102/102
f 100/100/100 103/103/103 102/102/102
f 103/103/103 100/100/100 77/77/77
f 103/103/103 104/104/104 102/102/102
f 104/104/104 103/103/103 77/77/77
f 104/104/104 105/105/105 102/102/102
f 105/105/105 104/104/104 80/80/80
f 104/104/104 81/81/81 80/80/80
f 81/81/81 104/104/104 77/77/77
