g m_dlc3_iceberge_01
v -0.01028788 0.004155725 0.004505379
v -0.01058469 0.004064432 -0.003274136
v -0.009439987 0.005006945 -0.002413629
v -0.009185919 0.005070833 0.003915275
v -0.002318368 0.004063606 0.01026182
v -0.002305174 0.005003331 0.008907139
v 0.007940185 0.004064069 0.003151856
v 0.007114366 0.005 0.00237626
v -0.004396813 0.005 -0.003669229
v -0.004669421 0.004064069 -0.00474306
v 0.00319284 0.005 -0.005640433
v 0.003160596 0.004063599 -0.00677432
v 0.006154127 0.005 -0.005077019
v 0.006746657 0.004064069 -0.006092038
v 0.01070012 0.004064069 -0.001417514
v 0.009340554 0.005 -0.001309434
v 9.536744E-09 0.005 0
v -0.002318368 0.004063606 0.01026182
v 0.007940185 0.004064069 0.003151856
v 0.007194867 -0.0004633182 0.003018715
v -0.002093701 -0.0004635274 0.009456409
v 0.01070012 0.004064069 -0.001417514
v 0.00969384 -0.0004633182 -0.001118605
v 0.006114195 -0.0004633182 -0.005351135
v 0.006746657 0.004064069 -0.006092038
v 0.003160596 0.004063599 -0.00677432
v 0.002867205 -0.000463531 -0.005968906
v 0.01070012 0.004064069 -0.001417514
v 0.00969384 -0.0004633182 -0.001118605
v -0.004669421 0.004064069 -0.00474306
v -0.004222453 -0.0004633182 -0.004129708
v -0.01058469 0.004064432 -0.003274136
v -0.009578417 -0.0004631543 -0.002799677
v -0.01058469 0.004064432 -0.003274136
v -0.01028788 0.004155725 0.004505379
v -0.009309665 -0.0003740811 0.004244258
v -0.009578417 -0.0004631543 -0.002799677
v -0.002318368 0.004063606 0.01026182
v -0.002093701 -0.0004635274 0.009456409
v -0.009439987 0.005006945 -0.002413629
v -0.004396813 0.005 -0.003669229
v 0.00319284 0.005 -0.005640433
v -0.004826033 -0.004929102 0.00289541
v -0.005450516 -0.004993029 -0.0007223198
v -0.006825012 -0.004062836 -0.001284785
v -0.005618447 -0.003971951 0.003580517
v -0.001227848 -0.004996649 0.005422733
v -0.001322603 -0.004077536 0.006618884
v 0.006394224 -0.005009379 0.001321526
v 0.007625904 -0.005 -0.0008378575
v 9.536744E-09 -0.005 0
v 0.005744241 -0.005 -0.003796777
v 0.001334814 -0.005 -0.004829204
v -0.001363056 -0.005 -0.002194591
v -0.009309665 -0.0003740811 0.004244258
v -0.009578417 -0.0004631543 -0.002799677
v -0.002093701 -0.0004635274 0.009456409
v -0.001322603 -0.004077536 0.006618884
v 0.007111274 -0.004070578 0.001966152
v 0.006394224 -0.005009379 0.001321526
v 0.007625904 -0.005 -0.0008378575
v 0.008782175 -0.004064987 -0.0008846582
v 0.007194867 -0.0004633182 0.003018715
v -0.002093701 -0.0004635274 0.009456409
v 0.00969384 -0.0004633182 -0.001118605
v -0.001363056 -0.005 -0.002194591
v 0.001334814 -0.005 -0.004829204
v 0.001236661 -0.004067898 -0.005814121
v -0.001724488 -0.00407328 -0.003090115
v -0.005450516 -0.004993029 -0.0007223198
v -0.006825012 -0.004062836 -0.001284785
v 0.006367361 -0.004059016 -0.004589845
v 0.005744241 -0.005 -0.003796777
v 0.008782175 -0.004064987 -0.0008846582
v 0.007625904 -0.005 -0.0008378575
v 0.006114195 -0.0004633182 -0.005351135
v 0.00969384 -0.0004633182 -0.001118605
v 0.002867205 -0.000463531 -0.005968906
v -0.004222453 -0.0004633182 -0.004129708
v -0.009578417 -0.0004631543 -0.002799677
vt 0.4128418 0.3847656
vt 0.4650879 0.4714355
vt 0.4768066 0.4555664
vt 0.4348145 0.3837891
vt 0.4672852 0.2644043
vt 0.4799805 0.2836914
vt 0.6450195 0.2670898
vt 0.6367188 0.2885742
vt 0.5415039 0.4528809
vt 0.5444336 0.4765625
vt 0.6489258 0.4177246
vt 0.6621094 0.4333496
vt 0.675293 0.3869629
vt 0.6943359 0.3937988
vt 0.6933594 0.314209
vt 0.6762695 0.3220215
vt 0.5717773 0.3745117
vt 0.4672852 0.2644043
vt 0.6450195 0.2670898
vt 0.6582031 0.2121582
vt 0.4431152 0.2121582
vt 0.6933594 0.314209
vt 0.7480469 0.2871094
vt 0.7446289 0.4157715
vt 0.6943359 0.3937988
vt 0.6621094 0.4333496
vt 0.6972656 0.482666
vt 0.6933594 0.314209
vt 0.7480469 0.2871094
vt 0.5444336 0.4765625
vt 0.5546875 0.5356445
vt 0.4650879 0.4714355
vt 0.4282227 0.5205078
vt 0.4650879 0.4714355
vt 0.4128418 0.3847656
vt 0.3549805 0.3791504
vt 0.4282227 0.5205078
vt 0.4672852 0.2644043
vt 0.4431152 0.2121582
vt 0.4768066 0.4555664
vt 0.5415039 0.4528809
vt 0.6489258 0.4177246
vt 0.8925781 0.1385498
vt 0.8759766 0.1866455
vt 0.8911133 0.2044678
vt 0.9121094 0.1345215
vt 0.8657227 0.08563232
vt 0.8759766 0.06750488
vt 0.75 0.08428955
vt 0.7255859 0.1021729
vt 0.8178711 0.144043
vt 0.7255859 0.1463623
vt 0.7675781 0.1842041
vt 0.8173828 0.1817627
vt 0.984375 0.1506348
vt 0.9316406 0.2558594
vt 0.9189453 0.015625
vt 0.8759766 0.06750488
vt 0.7426758 0.06634521
vt 0.75 0.08428955
vt 0.7255859 0.1021729
vt 0.7094727 0.09527588
vt 0.7338867 0.015625
vt 0.9189453 0.015625
vt 0.6611328 0.07666016
vt 0.8173828 0.1817627
vt 0.7675781 0.1842041
vt 0.7573242 0.1966553
vt 0.8144531 0.2026367
vt 0.8759766 0.1866455
vt 0.8911133 0.2044678
vt 0.7080078 0.1541748
vt 0.7255859 0.1463623
vt 0.7094727 0.09527588
vt 0.7255859 0.1021729
vt 0.671875 0.1811523
vt 0.6611328 0.07666016
vt 0.7138672 0.2314453
vt 0.8383789 0.2629395
vt 0.9316406 0.2558594
vn -0.8593316 0.004201809 0.5114015
vn -0.8644653 -0.02773152 -0.501927
vn -0.1231999 0.9888954 -0.08311181
vn -0.1146751 0.9908375 0.07134907
vn 0.05829233 0.03731418 0.9976019
vn 0.02124678 0.979783 0.1989319
vn 0.6713965 0.08180215 0.7365698
vn 0.10414 0.9876489 0.1170656
vn -0.04076014 0.9859869 -0.1617664
vn -0.2458954 0.07639585 -0.9662811
vn -0.02188417 0.9843665 -0.1747673
vn -0.1111194 0.05400487 -0.9923387
vn 0.09205753 0.9872204 -0.1300819
vn 0.5843164 -0.001493958 -0.8115245
vn 0.9893807 -0.01626446 -0.144434
vn 0.163846 0.9862574 -0.02123638
vn 0.00236209 0.9999962 -0.001483872
vn 0.05829233 0.03731418 0.9976019
vn 0.6713965 0.08180215 0.7365698
vn 0.6289261 -0.2173694 0.74646
vn 0.06381039 -0.3190857 0.9455753
vn 0.9893807 -0.01626446 -0.144434
vn 0.9699543 -0.2125437 -0.1183798
vn 0.5453359 -0.1926443 -0.8157799
vn 0.5843164 -0.001493958 -0.8115245
vn -0.1111194 0.05400487 -0.9923387
vn -0.09750549 -0.1740763 -0.979893
vn 0.9893807 -0.01626446 -0.144434
vn 0.9699543 -0.2125437 -0.1183798
vn -0.2458954 0.07639585 -0.9662811
vn -0.2710702 -0.2545101 -0.9283026
vn -0.8644653 -0.02773152 -0.501927
vn -0.7794936 -0.4238965 -0.4611955
vn -0.8644653 -0.02773152 -0.501927
vn -0.8593316 0.004201809 0.5114015
vn -0.7879735 -0.3934627 0.4735872
vn -0.7794936 -0.4238965 -0.4611955
vn 0.05829233 0.03731418 0.9976019
vn 0.06381039 -0.3190857 0.9455753
vn -0.1231999 0.9888954 -0.08311181
vn -0.04076014 0.9859869 -0.1617664
vn -0.02188417 0.9843665 -0.1747673
vn -0.1907143 -0.9735927 0.1254805
vn -0.2211851 -0.9651319 -0.1399911
vn -0.6148202 -0.7037112 -0.3560711
vn -0.597391 -0.6696982 0.4411669
vn 0.03328993 -0.9567858 0.2888819
vn 0.108833 -0.5753606 0.8106267
vn 0.1264933 -0.9762058 0.1761293
vn 0.1676619 -0.9856375 -0.02020338
vn -0.003210554 -0.999994 0.001258785
vn 0.1059624 -0.9802715 -0.166852
vn -0.05312093 -0.9727816 -0.2255528
vn -0.1363743 -0.9604675 -0.242702
vn -0.7879735 -0.3934627 0.4735872
vn -0.7794936 -0.4238965 -0.4611955
vn 0.06381039 -0.3190857 0.9455753
vn 0.108833 -0.5753606 0.8106267
vn 0.586769 -0.412533 0.6967916
vn 0.1264933 -0.9762058 0.1761293
vn 0.1676619 -0.9856375 -0.02020338
vn 0.9466787 -0.3064549 -0.09942227
vn 0.6289261 -0.2173694 0.74646
vn 0.06381039 -0.3190857 0.9455753
vn 0.9699543 -0.2125437 -0.1183798
vn -0.1363743 -0.9604675 -0.242702
vn -0.05312093 -0.9727816 -0.2255528
vn -0.2008804 -0.3089254 -0.92963
vn -0.3596985 -0.4182512 -0.8340761
vn -0.2211851 -0.9651319 -0.1399911
vn -0.6148202 -0.7037112 -0.3560711
vn 0.5580428 -0.3050129 -0.7717224
vn 0.1059624 -0.9802715 -0.166852
vn 0.9466787 -0.3064549 -0.09942227
vn 0.1676619 -0.9856375 -0.02020338
vn 0.5453359 -0.1926443 -0.8157799
vn 0.9699543 -0.2125437 -0.1183798
vn -0.09750549 -0.1740763 -0.979893
vn -0.2710702 -0.2545101 -0.9283026
vn -0.7794936 -0.4238965 -0.4611955
g m_dlc3_iceberge_01_0
f 3/3/3 2/2/2 1/1/1
f 4/4/4 3/3/3 1/1/1
f 1/1/1 5/5/5 4/4/4
f 5/5/5 6/6/6 4/4/4
f 5/5/5 7/7/7 6/6/6
f 7/7/7 8/8/8 6/6/6
f 2/2/2 3/3/3 9/9/9
f 10/10/10 2/2/2 9/9/9
f 9/9/9 11/11/11 10/10/10
f 11/11/11 12/12/12 10/10/10
f 11/11/11 13/13/13 12/12/12
f 13/13/13 14/14/14 12/12/12
f 7/7/7 15/15/15 8/8/8
f 15/15/15 16/16/16 8/8/8
f 14/14/14 13/13/13 16/16/16
f 15/15/15 14/14/14 16/16/16
f 16/16/16 13/13/13 11/11/11
f 17/17/17 16/16/16 11/11/11
f 8/8/8 16/16/16 17/17/17
f 6/6/6 8/8/8 17/17/17
f 17/17/17 11/11/11 3/3/3
f 17/17/17 3/3/3 4/4/4
f 6/6/6 17/17/17 4/4/4
f 20/20/20 19/19/19 18/18/18
f 21/21/21 20/20/20 18/18/18
f 22/22/22 19/19/19 20/20/20
f 23/23/23 22/22/22 20/20/20
f 26/26/26 25/25/25 24/24/24
f 27/27/27 26/26/26 24/24/24
f 24/24/24 25/25/25 28/28/28
f 29/29/29 24/24/24 28/28/28
f 26/26/26 27/27/27 30/30/30
f 27/27/27 31/31/31 30/30/30
f 32/32/32 30/30/30 31/31/31
f 33/33/33 32/32/32 31/31/31
f 36/36/36 35/35/35 34/34/34
f 37/37/37 36/36/36 34/34/34
f 38/38/38 35/35/35 36/36/36
f 39/39/39 38/38/38 36/36/36
f 42/42/42 41/41/41 40/40/40
f 45/45/45 44/44/44 43/43/43
f 46/46/46 45/45/45 43/43/43
f 43/43/43 47/47/47 46/46/46
f 47/47/47 43/43/43 44/44/44
f 47/47/47 48/48/48 46/46/46
f 47/47/47 49/49/49 48/48/48
f 50/50/50 49/49/49 47/47/47
f 51/51/51 50/50/50 47/47/47
f 51/51/51 47/47/47 44/44/44
f 52/52/52 50/50/50 51/51/51
f 53/53/53 52/52/52 51/51/51
f 51/51/51 44/44/44 54/54/54
f 53/53/53 51/51/51 54/54/54
f 45/45/45 46/46/46 55/55/55
f 56/56/56 45/45/45 55/55/55
f 57/57/57 55/55/55 46/46/46
f 48/48/48 57/57/57 46/46/46
f 60/60/60 59/59/59 58/58/58
f 59/59/59 60/60/60 61/61/61
f 62/62/62 59/59/59 61/61/61
f 58/58/58 59/59/59 63/63/63
f 64/64/64 58/58/58 63/63/63
f 65/65/65 63/63/63 59/59/59
f 62/62/62 65/65/65 59/59/59
f 68/68/68 67/67/67 66/66/66
f 69/69/69 68/68/68 66/66/66
f 66/66/66 70/70/70 69/69/69
f 70/70/70 71/71/71 69/69/69
f 68/68/68 72/72/72 67/67/67
f 72/72/72 73/73/73 67/67/67
f 72/72/72 74/74/74 73/73/73
f 74/74/74 75/75/75 73/73/73
f 74/74/74 72/72/72 76/76/76
f 76/76/76 72/72/72 68/68/68
f 77/77/77 74/74/74 76/76/76
f 78/78/78 76/76/76 68/68/68
f 68/68/68 69/69/69 79/79/79
f 78/78/78 68/68/68 79/79/79
f 80/80/80 79/79/79 69/69/69
f 71/71/71 80/80/80 69/69/69
