g m_dlc5_rope_fence_01
v -0.1011639 -0.02900828 1.2
v -0.06479261 -0.08293075 1.2
v -0.06483021 -0.0829789 -1.98952E-15
v -0.1012226 -0.02902513 -1.98952E-15
v -0.09889392 0.03599444 1.2
v -0.09895131 0.03601536 -1.98952E-15
v -0.0036728 -0.1051766 1.2
v -0.003674931 -0.1052376 -1.98952E-15
v -0.05884987 0.08724853 1.2
v -0.09889392 0.03599444 1.2
v -0.09895131 0.03601536 -1.98952E-15
v -0.05888402 0.08729918 -1.98952E-15
v 0.003672831 0.1051766 1.2
v 0.003674962 0.1052376 -1.98952E-15
v 0.06479258 0.08293075 1.2
v 0.003672831 0.1051766 1.2
v 0.003674962 0.1052376 -1.98952E-15
v 0.06483018 0.0829789 -1.98952E-15
v 0.1011639 0.02900828 1.2
v 0.1012226 0.02902513 -1.98952E-15
v 0.09889392 -0.03599444 1.2
v 0.09895131 -0.03601536 -1.98952E-15
v 0.05884985 -0.08724853 1.2
v 0.09889392 -0.03599444 1.2
v 0.09895131 -0.03601536 -1.98952E-15
v 0.05888401 -0.08729918 -1.98952E-15
v -0.003674931 -0.1052376 -1.98952E-15
v -0.0036728 -0.1051766 1.2
v -0.0036728 -0.1051766 1.2
v 2.067389E-09 0 1.243863
v 0.05884985 -0.08724853 1.2
v 0.09889392 -0.03599444 1.2
v 0.1011639 0.02900828 1.2
v 0.06479258 0.08293075 1.2
v 0.003672831 0.1051766 1.2
v -0.05884987 0.08724853 1.2
v -0.09889392 0.03599444 1.2
v -0.1011639 -0.02900828 1.2
v -0.06479261 -0.08293075 1.2
v 0.05888401 -0.08729918 -1.98952E-15
v 2.067389E-09 0 -0.03941773
v -0.003674931 -0.1052376 -1.98952E-15
v 0.09895131 -0.03601536 -1.98952E-15
v 0.1012226 0.02902513 -1.98952E-15
v 0.06483018 0.0829789 -1.98952E-15
v 0.003674962 0.1052376 -1.98952E-15
v -0.05888402 0.08729918 -1.98952E-15
v -0.09895131 0.03601536 -1.98952E-15
v -0.1012226 -0.02902513 -1.98952E-15
v -0.06483021 -0.0829789 -1.98952E-15
vt 0.211792 -0.2827148
vt 0.114624 -0.2827148
vt 0.114624 1.257813
vt 0.211792 1.257813
vt 0.3088379 -0.2827148
vt 0.3088379 1.257813
vt 0.01643372 -0.2827148
vt 0.01643372 1.257813
vt 0.4057617 -0.2827148
vt 0.3088379 -0.2827148
vt 0.3088379 1.257813
vt 0.4057617 1.257813
vt 0.5 -0.2827148
vt 0.5 1.257813
vt 0.5981445 -0.2827148
vt 0.5 -0.2827148
vt 0.5 1.257813
vt 0.5981445 1.257813
vt 0.6962891 -0.2827148
vt 0.6962891 1.257813
vt 0.7949219 -0.2827148
vt 0.7949219 1.257813
vt 0.8930664 -0.2827148
vt 0.7949219 -0.2827148
vt 0.7949219 1.257813
vt 0.8930664 1.257813
vt 0.9902344 1.257813
vt 0.9902344 -0.2827148
vt 0.9389648 0.2531738
vt 0.934082 0.2607422
vt 0.9467773 0.2561035
vt 0.949707 0.2607422
vt 0.9467773 0.265625
vt 0.9389648 0.2685547
vt 0.9291992 0.2685547
vt 0.9213867 0.265625
vt 0.9179688 0.2607422
vt 0.9213867 0.2561035
vt 0.9291992 0.2531738
vt 0.9467773 0.284668
vt 0.934082 0.2800293
vt 0.9389648 0.2875977
vt 0.949707 0.2800293
vt 0.9467773 0.2753906
vt 0.9389648 0.2724609
vt 0.9291992 0.2724609
vt 0.9213867 0.2753906
vt 0.9179688 0.2800293
vt 0.9213867 0.284668
vt 0.9291992 0.2875977
vn -0.9606635 -0.2754662 0.03526771
vn -0.6152779 -0.7875209 0.03526775
vn -0.6152806 -0.7875243 -0.03514304
vn -0.9606678 -0.2754675 -0.03514305
vn -0.9391081 0.3418072 0.03526774
vn -0.9391122 0.3418086 -0.03514307
vn -0.03487845 -0.998769 0.03526774
vn -0.03487859 -0.9987734 -0.03514306
vn -0.5588447 0.8285221 0.03526774
vn -0.9391081 0.3418072 0.03526774
vn -0.9391122 0.3418086 -0.03514307
vn -0.5588472 0.8285257 -0.03514305
vn 0.03487845 0.998769 0.03526774
vn 0.03487859 0.9987734 -0.03514306
vn 0.6152781 0.7875209 0.03526774
vn 0.03487845 0.998769 0.03526774
vn 0.03487859 0.9987734 -0.03514306
vn 0.6152807 0.7875243 -0.03514304
vn 0.9606635 0.2754665 0.03526771
vn 0.9606677 0.2754678 -0.03514304
vn 0.9391081 -0.3418072 0.03526774
vn 0.9391121 -0.3418088 -0.03514306
vn 0.5588448 -0.828522 0.03526774
vn 0.9391081 -0.3418072 0.03526774
vn 0.9391121 -0.3418088 -0.03514306
vn 0.5588474 -0.8285256 -0.03514304
vn -0.03487859 -0.9987734 -0.03514306
vn -0.03487845 -0.998769 0.03526774
vn -0.03487845 -0.998769 0.03526774
vn 0 0 1
vn 0.5588448 -0.828522 0.03526774
vn 0.9391081 -0.3418072 0.03526774
vn 0.9606635 0.2754665 0.03526771
vn 0.6152781 0.7875209 0.03526774
vn 0.03487845 0.998769 0.03526774
vn -0.5588447 0.8285221 0.03526774
vn -0.9391081 0.3418072 0.03526774
vn -0.9606635 -0.2754662 0.03526771
vn -0.6152779 -0.7875209 0.03526775
vn 0.5588474 -0.8285256 -0.03514304
vn 0 0 -1
vn -0.03487859 -0.9987734 -0.03514306
vn 0.9391121 -0.3418088 -0.03514306
vn 0.9606677 0.2754678 -0.03514304
vn 0.6152807 0.7875243 -0.03514304
vn 0.03487859 0.9987734 -0.03514306
vn -0.5588472 0.8285257 -0.03514305
vn -0.9391122 0.3418086 -0.03514307
vn -0.9606678 -0.2754675 -0.03514305
vn -0.6152806 -0.7875243 -0.03514304
g m_dlc5_rope_fence_01_0
f 3/3/3 2/2/2 1/1/1
f 4/4/4 3/3/3 1/1/1
f 4/4/4 1/1/1 5/5/5
f 6/6/6 4/4/4 5/5/5
f 7/7/7 2/2/2 3/3/3
f 8/8/8 7/7/7 3/3/3
f 11/11/11 10/10/10 9/9/9
f 12/12/12 11/11/11 9/9/9
f 12/12/12 9/9/9 13/13/13
f 14/14/14 12/12/12 13/13/13
f 17/17/17 16/16/16 15/15/15
f 18/18/18 17/17/17 15/15/15
f 18/18/18 15/15/15 19/19/19
f 20/20/20 18/18/18 19/19/19
f 20/20/20 19/19/19 21/21/21
f 22/22/22 20/20/20 21/21/21
f 25/25/25 24/24/24 23/23/23
f 26/26/26 25/25/25 23/23/23
f 26/26/26 23/23/23 27/27/27
f 23/23/23 28/28/28 27/27/27
f 31/31/31 30/30/30 29/29/29
f 32/32/32 30/30/30 31/31/31
f 33/33/33 30/30/30 32/32/32
f 34/34/34 30/30/30 33/33/33
f 35/35/35 30/30/30 34/34/34
f 36/36/36 30/30/30 35/35/35
f 37/37/37 30/30/30 36/36/36
f 38/38/38 30/30/30 37/37/37
f 39/39/39 30/30/30 38/38/38
f 29/29/29 30/30/30 39/39/39
f 42/42/42 41/41/41 40/40/40
f 40/40/40 41/41/41 43/43/43
f 43/43/43 41/41/41 44/44/44
f 44/44/44 41/41/41 45/45/45
f 45/45/45 41/41/41 46/46/46
f 46/46/46 41/41/41 47/47/47
f 47/47/47 41/41/41 48/48/48
f 48/48/48 41/41/41 49/49/49
f 49/49/49 41/41/41 50/50/50
f 50/50/50 41/41/41 42/42/42
