g m_DLC_04_PathEdge_01
v -0.2797313 0.0899445 -0.1980542
v -0.2137368 0.2621166 -0.1747699
v -0.2354689 0.259453 -0.09646911
v -0.3012683 0.08758999 -0.120473
v -0.2530305 0.08104484 0.1493555
v -0.1999583 0.25524 0.1010175
v -0.06043327 0.2688184 -0.3500928
v -0.08659702 0.09840694 -0.4189148
v -0.1741455 0.3075042 -0.1203253
v -0.2137368 0.2621166 -0.1747699
v -0.06043327 0.2688184 -0.3500928
v -0.002336273 0.3150343 -0.3168778
v -0.1741455 0.3075042 -0.1203253
v 0.1344918 0.3167928 -0.3143262
v 0.01357052 0.2706875 -0.3831689
v 0.147579 0.2727351 -0.3815112
v 0.1473309 0.3064702 0.07954529
v 0.2008409 0.2720534 -0.3292352
v 0.2126369 0.2615025 0.06055603
v -0.1338723 0.3021805 0.09966431
v -0.1999583 0.25524 0.1010175
v -0.2354689 0.259453 -0.09646911
v 0.06631031 0.3032975 0.1580365
v 0.03766426 0.2553184 0.2171258
v -0.1429421 0.2543108 0.1644617
v 0.1824875 0.2590947 0.1358228
v 0.1213643 0.2569991 0.1959811
v -0.2530305 0.08104484 0.1493555
v -0.1999583 0.25524 0.1010175
v -0.1429421 0.2543108 0.1644617
v -0.1991912 0.08016734 0.2092648
v 0.0613464 0.08162101 0.2852368
v 0.03766426 0.2553184 0.2171258
v 0.1213643 0.2569991 0.1959811
v 0.1394309 0.08318882 0.2655121
v 0.249504 0.08755258 0.1568753
v 0.1824875 0.2590947 0.1358228
v 0.2126369 0.2615025 0.06055603
v 0.2794428 0.08994356 0.08213409
v 0.1213643 0.2569991 0.1959811
v 0.1394309 0.08318882 0.2655121
v 0.2652226 0.102408 -0.392821
v 0.2008409 0.2720534 -0.3292352
v 0.1473309 0.3064702 0.07954529
v 0.2652226 0.102408 -0.392821
v 0.2008409 0.2720534 -0.3292352
v 0.147579 0.2727351 -0.3815112
v 0.2077372 0.1031438 -0.4492404
v -0.01307777 0.1002638 -0.4517743
v 0.01357052 0.2706875 -0.3831689
v -0.06043327 0.2688184 -0.3500928
v -0.08659702 0.09840694 -0.4189148
v -0.2530305 0.08104484 0.1493555
v -0.2481946 -0.2811774 0.1397052
v -0.2964336 -0.2746324 -0.1301233
v -0.3012683 0.08758999 -0.120473
v -0.2748989 -0.2722778 -0.2077063
v -0.2797313 0.0899445 -0.1980542
v -0.08175994 -0.2638154 -0.4285644
v -0.08659702 0.09840694 -0.4189148
v 0.0613464 0.08162101 0.2852368
v 0.06618118 -0.2806013 0.2755856
v -0.1943588 -0.282055 0.1996136
v -0.1991912 0.08016734 0.2092648
v -0.2481946 -0.2811774 0.1397052
v -0.2530305 0.08104484 0.1493555
v 0.1394309 0.08318882 0.2655121
v 0.1442644 -0.2790335 0.2558618
v 0.249504 0.08755258 0.1568753
v 0.2543388 -0.2746697 0.1472244
v 0.1442644 -0.2790335 0.2558618
v 0.1394309 0.08318882 0.2655121
v 0.2794428 0.08994356 0.08213409
v 0.2842786 -0.2722788 0.07248382
v 0.2652226 0.102408 -0.392821
v 0.2700573 -0.2598143 -0.4024719
v -0.01307777 0.1002638 -0.4517743
v -0.00824173 -0.2619585 -0.4614249
v 0.2125721 -0.2590785 -0.4588916
v 0.2077372 0.1031438 -0.4492404
v 0.2700573 -0.2598143 -0.4024719
v 0.2652226 0.102408 -0.392821
v -0.08659702 0.09840694 -0.4189148
v -0.08175994 -0.2638154 -0.4285644
vt 0.5419922 0.7353516
vt 0.5786133 0.7163086
vt 0.5688477 0.7001953
vt 0.53125 0.7138672
vt 0.53125 0.637207
vt 0.5683594 0.6547852
vt 0.6201172 0.7460938
vt 0.612793 0.7851563
vt 0.5864258 0.7001953
vt 0.5786133 0.7163086
vt 0.6201172 0.7460938
vt 0.6308594 0.7319336
vt 0.5864258 0.7001953
vt 0.6572266 0.7211914
vt 0.637207 0.7480469
vt 0.6650391 0.7363281
vt 0.6445313 0.6376953
vt 0.6738281 0.7207031
vt 0.6616211 0.6347656
vt 0.5849609 0.6523438
vt 0.5683594 0.6547852
vt 0.5688477 0.7001953
vt 0.6225586 0.6279297
vt 0.6137695 0.6137695
vt 0.578125 0.6367188
vt 0.6508789 0.6210938
vt 0.6333008 0.6132813
vt 0.53125 0.637207
vt 0.5683594 0.6547852
vt 0.578125 0.6367188
vt 0.5415039 0.6166992
vt 0.6069336 0.5742188
vt 0.6137695 0.6137695
vt 0.6333008 0.6132813
vt 0.6318359 0.5722656
vt 0.6767578 0.5917969
vt 0.6508789 0.6210938
vt 0.6616211 0.6347656
vt 0.6938477 0.6113281
vt 0.6333008 0.6132813
vt 0.6318359 0.5722656
vt 0.7099609 0.7402344
vt 0.6738281 0.7207031
vt 0.6445313 0.6376953
vt 0.7099609 0.7402344
vt 0.6738281 0.7207031
vt 0.6650391 0.7363281
vt 0.6992188 0.7597656
vt 0.6386719 0.7871094
vt 0.637207 0.7480469
vt 0.6201172 0.7460938
vt 0.612793 0.7851563
vt 0.4975586 0.8125
vt 0.4975586 0.7314453
vt 0.4362793 0.7314453
vt 0.4362793 0.8125
vt 0.418457 0.7314453
vt 0.418457 0.8125
vt 0.3527832 0.7314453
vt 0.3527832 0.8125
vt 0.09069824 0.8125
vt 0.09069824 0.7314453
vt 0.03005981 0.7314453
vt 0.03005981 0.8125
vt 0.0120697 0.7314453
vt 0.0120697 0.8125
vt 0.1087036 0.8125
vt 0.1087036 0.7314453
vt 0.1433105 0.8125
vt 0.1433105 0.7314453
vt 0.1087036 0.7314453
vt 0.1087036 0.8125
vt 0.1612549 0.8125
vt 0.1612549 0.7314453
vt 0.267334 0.8125
vt 0.267334 0.7314453
vt 0.3347168 0.8125
vt 0.3347168 0.7314453
vt 0.2854004 0.7314453
vt 0.2854004 0.8125
vt 0.267334 0.7314453
vt 0.267334 0.8125
vt 0.3527832 0.8125
vt 0.3527832 0.7314453
vn -0.8114195 0.1148998 -0.5730588
vn -0.7076098 0.4984813 -0.5008042
vn -0.8751938 0.4761715 0.08542023
vn -0.9929437 0.09379759 0.07255938
vn -0.9477683 0.09049434 0.3058529
vn -0.840132 0.4740788 0.2634911
vn -0.6115201 0.5027914 -0.6109369
vn -0.6832103 0.1203898 -0.7202292
vn -0.1024903 0.994733 -0.001476538
vn -0.7076098 0.4984813 -0.5008042
vn -0.6115201 0.5027914 -0.6109369
vn -0.05488677 0.9975923 -0.04238979
vn -0.1024903 0.994733 -0.001476538
vn 0.1139486 0.9931965 -0.02401027
vn -0.09811181 0.4964627 -0.8624958
vn 0.1691741 0.510075 -0.843329
vn 0.08444849 0.9956007 0.04059082
vn 0.8618531 0.4992142 -0.08941203
vn 0.8613423 0.5069767 0.03262172
vn -0.08211657 0.9929138 0.08590067
vn -0.840132 0.4740788 0.2634911
vn -0.8751938 0.4761715 0.08542023
vn -0.008009909 0.9952852 0.09666087
vn -0.1532176 0.4648381 0.8720378
vn -0.3478116 0.4636812 0.8148783
vn 0.6946342 0.4708371 0.5438711
vn 0.4830266 0.4701672 0.7386665
vn -0.9477683 0.09049434 0.3058529
vn -0.840132 0.4740788 0.2634911
vn -0.3478116 0.4636812 0.8148783
vn -0.4052572 0.08066395 0.9106371
vn -0.1539294 0.08189531 0.9846821
vn -0.1532176 0.4648381 0.8720378
vn 0.4830266 0.4701672 0.7386665
vn 0.5455772 0.09858577 0.8322417
vn 0.7945979 0.102777 0.5983738
vn 0.6946342 0.4708371 0.5438711
vn 0.8613423 0.5069767 0.03262172
vn 0.9920392 0.1210485 0.03472111
vn 0.4830266 0.4701672 0.7386665
vn 0.5455772 0.09858577 0.8322417
vn 0.9826785 0.1252728 -0.1365633
vn 0.8618531 0.4992142 -0.08941203
vn 0.08444849 0.9956007 0.04059082
vn 0.9826785 0.1252728 -0.1365633
vn 0.8618531 0.4992142 -0.08941203
vn 0.1691741 0.510075 -0.843329
vn 0.2200584 0.1415394 -0.9651636
vn -0.1118593 0.1314883 -0.9849864
vn -0.09811181 0.4964627 -0.8624958
vn -0.6115201 0.5027914 -0.6109369
vn -0.6832103 0.1203898 -0.7202292
vn -0.9477683 0.09049434 0.3058529
vn -0.955202 -0.02061632 0.2952356
vn -0.9969718 -0.01533847 0.07623608
vn -0.9929437 0.09379759 0.07255938
vn -0.8118712 0.004719266 -0.5838174
vn -0.8114195 0.1148998 -0.5730588
vn -0.6894855 0.01009226 -0.7242292
vn -0.6832103 0.1203898 -0.7202292
vn -0.1539294 0.08189531 0.9846821
vn -0.1635489 -0.02845673 0.9861247
vn -0.3965289 -0.02973875 0.9175404
vn -0.4052572 0.08066395 0.9106371
vn -0.955202 -0.02061632 0.2952356
vn -0.9477683 0.09049434 0.3058529
vn 0.5455772 0.09858577 0.8322417
vn 0.5638045 -0.01447683 0.8257814
vn 0.7945979 0.102777 0.5983738
vn 0.7948983 -0.005555035 0.6067173
vn 0.5638045 -0.01447683 0.8257814
vn 0.5455772 0.09858577 0.8322417
vn 0.9920392 0.1210485 0.03472111
vn 0.9995027 0.01257182 0.02892048
vn 0.9826785 0.1252728 -0.1365633
vn 0.9909332 0.01677949 -0.133304
vn -0.1118593 0.1314883 -0.9849864
vn -0.1028589 0.02511978 -0.9943787
vn 0.2069357 0.02881768 -0.9779301
vn 0.2200584 0.1415394 -0.9651636
vn 0.9909332 0.01677949 -0.133304
vn 0.9826785 0.1252728 -0.1365633
vn -0.6832103 0.1203898 -0.7202292
vn -0.6894855 0.01009226 -0.7242292
g m_DLC_04_PathEdge_01_0
f 3/3/3 2/2/2 1/1/1
f 4/4/4 3/3/3 1/1/1
f 4/4/4 5/5/5 3/3/3
f 5/5/5 6/6/6 3/3/3
f 1/1/1 2/2/2 7/7/7
f 8/8/8 1/1/1 7/7/7
f 3/3/3 9/9/9 2/2/2
f 12/12/12 11/11/11 10/10/10
f 13/13/13 12/12/12 10/10/10
f 14/14/14 12/12/12 13/13/13
f 15/15/15 12/12/12 14/14/14
f 15/15/15 11/11/11 12/12/12
f 16/16/16 15/15/15 14/14/14
f 13/13/13 17/17/17 14/14/14
f 18/18/18 14/14/14 17/17/17
f 18/18/18 16/16/16 14/14/14
f 19/19/19 18/18/18 17/17/17
f 13/13/13 20/20/20 17/17/17
f 21/21/21 20/20/20 13/13/13
f 22/22/22 21/21/21 13/13/13
f 20/20/20 23/23/23 17/17/17
f 24/24/24 23/23/23 20/20/20
f 25/25/25 24/24/24 20/20/20
f 21/21/21 25/25/25 20/20/20
f 26/26/26 17/17/17 23/23/23
f 27/27/27 26/26/26 23/23/23
f 24/24/24 27/27/27 23/23/23
f 30/30/30 29/29/29 28/28/28
f 31/31/31 30/30/30 28/28/28
f 31/31/31 32/32/32 30/30/30
f 32/32/32 33/33/33 30/30/30
f 34/34/34 33/33/33 32/32/32
f 35/35/35 34/34/34 32/32/32
f 38/38/38 37/37/37 36/36/36
f 39/39/39 38/38/38 36/36/36
f 36/36/36 37/37/37 40/40/40
f 41/41/41 36/36/36 40/40/40
f 39/39/39 42/42/42 38/38/38
f 42/42/42 43/43/43 38/38/38
f 37/37/37 38/38/38 44/44/44
f 47/47/47 46/46/46 45/45/45
f 48/48/48 47/47/47 45/45/45
f 48/48/48 49/49/49 47/47/47
f 49/49/49 50/50/50 47/47/47
f 51/51/51 50/50/50 49/49/49
f 52/52/52 51/51/51 49/49/49
f 55/55/55 54/54/54 53/53/53
f 56/56/56 55/55/55 53/53/53
f 57/57/57 55/55/55 56/56/56
f 58/58/58 57/57/57 56/56/56
f 59/59/59 57/57/57 58/58/58
f 60/60/60 59/59/59 58/58/58
f 63/63/63 62/62/62 61/61/61
f 64/64/64 63/63/63 61/61/61
f 65/65/65 63/63/63 64/64/64
f 66/66/66 65/65/65 64/64/64
f 61/61/61 62/62/62 67/67/67
f 62/62/62 68/68/68 67/67/67
f 71/71/71 70/70/70 69/69/69
f 72/72/72 71/71/71 69/69/69
f 69/69/69 70/70/70 73/73/73
f 70/70/70 74/74/74 73/73/73
f 73/73/73 74/74/74 75/75/75
f 74/74/74 76/76/76 75/75/75
f 79/79/79 78/78/78 77/77/77
f 80/80/80 79/79/79 77/77/77
f 81/81/81 79/79/79 80/80/80
f 82/82/82 81/81/81 80/80/80
f 77/77/77 78/78/78 83/83/83
f 78/78/78 84/84/84 83/83/83
