g m_dlc5_twig_06
v 0.1837188 -0.03085626 -0.2385059
v -0.2022801 -0.03045948 0.08891386
v -0.1881128 -0.09048949 0.1023205
v 0.1899394 -0.09344584 -0.2199443
v -0.142267 -0.09048949 0.1457049
v 0.208815 -0.09694723 -0.1596588
v -0.1280998 -0.03045949 0.1591114
v 0.2132303 -0.03754713 -0.1417976
v 0.2166597 -0.03113565 -0.2667044
v 0.2328879 -0.09452856 -0.2545983
v 0.2839761 -0.0997256 -0.2151238
v 0.3004653 -0.03045948 -0.3407321
v 0.3035238 -0.09048949 -0.3281898
v 0.3258208 -0.09048949 -0.2692688
v 0.2974236 -0.04026676 -0.2041328
v 0.3323867 -0.03045949 -0.2515406
v 0.2540829 -0.09167213 -0.1214527
v 0.2596639 -0.02991865 -0.1096459
v 0.3146951 -0.09151071 -0.2010592
v -0.1554365 -0.03467484 0.1606829
v -0.1643947 -0.07263296 0.1522057
v -0.1788893 -0.04421894 0.1384892
v -0.1933839 -0.07263297 0.1247729
v -0.2023421 -0.03467483 0.1162957
v 0.2866944 -0.07077324 -0.1241692
v 0.2899131 -0.03516484 -0.1173612
v 0.3154946 -0.07068015 -0.1690479
v 0.3226807 -0.03518929 -0.167752
v 0.3164908 -0.02996106 -0.1970355
v 0.3043022 -0.04409152 -0.1441922
v 0.2132303 -0.03754713 -0.1417976
v -0.1280998 -0.03045949 0.1591114
v -0.1651899 0.006641101 0.1240127
v 0.1981655 0.003371959 -0.1902422
v -0.2022801 -0.03045948 0.08891386
v 0.1837188 -0.03085626 -0.2385059
v 0.2564305 0.001887158 -0.2356894
v 0.2166597 -0.03113565 -0.2667044
v 0.314484 0.006641103 -0.2990077
v 0.3323867 -0.03045949 -0.2515406
v 0.2974236 -0.04026676 -0.2041328
v 0.2546437 -0.0007092299 -0.1736704
v 0.3004653 -0.03045948 -0.3407321
v 0.2596639 -0.02991865 -0.1096459
v 0.2845831 0.007052308 -0.1559912
v 0.3164908 -0.02996106 -0.1970355
v -0.1788893 -0.01121545 0.1384892
v -0.1554365 -0.03467484 0.1606829
v -0.2023421 -0.03467483 0.1162957
v 0.2899131 -0.03516484 -0.1173612
v 0.3042819 -0.0138466 -0.144085
v 0.3226807 -0.03518929 -0.167752
v 0.3835132 -0.03045949 -0.2911518
v 0.3663123 0.006641103 -0.3392124
v 0.907556 -0.03045949 -0.6303313
v 0.8948063 0.006641098 -0.6799331
v 0.3467734 -0.03045948 -0.3864854
v 0.8704069 -0.03045948 -0.7213787
v 0.9523867 0.006641098 -0.7203538
v 0.9448613 0.006641098 -0.6528651
v 0.9206569 -0.03045948 -0.7605321
v 0.9903533 -0.03045949 -0.692341
v 0.9436345 -0.03045949 -0.5871795
v 0.9795143 0.006641098 -0.6247078
v 1.020123 -0.03045949 -0.6691536
v 1.10397 -0.001114653 -0.9212541
v 1.07618 -0.03229036 -0.9507843
v 1.132315 -0.03229037 -0.8866473
v 1.435883 -0.03644139 -1.114472
v 1.418406 -0.01871854 -1.131577
v 1.42714 -0.03041242 -1.135644
v 1.417477 -0.0399358 -1.144536
v 1.401324 -0.03645236 -1.148188
v 1.436199 -0.04034557 -1.12714
v 0.9745982 -0.03583531 -0.5903236
v 0.9936538 -0.01613127 -0.6102548
v 1.02067 -0.03583531 -0.6386624
v 0.3557799 -0.09048949 -0.3687596
v 0.8868872 -0.09048949 -0.7105869
v 0.8704069 -0.03045948 -0.7213787
v 0.3467734 -0.03045948 -0.3864854
v 0.377223 -0.09048949 -0.3090446
v 0.9024867 -0.09048949 -0.6492673
v 0.3835132 -0.03045949 -0.2911518
v 0.907556 -0.03045949 -0.6303313
v 0.9206569 -0.03045948 -0.7605321
v 0.9307439 -0.09048949 -0.7435473
v 0.9812462 -0.09048949 -0.7094084
v 0.9328589 -0.09048949 -0.6034377
v 0.9436345 -0.03045949 -0.5871795
v 1.005086 -0.09048949 -0.6815755
v 1.086757 -0.08273374 -0.9379643
v 1.120979 -0.08273374 -0.9003987
v 0.9903533 -0.03045949 -0.692341
v 1.132315 -0.03229037 -0.8866473
v 1.07618 -0.03229036 -0.9507843
v 1.401324 -0.03645236 -1.148188
v 1.407982 -0.06510966 -1.141725
v 1.421702 -0.05516349 -1.140539
v 1.417477 -0.0399358 -1.144536
v 1.43276 -0.05449469 -1.130285
v 1.429515 -0.06514106 -1.12059
v 1.436199 -0.04034557 -1.12714
v 1.435883 -0.03644139 -1.114472
v 0.9688752 -0.06771712 -0.5989582
v 1.012684 -0.06771712 -0.6452597
v 1.02067 -0.03583531 -0.6386624
v 1.020123 -0.03045949 -0.6691536
v 0.9892749 -0.0436766 -0.6126217
v 0.9745982 -0.03583531 -0.5903236
v 0.2839761 -0.0997256 -0.2151238
v 0.3146951 -0.09151071 -0.2010592
v 0.3164908 -0.02996106 -0.1970355
v 0.2974236 -0.04026676 -0.2041328
v 0.9812462 -0.09048949 -0.7094084
v 1.005086 -0.09048949 -0.6815755
v 1.020123 -0.03045949 -0.6691536
v 0.9903533 -0.03045949 -0.692341
v -0.1554365 -0.03467484 0.1606829
v -0.1788893 -0.04421894 0.1384892
v -0.1788893 -0.01121545 0.1384892
v -0.2023421 -0.03467483 0.1162957
v 1.421702 -0.05516349 -1.140539
v 1.42807 -0.04326559 -1.134269
v 1.417477 -0.0399358 -1.144536
v 1.43276 -0.05449469 -1.130285
v 1.436199 -0.04034557 -1.12714
v 1.42714 -0.03041242 -1.135644
v 1.42807 -0.04326559 -1.134269
v 1.436199 -0.04034557 -1.12714
v 1.417477 -0.0399358 -1.144536
v 0.3042819 -0.0138466 -0.144085
v 0.3043022 -0.04409152 -0.1441922
v 0.2899131 -0.03516484 -0.1173612
v 0.3226807 -0.03518929 -0.167752
v 0.9936538 -0.01613127 -0.6102548
v 0.9892749 -0.0436766 -0.6126217
v 0.9745982 -0.03583531 -0.5903236
v 1.02067 -0.03583531 -0.6386624
v 0.3197363 0.006641103 -0.3599019
v 0.300893 0.006641103 -0.3841961
v 0.2785828 -0.03045948 -0.3695193
v 0.3346291 -0.03045948 -0.4008743
v 0.2984789 -0.01189166 -0.3932584
v 0.2809308 -0.03483447 -0.3776408
v 0.3194794 -0.03483447 -0.4033675
v 0.2816759 -0.09048949 -0.3569262
v 0.3423578 -0.09048949 -0.3850377
v 0.3346291 -0.03045948 -0.4008743
v 0.2910065 -0.07195673 -0.3773318
v 0.2809308 -0.03483447 -0.3776408
v 0.2785828 -0.03045948 -0.3695193
v 0.3241386 -0.07195673 -0.393752
v 0.3194794 -0.03483447 -0.4033675
v 0.3029044 -0.04379377 -0.3849131
v 0.3035238 -0.09048949 -0.3281898
v 0.2816759 -0.09048949 -0.3569262
v 0.2785828 -0.03045948 -0.3695193
v 0.3004653 -0.03045948 -0.3407321
v 0.2809308 -0.03483447 -0.3776408
v 0.3029044 -0.04379377 -0.3849131
v 0.2984789 -0.01189166 -0.3932584
v 0.3194794 -0.03483447 -0.4033675
vt 0.7441406 0.1062622
vt 0.7426758 0.1407471
vt 0.7412109 0.1405029
vt 0.7431641 0.1066284
vt 0.7373047 0.1396484
vt 0.7392578 0.1079712
vt 0.7358398 0.1394043
vt 0.737793 0.1083984
vt 0.7446289 0.1032715
vt 0.7431641 0.1028442
vt 0.7387695 0.1015625
vt 0.7451172 0.09570313
vt 0.7441406 0.0960083
vt 0.7402344 0.09710693
vt 0.737793 0.1012573
vt 0.7387695 0.09741211
vt 0.7353516 0.1069336
vt 0.734375 0.1071167
vt 0.7368164 0.1004028
vt 0.7368164 0.1409912
vt 0.737793 0.1411133
vt 0.7392578 0.1413574
vt 0.7402344 0.1417236
vt 0.7412109 0.1418457
vt 0.7338867 0.1050415
vt 0.7333984 0.1051025
vt 0.7353516 0.1016235
vt 0.7348633 0.1012573
vt 0.7368164 0.1004639
vt 0.734375 0.1032715
vt 0.737793 0.1083984
vt 0.7358398 0.1394043
vt 0.7392578 0.1400146
vt 0.7412109 0.1073608
vt 0.7426758 0.1407471
vt 0.7441406 0.1062622
vt 0.7412109 0.1022949
vt 0.7446289 0.1032715
vt 0.7421875 0.09655762
vt 0.7387695 0.09741211
vt 0.737793 0.1012573
vt 0.737793 0.1048584
vt 0.7451172 0.09570313
vt 0.734375 0.1071167
vt 0.7358398 0.1038818
vt 0.7368164 0.1004639
vt 0.7392578 0.1413574
vt 0.7368164 0.1409912
vt 0.7412109 0.1418457
vt 0.7333984 0.1051025
vt 0.734375 0.1032715
vt 0.7348633 0.1012573
vt 0.7387695 0.09301758
vt 0.7421875 0.09204102
vt 0.7353516 0.05032349
vt 0.7387695 0.04907227
vt 0.7456055 0.09130859
vt 0.7416992 0.04879761
vt 0.7382813 0.04425049
vt 0.7348633 0.04733276
vt 0.7416992 0.04443359
vt 0.7353516 0.04324341
vt 0.7314453 0.05001831
vt 0.7319336 0.04650879
vt 0.7329102 0.04251099
vt 0.7426758 0.02784729
vt 0.7456055 0.02822876
vt 0.7397461 0.02763367
vt 0.7397461 0.001667023
vt 0.7412109 0.001966476
vt 0.7412109 0.001318932
vt 0.7416992 0.001506805
vt 0.7426758 0.00226593
vt 0.7402344 0.001149178
vt 0.7304688 0.04815674
vt 0.730957 0.04629517
vt 0.730957 0.04367065
vt 0.7441406 0.0914917
vt 0.7407227 0.04830933
vt 0.7416992 0.04879761
vt 0.7456055 0.09130859
vt 0.7402344 0.09265137
vt 0.7368164 0.04986572
vt 0.7387695 0.09301758
vt 0.7353516 0.05032349
vt 0.7416992 0.04443359
vt 0.7407227 0.04455566
vt 0.7368164 0.04309082
vt 0.7329102 0.04995728
vt 0.7314453 0.05001831
vt 0.7338867 0.04284668
vt 0.7446289 0.02815247
vt 0.7412109 0.02772522
vt 0.7353516 0.04324341
vt 0.7397461 0.02763367
vt 0.7456055 0.02822876
vt 0.7426758 0.00226593
vt 0.7421875 0.002147675
vt 0.7416992 0.001428604
vt 0.7416992 0.001506805
vt 0.7407227 0.001216888
vt 0.7402344 0.001781464
vt 0.7402344 0.001149178
vt 0.7397461 0.001667023
vt 0.730957 0.04812622
vt 0.7319336 0.04385376
vt 0.730957 0.04367065
vt 0.7329102 0.04251099
vt 0.730957 0.04644775
vt 0.7304688 0.04815674
vt 0.7387695 0.1015625
vt 0.7368164 0.1004028
vt 0.7368164 0.1004639
vt 0.737793 0.1012573
vt 0.7368164 0.04309082
vt 0.7338867 0.04284668
vt 0.7329102 0.04251099
vt 0.7353516 0.04324341
vt 0.7368164 0.1409912
vt 0.7392578 0.1413574
vt 0.7392578 0.1413574
vt 0.7412109 0.1418457
vt 0.7416992 0.001428604
vt 0.7407227 0.001320839
vt 0.7416992 0.001506805
vt 0.7407227 0.001216888
vt 0.7402344 0.001149178
vt 0.7412109 0.001318932
vt 0.7407227 0.001320839
vt 0.7402344 0.001149178
vt 0.7416992 0.001506805
vt 0.734375 0.1032715
vt 0.734375 0.1032715
vt 0.7333984 0.1051025
vt 0.7348633 0.1012573
vt 0.730957 0.04629517
vt 0.730957 0.04644775
vt 0.7304688 0.04815674
vt 0.730957 0.04367065
vt 0.7451172 0.09387207
vt 0.7470703 0.09393311
vt 0.7475586 0.09576416
vt 0.746582 0.09143066
vt 0.7480469 0.09375
vt 0.7475586 0.09533691
vt 0.7475586 0.09216309
vt 0.746582 0.09606934
vt 0.7456055 0.09161377
vt 0.746582 0.09143066
vt 0.7470703 0.0947876
vt 0.7475586 0.09533691
vt 0.7475586 0.09576416
vt 0.746582 0.09228516
vt 0.7475586 0.09216309
vt 0.7470703 0.09381104
vt 0.7441406 0.0960083
vt 0.746582 0.09606934
vt 0.7475586 0.09576416
vt 0.7451172 0.09570313
vt 0.7475586 0.09533691
vt 0.7470703 0.09381104
vt 0.7480469 0.09375
vt 0.7475586 0.09216309
vn -0.6251969 0.2497606 -0.7394244
vn -0.6424489 0.2753577 -0.7151487
vn -0.4504519 -0.7533687 -0.4790914
vn -0.4548241 -0.7195401 -0.5247831
vn 0.3434682 -0.8280308 0.4431642
vn 0.2405488 -0.9017941 0.3590315
vn 0.6112322 0.3143715 0.7263374
vn 0.5363312 0.3521849 0.7670166
vn -0.6449173 0.2892994 -0.7073807
vn -0.4099288 -0.7793527 -0.4738857
vn 0.2381041 -0.9683771 0.07451402
vn -0.8743304 0.3069222 -0.3759589
vn -0.4485372 -0.8387052 -0.3088496
vn 0.4024552 -0.8513958 0.3363852
vn 0.8392523 0.5336393 0.1043296
vn 0.6494555 0.3653572 0.6668745
vn -0.1232018 -0.7519628 0.6475903
vn -0.3572505 0.3619932 0.8610069
vn 0.4869181 -0.8595362 -0.1552689
vn -0.1153383 0.2035366 0.9722499
vn -0.3023836 -0.4699819 0.8292654
vn -0.6873397 3.404339E-07 0.726336
vn -0.8113346 -0.4699817 0.3476397
vn -0.9644131 0.2035366 0.1687611
vn 0.5105053 -0.5225503 0.6828803
vn 0.401687 0.2284105 0.8868349
vn 0.8143138 -0.5078894 0.2809649
vn 0.9590181 0.2787804 0.05065344
vn 0.6431897 0.4870804 -0.5908127
vn 0.8347069 -0.1090689 0.5397854
vn 0.5363312 0.3521849 0.7670166
vn 0.6112322 0.3143715 0.7263374
vn -0.02356029 0.9996897 -0.008082773
vn -0.09912077 0.9885936 -0.1133921
vn -0.6424489 0.2753577 -0.7151487
vn -0.6251969 0.2497606 -0.7394244
vn -0.07361259 0.9869195 -0.1434267
vn -0.6449173 0.2892994 -0.7073807
vn -0.03954742 0.9975098 0.05839644
vn 0.6494555 0.3653572 0.6668745
vn 0.8392523 0.5336393 0.1043296
vn -0.08278751 0.9820858 0.1692742
vn -0.8743304 0.3069222 -0.3759589
vn -0.3572505 0.3619932 0.8610069
vn 0.003148887 0.9944648 0.1050228
vn 0.6431897 0.4870804 -0.5908127
vn -0.5284253 0.6394929 0.5584046
vn -0.1153383 0.2035366 0.9722499
vn -0.9644131 0.2035366 0.1687611
vn 0.401687 0.2284105 0.8868349
vn 0.6320327 0.6609312 0.4046042
vn 0.9590181 0.2787804 0.05065344
vn 0.5287865 0.2808222 0.8009518
vn 0.06281629 0.9949905 0.07776852
vn 0.4336084 0.3586422 0.8266556
vn -0.06369296 0.9948407 -0.07896327
vn -0.4736874 0.3349193 -0.8145241
vn -0.5245062 0.2751364 -0.8057253
vn 0.02688688 0.9975024 -0.06531571
vn -0.04257546 0.9874504 0.1520827
vn -0.7030507 0.3210285 -0.6345552
vn 0.8200607 0.449672 0.3539711
vn -0.5029339 0.3460828 0.7920128
vn 0.1221862 0.980899 0.1513531
vn 0.7713528 0.4834812 -0.4138367
vn -0.01715638 0.9972787 -0.07169864
vn -0.6240922 0.2732333 -0.7320195
vn 0.6734381 0.3288755 0.6620589
vn 0.5841426 0.2920129 0.7573017
vn 0.08591582 0.9960162 0.02387796
vn 0.6201072 0.5454541 -0.5638676
vn 0.3102691 0.1396842 -0.9403304
vn -0.4829906 0.2993705 -0.8228592
vn 0.9755766 0.1782582 -0.1283523
vn 0.2465544 0.1581312 0.9561409
vn 0.5801026 0.5869308 0.564795
vn 0.9461382 0.2286439 0.2292259
vn -0.2703042 -0.8531395 -0.4461935
vn -0.3410467 -0.7817755 -0.522029
vn -0.5245062 0.2751364 -0.8057253
vn -0.4736874 0.3349193 -0.8145241
vn 0.3550274 -0.7632729 0.539787
vn 0.2280771 -0.878971 0.418797
vn 0.5287865 0.2808222 0.8009518
vn 0.4336084 0.3586422 0.8266556
vn -0.7030507 0.3210285 -0.6345552
vn -0.410313 -0.8234895 -0.3918012
vn 0.4272467 -0.8771567 0.2192173
vn -0.2878503 -0.7994037 0.5273479
vn -0.5029339 0.3460828 0.7920128
vn 0.4560141 -0.8788049 -0.1405457
vn -0.4025712 -0.7681943 -0.4978094
vn 0.4081456 -0.8325188 0.374606
vn 0.8200607 0.449672 0.3539711
vn 0.6734381 0.3288755 0.6620589
vn -0.6240922 0.2732333 -0.7320195
vn -0.4829906 0.2993705 -0.8228592
vn -0.2590901 -0.8254445 -0.5015116
vn 0.435769 -0.4045801 -0.8040027
vn 0.3102691 0.1396842 -0.9403304
vn 0.8389466 -0.4404197 -0.3196858
vn 0.4122095 -0.7658365 0.493536
vn 0.9755766 0.1782582 -0.1283523
vn 0.5841426 0.2920129 0.7573017
vn 0.3795934 -0.6403586 0.6677199
vn 0.7027538 -0.6315612 0.3275174
vn 0.9461382 0.2286439 0.2292259
vn 0.7713528 0.4834812 -0.4138367
vn 0.7084202 -0.2267323 0.6683812
vn 0.2465544 0.1581312 0.9561409
vn 0.2381041 -0.9683771 0.07451402
vn 0.4869181 -0.8595362 -0.1552689
vn 0.6431897 0.4870804 -0.5908127
vn 0.8392523 0.5336393 0.1043296
vn 0.4272467 -0.8771567 0.2192173
vn 0.4560141 -0.8788049 -0.1405457
vn 0.7713528 0.4834812 -0.4138367
vn 0.8200607 0.449672 0.3539711
vn -0.1153383 0.2035366 0.9722499
vn -0.6873397 3.404339E-07 0.726336
vn -0.5284253 0.6394929 0.5584046
vn -0.9644131 0.2035366 0.1687611
vn 0.435769 -0.4045801 -0.8040027
vn 0.6794981 -0.005159659 -0.7336591
vn 0.3102691 0.1396842 -0.9403304
vn 0.8389466 -0.4404197 -0.3196858
vn 0.9755766 0.1782582 -0.1283523
vn 0.6201072 0.5454541 -0.5638676
vn 0.6794981 -0.005159659 -0.7336591
vn 0.9755766 0.1782582 -0.1283523
vn 0.3102691 0.1396842 -0.9403304
vn 0.6320327 0.6609312 0.4046042
vn 0.8347069 -0.1090689 0.5397854
vn 0.401687 0.2284105 0.8868349
vn 0.9590181 0.2787804 0.05065344
vn 0.5801026 0.5869308 0.564795
vn 0.7084202 -0.2267323 0.6683812
vn 0.2465544 0.1581312 0.9561409
vn 0.9461382 0.2286439 0.2292259
vn -0.1957736 0.9722316 -0.1282125
vn -0.2823942 0.9558722 -0.08100543
vn -0.8879421 0.2849435 0.3610623
vn 0.5528259 0.3169739 -0.7706562
vn -0.4333748 0.3036544 -0.8485166
vn -0.7975695 -0.0445182 -0.6015821
vn -0.09470195 -0.009530592 -0.99546
vn -0.7642632 -0.5961387 0.2460093
vn 0.247492 -0.8218035 -0.5132121
vn 0.5528259 0.3169739 -0.7706562
vn -0.5538151 -0.4330184 -0.7111849
vn -0.7975695 -0.0445182 -0.6015821
vn -0.8879421 0.2849435 0.3610623
vn -0.1634939 -0.4379771 -0.8839942
vn -0.09470195 -0.009530592 -0.99546
vn -0.50545 -0.1910369 -0.8414423
vn -0.4485372 -0.8387052 -0.3088496
vn -0.7642632 -0.5961387 0.2460093
vn -0.8879421 0.2849435 0.3610623
vn -0.8743304 0.3069222 -0.3759589
vn -0.7975695 -0.0445182 -0.6015821
vn -0.50545 -0.1910369 -0.8414423
vn -0.4333748 0.3036544 -0.8485166
vn -0.09470195 -0.009530592 -0.99546
g m_dlc5_twig_06_0
f 3/3/3 2/2/2 1/1/1
f 4/4/4 3/3/3 1/1/1
f 5/5/5 3/3/3 4/4/4
f 6/6/6 5/5/5 4/4/4
f 7/7/7 5/5/5 6/6/6
f 8/8/8 7/7/7 6/6/6
f 1/1/1 9/9/9 4/4/4
f 9/9/9 10/10/10 4/4/4
f 4/4/4 10/10/10 6/6/6
f 10/10/10 11/11/11 6/6/6
f 9/9/9 12/12/12 10/10/10
f 12/12/12 13/13/13 10/10/10
f 10/10/10 13/13/13 11/11/11
f 13/13/13 14/14/14 11/11/11
f 11/11/11 14/14/14 15/15/15
f 14/14/14 16/16/16 15/15/15
f 6/6/6 17/17/17 8/8/8
f 17/17/17 18/18/18 8/8/8
f 19/19/19 17/17/17 6/6/6
f 11/11/11 19/19/19 6/6/6
f 7/7/7 20/20/20 5/5/5
f 20/20/20 21/21/21 5/5/5
f 20/20/20 22/22/22 21/21/21
f 21/21/21 22/22/22 23/23/23
f 21/21/21 23/23/23 3/3/3
f 3/3/3 23/23/23 2/2/2
f 23/23/23 24/24/24 2/2/2
f 23/23/23 22/22/22 24/24/24
f 5/5/5 21/21/21 3/3/3
f 17/17/17 25/25/25 18/18/18
f 25/25/25 26/26/26 18/18/18
f 27/27/27 25/25/25 17/17/17
f 19/19/19 27/27/27 17/17/17
f 28/28/28 27/27/27 19/19/19
f 29/29/29 28/28/28 19/19/19
f 25/25/25 30/30/30 26/26/26
f 27/27/27 30/30/30 25/25/25
f 28/28/28 30/30/30 27/27/27
f 33/33/33 32/32/32 31/31/31
f 34/34/34 33/33/33 31/31/31
f 35/35/35 33/33/33 34/34/34
f 36/36/36 35/35/35 34/34/34
f 34/34/34 37/37/37 36/36/36
f 37/37/37 38/38/38 36/36/36
f 37/37/37 39/39/39 38/38/38
f 40/40/40 39/39/39 37/37/37
f 41/41/41 40/40/40 37/37/37
f 42/42/42 41/41/41 37/37/37
f 31/31/31 42/42/42 34/34/34
f 42/42/42 37/37/37 34/34/34
f 39/39/39 43/43/43 38/38/38
f 31/31/31 44/44/44 42/42/42
f 44/44/44 45/45/45 42/42/42
f 42/42/42 45/45/45 41/41/41
f 45/45/45 46/46/46 41/41/41
f 33/33/33 47/47/47 32/32/32
f 47/47/47 48/48/48 32/32/32
f 49/49/49 47/47/47 33/33/33
f 35/35/35 49/49/49 33/33/33
f 44/44/44 50/50/50 45/45/45
f 50/50/50 51/51/51 45/45/45
f 45/45/45 51/51/51 46/46/46
f 51/51/51 52/52/52 46/46/46
f 40/40/40 53/53/53 39/39/39
f 53/53/53 54/54/54 39/39/39
f 53/53/53 55/55/55 54/54/54
f 55/55/55 56/56/56 54/54/54
f 54/54/54 56/56/56 57/57/57
f 56/56/56 58/58/58 57/57/57
f 56/56/56 59/59/59 58/58/58
f 60/60/60 59/59/59 56/56/56
f 55/55/55 60/60/60 56/56/56
f 59/59/59 61/61/61 58/58/58
f 60/60/60 62/62/62 59/59/59
f 55/55/55 63/63/63 60/60/60
f 63/63/63 64/64/64 60/60/60
f 60/60/60 64/64/64 62/62/62
f 64/64/64 65/65/65 62/62/62
f 59/59/59 66/66/66 61/61/61
f 66/66/66 67/67/67 61/61/61
f 68/68/68 66/66/66 59/59/59
f 62/62/62 68/68/68 59/59/59
f 68/68/68 69/69/69 66/66/66
f 69/69/69 70/70/70 66/66/66
f 66/66/66 70/70/70 67/67/67
f 71/71/71 70/70/70 69/69/69
f 70/70/70 71/71/71 72/72/72
f 73/73/73 70/70/70 72/72/72
f 70/70/70 73/73/73 67/67/67
f 74/74/74 71/71/71 69/69/69
f 63/63/63 75/75/75 64/64/64
f 75/75/75 76/76/76 64/64/64
f 64/64/64 76/76/76 65/65/65
f 76/76/76 77/77/77 65/65/65
f 80/80/80 79/79/79 78/78/78
f 81/81/81 80/80/80 78/78/78
f 78/78/78 79/79/79 82/82/82
f 79/79/79 83/83/83 82/82/82
f 82/82/82 83/83/83 84/84/84
f 83/83/83 85/85/85 84/84/84
f 80/80/80 86/86/86 79/79/79
f 86/86/86 87/87/87 79/79/79
f 79/79/79 87/87/87 83/83/83
f 87/87/87 88/88/88 83/83/83
f 83/83/83 89/89/89 85/85/85
f 89/89/89 90/90/90 85/85/85
f 91/91/91 89/89/89 83/83/83
f 88/88/88 91/91/91 83/83/83
f 87/87/87 92/92/92 88/88/88
f 92/92/92 93/93/93 88/88/88
f 88/88/88 93/93/93 94/94/94
f 93/93/93 95/95/95 94/94/94
f 96/96/96 92/92/92 87/87/87
f 86/86/86 96/96/96 87/87/87
f 96/96/96 97/97/97 92/92/92
f 97/97/97 98/98/98 92/92/92
f 92/92/92 98/98/98 93/93/93
f 99/99/99 98/98/98 97/97/97
f 100/100/100 99/99/99 97/97/97
f 99/99/99 101/101/101 98/98/98
f 101/101/101 102/102/102 98/98/98
f 98/98/98 102/102/102 93/93/93
f 93/93/93 102/102/102 95/95/95
f 101/101/101 103/103/103 102/102/102
f 103/103/103 104/104/104 102/102/102
f 102/102/102 104/104/104 95/95/95
f 89/89/89 105/105/105 90/90/90
f 106/106/106 105/105/105 89/89/89
f 91/91/91 106/106/106 89/89/89
f 107/107/107 106/106/106 91/91/91
f 108/108/108 107/107/107 91/91/91
f 106/106/106 109/109/109 105/105/105
f 107/107/107 109/109/109 106/106/106
f 105/105/105 109/109/109 110/110/110
f 105/105/105 110/110/110 90/90/90
f 113/113/113 112/112/112 111/111/111
f 114/114/114 113/113/113 111/111/111
f 117/117/117 116/116/116 115/115/115
f 118/118/118 117/117/117 115/115/115
f 121/121/121 120/120/120 119/119/119
f 122/122/122 120/120/120 121/121/121
f 125/125/125 124/124/124 123/123/123
f 123/123/123 124/124/124 126/126/126
f 126/126/126 124/124/124 127/127/127
f 130/130/130 129/129/129 128/128/128
f 128/128/128 129/129/129 131/131/131
f 134/134/134 133/133/133 132/132/132
f 132/132/132 133/133/133 135/135/135
f 138/138/138 137/137/137 136/136/136
f 136/136/136 137/137/137 139/139/139
f 39/39/39 54/54/54 140/140/140
f 54/54/54 57/57/57 140/140/140
f 39/39/39 140/140/140 43/43/43
f 140/140/140 141/141/141 43/43/43
f 141/141/141 142/142/142 43/43/43
f 143/143/143 141/141/141 140/140/140
f 57/57/57 143/143/143 140/140/140
f 141/141/141 144/144/144 142/142/142
f 144/144/144 145/145/145 142/142/142
f 146/146/146 144/144/144 141/141/141
f 143/143/143 146/146/146 141/141/141
f 82/82/82 84/84/84 16/16/16
f 14/14/14 82/82/82 16/16/16
f 78/78/78 82/82/82 14/14/14
f 13/13/13 78/78/78 14/14/14
f 13/13/13 147/147/147 78/78/78
f 147/147/147 148/148/148 78/78/78
f 78/78/78 148/148/148 81/81/81
f 148/148/148 149/149/149 81/81/81
f 147/147/147 150/150/150 148/148/148
f 151/151/151 150/150/150 147/147/147
f 152/152/152 151/151/151 147/147/147
f 150/150/150 153/153/153 148/148/148
f 148/148/148 153/153/153 149/149/149
f 153/153/153 154/154/154 149/149/149
f 151/151/151 155/155/155 150/150/150
f 150/150/150 155/155/155 153/153/153
f 153/153/153 155/155/155 154/154/154
f 158/158/158 157/157/157 156/156/156
f 159/159/159 158/158/158 156/156/156
f 162/162/162 161/161/161 160/160/160
f 163/163/163 161/161/161 162/162/162
