g m_dlc5_stair_rope_02
v 0.01876533 0.1679881 -0.3761661
v -0.1145282 0.2281215 -0.05119164
v -0.06194503 0.20996 -0.0274838
v 0.06133341 0.1466546 -0.3339654
v -0.1821714 0.1493502 0.2422752
v -0.2338918 0.1698942 0.2198486
v -0.2502551 0.1636702 0.2534232
v -0.1960083 0.1519797 0.270364
v 0.009557781 0.219492 -0.4120458
v -0.1384355 0.2719672 -0.06197059
v -0.2883051 0.1918939 0.2780699
v -0.2654362 0.2194919 0.2315378
v 0.03900938 0.270996 -0.4206536
v -0.116894 0.3158129 -0.05225828
v -0.2876644 0.2201175 0.3300108
v -0.2585441 0.2690896 0.2703418
v 0.09208494 0.2923295 -0.3953831
v -0.06283523 0.3339745 -0.02788517
v -0.2457096 0.2318081 0.380935
v -0.2162292 0.2896336 0.314252
v 0.1342041 0.270996 -0.353499
v -0.008967398 0.3158129 -0.003598121
v -0.1943208 0.2201175 0.3958596
v -0.163616 0.2690896 0.3373084
v 0.1424716 0.219492 -0.3182825
v 0.01337852 0.2719672 0.00647683
v -0.156571 0.1918939 0.371001
v -0.1336072 0.2194919 0.3245359
v 0.1128111 0.1679881 -0.3098221
v -0.009307771 0.2281215 -0.00375158
v -0.1570837 0.1636702 0.3191506
v -0.1407469 0.1698942 0.2855571
v -0.06194503 0.20996 -0.0274838
v 0.06133341 0.1466546 -0.3339654
v -0.1960083 0.1519797 0.270364
v -0.1821714 0.1493502 0.2422752
v 0.1674469 0.1958675 -0.3684001
v 0.1659289 0.2271977 -0.4166564
v 0.1805558 0.1515012 -0.4468192
v 0.1424855 0.1543384 -0.5022712
v 0.1244987 0.2401751 -0.4654281
v 0.08678758 0.1515012 -0.5129675
v 0.07200546 0.2271977 -0.4829143
v 0.04113458 0.1446515 -0.4761375
v 0.03484505 0.1958675 -0.4619434
v 0.03243984 0.1378019 -0.4132355
v 0.03659992 0.1645373 -0.4135199
v 0.06831108 0.1349647 -0.3593349
v 0.07650318 0.1515599 -0.3658254
v 0.04668488 0.02883247 -0.3509071
v 0.01131561 0.02048576 -0.4027919
v 0.005503845 -0.1033028 -0.2683409
v -0.03326288 -0.1209213 -0.3147904
v -0.04395609 -0.1779171 -0.129252
v -0.08874426 -0.2007712 -0.1677412
v 0.02026302 0.0003350639 -0.4615035
v -0.03165932 -0.163456 -0.3597745
v -0.1012698 -0.2559457 -0.19322
v 0.06693584 -0.01981563 -0.4936019
v 0.008775005 -0.2059907 -0.3773656
v -0.07464986 -0.3111203 -0.1910837
v 0.1248665 -0.02816234 -0.4796686
v 0.06421553 -0.2236093 -0.357357
v -0.0249707 -0.3339744 -0.1629314
v 0.160832 -0.01981563 -0.4273633
v 0.1011011 -0.2059907 -0.3122346
v 0.0177482 -0.3111203 -0.125902
v 0.1735222 0.1446515 -0.3827453
v 0.1520554 0.0003350639 -0.3685312
v 0.1007604 -0.163456 -0.2663597
v 0.03216648 -0.2559457 -0.099088
v 0.1305299 0.1645373 -0.3472574
v 0.1261685 0.1378019 -0.3471151
v 0.1044112 0.02048576 -0.337118
v 0.06056215 -0.1209213 -0.248602
v 0.006065597 -0.2007712 -0.1008581
v 0.07650318 0.1515599 -0.3658254
v 0.06831108 0.1349647 -0.3593349
v 0.04668488 0.02883247 -0.3509071
v 0.005503845 -0.1033028 -0.2683409
v -0.04395609 -0.1779171 -0.129252
v -0.09744851 -0.1779171 0.02949867
v -0.1481914 -0.2007712 0.000595951
v -0.08874426 -0.2007712 -0.1677412
v -0.04395609 -0.1779171 -0.129252
v -0.1406597 -0.1033029 0.1729958
v -0.1958454 -0.1209214 0.1531669
v -0.1721891 0.02883235 0.2623707
v -0.2294786 0.02048564 0.2488898
v -0.1934132 0.1349646 0.2710822
v -0.250464 0.1378018 0.2594315
v -0.1012698 -0.2559457 -0.19322
v -0.1756052 -0.2559458 -0.002100315
v -0.2361879 -0.1634562 0.1708228
v -0.2761572 0.0003349209 0.2809841
v -0.296993 0.1446514 0.2956434
v -0.07464986 -0.3111203 -0.1910837
v -0.1643663 -0.3111203 0.0224707
v -0.2377171 -0.2059909 0.2158594
v -0.2843101 -0.0198158 0.3402563
v -0.3036056 0.151501 0.3600143
v -0.0249707 -0.3339744 -0.1629314
v -0.1210587 -0.3339745 0.05991545
v -0.1996069 -0.2236094 0.2618456
v -0.2477252 -0.02816253 0.3929985
v -0.2641857 0.1543382 0.4164184
v 0.0177482 -0.3111203 -0.125902
v -0.07286109 -0.3111203 0.08702264
v -0.1460622 -0.2059909 0.2805169
v -0.1904176 -0.0198158 0.4064922
v -0.2102198 0.151501 0.4258928
v 0.03216648 -0.2559457 -0.099088
v -0.04270065 -0.2559458 0.09165651
v -0.1047852 -0.1634562 0.2635202
v -0.1445985 0.0003349209 0.3737916
v -0.165354 0.1446514 0.3885075
v 0.006065597 -0.2007712 -0.1008581
v -0.05338756 -0.2007712 0.06747486
v -0.1022901 -0.1209214 0.219165
v -0.1368752 0.02048564 0.3142163
v -0.1573561 0.1378018 0.325114
v -0.04395609 -0.1779171 -0.129252
v -0.09744851 -0.1779171 0.02949867
v -0.1406597 -0.1033029 0.1729958
v -0.1721891 0.02883235 0.2623707
v -0.1934132 0.1349646 0.2710822
vt 0.762207 -0.3740234
vt 0.762207 0.3156738
vt 0.8676758 0.3156738
vt 0.8676758 -0.3740234
vt 0.8676758 0.9404297
vt 0.762207 0.9404297
vt 0.762207 1.02832
vt 0.8676758 1.02832
vt 0.6572266 -0.3740234
vt 0.6572266 0.3156738
vt 0.6572266 1.02832
vt 0.6572266 0.9404297
vt 0.5498047 -0.3740234
vt 0.5498047 0.3156738
vt 0.5498047 1.02832
vt 0.5498047 0.9404297
vt 0.4389648 -0.3740234
vt 0.4389648 0.3156738
vt 0.4389648 1.02832
vt 0.4389648 0.9404297
vt 0.3300781 -0.3740234
vt 0.3300781 0.3156738
vt 0.3300781 1.02832
vt 0.3300781 0.9404297
vt 0.2214355 -0.3740234
vt 0.2214355 0.3156738
vt 0.2214355 1.02832
vt 0.2214355 0.9404297
vt 0.1187744 -0.3740234
vt 0.1187744 0.3156738
vt 0.1187744 1.02832
vt 0.1187744 0.9404297
vt 0.01553345 0.3156738
vt 0.01553345 -0.3740234
vt 0.01553345 1.02832
vt 0.01553345 0.9404297
vt 0.2214355 -0.4716797
vt 0.3300781 -0.4716797
vt 0.3300781 -0.5258789
vt 0.4389648 -0.5258789
vt 0.4389648 -0.4716797
vt 0.5498047 -0.5258789
vt 0.5498047 -0.4716797
vt 0.6572266 -0.5258789
vt 0.6572266 -0.4716797
vt 0.762207 -0.5258789
vt 0.762207 -0.4716797
vt 0.8676758 -0.5258789
vt 0.8676758 -0.4716797
vt 0.8676758 -0.7958984
vt 0.762207 -0.7958984
vt 0.8676758 -1.166016
vt 0.762207 -1.166016
vt 0.8676758 -1.529297
vt 0.762207 -1.529297
vt 0.6572266 -0.7958984
vt 0.6572266 -1.166016
vt 0.6572266 -1.529297
vt 0.5498047 -0.7958984
vt 0.5498047 -1.166016
vt 0.5498047 -1.529297
vt 0.4389648 -0.7958984
vt 0.4389648 -1.166016
vt 0.4389648 -1.529297
vt 0.3300781 -0.7958984
vt 0.3300781 -1.166016
vt 0.3300781 -1.529297
vt 0.2214355 -0.5258789
vt 0.2214355 -0.7958984
vt 0.2214355 -1.166016
vt 0.2214355 -1.529297
vt 0.1187744 -0.4716797
vt 0.1187744 -0.5258789
vt 0.1187744 -0.7958984
vt 0.1187744 -1.166016
vt 0.1187744 -1.529297
vt 0.01553345 -0.4716797
vt 0.01553345 -0.5258789
vt 0.01553345 -0.7958984
vt 0.01553345 -1.166016
vt 0.01553345 -1.529297
vt 0.8676758 2.107422
vt 0.762207 2.107422
vt 0.762207 2.472656
vt 0.8676758 2.472656
vt 0.8676758 1.733398
vt 0.762207 1.733398
vt 0.8676758 1.356445
vt 0.762207 1.356445
vt 0.8676758 1.083008
vt 0.762207 1.083008
vt 0.6572266 2.472656
vt 0.6572266 2.107422
vt 0.6572266 1.733398
vt 0.6572266 1.356445
vt 0.6572266 1.083008
vt 0.5498047 2.472656
vt 0.5498047 2.107422
vt 0.5498047 1.733398
vt 0.5498047 1.356445
vt 0.5498047 1.083008
vt 0.4389648 2.472656
vt 0.4389648 2.107422
vt 0.4389648 1.733398
vt 0.4389648 1.356445
vt 0.4389648 1.083008
vt 0.3300781 2.472656
vt 0.3300781 2.107422
vt 0.3300781 1.733398
vt 0.3300781 1.356445
vt 0.3300781 1.083008
vt 0.2214355 2.472656
vt 0.2214355 2.107422
vt 0.2214355 1.733398
vt 0.2214355 1.356445
vt 0.2214355 1.083008
vt 0.1187744 2.472656
vt 0.1187744 2.107422
vt 0.1187744 1.733398
vt 0.1187744 1.356445
vt 0.1187744 1.083008
vt 0.01553345 2.472656
vt 0.01553345 2.107422
vt 0.01553345 1.733398
vt 0.01553345 1.356445
vt 0.01553345 1.083008
vn -0.7015476 -0.6901113 -0.1777
vn -0.6245274 -0.7352845 -0.2632913
vn 0.001723147 -0.9999862 0.004975521
vn -0.1218268 -0.9844235 0.1267623
vn 0.1237649 -0.982006 -0.1426418
vn -0.5391788 -0.7445951 -0.393528
vn -0.5683997 -0.4863241 -0.6636344
vn 0.3040165 -0.8518212 -0.4265848
vn -0.9072177 0.09098282 -0.4107046
vn -0.9185698 0.04329689 -0.3928804
vn -0.9401393 0.1152118 -0.3207247
vn -0.9177756 0.08475299 -0.3879494
vn -0.4981325 0.7774998 -0.3838724
vn -0.5717753 0.7827449 -0.2457302
vn -0.8434979 0.4903824 0.2191725
vn -0.6111527 0.7866883 -0.08725738
vn 0.07119489 0.98134 -0.1786147
vn 0.0008713261 0.9999938 0.003417158
vn -0.4362577 0.6362262 0.636314
vn -0.09328386 0.9748242 0.2025239
vn 0.6134667 0.7831289 0.1018222
vn 0.578353 0.7756021 0.252882
vn 0.24677 0.5208369 0.8172107
vn 0.4734043 0.7789134 0.4113176
vn 0.9264805 0.06870047 0.3700193
vn 0.9173627 0.04484151 0.3955184
vn 0.8218975 0.1154551 0.5578123
vn 0.8928128 0.1070122 0.4375314
vn 0.5478005 -0.7545233 0.3613987
vn 0.6280573 -0.7295051 0.2708623
vn 0.9162329 -0.3938653 0.07339937
vn 0.7026969 -0.6858509 0.1892767
vn 0.001723147 -0.9999862 0.004975521
vn -0.1218268 -0.9844235 0.1267623
vn 0.3040165 -0.8518212 -0.4265848
vn 0.1237649 -0.982006 -0.1426418
vn 0.9430572 0.1148232 0.3121839
vn 0.8433337 0.4945692 -0.2102132
vn 0.9504299 4.910582E-05 -0.310939
vn 0.5747616 0.03245703 -0.817677
vn 0.4323241 0.6478426 -0.6272127
vn -0.1327596 0.04142027 -0.9902824
vn -0.2208889 0.5386588 -0.8130528
vn -0.8055709 0.06891358 -0.588478
vn -0.8014728 0.1417063 -0.5809997
vn -0.971298 0.1699083 0.1664665
vn -0.9343458 -0.3422994 -0.09914128
vn -0.5504833 0.1883824 0.8133143
vn -0.3295714 -0.8290781 0.4516771
vn -0.5411982 0.4195344 0.7287629
vn -0.9575948 0.2717788 0.09564713
vn -0.397915 0.7461524 0.5337792
vn -0.9046566 0.4259404 0.01309022
vn -0.1427671 0.9706221 0.193676
vn -0.7876125 0.5998308 -0.1409592
vn -0.8175421 -0.03184576 -0.5749876
vn -0.8490123 -0.1244134 -0.5135168
vn -0.9043846 -0.1155747 -0.4107688
vn -0.1964889 -0.3112362 -0.9297979
vn -0.3086294 -0.600897 -0.7373403
vn -0.5077223 -0.7444447 -0.433613
vn 0.5183462 -0.3977819 -0.7570249
vn 0.373254 -0.7497716 -0.5463735
vn 0.1320221 -0.9714228 -0.1972507
vn 0.9280974 -0.2902802 -0.2331797
vn 0.8478541 -0.5222409 -0.09169414
vn 0.6975948 -0.7038646 0.1339257
vn 0.9189104 -0.04883295 0.3914321
vn 0.8978843 -0.03972908 0.4384351
vn 0.9136493 -0.01404571 0.4062606
vn 0.9262441 -0.07912235 0.3685261
vn 0.5981691 -0.4618724 0.6548798
vn 0.2849402 0.03682182 0.9578378
vn 0.2903719 0.2822042 0.9143549
vn 0.4190811 0.5677452 0.7085452
vn 0.6212307 0.6734624 0.4006505
vn -0.3295714 -0.8290781 0.4516771
vn -0.5504833 0.1883824 0.8133143
vn -0.5411982 0.4195344 0.7287629
vn -0.397915 0.7461524 0.5337792
vn -0.1427671 0.9706221 0.193676
vn 0.1375899 0.9711974 -0.1945366
vn -0.619929 0.6856002 -0.3816286
vn -0.7876125 0.5998308 -0.1409592
vn -0.1427671 0.9706221 0.193676
vn 0.3955339 0.7460031 -0.5357538
vn -0.4352928 0.59721 -0.6736916
vn 0.5492482 0.4175868 -0.7238423
vn -0.3043646 0.3135548 -0.8994696
vn 0.556424 0.1350012 -0.8198579
vn -0.3146318 0.0004881326 -0.9492137
vn -0.9043846 -0.1155747 -0.4107688
vn -0.9342075 -0.02405529 -0.355918
vn -0.9258225 0.04140623 -0.3756837
vn -0.9108691 -0.004915875 -0.4126661
vn -0.9245771 -0.04181953 -0.3786928
vn -0.5077223 -0.7444447 -0.433613
vn -0.7136362 -0.6888458 -0.1273376
vn -0.8613691 -0.4955753 0.1115723
vn -0.9276196 -0.2729204 0.2550222
vn -0.948961 0.006533003 0.3153259
vn 0.1320221 -0.9714228 -0.1972507
vn -0.1397871 -0.9707112 0.1953948
vn -0.3753209 -0.7492705 0.5456444
vn -0.511193 -0.3993194 0.7610688
vn -0.5751449 0.0316462 0.8174391
vn 0.6975948 -0.7038646 0.1339257
vn 0.506768 -0.7549587 0.4162014
vn 0.3262051 -0.6238363 0.7102243
vn 0.2260585 -0.3300307 0.9165028
vn 0.153358 0.04046888 0.9873417
vn 0.9262441 -0.07912235 0.3685261
vn 0.9012957 -0.1708983 0.3980702
vn 0.8582717 -0.1804624 0.4804196
vn 0.8340916 -0.06533841 0.5477426
vn 0.8147812 0.06448988 0.5761707
vn 0.6212307 0.6734624 0.4006505
vn 0.8036814 0.5800292 0.1328993
vn 0.9215454 0.3865011 -0.03702569
vn 0.9647132 0.2400314 -0.1082284
vn 0.9785059 0.1296579 -0.1603592
vn -0.1427671 0.9706221 0.193676
vn 0.1375899 0.9711974 -0.1945366
vn 0.3955339 0.7460031 -0.5357538
vn 0.5492482 0.4175868 -0.7238423
vn 0.556424 0.1350012 -0.8198579
g m_dlc5_stair_rope_02_0
f 3/3/3 2/2/2 1/1/1
f 4/4/4 3/3/3 1/1/1
f 3/3/3 5/5/5 2/2/2
f 5/5/5 6/6/6 2/2/2
f 7/7/7 6/6/6 5/5/5
f 8/8/8 7/7/7 5/5/5
f 1/1/1 2/2/2 9/9/9
f 2/2/2 10/10/10 9/9/9
f 2/2/2 6/6/6 10/10/10
f 7/7/7 11/11/11 6/6/6
f 11/11/11 12/12/12 6/6/6
f 6/6/6 12/12/12 10/10/10
f 9/9/9 10/10/10 13/13/13
f 10/10/10 14/14/14 13/13/13
f 10/10/10 12/12/12 14/14/14
f 11/11/11 15/15/15 12/12/12
f 15/15/15 16/16/16 12/12/12
f 12/12/12 16/16/16 14/14/14
f 13/13/13 14/14/14 17/17/17
f 14/14/14 18/18/18 17/17/17
f 14/14/14 16/16/16 18/18/18
f 15/15/15 19/19/19 16/16/16
f 19/19/19 20/20/20 16/16/16
f 16/16/16 20/20/20 18/18/18
f 17/17/17 18/18/18 21/21/21
f 18/18/18 22/22/22 21/21/21
f 18/18/18 20/20/20 22/22/22
f 19/19/19 23/23/23 20/20/20
f 23/23/23 24/24/24 20/20/20
f 20/20/20 24/24/24 22/22/22
f 21/21/21 22/22/22 25/25/25
f 22/22/22 26/26/26 25/25/25
f 22/22/22 24/24/24 26/26/26
f 23/23/23 27/27/27 24/24/24
f 27/27/27 28/28/28 24/24/24
f 24/24/24 28/28/28 26/26/26
f 25/25/25 26/26/26 29/29/29
f 26/26/26 30/30/30 29/29/29
f 26/26/26 28/28/28 30/30/30
f 27/27/27 31/31/31 28/28/28
f 31/31/31 32/32/32 28/28/28
f 28/28/28 32/32/32 30/30/30
f 29/29/29 30/30/30 33/33/33
f 34/34/34 29/29/29 33/33/33
f 31/31/31 35/35/35 32/32/32
f 35/35/35 36/36/36 32/32/32
f 30/30/30 32/32/32 36/36/36
f 33/33/33 30/30/30 36/36/36
f 21/21/21 25/25/25 37/37/37
f 38/38/38 21/21/21 37/37/37
f 38/38/38 37/37/37 39/39/39
f 38/38/38 39/39/39 40/40/40
f 41/41/41 38/38/38 40/40/40
f 41/41/41 40/40/40 42/42/42
f 43/43/43 41/41/41 42/42/42
f 43/43/43 42/42/42 44/44/44
f 45/45/45 43/43/43 44/44/44
f 45/45/45 44/44/44 46/46/46
f 47/47/47 45/45/45 46/46/46
f 47/47/47 46/46/46 48/48/48
f 49/49/49 47/47/47 48/48/48
f 48/48/48 46/46/46 50/50/50
f 46/46/46 51/51/51 50/50/50
f 46/46/46 44/44/44 51/51/51
f 50/50/50 51/51/51 52/52/52
f 51/51/51 53/53/53 52/52/52
f 52/52/52 53/53/53 54/54/54
f 53/53/53 55/55/55 54/54/54
f 44/44/44 56/56/56 51/51/51
f 51/51/51 56/56/56 53/53/53
f 44/44/44 42/42/42 56/56/56
f 56/56/56 57/57/57 53/53/53
f 53/53/53 57/57/57 55/55/55
f 57/57/57 58/58/58 55/55/55
f 56/56/56 59/59/59 57/57/57
f 42/42/42 59/59/59 56/56/56
f 59/59/59 60/60/60 57/57/57
f 57/57/57 60/60/60 58/58/58
f 60/60/60 61/61/61 58/58/58
f 42/42/42 40/40/40 59/59/59
f 40/40/40 62/62/62 59/59/59
f 59/59/59 62/62/62 60/60/60
f 62/62/62 63/63/63 60/60/60
f 60/60/60 63/63/63 61/61/61
f 63/63/63 64/64/64 61/61/61
f 40/40/40 39/39/39 62/62/62
f 39/39/39 65/65/65 62/62/62
f 62/62/62 65/65/65 63/63/63
f 65/65/65 66/66/66 63/63/63
f 63/63/63 66/66/66 64/64/64
f 66/66/66 67/67/67 64/64/64
f 39/39/39 68/68/68 65/65/65
f 37/37/37 68/68/68 39/39/39
f 68/68/68 69/69/69 65/65/65
f 65/65/65 69/69/69 66/66/66
f 69/69/69 70/70/70 66/66/66
f 66/66/66 70/70/70 67/67/67
f 70/70/70 71/71/71 67/67/67
f 37/37/37 72/72/72 68/68/68
f 72/72/72 73/73/73 68/68/68
f 68/68/68 73/73/73 69/69/69
f 73/73/73 74/74/74 69/69/69
f 69/69/69 74/74/74 70/70/70
f 74/74/74 75/75/75 70/70/70
f 70/70/70 75/75/75 71/71/71
f 75/75/75 76/76/76 71/71/71
f 72/72/72 77/77/77 73/73/73
f 77/77/77 78/78/78 73/73/73
f 73/73/73 78/78/78 74/74/74
f 78/78/78 79/79/79 74/74/74
f 74/74/74 79/79/79 75/75/75
f 79/79/79 80/80/80 75/75/75
f 75/75/75 80/80/80 76/76/76
f 80/80/80 81/81/81 76/76/76
f 37/37/37 25/25/25 72/72/72
f 25/25/25 29/29/29 72/72/72
f 72/72/72 29/29/29 77/77/77
f 29/29/29 34/34/34 77/77/77
f 84/84/84 83/83/83 82/82/82
f 85/85/85 84/84/84 82/82/82
f 82/82/82 83/83/83 86/86/86
f 83/83/83 87/87/87 86/86/86
f 86/86/86 87/87/87 88/88/88
f 87/87/87 89/89/89 88/88/88
f 88/88/88 89/89/89 90/90/90
f 89/89/89 91/91/91 90/90/90
f 84/84/84 92/92/92 83/83/83
f 92/92/92 93/93/93 83/83/83
f 83/83/83 93/93/93 87/87/87
f 93/93/93 94/94/94 87/87/87
f 87/87/87 94/94/94 89/89/89
f 94/94/94 95/95/95 89/89/89
f 89/89/89 95/95/95 91/91/91
f 95/95/95 96/96/96 91/91/91
f 92/92/92 97/97/97 93/93/93
f 97/97/97 98/98/98 93/93/93
f 93/93/93 98/98/98 94/94/94
f 98/98/98 99/99/99 94/94/94
f 94/94/94 99/99/99 95/95/95
f 99/99/99 100/100/100 95/95/95
f 95/95/95 100/100/100 96/96/96
f 100/100/100 101/101/101 96/96/96
f 97/97/97 102/102/102 98/98/98
f 102/102/102 103/103/103 98/98/98
f 98/98/98 103/103/103 99/99/99
f 103/103/103 104/104/104 99/99/99
f 99/99/99 104/104/104 100/100/100
f 104/104/104 105/105/105 100/100/100
f 100/100/100 105/105/105 101/101/101
f 105/105/105 106/106/106 101/101/101
f 102/102/102 107/107/107 103/103/103
f 107/107/107 108/108/108 103/103/103
f 103/103/103 108/108/108 104/104/104
f 108/108/108 109/109/109 104/104/104
f 104/104/104 109/109/109 105/105/105
f 109/109/109 110/110/110 105/105/105
f 105/105/105 110/110/110 106/106/106
f 110/110/110 111/111/111 106/106/106
f 107/107/107 112/112/112 108/108/108
f 112/112/112 113/113/113 108/108/108
f 108/108/108 113/113/113 109/109/109
f 113/113/113 114/114/114 109/109/109
f 109/109/109 114/114/114 110/110/110
f 114/114/114 115/115/115 110/110/110
f 110/110/110 115/115/115 111/111/111
f 115/115/115 116/116/116 111/111/111
f 112/112/112 117/117/117 113/113/113
f 117/117/117 118/118/118 113/113/113
f 113/113/113 118/118/118 114/114/114
f 118/118/118 119/119/119 114/114/114
f 114/114/114 119/119/119 115/115/115
f 119/119/119 120/120/120 115/115/115
f 115/115/115 120/120/120 116/116/116
f 120/120/120 121/121/121 116/116/116
f 117/117/117 122/122/122 118/118/118
f 122/122/122 123/123/123 118/118/118
f 118/118/118 123/123/123 119/119/119
f 123/123/123 124/124/124 119/119/119
f 119/119/119 124/124/124 120/120/120
f 124/124/124 125/125/125 120/120/120
f 120/120/120 125/125/125 121/121/121
f 125/125/125 126/126/126 121/121/121
f 111/111/111 116/116/116 27/27/27
f 23/23/23 111/111/111 27/27/27
f 106/106/106 111/111/111 23/23/23
f 19/19/19 106/106/106 23/23/23
f 101/101/101 106/106/106 19/19/19
f 15/15/15 101/101/101 19/19/19
f 96/96/96 101/101/101 15/15/15
f 11/11/11 96/96/96 15/15/15
f 91/91/91 96/96/96 11/11/11
f 7/7/7 91/91/91 11/11/11
f 90/90/90 91/91/91 7/7/7
f 8/8/8 90/90/90 7/7/7
f 27/27/27 116/116/116 31/31/31
f 116/116/116 121/121/121 31/31/31
f 31/31/31 121/121/121 35/35/35
f 121/121/121 126/126/126 35/35/35
f 4/4/4 1/1/1 47/47/47
f 49/49/49 4/4/4 47/47/47
f 47/47/47 1/1/1 45/45/45
f 1/1/1 9/9/9 45/45/45
f 45/45/45 9/9/9 43/43/43
f 9/9/9 13/13/13 43/43/43
f 43/43/43 13/13/13 41/41/41
f 13/13/13 17/17/17 41/41/41
f 41/41/41 17/17/17 38/38/38
f 17/17/17 21/21/21 38/38/38
