g m_dlc4_lilypad_02
v 0.4740252 0.1105092 -0.14401
v 0.4861832 0.1105326 0.01394836
v 0.4493298 0.1227791 0.01646484
v 0.4374701 0.1230166 -0.1264563
v 0.4101517 0.1106594 -0.2827826
v 0.3817053 0.123338 -0.254997
v 0.2943811 0.1108258 -0.389472
v 0.2780948 0.1236424 -0.3557892
v 0.1553363 0.1110014 -0.4603192
v 0.1499402 0.1239278 -0.423584
v 0.01029053 0.1111692 -0.4898108
v 0.01457184 0.1241708 -0.4528363
v -0.133334 0.1113181 -0.4752716
v -0.1199768 0.1243591 -0.4423804
v -0.2881305 0.1114412 -0.4240539
v -0.2659769 0.124487 -0.3975
v -0.4106116 0.111534 -0.3271606
v -0.3809756 0.1245527 -0.3066522
v -0.481459 0.1115319 -0.1881158
v -0.4476184 0.12457 -0.1762079
v -0.4937366 0.1114382 -0.02052856
v -0.4591891 0.1245375 -0.01923401
v -0.4521264 0.1113143 0.1515649
v -0.4178073 0.124442 0.1429303
v -0.3773349 0.1111648 0.2835406
v -0.345535 0.1242844 0.2661835
v -0.265903 0.1109966 0.3870593
v -0.2402035 0.124068 0.3619543
v -0.1268573 0.110821 0.4579059
v -0.1097906 0.1238013 0.4260724
v 0.02627167 0.1106552 0.4886359
v 0.03245483 0.1235011 0.4525165
v 0.1788742 0.1105129 0.4738556
v 0.1726331 0.1231786 0.4374811
v 0.3176724 0.1105251 0.4045587
v 0.2979577 0.1227643 0.3733032
v 0.3637158 0.1105642 0.3688519
v 0.3414307 0.1220686 0.3400433
v 0.142088 0.08035429 0.265307
v 0.2693448 0.1020746 0.240274
v 0.299393 0.08740072 0.2344861
v 0.365766 0.1061035 0.3240051
v 0.215838 0.07525941 0.1367767
v 0.2011374 0.09031794 0.1638776
v 0.1001013 0.06967555 0.0401709
v -0.03986298 0.07627523 -0.02977905
v 0.0631369 0.08035429 0.2739294
v -0.01598358 0.08035429 0.2587268
v -0.087883 0.08035429 0.2231097
v -0.1449698 0.08035429 0.167088
v -0.1823401 0.08035429 0.09815674
v -0.1988379 0.08035429 0.01622131
v -0.1888403 0.08035429 -0.06619567
v -0.1522827 0.08035429 -0.1379449
v -0.09276153 0.08035429 -0.1920239
v -0.01958832 0.08035429 -0.2232745
v 0.05603485 0.08035429 -0.2331677
v 0.134335 0.08035429 -0.2198804
v 0.2045035 0.08035429 -0.1825055
v 0.2586618 0.08035429 -0.1253314
v 0.2910925 0.08035429 -0.05394104
v 0.2504764 0.09031794 0.05252685
v 0.239873 0.07530267 0.08231689
v 0.3489594 0.08739801 0.105686
v 0.3356494 0.1020826 0.07440002
v 0.4519705 0.1062318 0.1033282
v 0.4488293 0.1221395 0.07237121
v 0.1001013 0.06967555 0.0401709
v 0.4848901 0.1106023 0.07205994
v 0.365766 0.1061035 0.3240051
v 0.3690433 0 0.3250238
v 0.3635303 0 0.3692511
v 0.3637158 0.1105642 0.3688519
v 0.3176724 0 0.4045587
v 0.3176724 0.1105251 0.4045587
v 0.1787302 0 0.4747589
v 0.1788742 0.1105129 0.4738556
v 0.4848901 0.1106023 0.07205994
v 0.4924658 0 0.06844421
v 0.4619983 0 0.1005115
v 0.4519705 0.1062318 0.1033282
v 0.3558136 0 0.1033008
v 0.3489594 0.08739801 0.105686
v 0.2427569 0 0.08131225
v 0.239873 0.07530267 0.08231689
v 0.1001013 0 0.0401709
v 0.1001013 0.06967555 0.0401709
v 0.4807169 0 -0.1465942
v 0.4740252 0.1105092 -0.14401
v 0.4101517 0.1106594 -0.2827826
v 0.4160858 0 -0.2857147
v 0.4937366 0 0.01131897
v 0.4861832 0.1105326 0.01394836
v 0.4848901 0.1106023 0.07205994
v 0.4924658 0 0.06844421
v 0.4160858 0 -0.2857147
v 0.4101517 0.1106594 -0.2827826
v 0.2943811 0.1108258 -0.389472
v 0.2991537 0 -0.3921405
v 0.1553363 0.1110014 -0.4603192
v 0.160127 0 -0.4629974
v 0.01029053 0.1111692 -0.4898108
v 0.0137027 0 -0.4917193
v -0.133334 0.1113181 -0.4752716
v -0.1310959 0 -0.4740454
v -0.1310959 0 -0.4740454
v -0.133334 0.1113181 -0.4752716
v -0.2881305 0.1114412 -0.4240539
v -0.2832468 0 -0.4186389
v -0.4106116 0.111534 -0.3271606
v -0.4040408 0 -0.3198755
v -0.481459 0.1115319 -0.1881158
v -0.4748877 0 -0.1808301
v -0.4748877 0 -0.1808301
v -0.481459 0.1115319 -0.1881158
v -0.4937366 0.1114382 -0.02052856
v -0.4888525 0 -0.0151123
v -0.4888525 0 -0.0151123
v -0.4937366 0.1114382 -0.02052856
v -0.4521264 0.1113143 0.1515649
v -0.4507263 0 0.1537561
v -0.3773349 0.1111648 0.2835406
v -0.3777438 0 0.2861139
v -0.265903 0.1109966 0.3870593
v -0.2664749 0 0.3906586
v -0.1268573 0.110821 0.4579059
v -0.1274274 0 0.4614917
v 0.02627167 0.1106552 0.4886359
v 0.02578216 0 0.4917193
v 0.1788742 0.1105129 0.4738556
v 0.1787302 0 0.4747589
v 0.365766 0.1061035 0.3240051
v 0.299393 0.08740072 0.2344861
v 0.3024042 0 0.2334381
v 0.3690433 0 0.3250238
v 0.215838 0.07525941 0.1367767
v 0.2176599 0 0.136142
v 0.1001013 0.06967555 0.0401709
v 0.1001013 0 0.0401709
vt 0.5668945 0.4279785
vt 0.5561523 0.4216309
vt 0.5551758 0.4245605
vt 0.5644531 0.4301758
vt 0.574707 0.4372559
vt 0.5717773 0.4384766
vt 0.578125 0.4489746
vt 0.5751953 0.4489746
vt 0.5786133 0.4611816
vt 0.5756836 0.4604492
vt 0.5756836 0.4724121
vt 0.5732422 0.4707031
vt 0.5698242 0.4821777
vt 0.5678711 0.4799805
vt 0.5610352 0.4912109
vt 0.5600586 0.4887695
vt 0.550293 0.4968262
vt 0.5498047 0.4938965
vt 0.5380859 0.4975586
vt 0.5385742 0.4943848
vt 0.5258789 0.4931641
vt 0.5268555 0.4904785
vt 0.5146484 0.4848633
vt 0.5166016 0.4824219
vt 0.5078125 0.4755859
vt 0.5102539 0.4736328
vt 0.503418 0.4643555
vt 0.5063477 0.4631348
vt 0.5024414 0.4521484
vt 0.5053711 0.4519043
vt 0.5048828 0.4401855
vt 0.5078125 0.440918
vt 0.5102539 0.4296875
vt 0.5131836 0.4313965
vt 0.5195313 0.4216309
vt 0.5214844 0.4243164
vt 0.5234375 0.4194336
vt 0.5249023 0.4221191
vt 0.5249023 0.4389648
vt 0.5302734 0.4301758
vt 0.5322266 0.4279785
vt 0.5268555 0.4206543
vt 0.5371094 0.4370117
vt 0.5341797 0.4372559
vt 0.5405273 0.4482422
vt 0.5410156 0.4604492
vt 0.5219727 0.4443359
vt 0.5209961 0.4501953
vt 0.5214844 0.4562988
vt 0.5234375 0.4621582
vt 0.5273438 0.4667969
vt 0.5327148 0.470459
vt 0.5390625 0.472168
vt 0.5449219 0.4719238
vt 0.5507813 0.4694824
vt 0.5551758 0.465332
vt 0.5585938 0.4604492
vt 0.5600586 0.4545898
vt 0.5600586 0.4484863
vt 0.5576172 0.4428711
vt 0.5537109 0.4384766
vt 0.5449219 0.4372559
vt 0.5419922 0.4370117
vt 0.5444336 0.4284668
vt 0.546875 0.4304199
vt 0.5488281 0.4213867
vt 0.5512695 0.4228516
vt 0.5405273 0.4482422
vt 0.5522461 0.4199219
vt 0.6049805 0.3911133
vt 0.5942383 0.3911133
vt 0.5942383 0.3945313
vt 0.6054688 0.3947754
vt 0.5942383 0.3991699
vt 0.6054688 0.3991699
vt 0.5942383 0.4111328
vt 0.6049805 0.4111328
vt 0.5800781 0.3852539
vt 0.5908203 0.3850098
vt 0.590332 0.3815918
vt 0.5800781 0.3815918
vt 0.5898438 0.373291
vt 0.5810547 0.3735352
vt 0.5888672 0.364502
vt 0.581543 0.3649902
vt 0.5878906 0.3530273
vt 0.5810547 0.3535156
vt 0.5917969 0.4016113
vt 0.5805664 0.4018555
vt 0.5810547 0.4138184
vt 0.5917969 0.4135742
vt 0.5908203 0.3894043
vt 0.5800781 0.3896484
vt 0.5800781 0.3852539
vt 0.5908203 0.3850098
vt 0.5917969 0.4135742
vt 0.5810547 0.4138184
vt 0.5810547 0.4260254
vt 0.5917969 0.4257813
vt 0.5810547 0.4379883
vt 0.5922852 0.4377441
vt 0.5810547 0.4494629
vt 0.5917969 0.4494629
vt 0.5810547 0.4606934
vt 0.5917969 0.4606934
vt 0.5917969 0.4606934
vt 0.5810547 0.4606934
vt 0.5805664 0.4733887
vt 0.5917969 0.4731445
vt 0.5810547 0.4853516
vt 0.5917969 0.4853516
vt 0.5810547 0.4975586
vt 0.5922852 0.4973145
vt 0.5947266 0.4970703
vt 0.605957 0.4975586
vt 0.605957 0.484375
vt 0.5947266 0.4841309
vt 0.5947266 0.4841309
vt 0.605957 0.484375
vt 0.6054688 0.4707031
vt 0.5947266 0.4707031
vt 0.6054688 0.4589844
vt 0.5942383 0.4589844
vt 0.6049805 0.4472656
vt 0.5942383 0.4472656
vt 0.6049805 0.4350586
vt 0.5942383 0.4350586
vt 0.6049805 0.4230957
vt 0.5942383 0.4230957
vt 0.6049805 0.4111328
vt 0.5942383 0.4111328
vt 0.6049805 0.3911133
vt 0.6030273 0.3825684
vt 0.5947266 0.3823242
vt 0.5942383 0.3911133
vt 0.6025391 0.3725586
vt 0.5947266 0.3723145
vt 0.6020508 0.3608398
vt 0.5952148 0.3605957
vn 0.9188128 0.3144551 -0.2385394
vn 0.9429675 0.3292843 -0.04882797
vn -0.08829381 0.9956868 -0.02849204
vn -0.07174598 0.9969004 0.03228147
vn 0.7657393 0.3076226 -0.5648112
vn -0.06981356 0.9960167 0.05546976
vn 0.5436696 0.2970095 -0.7849897
vn -0.05099009 0.9956922 0.07744201
vn 0.3152562 0.2832682 -0.9057442
vn -0.02354362 0.9959534 0.08673234
vn 0.04129689 0.2626466 -0.9640079
vn 0.0023737 0.9964467 0.08419216
vn -0.2206161 0.2319882 -0.9473701
vn 0.02344358 0.9965485 0.07963398
vn -0.4741822 0.190931 -0.8594746
vn 0.03975311 0.9976557 0.05570228
vn -0.7638043 0.1744406 -0.6214286
vn 0.05070668 0.9980181 0.03726332
vn -0.9463041 0.1854854 -0.2647711
vn 0.06075676 0.9979358 0.02080624
vn -0.9742082 0.2133155 0.07358549
vn 0.0706353 0.9975021 0.0002641884
vn -0.9084998 0.2427271 0.3401643
vn 0.07581209 0.9968304 -0.02411726
vn -0.7608094 0.2599497 0.5946387
vn 0.06882559 0.9965378 -0.04664284
vn -0.5525442 0.2703744 0.7884114
vn 0.05558737 0.9960407 -0.06937607
vn -0.3158028 0.2751613 0.9080501
vn 0.03429331 0.9956067 -0.087128
vn -0.04645431 0.271925 0.9611965
vn 0.008061959 0.9954355 -0.09509479
vn 0.2713663 0.2580107 0.9272491
vn -0.009140651 0.9974088 -0.07135938
vn 0.4781859 0.2623817 0.8381492
vn -0.06510931 0.9969093 -0.04396108
vn 0.8127272 0.2204402 0.5393336
vn -0.009664966 0.9905385 -0.1368942
vn -0.06769706 0.9910756 -0.1148314
vn -0.0309263 0.9821274 -0.1856597
vn 0.7358869 0.2610024 -0.6247784
vn 0.8720539 0.2512861 -0.419973
vn 0.6251035 0.3858627 -0.6784951
vn 0.008782744 0.9956078 -0.09320887
vn 0.4751928 0.6240773 -0.6202576
vn -0.003100875 0.9999905 -0.003088276
vn 0.005746576 0.9867906 -0.1618995
vn 0.05030006 0.9865498 -0.1555299
vn 0.09102433 0.9865594 -0.1357022
vn 0.1238932 0.9872043 -0.1003912
vn 0.1447634 0.9878073 -0.05727472
vn 0.1484974 0.9888245 -0.01321459
vn 0.1353979 0.9901114 0.03669887
vn 0.1075029 0.9904705 0.08608849
vn 0.06975414 0.9894409 0.1270483
vn 0.03267905 0.9881476 0.1499882
vn -0.01018684 0.9872886 0.1586109
vn -0.05797628 0.9863265 0.1542692
vn -0.1013493 0.9859616 0.1326947
vn -0.1390102 0.9860001 0.09208613
vn -0.1419739 0.989867 0.002611321
vn -0.08365323 0.9946577 0.06048292
vn -0.2534167 0.3420298 0.9048733
vn -0.1089122 0.2261403 0.9679869
vn -0.1940698 0.9771746 0.0864112
vn 0.2120287 0.2430438 0.9465588
vn -0.1278454 0.9893904 0.06900893
vn -0.2517451 0.5909085 0.7664538
vn 0.9097053 0.2661276 0.3187671
vn 0.8720539 0.2512861 -0.419973
vn 0.9140962 0.02397317 -0.4047879
vn 0.8468561 0.007477513 0.5317694
vn 0.8127272 0.2204402 0.5393336
vn 0.4948824 0.002702495 0.8689558
vn 0.4781859 0.2623817 0.8381492
vn 0.2813089 0.01063959 0.9595582
vn 0.2713663 0.2580107 0.9272491
vn 0.9097053 0.2661276 0.3187671
vn 0.9408126 0.05855195 0.3338313
vn 0.2773653 -0.003910231 0.9607566
vn 0.2120287 0.2430438 0.9465588
vn -0.07645939 -0.02823733 0.9966727
vn -0.1089122 0.2261403 0.9679869
vn -0.2429641 -0.02174502 0.9697916
vn -0.2534167 0.3420298 0.9048733
vn -0.2825999 -0.01226122 0.9591594
vn -0.2517451 0.5909085 0.7664538
vn 0.965877 0.0651059 -0.2506849
vn 0.9188128 0.3144551 -0.2385394
vn 0.7657393 0.3076226 -0.5648112
vn 0.8047131 0.05776605 -0.5908468
vn 0.9963955 0.06647157 -0.05270171
vn 0.9429675 0.3292843 -0.04882797
vn 0.9097053 0.2661276 0.3187671
vn 0.9408126 0.05855195 0.3338313
vn 0.8047131 0.05776605 -0.5908468
vn 0.7657393 0.3076226 -0.5648112
vn 0.5436696 0.2970095 -0.7849897
vn 0.571041 0.04662677 -0.8195964
vn 0.3152562 0.2832682 -0.9057442
vn 0.3330471 0.03483869 -0.9422663
vn 0.04129689 0.2626466 -0.9640079
vn 0.04699616 0.0143717 -0.9987918
vn -0.2206161 0.2319882 -0.9473701
vn -0.2262104 -0.02028875 -0.9738671
vn -0.2262104 -0.02028875 -0.9738671
vn -0.2206161 0.2319882 -0.9473701
vn -0.4741822 0.190931 -0.8594746
vn -0.4797393 -0.05787762 -0.8755001
vn -0.7638043 0.1744406 -0.6214286
vn -0.7744696 -0.08092329 -0.627414
vn -0.9463041 0.1854854 -0.2647711
vn -0.9631341 -0.06932781 -0.2599352
vn -0.9631341 -0.06932781 -0.2599352
vn -0.9463041 0.1854854 -0.2647711
vn -0.9742082 0.2133155 0.07358549
vn -0.9958638 -0.03724226 0.08287518
vn -0.9958638 -0.03724226 0.08287518
vn -0.9742082 0.2133155 0.07358549
vn -0.9084998 0.2427271 0.3401643
vn -0.9355059 -0.007450841 0.3532322
vn -0.7608094 0.2599497 0.5946387
vn -0.7860872 0.01520723 0.6179286
vn -0.5525442 0.2703744 0.7884114
vn -0.5715991 0.0275912 0.820069
vn -0.3158028 0.2751613 0.9080501
vn -0.3271478 0.03110983 0.944461
vn -0.04645431 0.271925 0.9611965
vn -0.04801656 0.02438196 0.9985489
vn 0.2713663 0.2580107 0.9272491
vn 0.2813089 0.01063959 0.9595582
vn 0.8720539 0.2512861 -0.419973
vn 0.7358869 0.2610024 -0.6247784
vn 0.7813098 0.02771054 -0.6235279
vn 0.9140962 0.02397317 -0.4047879
vn 0.6251035 0.3858627 -0.6784951
vn 0.6975886 0.02022144 -0.7162132
vn 0.4751928 0.6240773 -0.6202576
vn 0.6363922 0.01137358 -0.7712818
g m_dlc4_lilypad_02_0
f 3/3/3 2/2/2 1/1/1
f 4/4/4 3/3/3 1/1/1
f 1/1/1 5/5/5 4/4/4
f 5/5/5 6/6/6 4/4/4
f 5/5/5 7/7/7 6/6/6
f 7/7/7 8/8/8 6/6/6
f 7/7/7 9/9/9 8/8/8
f 9/9/9 10/10/10 8/8/8
f 9/9/9 11/11/11 10/10/10
f 11/11/11 12/12/12 10/10/10
f 11/11/11 13/13/13 12/12/12
f 13/13/13 14/14/14 12/12/12
f 13/13/13 15/15/15 14/14/14
f 15/15/15 16/16/16 14/14/14
f 15/15/15 17/17/17 16/16/16
f 17/17/17 18/18/18 16/16/16
f 17/17/17 19/19/19 18/18/18
f 19/19/19 20/20/20 18/18/18
f 19/19/19 21/21/21 20/20/20
f 21/21/21 22/22/22 20/20/20
f 21/21/21 23/23/23 22/22/22
f 23/23/23 24/24/24 22/22/22
f 23/23/23 25/25/25 24/24/24
f 25/25/25 26/26/26 24/24/24
f 25/25/25 27/27/27 26/26/26
f 27/27/27 28/28/28 26/26/26
f 27/27/27 29/29/29 28/28/28
f 29/29/29 30/30/30 28/28/28
f 29/29/29 31/31/31 30/30/30
f 31/31/31 32/32/32 30/30/30
f 31/31/31 33/33/33 32/32/32
f 33/33/33 34/34/34 32/32/32
f 33/33/33 35/35/35 34/34/34
f 35/35/35 36/36/36 34/34/34
f 35/35/35 37/37/37 36/36/36
f 37/37/37 38/38/38 36/36/36
f 34/34/34 36/36/36 39/39/39
f 36/36/36 38/38/38 40/40/40
f 39/39/39 36/36/36 40/40/40
f 41/41/41 40/40/40 38/38/38
f 42/42/42 41/41/41 38/38/38
f 37/37/37 42/42/42 38/38/38
f 41/41/41 43/43/43 40/40/40
f 43/43/43 44/44/44 40/40/40
f 40/40/40 44/44/44 39/39/39
f 43/43/43 45/45/45 44/44/44
f 45/45/45 46/46/46 44/44/44
f 44/44/44 46/46/46 39/39/39
f 39/39/39 46/46/46 47/47/47
f 47/47/47 32/32/32 34/34/34
f 39/39/39 47/47/47 34/34/34
f 47/47/47 46/46/46 48/48/48
f 48/48/48 46/46/46 49/49/49
f 49/49/49 46/46/46 50/50/50
f 50/50/50 46/46/46 51/51/51
f 51/51/51 46/46/46 52/52/52
f 52/52/52 46/46/46 53/53/53
f 53/53/53 46/46/46 54/54/54
f 54/54/54 46/46/46 55/55/55
f 55/55/55 46/46/46 56/56/56
f 56/56/56 46/46/46 57/57/57
f 57/57/57 46/46/46 58/58/58
f 58/58/58 46/46/46 59/59/59
f 59/59/59 46/46/46 60/60/60
f 60/60/60 46/46/46 61/61/61
f 61/61/61 46/46/46 62/62/62
f 62/62/62 46/46/46 63/63/63
f 62/62/62 63/63/63 64/64/64
f 65/65/65 62/62/62 64/64/64
f 61/61/61 62/62/62 65/65/65
f 65/65/65 64/64/64 66/66/66
f 67/67/67 65/65/65 66/66/66
f 46/46/46 68/68/68 63/63/63
f 65/65/65 67/67/67 3/3/3
f 61/61/61 65/65/65 3/3/3
f 2/2/2 3/3/3 67/67/67
f 69/69/69 2/2/2 67/67/67
f 69/69/69 67/67/67 66/66/66
f 61/61/61 3/3/3 4/4/4
f 61/61/61 4/4/4 6/6/6
f 60/60/60 61/61/61 6/6/6
f 60/60/60 6/6/6 8/8/8
f 59/59/59 60/60/60 8/8/8
f 59/59/59 8/8/8 10/10/10
f 58/58/58 59/59/59 10/10/10
f 58/58/58 10/10/10 12/12/12
f 57/57/57 58/58/58 12/12/12
f 57/57/57 12/12/12 14/14/14
f 56/56/56 57/57/57 14/14/14
f 56/56/56 14/14/14 16/16/16
f 55/55/55 56/56/56 16/16/16
f 55/55/55 16/16/16 18/18/18
f 54/54/54 55/55/55 18/18/18
f 54/54/54 18/18/18 20/20/20
f 53/53/53 54/54/54 20/20/20
f 53/53/53 20/20/20 22/22/22
f 52/52/52 53/53/53 22/22/22
f 52/52/52 22/22/22 24/24/24
f 51/51/51 52/52/52 24/24/24
f 51/51/51 24/24/24 26/26/26
f 50/50/50 51/51/51 26/26/26
f 50/50/50 26/26/26 28/28/28
f 49/49/49 50/50/50 28/28/28
f 49/49/49 28/28/28 30/30/30
f 48/48/48 49/49/49 30/30/30
f 48/48/48 30/30/30 32/32/32
f 47/47/47 48/48/48 32/32/32
f 72/72/72 71/71/71 70/70/70
f 73/73/73 72/72/72 70/70/70
f 72/72/72 73/73/73 74/74/74
f 73/73/73 75/75/75 74/74/74
f 74/74/74 75/75/75 76/76/76
f 75/75/75 77/77/77 76/76/76
f 80/80/80 79/79/79 78/78/78
f 81/81/81 80/80/80 78/78/78
f 80/80/80 81/81/81 82/82/82
f 81/81/81 83/83/83 82/82/82
f 82/82/82 83/83/83 84/84/84
f 83/83/83 85/85/85 84/84/84
f 84/84/84 85/85/85 86/86/86
f 85/85/85 87/87/87 86/86/86
f 90/90/90 89/89/89 88/88/88
f 91/91/91 90/90/90 88/88/88
f 88/88/88 89/89/89 92/92/92
f 89/89/89 93/93/93 92/92/92
f 92/92/92 93/93/93 94/94/94
f 95/95/95 92/92/92 94/94/94
f 98/98/98 97/97/97 96/96/96
f 99/99/99 98/98/98 96/96/96
f 100/100/100 98/98/98 99/99/99
f 101/101/101 100/100/100 99/99/99
f 102/102/102 100/100/100 101/101/101
f 103/103/103 102/102/102 101/101/101
f 104/104/104 102/102/102 103/103/103
f 105/105/105 104/104/104 103/103/103
f 108/108/108 107/107/107 106/106/106
f 109/109/109 108/108/108 106/106/106
f 110/110/110 108/108/108 109/109/109
f 111/111/111 110/110/110 109/109/109
f 112/112/112 110/110/110 111/111/111
f 113/113/113 112/112/112 111/111/111
f 116/116/116 115/115/115 114/114/114
f 117/117/117 116/116/116 114/114/114
f 120/120/120 119/119/119 118/118/118
f 121/121/121 120/120/120 118/118/118
f 122/122/122 120/120/120 121/121/121
f 123/123/123 122/122/122 121/121/121
f 124/124/124 122/122/122 123/123/123
f 125/125/125 124/124/124 123/123/123
f 126/126/126 124/124/124 125/125/125
f 127/127/127 126/126/126 125/125/125
f 128/128/128 126/126/126 127/127/127
f 129/129/129 128/128/128 127/127/127
f 130/130/130 128/128/128 129/129/129
f 131/131/131 130/130/130 129/129/129
f 134/134/134 133/133/133 132/132/132
f 135/135/135 134/134/134 132/132/132
f 136/136/136 133/133/133 134/134/134
f 137/137/137 136/136/136 134/134/134
f 138/138/138 136/136/136 137/137/137
f 139/139/139 138/138/138 137/137/137
