g m_dlc4_flooredge_01
v -0.1331619 0.1208072 -0.2950578
v -0.1348041 0.09080969 -0.3241957
v 0.1016837 0.09080969 -0.3375227
v 0.1033252 0.1208072 -0.3083848
v 0.1303323 0.1369602 0.002345467
v -0.1303323 0.1369602 0.002345467
v -0.1348041 0.09080969 -0.3241957
v -0.1631122 0.09080969 -0.29337
v -0.1631122 -0.1208072 -0.29337
v -0.1348041 -0.1208072 -0.3241957
v 0.1016837 -0.1208072 -0.3375227
v 0.1016837 0.09080969 -0.3375227
v 0.1332751 0.09080969 -0.3100727
v 0.1016837 0.09080969 -0.3375227
v 0.1016837 -0.1208072 -0.3375227
v 0.1332751 -0.1208072 -0.3100727
v -0.1331619 0.1208072 -0.2950578
v -0.1631122 0.09080969 -0.29337
v -0.1348041 0.09080969 -0.3241957
v 0.1332751 0.09080969 -0.3100727
v 0.1033252 0.1208072 -0.3083848
v 0.1016837 0.09080969 -0.3375227
v 0.1633444 0.1029518 0.002345467
v 0.1303323 0.1369602 0.002345467
v -0.1633444 0.1029518 0.002345467
v -0.1633444 -0.1369602 0.002345467
v -0.1631122 -0.1208072 -0.29337
v -0.1631122 0.09080969 -0.29337
v -0.1303323 0.1369602 0.002345467
v -0.1633444 0.1029518 0.002345467
v -0.1631122 0.09080969 -0.29337
v -0.1331619 0.1208072 -0.2950578
v 0.1633444 -0.1369602 0.002345467
v 0.1633444 0.1029518 0.002345467
v 0.1332751 0.09080969 -0.3100727
v 0.1332751 -0.1208072 -0.3100727
v -0.1142172 0.1208072 0.3045041
v 0.1226141 0.1208072 0.3083424
v 0.1221417 0.09080969 0.3375227
v -0.1146902 0.09080969 0.3336844
v 0.1526077 0.09080969 0.3088286
v -0.1146902 0.09080969 0.3336844
v -0.1146902 -0.1208072 0.3336844
v -0.1442108 -0.1208072 0.3040181
v -0.1442108 0.09080969 0.3040181
v -0.1633444 0.1029518 0.002345467
v -0.1633444 -0.1369602 0.002345467
v 0.1526077 0.09080969 0.3088286
v 0.1526077 -0.1208072 0.3088286
v 0.1221417 -0.1208072 0.3375227
v 0.1221417 0.09080969 0.3375227
v -0.1146902 0.09080969 0.3336844
v -0.1146902 -0.1208072 0.3336844
v -0.1142172 0.1208072 0.3045041
v -0.1146902 0.09080969 0.3336844
v -0.1442108 0.09080969 0.3040181
v -0.1303323 0.1369602 0.002345467
v 0.1303323 0.1369602 0.002345467
v 0.1226141 0.1208072 0.3083424
v -0.1303323 0.1369602 0.002345467
v -0.1442108 0.09080969 0.3040181
v -0.1633444 0.1029518 0.002345467
v 0.1633444 0.1029518 0.002345467
v 0.1526077 0.09080969 0.3088286
v 0.1226141 0.1208072 0.3083424
v 0.1303323 0.1369602 0.002345467
v 0.1633444 -0.1369602 0.002345467
v 0.1526077 -0.1208072 0.3088286
v 0.1526077 0.09080969 0.3088286
v 0.1633444 0.1029518 0.002345467
vt 0.6259766 0.04705811
vt 0.6347656 0.04553223
vt 0.6347656 0.09997559
vt 0.6259766 0.09838867
vt 0.5595703 0.1018066
vt 0.5761719 0.04309082
vt 0.7739258 0.1359863
vt 0.7832031 0.1359863
vt 0.7832031 0.1826172
vt 0.7739258 0.1826172
vt 0.7216797 0.1826172
vt 0.7216797 0.1359863
vt 0.7124023 0.1359863
vt 0.7216797 0.1359863
vt 0.7216797 0.1826172
vt 0.7124023 0.1826172
vt 0.6259766 0.04705811
vt 0.628418 0.03814697
vt 0.6347656 0.04553223
vt 0.628418 0.1072998
vt 0.6259766 0.09838867
vt 0.6347656 0.09997559
vt 0.5571289 0.1123047
vt 0.5595703 0.1018066
vt 0.8310547 0.1333008
vt 0.8310547 0.1861572
vt 0.7832031 0.1826172
vt 0.7832031 0.1359863
vt 0.5761719 0.04309082
vt 0.5786133 0.03259277
vt 0.628418 0.03814697
vt 0.6259766 0.04705811
vt 0.9291992 0.5957031
vt 0.9287109 0.6484375
vt 0.859375 0.6445313
vt 0.8603516 0.5981445
vt 0.6259766 0.04705811
vt 0.6259766 0.09838867
vt 0.6347656 0.09997559
vt 0.6347656 0.04553223
vt 0.628418 0.1072998
vt 0.7739258 0.1359863
vt 0.7739258 0.1826172
vt 0.7832031 0.1826172
vt 0.7832031 0.1359863
vt 0.8310547 0.1333008
vt 0.8310547 0.1861572
vt 0.7124023 0.1359863
vt 0.7124023 0.1826172
vt 0.7216797 0.1826172
vt 0.7216797 0.1359863
vt 0.7739258 0.1359863
vt 0.7739258 0.1826172
vt 0.6259766 0.04705811
vt 0.6347656 0.04553223
vt 0.628418 0.03814697
vt 0.5761719 0.04309082
vt 0.5595703 0.1018066
vt 0.6259766 0.09838867
vt 0.5761719 0.04309082
vt 0.628418 0.03814697
vt 0.5786133 0.03259277
vt 0.5571289 0.1123047
vt 0.628418 0.1072998
vt 0.6259766 0.09838867
vt 0.5595703 0.1018066
vt 0.9291992 0.5957031
vt 0.8603516 0.5981445
vt 0.859375 0.6445313
vt 0.9287109 0.6484375
vn -0.09016404 0.9854704 -0.1439391
vn -0.155638 0.111571 -0.9814932
vn 0.04438 0.111571 -0.992765
vn 0.120028 0.9812184 -0.1510091
vn 0.121123 0.9926232 -0.005322002
vn -0.122797 0.992408 -0.006866001
vn -0.155638 0.111571 -0.9814932
vn -0.9884707 0.111253 -0.102706
vn -0.9946046 0 -0.103738
vn -0.1644719 0 -0.9863816
vn 0.052609 0 -0.9986151
vn 0.04438 0.111571 -0.992765
vn 0.9792753 0.109755 -0.1702171
vn 0.04438 0.111571 -0.992765
vn 0.052609 0 -0.9986151
vn 0.9851276 0 -0.1718239
vn -0.09016404 0.9854704 -0.1439391
vn -0.9884707 0.111253 -0.102706
vn -0.155638 0.111571 -0.9814932
vn 0.9792753 0.109755 -0.1702171
vn 0.120028 0.9812184 -0.1510091
vn 0.04438 0.111571 -0.992765
vn 0.9896799 0.130256 -0.05972499
vn 0.121123 0.9926232 -0.005322002
vn -0.9911238 0.121231 -0.05455999
vn -0.9983954 0 -0.05662702
vn -0.9946046 0 -0.103738
vn -0.9884707 0.111253 -0.102706
vn -0.122797 0.992408 -0.006866001
vn -0.9911238 0.121231 -0.05455999
vn -0.9884707 0.111253 -0.102706
vn -0.09016404 0.9854704 -0.1439391
vn 0.9979098 -0.006906998 -0.06425099
vn 0.9896799 0.130256 -0.05972499
vn 0.9792753 0.109755 -0.1702171
vn 0.9851276 0 -0.1718239
vn -0.09016404 0.9854704 0.1439391
vn 0.120028 0.9812184 0.1510091
vn 0.04438 0.111571 0.992765
vn -0.155638 0.111571 0.9814932
vn 0.9792753 0.109755 0.1702171
vn -0.155638 0.111571 0.9814932
vn -0.1644719 0 0.9863816
vn -0.9946046 0 0.103738
vn -0.9884707 0.111253 0.102706
vn -0.9911238 0.121231 -0.05455999
vn -0.9983954 0 -0.05662702
vn 0.9792753 0.109755 0.1702171
vn 0.9851276 0 0.1718239
vn 0.052609 0 0.9986151
vn 0.04438 0.111571 0.992765
vn -0.155638 0.111571 0.9814932
vn -0.1644719 0 0.9863816
vn -0.09016404 0.9854704 0.1439391
vn -0.155638 0.111571 0.9814932
vn -0.9884707 0.111253 0.102706
vn -0.122797 0.992408 -0.006866001
vn 0.121123 0.9926232 -0.005322002
vn 0.120028 0.9812184 0.1510091
vn -0.122797 0.992408 -0.006866001
vn -0.9884707 0.111253 0.102706
vn -0.9911238 0.121231 -0.05455999
vn 0.9896799 0.130256 -0.05972499
vn 0.9792753 0.109755 0.1702171
vn 0.120028 0.9812184 0.1510091
vn 0.121123 0.9926232 -0.005322002
vn 0.9979098 -0.006906998 -0.06425099
vn 0.9851276 0 0.1718239
vn 0.9792753 0.109755 0.1702171
vn 0.9896799 0.130256 -0.05972499
g m_dlc4_flooredge_01_0
f 3/3/3 2/2/2 1/1/1
f 4/4/4 3/3/3 1/1/1
f 4/4/4 1/1/1 5/5/5
f 1/1/1 6/6/6 5/5/5
f 9/9/9 8/8/8 7/7/7
f 10/10/10 9/9/9 7/7/7
f 11/11/11 10/10/10 7/7/7
f 12/12/12 11/11/11 7/7/7
f 15/15/15 14/14/14 13/13/13
f 16/16/16 15/15/15 13/13/13
f 19/19/19 18/18/18 17/17/17
f 22/22/22 21/21/21 20/20/20
f 20/20/20 21/21/21 23/23/23
f 21/21/21 24/24/24 23/23/23
f 27/27/27 26/26/26 25/25/25
f 28/28/28 27/27/27 25/25/25
f 31/31/31 30/30/30 29/29/29
f 32/32/32 31/31/31 29/29/29
f 35/35/35 34/34/34 33/33/33
f 36/36/36 35/35/35 33/33/33
f 39/39/39 38/38/38 37/37/37
f 40/40/40 39/39/39 37/37/37
f 38/38/38 39/39/39 41/41/41
f 44/44/44 43/43/43 42/42/42
f 45/45/45 44/44/44 42/42/42
f 44/44/44 45/45/45 46/46/46
f 47/47/47 44/44/44 46/46/46
f 50/50/50 49/49/49 48/48/48
f 51/51/51 50/50/50 48/48/48
f 50/50/50 51/51/51 52/52/52
f 53/53/53 50/50/50 52/52/52
f 56/56/56 55/55/55 54/54/54
f 56/56/56 54/54/54 57/57/57
f 57/57/57 54/54/54 58/58/58
f 54/54/54 59/59/59 58/58/58
f 62/62/62 61/61/61 60/60/60
f 65/65/65 64/64/64 63/63/63
f 66/66/66 65/65/65 63/63/63
f 69/69/69 68/68/68 67/67/67
f 70/70/70 69/69/69 67/67/67
