g m_dlc4_floor_Stone1_2_08
v -21.01001 -0.068 -1.800004
v -10.21001 -0.068 -1.793932E-06
v -21.01001 -0.068 -3.014635E-06
v -10.21001 -0.068 -1.800002
v 0.5900007 -0.068 6.474742E-07
v 0.5900007 -0.068 -1.8
v -1.81 -0.068 -12.6
v 0.5900007 -0.068 -1.8
v -1.810002 -0.068 -1.8
v 0.5900019 -0.068 -12.6
v 0.5900031 -0.068 -13.70402
v -10.21 -0.068 -12.60001
v -10.21 -0.068 -13.70402
v 0.5900019 -0.068 -12.6
v -21.01001 -0.068 -13.70402
v -21.01001 -0.068 -12.60001
v -13.81001 -0.068 -12.60001
v -6.610004 -0.068 -1.800001
v -13.81001 -0.068 -1.800003
v -6.610003 -0.068 -12.60001
v -21.01001 -0.068 -12.60001
v -18.61001 -0.068 -1.800004
v -21.01001 -0.068 -1.800004
v -18.61001 -0.068 -12.60001
vt -17 -7.941406
vt 0.5 -10.75781
vt -17 -10.75781
vt 0.5 -7.941406
vt 18 -10.75781
vt 18 -7.941406
vt 14.11719 8.9375
vt 18 -7.941406
vt 14.11719 -7.941406
vt 18 8.9375
vt 18 10.66406
vt 0.5 8.9375
vt 0.5 10.66406
vt 18 8.9375
vt -17 10.66406
vt -17 8.9375
vt -5.335938 8.9375
vt 6.335938 -7.941406
vt -5.335938 -7.941406
vt 6.335938 8.9375
vt -17 8.9375
vt -13.11719 -7.941406
vt -17 -7.941406
vt -13.11719 8.9375
vn 0 1 0
vn 0 1 0
vn 0 1 0
vn 0 1 0
vn 0 1 0
vn 0 1 0
vn 0 1 0
vn 0 1 0
vn 0 1 0
vn 0 1 0
vn 0 1 0
vn 0 1 0
vn 0 1 0
vn 0 1 0
vn 0 1 0
vn 0 1 0
vn 0 1 0
vn 0 1 0
vn 0 1 0
vn 0 1 0
vn 0 1 0
vn 0 1 0
vn 0 1 0
vn 0 1 0
g m_dlc4_floor_Stone1_2_08_0
f 3/3/3 2/2/2 1/1/1
f 1/1/1 2/2/2 4/4/4
f 2/2/2 5/5/5 4/4/4
f 4/4/4 5/5/5 6/6/6
f 9/9/9 8/8/8 7/7/7
f 7/7/7 8/8/8 10/10/10
f 13/13/13 12/12/12 11/11/11
f 11/11/11 12/12/12 14/14/14
f 15/15/15 12/12/12 13/13/13
f 16/16/16 12/12/12 15/15/15
f 19/19/19 18/18/18 17/17/17
f 17/17/17 18/18/18 20/20/20
f 23/23/23 22/22/22 21/21/21
f 21/21/21 22/22/22 24/24/24
