g m_dlc5_wall_straight_top_wide_01
v 0.6 2 0.8833511
v -0.6000024 2 0.8833511
v -0.6000024 2 -0.2927515
v 0.6 2 -0.2927515
v -0.6000024 1.987943 -0.3048096
v 0.6 1.987943 -0.3048096
v 0.6 1.879423 -0.3048096
v -0.6000024 1.879423 -0.3048096
v -0.6000024 1.865482 -0.2998096
v 0.6 1.865482 -0.2998096
v 0.6 1.798287 -0.2500195
v -0.6000024 1.798287 -0.2500195
v -0.6000024 1.792534 -0.2401709
v 0.6 1.792534 -0.2401709
v 0.6 1.987943 0.8954068
v -0.6000024 1.987943 0.8954068
v -0.6000024 1.878641 0.8954068
v 0.6 1.878641 0.8954068
v 0.6 1.864225 0.8904068
v -0.6000024 1.864225 0.8904068
v -0.6000024 1.799419 0.8409708
v 0.6 1.799419 0.8409708
v 0.6 1.792534 0.8306851
v -0.6000024 1.792534 0.8306851
v -0.6000024 1.878641 0.8954068
v -0.6000024 1.864225 0.8904068
v -0.6000024 1.865482 -0.2998096
v -0.6000024 1.879423 -0.3048096
v -0.6000024 1.987943 0.8954068
v -0.6000024 1.987943 -0.3048096
v -0.6000024 2 0.8833511
v -0.6000024 2 -0.2927515
v -0.6000024 1.798287 -0.2500195
v -0.6000024 1.799419 0.8409708
v -0.6000024 1.792534 -0.2401709
v -0.6000024 1.792534 0.8306851
v 0.6 1.878641 0.8954068
v 0.6 1.879423 -0.3048096
v 0.6 1.865482 -0.2998096
v 0.6 1.864225 0.8904068
v 0.6 1.987943 0.8954068
v 0.6 1.987943 -0.3048096
v 0.6 2 -0.2927515
v 0.6 2 0.8833511
v 0.6 1.798287 -0.2500195
v 0.6 1.799419 0.8409708
v 0.6 1.792534 -0.2401709
v 0.6 1.792534 0.8306851
vt 0.4645996 0.5874023
vt 0.4992676 0.5874023
vt 0.4992676 0.5708008
vt 0.4645996 0.5708008
vt 0.4992676 0.5698242
vt 0.4645996 0.5698242
vt 0.4645996 0.5668945
vt 0.4992676 0.5668945
vt 0.4992676 0.5664063
vt 0.4645996 0.5664063
vt 0.4645996 0.5639648
vt 0.4992676 0.5639648
vt 0.4992676 0.5634766
vt 0.4645996 0.5634766
vt 0.4645996 0.5878906
vt 0.4992676 0.5878906
vt 0.4992676 0.5913086
vt 0.4645996 0.5913086
vt 0.4645996 0.5917969
vt 0.4992676 0.5917969
vt 0.4992676 0.59375
vt 0.4645996 0.59375
vt 0.4645996 0.5942383
vt 0.4992676 0.5942383
vt 0.407959 0.5219727
vt 0.407959 0.5219727
vt 0.4060059 0.5219727
vt 0.4060059 0.5219727
vt 0.407959 0.5229492
vt 0.4060059 0.5229492
vt 0.4077148 0.5229492
vt 0.4060059 0.5229492
vt 0.40625 0.5219727
vt 0.4074707 0.5219727
vt 0.40625 0.5219727
vt 0.4074707 0.5219727
vt 0.4060059 0.5209961
vt 0.407959 0.5209961
vt 0.407959 0.5209961
vt 0.4060059 0.5209961
vt 0.4060059 0.5214844
vt 0.407959 0.5214844
vt 0.407959 0.5214844
vt 0.4060059 0.5214844
vt 0.4077148 0.5205078
vt 0.40625 0.5205078
vt 0.4074707 0.5205078
vt 0.40625 0.5205078
vn 0 1 0
vn 0 1 0
vn 0 1 0
vn 0 1 0
vn 0 0 -1
vn 0 0 -1
vn 0 0 -1
vn 0 0 -1
vn 0 -0.5953017 -0.8035022
vn 0 -0.5953017 -0.8035022
vn 0 -0.5953017 -0.8035022
vn 0 -0.5953017 -0.8035022
vn 0 0 -1
vn 0 0 -1
vn 0 0 1
vn 0 0 1
vn 0 0 1
vn 0 0 1
vn 0 -0.6064921 0.7950895
vn 0 -0.6064921 0.7950895
vn 0 -0.6064921 0.7950895
vn 0 -0.6064921 0.7950895
vn 0 0 1
vn 0 0 1
vn -1 0.0001157624 0
vn -1 0.0001157624 0
vn -1 0.0001157624 0
vn -1 0.0001157624 0
vn -1 -4.314181E-05 0
vn -1 -4.314181E-05 0
vn -1 -4.314181E-05 0
vn -1 -4.314181E-05 0
vn -1 0.0002089895 0
vn -1 0.0002089895 0
vn -1 0.0002089895 0
vn -1 0.0002089895 0
vn 1 0 0
vn 1 0 0
vn 1 0 0
vn 1 0 0
vn 1 0 0
vn 1 0 0
vn 1 0 0
vn 1 0 0
vn 1 0 0
vn 1 0 0
vn 1 0 0
vn 1 0 0
g m_dlc5_wall_straight_top_wide_01_0
f 3/3/3 2/2/2 1/1/1
f 4/4/4 3/3/3 1/1/1
f 3/3/3 4/4/4 5/5/5
f 4/4/4 6/6/6 5/5/5
f 6/6/6 7/7/7 5/5/5
f 7/7/7 8/8/8 5/5/5
f 8/8/8 7/7/7 9/9/9
f 7/7/7 10/10/10 9/9/9
f 10/10/10 11/11/11 9/9/9
f 11/11/11 12/12/12 9/9/9
f 13/13/13 12/12/12 11/11/11
f 14/14/14 13/13/13 11/11/11
f 15/15/15 1/1/1 2/2/2
f 16/16/16 15/15/15 2/2/2
f 15/15/15 16/16/16 17/17/17
f 18/18/18 15/15/15 17/17/17
f 18/18/18 17/17/17 19/19/19
f 17/17/17 20/20/20 19/19/19
f 19/19/19 20/20/20 21/21/21
f 22/22/22 19/19/19 21/21/21
f 23/23/23 22/22/22 21/21/21
f 24/24/24 23/23/23 21/21/21
f 27/27/27 26/26/26 25/25/25
f 28/28/28 27/27/27 25/25/25
f 28/28/28 25/25/25 29/29/29
f 29/29/29 30/30/30 28/28/28
f 29/29/29 31/31/31 30/30/30
f 31/31/31 32/32/32 30/30/30
f 27/27/27 33/33/33 26/26/26
f 33/33/33 34/34/34 26/26/26
f 33/33/33 35/35/35 34/34/34
f 35/35/35 36/36/36 34/34/34
f 39/39/39 38/38/38 37/37/37
f 40/40/40 39/39/39 37/37/37
f 41/41/41 37/37/37 38/38/38
f 38/38/38 42/42/42 41/41/41
f 42/42/42 43/43/43 41/41/41
f 43/43/43 44/44/44 41/41/41
f 45/45/45 39/39/39 40/40/40
f 46/46/46 45/45/45 40/40/40
f 47/47/47 45/45/45 46/46/46
f 48/48/48 47/47/47 46/46/46
