g m_dlc5_small_rock_06
v 0.05408159 0.01145673 0.03378608
v 0.05471475 0.04388084 0.034081
v 0.06685356 0.04088733 0.006509552
v 0.06781136 0.01071436 0.006989288
v 0.06840015 0.03789382 -0.01960304
v 0.06767024 0.009959981 -0.0190329
v 0.05815668 0.06340995 -0.01771687
v 0.05456995 0.07445744 0.0004695129
v 0.04288664 0.07990991 0.02550747
v 0.03438614 0.01071436 0.06251907
v 0.03368362 0.04088733 0.06230675
v 0.008791199 0.00995998 0.0766293
v 0.008454552 0.03789382 0.0788829
v 0.02400955 0.07445744 0.05152229
v 0.007488403 0.06340995 0.06475235
v 0.005483055 0.09477055 0.03609467
v -0.009893055 0.07445744 0.0577644
v 0.02336641 0.1016128 0.01078606
v 0.001244354 0.1088075 -0.009212875
v -0.01572966 0.1015698 0.01656971
v -0.03033083 0.07989915 0.03863456
v 0.03727322 0.09477055 -0.01387176
v 0.04832783 0.07445744 -0.03343315
v 0.02945516 0.07982381 -0.05214058
v 0.01689627 0.1015268 -0.03304275
v -0.004627991 0.0944262 -0.05357178
v -0.01838919 0.1013115 -0.03361934
v 0.005436497 0.07411308 -0.06814442
v -0.01195349 0.06287429 -0.07660873
v -0.02252685 0.07385481 -0.07158501
v -0.03390085 0.07938261 -0.05512771
v -0.03346233 0.09459836 -0.006506653
v -0.0473749 0.07441438 0.01782497
v -0.04767776 0.07415611 -0.02576042
v -0.05509338 0.06327602 -0.001311493
v -0.05833866 0.04054296 -0.03381752
v -0.06627131 0.03780771 0.002262268
v -0.04365717 0.0432782 -0.06643223
v -0.04318443 0.01092285 -0.06270912
v -0.05938864 0.0103987 -0.0328759
v -0.06554266 0.00988106 0.002740707
v -0.03202759 0.04019861 -0.0832087
v -0.016614 0.03729119 -0.08661468
v -0.01643288 0.009426676 -0.08198684
v -0.03132131 0.01009973 -0.0784317
v 0.00884737 0.01040104 -0.07531784
v 0.009419518 0.04054297 -0.07911789
v 0.03649931 0.01137841 -0.06148964
v 0.03715004 0.04379474 -0.06372742
v 0.05850286 0.01071436 -0.04356727
v 0.05765461 0.04088733 -0.04345222
v -0.03830793 0.01145673 0.05079677
v -0.03886434 0.04388084 0.05131073
v -0.01627808 0.04088733 0.07150566
v -0.01617033 0.01071436 0.07182746
v -0.0584808 0.01071436 0.03024227
v -0.0576543 0.04088732 0.02943397
v 0.06767024 0.009959981 -0.0190329
v 0.04525805 0.0005686641 -0.01359852
v 0.05113069 0.0005926752 0.004649849
v 0.06781136 0.01071436 0.006989288
v 0.05408159 0.01145673 0.03378608
v 0.03621801 0.0005686641 0.02190224
v 0.0006641006 0.0004321915 -0.002069435
v 0.02599794 0.0005926752 0.04623035
v 0.03438614 0.01071436 0.06251907
v 0.008791199 0.00995998 0.0766293
v 0.006077786 0.0005686641 0.04964584
v 0.04412193 0.0005926752 -0.03341625
v 0.05850286 0.01071436 -0.04356727
v 0.03649931 0.01137841 -0.06148964
v 0.02402134 0.0005136132 -0.03911392
v 0.00884737 0.01040104 -0.07531784
v 0.005246315 0.000372473 -0.04556999
v -0.01643288 0.009426676 -0.08198684
v -0.009771156 0.0002433383 -0.04940582
v -0.03132131 0.01009973 -0.0784317
v -0.0185992 0.0002002931 -0.04724289
v -0.04318443 0.01092285 -0.06270912
v -0.02800886 0.0002409947 -0.03913437
v -0.04477125 0.0003631019 -0.02513359
v -0.05938864 0.0103987 -0.0328759
v -0.06554266 0.00988106 0.002740707
v -0.04358091 0.0005112708 0.0007375336
v -0.009771175 0.0002433383 -0.04940582
v -0.003272781 0.0003434849 -0.0246273
v -0.04403452 0.0005926752 0.02217171
v -0.0584808 0.01071436 0.03024227
v -0.03830793 0.01145673 0.05079677
v -0.02563934 0.0005686641 0.03329136
v -0.01206812 0.0005926752 0.05323902
v -0.01617033 0.01071436 0.07182746
vt 0.5561523 0.1544189
vt 0.5581055 0.151123
vt 0.5551758 0.1495361
vt 0.5537109 0.1514893
vt 0.5537109 0.1474609
vt 0.5507813 0.1484375
vt 0.5556641 0.1468506
vt 0.5571289 0.1477051
vt 0.559082 0.1488037
vt 0.5610352 0.1546631
vt 0.5610352 0.1520996
vt 0.565918 0.1547852
vt 0.5644531 0.1518555
vt 0.5615234 0.1496582
vt 0.5634766 0.1501465
vt 0.5620117 0.147583
vt 0.5644531 0.1486816
vt 0.5600586 0.1467285
vt 0.5605469 0.1447754
vt 0.5625 0.1456299
vt 0.5649414 0.1464844
vt 0.5581055 0.145874
vt 0.5561523 0.1452637
vt 0.5566406 0.1430664
vt 0.5585938 0.1439209
vt 0.559082 0.1418457
vt 0.5610352 0.1427002
vt 0.5576172 0.1408691
vt 0.5585938 0.1392822
vt 0.5595703 0.1395264
vt 0.5610352 0.1402588
vt 0.5629883 0.1435547
vt 0.5654297 0.1442871
vt 0.5634766 0.1414795
vt 0.5654297 0.1424561
vt 0.5644531 0.1394043
vt 0.5673828 0.1417236
vt 0.5615234 0.1376953
vt 0.5615234 0.1340332
vt 0.565918 0.1373291
vt 0.5703125 0.1405029
vt 0.5595703 0.1369629
vt 0.5581055 0.1374512
vt 0.5576172 0.1345215
vt 0.5595703 0.1342773
vt 0.5541992 0.1375732
vt 0.5561523 0.1394043
vt 0.5507813 0.140625
vt 0.5541992 0.1419678
vt 0.5507813 0.1445313
vt 0.5537109 0.1447754
vt 0.5708008 0.1483154
vt 0.5673828 0.1473389
vt 0.5664063 0.1500244
vt 0.5683594 0.1514893
vt 0.5708008 0.1444092
vt 0.5678711 0.1444092
vt 0.5029297 0.1541748
vt 0.5053711 0.1524658
vt 0.5048828 0.1513672
vt 0.5029297 0.1518555
vt 0.5024414 0.1494141
vt 0.5053711 0.1497803
vt 0.5083008 0.1505127
vt 0.5053711 0.1478271
vt 0.5039063 0.1464844
vt 0.5048828 0.1435547
vt 0.5068359 0.1470947
vt 0.5063477 0.1539307
vt 0.5048828 0.1555176
vt 0.5073242 0.1568604
vt 0.5078125 0.1538086
vt 0.5102539 0.1568604
vt 0.5092773 0.1536865
vt 0.5131836 0.1567383
vt 0.5102539 0.1535645
vt 0.5136719 0.1557617
vt 0.5112305 0.1531982
vt 0.5141602 0.1546631
vt 0.5117188 0.1523438
vt 0.512207 0.1508789
vt 0.5141602 0.151001
vt 0.5141602 0.1472168
vt 0.5112305 0.1490479
vt 0.5102539 0.1535645
vt 0.5092773 0.1519775
vt 0.5107422 0.1474609
vt 0.512207 0.1459961
vt 0.5097656 0.1447754
vt 0.5092773 0.1473389
vt 0.5078125 0.1462402
vt 0.5073242 0.144165
vn 0.8029311 -0.3525372 0.4806445
vn 0.8370287 0.217776 0.5019529
vn 0.9519113 0.1930301 0.2379166
vn 0.9024792 -0.3578718 0.2397064
vn 0.9703415 0.1616389 -0.1797505
vn 0.9038514 -0.394541 -0.1654994
vn 0.8930385 0.4188632 -0.1644256
vn 0.8427104 0.5190924 0.1427661
vn 0.699399 0.5721559 0.4283442
vn 0.6396978 -0.3805661 0.6677995
vn 0.66958 0.2025177 0.7145972
vn 0.1667267 -0.42676 0.8888634
vn 0.1707927 0.1809423 0.9685504
vn 0.5005687 0.5643312 0.6564763
vn 0.1572479 0.5103471 0.8454696
vn 0.08664855 0.8441566 0.5290479
vn -0.2962777 0.5923796 0.7492036
vn 0.384476 0.8878396 0.2528227
vn -0.01626209 0.9998622 0.003325775
vn -0.3215294 0.8972818 0.3024964
vn -0.5727952 0.6068177 0.5510699
vn 0.6100651 0.7861061 -0.09928652
vn 0.7451005 0.511094 -0.4284952
vn 0.5329596 0.5361364 -0.6546081
vn 0.3263384 0.8743601 -0.3591624
vn 0.01420611 0.8145045 -0.5799832
vn -0.3978208 0.882726 -0.2500669
vn 0.3208458 0.4835894 -0.8143705
vn 0.09979793 0.4023137 -0.9100462
vn -0.376191 0.5702142 -0.7302987
vn -0.7091258 0.5680583 -0.4176726
vn -0.6287584 0.7773412 0.02008961
vn -0.7801664 0.5466851 0.3040981
vn -0.8391094 0.5009575 -0.2119837
vn -0.9007674 0.4342992 0.001564732
vn -0.9351674 0.1772495 -0.3066667
vn -0.985189 0.1707515 0.01570636
vn -0.8531969 0.1925895 -0.4847311
vn -0.7723469 -0.4337442 -0.4640542
vn -0.8726791 -0.3798928 -0.3067777
vn -0.9303158 -0.366404 0.01614956
vn -0.5749139 0.1481405 -0.8046915
vn 0.08228729 0.06404832 -0.9945485
vn 0.06753297 -0.5832593 -0.8094739
vn -0.5159137 -0.5410965 -0.6641143
vn 0.3259743 -0.5430676 -0.7738334
vn 0.383109 0.1141607 -0.9166214
vn 0.4878058 -0.4571888 -0.7436557
vn 0.581405 0.1764565 -0.7942488
vn 0.7377602 -0.3878543 -0.5525203
vn 0.8029675 0.1815448 -0.5677012
vn -0.6586827 -0.3634225 0.6588332
vn -0.6943328 0.2272031 0.6828475
vn -0.4727618 0.2064245 0.8566711
vn -0.4494801 -0.3940361 0.8016877
vn -0.8094755 -0.3516738 0.4701861
vn -0.8590865 0.2087229 0.4673383
vn 0.9038514 -0.394541 -0.1654994
vn 0.1438895 -0.9892623 -0.02561224
vn 0.2293536 -0.9707022 0.07165165
vn 0.9024792 -0.3578718 0.2397064
vn 0.8029311 -0.3525372 0.4806445
vn 0.1470467 -0.9851248 0.0889177
vn 0.0009895359 -0.9999961 0.00265312
vn 0.1707388 -0.972346 0.1593471
vn 0.6396978 -0.3805661 0.6677995
vn 0.1667267 -0.42676 0.8888634
vn 0.02704277 -0.9900643 0.1379901
vn 0.18394 -0.9700787 -0.1584719
vn 0.7377602 -0.3878543 -0.5525203
vn 0.4878058 -0.4571888 -0.7436557
vn 0.08784196 -0.9823628 -0.1650671
vn 0.3259743 -0.5430676 -0.7738334
vn 0.0951551 -0.9734298 -0.2082784
vn 0.06753297 -0.5832593 -0.8094739
vn 0.0319758 -0.9733655 -0.2270177
vn -0.5159137 -0.5410965 -0.6641143
vn -0.1335802 -0.9778653 -0.1610455
vn -0.7723469 -0.4337442 -0.4640542
vn -0.1413048 -0.9843028 -0.1057408
vn -0.2147809 -0.9735932 -0.07736538
vn -0.8726791 -0.3798928 -0.3067777
vn -0.9303158 -0.366404 0.01614956
vn -0.1693384 -0.9855392 0.006093127
vn 0.007066922 -0.9999727 0.002188188
vn 0.004937226 -0.999983 0.003120034
vn -0.2037885 -0.9706806 0.1274738
vn -0.8094755 -0.3516738 0.4701861
vn -0.6586827 -0.3634225 0.6588332
vn -0.1094819 -0.9873492 0.1146976
vn -0.1277273 -0.971388 0.2002273
vn -0.4494801 -0.3940361 0.8016877
g m_dlc5_small_rock_06_0
f 3/3/3 2/2/2 1/1/1
f 4/4/4 3/3/3 1/1/1
f 5/5/5 3/3/3 4/4/4
f 6/6/6 5/5/5 4/4/4
f 5/5/5 7/7/7 3/3/3
f 7/7/7 8/8/8 3/3/3
f 3/3/3 8/8/8 2/2/2
f 8/8/8 9/9/9 2/2/2
f 1/1/1 2/2/2 10/10/10
f 2/2/2 11/11/11 10/10/10
f 2/2/2 9/9/9 11/11/11
f 10/10/10 11/11/11 12/12/12
f 11/11/11 13/13/13 12/12/12
f 9/9/9 14/14/14 11/11/11
f 11/11/11 14/14/14 13/13/13
f 14/14/14 15/15/15 13/13/13
f 14/14/14 16/16/16 15/15/15
f 16/16/16 17/17/17 15/15/15
f 18/18/18 16/16/16 14/14/14
f 9/9/9 18/18/18 14/14/14
f 18/18/18 19/19/19 16/16/16
f 19/19/19 20/20/20 16/16/16
f 16/16/16 20/20/20 17/17/17
f 20/20/20 21/21/21 17/17/17
f 22/22/22 18/18/18 9/9/9
f 8/8/8 22/22/22 9/9/9
f 23/23/23 22/22/22 8/8/8
f 7/7/7 23/23/23 8/8/8
f 23/23/23 24/24/24 22/22/22
f 24/24/24 25/25/25 22/22/22
f 25/25/25 19/19/19 18/18/18
f 22/22/22 25/25/25 18/18/18
f 25/25/25 26/26/26 19/19/19
f 26/26/26 27/27/27 19/19/19
f 19/19/19 27/27/27 20/20/20
f 28/28/28 26/26/26 25/25/25
f 24/24/24 28/28/28 25/25/25
f 28/28/28 29/29/29 26/26/26
f 29/29/29 30/30/30 26/26/26
f 26/26/26 30/30/30 27/27/27
f 30/30/30 31/31/31 27/27/27
f 20/20/20 32/32/32 21/21/21
f 27/27/27 32/32/32 20/20/20
f 27/27/27 31/31/31 32/32/32
f 32/32/32 33/33/33 21/21/21
f 31/31/31 34/34/34 32/32/32
f 32/32/32 34/34/34 33/33/33
f 34/34/34 35/35/35 33/33/33
f 34/34/34 36/36/36 35/35/35
f 36/36/36 37/37/37 35/35/35
f 33/33/33 35/35/35 37/37/37
f 38/38/38 36/36/36 34/34/34
f 31/31/31 38/38/38 34/34/34
f 38/38/38 39/39/39 36/36/36
f 39/39/39 40/40/40 36/36/36
f 36/36/36 40/40/40 37/37/37
f 40/40/40 41/41/41 37/37/37
f 42/42/42 38/38/38 31/31/31
f 30/30/30 42/42/42 31/31/31
f 43/43/43 42/42/42 30/30/30
f 29/29/29 43/43/43 30/30/30
f 43/43/43 44/44/44 42/42/42
f 44/44/44 45/45/45 42/42/42
f 45/45/45 39/39/39 38/38/38
f 42/42/42 45/45/45 38/38/38
f 44/44/44 43/43/43 46/46/46
f 43/43/43 47/47/47 46/46/46
f 46/46/46 47/47/47 48/48/48
f 47/47/47 49/49/49 48/48/48
f 43/43/43 29/29/29 47/47/47
f 29/29/29 28/28/28 47/47/47
f 47/47/47 28/28/28 49/49/49
f 28/28/28 24/24/24 49/49/49
f 48/48/48 49/49/49 50/50/50
f 49/49/49 51/51/51 50/50/50
f 49/49/49 24/24/24 51/51/51
f 50/50/50 51/51/51 6/6/6
f 51/51/51 5/5/5 6/6/6
f 24/24/24 23/23/23 51/51/51
f 51/51/51 23/23/23 5/5/5
f 23/23/23 7/7/7 5/5/5
f 54/54/54 53/53/53 52/52/52
f 55/55/55 54/54/54 52/52/52
f 13/13/13 54/54/54 55/55/55
f 12/12/12 13/13/13 55/55/55
f 13/13/13 15/15/15 54/54/54
f 15/15/15 17/17/17 54/54/54
f 54/54/54 17/17/17 53/53/53
f 17/17/17 21/21/21 53/53/53
f 52/52/52 53/53/53 56/56/56
f 53/53/53 57/57/57 56/56/56
f 53/53/53 21/21/21 57/57/57
f 56/56/56 57/57/57 41/41/41
f 57/57/57 37/37/37 41/41/41
f 21/21/21 33/33/33 57/57/57
f 57/57/57 33/33/33 37/37/37
f 60/60/60 59/59/59 58/58/58
f 61/61/61 60/60/60 58/58/58
f 60/60/60 61/61/61 62/62/62
f 63/63/63 60/60/60 62/62/62
f 60/60/60 63/63/63 64/64/64
f 59/59/59 60/60/60 64/64/64
f 65/65/65 63/63/63 62/62/62
f 63/63/63 65/65/65 64/64/64
f 66/66/66 65/65/65 62/62/62
f 65/65/65 66/66/66 67/67/67
f 68/68/68 65/65/65 67/67/67
f 65/65/65 68/68/68 64/64/64
f 59/59/59 69/69/69 58/58/58
f 69/69/69 59/59/59 64/64/64
f 69/69/69 70/70/70 58/58/58
f 70/70/70 69/69/69 71/71/71
f 69/69/69 72/72/72 71/71/71
f 72/72/72 69/69/69 64/64/64
f 71/71/71 72/72/72 73/73/73
f 72/72/72 74/74/74 73/73/73
f 72/72/72 64/64/64 74/74/74
f 73/73/73 74/74/74 75/75/75
f 74/74/74 76/76/76 75/75/75
f 75/75/75 76/76/76 77/77/77
f 76/76/76 78/78/78 77/77/77
f 77/77/77 78/78/78 79/79/79
f 78/78/78 80/80/80 79/79/79
f 80/80/80 81/81/81 79/79/79
f 81/81/81 82/82/82 79/79/79
f 82/82/82 81/81/81 83/83/83
f 81/81/81 84/84/84 83/83/83
f 81/81/81 80/80/80 64/64/64
f 84/84/84 81/81/81 64/64/64
f 76/76/76 85/85/85 78/78/78
f 85/85/85 86/86/86 78/78/78
f 86/86/86 64/64/64 80/80/80
f 78/78/78 86/86/86 80/80/80
f 64/64/64 86/86/86 74/74/74
f 86/86/86 85/85/85 76/76/76
f 74/74/74 86/86/86 76/76/76
f 84/84/84 87/87/87 83/83/83
f 87/87/87 84/84/84 64/64/64
f 87/87/87 88/88/88 83/83/83
f 88/88/88 87/87/87 89/89/89
f 87/87/87 90/90/90 89/89/89
f 90/90/90 87/87/87 64/64/64
f 90/90/90 91/91/91 89/89/89
f 91/91/91 90/90/90 64/64/64
f 91/91/91 92/92/92 89/89/89
f 92/92/92 91/91/91 67/67/67
f 91/91/91 68/68/68 67/67/67
f 68/68/68 91/91/91 64/64/64
