g m_dlc5_rope_03
v 0.05558525 0.3456976 -2.094215
v 0.05558525 0.1208176 -1.789758
v -0.05558532 0.1208176 -1.789758
v -0.05558532 0.3456976 -2.094215
v -0.1111706 0.04019897 -1.842387
v -0.1111706 0.2716916 -2.155795
v -0.05558532 -0.04041992 -1.895015
v -0.05558532 0.1976855 -2.217377
v 0.05558525 0.6042129 -2.370682
v -0.05558532 0.6042129 -2.370682
v -0.1111706 0.5378085 -2.440394
v -0.05558532 0.4714044 -2.510104
v -0.05558532 0.1976855 -2.217377
v -0.05558532 -0.04041992 -1.895015
v 0.05558518 -0.04041992 -1.895015
v 0.05558518 0.1976855 -2.217377
v 0.1111704 0.04019897 -1.842387
v 0.1111704 0.2716916 -2.155795
v 0.05558525 0.1208176 -1.789758
v 0.05558525 0.3456976 -2.094215
v -0.05558532 0.4714044 -2.510104
v 0.05558518 0.4714044 -2.510104
v 0.1111704 0.5378085 -2.440394
v 0.05558525 0.6042129 -2.370682
v 0.05558525 -0.06742126 -1.461383
v 0.05558525 -0.2165042 -1.113477
v -0.05558532 -0.2165042 -1.113477
v -0.05558532 -0.06742126 -1.461383
v -0.1111706 -0.3070421 -1.146219
v -0.1111706 -0.1535754 -1.504356
v -0.05558532 -0.3975799 -1.178962
v -0.05558532 -0.2397294 -1.547329
v 0.05558525 0.1208176 -1.789758
v -0.05558532 0.1208176 -1.789758
v -0.1111706 0.04019897 -1.842387
v -0.05558532 -0.04041992 -1.895015
v -0.05558532 -0.2397294 -1.547329
v -0.05558532 -0.3975799 -1.178962
v 0.05558518 -0.3975799 -1.178962
v 0.05558518 -0.2397294 -1.547329
v 0.1111704 -0.3070421 -1.146219
v 0.1111704 -0.1535754 -1.504356
v 0.05558525 -0.2165042 -1.113477
v 0.05558525 -0.06742126 -1.461383
v -0.05558532 -0.04041992 -1.895015
v 0.05558518 -0.04041992 -1.895015
v 0.1111704 0.04019897 -1.842387
v 0.05558525 0.1208176 -1.789758
v 0.05558525 -0.3244385 -0.7506893
v 0.05558525 -0.3897815 -0.3778695
v -0.05558532 -0.3897815 -0.3778695
v -0.05558532 -0.3244385 -0.7506893
v -0.1111706 -0.4854147 -0.3889816
v -0.1111706 -0.4181502 -0.7727645
v -0.05558532 -0.5810478 -0.4000924
v -0.05558532 -0.511862 -0.7948385
v -0.05558532 -0.511862 -0.7948385
v -0.05558532 -0.5810478 -0.4000924
v 0.05558518 -0.5810478 -0.4000924
v 0.05558518 -0.511862 -0.7948385
v 0.1111704 -0.4854147 -0.3889816
v 0.1111704 -0.4181502 -0.7727645
v 0.05558525 -0.3897815 -0.3778695
v 0.05558525 -0.3244385 -0.7506893
v 0.05558525 -0.4116598 7.789777E-08
v 0.05558525 -0.3897813 0.3778699
v -0.05558532 -0.3897813 0.3778699
v -0.05558532 -0.4116598 7.789777E-08
v -0.1111706 -0.4854146 0.3889814
v -0.1111706 -0.5079364 7.789777E-08
v -0.05558532 -0.5810478 0.4000928
v -0.05558532 -0.6042129 7.789777E-08
v 0.05558525 -0.3897815 -0.3778695
v -0.05558532 -0.3897815 -0.3778695
v -0.1111706 -0.4854147 -0.3889816
v -0.05558532 -0.5810478 -0.4000924
v -0.05558532 -0.6042129 7.789777E-08
v -0.05558532 -0.5810478 0.4000928
v 0.05558518 -0.5810478 0.4000928
v 0.05558518 -0.6042129 7.789777E-08
v 0.1111704 -0.4854146 0.3889814
v 0.1111704 -0.5079364 7.789777E-08
v 0.05558525 -0.3897813 0.3778699
v 0.05558525 -0.4116598 7.789777E-08
v -0.05558532 -0.5810478 -0.4000924
v 0.05558518 -0.5810478 -0.4000924
v 0.1111704 -0.4854147 -0.3889816
v 0.05558525 -0.3897815 -0.3778695
v 0.05558525 -0.3244383 0.7506897
v 0.05558525 -0.2165041 1.113477
v -0.05558532 -0.2165041 1.113477
v -0.05558532 -0.3244383 0.7506897
v -0.1111706 -0.3070419 1.146219
v -0.1111706 -0.4181502 0.7727643
v -0.05558532 -0.3975798 1.178962
v -0.05558532 -0.5118619 0.7948389
v 0.05558525 -0.3897813 0.3778699
v -0.05558532 -0.3897813 0.3778699
v -0.1111706 -0.4854146 0.3889814
v -0.05558532 -0.5810478 0.4000928
v -0.05558532 -0.5118619 0.7948389
v -0.05558532 -0.3975798 1.178962
v 0.05558518 -0.3975798 1.178962
v 0.05558518 -0.5118619 0.7948389
v 0.1111704 -0.3070419 1.146219
v 0.1111704 -0.4181502 0.7727643
v 0.05558525 -0.2165041 1.113477
v 0.05558525 -0.3244383 0.7506897
v -0.05558532 -0.5810478 0.4000928
v 0.05558518 -0.5810478 0.4000928
v 0.1111704 -0.4854146 0.3889814
v 0.05558525 -0.3897813 0.3778699
v 0.05558525 -0.06742126 1.461383
v 0.05558525 0.1208179 1.789758
v -0.05558532 0.1208179 1.789758
v -0.05558532 -0.06742126 1.461383
v -0.1111706 0.04019928 1.842387
v -0.1111706 -0.1535751 1.504356
v -0.05558532 -0.04041962 1.895016
v -0.05558532 -0.2397292 1.547329
v 0.05558525 -0.2165041 1.113477
v -0.05558532 -0.2165041 1.113477
v -0.1111706 -0.3070419 1.146219
v -0.05558532 -0.3975798 1.178962
v -0.05558532 -0.2397292 1.547329
v -0.05558532 -0.04041962 1.895016
v 0.05558518 -0.04041962 1.895016
v 0.05558518 -0.2397292 1.547329
v 0.1111704 0.04019928 1.842387
v 0.1111704 -0.1535751 1.504356
v 0.05558525 0.1208179 1.789758
v 0.05558525 -0.06742126 1.461383
v -0.05558532 -0.3975798 1.178962
v 0.05558518 -0.3975798 1.178962
v 0.1111704 -0.3070419 1.146219
v 0.05558525 -0.2165041 1.113477
v 0.05558525 0.3456979 2.094214
v 0.05558525 0.6042129 2.370682
v -0.05558532 0.6042129 2.370682
v -0.05558532 0.3456979 2.094214
v -0.1111706 0.5378085 2.440393
v -0.1111706 0.2716919 2.155796
v -0.05558532 0.4714044 2.510104
v -0.05558532 0.1976859 2.217377
v 0.05558525 0.1208179 1.789758
v -0.05558532 0.1208179 1.789758
v -0.1111706 0.04019928 1.842387
v -0.05558532 -0.04041962 1.895016
v -0.05558532 0.1976859 2.217377
v -0.05558532 0.4714044 2.510104
v 0.05558518 0.4714044 2.510104
v 0.05558518 0.1976859 2.217377
v 0.1111704 0.5378085 2.440393
v 0.1111704 0.2716919 2.155796
v 0.05558525 0.6042129 2.370682
v 0.05558525 0.3456979 2.094214
v -0.05558532 -0.04041962 1.895016
v 0.05558518 -0.04041962 1.895016
v 0.1111704 0.04019928 1.842387
v 0.05558525 0.1208179 1.789758
v 0.05558525 -0.2165042 -1.113477
v 0.05558525 -0.3244385 -0.7506893
v -0.05558532 -0.3244385 -0.7506893
v -0.05558532 -0.2165042 -1.113477
v -0.1111706 -0.4181502 -0.7727645
v -0.1111706 -0.3070421 -1.146219
v -0.05558532 -0.511862 -0.7948385
v -0.05558532 -0.3975799 -1.178962
v -0.05558532 -0.3975799 -1.178962
v -0.05558532 -0.511862 -0.7948385
v 0.05558518 -0.511862 -0.7948385
v 0.05558518 -0.3975799 -1.178962
v 0.1111704 -0.4181502 -0.7727645
v 0.1111704 -0.3070421 -1.146219
v 0.05558525 -0.3244385 -0.7506893
v 0.05558525 -0.2165042 -1.113477
vt 0 0.5
vt 0 1
vt 0.1707764 1
vt 0.1707764 0.5
vt 0.3354492 1
vt 0.3354492 0.5
vt 0.5 1
vt 0.5 0.5
vt 0 0
vt 0.1707764 0
vt 0.3354492 0
vt 0.5 0
vt 0.5 0.5
vt 0.5 1
vt 0.6645508 1
vt 0.6645508 0.5
vt 0.8291016 1
vt 0.8291016 0.5
vt 1 1
vt 1 0.5
vt 0.5 0
vt 0.6645508 0
vt 0.8291016 0
vt 1 0
vt 0 0.5
vt 0 1
vt 0.1707764 1
vt 0.1707764 0.5
vt 0.3354492 1
vt 0.3354492 0.5
vt 0.5 1
vt 0.5 0.5
vt 0 0
vt 0.1707764 0
vt 0.3354492 0
vt 0.5 0
vt 0.5 0.5
vt 0.5 1
vt 0.6645508 1
vt 0.6645508 0.5
vt 0.8291016 1
vt 0.8291016 0.5
vt 1 1
vt 1 0.5
vt 0.5 0
vt 0.6645508 0
vt 0.8291016 0
vt 1 0
vt 0 0.5
vt 0 1
vt 0.1707764 1
vt 0.1707764 0.5
vt 0.3354492 1
vt 0.3354492 0.5
vt 0.5 1
vt 0.5 0.5
vt 0.5 0.5
vt 0.5 1
vt 0.6645508 1
vt 0.6645508 0.5
vt 0.8291016 1
vt 0.8291016 0.5
vt 1 1
vt 1 0.5
vt 0 0.5
vt 0 1
vt 0.1707764 1
vt 0.1707764 0.5
vt 0.3354492 1
vt 0.3354492 0.5
vt 0.5 1
vt 0.5 0.5
vt 0 0
vt 0.1707764 0
vt 0.3354492 0
vt 0.5 0
vt 0.5 0.5
vt 0.5 1
vt 0.6645508 1
vt 0.6645508 0.5
vt 0.8291016 1
vt 0.8291016 0.5
vt 1 1
vt 1 0.5
vt 0.5 0
vt 0.6645508 0
vt 0.8291016 0
vt 1 0
vt 0 0.5
vt 0 1
vt 0.1707764 1
vt 0.1707764 0.5
vt 0.3354492 1
vt 0.3354492 0.5
vt 0.5 1
vt 0.5 0.5
vt 0 0
vt 0.1707764 0
vt 0.3354492 0
vt 0.5 0
vt 0.5 0.5
vt 0.5 1
vt 0.6645508 1
vt 0.6645508 0.5
vt 0.8291016 1
vt 0.8291016 0.5
vt 1 1
vt 1 0.5
vt 0.5 0
vt 0.6645508 0
vt 0.8291016 0
vt 1 0
vt 0 0.5
vt 0 1
vt 0.1707764 1
vt 0.1707764 0.5
vt 0.3354492 1
vt 0.3354492 0.5
vt 0.5 1
vt 0.5 0.5
vt 0 0
vt 0.1707764 0
vt 0.3354492 0
vt 0.5 0
vt 0.5 0.5
vt 0.5 1
vt 0.6645508 1
vt 0.6645508 0.5
vt 0.8291016 1
vt 0.8291016 0.5
vt 1 1
vt 1 0.5
vt 0.5 0
vt 0.6645508 0
vt 0.8291016 0
vt 1 0
vt 0 0.5
vt 0 1
vt 0.1707764 1
vt 0.1707764 0.5
vt 0.3354492 1
vt 0.3354492 0.5
vt 0.5 1
vt 0.5 0.5
vt 0 0
vt 0.1707764 0
vt 0.3354492 0
vt 0.5 0
vt 0.5 0.5
vt 0.5 1
vt 0.6645508 1
vt 0.6645508 0.5
vt 0.8291016 1
vt 0.8291016 0.5
vt 1 1
vt 1 0.5
vt 0.5 0
vt 0.6645508 0
vt 0.8291016 0
vt 1 0
vt 0 0
vt 0 0.5
vt 0.1707764 0.5
vt 0.1707764 0
vt 0.3354492 0.5
vt 0.3354492 0
vt 0.5 0.5
vt 0.5 0
vt 0.5 0
vt 0.5 0.5
vt 0.6645508 0.5
vt 0.6645508 0
vt 0.8291016 0.5
vt 0.8291016 0
vt 1 0.5
vt 1 0
vn 0.5114473 0.6605396 0.5496445
vn 0.5114476 0.7195616 0.4697367
vn -0.5114475 0.7195615 0.4697368
vn -0.5114473 0.6605396 0.5496446
vn -0.9996454 -0.02230048 -0.01455813
vn -0.9996454 -0.02047122 -0.01703428
vn -0.4883624 -0.7307202 -0.4770222
vn -0.4883631 -0.6707831 -0.5581681
vn 0.510816 0.6279377 0.5871636
vn -0.5108159 0.6279379 0.5871637
vn -0.9996442 -0.01948611 -0.01822012
vn -0.4877415 -0.6376517 -0.5962453
vn -0.4883631 -0.6707831 -0.5581681
vn -0.4883624 -0.7307202 -0.4770222
vn 0.4883626 -0.7307202 -0.4770222
vn 0.4883632 -0.670783 -0.5581681
vn 0.9996454 -0.02230077 -0.01455839
vn 0.9996454 -0.02047128 -0.01703448
vn 0.5114476 0.7195616 0.4697367
vn 0.5114473 0.6605396 0.5496445
vn -0.4877415 -0.6376517 -0.5962453
vn 0.4877418 -0.6376514 -0.5962455
vn 0.9996442 -0.01948584 -0.01822033
vn 0.510816 0.6279377 0.5871636
vn 0.5114486 0.7689657 0.3835519
vn 0.5114484 0.8080937 0.2922414
vn -0.5114481 0.8080939 0.2922415
vn -0.5114485 0.7689657 0.3835521
vn -0.9996454 -0.02504354 -0.009056748
vn -0.9996454 -0.02383154 -0.01188677
vn -0.4883633 -0.820626 -0.2967733
vn -0.4883628 -0.7808912 -0.3895005
vn 0.5114476 0.7195616 0.4697367
vn -0.5114475 0.7195615 0.4697368
vn -0.9996454 -0.02230048 -0.01455813
vn -0.4883624 -0.7307202 -0.4770222
vn -0.4883628 -0.7808912 -0.3895005
vn -0.4883633 -0.820626 -0.2967733
vn 0.4883631 -0.8206261 -0.2967733
vn 0.4883627 -0.7808914 -0.3895004
vn 0.9996454 -0.02504466 -0.00905704
vn 0.9996454 -0.02383249 -0.01188715
vn 0.5114484 0.8080937 0.2922414
vn 0.5114486 0.7689657 0.3835519
vn -0.4883624 -0.7307202 -0.4770222
vn 0.4883626 -0.7307202 -0.4770222
vn 0.9996454 -0.02230077 -0.01455839
vn 0.5114476 0.7195616 0.4697367
vn 0.5114481 0.8364221 0.1970249
vn 0.5114484 0.8535718 0.09917507
vn -0.5114483 0.8535718 0.09917514
vn -0.511448 0.8364223 0.197025
vn -0.9996454 -0.02645392 -0.003073539
vn -0.9996454 -0.02592185 -0.006106013
vn -0.4883621 -0.8668098 -0.100713
vn -0.4883622 -0.849394 -0.2000803
vn -0.4883622 -0.849394 -0.2000803
vn -0.4883621 -0.8668098 -0.100713
vn 0.4883622 -0.8668098 -0.1007131
vn 0.4883624 -0.8493939 -0.2000803
vn 0.9996454 -0.02645329 -0.003073585
vn 0.9996454 -0.02592209 -0.006106075
vn 0.5114484 0.8535718 0.09917507
vn 0.5114481 0.8364221 0.1970249
vn 0.5114483 0.859314 -2.421067E-07
vn 0.5114483 0.8535718 -0.09917525
vn -0.5114482 0.8535718 -0.09917531
vn -0.511448 0.8593142 -2.649315E-07
vn -0.9996454 -0.02645349 0.003073484
vn -0.9996454 -0.02663165 0
vn -0.4883623 -0.8668098 0.1007132
vn -0.4883621 -0.8726411 0
vn 0.5114484 0.8535718 0.09917507
vn -0.5114483 0.8535718 0.09917514
vn -0.9996454 -0.02645392 -0.003073539
vn -0.4883621 -0.8668098 -0.100713
vn -0.4883621 -0.8726411 0
vn -0.4883623 -0.8668098 0.1007132
vn 0.4883624 -0.8668096 0.1007132
vn 0.4883623 -0.872641 0
vn 0.9996454 -0.02645382 0.003073602
vn 0.9996454 -0.02663117 0
vn 0.5114483 0.8535718 -0.09917525
vn 0.5114483 0.859314 -2.421067E-07
vn -0.4883621 -0.8668098 -0.100713
vn 0.4883622 -0.8668098 -0.1007131
vn 0.9996454 -0.02645329 -0.003073585
vn 0.5114484 0.8535718 0.09917507
vn 0.511448 0.8364223 -0.1970248
vn 0.5114473 0.8080944 -0.2922414
vn -0.5114474 0.8080944 -0.2922414
vn -0.5114481 0.8364222 -0.1970249
vn -0.9996454 -0.02504381 0.009056968
vn -0.9996454 -0.02592218 0.006106135
vn -0.4883626 -0.8206261 0.2967739
vn -0.4883624 -0.8493939 0.2000807
vn 0.5114483 0.8535718 -0.09917525
vn -0.5114482 0.8535718 -0.09917531
vn -0.9996454 -0.02645349 0.003073484
vn -0.4883623 -0.8668098 0.1007132
vn -0.4883624 -0.8493939 0.2000807
vn -0.4883626 -0.8206261 0.2967739
vn 0.4883627 -0.8206261 0.2967739
vn 0.4883625 -0.8493938 0.2000807
vn 0.9996454 -0.02504431 0.00905721
vn 0.9996454 -0.02592247 0.006106327
vn 0.5114473 0.8080944 -0.2922414
vn 0.511448 0.8364223 -0.1970248
vn -0.4883623 -0.8668098 0.1007132
vn 0.4883624 -0.8668096 0.1007132
vn 0.9996454 -0.02645382 0.003073602
vn 0.5114483 0.8535718 -0.09917525
vn 0.511448 0.768966 -0.3835523
vn 0.5114483 0.7195607 -0.4697373
vn -0.511448 0.7195608 -0.4697374
vn -0.511448 0.7689659 -0.3835525
vn -0.9996454 -0.02230019 0.01455762
vn -0.9996454 -0.02383148 0.01188686
vn -0.4883625 -0.7307203 0.4770221
vn -0.4883627 -0.7808912 0.3895006
vn 0.5114473 0.8080944 -0.2922414
vn -0.5114474 0.8080944 -0.2922414
vn -0.9996454 -0.02504381 0.009056968
vn -0.4883626 -0.8206261 0.2967739
vn -0.4883627 -0.7808912 0.3895006
vn -0.4883625 -0.7307203 0.4770221
vn 0.4883624 -0.7307203 0.4770221
vn 0.4883625 -0.7808914 0.3895006
vn 0.9996454 -0.02230072 0.01455805
vn 0.9996454 -0.0238321 0.01188725
vn 0.5114483 0.7195607 -0.4697373
vn 0.511448 0.768966 -0.3835523
vn -0.4883626 -0.8206261 0.2967739
vn 0.4883627 -0.8206261 0.2967739
vn 0.9996454 -0.02504431 0.00905721
vn 0.5114473 0.8080944 -0.2922414
vn 0.511448 0.6605393 -0.5496444
vn 0.5108159 0.6279384 -0.587163
vn -0.5108159 0.6279384 -0.587163
vn -0.5114477 0.6605394 -0.5496444
vn -0.9996442 -0.01948457 0.01821944
vn -0.9996454 -0.02047103 0.01703415
vn -0.4877397 -0.6376525 0.5962462
vn -0.4883623 -0.6707834 0.5581684
vn 0.5114483 0.7195607 -0.4697373
vn -0.511448 0.7195608 -0.4697374
vn -0.9996454 -0.02230019 0.01455762
vn -0.4883625 -0.7307203 0.4770221
vn -0.4883623 -0.6707834 0.5581684
vn -0.4877397 -0.6376525 0.5962462
vn 0.4877397 -0.6376525 0.5962462
vn 0.4883623 -0.6707834 0.5581684
vn 0.9996442 -0.01948538 0.01822023
vn 0.9996454 -0.02047174 0.01703469
vn 0.5108159 0.6279384 -0.587163
vn 0.511448 0.6605393 -0.5496444
vn -0.4883625 -0.7307203 0.4770221
vn 0.4883624 -0.7307203 0.4770221
vn 0.9996454 -0.02230072 0.01455805
vn 0.5114483 0.7195607 -0.4697373
vn 0.5114484 0.8080937 0.2922414
vn 0.5114481 0.8364221 0.1970249
vn -0.511448 0.8364223 0.197025
vn -0.5114481 0.8080939 0.2922415
vn -0.9996454 -0.02592185 -0.006106013
vn -0.9996454 -0.02504354 -0.009056748
vn -0.4883622 -0.849394 -0.2000803
vn -0.4883633 -0.820626 -0.2967733
vn -0.4883633 -0.820626 -0.2967733
vn -0.4883622 -0.849394 -0.2000803
vn 0.4883624 -0.8493939 -0.2000803
vn 0.4883631 -0.8206261 -0.2967733
vn 0.9996454 -0.02592209 -0.006106075
vn 0.9996454 -0.02504466 -0.00905704
vn 0.5114481 0.8364221 0.1970249
vn 0.5114484 0.8080937 0.2922414
g m_dlc5_rope_03_0
f 3/3/3 2/2/2 1/1/1
f 4/4/4 3/3/3 1/1/1
f 5/5/5 3/3/3 4/4/4
f 6/6/6 5/5/5 4/4/4
f 7/7/7 5/5/5 6/6/6
f 8/8/8 7/7/7 6/6/6
f 4/4/4 1/1/1 9/9/9
f 10/10/10 4/4/4 9/9/9
f 6/6/6 4/4/4 10/10/10
f 11/11/11 6/6/6 10/10/10
f 8/8/8 6/6/6 11/11/11
f 12/12/12 8/8/8 11/11/11
f 15/15/15 14/14/14 13/13/13
f 16/16/16 15/15/15 13/13/13
f 17/17/17 15/15/15 16/16/16
f 18/18/18 17/17/17 16/16/16
f 19/19/19 17/17/17 18/18/18
f 20/20/20 19/19/19 18/18/18
f 16/16/16 13/13/13 21/21/21
f 22/22/22 16/16/16 21/21/21
f 18/18/18 16/16/16 22/22/22
f 23/23/23 18/18/18 22/22/22
f 20/20/20 18/18/18 23/23/23
f 24/24/24 20/20/20 23/23/23
f 27/27/27 26/26/26 25/25/25
f 28/28/28 27/27/27 25/25/25
f 29/29/29 27/27/27 28/28/28
f 30/30/30 29/29/29 28/28/28
f 31/31/31 29/29/29 30/30/30
f 32/32/32 31/31/31 30/30/30
f 28/28/28 25/25/25 33/33/33
f 34/34/34 28/28/28 33/33/33
f 30/30/30 28/28/28 34/34/34
f 35/35/35 30/30/30 34/34/34
f 32/32/32 30/30/30 35/35/35
f 36/36/36 32/32/32 35/35/35
f 39/39/39 38/38/38 37/37/37
f 40/40/40 39/39/39 37/37/37
f 41/41/41 39/39/39 40/40/40
f 42/42/42 41/41/41 40/40/40
f 43/43/43 41/41/41 42/42/42
f 44/44/44 43/43/43 42/42/42
f 40/40/40 37/37/37 45/45/45
f 46/46/46 40/40/40 45/45/45
f 42/42/42 40/40/40 46/46/46
f 47/47/47 42/42/42 46/46/46
f 44/44/44 42/42/42 47/47/47
f 48/48/48 44/44/44 47/47/47
f 51/51/51 50/50/50 49/49/49
f 52/52/52 51/51/51 49/49/49
f 53/53/53 51/51/51 52/52/52
f 54/54/54 53/53/53 52/52/52
f 55/55/55 53/53/53 54/54/54
f 56/56/56 55/55/55 54/54/54
f 59/59/59 58/58/58 57/57/57
f 60/60/60 59/59/59 57/57/57
f 61/61/61 59/59/59 60/60/60
f 62/62/62 61/61/61 60/60/60
f 63/63/63 61/61/61 62/62/62
f 64/64/64 63/63/63 62/62/62
f 67/67/67 66/66/66 65/65/65
f 68/68/68 67/67/67 65/65/65
f 69/69/69 67/67/67 68/68/68
f 70/70/70 69/69/69 68/68/68
f 71/71/71 69/69/69 70/70/70
f 72/72/72 71/71/71 70/70/70
f 68/68/68 65/65/65 73/73/73
f 74/74/74 68/68/68 73/73/73
f 70/70/70 68/68/68 74/74/74
f 75/75/75 70/70/70 74/74/74
f 72/72/72 70/70/70 75/75/75
f 76/76/76 72/72/72 75/75/75
f 79/79/79 78/78/78 77/77/77
f 80/80/80 79/79/79 77/77/77
f 81/81/81 79/79/79 80/80/80
f 82/82/82 81/81/81 80/80/80
f 83/83/83 81/81/81 82/82/82
f 84/84/84 83/83/83 82/82/82
f 80/80/80 77/77/77 85/85/85
f 86/86/86 80/80/80 85/85/85
f 82/82/82 80/80/80 86/86/86
f 87/87/87 82/82/82 86/86/86
f 84/84/84 82/82/82 87/87/87
f 88/88/88 84/84/84 87/87/87
f 91/91/91 90/90/90 89/89/89
f 92/92/92 91/91/91 89/89/89
f 93/93/93 91/91/91 92/92/92
f 94/94/94 93/93/93 92/92/92
f 95/95/95 93/93/93 94/94/94
f 96/96/96 95/95/95 94/94/94
f 92/92/92 89/89/89 97/97/97
f 98/98/98 92/92/92 97/97/97
f 94/94/94 92/92/92 98/98/98
f 99/99/99 94/94/94 98/98/98
f 96/96/96 94/94/94 99/99/99
f 100/100/100 96/96/96 99/99/99
f 103/103/103 102/102/102 101/101/101
f 104/104/104 103/103/103 101/101/101
f 105/105/105 103/103/103 104/104/104
f 106/106/106 105/105/105 104/104/104
f 107/107/107 105/105/105 106/106/106
f 108/108/108 107/107/107 106/106/106
f 104/104/104 101/101/101 109/109/109
f 110/110/110 104/104/104 109/109/109
f 106/106/106 104/104/104 110/110/110
f 111/111/111 106/106/106 110/110/110
f 108/108/108 106/106/106 111/111/111
f 112/112/112 108/108/108 111/111/111
f 115/115/115 114/114/114 113/113/113
f 116/116/116 115/115/115 113/113/113
f 117/117/117 115/115/115 116/116/116
f 118/118/118 117/117/117 116/116/116
f 119/119/119 117/117/117 118/118/118
f 120/120/120 119/119/119 118/118/118
f 116/116/116 113/113/113 121/121/121
f 122/122/122 116/116/116 121/121/121
f 118/118/118 116/116/116 122/122/122
f 123/123/123 118/118/118 122/122/122
f 120/120/120 118/118/118 123/123/123
f 124/124/124 120/120/120 123/123/123
f 127/127/127 126/126/126 125/125/125
f 128/128/128 127/127/127 125/125/125
f 129/129/129 127/127/127 128/128/128
f 130/130/130 129/129/129 128/128/128
f 131/131/131 129/129/129 130/130/130
f 132/132/132 131/131/131 130/130/130
f 128/128/128 125/125/125 133/133/133
f 134/134/134 128/128/128 133/133/133
f 130/130/130 128/128/128 134/134/134
f 135/135/135 130/130/130 134/134/134
f 132/132/132 130/130/130 135/135/135
f 136/136/136 132/132/132 135/135/135
f 139/139/139 138/138/138 137/137/137
f 140/140/140 139/139/139 137/137/137
f 141/141/141 139/139/139 140/140/140
f 142/142/142 141/141/141 140/140/140
f 143/143/143 141/141/141 142/142/142
f 144/144/144 143/143/143 142/142/142
f 140/140/140 137/137/137 145/145/145
f 146/146/146 140/140/140 145/145/145
f 142/142/142 140/140/140 146/146/146
f 147/147/147 142/142/142 146/146/146
f 144/144/144 142/142/142 147/147/147
f 148/148/148 144/144/144 147/147/147
f 151/151/151 150/150/150 149/149/149
f 152/152/152 151/151/151 149/149/149
f 153/153/153 151/151/151 152/152/152
f 154/154/154 153/153/153 152/152/152
f 155/155/155 153/153/153 154/154/154
f 156/156/156 155/155/155 154/154/154
f 152/152/152 149/149/149 157/157/157
f 158/158/158 152/152/152 157/157/157
f 154/154/154 152/152/152 158/158/158
f 159/159/159 154/154/154 158/158/158
f 156/156/156 154/154/154 159/159/159
f 160/160/160 156/156/156 159/159/159
f 163/163/163 162/162/162 161/161/161
f 164/164/164 163/163/163 161/161/161
f 165/165/165 163/163/163 164/164/164
f 166/166/166 165/165/165 164/164/164
f 167/167/167 165/165/165 166/166/166
f 168/168/168 167/167/167 166/166/166
f 171/171/171 170/170/170 169/169/169
f 172/172/172 171/171/171 169/169/169
f 173/173/173 171/171/171 172/172/172
f 174/174/174 173/173/173 172/172/172
f 175/175/175 173/173/173 174/174/174
f 176/176/176 175/175/175 174/174/174
