g m_dlc5_buntingrope_01
v 0.1068332 -1.49186 5.631623
v 0.08729492 -1.540922 5.347182
v -0.003242187 -1.598396 5.362421
v -0.00396759 -1.56371 5.652191
v 0.0699942 -1.368348 5.596265
v 0.05719299 -1.44169 5.320926
v -0.06357422 -1.363864 5.594982
v -0.05194733 -1.438002 5.319961
v -0.1092853 -1.484604 5.629545
v -0.0892984 -1.534956 5.345621
v -0.00396759 -1.56371 5.652191
v -0.003242187 -1.598396 5.362421
v -0.1092853 -1.450058 5.775148
v -0.00396759 -1.528998 5.798367
v -0.06357422 -1.329573 5.739709
v -0.00396759 -1.528998 5.798367
v 0.1068332 -1.457299 5.777277
v 0.0699942 -1.334048 5.741025
v 0.08729492 -1.385063 6.009108
v -0.003242188 -1.443569 6.026612
v 0.05719299 -1.284492 5.979017
v -0.05194733 -1.28084 5.977925
v -0.0892984 -1.379155 6.00734
v -0.003242188 -1.443569 6.026612
v -0.1092853 -1.599147 5.05784
v -0.06357422 -1.483518 5.030768
v 0.0699942 -1.488067 5.031799
v 0.1068332 -1.606507 5.059509
v -0.00396759 -1.674929 5.075542
v -0.05196228 -1.550462 4.7875
v -0.08932434 -1.643471 4.806202
v 0.05720977 -1.554207 4.788213
v 0.08731995 -1.648877 4.807312
v -0.003242798 -1.703181 4.818373
v -0.003242798 -1.703181 4.818373
v -0.00396759 -1.674929 5.075542
v -0.00396759 -1.762226 4.566057
v 0.1068332 -1.696797 4.555151
v 0.1068332 -1.71684 4.398333
v -0.003967591 -1.78177 4.407669
v -0.003242187 -1.787571 4.101488
v 0.08729492 -1.734673 4.096141
v 0.0699942 -1.603438 4.382198
v 0.05719299 -1.641837 4.087
v -0.06357422 -1.599429 4.381613
v -0.05194733 -1.638039 4.086682
v -0.1092853 -1.710393 4.397387
v -0.0892984 -1.729777 4.095647
v -0.003967591 -1.78177 4.407669
v -0.003242187 -1.787571 4.101488
v -0.1092853 -1.690258 4.55405
v -0.00396759 -1.762226 4.566057
v -0.06357422 -1.57882 4.535625
v 0.0699942 -1.582739 4.536301
v -0.06357422 -1.624504 3.784267
v -0.1092853 -1.736947 3.790896
v -0.00396759 -1.808568 3.795334
v -0.05196228 -1.623365 3.529236
v -0.08932434 -1.718388 3.532116
v -0.1092853 -1.695887 3.278445
v -0.06357422 -1.57737 3.276983
v -0.1092853 -1.674377 3.125022
v -0.00396759 -1.751428 3.125675
v -0.0892984 -1.615231 2.83617
v -0.003242187 -1.681043 2.836312
v -0.05194733 -1.511556 2.836312
v -0.06357422 -1.553961 3.124332
v 0.05719299 -1.515546 2.836291
v 0.0699942 -1.558626 3.124337
v 0.08729492 -1.621398 2.83617
v 0.1068332 -1.681924 3.125031
v -0.003242187 -1.681043 2.836312
v -0.00396759 -1.751428 3.125675
v -0.00396759 -1.771341 3.279636
v -0.00396759 -1.771341 3.279636
v 0.1068332 -1.702736 3.278567
v 0.0699942 -1.582534 3.276954
v -0.003242798 -1.778217 3.534163
v 0.08731995 -1.723778 3.53232
v 0.05720977 -1.627323 3.529304
v 0.1068332 -1.538425 2.547616
v -0.00396759 -1.610821 2.548976
v 0.0699942 -1.413945 2.54554
v -0.06357422 -1.40928 2.545552
v -0.1092853 -1.530949 2.547623
v -0.00396759 -1.610821 2.548976
v -0.05196228 -1.352076 2.28364
v -0.08932434 -1.446442 2.287599
v 0.05720977 -1.355888 2.283567
v 0.08731995 -1.452553 2.287515
v -0.003242798 -1.506213 2.290276
v -0.003242798 -1.506213 2.290276
v -0.00396759 -1.442419 2.018706
v 0.1068332 -1.379532 2.014983
v 0.1068332 -1.323772 1.844176
v -0.00396759 -1.386967 1.84708
v -0.003242187 -1.24221 1.518146
v 0.08729492 -1.190521 1.518901
v 0.0699942 -1.206259 1.842127
v 0.05719299 -1.091546 1.524452
v -0.06357422 -1.201763 1.842216
v -0.05194733 -1.087668 1.524868
v -0.1092853 -1.317296 1.843911
v -0.0892984 -1.184644 1.519119
v -0.00396759 -1.386967 1.84708
v -0.003242187 -1.24221 1.518146
v -0.1092853 -1.37245 2.014689
v -0.00396759 -1.442419 2.018706
v -0.06357422 -1.25704 2.011121
v 0.0699942 -1.261698 2.010875
v -0.06357422 -0.902382 1.225753
v -0.1092853 -1.0245 1.207085
v -0.00396759 -1.099544 1.198751
v -0.05196228 -0.7460527 0.9910632
v -0.08932433 -0.8499566 0.9649087
v 0.05720977 -0.7501695 0.9898517
v 0.0699942 -0.9069593 1.224755
v 0.1068332 -1.031917 1.206136
v -0.00396759 -1.099544 1.198751
v 0.08731995 -0.8560452 0.9635229
v -0.003242797 -0.9127324 0.9514474
v -0.003242797 -0.9127324 0.9514474
v -0.00396759 -0.7472006 0.7230273
v 0.1068332 -0.6757692 0.7442224
v 0.1068332 -0.5573069 0.6209396
v -0.003967591 -0.6290303 0.5963058
v -0.003242187 -0.3851689 0.3780304
v 0.08729492 -0.3268992 0.4022778
v 0.0699942 -0.4276169 0.6681805
v 0.05719299 -0.2224396 0.4462704
v -0.06357422 -0.422742 0.670032
v -0.05194733 -0.2189196 0.4477322
v -0.1092853 -0.5497583 0.6235895
v -0.0892984 -0.3210846 0.4046399
v -0.003967591 -0.6290303 0.5963058
v -0.003242187 -0.3851689 0.3780304
v -0.1092853 -0.668289 0.7465289
v -0.00396759 -0.7472006 0.7230273
v -0.06357422 -0.5408469 0.7880517
v 0.0699942 -0.5457918 0.786322
v -0.06357422 -0.0005082452 0.235946
v -0.1092853 -0.120622 0.182197
v -0.00396759 -0.1976188 0.1478451
v -0.05197754 0.1272687 0.03022949
v -0.08935028 0.03111121 -0.01347107
v 0.05722626 0.1237936 0.02865906
v 0.0699942 -0.004771775 0.2340546
v 0.1068332 -0.1275207 0.1791364
v -0.00396759 -0.1976188 0.1478451
v 0.08734558 0.02544877 -0.01601227
v -0.003244018 -0.03097306 -0.04162323
v -0.003244018 -0.03097306 -0.04162323
v -0.003242798 -1.778217 3.534163
v 0.1068332 -1.743386 3.791318
v -0.00396759 -1.808568 3.795334
v 0.0699942 -1.629164 3.784481
vt 0.7978516 8.429688
vt 0.7978516 7.988281
vt 0.9960938 7.988281
vt 0.9960938 8.429688
vt 0.5986328 8.429688
vt 0.5986328 7.988281
vt 0.4040527 8.429688
vt 0.4040527 7.988281
vt 0.2075195 8.429688
vt 0.2075195 7.988281
vt 0.009597778 8.429688
vt 0.009597778 7.988281
vt 0.2075195 8.664063
vt 0.009597778 8.664063
vt 0.4040527 8.664063
vt 0.9960938 8.664063
vt 0.7978516 8.664063
vt 0.5986328 8.664063
vt 0.7978516 9.039063
vt 0.9960938 9.039063
vt 0.5986328 9.039063
vt 0.4040527 9.039063
vt 0.2075195 9.039063
vt 0.009597778 9.039063
vt 0.2075195 7.546875
vt 0.4040527 7.546875
vt 0.5986328 7.546875
vt 0.7978516 7.546875
vt 0.9960938 7.546875
vt 0.4040527 7.164063
vt 0.2075195 7.164063
vt 0.5986328 7.164063
vt 0.7978516 7.164063
vt 0.9960938 7.164063
vt 0.009597778 7.164063
vt 0.009597778 7.546875
vt 0.9960938 6.789063
vt 0.7978516 6.789063
vt 0.7978516 6.550781
vt 0.9960938 6.550781
vt 0.9960938 6.113281
vt 0.7978516 6.113281
vt 0.5986328 6.550781
vt 0.5986328 6.113281
vt 0.4040527 6.550781
vt 0.4040527 6.113281
vt 0.2075195 6.550781
vt 0.2075195 6.113281
vt 0.009597778 6.550781
vt 0.009597778 6.113281
vt 0.2075195 6.789063
vt 0.009597778 6.789063
vt 0.4040527 6.789063
vt 0.5986328 6.789063
vt 0.4040527 5.667969
vt 0.2075195 5.667969
vt 0.009597778 5.667969
vt 0.4040527 5.289063
vt 0.2075195 5.289063
vt 0.2075195 4.910156
vt 0.4040527 4.910156
vt 0.2075195 4.675781
vt 0.009597778 4.675781
vt 0.2075195 4.238281
vt 0.009597778 4.238281
vt 0.4040527 4.238281
vt 0.4040527 4.675781
vt 0.5986328 4.238281
vt 0.5986328 4.675781
vt 0.7978516 4.238281
vt 0.7978516 4.675781
vt 0.9960938 4.238281
vt 0.9960938 4.675781
vt 0.009597778 4.910156
vt 0.9960938 4.910156
vt 0.7978516 4.910156
vt 0.5986328 4.910156
vt 0.9960938 5.289063
vt 0.7978516 5.289063
vt 0.5986328 5.289063
vt 0.7978516 3.791016
vt 0.9960938 3.791016
vt 0.5986328 3.791016
vt 0.4040527 3.791016
vt 0.2075195 3.791016
vt 0.009597778 3.791016
vt 0.4040527 3.410156
vt 0.2075195 3.410156
vt 0.5986328 3.410156
vt 0.7978516 3.410156
vt 0.9960938 3.410156
vt 0.009597778 3.410156
vt 0.9960938 3.035156
vt 0.7978516 3.035156
vt 0.7978516 2.798828
vt 0.9960938 2.798828
vt 0.9960938 2.361328
vt 0.7978516 2.361328
vt 0.5986328 2.798828
vt 0.5986328 2.361328
vt 0.4040527 2.798828
vt 0.4040527 2.361328
vt 0.2075195 2.798828
vt 0.2075195 2.361328
vt 0.009597778 2.798828
vt 0.009597778 2.361328
vt 0.2075195 3.035156
vt 0.009597778 3.035156
vt 0.4040527 3.035156
vt 0.5986328 3.035156
vt 0.4040527 1.916016
vt 0.2075195 1.916016
vt 0.009597778 1.916016
vt 0.4040527 1.535156
vt 0.2075195 1.535156
vt 0.5986328 1.535156
vt 0.5986328 1.916016
vt 0.7978516 1.916016
vt 0.9960938 1.916016
vt 0.7978516 1.535156
vt 0.9960938 1.535156
vt 0.009597778 1.535156
vt 0.9960938 1.158203
vt 0.7978516 1.158203
vt 0.7978516 0.921875
vt 0.9960938 0.921875
vt 0.9960938 0.4836426
vt 0.7978516 0.4836426
vt 0.5986328 0.921875
vt 0.5986328 0.4836426
vt 0.4040527 0.921875
vt 0.4040527 0.4836426
vt 0.2075195 0.921875
vt 0.2075195 0.4836426
vt 0.009597778 0.921875
vt 0.009597778 0.4836426
vt 0.2075195 1.158203
vt 0.009597778 1.158203
vt 0.4040527 1.158203
vt 0.5986328 1.158203
vt 0.4040527 0.03866577
vt 0.2075195 0.03866577
vt 0.009597778 0.03866577
vt 0.4040527 -0.3415527
vt 0.2075195 -0.3415527
vt 0.5986328 -0.3415527
vt 0.5986328 0.03866577
vt 0.7978516 0.03866577
vt 0.9960938 0.03866577
vt 0.7978516 -0.3415527
vt 0.9960938 -0.3415527
vt 0.009597778 -0.3415527
vt 0.009597778 5.289063
vt 0.7978516 5.667969
vt 0.9960938 5.667969
vt 0.5986328 5.667969
vn 0.9314106 -0.3627846 0.02935171
vn 0.9352995 -0.3477319 0.06555416
vn -0.03468564 -0.9810342 0.1907063
vn -0.03409636 -0.9860048 0.1631933
vn 0.6200179 0.7556837 -0.2109972
vn 0.6065271 0.7780676 -0.1635103
vn -0.5629829 0.7967054 -0.2197966
vn -0.5489663 0.8180211 -0.1716901
vn -0.9543436 -0.2983096 0.0154818
vn -0.9581892 -0.2813333 0.05220203
vn -0.03409636 -0.9860048 0.1631933
vn -0.03468564 -0.9810342 0.1907063
vn -0.9587489 -0.2578741 0.119589
vn -0.03467743 -0.9525208 0.3024922
vn -0.5605429 0.8122956 -0.1611446
vn -0.03467743 -0.9525208 0.3024922
vn 0.9369239 -0.3218193 0.1364035
vn 0.617046 0.7723641 -0.1506919
vn 0.934354 -0.3101767 0.1754219
vn -0.03456432 -0.9359367 0.3504681
vn 0.6161752 0.7770224 -0.1287027
vn -0.5597866 0.8167559 -0.1398171
vn -0.9561783 -0.2467063 0.1576674
vn -0.03456432 -0.9359367 0.3504681
vn -0.956368 -0.2868389 0.05553158
vn -0.5404871 0.8234199 -0.1727809
vn 0.5985096 0.7840468 -0.1644899
vn 0.9322823 -0.3550491 0.06920803
vn -0.03405832 -0.9803379 0.1943651
vn -0.5319347 0.8317831 -0.1586895
vn -0.9507301 -0.3058743 0.05052869
vn 0.5893021 0.7936237 -0.151276
vn 0.9250426 -0.3746283 0.06284748
vn -0.03167049 -0.9846178 0.1718275
vn -0.03167049 -0.9846178 0.1718275
vn -0.03405832 -0.9803379 0.1943651
vn -0.0305243 -0.981709 0.1879247
vn 0.9229413 -0.371436 0.1010678
vn 0.917281 -0.3982125 -0.004730333
vn -0.02908712 -0.997823 0.05918692
vn -0.02829373 -0.9986641 0.04323862
vn 0.9166149 -0.3994309 0.01649315
vn 0.5815148 0.8044612 -0.1211726
vn 0.5793851 0.8143622 -0.03357312
vn -0.5259374 0.8413544 -0.1245496
vn -0.5229082 0.8516734 -0.03492075
vn -0.9447801 -0.3274951 -0.01172621
vn -0.9445376 -0.3281218 0.01359216
vn -0.02908712 -0.997823 0.05918692
vn -0.02829373 -0.9986641 0.04323862
vn -0.9491591 -0.3014477 0.09069896
vn -0.0305243 -0.981709 0.1879247
vn -0.5261253 0.8459361 -0.08708761
vn 0.5816034 0.8094239 -0.08105771
vn -0.5251053 0.8508024 0.01999154
vn -0.948437 -0.3169265 -0.00497033
vn -0.02922345 -0.9994529 -0.0154904
vn -0.5284369 0.8451403 0.08057426
vn -0.9485813 -0.3157044 -0.02289582
vn -0.9566476 -0.2908103 0.01595962
vn -0.526494 0.8360327 0.1544461
vn -0.9462828 -0.309645 -0.09310583
vn -0.03268483 -0.9795763 -0.1983983
vn -0.9502274 -0.3011637 -0.07980075
vn -0.0329071 -0.9704829 -0.2389145
vn -0.5457631 0.811364 0.2093585
vn -0.5574013 0.8234566 0.1059391
vn 0.6036987 0.772031 0.1987862
vn 0.6156394 0.7818732 0.09829799
vn 0.9250282 -0.3674911 -0.09629735
vn 0.9202161 -0.3773351 -0.104022
vn -0.0329071 -0.9704829 -0.2389145
vn -0.03268483 -0.9795763 -0.1983983
vn -0.03196971 -0.9970342 -0.07000506
vn -0.03196971 -0.9970342 -0.07000506
vn 0.9323499 -0.3614744 0.007751428
vn 0.584471 0.7975565 0.1493223
vn -0.0298478 -0.996594 -0.0768719
vn 0.9216031 -0.3870586 -0.02886616
vn 0.585996 0.8066636 0.07682718
vn 0.93308 -0.3436522 -0.1061368
vn -0.03347961 -0.9561522 -0.2909506
vn 0.581687 0.7825758 0.2218451
vn -0.5238791 0.8194535 0.2324797
vn -0.9573994 -0.2756578 -0.08601832
vn -0.03347961 -0.9561522 -0.2909506
vn -0.5103836 0.8250546 0.2424733
vn -0.9490679 -0.2990588 -0.09916574
vn 0.5691602 0.7889026 0.2317095
vn 0.9212747 -0.3696398 -0.1209104
vn -0.03266376 -0.9524148 -0.3030498
vn -0.03266376 -0.9524148 -0.3030498
vn -0.03233666 -0.9665172 -0.2545563
vn 0.9294781 -0.3625919 -0.06780527
vn 0.887657 -0.4186145 -0.1919035
vn -0.0276296 -0.9307315 -0.364658
vn -0.02908981 -0.9118085 -0.4095839
vn 0.9054917 -0.384728 -0.1790783
vn 0.5947625 0.7644371 0.248784
vn 0.5814294 0.7288398 0.3615695
vn -0.5365546 0.8016744 0.2634906
vn -0.5235376 0.7629847 0.3791604
vn -0.9205922 -0.3522205 -0.1686738
vn -0.9364253 -0.3178583 -0.1485725
vn -0.0276296 -0.9307315 -0.364658
vn -0.02908981 -0.9118085 -0.4095839
vn -0.9561785 -0.2892619 -0.04527825
vn -0.03233666 -0.9665172 -0.2545563
vn -0.4936909 0.8204225 0.2884028
vn 0.5505474 0.7869641 0.2785408
vn -0.5322125 0.7176558 0.4491326
vn -0.9464931 -0.2764722 -0.166475
vn -0.03118839 -0.8681754 -0.4952764
vn -0.5433483 0.6412024 0.5418785
vn -0.9442533 -0.2608276 -0.2008844
vn 0.6008564 0.6108467 0.5155946
vn 0.5896364 0.6852332 0.427533
vn 0.9186628 -0.3391456 -0.2025806
vn -0.03118839 -0.8681754 -0.4952764
vn 0.9164743 -0.3166872 -0.2445075
vn -0.03078705 -0.7969614 -0.6032451
vn -0.03078705 -0.7969614 -0.6032451
vn -0.03368907 -0.7791496 -0.6259321
vn 0.9437839 -0.2748945 -0.1835894
vn 0.907892 -0.271217 -0.3196458
vn -0.03071757 -0.692022 -0.7212226
vn -0.03286527 -0.7110484 -0.7023747
vn 0.9375541 -0.2496549 -0.2422078
vn 0.6404228 0.570779 0.5138774
vn 0.6080399 0.5642369 0.5585018
vn -0.5829145 0.6023188 0.5453648
vn -0.5534427 0.5923075 0.5855536
vn -0.9352818 -0.224181 -0.2738444
vn -0.9599916 -0.2015438 -0.1944124
vn -0.03071757 -0.692022 -0.7212226
vn -0.03286527 -0.7110484 -0.7023747
vn -0.9657435 -0.2210722 -0.1358917
vn -0.03368907 -0.7791496 -0.6259321
vn -0.5265819 0.5940331 0.6081417
vn 0.5823693 0.5669662 0.5825765
vn -0.5504792 0.6473584 0.5271621
vn -0.9691418 -0.1928672 -0.1535132
vn -0.03461133 -0.7653438 -0.6426904
vn -0.5365897 0.7296103 0.4239579
vn -0.9713318 -0.128087 -0.2002707
vn 0.5901864 0.6999129 0.4022463
vn 0.6045153 0.6172945 0.5034965
vn 0.9494916 -0.2444433 -0.1967565
vn -0.03461133 -0.7653438 -0.6426904
vn 0.9532248 -0.1830589 -0.2405241
vn -0.0358675 -0.7512379 -0.6590562
vn -0.0358675 -0.7512379 -0.6590562
vn -0.0298478 -0.996594 -0.0768719
vn 0.9211611 -0.3891333 -0.006118193
vn -0.02922345 -0.9994529 -0.0154904
vn 0.5820083 0.8129631 0.01890484
g m_dlc5_buntingrope_01_0
f 3/3/3 2/2/2 1/1/1
f 4/4/4 3/3/3 1/1/1
f 1/1/1 2/2/2 5/5/5
f 2/2/2 6/6/6 5/5/5
f 5/5/5 6/6/6 7/7/7
f 6/6/6 8/8/8 7/7/7
f 7/7/7 8/8/8 9/9/9
f 8/8/8 10/10/10 9/9/9
f 11/11/11 9/9/9 10/10/10
f 12/12/12 11/11/11 10/10/10
f 13/13/13 9/9/9 11/11/11
f 14/14/14 13/13/13 11/11/11
f 15/15/15 7/7/7 9/9/9
f 13/13/13 15/15/15 9/9/9
f 16/16/16 4/4/4 1/1/1
f 17/17/17 16/16/16 1/1/1
f 17/17/17 1/1/1 5/5/5
f 18/18/18 17/17/17 5/5/5
f 18/18/18 5/5/5 7/7/7
f 15/15/15 18/18/18 7/7/7
f 16/16/16 17/17/17 19/19/19
f 20/20/20 16/16/16 19/19/19
f 17/17/17 18/18/18 21/21/21
f 19/19/19 17/17/17 21/21/21
f 18/18/18 15/15/15 22/22/22
f 21/21/21 18/18/18 22/22/22
f 15/15/15 13/13/13 23/23/23
f 22/22/22 15/15/15 23/23/23
f 13/13/13 14/14/14 24/24/24
f 23/23/23 13/13/13 24/24/24
f 12/12/12 10/10/10 25/25/25
f 25/25/25 10/10/10 8/8/8
f 26/26/26 25/25/25 8/8/8
f 26/26/26 8/8/8 6/6/6
f 27/27/27 26/26/26 6/6/6
f 27/27/27 6/6/6 2/2/2
f 28/28/28 27/27/27 2/2/2
f 28/28/28 2/2/2 3/3/3
f 29/29/29 28/28/28 3/3/3
f 26/26/26 30/30/30 25/25/25
f 30/30/30 31/31/31 25/25/25
f 32/32/32 30/30/30 26/26/26
f 27/27/27 32/32/32 26/26/26
f 33/33/33 32/32/32 27/27/27
f 28/28/28 33/33/33 27/27/27
f 34/34/34 33/33/33 28/28/28
f 29/29/29 34/34/34 28/28/28
f 25/25/25 31/31/31 35/35/35
f 36/36/36 25/25/25 35/35/35
f 34/34/34 37/37/37 33/33/33
f 37/37/37 38/38/38 33/33/33
f 33/33/33 38/38/38 32/32/32
f 38/38/38 37/37/37 39/39/39
f 37/37/37 40/40/40 39/39/39
f 40/40/40 41/41/41 39/39/39
f 41/41/41 42/42/42 39/39/39
f 39/39/39 42/42/42 43/43/43
f 38/38/38 39/39/39 43/43/43
f 42/42/42 44/44/44 43/43/43
f 43/43/43 44/44/44 45/45/45
f 44/44/44 46/46/46 45/45/45
f 45/45/45 46/46/46 47/47/47
f 46/46/46 48/48/48 47/47/47
f 49/49/49 47/47/47 48/48/48
f 50/50/50 49/49/49 48/48/48
f 51/51/51 47/47/47 49/49/49
f 52/52/52 51/51/51 49/49/49
f 53/53/53 45/45/45 47/47/47
f 51/51/51 53/53/53 47/47/47
f 54/54/54 38/38/38 43/43/43
f 54/54/54 43/43/43 45/45/45
f 53/53/53 54/54/54 45/45/45
f 54/54/54 53/53/53 30/30/30
f 32/32/32 54/54/54 30/30/30
f 38/38/38 54/54/54 32/32/32
f 53/53/53 51/51/51 31/31/31
f 30/30/30 53/53/53 31/31/31
f 51/51/51 52/52/52 35/35/35
f 31/31/31 51/51/51 35/35/35
f 55/55/55 46/46/46 44/44/44
f 56/56/56 48/48/48 46/46/46
f 55/55/55 56/56/56 46/46/46
f 50/50/50 48/48/48 56/56/56
f 57/57/57 50/50/50 56/56/56
f 55/55/55 58/58/58 56/56/56
f 58/58/58 59/59/59 56/56/56
f 57/57/57 56/56/56 59/59/59
f 60/60/60 59/59/59 58/58/58
f 61/61/61 60/60/60 58/58/58
f 60/60/60 61/61/61 62/62/62
f 60/60/60 62/62/62 63/63/63
f 63/63/63 62/62/62 64/64/64
f 65/65/65 63/63/63 64/64/64
f 66/66/66 64/64/64 62/62/62
f 67/67/67 66/66/66 62/62/62
f 61/61/61 67/67/67 62/62/62
f 68/68/68 66/66/66 67/67/67
f 69/69/69 68/68/68 67/67/67
f 70/70/70 68/68/68 69/69/69
f 71/71/71 70/70/70 69/69/69
f 72/72/72 70/70/70 71/71/71
f 73/73/73 72/72/72 71/71/71
f 74/74/74 60/60/60 63/63/63
f 60/60/60 74/74/74 59/59/59
f 75/75/75 73/73/73 71/71/71
f 76/76/76 75/75/75 71/71/71
f 76/76/76 71/71/71 69/69/69
f 77/77/77 76/76/76 69/69/69
f 77/77/77 69/69/69 67/67/67
f 61/61/61 77/77/77 67/67/67
f 75/75/75 76/76/76 78/78/78
f 76/76/76 79/79/79 78/78/78
f 76/76/76 77/77/77 79/79/79
f 77/77/77 80/80/80 79/79/79
f 77/77/77 61/61/61 80/80/80
f 61/61/61 58/58/58 80/80/80
f 81/81/81 70/70/70 72/72/72
f 82/82/82 81/81/81 72/72/72
f 81/81/81 83/83/83 70/70/70
f 83/83/83 68/68/68 70/70/70
f 83/83/83 84/84/84 68/68/68
f 84/84/84 66/66/66 68/68/68
f 84/84/84 85/85/85 66/66/66
f 85/85/85 64/64/64 66/66/66
f 65/65/65 64/64/64 85/85/85
f 86/86/86 65/65/65 85/85/85
f 84/84/84 87/87/87 85/85/85
f 87/87/87 88/88/88 85/85/85
f 89/89/89 87/87/87 84/84/84
f 83/83/83 89/89/89 84/84/84
f 90/90/90 89/89/89 83/83/83
f 81/81/81 90/90/90 83/83/83
f 91/91/91 90/90/90 81/81/81
f 82/82/82 91/91/91 81/81/81
f 85/85/85 88/88/88 92/92/92
f 86/86/86 85/85/85 92/92/92
f 91/91/91 93/93/93 90/90/90
f 93/93/93 94/94/94 90/90/90
f 90/90/90 94/94/94 89/89/89
f 94/94/94 93/93/93 95/95/95
f 93/93/93 96/96/96 95/95/95
f 96/96/96 97/97/97 95/95/95
f 97/97/97 98/98/98 95/95/95
f 95/95/95 98/98/98 99/99/99
f 94/94/94 95/95/95 99/99/99
f 98/98/98 100/100/100 99/99/99
f 99/99/99 100/100/100 101/101/101
f 100/100/100 102/102/102 101/101/101
f 101/101/101 102/102/102 103/103/103
f 102/102/102 104/104/104 103/103/103
f 105/105/105 103/103/103 104/104/104
f 106/106/106 105/105/105 104/104/104
f 107/107/107 103/103/103 105/105/105
f 108/108/108 107/107/107 105/105/105
f 109/109/109 101/101/101 103/103/103
f 107/107/107 109/109/109 103/103/103
f 110/110/110 94/94/94 99/99/99
f 110/110/110 99/99/99 101/101/101
f 109/109/109 110/110/110 101/101/101
f 110/110/110 109/109/109 87/87/87
f 89/89/89 110/110/110 87/87/87
f 94/94/94 110/110/110 89/89/89
f 109/109/109 107/107/107 88/88/88
f 87/87/87 109/109/109 88/88/88
f 107/107/107 108/108/108 92/92/92
f 88/88/88 107/107/107 92/92/92
f 111/111/111 102/102/102 100/100/100
f 112/112/112 104/104/104 102/102/102
f 111/111/111 112/112/112 102/102/102
f 106/106/106 104/104/104 112/112/112
f 113/113/113 106/106/106 112/112/112
f 111/111/111 114/114/114 112/112/112
f 114/114/114 115/115/115 112/112/112
f 116/116/116 114/114/114 111/111/111
f 117/117/117 116/116/116 111/111/111
f 117/117/117 111/111/111 100/100/100
f 117/117/117 100/100/100 98/98/98
f 118/118/118 117/117/117 98/98/98
f 118/118/118 98/98/98 97/97/97
f 119/119/119 118/118/118 97/97/97
f 120/120/120 116/116/116 117/117/117
f 118/118/118 120/120/120 117/117/117
f 121/121/121 120/120/120 118/118/118
f 119/119/119 121/121/121 118/118/118
f 112/112/112 115/115/115 122/122/122
f 113/113/113 112/112/112 122/122/122
f 121/121/121 123/123/123 120/120/120
f 123/123/123 124/124/124 120/120/120
f 120/120/120 124/124/124 116/116/116
f 124/124/124 123/123/123 125/125/125
f 123/123/123 126/126/126 125/125/125
f 126/126/126 127/127/127 125/125/125
f 127/127/127 128/128/128 125/125/125
f 125/125/125 128/128/128 129/129/129
f 124/124/124 125/125/125 129/129/129
f 128/128/128 130/130/130 129/129/129
f 129/129/129 130/130/130 131/131/131
f 130/130/130 132/132/132 131/131/131
f 131/131/131 132/132/132 133/133/133
f 132/132/132 134/134/134 133/133/133
f 135/135/135 133/133/133 134/134/134
f 136/136/136 135/135/135 134/134/134
f 137/137/137 133/133/133 135/135/135
f 138/138/138 137/137/137 135/135/135
f 139/139/139 131/131/131 133/133/133
f 137/137/137 139/139/139 133/133/133
f 140/140/140 124/124/124 129/129/129
f 140/140/140 129/129/129 131/131/131
f 139/139/139 140/140/140 131/131/131
f 140/140/140 139/139/139 114/114/114
f 116/116/116 140/140/140 114/114/114
f 124/124/124 140/140/140 116/116/116
f 139/139/139 137/137/137 115/115/115
f 114/114/114 139/139/139 115/115/115
f 137/137/137 138/138/138 122/122/122
f 115/115/115 137/137/137 122/122/122
f 141/141/141 132/132/132 130/130/130
f 142/142/142 134/134/134 132/132/132
f 141/141/141 142/142/142 132/132/132
f 136/136/136 134/134/134 142/142/142
f 143/143/143 136/136/136 142/142/142
f 141/141/141 144/144/144 142/142/142
f 144/144/144 145/145/145 142/142/142
f 143/143/143 142/142/142 145/145/145
f 146/146/146 144/144/144 141/141/141
f 147/147/147 146/146/146 141/141/141
f 147/147/147 141/141/141 130/130/130
f 147/147/147 130/130/130 128/128/128
f 148/148/148 147/147/147 128/128/128
f 148/148/148 128/128/128 127/127/127
f 149/149/149 148/148/148 127/127/127
f 150/150/150 146/146/146 147/147/147
f 148/148/148 150/150/150 147/147/147
f 151/151/151 150/150/150 148/148/148
f 149/149/149 151/151/151 148/148/148
f 152/152/152 143/143/143 145/145/145
f 36/36/36 12/12/12 25/25/25
f 74/74/74 153/153/153 59/59/59
f 153/153/153 57/57/57 59/59/59
f 154/154/154 42/42/42 41/41/41
f 155/155/155 154/154/154 41/41/41
f 154/154/154 156/156/156 42/42/42
f 156/156/156 44/44/44 42/42/42
f 156/156/156 55/55/55 44/44/44
f 156/156/156 80/80/80 55/55/55
f 80/80/80 58/58/58 55/55/55
f 79/79/79 80/80/80 156/156/156
f 154/154/154 79/79/79 156/156/156
f 78/78/78 79/79/79 154/154/154
f 155/155/155 78/78/78 154/154/154
