g m_dlc3_snowmound_03
v -0.5955916 1.274648E-07 0.7615414
v -0.6200093 0.2255805 0.6065414
v -0.489466 0.3037577 0.6355734
v -0.4675193 1.820926E-08 0.7951192
v -0.3808301 0.3141201 0.6815365
v -0.3623758 -1.001509E-07 0.8325301
v -0.2708075 0.2717507 0.7245846
v -0.2603507 -1.456741E-07 0.8637044
v -0.1538633 0.2431814 0.7482393
v -0.1522275 -1.365695E-07 0.8933114
v -0.02146487 0.2400744 0.7546004
v -0.03157931 -1.365695E-07 0.9208675
v 0.1187634 0.2443157 0.7351974
v 0.1021206 -1.365695E-07 0.9306576
v 0.2592871 0.2838976 0.7128548
v 0.2423779 -1.365695E-07 0.9098873
v 0.393919 0.3324639 0.6822554
v 0.3820733 -1.365695E-07 0.8714217
v 0.519963 0.2992249 0.6521127
v 0.5154675 -1.274648E-07 0.8343893
v 0.6530173 0.1856999 0.6420016
v 0.6430374 -1.274648E-07 0.8180074
v -0.1613736 0.3601591 0.6418087
v -0.0144443 0.3399858 0.6285409
v 0.1391626 0.3444867 0.5921078
v 0.2970309 0.4266992 0.5991598
v 0.4484402 0.4706858 0.5625729
v 0.5728796 0.4212709 0.5208761
v 0.7251346 0.3189636 0.4693685
v -0.003726225 0.3657638 0.4483297
v -0.1640741 0.3979899 0.4761227
v -0.3032535 0.3972116 0.6053011
v -0.4359317 0.4261316 0.5367453
v -0.5489096 0.3998084 0.4769674
v -0.6730473 0.2924039 0.4422458
v -0.5884796 0.415866 0.3124337
v -0.7201388 0.2962338 0.2777658
v -0.4707184 0.4533213 0.3603012
v -0.3275189 0.435073 0.4305673
v 0.7675613 0.3508478 0.3007174
v -0.5981423 0.3625749 0.1237545
v -0.7453137 0.2471423 0.1123617
v -0.4738211 0.39561 0.1649471
v -0.3267884 0.3618837 0.2136776
v -0.1601004 0.3123818 0.2385384
v 0.0009188557 0.2871153 0.2082357
v 0.1631805 0.3223318 0.2098666
v 0.1585476 0.3879166 0.4296273
v 0.3303546 0.4806453 0.4538009
v 0.4785012 0.5142942 0.4268515
v 0.6031866 0.4621482 0.376849
v 0.3341714 0.4224217 0.2661386
v 0.4838082 0.4728307 0.2629354
v 0.6115701 0.4306154 0.2143954
v 0.7782077 0.3302778 0.1170932
v 0.3126266 0.3064759 -0.002067005
v 0.1496179 0.226087 -0.007947132
v 0.4655355 0.3690524 0.01176722
v 0.5974126 0.3349561 -0.03081945
v 0.746658 0.2146395 -0.1268961
v 0.2660528 0.1747928 -0.2062894
v 0.123699 0.1348278 -0.1724137
v -0.001013212 0.2002005 0.01128505
v -0.1494773 0.2124772 0.005631969
v -0.3049573 0.2505635 -0.03419225
v -0.4517456 0.2912883 -0.07501988
v -0.5832424 0.2620043 -0.09933262
v -0.748508 0.1704439 -0.065286
v -0.5609223 0.1475537 -0.3665787
v -0.726905 0.09149805 -0.2764042
v -0.4189731 0.1683026 -0.3678958
v -0.2767664 0.1505684 -0.3126896
v -0.1394614 0.1324807 -0.2260209
v -0.00952548 0.1251922 -0.167382
v -0.549706 0.05400899 -0.5522745
v -0.6838931 0.03124226 -0.4593375
v -0.4210001 0.06168124 -0.5779203
v -0.2883289 0.05671288 -0.5372294
v -0.1526557 0.05739902 -0.4315079
v -0.02023013 0.05811449 -0.3272892
v 0.1059131 0.05909305 -0.3112858
v 0.2275116 0.0613535 -0.3879129
v 0.349447 0.07144246 -0.5126529
v 0.4095294 0.2217469 -0.2754142
v 0.5425274 0.1994108 -0.3476053
v 0.6864087 0.1327515 -0.409213
v 0.4784524 0.07261603 -0.6150736
v 0.6309713 0.05364552 -0.6967325
v -0.1651981 0.009930018 -0.7152714
v -0.02884829 0.00993002 -0.5362809
v 0.09696286 0.009930018 -0.5007108
v 0.2177844 0.009930018 -0.5913407
v 0.3366491 0.01089477 -0.7110966
v 0.4610528 0.009895151 -0.8253226
v 0.6129922 0.008976335 -0.9136209
v -0.03111545 -1.284607E-07 -0.770507
v -0.1654532 -1.285318E-07 -0.8978763
v -0.3043082 0.009930018 -0.8236271
v -0.4397647 0.009930018 -0.831298
v -0.5651034 0.006848018 -0.7643864
v -0.6766792 0.004840032 -0.6446476
v -0.5704805 -1.286029E-07 -0.8941081
v -0.6875188 -1.284607E-07 -0.7876725
v -0.4396372 -1.286029E-07 -0.9544669
v -0.3030493 -1.285318E-07 -0.9580985
v 0.5938311 -1.284607E-07 -1.066098
v -0.8135458 0.004332938 -0.5013199
v -0.8642404 0.02053436 -0.3411576
v -0.9245581 0.06492121 -0.1915848
v -0.9524682 0.1186274 -0.04238927
v -0.943742 0.1775655 0.1042465
v -0.9142595 0.2206693 0.2661776
v -0.8669326 0.2217145 0.4382687
v -0.8165305 0.1738455 0.6028231
v -0.7761585 1.456741E-07 0.746866
v -1.019572 0.1097946 0.5756039
v -0.9774908 1.820926E-08 0.7193038
v -1.058117 0.1434095 0.411091
v -1.098989 0.144205 0.2379305
v -1.127693 0.1181898 0.08013148
v -1.136951 0.08188859 -0.05490147
v -1.112448 0.04250117 -0.1719559
v -1.050543 0.01043945 -0.2851932
v -0.9766653 0.004059708 -0.406901
v -0.9265029 -1.286029E-07 -0.5374515
v -0.8026628 -1.286029E-07 -0.653422
v -1.272108 -1.274648E-07 0.227297
v -1.235938 -1.274648E-07 0.3839352
v -1.303545 -1.274648E-07 0.07201991
v -1.31324 -1.365695E-07 -0.06257115
v -1.28879 -1.274648E-07 -0.1704899
v -1.232851 -1.251887E-07 -0.2665677
v -1.156033 -1.300255E-07 -0.3649906
v -1.083602 -1.286029E-07 -0.4699991
v -1.201022 -1.001509E-07 0.5380526
v -1.166501 -1.092556E-07 0.6783773
v 0.09455167 -1.286029E-07 -0.7041642
v 0.2165918 -1.287452E-07 -0.7523161
v 0.3354089 -1.286029E-07 -0.8729069
v 0.4532949 -1.287452E-07 -0.9947269
v 0.7817252 -1.286029E-07 -0.9829032
v 0.8154886 0.007167276 -0.8120219
v 0.848251 0.03803957 -0.5990518
v 0.9063959 0.09773232 -0.3470914
v 0.9528289 0.1543097 -0.1255607
v 0.9631317 0.1953333 0.07420497
v 0.9408084 0.2068477 0.2653622
v 0.8991397 0.1806478 0.4372531
v 0.8268875 0.1304854 0.6218331
v 0.7825348 -1.274648E-07 0.7893319
v 0.95156 -1.274648E-07 0.7423812
v 1.030101 0.08367014 0.5983224
v 1.099638 0.1232504 0.4379403
v 1.140601 0.1445371 0.2611019
v 1.176968 0.1343179 0.06917811
v 1.188287 0.1008916 -0.1005069
v 1.163818 0.05840431 -0.256088
v 1.107989 0.0181532 -0.4147
v 1.044362 0.004846376 -0.5825723
v 0.9815042 -1.286029E-07 -0.7581205
v 1.153753 -1.274648E-07 0.6968258
v 1.241535 -1.365695E-07 0.5648813
v 1.306938 -1.274648E-07 0.4101278
v 1.349065 -1.274648E-07 0.2339095
v 1.378403 -1.274648E-07 0.05239344
v 1.383351 -1.365695E-07 -0.1037723
v 1.361914 -1.274648E-07 -0.2391959
v 1.319952 -1.251887E-07 -0.3549393
v 1.26134 -1.300255E-07 -0.4683963
v 1.190277 -1.285674E-07 -0.5823721
vt 0.5839844 0.04586792
vt 0.5893555 0.0824585
vt 0.6098633 0.08184814
vt 0.6015625 0.03771973
vt 0.6245117 0.07592773
vt 0.6171875 0.03143311
vt 0.6376953 0.06610107
vt 0.6318359 0.026474
vt 0.652832 0.05947876
vt 0.6479492 0.02210999
vt 0.6704102 0.05700684
vt 0.6655273 0.01821899
vt 0.6894531 0.0574646
vt 0.6845703 0.015625
vt 0.7089844 0.06106567
vt 0.7050781 0.01580811
vt 0.7270508 0.06665039
vt 0.7260742 0.01792908
vt 0.7451172 0.06585693
vt 0.746582 0.02111816
vt 0.7666016 0.05819702
vt 0.765625 0.02430725
vt 0.6538086 0.08062744
vt 0.6733398 0.07922363
vt 0.6938477 0.08190918
vt 0.715332 0.08306885
vt 0.7338867 0.08752441
vt 0.7509766 0.08837891
vt 0.7744141 0.08807373
vt 0.6772461 0.1049194
vt 0.65625 0.1033936
vt 0.6367188 0.08843994
vt 0.6210938 0.09887695
vt 0.6064453 0.105896
vt 0.5859375 0.1082764
vt 0.6035156 0.1265869
vt 0.581543 0.1318359
vt 0.6181641 0.1203003
vt 0.6357422 0.1109619
vt 0.7807617 0.111145
vt 0.6020508 0.1508789
vt 0.5786133 0.1556396
vt 0.6181641 0.1451416
vt 0.6376953 0.1400146
vt 0.6601563 0.137085
vt 0.6806641 0.1402588
vt 0.7011719 0.137207
vt 0.6977539 0.1057129
vt 0.7211914 0.1015015
vt 0.7392578 0.1031494
vt 0.7558594 0.1062012
vt 0.7231445 0.1254883
vt 0.7426758 0.1219482
vt 0.7602539 0.1257324
vt 0.7851563 0.1351318
vt 0.7250977 0.1621094
vt 0.7026367 0.1687012
vt 0.7456055 0.1549072
vt 0.7641602 0.1584473
vt 0.7885742 0.1711426
vt 0.7216797 0.1936035
vt 0.7011719 0.1934814
vt 0.6826172 0.1690674
vt 0.6635742 0.1706543
vt 0.6420898 0.1749268
vt 0.621582 0.1784668
vt 0.6035156 0.1824951
vt 0.578125 0.1818848
vt 0.6079102 0.2209473
vt 0.5820313 0.2122803
vt 0.6274414 0.2200928
vt 0.6469727 0.213623
vt 0.6660156 0.2028809
vt 0.6835938 0.1948242
vt 0.6103516 0.2489014
vt 0.5893555 0.2382813
vt 0.6289063 0.2514648
vt 0.6474609 0.2459717
vt 0.6660156 0.2318115
vt 0.6835938 0.2175293
vt 0.7006836 0.2142334
vt 0.7182617 0.2218018
vt 0.7382813 0.234375
vt 0.7441406 0.1967773
vt 0.7631836 0.2039795
vt 0.784668 0.2114258
vt 0.7587891 0.2443848
vt 0.78125 0.2524414
vt 0.6660156 0.2697754
vt 0.6850586 0.2456055
vt 0.7021484 0.2397461
vt 0.7207031 0.2492676
vt 0.7402344 0.2619629
vt 0.7602539 0.2736816
vt 0.7827148 0.2822266
vt 0.6855469 0.2766113
vt 0.6665039 0.2941895
vt 0.6469727 0.284668
vt 0.628418 0.286377
vt 0.6103516 0.2783203
vt 0.5932617 0.2631836
vt 0.6108398 0.2958984
vt 0.59375 0.2827148
vt 0.6293945 0.3029785
vt 0.6479492 0.3027344
vt 0.7827148 0.3029785
vt 0.5717773 0.2449951
vt 0.5629883 0.2235107
vt 0.5541992 0.2021484
vt 0.5498047 0.1801758
vt 0.5512695 0.1585693
vt 0.5551758 0.135376
vt 0.559082 0.1109619
vt 0.5625 0.08630371
vt 0.5595703 0.05514526
vt 0.5341797 0.09277344
vt 0.5332031 0.06713867
vt 0.5327148 0.1166382
vt 0.5292969 0.1411133
vt 0.5263672 0.163208
vt 0.5249023 0.1824951
vt 0.5283203 0.199707
vt 0.5371094 0.2161865
vt 0.5483398 0.2327881
vt 0.5566406 0.2504883
vt 0.5756836 0.265625
vt 0.4995117 0.1444092
vt 0.5024414 0.121521
vt 0.498291 0.1668701
vt 0.4990234 0.1856689
vt 0.5039063 0.2004395
vt 0.512207 0.213623
vt 0.5229492 0.2271729
vt 0.5336914 0.2415771
vt 0.5058594 0.09924316
vt 0.5097656 0.07940674
vt 0.7041016 0.2666016
vt 0.7241211 0.2702637
vt 0.7441406 0.282959
vt 0.7626953 0.2963867
vt 0.8066406 0.2885742
vt 0.809082 0.2651367
vt 0.8105469 0.2354736
vt 0.8144531 0.1993408
vt 0.8168945 0.1671143
vt 0.8144531 0.1386719
vt 0.8095703 0.1116333
vt 0.8027344 0.08666992
vt 0.7919922 0.05935669
vt 0.7866211 0.02955627
vt 0.8105469 0.03771973
vt 0.8203125 0.06173706
vt 0.8300781 0.08514404
vt 0.8364258 0.1099243
vt 0.84375 0.1361084
vt 0.8486328 0.1595459
vt 0.8486328 0.182251
vt 0.84375 0.2059326
vt 0.8374023 0.2299805
vt 0.8310547 0.2548828
vt 0.8383789 0.04605103
vt 0.8515625 0.06390381
vt 0.862793 0.08526611
vt 0.8706055 0.1100464
vt 0.8759766 0.1357422
vt 0.8779297 0.1577148
vt 0.8759766 0.1768799
vt 0.871582 0.1937256
vt 0.8652344 0.2104492
vt 0.8574219 0.2272949
vn 0 1 0
vn -0.3326423 0.6375938 0.6948549
vn -0.4183847 0.5384138 0.7314813
vn 0 1 0
vn -0.27009 0.5369728 0.7991944
vn 0 1 0
vn -0.1393593 0.5355784 0.8329074
vn 0 1 0
vn -0.06723929 0.5830002 0.8096849
vn 0 1 0
vn 0.005207773 0.6453162 0.7638978
vn 0 1 0
vn 0.002336269 0.6630127 0.7486045
vn 0 1 0
vn -0.003423983 0.6112291 0.7914463
vn 0 1 0
vn 0.181735 0.5502356 0.8149927
vn 0 1 0
vn 0.3832215 0.5243502 0.7603934
vn 0 1 0
vn 0.3875997 0.6198257 0.6823362
vn 0 1 0
vn 0.117046 0.8760226 0.4678512
vn 0.08921859 0.9022421 0.4218998
vn -0.1978442 0.8909538 0.4087284
vn -0.2686743 0.8273783 0.4932131
vn 0.1587497 0.807017 0.5687899
vn 0.5250852 0.6572015 0.540714
vn 0.5711788 0.680006 0.4597245
vn 0.01038765 0.9927266 -0.1199417
vn 0.2057902 0.9747961 -0.08615587
vn 0.05429424 0.8929011 0.4469672
vn -0.174859 0.8963014 0.4075145
vn -0.5293231 0.7591988 0.3787272
vn -0.4826286 0.8148911 0.3209704
vn -0.4942158 0.8689304 -0.02665935
vn -0.4999888 0.8656554 -0.02553366
vn 0.01135486 0.994319 -0.1058333
vn 0.2309581 0.9669889 -0.1076608
vn 0.598725 0.7941664 0.1040577
vn -0.3919779 0.86436 -0.315016
vn -0.4428658 0.8495736 -0.2865217
vn 0.1130766 0.9324644 -0.3431091
vn 0.3074971 0.8916106 -0.3323794
vn 0.210921 0.914017 -0.3465334
vn -0.04952832 0.9328145 -0.356937
vn -0.311422 0.8909718 -0.3304324
vn -0.3174031 0.9422393 -0.1069588
vn -0.3596495 0.9324843 -0.03354705
vn 0.04900783 0.9985876 0.02052146
vn 0.4959911 0.8633754 0.09260554
vn -0.3621313 0.8791227 -0.3098454
vn -0.08021899 0.9459672 -0.3141831
vn 0.3256826 0.9040453 -0.2768268
vn 0.4600329 0.8529981 -0.2465034
vn -0.3712645 0.8498544 -0.3740454
vn -0.2945694 0.8696092 -0.3962433
vn -0.1395283 0.9089253 -0.3929206
vn 0.2191855 0.888084 -0.4040599
vn 0.3304822 0.8757628 -0.3518822
vn -0.3881951 0.8248432 -0.4110208
vn -0.2349345 0.8702869 -0.4329049
vn -0.0315685 0.9191278 -0.3926928
vn 0.2219813 0.9085616 -0.3538926
vn 0.3082451 0.8904912 -0.3346796
vn 0.112605 0.919415 -0.3768239
vn -0.3402434 0.8566042 -0.3878965
vn -0.4014259 0.8400347 -0.3649644
vn -0.30914 0.8593949 -0.4072749
vn -0.3911427 0.8415112 -0.3726477
vn 0.07549246 0.9137666 -0.3991635
vn 0.2862654 0.8942949 -0.3439313
vn 0.2627008 0.9049889 -0.3346391
vn 0.0564907 0.9187639 -0.3907452
vn -0.2231485 0.9259647 -0.3046213
vn -0.3155052 0.9031136 -0.291277
vn 0.006055457 0.9553532 -0.2954039
vn 0.1637757 0.94934 -0.2681997
vn 0.2359644 0.9332082 -0.2710044
vn 0.1361923 0.9393834 -0.314659
vn -0.135633 0.9228402 -0.3605132
vn -0.3390602 0.8752933 -0.3448185
vn -0.290981 0.889963 -0.3511351
vn -0.2436357 0.8744946 -0.4194054
vn 0.08591997 0.9090316 -0.4077736
vn 0.2168249 0.9183058 -0.3312121
vn -0.08202902 0.9382182 -0.3361811
vn 0.08926211 0.9612513 -0.2608223
vn 0.1011172 0.9878489 -0.1180252
vn 0.1100748 0.9828637 -0.1478595
vn -0.04625758 0.9838816 -0.1727348
vn -0.1660174 0.9722685 -0.1647187
vn -0.1718882 0.9685392 -0.179962
vn -0.0851228 0.9823353 -0.1666475
vn 0.01871197 0.9921994 -0.1232493
vn 0 1 0
vn 0 1 0
vn 0.05473091 0.9901562 -0.1288233
vn -0.01934231 0.9898534 -0.1407697
vn -0.1075778 0.9851536 -0.1337889
vn -0.1494786 0.982388 -0.1121159
vn 0 1 0
vn 0 1 0
vn 0 1 0
vn 0 1 0
vn 0 1 0
vn -0.09823418 0.9901385 -0.0998788
vn -0.1956902 0.9422515 -0.2717857
vn -0.2208109 0.9074609 -0.3574312
vn -0.2353144 0.9080217 -0.3465886
vn -0.2939883 0.921194 -0.254897
vn -0.3574372 0.9333225 -0.03387547
vn -0.3496798 0.9069163 0.2350044
vn -0.2340929 0.7585441 0.6081211
vn 0 1 0
vn -0.3720677 0.8172648 0.4400499
vn 0 1 0
vn -0.4983081 0.8456863 0.1910599
vn -0.5031658 0.8633655 0.03773904
vn -0.429118 0.8962086 -0.1125513
vn -0.3084927 0.9212509 -0.2369157
vn -0.1905698 0.936761 -0.2935334
vn -0.1128956 0.9698898 -0.2157966
vn -0.05204124 0.995958 -0.07320763
vn 0 1 0
vn 0 1 0
vn 0 1 0
vn 0 1 0
vn 0 1 0
vn 0 1 0
vn 0 1 0
vn 0 1 0
vn 0 1 0
vn 0 1 0
vn 0 1 0
vn 0 1 0
vn 0 1 0
vn 0 1 0
vn 0 1 0
vn 0 1 0
vn 0 1 0
vn 0.1007863 0.987068 -0.1246554
vn 0.1968132 0.9518387 -0.2350908
vn 0.2457727 0.9229625 -0.2962026
vn 0.2855636 0.9143485 -0.2870893
vn 0.3799463 0.9100857 -0.1654844
vn 0.4697769 0.8765944 0.1043643
vn 0.4290563 0.8336403 0.3477852
vn 0.3148392 0.7636638 0.5636435
vn 0 1 0
vn 0 1 0
vn 0.2897115 0.8657897 0.408014
vn 0.3963066 0.8825409 0.2531058
vn 0.4335129 0.8947372 0.1072937
vn 0.4136244 0.9093604 -0.04448007
vn 0.3430594 0.9208091 -0.1855288
vn 0.2663099 0.9288853 -0.257393
vn 0.207932 0.952336 -0.2232048
vn 0.1215572 0.9865585 -0.1092075
vn 0 1 0
vn 0 1 0
vn 0 1 0
vn 0 1 0
vn 0 1 0
vn 0 1 0
vn 0 1 0
vn 0 1 0
vn 0 1 0
vn 0 1 0
vn 0 1 0
g m_dlc3_snowmound_03_0
f 3/3/3 2/2/2 1/1/1
f 4/4/4 3/3/3 1/1/1
f 5/5/5 3/3/3 4/4/4
f 6/6/6 5/5/5 4/4/4
f 7/7/7 5/5/5 6/6/6
f 8/8/8 7/7/7 6/6/6
f 9/9/9 7/7/7 8/8/8
f 10/10/10 9/9/9 8/8/8
f 11/11/11 9/9/9 10/10/10
f 12/12/12 11/11/11 10/10/10
f 13/13/13 11/11/11 12/12/12
f 14/14/14 13/13/13 12/12/12
f 15/15/15 13/13/13 14/14/14
f 16/16/16 15/15/15 14/14/14
f 17/17/17 15/15/15 16/16/16
f 18/18/18 17/17/17 16/16/16
f 19/19/19 17/17/17 18/18/18
f 20/20/20 19/19/19 18/18/18
f 21/21/21 19/19/19 20/20/20
f 22/22/22 21/21/21 20/20/20
f 9/9/9 23/23/23 7/7/7
f 24/24/24 23/23/23 9/9/9
f 11/11/11 24/24/24 9/9/9
f 25/25/25 24/24/24 11/11/11
f 13/13/13 25/25/25 11/11/11
f 26/26/26 25/25/25 13/13/13
f 15/15/15 26/26/26 13/13/13
f 27/27/27 26/26/26 15/15/15
f 17/17/17 27/27/27 15/15/15
f 28/28/28 27/27/27 17/17/17
f 19/19/19 28/28/28 17/17/17
f 29/29/29 28/28/28 19/19/19
f 21/21/21 29/29/29 19/19/19
f 24/24/24 30/30/30 23/23/23
f 30/30/30 31/31/31 23/23/23
f 23/23/23 31/31/31 32/32/32
f 23/23/23 32/32/32 7/7/7
f 7/7/7 32/32/32 5/5/5
f 32/32/32 33/33/33 5/5/5
f 5/5/5 33/33/33 3/3/3
f 33/33/33 34/34/34 3/3/3
f 3/3/3 34/34/34 2/2/2
f 34/34/34 35/35/35 2/2/2
f 34/34/34 36/36/36 35/35/35
f 36/36/36 37/37/37 35/35/35
f 38/38/38 36/36/36 34/34/34
f 33/33/33 38/38/38 34/34/34
f 39/39/39 38/38/38 33/33/33
f 32/32/32 39/39/39 33/33/33
f 31/31/31 39/39/39 32/32/32
f 29/29/29 40/40/40 28/28/28
f 36/36/36 41/41/41 37/37/37
f 41/41/41 42/42/42 37/37/37
f 43/43/43 41/41/41 36/36/36
f 38/38/38 43/43/43 36/36/36
f 44/44/44 43/43/43 38/38/38
f 39/39/39 44/44/44 38/38/38
f 45/45/45 44/44/44 39/39/39
f 31/31/31 45/45/45 39/39/39
f 46/46/46 45/45/45 31/31/31
f 30/30/30 46/46/46 31/31/31
f 47/47/47 46/46/46 30/30/30
f 48/48/48 47/47/47 30/30/30
f 48/48/48 30/30/30 24/24/24
f 25/25/25 48/48/48 24/24/24
f 49/49/49 48/48/48 25/25/25
f 26/26/26 49/49/49 25/25/25
f 50/50/50 49/49/49 26/26/26
f 27/27/27 50/50/50 26/26/26
f 51/51/51 50/50/50 27/27/27
f 28/28/28 51/51/51 27/27/27
f 40/40/40 51/51/51 28/28/28
f 52/52/52 47/47/47 48/48/48
f 49/49/49 52/52/52 48/48/48
f 53/53/53 52/52/52 49/49/49
f 50/50/50 53/53/53 49/49/49
f 54/54/54 53/53/53 50/50/50
f 51/51/51 54/54/54 50/50/50
f 55/55/55 54/54/54 51/51/51
f 40/40/40 55/55/55 51/51/51
f 52/52/52 56/56/56 47/47/47
f 56/56/56 57/57/57 47/47/47
f 58/58/58 56/56/56 52/52/52
f 53/53/53 58/58/58 52/52/52
f 59/59/59 58/58/58 53/53/53
f 54/54/54 59/59/59 53/53/53
f 60/60/60 59/59/59 54/54/54
f 55/55/55 60/60/60 54/54/54
f 56/56/56 61/61/61 57/57/57
f 61/61/61 62/62/62 57/57/57
f 57/57/57 62/62/62 63/63/63
f 57/57/57 63/63/63 46/46/46
f 46/46/46 63/63/63 45/45/45
f 63/63/63 64/64/64 45/45/45
f 45/45/45 64/64/64 44/44/44
f 64/64/64 65/65/65 44/44/44
f 44/44/44 65/65/65 43/43/43
f 65/65/65 66/66/66 43/43/43
f 43/43/43 66/66/66 41/41/41
f 66/66/66 67/67/67 41/41/41
f 41/41/41 67/67/67 42/42/42
f 67/67/67 68/68/68 42/42/42
f 67/67/67 69/69/69 68/68/68
f 69/69/69 70/70/70 68/68/68
f 71/71/71 69/69/69 67/67/67
f 66/66/66 71/71/71 67/67/67
f 72/72/72 71/71/71 66/66/66
f 65/65/65 72/72/72 66/66/66
f 73/73/73 72/72/72 65/65/65
f 64/64/64 73/73/73 65/65/65
f 74/74/74 73/73/73 64/64/64
f 63/63/63 74/74/74 64/64/64
f 62/62/62 74/74/74 63/63/63
f 69/69/69 75/75/75 70/70/70
f 75/75/75 76/76/76 70/70/70
f 77/77/77 75/75/75 69/69/69
f 71/71/71 77/77/77 69/69/69
f 78/78/78 77/77/77 71/71/71
f 72/72/72 78/78/78 71/71/71
f 79/79/79 78/78/78 72/72/72
f 73/73/73 79/79/79 72/72/72
f 80/80/80 79/79/79 73/73/73
f 74/74/74 80/80/80 73/73/73
f 81/81/81 80/80/80 74/74/74
f 62/62/62 81/81/81 74/74/74
f 82/82/82 81/81/81 62/62/62
f 61/61/61 82/82/82 62/62/62
f 83/83/83 82/82/82 61/61/61
f 84/84/84 83/83/83 61/61/61
f 84/84/84 61/61/61 56/56/56
f 58/58/58 84/84/84 56/56/56
f 85/85/85 84/84/84 58/58/58
f 59/59/59 85/85/85 58/58/58
f 86/86/86 85/85/85 59/59/59
f 60/60/60 86/86/86 59/59/59
f 87/87/87 83/83/83 84/84/84
f 85/85/85 87/87/87 84/84/84
f 88/88/88 87/87/87 85/85/85
f 86/86/86 88/88/88 85/85/85
f 79/79/79 89/89/89 78/78/78
f 90/90/90 89/89/89 79/79/79
f 80/80/80 90/90/90 79/79/79
f 91/91/91 90/90/90 80/80/80
f 81/81/81 91/91/91 80/80/80
f 92/92/92 91/91/91 81/81/81
f 82/82/82 92/92/92 81/81/81
f 93/93/93 92/92/92 82/82/82
f 83/83/83 93/93/93 82/82/82
f 94/94/94 93/93/93 83/83/83
f 87/87/87 94/94/94 83/83/83
f 95/95/95 94/94/94 87/87/87
f 88/88/88 95/95/95 87/87/87
f 90/90/90 96/96/96 89/89/89
f 96/96/96 97/97/97 89/89/89
f 89/89/89 97/97/97 98/98/98
f 89/89/89 98/98/98 78/78/78
f 78/78/78 98/98/98 77/77/77
f 98/98/98 99/99/99 77/77/77
f 77/77/77 99/99/99 75/75/75
f 99/99/99 100/100/100 75/75/75
f 75/75/75 100/100/100 76/76/76
f 100/100/100 101/101/101 76/76/76
f 100/100/100 102/102/102 101/101/101
f 102/102/102 103/103/103 101/101/101
f 104/104/104 102/102/102 100/100/100
f 99/99/99 104/104/104 100/100/100
f 105/105/105 104/104/104 99/99/99
f 98/98/98 105/105/105 99/99/99
f 97/97/97 105/105/105 98/98/98
f 95/95/95 106/106/106 94/94/94
f 101/101/101 107/107/107 76/76/76
f 107/107/107 108/108/108 76/76/76
f 76/76/76 108/108/108 70/70/70
f 108/108/108 109/109/109 70/70/70
f 70/70/70 109/109/109 68/68/68
f 109/109/109 110/110/110 68/68/68
f 68/68/68 110/110/110 42/42/42
f 110/110/110 111/111/111 42/42/42
f 42/42/42 111/111/111 37/37/37
f 111/111/111 112/112/112 37/37/37
f 37/37/37 112/112/112 35/35/35
f 112/112/112 113/113/113 35/35/35
f 35/35/35 113/113/113 2/2/2
f 113/113/113 114/114/114 2/2/2
f 2/2/2 114/114/114 1/1/1
f 114/114/114 115/115/115 1/1/1
f 114/114/114 116/116/116 115/115/115
f 116/116/116 117/117/117 115/115/115
f 118/118/118 116/116/116 114/114/114
f 113/113/113 118/118/118 114/114/114
f 119/119/119 118/118/118 113/113/113
f 112/112/112 119/119/119 113/113/113
f 120/120/120 119/119/119 112/112/112
f 111/111/111 120/120/120 112/112/112
f 121/121/121 120/120/120 111/111/111
f 110/110/110 121/121/121 111/111/111
f 122/122/122 121/121/121 110/110/110
f 109/109/109 122/122/122 110/110/110
f 123/123/123 122/122/122 109/109/109
f 108/108/108 123/123/123 109/109/109
f 124/124/124 123/123/123 108/108/108
f 107/107/107 124/124/124 108/108/108
f 125/125/125 124/124/124 107/107/107
f 126/126/126 125/125/125 107/107/107
f 126/126/126 107/107/107 101/101/101
f 103/103/103 126/126/126 101/101/101
f 119/119/119 127/127/127 118/118/118
f 127/127/127 128/128/128 118/118/118
f 129/129/129 127/127/127 119/119/119
f 120/120/120 129/129/129 119/119/119
f 130/130/130 129/129/129 120/120/120
f 121/121/121 130/130/130 120/120/120
f 131/131/131 130/130/130 121/121/121
f 122/122/122 131/131/131 121/121/121
f 132/132/132 131/131/131 122/122/122
f 123/123/123 132/132/132 122/122/122
f 133/133/133 132/132/132 123/123/123
f 124/124/124 133/133/133 123/123/123
f 134/134/134 133/133/133 124/124/124
f 125/125/125 134/134/134 124/124/124
f 128/128/128 135/135/135 116/116/116
f 116/116/116 135/135/135 117/117/117
f 135/135/135 136/136/136 117/117/117
f 118/118/118 128/128/128 116/116/116
f 47/47/47 57/57/57 46/46/46
f 137/137/137 96/96/96 90/90/90
f 91/91/91 137/137/137 90/90/90
f 138/138/138 137/137/137 91/91/91
f 92/92/92 138/138/138 91/91/91
f 139/139/139 138/138/138 92/92/92
f 93/93/93 139/139/139 92/92/92
f 140/140/140 139/139/139 93/93/93
f 94/94/94 140/140/140 93/93/93
f 106/106/106 140/140/140 94/94/94
f 142/142/142 141/141/141 106/106/106
f 95/95/95 142/142/142 106/106/106
f 143/143/143 142/142/142 95/95/95
f 88/88/88 143/143/143 95/95/95
f 144/144/144 143/143/143 88/88/88
f 86/86/86 144/144/144 88/88/88
f 145/145/145 144/144/144 86/86/86
f 60/60/60 145/145/145 86/86/86
f 146/146/146 145/145/145 60/60/60
f 55/55/55 146/146/146 60/60/60
f 147/147/147 146/146/146 55/55/55
f 40/40/40 147/147/147 55/55/55
f 148/148/148 147/147/147 40/40/40
f 29/29/29 148/148/148 40/40/40
f 149/149/149 148/148/148 29/29/29
f 21/21/21 149/149/149 29/29/29
f 150/150/150 149/149/149 21/21/21
f 22/22/22 150/150/150 21/21/21
f 150/150/150 151/151/151 149/149/149
f 151/151/151 152/152/152 149/149/149
f 149/149/149 152/152/152 148/148/148
f 152/152/152 153/153/153 148/148/148
f 148/148/148 153/153/153 147/147/147
f 153/153/153 154/154/154 147/147/147
f 147/147/147 154/154/154 146/146/146
f 154/154/154 155/155/155 146/146/146
f 146/146/146 155/155/155 145/145/145
f 155/155/155 156/156/156 145/145/145
f 145/145/145 156/156/156 144/144/144
f 156/156/156 157/157/157 144/144/144
f 144/144/144 157/157/157 143/143/143
f 157/157/157 158/158/158 143/143/143
f 143/143/143 158/158/158 142/142/142
f 158/158/158 159/159/159 142/142/142
f 142/142/142 159/159/159 141/141/141
f 159/159/159 160/160/160 141/141/141
f 151/151/151 161/161/161 152/152/152
f 161/161/161 162/162/162 152/152/152
f 152/152/152 162/162/162 153/153/153
f 162/162/162 163/163/163 153/153/153
f 153/153/153 163/163/163 154/154/154
f 163/163/163 164/164/164 154/154/154
f 154/154/154 164/164/164 155/155/155
f 164/164/164 165/165/165 155/155/155
f 155/155/155 165/165/165 156/156/156
f 165/165/165 166/166/166 156/156/156
f 156/156/156 166/166/166 157/157/157
f 166/166/166 167/167/167 157/157/157
f 157/157/157 167/167/167 158/158/158
f 167/167/167 168/168/168 158/158/158
f 158/158/158 168/168/168 159/159/159
f 168/168/168 169/169/169 159/159/159
f 159/159/159 169/169/169 160/160/160
f 169/169/169 170/170/170 160/160/160
