g m_dlc5_woodplank_large_03
v 0.1196413 2.853935 0.2914281
v 0.06898201 2.910233 0.2914281
v 0.06898186 2.907083 -0.267069
v 0.1196415 2.850784 -0.267069
v 0.06898186 2.853935 0.3443358
v 0.06898201 2.850784 -0.3199761
v 0.06898201 1.56779 -0.3064388
v 0.1196415 1.56779 -0.2541921
v 0.06898193 1.218855 -0.2979496
v 0.1196414 1.218855 -0.2480051
v 0.06898186 0.7031974 -0.3113024
v 0.1196414 0.7031975 -0.2645318
v 0.05720688 0.3687997 -0.3238811
v 0.1196414 0.3683323 -0.2605827
v 0.06898193 0.01597315 -0.3392732
v 0.1196414 0.01597315 -0.2967629
v 0.06898186 -0.04032568 -0.2967629
v 0.06898186 -0.04032568 0.2959429
v 0.1196414 0.01597315 0.2959429
v 0.06898193 0.01597315 0.3384539
v 0.06898186 0.4214437 0.32761
v 0.1196414 0.4214437 0.2836354
v 0.1196415 1.380235 0.257341
v 0.1196414 0.6666842 0.2786333
v 0.06898201 1.380235 0.3068148
v 0.06898186 0.6666842 0.3239721
v 0.07211036 1.656726 0.3316148
v 0.1196415 1.657939 0.2690299
v 0.06898201 2.910233 0.2914281
v 0.06898186 2.853935 0.3443358
v -0.06898201 2.853935 0.3443358
v -0.06898186 2.910233 0.2914281
v 0.06898186 2.907083 -0.267069
v -0.06898201 2.907083 -0.267069
v -0.1196413 2.850784 -0.267069
v -0.1196415 2.853935 0.2914281
v 0.06898201 2.850784 -0.3199761
v -0.06898186 2.850784 -0.3199761
v 0.06898201 1.56779 -0.3064388
v -0.06898186 1.56779 -0.3064388
v -0.1196413 1.56779 -0.2541921
v -0.1196414 1.218855 -0.2475351
v -0.06898193 1.218855 -0.2979966
v -0.1196414 0.7031974 -0.2644231
v -0.06898186 0.7031974 -0.3122704
v -0.1196414 0.3632506 -0.301978
v -0.06898193 0.3687997 -0.3286217
v -0.06898186 0.01597315 -0.3392732
v -0.1196414 0.01597315 -0.2967629
v -0.06898186 -0.04032569 -0.2967629
v -0.1196414 0.01597315 0.2959429
v -0.06898186 -0.04032569 0.2959429
v 0.06898186 -0.04032568 -0.2967629
v 0.06898193 0.01597315 -0.3392732
v 0.06898186 -0.04032568 0.2959429
v 0.06898193 0.01597315 0.3384539
v -0.06898186 0.01597315 0.3384539
v -0.1196414 0.4214437 0.2836354
v -0.06898193 0.4214437 0.32761
v 0.06898186 0.4214437 0.32761
v -0.06898186 0.6666842 0.3239721
v 0.06898186 0.6666842 0.3239721
v -0.06898186 1.380235 0.3068258
v -0.1196413 1.380235 0.2571353
v -0.1196414 0.6666842 0.2784227
v 0.06898201 1.380235 0.3068148
v -0.03492447 1.654937 0.3415604
v 0.07211036 1.656726 0.3316148
v -0.1196413 1.6614 0.3046781
v 0.06898193 1.218855 -0.2979496
v 0.06898186 0.7031974 -0.3113024
v 0.05720688 0.3687997 -0.3238811
vt 0.8808594 0.4570313
vt 0.8779297 0.456543
vt 0.8779297 0.480957
vt 0.8808594 0.4802246
vt 0.8803711 0.4541016
vt 0.8803711 0.4831543
vt 0.9316406 0.4836426
vt 0.9316406 0.4807129
vt 0.9458008 0.4833984
vt 0.9458008 0.4807129
vt 0.9663086 0.4833984
vt 0.9663086 0.4807129
vt 0.9794922 0.484375
vt 0.9794922 0.480957
vt 0.9941406 0.4848633
vt 0.9936523 0.4821777
vt 0.996582 0.4824219
vt 0.996582 0.4587402
vt 0.9936523 0.4589844
vt 0.9941406 0.456543
vt 0.9780273 0.4562988
vt 0.9775391 0.4589844
vt 0.9394531 0.4602051
vt 0.9677734 0.4592285
vt 0.9394531 0.4575195
vt 0.9682617 0.456543
vt 0.9287109 0.4572754
vt 0.9282227 0.4604492
vt 0.8779297 0.456543
vt 0.8730469 0.451416
vt 0.8710938 0.4560547
vt 0.8735352 0.458252
vt 0.8779297 0.480957
vt 0.8735352 0.479248
vt 0.8710938 0.4787598
vt 0.8706055 0.4587402
vt 0.8735352 0.4858398
vt 0.871582 0.4814453
vt 0.8217773 0.4904785
vt 0.8212891 0.4848633
vt 0.8212891 0.4819336
vt 0.8076172 0.482666
vt 0.8076172 0.4855957
vt 0.7871094 0.4838867
vt 0.7871094 0.4868164
vt 0.7734375 0.4858398
vt 0.7734375 0.4882813
vt 0.7592773 0.4870605
vt 0.7602539 0.4851074
vt 0.7573242 0.4855957
vt 0.7597656 0.4638672
vt 0.7568359 0.463623
vt 0.7524414 0.4873047
vt 0.7558594 0.4907227
vt 0.7524414 0.4619141
vt 0.7553711 0.4584961
vt 0.7587891 0.4619141
vt 0.7744141 0.4624023
vt 0.7739258 0.4594727
vt 0.7729492 0.4541016
vt 0.7836914 0.4592285
vt 0.7832031 0.4536133
vt 0.8125 0.4587402
vt 0.8125 0.4616699
vt 0.7841797 0.4619141
vt 0.8120117 0.453125
vt 0.8232422 0.4560547
vt 0.8232422 0.4519043
vt 0.8237305 0.4599609
vt 0.8076172 0.4909668
vt 0.7871094 0.4924316
vt 0.7729492 0.4934082
vn 1 0 0
vn 0.2732905 0.9595002 0.06835042
vn 0.2740662 0.9585244 -0.07822217
vn 1 0 0
vn 0.3330166 0.02892782 0.9424771
vn 0.2624576 0.02182219 -0.9646967
vn 0.2672797 -0.01275234 -0.9635345
vn 1 0 0
vn 0.2570883 0.006661423 -0.9663649
vn 1 0 0
vn 0.2704114 0.0266527 -0.9623759
vn 1 0 0
vn 0.280895 0.03951616 -0.9589247
vn 1 0 0
vn 0.2636818 -0.04154537 -0.9637147
vn 1 0 0
vn 0.2761492 -0.9585756 -0.06981778
vn 0.2761491 -0.9585756 0.06981774
vn 1 0 0
vn 0.2092624 -0.05270766 0.976438
vn 0.226711 0.02225196 0.9737079
vn 1 0 0
vn 1 0 0
vn 1 0 0
vn 0.2716929 -0.00753208 0.9623545
vn 0.2392697 0.02178631 0.9707088
vn 0.3393555 -0.02333026 0.9403688
vn 1 0 0
vn 0.2732905 0.9595002 0.06835042
vn 0.3330166 0.02892782 0.9424771
vn -0.2060036 0.02893633 0.9781234
vn -0.2732902 0.9595002 0.06835053
vn 0.2740662 0.9585244 -0.07822217
vn -0.2740664 0.9585244 -0.07822205
vn -1 0 0
vn -1 0 0
vn 0.2624576 0.02182219 -0.9646967
vn -0.2624576 0.02182223 -0.9646968
vn 0.2672797 -0.01275234 -0.9635345
vn -0.2674934 -0.01278471 -0.9634749
vn -1 0 0
vn -1 0 0
vn -0.2569914 0.006794849 -0.9663898
vn -1 0 0
vn -0.2254974 0.0366795 -0.973553
vn -1 0 0
vn -0.1795342 0.04064295 -0.9829118
vn -0.1622317 -0.06477863 -0.984624
vn -1 0 0
vn -0.2761492 -0.9585756 -0.06981776
vn -1 0 0
vn -0.2761491 -0.9585756 0.06981772
vn 0.2761492 -0.9585756 -0.06981778
vn 0.2636818 -0.04154537 -0.9637147
vn 0.2761491 -0.9585756 0.06981774
vn 0.2092624 -0.05270766 0.976438
vn -0.2092622 -0.05270772 0.976438
vn -1 0 0
vn -0.2269036 0.02229289 0.9736621
vn 0.226711 0.02225196 0.9737079
vn -0.2401242 0.0218083 0.9704972
vn 0.2392697 0.02178631 0.9707088
vn -0.2415576 -0.01231058 0.9703084
vn -1 0 0
vn -1 0 0
vn 0.2716929 -0.00753208 0.9623545
vn -0.1917309 -0.02545626 0.9811173
vn 0.3393555 -0.02333026 0.9403688
vn -1 0 0
vn 0.2570883 0.006661423 -0.9663649
vn 0.2704114 0.0266527 -0.9623759
vn 0.280895 0.03951616 -0.9589247
g m_dlc5_woodplank_large_03_0
f 3/3/3 2/2/2 1/1/1
f 4/4/4 3/3/3 1/1/1
f 2/2/2 5/5/5 1/1/1
f 4/4/4 6/6/6 3/3/3
f 7/7/7 6/6/6 4/4/4
f 8/8/8 7/7/7 4/4/4
f 9/9/9 7/7/7 8/8/8
f 10/10/10 9/9/9 8/8/8
f 11/11/11 9/9/9 10/10/10
f 12/12/12 11/11/11 10/10/10
f 11/11/11 12/12/12 13/13/13
f 12/12/12 14/14/14 13/13/13
f 15/15/15 13/13/13 14/14/14
f 16/16/16 15/15/15 14/14/14
f 17/17/17 15/15/15 16/16/16
f 17/17/17 16/16/16 18/18/18
f 16/16/16 19/19/19 18/18/18
f 19/19/19 16/16/16 14/14/14
f 19/19/19 20/20/20 18/18/18
f 20/20/20 19/19/19 21/21/21
f 19/19/19 22/22/22 21/21/21
f 22/22/22 19/19/19 14/14/14
f 14/14/14 12/12/12 22/22/22
f 12/12/12 10/10/10 23/23/23
f 23/23/23 10/10/10 8/8/8
f 24/24/24 12/12/12 23/23/23
f 12/12/12 24/24/24 22/22/22
f 24/24/24 23/23/23 25/25/25
f 26/26/26 24/24/24 25/25/25
f 22/22/22 24/24/24 26/26/26
f 21/21/21 22/22/22 26/26/26
f 27/27/27 25/25/25 23/23/23
f 28/28/28 27/27/27 23/23/23
f 27/27/27 28/28/28 5/5/5
f 28/28/28 1/1/1 5/5/5
f 1/1/1 28/28/28 4/4/4
f 28/28/28 8/8/8 4/4/4
f 28/28/28 23/23/23 8/8/8
f 31/31/31 30/30/30 29/29/29
f 32/32/32 31/31/31 29/29/29
f 32/32/32 29/29/29 33/33/33
f 34/34/34 32/32/32 33/33/33
f 34/34/34 35/35/35 32/32/32
f 35/35/35 36/36/36 32/32/32
f 36/36/36 31/31/31 32/32/32
f 33/33/33 37/37/37 34/34/34
f 37/37/37 38/38/38 34/34/34
f 38/38/38 35/35/35 34/34/34
f 37/37/37 39/39/39 38/38/38
f 39/39/39 40/40/40 38/38/38
f 41/41/41 35/35/35 38/38/38
f 40/40/40 41/41/41 38/38/38
f 42/42/42 41/41/41 40/40/40
f 43/43/43 42/42/42 40/40/40
f 43/43/43 40/40/40 39/39/39
f 44/44/44 42/42/42 43/43/43
f 45/45/45 44/44/44 43/43/43
f 44/44/44 45/45/45 46/46/46
f 45/45/45 47/47/47 46/46/46
f 46/46/46 47/47/47 48/48/48
f 49/49/49 46/46/46 48/48/48
f 50/50/50 49/49/49 48/48/48
f 49/49/49 50/50/50 51/51/51
f 50/50/50 52/52/52 51/51/51
f 53/53/53 50/50/50 48/48/48
f 54/54/54 53/53/53 48/48/48
f 48/48/48 47/47/47 54/54/54
f 50/50/50 53/53/53 55/55/55
f 52/52/52 50/50/50 55/55/55
f 52/52/52 55/55/55 56/56/56
f 57/57/57 52/52/52 56/56/56
f 52/52/52 57/57/57 51/51/51
f 51/51/51 57/57/57 58/58/58
f 58/58/58 46/46/46 49/49/49
f 51/51/51 58/58/58 49/49/49
f 44/44/44 46/46/46 58/58/58
f 57/57/57 59/59/59 58/58/58
f 57/57/57 56/56/56 59/59/59
f 56/56/56 60/60/60 59/59/59
f 59/59/59 60/60/60 61/61/61
f 60/60/60 62/62/62 61/61/61
f 61/61/61 62/62/62 63/63/63
f 61/61/61 63/63/63 64/64/64
f 65/65/65 61/61/61 64/64/64
f 59/59/59 61/61/61 65/65/65
f 58/58/58 59/59/59 65/65/65
f 62/62/62 66/66/66 63/63/63
f 65/65/65 44/44/44 58/58/58
f 65/65/65 64/64/64 42/42/42
f 44/44/44 65/65/65 42/42/42
f 67/67/67 63/63/63 66/66/66
f 68/68/68 67/67/67 66/66/66
f 67/67/67 68/68/68 31/31/31
f 67/67/67 31/31/31 36/36/36
f 69/69/69 67/67/67 36/36/36
f 69/69/69 64/64/64 63/63/63
f 67/67/67 69/69/69 63/63/63
f 42/42/42 64/64/64 69/69/69
f 69/69/69 36/36/36 35/35/35
f 41/41/41 69/69/69 35/35/35
f 41/41/41 42/42/42 69/69/69
f 68/68/68 30/30/30 31/31/31
f 45/45/45 43/43/43 70/70/70
f 71/71/71 45/45/45 70/70/70
f 70/70/70 43/43/43 39/39/39
f 71/71/71 72/72/72 45/45/45
f 72/72/72 47/47/47 45/45/45
f 47/47/47 72/72/72 54/54/54
