g m_dlc5_nail_01
v 0.1049887 0.1378388 -0.06183838
v 0.1046506 0.1734663 -0.05184326
v 0.06380966 0.190107 -0.08388489
v 0.05627418 0.1576876 -0.1000568
v 0.01332748 0.2106761 -0.08388489
v -0.003939972 0.182222 -0.1000561
v 0.123596 0.1302572 0
v 0.1202505 0.1671101 0
v -0.003939972 0.182222 -0.1000561
v 0.01332748 0.2106761 -0.08388489
v -0.02751335 0.2273168 -0.05184326
v -0.05265434 0.2020708 -0.06183838
v -0.0431131 0.2336729 0
v -0.07126137 0.2096522 0
v 0.003134613 0.1508016 -0.06148193
v -0.0278434 0.1600288 -0.03799744
v -0.0396759 0.1635533 0
v -0.07126137 0.2096522 0
v -0.0431131 0.2336729 0
v -0.02751335 0.2273168 0.05184387
v -0.05265419 0.2020707 0.06183838
v 0.01332764 0.210676 0.08388489
v -0.003939972 0.182222 0.1000568
v 0.06380966 0.190107 0.08388489
v 0.05627434 0.1576875 0.1000568
v -0.0396759 0.1635533 0
v -0.0278434 0.1600288 0.03799744
v 0.05627434 0.1576875 0.1000568
v 0.06380966 0.190107 0.08388489
v 0.1046508 0.1734663 0.05184387
v 0.1049886 0.1378389 0.06183838
v 0.1202505 0.1671101 0
v 0.123596 0.1302572 0
v 0.1046506 0.1734663 -0.05184326
v 0.04138992 0.1968573 0
v 0.06380966 0.190107 -0.08388489
v 0.01332748 0.2106761 -0.08388489
v -0.02751335 0.2273168 -0.05184326
v -0.0431131 0.2336729 0
v -0.02751335 0.2273168 0.05184387
v 0.01332764 0.210676 0.08388489
v 0.06380966 0.190107 0.08388489
v 0.1046508 0.1734663 0.05184387
v 0.1202505 0.1671101 0
v 0.05627418 0.1576876 -0.1000568
v 0.04142547 0.139396 -0.06148254
v 0.07240348 0.1301688 -0.03799744
v 0.1049887 0.1378388 -0.06183838
v -0.003939972 0.182222 -0.1000561
v 0.003134613 0.1508016 -0.06148193
v 0.08423599 0.1266443 0
v 0.123596 0.1302572 0
v 0.07240333 0.1301688 0.03799744
v 0.1049886 0.1378389 0.06183838
v 0.04142563 0.139396 0.06148193
v 0.05627434 0.1576875 0.1000568
v 0.003134613 0.1508016 0.06148254
v -0.003939972 0.182222 0.1000568
v -0.0278434 0.1600288 0.03799744
v 0.04142547 0.139396 -0.06148254
v 0.01305145 0.08252092 -0.04279236
v 0.03504715 0.07779674 -0.02644714
v 0.07240348 0.1301688 -0.03799744
v 0.003134613 0.1508016 -0.06148193
v -0.01413681 0.08836027 -0.04279236
v 0.04344879 0.07599229 0
v 0.08423599 0.1266443 0
v 0.02383263 -0.2047131 -0.01770996
v 0.008767853 -0.2047131 -0.02865478
v -0.00985321 -0.2047131 -0.02865478
v 0.02958679 -0.2047131 0
v -0.0278434 0.1600288 -0.03799744
v -0.03613251 0.09308443 -0.02644714
v -0.01413681 0.08836027 -0.04279236
v 0.003134613 0.1508016 -0.06148193
v -0.0396759 0.1635533 0
v -0.04453415 0.09488887 0
v -0.00985321 -0.2047131 -0.02865478
v -0.02491798 -0.2047131 -0.01770996
v -0.03067215 -0.2047131 0
v -0.0278434 0.1600288 0.03799744
v -0.03613235 0.09308442 0.02644714
v -0.04453415 0.09488887 0
v -0.0396759 0.1635533 0
v 0.003134613 0.1508016 0.06148254
v -0.01413681 0.08836027 0.04279236
v 0.04142563 0.139396 0.06148193
v 0.01305145 0.0825209 0.04279236
v -0.03067215 -0.2047131 0
v -0.02491776 -0.2047131 0.01770996
v -0.00985321 -0.2047131 0.02865478
v 0.008767853 -0.2047131 0.02865478
v 0.07240333 0.1301688 0.03799744
v 0.03504699 0.07779677 0.02644714
v 0.01305145 0.0825209 0.04279236
v 0.04142563 0.139396 0.06148193
v 0.08423599 0.1266443 0
v 0.04344879 0.07599229 0
v 0.008767853 -0.2047131 0.02865478
v 0.02383263 -0.2047131 0.01770996
v 0.02958679 -0.2047131 0
vt 0.71875 0.2303467
vt 0.7182617 0.2321777
vt 0.7202148 0.2342529
vt 0.722168 0.2331543
vt 0.7207031 0.2370605
vt 0.7226563 0.2371826
vt 0.7143555 0.2299805
vt 0.7148438 0.2319336
vt 0.7226563 0.2371826
vt 0.7207031 0.2370605
vt 0.7197266 0.239624
vt 0.7211914 0.2409668
vt 0.7172852 0.2409668
vt 0.7177734 0.2426758
vt 0.7246094 0.2370605
vt 0.7226563 0.2421875
vt 0.7182617 0.2453613
vt 0.7177734 0.2426758
vt 0.7172852 0.2409668
vt 0.7143555 0.2409668
vt 0.7138672 0.2427979
vt 0.7124023 0.2391357
vt 0.7104492 0.2403564
vt 0.7114258 0.2363281
vt 0.7094727 0.2363281
vt 0.7182617 0.2453613
vt 0.7128906 0.244751
vt 0.7094727 0.2363281
vt 0.7114258 0.2363281
vt 0.7124023 0.2335205
vt 0.7109375 0.2324219
vt 0.7148438 0.2319336
vt 0.7143555 0.2299805
vt 0.7182617 0.2321777
vt 0.7163086 0.2363281
vt 0.7202148 0.2342529
vt 0.7207031 0.2370605
vt 0.7197266 0.239624
vt 0.7172852 0.2409668
vt 0.7143555 0.2409668
vt 0.7124023 0.2391357
vt 0.7114258 0.2363281
vt 0.7124023 0.2335205
vt 0.7148438 0.2319336
vt 0.722168 0.2331543
vt 0.7231445 0.2319336
vt 0.7192383 0.2287598
vt 0.71875 0.2303467
vt 0.7226563 0.2371826
vt 0.7246094 0.2370605
vt 0.7143555 0.2287598
vt 0.7143555 0.2299805
vt 0.7099609 0.2312012
vt 0.7109375 0.2324219
vt 0.7075195 0.2359619
vt 0.7094727 0.2363281
vt 0.7089844 0.2412109
vt 0.7104492 0.2403564
vt 0.7128906 0.244751
vt 0.7265625 0.2305908
vt 0.7304688 0.230957
vt 0.7304688 0.2293701
vt 0.7270508 0.2283936
vt 0.7265625 0.232666
vt 0.7304688 0.2325439
vt 0.730957 0.2279053
vt 0.7275391 0.2263184
vt 0.7363281 0.229248
vt 0.7368164 0.2302246
vt 0.7368164 0.2312012
vt 0.7363281 0.2281494
vt 0.7270508 0.2348633
vt 0.730957 0.2341309
vt 0.7304688 0.2325439
vt 0.7265625 0.232666
vt 0.7275391 0.2370605
vt 0.7314453 0.2355957
vt 0.7368164 0.2312012
vt 0.7368164 0.2322998
vt 0.7373047 0.2332764
vt 0.7285156 0.2390137
vt 0.7319336 0.2370605
vt 0.7314453 0.2355957
vt 0.7275391 0.2370605
vt 0.7299805 0.2408447
vt 0.7329102 0.2384033
vt 0.7314453 0.2424316
vt 0.7338867 0.239502
vt 0.7373047 0.2332764
vt 0.737793 0.2342529
vt 0.7382813 0.2351074
vt 0.7387695 0.236084
vt 0.7329102 0.2437744
vt 0.7348633 0.2406006
vt 0.7338867 0.239502
vt 0.7314453 0.2424316
vt 0.7348633 0.2449951
vt 0.7363281 0.2415771
vt 0.7387695 0.236084
vt 0.7392578 0.2368164
vt 0.7402344 0.2376709
vn 0.6402714 -0.5131484 -0.5716041
vn 0.7406509 0.5799691 -0.3392228
vn 0.4733202 0.6931511 -0.543608
vn 0.1760733 -0.3579342 -0.9169958
vn 0.1498288 0.8299863 -0.537284
vn -0.3860102 -0.1679164 -0.9070835
vn 0.8197864 -0.5726693 4.571834E-07
vn 0.8441373 0.5361272 -3.213674E-07
vn -0.3860102 -0.1679164 -0.9070835
vn 0.1498288 0.8299863 -0.537284
vn -0.1064821 0.9383129 -0.3289841
vn -0.8312799 -0.0160896 -0.555621
vn -0.2031527 0.979147 2.578674E-07
vn -0.9991426 0.04140121 6.102413E-07
vn -0.4359277 -0.5366274 -0.7224944
vn -0.800204 -0.3922081 -0.4537028
vn -0.9416749 -0.3365238 8.71714E-07
vn -0.9991426 0.04140121 6.102413E-07
vn -0.2031527 0.979147 2.578674E-07
vn -0.1064831 0.9383122 0.3289857
vn -0.8312814 -0.01608946 0.5556191
vn 0.1498312 0.8299865 0.5372831
vn -0.3860088 -0.1679185 0.9070836
vn 0.4733196 0.6931517 0.5436077
vn 0.1760743 -0.3579377 0.9169942
vn -0.9416749 -0.3365238 8.71714E-07
vn -0.8002059 -0.3922069 0.4537006
vn 0.1760743 -0.3579377 0.9169942
vn 0.4733196 0.6931517 0.5436077
vn 0.7406517 0.5799669 0.3392247
vn 0.6402697 -0.5131524 0.5716025
vn 0.8441373 0.5361272 -3.213674E-07
vn 0.8197864 -0.5726693 4.571834E-07
vn 0.7406509 0.5799691 -0.3392228
vn 0.3767955 0.9262964 -1.997926E-07
vn 0.4733202 0.6931511 -0.543608
vn 0.1498288 0.8299863 -0.537284
vn -0.1064821 0.9383129 -0.3289841
vn -0.2031527 0.979147 2.578674E-07
vn -0.1064831 0.9383122 0.3289857
vn 0.1498312 0.8299865 0.5372831
vn 0.4733196 0.6931517 0.5436077
vn 0.7406517 0.5799669 0.3392247
vn 0.8441373 0.5361272 -3.213674E-07
vn 0.1760733 -0.3579342 -0.9169958
vn -0.003303302 -0.7104959 -0.7036936
vn 0.3264195 -0.8452296 -0.423128
vn 0.6402714 -0.5131484 -0.5716041
vn -0.3860102 -0.1679164 -0.9070835
vn -0.4359277 -0.5366274 -0.7224944
vn 0.4463669 -0.8948501 1.334453E-06
vn 0.8197864 -0.5726693 4.571834E-07
vn 0.326418 -0.8452299 0.4231285
vn 0.6402697 -0.5131524 0.5716025
vn -0.003297874 -0.7104964 0.7036932
vn 0.1760743 -0.3579377 0.9169942
vn -0.4359254 -0.5366342 0.7224907
vn -0.3860088 -0.1679185 0.9070836
vn -0.8002059 -0.3922069 0.4537006
vn -0.003303302 -0.7104959 -0.7036936
vn 0.2437121 -0.1407756 -0.9595762
vn 0.7689942 -0.1899146 -0.6103937
vn 0.3264195 -0.8452296 -0.423128
vn -0.4359277 -0.5366274 -0.7224944
vn -0.3654593 -0.08109824 -0.9272878
vn 0.977939 -0.2088908 1.969114E-06
vn 0.4463669 -0.8948501 1.334453E-06
vn 0.8088515 -0.05020489 -0.5858659
vn 0.3043571 -0.0510943 -0.9511867
vn -0.3206204 -0.05014061 -0.9458797
vn 0.9987757 -0.04946766 1.749417E-06
vn -0.800204 -0.3922081 -0.4537028
vn -0.8290859 -0.03368641 -0.5581054
vn -0.3654593 -0.08109824 -0.9272878
vn -0.4359277 -0.5366274 -0.7224944
vn -0.9416749 -0.3365238 8.71714E-07
vn -0.9998753 -0.01578825 3.437955E-06
vn -0.3206204 -0.05014061 -0.9458797
vn -0.8148978 -0.04781155 -0.5776293
vn -0.9989142 -0.04658631 4.371732E-06
vn -0.8002059 -0.3922069 0.4537006
vn -0.8290862 -0.03368683 0.5581052
vn -0.9998753 -0.01578825 3.437955E-06
vn -0.9416749 -0.3365238 8.71714E-07
vn -0.4359254 -0.5366342 0.7224907
vn -0.3654601 -0.08109959 0.9272873
vn -0.003297874 -0.7104964 0.7036932
vn 0.2437139 -0.1407753 0.959576
vn -0.9989142 -0.04658631 4.371732E-06
vn -0.8148978 -0.04781156 0.5776293
vn -0.3206218 -0.0501407 0.9458793
vn 0.3043577 -0.05109424 0.9511865
vn 0.326418 -0.8452299 0.4231285
vn 0.7689943 -0.1899133 0.6103939
vn 0.2437139 -0.1407753 0.959576
vn -0.003297874 -0.7104964 0.7036932
vn 0.4463669 -0.8948501 1.334453E-06
vn 0.977939 -0.2088908 1.969114E-06
vn 0.3043577 -0.05109424 0.9511865
vn 0.8088515 -0.05020462 0.5858658
vn 0.9987757 -0.04946766 1.749417E-06
g m_dlc5_nail_01_0
f 3/3/3 2/2/2 1/1/1
f 4/4/4 3/3/3 1/1/1
f 5/5/5 3/3/3 4/4/4
f 6/6/6 5/5/5 4/4/4
f 1/1/1 2/2/2 7/7/7
f 2/2/2 8/8/8 7/7/7
f 11/11/11 10/10/10 9/9/9
f 12/12/12 11/11/11 9/9/9
f 13/13/13 11/11/11 12/12/12
f 14/14/14 13/13/13 12/12/12
f 9/9/9 15/15/15 12/12/12
f 15/15/15 16/16/16 12/12/12
f 12/12/12 16/16/16 14/14/14
f 16/16/16 17/17/17 14/14/14
f 20/20/20 19/19/19 18/18/18
f 21/21/21 20/20/20 18/18/18
f 22/22/22 20/20/20 21/21/21
f 23/23/23 22/22/22 21/21/21
f 24/24/24 22/22/22 23/23/23
f 25/25/25 24/24/24 23/23/23
f 18/18/18 26/26/26 21/21/21
f 26/26/26 27/27/27 21/21/21
f 21/21/21 27/27/27 23/23/23
f 30/30/30 29/29/29 28/28/28
f 31/31/31 30/30/30 28/28/28
f 32/32/32 30/30/30 31/31/31
f 33/33/33 32/32/32 31/31/31
f 36/36/36 35/35/35 34/34/34
f 37/37/37 35/35/35 36/36/36
f 38/38/38 35/35/35 37/37/37
f 39/39/39 35/35/35 38/38/38
f 40/40/40 35/35/35 39/39/39
f 41/41/41 35/35/35 40/40/40
f 42/42/42 35/35/35 41/41/41
f 43/43/43 35/35/35 42/42/42
f 44/44/44 35/35/35 43/43/43
f 34/34/34 35/35/35 44/44/44
f 47/47/47 46/46/46 45/45/45
f 48/48/48 47/47/47 45/45/45
f 45/45/45 46/46/46 49/49/49
f 46/46/46 50/50/50 49/49/49
f 51/51/51 47/47/47 48/48/48
f 52/52/52 51/51/51 48/48/48
f 53/53/53 51/51/51 52/52/52
f 54/54/54 53/53/53 52/52/52
f 55/55/55 53/53/53 54/54/54
f 56/56/56 55/55/55 54/54/54
f 57/57/57 55/55/55 56/56/56
f 58/58/58 57/57/57 56/56/56
f 59/59/59 57/57/57 58/58/58
f 62/62/62 61/61/61 60/60/60
f 63/63/63 62/62/62 60/60/60
f 60/60/60 61/61/61 64/64/64
f 61/61/61 65/65/65 64/64/64
f 66/66/66 62/62/62 63/63/63
f 67/67/67 66/66/66 63/63/63
f 62/62/62 68/68/68 61/61/61
f 68/68/68 69/69/69 61/61/61
f 61/61/61 69/69/69 65/65/65
f 69/69/69 70/70/70 65/65/65
f 71/71/71 68/68/68 62/62/62
f 66/66/66 71/71/71 62/62/62
f 74/74/74 73/73/73 72/72/72
f 75/75/75 74/74/74 72/72/72
f 72/72/72 73/73/73 76/76/76
f 73/73/73 77/77/77 76/76/76
f 74/74/74 78/78/78 73/73/73
f 78/78/78 79/79/79 73/73/73
f 73/73/73 79/79/79 77/77/77
f 79/79/79 80/80/80 77/77/77
f 83/83/83 82/82/82 81/81/81
f 84/84/84 83/83/83 81/81/81
f 81/81/81 82/82/82 85/85/85
f 82/82/82 86/86/86 85/85/85
f 85/85/85 86/86/86 87/87/87
f 86/86/86 88/88/88 87/87/87
f 83/83/83 89/89/89 82/82/82
f 89/89/89 90/90/90 82/82/82
f 82/82/82 90/90/90 86/86/86
f 90/90/90 91/91/91 86/86/86
f 86/86/86 91/91/91 88/88/88
f 91/91/91 92/92/92 88/88/88
f 95/95/95 94/94/94 93/93/93
f 96/96/96 95/95/95 93/93/93
f 93/93/93 94/94/94 97/97/97
f 94/94/94 98/98/98 97/97/97
f 95/95/95 99/99/99 94/94/94
f 99/99/99 100/100/100 94/94/94
f 94/94/94 100/100/100 98/98/98
f 100/100/100 101/101/101 98/98/98
