g m_dlc3_iceberge_04
v -0.005848383 0.003936371 0.002423194
v -0.004806031 0.003936371 -0.003942943
v -0.003628121 0.005 -0.003345067
v -0.00442737 0.005 0.001536334
v 0.0006174445 0.003936371 0.004370943
v 0.0007909083 0.005 0.003108273
v 0.004244234 0.003936371 0.00430004
v 0.003197515 0.005 0.003061224
v -0.002652619 0.005 -0.004336932
v -0.003101961 0.003936371 -0.005675595
v -0.0003308106 0.005 -0.003995461
v -0.0001214623 0.003936371 -0.00523726
v 0.002853894 0.005 -0.003389547
v 0.003464606 0.003936371 -0.004554975
v 0.005535827 0.003936371 -0.002516825
v 0.004173677 0.005 -0.002090838
v 0 0.005 2.980232E-10
v 0.0006174445 0.003936371 0.004370943
v 0.004244234 0.003936371 0.00430004
v 0.003835754 -0.0005318159 0.003840337
v 0.0005456233 -0.0005318159 0.00390466
v -0.005320011 -0.0005318159 0.002137709
v -0.005848383 0.003936371 0.002423194
v 0.003128495 -0.0005318159 -0.00419271
v 0.003464606 0.003936371 -0.004554975
v -0.0001214623 0.003936371 -0.00523726
v -0.0001246953 -0.0005318159 -0.004811659
v 0.005535827 0.003936371 -0.002516825
v 0.005007455 -0.0005318159 -0.002343748
v -0.003101961 0.003936371 -0.005675595
v -0.002828527 -0.0005318159 -0.005209308
v -0.002828527 -0.0005318159 -0.005209308
v -0.003101961 0.003936371 -0.005675595
v -0.004806031 0.003936371 -0.003942943
v -0.004374415 -0.0005318159 -0.00363749
v -0.005320011 -0.0005318159 0.002137709
v -0.005848383 0.003936371 0.002423194
v 0.003835754 -0.0005318159 0.003840337
v 0.004244234 0.003936371 0.00430004
v 0.005535827 0.003936371 -0.002516825
v 0.005007455 -0.0005318159 -0.002343748
v -0.003567942 -0.005059287 0.001133974
v -0.003184943 -0.005059287 -0.003501543
v -0.004231262 -0.004192659 -0.004121836
v -0.00483433 -0.004196218 0.001875288
v 0.001497738 -0.005059287 0.003603016
v 0.001479771 -0.004196475 0.004717233
v 0.003512151 -0.005059287 0.003560986
v 0.00446029 -0.004194129 0.004658787
v -0.00283097 -0.004194843 -0.005545878
v -0.002322445 -0.005059287 -0.004387218
v -0.000390799 -0.004198205 -0.005187238
v -0.0004894543 -0.005059287 -0.004118186
v 0.004289155 -0.005059287 -0.0005464733
v 0.005521677 -0.004193395 -0.0009433848
v 0.003167467 -0.005059287 -0.001649652
v 0.003819675 -0.004195882 -0.002618489
v 0.000959785 -0.005059287 0.001066492
v -0.0004894543 -0.005059287 -0.004118186
v 0.003819675 -0.004195882 -0.002618489
v -0.000390799 -0.004198205 -0.005187238
v 0.003128495 -0.0005318159 -0.00419271
v 0.005521677 -0.004193395 -0.0009433848
v 0.005007455 -0.0005318159 -0.002343748
v -0.0001246953 -0.0005318159 -0.004811659
v -0.002828527 -0.0005318159 -0.005209308
v -0.00283097 -0.004194843 -0.005545878
v 0.003835754 -0.0005318159 0.003840337
v 0.00446029 -0.004194129 0.004658787
v 0.001479771 -0.004196475 0.004717233
v 0.0005456233 -0.0005318159 0.00390466
v -0.00483433 -0.004196218 0.001875288
v -0.005320011 -0.0005318159 0.002137709
v 0.00446029 -0.004194129 0.004658787
v 0.003835754 -0.0005318159 0.003840337
v 0.005007455 -0.0005318159 -0.002343748
v 0.005521677 -0.004193395 -0.0009433848
v -0.00283097 -0.004194843 -0.005545878
v -0.002828527 -0.0005318159 -0.005209308
v -0.004374415 -0.0005318159 -0.00363749
v -0.004231262 -0.004192659 -0.004121836
v -0.005320011 -0.0005318159 0.002137709
v -0.00483433 -0.004196218 0.001875288
vt 0.8081055 0.5756836
vt 0.8911133 0.5952148
vt 0.8881836 0.5698242
vt 0.824707 0.5585938
vt 0.7802734 0.4899902
vt 0.8076172 0.4938965
vt 0.8081055 0.4521484
vt 0.8198242 0.4707031
vt 0.902832 0.5600586
vt 0.9165039 0.5717773
vt 0.909668 0.5288086
vt 0.9350586 0.5307617
vt 0.9072266 0.4846191
vt 0.9267578 0.4743652
vt 0.8999023 0.442627
vt 0.8920898 0.4650879
vt 0.8540039 0.5126953
vt 0.7802734 0.4899902
vt 0.8081055 0.4521484
vt 0.7768555 0.3996582
vt 0.7324219 0.4797363
vt 0.7651367 0.6230469
vt 0.8081055 0.5756836
vt 0.9741211 0.4533691
vt 0.9267578 0.4743652
vt 0.9350586 0.5307617
vt 0.9838867 0.5385742
vt 0.8999023 0.442627
vt 0.9257813 0.3996582
vt 0.9165039 0.5717773
vt 0.9580078 0.6064453
vt 0.9580078 0.6064453
vt 0.9165039 0.5717773
vt 0.8911133 0.5952148
vt 0.90625 0.6391602
vt 0.7651367 0.6230469
vt 0.8081055 0.5756836
vt 0.7768555 0.3996582
vt 0.8081055 0.4521484
vt 0.8999023 0.442627
vt 0.9257813 0.3996582
vt 0.3425293 0.8081055
vt 0.3659668 0.8671875
vt 0.3857422 0.8671875
vt 0.3540039 0.7871094
vt 0.2695313 0.8149414
vt 0.2573242 0.7973633
vt 0.2546387 0.8300781
vt 0.2366943 0.824707
vt 0.3754883 0.8911133
vt 0.361084 0.8833008
vt 0.3493652 0.9130859
vt 0.3408203 0.8950195
vt 0.265625 0.8837891
vt 0.2497559 0.8950195
vt 0.282959 0.8916016
vt 0.2773438 0.9121094
vt 0.293457 0.8422852
vt 0.3408203 0.8950195
vt 0.2773438 0.9121094
vt 0.3493652 0.9130859
vt 0.2895508 0.9672852
vt 0.2497559 0.8950195
vt 0.229248 0.9428711
vt 0.3637695 0.9536133
vt 0.416748 0.9135742
vt 0.3754883 0.8911133
vt 0.1885986 0.8110352
vt 0.2366943 0.824707
vt 0.2573242 0.7973633
vt 0.2473145 0.7485352
vt 0.3540039 0.7871094
vt 0.3776855 0.7485352
vt 0.2366943 0.824707
vt 0.1885986 0.8110352
vt 0.229248 0.9428711
vt 0.2497559 0.8950195
vt 0.3754883 0.8911133
vt 0.416748 0.9135742
vt 0.4338379 0.8603516
vt 0.3857422 0.8671875
vt 0.3776855 0.7485352
vt 0.3540039 0.7871094
vn -0.8355654 0.08529516 0.5427294
vn -0.9425395 0.09716724 -0.3196527
vn -0.2731627 0.9578983 -0.08839183
vn -0.2593562 0.9501856 0.1728636
vn -0.1802499 0.1206956 0.9761878
vn -0.0477996 0.967334 0.2489582
vn 0.8136657 0.07228107 0.5768219
vn 0.2673165 0.9459579 0.1835904
vn -0.06673111 0.9594426 -0.273892
vn -0.2670314 0.08888029 -0.9595803
vn 0.04212733 0.968369 -0.2459407
vn 0.1664828 0.1415336 -0.9758338
vn 0.1078355 0.9655244 -0.2369268
vn 0.4316334 0.1113687 -0.8951478
vn 0.9927284 0.0845818 -0.08565343
vn 0.3264448 0.9449126 -0.02395697
vn 0 1 0
vn -0.1802499 0.1206956 0.9761878
vn 0.8136657 0.07228107 0.5768219
vn 0.8137298 0.04266276 0.5796754
vn -0.2206449 -0.02647044 0.974995
vn -0.8341614 -0.09441885 0.5433782
vn -0.8355654 0.08529516 0.5427294
vn 0.4528472 -0.1219586 -0.8832074
vn 0.4316334 0.1113687 -0.8951478
vn 0.1664828 0.1415336 -0.9758338
vn 0.2316779 -0.0728925 -0.9700578
vn 0.9927284 0.0845818 -0.08565343
vn 0.9907553 -0.04774241 -0.1269833
vn -0.2670314 0.08888029 -0.9595803
vn -0.2657612 -0.02984202 -0.9635769
vn -0.2657612 -0.02984202 -0.9635769
vn -0.2670314 0.08888029 -0.9595803
vn -0.9425395 0.09716724 -0.3196527
vn -0.9512888 -0.08148161 -0.2973389
vn -0.8341614 -0.09441885 0.5433782
vn -0.8355654 0.08529516 0.5427294
vn 0.8137298 0.04266276 0.5796754
vn 0.8136657 0.07228107 0.5768219
vn 0.9927284 0.0845818 -0.08565343
vn 0.9907553 -0.04774241 -0.1269833
vn -0.2344123 -0.9602801 0.151371
vn -0.2447691 -0.9678064 -0.05864177
vn -0.928142 -0.2255137 -0.296135
vn -0.8147705 -0.2319571 0.5313614
vn -0.08642807 -0.9624187 0.2574496
vn -0.2158221 -0.1371978 0.9667459
vn 0.2563641 -0.9498267 0.1791834
vn 0.8116393 0.03854981 0.5828856
vn -0.2594909 -0.1061144 -0.9598981
vn -0.04925665 -0.9776182 -0.2045396
vn 0.3006226 -0.2406004 -0.9228963
vn 0.1204987 -0.9621726 -0.2443438
vn 0.2801995 -0.9596982 -0.02162042
vn 0.9989441 -0.04381679 -0.01381357
vn 0.1258109 -0.9773026 -0.1704442
vn 0.5284895 -0.3461046 -0.7751842
vn 0 -1 0
vn 0.1204987 -0.9621726 -0.2443438
vn 0.5284895 -0.3461046 -0.7751842
vn 0.3006226 -0.2406004 -0.9228963
vn 0.4528472 -0.1219586 -0.8832074
vn 0.9989441 -0.04381679 -0.01381357
vn 0.9907553 -0.04774241 -0.1269833
vn 0.2316779 -0.0728925 -0.9700578
vn -0.2657612 -0.02984202 -0.9635769
vn -0.2594909 -0.1061144 -0.9598981
vn 0.8137298 0.04266276 0.5796754
vn 0.8116393 0.03854981 0.5828856
vn -0.2158221 -0.1371978 0.9667459
vn -0.2206449 -0.02647044 0.974995
vn -0.8147705 -0.2319571 0.5313614
vn -0.8341614 -0.09441885 0.5433782
vn 0.8116393 0.03854981 0.5828856
vn 0.8137298 0.04266276 0.5796754
vn 0.9907553 -0.04774241 -0.1269833
vn 0.9989441 -0.04381679 -0.01381357
vn -0.2594909 -0.1061144 -0.9598981
vn -0.2657612 -0.02984202 -0.9635769
vn -0.9512888 -0.08148161 -0.2973389
vn -0.928142 -0.2255137 -0.296135
vn -0.8341614 -0.09441885 0.5433782
vn -0.8147705 -0.2319571 0.5313614
g m_dlc3_iceberge_04_0
f 3/3/3 2/2/2 1/1/1
f 4/4/4 3/3/3 1/1/1
f 1/1/1 5/5/5 4/4/4
f 5/5/5 6/6/6 4/4/4
f 5/5/5 7/7/7 6/6/6
f 7/7/7 8/8/8 6/6/6
f 2/2/2 3/3/3 9/9/9
f 10/10/10 2/2/2 9/9/9
f 9/9/9 11/11/11 10/10/10
f 11/11/11 9/9/9 3/3/3
f 11/11/11 12/12/12 10/10/10
f 11/11/11 13/13/13 12/12/12
f 13/13/13 14/14/14 12/12/12
f 7/7/7 15/15/15 8/8/8
f 15/15/15 16/16/16 8/8/8
f 14/14/14 13/13/13 16/16/16
f 15/15/15 14/14/14 16/16/16
f 16/16/16 13/13/13 11/11/11
f 17/17/17 16/16/16 11/11/11
f 8/8/8 16/16/16 17/17/17
f 6/6/6 8/8/8 17/17/17
f 17/17/17 11/11/11 3/3/3
f 17/17/17 3/3/3 4/4/4
f 6/6/6 17/17/17 4/4/4
f 20/20/20 19/19/19 18/18/18
f 21/21/21 20/20/20 18/18/18
f 21/21/21 18/18/18 22/22/22
f 18/18/18 23/23/23 22/22/22
f 26/26/26 25/25/25 24/24/24
f 27/27/27 26/26/26 24/24/24
f 24/24/24 25/25/25 28/28/28
f 29/29/29 24/24/24 28/28/28
f 26/26/26 27/27/27 30/30/30
f 27/27/27 31/31/31 30/30/30
f 34/34/34 33/33/33 32/32/32
f 35/35/35 34/34/34 32/32/32
f 35/35/35 36/36/36 34/34/34
f 36/36/36 37/37/37 34/34/34
f 40/40/40 39/39/39 38/38/38
f 41/41/41 40/40/40 38/38/38
f 44/44/44 43/43/43 42/42/42
f 45/45/45 44/44/44 42/42/42
f 42/42/42 46/46/46 45/45/45
f 46/46/46 42/42/42 43/43/43
f 46/46/46 47/47/47 45/45/45
f 46/46/46 48/48/48 47/47/47
f 48/48/48 49/49/49 47/47/47
f 43/43/43 44/44/44 50/50/50
f 51/51/51 43/43/43 50/50/50
f 50/50/50 52/52/52 51/51/51
f 52/52/52 53/53/53 51/51/51
f 49/49/49 48/48/48 54/54/54
f 54/54/54 48/48/48 46/46/46
f 55/55/55 49/49/49 54/54/54
f 55/55/55 54/54/54 56/56/56
f 57/57/57 56/56/56 53/53/53
f 57/57/57 55/55/55 56/56/56
f 56/56/56 54/54/54 58/58/58
f 53/53/53 56/56/56 58/58/58
f 58/58/58 54/54/54 46/46/46
f 58/58/58 46/46/46 43/43/43
f 58/58/58 43/43/43 51/51/51
f 53/53/53 58/58/58 51/51/51
f 61/61/61 60/60/60 59/59/59
f 62/62/62 60/60/60 61/61/61
f 63/63/63 60/60/60 62/62/62
f 64/64/64 63/63/63 62/62/62
f 65/65/65 62/62/62 61/61/61
f 65/65/65 61/61/61 66/66/66
f 61/61/61 67/67/67 66/66/66
f 70/70/70 69/69/69 68/68/68
f 71/71/71 70/70/70 68/68/68
f 70/70/70 71/71/71 72/72/72
f 71/71/71 73/73/73 72/72/72
f 76/76/76 75/75/75 74/74/74
f 77/77/77 76/76/76 74/74/74
f 80/80/80 79/79/79 78/78/78
f 81/81/81 80/80/80 78/78/78
f 80/80/80 81/81/81 82/82/82
f 81/81/81 83/83/83 82/82/82
