g m_onion_king_eyebrow_R_01
v -0.06477623 1.188754 0.4355247
v -0.06326702 1.188829 0.339686
v -0.06844231 1.186698 0.3397588
v -0.06989296 1.186829 0.435651
v -0.06224044 1.193562 0.4354295
v -0.06095134 1.19407 0.3396994
v -0.05927758 1.218168 0.4350733
v -0.05986533 1.218216 0.3396021
v -0.05819526 1.227407 0.435052
v -0.06022469 1.227373 0.4401883
v -0.06132643 1.218165 0.4402003
v -0.06528205 1.227338 0.4424355
v -0.06637248 1.218164 0.4424412
v -0.05942656 1.227424 0.339547
v -0.06138044 1.232516 0.3396639
v -0.05975629 1.23238 0.4350908
v -0.06650652 1.234644 0.3398858
v -0.06449863 1.234514 0.4352235
v -0.06204625 1.218216 0.3345192
v -0.06163885 1.227419 0.3344975
v -0.0668191 1.227407 0.3325296
v -0.06720865 1.218212 0.3325337
v -0.06439737 1.193781 0.4403232
v -0.06955302 1.194023 0.442462
v -0.06305648 1.194088 0.3345614
v -0.06820717 1.194087 0.3325422
v -0.0657099 1.189748 0.4394774
v -0.06993636 1.188951 0.4404739
v -0.06242628 1.231583 0.3354864
v -0.06663112 1.232527 0.3346837
v -0.06415044 1.189803 0.3355117
v -0.06836503 1.18886 0.3346573
v -0.06468221 1.23241 0.4403208
v -0.1150241 1.232392 0.441868
v -0.1151272 1.234502 0.4367744
v -0.06449863 1.234514 0.4352235
v -0.06528205 1.227338 0.4424355
v -0.1149814 1.227298 0.4439778
v -0.1148313 1.234502 0.3412657
v -0.06650652 1.234644 0.3398858
v -0.1984892 1.234502 0.3421476
v -0.1984892 1.234502 0.4376083
v -0.226146 1.231018 0.4350234
v -0.226146 1.231018 0.3395762
v -0.2465096 1.231873 0.3412276
v -0.2467014 1.230009 0.3358769
v -0.226146 1.228891 0.3344312
v -0.2470041 1.225484 0.3332777
v -0.226146 1.223756 0.3323002
v -0.2493914 1.233428 0.4341706
v -0.06637248 1.218164 0.4424412
v -0.1149814 1.218164 0.4439778
v -0.06955302 1.194023 0.442462
v -0.1150532 1.194041 0.4439785
v -0.1984892 1.218164 0.4448148
v -0.1984989 1.192294 0.444918
v -0.226146 1.215874 0.4422155
v -0.226146 1.193942 0.4422155
v -0.2469015 1.194465 0.4412924
v -0.2466082 1.189136 0.4395437
v -0.2260474 1.188849 0.4401492
v -0.2258074 1.186638 0.4351197
v -0.2465903 1.18684 0.4345347
v -0.2264764 1.184254 0.3395882
v -0.2474287 1.186166 0.3391757
v -0.2488011 1.217637 0.4392964
v -0.1984901 1.182451 0.3422444
v -0.1985008 1.184985 0.4378197
v -0.1151471 1.186831 0.4367784
v -0.1148293 1.18684 0.3412637
v -0.06989296 1.186829 0.435651
v -0.06844231 1.186698 0.3397588
v -0.1149912 1.188949 0.336172
v -0.06836503 1.18886 0.3346573
v -0.06993636 1.188951 0.4404739
v -0.1150509 1.188946 0.4418699
v -0.1984894 1.184472 0.3370627
v -0.2472606 1.188257 0.3343153
v -0.1985006 1.187194 0.4428605
v -0.2262433 1.186276 0.334446
v -0.1149912 1.188949 0.336172
v -0.06836503 1.18886 0.3346573
v -0.06820717 1.194087 0.3325422
v -0.1151671 1.194043 0.3340643
v -0.1149814 1.218164 0.3340625
v -0.06720865 1.218212 0.3325337
v -0.1984892 1.218164 0.3348995
v -0.1984892 1.189586 0.3348995
v -0.226146 1.215874 0.3323002
v -0.226146 1.191376 0.3323002
v -0.2470666 1.19337 0.3323002
v -0.247098 1.21758 0.3323002
v -0.11497 1.227298 0.3340621
v -0.0668191 1.227407 0.3325296
v -0.1984892 1.227255 0.3348995
v -0.114934 1.232392 0.3361721
v -0.06663112 1.232527 0.3346837
v -0.1984892 1.23238 0.3370224
v -0.2472606 1.188257 0.3343153
v -0.2262433 1.186276 0.334446
v -0.1984894 1.184472 0.3370627
v -0.2522977 1.188693 0.3393095
v -0.2545651 1.193893 0.4342512
v -0.2521504 1.188928 0.4345186
v -0.2542711 1.194044 0.3395047
v -0.2465903 1.18684 0.4345347
v -0.2474287 1.186166 0.3391757
v -0.2554456 1.218549 0.4314792
v -0.2543254 1.21737 0.3394927
v -0.2538083 1.225246 0.3409827
v -0.251754 1.225478 0.3356236
v -0.2521854 1.21776 0.3344074
v -0.247098 1.21758 0.3323002
v -0.2470041 1.225484 0.3332777
v -0.256297 1.225981 0.4327518
v -0.2535988 1.218123 0.4366847
v -0.2543276 1.225754 0.4378341
v -0.2492087 1.225298 0.4402694
v -0.2488011 1.217637 0.4392964
v -0.2514986 1.230039 0.3414896
v -0.2545398 1.231448 0.4336758
v -0.2493914 1.233428 0.4341706
v -0.2465096 1.231873 0.3412276
v -0.2523511 1.194206 0.439112
v -0.2469015 1.194465 0.4412924
v -0.252153 1.193851 0.334409
v -0.2470666 1.19337 0.3323002
v -0.2511635 1.190007 0.4385187
v -0.2466082 1.189136 0.4395437
v -0.2536492 1.230305 0.4375872
v -0.24943 1.231016 0.4388394
v -0.2513213 1.189556 0.335265
v -0.2472606 1.188257 0.3343153
v -0.226146 1.223778 0.4422155
v -0.2492087 1.225298 0.4402694
v -0.1984892 1.227296 0.4448148
v -0.1984892 1.232392 0.4427041
v -0.226146 1.228898 0.440109
v -0.24943 1.231016 0.4388394
v -0.06071132 1.231458 0.4392713
v -0.06468221 1.23241 0.4403208
v -0.2467014 1.230009 0.3358769
v -0.2506319 1.229243 0.3370176
vt 0.06372931 0.7725301
vt 0.03474978 0.7724091
vt 0.03437978 0.7707582
vt 0.06424095 0.7709451
vt 0.06360064 0.7741665
vt 0.03480041 0.7741654
vt 0.06375108 0.7813729
vt 0.03431723 0.7812024
vt 0.06349442 0.7840567
vt 0.06519745 0.7842076
vt 0.06548619 0.7815247
vt 0.066812 0.7844946
vt 0.0671651 0.7813647
vt 0.03447929 0.7838707
vt 0.03439631 0.7855046
vt 0.06357916 0.7856114
vt 0.03396623 0.7870948
vt 0.06410698 0.7870948
vt 0.0325855 0.7813406
vt 0.0328097 0.7840279
vt 0.0312355 0.7843882
vt 0.03091245 0.7812014
vt 0.06521104 0.7740146
vt 0.06679245 0.7733613
vt 0.03314815 0.773959
vt 0.03162141 0.7732399
vt 0.06496347 0.7727258
vt 0.06582748 0.7717594
vt 0.03310964 0.7852513
vt 0.03223382 0.7861323
vt 0.03347756 0.7726129
vt 0.03268895 0.7715985
vt 0.0228207 0.7084103
vt 0.03792045 0.708142
vt 0.03796481 0.7097926
vt 0.02278552 0.710122
vt 0.02297834 0.7066861
vt 0.03789936 0.7064902
vt 0.03832573 0.7384766
vt 0.0238251 0.7390391
vt 0.06345876 0.7377166
vt 0.063008 0.7097511
vt 0.0713954 0.7095563
vt 0.07182483 0.7384378
vt 0.07793004 0.7377329
vt 0.07802657 0.739431
vt 0.07186467 0.7401164
vt 0.0781735 0.7409884
vt 0.07193362 0.7417815
vt 0.07841887 0.7099091
vt 0.02329393 0.7037927
vt 0.03790398 0.7037491
vt 0.02435753 0.6961983
vt 0.03801762 0.6965224
vt 0.06304257 0.7040612
vt 0.06305879 0.696715
vt 0.07141519 0.703665
vt 0.0714063 0.6969379
vt 0.07763439 0.6971147
vt 0.07756694 0.6953751
vt 0.07139447 0.6952486
vt 0.0713596 0.6935827
vt 0.07760734 0.6936854
vt 0.07234252 0.6648804
vt 0.07866203 0.6648937
vt 0.07824267 0.7042562
vt 0.06390061 0.6654114
vt 0.06312183 0.6935532
vt 0.03808756 0.6932096
vt 0.03872111 0.6645352
vt 0.02452725 0.6928655
vt 0.02479801 0.6638563
vt 0.03880945 0.6628813
vt 0.0248148 0.6621892
vt 0.02450057 0.6944921
vt 0.03804031 0.6948651
vt 0.063949 0.6637573
vt 0.07869517 0.6633016
vt 0.06307275 0.6951426
vt 0.07234799 0.6632191
vt 0.03893636 0.7535278
vt 0.02493178 0.7540274
vt 0.02480744 0.7523412
vt 0.0389183 0.7518684
vt 0.0385858 0.7445831
vt 0.0242374 0.7451402
vt 0.06365325 0.7437359
vt 0.06400404 0.752359
vt 0.07202052 0.7441307
vt 0.07231002 0.7514305
vt 0.07857379 0.7506411
vt 0.07829907 0.7433752
vt 0.0384706 0.7418158
vt 0.02400564 0.7423958
vt 0.06356565 0.7410047
vt 0.03840183 0.7401448
vt 0.02389278 0.74073
vt 0.06350373 0.7393548
vt 0.07869462 0.7522901
vt 0.07238881 0.7530845
vt 0.06405888 0.7540274
vt 0.06649449 0.6309284
vt 0.03794275 0.6326715
vt 0.03783001 0.6309875
vt 0.06629009 0.6326497
vt 0.0373347 0.6292534
vt 0.06697022 0.6293212
vt 0.03811349 0.6399075
vt 0.06643984 0.6395075
vt 0.06597727 0.6417828
vt 0.06775341 0.6419892
vt 0.06814151 0.6397104
vt 0.06981974 0.6397328
vt 0.06926412 0.6424301
vt 0.03803888 0.6420698
vt 0.03633882 0.6398838
vt 0.03638572 0.6421671
vt 0.03473449 0.642337
vt 0.03466901 0.639642
vt 0.06598829 0.6433655
vt 0.03780353 0.6437727
vt 0.03722183 0.6453067
vt 0.06654995 0.6448728
vt 0.03635536 0.6325139
vt 0.03469266 0.6318462
vt 0.06794002 0.6324077
vt 0.06951425 0.6317649
vt 0.03658383 0.6311847
vt 0.03566878 0.6301455
vt 0.0365935 0.6435096
vt 0.03562605 0.6443095
vt 0.06771643 0.6311105
vt 0.06855664 0.6301455
vt 0.07136255 0.7061133
vt 0.07828819 0.7065938
vt 0.06299578 0.7066239
vt 0.06296682 0.7081792
vt 0.0713691 0.7078531
vt 0.07837678 0.7083454
vt 0.0648823 0.7853763
vt 0.06579862 0.7861725
vt 0.06826683 0.6439641
vt 0.06738684 0.6431355
vn 0.5431511 -0.6401312 -0.5433405
vn 0.5322488 -0.626413 -0.5694892
vn 0.02503478 -0.9724799 -0.2316379
vn 0.04961025 -0.97869 -0.1992607
vn 0.7810678 -0.02601794 -0.6239039
vn 0.7565053 -0.01479045 -0.6538203
vn 0.7838057 0.04195771 -0.6195871
vn 0.7576799 0.05147583 -0.650593
vn 0.7751195 0.1921242 -0.6018955
vn 0.9969786 0.02155632 0.07462554
vn 0.9936226 -0.09152417 0.06585908
vn 0.6750156 0.01489001 0.7376533
vn 0.6892138 -0.1404906 0.7108071
vn 0.7513216 0.1997531 -0.6289791
vn 0.5445094 0.7648816 -0.3441885
vn 0.5613847 0.7631726 -0.3200231
vn 0.007714551 0.9880795 0.1537508
vn 0.03343327 0.9823872 0.1838414
vn 0.08632024 0.1609894 -0.983174
vn 0.07709447 0.272638 -0.9590229
vn -0.6249842 0.2868321 -0.7260317
vn -0.626475 0.1435282 -0.7661127
vn 0.9867447 -0.1374602 0.08625291
vn 0.6825025 -0.1992719 0.7031934
vn 0.08191553 0.1130302 -0.9902091
vn -0.6277521 0.07748914 -0.7745467
vn 0.7976094 -0.6031367 0.00672558
vn 0.4967281 -0.7787064 0.383246
vn 0.05743627 0.7220432 -0.6894597
vn -0.4479261 0.7998081 -0.3995862
vn 0.07492723 -0.4141218 -0.9071323
vn -0.4462732 -0.5789579 -0.682384
vn 0.4693252 0.6147742 0.6338663
vn 0.4526654 0.5931945 0.6657434
vn 0.005342638 0.9779895 0.2085855
vn 0.03343327 0.9823872 0.1838414
vn 0.6750156 0.01489001 0.7376533
vn 0.6396088 0.004043507 0.7686899
vn -0.02191257 0.9839337 0.1771841
vn 0.007714551 0.9880795 0.1537508
vn -0.04578028 0.9794063 0.1966403
vn -0.01808065 0.9736397 0.2273737
vn -0.02887259 0.9720044 0.233182
vn -0.05385267 0.9791114 0.1960633
vn -0.0274177 0.9843872 0.1738683
vn -0.4660775 0.82609 -0.316776
vn -0.4662475 0.7892231 -0.399675
vn -0.6881215 0.3534985 -0.633662
vn -0.5984346 0.309925 -0.738798
vn -0.004632308 0.9788619 0.2044696
vn 0.6892138 -0.1404906 0.7108071
vn 0.6480653 -0.1407968 0.7484568
vn 0.6825025 -0.1992719 0.7031934
vn 0.6479384 -0.2064632 0.7331772
vn 0.622894 -0.1438439 0.7689682
vn 0.6217496 -0.21324 0.7536286
vn 0.5587218 -0.1479975 0.8160433
vn 0.5608707 -0.2060547 0.8018513
vn 0.5162728 -0.1808329 0.8371152
vn 0.4052507 -0.7779644 0.4801494
vn 0.4011201 -0.7898399 0.4639564
vn -0.01133333 -0.9923758 -0.1227269
vn -0.06613181 -0.9939541 -0.08764651
vn -0.03754595 -0.9869729 -0.1564443
vn -0.09551644 -0.988766 -0.1149707
vn 0.4897666 -0.1546293 0.8580317
vn 0.01502789 -0.9791766 -0.2024535
vn 0.04135343 -0.9844186 -0.1709088
vn 0.04542994 -0.9818404 -0.1841889
vn 0.01832327 -0.9761609 -0.2162727
vn 0.04961025 -0.97869 -0.1992607
vn 0.02503478 -0.9724799 -0.2316379
vn -0.4347978 -0.590247 -0.6801172
vn -0.4462732 -0.5789579 -0.682384
vn 0.4967281 -0.7787064 0.383246
vn 0.4776539 -0.784245 0.3959879
vn -0.4102624 -0.6078273 -0.6798755
vn -0.5375997 -0.5885438 -0.6038235
vn 0.4507311 -0.7909645 0.4137832
vn -0.4540172 -0.5923811 -0.6655472
vn -0.4347978 -0.590247 -0.6801172
vn -0.4462732 -0.5789579 -0.682384
vn -0.6277521 0.07748914 -0.7745467
vn -0.6438224 0.07575025 -0.7614162
vn -0.6477208 0.1413998 -0.7486414
vn -0.626475 0.1435282 -0.7661127
vn -0.6223399 0.1454273 -0.769119
vn -0.6181575 0.07443857 -0.7825217
vn -0.5917467 0.1558101 -0.7909229
vn -0.5914773 0.08234271 -0.8021061
vn -0.6892011 0.07193609 -0.7209904
vn -0.6991024 0.1513126 -0.6988277
vn -0.6421016 0.284805 -0.7117525
vn -0.6249842 0.2868321 -0.7260317
vn -0.6206291 0.293193 -0.7272259
vn -0.4628346 0.7956824 -0.3907348
vn -0.4479261 0.7998081 -0.3995862
vn -0.4590362 0.8001237 -0.386119
vn -0.5375997 -0.5885438 -0.6038235
vn -0.4540172 -0.5923811 -0.6655472
vn -0.4102624 -0.6078273 -0.6798755
vn -0.5473218 -0.7834226 0.294428
vn -0.7588291 -0.2240812 0.6115276
vn -0.52593 -0.7899752 0.3151776
vn -0.7854891 -0.2130761 0.5810381
vn -0.06613181 -0.9939541 -0.08764651
vn -0.09551644 -0.988766 -0.1149707
vn -0.7682959 -0.1492515 0.6224511
vn -0.793058 -0.1397695 0.5928942
vn -0.7918336 0.0128847 0.610601
vn -0.9701676 0.2424235 0.002372392
vn -0.9945985 0.0455156 -0.0932852
vn -0.6991024 0.1513126 -0.6988277
vn -0.6881215 0.3534985 -0.633662
vn -0.7689792 0.03130734 0.6385067
vn -0.165133 -0.2118133 0.9632581
vn -0.1431269 -0.2182314 0.9653444
vn 0.5118794 -0.08003237 0.8553212
vn 0.4897666 -0.1546293 0.8580317
vn -0.5746386 0.6150048 0.5399625
vn -0.541822 0.6324266 0.5535933
vn -0.004632308 0.9788619 0.2044696
vn -0.0274177 0.9843872 0.1738683
vn -0.1015431 -0.2144773 0.9714363
vn 0.5162728 -0.1808329 0.8371152
vn -0.9923313 -0.03166699 -0.1194808
vn -0.6892011 0.07193609 -0.7209904
vn -0.007657928 -0.7168144 0.6972219
vn 0.4052507 -0.7779644 0.4801494
vn -0.07737387 0.2890794 0.9541731
vn 0.4346024 0.5381453 0.7221637
vn -0.8446013 -0.5109296 -0.1599987
vn -0.5375997 -0.5885438 -0.6038235
vn 0.5491562 -0.0400416 0.8347599
vn 0.5118794 -0.08003237 0.8553212
vn 0.6106048 0.003835143 0.7919262
vn 0.4175311 0.58762 0.6930876
vn 0.3993347 0.541603 0.7397283
vn 0.4346024 0.5381453 0.7221637
vn 0.839072 0.5211166 0.1561914
vn 0.4693252 0.6147742 0.6338663
vn -0.4660775 0.82609 -0.316776
vn -0.757598 0.6420288 0.1176616
g m_onion_king_eyebrow_R_01_0
f 3/3/3 2/2/2 1/1/1
f 1/1/1 4/4/4 3/3/3
f 5/5/5 1/1/1 2/2/2
f 2/2/2 6/6/6 5/5/5
f 6/6/6 7/7/7 5/5/5
f 6/6/6 8/8/8 7/7/7
f 8/8/8 9/9/9 7/7/7
f 7/7/7 9/9/9 10/10/10
f 11/11/11 7/7/7 10/10/10
f 10/10/10 12/12/12 11/11/11
f 13/13/13 11/11/11 12/12/12
f 8/8/8 14/14/14 9/9/9
f 14/14/14 15/15/15 9/9/9
f 16/16/16 9/9/9 15/15/15
f 15/15/15 17/17/17 16/16/16
f 18/18/18 16/16/16 17/17/17
f 8/8/8 19/19/19 14/14/14
f 19/19/19 20/20/20 14/14/14
f 21/21/21 20/20/20 19/19/19
f 19/19/19 22/22/22 21/21/21
f 7/7/7 11/11/11 23/23/23
f 23/23/23 11/11/11 13/13/13
f 23/23/23 5/5/5 7/7/7
f 13/13/13 24/24/24 23/23/23
f 22/22/22 19/19/19 25/25/25
f 25/25/25 26/26/26 22/22/22
f 25/25/25 19/19/19 8/8/8
f 6/6/6 25/25/25 8/8/8
f 5/5/5 23/23/23 27/27/27
f 27/27/27 23/23/23 24/24/24
f 27/27/27 1/1/1 5/5/5
f 4/4/4 1/1/1 27/27/27
f 27/27/27 28/28/28 4/4/4
f 24/24/24 28/28/28 27/27/27
f 29/29/29 20/20/20 21/21/21
f 21/21/21 30/30/30 29/29/29
f 29/29/29 30/30/30 17/17/17
f 17/17/17 15/15/15 29/29/29
f 29/29/29 15/15/15 14/14/14
f 14/14/14 20/20/20 29/29/29
f 31/31/31 25/25/25 6/6/6
f 26/26/26 25/25/25 31/31/31
f 6/6/6 2/2/2 31/31/31
f 31/31/31 32/32/32 26/26/26
f 31/31/31 2/2/2 3/3/3
f 3/3/3 32/32/32 31/31/31
f 35/35/35 34/34/34 33/33/33
f 33/33/33 36/36/36 35/35/35
f 37/37/37 33/33/33 34/34/34
f 34/34/34 38/38/38 37/37/37
f 35/35/35 36/36/36 39/39/39
f 40/40/40 39/39/39 36/36/36
f 39/39/39 41/41/41 35/35/35
f 35/35/35 41/41/41 42/42/42
f 43/43/43 42/42/42 41/41/41
f 41/41/41 44/44/44 43/43/43
f 44/44/44 45/45/45 43/43/43
f 46/46/46 45/45/45 44/44/44
f 44/44/44 47/47/47 46/46/46
f 48/48/48 46/46/46 47/47/47
f 47/47/47 49/49/49 48/48/48
f 50/50/50 43/43/43 45/45/45
f 51/51/51 37/37/37 38/38/38
f 38/38/38 52/52/52 51/51/51
f 53/53/53 51/51/51 52/52/52
f 52/52/52 54/54/54 53/53/53
f 55/55/55 54/54/54 52/52/52
f 54/54/54 55/55/55 56/56/56
f 56/56/56 55/55/55 57/57/57
f 57/57/57 58/58/58 56/56/56
f 59/59/59 58/58/58 57/57/57
f 59/59/59 60/60/60 58/58/58
f 60/60/60 61/61/61 58/58/58
f 58/58/58 61/61/61 56/56/56
f 62/62/62 61/61/61 60/60/60
f 60/60/60 63/63/63 62/62/62
f 64/64/64 62/62/62 63/63/63
f 63/63/63 65/65/65 64/64/64
f 59/59/59 57/57/57 66/66/66
f 62/62/62 64/64/64 67/67/67
f 67/67/67 68/68/68 62/62/62
f 61/61/61 62/62/62 68/68/68
f 67/67/67 69/69/69 68/68/68
f 67/67/67 70/70/70 69/69/69
f 71/71/71 69/69/69 70/70/70
f 70/70/70 72/72/72 71/71/71
f 70/70/70 73/73/73 72/72/72
f 73/73/73 70/70/70 67/67/67
f 73/73/73 74/74/74 72/72/72
f 69/69/69 71/71/71 75/75/75
f 76/76/76 69/69/69 75/75/75
f 68/68/68 69/69/69 76/76/76
f 54/54/54 76/76/76 75/75/75
f 75/75/75 53/53/53 54/54/54
f 67/67/67 77/77/77 73/73/73
f 77/77/77 67/67/67 64/64/64
f 65/65/65 78/78/78 64/64/64
f 76/76/76 54/54/54 56/56/56
f 56/56/56 79/79/79 76/76/76
f 79/79/79 68/68/68 76/76/76
f 68/68/68 79/79/79 61/61/61
f 61/61/61 79/79/79 56/56/56
f 78/78/78 80/80/80 64/64/64
f 64/64/64 80/80/80 77/77/77
f 83/83/83 82/82/82 81/81/81
f 81/81/81 84/84/84 83/83/83
f 83/83/83 84/84/84 85/85/85
f 85/85/85 86/86/86 83/83/83
f 87/87/87 85/85/85 84/84/84
f 88/88/88 87/87/87 84/84/84
f 88/88/88 84/84/84 81/81/81
f 89/89/89 87/87/87 88/88/88
f 88/88/88 90/90/90 89/89/89
f 89/89/89 90/90/90 91/91/91
f 91/91/91 92/92/92 89/89/89
f 86/86/86 85/85/85 93/93/93
f 93/93/93 94/94/94 86/86/86
f 85/85/85 87/87/87 95/95/95
f 95/95/95 93/93/93 85/85/85
f 87/87/87 89/89/89 49/49/49
f 49/49/49 95/95/95 87/87/87
f 92/92/92 49/49/49 89/89/89
f 49/49/49 92/92/92 48/48/48
f 93/93/93 96/96/96 94/94/94
f 96/96/96 97/97/97 94/94/94
f 40/40/40 97/97/97 96/96/96
f 96/96/96 39/39/39 40/40/40
f 49/49/49 47/47/47 95/95/95
f 47/47/47 98/98/98 95/95/95
f 95/95/95 98/98/98 93/93/93
f 98/98/98 96/96/96 93/93/93
f 39/39/39 96/96/96 98/98/98
f 98/98/98 47/47/47 44/44/44
f 41/41/41 98/98/98 44/44/44
f 98/98/98 41/41/41 39/39/39
f 99/99/99 91/91/91 90/90/90
f 90/90/90 100/100/100 99/99/99
f 100/100/100 90/90/90 88/88/88
f 88/88/88 101/101/101 100/100/100
f 101/101/101 88/88/88 81/81/81
f 104/104/104 103/103/103 102/102/102
f 105/105/105 102/102/102 103/103/103
f 106/106/106 104/104/104 102/102/102
f 102/102/102 107/107/107 106/106/106
f 105/105/105 103/103/103 108/108/108
f 108/108/108 109/109/109 105/105/105
f 110/110/110 109/109/109 108/108/108
f 110/110/110 111/111/111 109/109/109
f 111/111/111 112/112/112 109/109/109
f 113/113/113 112/112/112 111/111/111
f 111/111/111 114/114/114 113/113/113
f 110/110/110 108/108/108 115/115/115
f 115/115/115 108/108/108 116/116/116
f 116/116/116 108/108/108 103/103/103
f 117/117/117 115/115/115 116/116/116
f 118/118/118 117/117/117 116/116/116
f 116/116/116 119/119/119 118/118/118
f 120/120/120 110/110/110 115/115/115
f 115/115/115 121/121/121 120/120/120
f 121/121/121 122/122/122 120/120/120
f 123/123/123 120/120/120 122/122/122
f 119/119/119 116/116/116 124/124/124
f 124/124/124 125/125/125 119/119/119
f 103/103/103 124/124/124 116/116/116
f 126/126/126 112/112/112 113/113/113
f 113/113/113 127/127/127 126/126/126
f 125/125/125 124/124/124 128/128/128
f 128/128/128 124/124/124 103/103/103
f 128/128/128 129/129/129 125/125/125
f 106/106/106 129/129/129 128/128/128
f 128/128/128 104/104/104 106/106/106
f 103/103/103 104/104/104 128/128/128
f 130/130/130 117/117/117 118/118/118
f 122/122/122 121/121/121 130/130/130
f 118/118/118 131/131/131 130/130/130
f 130/130/130 131/131/131 122/122/122
f 130/130/130 121/121/121 115/115/115
f 115/115/115 117/117/117 130/130/130
f 132/132/132 126/126/126 127/127/127
f 127/127/127 133/133/133 132/132/132
f 105/105/105 126/126/126 132/132/132
f 126/126/126 105/105/105 109/109/109
f 109/109/109 112/112/112 126/126/126
f 132/132/132 102/102/102 105/105/105
f 132/132/132 133/133/133 107/107/107
f 107/107/107 102/102/102 132/132/132
f 135/135/135 66/66/66 134/134/134
f 66/66/66 57/57/57 134/134/134
f 134/134/134 57/57/57 55/55/55
f 55/55/55 136/136/136 134/134/134
f 136/136/136 55/55/55 52/52/52
f 52/52/52 38/38/38 136/136/136
f 136/136/136 38/38/38 34/34/34
f 137/137/137 136/136/136 34/34/34
f 34/34/34 35/35/35 137/137/137
f 35/35/35 42/42/42 137/137/137
f 135/135/135 134/134/134 138/138/138
f 136/136/136 137/137/137 138/138/138
f 138/138/138 134/134/134 136/136/136
f 137/137/137 42/42/42 138/138/138
f 139/139/139 135/135/135 138/138/138
f 138/138/138 43/43/43 139/139/139
f 42/42/42 43/43/43 138/138/138
f 43/43/43 50/50/50 139/139/139
f 140/140/140 10/10/10 9/9/9
f 9/9/9 16/16/16 140/140/140
f 12/12/12 10/10/10 140/140/140
f 140/140/140 141/141/141 12/12/12
f 18/18/18 141/141/141 140/140/140
f 140/140/140 16/16/16 18/18/18
f 143/143/143 142/142/142 114/114/114
f 114/114/114 111/111/111 143/143/143
f 123/123/123 142/142/142 143/143/143
f 143/143/143 120/120/120 123/123/123
f 143/143/143 111/111/111 110/110/110
f 110/110/110 120/120/120 143/143/143
