g m_onion_king_eye_R_01
v -0.1562284 1.145007 0.4351108
v -0.1408861 1.146458 0.4363282
v -0.144206 1.135752 0.437198
v -0.1554502 1.131153 0.4371176
v -0.1727954 1.142028 0.4300331
v -0.1707036 1.127366 0.432769
v -0.1733706 1.158048 0.4229966
v -0.1555912 1.160107 0.429101
v -0.1391483 1.160526 0.4310593
v -0.1847888 1.126565 0.4240911
v -0.1879277 1.14005 0.4210362
v -0.1936659 1.128018 0.4152376
v -0.1990576 1.137361 0.4104999
v -0.1896511 1.154781 0.4139783
v -0.2016195 1.150757 0.403322
v -0.1876031 1.168745 0.405226
v -0.1724467 1.17286 0.4130457
v -0.1987572 1.163919 0.3958671
v -0.1931594 1.172789 0.3905693
v -0.1841932 1.179223 0.3950779
v -0.170064 1.183916 0.4016119
v -0.1405857 1.173015 0.4216955
v -0.1559038 1.173702 0.4193006
v -0.1548545 1.183811 0.4081044
v -0.1436996 1.180524 0.4125297
v -0.1501314 1.188457 0.3979065
v -0.1366688 1.183029 0.4071781
v -0.1662621 1.18867 0.3901236
v -0.161287 1.187335 0.3790508
v -0.1442798 1.1873 0.3880804
v -0.1301504 1.18238 0.3983116
v -0.1818307 1.1835 0.383832
v -0.1948403 1.173932 0.3813497
v -0.1926216 1.172611 0.3705744
v -0.1783396 1.181974 0.3729576
v -0.2017627 1.157897 0.3739435
v -0.2032935 1.160946 0.3849951
v -0.2038485 1.141354 0.3821143
v -0.2064621 1.146426 0.3923019
v -0.2036181 1.132252 0.4008051
v -0.2010414 1.125562 0.3924838
v -0.1928467 1.114831 0.4028766
v -0.195436 1.121274 0.410363
v -0.1791489 1.10982 0.4129819
v -0.1825904 1.116343 0.420834
v -0.162253 1.110374 0.4216804
v -0.1670771 1.116628 0.4298171
v -0.1508911 1.1213 0.4349085
v -0.1452865 1.115115 0.4280168
v -0.1372644 1.130371 0.4361912
v -0.1313994 1.12444 0.4301593
v -0.1228887 1.137784 0.4271838
v -0.1294283 1.143854 0.4337456
v -0.1268767 1.158871 0.4276381
v -0.1196565 1.15452 0.4194958
v -0.1291037 1.172548 0.4179356
v -0.1213299 1.170474 0.4096557
vt 0.0422391 0.4127023
vt 0.02771542 0.4139456
vt 0.03229022 0.4025317
vt 0.04343683 0.3977786
vt 0.05944335 0.4115195
vt 0.05936358 0.3955788
vt 0.05954159 0.4304406
vt 0.04115167 0.4304931
vt 0.02560266 0.4305584
vt 0.07530925 0.3976961
vt 0.07665934 0.4126108
vt 0.08650324 0.4023936
vt 0.0911964 0.4137807
vt 0.07793027 0.4303996
vt 0.09348136 0.4303834
vt 0.07683921 0.4482062
vt 0.05963858 0.4493731
vt 0.09135796 0.4470083
vt 0.08677051 0.4584412
vt 0.07562562 0.4631672
vt 0.05972235 0.4653742
vt 0.02789577 0.4471717
vt 0.04242835 0.448297
vt 0.04379745 0.4632482
vt 0.03260251 0.4585823
vt 0.04242028 0.4726589
vt 0.02759945 0.4638111
vt 0.05977311 0.4754189
vt 0.05980209 0.4806104
vt 0.04034592 0.477319
vt 0.023909 0.4680931
vt 0.0770985 0.4725701
vt 0.09183043 0.4636449
vt 0.09556271 0.4679096
vt 0.0792242 0.4772167
vt 0.1066096 0.4507511
vt 0.1007838 0.4485138
vt 0.1097236 0.4294668
vt 0.1036263 0.4303916
vt 0.100607 0.4123057
vt 0.1051804 0.408186
vt 0.094634 0.3927155
vt 0.09151892 0.3972198
vt 0.07855121 0.3835154
vt 0.07670208 0.3883402
vt 0.05928696 0.3807684
vt 0.05931228 0.3856235
vt 0.04194802 0.388431
vt 0.0400503 0.3836123
vt 0.02722414 0.3973846
vt 0.02406065 0.3928963
vt 0.01367445 0.4084211
vt 0.01828988 0.4125162
vt 0.01545653 0.4306175
vt 0.00934933 0.4297236
vt 0.01848554 0.4487227
vt 0.0126831 0.4509956
vn 0.4098442 0.1003813 0.9066153
vn 0.6584578 0.1195748 0.743058
vn 0.6667396 -0.1322965 0.7334548
vn 0.4864541 -0.2164923 0.8464594
vn 0.2236306 0.05205069 0.9732831
vn 0.2802772 -0.2857732 0.9163942
vn 0.1735474 0.2649096 0.9485273
vn 0.358152 0.3102759 0.8805998
vn 0.6100714 0.3538523 0.7089439
vn 0.06041618 -0.3245767 0.9439279
vn 0.03055079 -0.001586423 0.999532
vn -0.1578039 -0.3497842 0.923444
vn -0.2399514 -0.124045 0.9628272
vn -0.0188469 0.2080805 0.9779301
vn -0.3113099 0.1042228 0.944576
vn -0.06813787 0.4019788 0.9131103
vn 0.1177527 0.4565182 0.8818875
vn -0.3476799 0.3282834 0.8782646
vn -0.3594079 0.5280986 0.7693748
vn -0.167081 0.6281158 0.7599701
vn 0.02867265 0.6949042 0.7185305
vn 0.5185694 0.5558664 0.649691
vn 0.2953113 0.4964864 0.8162673
vn 0.2237302 0.7218811 0.654853
vn 0.4079086 0.7192518 0.5623943
vn 0.1504965 0.9470489 0.2836355
vn 0.4719946 0.8503672 0.2325868
vn -0.1087693 0.9297653 0.3517181
vn -0.1724302 0.9767599 0.1273102
vn 0.119646 0.98915 0.08524732
vn 0.4626178 0.8836294 0.07199863
vn -0.3601103 0.8343707 0.4173081
vn -0.6204554 0.5885408 0.5183192
vn -0.7007263 0.6094772 0.3708373
vn -0.4402874 0.8683656 0.228228
vn -0.8693181 0.1925718 0.4551944
vn -0.7445626 0.2221803 0.6294939
vn -0.8633777 -0.1924741 0.466404
vn -0.7208167 -0.09096364 0.6871309
vn -0.6042932 -0.3743226 0.7033581
vn -0.7000731 -0.498427 0.5113398
vn -0.3798515 -0.7533833 0.5367741
vn -0.3287258 -0.6455026 0.6893952
vn -0.02414202 -0.8880013 0.4592067
vn 0.01714444 -0.7570799 0.6530973
vn 0.2745802 -0.8870668 0.3711038
vn 0.2999095 -0.7359618 0.6069716
vn 0.5648026 -0.6300931 0.5328985
vn 0.5686603 -0.7541144 0.3285375
vn 0.8321363 -0.3548602 0.426173
vn 0.8572173 -0.4478271 0.2542236
vn 0.9934537 -0.04632586 0.1044203
vn 0.9429636 0.04129324 0.3303247
vn 0.8940063 0.3471766 0.2832333
vn 0.9530614 0.3023587 0.0159122
vn 0.7489558 0.6152785 0.2459626
vn 0.7817815 0.6224949 0.03630155
g m_onion_king_eye_R_01_0
f 3/3/3 2/2/2 1/1/1
f 1/1/1 4/4/4 3/3/3
f 4/4/4 1/1/1 5/5/5
f 5/5/5 6/6/6 4/4/4
f 7/7/7 5/5/5 1/1/1
f 1/1/1 8/8/8 7/7/7
f 8/8/8 1/1/1 2/2/2
f 2/2/2 9/9/9 8/8/8
f 10/10/10 6/6/6 5/5/5
f 11/11/11 10/10/10 5/5/5
f 10/10/10 11/11/11 12/12/12
f 12/12/12 11/11/11 13/13/13
f 13/13/13 11/11/11 14/14/14
f 5/5/5 7/7/7 14/14/14
f 14/14/14 11/11/11 5/5/5
f 14/14/14 15/15/15 13/13/13
f 16/16/16 14/14/14 7/7/7
f 15/15/15 14/14/14 16/16/16
f 7/7/7 17/17/17 16/16/16
f 17/17/17 7/7/7 8/8/8
f 16/16/16 18/18/18 15/15/15
f 19/19/19 18/18/18 16/16/16
f 16/16/16 20/20/20 19/19/19
f 21/21/21 20/20/20 16/16/16
f 16/16/16 17/17/17 21/21/21
f 8/8/8 9/9/9 22/22/22
f 23/23/23 8/8/8 22/22/22
f 8/8/8 23/23/23 17/17/17
f 23/23/23 24/24/24 17/17/17
f 24/24/24 21/21/21 17/17/17
f 22/22/22 25/25/25 23/23/23
f 25/25/25 24/24/24 23/23/23
f 26/26/26 24/24/24 25/25/25
f 21/21/21 24/24/24 26/26/26
f 25/25/25 27/27/27 26/26/26
f 26/26/26 28/28/28 21/21/21
f 20/20/20 21/21/21 28/28/28
f 29/29/29 28/28/28 26/26/26
f 26/26/26 30/30/30 29/29/29
f 31/31/31 30/30/30 26/26/26
f 26/26/26 27/27/27 31/31/31
f 28/28/28 32/32/32 20/20/20
f 19/19/19 20/20/20 32/32/32
f 32/32/32 33/33/33 19/19/19
f 34/34/34 33/33/33 32/32/32
f 32/32/32 35/35/35 34/34/34
f 35/35/35 32/32/32 28/28/28
f 28/28/28 29/29/29 35/35/35
f 33/33/33 34/34/34 36/36/36
f 36/36/36 37/37/37 33/33/33
f 36/36/36 38/38/38 37/37/37
f 38/38/38 39/39/39 37/37/37
f 40/40/40 39/39/39 38/38/38
f 38/38/38 41/41/41 40/40/40
f 40/40/40 41/41/41 42/42/42
f 42/42/42 43/43/43 40/40/40
f 43/43/43 42/42/42 44/44/44
f 44/44/44 45/45/45 43/43/43
f 45/45/45 44/44/44 46/46/46
f 46/46/46 47/47/47 45/45/45
f 12/12/12 43/43/43 45/45/45
f 43/43/43 12/12/12 40/40/40
f 45/45/45 10/10/10 12/12/12
f 10/10/10 45/45/45 6/6/6
f 47/47/47 6/6/6 45/45/45
f 48/48/48 47/47/47 46/46/46
f 46/46/46 49/49/49 48/48/48
f 50/50/50 48/48/48 49/49/49
f 49/49/49 51/51/51 50/50/50
f 4/4/4 6/6/6 47/47/47
f 47/47/47 48/48/48 4/4/4
f 3/3/3 4/4/4 48/48/48
f 48/48/48 50/50/50 3/3/3
f 50/50/50 51/51/51 52/52/52
f 52/52/52 53/53/53 50/50/50
f 3/3/3 50/50/50 53/53/53
f 53/53/53 2/2/2 3/3/3
f 2/2/2 53/53/53 54/54/54
f 54/54/54 9/9/9 2/2/2
f 53/53/53 55/55/55 54/54/54
f 52/52/52 55/55/55 53/53/53
f 56/56/56 54/54/54 55/55/55
f 9/9/9 54/54/54 56/56/56
f 55/55/55 57/57/57 56/56/56
f 56/56/56 22/22/22 9/9/9
f 25/25/25 22/22/22 56/56/56
f 56/56/56 27/27/27 25/25/25
f 56/56/56 57/57/57 27/27/27
f 31/31/31 27/27/27 57/57/57
f 12/12/12 13/13/13 40/40/40
f 40/40/40 13/13/13 15/15/15
f 15/15/15 39/39/39 40/40/40
f 39/39/39 15/15/15 18/18/18
f 37/37/37 39/39/39 18/18/18
f 37/37/37 18/18/18 19/19/19
f 19/19/19 33/33/33 37/37/37
