g ripple
v 0.871492 0.03912105 0.8714919
v 0.3 0.03935059 0.3
v 1.2 0.03898911 0.3
v 1.2 0.03898911 0.6
v 1.2 0.03898911 1.2
v 0.3 0.03935059 0.3
v 0.871492 0.03912105 0.8714919
v 0.8133364 0.03935059 1.2
v 0.3 0.03935059 1.2
v 1.2 0.03898911 1.2
vt 0.7949219 0.1791992
vt 5.960464E-08 0.01698303
vt 1 0.01698303
vt 1.000977 0.01698303
vt 1 0.9863281
vt 5.960464E-08 0.01698303
vt 0.7949219 0.1791992
vt 1 0.01698303
vt 1 0.01698303
vt 1 0.9863281
vn 0.0003733702 1 -0.0001101654
vn 0.0003493785 1 -9.092688E-05
vn 0.0004016454 1 0
vn 0.0004016451 1 0
vn 0.0006106102 0.9999999 -0.0002089671
vn 0.0003493785 1 -9.092688E-05
vn 0.0003733702 1 -0.0001101654
vn 0.0003843177 0.9999999 -0.000219205
vn 0.000302475 1 -0.0001725238
vn 0.0006106102 0.9999999 -0.0002089671
g ripple_0
f 3/3/3 2/2/2 1/1/1
f 4/4/4 3/3/3 1/1/1
f 4/4/4 1/1/1 5/5/5
f 8/8/8 7/7/7 6/6/6
f 9/9/9 8/8/8 6/6/6
f 8/8/8 10/10/10 7/7/7
