g ripples
v 5.212677 -5.018494E-09 17.76375
v 3.407853 -5.018494E-09 17.76375
v 3.407853 -5.018494E-09 13.24788
v 5.212677 -5.018494E-09 13.24788
v 5.812899 -5.018494E-09 7.419947
v 3.659289 -5.018494E-09 7.927082
v 7.101785 -5.018494E-09 6.742211
v 4.165781 -5.018494E-09 6.111467
v 7.566411 -3.482082E-08 5.3185
v 4.507718 -3.482082E-08 4.716388
v 6.188568 -3.482082E-08 3.447575
v 4.383745 -3.482082E-08 3.447575
v 5.13519 -3.482082E-08 1.298146
v 3.738276 -3.482082E-08 1.395047
v 5.212676 -3.482082E-08 -6.695214
v 3.407853 -3.482082E-08 -6.695214
v 5.212677 -5.018494E-09 -14.26101
v 3.407853 -5.018494E-09 -14.26101
v 5.212677 -5.018494E-09 -17.76375
v 3.407853 -5.018494E-09 -17.76375
v -8.343637 -5.018494E-09 -17.76375
v -5.855686 -5.018494E-09 -17.72593
v -6.036369 -5.018494E-09 -15.9155
v -8.205219 -5.018494E-09 -15.61161
v -8.694042 -5.018494E-09 -13.91157
v -5.764904 -5.018494E-09 -14.71165
v -5.887411 -5.018494E-09 -12.81108
v -4.318141 -5.018494E-09 -13.56712
v -6.0742 -5.018494E-09 -10.83527
v -3.407855 -5.018494E-09 -11.26506
v -5.212677 -5.018494E-09 -2.607421
v -3.407855 -5.018494E-09 -2.607421
v -5.212677 -3.482082E-08 0.8976581
v -3.407855 -3.482082E-08 0.8976581
v -5.212677 -3.482082E-08 6.816507
v -3.407855 -3.482082E-08 6.816507
v -5.212677 -3.482082E-08 12.78576
v -3.407854 -3.482082E-08 12.78576
v -5.212677 -5.018494E-09 17.76375
v -3.407854 -5.018494E-09 17.76375
vt 0 0
vt 0 1
vt 0.1270752 1
vt 0.1270752 0
vt 0.2810059 0
vt 0.2810059 1
vt 0.3212891 0
vt 0.3212891 1
vt 0.359375 0
vt 0.359375 1
vt 0.387207 0
vt 0.387207 1
vt 0.4418945 0
vt 0.4418945 1
vt 0.6884766 0
vt 0.6884766 1
vt 0.9013672 0
vt 0.9013672 1
vt 1 0
vt 1 1
vt 0 0
vt 0 1
vt 0.05096436 1
vt 0.05096436 0
vt 0.08300781 0
vt 0.08300781 1
vt 0.1173706 0
vt 0.1173706 1
vt 0.1828613 0
vt 0.1828613 1
vt 0.4265137 0
vt 0.4265137 1
vt 0.5253906 0
vt 0.5253906 1
vt 0.6918945 0
vt 0.6918945 1
vt 0.8598633 0
vt 0.8598633 1
vt 1 0
vt 1 1
vn 0 1 0
vn 0 1 0
vn 0 1 0
vn 0 1 0
vn 0 1 0
vn 0 1 0
vn 0 1 0
vn 0 1 0
vn 0 1 0
vn 0 1 0
vn 0 1 0
vn 0 1 0
vn 0 1 0
vn 0 1 0
vn 0 1 0
vn 0 1 0
vn 0 1 0
vn 0 1 0
vn 0 1 0
vn 0 1 0
vn 0 1 0
vn 0 1 0
vn 0 1 0
vn 0 1 0
vn 0 1 0
vn 0 1 0
vn 0 1 0
vn 0 1 0
vn 0 1 0
vn 0 1 0
vn 0 1 0
vn 0 1 0
vn 0 1 0
vn 0 1 0
vn 0 1 0
vn 0 1 0
vn 0 1 0
vn 0 1 0
vn 0 1 0
vn 0 1 0
g ripples_0
f 3/3/3 2/2/2 1/1/1
f 4/4/4 3/3/3 1/1/1
f 4/4/4 5/5/5 3/3/3
f 5/5/5 6/6/6 3/3/3
f 5/5/5 7/7/7 6/6/6
f 7/7/7 8/8/8 6/6/6
f 7/7/7 9/9/9 8/8/8
f 9/9/9 10/10/10 8/8/8
f 9/9/9 11/11/11 10/10/10
f 11/11/11 12/12/12 10/10/10
f 11/11/11 13/13/13 12/12/12
f 13/13/13 14/14/14 12/12/12
f 13/13/13 15/15/15 14/14/14
f 15/15/15 16/16/16 14/14/14
f 15/15/15 17/17/17 16/16/16
f 17/17/17 18/18/18 16/16/16
f 17/17/17 19/19/19 18/18/18
f 19/19/19 20/20/20 18/18/18
f 23/23/23 22/22/22 21/21/21
f 24/24/24 23/23/23 21/21/21
f 24/24/24 25/25/25 23/23/23
f 25/25/25 26/26/26 23/23/23
f 25/25/25 27/27/27 26/26/26
f 27/27/27 28/28/28 26/26/26
f 27/27/27 29/29/29 28/28/28
f 29/29/29 30/30/30 28/28/28
f 29/29/29 31/31/31 30/30/30
f 31/31/31 32/32/32 30/30/30
f 31/31/31 33/33/33 32/32/32
f 33/33/33 34/34/34 32/32/32
f 33/33/33 35/35/35 34/34/34
f 35/35/35 36/36/36 34/34/34
f 35/35/35 37/37/37 36/36/36
f 37/37/37 38/38/38 36/36/36
f 37/37/37 39/39/39 38/38/38
f 39/39/39 40/40/40 38/38/38
