g ripple
v 0.7355638 0.03935059 0.3000003
v 0.8133364 0.03935059 0
v 1.2 0.03898911 0
v 1.378841 0.03907948 0.3
v 0.6217189 0.03935059 0.6000004
v 1.364003 0.03916985 0.6000001
v 0.5740597 0.03935059 0.9000002
v 1.23106 0.03926022 0.9
v 1.2 0.03935059 1.2
v 0.8133371 0.03935059 1.2
v 0.3 0.03935059 0.3
v 0.3 0.03935059 0
v 0.8133364 0.03935059 0
v 0.7355638 0.03935059 0.3000003
v 0.3 0.03935059 0.6000001
v 0.6217189 0.03935059 0.6000004
v 0.3 0.03935059 0.9
v 0.5740597 0.03935059 0.9000002
v 0.8133371 0.03935059 1.2
v 0.3 0.03935059 1.2
vt -0.75 0.008857727
vt -1 0.008857727
vt -1 0.9863281
vt -0.75 0.9863281
vt -0.5 0.008857727
vt -0.5 0.9863281
vt -0.25 0.008857727
vt -0.25 0.9863281
vt -5.960464E-08 0.9863281
vt 0 0.008857727
vt -0.75 0.01698303
vt -1 0.01698303
vt -1 0.008857727
vt -0.75 0.008857727
vt -0.5 0.01698303
vt -0.5 0.008857727
vt -0.25 0.01698303
vt -0.25 0.008857727
vt 0 0.008857727
vt 0 0.01698303
vn 0.000255455 1 -8.393139E-05
vn 0.0003688607 1 -0.000152587
vn 0.0006142011 0.9999998 -0.0002540772
vn 0.0004227592 0.9999999 -0.0001388464
vn 0.0001585449 1 -5.599066E-05
vn 0.0002707462 1 -8.553646E-05
vn 8.129248E-05 1 -6.159319E-05
vn 0.0001556962 1 -0.0001236778
vn 8.65894E-05 1 -0.0001806661
vn 6.651779E-05 1 -0.0001387873
vn 0 1 0
vn 0 1 0
vn 0.0003688607 1 -0.000152587
vn 0.000255455 1 -8.393139E-05
vn 0 1 0
vn 0.0001585449 1 -5.599066E-05
vn 0 1 0
vn 8.129248E-05 1 -6.159319E-05
vn 6.651779E-05 1 -0.0001387873
vn 0 1 0
g ripple_0
f 3/3/3 2/2/2 1/1/1
f 4/4/4 3/3/3 1/1/1
f 4/4/4 1/1/1 5/5/5
f 6/6/6 4/4/4 5/5/5
f 6/6/6 5/5/5 7/7/7
f 8/8/8 6/6/6 7/7/7
f 8/8/8 7/7/7 9/9/9
f 7/7/7 10/10/10 9/9/9
f 13/13/13 12/12/12 11/11/11
f 14/14/14 13/13/13 11/11/11
f 14/14/14 11/11/11 15/15/15
f 16/16/16 14/14/14 15/15/15
f 16/16/16 15/15/15 17/17/17
f 18/18/18 16/16/16 17/17/17
f 18/18/18 17/17/17 19/19/19
f 17/17/17 20/20/20 19/19/19
