g glow1
v 0.2206411 -0.1824379 -0.3239021
v 0.2206411 0.1839891 -0.3239021
v -0.2210389 0.2523672 -0.3530989
v -0.2210389 -0.2508157 -0.3530989
v 0.220649 -0.2226388 -0.3072505
v -0.2210283 -0.3060205 -0.3302327
v 0.220649 -0.2392912 -0.267049
v -0.2210283 -0.3288872 -0.2750276
v 0.2206359 -0.2392912 -0.2242933
v -0.2210466 -0.3288872 -0.2163148
v 0.220649 -0.2226388 -0.1840925
v -0.2210283 -0.3060205 -0.1611103
v 0.220649 -0.1824379 -0.1674409
v -0.2210283 -0.2508157 -0.1382435
v 0.2206432 0.1839891 -0.1674409
v -0.2210362 0.2523672 -0.1382435
v -0.2210283 0.3075716 -0.3302327
v 0.220649 0.2241899 -0.3072505
v 0.220649 0.2241899 -0.1840925
v -0.2210283 0.3075716 -0.1611103
v -0.2210283 0.3304378 -0.2750276
v 0.220649 0.2408418 -0.267049
v 0.2206359 0.2408418 -0.2242933
v -0.2210466 0.3304378 -0.2163148
v -0.2210466 0.3304378 -0.2163148
v 0.2206359 0.2408418 -0.2242933
v 0.220649 -0.2226388 -0.3072505
v 0.220649 -0.2392912 -0.267049
v 0.2206359 -0.2392912 -0.2242933
v 0.220649 -0.2226388 -0.1840925
v 0.2206411 -0.1824379 -0.3239021
v 0.220649 -0.1824379 -0.1674409
v 0.2206411 0.1839891 -0.3239021
v 0.2206432 0.1839891 -0.1674409
v 0.220649 0.2241899 -0.3072505
v 0.220649 0.2241899 -0.1840925
v 0.220649 0.2408418 -0.267049
v 0.2206359 0.2408418 -0.2242933
v 0.221039 -0.1839883 -0.0781654
v 0.221039 0.1824387 -0.0781654
v -0.220641 0.2508168 -0.1073628
v -0.220641 -0.2523662 -0.1073628
v 0.2210469 -0.2241893 -0.06151379
v -0.2206303 -0.3075709 -0.08449536
v 0.2210469 -0.2408417 -0.02131238
v -0.2206303 -0.3304376 -0.02929089
v 0.2210338 -0.2408417 0.02144336
v -0.2206486 -0.3304376 0.02942188
v 0.2210469 -0.2241893 0.06164417
v -0.2206303 -0.3075709 0.08462634
v 0.2210469 -0.1839883 0.07829577
v -0.2206303 -0.2523662 0.1074932
v 0.2210411 0.1824387 0.07829577
v -0.2206382 0.2508168 0.1074932
v -0.2206303 0.3060211 -0.08449536
v 0.2210469 0.2226395 -0.06151379
v 0.2210469 0.2226395 0.06164417
v -0.2206303 0.3060211 0.08462634
v -0.2206303 0.3288873 -0.02929089
v 0.2210469 0.2392914 -0.02131238
v 0.2210338 0.2392914 0.02144336
v -0.2206486 0.3288873 0.02942188
v -0.2206486 0.3288873 0.02942188
v 0.2210338 0.2392914 0.02144336
v 0.2210469 -0.2241893 -0.06151379
v 0.2210469 -0.2408417 -0.02131238
v 0.2210338 -0.2408417 0.02144336
v 0.2210469 -0.2241893 0.06164417
v 0.221039 -0.1839883 -0.0781654
v 0.2210469 -0.1839883 0.07829577
v 0.221039 0.1824387 -0.0781654
v 0.2210411 0.1824387 0.07829577
v 0.2210469 0.2226395 -0.06151379
v 0.2210469 0.2226395 0.06164417
v 0.2210469 0.2392914 -0.02131238
v 0.2210338 0.2392914 0.02144336
v 0.2208181 -0.1831604 0.1674407
v 0.2208181 0.1832666 0.1674407
v -0.2208619 0.2516447 0.1382439
v -0.2208619 -0.2515382 0.1382439
v 0.220826 -0.2233614 0.1840923
v -0.2208512 -0.306743 0.1611101
v 0.220826 -0.2400137 0.2242937
v -0.2208512 -0.3296097 0.2163152
v 0.2208129 -0.2400137 0.2670494
v -0.2208696 -0.3296097 0.275028
v 0.220826 -0.2233614 0.3072502
v -0.2208512 -0.306743 0.3302324
v 0.220826 -0.1831604 0.3239019
v -0.2208512 -0.2515382 0.3530993
v 0.2208202 0.1832666 0.3239019
v -0.2208592 0.2516447 0.3530993
v -0.2208512 0.3068491 0.1611101
v 0.220826 0.2234674 0.1840923
v 0.220826 0.2234674 0.3072502
v -0.2208512 0.3068491 0.3302324
v -0.2208512 0.3297153 0.2163152
v 0.220826 0.2401193 0.2242937
v 0.2208129 0.2401193 0.2670494
v -0.2208696 0.3297153 0.275028
v -0.2208696 0.3297153 0.275028
v 0.2208129 0.2401193 0.2670494
v 0.220826 -0.2233614 0.1840923
v 0.220826 -0.2400137 0.2242937
v 0.2208129 -0.2400137 0.2670494
v 0.220826 -0.2233614 0.3072502
v 0.2208181 -0.1831604 0.1674407
v 0.220826 -0.1831604 0.3239019
v 0.2208181 0.1832666 0.1674407
v 0.2208202 0.1832666 0.3239019
v 0.220826 0.2234674 0.1840923
v 0.220826 0.2234674 0.3072502
v 0.220826 0.2401193 0.2242937
v 0.2208129 0.2401193 0.2670494
vt 0.5493164 1
vt 0.8344727 1
vt 0.8344727 0
vt 0.5493164 0
vt 0.5146484 1
vt 0.5146484 0
vt 0.4794922 1
vt 0.4794922 0
vt 0.4440918 1
vt 0.4440918 0
vt 0.4082031 1
vt 0.4082031 0
vt 0.3725586 1
vt 0.3725586 0
vt 0.0725708 1
vt 0.0725708 0
vt 0.8979492 0
vt 0.8979492 1
vt 0.03717041 1
vt 0.03717041 0
vt 0.9243164 0
vt 0.9243164 1
vt 0 1
vt 0 0
vt 1 0
vt 1 1
vt 0.01756287 0.03396606
vt 0.01737976 0.03363037
vt 0.0171814 0.03363037
vt 0.01698303 0.03396606
vt 0.01763916 0.034729
vt 0.01690674 0.034729
vt 0.01763916 0.04187012
vt 0.01690674 0.04187012
vt 0.01756287 0.04266357
vt 0.01698303 0.04263306
vt 0.01737976 0.04296875
vt 0.0171814 0.04296875
vt 0.5493164 1
vt 0.8344727 1
vt 0.8344727 0
vt 0.5493164 0
vt 0.5146484 1
vt 0.5146484 0
vt 0.4794922 1
vt 0.4794922 0
vt 0.4440918 1
vt 0.4440918 0
vt 0.4082031 1
vt 0.4082031 0
vt 0.3725586 1
vt 0.3725586 0
vt 0.0725708 1
vt 0.0725708 0
vt 0.8979492 0
vt 0.8979492 1
vt 0.03717041 1
vt 0.03717041 0
vt 0.9243164 0
vt 0.9243164 1
vt 0 1
vt 0 0
vt 1 0
vt 1 1
vt 0.01756287 0.03396606
vt 0.01737976 0.03363037
vt 0.0171814 0.03363037
vt 0.01698303 0.03396606
vt 0.01763916 0.034729
vt 0.01690674 0.034729
vt 0.01763916 0.04187012
vt 0.01690674 0.04187012
vt 0.01756287 0.04266357
vt 0.01698303 0.04263306
vt 0.01737976 0.04296875
vt 0.0171814 0.04296875
vt 0.5493164 1
vt 0.8344727 1
vt 0.8344727 0
vt 0.5493164 0
vt 0.5146484 1
vt 0.5146484 0
vt 0.4794922 1
vt 0.4794922 0
vt 0.4440918 1
vt 0.4440918 0
vt 0.4082031 1
vt 0.4082031 0
vt 0.3725586 1
vt 0.3725586 0
vt 0.0725708 1
vt 0.0725708 0
vt 0.8979492 0
vt 0.8979492 1
vt 0.03717041 1
vt 0.03717041 0
vt 0.9243164 0
vt 0.9243164 1
vt 0 1
vt 0 0
vt 1 0
vt 1 1
vt 0.01756287 0.03396606
vt 0.01737976 0.03363037
vt 0.0171814 0.03363037
vt 0.01698303 0.03396606
vt 0.01763916 0.034729
vt 0.01690674 0.034729
vt 0.01763916 0.04187012
vt 0.01690674 0.04187012
vt 0.01756287 0.04266357
vt 0.01698303 0.04263306
vt 0.01737976 0.04296875
vt 0.0171814 0.04296875
vn 0.07130962 -0.03498065 -0.9968407
vn 0.07130985 0.03498068 -0.9968406
vn 0.07322758 0.047651 -0.9961762
vn 0.07322721 -0.04765088 -0.9961762
vn 0.1657619 -0.6816178 -0.7126852
vn 0.1700543 -0.7134227 -0.6797864
vn 0.1983628 -0.9604579 -0.1953783
vn 0.198475 -0.9614705 -0.1902165
vn 0.1983597 -0.9604558 0.1953916
vn 0.198471 -0.9614607 0.1902696
vn 0.1657602 -0.6816037 0.7126991
vn 0.1700639 -0.7134947 0.6797085
vn 0.07131168 -0.03497765 0.9968406
vn 0.07323056 -0.04765622 0.9961758
vn 0.07131159 0.03498117 0.9968405
vn 0.07322963 0.0476547 0.9961759
vn 0.170056 0.7134266 -0.679782
vn 0.1657638 0.681622 -0.7126807
vn 0.1657596 0.6816096 0.7126936
vn 0.1700604 0.7134774 0.6797275
vn 0.1984748 0.9614707 -0.1902149
vn 0.1983627 0.9604584 -0.1953764
vn 0.1983599 0.960457 0.1953862
vn 0.1984712 0.9614617 0.1902645
vn 0.1984712 0.9614617 0.1902645
vn 0.1983599 0.960457 0.1953862
vn 1 6.844852E-07 -2.56396E-05
vn 1 6.844852E-07 -2.56396E-05
vn 1 6.844851E-07 -2.56396E-05
vn 1 6.844853E-07 -2.56396E-05
vn 1 6.844853E-07 -2.56396E-05
vn 1 6.844853E-07 -2.56396E-05
vn 1 6.844852E-07 -2.56396E-05
vn 1 6.844852E-07 -2.56396E-05
vn 1 6.844853E-07 -2.56396E-05
vn 1 6.844852E-07 -2.56396E-05
vn 1 6.844852E-07 -2.56396E-05
vn 1 6.844852E-07 -2.56396E-05
vn 0.07131182 -0.03498175 -0.9968405
vn 0.0713117 0.03498179 -0.9968405
vn 0.07322934 0.04765241 -0.996176
vn 0.07322948 -0.04765228 -0.996176
vn 0.1657627 -0.6816183 -0.7126845
vn 0.170055 -0.713423 -0.679786
vn 0.1983616 -0.960458 -0.1953793
vn 0.1984737 -0.9614705 -0.1902174
vn 0.1983598 -0.9604563 0.1953895
vn 0.1984711 -0.9614611 0.1902675
vn 0.1657622 -0.6816025 0.7126997
vn 0.170066 -0.7134937 0.6797091
vn 0.07131185 -0.03497766 0.9968406
vn 0.07323082 -0.04765623 0.9961758
vn 0.07131201 0.03498116 0.9968405
vn 0.07323017 0.04765468 0.9961759
vn 0.1700554 0.7134278 -0.6797808
vn 0.1657631 0.6816238 -0.7126791
vn 0.1657638 0.6816103 0.7126919
vn 0.1700645 0.7134782 0.6797256
vn 0.1984742 0.9614713 -0.1902129
vn 0.1983621 0.9604589 -0.1953745
vn 0.1983605 0.9604568 0.1953861
vn 0.1984717 0.9614615 0.1902645
vn 0.1984717 0.9614615 0.1902645
vn 0.1983605 0.9604568 0.1953861
vn 1 5.561458E-07 -2.563969E-05
vn 1 5.561458E-07 -2.563969E-05
vn 1 5.561458E-07 -2.563969E-05
vn 1 5.561458E-07 -2.563969E-05
vn 1 5.561458E-07 -2.563969E-05
vn 1 5.561458E-07 -2.563969E-05
vn 1 5.561458E-07 -2.563969E-05
vn 1 5.561458E-07 -2.563969E-05
vn 1 5.561458E-07 -2.563969E-05
vn 1 5.561458E-07 -2.563969E-05
vn 1 5.561457E-07 -2.563969E-05
vn 1 5.561458E-07 -2.563969E-05
vn 0.07131154 -0.03498067 -0.9968405
vn 0.0713116 0.03498071 -0.9968405
vn 0.07322922 0.04765103 -0.9961761
vn 0.07322911 -0.0476509 -0.9961761
vn 0.1657623 -0.6816173 -0.7126855
vn 0.1700546 -0.7134222 -0.6797868
vn 0.1983618 -0.9604579 -0.1953795
vn 0.1984739 -0.9614704 -0.1902177
vn 0.1983587 -0.9604563 0.1953906
vn 0.19847 -0.9614611 0.1902686
vn 0.1657583 -0.6816032 0.7127001
vn 0.1700622 -0.7134942 0.6797095
vn 0.0713123 -0.03497765 0.9968406
vn 0.07323103 -0.04765622 0.9961758
vn 0.07131252 0.03498116 0.9968405
vn 0.07323053 0.04765468 0.9961758
vn 0.1700557 0.7134265 -0.679782
vn 0.1657634 0.681622 -0.7126808
vn 0.1657607 0.6816105 0.7126924
vn 0.1700616 0.7134784 0.6797261
vn 0.1984741 0.9614714 -0.1902126
vn 0.198362 0.9604591 -0.1953741
vn 0.1983597 0.9604571 0.1953862
vn 0.198471 0.9614617 0.1902645
vn 0.198471 0.9614617 0.1902645
vn 0.1983597 0.9604571 0.1953862
vn 1 7.700521E-07 -2.563983E-05
vn 1 7.700521E-07 -2.563983E-05
vn 1 7.700523E-07 -2.563983E-05
vn 1 7.700522E-07 -2.563983E-05
vn 1 7.700521E-07 -2.563983E-05
vn 1 7.700521E-07 -2.563983E-05
vn 1 7.700521E-07 -2.563983E-05
vn 1 7.700521E-07 -2.563983E-05
vn 1 7.700521E-07 -2.563983E-05
vn 1 7.700521E-07 -2.563983E-05
vn 1 7.700521E-07 -2.563983E-05
vn 1 7.700521E-07 -2.563983E-05
g glow1_0
f 3/3/3 2/2/2 1/1/1
f 4/4/4 3/3/3 1/1/1
f 4/4/4 1/1/1 5/5/5
f 6/6/6 4/4/4 5/5/5
f 6/6/6 5/5/5 7/7/7
f 8/8/8 6/6/6 7/7/7
f 8/8/8 7/7/7 9/9/9
f 10/10/10 8/8/8 9/9/9
f 10/10/10 9/9/9 11/11/11
f 12/12/12 10/10/10 11/11/11
f 12/12/12 11/11/11 13/13/13
f 14/14/14 12/12/12 13/13/13
f 14/14/14 13/13/13 15/15/15
f 16/16/16 14/14/14 15/15/15
f 3/3/3 17/17/17 2/2/2
f 17/17/17 18/18/18 2/2/2
f 16/16/16 15/15/15 19/19/19
f 20/20/20 16/16/16 19/19/19
f 17/17/17 21/21/21 18/18/18
f 21/21/21 22/22/22 18/18/18
f 20/20/20 19/19/19 23/23/23
f 24/24/24 20/20/20 23/23/23
f 21/21/21 25/25/25 22/22/22
f 25/25/25 26/26/26 22/22/22
f 29/29/29 28/28/28 27/27/27
f 27/27/27 30/30/30 29/29/29
f 27/27/27 31/31/31 30/30/30
f 31/31/31 32/32/32 30/30/30
f 31/31/31 33/33/33 32/32/32
f 33/33/33 34/34/34 32/32/32
f 33/33/33 35/35/35 34/34/34
f 35/35/35 36/36/36 34/34/34
f 35/35/35 37/37/37 36/36/36
f 37/37/37 38/38/38 36/36/36
f 41/41/41 40/40/40 39/39/39
f 42/42/42 41/41/41 39/39/39
f 42/42/42 39/39/39 43/43/43
f 44/44/44 42/42/42 43/43/43
f 44/44/44 43/43/43 45/45/45
f 46/46/46 44/44/44 45/45/45
f 46/46/46 45/45/45 47/47/47
f 48/48/48 46/46/46 47/47/47
f 48/48/48 47/47/47 49/49/49
f 50/50/50 48/48/48 49/49/49
f 50/50/50 49/49/49 51/51/51
f 52/52/52 50/50/50 51/51/51
f 52/52/52 51/51/51 53/53/53
f 54/54/54 52/52/52 53/53/53
f 41/41/41 55/55/55 40/40/40
f 55/55/55 56/56/56 40/40/40
f 54/54/54 53/53/53 57/57/57
f 58/58/58 54/54/54 57/57/57
f 55/55/55 59/59/59 56/56/56
f 59/59/59 60/60/60 56/56/56
f 58/58/58 57/57/57 61/61/61
f 62/62/62 58/58/58 61/61/61
f 59/59/59 63/63/63 60/60/60
f 63/63/63 64/64/64 60/60/60
f 67/67/67 66/66/66 65/65/65
f 65/65/65 68/68/68 67/67/67
f 65/65/65 69/69/69 68/68/68
f 69/69/69 70/70/70 68/68/68
f 69/69/69 71/71/71 70/70/70
f 71/71/71 72/72/72 70/70/70
f 71/71/71 73/73/73 72/72/72
f 73/73/73 74/74/74 72/72/72
f 73/73/73 75/75/75 74/74/74
f 75/75/75 76/76/76 74/74/74
f 79/79/79 78/78/78 77/77/77
f 80/80/80 79/79/79 77/77/77
f 80/80/80 77/77/77 81/81/81
f 82/82/82 80/80/80 81/81/81
f 82/82/82 81/81/81 83/83/83
f 84/84/84 82/82/82 83/83/83
f 84/84/84 83/83/83 85/85/85
f 86/86/86 84/84/84 85/85/85
f 86/86/86 85/85/85 87/87/87
f 88/88/88 86/86/86 87/87/87
f 88/88/88 87/87/87 89/89/89
f 90/90/90 88/88/88 89/89/89
f 90/90/90 89/89/89 91/91/91
f 92/92/92 90/90/90 91/91/91
f 79/79/79 93/93/93 78/78/78
f 93/93/93 94/94/94 78/78/78
f 92/92/92 91/91/91 95/95/95
f 96/96/96 92/92/92 95/95/95
f 93/93/93 97/97/97 94/94/94
f 97/97/97 98/98/98 94/94/94
f 96/96/96 95/95/95 99/99/99
f 100/100/100 96/96/96 99/99/99
f 97/97/97 101/101/101 98/98/98
f 101/101/101 102/102/102 98/98/98
f 105/105/105 104/104/104 103/103/103
f 103/103/103 106/106/106 105/105/105
f 103/103/103 107/107/107 106/106/106
f 107/107/107 108/108/108 106/106/106
f 107/107/107 109/109/109 108/108/108
f 109/109/109 110/110/110 108/108/108
f 109/109/109 111/111/111 110/110/110
f 111/111/111 112/112/112 110/110/110
f 111/111/111 113/113/113 112/112/112
f 113/113/113 114/114/114 112/112/112
