g glow
v 2.077401E-05 -0.5079149 -2.741816E-08
v -0.4052838 -0.6074864 -0.03091525
v -0.4052944 -0.5441189 -0.04789492
v 1.161873E-05 -0.4623956 -0.01219729
v 3.633797E-05 -0.5412378 0.03332273
v -0.4052578 -0.6538736 0.01547544
v -0.4052838 -0.6074864 -0.03091525
v 2.077401E-05 -0.5079149 -2.741816E-08
v 4.762947E-05 -0.5534346 0.07885129
v -0.4052447 -0.6708528 0.07885129
v -0.4052578 -0.6538736 0.01547544
v 3.633797E-05 -0.5412378 0.03332273
v 1.161873E-05 -0.4623956 -0.01219729
v -0.4052944 -0.5441189 -0.04789492
v -0.4052838 0.03620407 -0.04789492
v 2.077401E-05 -0.04551926 -0.01219729
v 5.73951E-05 -0.5412378 0.1243795
v -0.4052267 -0.6538736 0.1422268
v -0.4052447 -0.6708528 0.07885129
v 4.762947E-05 -0.5534346 0.07885129
v 6.288826E-05 -0.5079149 0.1577017
v -0.4052197 -0.6074864 0.1886169
v -0.4052267 -0.6538736 0.1422268
v 5.73951E-05 -0.5412378 0.1243795
v 6.899178E-05 -0.4623956 0.1698996
v -0.4052136 -0.5441189 0.2055972
v -0.4052197 -0.6074864 0.1886169
v 6.288826E-05 -0.5079149 0.1577017
v 6.288826E-05 -0.04551926 0.1698996
v -0.4052197 0.03620407 0.2055972
v -0.4052136 -0.5441189 0.2055972
v 6.899178E-05 -0.4623956 0.1698996
v 2.077401E-05 -0.04551926 -0.01219729
v -0.4052838 0.03620407 -0.04789492
v -0.405307 0.09957153 -0.03091525
v -2.831219E-07 0 -2.741816E-08
v 3.359139E-05 0 0.1577017
v -0.4052609 0.09957153 0.1886169
v -0.4052197 0.03620407 0.2055972
v 6.288826E-05 -0.04551926 0.1698996
v -2.831219E-07 0 -2.741816E-08
v -0.405307 0.09957153 -0.03091525
v -0.4052874 0.1459581 0.01547544
v 1.741707E-05 0.0333223 0.03332273
v 1.741707E-05 0.0333223 0.03332273
v -0.4052874 0.1459581 0.01547544
v -0.4052551 0.1629378 0.07885129
v 3.96949E-05 0.04551956 0.07885129
v 3.96949E-05 0.04551956 0.07885129
v -0.4052551 0.1629378 0.07885129
v -0.4052508 0.1459581 0.1422268
v 4.335701E-05 0.0333223 0.1243795
v 4.335701E-05 0.0333223 0.1243795
v -0.4052508 0.1459581 0.1422268
v -0.4052609 0.09957153 0.1886169
v 3.359139E-05 0 0.1577017
v 3.145516E-05 -0.5079149 0.3992544
v -0.4052633 -0.5849887 0.3683392
v -0.4052737 -0.5216247 0.3513607
v 2.260506E-05 -0.4623956 0.387058
v 3.908455E-05 -0.5412378 0.4325765
v -0.4052557 -0.6313788 0.414725
v -0.4052633 -0.5849887 0.3683392
v 3.145516E-05 -0.5079149 0.3992544
v 4.457772E-05 -0.5534346 0.4781057
v -0.4052496 -0.6483568 0.4781057
v -0.4052557 -0.6313788 0.414725
v 3.908455E-05 -0.5412378 0.4325765
v 2.260506E-05 -0.4623956 0.387058
v -0.4052737 -0.5216247 0.3513607
v -0.4052633 -0.101041 0.3513607
v 3.176033E-05 -0.1602701 0.387058
v 4.976571E-05 -0.5412378 0.5236343
v -0.4052426 -0.6313788 0.5414813
v -0.4052496 -0.6483568 0.4781057
v 4.457772E-05 -0.5534346 0.4781057
v 5.251229E-05 -0.5079149 0.5569571
v -0.4052398 -0.5849887 0.5878726
v -0.4052426 -0.6313788 0.5414813
v 4.976571E-05 -0.5412378 0.5236343
v 5.281746E-05 -0.4623956 0.5691534
v -0.4052398 -0.5216247 0.6048507
v -0.4052398 -0.5849887 0.5878726
v 5.251229E-05 -0.5079149 0.5569571
v 3.176033E-05 -0.1602701 0.387058
v -0.4052633 -0.101041 0.3513607
v -0.4052603 -0.037677 0.3683392
v 3.420174E-05 -0.1147508 0.3992544
v 3.603279E-05 -0.1602701 0.5691534
v -0.4052581 -0.101041 0.6048507
v -0.4052398 -0.5216247 0.6048507
v 5.281746E-05 -0.4623956 0.5691534
v 3.420174E-05 -0.1147508 0.3992544
v -0.4052603 -0.037677 0.3683392
v -0.4052557 0.008712463 0.414725
v 3.908455E-05 -0.08142853 0.4325765
v 4.976571E-05 -0.1147508 0.5569571
v -0.4052426 -0.037677 0.5878726
v -0.4052581 -0.101041 0.6048507
v 3.603279E-05 -0.1602701 0.5691534
v 3.908455E-05 -0.08142853 0.4325765
v -0.4052557 0.008712463 0.414725
v -0.4052593 0.02569076 0.4781057
v 3.481209E-05 -0.06923141 0.4781057
v 3.481209E-05 -0.06923141 0.4781057
v -0.4052593 0.02569076 0.4781057
v -0.4052929 0.008712463 0.5414813
v 1.344979E-05 -0.08142853 0.5236343
v 1.344979E-05 -0.08142853 0.5236343
v -0.4052929 0.008712463 0.5414813
v -0.4052426 -0.037677 0.5878726
v 4.976571E-05 -0.1147508 0.5569571
v -2.530754E-05 -0.1147508 -0.3990439
v -0.4053433 -0.037677 -0.4299594
v -0.4052737 0.008712463 -0.3835678
v 2.291024E-05 -0.08142853 -0.3657205
v 3.114998E-05 -0.1602701 -0.4112406
v -0.405263 -0.101041 -0.4469379
v -0.4053433 -0.037677 -0.4299594
v -2.530754E-05 -0.1147508 -0.3990439
v 1.161873E-05 -0.4623956 -0.4112406
v -0.4052932 -0.5216247 -0.4469379
v -0.405263 -0.101041 -0.4469379
v 3.114998E-05 -0.1602701 -0.4112406
v 4.396736E-05 -0.4623956 -0.2291443
v -0.405249 -0.5216247 -0.193447
v -0.405234 -0.5849887 -0.2104263
v 4.976571E-05 -0.5079149 -0.2413416
v 5.312264E-05 -0.1602701 -0.2291443
v -0.405231 -0.101041 -0.193447
v -0.405249 -0.5216247 -0.193447
v 4.396736E-05 -0.4623956 -0.2291443
v 4.976571E-05 -0.1147508 -0.2413416
v -0.405234 -0.037677 -0.2104263
v -0.405231 -0.101041 -0.193447
v 5.312264E-05 -0.1602701 -0.2291443
v 2.291024E-05 -0.08142853 -0.3657205
v -0.4052737 0.008712463 -0.3835678
v -0.4052719 0.02569076 -0.3201929
v 2.443612E-05 -0.06923141 -0.3201929
v 2.443612E-05 -0.06923141 -0.3201929
v -0.4052719 0.02569076 -0.3201929
v -0.405234 0.008712463 -0.2568167
v 4.976571E-05 -0.08142853 -0.2746637
v 4.976571E-05 -0.08142853 -0.2746637
v -0.405234 0.008712463 -0.2568167
v -0.405234 -0.037677 -0.2104263
v 4.976571E-05 -0.1147508 -0.2413416
v 4.976571E-05 -0.5079149 -0.2413416
v -0.405234 -0.5849887 -0.2104263
v -0.4052484 -0.6313788 -0.2568167
v 4.457772E-05 -0.5412378 -0.2746637
v 4.457772E-05 -0.5412378 -0.2746637
v -0.4052484 -0.6313788 -0.2568167
v -0.4052551 -0.6483568 -0.3201929
v 3.908455E-05 -0.5534346 -0.3201929
v 3.908455E-05 -0.5534346 -0.3201929
v -0.4052551 -0.6483568 -0.3201929
v -0.40526 -0.6313788 -0.3835678
v 3.420174E-05 -0.5412378 -0.3657205
v 3.420174E-05 -0.5412378 -0.3657205
v -0.40526 -0.6313788 -0.3835678
v -0.4052627 -0.5849887 -0.4299594
v 3.145516E-05 -0.5079149 -0.3990439
v 3.145516E-05 -0.5079149 -0.3990439
v -0.4052627 -0.5849887 -0.4299594
v -0.4052932 -0.5216247 -0.4469379
v 1.161873E-05 -0.4623956 -0.4112406
v 5.73951E-05 -0.5412378 0.1243795
v 4.762947E-05 -0.5534346 0.07885129
v 3.633797E-05 -0.5412378 0.03332273
v 6.288826E-05 -0.5079149 0.1577017
v 2.077401E-05 -0.5079149 -2.741816E-08
v 6.899178E-05 -0.4623956 0.1698996
v 1.161873E-05 -0.4623956 -0.01219729
v 6.288826E-05 -0.04551926 0.1698996
v 2.077401E-05 -0.04551926 -0.01219729
v 3.359139E-05 0 0.1577017
v -2.831219E-07 0 -2.741816E-08
v 4.335701E-05 0.0333223 0.1243795
v 1.741707E-05 0.0333223 0.03332273
v 3.96949E-05 0.04551956 0.07885129
v 4.976571E-05 -0.5412378 0.5236343
v 4.457772E-05 -0.5534346 0.4781057
v 3.908455E-05 -0.5412378 0.4325765
v 5.251229E-05 -0.5079149 0.5569571
v 3.145516E-05 -0.5079149 0.3992544
v 5.281746E-05 -0.4623956 0.5691534
v 2.260506E-05 -0.4623956 0.387058
v 3.603279E-05 -0.1602701 0.5691534
v 3.176033E-05 -0.1602701 0.387058
v 4.976571E-05 -0.1147508 0.5569571
v 3.420174E-05 -0.1147508 0.3992544
v 1.344979E-05 -0.08142853 0.5236343
v 3.908455E-05 -0.08142853 0.4325765
v 3.481209E-05 -0.06923141 0.4781057
v 4.457772E-05 -0.5412378 -0.2746637
v 3.908455E-05 -0.5534346 -0.3201929
v 3.420174E-05 -0.5412378 -0.3657205
v 4.976571E-05 -0.5079149 -0.2413416
v 3.145516E-05 -0.5079149 -0.3990439
v 4.396736E-05 -0.4623956 -0.2291443
v 1.161873E-05 -0.4623956 -0.4112406
v 5.312264E-05 -0.1602701 -0.2291443
v 3.114998E-05 -0.1602701 -0.4112406
v 4.976571E-05 -0.1147508 -0.2413416
v -2.530754E-05 -0.1147508 -0.3990439
v 4.976571E-05 -0.08142853 -0.2746637
v 2.291024E-05 -0.08142853 -0.3657205
v 2.443612E-05 -0.06923141 -0.3201929
vt 0 0
vt 0 1
vt 1 1
vt 1 0
vt 0 0
vt 0 1
vt 1 1
vt 1 0
vt 0 0
vt 0 1
vt 1 1
vt 1 0
vt 0 0
vt 0 1
vt 1 1
vt 1 0
vt 0 0
vt 0 1
vt 1 1
vt 1 0
vt 0 0
vt 0 1
vt 1 1
vt 1 0
vt 0 0
vt 0 1
vt 1 1
vt 1 0
vt 0 0
vt 0 1
vt 1 1
vt 1 0
vt 0 0
vt 0 1
vt 1 1
vt 1 0
vt 0 0
vt 0 1
vt 1 1
vt 1 0
vt 0 0
vt 0 1
vt 1 1
vt 1 0
vt 0 0
vt 0 1
vt 1 1
vt 1 0
vt 0 0
vt 0 1
vt 1 1
vt 1 0
vt 0 0
vt 0 1
vt 1 1
vt 1 0
vt 0 0
vt 0 1
vt 1 1
vt 1 0
vt 0 0
vt 0 1
vt 1 1
vt 1 0
vt 0 0
vt 0 1
vt 1 1
vt 1 0
vt 0 0
vt 0 1
vt 1 1
vt 1 0
vt 0 0
vt 0 1
vt 1 1
vt 1 0
vt 0 0
vt 0 1
vt 1 1
vt 1 0
vt 0 0
vt 0 1
vt 1 1
vt 1 0
vt 0 0
vt 0 1
vt 1 1
vt 1 0
vt 0 0
vt 0 1
vt 1 1
vt 1 0
vt 0 0
vt 0 1
vt 1 1
vt 1 0
vt 0 0
vt 0 1
vt 1 1
vt 1 0
vt 0 0
vt 0 1
vt 1 1
vt 1 0
vt 0 0
vt 0 1
vt 1 1
vt 1 0
vt 0 0
vt 0 1
vt 1 1
vt 1 0
vt 0 0
vt 0 1
vt 1 1
vt 1 0
vt 0 0
vt 0 1
vt 1 1
vt 1 0
vt 0 0
vt 0 1
vt 1 1
vt 1 0
vt 0 0
vt 0 1
vt 1 1
vt 1 0
vt 0 0
vt 0 1
vt 1 1
vt 1 0
vt 0 0
vt 0 1
vt 1 1
vt 1 0
vt 0 0
vt 0 1
vt 1 1
vt 1 0
vt 0 0
vt 0 1
vt 1 1
vt 1 0
vt 0 0
vt 0 1
vt 1 1
vt 1 0
vt 0 0
vt 0 1
vt 1 1
vt 1 0
vt 0 0
vt 0 1
vt 1 1
vt 1 0
vt 0 0
vt 0 1
vt 1 1
vt 1 0
vt 0 0
vt 0 1
vt 1 1
vt 1 0
vt 0 0
vt 0 1
vt 1 1
vt 1 0
vt 1 0
vt 1 0
vt 1 0
vt 1 0
vt 1 0
vt 1 0
vt 1 0
vt 1 0
vt 1 0
vt 1 0
vt 1 0
vt 1 0
vt 1 0
vt 1 0
vt 1 0
vt 1 0
vt 1 0
vt 1 0
vt 1 0
vt 1 0
vt 1 0
vt 1 0
vt 1 0
vt 1 0
vt 1 0
vt 1 0
vt 1 0
vt 1 0
vt 1 0
vt 1 0
vt 1 0
vt 1 0
vt 1 0
vt 1 0
vt 1 0
vt 1 0
vt 1 0
vt 1 0
vt 1 0
vt 1 0
vt 1 0
vt 1 0
vn -0.1810362 0.4684131 0.864763
vn -0.1903019 0.515151 0.835706
vn -0.094172 0.03240913 0.9950283
vn -0.09196658 0.02124995 0.9955354
vn -0.2526443 0.8303875 0.496616
vn -0.2555631 0.8452068 0.4693751
vn -0.1903019 0.515151 0.835706
vn -0.1810362 0.4684131 0.864763
vn -0.2782692 0.9605032 3.215732E-05
vn -0.2782692 0.9605032 0.0001051095
vn -0.2555631 0.8452068 0.4693751
vn -0.2526443 0.8303875 0.496616
vn -0.09196658 0.02124995 0.9955354
vn -0.094172 0.03240913 0.9950283
vn -0.09417494 -0.03241997 0.9950276
vn -0.09196585 -0.02124233 0.9955356
vn -0.2526538 0.830411 -0.4965718
vn -0.2555861 0.8453 -0.4691949
vn -0.2782692 0.9605032 0.0001051095
vn -0.2782692 0.9605032 3.215732E-05
vn -0.1810452 0.4684179 -0.8647585
vn -0.1903327 0.5152667 -0.8356277
vn -0.2555861 0.8453 -0.4691949
vn -0.2526538 0.830411 -0.4965718
vn -0.0919721 0.02124584 -0.9955349
vn -0.09417965 0.03241492 -0.9950274
vn -0.1903327 0.5152667 -0.8356277
vn -0.1810452 0.4684179 -0.8647585
vn -0.09197143 -0.0212447 -0.995535
vn -0.09418259 -0.03243213 -0.9950265
vn -0.09417965 0.03241492 -0.9950274
vn -0.0919721 0.02124584 -0.9955349
vn -0.09196585 -0.02124233 0.9955356
vn -0.09417494 -0.03241997 0.9950276
vn -0.1903182 -0.5152457 0.835644
vn -0.1810378 -0.4684321 0.8647524
vn -0.1810448 -0.4684408 -0.8647462
vn -0.1903353 -0.5153075 -0.8356019
vn -0.09418259 -0.03243213 -0.9950265
vn -0.09197143 -0.0212447 -0.995535
vn -0.1810378 -0.4684321 0.8647524
vn -0.1903182 -0.5152457 0.835644
vn -0.2555543 -0.8451868 0.469416
vn -0.2526396 -0.8303872 0.4966189
vn -0.2526396 -0.8303872 0.4966189
vn -0.2555543 -0.8451868 0.469416
vn -0.2782674 -0.9605037 0.0001268233
vn -0.2782674 -0.9605037 3.909377E-05
vn -0.2782674 -0.9605037 3.909377E-05
vn -0.2782674 -0.9605037 0.0001268233
vn -0.2555736 -0.8452553 -0.469282
vn -0.2526479 -0.8304 -0.4965933
vn -0.2526479 -0.8304 -0.4965933
vn -0.2555736 -0.8452553 -0.469282
vn -0.1903353 -0.5153075 -0.8356019
vn -0.1810448 -0.4684408 -0.8647462
vn -0.1566276 0.4766448 0.8650303
vn -0.1616115 0.5112472 0.8441019
vn -0.09351271 0.04032845 0.994801
vn -0.0920761 0.03020079 0.9952939
vn -0.2090669 0.8412914 0.4985176
vn -0.2106712 0.8524838 0.4784233
vn -0.1616115 0.5112472 0.8441019
vn -0.1566276 0.4766448 0.8650303
vn -0.2280364 0.9736526 7.042211E-06
vn -0.2280363 0.9736526 4.200254E-05
vn -0.2106712 0.8524838 0.4784233
vn -0.2090669 0.8412914 0.4985176
vn -0.0920761 0.03020079 0.9952939
vn -0.09351271 0.04032845 0.994801
vn -0.09351308 -0.04032721 0.994801
vn -0.09207606 -0.03019631 0.995294
vn -0.2090653 0.8412949 -0.4985123
vn -0.2106742 0.8525189 -0.4783597
vn -0.2280363 0.9736526 4.200254E-05
vn -0.2280364 0.9736526 7.042211E-06
vn -0.156629 0.4766587 -0.8650225
vn -0.1616204 0.511315 -0.8440592
vn -0.2106742 0.8525189 -0.4783597
vn -0.2090653 0.8412949 -0.4985123
vn -0.09207598 0.03019416 -0.995294
vn -0.09351328 0.04032647 -0.994801
vn -0.1616204 0.511315 -0.8440592
vn -0.156629 0.4766587 -0.8650225
vn -0.09207606 -0.03019631 0.995294
vn -0.09351308 -0.04032721 0.994801
vn -0.1616145 -0.5112731 0.8440856
vn -0.1566271 -0.4766463 0.8650297
vn -0.09207588 -0.03020271 -0.9952938
vn -0.09351201 -0.04032727 -0.9948012
vn -0.09351328 0.04032647 -0.994801
vn -0.09207598 0.03019416 -0.995294
vn -0.1566271 -0.4766463 0.8650297
vn -0.1616145 -0.5112731 0.8440856
vn -0.2106738 -0.852504 0.4783865
vn -0.2090669 -0.8412932 0.4985146
vn -0.1566276 -0.4766539 -0.8650253
vn -0.1616296 -0.5113849 -0.844015
vn -0.09351201 -0.04032727 -0.9948012
vn -0.09207588 -0.03020271 -0.9952938
vn -0.2090669 -0.8412932 0.4985146
vn -0.2106738 -0.852504 0.4783865
vn -0.2280355 -0.9736528 -0.0001141451
vn -0.2280356 -0.9736528 -2.44024E-05
vn -0.2280356 -0.9736528 -2.44024E-05
vn -0.2280355 -0.9736528 -0.0001141451
vn -0.2106689 -0.8525314 -0.4783396
vn -0.2090595 -0.8413037 -0.4984999
vn -0.2090595 -0.8413037 -0.4984999
vn -0.2106689 -0.8525314 -0.4783396
vn -0.1616296 -0.5113849 -0.844015
vn -0.1566276 -0.4766539 -0.8650253
vn -0.1566237 -0.4766907 0.8650057
vn -0.1616137 -0.5113392 0.8440458
vn -0.2106558 -0.8524049 0.4785707
vn -0.2090598 -0.8412735 0.4985508
vn -0.09207336 -0.03018438 0.9952946
vn -0.09351774 -0.04036701 0.9947989
vn -0.1616137 -0.5113392 0.8440458
vn -0.1566237 -0.4766907 0.8650057
vn -0.09207448 0.03020548 0.9952939
vn -0.09350965 0.04032311 0.9948015
vn -0.09351774 -0.04036701 0.9947989
vn -0.09207336 -0.03018438 0.9952946
vn -0.09207736 0.03020219 -0.9952937
vn -0.09351408 0.0403306 -0.9948008
vn -0.1616199 0.5113072 -0.8440639
vn -0.1566297 0.4766596 -0.8650218
vn -0.09207752 -0.03019577 -0.9952939
vn -0.09351531 -0.04033152 -0.9948007
vn -0.09351408 0.0403306 -0.9948008
vn -0.09207736 0.03020219 -0.9952937
vn -0.156632 -0.4766638 -0.8650191
vn -0.1616235 -0.5113187 -0.8440563
vn -0.09351531 -0.04033152 -0.9948007
vn -0.09207752 -0.03019577 -0.9952939
vn -0.2090598 -0.8412735 0.4985508
vn -0.2106558 -0.8524049 0.4785707
vn -0.2280346 -0.973653 0.0001197081
vn -0.2280346 -0.973653 2.462387E-05
vn -0.2280346 -0.973653 2.462387E-05
vn -0.2280346 -0.973653 0.0001197081
vn -0.210683 -0.8525574 -0.4782872
vn -0.2090696 -0.8413001 -0.4985018
vn -0.2090696 -0.8413001 -0.4985018
vn -0.210683 -0.8525574 -0.4782872
vn -0.1616235 -0.5113187 -0.8440563
vn -0.156632 -0.4766638 -0.8650191
vn -0.1566297 0.4766596 -0.8650218
vn -0.1616199 0.5113072 -0.8440639
vn -0.2106756 0.852533 -0.4783337
vn -0.2090655 0.8413001 -0.4985036
vn -0.2090655 0.8413001 -0.4985036
vn -0.2106756 0.852533 -0.4783337
vn -0.2280352 0.9736529 3.847487E-05
vn -0.2280352 0.9736529 6.649975E-06
vn -0.2280352 0.9736529 6.649975E-06
vn -0.2280352 0.9736529 3.847487E-05
vn -0.2106693 0.8524923 0.4784091
vn -0.2090639 0.8412921 0.4985176
vn -0.2090639 0.8412921 0.4985176
vn -0.2106693 0.8524923 0.4784091
vn -0.1616086 0.5112413 0.8441061
vn -0.1566279 0.4766605 0.8650216
vn -0.1566279 0.4766605 0.8650216
vn -0.1616086 0.5112413 0.8441061
vn -0.09350965 0.04032311 0.9948015
vn -0.09207448 0.03020548 0.9952939
vn -1 -2.813163E-05 0.0002685717
vn -1 -2.813163E-05 0.0002685717
vn -1 -2.813164E-05 0.0002685718
vn -1 -2.813163E-05 0.0002685717
vn -1 -2.813163E-05 0.0002685717
vn -1 -2.813163E-05 0.0002685718
vn -1 -2.813163E-05 0.0002685717
vn -1 -2.813163E-05 0.0002685717
vn -1 -2.813163E-05 0.0002685718
vn -1 -2.813163E-05 0.0002685718
vn -1 -2.813164E-05 0.0002685717
vn -1 -2.813163E-05 0.0002685717
vn -1 -2.813164E-05 0.0002685717
vn -1 -2.813164E-05 0.0002685717
vn -1 -2.452622E-05 8.884915E-05
vn -1 -2.452622E-05 8.884914E-05
vn -1 -2.452623E-05 8.884915E-05
vn -1 -2.452623E-05 8.884915E-05
vn -1 -2.452622E-05 8.884915E-05
vn -1 -2.452622E-05 8.884915E-05
vn -1 -2.452622E-05 8.884915E-05
vn -1 -2.452622E-05 8.884916E-05
vn -1 -2.452622E-05 8.884915E-05
vn -1 -2.452622E-05 8.884915E-05
vn -1 -2.452622E-05 8.884915E-05
vn -1 -2.452623E-05 8.884916E-05
vn -1 -2.452622E-05 8.884915E-05
vn -1 -2.452622E-05 8.884915E-05
vn -1 -2.551932E-05 0.0001748908
vn -1 -2.551932E-05 0.0001748908
vn -1 -2.551932E-05 0.0001748908
vn -1 -2.551932E-05 0.0001748908
vn -1 -2.551931E-05 0.0001748908
vn -1 -2.551932E-05 0.0001748908
vn -1 -2.551931E-05 0.0001748908
vn -1 -2.551932E-05 0.0001748908
vn -1 -2.551931E-05 0.0001748908
vn -1 -2.551932E-05 0.0001748908
vn -1 -2.551931E-05 0.0001748908
vn -1 -2.551932E-05 0.0001748908
vn -1 -2.551931E-05 0.0001748908
vn -1 -2.551932E-05 0.0001748908
g glow_0
f 3/3/3 2/2/2 1/1/1
f 4/4/4 3/3/3 1/1/1
f 7/7/7 6/6/6 5/5/5
f 8/8/8 7/7/7 5/5/5
f 11/11/11 10/10/10 9/9/9
f 12/12/12 11/11/11 9/9/9
f 15/15/15 14/14/14 13/13/13
f 16/16/16 15/15/15 13/13/13
f 19/19/19 18/18/18 17/17/17
f 20/20/20 19/19/19 17/17/17
f 23/23/23 22/22/22 21/21/21
f 24/24/24 23/23/23 21/21/21
f 27/27/27 26/26/26 25/25/25
f 28/28/28 27/27/27 25/25/25
f 31/31/31 30/30/30 29/29/29
f 32/32/32 31/31/31 29/29/29
f 35/35/35 34/34/34 33/33/33
f 36/36/36 35/35/35 33/33/33
f 39/39/39 38/38/38 37/37/37
f 40/40/40 39/39/39 37/37/37
f 43/43/43 42/42/42 41/41/41
f 44/44/44 43/43/43 41/41/41
f 47/47/47 46/46/46 45/45/45
f 48/48/48 47/47/47 45/45/45
f 51/51/51 50/50/50 49/49/49
f 52/52/52 51/51/51 49/49/49
f 55/55/55 54/54/54 53/53/53
f 56/56/56 55/55/55 53/53/53
f 59/59/59 58/58/58 57/57/57
f 60/60/60 59/59/59 57/57/57
f 63/63/63 62/62/62 61/61/61
f 64/64/64 63/63/63 61/61/61
f 67/67/67 66/66/66 65/65/65
f 68/68/68 67/67/67 65/65/65
f 71/71/71 70/70/70 69/69/69
f 72/72/72 71/71/71 69/69/69
f 75/75/75 74/74/74 73/73/73
f 76/76/76 75/75/75 73/73/73
f 79/79/79 78/78/78 77/77/77
f 80/80/80 79/79/79 77/77/77
f 83/83/83 82/82/82 81/81/81
f 84/84/84 83/83/83 81/81/81
f 87/87/87 86/86/86 85/85/85
f 88/88/88 87/87/87 85/85/85
f 91/91/91 90/90/90 89/89/89
f 92/92/92 91/91/91 89/89/89
f 95/95/95 94/94/94 93/93/93
f 96/96/96 95/95/95 93/93/93
f 99/99/99 98/98/98 97/97/97
f 100/100/100 99/99/99 97/97/97
f 103/103/103 102/102/102 101/101/101
f 104/104/104 103/103/103 101/101/101
f 107/107/107 106/106/106 105/105/105
f 108/108/108 107/107/107 105/105/105
f 111/111/111 110/110/110 109/109/109
f 112/112/112 111/111/111 109/109/109
f 115/115/115 114/114/114 113/113/113
f 116/116/116 115/115/115 113/113/113
f 119/119/119 118/118/118 117/117/117
f 120/120/120 119/119/119 117/117/117
f 123/123/123 122/122/122 121/121/121
f 124/124/124 123/123/123 121/121/121
f 127/127/127 126/126/126 125/125/125
f 128/128/128 127/127/127 125/125/125
f 131/131/131 130/130/130 129/129/129
f 132/132/132 131/131/131 129/129/129
f 135/135/135 134/134/134 133/133/133
f 136/136/136 135/135/135 133/133/133
f 139/139/139 138/138/138 137/137/137
f 140/140/140 139/139/139 137/137/137
f 143/143/143 142/142/142 141/141/141
f 144/144/144 143/143/143 141/141/141
f 147/147/147 146/146/146 145/145/145
f 148/148/148 147/147/147 145/145/145
f 151/151/151 150/150/150 149/149/149
f 152/152/152 151/151/151 149/149/149
f 155/155/155 154/154/154 153/153/153
f 156/156/156 155/155/155 153/153/153
f 159/159/159 158/158/158 157/157/157
f 160/160/160 159/159/159 157/157/157
f 163/163/163 162/162/162 161/161/161
f 164/164/164 163/163/163 161/161/161
f 167/167/167 166/166/166 165/165/165
f 168/168/168 167/167/167 165/165/165
f 171/171/171 170/170/170 169/169/169
f 169/169/169 172/172/172 171/171/171
f 172/172/172 173/173/173 171/171/171
f 172/172/172 174/174/174 173/173/173
f 174/174/174 175/175/175 173/173/173
f 174/174/174 176/176/176 175/175/175
f 176/176/176 177/177/177 175/175/175
f 176/176/176 178/178/178 177/177/177
f 178/178/178 179/179/179 177/177/177
f 178/178/178 180/180/180 179/179/179
f 180/180/180 181/181/181 179/179/179
f 180/180/180 182/182/182 181/181/181
f 185/185/185 184/184/184 183/183/183
f 183/183/183 186/186/186 185/185/185
f 186/186/186 187/187/187 185/185/185
f 186/186/186 188/188/188 187/187/187
f 188/188/188 189/189/189 187/187/187
f 188/188/188 190/190/190 189/189/189
f 190/190/190 191/191/191 189/189/189
f 190/190/190 192/192/192 191/191/191
f 192/192/192 193/193/193 191/191/191
f 192/192/192 194/194/194 193/193/193
f 194/194/194 195/195/195 193/193/193
f 194/194/194 196/196/196 195/195/195
f 199/199/199 198/198/198 197/197/197
f 197/197/197 200/200/200 199/199/199
f 200/200/200 201/201/201 199/199/199
f 200/200/200 202/202/202 201/201/201
f 202/202/202 203/203/203 201/201/201
f 202/202/202 204/204/204 203/203/203
f 204/204/204 205/205/205 203/203/203
f 204/204/204 206/206/206 205/205/205
f 206/206/206 207/207/207 205/205/205
f 206/206/206 208/208/208 207/207/207
f 208/208/208 209/209/209 207/207/207
f 208/208/208 210/210/210 209/209/209
