g m_dlc07_deathscreen_spiral_01
v 0.1588184 0 0.6366609
v 0.3419534 0 0.5533479
v 0.8668307 0 0.5117592
v 0.6708577 0 0.7593039
v 1.361728 0 0.06536712
v 1.279475 0 0.4876914
v 1.627356 0 -0.5683779
v 1.72794 0 -0.03295227
v 1.745301 0 -1.145289
v 2.018389 0 -0.54518
v -0.0276137 0 0.3457143
v -0.1284991 0 0.3249873
v 0.07473923 0 0.3342513
v 0.4903806 0 0.41752
v 0.1685399 0 0.2917209
v 0.5895697 0 0.2424728
v 0.2446079 0 0.2222861
v 0.6298127 0 0.04534355
v 0.2954951 0 0.1327429
v 0.6071685 0 -0.1545742
v 0.3162223 0 0.03185768
v 0.5238556 0 -0.3377092
v 0.3047594 0 -0.07049555
v 0.3880273 0 -0.486137
v 0.2622291 0 -0.1642958
v 0.2129806 0 -0.5853266
v 0.1927945 0 -0.2403645
v 0.01585144 0 -0.625569
v 0.1032506 0 -0.2912515
v -0.1840665 0 -0.602925
v 0.002365532 0 -0.3119788
v -0.3672018 0 -0.5196122
v -0.09998745 0 -0.3005155
v -0.5156289 0 -0.3837833
v -0.193788 0 -0.2579857
v -0.6148179 0 -0.2087373
v -0.2698563 0 -0.1885503
v -0.6550609 0 -0.01160744
v -0.3207433 0 -0.0990074
v -0.6324166 0 0.1883096
v -0.3414702 0 0.001877918
v -0.5491039 0 0.3714448
v -0.3300076 0 0.104231
v -0.4132759 0 0.5198731
v -0.2874776 0 0.1980318
v -0.238229 0 0.6190615
v -0.2180423 0 0.2741002
v -0.04109878 0 0.6593044
v -0.1284991 0 0.3249873
v 0.1588184 0 0.6366609
v -0.9299294 0 0.4374724
v -1.015007 0 0.1334236
v -0.8596843 0 1.100235
v -1.153005 0 0.7854543
v -1.001965 0 -0.1820335
v -0.8920787 0 -0.4780239
v -0.6961058 0 -0.7255685
v -0.433229 0 -0.9004376
v -0.1291806 0 -0.9855159
v 0.1862783 0 -0.9724732
v 0.4822672 0 -0.8625865
v 0.7298115 0 -0.6666141
v 0.9046816 0 -0.4037364
v 0.9897594 0 -0.09968811
v 0.9767177 0 0.2157699
v 1.309449 0 -0.3617047
v 1.366238 0 -1.046516
v 1.300136 0 -1.631638
v 2.400001 0 -2.399997
v 2.400002 0 -1.196257
v 0.8895155 0 -2.400002
v 0.726469 0 -1.956619
v 0.214554 0 -2.400005
v 0.08045414 0 -2.088423
v -0.533646 0 -2.400007
v -0.5746726 0 -2.014145
v -1.281846 0 -2.400005
v -1.174781 0 -1.741057
v -2.399994 0 -2.400002
v -1.66113 0 -1.295892
v -2.399999 0 -1.03797
v -1.986111 0 -0.722225
v -2.400003 0 -0.3630091
v -2.117915 0 -0.07620969
v -2.400004 0 0.3851909
v -2.043636 0 0.5789166
v -2.400003 0 1.133391
v -1.770549 0 1.179025
v -2.399999 0 2.399997
v -1.325384 0 1.665374
v -1.01716 0 2.400002
v -0.7517172 0 1.990355
v -0.3421989 0 2.400005
v -0.1057016 0 2.122158
v 0.4060011 0 2.400007
v 0.5494245 0 2.04788
v 1.154201 0 2.400005
v 1.149533 0 1.774793
v 1.829162 0 2.400002
v 1.635881 0 1.329628
v 2.399999 0 2.399997
v 1.960863 0 0.755961
v 2.400002 0 0.9052725
v 2.092666 0 0.1099465
v 2.400004 0 0.1570727
v 2.018389 0 -0.54518
v 2.400002 0 -1.196257
v -0.9953966 0 1.454297
v -1.391486 0 1.080251
v -1.652604 0 0.6021138
v -1.753188 0 0.06668857
v -1.683395 0 -0.4736139
v -1.450053 0 -0.9659045
v -1.076007 0 -1.361994
v -0.5978703 0 -1.623111
v -0.0624448 0 -1.723696
v 0.4778581 0 -1.653902
v 0.9701484 0 -1.420561
v 1.127757 0 -0.7517191
v 0.8344364 0 -1.066499
v 0.4581988 0 -1.275231
v 0.03587509 0 -1.357484
v -0.3911969 0 -1.305205
v -0.7812109 0 -1.123513
v -1.095991 0 -0.8301926
v -1.304723 0 -0.4539554
v -1.386976 0 -0.03163109
v -1.334697 0 0.3954404
v -0.5031056 0 1.687638
v 0.03719662 0 1.757432
v -0.4834473 0 1.308967
v -0.7550597 0 0.7003497
v 0.5726213 0 1.656847
v -0.06112343 0 1.391219
v -0.5075149 0 0.8963229
v 1.050759 0 1.39573
v 0.3659482 0 1.338941
v -0.2115259 0 1.006209
v 1.424805 0 0.9996403
v 0.7559626 0 1.157249
v 0.1039322 0 1.019252
v 1.658146 0 0.50735
v 1.070742 0 0.8639284
v 0.4079804 0 0.9341732
v 1.72794 0 -0.03295227
v 1.279475 0 0.4876914
v 0.6708577 0 0.7593039
vt 2.980232E-08 0.1536865
vt 0.05737945 0.1536865
vt 0.05737948 0.3417577
vt -2.980232E-08 0.3417577
vt 0.05737954 0.5007012
vt -2.980232E-08 0.5007012
vt 0.05737954 0.6821566
vt -2.980232E-08 0.6821566
vt 0.05737951 0.8477157
vt -2.980232E-08 0.8477157
vt 0.05737969 -2.980232E-08
vt 2.980232E-08 -2.980232E-08
vt 0.1065597 -2.980232E-08
vt 0.1065595 0.1536865
vt 0.1557398 -2.980232E-08
vt 0.1557398 0.1536865
vt 0.2049197 0
vt 0.2049197 0.1536865
vt 0.2540997 0
vt 0.2540998 0.1536865
vt 0.3032797 0
vt 0.3032796 0.1536865
vt 0.3524598 0
vt 0.3524598 0.1536865
vt 0.4016398 0
vt 0.4016398 0.1536865
vt 0.4508199 0
vt 0.4508199 0.1536865
vt 0.4999999 0
vt 0.4999997 0.1536865
vt 0.5491799 0
vt 0.5491799 0.1536865
vt 0.5983599 0
vt 0.5983599 0.1536865
vt 0.64754 0
vt 0.64754 0.1536865
vt 0.69672 0
vt 0.69672 0.1536865
vt 0.7459 5.960464E-08
vt 0.7459 0.1536865
vt 0.7950801 5.960464E-08
vt 0.7950798 0.1536865
vt 0.84426 2.980232E-08
vt 0.84426 0.1536865
vt 0.8934402 2.980232E-08
vt 0.8934401 0.1536865
vt 0.9426202 2.980232E-08
vt 0.9426202 0.1536865
vt 1 2.980232E-08
vt 1 0.1536865
vt 0.6967199 0.3417577
vt 0.6475399 0.3417577
vt 0.6967199 0.5007012
vt 0.6475399 0.5007012
vt 0.5983599 0.3417577
vt 0.5491798 0.3417577
vt 0.4999998 0.3417577
vt 0.4508198 0.3417577
vt 0.4016398 0.3417577
vt 0.3524598 0.3417577
vt 0.3032796 0.3417577
vt 0.2540997 0.3417577
vt 0.2049196 0.3417577
vt 0.1557397 0.3417577
vt 0.1065596 0.3417577
vt 0.1065596 0.5007012
vt 0.1065596 0.6821566
vt 0.1065595 0.8477157
vt 0.05737951 0.9999999
vt -2.980232E-08 0.9999999
vt 0.1065595 0.9999999
vt 0.1557396 0.8477157
vt 0.1557396 0.9999999
vt 0.2049196 0.8477157
vt 0.2049196 1
vt 0.2540997 0.8477157
vt 0.2540997 1
vt 0.3032797 0.8477157
vt 0.3032796 1
vt 0.3524597 0.8477157
vt 0.3524597 1
vt 0.4016398 0.8477157
vt 0.4016397 1
vt 0.4508198 0.8477157
vt 0.4508197 1
vt 0.4999997 0.8477157
vt 0.4999997 1
vt 0.5491797 0.8477157
vt 0.5491797 1
vt 0.5983598 0.8477157
vt 0.5983598 1
vt 0.6475399 0.8477157
vt 0.6475399 1
vt 0.6967199 0.8477157
vt 0.6967199 1
vt 0.7458999 0.8477157
vt 0.7458999 1
vt 0.7950798 0.8477157
vt 0.7950798 1
vt 0.8442599 0.8477157
vt 0.8442599 1
vt 0.89344 0.8477157
vt 0.89344 1
vt 0.94262 0.8477157
vt 0.94262 1
vt 0.9999999 0.8477157
vt 0.9999999 1
vt 0.6475399 0.6821566
vt 0.5983599 0.6821566
vt 0.5491798 0.6821566
vt 0.4999998 0.6821566
vt 0.4508198 0.6821566
vt 0.4016398 0.6821566
vt 0.3524597 0.6821566
vt 0.3032797 0.6821566
vt 0.2540997 0.6821566
vt 0.2049196 0.6821566
vt 0.1557396 0.6821566
vt 0.1557397 0.5007012
vt 0.2049196 0.5007012
vt 0.2540997 0.5007012
vt 0.3032797 0.5007012
vt 0.3524597 0.5007012
vt 0.4016398 0.5007012
vt 0.4508198 0.5007012
vt 0.4999998 0.5007012
vt 0.5491798 0.5007012
vt 0.5983599 0.5007012
vt 0.6967199 0.6821566
vt 0.7458999 0.6821566
vt 0.7458999 0.5007012
vt 0.7458999 0.3417577
vt 0.7950799 0.6821566
vt 0.7950799 0.5007012
vt 0.7950799 0.3417577
vt 0.8442599 0.6821566
vt 0.8442599 0.5007012
vt 0.8442599 0.3417577
vt 0.89344 0.6821566
vt 0.8934401 0.5007012
vt 0.8934401 0.3417577
vt 0.9426201 0.6821566
vt 0.9426201 0.5007012
vt 0.9426201 0.3417577
vt 0.9999999 0.6821566
vt 0.9999999 0.5007012
vt 0.9999999 0.3417577
vn 0 1 0
vn 0 1 0
vn 0 1 0
vn 0 1 0
vn 0 1 0
vn 0 1 0
vn 0 1 0
vn 0 1 0
vn 0 1 0
vn 0 1 0
vn 0 1 0
vn 0 1 0
vn 0 1 0
vn 0 1 0
vn 0 1 0
vn 0 1 0
vn 0 1 0
vn 0 1 0
vn 0 1 0
vn 0 1 0
vn 0 1 0
vn 0 1 0
vn 0 1 0
vn 0 1 0
vn 0 1 0
vn 0 1 0
vn 0 1 0
vn 0 1 0
vn 0 1 0
vn 0 1 0
vn 0 1 0
vn 0 1 0
vn 0 1 0
vn 0 1 0
vn 0 1 0
vn 0 1 0
vn 0 1 0
vn 0 1 0
vn 0 1 0
vn 0 1 0
vn 0 1 0
vn 0 1 0
vn 0 1 0
vn 0 1 0
vn 0 1 0
vn 0 1 0
vn 0 1 0
vn 0 1 0
vn 0 1 0
vn 0 1 0
vn 0 1 0
vn 0 1 0
vn 0 1 0
vn 0 1 0
vn 0 1 0
vn 0 1 0
vn 0 1 0
vn 0 1 0
vn 0 1 0
vn 0 1 0
vn 0 1 0
vn 0 1 0
vn 0 1 0
vn 0 1 0
vn 0 1 0
vn 0 1 0
vn 0 1 0
vn 0 1 0
vn 0 1 0
vn 0 1 0
vn 0 1 0
vn 0 1 0
vn 0 1 0
vn 0 1 0
vn 0 1 0
vn 0 1 0
vn 0 1 0
vn 0 1 0
vn 0 1 0
vn 0 1 0
vn 0 1 0
vn 0 1 0
vn 0 1 0
vn 0 1 0
vn 0 1 0
vn 0 1 0
vn 0 1 0
vn 0 1 0
vn 0 1 0
vn 0 1 0
vn 0 1 0
vn 0 1 0
vn 0 1 0
vn 0 1 0
vn 0 1 0
vn 0 1 0
vn 0 1 0
vn 0 1 0
vn 0 1 0
vn 0 1 0
vn 0 1 0
vn 0 1 0
vn 0 1 0
vn 0 1 0
vn 0 1 0
vn 0 1 0
vn 0 1 0
vn 0 1 0
vn 0 1 0
vn 0 1 0
vn 0 1 0
vn 0 1 0
vn 0 1 0
vn 0 1 0
vn 0 1 0
vn 0 1 0
vn 0 1 0
vn 0 1 0
vn 0 1 0
vn 0 1 0
vn 0 1 0
vn 0 1 0
vn 0 1 0
vn 0 1 0
vn 0 1 0
vn 0 1 0
vn 0 1 0
vn 0 1 0
vn 0 1 0
vn 0 1 0
vn 0 1 0
vn 0 1 0
vn 0 1 0
vn 0 1 0
vn 0 1 0
vn 0 1 0
vn 0 1 0
vn 0 1 0
vn 0 1 0
vn 0 1 0
vn 0 1 0
vn 0 1 0
vn 0 1 0
vn 0 1 0
vn 0 1 0
vn 0 1 0
vn 0 1 0
g m_dlc07_deathscreen_spiral_01_0
f 3/3/3 2/2/2 1/1/1
f 4/4/4 3/3/3 1/1/1
f 5/5/5 3/3/3 4/4/4
f 6/6/6 5/5/5 4/4/4
f 7/7/7 5/5/5 6/6/6
f 8/8/8 7/7/7 6/6/6
f 9/9/9 7/7/7 8/8/8
f 10/10/10 9/9/9 8/8/8
f 2/2/2 11/11/11 1/1/1
f 11/11/11 12/12/12 1/1/1
f 13/13/13 11/11/11 2/2/2
f 14/14/14 13/13/13 2/2/2
f 15/15/15 13/13/13 14/14/14
f 16/16/16 15/15/15 14/14/14
f 17/17/17 15/15/15 16/16/16
f 18/18/18 17/17/17 16/16/16
f 19/19/19 17/17/17 18/18/18
f 20/20/20 19/19/19 18/18/18
f 21/21/21 19/19/19 20/20/20
f 22/22/22 21/21/21 20/20/20
f 23/23/23 21/21/21 22/22/22
f 24/24/24 23/23/23 22/22/22
f 25/25/25 23/23/23 24/24/24
f 26/26/26 25/25/25 24/24/24
f 27/27/27 25/25/25 26/26/26
f 28/28/28 27/27/27 26/26/26
f 29/29/29 27/27/27 28/28/28
f 30/30/30 29/29/29 28/28/28
f 31/31/31 29/29/29 30/30/30
f 32/32/32 31/31/31 30/30/30
f 33/33/33 31/31/31 32/32/32
f 34/34/34 33/33/33 32/32/32
f 35/35/35 33/33/33 34/34/34
f 36/36/36 35/35/35 34/34/34
f 37/37/37 35/35/35 36/36/36
f 38/38/38 37/37/37 36/36/36
f 39/39/39 37/37/37 38/38/38
f 40/40/40 39/39/39 38/38/38
f 41/41/41 39/39/39 40/40/40
f 42/42/42 41/41/41 40/40/40
f 43/43/43 41/41/41 42/42/42
f 44/44/44 43/43/43 42/42/42
f 45/45/45 43/43/43 44/44/44
f 46/46/46 45/45/45 44/44/44
f 47/47/47 45/45/45 46/46/46
f 48/48/48 47/47/47 46/46/46
f 49/49/49 47/47/47 48/48/48
f 50/50/50 49/49/49 48/48/48
f 51/51/51 38/38/38 36/36/36
f 52/52/52 51/51/51 36/36/36
f 53/53/53 51/51/51 52/52/52
f 54/54/54 53/53/53 52/52/52
f 54/54/54 52/52/52 55/55/55
f 55/55/55 52/52/52 34/34/34
f 55/55/55 34/34/34 32/32/32
f 56/56/56 55/55/55 32/32/32
f 56/56/56 32/32/32 30/30/30
f 57/57/57 56/56/56 30/30/30
f 57/57/57 30/30/30 28/28/28
f 58/58/58 57/57/57 28/28/28
f 58/58/58 28/28/28 26/26/26
f 59/59/59 58/58/58 26/26/26
f 59/59/59 26/26/26 24/24/24
f 60/60/60 59/59/59 24/24/24
f 60/60/60 24/24/24 22/22/22
f 61/61/61 60/60/60 22/22/22
f 61/61/61 22/22/22 20/20/20
f 62/62/62 61/61/61 20/20/20
f 62/62/62 20/20/20 18/18/18
f 63/63/63 62/62/62 18/18/18
f 63/63/63 18/18/18 16/16/16
f 64/64/64 63/63/63 16/16/16
f 64/64/64 16/16/16 14/14/14
f 65/65/65 64/64/64 14/14/14
f 65/65/65 14/14/14 2/2/2
f 3/3/3 65/65/65 2/2/2
f 66/66/66 65/65/65 3/3/3
f 5/5/5 66/66/66 3/3/3
f 67/67/67 66/66/66 5/5/5
f 7/7/7 67/67/67 5/5/5
f 68/68/68 67/67/67 7/7/7
f 9/9/9 68/68/68 7/7/7
f 68/68/68 9/9/9 69/69/69
f 69/69/69 9/9/9 70/70/70
f 9/9/9 10/10/10 70/70/70
f 71/71/71 68/68/68 69/69/69
f 72/72/72 68/68/68 71/71/71
f 68/68/68 72/72/72 67/67/67
f 73/73/73 72/72/72 71/71/71
f 74/74/74 72/72/72 73/73/73
f 75/75/75 74/74/74 73/73/73
f 76/76/76 74/74/74 75/75/75
f 77/77/77 76/76/76 75/75/75
f 78/78/78 76/76/76 77/77/77
f 79/79/79 78/78/78 77/77/77
f 80/80/80 78/78/78 79/79/79
f 81/81/81 80/80/80 79/79/79
f 82/82/82 80/80/80 81/81/81
f 83/83/83 82/82/82 81/81/81
f 84/84/84 82/82/82 83/83/83
f 85/85/85 84/84/84 83/83/83
f 86/86/86 84/84/84 85/85/85
f 87/87/87 86/86/86 85/85/85
f 88/88/88 86/86/86 87/87/87
f 89/89/89 88/88/88 87/87/87
f 90/90/90 88/88/88 89/89/89
f 91/91/91 90/90/90 89/89/89
f 92/92/92 90/90/90 91/91/91
f 93/93/93 92/92/92 91/91/91
f 94/94/94 92/92/92 93/93/93
f 95/95/95 94/94/94 93/93/93
f 96/96/96 94/94/94 95/95/95
f 97/97/97 96/96/96 95/95/95
f 98/98/98 96/96/96 97/97/97
f 99/99/99 98/98/98 97/97/97
f 100/100/100 98/98/98 99/99/99
f 101/101/101 100/100/100 99/99/99
f 102/102/102 100/100/100 101/101/101
f 103/103/103 102/102/102 101/101/101
f 104/104/104 102/102/102 103/103/103
f 105/105/105 104/104/104 103/103/103
f 106/106/106 104/104/104 105/105/105
f 107/107/107 106/106/106 105/105/105
f 92/92/92 94/94/94 108/108/108
f 92/92/92 108/108/108 109/109/109
f 90/90/90 92/92/92 109/109/109
f 90/90/90 109/109/109 110/110/110
f 88/88/88 90/90/90 110/110/110
f 88/88/88 110/110/110 111/111/111
f 86/86/86 88/88/88 111/111/111
f 86/86/86 111/111/111 112/112/112
f 84/84/84 86/86/86 112/112/112
f 84/84/84 112/112/112 113/113/113
f 82/82/82 84/84/84 113/113/113
f 82/82/82 113/113/113 114/114/114
f 80/80/80 82/82/82 114/114/114
f 80/80/80 114/114/114 115/115/115
f 78/78/78 80/80/80 115/115/115
f 78/78/78 115/115/115 116/116/116
f 76/76/76 78/78/78 116/116/116
f 76/76/76 116/116/116 117/117/117
f 74/74/74 76/76/76 117/117/117
f 74/74/74 117/117/117 118/118/118
f 72/72/72 74/74/74 118/118/118
f 72/72/72 118/118/118 67/67/67
f 67/67/67 118/118/118 66/66/66
f 118/118/118 119/119/119 66/66/66
f 118/118/118 117/117/117 119/119/119
f 66/66/66 119/119/119 65/65/65
f 119/119/119 64/64/64 65/65/65
f 117/117/117 120/120/120 119/119/119
f 119/119/119 120/120/120 64/64/64
f 117/117/117 116/116/116 120/120/120
f 120/120/120 63/63/63 64/64/64
f 116/116/116 121/121/121 120/120/120
f 120/120/120 121/121/121 63/63/63
f 116/116/116 115/115/115 121/121/121
f 121/121/121 62/62/62 63/63/63
f 121/121/121 122/122/122 62/62/62
f 115/115/115 122/122/122 121/121/121
f 122/122/122 61/61/61 62/62/62
f 115/115/115 114/114/114 122/122/122
f 114/114/114 123/123/123 122/122/122
f 122/122/122 123/123/123 61/61/61
f 123/123/123 60/60/60 61/61/61
f 114/114/114 113/113/113 123/123/123
f 113/113/113 124/124/124 123/123/123
f 123/123/123 124/124/124 60/60/60
f 124/124/124 59/59/59 60/60/60
f 113/113/113 112/112/112 124/124/124
f 112/112/112 125/125/125 124/124/124
f 124/124/124 125/125/125 59/59/59
f 125/125/125 58/58/58 59/59/59
f 112/112/112 111/111/111 125/125/125
f 111/111/111 126/126/126 125/125/125
f 125/125/125 126/126/126 58/58/58
f 126/126/126 57/57/57 58/58/58
f 111/111/111 110/110/110 126/126/126
f 110/110/110 127/127/127 126/126/126
f 126/126/126 127/127/127 57/57/57
f 127/127/127 56/56/56 57/57/57
f 110/110/110 109/109/109 127/127/127
f 109/109/109 128/128/128 127/127/127
f 127/127/127 128/128/128 56/56/56
f 128/128/128 55/55/55 56/56/56
f 109/109/109 108/108/108 128/128/128
f 108/108/108 54/54/54 128/128/128
f 128/128/128 54/54/54 55/55/55
f 108/108/108 129/129/129 54/54/54
f 94/94/94 129/129/129 108/108/108
f 129/129/129 53/53/53 54/54/54
f 94/94/94 96/96/96 129/129/129
f 96/96/96 130/130/130 129/129/129
f 129/129/129 130/130/130 53/53/53
f 130/130/130 131/131/131 53/53/53
f 53/53/53 131/131/131 51/51/51
f 131/131/131 132/132/132 51/51/51
f 51/51/51 132/132/132 38/38/38
f 132/132/132 40/40/40 38/38/38
f 96/96/96 98/98/98 130/130/130
f 98/98/98 133/133/133 130/130/130
f 130/130/130 133/133/133 131/131/131
f 133/133/133 134/134/134 131/131/131
f 131/131/131 134/134/134 132/132/132
f 132/132/132 135/135/135 40/40/40
f 134/134/134 135/135/135 132/132/132
f 135/135/135 42/42/42 40/40/40
f 98/98/98 100/100/100 133/133/133
f 100/100/100 136/136/136 133/133/133
f 133/133/133 136/136/136 134/134/134
f 136/136/136 137/137/137 134/134/134
f 134/134/134 137/137/137 135/135/135
f 135/135/135 138/138/138 42/42/42
f 137/137/137 138/138/138 135/135/135
f 138/138/138 44/44/44 42/42/42
f 100/100/100 102/102/102 136/136/136
f 102/102/102 139/139/139 136/136/136
f 136/136/136 139/139/139 137/137/137
f 139/139/139 140/140/140 137/137/137
f 137/137/137 140/140/140 138/138/138
f 138/138/138 141/141/141 44/44/44
f 140/140/140 141/141/141 138/138/138
f 141/141/141 46/46/46 44/44/44
f 102/102/102 104/104/104 139/139/139
f 104/104/104 142/142/142 139/139/139
f 139/139/139 142/142/142 140/140/140
f 142/142/142 143/143/143 140/140/140
f 140/140/140 143/143/143 141/141/141
f 141/141/141 144/144/144 46/46/46
f 143/143/143 144/144/144 141/141/141
f 144/144/144 48/48/48 46/46/46
f 142/142/142 104/104/104 106/106/106
f 145/145/145 142/142/142 106/106/106
f 143/143/143 142/142/142 145/145/145
f 146/146/146 143/143/143 145/145/145
f 144/144/144 143/143/143 146/146/146
f 147/147/147 144/144/144 146/146/146
f 48/48/48 144/144/144 147/147/147
f 50/50/50 48/48/48 147/147/147
f 52/52/52 36/36/36 34/34/34
