g m_dlc07_2_1_ripples_01
v 4.36239 -0.07499859 -10.92436
v 3.11097 -0.07350994 -10.86022
v 4.199265 -0.07499889 -12.07734
v 5.541393 -0.07499889 -12.07734
v 2.60153 -0.07350994 -10.92632
v 3.79773 -0.07499889 -12.13469
v 2.168832 -0.07350994 -11.12647
v 3.457323 -0.07499889 -12.29801
v 1.87931 -0.07350994 -11.42967
v 3.229871 -0.07499859 -12.54242
v 1.777896 -0.07350994 -11.7885
v 3.150001 -0.07499859 -12.83073
v 6.45 -0.07499889 -11.2494
v 6.45 -0.07499889 -5.165833
v 5.299598 -0.07499889 -6.173545
v 5.281954 -0.07499859 -10.1064
v 5.211975 -0.07499859 -10.42187
v 6.380836 -0.07499889 -11.56624
v 5.012256 -0.07499859 -10.68859
v 6.183876 -0.07499889 -11.83484
v 4.713706 -0.07499859 -10.86519
v 5.889102 -0.07499889 -12.01432
v 4.36239 -0.07499859 -10.92436
v 5.541393 -0.07499889 -12.07734
v 6.377434 -0.07499889 -4.860393
v 5.226741 -0.07499889 -5.868296
v 6.170785 -0.07499889 -4.601455
v 5.01987 -0.07499889 -5.609594
v 5.861512 -0.07499889 -4.428436
v 4.710437 -0.07499889 -5.436754
v 5.496701 -0.07499889 -4.367681
v 4.345502 -0.07499889 -5.376056
v -6.449999 -0.07499889 4.203951
v -6.449999 -0.07499889 -0.9940906
v -5.127658 -0.07499889 0.1665812
v -5.236252 -0.0749992 3.009992
v -5.166966 -0.0749992 3.328301
v -6.381476 -0.07499889 4.523286
v -4.970011 -0.0749992 3.597657
v -6.186334 -0.07499889 4.794004
v -4.675627 -0.0749992 3.776673
v -5.894289 -0.07499889 4.974894
v -4.328948 -0.0749992 3.837873
v -5.549796 -0.07499889 5.038413
v -6.378405 -0.07499889 -1.302499
v -5.05603 -0.07499889 -0.1417079
v -6.174522 -0.07499889 -1.563955
v -4.851841 -0.07499889 -0.4029917
v -5.869392 -0.07499889 -1.738655
v -4.546253 -0.07499889 -0.5773764
v -5.509467 -0.07499889 -1.800001
v -4.18587 -0.07499889 -0.6382546
v -4.328948 -0.0749992 3.837873
v -2.777701 -0.07566082 3.75592
v -3.791142 -0.07499889 5.038413
v -5.549796 -0.07499889 5.038413
v -2.234327 -0.07566082 3.843935
v -3.430981 -0.07499889 5.09973
v -1.772833 -0.07566082 4.102044
v -3.125653 -0.07499889 5.274347
v -1.463812 -0.07566097 4.490711
v -2.921638 -0.0749992 5.535678
v -1.354622 -0.07566097 4.950292
v -2.849999 -0.0749992 5.84394
v 1.705168 -0.07499691 -19.22503
v 3.150001 -0.07499691 -19.22503
v 3.150001 -0.07499859 -12.83073
v 1.777896 -0.07350994 -11.7885
v -1.098963 -0.07499965 7.193905
v -2.849999 -0.07499965 8.546789
v -1.167969 -0.07499965 6.941753
v -2.849999 -0.0749995 6.953468
v -0.9222726 -0.07499981 7.290919
v -0.5083876 -0.07500011 7.313008
v -0.2972268 -0.07500011 7.379687
v -0.1426869 -0.07500011 7.560911
v -0.08598042 -0.07500011 7.808296
v -0.08466816 -0.07500011 9.30838
v -0.1423016 -0.07500011 9.550312
v -0.3001051 -0.07500011 9.727202
v -0.5155363 -0.07500011 9.79141
v 1.558617 -0.07500026 9.802785
v 3.150001 -0.07500011 8.565242
v 3.150001 -0.07500026 9.821019
v 0.9166299 -0.07500026 9.800419
v 0.7026091 -0.07500026 9.734137
v 0.5461656 -0.07500026 9.554546
v 0.4890413 -0.07500026 9.309609
v 0.490056 -0.07500011 7.815857
v 0.5470695 -0.07500011 7.56712
v 0.7024708 -0.07500011 7.385228
v 0.9145128 -0.07500011 7.319016
v 1.364184 -0.07500011 7.320125
v 1.500238 -0.07500011 7.271732
v 1.56326 -0.07500011 7.111892
v 3.150001 -0.07499996 7.084573
v 3.150001 -0.07499889 -3.64606
v 3.150001 -0.07499996 7.084573
v 1.56326 -0.07500011 7.111892
v 1.506105 -0.07442074 -3.725304
v -2.849999 -0.07499859 -2.575454
v -2.849999 -0.07499691 -19.22503
v -1.452064 -0.07499691 -19.22503
v -1.277012 -0.07350475 -1.565081
v -1.150772 -0.07500073 15.90001
v -2.849999 -0.07500103 15.90001
v -2.849999 -0.07499996 9.812815
v -1.162582 -0.07500011 9.789027
v -1.162582 -0.07500011 9.789027
v -2.849999 -0.07499965 8.546789
v -0.5155363 -0.07500011 9.79141
v 2.536457 -0.07442012 -5.300145
v 4.345502 -0.07499889 -5.376056
v 5.496701 -0.07499889 -4.367681
v 4.304884 -0.07499889 -4.367681
v 3.862929 -0.07499889 -4.312751
v 2.063815 -0.07442012 -5.066683
v 3.488259 -0.07499889 -4.156322
v 1.763297 -0.07442012 -4.687562
v 3.237911 -0.07499889 -3.922211
v 1.579482 -0.07442074 -4.264665
v 3.150001 -0.07499889 -3.64606
v 1.506105 -0.07442074 -3.725304
v -2.674767 -0.07350521 -0.4780632
v -4.18587 -0.07499889 -0.6382546
v -5.509467 -0.07499889 -1.800001
v -3.846453 -0.07499889 -1.800001
v -3.465126 -0.07499889 -1.859028
v -2.139548 -0.07350521 -0.560258
v -3.141853 -0.07499889 -2.027126
v -1.68583 -0.07350521 -0.7958426
v -2.925849 -0.07499859 -2.278701
v -1.382874 -0.07350475 -1.148804
v -2.849999 -0.07499859 -2.575454
v -1.277012 -0.07350475 -1.565081
v -2.849999 -0.0749995 6.953468
v -2.849999 -0.0749992 5.84394
v -1.354622 -0.07566097 4.950292
v -1.167969 -0.07499965 6.941753
v -2.849999 -0.07499996 9.812815
v -2.849999 -0.07499965 8.546789
v -1.162582 -0.07500011 9.789027
v 3.150001 -0.07500103 15.90001
v 1.548095 -0.07500103 15.90001
v 1.558617 -0.07500026 9.802785
v 3.150001 -0.07500026 9.821019
vt -1.288086 1
vt -0.2902832 1
vt -0.3408203 0
vt -1.345703 0
vt -0.01593018 1
vt -0.03114319 0
vt 0.2556152 1
vt 0.2498779 0
vt 0.5068359 1
vt 0.4594727 0
vt 0.9013672 1
vt 0.9013672 0
vt 1.078125 0
vt -1.549805 0
vt -1.226563 1
vt 0.6787109 1
vt 1.143555 1
vt 1.379883 0
vt 1.53418 1
vt 1.632813 0
vt 1.961914 1
vt 1.972656 0
vt 2.287109 1
vt 2.273438 0
vt -1.841797 0
vt -1.678711 1
vt -2.091797 0
vt -2.064453 1
vt -2.380859 0
vt -2.447266 1
vt -2.837891 0
vt -2.837891 1
vt -1.09375 0
vt -3.894531 0
vt -3.269531 1
vt -1.77832 1
vt -1.541992 1
vt -0.855957 0
vt -1.341797 1
vt -0.6552734 0
vt -1.208984 1
vt -0.5214844 0
vt -1.023438 1
vt -0.3337402 0
vt -4.125 0
vt -3.498047 1
vt -4.320313 0
vt -3.693359 1
vt -4.449219 0
vt -3.824219 1
vt -4.621094 0
vt -3.996094 1
vt 2.130859 1
vt 3.484375 1
vt 2.828125 0
vt 1.543945 0
vt 3.757813 1
vt 3.099609 0
vt 4.007813 1
vt 3.347656 0
vt 4.199219 1
vt 3.535156 0
vt 4.4375 1
vt 3.775391 0
vt -3.025391 1
vt -3.025391 0
vt 1.738281 0
vt 2.337891 1
vt -1.236328 1.000977
vt 0.5966797 -0.0001597404
vt -1.487305 1.000977
vt -1.473633 0.001394272
vt -1.03418 1.000977
vt -0.7700195 1.000977
vt -0.5541992 1.000977
vt -0.3649902 1.000977
vt -0.15625 1
vt 1.586914 0.9990234
vt 1.766602 0.9990234
vt 1.996094 0.9985352
vt 2.214844 0.9985352
vt -1.75 1
vt 0.09820557 -3.576279E-07
vt -1.75 1.192093E-07
vt -1.43457 1
vt -1.1875 1
vt -0.980957 1
vt -0.6987305 1
vt 0.5844727 1
vt 0.871582 1
vt 1.081055 1
vt 1.338867 1
vt 1.669922 1
vt 2.052734 1
vt 2.267578 1
vt 2.267578 3.576279E-07
vt 7.675781 0
vt -0.3193359 0
vt -0.3398438 1
vt 7.679688 1
vt 4.859375 0
vt -5.367188 0
vt -5.363281 1
vt 4.859375 1
vt -4.917969 1
vt -4.929688 0
vt -0.3964844 0
vt -0.3659668 1
vt 2.210938 0.9985352
vt 0.5966797 -0.0001597404
vt 2.214844 0.9985352
vt -0.2675781 1
vt 1.025391 1
vt 1.027344 0
vt -0.02792358 0
vt -0.4135742 0
vt -0.6533203 1
vt -0.7290039 0
vt -0.9692383 1
vt -1.024414 0
vt -1.235352 1
vt -1.557617 0
vt -1.557617 1
vt 0.3540039 1
vt 1.416016 1
vt 1.639648 0
vt 0.6381836 0
vt 0.3828125 0
vt 0.09851074 1
vt 0.114502 0
vt -0.1699219 1
vt -0.1258545 0
vt -0.4104004 1
vt -0.3903809 0
vt -0.6748047 1
vt 1.870117 0
vt 3.988281 0
vt 3.988281 1
vt 1.754883 1
vt 2.242188 -0.001394272
vt 0.5966797 -0.0001597404
vt 2.210938 0.9985352
vt -6.886719 0
vt -6.886719 1
vt -2.34375 1
vt -2.357422 0
vn 0.0005093355 0.9999999 -7.232104E-05
vn 0.00034578 0.9999998 -0.0006181739
vn 0.0005080182 0.9999999 -0.0002330179
vn 0.0003021328 1 -4.298949E-05
vn 0.0003196459 0.9999995 -0.000914993
vn 0.0002417943 0.9999995 -0.0009936093
vn 0.0005228366 0.9999996 -0.0006958608
vn 0.0004926581 0.9999996 -0.0007296176
vn 0.0007273764 0.9999996 -0.0004559184
vn 0.0007581153 0.9999996 -0.0004183075
vn 0.0005298551 0.9999999 -0.0001244982
vn 0.0004994859 0.9999999 -0.0001140007
vn 1.47365E-07 1 0
vn 1.133657E-07 1 0
vn 1.289324E-07 1 0
vn 1.360362E-07 1 0
vn 1.862926E-07 1 0
vn 1.721268E-07 1 0
vn 1.238449E-07 1 -1.396575E-07
vn 1.258323E-07 1 -1.375084E-07
vn 0 1 -2.013353E-07
vn 0 1 -1.848798E-07
vn 0.0005093355 0.9999999 -7.232104E-05
vn 0.0003021328 1 -4.298949E-05
vn 0 1 0
vn 0 1 0
vn 0 1 0
vn 0 1 0
vn 0 1 0
vn 0 1 0
vn 0.000101137 1 4.073228E-06
vn 0.0001743077 1 7.020129E-06
vn 1.380224E-07 1 0
vn 0 1 0
vn 1.155265E-07 1 0
vn 1.240887E-07 1 0
vn 1.802486E-07 1 0
vn 1.663733E-07 1 0
vn 1.205102E-07 1 -1.341437E-07
vn 1.220202E-07 1 -1.324938E-07
vn 0 1 -1.941544E-07
vn 0 1 -1.784774E-07
vn 0.0001803564 1 -8.104285E-05
vn 0.0001172836 1 -5.277128E-05
vn 0 1 0
vn 0 1 0
vn 0 1 0
vn 0 1 0
vn 0 1 0
vn 0 1 0
vn -0.0002528234 1 -7.38653E-05
vn -0.0004240002 0.9999999 -0.0001238766
vn 0.0001803564 1 -8.104285E-05
vn 0.0001433505 1 -0.0002518912
vn 0.0001811754 1 -0.0001383803
vn 0.0001172836 1 -5.277128E-05
vn 0.0001554649 1 -0.0003787313
vn 0.000123647 0.9999999 -0.0004093969
vn 0.0002472721 1 -0.0002792199
vn 0.0002379392 1 -0.0002901184
vn 0.0003303018 1 -0.0001727886
vn 0.0003411695 1 -0.0001575058
vn 0.0002188321 1 -0.0001823142
vn 0.0001779164 1 -0.0002042775
vn 0.0004877811 0.9999999 -0.0001099548
vn 0 1 1.192093E-07
vn 0.0004994859 0.9999999 -0.0001140007
vn 0.0005298551 0.9999999 -0.0001244982
vn 2.199941E-07 1 2.861956E-07
vn 1.214834E-07 1 1.169736E-07
vn 0.0001075436 1 -0.0001644182
vn 9.427589E-05 1 -0.000144093
vn 6.439986E-07 1 8.757615E-07
vn 2.182678E-07 1 0
vn 1.17596E-07 1 -1.31038E-07
vn 1.445276E-07 1 0
vn 1.638955E-07 1 0
vn 1.637861E-07 1 0
vn 1.433283E-07 1 0
vn 1.155498E-07 1 1.389822E-07
vn 0 1 2.711058E-07
vn 0 1 1.249695E-07
vn 0 1 1.036345E-07
vn 0 1 1.249801E-07
vn 0 1 0
vn 0 1 0
vn 0 1 0
vn 0 1 0
vn 0 1 0
vn 0 1 0
vn 0 1 0
vn 0 1 0
vn 0 1 0
vn 0 1 0
vn 0.0001715401 1 2.541399E-05
vn 0.0001674348 1 2.480957E-05
vn 0.000185481 1 2.820251E-05
vn 0.0001674348 1 2.480957E-05
vn 0.0001715401 1 2.541399E-05
vn 0.0001845701 1 2.797288E-05
vn -0.000493719 0.9999999 -4.341168E-05
vn 0 1 1.192093E-07
vn -0.0004888929 0.9999999 -4.094777E-05
vn -0.0005041886 0.9999999 -4.875694E-05
vn 0 1 1.374028E-07
vn 0 1 1.192093E-07
vn 0 1 1.471267E-07
vn 0 1 1.544247E-07
vn 0 1 1.544247E-07
vn 1.214834E-07 1 1.169736E-07
vn 0 1 2.711058E-07
vn 0.0001526345 1 0.0002660523
vn 0.0001743077 1 7.020129E-06
vn 0.000101137 1 4.073228E-06
vn 0.0001874465 1 4.365761E-05
vn 0.0001531168 1 0.0003804082
vn 0.0001962511 1 0.000322377
vn 0.0002443064 1 0.0002577576
vn 0.0002631228 1 0.0002324741
vn 0.0003125281 1 0.0001413148
vn 0.0003186353 1 0.0001257769
vn 0.000185481 1 2.820251E-05
vn 0.0001845701 1 2.797288E-05
vn -0.0003034636 0.9999998 -0.0005785051
vn -0.0004240002 0.9999999 -0.0001238766
vn -0.0002528234 1 -7.38653E-05
vn -0.0004208625 0.9999999 -0.0002540139
vn -0.000245376 0.9999996 -0.0008997279
vn -0.0003181299 0.9999996 -0.0008253837
vn -0.0004803754 0.9999998 -0.0006451168
vn -0.0005066292 0.9999998 -0.0006140639
vn -0.0007064846 0.9999998 -0.0003573938
vn -0.0006847159 0.9999998 -0.0003871024
vn -0.000493719 0.9999999 -4.341168E-05
vn -0.0005041886 0.9999999 -4.875694E-05
vn 9.427589E-05 1 -0.000144093
vn 0.0001779164 1 -0.0002042775
vn 0.0002188321 1 -0.0001823142
vn 0.0001075436 1 -0.0001644182
vn 0 1 1.471267E-07
vn 1.214834E-07 1 1.169736E-07
vn 0 1 1.544247E-07
vn 0 1 1.192093E-07
vn 0 1 1.252651E-07
vn 0 1 1.249695E-07
vn 0 1 1.249801E-07
g m_dlc07_2_1_ripples_01_0
f 3/3/3 2/2/2 1/1/1
f 4/4/4 3/3/3 1/1/1
f 5/5/5 2/2/2 3/3/3
f 6/6/6 5/5/5 3/3/3
f 7/7/7 5/5/5 6/6/6
f 8/8/8 7/7/7 6/6/6
f 9/9/9 7/7/7 8/8/8
f 10/10/10 9/9/9 8/8/8
f 11/11/11 9/9/9 10/10/10
f 12/12/12 11/11/11 10/10/10
f 15/15/15 14/14/14 13/13/13
f 16/16/16 15/15/15 13/13/13
f 17/17/17 16/16/16 13/13/13
f 18/18/18 17/17/17 13/13/13
f 19/19/19 17/17/17 18/18/18
f 20/20/20 19/19/19 18/18/18
f 21/21/21 19/19/19 20/20/20
f 22/22/22 21/21/21 20/20/20
f 23/23/23 21/21/21 22/22/22
f 24/24/24 23/23/23 22/22/22
f 14/14/14 15/15/15 25/25/25
f 15/15/15 26/26/26 25/25/25
f 25/25/25 26/26/26 27/27/27
f 26/26/26 28/28/28 27/27/27
f 27/27/27 28/28/28 29/29/29
f 28/28/28 30/30/30 29/29/29
f 29/29/29 30/30/30 31/31/31
f 30/30/30 32/32/32 31/31/31
f 35/35/35 34/34/34 33/33/33
f 36/36/36 35/35/35 33/33/33
f 37/37/37 36/36/36 33/33/33
f 38/38/38 37/37/37 33/33/33
f 39/39/39 37/37/37 38/38/38
f 40/40/40 39/39/39 38/38/38
f 41/41/41 39/39/39 40/40/40
f 42/42/42 41/41/41 40/40/40
f 43/43/43 41/41/41 42/42/42
f 44/44/44 43/43/43 42/42/42
f 34/34/34 35/35/35 45/45/45
f 35/35/35 46/46/46 45/45/45
f 45/45/45 46/46/46 47/47/47
f 46/46/46 48/48/48 47/47/47
f 47/47/47 48/48/48 49/49/49
f 48/48/48 50/50/50 49/49/49
f 49/49/49 50/50/50 51/51/51
f 50/50/50 52/52/52 51/51/51
f 55/55/55 54/54/54 53/53/53
f 56/56/56 55/55/55 53/53/53
f 57/57/57 54/54/54 55/55/55
f 58/58/58 57/57/57 55/55/55
f 59/59/59 57/57/57 58/58/58
f 60/60/60 59/59/59 58/58/58
f 61/61/61 59/59/59 60/60/60
f 62/62/62 61/61/61 60/60/60
f 63/63/63 61/61/61 62/62/62
f 64/64/64 63/63/63 62/62/62
f 67/67/67 66/66/66 65/65/65
f 68/68/68 67/67/67 65/65/65
f 71/71/71 70/70/70 69/69/69
f 71/71/71 72/72/72 70/70/70
f 73/73/73 69/69/69 70/70/70
f 74/74/74 73/73/73 70/70/70
f 75/75/75 74/74/74 70/70/70
f 76/76/76 75/75/75 70/70/70
f 77/77/77 76/76/76 70/70/70
f 78/78/78 77/77/77 70/70/70
f 78/78/78 70/70/70 79/79/79
f 79/79/79 70/70/70 80/80/80
f 80/80/80 70/70/70 81/81/81
f 84/84/84 83/83/83 82/82/82
f 85/85/85 82/82/82 83/83/83
f 85/85/85 83/83/83 86/86/86
f 86/86/86 83/83/83 87/87/87
f 87/87/87 83/83/83 88/88/88
f 89/89/89 88/88/88 83/83/83
f 90/90/90 89/89/89 83/83/83
f 91/91/91 90/90/90 83/83/83
f 92/92/92 91/91/91 83/83/83
f 83/83/83 93/93/93 92/92/92
f 83/83/83 94/94/94 93/93/93
f 95/95/95 94/94/94 83/83/83
f 95/95/95 83/83/83 96/96/96
f 99/99/99 98/98/98 97/97/97
f 100/100/100 99/99/99 97/97/97
f 103/103/103 102/102/102 101/101/101
f 104/104/104 103/103/103 101/101/101
f 107/107/107 106/106/106 105/105/105
f 108/108/108 107/107/107 105/105/105
f 111/111/111 110/110/110 109/109/109
f 114/114/114 113/113/113 112/112/112
f 115/115/115 114/114/114 112/112/112
f 115/115/115 112/112/112 116/116/116
f 112/112/112 117/117/117 116/116/116
f 116/116/116 117/117/117 118/118/118
f 117/117/117 119/119/119 118/118/118
f 118/118/118 119/119/119 120/120/120
f 119/119/119 121/121/121 120/120/120
f 120/120/120 121/121/121 122/122/122
f 121/121/121 123/123/123 122/122/122
f 126/126/126 125/125/125 124/124/124
f 127/127/127 126/126/126 124/124/124
f 127/127/127 124/124/124 128/128/128
f 124/124/124 129/129/129 128/128/128
f 128/128/128 129/129/129 130/130/130
f 129/129/129 131/131/131 130/130/130
f 130/130/130 131/131/131 132/132/132
f 131/131/131 133/133/133 132/132/132
f 132/132/132 133/133/133 134/134/134
f 133/133/133 135/135/135 134/134/134
f 138/138/138 137/137/137 136/136/136
f 139/139/139 138/138/138 136/136/136
f 142/142/142 141/141/141 140/140/140
f 145/145/145 144/144/144 143/143/143
f 146/146/146 145/145/145 143/143/143
