g m_dlc07_ripples_3_2_01
v -1.702777 -1.056651E-06 -4.703001
v -1.702777 -9.803574E-07 1.478019
v -3.372 -1.190166E-06 -0.05566776
v -3.372 -1.190166E-06 -3.020833
v -3.442081 -1.190166E-06 -3.373159
v -1.747844 -8.945267E-07 -5.01921
v -3.641657 -1.190166E-06 -3.671842
v -1.876185 -9.708207E-07 -5.287265
v -3.940342 -1.190166E-06 -3.87142
v -2.068253 -9.136002E-07 -5.46637
v -4.292666 -1.190166E-06 -3.9415
v -2.294811 -8.945267E-07 -5.529281
v -1.747844 -9.803574E-07 1.794213
v -3.442081 -1.190166E-06 0.2966558
v -1.876185 -8.8499E-07 2.062277
v -3.641659 -1.190166E-06 0.5953427
v -2.068254 -9.898941E-07 2.24138
v -3.940344 -1.190166E-06 0.7949172
v -2.294814 -9.898941E-07 2.304274
v -4.292667 -1.190166E-06 0.8649979
v 1.322258 -9.612839E-07 1.478019
v 1.322258 -8.659165E-07 -4.703003
v 2.948002 -1.190166E-06 -3.020833
v 2.948001 -1.190166E-06 -0.05566776
v 1.367324 -1.028041E-06 -5.01921
v 3.018083 -1.190166E-06 -3.373158
v 1.495656 -9.23137E-07 -5.287265
v 3.217659 -1.190166E-06 -3.671842
v 1.687731 -9.422104E-07 -5.466368
v 3.516345 -1.190166E-06 -3.871419
v 1.914293 -9.040635E-07 -5.529281
v 3.868668 -1.190166E-06 -3.9415
v 3.018083 -1.190166E-06 0.2966558
v 1.367323 -9.517472E-07 1.794213
v 3.217659 -1.190166E-06 0.5953427
v 1.495656 -9.517472E-07 2.062277
v 3.516344 -1.190166E-06 0.7949163
v 1.687731 -9.23137E-07 2.241379
v 3.868668 -1.190166E-06 0.8649979
v 1.914294 -1.037578E-06 2.304274
v -1.901102 -1.075725E-06 5.082054
v -1.901102 -9.708207E-07 7.707279
v -3.372 -1.190166E-06 9.395835
v -3.372 -1.190166E-06 6.470667
v -3.442081 -1.190166E-06 6.118344
v -1.963995 -9.040635E-07 4.765876
v -3.641657 -1.190166E-06 5.819659
v -2.143113 -9.708207E-07 4.497811
v -3.940342 -1.190166E-06 5.620083
v -2.411169 -9.136002E-07 4.318708
v -4.292666 -1.190166E-06 5.550001
v -2.727355 -8.945267E-07 4.255805
v -1.838206 -1.066188E-06 8.023471
v -3.372 -1.190166E-06 9.748159
v -1.6591 -9.994309E-07 8.29154
v -3.372 -1.190166E-06 10.3165
v -1.391037 -9.898941E-07 8.470656
v -2.803658 -1.190166E-06 10.3165
v -1.074841 -8.8499E-07 8.533504
v -2.451334 -1.190166E-06 10.3165
v 1.567926 -9.136002E-07 7.707278
v 1.567927 -8.754532E-07 5.082055
v 2.948002 -1.190166E-06 6.470667
v 2.948001 -1.190166E-06 9.395835
v 1.630816 -1.047115E-06 4.765875
v 3.018083 -1.190166E-06 6.118343
v 1.809924 -9.136002E-07 4.497812
v 3.217659 -1.190166E-06 5.819659
v 2.077984 -9.422104E-07 4.318708
v 3.516345 -1.190166E-06 5.620083
v 2.394181 -9.136002E-07 4.255805
v 3.868668 -1.190166E-06 5.550001
v 2.948001 -1.190166E-06 9.748159
v 1.50502 -9.23137E-07 8.023471
v 2.948001 -1.190166E-06 10.3165
v 1.325916 -9.23137E-07 8.29154
v 2.379659 -1.190166E-06 10.3165
v 1.057856 -9.422104E-07 8.470656
v 2.027334 -1.190166E-06 10.3165
v 0.7416672 -9.612839E-07 8.533504
v -1.074841 -8.8499E-07 8.533504
v 0.7416672 -9.612839E-07 8.533504
v 2.027334 -1.190166E-06 10.3165
v -2.451334 -1.190166E-06 10.3165
v -8.684764 -1.066188E-06 3.130532
v -8.684764 -1.018504E-06 3.429556
v -10.485 -1.190166E-06 4.629336
v -10.485 -1.190166E-06 1.785665
v -10.41492 -1.190166E-06 1.433342
v -8.621833 -9.994309E-07 2.814339
v -10.21534 -1.190166E-06 1.134655
v -8.442714 -1.018504E-06 2.546288
v -9.916656 -1.190166E-06 0.9350796
v -8.1747 -9.994309E-07 2.367175
v -9.564333 -1.190166E-06 0.8649979
v -7.858476 -9.517472E-07 2.304274
v -8.621833 -1.094798E-06 3.745748
v -10.485 -1.190166E-06 4.981659
v -8.442714 -1.028041E-06 4.013818
v -10.485 -1.190166E-06 5.550001
v -8.1747 -9.994309E-07 4.192923
v -9.916656 -1.190166E-06 5.550001
v -7.858476 -9.994309E-07 4.255805
v -9.564333 -1.190166E-06 5.550001
v -2.294814 -9.898941E-07 2.304274
v -7.858476 -9.517472E-07 2.304274
v -9.564333 -1.190166E-06 0.8649979
v -4.292667 -1.190166E-06 0.8649979
v 7.796556 -8.945267E-07 2.304274
v 1.914294 -1.037578E-06 2.304274
v 3.868668 -1.190166E-06 0.8649979
v 9.495335 -1.190166E-06 0.8649979
v -8.680247 1.146385E-08 -7.707284
v -8.680248 -6.990235E-07 -6.355536
v -10.48 -7.18097E-07 -4.862167
v -10.48 -2.364915E-07 -9.395835
v -10.40992 -2.364915E-07 -9.748158
v -8.617364 -1.714638E-08 -8.023476
v -10.21034 1.927103E-09 -10.04684
v -8.438243 3.261764E-07 -8.291549
v -9.911657 1.927103E-09 -10.24642
v -8.17022 3.547866E-07 -8.470664
v -9.559334 1.927103E-09 -10.3165
v -7.854029 3.547866E-07 -8.533514
v -8.617364 -6.513398E-07 -6.039347
v -10.48 -7.18097E-07 -4.509842
v -8.438244 -9.994309E-07 -5.771288
v -10.48 -1.190166E-06 -3.9415
v -8.170219 -9.994309E-07 -5.59218
v -9.911657 -1.190166E-06 -3.9415
v -7.854028 -9.994309E-07 -5.529281
v -9.559334 -1.190166E-06 -3.9415
v -9.559334 1.927103E-09 -10.3165
v 9.564333 1.927103E-09 -10.3165
v 7.858476 4.215438E-07 -8.533515
v -7.854029 3.547866E-07 -8.533514
v -7.858476 -9.994309E-07 4.255805
v -2.727355 -8.945267E-07 4.255805
v -4.292666 -1.190166E-06 5.550001
v -9.564333 -1.190166E-06 5.550001
v -7.854028 -9.994309E-07 -5.529281
v -2.294811 -8.945267E-07 -5.529281
v -4.292666 -1.190166E-06 -3.9415
v -9.559334 -1.190166E-06 -3.9415
v 8.622829 -9.136002E-07 3.429555
v 8.622829 -8.754532E-07 3.130529
v 10.416 -1.190166E-06 1.785665
v 10.416 -1.190166E-06 4.629334
v 8.559901 -8.277696E-07 2.814342
v 10.34592 -1.190166E-06 1.433342
v 8.380799 -9.136002E-07 2.546287
v 10.14634 -1.190166E-06 1.134655
v 8.112766 -8.8499E-07 2.367175
v 9.847658 -1.190166E-06 0.9350796
v 7.796556 -8.945267E-07 2.304274
v 9.495335 -1.190166E-06 0.8649979
v 10.416 -1.190166E-06 4.981659
v 8.559901 -9.136002E-07 3.745747
v 10.416 -1.190166E-06 5.550001
v 8.380799 -8.945267E-07 4.013818
v 9.847658 -1.190166E-06 5.550001
v 8.112766 -9.040635E-07 4.192923
v 9.495335 -1.190166E-06 5.550001
v 7.796556 -9.23137E-07 4.255805
v 2.394181 -9.136002E-07 4.255805
v 7.796556 -9.23137E-07 4.255805
v 9.495335 -1.190166E-06 5.550001
v 3.868668 -1.190166E-06 5.550001
v 8.684764 -5.941193E-07 -6.355537
v 8.684762 2.100059E-08 -7.707285
v 10.485 -2.364915E-07 -9.395835
v 10.485 -7.18097E-07 -4.862166
v 8.621833 8.775779E-08 -8.023483
v 10.41492 -2.364915E-07 -9.748158
v 8.442712 4.215438E-07 -8.291549
v 10.21534 1.927103E-09 -10.04684
v 8.174697 4.024703E-07 -8.470664
v 9.916656 1.927103E-09 -10.24642
v 7.858476 4.215438E-07 -8.533515
v 9.564333 1.927103E-09 -10.3165
v 10.485 -7.18097E-07 -4.509842
v 8.621835 -5.941193E-07 -6.039347
v 10.485 -1.190166E-06 -3.9415
v 8.442713 -1.028041E-06 -5.771288
v 9.916656 -1.190166E-06 -3.9415
v 8.174697 -9.326737E-07 -5.59218
v 9.564333 -1.190166E-06 -3.9415
v 7.858476 -9.326737E-07 -5.529281
v 1.914293 -9.040635E-07 -5.529281
v 7.858476 -9.326737E-07 -5.529281
v 9.564333 -1.190166E-06 -3.9415
v 3.868668 -1.190166E-06 -3.9415
vt -0.987793 1
vt 2.027344 1
vt 2.027344 0
vt -0.987793 -5.960464E-08
vt -1.269531 -5.960464E-08
vt -1.269531 1
vt -1.507813 0
vt -1.507813 1
vt -1.667969 -5.960464E-08
vt -1.667969 1
vt -1.723633 -5.960464E-08
vt -1.723633 1
vt 2.310547 1
vt 2.310547 0
vt 2.548828 1
vt 2.548828 0
vt 2.707031 1
vt 2.707031 0
vt 2.763672 1
vt 2.763672 0
vt -0.6699219 1
vt 1.709961 1
vt 1.709961 -5.960464E-08
vt -0.6699219 0
vt 1.932617 1
vt 1.932617 -5.960464E-08
vt 2.121094 1
vt 2.121094 -5.960464E-08
vt 2.246094 1
vt 2.246094 -5.960464E-08
vt 2.291016 1
vt 2.291016 0
vt -0.8920898 0
vt -0.8920898 1
vt -1.080078 0
vt -1.080078 1
vt -1.206055 0
vt -1.206055 1
vt -1.250977 0
vt -1.250977 1
vt -0.5083008 1
vt 1.548828 1
vt 1.548828 0
vt -0.5083008 0
vt -0.7675781 0
vt -0.7675781 1
vt -1.010742 0
vt -1.010742 1
vt -1.201172 0
vt -1.201172 1
vt -1.308594 0
vt -1.308594 1
vt 1.807617 1
vt 1.807617 0
vt 2.050781 1
vt 2.050781 0
vt 2.240234 1
vt 2.240234 0
vt 2.349609 1
vt 2.349609 0
vt -0.5083008 1
vt 1.548828 1
vt 1.548828 0
vt -0.5083008 0
vt 1.807617 1
vt 1.807617 0
vt 2.050781 1
vt 2.050781 0
vt 2.240234 1
vt 2.240234 0
vt 2.349609 1
vt 2.349609 0
vt -0.7675781 0
vt -0.7675781 1
vt -1.010742 0
vt -1.010742 1
vt -1.201172 0
vt -1.201172 1
vt -1.308594 0
vt -1.308594 1
vt -0.7529297 1
vt 1.792969 1
vt 1.792969 0
vt -0.7529297 0
vt -0.3374023 1
vt 1.37793 1
vt 1.37793 0
vt -0.3374023 0
vt -0.6342773 0
vt -0.6342773 1
vt -0.8857422 0
vt -0.8857422 1
vt -1.053711 0
vt -1.053711 1
vt -1.113281 0
vt -1.113281 1
vt 1.674805 1
vt 1.674805 0
vt 1.925781 1
vt 1.925781 0
vt 2.09375 1
vt 2.09375 0
vt 2.152344 1
vt 2.152344 0
vt -1.308594 1
vt 2.347656 1
vt 2.347656 0
vt -1.308594 0
vt -1.431641 1
vt 2.470703 1
vt 2.470703 0
vt -1.431641 0
vt -0.9702148 1
vt 2.009766 1
vt 2.009766 -5.960464E-08
vt -0.9702148 0
vt -1.251953 -5.960464E-08
vt -1.251953 1
vt -1.491211 0
vt -1.491211 1
vt -1.651367 -5.960464E-08
vt -1.651367 1
vt -1.707031 0
vt -1.707031 1
vt 2.292969 1
vt 2.292969 0
vt 2.53125 1
vt 2.53125 0
vt 2.691406 1
vt 2.691406 0
vt 2.748047 1
vt 2.748047 0
vt 6.871094 0
vt -5.832031 -5.960464E-08
vt -5.832031 1
vt 6.871094 1
vt -1.308594 1
vt 2.347656 1
vt 2.347656 0
vt -1.308594 0
vt -1.306641 1
vt 2.345703 1
vt 2.345703 -5.960464E-08
vt -1.306641 0
vt -0.3374023 1
vt 1.37793 1
vt 1.37793 0
vt -0.3374023 0
vt 1.674805 1
vt 1.674805 0
vt 1.925781 1
vt 1.925781 0
vt 2.09375 1
vt 2.09375 0
vt 2.152344 1
vt 2.152344 0
vt -0.6342773 0
vt -0.6342773 1
vt -0.8857422 0
vt -0.8857422 1
vt -1.053711 0
vt -1.053711 1
vt -1.113281 0
vt -1.113281 1
vt -1.431641 1
vt 2.470703 1
vt 2.470703 0
vt -1.431641 0
vt -0.9702148 1
vt 2.009766 1
vt 2.009766 -5.960464E-08
vt -0.9702148 -5.960464E-08
vt 2.292969 1
vt 2.292969 0
vt 2.53125 1
vt 2.53125 -5.960464E-08
vt 2.691406 1
vt 2.691406 0
vt 2.748047 1
vt 2.748047 -5.960464E-08
vt -1.251953 -5.960464E-08
vt -1.251953 1
vt -1.491211 -5.960464E-08
vt -1.491211 1
vt -1.651367 0
vt -1.651367 1
vt -1.707031 -5.960464E-08
vt -1.707031 1
vt -1.455078 1
vt 2.496094 1
vt 2.496094 -5.960464E-08
vt -1.455078 0
vn 0 1 0
vn -1.040832E-07 1 0
vn -1.033837E-07 1 0
vn 0 1 0
vn 0 1 1.172356E-07
vn 0 1 0
vn 0 1 0
vn 0 1 0
vn 0 1 1.586219E-07
vn 0 1 1.541628E-07
vn 0 1 1.425893E-07
vn 0 1 1.463761E-07
vn 0 1 -1.216382E-07
vn 0 1 0
vn 0 1 0
vn 0 1 0
vn -1.321202E-07 1 0
vn 0 1 0
vn 0 1 -1.475258E-07
vn 0 1 -1.555495E-07
vn 1.588275E-07 1 0
vn 2.030566E-07 1 0
vn 1.752934E-07 1 0
vn 1.675655E-07 1 0
vn 0 1 0
vn 1.791924E-07 1 0
vn 0 1 1.116365E-07
vn 0 1 1.149681E-07
vn 0 1 1.123316E-07
vn 0 1 1.485586E-07
vn 0 1 1.756979E-07
vn 0 1 1.699542E-07
vn 1.038674E-07 1 0
vn 0 1 0
vn 0 1 0
vn 0 1 0
vn 1.202426E-07 1 0
vn 0 1 0
vn 0 1 -1.658951E-07
vn 0 1 -1.262219E-07
vn 0 1 0
vn -1.246308E-07 1 0
vn 0 1 0
vn -1.203652E-07 1 0
vn 0 1 1.314712E-07
vn 0 1 0
vn 0 1 0
vn 0 1 0
vn 0 1 1.995264E-07
vn 0 1 1.875218E-07
vn 0 1 1.717382E-07
vn 0 1 1.798774E-07
vn 0 1 0
vn -1.194765E-07 1 0
vn 0 1 0
vn 0 1 0
vn 0 1 0
vn 0 1 0
vn 0 1 1.424072E-07
vn 0 1 1.190745E-07
vn 2.042502E-07 1 0
vn 2.477074E-07 1 0
vn 2.147097E-07 1 0
vn 1.903502E-07 1 0
vn 0 1 0
vn 1.79728E-07 1 0
vn 0 1 1.480247E-07
vn 0 1 1.4556E-07
vn 0 1 1.252692E-07
vn 0 1 1.627396E-07
vn 0 1 2.105143E-07
vn 0 1 2.089412E-07
vn 1.410906E-07 1 0
vn 1.48352E-07 1 0
vn 0 1 0
vn 0 1 0
vn 0 1 1.317134E-07
vn 0 1 1.406824E-07
vn 0 1 1.522318E-07
vn 0 1 1.506589E-07
vn 0 1 1.424072E-07
vn 0 1 1.506589E-07
vn 0 1 1.522318E-07
vn 0 1 1.190745E-07
vn 0 1 0
vn 0 1 0
vn 0 1 0
vn -1.024317E-07 1 0
vn 0 1 0
vn -1.001154E-07 1 0
vn 0 1 0
vn 0 1 0
vn 0 1 0
vn 0 1 0
vn 0 1 -1.359002E-07
vn 0 1 -1.536816E-07
vn 0 1 0
vn 0 1 0
vn 0 1 0
vn 0 1 0
vn 0 1 0
vn 0 1 0
vn 0 1 1.692916E-07
vn 0 1 1.599086E-07
vn 0 1 -1.475258E-07
vn 0 1 -1.536816E-07
vn 0 1 -1.359002E-07
vn 0 1 -1.555495E-07
vn 0 1 -1.713295E-07
vn 0 1 -1.262219E-07
vn 0 1 -1.658951E-07
vn 0 1 -1.735706E-07
vn 0 1 1.880786E-07
vn 0 1 1.866894E-07
vn 0 1 1.331694E-07
vn 0 1 1.344583E-07
vn -4.937224E-07 1 3.583004E-07
vn -3.447046E-07 1 2.09412E-07
vn -4.04333E-07 1 2.427017E-07
vn -4.025176E-07 1 2.407259E-07
vn 0 1 -1.102997E-07
vn 0 1 -1.3271E-07
vn 0 1 -2.114474E-07
vn 0 1 -2.134201E-07
vn 2.985255E-07 1 3.919083E-07
vn 5.02307E-07 1 6.501992E-07
vn 3.210252E-07 1 4.662496E-07
vn 3.549142E-07 1 5.045777E-07
vn 0 1 0
vn 0 1 0
vn 0 1 1.412511E-07
vn 0 1 1.367322E-07
vn 0 1 -2.114474E-07
vn 0 1 -2.114457E-07
vn 0 1 -2.1342E-07
vn 0 1 -2.134201E-07
vn 0 1 1.692916E-07
vn 0 1 1.798774E-07
vn 0 1 1.717382E-07
vn 0 1 1.599086E-07
vn 0 1 1.412511E-07
vn 0 1 1.463761E-07
vn 0 1 1.425893E-07
vn 0 1 1.367322E-07
vn 1.628259E-07 1 0
vn 1.704485E-07 1 0
vn 1.813685E-07 1 0
vn 1.577118E-07 1 0
vn 1.339842E-07 1 0
vn 1.046754E-07 1 0
vn 0 1 -1.233481E-07
vn 0 1 -1.293587E-07
vn 0 1 -1.429735E-07
vn 0 1 -1.114264E-07
vn 0 1 -1.713295E-07
vn 0 1 -1.735706E-07
vn 1.419035E-07 1 0
vn 1.421121E-07 1 0
vn 0 1 0
vn 0 1 0
vn 0 1 1.805067E-07
vn 0 1 1.991312E-07
vn 0 1 2.112671E-07
vn 0 1 2.089566E-07
vn 0 1 2.105143E-07
vn 0 1 2.089566E-07
vn 0 1 2.112671E-07
vn 0 1 2.089412E-07
vn 1.130782E-07 1 1.770871E-07
vn 1.215984E-07 1 1.794344E-07
vn 1.41996E-07 1 1.535748E-07
vn 1.031144E-07 1 1.456557E-07
vn 4.349701E-07 1 2.646999E-07
vn 5.560188E-07 1 3.779192E-07
vn 3.972734E-07 1 1.856949E-07
vn 3.993311E-07 1 1.878962E-07
vn 0 1 -1.673966E-07
vn 0 1 -1.647293E-07
vn 0 1 -2.1342E-07
vn 0 1 -2.114457E-07
vn -5.589621E-07 1 7.41187E-07
vn -3.400646E-07 1 4.867607E-07
vn -3.506028E-07 1 5.13985E-07
vn -3.084621E-07 1 4.666904E-07
vn 0 1 0
vn 0 1 0
vn 0 1 1.647227E-07
vn 0 1 1.684518E-07
vn 0 1 1.756979E-07
vn 0 1 1.684518E-07
vn 0 1 1.647227E-07
vn 0 1 1.699542E-07
g m_dlc07_ripples_3_2_01_0
f 3/3/3 2/2/2 1/1/1
f 4/4/4 3/3/3 1/1/1
f 4/4/4 1/1/1 5/5/5
f 1/1/1 6/6/6 5/5/5
f 5/5/5 6/6/6 7/7/7
f 6/6/6 8/8/8 7/7/7
f 7/7/7 8/8/8 9/9/9
f 8/8/8 10/10/10 9/9/9
f 9/9/9 10/10/10 11/11/11
f 10/10/10 12/12/12 11/11/11
f 13/13/13 2/2/2 3/3/3
f 14/14/14 13/13/13 3/3/3
f 15/15/15 13/13/13 14/14/14
f 16/16/16 15/15/15 14/14/14
f 17/17/17 15/15/15 16/16/16
f 18/18/18 17/17/17 16/16/16
f 19/19/19 17/17/17 18/18/18
f 20/20/20 19/19/19 18/18/18
f 23/23/23 22/22/22 21/21/21
f 24/24/24 23/23/23 21/21/21
f 25/25/25 22/22/22 23/23/23
f 26/26/26 25/25/25 23/23/23
f 27/27/27 25/25/25 26/26/26
f 28/28/28 27/27/27 26/26/26
f 29/29/29 27/27/27 28/28/28
f 30/30/30 29/29/29 28/28/28
f 31/31/31 29/29/29 30/30/30
f 32/32/32 31/31/31 30/30/30
f 24/24/24 21/21/21 33/33/33
f 21/21/21 34/34/34 33/33/33
f 33/33/33 34/34/34 35/35/35
f 34/34/34 36/36/36 35/35/35
f 35/35/35 36/36/36 37/37/37
f 36/36/36 38/38/38 37/37/37
f 37/37/37 38/38/38 39/39/39
f 38/38/38 40/40/40 39/39/39
f 43/43/43 42/42/42 41/41/41
f 44/44/44 43/43/43 41/41/41
f 44/44/44 41/41/41 45/45/45
f 41/41/41 46/46/46 45/45/45
f 45/45/45 46/46/46 47/47/47
f 46/46/46 48/48/48 47/47/47
f 47/47/47 48/48/48 49/49/49
f 48/48/48 50/50/50 49/49/49
f 49/49/49 50/50/50 51/51/51
f 50/50/50 52/52/52 51/51/51
f 53/53/53 42/42/42 43/43/43
f 54/54/54 53/53/53 43/43/43
f 55/55/55 53/53/53 54/54/54
f 56/56/56 55/55/55 54/54/54
f 57/57/57 55/55/55 56/56/56
f 58/58/58 57/57/57 56/56/56
f 59/59/59 57/57/57 58/58/58
f 60/60/60 59/59/59 58/58/58
f 63/63/63 62/62/62 61/61/61
f 64/64/64 63/63/63 61/61/61
f 65/65/65 62/62/62 63/63/63
f 66/66/66 65/65/65 63/63/63
f 67/67/67 65/65/65 66/66/66
f 68/68/68 67/67/67 66/66/66
f 69/69/69 67/67/67 68/68/68
f 70/70/70 69/69/69 68/68/68
f 71/71/71 69/69/69 70/70/70
f 72/72/72 71/71/71 70/70/70
f 64/64/64 61/61/61 73/73/73
f 61/61/61 74/74/74 73/73/73
f 73/73/73 74/74/74 75/75/75
f 74/74/74 76/76/76 75/75/75
f 75/75/75 76/76/76 77/77/77
f 76/76/76 78/78/78 77/77/77
f 77/77/77 78/78/78 79/79/79
f 78/78/78 80/80/80 79/79/79
f 83/83/83 82/82/82 81/81/81
f 84/84/84 83/83/83 81/81/81
f 87/87/87 86/86/86 85/85/85
f 88/88/88 87/87/87 85/85/85
f 88/88/88 85/85/85 89/89/89
f 85/85/85 90/90/90 89/89/89
f 89/89/89 90/90/90 91/91/91
f 90/90/90 92/92/92 91/91/91
f 91/91/91 92/92/92 93/93/93
f 92/92/92 94/94/94 93/93/93
f 93/93/93 94/94/94 95/95/95
f 94/94/94 96/96/96 95/95/95
f 97/97/97 86/86/86 87/87/87
f 98/98/98 97/97/97 87/87/87
f 99/99/99 97/97/97 98/98/98
f 100/100/100 99/99/99 98/98/98
f 101/101/101 99/99/99 100/100/100
f 102/102/102 101/101/101 100/100/100
f 103/103/103 101/101/101 102/102/102
f 104/104/104 103/103/103 102/102/102
f 107/107/107 106/106/106 105/105/105
f 108/108/108 107/107/107 105/105/105
f 111/111/111 110/110/110 109/109/109
f 112/112/112 111/111/111 109/109/109
f 115/115/115 114/114/114 113/113/113
f 116/116/116 115/115/115 113/113/113
f 116/116/116 113/113/113 117/117/117
f 113/113/113 118/118/118 117/117/117
f 117/117/117 118/118/118 119/119/119
f 118/118/118 120/120/120 119/119/119
f 119/119/119 120/120/120 121/121/121
f 120/120/120 122/122/122 121/121/121
f 121/121/121 122/122/122 123/123/123
f 122/122/122 124/124/124 123/123/123
f 125/125/125 114/114/114 115/115/115
f 126/126/126 125/125/125 115/115/115
f 127/127/127 125/125/125 126/126/126
f 128/128/128 127/127/127 126/126/126
f 129/129/129 127/127/127 128/128/128
f 130/130/130 129/129/129 128/128/128
f 131/131/131 129/129/129 130/130/130
f 132/132/132 131/131/131 130/130/130
f 135/135/135 134/134/134 133/133/133
f 136/136/136 135/135/135 133/133/133
f 139/139/139 138/138/138 137/137/137
f 140/140/140 139/139/139 137/137/137
f 143/143/143 142/142/142 141/141/141
f 144/144/144 143/143/143 141/141/141
f 147/147/147 146/146/146 145/145/145
f 148/148/148 147/147/147 145/145/145
f 149/149/149 146/146/146 147/147/147
f 150/150/150 149/149/149 147/147/147
f 151/151/151 149/149/149 150/150/150
f 152/152/152 151/151/151 150/150/150
f 153/153/153 151/151/151 152/152/152
f 154/154/154 153/153/153 152/152/152
f 155/155/155 153/153/153 154/154/154
f 156/156/156 155/155/155 154/154/154
f 148/148/148 145/145/145 157/157/157
f 145/145/145 158/158/158 157/157/157
f 157/157/157 158/158/158 159/159/159
f 158/158/158 160/160/160 159/159/159
f 159/159/159 160/160/160 161/161/161
f 160/160/160 162/162/162 161/161/161
f 161/161/161 162/162/162 163/163/163
f 162/162/162 164/164/164 163/163/163
f 167/167/167 166/166/166 165/165/165
f 168/168/168 167/167/167 165/165/165
f 171/171/171 170/170/170 169/169/169
f 172/172/172 171/171/171 169/169/169
f 173/173/173 170/170/170 171/171/171
f 174/174/174 173/173/173 171/171/171
f 175/175/175 173/173/173 174/174/174
f 176/176/176 175/175/175 174/174/174
f 177/177/177 175/175/175 176/176/176
f 178/178/178 177/177/177 176/176/176
f 179/179/179 177/177/177 178/178/178
f 180/180/180 179/179/179 178/178/178
f 172/172/172 169/169/169 181/181/181
f 169/169/169 182/182/182 181/181/181
f 181/181/181 182/182/182 183/183/183
f 182/182/182 184/184/184 183/183/183
f 183/183/183 184/184/184 185/185/185
f 184/184/184 186/186/186 185/185/185
f 185/185/185 186/186/186 187/187/187
f 186/186/186 188/188/188 187/187/187
f 191/191/191 190/190/190 189/189/189
f 192/192/192 191/191/191 189/189/189
