g m_dlc07_splinter_03
v -0.1339596 -0.1017096 0.1388791
v -0.1341469 -0.1021202 -0.1825307
v -0.1777408 -0.06089296 -0.1890908
v -0.1777408 -0.06068126 0.1388791
v 0.09196627 -0.08739274 0.141651
v 0.1313055 -0.08698308 -0.1475753
v 0.1333117 -0.04359923 0.1420287
v 0.1721429 -0.0434004 -0.1418317
v 0.1357317 -0.04456108 -0.1886613
v -0.1324553 -0.05622464 -0.226383
v -0.1324553 0.05622464 -0.226383
v -0.1777408 0.05882354 -0.1870214
v -0.1777408 -0.06089296 -0.1890908
v 0.1358066 0.04463263 -0.1886508
v 0.1300457 0.08704497 -0.1466209
v -0.1341469 0.1021202 -0.1825307
v 0.1721429 -0.0434004 -0.1418317
v 0.1720013 0.04235548 -0.1407963
v -0.1339596 0.1017096 0.1388791
v -0.1777408 0.06068126 0.1388791
v -0.1777408 0.05882354 -0.1870214
v 0.09196627 0.08739274 0.141651
v 0.08550067 0.04511831 0.1827526
v -0.1353137 0.059281 0.1827526
v 0.1720013 0.04235548 -0.1407963
v 0.1333117 0.04359924 0.1420287
v -0.1353137 -0.059281 0.1827526
v -0.1777408 -0.06068126 0.1388791
v -0.1777408 0.06068126 0.1388791
v 0.08792616 -0.04739128 0.1827526
v 0.09196627 -0.08739274 0.141651
v -0.1339596 -0.1017096 0.1388791
v 0.1333117 0.04359924 0.1420287
v 0.1333117 -0.04359923 0.1420287
v 0.1720013 0.04235548 -0.1407963
v 0.1721429 -0.0434004 -0.1418317
v -0.1777408 -0.06089296 -0.1890908
v -0.1777408 0.05882354 -0.1870214
vt 0.4060059 0.9702148
vt 0.4057617 0.7763672
vt 0.376709 0.7758789
vt 0.376709 0.9736328
vt 0.5913086 0.9716797
vt 0.5922852 0.7749023
vt 0.625 0.9726563
vt 0.625 0.7802734
vt 0.5952148 0.6875
vt 0.4067383 0.6889648
vt 0.4067383 0.5546875
vt 0.3793945 0.5541992
vt 0.3791504 0.6972656
vt 0.5957031 0.5556641
vt 0.5913086 0.4741211
vt 0.4057617 0.4733887
vt 0.625 0.6889648
vt 0.625 0.5625
vt 0.4060059 0.2800293
vt 0.376709 0.2766113
vt 0.376709 0.4726563
vt 0.5913086 0.2780762
vt 0.590332 0.1875
vt 0.409668 0.192627
vt 0.625 0.4689941
vt 0.625 0.2773438
vt 0.409668 0.05084229
vt 0.3486328 0.05245972
vt 0.3486328 0.1975098
vt 0.5922852 0.05123901
vt 0.5952148 0
vt 0.4108887 0
vt 0.652832 0.1893311
vt 0.652832 0.06066895
vt 0.8461914 0.1875
vt 0.847168 0.0609436
vt 0.1512451 0.05218506
vt 0.1524658 0.1953125
vn -0.08844396 -0.9911326 0.09916589
vn -0.08632667 -0.9882884 -0.1258321
vn -0.9661829 -0.2381321 -0.09891274
vn -0.9652212 -0.2443579 0.09293631
vn 0.1698128 -0.9790841 0.1120617
vn 0.1952785 -0.975354 -0.1027177
vn 0.9311569 -0.2885893 0.2228519
vn 0.9578652 -0.2857045 0.02944595
vn 0.2355651 -0.2592357 -0.9366461
vn 0.01430556 -0.2580568 -0.9660238
vn 0.01562183 0.2634827 -0.9645376
vn -0.9666995 0.2366757 -0.09734742
vn -0.9661829 -0.2381321 -0.09891274
vn 0.2364414 0.2618519 -0.935697
vn 0.1961181 0.9751236 -0.1033039
vn -0.0875603 0.9880083 -0.1271723
vn 0.9578652 -0.2857045 0.02944595
vn 0.957898 0.285558 0.02979879
vn -0.0913566 0.990659 0.1012362
vn -0.9654993 0.2436296 0.09195448
vn -0.9666995 0.2366757 -0.09734742
vn 0.1722018 0.9785426 0.1131413
vn 0.1147169 0.25537 0.9600137
vn -0.1356871 0.2590018 0.9562986
vn 0.957898 0.285558 0.02979879
vn 0.9299335 0.2938234 0.2211144
vn -0.1372813 -0.2597605 0.9558652
vn -0.9652212 -0.2443579 0.09293631
vn -0.9654993 0.2436296 0.09195448
vn 0.117877 -0.2591069 0.9586285
vn 0.1698128 -0.9790841 0.1120617
vn -0.08844396 -0.9911326 0.09916589
vn 0.9299335 0.2938234 0.2211144
vn 0.9311569 -0.2885893 0.2228519
vn 0.957898 0.285558 0.02979879
vn 0.9578652 -0.2857045 0.02944595
vn -0.9661829 -0.2381321 -0.09891274
vn -0.9666995 0.2366757 -0.09734742
g m_dlc07_splinter_03_0
f 3/3/3 2/2/2 1/1/1
f 4/4/4 3/3/3 1/1/1
f 5/5/5 1/1/1 2/2/2
f 6/6/6 5/5/5 2/2/2
f 5/5/5 6/6/6 7/7/7
f 6/6/6 8/8/8 7/7/7
f 9/9/9 6/6/6 2/2/2
f 10/10/10 9/9/9 2/2/2
f 9/9/9 10/10/10 11/11/11
f 11/11/11 10/10/10 12/12/12
f 10/10/10 13/13/13 12/12/12
f 10/10/10 2/2/2 13/13/13
f 14/14/14 9/9/9 11/11/11
f 15/15/15 14/14/14 11/11/11
f 16/16/16 15/15/15 11/11/11
f 17/17/17 9/9/9 14/14/14
f 9/9/9 17/17/17 6/6/6
f 18/18/18 17/17/17 14/14/14
f 15/15/15 16/16/16 19/19/19
f 19/19/19 16/16/16 20/20/20
f 16/16/16 21/21/21 20/20/20
f 16/16/16 11/11/11 21/21/21
f 22/22/22 15/15/15 19/19/19
f 23/23/23 22/22/22 19/19/19
f 24/24/24 23/23/23 19/19/19
f 25/25/25 15/15/15 22/22/22
f 15/15/15 25/25/25 14/14/14
f 26/26/26 25/25/25 22/22/22
f 23/23/23 24/24/24 27/27/27
f 27/27/27 24/24/24 28/28/28
f 24/24/24 29/29/29 28/28/28
f 24/24/24 19/19/19 29/29/29
f 30/30/30 23/23/23 27/27/27
f 31/31/31 30/30/30 27/27/27
f 32/32/32 31/31/31 27/27/27
f 27/27/27 28/28/28 32/32/32
f 33/33/33 23/23/23 30/30/30
f 23/23/23 33/33/33 22/22/22
f 34/34/34 33/33/33 30/30/30
f 30/30/30 31/31/31 34/34/34
f 35/35/35 33/33/33 34/34/34
f 36/36/36 35/35/35 34/34/34
f 28/28/28 29/29/29 37/37/37
f 29/29/29 38/38/38 37/37/37
