g m_dlc07_3_1_floor
v -6.600001 6.437303E-07 -14.4
v 6.599999 6.437303E-07 -14.4
v -9.155273E-07 4.291536E-07 -13.2
v -6.600001 4.291536E-07 -13.2
v 6.599999 4.291536E-07 -13.2
v -6.600001 2.145768E-07 -10.8
v 6.599999 2.145768E-07 -10.8
v 7.8 4.291536E-07 -13.2
v 7.8 6.437303E-07 -14.4
v -7.8 6.437303E-07 -14.4
v -7.8 4.291536E-07 -13.2
v 11.36998 7.780001 3.509995
v 11.37002 7.780001 -9.690011
v 14.96998 7.780001 3.510006
v 14.97002 7.780001 -9.69
v -16.5 1.001358E-06 -13.2
v -6.600001 1.001358E-06 -13.2
v -16.5 -1.430511E-07 -3.599998
v -6.600001 -1.430511E-07 -3.599998
v -3.000001 8.583071E-07 -10.8
v 3 8.583071E-07 -10.8
v -3.000001 -1.364242E-14 -3.599998
v 3 -1.364242E-14 -3.599998
v -14.98002 7.780001 3.509995
v -14.97998 7.780001 -9.690011
v -11.38002 7.780001 3.510006
v -11.37998 7.780001 -9.69
v -11.97 1.787979E-07 0.5999975
v 11.73 1.787979E-07 0.5999975
v -11.97 -1.46629E-06 14.4
v 11.73 -1.46629E-06 14.4
v -13.2 6.794932E-07 -3.600001
v 14.7 6.794932E-07 -3.600001
v -13.2 1.78814E-07 0.600001
v 14.7 1.78814E-07 0.600001
v 6.599998 1.001358E-06 -13.2
v 16.5 1.001358E-06 -13.2
v 6.599998 -1.430511E-07 -3.599998
v 16.5 -1.430511E-07 -3.599998
vt -3.167969 9.671875
vt 4.167969 9.671875
vt 0.5 8.90625
vt -3.167969 8.90625
vt 4.167969 8.90625
vt -3.167969 7.378906
vt 4.167969 7.378906
vt 4.835938 8.90625
vt 4.835938 9.671875
vt -3.833984 9.671875
vt -3.833984 8.90625
vt 6.820313 -1.735352
vt 6.820313 6.671875
vt 8.820313 -1.735352
vt 8.820313 6.671875
vt -8.671875 8.90625
vt -3.167969 8.90625
vt -8.671875 2.792969
vt -3.167969 2.792969
vt -1.166992 7.378906
vt 2.167969 7.378906
vt -1.166992 2.792969
vt 2.167969 2.792969
vt -7.824219 -1.735352
vt -7.824219 6.671875
vt -5.824219 -1.735352
vt -5.824219 6.671875
vt -6.152344 0.1179199
vt 7.019531 0.1179199
vt -6.152344 -8.671875
vt 7.019531 -8.671875
vt -6.835938 2.792969
vt 8.671875 2.792969
vt -6.835938 0.1179199
vt 8.671875 0.1179199
vt 4.167969 8.90625
vt 9.671875 8.90625
vt 4.167969 2.792969
vt 9.671875 2.792969
vn 0 1 1.192093E-07
vn 0 1 1.192093E-07
vn 0 1 1.723061E-07
vn 0 1 1.430513E-07
vn 0 1 1.021794E-07
vn 0 1 1.192093E-07
vn 0 1 1.192093E-07
vn 0 1 1.788142E-07
vn 0 1 1.788142E-07
vn 0 1 1.788142E-07
vn 0 1 1.788142E-07
vn 0 1 0
vn 0 1 0
vn 0 1 0
vn 0 1 0
vn 0 1 1.192093E-07
vn 0 1 1.192093E-07
vn 0 1 1.192093E-07
vn 0 1 1.192093E-07
vn 0 1 1.192093E-07
vn 0 1 1.192093E-07
vn 0 1 1.192093E-07
vn 0 1 1.192093E-07
vn 0 1 0
vn 0 1 0
vn 0 1 0
vn 0 1 0
vn 0 1 1.192093E-07
vn 0 1 1.192093E-07
vn 0 1 1.192093E-07
vn 0 1 1.192093E-07
vn 0 1 1.192093E-07
vn 0 1 1.192093E-07
vn 0 1 1.192093E-07
vn 0 1 1.192093E-07
vn 0 1 1.192093E-07
vn 0 1 1.192093E-07
vn 0 1 1.192093E-07
vn 0 1 1.192093E-07
g m_dlc07_3_1_floor_0
f 3/3/3 2/2/2 1/1/1
f 4/4/4 3/3/3 1/1/1
f 5/5/5 2/2/2 3/3/3
f 4/4/4 6/6/6 3/3/3
f 3/3/3 6/6/6 7/7/7
f 5/5/5 3/3/3 7/7/7
f 5/5/5 8/8/8 2/2/2
f 8/8/8 9/9/9 2/2/2
f 1/1/1 10/10/10 4/4/4
f 10/10/10 11/11/11 4/4/4
f 14/14/14 13/13/13 12/12/12
f 13/13/13 14/14/14 15/15/15
f 18/18/18 17/17/17 16/16/16
f 17/17/17 18/18/18 19/19/19
f 22/22/22 21/21/21 20/20/20
f 21/21/21 22/22/22 23/23/23
f 26/26/26 25/25/25 24/24/24
f 25/25/25 26/26/26 27/27/27
f 30/30/30 29/29/29 28/28/28
f 29/29/29 30/30/30 31/31/31
f 34/34/34 33/33/33 32/32/32
f 33/33/33 34/34/34 35/35/35
f 38/38/38 37/37/37 36/36/36
f 37/37/37 38/38/38 39/39/39
