g m_dlc7_cobble_02
v -0.3219576 0.08132689 0.1333023
v -0.3219576 0.08132689 -0.1333023
v -0.2458938 0.1388222 -0.1142377
v -0.2458938 0.1388222 0.1142376
v -0.163511 0.1626375 -0.1077076
v -0.163511 0.1626375 0.1077075
v 0.1635105 0.1626375 -0.1077076
v -0.1734249 0.1388222 -0.1867066
v 0.1734245 0.1388222 -0.1867066
v -0.2023672 0.08132689 -0.2528928
v 0.2023667 0.08132689 -0.2528928
v 0.1635105 0.1626375 0.1077075
v 0.1734245 0.1388222 0.1867065
v -0.1734249 0.1388222 0.1867065
v 0.2023667 0.08132689 0.2528927
v -0.2023672 0.08132689 0.2528927
v 0.2458933 0.1388222 -0.1142377
v 0.2458933 0.1388222 0.1142376
v 0.3219572 0.08132689 -0.1333023
v 0.3219572 0.08132689 0.1333023
v 0.2223325 9.536742E-09 0.2778436
v 0.2869297 0.08132689 0.2178656
v 0.3152384 9.536742E-09 0.2393603
v 0.3537217 9.536742E-09 0.1464541
v -0.222333 9.536742E-09 0.2778436
v -0.3152389 9.536742E-09 0.2393603
v -0.2869301 0.08132689 0.2178656
v -0.3537222 9.536742E-09 0.1464541
v 0.3537217 9.536742E-09 -0.1464542
v 0.2869297 0.08132689 -0.2178656
v 0.3152384 9.536742E-09 -0.2393604
v 0.2223325 9.536742E-09 -0.2778437
v -0.222333 9.536742E-09 -0.2778437
v -0.2869301 0.08132689 -0.2178656
v -0.3152389 9.536742E-09 -0.2393604
v -0.3537222 9.536742E-09 -0.1464542
v -0.2409182 0.1282552 0.1796078
v -0.2409182 0.1282552 -0.1796079
v 0.2409177 0.1282552 -0.1796079
v 0.2409177 0.1282552 0.1796078
vt 0.9213867 0.2243652
vt 0.9213867 0.2362061
vt 0.925293 0.2349854
vt 0.925293 0.2253418
vt 0.9287109 0.2346191
vt 0.9287109 0.225708
vt 0.9423828 0.234375
vt 0.9282227 0.237915
vt 0.9428711 0.2376709
vt 0.9267578 0.2415771
vt 0.9448242 0.241333
vt 0.9423828 0.2254639
vt 0.9428711 0.222168
vt 0.9282227 0.2224121
vt 0.9443359 0.2185059
vt 0.9267578 0.2188721
vt 0.9458008 0.2347412
vt 0.9458008 0.2250977
vt 0.949707 0.2357178
vt 0.949707 0.223999
vt 0.9458008 0.21521
vt 0.9477539 0.2203369
vt 0.9506836 0.2180176
vt 0.953125 0.2226563
vt 0.9248047 0.215332
vt 0.9204102 0.2183838
vt 0.9233398 0.2207031
vt 0.9179688 0.2230225
vt 0.9536133 0.2369385
vt 0.9482422 0.2393799
vt 0.9506836 0.2416992
vt 0.9462891 0.2446289
vt 0.925293 0.2451172
vt 0.9233398 0.2397461
vt 0.9208984 0.2421875
vt 0.9179688 0.2374268
vt 0.925293 0.2226563
vt 0.9257813 0.2376709
vt 0.9458008 0.2374268
vt 0.9458008 0.2224121
vn -0.8121734 0.5789717 0.07187663
vn -0.8121729 0.5789723 -0.07187655
vn -0.4650846 0.8841422 -0.0445963
vn -0.4650847 0.8841422 0.04459617
vn -0.0533172 0.9954945 -0.07840815
vn -0.05331712 0.9954946 0.07840817
vn 0.05331734 0.9954945 -0.07840819
vn -0.0320393 0.8609678 -0.5076495
vn 0.0320392 0.8609679 -0.5076493
vn -0.05347809 0.505338 -0.8612627
vn 0.05347805 0.5053384 -0.8612625
vn 0.05331733 0.9954945 0.07840828
vn 0.03203918 0.8609678 0.5076495
vn -0.03203909 0.8609677 0.5076497
vn 0.05347778 0.5053383 0.8612627
vn -0.05347772 0.5053382 0.8612627
vn 0.4650882 0.8841403 -0.04459629
vn 0.4650881 0.8841405 0.04459628
vn 0.8121734 0.5789717 -0.07187667
vn 0.8121729 0.5789724 0.07187627
vn 0.08114318 0.3104899 0.9471071
vn 0.5823648 0.5648344 0.584648
vn 0.6582326 0.39801 0.6389977
vn 0.9213562 0.3758865 0.09905649
vn -0.0811431 0.3104896 0.9471072
vn -0.6582327 0.3980114 0.6389966
vn -0.5823646 0.5648359 0.5846466
vn -0.9213577 0.3758825 0.09905682
vn 0.9213566 0.3758852 -0.09905703
vn 0.5823668 0.5648329 -0.5846475
vn 0.658235 0.3980075 -0.6389967
vn 0.08114381 0.3104902 -0.947107
vn -0.0811439 0.310489 -0.9471073
vn -0.5823645 0.5648362 -0.5846466
vn -0.6582327 0.3980117 -0.6389962
vn -0.9213574 0.3758836 -0.09905668
vn -0.3654526 0.85294 0.3727438
vn -0.365452 0.8529401 -0.3727438
vn 0.3654526 0.8529398 -0.3727439
vn 0.3654523 0.85294 0.3727441
g m_dlc7_cobble_02_0
f 3/3/3 2/2/2 1/1/1
f 4/4/4 3/3/3 1/1/1
f 5/5/5 3/3/3 4/4/4
f 6/6/6 5/5/5 4/4/4
f 7/7/7 5/5/5 6/6/6
f 5/5/5 7/7/7 8/8/8
f 5/5/5 8/8/8 3/3/3
f 7/7/7 9/9/9 8/8/8
f 8/8/8 9/9/9 10/10/10
f 9/9/9 11/11/11 10/10/10
f 12/12/12 7/7/7 6/6/6
f 13/13/13 12/12/12 6/6/6
f 14/14/14 13/13/13 6/6/6
f 6/6/6 4/4/4 14/14/14
f 15/15/15 13/13/13 14/14/14
f 16/16/16 15/15/15 14/14/14
f 17/17/17 7/7/7 12/12/12
f 7/7/7 17/17/17 9/9/9
f 18/18/18 17/17/17 12/12/12
f 12/12/12 13/13/13 18/18/18
f 19/19/19 17/17/17 18/18/18
f 20/20/20 19/19/19 18/18/18
f 21/21/21 15/15/15 16/16/16
f 15/15/15 21/21/21 22/22/22
f 20/20/20 18/18/18 22/22/22
f 15/15/15 22/22/22 13/13/13
f 22/22/22 23/23/23 20/20/20
f 21/21/21 23/23/23 22/22/22
f 23/23/23 24/24/24 20/20/20
f 25/25/25 21/21/21 16/16/16
f 26/26/26 25/25/25 16/16/16
f 27/27/27 26/26/26 16/16/16
f 16/16/16 14/14/14 27/27/27
f 28/28/28 26/26/26 27/27/27
f 1/1/1 28/28/28 27/27/27
f 29/29/29 19/19/19 20/20/20
f 24/24/24 29/29/29 20/20/20
f 19/19/19 29/29/29 30/30/30
f 19/19/19 30/30/30 17/17/17
f 29/29/29 31/31/31 30/30/30
f 30/30/30 31/31/31 11/11/11
f 31/31/31 32/32/32 11/11/11
f 11/11/11 32/32/32 10/10/10
f 32/32/32 33/33/33 10/10/10
f 10/10/10 33/33/33 34/34/34
f 33/33/33 35/35/35 34/34/34
f 34/34/34 35/35/35 2/2/2
f 28/28/28 1/1/1 2/2/2
f 35/35/35 36/36/36 2/2/2
f 36/36/36 28/28/28 2/2/2
f 1/1/1 27/27/27 4/4/4
f 27/27/27 37/37/37 4/4/4
f 4/4/4 37/37/37 14/14/14
f 14/14/14 37/37/37 27/27/27
f 10/10/10 34/34/34 8/8/8
f 34/34/34 38/38/38 8/8/8
f 3/3/3 38/38/38 34/34/34
f 2/2/2 3/3/3 34/34/34
f 8/8/8 38/38/38 3/3/3
f 11/11/11 9/9/9 30/30/30
f 9/9/9 39/39/39 30/30/30
f 30/30/30 39/39/39 17/17/17
f 17/17/17 39/39/39 9/9/9
f 18/18/18 40/40/40 22/22/22
f 13/13/13 40/40/40 18/18/18
f 22/22/22 40/40/40 13/13/13
