g m_dlc07_stone_broken_block_06
v -0.04910766 0.268839 -0.1653531
v -0.1101563 0.268839 -0.3211258
v -0.08166626 0.256415 -0.3113214
v -0.05119949 0.2646165 -0.196239
v -0.003286552 0.268839 -0.3211258
v -0.03099644 0.2566704 -0.3115231
v -0.000789566 0.2361077 -0.3538571
v -0.03102161 0.22965 -0.3372015
v -0.064674 0.1408028 -0.3538571
v -0.06269241 0.1683701 -0.3492772
v -0.1102072 0.2361077 -0.3538571
v -0.08238205 0.2327512 -0.3362799
v -0.05623802 0.2245411 -0.2861682
v -0.05715858 0.213964 -0.2967444
v 0.3324502 0.2663291 0.3236357
v -0.3434163 0.2674979 0.3224669
v 0.3468327 0.2339362 0.3538571
v 0.3405173 0.2590206 0.3174544
v 0.3535881 0.2310981 0.3437413
v 0.3662854 -0.08837418 0.3538571
v 0.3725153 -0.08716377 0.3438289
v 0.06378288 0.2604369 -0.3197034
v 0.05443062 0.268839 -0.3211258
v 0.05350361 0.2328416 -0.3468733
v 0.04297077 0.2361077 -0.3538571
v 0.05658436 0.09837104 -0.3473944
v 0.04630692 0.1003324 -0.3538571
v -0.3515825 0.234999 0.3538571
v -0.3592137 0.2319771 0.3444469
v -0.3518587 0.2597643 0.3174722
v -0.3725153 -0.1083376 0.3446526
v -0.3651519 -0.1082712 0.3538571
v -0.002020264 -0.01112907 0.3538571
v -0.1923971 0.05769813 -0.3538571
v -0.1931076 0.04622047 -0.3485718
v 0.0489637 0.08902672 -0.3480511
v -0.1888451 0.2361077 -0.3538571
v -0.1984837 0.2328844 -0.3463315
v -0.2040219 0.2609905 -0.3180624
v -0.1947656 0.268839 -0.3211258
v -0.2022718 0.05373878 -0.3467268
v 0.0489637 0.08902672 -0.3480511
v 0.2012664 -0.1250816 -0.03770111
v 0.2115077 -0.1191256 -0.03135925
v 0.05658436 0.09837104 -0.3473944
v 0.3725153 -0.08716377 0.3438289
v 0.205662 -0.1282337 -0.02630462
v 0.3646584 -0.09721886 0.3446547
v -0.2909023 -0.2558208 0.01087158
v -0.2881345 -0.2506359 -0.001007996
v 0.003970718 -0.1859612 0.2231108
v -0.3269088 -0.268839 0.1630322
v -0.2994172 -0.2486967 0.006803283
v -0.2022718 0.05373878 -0.3467268
v -0.1931076 0.04622047 -0.3485718
v -0.3360077 -0.2615316 0.162003
v -0.007251358 -0.1889285 0.2272803
v -0.3725153 -0.1083376 0.3446526
v -0.3661804 -0.1206639 0.3471178
v -0.3320322 -0.2637622 0.1764575
v -0.1940922 -0.2395582 0.345341
v -0.2071452 -0.2366079 0.347477
v -0.3651519 -0.1082712 0.3538571
v -0.1963229 -0.231715 0.3538571
v -0.04875771 -0.2024884 0.3452711
v -0.05020218 -0.1942795 0.3538571
v -0.03998554 -0.1933777 0.3466462
v -0.0003201294 -0.1807497 0.233578
v 0.003738174 -0.02956985 0.3487298
v -0.002020264 -0.01112907 0.3538571
v 0.1751299 -0.1421738 0.3492357
v 0.1887257 -0.1372615 0.3538571
v 0.1897329 -0.1455904 0.3454652
v 0.3662854 -0.08837418 0.3538571
v 0.3535881 0.2310981 0.3437413
v 0.05350361 0.2328416 -0.3468733
v 0.3405173 0.2590206 0.3174544
v 0.06378288 0.2604369 -0.3197034
v -0.3592137 0.2319771 0.3444469
v -0.1984837 0.2328844 -0.3463315
v -0.3518587 0.2597643 0.3174722
v -0.2040219 0.2609905 -0.3180624
v -0.05020218 -0.1942795 0.3538571
v -0.1963229 -0.231715 0.3538571
v 0.1887257 -0.1372615 0.3538571
vt 0.5092773 0.972168
vt 0.5068359 0.9765625
vt 0.5078125 0.9765625
vt 0.5092773 0.9731445
vt 0.5107422 0.9770508
vt 0.5097656 0.9770508
vt 0.5107422 0.9785156
vt 0.5097656 0.9780273
vt 0.5078125 0.980957
vt 0.5083008 0.9799805
vt 0.5068359 0.9780273
vt 0.5073242 0.9775391
vt 0.5087891 0.9765625
vt 0.5087891 0.9775391
vt 0.5224609 0.9584961
vt 0.5024414 0.956543
vt 0.5229492 0.9570313
vt 0.5229492 0.9589844
vt 0.5234375 0.9575195
vt 0.5253906 0.9477539
vt 0.5253906 0.9482422
vt 0.5126953 0.9775391
vt 0.512207 0.9775391
vt 0.512207 0.9790039
vt 0.512207 0.9785156
vt 0.5117188 0.9829102
vt 0.5112305 0.9824219
vt 0.5024414 0.9550781
vt 0.5019531 0.9550781
vt 0.5019531 0.956543
vt 0.5019531 0.9448242
vt 0.5024414 0.9448242
vt 0.5136719 0.9482422
vt 0.5039063 0.9829102
vt 0.5039063 0.9833984
vt 0.5112305 0.9829102
vt 0.5043945 0.9775391
vt 0.5039063 0.9775391
vt 0.5039063 0.9760742
vt 0.5043945 0.9765625
vt 0.503418 0.9829102
vt 0.559082 0.8979492
vt 0.5488281 0.9052734
vt 0.5488281 0.9057617
vt 0.5595703 0.8984375
vt 0.5429688 0.9165039
vt 0.5483398 0.9057617
vt 0.5424805 0.9160156
vt 0.5424805 0.8935547
vt 0.5424805 0.8935547
vt 0.5385742 0.9038086
vt 0.5380859 0.8935547
vt 0.5424805 0.8935547
vt 0.5561523 0.8896484
vt 0.5561523 0.8901367
vt 0.5380859 0.8930664
vt 0.5385742 0.9033203
vt 0.5332031 0.8886719
vt 0.5332031 0.8891602
vt 0.5375977 0.8935547
vt 0.5336914 0.8969727
vt 0.5332031 0.8969727
vt 0.5327148 0.8886719
vt 0.5332031 0.8969727
vt 0.534668 0.9018555
vt 0.5341797 0.9023438
vt 0.534668 0.9023438
vt 0.5385742 0.9038086
vt 0.5332031 0.9072266
vt 0.5327148 0.9072266
vt 0.5385742 0.9106445
vt 0.5385742 0.9111328
vt 0.5390625 0.9111328
vt 0.5424805 0.9165039
vt 0.5517578 0.921875
vt 0.5629883 0.9003906
vt 0.5527344 0.9213867
vt 0.5634766 0.9018555
vt 0.5356445 0.8774414
vt 0.5576172 0.8837891
vt 0.5366211 0.8769531
vt 0.5566406 0.8828125
vt 0.5117188 0.9423828
vt 0.5073242 0.9414063
vt 0.5200195 0.9453125
vn 0.00104461 0.9999974 0.002072528
vn 0.01292179 0.9990395 -0.04186865
vn 0.6159257 0.7195774 -0.3206927
vn 0.004288491 0.9836684 -0.1799394
vn -0.01495603 0.9993081 -0.03405449
vn -0.6122059 0.7339888 -0.294048
vn -0.05906245 0.1639369 -0.9847012
vn -0.6052708 0.453629 -0.6541162
vn 0.0003536277 0.0101762 -0.9999481
vn 0.01789356 0.3733739 -0.9275084
vn 0.04407888 0.1519278 -0.9874083
vn 0.6374753 0.4081089 -0.6535077
vn -0.01076107 0.856262 -0.5164297
vn -0.01142732 0.7252912 -0.6883473
vn 0.0356541 0.9823946 0.1833835
vn -0.02862055 0.9865966 0.1606487
vn 0.02949915 0.1685615 0.9852497
vn 0.8951429 0.2364717 -0.3778893
vn 0.9213377 0.05296291 -0.3851387
vn 0.03952163 -0.0123929 0.9991418
vn 0.921167 0.03972714 -0.3871346
vn 0.8860369 0.2497258 -0.3906094
vn 0.05203842 0.997892 -0.03877622
vn 0.9123346 0.05212126 -0.4061144
vn 0.07362492 0.160377 -0.9843061
vn 0.9119531 0.04344272 -0.4079879
vn 0.08974565 -0.09532316 -0.9913926
vn -0.02381245 0.1548816 0.987646
vn -0.9758552 0.03721005 -0.2152259
vn -0.9510162 0.2257874 -0.2111593
vn -0.9750343 0.03380822 -0.2194656
vn -0.02582413 -0.004278254 0.9996573
vn 0.0004914461 -0.001782008 0.9999983
vn -0.08054574 -0.09044056 -0.9926394
vn 0.1263039 -0.7704911 -0.6248126
vn 0.1615165 -0.7651643 -0.6232463
vn -0.06690447 0.155369 -0.9855883
vn -0.9712058 0.0368792 -0.2353704
vn -0.9446386 0.2374078 -0.2264849
vn -0.04989992 0.9978496 -0.04249967
vn -0.9709048 0.02841298 -0.237774
vn 0.1615165 -0.7651643 -0.6232463
vn 0.172749 -0.7751409 -0.6077124
vn 0.9141767 0.03779322 -0.4035501
vn 0.9119531 0.04344272 -0.4079879
vn 0.921167 0.03972714 -0.3871346
vn 0.2753356 -0.9595417 -0.0589069
vn 0.3037502 -0.952402 -0.02581372
vn 0.2318245 -0.9718564 -0.04186322
vn 0.1130227 -0.784536 -0.6096959
vn 0.2448047 -0.9693093 -0.02258704
vn 0.2266811 -0.9737024 -0.02278576
vn -0.9720122 0.02814254 -0.2332387
vn -0.9709048 0.02841298 -0.237774
vn 0.1263039 -0.7704911 -0.6248126
vn -0.9732362 0.03052951 -0.2277703
vn 0.2506387 -0.9678091 -0.02292849
vn -0.9750343 0.03380822 -0.2194656
vn -0.5798286 -0.6343266 0.5113009
vn -0.5538239 -0.7296125 0.4011789
vn 0.2315172 -0.9727451 0.01291364
vn -0.4414869 -0.7265769 0.5264745
vn -0.02582413 -0.004278254 0.9996573
vn -0.001627864 -0.01327334 0.9999106
vn 0.2616391 -0.9651036 0.01096338
vn 0.008509521 -0.01040167 0.9999098
vn 0.8608255 -0.3059365 0.4066722
vn 0.1608041 -0.6936292 0.7021543
vn 0.002818702 -0.4944051 0.8692271
vn 0.0004914461 -0.001782008 0.9999983
vn -0.2867258 -0.6004701 0.7464744
vn 0.0009080829 -0.02005553 0.9997985
vn 0.2459779 -0.9691498 -0.01560767
vn 0.03952163 -0.0123929 0.9991418
vn 0.9213377 0.05296291 -0.3851387
vn 0.9123346 0.05212126 -0.4061144
vn 0.8951429 0.2364717 -0.3778893
vn 0.8860369 0.2497258 -0.3906094
vn -0.9758552 0.03721005 -0.2152259
vn -0.9712058 0.0368792 -0.2353704
vn -0.9510162 0.2257874 -0.2111593
vn -0.9446386 0.2374078 -0.2264849
vn 0.008509521 -0.01040167 0.9999098
vn -0.001627864 -0.01327334 0.9999106
vn 0.0009080829 -0.02005553 0.9997985
g m_dlc07_stone_broken_block_06_0
f 3/3/3 2/2/2 1/1/1
f 4/4/4 3/3/3 1/1/1
f 1/1/1 5/5/5 4/4/4
f 5/5/5 6/6/6 4/4/4
f 5/5/5 7/7/7 6/6/6
f 7/7/7 8/8/8 6/6/6
f 7/7/7 9/9/9 8/8/8
f 9/9/9 10/10/10 8/8/8
f 9/9/9 11/11/11 10/10/10
f 11/11/11 12/12/12 10/10/10
f 2/2/2 3/3/3 12/12/12
f 11/11/11 2/2/2 12/12/12
f 3/3/3 13/13/13 12/12/12
f 4/4/4 6/6/6 13/13/13
f 4/4/4 13/13/13 3/3/3
f 13/13/13 14/14/14 12/12/12
f 6/6/6 8/8/8 14/14/14
f 13/13/13 6/6/6 14/14/14
f 10/10/10 14/14/14 8/8/8
f 12/12/12 14/14/14 10/10/10
f 1/1/1 15/15/15 5/5/5
f 16/16/16 15/15/15 1/1/1
f 17/17/17 15/15/15 16/16/16
f 18/18/18 15/15/15 17/17/17
f 19/19/19 18/18/18 17/17/17
f 17/17/17 20/20/20 19/19/19
f 20/20/20 21/21/21 19/19/19
f 18/18/18 22/22/22 15/15/15
f 22/22/22 23/23/23 15/15/15
f 22/22/22 24/24/24 23/23/23
f 24/24/24 25/25/25 23/23/23
f 24/24/24 26/26/26 25/25/25
f 26/26/26 27/27/27 25/25/25
f 28/28/28 17/17/17 16/16/16
f 28/28/28 16/16/16 29/29/29
f 16/16/16 30/30/30 29/29/29
f 29/29/29 31/31/31 28/28/28
f 31/31/31 32/32/32 28/28/28
f 33/33/33 17/17/17 28/28/28
f 23/23/23 25/25/25 7/7/7
f 7/7/7 25/25/25 27/27/27
f 5/5/5 23/23/23 7/7/7
f 15/15/15 23/23/23 5/5/5
f 9/9/9 7/7/7 27/27/27
f 34/34/34 9/9/9 27/27/27
f 35/35/35 34/34/34 27/27/27
f 36/36/36 35/35/35 27/27/27
f 36/36/36 27/27/27 26/26/26
f 34/34/34 37/37/37 9/9/9
f 37/37/37 34/34/34 38/38/38
f 37/37/37 38/38/38 39/39/39
f 40/40/40 39/39/39 30/30/30
f 40/40/40 37/37/37 39/39/39
f 16/16/16 40/40/40 30/30/30
f 34/34/34 41/41/41 38/38/38
f 41/41/41 34/34/34 35/35/35
f 37/37/37 11/11/11 9/9/9
f 2/2/2 11/11/11 37/37/37
f 40/40/40 2/2/2 37/37/37
f 1/1/1 2/2/2 40/40/40
f 16/16/16 1/1/1 40/40/40
f 44/44/44 43/43/43 42/42/42
f 45/45/45 44/44/44 42/42/42
f 46/46/46 44/44/44 45/45/45
f 47/47/47 44/44/44 46/46/46
f 44/44/44 47/47/47 43/43/43
f 48/48/48 47/47/47 46/46/46
f 47/47/47 49/49/49 43/43/43
f 49/49/49 50/50/50 43/43/43
f 42/42/42 43/43/43 50/50/50
f 49/49/49 47/47/47 51/51/51
f 51/51/51 52/52/52 49/49/49
f 49/49/49 52/52/52 53/53/53
f 50/50/50 49/49/49 53/53/53
f 50/50/50 53/53/53 54/54/54
f 55/55/55 50/50/50 54/54/54
f 55/55/55 42/42/42 50/50/50
f 52/52/52 56/56/56 53/53/53
f 51/51/51 57/57/57 52/52/52
f 53/53/53 56/56/56 58/58/58
f 58/58/58 54/54/54 53/53/53
f 58/58/58 56/56/56 59/59/59
f 56/56/56 60/60/60 59/59/59
f 56/56/56 52/52/52 60/60/60
f 60/60/60 52/52/52 61/61/61
f 62/62/62 60/60/60 61/61/61
f 59/59/59 60/60/60 62/62/62
f 59/59/59 62/62/62 63/63/63
f 63/63/63 58/58/58 59/59/59
f 62/62/62 64/64/64 63/63/63
f 64/64/64 62/62/62 61/61/61
f 61/61/61 65/65/65 64/64/64
f 65/65/65 61/61/61 52/52/52
f 57/57/57 65/65/65 52/52/52
f 65/65/65 66/66/66 64/64/64
f 65/65/65 57/57/57 67/67/67
f 66/66/66 65/65/65 67/67/67
f 57/57/57 68/68/68 67/67/67
f 67/67/67 69/69/69 66/66/66
f 67/67/67 68/68/68 69/69/69
f 69/69/69 70/70/70 66/66/66
f 70/70/70 69/69/69 71/71/71
f 69/69/69 68/68/68 71/71/71
f 72/72/72 70/70/70 71/71/71
f 71/71/71 68/68/68 73/73/73
f 73/73/73 72/72/72 71/71/71
f 72/72/72 73/73/73 48/48/48
f 74/74/74 72/72/72 48/48/48
f 68/68/68 51/51/51 73/73/73
f 47/47/47 48/48/48 73/73/73
f 51/51/51 47/47/47 73/73/73
f 46/46/46 74/74/74 48/48/48
f 57/57/57 51/51/51 68/68/68
f 45/45/45 75/75/75 46/46/46
f 45/45/45 76/76/76 75/75/75
f 75/75/75 76/76/76 77/77/77
f 76/76/76 78/78/78 77/77/77
f 58/58/58 79/79/79 54/54/54
f 79/79/79 80/80/80 54/54/54
f 80/80/80 79/79/79 81/81/81
f 82/82/82 80/80/80 81/81/81
f 83/83/83 33/33/33 28/28/28
f 28/28/28 84/84/84 83/83/83
f 28/28/28 32/32/32 84/84/84
f 33/33/33 85/85/85 17/17/17
f 85/85/85 20/20/20 17/17/17
