g m_dlc07_flagstone_02
v -1.299698 0.5386233 1.914383
v -1.300862 -0.2754692 1.914383
v -1.393703 -0.2710267 1.821038
v -1.393703 0.5386233 1.820374
v -1.315658 -0.3832049 1.83345
v -1.393703 -0.4479336 1.220585
v -1.314897 -0.500079 1.450712
v -1.03672 -0.50065 1.83093
v -0.8815145 -0.5333215 1.819398
v -1.303764 -0.5333215 1.245631
v -1.300862 -0.2754692 1.914383
v -0.8807431 -0.4480182 1.914383
v -1.372726 0.5446012 0.4762225
v -1.374367 -0.545047 0.4476764
v -1.28454 -0.6326237 0.4331012
v -1.283494 -0.6326237 0.3019904
v 0.06260284 -0.6326237 0.2129108
v 0.05762848 -0.6326237 0.3440607
v -1.373351 -0.5446747 0.3163251
v -1.393703 -0.439321 -1.82038
v -1.393703 0.03399879 -1.821041
v -1.299698 -0.439321 -1.914383
v -1.300862 0.03844116 -1.914383
v -1.393703 0.5472359 -0.1161407
v -1.299698 -0.5333215 -1.82038
v -1.315658 0.1461767 -1.833456
v -0.0002377319 -0.5333215 1.819791
v -0.005533752 -0.4445271 1.914383
v 1.299699 -0.5333215 1.820374
v 1.299699 -0.439321 1.914383
v 1.393703 -0.439321 1.820374
v 1.393703 0.5386233 1.820374
v 1.299699 0.5386233 1.914383
v 1.280933 -0.6326237 0.2628998
v 1.373577 -0.5386232 0.2656451
v 1.373405 -0.5386232 0.1351508
v 1.280778 -0.6326237 0.1322858
v 1.299699 -0.5333215 -1.82038
v 1.393703 -0.439321 -1.82038
v 1.299699 -0.439321 -1.914383
v 1.299699 0.5386233 -1.914383
v 1.393703 0.5386233 -1.82038
v 0.4810226 -0.5333215 -1.82038
v 0.4826339 -0.439321 -1.914383
v 0.3700357 -0.4547534 -1.840724
v 0.1138467 -0.5616257 -1.409555
v 0.1286356 -0.4914097 -1.564732
v -0.1070883 -0.5333215 -1.82038
v -0.004565124 -0.4456297 -1.832385
v -0.1090494 -0.439321 -1.914383
v 1.299699 0.6326237 -1.82038
v 1.299699 0.5386233 -1.914383
v 0.1206052 0.546074 -1.914383
v 0.1153397 0.6326237 -1.819534
v -0.07668427 0.5473201 -1.914383
v -0.07745636 0.6326237 -1.819398
v -0.232662 0.5999521 -1.830937
v -1.314897 0.5993813 -0.3462591
v -1.303764 0.6326237 -0.1411884
v -1.300862 0.03844116 -1.914383
v -1.315658 0.1461767 -1.833456
v -1.393703 0.5472359 -0.1161407
v -1.393703 0.03399879 -1.821041
v -1.372726 0.5446012 0.4762225
v -1.282876 0.6326237 0.4786468
v -1.393703 0.5386233 1.820374
v -1.299698 0.6326237 1.820374
v 0.03180084 0.6326237 0.3835284
v -0.02268219 0.6326237 1.820374
v -0.02444183 0.5386233 1.914383
v -1.299698 0.5386233 1.914383
v -0.8807431 -0.4480182 1.914383
v -0.005533752 -0.4445271 1.914383
v -1.300862 -0.2754692 1.914383
v 1.299699 0.5386233 1.914383
v 1.299699 0.6326237 1.820374
v 1.299699 -0.439321 1.914383
v 1.376305 0.538623 0.4753778
v 1.196622 0.6326237 0.4817779
v 1.235429 0.5457152 0.3635468
v 1.373316 0.2498594 0.3073456
v 1.303633 0.3950958 0.282569
v 1.375426 0.538623 -0.1013049
v 1.256931 0.5662821 0.0453363
v 1.191416 0.6326237 -0.07990661
v 0.7597336 0.6326237 0.3669171
v 0.9746951 0.5846465 0.3135016
v 0.115267 0.2122231 -1.914383
v -0.1090494 -0.439321 -1.914383
v -0.004565124 -0.4456297 -1.832385
v 0.133082 -0.02810295 -1.862114
v 0.4826339 -0.439321 -1.914383
v 0.3700357 -0.4547534 -1.840724
v -1.299698 -0.439321 -1.914383
v 1.299699 -0.439321 -1.914383
v 0.1286356 -0.4914097 -1.564732
vt 0.902832 0.1356201
vt 0.8876953 0.1381836
vt 0.8881836 0.1407471
vt 0.9033203 0.1383057
vt 0.8857422 0.1405029
vt 0.887207 0.1530762
vt 0.8847656 0.1485596
vt 0.8798828 0.1408691
vt 0.8769531 0.1411133
vt 0.8847656 0.15271
vt 0.8862305 0.1376953
vt 0.8769531 0.1384277
vt 0.9067383 0.1668701
vt 0.8867188 0.168457
vt 0.8842773 0.1688232
vt 0.8842773 0.1713867
vt 0.859375 0.1738281
vt 0.859375 0.1711426
vt 0.8867188 0.1710205
vt 0.8876953 0.2133789
vt 0.8955078 0.2149658
vt 0.8862305 0.2158203
vt 0.8950195 0.2176514
vt 0.9072266 0.1798096
vt 0.8852539 0.2132568
vt 0.8974609 0.2169189
vt 0.8598633 0.1408691
vt 0.8598633 0.1381836
vt 0.8359375 0.1429443
vt 0.8349609 0.1403809
vt 0.8334961 0.1428223
vt 0.8154297 0.1407471
vt 0.815918 0.1379395
vt 0.8369141 0.1732178
vt 0.8344727 0.1732178
vt 0.8344727 0.1757813
vt 0.8369141 0.1757813
vt 0.8364258 0.2138672
vt 0.8339844 0.2138672
vt 0.8354492 0.2163086
vt 0.8168945 0.2188721
vt 0.8164063 0.2161865
vt 0.8515625 0.215332
vt 0.8515625 0.2180176
vt 0.8540039 0.2164307
vt 0.8588867 0.2072754
vt 0.8588867 0.2108154
vt 0.8637695 0.215332
vt 0.8618164 0.2165527
vt 0.8642578 0.2180176
vt 0.8139648 0.2158203
vt 0.8144531 0.2183838
vt 0.7919922 0.2186279
vt 0.7919922 0.2159424
vt 0.7885742 0.2183838
vt 0.7885742 0.2159424
vt 0.7856445 0.2163086
vt 0.7646484 0.1873779
vt 0.7646484 0.1829834
vt 0.7646484 0.2232666
vt 0.7646484 0.2203369
vt 0.762207 0.1828613
vt 0.762207 0.2207031
vt 0.762207 0.170166
vt 0.7646484 0.170166
vt 0.762207 0.1419678
vt 0.7646484 0.142334
vt 0.7895508 0.1710205
vt 0.7880859 0.1414795
vt 0.7880859 0.1386719
vt 0.7641602 0.1396484
vt 0.7714844 0.1192017
vt 0.7885742 0.1187134
vt 0.7636719 0.1230469
vt 0.8134766 0.1385498
vt 0.8129883 0.1411133
vt 0.8134766 0.1188354
vt 0.8144531 0.1678467
vt 0.8110352 0.1679688
vt 0.8125 0.1704102
vt 0.8193359 0.1722412
vt 0.815918 0.1728516
vt 0.8144531 0.1812744
vt 0.8125 0.1781006
vt 0.8110352 0.1806641
vt 0.8032227 0.1710205
vt 0.8076172 0.1721191
vt 0.7919922 0.2255859
vt 0.7856445 0.2376709
vt 0.7875977 0.2385254
vt 0.7919922 0.2304688
vt 0.7993164 0.2385254
vt 0.7973633 0.2391357
vt 0.7631836 0.2329102
vt 0.8149414 0.237915
vt 0.7915039 0.2420654
vn -0.05491136 0.08555004 0.9948196
vn -0.05353216 -0.01644807 0.9984307
vn -0.9990979 -0.01672103 0.03903479
vn -0.9956084 0.08617242 0.0365838
vn -0.5651728 -0.7050312 0.4283814
vn -0.99945 -0.03149903 -0.01036663
vn -0.5231084 -0.8341194 0.1749354
vn -0.2522767 -0.8729197 0.4175736
vn -0.01694775 -0.994489 0.1034624
vn -0.04084611 -0.9963228 0.07531659
vn -0.05353216 -0.01644807 0.9984307
vn -0.00300809 -0.04594627 0.9989393
vn -0.9986267 0.05238951 -0.0003757636
vn -0.9979954 -0.0627296 -0.008384354
vn -0.04582117 -0.9966215 0.06816236
vn -0.0722666 -0.9964176 -0.04392449
vn -0.00172212 -0.9989747 -0.04524
vn -0.004503716 -0.9979786 0.06339048
vn -0.995249 -0.09714285 0.00654208
vn -0.9950846 -0.09788162 -0.01502587
vn -0.9989951 0.0380935 -0.02361239
vn -0.04018251 -0.09744478 -0.9944295
vn -0.05685106 0.05894729 -0.9966409
vn -0.9997117 0.02285637 0.007350935
vn -0.06820078 -0.9943362 -0.08151209
vn -0.4658405 0.8139759 -0.3470386
vn -0.005208433 -0.9932688 0.1157147
vn 0.00013425 -0.07534626 0.9971575
vn 0.0721333 -0.990652 0.1157819
vn 0.06279927 -0.08291383 0.9945761
vn 0.9960526 -0.07728754 0.04365513
vn 0.9937616 0.1045794 0.03874384
vn 0.0625563 0.08395958 0.9945037
vn 0.07156772 -0.9956936 0.05892679
vn 0.9950665 -0.09897972 -0.006760956
vn 0.9969628 -0.07764748 0.005983796
vn 0.07137872 -0.9964107 -0.04550657
vn 0.07612234 -0.9940664 -0.07770088
vn 0.9966602 -0.07449964 -0.03344138
vn 0.07775061 -0.06541934 -0.9948242
vn 0.07575985 0.09090183 -0.9929739
vn 0.9942082 0.1034205 -0.02922664
vn -0.003488937 -0.9971507 -0.07535433
vn -0.0183946 -0.06366708 -0.9978016
vn -0.5263563 -0.4880347 -0.6962551
vn -0.001761002 -0.9987414 -0.05012538
vn -0.01975445 -0.7996639 -0.6001229
vn 0.001433988 -0.9969024 -0.07863484
vn 0.6681234 -0.4168524 -0.6163159
vn 0.02280697 -0.09135994 -0.9955568
vn 0.06269293 0.9973058 -0.03809121
vn 0.07575985 0.09090183 -0.9929739
vn 0.0001712806 0.06075231 -0.9981528
vn 7.741965E-05 0.999661 -0.02603518
vn -0.01160681 0.03966428 -0.9991456
vn -0.01133517 0.9998179 -0.01535616
vn -0.302647 0.8830441 -0.3586615
vn -0.4800287 0.8533616 -0.2033378
vn -0.02317419 0.9997202 -0.004755157
vn -0.05685106 0.05894729 -0.9966409
vn -0.4658405 0.8139759 -0.3470386
vn -0.9997117 0.02285637 0.007350935
vn -0.9989951 0.0380935 -0.02361239
vn -0.9986267 0.05238951 -0.0003757636
vn -0.04257708 0.9990932 0.0001040131
vn -0.9956084 0.08617242 0.0365838
vn -0.06173173 0.9963136 0.0595676
vn 0 1 0
vn 0 0.9979532 0.06394865
vn 0 0.08807902 0.9961134
vn -0.05491136 0.08555004 0.9948196
vn -0.00300809 -0.04594627 0.9989393
vn 0.00013425 -0.07534626 0.9971575
vn -0.05353216 -0.01644807 0.9984307
vn 0.0625563 0.08395958 0.9945037
vn 0.06641816 0.9959583 0.0604639
vn 0.06279927 -0.08291383 0.9945761
vn 0.995672 0.08984348 -0.0237778
vn 0.05638694 0.998323 -0.01310263
vn 0.3810615 0.6898257 -0.6155751
vn 0.9999864 0.004972741 -0.001600386
vn 0.7527306 0.6572478 0.03770968
vn 0.9966737 0.08008257 0.01510863
vn 0.5212407 0.7807496 0.3445842
vn 0.0411449 0.9991373 0.005645788
vn 0.001490079 0.9999989 -1.977895E-06
vn 0.2953116 0.9553558 0.009285718
vn -5.353577E-05 -0.002735422 -0.9999963
vn 0.02280697 -0.09135994 -0.9955568
vn 0.6681234 -0.4168524 -0.6163159
vn -0.01072009 -0.3125894 -0.9498277
vn -0.0183946 -0.06366708 -0.9978016
vn -0.5263563 -0.4880347 -0.6962551
vn -0.04018251 -0.09744478 -0.9944295
vn 0.07775061 -0.06541934 -0.9948242
vn -0.01975445 -0.7996639 -0.6001229
g m_dlc07_flagstone_02_0
f 3/3/3 2/2/2 1/1/1
f 4/4/4 3/3/3 1/1/1
f 2/2/2 3/3/3 5/5/5
f 5/5/5 3/3/3 6/6/6
f 7/7/7 5/5/5 6/6/6
f 7/7/7 8/8/8 5/5/5
f 9/9/9 8/8/8 7/7/7
f 10/10/10 9/9/9 7/7/7
f 10/10/10 7/7/7 6/6/6
f 11/11/11 5/5/5 8/8/8
f 12/12/12 11/11/11 8/8/8
f 9/9/9 12/12/12 8/8/8
f 6/6/6 3/3/3 13/13/13
f 3/3/3 4/4/4 13/13/13
f 13/13/13 14/14/14 6/6/6
f 10/10/10 6/6/6 14/14/14
f 15/15/15 10/10/10 14/14/14
f 15/15/15 14/14/14 16/16/16
f 16/16/16 17/17/17 15/15/15
f 17/17/17 18/18/18 15/15/15
f 14/14/14 19/19/19 16/16/16
f 19/19/19 14/14/14 13/13/13
f 20/20/20 19/19/19 13/13/13
f 16/16/16 19/19/19 20/20/20
f 13/13/13 21/21/21 20/20/20
f 20/20/20 21/21/21 22/22/22
f 21/21/21 23/23/23 22/22/22
f 13/13/13 24/24/24 21/21/21
f 25/25/25 20/20/20 22/22/22
f 25/25/25 16/16/16 20/20/20
f 23/23/23 21/21/21 26/26/26
f 15/15/15 18/18/18 27/27/27
f 27/27/27 10/10/10 15/15/15
f 27/27/27 9/9/9 10/10/10
f 12/12/12 9/9/9 27/27/27
f 28/28/28 12/12/12 27/27/27
f 28/28/28 27/27/27 29/29/29
f 30/30/30 28/28/28 29/29/29
f 31/31/31 30/30/30 29/29/29
f 30/30/30 31/31/31 32/32/32
f 33/33/33 30/30/30 32/32/32
f 31/31/31 29/29/29 34/34/34
f 34/34/34 29/29/29 27/27/27
f 35/35/35 31/31/31 34/34/34
f 35/35/35 34/34/34 36/36/36
f 34/34/34 37/37/37 36/36/36
f 36/36/36 37/37/37 38/38/38
f 39/39/39 36/36/36 38/38/38
f 40/40/40 39/39/39 38/38/38
f 40/40/40 41/41/41 39/39/39
f 41/41/41 42/42/42 39/39/39
f 37/37/37 34/34/34 18/18/18
f 17/17/17 37/37/37 18/18/18
f 18/18/18 34/34/34 27/27/27
f 40/40/40 38/38/38 43/43/43
f 43/43/43 38/38/38 37/37/37
f 44/44/44 40/40/40 43/43/43
f 44/44/44 43/43/43 45/45/45
f 45/45/45 43/43/43 46/46/46
f 37/37/37 46/46/46 43/43/43
f 37/37/37 17/17/17 46/46/46
f 47/47/47 45/45/45 46/46/46
f 46/46/46 48/48/48 47/47/47
f 48/48/48 49/49/49 47/47/47
f 49/49/49 48/48/48 50/50/50
f 50/50/50 48/48/48 25/25/25
f 25/25/25 48/48/48 46/46/46
f 22/22/22 50/50/50 25/25/25
f 46/46/46 16/16/16 25/25/25
f 46/46/46 17/17/17 16/16/16
f 42/42/42 52/52/52 51/51/51
f 52/52/52 53/53/53 51/51/51
f 53/53/53 54/54/54 51/51/51
f 53/53/53 55/55/55 54/54/54
f 55/55/55 56/56/56 54/54/54
f 56/56/56 55/55/55 57/57/57
f 56/56/56 57/57/57 58/58/58
f 59/59/59 56/56/56 58/58/58
f 55/55/55 60/60/60 57/57/57
f 60/60/60 61/61/61 57/57/57
f 58/58/58 57/57/57 61/61/61
f 58/58/58 61/61/61 62/62/62
f 59/59/59 58/58/58 62/62/62
f 61/61/61 63/63/63 62/62/62
f 59/59/59 62/62/62 64/64/64
f 65/65/65 59/59/59 64/64/64
f 65/65/65 64/64/64 66/66/66
f 67/67/67 65/65/65 66/66/66
f 68/68/68 65/65/65 67/67/67
f 68/68/68 54/54/54 56/56/56
f 56/56/56 59/59/59 68/68/68
f 59/59/59 65/65/65 68/68/68
f 69/69/69 68/68/68 67/67/67
f 70/70/70 69/69/69 67/67/67
f 71/71/71 70/70/70 67/67/67
f 67/67/67 66/66/66 71/71/71
f 70/70/70 71/71/71 72/72/72
f 72/72/72 73/73/73 70/70/70
f 71/71/71 74/74/74 72/72/72
f 70/70/70 75/75/75 69/69/69
f 75/75/75 76/76/76 69/69/69
f 75/75/75 32/32/32 76/76/76
f 77/77/77 75/75/75 70/70/70
f 73/73/73 77/77/77 70/70/70
f 32/32/32 78/78/78 76/76/76
f 78/78/78 79/79/79 76/76/76
f 68/68/68 69/69/69 79/79/79
f 69/69/69 76/76/76 79/79/79
f 80/80/80 79/79/79 78/78/78
f 80/80/80 78/78/78 81/81/81
f 81/81/81 78/78/78 32/32/32
f 82/82/82 80/80/80 81/81/81
f 81/81/81 83/83/83 82/82/82
f 83/83/83 84/84/84 82/82/82
f 83/83/83 85/85/85 84/84/84
f 84/84/84 85/85/85 86/86/86
f 87/87/87 84/84/84 86/86/86
f 79/79/79 80/80/80 87/87/87
f 86/86/86 79/79/79 87/87/87
f 82/82/82 87/87/87 80/80/80
f 84/84/84 87/87/87 82/82/82
f 81/81/81 32/32/32 31/31/31
f 31/31/31 35/35/35 81/81/81
f 83/83/83 42/42/42 85/85/85
f 42/42/42 83/83/83 81/81/81
f 42/42/42 51/51/51 85/85/85
f 39/39/39 42/42/42 81/81/81
f 81/81/81 36/36/36 39/39/39
f 35/35/35 36/36/36 81/81/81
f 79/79/79 86/86/86 68/68/68
f 68/68/68 86/86/86 85/85/85
f 85/85/85 51/51/51 54/54/54
f 54/54/54 68/68/68 85/85/85
f 90/90/90 89/89/89 88/88/88
f 91/91/91 90/90/90 88/88/88
f 88/88/88 92/92/92 91/91/91
f 92/92/92 93/93/93 91/91/91
f 88/88/88 89/89/89 55/55/55
f 55/55/55 53/53/53 88/88/88
f 92/92/92 88/88/88 53/53/53
f 89/89/89 60/60/60 55/55/55
f 89/89/89 94/94/94 60/60/60
f 92/92/92 53/53/53 52/52/52
f 52/52/52 95/95/95 92/92/92
f 91/91/91 96/96/96 90/90/90
f 93/93/93 96/96/96 91/91/91
