g m_dlc07_stone_block_trim_02
v 1.2 -0.2493671 -0.09533478
v 1.2 -0.4640344 -0.09533478
v 1.167269 -0.4640344 -0.06260345
v 1.167269 -0.2493671 -0.06260345
v 1.167269 -0.4967657 -0.09533478
v 1.167269 -0.4967657 -0.7375863
v 1.2 -0.4640344 -0.7375863
v 1.167269 -0.4640344 -0.7703177
v 1.167269 -0.2663049 -0.7703174
v 1.2 -0.2860819 -0.7364783
v 1.2 -0.2567444 -0.7246704
v 1.167269 -0.237164 -0.7582769
v 1.167269 -0.01210144 -0.5340094
v 1.2 -0.04430145 -0.5141668
v 1.2 -0.03251068 -0.4847571
v 1.2 -0.03273132 -0.09533478
v 1.167269 -2.865338E-14 -0.504867
v 1.167269 -2.865338E-14 -0.09533478
v 1.167269 -0.03273132 -0.06260345
v 1.167269 -0.03273132 -0.06260345
v 0.03273132 -0.03273132 -0.06260345
v 0.03273132 -8.034679E-16 -0.09533478
v 1.167269 -2.865338E-14 -0.09533478
v 1.167269 -2.865338E-14 -0.504867
v 0.03273132 -8.034679E-16 -0.504867
v 0.03273132 -0.01210144 -0.5340094
v 1.167269 -0.01210144 -0.5340094
v 0.03273132 -0.2493671 -0.06260345
v 1.167269 -0.2493671 -0.06260345
v 0.03273132 -0.4640344 -0.06260345
v 1.167269 -0.4640344 -0.06260345
v 1.167269 -0.4967657 -0.09533478
v 0.03273132 -0.4967657 -0.09533478
v 0.03273132 -0.0958017 -0.6174139
v 0.1579627 -0.1695486 -0.6909003
v 1.167269 -0.237164 -0.7582769
v 0.17862 -0.237164 -0.7582769
v 0.1856415 -0.2663049 -0.7703174
v 1.167269 -0.2663049 -0.7703174
v 0.03273132 -0.4640344 -0.7703177
v 1.167269 -0.4640344 -0.7703177
v 0.03273132 -0.4967657 -0.7375863
v 1.167269 -0.4967657 -0.7375863
v 1.167269 -0.4967657 -0.09533478
v 0.03273132 -0.4967657 -0.09533478
v 0.03273132 -0.3839099 -0.7703174
v 0.03273132 -0.2493671 -0.06260345
v 0.03273132 -0.4640344 -0.06260345
v 0 -0.4640344 -0.09533478
v 0 -0.2493671 -0.09533478
v 0.03273132 -0.4967657 -0.09533478
v 0 -0.4640344 -0.7375863
v 0.03273132 -0.4967657 -0.7375863
v 0.03273132 -0.4640344 -0.7703177
v 0.03273132 -0.03273132 -0.06260345
v 0 -0.03273132 -0.09533478
v 0.03273132 -8.034679E-16 -0.09533478
v 0.03273132 -8.034679E-16 -0.504867
v 0 -0.03251068 -0.4847571
v 0 -0.04430145 -0.5141668
v 0.03273132 -0.01210144 -0.5340094
v 0 -0.395502 -0.7371594
v 0.03273132 -0.3839099 -0.7703174
v 0 -0.2920587 -0.636654
v 0 -0.2590274 -0.6308038
v 0 -0.1297446 -0.5988302
v 0.03273132 -0.0958017 -0.6174139
v 0.09822968 -0.2366 -0.6937207
v 0.04087433 -0.2400223 -0.6676428
v 0.04091919 -0.2947214 -0.6901215
v 0.07917694 -0.2899377 -0.7263977
v 0.1532861 -0.237073 -0.7478613
v 0.1501233 -0.2707599 -0.7620385
v 0.1856415 -0.2663049 -0.7703174
v 0.17862 -0.237164 -0.7582769
v 0.1373352 -0.1857107 -0.6956421
v 0.1579627 -0.1695486 -0.6909003
v 0.03986633 -0.122204 -0.6367517
v 0.03273132 -0.0958017 -0.6174139
v 0.0126297 -0.1486935 -0.623778
v 0 -0.1297446 -0.5988302
v 0.03273132 -0.3839099 -0.7703174
v 0.04079376 -0.3532098 -0.7626935
v 0 -0.395502 -0.7371594
v 0.007976685 -0.3596747 -0.7278894
v 0 -0.2920587 -0.636654
v 0.01103882 -0.2847635 -0.660249
v 0 -0.2590274 -0.6308038
v 0.01226105 -0.2510757 -0.6518909
vt 0.03735352 0.8071289
vt 0.03369141 0.8071289
vt 0.03356934 0.8081055
vt 0.037323 0.8081055
vt 0.03289795 0.8071289
vt 0.03292847 0.7954102
vt 0.03372192 0.7954102
vt 0.03359985 0.7944336
vt 0.03710938 0.7944336
vt 0.03674316 0.7954102
vt 0.03723145 0.7954102
vt 0.03768921 0.7949219
vt 0.04159546 0.7988281
vt 0.04086304 0.7993164
vt 0.04104614 0.7998047
vt 0.04104614 0.8071289
vt 0.0418396 0.7998047
vt 0.0418396 0.8071289
vt 0.0411377 0.8081055
vt 0.06329346 0.7617188
vt 0.04394531 0.7617188
vt 0.04394531 0.7626953
vt 0.06329346 0.7626953
vt 0.06329346 0.7700195
vt 0.04394531 0.7700195
vt 0.04394531 0.7709961
vt 0.06329346 0.7709961
vt 0.04394531 0.7578125
vt 0.06329346 0.7578125
vt 0.04394531 0.7539063
vt 0.06329346 0.7539063
vt 0.06329346 0.753418
vt 0.04394531 0.753418
vt 0.04394531 0.7729492
vt 0.04611206 0.7749023
vt 0.06329346 0.7768555
vt 0.04644775 0.7768555
vt 0.04656982 0.7773438
vt 0.06329346 0.7773438
vt 0.04394531 0.7807617
vt 0.06329346 0.7807617
vt 0.04394531 0.7817383
vt 0.06329346 0.7817383
vt 0.06329346 0.793457
vt 0.04394531 0.793457
vt 0.04394531 0.7792969
vt 0.007415771 0.7944336
vt 0.003681183 0.7949219
vt 0.003793716 0.7954102
vt 0.007423401 0.7954102
vt 0.003013611 0.7954102
vt 0.003803253 0.8071289
vt 0.003013611 0.8071289
vt 0.003612518 0.8081055
vt 0.01121521 0.7944336
vt 0.01111603 0.7954102
vt 0.01190186 0.7954102
vt 0.01194 0.8027344
vt 0.0111618 0.8027344
vt 0.01096344 0.8032227
vt 0.01171112 0.8037109
vt 0.004974365 0.8071289
vt 0.005008698 0.8081055
vt 0.006755829 0.8051758
vt 0.007324219 0.8051758
vt 0.009536743 0.8046875
vt 0.01030731 0.8051758
vt 0.008277893 0.809082
vt 0.009292603 0.8095703
vt 0.009536743 0.8085938
vt 0.008720398 0.8081055
vt 0.007156372 0.8085938
vt 0.007343292 0.8076172
vt 0.006725311 0.8076172
vt 0.006717682 0.8081055
vt 0.007335663 0.8095703
vt 0.00693512 0.8100586
vt 0.008674622 0.8115234
vt 0.00868988 0.8120117
vt 0.00932312 0.8115234
vt 0.009559631 0.8120117
vt 0.009727478 0.8061523
vt 0.009475708 0.8066406
vt 0.01053619 0.8066406
vt 0.0102005 0.8071289
vt 0.01053619 0.809082
vt 0.01010895 0.809082
vt 0.01030731 0.8095703
vt 0.009880066 0.8095703
vn 1 0 0
vn 1 0 0
vn 0 0 1
vn 0 0 1
vn 0 -1 0
vn 0 -1 0
vn 1 0 0
vn 0.02527074 -0.1431593 -0.989377
vn 0.0238998 0.04916026 -0.9985049
vn 1 0 0
vn 1 0 0
vn 0 0.7058557 -0.7083556
vn 0 0.7058557 -0.7083556
vn 1 0 0
vn 1 0 0
vn 1 0 0
vn 0 1 0
vn 0 1 0
vn 0 0 1
vn 0 0 1
vn 0 0 1
vn 0 1 0
vn 0 1 0
vn 0 1 0
vn 0 1 0
vn 0 0.7058557 -0.7083556
vn 0 0.7058557 -0.7083556
vn 0 0 1
vn 0 0 1
vn 0 0 1
vn 0 0 1
vn 0 -1 0
vn 0 -1 0
vn -0.03097176 0.7033294 -0.7101891
vn -0.002440685 0.7045829 -0.7096174
vn 0 0.7058557 -0.7083556
vn -0.003215739 0.6761913 -0.7367191
vn -0.001524315 0.03788175 -0.9992811
vn 0.0238998 0.04916026 -0.9985049
vn -0.0108794 -0.1452795 -0.9893308
vn 0.02527074 -0.1431593 -0.989377
vn 0 -1 0
vn 0 -1 0
vn 0 -1 0
vn 0 -1 0
vn -0.01228699 0.003552111 -0.9999182
vn 0 0 1
vn 0 0 1
vn -1 0 0
vn -1 0 0
vn 0 -1 0
vn -1 0 0
vn 0 -1 0
vn -0.0108794 -0.1452795 -0.9893308
vn 0 0 1
vn -1 0 0
vn 0 1 0
vn 0 1 0
vn -1 0 0
vn -1 0 0
vn 0 0.7058557 -0.7083556
vn -0.9997507 0.00425863 -0.02192082
vn -0.01228699 0.003552111 -0.9999182
vn -0.9999812 0.003578805 -0.005001525
vn -0.999592 0.007174393 -0.02764827
vn -0.9989163 0.02811421 -0.03709234
vn -0.03097176 0.7033294 -0.7101891
vn -0.5123122 0.460311 -0.7250173
vn -0.5123122 0.460311 -0.7250173
vn -0.5123122 0.460311 -0.7250173
vn -0.5123122 0.460311 -0.7250173
vn -0.5123122 0.460311 -0.7250173
vn -0.5123122 0.460311 -0.7250173
vn -0.001524315 0.03788175 -0.9992811
vn -0.003215739 0.6761913 -0.7367191
vn -0.5123122 0.460311 -0.7250173
vn -0.002440685 0.7045829 -0.7096174
vn -0.5123122 0.460311 -0.7250173
vn -0.03097176 0.7033294 -0.7101891
vn -0.5123122 0.460311 -0.7250173
vn -0.9989163 0.02811421 -0.03709234
vn -0.01228699 0.003552111 -0.9999182
vn -0.5123122 0.460311 -0.7250173
vn -0.9997507 0.00425863 -0.02192082
vn -0.5123122 0.460311 -0.7250173
vn -0.9999812 0.003578805 -0.005001525
vn -0.5123122 0.460311 -0.7250173
vn -0.999592 0.007174393 -0.02764827
vn -0.5123122 0.460311 -0.7250173
g m_dlc07_stone_block_trim_02_0
f 3/3/3 2/2/2 1/1/1
f 4/4/4 3/3/3 1/1/1
f 2/2/2 3/3/3 5/5/5
f 5/5/5 6/6/6 2/2/2
f 6/6/6 7/7/7 2/2/2
f 7/7/7 6/6/6 8/8/8
f 7/7/7 8/8/8 9/9/9
f 10/10/10 7/7/7 9/9/9
f 2/2/2 7/7/7 10/10/10
f 1/1/1 2/2/2 10/10/10
f 10/10/10 9/9/9 11/11/11
f 11/11/11 1/1/1 10/10/10
f 9/9/9 12/12/12 11/11/11
f 11/11/11 12/12/12 13/13/13
f 14/14/14 11/11/11 13/13/13
f 11/11/11 14/14/14 1/1/1
f 14/14/14 13/13/13 15/15/15
f 14/14/14 15/15/15 1/1/1
f 15/15/15 16/16/16 1/1/1
f 4/4/4 1/1/1 16/16/16
f 13/13/13 17/17/17 15/15/15
f 15/15/15 17/17/17 18/18/18
f 16/16/16 15/15/15 18/18/18
f 18/18/18 19/19/19 16/16/16
f 19/19/19 4/4/4 16/16/16
f 22/22/22 21/21/21 20/20/20
f 23/23/23 22/22/22 20/20/20
f 22/22/22 23/23/23 24/24/24
f 25/25/25 22/22/22 24/24/24
f 26/26/26 25/25/25 24/24/24
f 27/27/27 26/26/26 24/24/24
f 21/21/21 28/28/28 20/20/20
f 28/28/28 29/29/29 20/20/20
f 28/28/28 30/30/30 29/29/29
f 30/30/30 31/31/31 29/29/29
f 31/31/31 30/30/30 32/32/32
f 30/30/30 33/33/33 32/32/32
f 34/34/34 26/26/26 27/27/27
f 35/35/35 34/34/34 27/27/27
f 35/35/35 27/27/27 36/36/36
f 37/37/37 35/35/35 36/36/36
f 38/38/38 37/37/37 36/36/36
f 39/39/39 38/38/38 36/36/36
f 40/40/40 38/38/38 39/39/39
f 39/39/39 41/41/41 40/40/40
f 42/42/42 40/40/40 41/41/41
f 43/43/43 42/42/42 41/41/41
f 42/42/42 43/43/43 44/44/44
f 45/45/45 42/42/42 44/44/44
f 40/40/40 46/46/46 38/38/38
f 49/49/49 48/48/48 47/47/47
f 50/50/50 49/49/49 47/47/47
f 48/48/48 49/49/49 51/51/51
f 49/49/49 52/52/52 51/51/51
f 52/52/52 49/49/49 50/50/50
f 52/52/52 53/53/53 51/51/51
f 53/53/53 52/52/52 54/54/54
f 50/50/50 47/47/47 55/55/55
f 56/56/56 50/50/50 55/55/55
f 57/57/57 56/56/56 55/55/55
f 57/57/57 58/58/58 56/56/56
f 58/58/58 59/59/59 56/56/56
f 59/59/59 50/50/50 56/56/56
f 59/59/59 60/60/60 50/50/50
f 60/60/60 59/59/59 58/58/58
f 61/61/61 60/60/60 58/58/58
f 54/54/54 52/52/52 62/62/62
f 50/50/50 62/62/62 52/52/52
f 63/63/63 54/54/54 62/62/62
f 50/50/50 64/64/64 62/62/62
f 65/65/65 64/64/64 50/50/50
f 66/66/66 65/65/65 50/50/50
f 60/60/60 66/66/66 50/50/50
f 67/67/67 66/66/66 60/60/60
f 61/61/61 67/67/67 60/60/60
f 70/70/70 69/69/69 68/68/68
f 71/71/71 70/70/70 68/68/68
f 71/71/71 68/68/68 72/72/72
f 73/73/73 71/71/71 72/72/72
f 74/74/74 73/73/73 72/72/72
f 75/75/75 74/74/74 72/72/72
f 75/75/75 72/72/72 76/76/76
f 76/76/76 72/72/72 68/68/68
f 77/77/77 75/75/75 76/76/76
f 77/77/77 76/76/76 78/78/78
f 76/76/76 68/68/68 78/78/78
f 79/79/79 77/77/77 78/78/78
f 78/78/78 80/80/80 79/79/79
f 68/68/68 69/69/69 80/80/80
f 78/78/78 68/68/68 80/80/80
f 80/80/80 81/81/81 79/79/79
f 74/74/74 82/82/82 73/73/73
f 82/82/82 83/83/83 73/73/73
f 83/83/83 71/71/71 73/73/73
f 71/71/71 83/83/83 70/70/70
f 82/82/82 84/84/84 83/83/83
f 84/84/84 85/85/85 83/83/83
f 83/83/83 85/85/85 70/70/70
f 84/84/84 86/86/86 85/85/85
f 86/86/86 87/87/87 85/85/85
f 86/86/86 88/88/88 87/87/87
f 88/88/88 89/89/89 87/87/87
f 81/81/81 80/80/80 89/89/89
f 88/88/88 81/81/81 89/89/89
f 87/87/87 70/70/70 85/85/85
f 69/69/69 70/70/70 87/87/87
f 89/89/89 69/69/69 87/87/87
f 80/80/80 69/69/69 89/89/89
