g m_dlc07_splinter_01
v -0.4109205 -0.1379234 0.1119515
v -0.4113263 -0.1388245 -0.112418
v -0.4577395 -0.09507862 -0.112418
v -0.4577395 -0.0946121 0.1119515
v 0.2158763 -0.09132925 0.1168938
v 0.3648373 -0.09086154 -0.1101777
v 0.2584986 -0.04368316 0.1289227
v 0.4198716 -0.04517439 -0.1042063
v 0.3915424 -0.04683252 -0.1589125
v -0.4126402 -0.09372404 -0.1589125
v -0.4126402 0.09372404 -0.1589125
v -0.4577395 0.09647388 -0.1138133
v -0.4577395 -0.09507862 -0.112418
v 0.3935575 0.04806612 -0.1589125
v 0.3646086 0.09087017 -0.1100577
v -0.4113263 0.1388245 -0.112418
v 0.4198716 -0.04517439 -0.1042063
v 0.4213817 0.04685663 -0.106388
v -0.4109205 0.1379234 0.1119515
v -0.4577395 0.0946121 0.1119515
v -0.4577395 0.09647388 -0.1138133
v 0.2158763 0.09132925 0.1168938
v 0.2014538 0.04577215 0.1589125
v -0.4126402 0.09282137 0.1589125
v 0.4213817 0.04685663 -0.106388
v 0.2584986 0.04368316 0.1289227
v -0.4126402 -0.09282137 0.1589125
v -0.4577395 -0.0946121 0.1119515
v -0.4577395 0.0946121 0.1119515
v 0.2010081 -0.04526129 0.1589125
v 0.2158763 -0.09132925 0.1168938
v -0.4109205 -0.1379234 0.1119515
v 0.2584986 0.04368316 0.1289227
v 0.2584986 -0.04368316 0.1289227
v 0.4213817 0.04685663 -0.106388
v 0.4198716 -0.04517439 -0.1042063
v -0.4577395 -0.09507862 -0.112418
v -0.4577395 0.09647388 -0.1138133
vt 0.3918457 0.9628906
vt 0.3916016 0.7866211
vt 0.3762207 0.7866211
vt 0.3762207 0.9628906
vt 0.6108398 0.9667969
vt 0.6088867 0.7885742
vt 0.625 0.9770508
vt 0.625 0.7944336
vt 0.6069336 0.6865234
vt 0.387207 0.7055664
vt 0.387207 0.5400391
vt 0.375 0.5400391
vt 0.375 0.7089844
vt 0.6074219 0.5507813
vt 0.6088867 0.4616699
vt 0.3916016 0.4633789
vt 0.6147461 0.6865234
vt 0.6152344 0.5546875
vt 0.3918457 0.2868652
vt 0.3762207 0.2868652
vt 0.3762207 0.4645996
vt 0.6108398 0.2832031
vt 0.6118164 0.1864014
vt 0.3911133 0.2038574
vt 0.625 0.4575195
vt 0.625 0.2731934
vt 0.3911133 0.03994751
vt 0.3381348 0.04147339
vt 0.3381348 0.2084961
vt 0.6118164 0.05615234
vt 0.6152344 0
vt 0.3918457 0
vt 0.6484375 0.1875
vt 0.6484375 0.0625
vt 0.8334961 0.1920166
vt 0.8320313 0.06036377
vt 0.1616211 0.04104614
vt 0.1605225 0.2102051
vn 0.01107308 -0.9867066 0.1621347
vn 0.01184973 -0.9887367 -0.1491957
vn -0.9739999 -0.1763849 -0.142171
vn -0.9741346 -0.1758389 0.1419242
vn 0.1017745 -0.9839028 0.1468918
vn 0.1391704 -0.9708566 -0.1951128
vn 0.7457006 -0.3073804 0.5911412
vn 0.8676001 -0.2634484 0.4217404
vn 0.04966262 -0.1899651 -0.980534
vn -0.04484531 -0.2446753 -0.9685675
vn -0.04556797 0.2450618 -0.968436
vn -0.973828 0.1767421 -0.1429029
vn -0.9739999 -0.1763849 -0.142171
vn 0.05089445 0.189376 -0.9805848
vn 0.1383341 0.97135 -0.1932426
vn 0.01188212 0.9891177 -0.1466465
vn 0.8676001 -0.2634484 0.4217404
vn 0.8704996 0.2615293 0.4169327
vn 0.01163098 0.9867993 0.1615298
vn -0.9740665 0.1758473 0.1423805
vn -0.973828 0.1767421 -0.1429029
vn 0.1012298 0.9840283 0.1464272
vn 0.04074541 0.240375 0.9698246
vn -0.0620507 0.2347575 0.9700715
vn 0.8704996 0.2615293 0.4169327
vn 0.7447522 0.3086305 0.5916852
vn -0.06189355 -0.2345328 0.9701359
vn -0.9741346 -0.1758389 0.1419242
vn -0.9740665 0.1758473 0.1423805
vn 0.04056817 -0.2394392 0.9700634
vn 0.1017745 -0.9839028 0.1468918
vn 0.01107308 -0.9867066 0.1621347
vn 0.7447522 0.3086305 0.5916852
vn 0.7457006 -0.3073804 0.5911412
vn 0.8704996 0.2615293 0.4169327
vn 0.8676001 -0.2634484 0.4217404
vn -0.9739999 -0.1763849 -0.142171
vn -0.973828 0.1767421 -0.1429029
g m_dlc07_splinter_01_0
f 3/3/3 2/2/2 1/1/1
f 4/4/4 3/3/3 1/1/1
f 5/5/5 1/1/1 2/2/2
f 6/6/6 5/5/5 2/2/2
f 5/5/5 6/6/6 7/7/7
f 6/6/6 8/8/8 7/7/7
f 9/9/9 6/6/6 2/2/2
f 10/10/10 9/9/9 2/2/2
f 9/9/9 10/10/10 11/11/11
f 11/11/11 10/10/10 12/12/12
f 10/10/10 13/13/13 12/12/12
f 10/10/10 2/2/2 13/13/13
f 14/14/14 9/9/9 11/11/11
f 15/15/15 14/14/14 11/11/11
f 16/16/16 15/15/15 11/11/11
f 17/17/17 9/9/9 14/14/14
f 9/9/9 17/17/17 6/6/6
f 18/18/18 17/17/17 14/14/14
f 15/15/15 16/16/16 19/19/19
f 19/19/19 16/16/16 20/20/20
f 16/16/16 21/21/21 20/20/20
f 16/16/16 11/11/11 21/21/21
f 22/22/22 15/15/15 19/19/19
f 23/23/23 22/22/22 19/19/19
f 24/24/24 23/23/23 19/19/19
f 25/25/25 15/15/15 22/22/22
f 15/15/15 25/25/25 14/14/14
f 26/26/26 25/25/25 22/22/22
f 23/23/23 24/24/24 27/27/27
f 27/27/27 24/24/24 28/28/28
f 24/24/24 29/29/29 28/28/28
f 24/24/24 19/19/19 29/29/29
f 30/30/30 23/23/23 27/27/27
f 31/31/31 30/30/30 27/27/27
f 32/32/32 31/31/31 27/27/27
f 27/27/27 28/28/28 32/32/32
f 33/33/33 23/23/23 30/30/30
f 23/23/23 33/33/33 22/22/22
f 34/34/34 33/33/33 30/30/30
f 30/30/30 31/31/31 34/34/34
f 35/35/35 33/33/33 34/34/34
f 36/36/36 35/35/35 34/34/34
f 28/28/28 29/29/29 37/37/37
f 29/29/29 38/38/38 37/37/37
