g m_dlc7_cobble_edge_03
v -0.2909924 -0.1981224 0.1243438
v -0.214928 -0.2617112 0.1052788
v -0.225238 -0.2617112 -0.1144297
v -0.3015271 -0.1981224 -0.1333025
v -0.1425403 -0.2880506 -0.1081666
v -0.1325452 -0.2880506 0.09874874
v 0.1254944 -0.2880506 -0.08798061
v -0.1529944 -0.2617112 -0.1867065
v 0.1354089 -0.2617112 -0.1669796
v -0.1819372 -0.1981224 -0.2528928
v 0.1643518 -0.1981224 -0.2331661
v 0.142179 -0.2880506 0.1087186
v 0.1529944 -0.2617112 0.1867066
v -0.1424597 -0.2617112 0.1777478
v 0.2078772 -0.2617112 -0.09451069
v 0.2250867 -0.2617112 0.1146608
v 0.2839417 -0.1981224 -0.1135756
v 0.3015271 -0.1981224 0.1333026
v 0.2665002 -0.1981224 0.2178657
v 0.2204871 -0.2500243 0.1796078
v -0.2665002 -0.1981224 -0.2178656
v -0.2204883 -0.2500243 -0.1796077
v 0.2489148 -0.1981224 -0.1981388
v 0.2029016 -0.2500243 -0.1598808
v -0.2099524 -0.2500243 0.170649
v -0.2559656 -0.1981224 0.208907
v -0.1714026 -0.1981224 0.2439343
v -0.2559656 -0.1981224 0.208907
v -0.2842737 -0.1081763 0.2304017
v -0.1913684 -0.1081763 0.2688848
v 0.2019031 -0.1081763 0.2778435
v 0.1819372 -0.1981224 0.252893
v -0.1424597 -0.2617112 0.1777478
v 0.1529944 -0.2617112 0.1867066
v 0.2665002 -0.1981224 0.2178657
v 0.2948083 -0.1081763 0.2393605
v -0.2099524 -0.2500243 0.170649
v -0.214928 -0.2617112 0.1052788
v 0.2204871 -0.2500243 0.1796078
v 0.2250867 -0.2617112 0.1146608
v 0.2948083 0.1254131 0.2393605
v 0.2019031 0.1254131 0.2778435
v -0.1913684 0.1254131 0.2688848
v -0.2842737 0.1254131 0.2304017
v -0.2559656 -0.1981224 0.208907
v -0.2909924 -0.1981224 0.1243438
v -0.3227576 -0.1081763 0.1374955
v -0.2842737 -0.1081763 0.2304017
v -0.3015271 -0.1981224 -0.1333025
v -0.3332922 -0.1081763 -0.1464541
v -0.2948083 -0.1081763 -0.2393604
v -0.2665002 -0.1981224 -0.2178656
v -0.3332922 0.1254131 -0.1464541
v -0.2948083 0.1254131 -0.2393604
v -0.3227576 0.1254131 0.1374955
v -0.2842737 0.1254131 0.2304017
v 0.3015271 -0.1981224 0.1333026
v 0.2665002 -0.1981224 0.2178657
v 0.2948083 -0.1081763 0.2393605
v 0.3332922 -0.1081763 0.1464543
v 0.3157068 -0.1081763 -0.1267273
v 0.2839417 -0.1981224 -0.1135756
v 0.2489148 -0.1981224 -0.1981388
v 0.2772229 -0.1081763 -0.2196335
v 0.3332922 0.1254131 0.1464543
v 0.2948083 0.1254131 0.2393605
v 0.3157068 0.1254131 -0.1267273
v 0.2772229 0.1254131 -0.2196335
v -0.2665002 -0.1981224 -0.2178656
v -0.1819372 -0.1981224 -0.2528928
v -0.2019031 -0.1081763 -0.2778435
v -0.2948083 -0.1081763 -0.2393604
v 0.1843176 -0.1081763 -0.2581166
v 0.1643518 -0.1981224 -0.2331661
v 0.2772229 -0.1081763 -0.2196335
v 0.2489148 -0.1981224 -0.1981388
v 0.1843176 0.1254131 -0.2581166
v 0.2772229 0.1254131 -0.2196335
v -0.2019031 0.1254131 -0.2778435
v -0.2948083 0.1254131 -0.2393604
v -0.2909924 0.20674 0.1243438
v -0.3015271 0.20674 -0.1333025
v -0.225238 0.2642353 -0.1144297
v -0.214928 0.2642353 0.1052788
v -0.1425403 0.2880506 -0.1081666
v -0.1325452 0.2880506 0.09874874
v 0.1254944 0.2880506 -0.08798061
v -0.1529944 0.2642353 -0.1867065
v 0.1354089 0.2642353 -0.1669796
v 0.142179 0.2880506 0.1087186
v 0.1529944 0.2642353 0.1867066
v -0.1424597 0.2642353 0.1777478
v 0.1819372 0.20674 0.252893
v -0.1714026 0.20674 0.2439343
v 0.2078772 0.2642353 -0.09451069
v 0.2250867 0.2642353 0.1146608
v 0.2839417 0.20674 -0.1135756
v 0.3015271 0.20674 0.1333026
v -0.2099524 0.2536683 0.170649
v -0.2559656 0.20674 0.208907
v 0.2665002 0.20674 0.2178657
v 0.2204871 0.2536683 0.1796078
v 0.2489148 0.20674 -0.1981388
v 0.2029016 0.2536683 -0.1598808
v -0.1714026 0.20674 0.2439343
v -0.1913684 0.1254131 0.2688848
v -0.2842737 0.1254131 0.2304017
v -0.2559656 0.20674 0.208907
v 0.2019031 0.1254131 0.2778435
v 0.1819372 0.20674 0.252893
v 0.2665002 0.20674 0.2178657
v 0.2948083 0.1254131 0.2393605
v -0.2559656 0.20674 0.208907
v -0.2842737 0.1254131 0.2304017
v -0.3227576 0.1254131 0.1374955
v -0.2909924 0.20674 0.1243438
v -0.3015271 0.20674 -0.1333025
v -0.3332922 0.1254131 -0.1464541
v -0.2948083 0.1254131 -0.2393604
v -0.2665002 0.20674 -0.2178656
v 0.3015271 0.20674 0.1333026
v 0.3332922 0.1254131 0.1464543
v 0.2948083 0.1254131 0.2393605
v 0.2665002 0.20674 0.2178657
v 0.3157068 0.1254131 -0.1267273
v 0.2839417 0.20674 -0.1135756
v 0.2489148 0.20674 -0.1981388
v 0.2772229 0.1254131 -0.2196335
v -0.2665002 0.20674 -0.2178656
v -0.2948083 0.1254131 -0.2393604
v -0.2019031 0.1254131 -0.2778435
v -0.1819372 0.20674 -0.2528928
v 0.1843176 0.1254131 -0.2581166
v 0.1643518 0.20674 -0.2331661
v 0.1354089 0.2642353 -0.1669796
v -0.1529944 0.2642353 -0.1867065
v 0.2772229 0.1254131 -0.2196335
v 0.2489148 0.20674 -0.1981388
v -0.2204883 0.2536683 -0.1796077
v 0.2029016 0.2536683 -0.1598808
v -0.2665002 0.20674 -0.2178656
v -0.2204883 0.2536683 -0.1796077
vt 0.9770508 0.2438965
vt 0.9780273 0.2399902
vt 0.9873047 0.2404785
vt 0.9882813 0.2442627
vt 0.9868164 0.2369385
vt 0.9785156 0.2364502
vt 0.9863281 0.2258301
vt 0.9902344 0.2375488
vt 0.9897461 0.2253418
vt 0.9936523 0.2390137
vt 0.9931641 0.2237549
vt 0.9780273 0.2250977
vt 0.9746094 0.2246094
vt 0.9750977 0.2369385
vt 0.9868164 0.22229
vt 0.9780273 0.2216797
vt 0.987793 0.2183838
vt 0.9765625 0.2177734
vt 0.9731445 0.2194824
vt 0.9750977 0.2218018
vt 0.9916992 0.2425537
vt 0.9897461 0.2402344
vt 0.9912109 0.2202148
vt 0.9892578 0.2225342
vt 0.9750977 0.2397461
vt 0.9731445 0.2420654
vt 0.9716797 0.2385254
vt 0.9731445 0.2420654
vt 0.9707031 0.244751
vt 0.9677734 0.2401123
vt 0.9677734 0.2214355
vt 0.9711914 0.2230225
vt 0.9750977 0.2369385
vt 0.9746094 0.2246094
vt 0.9731445 0.2194824
vt 0.9707031 0.2167969
vt 0.9750977 0.2397461
vt 0.9780273 0.2399902
vt 0.9750977 0.2218018
vt 0.9780273 0.2216797
vt 0.9707031 0.2167969
vt 0.9677734 0.2214355
vt 0.9677734 0.2401123
vt 0.9707031 0.244751
vt 0.9731445 0.2420654
vt 0.9770508 0.2438965
vt 0.9755859 0.2475586
vt 0.9707031 0.244751
vt 0.9882813 0.2442627
vt 0.9897461 0.2478027
vt 0.9941406 0.2452393
vt 0.9916992 0.2425537
vt 0.9897461 0.2478027
vt 0.9941406 0.2452393
vt 0.9755859 0.2475586
vt 0.9707031 0.244751
vt 0.9765625 0.2177734
vt 0.9731445 0.2194824
vt 0.9707031 0.2167969
vt 0.9755859 0.2142334
vt 0.9892578 0.2148438
vt 0.987793 0.2183838
vt 0.9912109 0.2202148
vt 0.9936523 0.2175293
vt 0.9755859 0.2142334
vt 0.9707031 0.2167969
vt 0.9892578 0.2148438
vt 0.9936523 0.2175293
vt 0.9916992 0.2425537
vt 0.9936523 0.2390137
vt 0.9970703 0.2406006
vt 0.9941406 0.2452393
vt 0.996582 0.222168
vt 0.9931641 0.2237549
vt 0.9936523 0.2175293
vt 0.9912109 0.2202148
vt 0.996582 0.222168
vt 0.9936523 0.2175293
vt 0.9970703 0.2406006
vt 0.9941406 0.2452393
vt 0.9770508 0.2438965
vt 0.9882813 0.2442627
vt 0.9873047 0.2404785
vt 0.9780273 0.2399902
vt 0.9868164 0.2369385
vt 0.9785156 0.2364502
vt 0.9863281 0.2258301
vt 0.9902344 0.2375488
vt 0.9897461 0.2253418
vt 0.9780273 0.2250977
vt 0.9746094 0.2246094
vt 0.9750977 0.2369385
vt 0.9711914 0.2230225
vt 0.9716797 0.2385254
vt 0.9868164 0.22229
vt 0.9780273 0.2216797
vt 0.987793 0.2183838
vt 0.9765625 0.2177734
vt 0.9750977 0.2397461
vt 0.9731445 0.2420654
vt 0.9731445 0.2194824
vt 0.9750977 0.2218018
vt 0.9912109 0.2202148
vt 0.9892578 0.2225342
vt 0.9716797 0.2385254
vt 0.9677734 0.2401123
vt 0.9707031 0.244751
vt 0.9731445 0.2420654
vt 0.9677734 0.2214355
vt 0.9711914 0.2230225
vt 0.9731445 0.2194824
vt 0.9707031 0.2167969
vt 0.9731445 0.2420654
vt 0.9707031 0.244751
vt 0.9755859 0.2475586
vt 0.9770508 0.2438965
vt 0.9882813 0.2442627
vt 0.9897461 0.2478027
vt 0.9941406 0.2452393
vt 0.9916992 0.2425537
vt 0.9765625 0.2177734
vt 0.9755859 0.2142334
vt 0.9707031 0.2167969
vt 0.9731445 0.2194824
vt 0.9892578 0.2148438
vt 0.987793 0.2183838
vt 0.9912109 0.2202148
vt 0.9936523 0.2175293
vt 0.9916992 0.2425537
vt 0.9941406 0.2452393
vt 0.9970703 0.2406006
vt 0.9936523 0.2390137
vt 0.996582 0.222168
vt 0.9931641 0.2237549
vt 0.9897461 0.2253418
vt 0.9902344 0.2375488
vt 0.9936523 0.2175293
vt 0.9912109 0.2202148
vt 0.9897461 0.2402344
vt 0.9892578 0.2225342
vt 0.9916992 0.2425537
vt 0.9897461 0.2402344
vn -0.8336325 -0.5428401 0.1018903
vn -0.4971548 -0.8650128 0.06774974
vn -0.5043548 -0.8629382 -0.03104307
vn -0.8402587 -0.5398417 -0.05036105
vn -0.06645221 -0.9935562 -0.09181614
vn -0.06835467 -0.9936422 0.08945954
vn 0.06699059 -0.993925 -0.08732337
vn -0.009727759 -0.8347163 -0.5505944
vn 0.07022952 -0.8397161 -0.538465
vn -0.02223544 -0.466974 -0.8839914
vn 0.1026548 -0.4719196 -0.8756448
vn 0.06798333 -0.9935582 0.09066556
vn 0.02594589 -0.8357696 0.5484669
vn -0.05313467 -0.8382864 0.5426349
vn 0.4935461 -0.8657848 -0.08263739
vn 0.5060961 -0.8622655 0.01910507
vn 0.8304465 -0.5434079 -0.1227454
vn 0.842024 -0.5383682 0.03398863
vn 0.599559 -0.5280455 0.6014124
vn 0.3929229 -0.8279406 0.4001575
vn -0.5995746 -0.5280802 -0.6013665
vn -0.3927721 -0.8281159 -0.3999428
vn 0.5995835 -0.5280327 -0.6013993
vn 0.3926531 -0.8281037 -0.4000846
vn -0.3926538 -0.8281034 0.4000846
vn -0.5995835 -0.5280328 0.6013991
vn -0.07953923 -0.4708834 0.8786026
vn -0.5995835 -0.5280328 0.6013991
vn -0.7060792 -0.09795739 0.7013248
vn -0.1002902 -0.07364402 0.992229
vn 0.06397634 -0.07351867 0.9952396
vn 0.04357745 -0.4686484 0.8823093
vn -0.05313467 -0.8382864 0.5426349
vn 0.02594589 -0.8357696 0.5484669
vn 0.599559 -0.5280455 0.6014124
vn 0.7060794 -0.09795554 0.7013247
vn -0.3926538 -0.8281034 0.4000846
vn -0.4971548 -0.8650128 0.06774974
vn 0.3929229 -0.8279406 0.4001575
vn 0.5060961 -0.8622655 0.01910507
vn 0.7059897 0.09968676 0.7011713
vn 0.06403794 0.07477177 0.9951423
vn -0.1003007 0.07494874 0.9921302
vn -0.7059894 0.09968845 0.7011712
vn -0.5995835 -0.5280328 0.6013991
vn -0.8336325 -0.5428401 0.1018903
vn -0.9870604 -0.09352325 0.1302498
vn -0.7060792 -0.09795739 0.7013248
vn -0.8402587 -0.5398417 -0.05036105
vn -0.9927781 -0.09323215 -0.07549295
vn -0.7060797 -0.09795615 -0.7013244
vn -0.5995746 -0.5280802 -0.6013665
vn -0.9926021 0.09505792 -0.07553239
vn -0.7059897 0.09968717 -0.7011712
vn -0.9868791 0.09546442 0.1302165
vn -0.7059894 0.09968845 0.7011712
vn 0.842024 -0.5383682 0.03398863
vn 0.599559 -0.5280455 0.6014124
vn 0.7060794 -0.09795554 0.7013247
vn 0.9939227 -0.0931175 0.05870936
vn 0.9838396 -0.09358569 -0.152648
vn 0.8304465 -0.5434079 -0.1227454
vn 0.5995835 -0.5280327 -0.6013993
vn 0.7060794 -0.09795696 -0.7013245
vn 0.9937495 0.09490812 0.05877412
vn 0.7059897 0.09968676 0.7011713
vn 0.9836584 0.0955729 -0.1525848
vn 0.7059898 0.0996876 -0.701171
vn -0.5995746 -0.5280802 -0.6013665
vn -0.02223544 -0.466974 -0.8839914
vn -0.04265656 -0.07346369 -0.9963852
vn -0.7060797 -0.09795615 -0.7013244
vn 0.1237168 -0.07373378 -0.9895745
vn 0.1026548 -0.4719196 -0.8756448
vn 0.7060794 -0.09795696 -0.7013245
vn 0.5995835 -0.5280327 -0.6013993
vn 0.1236947 0.07507529 -0.9894763
vn 0.7059898 0.0996876 -0.701171
vn -0.04275002 0.0746906 -0.99629
vn -0.7059897 0.09968717 -0.7011712
vn -0.8082528 0.5805233 0.09859087
vn -0.815145 0.5772145 -0.04860175
vn -0.4676577 0.8834447 -0.02866784
vn -0.460709 0.8853343 0.06269256
vn -0.06023683 0.9947084 -0.08322675
vn -0.06194989 0.9947816 0.08106674
vn 0.06070841 0.9950147 -0.0791211
vn -0.008823672 0.8582646 -0.5131316
vn 0.06519703 0.8628592 -0.5012218
vn 0.0616325 0.9947103 0.08217572
vn 0.02395706 0.8592438 0.5110051
vn -0.0492866 0.8615507 0.5052735
vn 0.0421782 0.5039536 0.8627002
vn -0.07735037 0.5064691 0.8587817
vn 0.4572667 0.8860351 -0.07647716
vn 0.469366 0.8828286 0.01758657
vn 0.8050336 0.5812105 -0.1188078
vn 0.8170494 0.5756398 0.0326964
vn -0.3654505 0.8529428 0.3727392
vn -0.5823656 0.5648378 0.5846441
vn 0.5823417 0.5648494 0.5846564
vn 0.3657136 0.8527964 0.372816
vn 0.5823669 0.5648354 -0.584645
vn 0.3654526 0.852941 -0.3727414
vn -0.07735037 0.5064691 0.8587817
vn -0.1003007 0.07494874 0.9921302
vn -0.7059894 0.09968845 0.7011712
vn -0.5823656 0.5648378 0.5846441
vn 0.06403794 0.07477177 0.9951423
vn 0.0421782 0.5039536 0.8627002
vn 0.5823417 0.5648494 0.5846564
vn 0.7059897 0.09968676 0.7011713
vn -0.5823656 0.5648378 0.5846441
vn -0.7059894 0.09968845 0.7011712
vn -0.9868791 0.09546442 0.1302165
vn -0.8082528 0.5805233 0.09859087
vn -0.815145 0.5772145 -0.04860175
vn -0.9926021 0.09505792 -0.07553239
vn -0.7059897 0.09968717 -0.7011712
vn -0.5823554 0.5648822 -0.5846112
vn 0.8170494 0.5756398 0.0326964
vn 0.9937495 0.09490812 0.05877412
vn 0.7059897 0.09968676 0.7011713
vn 0.5823417 0.5648494 0.5846564
vn 0.9836584 0.0955729 -0.1525848
vn 0.8050336 0.5812105 -0.1188078
vn 0.5823669 0.5648354 -0.584645
vn 0.7059898 0.0996876 -0.701171
vn -0.5823554 0.5648822 -0.5846112
vn -0.7059897 0.09968717 -0.7011712
vn -0.04275002 0.0746906 -0.99629
vn -0.0212887 0.5021051 -0.8645445
vn 0.1236947 0.07507529 -0.9894763
vn 0.0999445 0.5076756 -0.8557315
vn 0.06519703 0.8628592 -0.5012218
vn -0.008823672 0.8582646 -0.5131316
vn 0.7059898 0.0996876 -0.701171
vn 0.5823669 0.5648354 -0.584645
vn -0.3655668 0.8529502 -0.3726083
vn 0.3654526 0.852941 -0.3727414
vn -0.5823554 0.5648822 -0.5846112
vn -0.3655668 0.8529502 -0.3726083
g m_dlc7_cobble_edge_03_0
f 3/3/3 2/2/2 1/1/1
f 4/4/4 3/3/3 1/1/1
f 3/3/3 5/5/5 2/2/2
f 5/5/5 6/6/6 2/2/2
f 5/5/5 7/7/7 6/6/6
f 7/7/7 5/5/5 8/8/8
f 8/8/8 5/5/5 3/3/3
f 9/9/9 7/7/7 8/8/8
f 9/9/9 8/8/8 10/10/10
f 11/11/11 9/9/9 10/10/10
f 7/7/7 12/12/12 6/6/6
f 12/12/12 13/13/13 6/6/6
f 13/13/13 14/14/14 6/6/6
f 2/2/2 6/6/6 14/14/14
f 7/7/7 15/15/15 12/12/12
f 15/15/15 7/7/7 9/9/9
f 15/15/15 16/16/16 12/12/12
f 13/13/13 12/12/12 16/16/16
f 15/15/15 17/17/17 16/16/16
f 17/17/17 18/18/18 16/16/16
f 16/16/16 18/18/18 19/19/19
f 20/20/20 13/13/13 16/16/16
f 21/21/21 10/10/10 8/8/8
f 22/22/22 21/21/21 8/8/8
f 22/22/22 3/3/3 21/21/21
f 22/22/22 8/8/8 3/3/3
f 3/3/3 4/4/4 21/21/21
f 23/23/23 17/17/17 15/15/15
f 24/24/24 23/23/23 15/15/15
f 9/9/9 11/11/11 23/23/23
f 24/24/24 9/9/9 23/23/23
f 24/24/24 15/15/15 9/9/9
f 25/25/25 2/2/2 14/14/14
f 26/26/26 1/1/1 2/2/2
f 29/29/29 28/28/28 27/27/27
f 30/30/30 29/29/29 27/27/27
f 31/31/31 30/30/30 27/27/27
f 32/32/32 31/31/31 27/27/27
f 32/32/32 27/27/27 33/33/33
f 33/33/33 27/27/27 28/28/28
f 34/34/34 32/32/32 33/33/33
f 31/31/31 32/32/32 35/35/35
f 35/35/35 32/32/32 34/34/34
f 36/36/36 31/31/31 35/35/35
f 37/37/37 33/33/33 28/28/28
f 37/37/37 28/28/28 38/38/38
f 39/39/39 35/35/35 34/34/34
f 39/39/39 40/40/40 35/35/35
f 36/36/36 41/41/41 31/31/31
f 41/41/41 42/42/42 31/31/31
f 31/31/31 42/42/42 30/30/30
f 30/30/30 43/43/43 29/29/29
f 42/42/42 43/43/43 30/30/30
f 43/43/43 44/44/44 29/29/29
f 47/47/47 46/46/46 45/45/45
f 48/48/48 47/47/47 45/45/45
f 46/46/46 47/47/47 49/49/49
f 47/47/47 50/50/50 49/49/49
f 50/50/50 51/51/51 49/49/49
f 51/51/51 52/52/52 49/49/49
f 50/50/50 53/53/53 51/51/51
f 53/53/53 54/54/54 51/51/51
f 55/55/55 53/53/53 50/50/50
f 47/47/47 55/55/55 50/50/50
f 56/56/56 55/55/55 47/47/47
f 48/48/48 56/56/56 47/47/47
f 59/59/59 58/58/58 57/57/57
f 60/60/60 59/59/59 57/57/57
f 61/61/61 60/60/60 57/57/57
f 62/62/62 61/61/61 57/57/57
f 61/61/61 62/62/62 63/63/63
f 64/64/64 61/61/61 63/63/63
f 60/60/60 65/65/65 59/59/59
f 65/65/65 66/66/66 59/59/59
f 67/67/67 65/65/65 60/60/60
f 61/61/61 67/67/67 60/60/60
f 68/68/68 67/67/67 61/61/61
f 64/64/64 68/68/68 61/61/61
f 71/71/71 70/70/70 69/69/69
f 72/72/72 71/71/71 69/69/69
f 71/71/71 73/73/73 70/70/70
f 73/73/73 74/74/74 70/70/70
f 73/73/73 75/75/75 74/74/74
f 75/75/75 76/76/76 74/74/74
f 73/73/73 77/77/77 75/75/75
f 77/77/77 78/78/78 75/75/75
f 79/79/79 77/77/77 73/73/73
f 71/71/71 79/79/79 73/73/73
f 80/80/80 79/79/79 71/71/71
f 72/72/72 80/80/80 71/71/71
f 83/83/83 82/82/82 81/81/81
f 84/84/84 83/83/83 81/81/81
f 85/85/85 83/83/83 84/84/84
f 86/86/86 85/85/85 84/84/84
f 87/87/87 85/85/85 86/86/86
f 85/85/85 87/87/87 88/88/88
f 85/85/85 88/88/88 83/83/83
f 87/87/87 89/89/89 88/88/88
f 90/90/90 87/87/87 86/86/86
f 91/91/91 90/90/90 86/86/86
f 92/92/92 91/91/91 86/86/86
f 86/86/86 84/84/84 92/92/92
f 93/93/93 91/91/91 92/92/92
f 94/94/94 93/93/93 92/92/92
f 95/95/95 87/87/87 90/90/90
f 87/87/87 95/95/95 89/89/89
f 96/96/96 95/95/95 90/90/90
f 90/90/90 91/91/91 96/96/96
f 97/97/97 95/95/95 96/96/96
f 98/98/98 97/97/97 96/96/96
f 84/84/84 99/99/99 92/92/92
f 100/100/100 99/99/99 84/84/84
f 92/92/92 99/99/99 100/100/100
f 94/94/94 92/92/92 100/100/100
f 98/98/98 96/96/96 101/101/101
f 93/93/93 101/101/101 91/91/91
f 96/96/96 102/102/102 101/101/101
f 91/91/91 102/102/102 96/96/96
f 101/101/101 102/102/102 91/91/91
f 97/97/97 103/103/103 95/95/95
f 103/103/103 104/104/104 95/95/95
f 95/95/95 104/104/104 89/89/89
f 81/81/81 100/100/100 84/84/84
f 107/107/107 106/106/106 105/105/105
f 108/108/108 107/107/107 105/105/105
f 106/106/106 109/109/109 105/105/105
f 109/109/109 110/110/110 105/105/105
f 110/110/110 109/109/109 111/111/111
f 109/109/109 112/112/112 111/111/111
f 115/115/115 114/114/114 113/113/113
f 116/116/116 115/115/115 113/113/113
f 115/115/115 116/116/116 117/117/117
f 118/118/118 115/115/115 117/117/117
f 119/119/119 118/118/118 117/117/117
f 120/120/120 119/119/119 117/117/117
f 123/123/123 122/122/122 121/121/121
f 124/124/124 123/123/123 121/121/121
f 122/122/122 125/125/125 121/121/121
f 125/125/125 126/126/126 121/121/121
f 126/126/126 125/125/125 127/127/127
f 125/125/125 128/128/128 127/127/127
f 131/131/131 130/130/130 129/129/129
f 132/132/132 131/131/131 129/129/129
f 133/133/133 131/131/131 132/132/132
f 134/134/134 133/133/133 132/132/132
f 135/135/135 134/134/134 132/132/132
f 136/136/136 135/135/135 132/132/132
f 132/132/132 129/129/129 136/136/136
f 137/137/137 133/133/133 134/134/134
f 138/138/138 137/137/137 134/134/134
f 134/134/134 135/135/135 138/138/138
f 129/129/129 139/139/139 136/136/136
f 135/135/135 140/140/140 138/138/138
f 83/83/83 142/142/142 141/141/141
f 82/82/82 83/83/83 141/141/141
f 88/88/88 142/142/142 83/83/83
