g m_dlc07_slime_ripples_01
v -4.65 1.899552E-06 -18.45001
v -1.584133 1.899552E-06 -18.45001
v -1.584134 -2.10588E-06 18.45001
v -4.65 -2.10588E-06 18.45001
v 4.650001 -2.10588E-06 18.45001
v 1.616535 -2.10588E-06 18.45001
v 1.616534 1.899552E-06 -18.45001
v 4.650001 1.899552E-06 -18.45001
vt -10 -5.960464E-07
vt -10 1
vt 9.875 1
vt 9.875 -1.192093E-07
vt -10 0
vt -10 1
vt 9.875 1
vt 9.875 4.768372E-07
vn 0 1 1.192093E-07
vn 0 1 1.085496E-07
vn 0 1 1.085496E-07
vn 0 1 1.192093E-07
vn 0 1 1.192093E-07
vn 0 1 1.084003E-07
vn 0 1 1.084003E-07
vn 0 1 1.192093E-07
g m_dlc07_slime_ripples_01_0
f 3/3/3 2/2/2 1/1/1
f 4/4/4 3/3/3 1/1/1
f 7/7/7 6/6/6 5/5/5
f 8/8/8 7/7/7 5/5/5
