g m_dlc07_flagstone_03
v -0.7103299 -0.5990892 0.8020508
v -0.7122915 -0.5990892 -0.5124438
v -0.8045791 -0.5077971 -0.5196313
v -0.8041806 -0.5049423 0.7993628
v -0.8044778 -0.311506 -0.8225806
v -0.7368997 -0.5440132 -0.6762866
v -0.7357944 -0.4369131 -0.8439307
v -0.5868716 -0.5440561 -0.845122
v -0.4364096 -0.5990892 -0.8226758
v -0.8029678 0.2020258 0.785166
v -0.7081247 0.1800684 0.8772534
v -0.7088321 -0.5037793 0.893518
v -0.8046854 0.47589 -0.8212475
v -0.7133255 -0.3141975 -0.9152441
v -0.7119766 0.4743586 -0.9152441
v -0.8069327 0.5159047 0.264541
v 0.7104843 -0.5990892 -0.8212475
v 0.7104843 -0.5050886 -0.9152441
v -0.4459561 -0.5075546 -0.9152441
v -0.7095858 0.2973565 0.8089209
v 0.8044845 -0.5050886 -0.8212475
v 0.8046445 -0.5109878 0.5425805
v 0.7114352 -0.5990892 0.5304785
v 0.8038357 -0.3713599 0.8092065
v 0.7297024 -0.553287 0.7047803
v 0.6257401 -0.5537262 0.8209741
v 0.4689718 -0.5990892 0.8030713
v 0.7314609 -0.4911641 0.8251098
v 0.483005 -0.5090135 0.8971509
v -0.7088321 -0.5037793 0.893518
v 0.7111679 -0.3751638 0.9019507
v 0.8046499 0.4703702 -0.8212475
v 0.7105673 0.4729378 -0.9152441
v 0.7104843 -0.5050886 -0.9152441
v 0.8036215 0.2808202 0.8269922
v 0.7111679 -0.3751638 0.9019507
v 0.7062521 0.2489584 0.9152441
v 0.8069327 0.4383525 0.5714868
v 0.7116616 0.5339571 0.5067188
v 0.7106509 0.5644041 -0.8212744
v -0.7078512 0.5990892 0.2347217
v 0.7071438 0.4949805 0.6400586
v -0.7119467 0.5637428 0.3690112
v 0.7059433 0.3671338 0.8509253
v 0.8036215 0.2808202 0.8269922
v -0.7106863 0.5699365 -0.8212964
v -0.8069327 0.5159047 0.264541
v -0.8046854 0.47589 -0.8212475
v -0.7119766 0.4743586 -0.9152441
v 0.7105673 0.4729378 -0.9152441
v -0.8029678 0.2020258 0.785166
v -0.7095858 0.2973565 0.8089209
v 0.7062521 0.2489584 0.9152441
v -0.7081247 0.1800684 0.8772534
v 0.7104843 -0.5050886 -0.9152441
v -0.4459561 -0.5075546 -0.9152441
v -0.7133255 -0.3141975 -0.9152441
v -0.7357944 -0.4369131 -0.8439307
v -0.5868716 -0.5440561 -0.845122
v 0.483005 -0.5090135 0.8971509
v 0.7111679 -0.3751638 0.9019507
v -0.7088321 -0.5037793 0.893518
v 0.7059433 0.3671338 0.8509253
vt 0.7753906 0.02729797
vt 0.7993164 0.02828979
vt 0.7998047 0.02578735
vt 0.7753906 0.02455139
vt 0.8056641 0.02293396
vt 0.8022461 0.02742004
vt 0.8056641 0.02598572
vt 0.8056641 0.03025818
vt 0.8051758 0.03366089
vt 0.7763672 0.00983429
vt 0.7739258 0.01014709
vt 0.7729492 0.02435303
vt 0.8076172 0.007427216
vt 0.8081055 0.02365112
vt 0.8100586 0.00793457
vt 0.7871094 0.004020691
vt 0.8046875 0.05709839
vt 0.8071289 0.05749512
vt 0.8076172 0.03335571
vt 0.7749023 0.007606506
vt 0.8046875 0.05981445
vt 0.7797852 0.05862427
vt 0.7797852 0.05612183
vt 0.7744141 0.06057739
vt 0.7768555 0.05679321
vt 0.7744141 0.05480957
vt 0.7749023 0.05142212
vt 0.7744141 0.05749512
vt 0.7724609 0.0519104
vt 0.7729492 0.0269165
vt 0.7714844 0.05789185
vt 0.8037109 0.07946777
vt 0.8061523 0.07965088
vt 0.8076172 0.05993652
vt 0.7729492 0.07415771
vt 0.7724609 0.05984497
vt 0.7705078 0.07305908
vt 0.7773438 0.07763672
vt 0.7788086 0.0803833
vt 0.8037109 0.08209229
vt 0.7827148 0.109375
vt 0.7763672 0.08026123
vt 0.7802734 0.109314
vt 0.7719727 0.07983398
vt 0.7719727 0.0770874
vt 0.8022461 0.1103516
vt 0.7817383 0.1119385
vt 0.8027344 0.1130371
vt 0.8046875 0.1107788
vt 0.8061523 0.08190918
vt 0.7700195 0.1118774
vt 0.7705078 0.1091309
vt 0.7695313 0.07983398
vt 0.7680664 0.1090088
vt 0.8242188 0.0826416
vt 0.8232422 0.1061401
vt 0.8193359 0.1113892
vt 0.8222656 0.1121826
vt 0.8242188 0.1092529
vt 0.7553711 0.08441162
vt 0.7578125 0.07971191
vt 0.7553711 0.1088867
vt 0.7709961 0.07574463
vn -0.05000868 -0.997718 0.0453645
vn -0.03887324 -0.9992418 -0.002134622
vn -0.998652 -0.0518627 -0.002135393
vn -0.9963278 -0.07494832 0.04139546
vn -0.9992151 -0.007474828 -0.03890112
vn -0.6017987 -0.7408989 -0.298173
vn -0.6411942 -0.4942494 -0.5870159
vn -0.3401722 -0.754688 -0.561007
vn -0.002805487 -0.9993318 -0.03644264
vn -0.9990197 0.01849576 0.04021843
vn -0.07791899 0.07464905 0.9941611
vn -0.06959806 -0.09388584 0.9931473
vn -0.9972107 0.05966743 -0.04483915
vn -0.04212162 -0.006230341 -0.9990931
vn -0.04833608 0.08570524 -0.9951473
vn -0.998847 0.04746123 0.007225046
vn 0.05107595 -0.9977093 -0.04435489
vn 0.06010485 -0.06982148 -0.9957471
vn -0.003218964 -0.05026492 -0.9987307
vn -0.1320398 0.7770079 0.615487
vn 0.9957678 -0.07464012 -0.05362236
vn 0.9987479 -0.04998637 0.001953325
vn 0.03939977 -0.9992225 0.001392234
vn 0.9993988 -0.008161469 0.03369575
vn 0.5593208 -0.7894086 0.252971
vn 0.2812919 -0.808749 0.5165268
vn 0.001781555 -0.9993011 0.03733769
vn 0.6161215 -0.5507146 0.5631232
vn -0.01171736 -0.06475427 0.9978325
vn -0.06959806 -0.09388584 0.9931473
vn 0.03265473 -0.009919717 0.9994174
vn 0.9957705 0.07505225 -0.05299369
vn 0.05854613 0.08506608 -0.9946538
vn 0.06010485 -0.06982148 -0.9957471
vn 0.9994295 0.00878413 0.03261096
vn 0.03265473 -0.009919717 0.9994174
vn 0.03597075 0.07795904 0.9963075
vn 0.9991143 0.04163491 0.006091954
vn 0.1087719 0.9934818 0.03409844
vn 0.08728785 0.9939121 -0.06722841
vn -0.02991878 0.9993337 0.02090529
vn -0.006468271 0.8850062 0.4655342
vn -0.1303533 0.8860804 0.4448252
vn -0.01543602 0.7821552 0.6228924
vn 0.9994295 0.00878413 0.03261096
vn -0.02957814 0.9969857 -0.07172623
vn -0.998847 0.04746123 0.007225046
vn -0.9972107 0.05966743 -0.04483915
vn -0.04833608 0.08570524 -0.9951473
vn 0.05854613 0.08506608 -0.9946538
vn -0.9990197 0.01849576 0.04021843
vn -0.1320398 0.7770079 0.615487
vn 0.03597075 0.07795904 0.9963075
vn -0.07791899 0.07464905 0.9941611
vn 0.06010485 -0.06982148 -0.9957471
vn -0.003218964 -0.05026492 -0.9987307
vn -0.04212162 -0.006230341 -0.9990931
vn -0.6411942 -0.4942494 -0.5870159
vn -0.3401722 -0.754688 -0.561007
vn -0.01171736 -0.06475427 0.9978325
vn 0.03265473 -0.009919717 0.9994174
vn -0.06959806 -0.09388584 0.9931473
vn -0.01543602 0.7821552 0.6228924
g m_dlc07_flagstone_03_0
f 3/3/3 2/2/2 1/1/1
f 4/4/4 3/3/3 1/1/1
f 5/5/5 3/3/3 4/4/4
f 6/6/6 3/3/3 5/5/5
f 2/2/2 3/3/3 6/6/6
f 7/7/7 6/6/6 5/5/5
f 2/2/2 6/6/6 8/8/8
f 7/7/7 8/8/8 6/6/6
f 9/9/9 2/2/2 8/8/8
f 4/4/4 10/10/10 5/5/5
f 11/11/11 10/10/10 4/4/4
f 12/12/12 11/11/11 4/4/4
f 10/10/10 13/13/13 5/5/5
f 14/14/14 5/5/5 13/13/13
f 14/14/14 7/7/7 5/5/5
f 15/15/15 14/14/14 13/13/13
f 10/10/10 16/16/16 13/13/13
f 2/2/2 9/9/9 17/17/17
f 17/17/17 9/9/9 18/18/18
f 9/9/9 19/19/19 18/18/18
f 19/19/19 9/9/9 8/8/8
f 10/10/10 11/11/11 20/20/20
f 21/21/21 17/17/17 18/18/18
f 21/21/21 22/22/22 17/17/17
f 22/22/22 23/23/23 17/17/17
f 24/24/24 22/22/22 21/21/21
f 22/22/22 24/24/24 25/25/25
f 22/22/22 25/25/25 23/23/23
f 23/23/23 25/25/25 26/26/26
f 27/27/27 23/23/23 26/26/26
f 24/24/24 28/28/28 25/25/25
f 28/28/28 26/26/26 25/25/25
f 26/26/26 28/28/28 29/29/29
f 29/29/29 27/27/27 26/26/26
f 27/27/27 29/29/29 30/30/30
f 1/1/1 27/27/27 30/30/30
f 23/23/23 27/27/27 1/1/1
f 28/28/28 31/31/31 29/29/29
f 21/21/21 32/32/32 24/24/24
f 32/32/32 21/21/21 33/33/33
f 21/21/21 34/34/34 33/33/33
f 32/32/32 35/35/35 24/24/24
f 36/36/36 24/24/24 35/35/35
f 24/24/24 36/36/36 28/28/28
f 37/37/37 36/36/36 35/35/35
f 32/32/32 38/38/38 35/35/35
f 39/39/39 38/38/38 32/32/32
f 40/40/40 39/39/39 32/32/32
f 39/39/39 40/40/40 41/41/41
f 42/42/42 39/39/39 41/41/41
f 38/38/38 39/39/39 42/42/42
f 43/43/43 42/42/42 41/41/41
f 42/42/42 44/44/44 38/38/38
f 44/44/44 42/42/42 43/43/43
f 44/44/44 45/45/45 38/38/38
f 40/40/40 46/46/46 41/41/41
f 47/47/47 41/41/41 46/46/46
f 47/47/47 43/43/43 41/41/41
f 48/48/48 47/47/47 46/46/46
f 46/46/46 40/40/40 49/49/49
f 49/49/49 48/48/48 46/46/46
f 40/40/40 50/50/50 49/49/49
f 43/43/43 47/47/47 51/51/51
f 52/52/52 43/43/43 51/51/51
f 52/52/52 44/44/44 43/43/43
f 53/53/53 44/44/44 52/52/52
f 54/54/54 53/53/53 52/52/52
f 49/49/49 50/50/50 55/55/55
f 55/55/55 56/56/56 49/49/49
f 56/56/56 57/57/57 49/49/49
f 57/57/57 56/56/56 58/58/58
f 56/56/56 59/59/59 58/58/58
f 53/53/53 54/54/54 60/60/60
f 60/60/60 61/61/61 53/53/53
f 54/54/54 62/62/62 60/60/60
f 50/50/50 40/40/40 32/32/32
f 17/17/17 23/23/23 2/2/2
f 23/23/23 1/1/1 2/2/2
f 30/30/30 4/4/4 1/1/1
f 63/63/63 37/37/37 35/35/35
