g m_dlc07_flagstone_01
v -1.779524 -0.499861 -1.899604
v -1.784273 0.3271339 -1.899604
v -1.873529 0.3254138 -1.811895
v -1.873529 -0.499861 -1.805605
v -1.873529 -0.2632865 1.833584
v -1.873529 -0.5091272 0.4232263
v -1.806616 -0.3816699 1.840712
v -1.808447 -0.556999 0.8572253
v -1.873529 0.3468502 1.836759
v -1.781111 0.3470592 1.929148
v -1.785616 -0.2756575 1.929148
v -1.873529 0.4835505 -0.3819922
v -1.786782 0.4267115 -1.812417
v -0.9120303 0.5593362 -1.807685
v -0.7533658 0.4844495 -1.899604
v -1.782056 0.5591093 -0.6278613
v -0.7460489 0.5720837 -1.804191
v -1.782758 0.5720837 -0.401477
v -1.873529 0.4864493 1.364172
v -1.790289 0.5437331 1.554901
v -1.791941 0.4541378 1.847422
v -1.779422 0.5720837 1.375809
v -1.504118 0.5439093 1.84611
v -1.329036 0.5720837 1.834906
v -1.318954 0.4864606 1.929148
v -1.781111 0.3470592 1.929148
v 0.7149948 0.5938612 -1.731899
v 0.7374832 0.4589461 -1.871584
v 1.78745 0.5720837 -1.805605
v 1.78745 0.4780833 -1.899604
v 0.5625369 -0.448247 -1.850745
v -1.779524 -0.499861 -1.899604
v 1.881446 0.4780833 -1.805605
v 1.881446 -0.499861 -1.805605
v 1.78745 -0.499861 -1.899604
v 1.787787 0.5720837 1.635222
v 1.881446 0.4846482 1.62038
v 1.881446 -0.02163536 1.836569
v 1.881446 -0.5039443 1.121215
v 1.78745 -0.5938615 -1.805605
v 1.789052 -0.5938615 1.112878
v 1.812772 -0.539238 1.270706
v 1.23481 -0.5392246 1.860035
v 1.079348 -0.5938615 1.83936
v 1.811441 -0.1458587 1.858705
v 1.811441 -0.1458587 1.858705
v 1.881446 0.4430593 1.835143
v 1.788911 -0.0220134 1.929148
v 1.79408 0.4509479 1.929148
v 1.793383 0.554516 1.840367
v 1.619584 0.5720837 1.834174
v 1.619867 0.485023 1.929148
v 1.79408 0.4509479 1.929148
v 1.087867 -0.5038432 1.929148
v 0.4662369 0.5720837 1.834459
v 0.4512332 0.4855943 1.929148
v 0.3357284 0.5075509 1.848301
v 0.01531403 0.1823669 1.875253
v 0.007872009 0.02875015 1.929148
v 0.1096164 0.5747998 1.389823
v 0.0890982 0.5202763 1.537383
v -0.4030765 0.5720837 1.834672
v 0.0890982 0.5202763 1.537383
v -0.285842 0.4991335 1.863817
v -0.4204929 0.4860208 1.929148
v 0.01531403 0.1823669 1.875253
v -0.001388855 -0.4521789 1.929148
v -1.407949 -0.5071736 1.929148
v -1.785616 -0.2756575 1.929148
v 0.1293924 -0.4510163 1.929148
v 1.087867 -0.5038432 1.929148
v 1.788911 -0.0220134 1.929148
v 1.811441 -0.1458587 1.858705
v 1.23481 -0.5392246 1.860035
v -1.873529 -0.499861 -1.805605
v -1.873529 -0.5091272 0.4232263
v -1.791044 -0.5938615 0.4188745
v -1.779524 -0.5938615 -1.805605
v -1.779524 -0.499861 -1.899604
v -1.808447 -0.556999 0.8572253
v -1.386806 -0.5938615 1.83305
v -1.521023 -0.5557491 1.840217
v -1.806616 -0.3816699 1.840712
v -1.785616 -0.2756575 1.929148
v -1.407949 -0.5071736 1.929148
v 0.5625369 -0.448247 -1.850745
v 0.5470456 -0.5336847 -1.765305
v 0.6779099 -0.53962 -1.758909
v 0.6944522 -0.4454848 -1.853015
v 0.1406918 -0.5319156 1.844546
v 0.01034454 -0.5406012 1.836384
v 0.1293924 -0.4510163 1.929148
v -0.001388855 -0.4521789 1.929148
v 1.78745 -0.499861 -1.899604
v 0.6944522 -0.4454848 -1.853015
v 1.78745 -0.499861 -1.899604
vt 0.8300781 0.112793
vt 0.8442383 0.1088867
vt 0.8427734 0.1065674
vt 0.8291016 0.1101685
vt 0.8295898 0.03366089
vt 0.8237305 0.06311035
vt 0.8276367 0.03311157
vt 0.8232422 0.05374146
vt 0.840332 0.03421021
vt 0.8408203 0.03158569
vt 0.8295898 0.03105164
vt 0.8427734 0.07800293
vt 0.8452148 0.1062622
vt 0.8598633 0.105835
vt 0.862793 0.1083984
vt 0.8452148 0.08282471
vt 0.862793 0.1057739
vt 0.8452148 0.07830811
vt 0.8422852 0.04388428
vt 0.84375 0.03997803
vt 0.8427734 0.03375244
vt 0.8442383 0.0435791
vt 0.8486328 0.03387451
vt 0.8515625 0.03393555
vt 0.8515625 0.03146362
vt 0.8427734 0.03068542
vt 0.8876953 0.1050415
vt 0.8886719 0.1090698
vt 0.90625 0.1054077
vt 0.9072266 0.1079102
vt 0.8852539 0.1279297
vt 0.8427734 0.1262207
vt 0.9086914 0.1055298
vt 0.9248047 0.1083984
vt 0.9243164 0.111084
vt 0.9077148 0.03713989
vt 0.9101563 0.03759766
vt 0.9194336 0.03375244
vt 0.9277344 0.04901123
vt 0.9272461 0.1082153
vt 0.9296875 0.04928589
vt 0.9287109 0.04595947
vt 0.9394531 0.03405762
vt 0.9423828 0.03469849
vt 0.921875 0.03311157
vt 0.9272461 0.03182983
vt 0.9106445 0.03341675
vt 0.9194336 0.03108215
vt 0.9106445 0.03089905
vt 0.9082031 0.03286743
vt 0.9047852 0.03292847
vt 0.9052734 0.03027344
vt 0.9082031 0.029953
vt 0.9418945 0.03213501
vt 0.8847656 0.03201294
vt 0.8847656 0.02957153
vt 0.8823242 0.03102112
vt 0.8759766 0.02528381
vt 0.8754883 0.02172852
vt 0.8779297 0.04040527
vt 0.8774414 0.03686523
vt 0.8676758 0.03259277
vt 0.8774414 0.03686523
vt 0.8696289 0.03114319
vt 0.8671875 0.0302124
vt 0.8759766 0.02528381
vt 0.875 0.01189423
vt 0.8481445 0.01153564
vt 0.8417969 0.0176239
vt 0.8774414 0.01178741
vt 0.8955078 0.009521484
vt 0.9082031 0.0202179
vt 0.9086914 0.01737976
vt 0.8984375 0.008659363
vt 0.9926758 0.1108398
vt 0.9946289 0.06604004
vt 0.9921875 0.06604004
vt 0.9902344 0.1104126
vt 0.9907227 0.1130371
vt 0.9931641 0.05709839
vt 0.9863281 0.03695679
vt 0.9887695 0.03686523
vt 0.9946289 0.03646851
vt 0.9946289 0.03359985
vt 0.9868164 0.03436279
vt 0.9492188 0.1118164
vt 0.949707 0.109314
vt 0.9472656 0.1090698
vt 0.9467773 0.1118164
vt 0.9589844 0.03482056
vt 0.9614258 0.03509521
vt 0.9589844 0.03244019
vt 0.9614258 0.03250122
vt 0.9267578 0.1107788
vt 0.8876953 0.1278076
vt 0.9077148 0.1279297
vn -0.01302304 -0.1020098 -0.9946982
vn -0.01910669 0.01359089 -0.999725
vn -0.9992328 0.03039695 -0.02469602
vn -0.9982185 -0.05544538 -0.02203521
vn -0.9996183 -0.01960582 0.01946402
vn -0.9993951 -0.03477459 0.000408085
vn -0.6980157 -0.6765024 0.2347732
vn -0.6057173 -0.7906101 0.08967874
vn -0.9998259 0.007753869 0.01697417
vn -0.03544769 0.01541719 0.9992526
vn -0.03337862 -0.01194248 0.9993715
vn -0.9994199 0.0340484 -0.00070476
vn -0.299061 0.928071 -0.2219159
vn -0.1156012 0.9596948 -0.2561683
vn 0.01540617 0.02966434 -0.9994412
vn -0.350356 0.9332099 -0.07981089
vn -0.006019644 0.9998152 -0.01826333
vn -0.01958906 0.999808 0.0006084999
vn -0.9995166 0.03107938 0.0007576708
vn -0.455511 0.8714958 0.181672
vn -0.4851865 0.7329058 0.4769101
vn -0.02058148 0.9997867 0.001724481
vn -0.185772 0.8736271 0.4497381
vn -0.006333248 0.9999346 0.009528711
vn -0.001601693 0.03721592 0.999306
vn -0.03544769 0.01541719 0.9992526
vn 0.0009063404 0.9997942 -0.02026627
vn -0.001530925 0.07386675 -0.997267
vn 0.06621186 0.9975768 -0.02136633
vn 0.04456403 0.09579869 -0.9944027
vn 0.01744878 -0.09122523 -0.9956774
vn -0.01302304 -0.1020098 -0.9946982
vn 0.9960898 0.08478136 -0.02484622
vn 0.9970356 -0.07271849 -0.02514227
vn 0.04327051 -0.09748887 -0.9942955
vn 0.04467999 0.9989945 0.003705673
vn 0.998609 0.05272793 0.0001073875
vn 0.9998658 -0.007591281 0.0145191
vn 0.9987404 -0.05007851 0.003134726
vn 0.01148883 -0.9995493 -0.02773391
vn -0.001348212 -0.999993 -0.003496058
vn 0.5629371 -0.74333 0.3613338
vn 0.3702984 -0.7453956 0.5543145
vn -0.04089375 -0.9991286 0.008350524
vn 0.5777068 -0.5856172 0.5686012
vn 0.5777068 -0.5856172 0.5686012
vn 0.9999181 0.002883216 0.01247381
vn 0.03375001 -0.01707261 0.9992846
vn 0.02874323 0.005846131 0.9995697
vn 0.3971529 0.8555298 0.3321722
vn 0.008029529 0.9997967 0.01849589
vn 0.0003876242 0.04245442 0.9990983
vn 0.02874323 0.005846131 0.9995697
vn 0.005962245 -0.04684988 0.9988841
vn 0.00551431 0.9997701 0.02072298
vn -0.008532853 0.05504433 0.9984475
vn -0.4569781 0.6680319 0.5872856
vn -0.4616546 0.4860536 0.7420425
vn -6.053142E-05 0.005796661 0.9999832
vn -0.0003009517 0.9999938 0.003526936
vn -0.4647224 0.7943303 0.3912447
vn -0.004067676 0.9999418 0.00998845
vn 0.4196365 0.7493842 0.5121802
vn 0.4112862 0.6047218 0.6820229
vn 0.006441211 0.04557052 0.9989404
vn 0.4310363 0.425811 0.7955456
vn 0.00292188 -0.08273744 0.9965671
vn -0.003291719 -0.05406965 0.9985317
vn -0.03337862 -0.01194248 0.9993715
vn -0.002349833 -0.04832615 0.9988288
vn 0.005962245 -0.04684988 0.9988841
vn 0.03375001 -0.01707261 0.9992846
vn 0.5777068 -0.5856172 0.5686012
vn 0.3702984 -0.7453956 0.5543145
vn -0.9982185 -0.05544538 -0.02203521
vn -0.9993951 -0.03477459 0.000408085
vn 0.01072484 -0.9999425 -0.0001340672
vn 0.00149799 -0.9995962 -0.02837887
vn -0.01302304 -0.1020098 -0.9946982
vn -0.6057173 -0.7906101 0.08967874
vn 0.02365074 -0.9995806 0.01671044
vn -0.3763832 -0.8972428 0.2308487
vn -0.6980157 -0.6765024 0.2347732
vn -0.03337862 -0.01194248 0.9993715
vn -0.003291719 -0.05406965 0.9985317
vn 0.01744878 -0.09122523 -0.9956774
vn 0.02767159 -0.9990863 -0.03257343
vn -0.04093535 -0.9988606 -0.02453296
vn -0.03868246 -0.1097937 -0.9932014
vn -0.03892846 -0.999135 0.01462593
vn 0.02766269 -0.9995029 0.01512594
vn -0.002349833 -0.04832615 0.9988288
vn 0.00292188 -0.08273744 0.9965671
vn 0.04327051 -0.09748887 -0.9942955
vn -0.03868246 -0.1097937 -0.9932014
vn 0.04327051 -0.09748887 -0.9942955
g m_dlc07_flagstone_01_0
f 3/3/3 2/2/2 1/1/1
f 4/4/4 3/3/3 1/1/1
f 5/5/5 3/3/3 4/4/4
f 4/4/4 6/6/6 5/5/5
f 7/7/7 5/5/5 6/6/6
f 8/8/8 7/7/7 6/6/6
f 5/5/5 9/9/9 3/3/3
f 9/9/9 5/5/5 10/10/10
f 5/5/5 11/11/11 10/10/10
f 11/11/11 5/5/5 7/7/7
f 9/9/9 12/12/12 3/3/3
f 13/13/13 3/3/3 12/12/12
f 2/2/2 3/3/3 13/13/13
f 2/2/2 13/13/13 14/14/14
f 15/15/15 2/2/2 14/14/14
f 16/16/16 13/13/13 12/12/12
f 16/16/16 14/14/14 13/13/13
f 14/14/14 16/16/16 17/17/17
f 17/17/17 15/15/15 14/14/14
f 16/16/16 18/18/18 17/17/17
f 18/18/18 16/16/16 12/12/12
f 18/18/18 12/12/12 19/19/19
f 9/9/9 19/19/19 12/12/12
f 19/19/19 9/9/9 20/20/20
f 9/9/9 21/21/21 20/20/20
f 21/21/21 9/9/9 10/10/10
f 22/22/22 18/18/18 19/19/19
f 22/22/22 19/19/19 20/20/20
f 22/22/22 20/20/20 23/23/23
f 21/21/21 23/23/23 20/20/20
f 24/24/24 22/22/22 23/23/23
f 23/23/23 21/21/21 25/25/25
f 25/25/25 24/24/24 23/23/23
f 21/21/21 26/26/26 25/25/25
f 15/15/15 17/17/17 27/27/27
f 27/27/27 17/17/17 18/18/18
f 28/28/28 15/15/15 27/27/27
f 28/28/28 27/27/27 29/29/29
f 30/30/30 28/28/28 29/29/29
f 15/15/15 28/28/28 31/31/31
f 31/31/31 32/32/32 15/15/15
f 32/32/32 2/2/2 15/15/15
f 30/30/30 29/29/29 33/33/33
f 30/30/30 33/33/33 34/34/34
f 35/35/35 30/30/30 34/34/34
f 29/29/29 36/36/36 33/33/33
f 36/36/36 29/29/29 27/27/27
f 36/36/36 37/37/37 33/33/33
f 34/34/34 33/33/33 38/38/38
f 38/38/38 39/39/39 34/34/34
f 34/34/34 39/39/39 40/40/40
f 39/39/39 41/41/41 40/40/40
f 39/39/39 38/38/38 42/42/42
f 39/39/39 42/42/42 41/41/41
f 42/42/42 43/43/43 41/41/41
f 43/43/43 44/44/44 41/41/41
f 38/38/38 45/45/45 42/42/42
f 46/46/46 43/43/43 42/42/42
f 33/33/33 47/47/47 38/38/38
f 33/33/33 37/37/37 47/47/47
f 38/38/38 47/47/47 48/48/48
f 38/38/38 48/48/48 45/45/45
f 47/47/47 49/49/49 48/48/48
f 47/47/47 37/37/37 50/50/50
f 47/47/47 50/50/50 49/49/49
f 37/37/37 36/36/36 50/50/50
f 50/50/50 36/36/36 51/51/51
f 51/51/51 52/52/52 50/50/50
f 52/52/52 53/53/53 50/50/50
f 43/43/43 54/54/54 44/44/44
f 52/52/52 51/51/51 55/55/55
f 56/56/56 52/52/52 55/55/55
f 56/56/56 55/55/55 57/57/57
f 56/56/56 57/57/57 58/58/58
f 59/59/59 56/56/56 58/58/58
f 57/57/57 55/55/55 60/60/60
f 61/61/61 57/57/57 60/60/60
f 57/57/57 61/61/61 58/58/58
f 60/60/60 55/55/55 36/36/36
f 55/55/55 51/51/51 36/36/36
f 27/27/27 60/60/60 36/36/36
f 18/18/18 60/60/60 27/27/27
f 18/18/18 22/22/22 60/60/60
f 22/22/22 24/24/24 60/60/60
f 24/24/24 62/62/62 60/60/60
f 60/60/60 62/62/62 63/63/63
f 62/62/62 64/64/64 63/63/63
f 64/64/64 65/65/65 59/59/59
f 64/64/64 62/62/62 65/65/65
f 65/65/65 62/62/62 24/24/24
f 66/66/66 64/64/64 59/59/59
f 66/66/66 63/63/63 64/64/64
f 25/25/25 65/65/65 24/24/24
f 67/67/67 59/59/59 65/65/65
f 65/65/65 68/68/68 67/67/67
f 65/65/65 25/25/25 68/68/68
f 25/25/25 26/26/26 68/68/68
f 26/26/26 69/69/69 68/68/68
f 67/67/67 70/70/70 59/59/59
f 56/56/56 59/59/59 70/70/70
f 56/56/56 70/70/70 71/71/71
f 52/52/52 56/56/56 71/71/71
f 52/52/52 71/71/71 72/72/72
f 72/72/72 71/71/71 73/73/73
f 71/71/71 74/74/74 73/73/73
f 72/72/72 53/53/53 52/52/52
f 77/77/77 76/76/76 75/75/75
f 78/78/78 77/77/77 75/75/75
f 78/78/78 75/75/75 79/79/79
f 77/77/77 80/80/80 76/76/76
f 77/77/77 81/81/81 80/80/80
f 81/81/81 82/82/82 80/80/80
f 80/80/80 82/82/82 83/83/83
f 84/84/84 83/83/83 82/82/82
f 85/85/85 84/84/84 82/82/82
f 81/81/81 85/85/85 82/82/82
f 79/79/79 86/86/86 78/78/78
f 86/86/86 87/87/87 78/78/78
f 77/77/77 78/78/78 87/87/87
f 88/88/88 87/87/87 86/86/86
f 89/89/89 88/88/88 86/86/86
f 88/88/88 90/90/90 87/87/87
f 90/90/90 91/91/91 87/87/87
f 87/87/87 91/91/91 77/77/77
f 91/91/91 81/81/81 77/77/77
f 85/85/85 81/81/81 91/91/91
f 91/91/91 90/90/90 92/92/92
f 93/93/93 91/91/91 92/92/92
f 93/93/93 85/85/85 91/91/91
f 92/92/92 90/90/90 44/44/44
f 54/54/54 92/92/92 44/44/44
f 89/89/89 94/94/94 88/88/88
f 94/94/94 40/40/40 88/88/88
f 94/94/94 34/34/34 40/40/40
f 88/88/88 40/40/40 41/41/41
f 41/41/41 90/90/90 88/88/88
f 41/41/41 44/44/44 90/90/90
f 30/30/30 96/96/96 95/95/95
f 28/28/28 30/30/30 95/95/95
f 95/95/95 31/31/31 28/28/28
