g m_dlc07_stone_broken_block_04
v 0.3859049 -0.2400513 0.3170586
v 0.1093954 -0.2402855 -0.3198068
v 0.1019854 -0.2475504 -0.3211258
v 0.3796706 -0.2475504 0.3211258
v 0.3965085 -0.2109514 0.3454578
v 0.3914172 -0.2148191 0.3538571
v 0.3820131 0.03583931 0.3458072
v 0.3767661 0.03579838 0.3538571
v 0.08680921 -0.2148191 -0.3538571
v 0.09533151 -0.2120885 -0.3483432
v 0.07077383 0.05532608 -0.3538571
v 0.07905504 0.06054609 -0.3485629
v -0.3903821 -0.2144261 0.3538571
v -0.3844694 -0.2475504 0.3211258
v -0.3911851 -0.240251 0.3182768
v -0.3965085 -0.2114649 0.3459894
v -0.3855869 0.06896494 0.3459883
v -0.3796217 0.06958404 0.3538571
v -0.2431785 -0.2402826 -0.3181996
v -0.2356802 -0.2475504 -0.3211258
v -0.2352411 -0.2120761 -0.347608
v -0.2273162 -0.2148191 -0.3538571
v -0.2306198 -0.09323732 -0.3475784
v -0.2231261 -0.09376894 -0.3538571
v 0.07069834 0.06533888 -0.3489389
v -0.2249171 -0.08476005 -0.3487301
v -0.3789194 0.07691149 0.3465483
v -0.09871135 0.02744181 0.3770788
v -0.09191201 0.03640292 0.3699524
v 0.1842888 0.2132475 0.3538571
v 0.1819996 0.2199668 0.3468977
v 0.01116791 -0.01979347 0.3821892
v 0.1921589 0.2170871 0.3480724
v 0.3756441 0.04794167 0.3475645
v 0.3756441 0.04794167 0.3475645
v 0.2754464 0.2434155 0.1425591
v 0.2761867 0.24192 0.1302463
v 0.3820131 0.03583931 0.3458072
v 0.1921589 0.2170871 0.3480724
v 0.1819996 0.2199668 0.3468977
v 0.2689905 0.2475504 0.1327704
v 0.02195648 0.2489717 0.2021461
v -0.09191201 0.03640292 0.3699524
v -0.132608 0.1468962 0.06234955
v 0.08900637 0.1669053 0.07009216
v -0.02898144 0.2242076 -0.0748973
v 0.1477962 0.2237112 -0.1478381
v -0.03177159 0.2207032 -0.08429596
v -0.1186939 0.05664513 -0.08284637
v -0.118054 0.05960054 -0.0726123
v -0.303949 0.1011585 0.02123917
v -0.1158115 -0.03982333 -0.2112581
v 0.0300482 0.1159499 -0.2323117
v -0.3049931 0.1036907 0.03212158
v -0.3109774 0.09635263 0.02973328
v -0.3079778 0.03500394 0.1898881
v -0.3012182 0.0428388 0.1896235
v -0.2602022 0.1106427 0.2095702
v 0.1442051 0.2200197 -0.1569414
v 0.1544309 0.2181745 -0.1534172
v 0.1698228 0.1575261 0.02719673
v 0.1760844 0.1517896 0.02184036
v 0.07905504 0.06054609 -0.3485629
v 0.07069834 0.06533888 -0.3489389
v 0.1730727 0.0684287 -0.009811096
v -0.2249171 -0.08476005 -0.3487301
v -0.1985294 -0.05393116 -0.2079437
v -0.2043961 -0.06189061 -0.2057527
v -0.2306198 -0.09323732 -0.3475784
v 0.1814698 -0.04550449 -0.2359552
v 0.09533151 -0.2120885 -0.3483432
v 0.2475181 -0.1279267 -0.05174545
v 0.3965085 -0.2109514 0.3454578
v 0.1093954 -0.2402855 -0.3198068
v 0.3859049 -0.2400513 0.3170586
v 0.3861763 -0.01199934 0.1083048
v -0.231744 -0.1063776 -0.2182931
v -0.2352411 -0.2120761 -0.347608
v -0.2950188 -0.144166 0.03497337
v -0.35236 -0.02851447 0.01621491
v -0.3740791 -0.03220887 0.1798342
v -0.3354542 -0.1263441 0.2637369
v -0.3855869 0.06896494 0.3459883
v -0.3965085 -0.2114649 0.3459894
v -0.2431785 -0.2402826 -0.3181996
v -0.3911851 -0.240251 0.3182768
v -0.3789194 0.07691149 0.3465483
vt 0.6098633 0.9482422
vt 0.6010742 0.9291992
vt 0.6005859 0.9291992
vt 0.609375 0.9487305
vt 0.6098633 0.9501953
vt 0.6098633 0.949707
vt 0.6098633 0.9575195
vt 0.6098633 0.9575195
vt 0.6000977 0.9277344
vt 0.6005859 0.9277344
vt 0.5996094 0.9194336
vt 0.5996094 0.9194336
vt 0.5864258 0.9506836
vt 0.5864258 0.9492188
vt 0.5859375 0.9492188
vt 0.5859375 0.9506836
vt 0.5859375 0.9589844
vt 0.5864258 0.9589844
vt 0.5898438 0.9291992
vt 0.590332 0.9291992
vt 0.590332 0.9277344
vt 0.5908203 0.9277344
vt 0.590332 0.9243164
vt 0.5908203 0.9243164
vt 0.5996094 0.9189453
vt 0.590332 0.9238281
vt 0.5864258 0.9594727
vt 0.5952148 0.9580078
vt 0.5952148 0.9580078
vt 0.6044922 0.9633789
vt 0.6040039 0.9633789
vt 0.5986328 0.956543
vt 0.6044922 0.9633789
vt 0.6098633 0.9580078
vt 0.5317383 0.9248047
vt 0.5361328 0.9326172
vt 0.5366211 0.9326172
vt 0.5317383 0.9243164
vt 0.5297852 0.934082
vt 0.5297852 0.9345703
vt 0.5361328 0.9326172
vt 0.5351563 0.9394531
vt 0.5292969 0.9462891
vt 0.5400391 0.9443359
vt 0.5395508 0.9370117
vt 0.543457 0.940918
vt 0.5454102 0.9365234
vt 0.5439453 0.940918
vt 0.5458984 0.9448242
vt 0.5454102 0.9448242
vt 0.5419922 0.949707
vt 0.5507813 0.9458008
vt 0.5493164 0.9394531
vt 0.5415039 0.949707
vt 0.5419922 0.949707
vt 0.5380859 0.9526367
vt 0.5375977 0.9521484
vt 0.5361328 0.9501953
vt 0.5454102 0.9365234
vt 0.5454102 0.9365234
vt 0.5410156 0.934082
vt 0.5410156 0.9335938
vt 0.5532227 0.9365234
vt 0.5532227 0.9370117
vt 0.543457 0.9316406
vt 0.5556641 0.9477539
vt 0.5512695 0.9482422
vt 0.5512695 0.9487305
vt 0.5556641 0.9482422
vt 0.5507813 0.9311523
vt 0.5571289 0.9287109
vt 0.5463867 0.9257813
vt 0.5356445 0.9169922
vt 0.5566406 0.9272461
vt 0.5371094 0.9165039
vt 0.5390625 0.9257813
vt 0.5522461 0.9501953
vt 0.5571289 0.9511719
vt 0.5458984 0.9560547
vt 0.5439453 0.9526367
vt 0.5395508 0.9550781
vt 0.5390625 0.9594727
vt 0.5332031 0.9555664
vt 0.5380859 0.9633789
vt 0.5571289 0.9526367
vt 0.5395508 0.9638672
vt 0.5332031 0.9550781
vn 0.9161237 -0.0984605 -0.3886166
vn 0.9092636 -0.1139381 -0.400322
vn 0.008132921 -0.9997135 -0.02251237
vn 0.01559593 -0.9955297 0.09315261
vn 0.9711376 -0.1214306 -0.205296
vn 0.05699335 -0.2196422 0.9739144
vn 0.9758126 0.2185825 0.003365477
vn 0.09058254 0.03984419 0.9950916
vn 0.01966484 -0.1744162 -0.9844756
vn 0.8524578 -0.06146331 -0.5191706
vn 0.01830421 0.03899203 -0.9990718
vn 0.8620657 0.189702 -0.4699529
vn -0.05604164 -0.2896708 0.9554843
vn -0.01354062 -0.9967496 0.0794157
vn -0.9692564 -0.1170112 -0.2164494
vn -0.9642593 0.1416475 -0.2239193
vn -0.9826454 0.1104141 -0.1490525
vn -0.1014952 0.03276253 0.9942965
vn -0.9638761 -0.1339364 -0.2302256
vn -0.008707833 -0.9996477 -0.02507301
vn -0.9657479 0.1294202 -0.2249029
vn -0.0118916 -0.1657284 -0.9860997
vn -0.9841089 0.152061 -0.09169091
vn -0.01720143 0.01565666 -0.9997295
vn -0.5003469 0.8210044 -0.2749633
vn -0.5387022 0.8000997 -0.263895
vn -0.06312225 0.9590483 0.2761199
vn -0.0672546 0.03090602 0.9972571
vn -0.3204903 0.8221458 0.4704914
vn 0.06073639 0.07309694 0.9954737
vn -0.2033313 0.8840833 0.4207768
vn 0.01300729 -0.04642996 0.9988369
vn 0.591805 0.7036462 0.3932541
vn 0.6818464 0.6303205 0.3711894
vn 0.6818464 0.6303205 0.3711894
vn 0.6531318 0.7052028 0.2758766
vn 0.7767846 0.4066569 -0.4808699
vn 0.9758126 0.2185825 0.003365477
vn 0.591805 0.7036462 0.3932541
vn -0.2033313 0.8840833 0.4207768
vn -0.01577553 0.9825996 -0.1850654
vn -0.4135248 0.8919212 0.1829586
vn -0.3204903 0.8221458 0.4704914
vn -0.3812658 0.9243901 0.01180371
vn -0.05168884 0.9774414 -0.2047842
vn -0.2179816 0.9560309 0.1961861
vn 0.1943885 0.9587972 0.207174
vn -0.5790787 0.5924394 -0.5600745
vn -0.4705411 0.6816412 -0.560318
vn -0.5214846 0.7308179 -0.4404077
vn -0.3317037 0.7527188 -0.5686713
vn -0.5155921 0.8059117 -0.2909831
vn -0.551906 0.7465204 -0.3716277
vn -0.3047316 0.939882 -0.1541439
vn -0.8644217 0.4041168 -0.2991061
vn -0.7142881 0.6931449 -0.09665793
vn -0.8175085 0.5624002 -0.12404
vn -0.09681518 0.9693887 0.2256377
vn -0.1661289 0.7822004 -0.6004695
vn 0.9623244 -0.04588335 -0.2680046
vn 0.1346763 0.9811933 -0.1382826
vn 0.8539327 0.2648007 -0.4479727
vn 0.8620657 0.189702 -0.4699529
vn -0.5003469 0.8210044 -0.2749633
vn 0.807085 0.2730397 -0.5235103
vn -0.5387022 0.8000997 -0.263895
vn -0.2945709 0.8232719 -0.4852334
vn -0.7110565 0.5182543 -0.4751957
vn -0.9841089 0.152061 -0.09169091
vn 0.899264 0.1883689 -0.3947676
vn 0.8524578 -0.06146331 -0.5191706
vn 0.8929477 -0.09016225 -0.4410388
vn 0.9711376 -0.1214306 -0.205296
vn 0.9092636 -0.1139381 -0.400322
vn 0.9161237 -0.0984605 -0.3886166
vn 0.9096687 0.04277737 -0.4131259
vn -0.9376497 0.2322891 -0.2585631
vn -0.9657479 0.1294202 -0.2249029
vn -0.9758794 0.01918463 -0.2174654
vn -0.9470296 -0.1096582 -0.3018446
vn -0.9776973 -0.1894799 -0.09058449
vn -0.9654035 -0.02982456 -0.2590494
vn -0.9826454 0.1104141 -0.1490525
vn -0.9642593 0.1416475 -0.2239193
vn -0.9638761 -0.1339364 -0.2302256
vn -0.9692564 -0.1170112 -0.2164494
vn -0.06312225 0.9590483 0.2761199
g m_dlc07_stone_broken_block_04_0
f 3/3/3 2/2/2 1/1/1
f 4/4/4 3/3/3 1/1/1
f 1/1/1 5/5/5 4/4/4
f 5/5/5 6/6/6 4/4/4
f 5/5/5 7/7/7 6/6/6
f 7/7/7 8/8/8 6/6/6
f 2/2/2 3/3/3 9/9/9
f 10/10/10 2/2/2 9/9/9
f 9/9/9 11/11/11 10/10/10
f 11/11/11 12/12/12 10/10/10
f 4/4/4 6/6/6 13/13/13
f 14/14/14 4/4/4 13/13/13
f 3/3/3 4/4/4 14/14/14
f 15/15/15 14/14/14 13/13/13
f 16/16/16 15/15/15 13/13/13
f 17/17/17 16/16/16 13/13/13
f 18/18/18 17/17/17 13/13/13
f 15/15/15 19/19/19 14/14/14
f 19/19/19 20/20/20 14/14/14
f 19/19/19 21/21/21 20/20/20
f 21/21/21 22/22/22 20/20/20
f 22/22/22 9/9/9 20/20/20
f 11/11/11 9/9/9 22/22/22
f 21/21/21 23/23/23 22/22/22
f 23/23/23 24/24/24 22/22/22
f 24/24/24 11/11/11 22/22/22
f 11/11/11 24/24/24 25/25/25
f 11/11/11 25/25/25 12/12/12
f 24/24/24 26/26/26 25/25/25
f 24/24/24 23/23/23 26/26/26
f 20/20/20 3/3/3 14/14/14
f 9/9/9 3/3/3 20/20/20
f 18/18/18 27/27/27 17/17/17
f 18/18/18 28/28/28 27/27/27
f 28/28/28 29/29/29 27/27/27
f 28/28/28 30/30/30 29/29/29
f 30/30/30 31/31/31 29/29/29
f 32/32/32 30/30/30 28/28/28
f 30/30/30 32/32/32 8/8/8
f 33/33/33 30/30/30 8/8/8
f 31/31/31 30/30/30 33/33/33
f 34/34/34 33/33/33 8/8/8
f 32/32/32 6/6/6 8/8/8
f 8/8/8 7/7/7 34/34/34
f 32/32/32 28/28/28 13/13/13
f 32/32/32 13/13/13 6/6/6
f 28/28/28 18/18/18 13/13/13
f 37/37/37 36/36/36 35/35/35
f 38/38/38 37/37/37 35/35/35
f 39/39/39 35/35/35 36/36/36
f 39/39/39 36/36/36 40/40/40
f 36/36/36 41/41/41 40/40/40
f 36/36/36 37/37/37 41/41/41
f 42/42/42 40/40/40 41/41/41
f 42/42/42 43/43/43 40/40/40
f 42/42/42 44/44/44 43/43/43
f 45/45/45 44/44/44 42/42/42
f 45/45/45 42/42/42 41/41/41
f 46/46/46 44/44/44 45/45/45
f 46/46/46 45/45/45 47/47/47
f 46/46/46 47/47/47 48/48/48
f 46/46/46 48/48/48 49/49/49
f 50/50/50 46/46/46 49/49/49
f 46/46/46 50/50/50 44/44/44
f 50/50/50 49/49/49 51/51/51
f 52/52/52 51/51/51 49/49/49
f 53/53/53 52/52/52 49/49/49
f 53/53/53 49/49/49 48/48/48
f 54/54/54 50/50/50 51/51/51
f 50/50/50 54/54/54 44/44/44
f 55/55/55 54/54/54 51/51/51
f 54/54/54 55/55/55 56/56/56
f 57/57/57 54/54/54 56/56/56
f 58/58/58 54/54/54 57/57/57
f 44/44/44 58/58/58 43/43/43
f 58/58/58 44/44/44 54/54/54
f 47/47/47 59/59/59 48/48/48
f 53/53/53 48/48/48 59/59/59
f 60/60/60 59/59/59 47/47/47
f 60/60/60 47/47/47 61/61/61
f 62/62/62 60/60/60 61/61/61
f 59/59/59 60/60/60 63/63/63
f 64/64/64 59/59/59 63/63/63
f 64/64/64 53/53/53 59/59/59
f 53/53/53 64/64/64 52/52/52
f 65/65/65 60/60/60 62/62/62
f 65/65/65 63/63/63 60/60/60
f 64/64/64 66/66/66 52/52/52
f 52/52/52 66/66/66 67/67/67
f 68/68/68 67/67/67 66/66/66
f 68/68/68 55/55/55 67/67/67
f 69/69/69 68/68/68 66/66/66
f 65/65/65 70/70/70 63/63/63
f 70/70/70 71/71/71 63/63/63
f 72/72/72 71/71/71 70/70/70
f 72/72/72 70/70/70 65/65/65
f 72/72/72 73/73/73 71/71/71
f 74/74/74 71/71/71 73/73/73
f 75/75/75 74/74/74 73/73/73
f 76/76/76 72/72/72 65/65/65
f 72/72/72 76/76/76 73/73/73
f 76/76/76 65/65/65 37/37/37
f 65/65/65 62/62/62 37/37/37
f 38/38/38 73/73/73 76/76/76
f 38/38/38 76/76/76 37/37/37
f 68/68/68 69/69/69 77/77/77
f 69/69/69 78/78/78 77/77/77
f 77/77/77 78/78/78 79/79/79
f 80/80/80 77/77/77 79/79/79
f 80/80/80 79/79/79 81/81/81
f 79/79/79 82/82/82 81/81/81
f 81/81/81 82/82/82 83/83/83
f 80/80/80 81/81/81 55/55/55
f 77/77/77 80/80/80 55/55/55
f 81/81/81 56/56/56 55/55/55
f 81/81/81 83/83/83 56/56/56
f 79/79/79 84/84/84 82/82/82
f 82/82/82 84/84/84 83/83/83
f 79/79/79 78/78/78 84/84/84
f 78/78/78 85/85/85 84/84/84
f 85/85/85 86/86/86 84/84/84
f 68/68/68 77/77/77 55/55/55
f 57/57/57 56/56/56 83/83/83
f 87/87/87 57/57/57 83/83/83
f 58/58/58 57/57/57 87/87/87
f 58/58/58 87/87/87 43/43/43
f 55/55/55 51/51/51 67/67/67
f 52/52/52 67/67/67 51/51/51
f 45/45/45 61/61/61 47/47/47
f 45/45/45 41/41/41 61/61/61
f 62/62/62 61/61/61 41/41/41
f 37/37/37 62/62/62 41/41/41
