g m_dlc07_stone_block_02_a
v -0.5999951 0.03273128 0.3211257
v -0.5999951 0.843722 0.3211257
v -0.567265 0.843722 0.3538571
v -0.567265 0.03273128 0.3538571
v -0.5999951 0.03273128 -0.3211257
v -0.567265 1.16928E-08 0.3211257
v -0.567265 -8.711816E-17 -0.3211257
v -0.5999951 0.843722 -0.3211257
v -0.567265 0.03273128 -0.3538572
v -0.567265 0.843722 -0.3538572
v -0.567265 0.876454 -0.3211257
v -0.567265 0.876454 0.3211257
v -0.168454 0.8331001 0.364479
v -0.168454 0.8779616 0.3077309
v 0.1881492 0.8337684 0.3551014
v 0.1803464 0.8703239 0.3065927
v -0.1639854 0.802204 0.3759021
v -0.09746999 0.03273128 0.3538571
v -0.09746999 6.850964E-09 0.3211257
v 0.5672657 0.843722 0.3538571
v 0.5672657 0.876454 0.3211257
v 0.5999973 0.843722 0.3211257
v 0.5672657 0.03273128 0.3538571
v 0.5999973 0.03273128 0.3211257
v 0.5999973 0.843722 -0.3211257
v 0.5672657 0.876454 -0.3211257
v 0.5999973 0.03273128 -0.3211257
v 0.5672657 -8.711816E-17 -0.3211257
v 0.5672657 -8.711816E-17 0.3211257
v 0.5672657 0.843722 -0.3538572
v 0.5672657 0.03273128 -0.3538572
v -0.1021843 0.871496 -0.05278959
v -0.1603432 0.8851692 0.2660407
v -0.2234792 0.8744183 -0.1287553
v -0.2034903 0.8553938 -0.1447699
v -0.30506 0.870547 -0.3141241
v -0.567265 0.876454 -0.3211257
v -0.567265 0.843722 -0.3538572
v -0.3092524 0.8480086 -0.3396454
v -0.2877619 0.5764644 -0.3619425
v -0.567265 0.03273128 -0.3538572
v -0.1365333 0.4279032 -0.3572639
v -0.2801959 0.855314 -0.3097457
v -0.2859057 0.8399988 -0.3338333
v -0.1170862 0.8579242 -0.0855094
v -0.265758 0.6498356 -0.3431651
v -0.2523925 0.8004413 -0.2885867
v -0.1900043 0.7976418 -0.1785928
v -0.1345878 0.466786 -0.3377983
v -0.003215802 0.571705 -0.3578792
v -0.03059483 0.5867406 -0.3393235
v -0.245791 0.6116936 -0.3434246
v -0.2137793 0.6498198 -0.2448838
v -0.1960372 0.6159182 -0.2504353
v -0.1199118 0.6586688 -0.180272
v -0.1108273 0.6189173 -0.1949722
v -0.1239492 0.5512527 -0.2694251
v -0.06536165 0.6294205 -0.1891865
v -0.01004384 0.6154476 -0.3395002
v 0.05416537 0.8423379 -0.3392105
v 0.07501767 0.8467975 -0.3516497
v 0.08031319 0.868689 -0.324934
v 0.06045133 0.8571736 -0.319247
v 0.02925268 0.871817 -0.1389592
v 0.01272327 0.8579046 -0.1637857
v 0.3268592 0.8519319 -0.3454941
v 0.3356755 0.5748511 -0.3556161
v -0.04330426 0.6690577 -0.1948057
v -0.05675836 0.6753393 -0.1696162
v -0.09363673 0.6745031 -0.1712135
v -0.0242042 0.7930607 -0.1516444
v -0.01120274 0.7957818 -0.176465
v -0.00232481 0.858023 -0.1393685
v -0.09007379 0.8582767 -0.08480237
v -0.08916988 0.8025318 -0.1267014
v -0.1160712 0.8034973 -0.1296435
v 0.3305866 0.8743349 -0.1712646
v 0.5672657 0.876454 -0.3211257
v 0.32799 0.8659427 -0.3302752
v 0.5672657 0.843722 -0.3538572
v 0.5672657 0.03273128 -0.3538572
v 0.1759862 0.3070429 -0.3557251
v 0.166313 0.03273128 -0.3538572
v 0.1031586 0.2246592 -0.3547117
v 0.1054216 0.1863457 -0.3402292
v 0.1347263 0.04192479 -0.3433173
v 0.1818953 -8.711816E-17 -0.3211257
v 0.1546121 0.006288546 -0.314583
v 0.1713375 0.006812921 0.06508389
v 0.1594648 0.009790083 0.06531736
v 0.1062837 0.05376295 -0.2894164
v 0.1062837 0.07869049 -0.3189157
v 0.1404409 0.04367125 0.06594784
v -0.09746999 0.03273128 -0.3538572
v -0.567265 -8.711816E-17 -0.3211257
v -0.09746999 -8.711816E-17 -0.3211257
v -0.09746999 6.850964E-09 0.3211257
v -0.567265 1.16928E-08 0.3211257
v 0.04905486 -8.711816E-17 -0.3211257
v 0.1135762 0.006814453 0.06558248
v 0.1251545 0.01010018 0.06562711
v 0.0748114 0.007635733 -0.3131815
v 0.05020469 0.03273128 -0.3538572
v 0.07557265 0.03351426 -0.3389275
v 0.1054216 0.1863457 -0.3402292
v 0.1062837 0.07869049 -0.3189157
v 0.1062837 0.05376295 -0.2894164
v 0.1404409 0.04367125 0.06594784
v 0.100638 0.006579781 0.3165065
v 0.1262079 0.0452175 0.3005334
v 0.08315193 0.001970449 0.321302
v 0.1316572 0.1309554 0.3347518
v 0.1112957 0.02954678 0.3357027
v 0.0929404 0.0234084 0.3427401
v 0.1319864 0.1686139 0.3541599
v 0.08315193 0.001970449 0.321302
v 0.100638 0.006579781 0.3165065
v 0.1262079 0.0452175 0.3005334
v 0.1262079 0.05885172 0.3198546
v 0.1642035 0.0234084 0.3427401
v 0.1460709 0.02873753 0.3366306
v 0.1316572 0.1309554 0.3347518
v 0.1486181 0.00675774 0.3163213
v 0.1655639 0.001970448 0.321302
v 0.1262079 0.05885172 0.3198546
v 0.1262079 0.0452175 0.3005334
v 0.5672657 -8.711816E-17 -0.3211257
v 0.5672657 -8.711816E-17 0.3211257
v 0.1655639 0.001970448 0.321302
v 0.1486181 0.00675774 0.3163213
v 0.1262079 0.0452175 0.3005334
vt 0.1866455 0.847168
vt 0.1975098 0.847168
vt 0.1975098 0.8461914
vt 0.1866455 0.8466797
vt 0.1868896 0.8637695
vt 0.1855469 0.847168
vt 0.1856689 0.8637695
vt 0.197998 0.8632813
vt 0.1867676 0.8647461
vt 0.1981201 0.8647461
vt 0.1992188 0.8632813
vt 0.1986084 0.8466797
vt 0.1973877 0.8364258
vt 0.1992188 0.8364258
vt 0.1973877 0.8271484
vt 0.1990967 0.8276367
vt 0.1965332 0.8359375
vt 0.1862793 0.8349609
vt 0.1850586 0.8349609
vt 0.1973877 0.8178711
vt 0.1986084 0.8173828
vt 0.1975098 0.8168945
vt 0.1866455 0.8173828
vt 0.1867676 0.8164063
vt 0.1987305 0.8007813
vt 0.1999512 0.8007813
vt 0.1876221 0.800293
vt 0.1865234 0.7998047
vt 0.1855469 0.8168945
vt 0.1989746 0.7998047
vt 0.1876221 0.7988281
vt 0.2086182 0.8349609
vt 0.2003174 0.8359375
vt 0.2103271 0.8383789
vt 0.2109375 0.8378906
vt 0.2145996 0.8413086
vt 0.2143555 0.8476563
vt 0.2155762 0.8476563
vt 0.215332 0.8413086
vt 0.2185059 0.8398438
vt 0.2263184 0.847168
vt 0.21875 0.8354492
vt 0.2147217 0.840332
vt 0.215332 0.8408203
vt 0.2095947 0.8354492
vt 0.2177734 0.8393555
vt 0.21521 0.8393555
vt 0.2127686 0.8374023
vt 0.2180176 0.8354492
vt 0.2183838 0.8320313
vt 0.2178955 0.8325195
vt 0.2180176 0.8383789
vt 0.2154541 0.8374023
vt 0.2158203 0.8369141
vt 0.2138672 0.8354492
vt 0.2143555 0.8349609
vt 0.2163086 0.8354492
vt 0.2142334 0.8344727
vt 0.2176514 0.8320313
vt 0.2156982 0.8295898
vt 0.2158203 0.8291016
vt 0.2150879 0.8291016
vt 0.2150879 0.8295898
vt 0.2106934 0.8310547
vt 0.2115479 0.831543
vt 0.2156982 0.8232422
vt 0.2189941 0.8227539
vt 0.2141113 0.8334961
vt 0.213623 0.8339844
vt 0.213501 0.8349609
vt 0.2122803 0.8330078
vt 0.2127686 0.8325195
vt 0.2109375 0.8320313
vt 0.2095947 0.8344727
vt 0.2114258 0.8344727
vt 0.2115479 0.8354492
vt 0.2110596 0.8232422
vt 0.2147217 0.8168945
vt 0.2150879 0.8232422
vt 0.2159424 0.8168945
vt 0.2268066 0.8168945
vt 0.2198486 0.8271484
vt 0.2266846 0.8271484
vt 0.2219238 0.8291016
vt 0.2230225 0.8291016
vt 0.2266846 0.828125
vt 0.2277832 0.8266602
vt 0.2277832 0.8276367
vt 0.2374268 0.8271484
vt 0.2374268 0.8276367
vt 0.2279053 0.8291016
vt 0.2261963 0.8291016
vt 0.2374268 0.8286133
vt 0.2263184 0.8349609
vt 0.227417 0.847168
vt 0.2275391 0.8349609
vt 0.2438965 0.8354492
vt 0.2438965 0.847168
vt 0.2276611 0.831543
vt 0.2374268 0.8295898
vt 0.2374268 0.8295898
vt 0.2277832 0.8305664
vt 0.2266846 0.8310547
vt 0.2269287 0.8305664
vt 0.2230225 0.8291016
vt 0.2261963 0.8291016
vt 0.2279053 0.8291016
vt 0.2374268 0.8286133
vt 0.2437744 0.8300781
vt 0.2434082 0.8291016
vt 0.2438965 0.8305664
vt 0.1884766 0.8286133
vt 0.1859131 0.8295898
vt 0.1859131 0.8300781
vt 0.1896973 0.8286133
vt 0.1850586 0.8300781
vt 0.1851807 0.8295898
vt 0.185791 0.8286133
vt 0.1865234 0.8286133
vt 0.1859131 0.8276367
vt 0.1859131 0.828125
vt 0.1884766 0.8286133
vt 0.1851807 0.8276367
vt 0.1850586 0.8271484
vt 0.1865234 0.8286133
vt 0.185791 0.8286133
vt 0.2279053 0.8168945
vt 0.2440186 0.8173828
vt 0.2440186 0.8271484
vt 0.2438965 0.8276367
vt 0.2434082 0.8291016
vn -0.9981802 -0.0375172 0.04720945
vn -0.9981802 0.03751718 0.04720943
vn -0.026201 -0.02090079 0.9994381
vn -0.026201 -0.02090079 0.9994381
vn -0.9981802 -0.0375172 -0.04720944
vn 0 -1 0
vn 0 -1 0
vn -0.9981802 0.03751718 -0.04720942
vn 0.00279998 -0.002599981 -0.9999927
vn 0.00279998 -0.002599981 -0.9999927
vn 0.04759925 0.9982843 -0.03409946
vn 0.04759925 0.9982843 -0.03409946
vn 0.01689933 0.7914687 0.6109759
vn 0.01689933 0.7914687 0.6109759
vn -0.026201 -0.02090079 0.9994381
vn 0.04759925 0.9982843 -0.03409946
vn -0.026201 -0.02090079 0.9994381
vn -0.026201 -0.02090079 0.9994381
vn 0 -1 0
vn -0.026201 -0.02090079 0.9994381
vn 0.04759925 0.9982843 -0.03409946
vn 0.99818 0.03751877 0.0472115
vn -0.026201 -0.02090079 0.9994381
vn 0.99818 -0.0375188 0.04721152
vn 0.99818 0.03751878 -0.0472115
vn 0.04759925 0.9982843 -0.03409946
vn 0.99818 -0.0375188 -0.04721151
vn 0 -1 0
vn 0 -1 0
vn 0.00279998 -0.002599981 -0.9999927
vn 0.00279998 -0.002599981 -0.9999927
vn 0.04759925 0.9982843 -0.03409946
vn 0.04759925 0.9982843 -0.03409946
vn 0.04759925 0.9982843 -0.03409946
vn 0.5975856 0.6277795 -0.4987829
vn 0.04759925 0.9982843 -0.03409946
vn 0.04759925 0.9982843 -0.03409946
vn 0.00279998 -0.002599981 -0.9999927
vn 0.00279998 -0.002599981 -0.9999927
vn 0.00279998 -0.002599981 -0.9999927
vn 0.00279998 -0.002599981 -0.9999927
vn 0.00279998 -0.002599981 -0.9999927
vn 0.7084208 0.6039497 -0.3652187
vn 0.5485075 0.1642607 -0.8198524
vn 0.3333997 0.694918 -0.6371291
vn 0.6458707 0.1656916 -0.7452497
vn 0.8591465 0.2064109 -0.4682542
vn 0.6763067 0.3117279 -0.6674092
vn 0.1154944 0.9665532 -0.2289889
vn 0.00279998 -0.002599981 -0.9999927
vn 0.1154944 0.9665532 -0.2289889
vn 0.1154944 0.9665532 -0.2289889
vn 0.7169849 0.2546551 -0.6489095
vn 0.1154944 0.9665532 -0.2289889
vn 0.4723701 0.303911 -0.827348
vn 0.1154944 0.9665532 -0.2289889
vn 0.1154944 0.9665532 -0.2289889
vn 0.1154944 0.9665532 -0.2289889
vn -0.8096161 0.5636112 -0.1639033
vn -0.8096161 0.5636112 -0.1639033
vn 0.00279998 -0.002599981 -0.9999927
vn 0.04759925 0.9982843 -0.03409946
vn -0.8096161 0.5636112 -0.1639033
vn 0.04759925 0.9982843 -0.03409946
vn -0.8096161 0.5636112 -0.1639033
vn 0.00279998 -0.002599981 -0.9999927
vn 0.00279998 -0.002599981 -0.9999927
vn -0.8096161 0.5636112 -0.1639033
vn -0.3979229 0.3192978 -0.8600618
vn -0.03348674 0.3153139 -0.9483964
vn -0.4181066 0.4040063 -0.8136128
vn -0.8096161 0.5636112 -0.1639033
vn -0.4181066 0.4040063 -0.8136128
vn -0.4181066 0.4040063 -0.8136128
vn -0.4181066 0.4040063 -0.8136128
vn 0.4184881 0.3993619 -0.815707
vn 0.04759925 0.9982843 -0.03409946
vn 0.04759925 0.9982843 -0.03409946
vn 0.04759925 0.9982843 -0.03409946
vn 0.00279998 -0.002599981 -0.9999927
vn 0.00279998 -0.002599981 -0.9999927
vn 0.00279998 -0.002599981 -0.9999927
vn 0.00279998 -0.002599981 -0.9999927
vn 0.00279998 -0.002599981 -0.9999927
vn -0.5658199 -0.1463847 -0.8114304
vn -0.6660382 -0.3556811 -0.6556556
vn 0 -1 0
vn -0.6036258 -0.7964237 -0.03667699
vn 0 -1 0
vn -0.6744029 -0.7383415 0.005696312
vn -0.7711844 -0.6366113 -0.0007892657
vn -0.789039 -0.3189755 -0.5250449
vn -0.8011047 -0.5984805 0.007236449
vn 0.00279998 -0.002599981 -0.9999927
vn 0 -1 0
vn 0 -1 0
vn 0 -1 0
vn 0 -1 0
vn 0 -1 0
vn 0 -1 0
vn 0.7610724 -0.6476181 -0.03687007
vn 0.6761202 -0.7246881 -0.1329984
vn 0.00279998 -0.002599981 -0.9999927
vn 0.6809599 -0.3095158 -0.6636969
vn 0.6188983 -0.1519188 -0.7706397
vn 0.7534652 -0.2360987 -0.6136348
vn 0.871186 -0.4730633 -0.1313238
vn 0.8755929 -0.4813453 -0.04054472
vn 0.6963264 -0.7122046 0.0888484
vn 0.8755002 -0.4769526 0.07755992
vn 0 -1 0
vn 0.6935094 -0.1943005 0.6937522
vn 0.7605882 -0.3248248 0.5621339
vn -0.026201 -0.02090079 0.9994381
vn -0.026201 -0.02090079 0.9994381
vn 0 -1 0
vn 0.6963264 -0.7122046 0.0888484
vn 0.8755002 -0.4769526 0.07755992
vn 0.8834088 -0.28728 0.3702149
vn -0.026201 -0.02090079 0.9994381
vn -0.7392852 -0.2798422 0.6124915
vn -0.6956537 -0.1538396 0.7017117
vn -0.7073464 -0.7067536 0.01266558
vn 0 -1 0
vn -0.8029384 -0.2146038 0.5560893
vn -0.8680779 -0.4962332 -0.01389946
vn 0 -1 0
vn 0 -1 0
vn 0 -1 0
vn -0.7073464 -0.7067536 0.01266558
vn -0.8680779 -0.4962332 -0.01389946
g m_dlc07_stone_block_02_a_0
f 3/3/3 2/2/2 1/1/1
f 4/4/4 3/3/3 1/1/1
f 1/1/1 2/2/2 5/5/5
f 1/1/1 5/5/5 6/6/6
f 6/6/6 4/4/4 1/1/1
f 5/5/5 7/7/7 6/6/6
f 2/2/2 8/8/8 5/5/5
f 5/5/5 8/8/8 9/9/9
f 5/5/5 9/9/9 7/7/7
f 8/8/8 10/10/10 9/9/9
f 11/11/11 8/8/8 2/2/2
f 8/8/8 11/11/11 10/10/10
f 12/12/12 11/11/11 2/2/2
f 2/2/2 3/3/3 12/12/12
f 3/3/3 13/13/13 12/12/12
f 13/13/13 14/14/14 12/12/12
f 13/13/13 15/15/15 14/14/14
f 15/15/15 16/16/16 14/14/14
f 17/17/17 3/3/3 4/4/4
f 17/17/17 15/15/15 13/13/13
f 17/17/17 13/13/13 3/3/3
f 18/18/18 17/17/17 4/4/4
f 17/17/17 18/18/18 15/15/15
f 19/19/19 18/18/18 4/4/4
f 6/6/6 19/19/19 4/4/4
f 15/15/15 20/20/20 16/16/16
f 20/20/20 21/21/21 16/16/16
f 20/20/20 22/22/22 21/21/21
f 22/22/22 20/20/20 23/23/23
f 24/24/24 22/22/22 23/23/23
f 22/22/22 25/25/25 21/21/21
f 25/25/25 22/22/22 24/24/24
f 25/25/25 26/26/26 21/21/21
f 27/27/27 25/25/25 24/24/24
f 28/28/28 27/27/27 24/24/24
f 29/29/29 28/28/28 24/24/24
f 29/29/29 24/24/24 23/23/23
f 30/30/30 25/25/25 27/27/27
f 26/26/26 25/25/25 30/30/30
f 31/31/31 30/30/30 27/27/27
f 27/27/27 28/28/28 31/31/31
f 16/16/16 21/21/21 32/32/32
f 33/33/33 16/16/16 32/32/32
f 33/33/33 32/32/32 12/12/12
f 32/32/32 34/34/34 12/12/12
f 34/34/34 32/32/32 35/35/35
f 36/36/36 34/34/34 35/35/35
f 34/34/34 36/36/36 37/37/37
f 34/34/34 37/37/37 12/12/12
f 37/37/37 36/36/36 38/38/38
f 36/36/36 39/39/39 38/38/38
f 39/39/39 40/40/40 38/38/38
f 38/38/38 40/40/40 41/41/41
f 40/40/40 42/42/42 41/41/41
f 39/39/39 36/36/36 43/43/43
f 43/43/43 36/36/36 35/35/35
f 44/44/44 39/39/39 43/43/43
f 40/40/40 39/39/39 44/44/44
f 32/32/32 45/45/45 35/35/35
f 46/46/46 40/40/40 44/44/44
f 44/44/44 43/43/43 47/47/47
f 47/47/47 43/43/43 35/35/35
f 47/47/47 46/46/46 44/44/44
f 48/48/48 47/47/47 35/35/35
f 49/49/49 42/42/42 40/40/40
f 50/50/50 42/42/42 49/49/49
f 51/51/51 50/50/50 49/49/49
f 52/52/52 49/49/49 40/40/40
f 52/52/52 40/40/40 46/46/46
f 52/52/52 46/46/46 53/53/53
f 48/48/48 53/53/53 47/47/47
f 47/47/47 53/53/53 46/46/46
f 54/54/54 52/52/52 53/53/53
f 49/49/49 52/52/52 54/54/54
f 53/53/53 55/55/55 54/54/54
f 55/55/55 56/56/56 54/54/54
f 57/57/57 49/49/49 54/54/54
f 54/54/54 56/56/56 57/57/57
f 58/58/58 51/51/51 49/49/49
f 57/57/57 58/58/58 49/49/49
f 58/58/58 57/57/57 56/56/56
f 59/59/59 51/51/51 58/58/58
f 51/51/51 59/59/59 50/50/50
f 59/59/59 60/60/60 50/50/50
f 60/60/60 61/61/61 50/50/50
f 62/62/62 61/61/61 60/60/60
f 63/63/63 62/62/62 60/60/60
f 64/64/64 62/62/62 63/63/63
f 65/65/65 64/64/64 63/63/63
f 50/50/50 61/61/61 66/66/66
f 67/67/67 50/50/50 66/66/66
f 68/68/68 59/59/59 58/58/58
f 58/58/58 56/56/56 69/69/69
f 58/58/58 69/69/69 68/68/68
f 56/56/56 70/70/70 69/69/69
f 68/68/68 69/69/69 71/71/71
f 69/69/69 70/70/70 71/71/71
f 72/72/72 68/68/68 71/71/71
f 72/72/72 63/63/63 60/60/60
f 72/72/72 65/65/65 63/63/63
f 72/72/72 60/60/60 59/59/59
f 68/68/68 72/72/72 59/59/59
f 73/73/73 65/65/65 72/72/72
f 71/71/71 73/73/73 72/72/72
f 73/73/73 64/64/64 65/65/65
f 64/64/64 73/73/73 32/32/32
f 73/73/73 74/74/74 32/32/32
f 74/74/74 73/73/73 71/71/71
f 75/75/75 74/74/74 71/71/71
f 70/70/70 75/75/75 71/71/71
f 75/75/75 70/70/70 76/76/76
f 70/70/70 55/55/55 76/76/76
f 45/45/45 74/74/74 75/75/75
f 76/76/76 45/45/45 75/75/75
f 45/45/45 32/32/32 74/74/74
f 35/35/35 45/45/45 76/76/76
f 48/48/48 35/35/35 76/76/76
f 53/53/53 48/48/48 76/76/76
f 55/55/55 53/53/53 76/76/76
f 56/56/56 55/55/55 70/70/70
f 64/64/64 32/32/32 21/21/21
f 77/77/77 64/64/64 21/21/21
f 77/77/77 21/21/21 78/78/78
f 79/79/79 77/77/77 78/78/78
f 79/79/79 78/78/78 66/66/66
f 78/78/78 80/80/80 66/66/66
f 79/79/79 66/66/66 61/61/61
f 62/62/62 79/79/79 61/61/61
f 62/62/62 64/64/64 77/77/77
f 79/79/79 62/62/62 77/77/77
f 67/67/67 66/66/66 80/80/80
f 67/67/67 80/80/80 81/81/81
f 82/82/82 67/67/67 81/81/81
f 82/82/82 81/81/81 83/83/83
f 84/84/84 82/82/82 83/83/83
f 84/84/84 83/83/83 85/85/85
f 83/83/83 86/86/86 85/85/85
f 83/83/83 87/87/87 86/86/86
f 83/83/83 81/81/81 87/87/87
f 87/87/87 88/88/88 86/86/86
f 87/87/87 89/89/89 88/88/88
f 89/89/89 90/90/90 88/88/88
f 42/42/42 82/82/82 84/84/84
f 82/82/82 42/42/42 67/67/67
f 86/86/86 88/88/88 91/91/91
f 91/91/91 88/88/88 90/90/90
f 92/92/92 86/86/86 91/91/91
f 85/85/85 86/86/86 92/92/92
f 93/93/93 91/91/91 90/90/90
f 42/42/42 84/84/84 94/94/94
f 42/42/42 94/94/94 41/41/41
f 41/41/41 94/94/94 95/95/95
f 94/94/94 96/96/96 95/95/95
f 96/96/96 97/97/97 95/95/95
f 97/97/97 98/98/98 95/95/95
f 96/96/96 99/99/99 97/97/97
f 99/99/99 100/100/100 97/97/97
f 100/100/100 99/99/99 101/101/101
f 99/99/99 102/102/102 101/101/101
f 99/99/99 103/103/103 102/102/102
f 103/103/103 99/99/99 96/96/96
f 94/94/94 103/103/103 96/96/96
f 103/103/103 104/104/104 102/102/102
f 103/103/103 84/84/84 104/104/104
f 84/84/84 103/103/103 94/94/94
f 84/84/84 105/105/105 104/104/104
f 104/104/104 106/106/106 102/102/102
f 105/105/105 106/106/106 104/104/104
f 106/106/106 107/107/107 102/102/102
f 102/102/102 107/107/107 108/108/108
f 101/101/101 102/102/102 108/108/108
f 101/101/101 108/108/108 109/109/109
f 100/100/100 101/101/101 109/109/109
f 108/108/108 110/110/110 109/109/109
f 111/111/111 100/100/100 109/109/109
f 100/100/100 111/111/111 97/97/97
f 14/14/14 33/33/33 12/12/12
f 33/33/33 14/14/14 16/16/16
f 114/114/114 113/113/113 112/112/112
f 115/115/115 114/114/114 112/112/112
f 114/114/114 116/116/116 113/113/113
f 116/116/116 117/117/117 113/113/113
f 117/117/117 118/118/118 113/113/113
f 118/118/118 119/119/119 113/113/113
f 113/113/113 119/119/119 112/112/112
f 18/18/18 114/114/114 115/115/115
f 116/116/116 114/114/114 18/18/18
f 19/19/19 116/116/116 18/18/18
f 18/18/18 115/115/115 15/15/15
f 15/15/15 115/115/115 20/20/20
f 115/115/115 23/23/23 20/20/20
f 115/115/115 120/120/120 23/23/23
f 121/121/121 120/120/120 115/115/115
f 122/122/122 121/121/121 115/115/115
f 120/120/120 121/121/121 123/123/123
f 124/124/124 120/120/120 123/123/123
f 123/123/123 121/121/121 125/125/125
f 122/122/122 125/125/125 121/121/121
f 126/126/126 123/123/123 125/125/125
f 29/29/29 23/23/23 120/120/120
f 124/124/124 29/29/29 120/120/120
f 81/81/81 127/127/127 87/87/87
f 87/87/87 127/127/127 128/128/128
f 89/89/89 87/87/87 128/128/128
f 89/89/89 128/128/128 129/129/129
f 89/89/89 129/129/129 90/90/90
f 129/129/129 130/130/130 90/90/90
f 90/90/90 130/130/130 131/131/131
f 93/93/93 90/90/90 131/131/131
f 42/42/42 50/50/50 67/67/67
