g m_dlc07_3_3_slime_ripples_01
v -2.323096 -4.100799E-07 4.346308
v 1.547305 3.528595E-07 4.346308
v 3.622684 1.497269E-06 6.252146
v -4.127923 -1.516342E-06 6.197876
v -4.460521 -1.592636E-06 6.128045
v -2.655694 -4.482269E-07 4.276474
v -4.742479 -1.516342E-06 5.929175
v -2.937652 -4.100799E-07 4.077605
v -4.930882 -1.28746E-06 5.631548
v -3.126055 -3.33786E-07 3.779975
v -4.997039 -9.441375E-07 5.280472
v -3.192212 -1.811981E-07 3.428899
v -3.192207 6.580353E-07 1.487531
v -5.017772 1.003744E-06 3.177898
v 1.901059 3.910065E-07 4.280593
v 3.976439 1.573563E-06 6.18643
v 2.200957 3.910065E-07 4.093457
v 4.276337 1.535416E-06 5.999292
v 2.401343 3.147125E-07 3.813383
v 4.476722 1.306534E-06 5.719221
v 2.471709 2.002716E-07 3.483017
v 4.547089 1.001358E-06 5.388853
v 4.536146 -1.085984E-06 3.10059
v 2.471714 -6.389618E-07 1.424421
v 2.538452 -7.915497E-07 1.076694
v 4.576762 -1.294926E-06 2.888968
v 2.72851 -8.678436E-07 0.781904
v 4.69243 -1.457436E-06 2.709562
v 3.012959 -9.059906E-07 0.5849338
v 4.865538 -1.527084E-06 2.589687
v 3.348481 -8.678436E-07 0.5157663
v 5.069733 -1.527084E-06 2.547592
v 17.60249 1.916885E-06 2.139228
v 17.60249 1.916885E-06 0.5157688
v -5.676251 1.609324E-06 2.406572
v -17.60248 -1.897812E-06 2.139318
v -17.60248 -1.897812E-06 0.5157688
v -4.021787 9.250641E-07 0.5157688
v -3.704322 9.632111E-07 0.5897409
v -5.424264 1.609324E-06 2.465285
v -3.435186 9.250641E-07 0.8003903
v -5.210639 1.518487E-06 2.632487
v -3.255357 8.106231E-07 1.115654
v -5.067897 1.276255E-06 2.882724
vt 0.8686523 0.9707031
vt 0.3110352 0.9707031
vt -0.1971436 0.02949524
vt 1.303711 0.02949524
vt 1.397461 0.02949524
vt 0.9633789 0.9707031
vt 1.487305 0.02949524
vt 1.052734 0.9707031
vt 1.573242 0.02949524
vt 1.138672 0.9707031
vt 1.657227 0.02949524
vt 1.222656 0.9707031
vt 1.631836 0.9707031
vt 2.066406 0.02949524
vt 0.2130127 0.9707031
vt -0.295166 0.02949524
vt 0.1248779 0.9707031
vt -0.3833008 0.02949524
vt 0.04537964 0.9707031
vt -0.4628906 0.02949524
vt -0.02651978 0.9707031
vt -0.534668 0.02949524
vt -0.9135742 0.02949524
vt -0.4052734 0.9707031
vt -0.473877 0.9707031
vt -0.9819336 0.02949524
vt -0.5478516 0.9707031
vt -1.055664 0.02949524
vt -0.6298828 0.9707031
vt -1.137695 0.02949524
vt -0.7226563 0.9707031
vt -1.230469 0.02949524
vt -5.226563 0.02949524
vt -5.226563 0.9707031
vt 2.398438 0.02949524
vt 6.226563 0.02949524
vt 6.226563 0.9707031
vt 1.963867 0.9707031
vt 1.875 0.9707031
vt 2.310547 0.02949524
vt 1.792969 0.9707031
vt 2.226563 0.02949524
vt 1.711914 0.9707031
vt 2.146484 0.02949524
vn -3.228762E-07 1 0
vn -3.223556E-07 1 0
vn -3.074624E-07 1 0
vn -3.133786E-07 1 0
vn -1.715515E-07 1 4.405528E-07
vn -1.981749E-07 1 4.146017E-07
vn 0 1 5.029665E-07
vn 0 1 5.042473E-07
vn 0 1 5.726168E-07
vn 1.101485E-07 1 6.096612E-07
vn 4.288228E-07 1 6.793016E-07
vn 5.282017E-07 1 6.84877E-07
vn 6.075312E-07 1 6.297352E-07
vn 5.667629E-07 1 6.73446E-07
vn -2.124911E-07 1 -3.790894E-07
vn -2.008537E-07 1 -3.917624E-07
vn -1.024378E-07 1 -4.749219E-07
vn 0 1 -4.819355E-07
vn 0 1 -5.825831E-07
vn 0 1 -5.705995E-07
vn 4.699688E-07 1 -6.694896E-07
vn 3.798619E-07 1 -6.533922E-07
vn 5.096082E-07 1 -6.641002E-07
vn 5.426162E-07 1 -6.342181E-07
vn 5.356168E-07 1 -3.122933E-07
vn 5.816178E-07 1 -3.816847E-07
vn 3.662606E-07 1 0
vn 3.671694E-07 1 0
vn 1.756976E-07 1 1.40388E-07
vn 1.159914E-07 1 2.002877E-07
vn -2.15022E-07 1 2.897404E-07
vn -2.253832E-07 1 2.881949E-07
vn 0 1 0
vn -2.281418E-07 1 2.877834E-07
vn -2.41434E-07 1 -3.104376E-07
vn -2.449204E-07 1 -3.100063E-07
vn -2.449203E-07 1 -3.100063E-07
vn -2.281564E-07 1 -3.120803E-07
vn 2.02715E-07 1 -1.500013E-07
vn 1.474647E-07 1 -2.057832E-07
vn 4.398341E-07 1 1.144826E-07
vn 4.562002E-07 1 1.340353E-07
vn 6.294707E-07 1 3.648445E-07
vn 6.633607E-07 1 4.258549E-07
g m_dlc07_3_3_slime_ripples_01_0
f 3/3/3 2/2/2 1/1/1
f 4/4/4 3/3/3 1/1/1
f 4/4/4 1/1/1 5/5/5
f 1/1/1 6/6/6 5/5/5
f 5/5/5 6/6/6 7/7/7
f 6/6/6 8/8/8 7/7/7
f 7/7/7 8/8/8 9/9/9
f 8/8/8 10/10/10 9/9/9
f 9/9/9 10/10/10 11/11/11
f 10/10/10 12/12/12 11/11/11
f 11/11/11 12/12/12 13/13/13
f 14/14/14 11/11/11 13/13/13
f 15/15/15 2/2/2 3/3/3
f 16/16/16 15/15/15 3/3/3
f 17/17/17 15/15/15 16/16/16
f 18/18/18 17/17/17 16/16/16
f 19/19/19 17/17/17 18/18/18
f 20/20/20 19/19/19 18/18/18
f 21/21/21 19/19/19 20/20/20
f 22/22/22 21/21/21 20/20/20
f 22/22/22 23/23/23 21/21/21
f 23/23/23 24/24/24 21/21/21
f 25/25/25 24/24/24 23/23/23
f 26/26/26 25/25/25 23/23/23
f 27/27/27 25/25/25 26/26/26
f 28/28/28 27/27/27 26/26/26
f 29/29/29 27/27/27 28/28/28
f 30/30/30 29/29/29 28/28/28
f 31/31/31 29/29/29 30/30/30
f 32/32/32 31/31/31 30/30/30
f 32/32/32 33/33/33 31/31/31
f 33/33/33 34/34/34 31/31/31
f 37/37/37 36/36/36 35/35/35
f 38/38/38 37/37/37 35/35/35
f 39/39/39 38/38/38 35/35/35
f 40/40/40 39/39/39 35/35/35
f 41/41/41 39/39/39 40/40/40
f 42/42/42 41/41/41 40/40/40
f 43/43/43 41/41/41 42/42/42
f 44/44/44 43/43/43 42/42/42
f 13/13/13 43/43/43 44/44/44
f 14/14/14 13/13/13 44/44/44
