g m_dlc07_stone_half_block_05_a
v -0.318978 0.03273129 0.3211258
v -0.318978 0.8450071 0.3211258
v -0.2862466 0.8450071 0.3538572
v -0.2862466 0.03273129 0.3538572
v -0.2862466 -3.484727E-16 0.3211258
v 0.2810187 -3.484727E-16 0.3211258
v 0.2810187 0.03273129 0.3538572
v 0.318978 0.03273129 0.3211258
v 0.318978 0.8450071 0.3211258
v 0.2810187 0.8450071 0.3538572
v -0.2862466 0.8777385 0.3211258
v -0.2862466 0.8777385 -0.3211258
v -0.318978 0.8450071 -0.3211258
v 0.2810187 0.8777385 0.3211258
v -0.2862466 0.8450071 -0.3538571
v 0.1402948 0.3165906 0.3447542
v -0.3083148 0.02963627 -0.1527965
v -0.2867844 0.008105705 -0.1582298
v -0.2815414 0.01287573 -0.1706224
v -0.3022415 0.03198991 -0.1649068
v -0.3138635 0.4568619 -0.175833
v -0.3089029 0.4469672 -0.1866371
v -0.318978 0.5534393 -0.3211258
v -0.3116586 0.5207806 -0.3152911
v -0.2862466 0.5513981 -0.3538571
v -0.2808066 0.516973 -0.3455833
v -0.2673212 0.02581353 -0.1824432
v -0.2834607 0.03926802 -0.1791821
v -0.2917416 0.4229716 -0.2016891
v -0.2830673 0.4552122 -0.2924995
v -0.2615912 0.4507952 -0.3163598
v 0.318978 0.03273129 0.07882614
v 0.318978 0.03273129 -0.3211258
v 0.2810187 -3.484727E-16 -0.3211258
v 0.2810187 -3.484727E-16 0.08368026
v 0.318978 0.8450072 0.09766845
v 0.318978 0.8450071 -0.3211258
v 0.2810187 0.8450071 -0.3538571
v 0.2810187 0.03273129 -0.3538571
v 0.2810187 0.8777385 0.1046164
v 0.2810187 0.8777385 -0.3211258
v 0.1510715 0.8754404 0.3197823
v 0.1479068 0.8433809 0.3518418
v 0.1305862 0.8365353 0.3457741
v 0.1336273 0.8685072 0.3136369
v 0.09832397 0.5986144 0.3483351
v 0.1053482 0.8229171 0.327621
v 0.1079587 0.8485361 0.302002
v 0.09190582 0.608977 0.3461036
v 0.08200439 0.6025113 0.3389657
v 0.1142932 0.8683034 0.2320483
v 0.09599304 0.8545092 0.2326535
v 0.1258295 0.8729515 0.2302309
v 0.09163788 0.868152 0.1508575
v 0.07973541 0.8592173 0.1489809
v 0.05637604 0.8730209 0.01484962
v 0.09929688 0.8711812 0.1510098
v 0.2810187 0.8777385 -0.3211258
v -0.2862466 0.8777385 -0.3211258
v -0.2862466 0.8450071 -0.3538571
v 0.2810187 0.8450071 -0.3538571
v -0.1495813 0.4301458 -0.3509984
v 0.2810187 0.03273129 -0.3538571
v -0.08059052 0.02869944 -0.3471927
v -0.1598706 0.4169067 -0.3439697
v -0.2808066 0.516973 -0.3455833
v -0.2862466 0.5513981 -0.3538571
v -0.09495788 0.02869944 -0.3403702
v -0.08201599 0.00403185 -0.3225252
v -0.09630554 0.01068846 -0.3201221
v -0.1562329 0.007512955 -0.1972203
v -0.1607416 0.00995854 -0.203
v -0.2867844 0.008105705 -0.1582298
v -0.2815414 0.01287573 -0.1706224
v -0.2615912 0.4507952 -0.3163598
v -0.1693454 0.3906213 -0.3238095
v 0.2810187 -3.484727E-16 -0.3211258
v 0.2810187 -3.484727E-16 0.3211258
v -0.2862466 -3.484727E-16 0.3211258
v 0.2810187 -3.484727E-16 0.08368026
v -0.1101239 0.02869944 -0.3222847
v -0.111217 0.02441338 -0.3064187
v -0.1652463 0.01566572 -0.2088037
v -0.2673212 0.02581353 -0.1824432
v -0.2862466 -3.484727E-16 -0.3211258
v -0.2862466 0.03273129 -0.3538571
v -0.318978 0.03273129 -0.3211258
v -0.2867844 0.008105705 -0.2091981
v -0.3083148 0.02963627 -0.2031247
v -0.3023456 0.03194956 -0.1917625
v -0.2823383 0.01215081 -0.1974538
v -0.174216 0.007512955 -0.220403
v -0.1697583 0.009949399 -0.2146165
v -0.1415045 0.00403185 -0.3225252
v -0.1278473 0.009016186 -0.3185863
v -0.1395254 0.02869944 -0.3471927
v -0.1253705 0.02869944 -0.3404658
v -0.1953989 0.3498009 -0.3509984
v -0.1839267 0.365916 -0.3441431
v -0.2862466 0.3653085 -0.3538571
v -0.280499 0.391905 -0.3451158
v -0.318978 0.369173 -0.3211258
v -0.3103244 0.3965797 -0.3142276
v -0.3138635 0.3861666 -0.2218239
v -0.3072324 0.4020299 -0.2107617
v -0.1693454 0.3906213 -0.3238095
v -0.2615912 0.4507952 -0.3163598
v -0.1101239 0.02869944 -0.3222847
v -0.111217 0.02441338 -0.3064187
v -0.2917416 0.4229716 -0.2016891
v -0.2834607 0.03926802 -0.1791821
v -0.2673212 0.02581353 -0.1824432
v -0.1652463 0.01566572 -0.2088037
v -0.2830673 0.4552122 -0.2924995
v 0.0809201 0.867637 0.3150429
v 0.07788879 0.8377577 0.3446466
v 0.06126404 0.8443098 0.3504542
v 0.06476318 0.8740429 0.320721
v 0.07082824 0.8719137 0.2463876
v 0.1079587 0.8485361 0.302002
v 0.1053482 0.8229171 0.327621
v 0.07197265 0.6036879 0.3456461
v 0.08200439 0.6025113 0.3389657
v 0.06629699 0.5961137 0.3477428
v 0.08018524 0.8677145 0.2420868
v 0.09599304 0.8545092 0.2326535
v 0.06869934 0.8677691 0.1537736
v 0.06225983 0.8705004 0.1556937
v 0.07973541 0.8592173 0.1489809
v 0.2810187 0.8777385 0.1046164
vt 0.06079102 0.9780273
vt 0.07165527 0.9785156
vt 0.07171631 0.9775391
vt 0.06082153 0.9770508
vt 0.05963135 0.9775391
vt 0.05990601 0.9628906
vt 0.06106567 0.9633789
vt 0.06106567 0.9619141
vt 0.07196045 0.9619141
vt 0.07202148 0.9628906
vt 0.07281494 0.9780273
vt 0.07269287 0.9951172
vt 0.0715332 0.9951172
vt 0.07312012 0.9624023
vt 0.07171631 0.9960938
vt 0.06652832 0.9667969
vt 0.05990601 0.9902344
vt 0.05911255 0.9902344
vt 0.05923462 0.9907227
vt 0.05990601 0.9902344
vt 0.0682373 0.9912109
vt 0.06793213 0.9916992
vt 0.06829834 0.9951172
vt 0.06799316 0.9951172
vt 0.06817627 0.9960938
vt 0.06774902 0.9960938
vt 0.05941772 0.9912109
vt 0.05996704 0.9912109
vt 0.06750488 0.9921875
vt 0.06726074 0.9946289
vt 0.06695557 0.9956055
vt 0.06051636 0.9560547
vt 0.06018066 0.9458008
vt 0.05892944 0.9458008
vt 0.0592041 0.956543
vt 0.07202148 0.9560547
vt 0.07128906 0.9453125
vt 0.0713501 0.9443359
vt 0.06002808 0.9448242
vt 0.07330322 0.9560547
vt 0.0725708 0.9453125
vt 0.07324219 0.9663086
vt 0.07220459 0.9663086
vt 0.07214355 0.9667969
vt 0.07330322 0.9667969
vt 0.0690918 0.9677734
vt 0.07202148 0.9677734
vt 0.07330322 0.9677734
vt 0.06903076 0.9677734
vt 0.06896973 0.9682617
vt 0.07537842 0.9672852
vt 0.07531738 0.9677734
vt 0.07543945 0.9667969
vt 0.07745361 0.9682617
vt 0.07745361 0.9682617
vt 0.08093262 0.9692383
vt 0.07745361 0.9677734
vt 0.08978271 0.9638672
vt 0.08935547 0.9780273
vt 0.09051514 0.9785156
vt 0.09094238 0.9638672
vt 0.09429932 0.9750977
vt 0.1021118 0.9638672
vt 0.1019897 0.9726563
vt 0.09460449 0.9750977
vt 0.09417725 0.9785156
vt 0.09381104 0.9785156
vt 0.1020508 0.9731445
vt 0.1027832 0.9731445
vt 0.1027222 0.9731445
vt 0.1054688 0.9750977
vt 0.1053467 0.9755859
vt 0.105957 0.9785156
vt 0.1056519 0.9785156
vt 0.09490967 0.9780273
vt 0.09503174 0.9755859
vt 0.1033936 0.9638672
vt 0.1201172 0.9658203
vt 0.1181641 0.9804688
vt 0.1140747 0.9648438
vt 0.1022339 0.9736328
vt 0.1027832 0.9736328
vt 0.1051025 0.9755859
vt 0.1052246 0.9780273
vt 0.09857178 0.9824219
vt 0.09924316 0.9833984
vt 0.0994873 0.9824219
vt 0.09832764 0.9799805
vt 0.09912109 0.9794922
vt 0.09912109 0.9790039
vt 0.09820557 0.9794922
vt 0.09539795 0.9819336
vt 0.09521484 0.9819336
vt 0.09643555 0.9848633
vt 0.09619141 0.9853516
vt 0.0970459 0.9858398
vt 0.09680176 0.9858398
vt 0.1047974 0.9873047
vt 0.1048584 0.987793
vt 0.1057129 0.9853516
vt 0.105957 0.9853516
vt 0.1060181 0.9838867
vt 0.1063232 0.9838867
vt 0.1068115 0.9814453
vt 0.1070557 0.980957
vt 0.1049194 0.9882813
vt 0.1066895 0.9853516
vt 0.09637451 0.9863281
vt 0.09564209 0.9858398
vt 0.1073608 0.980957
vt 0.09918213 0.9785156
vt 0.09790039 0.9790039
vt 0.0949707 0.9814453
vt 0.1071167 0.9838867
vt 0.07324219 0.9682617
vt 0.07214355 0.9682617
vt 0.07220459 0.96875
vt 0.07318115 0.96875
vt 0.07501221 0.96875
vt 0.07330322 0.9677734
vt 0.07202148 0.9677734
vt 0.06896973 0.9682617
vt 0.06896973 0.9682617
vt 0.06903076 0.96875
vt 0.07507324 0.9682617
vt 0.07531738 0.9677734
vt 0.07733154 0.96875
vt 0.07733154 0.9692383
vt 0.07745361 0.9682617
vt 0.07885742 0.9633789
vn -0.9999214 -0.01090023 0.006200134
vn -0.9999214 -0.01090023 0.006200134
vn 0 0.03509944 0.9993838
vn 0 0.03509944 0.9993838
vn 0.01609956 -0.9982729 0.05649847
vn 0.01609956 -0.9982729 0.05649847
vn 0 0.03509944 0.9993838
vn 0.9895542 -0.04191525 0.1379333
vn 0.9896278 0.0386943 0.1383458
vn 0 0.03509944 0.9993838
vn 0 0.9999006 0.01410001
vn 0 0.9999006 0.01410001
vn -0.9999214 -0.01090023 0.006200134
vn 0 0.9999006 0.01410001
vn -0.00900039 -0.005700246 -0.9999433
vn 0 0.03509944 0.9993838
vn -0.9999214 -0.01090023 0.006200134
vn 0.01609956 -0.9982729 0.05649847
vn -0.2838108 -0.7591076 -0.5858388
vn -0.7748124 -0.07265072 -0.6280029
vn -0.9999214 -0.01090023 0.006200134
vn -0.8867301 -0.194619 -0.4193245
vn -0.9999214 -0.01090023 0.006200134
vn -0.8625121 -0.3682886 -0.3470396
vn -0.00900039 -0.005700246 -0.9999433
vn -0.4289874 -0.3732753 -0.8225784
vn -0.2837449 -0.5498645 -0.7855812
vn -0.6374027 -0.06949713 -0.7673904
vn -0.7502113 -0.1895933 -0.6334329
vn -0.8129698 -0.4683901 -0.3459633
vn -0.454235 -0.4743002 -0.7541286
vn 0.9989703 -0.04536918 0
vn 0.9956377 -0.04182776 -0.08340364
vn 0.01609956 -0.9982729 0.05649847
vn 0.01609956 -0.9982729 0.05649847
vn 0.9989302 0.04624407 0
vn 0.995567 0.04376557 -0.08325226
vn -0.00900039 -0.005700246 -0.9999433
vn -0.00900039 -0.005700246 -0.9999433
vn 0 0.9999006 0.01410001
vn 0 0.9999006 0.01410001
vn 0 0.9999006 0.01410001
vn 0 0.03509944 0.9993838
vn -0.5077718 0.2089895 0.8357579
vn -0.546621 0.7808179 0.3025374
vn 0 0.03509944 0.9993838
vn -0.6424021 0.197233 0.7405528
vn -0.6514065 0.7005148 0.2914596
vn -0.5075436 0.06205384 0.8593886
vn -0.5899067 0.02064394 0.8072075
vn -0.5309646 0.8363823 0.136166
vn -0.6132225 0.7733809 0.160748
vn 0 0.9999006 0.01410001
vn -0.5270485 0.8360878 0.1522401
vn -0.6026881 0.7789541 0.1731982
vn 0 0.9999006 0.01410001
vn 0 0.9999006 0.01410001
vn 0 0.9999006 0.01410001
vn 0 0.9999006 0.01410001
vn -0.00900039 -0.005700246 -0.9999433
vn -0.00900039 -0.005700246 -0.9999433
vn -0.00900039 -0.005700246 -0.9999433
vn -0.00900039 -0.005700246 -0.9999433
vn -0.00900039 -0.005700246 -0.9999433
vn -0.4770973 -0.2422841 -0.8447938
vn -0.4289874 -0.3732753 -0.8225784
vn -0.00900039 -0.005700246 -0.9999433
vn -0.6543944 -0.1457736 -0.741969
vn 0.01609956 -0.9982729 0.05649847
vn -0.5052334 -0.7875261 -0.352905
vn 0.01609956 -0.9982729 0.05649847
vn -0.3774005 -0.8168702 -0.4362247
vn 0.01609956 -0.9982729 0.05649847
vn -0.2838108 -0.7591076 -0.5858388
vn -0.454235 -0.4743002 -0.7541286
vn -0.6974893 -0.2332844 -0.6775596
vn 0.01609956 -0.9982729 0.05649847
vn 0.01609956 -0.9982729 0.05649847
vn 0.01609956 -0.9982729 0.05649847
vn 0.01609956 -0.9982729 0.05649847
vn -0.7885219 -0.1653965 -0.592349
vn -0.7187736 -0.5535702 -0.420624
vn -0.5072642 -0.6009772 -0.6176644
vn -0.2837449 -0.5498645 -0.7855812
vn 0.01609956 -0.9982729 0.05649847
vn 0.03950009 -0.005900014 -0.9992022
vn -0.9972573 -0.0138994 0.07269689
vn 0.01609956 -0.9982729 0.05649847
vn -0.9972573 -0.0138994 0.07269689
vn -0.7089369 -0.02062355 0.7049704
vn -0.0857553 -0.8276218 0.5546964
vn 0.01609956 -0.9982729 0.05649847
vn 0.3159385 -0.8615751 0.39733
vn 0.01609956 -0.9982729 0.05649847
vn 0.5124706 -0.8585022 0.01865244
vn 0.03950009 -0.005900014 -0.9992022
vn 0.6593134 0.05969578 -0.7494947
vn 0.03950009 -0.005900014 -0.9992022
vn 0.5416782 0.2252855 -0.809834
vn 0.03950009 -0.005900014 -0.9992022
vn -0.1105889 0.4541059 -0.8840576
vn -0.9972573 -0.0138994 0.07269689
vn -0.8514081 0.458406 -0.2548885
vn -0.9972573 -0.0138994 0.07269689
vn -0.7839689 0.185937 0.5923007
vn 0.4789953 0.3085999 -0.8217844
vn -0.142965 0.509864 -0.8482922
vn 0.7590249 0.05948519 -0.6483385
vn 0.6057462 -0.7826822 0.1431089
vn -0.8370706 0.3053512 0.4539532
vn -0.5427778 -0.006226412 0.8398532
vn 0.0007196945 -0.7327928 0.6804516
vn 0.3587433 -0.8162441 0.4528233
vn -0.8357635 0.5081121 -0.208138
vn 0.5724576 0.7720228 0.2761762
vn 0.4880892 0.120939 0.8643742
vn 0 0.03509944 0.9993838
vn 0 0.9999006 0.01410001
vn 0 0.9999006 0.01410001
vn 0.6470698 0.7272123 0.2290478
vn 0.5672733 0.09186967 0.8183893
vn 0.4497472 0.01206699 0.8930745
vn 0.5401779 0.02796318 0.8410861
vn 0 0.03509944 0.9993838
vn 0.5354522 0.8438523 -0.03470373
vn 0.5999229 0.7985936 -0.04838197
vn 0.5376751 0.8417103 -0.04928773
vn 0 0.9999006 0.01410001
vn 0.6047099 0.7946732 -0.05310639
vn 0 0.9999006 0.01410001
g m_dlc07_stone_half_block_05_a_0
f 3/3/3 2/2/2 1/1/1
f 4/4/4 3/3/3 1/1/1
f 5/5/5 4/4/4 1/1/1
f 5/5/5 6/6/6 4/4/4
f 6/6/6 7/7/7 4/4/4
f 6/6/6 8/8/8 7/7/7
f 8/8/8 9/9/9 7/7/7
f 9/9/9 10/10/10 7/7/7
f 2/2/2 3/3/3 11/11/11
f 11/11/11 12/12/12 2/2/2
f 12/12/12 13/13/13 2/2/2
f 10/10/10 9/9/9 14/14/14
f 13/13/13 12/12/12 15/15/15
f 7/7/7 16/16/16 4/4/4
f 16/16/16 7/7/7 10/10/10
f 1/1/1 17/17/17 5/5/5
f 17/17/17 18/18/18 5/5/5
f 18/18/18 17/17/17 19/19/19
f 17/17/17 20/20/20 19/19/19
f 17/17/17 21/21/21 20/20/20
f 21/21/21 22/22/22 20/20/20
f 22/22/22 21/21/21 23/23/23
f 24/24/24 22/22/22 23/23/23
f 24/24/24 23/23/23 25/25/25
f 13/13/13 15/15/15 25/25/25
f 23/23/23 13/13/13 25/25/25
f 26/26/26 24/24/24 25/25/25
f 19/19/19 20/20/20 27/27/27
f 20/20/20 28/28/28 27/27/27
f 20/20/20 22/22/22 28/28/28
f 21/21/21 2/2/2 23/23/23
f 17/17/17 1/1/1 2/2/2
f 21/21/21 17/17/17 2/2/2
f 2/2/2 13/13/13 23/23/23
f 22/22/22 29/29/29 28/28/28
f 22/22/22 24/24/24 29/29/29
f 24/24/24 30/30/30 29/29/29
f 30/30/30 24/24/24 26/26/26
f 31/31/31 30/30/30 26/26/26
f 34/34/34 33/33/33 32/32/32
f 35/35/35 34/34/34 32/32/32
f 32/32/32 33/33/33 36/36/36
f 33/33/33 37/37/37 36/36/36
f 38/38/38 37/37/37 33/33/33
f 39/39/39 38/38/38 33/33/33
f 33/33/33 34/34/34 39/39/39
f 36/36/36 37/37/37 40/40/40
f 37/37/37 41/41/41 40/40/40
f 41/41/41 37/37/37 38/38/38
f 36/36/36 40/40/40 14/14/14
f 9/9/9 36/36/36 14/14/14
f 36/36/36 9/9/9 8/8/8
f 32/32/32 36/36/36 8/8/8
f 35/35/35 32/32/32 8/8/8
f 6/6/6 35/35/35 8/8/8
f 10/10/10 14/14/14 42/42/42
f 43/43/43 10/10/10 42/42/42
f 44/44/44 43/43/43 42/42/42
f 45/45/45 44/44/44 42/42/42
f 46/46/46 10/10/10 43/43/43
f 47/47/47 44/44/44 45/45/45
f 48/48/48 47/47/47 45/45/45
f 49/49/49 46/46/46 43/43/43
f 44/44/44 49/49/49 43/43/43
f 49/49/49 16/16/16 46/46/46
f 46/46/46 16/16/16 10/10/10
f 50/50/50 16/16/16 49/49/49
f 50/50/50 49/49/49 44/44/44
f 47/47/47 50/50/50 44/44/44
f 45/45/45 51/51/51 48/48/48
f 51/51/51 52/52/52 48/48/48
f 53/53/53 51/51/51 45/45/45
f 42/42/42 53/53/53 45/45/45
f 51/51/51 54/54/54 52/52/52
f 54/54/54 55/55/55 52/52/52
f 54/54/54 56/56/56 55/55/55
f 57/57/57 56/56/56 54/54/54
f 57/57/57 54/54/54 51/51/51
f 53/53/53 57/57/57 51/51/51
f 56/56/56 57/57/57 58/58/58
f 59/59/59 56/56/56 58/58/58
f 59/59/59 58/58/58 60/60/60
f 58/58/58 61/61/61 60/60/60
f 61/61/61 62/62/62 60/60/60
f 61/61/61 63/63/63 62/62/62
f 63/63/63 64/64/64 62/62/62
f 62/62/62 64/64/64 65/65/65
f 62/62/62 65/65/65 66/66/66
f 67/67/67 62/62/62 66/66/66
f 62/62/62 67/67/67 60/60/60
f 64/64/64 68/68/68 65/65/65
f 64/64/64 69/69/69 68/68/68
f 64/64/64 63/63/63 69/69/69
f 69/69/69 70/70/70 68/68/68
f 69/69/69 71/71/71 70/70/70
f 71/71/71 72/72/72 70/70/70
f 71/71/71 73/73/73 72/72/72
f 73/73/73 74/74/74 72/72/72
f 66/66/66 65/65/65 75/75/75
f 65/65/65 76/76/76 75/75/75
f 65/65/65 68/68/68 76/76/76
f 63/63/63 77/77/77 69/69/69
f 71/71/71 78/78/78 73/73/73
f 71/71/71 69/69/69 78/78/78
f 78/78/78 79/79/79 73/73/73
f 69/69/69 77/77/77 80/80/80
f 69/69/69 80/80/80 78/78/78
f 68/68/68 81/81/81 76/76/76
f 68/68/68 70/70/70 81/81/81
f 70/70/70 82/82/82 81/81/81
f 70/70/70 72/72/72 82/82/82
f 72/72/72 83/83/83 82/82/82
f 72/72/72 74/74/74 83/83/83
f 74/74/74 84/84/84 83/83/83
f 87/87/87 86/86/86 85/85/85
f 87/87/87 85/85/85 88/88/88
f 89/89/89 87/87/87 88/88/88
f 90/90/90 89/89/89 88/88/88
f 91/91/91 90/90/90 88/88/88
f 91/91/91 88/88/88 92/92/92
f 92/92/92 88/88/88 85/85/85
f 93/93/93 91/91/91 92/92/92
f 93/93/93 92/92/92 94/94/94
f 94/94/94 92/92/92 85/85/85
f 95/95/95 93/93/93 94/94/94
f 95/95/95 94/94/94 96/96/96
f 96/96/96 94/94/94 85/85/85
f 86/86/86 96/96/96 85/85/85
f 97/97/97 95/95/95 96/96/96
f 97/97/97 96/96/96 98/98/98
f 99/99/99 97/97/97 98/98/98
f 99/99/99 98/98/98 100/100/100
f 96/96/96 86/86/86 100/100/100
f 98/98/98 96/96/96 100/100/100
f 101/101/101 99/99/99 100/100/100
f 100/100/100 102/102/102 101/101/101
f 102/102/102 103/103/103 101/101/101
f 102/102/102 104/104/104 103/103/103
f 104/104/104 105/105/105 103/103/103
f 105/105/105 104/104/104 89/89/89
f 90/90/90 105/105/105 89/89/89
f 106/106/106 99/99/99 101/101/101
f 107/107/107 106/106/106 101/101/101
f 101/101/101 103/103/103 107/107/107
f 102/102/102 100/100/100 86/86/86
f 87/87/87 102/102/102 86/86/86
f 104/104/104 102/102/102 87/87/87
f 89/89/89 104/104/104 87/87/87
f 108/108/108 97/97/97 99/99/99
f 106/106/106 108/108/108 99/99/99
f 108/108/108 109/109/109 97/97/97
f 110/110/110 105/105/105 90/90/90
f 111/111/111 110/110/110 90/90/90
f 111/111/111 90/90/90 91/91/91
f 112/112/112 111/111/111 91/91/91
f 112/112/112 91/91/91 93/93/93
f 113/113/113 112/112/112 93/93/93
f 113/113/113 93/93/93 95/95/95
f 109/109/109 113/113/113 95/95/95
f 109/109/109 95/95/95 97/97/97
f 110/110/110 114/114/114 105/105/105
f 114/114/114 103/103/103 105/105/105
f 103/103/103 114/114/114 107/107/107
f 117/117/117 116/116/116 115/115/115
f 118/118/118 117/117/117 115/115/115
f 117/117/117 118/118/118 11/11/11
f 118/118/118 119/119/119 11/11/11
f 3/3/3 117/117/117 11/11/11
f 115/115/115 116/116/116 120/120/120
f 116/116/116 121/121/121 120/120/120
f 116/116/116 122/122/122 121/121/121
f 122/122/122 123/123/123 121/121/121
f 122/122/122 16/16/16 123/123/123
f 124/124/124 16/16/16 122/122/122
f 124/124/124 122/122/122 116/116/116
f 117/117/117 124/124/124 116/116/116
f 124/124/124 117/117/117 3/3/3
f 124/124/124 3/3/3 4/4/4
f 16/16/16 124/124/124 4/4/4
f 125/125/125 119/119/119 118/118/118
f 115/115/115 125/125/125 118/118/118
f 126/126/126 125/125/125 115/115/115
f 120/120/120 126/126/126 115/115/115
f 125/125/125 127/127/127 119/119/119
f 127/127/127 128/128/128 119/119/119
f 119/119/119 128/128/128 11/11/11
f 127/127/127 56/56/56 128/128/128
f 129/129/129 56/56/56 127/127/127
f 129/129/129 127/127/127 125/125/125
f 126/126/126 129/129/129 125/125/125
f 128/128/128 59/59/59 11/11/11
f 128/128/128 56/56/56 59/59/59
f 57/57/57 130/130/130 58/58/58
f 57/57/57 53/53/53 130/130/130
f 53/53/53 14/14/14 130/130/130
f 53/53/53 42/42/42 14/14/14
