g m_dlc7_gate_spike_01
v 0.06887197 0.3658735 -0.02877312
v 0.1036419 0.4072191 -0.04414535
v 0.04207051 0.4072191 -0.1045007
v 0.028355 0.3658735 -0.0690451
v -0.0441447 0.4072191 -0.1036414
v -0.02877207 0.3658735 -0.06887253
v -0.1045004 0.4072191 -0.04207085
v -0.06904551 0.3658735 -0.02835426
v -0.1036416 0.407219 0.04414444
v -0.06887233 0.3658735 0.02877228
v -0.04207072 0.4072191 0.1045007
v -0.0283552 0.3658735 0.06904499
v 0.069045 0.3658735 0.02835442
v 0.1045006 0.4072191 0.04206993
v 0.02877218 0.3658735 0.06887245
v 0.0441451 0.4072191 0.1036415
v -0.0283552 0.3658735 0.06904499
v -0.04207072 0.4072191 0.1045007
v -0.04413646 0.5333481 -0.1036214
v 0.04206258 0.533348 -0.1044807
v 0.1036211 0.533348 -0.04413704
v -0.04206279 0.5333481 0.1044807
v -0.1036215 0.5333481 0.0441362
v 0.04413716 0.533348 0.1036214
v -0.04206279 0.5333481 0.1044807
v 0.1044805 0.533348 0.04206177
v 0.02842153 0.5739585 -0.06912216
v 0.06897328 0.5739588 -0.02878029
v -0.02878001 0.5739586 -0.06897423
v -0.06912242 0.5739588 -0.0284209
v -0.1044808 0.5333481 -0.04206253
v -0.06897395 0.5739591 0.02877953
v -0.02842173 0.5739592 0.06912178
v 0.0287795 0.5739592 0.06897396
v -0.02842173 0.5739592 0.06912178
v 0.06912252 0.5739589 0.0284211
v 0.06897328 0.5739588 -0.02878029
v 0.07418111 0.7851526 -0.03040386
v 0.03096212 0.7851523 -0.07395401
v 0.02842153 0.5739585 -0.06912216
v -0.03039469 0.7851523 -0.07418884
v -0.02878001 0.5739586 -0.06897423
v -0.07394542 0.7851526 -0.03096931
v -0.06912242 0.5739588 -0.0284209
v -0.0741801 0.7851527 0.03038692
v -0.06897395 0.5739591 0.02877953
v -0.03095988 0.785153 0.07393825
v -0.02842173 0.5739592 0.06912178
v 0.06912252 0.5739589 0.0284211
v 0.07394734 0.7851529 0.03095322
v 0.0287795 0.5739592 0.06897396
v 0.03039693 0.7851529 0.07417312
v -0.02842173 0.5739592 0.06912178
v -0.03095988 0.785153 0.07393825
v 0.07418111 0.7851526 -0.03040386
v 0.09511922 0.8064949 -0.03893028
v 0.03973683 0.8064947 -0.09478913
v 0.03096212 0.7851523 -0.07395401
v -0.038921 0.8064947 -0.09512619
v -0.03039469 0.7851523 -0.07418884
v -0.09477992 0.8064947 -0.03974399
v -0.07394542 0.7851526 -0.03096931
v -0.09511714 0.8064947 0.03891441
v -0.0741801 0.7851527 0.03038692
v -0.03973613 0.8064947 0.09477226
v -0.03095988 0.785153 0.07393825
v 0.07394734 0.7851529 0.03095322
v 0.09478169 0.8064949 0.03972801
v 0.03039693 0.7851529 0.07417312
v 0.03892293 0.8064947 0.09511016
v -0.03095988 0.785153 0.07393825
v -0.03973613 0.8064947 0.09477226
v 0.04247853 0.8415591 -0.1013267
v 0.1016805 0.8415591 -0.0416156
v 0.1013195 0.8415591 0.04246872
v -0.1016781 0.8415591 0.04159878
v -0.1013182 0.841559 -0.04248558
v -0.04160685 0.841559 -0.1016874
v -0.04247661 0.8415591 0.1013106
v 0.04160817 0.841559 0.1016713
v 0.03226735 0.9211662 -0.07696922
v 0.0772353 0.9211662 -0.03161285
v 0.05848775 0.9970737 -0.02394138
v 0.07696156 0.9211662 0.03225754
v 0.05828114 0.9970737 0.02442505
v 0.02443471 0.9970737 -0.0582885
v -0.0316035 0.9211664 -0.07724312
v -0.0239326 0.9970737 -0.05849525
v 0.03160573 0.9211665 0.0772263
v 0.02393453 0.9970737 0.05847923
v -0.07696025 0.9211665 -0.03227348
v -0.05827952 0.9970738 -0.02444187
v -0.07723369 0.9211662 0.03159683
v -0.05848643 0.9970738 0.02392475
v -0.03226542 0.9211665 0.07695312
v -0.02443278 0.9970737 0.05827171
v -0.02443278 0.9970737 0.05827171
v -0.03226542 0.9211665 0.07695312
v 0.03296468 1.127466 -0.01349632
v 0.03284749 1.127466 0.01376266
v 5.078315E-07 1.145032 -7.781982E-06
v 0.01377156 1.127466 -0.03285549
v 0.01348928 1.127466 0.03295555
v -0.01348826 1.127466 -0.03297222
v -0.03284617 1.127466 -0.01377861
v -0.03296305 1.127466 0.01348061
v -0.01377024 1.127466 0.03283882
v -0.01377024 1.127466 0.03283882
v -0.04247661 0.8415591 0.1013106
v 0.06894215 -0.2650603 -0.02869469
v 0.06887197 0.3658735 -0.02877312
v 0.028355 0.3658735 -0.0690451
v 0.02846059 -0.2650605 -0.0690403
v -0.02877207 0.3658735 -0.06887253
v -0.02869242 -0.2650604 -0.06894409
v -0.06904551 0.3658735 -0.02835426
v -0.06903803 -0.2650602 -0.02846222
v -0.06887233 0.3658735 0.02877228
v -0.06894191 -0.26506 0.0286906
v -0.0283552 0.3658735 0.06904499
v -0.02846018 -0.2650599 0.06903618
v 0.0690389 -0.2650601 0.02845817
v 0.069045 0.3658735 0.02835442
v 0.02869283 -0.2650599 0.06893993
v 0.02877218 0.3658735 0.06887245
v -0.02846018 -0.2650599 0.06903618
v -0.0283552 0.3658735 0.06904499
v 0.06901632 -0.4750394 -0.02863609
v 0.103687 -0.4327043 -0.04416206
v 0.04208974 -0.4327041 -0.1045446
v 0.02855489 -0.4750391 -0.06905151
v -0.04416148 -0.4327041 -0.1036867
v -0.02863353 -0.4750391 -0.06901855
v -0.1045445 -0.4327043 -0.04209083
v -0.06904811 -0.4750396 -0.02855713
v -0.1036863 -0.4327047 0.0441613
v -0.06901515 -0.47504 0.02863049
v -0.04209056 -0.4327048 0.1045443
v -0.02855418 -0.4750403 0.06904564
v 0.06904835 -0.4750399 0.02855156
v 0.1045449 -0.4327045 0.04209023
v 0.02863362 -0.4750403 0.06901275
v 0.04416219 -0.4327048 0.1036866
v -0.02855418 -0.4750403 0.06904564
v -0.04209056 -0.4327048 0.1045443
v -0.04415172 -0.3068263 -0.1036611
v 0.04207997 -0.3068263 -0.1045194
v 0.1036611 -0.3068262 -0.04415207
v -0.04207957 -0.306826 0.1045192
v -0.103661 -0.3068261 0.04415131
v 0.0441515 -0.306826 0.103661
v -0.04207957 -0.306826 0.1045192
v 0.1045195 -0.3068261 0.04207912
v 0.02846059 -0.2650605 -0.0690403
v 0.06894215 -0.2650603 -0.02869469
v -0.02869242 -0.2650604 -0.06894409
v -0.06903803 -0.2650602 -0.02846222
v -0.1045193 -0.3068261 -0.04207993
v -0.06894191 -0.26506 0.0286906
v -0.02846018 -0.2650599 0.06903618
v 0.02869283 -0.2650599 0.06893993
v -0.02846018 -0.2650599 0.06903618
v 0.0690389 -0.2650601 0.02845817
v 0.07108784 -0.8418874 -0.02916
v 0.06901632 -0.4750394 -0.02863609
v 0.02855489 -0.4750391 -0.06905151
v 0.02965413 -0.8418874 -0.07088768
v -0.02863353 -0.4750391 -0.06901855
v -0.02915049 -0.8418874 -0.07109482
v -0.06904811 -0.4750396 -0.02855713
v -0.0708784 -0.8418877 -0.02966049
v -0.06901515 -0.47504 0.02863049
v -0.07108607 -0.8418879 0.02914398
v -0.02855418 -0.4750403 0.06904564
v -0.02965251 -0.841888 0.07087085
v 0.07088032 -0.8418877 0.02964432
v 0.06904835 -0.4750399 0.02855156
v 0.02915212 -0.841888 0.07107887
v 0.02863362 -0.4750403 0.06901275
v -0.02965251 -0.841888 0.07087085
v -0.02855418 -0.4750403 0.06904564
vt 0.71875 0.6298828
vt 0.71875 0.621582
vt 0.7109375 0.621582
vt 0.7109375 0.6298828
vt 0.7026367 0.6220703
vt 0.7036133 0.6303711
vt 0.6943359 0.6225586
vt 0.6962891 0.6308594
vt 0.6855469 0.6235352
vt 0.6889648 0.6318359
vt 0.6757813 0.6264648
vt 0.6826172 0.6342773
vt 0.7260742 0.6298828
vt 0.7270508 0.6220703
vt 0.7329102 0.6308594
vt 0.7358398 0.6230469
vt 0.7387695 0.6328125
vt 0.7446289 0.6254883
vt 0.7021484 0.6054688
vt 0.7104492 0.6049805
vt 0.7182617 0.6049805
vt 0.675293 0.605957
vt 0.6850586 0.605957
vt 0.7353516 0.605957
vt 0.7456055 0.605957
vt 0.7265625 0.6054688
vt 0.7099609 0.597168
vt 0.7177734 0.5976563
vt 0.7026367 0.597168
vt 0.6948242 0.597168
vt 0.6938477 0.6054688
vt 0.6879883 0.597168
vt 0.6811523 0.5961914
vt 0.7329102 0.5981445
vt 0.7392578 0.5981445
vt 0.7255859 0.5976563
vt 0.7177734 0.5976563
vt 0.7202148 0.5610352
vt 0.7124023 0.5610352
vt 0.7099609 0.597168
vt 0.7045898 0.5600586
vt 0.7026367 0.597168
vt 0.6972656 0.559082
vt 0.6948242 0.597168
vt 0.6894531 0.5585938
vt 0.6879883 0.597168
vt 0.6826172 0.5581055
vt 0.6811523 0.5961914
vt 0.7255859 0.5976563
vt 0.7275391 0.5610352
vt 0.7329102 0.5981445
vt 0.7353516 0.5610352
vt 0.7392578 0.5981445
vt 0.7421875 0.5615234
vt 0.7202148 0.5610352
vt 0.7207031 0.5566406
vt 0.7128906 0.5566406
vt 0.7124023 0.5610352
vt 0.7050781 0.5556641
vt 0.7045898 0.5600586
vt 0.6977539 0.5546875
vt 0.6972656 0.559082
vt 0.6894531 0.5532227
vt 0.6894531 0.5585938
vt 0.6806641 0.5517578
vt 0.6826172 0.5581055
vt 0.7275391 0.5610352
vt 0.7280273 0.5566406
vt 0.7353516 0.5610352
vt 0.7363281 0.5561523
vt 0.7421875 0.5615234
vt 0.7451172 0.5566406
vt 0.7128906 0.5532227
vt 0.7207031 0.5537109
vt 0.7285156 0.5532227
vt 0.6899414 0.5493164
vt 0.6977539 0.5512695
vt 0.7055664 0.5527344
vt 0.7456055 0.5522461
vt 0.7363281 0.5527344
vt 0.7138672 0.5415039
vt 0.7207031 0.5415039
vt 0.7202148 0.5297852
vt 0.7275391 0.5415039
vt 0.7250977 0.5292969
vt 0.7148438 0.5297852
vt 0.7075195 0.5410156
vt 0.7099609 0.5288086
vt 0.734375 0.5405273
vt 0.7294922 0.527832
vt 0.7006836 0.5395508
vt 0.7055664 0.5273438
vt 0.6938477 0.5375977
vt 0.7011719 0.5253906
vt 0.6879883 0.5341797
vt 0.6972656 0.5224609
vt 0.7338867 0.5258789
vt 0.7412109 0.5380859
vt 0.7182617 0.5112305
vt 0.7197266 0.5107422
vt 0.7172852 0.5087891
vt 0.7167969 0.5112305
vt 0.7207031 0.5102539
vt 0.715332 0.5112305
vt 0.7143555 0.5102539
vt 0.7128906 0.5092773
vt 0.7124023 0.5078125
vt 0.722168 0.5087891
vt 0.6806641 0.5473633
vt 0.5810547 0.6274414
vt 0.5053711 0.6264648
vt 0.5048828 0.6323242
vt 0.5810547 0.6337891
vt 0.5048828 0.6376953
vt 0.5810547 0.6401367
vt 0.5048828 0.6435547
vt 0.5810547 0.6464844
vt 0.5043945 0.6494141
vt 0.5810547 0.652832
vt 0.5043945 0.6552734
vt 0.5800781 0.6586914
vt 0.5810547 0.6210938
vt 0.5053711 0.6206055
vt 0.5810547 0.6147461
vt 0.5053711 0.6147461
vt 0.5805664 0.6088867
vt 0.5053711 0.6088867
vt 0.6123047 0.6259766
vt 0.6044922 0.6259766
vt 0.6044922 0.6328125
vt 0.6123047 0.6328125
vt 0.6049805 0.6396484
vt 0.612793 0.6391602
vt 0.6054688 0.6469727
vt 0.6132813 0.6455078
vt 0.605957 0.6547852
vt 0.6142578 0.6518555
vt 0.6074219 0.6640625
vt 0.6152344 0.6577148
vt 0.6118164 0.6196289
vt 0.6040039 0.6186523
vt 0.6118164 0.6132813
vt 0.6040039 0.6113281
vt 0.6118164 0.6074219
vt 0.6044922 0.6025391
vt 0.5893555 0.6401367
vt 0.5888672 0.6333008
vt 0.5888672 0.6264648
vt 0.5883789 0.6640625
vt 0.5893555 0.6552734
vt 0.5883789 0.6118164
vt 0.5869141 0.6025391
vt 0.5883789 0.6196289
vt 0.5810547 0.6337891
vt 0.5810547 0.6274414
vt 0.5810547 0.6401367
vt 0.5810547 0.6464844
vt 0.5893555 0.6474609
vt 0.5810547 0.652832
vt 0.5800781 0.6586914
vt 0.5810547 0.6147461
vt 0.5805664 0.6088867
vt 0.5810547 0.6210938
vt 0.6679688 0.6220703
vt 0.6123047 0.6259766
vt 0.6123047 0.6328125
vt 0.668457 0.6274414
vt 0.612793 0.6391602
vt 0.6689453 0.6333008
vt 0.6132813 0.6455078
vt 0.6694336 0.6391602
vt 0.6142578 0.6518555
vt 0.6704102 0.6450195
vt 0.6152344 0.6577148
vt 0.6708984 0.6508789
vt 0.6674805 0.6162109
vt 0.6118164 0.6196289
vt 0.6669922 0.6103516
vt 0.6118164 0.6132813
vt 0.6669922 0.6044922
vt 0.6118164 0.6074219
vn 0.671663 -0.685057 -0.282074
vn 0.9051666 -0.1791099 -0.3854779
vn 0.367474 -0.17911 -0.912624
vn 0.2754819 -0.6850548 -0.6743958
vn -0.385474 -0.179111 -0.905168
vn -0.2820711 -0.685057 -0.6716642
vn -0.9126219 -0.17911 -0.367479
vn -0.674394 -0.6850569 -0.275481
vn -0.9051675 -0.1791099 0.3854758
vn -0.6716637 -0.6850567 0.2820729
vn -0.3674799 -0.1791099 0.9126216
vn -0.275488 -0.685055 0.6743931
vn 0.6743958 -0.6850548 0.2754819
vn 0.9126231 -0.17911 0.367476
vn 0.2820729 -0.6850557 0.6716648
vn 0.3854782 -0.1791091 0.9051665
vn -0.275488 -0.685055 0.6743931
vn -0.3674799 -0.1791099 0.9126216
vn -0.385463 0.179317 -0.9051319
vn 0.3674559 0.179316 -0.9125907
vn 0.9051304 0.1793159 -0.3854667
vn -0.3674621 0.1793161 0.9125882
vn -0.9051313 0.1793159 0.3854647
vn 0.385468 0.179316 0.90513
vn -0.3674621 0.1793161 0.9125882
vn 0.91259 0.179316 0.367458
vn 0.2740029 0.6892158 -0.6707488
vn 0.6680387 0.6892176 -0.2805409
vn -0.2805379 0.6892178 -0.6680398
vn -0.6707468 0.6892178 -0.2740029
vn -0.9125888 0.1793159 -0.3674608
vn -0.6680402 0.6892172 0.2805391
vn -0.274009 0.689217 0.670745
vn 0.2805409 0.6892168 0.6680397
vn -0.274009 0.689217 0.670745
vn 0.6707491 0.6892151 0.274004
vn 0.9237564 -0.02595301 -0.3821002
vn 0.9240593 -0.02595301 -0.3813671
vn 0.383745 -0.02596999 -0.9230738
vn 0.3830031 -0.02597 -0.9233819
vn -0.3813529 -0.02596799 -0.9240648
vn -0.3821062 -0.02596801 -0.9237534
vn -0.9230691 -0.025947 -0.383758
vn -0.9233856 -0.02594699 -0.3829958
vn -0.9240659 -0.025921 0.381353
vn -0.9237521 -0.025921 0.382113
vn -0.383759 -0.025904 0.9230699
vn -0.3830088 -0.02590398 0.9233814
vn 0.9233811 -0.025927 0.383008
vn 0.9230771 -0.025927 0.3837401
vn 0.3820991 -0.025907 0.9237581
vn 0.3813602 -0.02590701 0.9240634
vn -0.3830088 -0.02590398 0.9233814
vn -0.383759 -0.025904 0.9230699
vn 0.6370586 -0.7253956 -0.2606868
vn 0.8158101 -0.472243 -0.333827
vn 0.3408089 -0.4722419 -0.8129188
vn 0.2661371 -0.7253962 -0.6348003
vn -0.33383 -0.472243 -0.8158089
vn -0.2606841 -0.7253962 -0.6370591
vn -0.8129191 -0.472242 -0.340808
vn -0.6348028 -0.7253938 -0.2661379
vn -0.8158079 -0.4722419 0.3338339
vn -0.637059 -0.7253959 0.260685
vn -0.340814 -0.472243 0.812916
vn -0.26614 -0.7253929 0.6348029
vn 0.6348028 -0.7253938 0.2661379
vn 0.812919 -0.47224 0.340811
vn 0.2606819 -0.7253937 0.6370628
vn 0.3338289 -0.4722419 0.8158099
vn -0.26614 -0.7253929 0.6348029
vn -0.340814 -0.472243 0.812916
vn 0.378905 0.19902 -0.9037821
vn 0.9069959 0.199021 -0.3711459
vn 0.9037828 0.199021 0.3789029
vn -0.9069979 0.199019 0.3711419
vn -0.9037812 0.1990201 -0.3789071
vn -0.371144 0.19902 -0.9069968
vn -0.378905 0.19902 0.9037821
vn 0.3711451 0.199021 0.9069962
vn 0.3688411 0.2999021 -0.8797812
vn 0.8829099 0.2999019 -0.3612879
vn 0.9008452 0.2293281 -0.3686281
vn 0.8797798 0.2999029 0.3688439
vn 0.8976526 0.2293279 0.3763358
vn 0.376335 0.229328 -0.8976529
vn -0.3612869 0.299903 -0.88291
vn -0.3686311 0.229327 -0.9008442
vn 0.3612898 0.2999038 0.8829085
vn 0.3686281 0.2293281 0.9008452
vn -0.8797807 0.2999029 -0.3688419
vn -0.8976523 0.2293281 -0.3763362
vn -0.8829093 0.2999021 0.3612891
vn -0.9008453 0.2293291 0.3686271
vn -0.3688408 0.2999038 0.8797807
vn -0.3763361 0.229329 0.8976521
vn -0.3763361 0.229329 0.8976521
vn -0.3688408 0.2999038 0.8797807
vn 0.9046042 0.2113561 -0.3701621
vn 0.901396 0.211354 0.3779081
vn 0 1 -6E-06
vn 0.3779091 0.2113561 -0.9013952
vn 0.3701659 0.211355 0.9046028
vn -0.3701731 0.211353 -0.9046003
vn -0.9013969 0.211356 -0.377905
vn -0.9046027 0.2113539 0.3701669
vn -0.3779089 0.211354 0.9013957
vn -0.3779089 0.211354 0.9013957
vn -0.378905 0.19902 0.9037821
vn 0.92312 9.999999E-07 -0.384512
vn 0.9230888 9.999997E-07 -0.3845869
vn 0.3807799 1.999999E-06 -0.9246657
vn 0.380855 2E-06 -0.9246348
vn -0.3845869 1.999999E-06 -0.9230888
vn -0.3845108 1.999999E-06 -0.9231204
vn -0.924666 0 -0.380779
vn -0.9246339 0 -0.380857
vn -0.9230883 -3.000001E-06 0.3845881
vn -0.9231204 -2.999999E-06 0.3845108
vn -0.380784 -4E-06 0.924664
vn -0.3808599 -3.999999E-06 0.9246328
vn 0.9246351 -2E-06 0.380854
vn 0.9246657 -1.999999E-06 0.3807799
vn 0.3845112 -4.000002E-06 0.9231204
vn 0.3845869 -3.999999E-06 0.9230888
vn -0.3808599 -3.999999E-06 0.9246328
vn -0.380784 -4E-06 0.924664
vn 0.6801975 -0.6756245 -0.2843642
vn 0.905267 -0.178629 -0.385465
vn 0.3675531 -0.1786241 -0.9126874
vn 0.279902 -0.6756121 -0.682058
vn -0.3854648 -0.1786259 -0.9052677
vn -0.284359 -0.675615 -0.680209
vn -0.9126853 -0.1786321 -0.3675541
vn -0.6820371 -0.6756321 -0.279905
vn -0.9052647 -0.1786389 0.3854659
vn -0.6801822 -0.6756482 0.2843441
vn -0.3675551 -0.1786451 0.9126824
vn -0.279891 -0.675661 0.682014
vn 0.682031 -0.6756451 0.279888
vn 0.9126834 -0.1786381 0.3675562
vn 0.2843521 -0.6756601 0.6801671
vn 0.385465 -0.178644 0.9052641
vn -0.279891 -0.675661 0.682014
vn -0.3675551 -0.1786451 0.9126824
vn -0.38546 0.178903 -0.9052151
vn 0.367518 0.178902 -0.912647
vn 0.9052137 0.1789059 -0.3854619
vn -0.367521 0.178917 0.9126428
vn -0.9052122 0.1789131 0.3854621
vn 0.3854623 0.1789161 0.9052116
vn -0.367521 0.178917 0.9126428
vn 0.912644 0.178911 0.367521
vn 0.2777179 0.6810219 -0.6775559
vn 0.6754709 0.6810319 -0.282727
vn -0.282722 0.681024 -0.675481
vn -0.6775416 0.6810356 -0.2777188
vn -0.912645 0.178908 -0.36752
vn -0.6754609 0.6810478 0.282713
vn -0.27771 0.6810569 0.6775239
vn 0.2827189 0.681056 0.67545
vn -0.27771 0.6810569 0.6775239
vn 0.677538 0.681044 0.277707
vn 0.9246541 6.000001E-06 -0.380808
vn 0.9245356 6.999997E-06 -0.3810959
vn 0.3842658 1.399999E-05 -0.9232225
vn 0.3845571 1.4E-05 -0.9231012
vn -0.3811061 1.300001E-05 -0.9245313
vn -0.3808089 1.3E-05 -0.9246538
vn -0.9232232 4.000001E-06 -0.3842641
vn -0.9230984 3.999998E-06 -0.3845638
vn -0.9245326 -6.999998E-06 0.3811029
vn -0.9246562 -7.000001E-06 0.3808031
vn -0.3842641 -1.5E-05 0.9232232
vn -0.38456 -1.5E-05 0.9231001
vn 0.9231009 -4E-06 0.3845579
vn 0.9232209 -3.999999E-06 0.3842699
vn 0.380808 -1.3E-05 0.9246541
vn 0.3810991 -1.3E-05 0.9245343
vn -0.38456 -1.5E-05 0.9231001
vn -0.3842641 -1.5E-05 0.9232232
g m_dlc7_gate_spike_01_0
f 3/3/3 2/2/2 1/1/1
f 4/4/4 3/3/3 1/1/1
f 5/5/5 3/3/3 4/4/4
f 6/6/6 5/5/5 4/4/4
f 7/7/7 5/5/5 6/6/6
f 8/8/8 7/7/7 6/6/6
f 9/9/9 7/7/7 8/8/8
f 10/10/10 9/9/9 8/8/8
f 11/11/11 9/9/9 10/10/10
f 12/12/12 11/11/11 10/10/10
f 1/1/1 2/2/2 13/13/13
f 2/2/2 14/14/14 13/13/13
f 13/13/13 14/14/14 15/15/15
f 14/14/14 16/16/16 15/15/15
f 15/15/15 16/16/16 17/17/17
f 16/16/16 18/18/18 17/17/17
f 3/3/3 5/5/5 19/19/19
f 20/20/20 3/3/3 19/19/19
f 2/2/2 3/3/3 20/20/20
f 21/21/21 2/2/2 20/20/20
f 9/9/9 11/11/11 22/22/22
f 23/23/23 9/9/9 22/22/22
f 18/18/18 16/16/16 24/24/24
f 25/25/25 18/18/18 24/24/24
f 16/16/16 14/14/14 26/26/26
f 24/24/24 16/16/16 26/26/26
f 26/26/26 14/14/14 2/2/2
f 21/21/21 26/26/26 2/2/2
f 20/20/20 27/27/27 21/21/21
f 27/27/27 28/28/28 21/21/21
f 21/21/21 28/28/28 26/26/26
f 29/29/29 27/27/27 20/20/20
f 19/19/19 29/29/29 20/20/20
f 30/30/30 29/29/29 19/19/19
f 31/31/31 30/30/30 19/19/19
f 19/19/19 5/5/5 31/31/31
f 5/5/5 7/7/7 31/31/31
f 31/31/31 7/7/7 23/23/23
f 7/7/7 9/9/9 23/23/23
f 32/32/32 30/30/30 31/31/31
f 23/23/23 32/32/32 31/31/31
f 33/33/33 32/32/32 23/23/23
f 22/22/22 33/33/33 23/23/23
f 24/24/24 34/34/34 25/25/25
f 34/34/34 35/35/35 25/25/25
f 36/36/36 34/34/34 24/24/24
f 26/26/26 36/36/36 24/24/24
f 28/28/28 36/36/36 26/26/26
f 39/39/39 38/38/38 37/37/37
f 40/40/40 39/39/39 37/37/37
f 41/41/41 39/39/39 40/40/40
f 42/42/42 41/41/41 40/40/40
f 43/43/43 41/41/41 42/42/42
f 44/44/44 43/43/43 42/42/42
f 45/45/45 43/43/43 44/44/44
f 46/46/46 45/45/45 44/44/44
f 47/47/47 45/45/45 46/46/46
f 48/48/48 47/47/47 46/46/46
f 37/37/37 38/38/38 49/49/49
f 38/38/38 50/50/50 49/49/49
f 49/49/49 50/50/50 51/51/51
f 50/50/50 52/52/52 51/51/51
f 51/51/51 52/52/52 53/53/53
f 52/52/52 54/54/54 53/53/53
f 57/57/57 56/56/56 55/55/55
f 58/58/58 57/57/57 55/55/55
f 59/59/59 57/57/57 58/58/58
f 60/60/60 59/59/59 58/58/58
f 61/61/61 59/59/59 60/60/60
f 62/62/62 61/61/61 60/60/60
f 63/63/63 61/61/61 62/62/62
f 64/64/64 63/63/63 62/62/62
f 65/65/65 63/63/63 64/64/64
f 66/66/66 65/65/65 64/64/64
f 55/55/55 56/56/56 67/67/67
f 56/56/56 68/68/68 67/67/67
f 67/67/67 68/68/68 69/69/69
f 68/68/68 70/70/70 69/69/69
f 69/69/69 70/70/70 71/71/71
f 70/70/70 72/72/72 71/71/71
f 57/57/57 59/59/59 73/73/73
f 57/57/57 73/73/73 74/74/74
f 56/56/56 57/57/57 74/74/74
f 75/75/75 68/68/68 56/56/56
f 74/74/74 75/75/75 56/56/56
f 63/63/63 65/65/65 76/76/76
f 63/63/63 76/76/76 77/77/77
f 61/61/61 63/63/63 77/77/77
f 61/61/61 77/77/77 78/78/78
f 59/59/59 78/78/78 73/73/73
f 59/59/59 61/61/61 78/78/78
f 72/72/72 70/70/70 79/79/79
f 70/70/70 80/80/80 79/79/79
f 68/68/68 75/75/75 80/80/80
f 70/70/70 68/68/68 80/80/80
f 74/74/74 73/73/73 81/81/81
f 82/82/82 74/74/74 81/81/81
f 82/82/82 81/81/81 83/83/83
f 82/82/82 83/83/83 84/84/84
f 83/83/83 85/85/85 84/84/84
f 81/81/81 86/86/86 83/83/83
f 81/81/81 87/87/87 86/86/86
f 87/87/87 88/88/88 86/86/86
f 84/84/84 85/85/85 89/89/89
f 79/79/79 80/80/80 89/89/89
f 85/85/85 90/90/90 89/89/89
f 87/87/87 91/91/91 88/88/88
f 91/91/91 92/92/92 88/88/88
f 91/91/91 93/93/93 92/92/92
f 93/93/93 94/94/94 92/92/92
f 93/93/93 95/95/95 94/94/94
f 95/95/95 96/96/96 94/94/94
f 89/89/89 90/90/90 97/97/97
f 98/98/98 89/89/89 97/97/97
f 83/83/83 99/99/99 85/85/85
f 99/99/99 100/100/100 85/85/85
f 101/101/101 100/100/100 99/99/99
f 99/99/99 102/102/102 101/101/101
f 102/102/102 99/99/99 83/83/83
f 101/101/101 103/103/103 100/100/100
f 90/90/90 103/103/103 97/97/97
f 100/100/100 103/103/103 90/90/90
f 102/102/102 104/104/104 101/101/101
f 104/104/104 105/105/105 101/101/101
f 105/105/105 106/106/106 101/101/101
f 106/106/106 105/105/105 92/92/92
f 94/94/94 106/106/106 92/92/92
f 106/106/106 107/107/107 101/101/101
f 107/107/107 106/106/106 94/94/94
f 96/96/96 107/107/107 94/94/94
f 108/108/108 103/103/103 101/101/101
f 103/103/103 108/108/108 97/97/97
f 86/86/86 102/102/102 83/83/83
f 104/104/104 102/102/102 86/86/86
f 88/88/88 104/104/104 86/86/86
f 105/105/105 104/104/104 88/88/88
f 92/92/92 105/105/105 88/88/88
f 85/85/85 100/100/100 90/90/90
f 65/65/65 109/109/109 76/76/76
f 76/76/76 109/109/109 95/95/95
f 93/93/93 76/76/76 95/95/95
f 77/77/77 76/76/76 93/93/93
f 91/91/91 77/77/77 93/93/93
f 78/78/78 77/77/77 91/91/91
f 87/87/87 78/78/78 91/91/91
f 73/73/73 78/78/78 87/87/87
f 81/81/81 73/73/73 87/87/87
f 98/98/98 79/79/79 89/89/89
f 89/89/89 80/80/80 75/75/75
f 84/84/84 89/89/89 75/75/75
f 84/84/84 75/75/75 74/74/74
f 82/82/82 84/84/84 74/74/74
f 112/112/112 111/111/111 110/110/110
f 113/113/113 112/112/112 110/110/110
f 114/114/114 112/112/112 113/113/113
f 115/115/115 114/114/114 113/113/113
f 116/116/116 114/114/114 115/115/115
f 117/117/117 116/116/116 115/115/115
f 118/118/118 116/116/116 117/117/117
f 119/119/119 118/118/118 117/117/117
f 120/120/120 118/118/118 119/119/119
f 121/121/121 120/120/120 119/119/119
f 110/110/110 111/111/111 122/122/122
f 111/111/111 123/123/123 122/122/122
f 122/122/122 123/123/123 124/124/124
f 123/123/123 125/125/125 124/124/124
f 124/124/124 125/125/125 126/126/126
f 125/125/125 127/127/127 126/126/126
f 130/130/130 129/129/129 128/128/128
f 131/131/131 130/130/130 128/128/128
f 132/132/132 130/130/130 131/131/131
f 133/133/133 132/132/132 131/131/131
f 134/134/134 132/132/132 133/133/133
f 135/135/135 134/134/134 133/133/133
f 136/136/136 134/134/134 135/135/135
f 137/137/137 136/136/136 135/135/135
f 138/138/138 136/136/136 137/137/137
f 139/139/139 138/138/138 137/137/137
f 128/128/128 129/129/129 140/140/140
f 129/129/129 141/141/141 140/140/140
f 140/140/140 141/141/141 142/142/142
f 141/141/141 143/143/143 142/142/142
f 142/142/142 143/143/143 144/144/144
f 143/143/143 145/145/145 144/144/144
f 130/130/130 132/132/132 146/146/146
f 147/147/147 130/130/130 146/146/146
f 129/129/129 130/130/130 147/147/147
f 148/148/148 129/129/129 147/147/147
f 136/136/136 138/138/138 149/149/149
f 150/150/150 136/136/136 149/149/149
f 145/145/145 143/143/143 151/151/151
f 152/152/152 145/145/145 151/151/151
f 143/143/143 141/141/141 153/153/153
f 151/151/151 143/143/143 153/153/153
f 153/153/153 141/141/141 129/129/129
f 148/148/148 153/153/153 129/129/129
f 147/147/147 154/154/154 148/148/148
f 154/154/154 155/155/155 148/148/148
f 148/148/148 155/155/155 153/153/153
f 156/156/156 154/154/154 147/147/147
f 146/146/146 156/156/156 147/147/147
f 157/157/157 156/156/156 146/146/146
f 158/158/158 157/157/157 146/146/146
f 146/146/146 132/132/132 158/158/158
f 132/132/132 134/134/134 158/158/158
f 158/158/158 134/134/134 150/150/150
f 134/134/134 136/136/136 150/150/150
f 159/159/159 157/157/157 158/158/158
f 150/150/150 159/159/159 158/158/158
f 160/160/160 159/159/159 150/150/150
f 149/149/149 160/160/160 150/150/150
f 151/151/151 161/161/161 152/152/152
f 161/161/161 162/162/162 152/152/152
f 163/163/163 161/161/161 151/151/151
f 153/153/153 163/163/163 151/151/151
f 155/155/155 163/163/163 153/153/153
f 166/166/166 165/165/165 164/164/164
f 167/167/167 166/166/166 164/164/164
f 168/168/168 166/166/166 167/167/167
f 169/169/169 168/168/168 167/167/167
f 170/170/170 168/168/168 169/169/169
f 171/171/171 170/170/170 169/169/169
f 172/172/172 170/170/170 171/171/171
f 173/173/173 172/172/172 171/171/171
f 174/174/174 172/172/172 173/173/173
f 175/175/175 174/174/174 173/173/173
f 164/164/164 165/165/165 176/176/176
f 165/165/165 177/177/177 176/176/176
f 176/176/176 177/177/177 178/178/178
f 177/177/177 179/179/179 178/178/178
f 178/178/178 179/179/179 180/180/180
f 179/179/179 181/181/181 180/180/180
