g m_dlc07_stone_broken_block_01
v 0.2329205 0.1881586 0.3211258
v 0.2329205 0.1881586 -0.3211258
v 0.2656518 0.1554272 -0.3211258
v 0.2656518 0.1554272 0.3211258
v 0.2329205 0.1554272 0.3538571
v 0.2329205 0.1554272 -0.3538571
v 0.01125874 0.1726501 0.3121085
v 0.0222615 0.1437283 0.3430441
v 0.0111058 0.1416209 0.3352971
v 0.001870728 0.1634249 0.3103906
v -0.2445452 0.1785908 -0.3044054
v -0.2524481 0.1696782 -0.299351
v -0.2583431 0.1456704 -0.3391614
v -0.2656519 0.1470858 -0.3279799
v 0.01454266 0.09485542 0.335293
v 0.02442333 0.09537514 0.342393
v -0.2463749 -0.08265877 -0.3407129
v -0.2528968 -0.08467407 -0.3312048
v 0.2656518 -0.09314789 -0.3211258
v 0.2329205 -0.09076225 -0.3538571
v 0.2329205 -0.1005502 -0.3443057
v 0.25678 -0.1019104 -0.3174454
v 0.2656518 -0.1091743 0.3211258
v 0.2565609 -0.1177197 0.3173624
v 0.2329205 -0.1076798 0.3538571
v 0.2329205 -0.117215 0.3440654
v 0.1952782 -0.11428 0.3510556
v 0.1960072 -0.1228603 0.3424886
v -0.1112571 -0.1681081 -0.3364502
v -0.1125192 -0.1596375 -0.3447966
v 0.1833168 -0.1174924 0.3450575
v 0.02021359 0.08252914 0.3371269
v -0.243842 -0.09759948 -0.3356071
v -0.1271466 -0.1647133 -0.3391846
v 0.1960072 -0.1228603 0.3424886
v -0.07826311 -0.1664346 0.04910507
v -0.07481226 -0.1585131 0.07026093
v 0.1833168 -0.1174924 0.3450575
v 0.02021359 0.08252914 0.3371269
v -0.08538347 -0.1584724 0.05480102
v -0.2192724 -0.1809476 -0.2656062
v -0.2094917 -0.1881585 -0.2674208
v 0.01454266 0.09485542 0.335293
v -0.2528968 -0.08467407 -0.3312048
v -0.2148575 -0.1826799 -0.2778145
v -0.243842 -0.09759948 -0.3356071
v -0.1271466 -0.1647133 -0.3391846
v -0.1112571 -0.1681081 -0.3364502
v 0.0111058 0.1416209 0.3352971
v -0.2656519 0.1470858 -0.3279799
v -0.2524481 0.1696782 -0.299351
v 0.001870728 0.1634249 0.3103906
v 0.2329205 -0.1005502 -0.3443057
v 0.2329205 -0.117215 0.3440654
v 0.25678 -0.1019104 -0.3174454
v 0.2565609 -0.1177197 0.3173624
vt 0.5976563 0.9091797
vt 0.5922852 0.8916016
vt 0.5913086 0.8916016
vt 0.5961914 0.9091797
vt 0.597168 0.9101563
vt 0.5913086 0.890625
vt 0.6044922 0.9082031
vt 0.6035156 0.9101563
vt 0.6040039 0.9101563
vt 0.6044922 0.9082031
vt 0.6044922 0.8842773
vt 0.6044922 0.8842773
vt 0.6035156 0.8828125
vt 0.6040039 0.8828125
vt 0.6030273 0.9125977
vt 0.6025391 0.9121094
vt 0.5976563 0.8774414
vt 0.5976563 0.8769531
vt 0.5839844 0.8911133
vt 0.5849609 0.8891602
vt 0.5844727 0.8886719
vt 0.5834961 0.8911133
vt 0.5893555 0.9125977
vt 0.5888672 0.9125977
vt 0.5908203 0.9140625
vt 0.590332 0.9145508
vt 0.5917969 0.9155273
vt 0.5913086 0.9155273
vt 0.5917969 0.8779297
vt 0.5917969 0.8779297
vt 0.5917969 0.9155273
vt 0.6025391 0.9125977
vt 0.597168 0.8769531
vt 0.5922852 0.8774414
vt 0.6083984 0.9692383
vt 0.597168 0.9741211
vt 0.5981445 0.9741211
vt 0.6083984 0.9697266
vt 0.6083984 0.9785156
vt 0.5976563 0.9746094
vt 0.5874023 0.9760742
vt 0.5874023 0.9755859
vt 0.6083984 0.9790039
vt 0.5854492 0.9794922
vt 0.5869141 0.9760742
vt 0.5854492 0.9790039
vt 0.5854492 0.9731445
vt 0.5854492 0.972168
vt 0.6088867 0.9804688
vt 0.5874023 0.9863281
vt 0.5883789 0.9868164
vt 0.6079102 0.9814453
vt 0.5883789 0.9619141
vt 0.6088867 0.9677734
vt 0.5893555 0.9614258
vt 0.6079102 0.9667969
vn 0.05328814 0.9978035 0.0393522
vn 0.05045602 0.9972684 -0.053943
vn 0.9930707 0.1092844 -0.04321649
vn 0.9929872 0.1089728 0.04584144
vn 0.1868798 0.1873316 0.9643561
vn 0.0300835 0.1199953 -0.9923185
vn -0.05161882 0.9979372 0.03816989
vn -0.1023977 0.5023577 0.8585752
vn -0.9196169 -0.04826219 0.3898402
vn -0.8878163 0.2605782 0.3793169
vn -0.06335384 0.9952589 -0.07379802
vn -0.8984491 0.2433295 0.365486
vn -0.05747733 0.1318156 -0.9896064
vn -0.9306208 -0.04746601 0.3628936
vn -0.9177788 -0.06479682 0.3917696
vn -0.09277327 -0.02750637 0.9953073
vn -0.1481318 -0.01807209 -0.9888025
vn -0.9274417 -0.06284092 0.3686501
vn 0.9986014 -0.02715051 -0.04536702
vn 0.03598469 -0.01821413 -0.9991863
vn 0.1781165 -0.9828084 -0.04860186
vn 0.1863176 -0.9819176 -0.0335204
vn 0.9984083 -0.02844637 0.04870201
vn 0.1838006 -0.9828567 -0.01449612
vn 0.5029263 -0.03012812 0.8638041
vn 0.1782157 -0.9838521 -0.01656177
vn -0.09322402 -0.0527682 0.9942458
vn 0.1789706 -0.9837887 -0.01137168
vn 0.1812842 -0.9826844 -0.03830698
vn -0.0256488 -0.02190431 -0.999431
vn -0.5526071 -0.525763 0.6466829
vn -0.6154872 -0.4309206 0.6599113
vn -0.4797374 -0.5206591 -0.7062339
vn -0.265618 -0.6265689 -0.7327063
vn 0.1789706 -0.9837887 -0.01137168
vn 0.1419651 -0.9898475 0.006925296
vn -0.5949266 -0.5488327 0.5872352
vn -0.5526071 -0.525763 0.6466829
vn -0.6154872 -0.4309206 0.6599113
vn -0.9164906 -0.08658312 0.3905744
vn -0.9194862 -0.09173125 0.3822701
vn 0.1329709 -0.9911193 -0.001053411
vn -0.9177788 -0.06479682 0.3917696
vn -0.9274417 -0.06284092 0.3686501
vn -0.4441147 -0.6749764 -0.5892105
vn -0.4797374 -0.5206591 -0.7062339
vn -0.265618 -0.6265689 -0.7327063
vn 0.1812842 -0.9826844 -0.03830698
vn -0.9196169 -0.04826219 0.3898402
vn -0.9306208 -0.04746601 0.3628936
vn -0.8984491 0.2433295 0.365486
vn -0.8878163 0.2605782 0.3793169
vn 0.1781165 -0.9828084 -0.04860186
vn 0.1782157 -0.9838521 -0.01656177
vn 0.1863176 -0.9819176 -0.0335204
vn 0.1838006 -0.9828567 -0.01449612
g m_dlc07_stone_broken_block_01_0
f 3/3/3 2/2/2 1/1/1
f 4/4/4 3/3/3 1/1/1
f 5/5/5 4/4/4 1/1/1
f 2/2/2 3/3/3 6/6/6
f 5/5/5 1/1/1 7/7/7
f 8/8/8 5/5/5 7/7/7
f 9/9/9 8/8/8 7/7/7
f 10/10/10 9/9/9 7/7/7
f 7/7/7 11/11/11 10/10/10
f 1/1/1 2/2/2 11/11/11
f 7/7/7 1/1/1 11/11/11
f 11/11/11 12/12/12 10/10/10
f 11/11/11 13/13/13 12/12/12
f 2/2/2 6/6/6 13/13/13
f 11/11/11 2/2/2 13/13/13
f 13/13/13 14/14/14 12/12/12
f 9/9/9 15/15/15 8/8/8
f 15/15/15 16/16/16 8/8/8
f 16/16/16 5/5/5 8/8/8
f 13/13/13 17/17/17 14/14/14
f 17/17/17 18/18/18 14/14/14
f 6/6/6 3/3/3 19/19/19
f 20/20/20 6/6/6 19/19/19
f 13/13/13 6/6/6 20/20/20
f 21/21/21 20/20/20 19/19/19
f 22/22/22 21/21/21 19/19/19
f 22/22/22 19/19/19 23/23/23
f 19/19/19 3/3/3 23/23/23
f 24/24/24 22/22/22 23/23/23
f 23/23/23 25/25/25 24/24/24
f 25/25/25 26/26/26 24/24/24
f 25/25/25 27/27/27 26/26/26
f 27/27/27 28/28/28 26/26/26
f 21/21/21 29/29/29 20/20/20
f 29/29/29 30/30/30 20/20/20
f 27/27/27 16/16/16 31/31/31
f 31/31/31 28/28/28 27/27/27
f 16/16/16 32/32/32 31/31/31
f 3/3/3 4/4/4 23/23/23
f 23/23/23 4/4/4 25/25/25
f 4/4/4 5/5/5 25/25/25
f 16/16/16 27/27/27 5/5/5
f 27/27/27 25/25/25 5/5/5
f 30/30/30 13/13/13 20/20/20
f 30/30/30 17/17/17 13/13/13
f 17/17/17 30/30/30 33/33/33
f 30/30/30 34/34/34 33/33/33
f 34/34/34 30/30/30 29/29/29
f 33/33/33 18/18/18 17/17/17
f 32/32/32 16/16/16 15/15/15
f 37/37/37 36/36/36 35/35/35
f 38/38/38 37/37/37 35/35/35
f 38/38/38 39/39/39 37/37/37
f 40/40/40 37/37/37 39/39/39
f 36/36/36 37/37/37 40/40/40
f 36/36/36 40/40/40 41/41/41
f 42/42/42 36/36/36 41/41/41
f 36/36/36 42/42/42 35/35/35
f 43/43/43 40/40/40 39/39/39
f 41/41/41 40/40/40 43/43/43
f 44/44/44 41/41/41 43/43/43
f 45/45/45 41/41/41 44/44/44
f 45/45/45 42/42/42 41/41/41
f 46/46/46 45/45/45 44/44/44
f 42/42/42 45/45/45 47/47/47
f 46/46/46 47/47/47 45/45/45
f 48/48/48 42/42/42 47/47/47
f 42/42/42 48/48/48 35/35/35
f 44/44/44 43/43/43 49/49/49
f 50/50/50 44/44/44 49/49/49
f 50/50/50 49/49/49 51/51/51
f 49/49/49 52/52/52 51/51/51
f 48/48/48 53/53/53 35/35/35
f 53/53/53 54/54/54 35/35/35
f 53/53/53 55/55/55 54/54/54
f 55/55/55 56/56/56 54/54/54
