g m_dlc07_1_3_water
v 3.055419 0 -6.320001
v 4.241807 0 -6.320001
v 3.055419 0 -2.419999
v 4.241807 0 -2.419999
v -2.9312 0 -6.188001
v -1.644581 0 -6.188001
v -2.9312 0 -2.287999
v -1.644581 0 -2.287999
v -1.644581 1.907349E-06 -16.69001
v 3.055419 1.907349E-06 -16.69001
v -1.644581 -1.907349E-06 22.13768
v 3.055419 -1.907349E-06 22.13768
v -2.9312 0 -13.61
v -1.644581 0 -13.61
v -2.9312 0 -9.709999
v -1.644581 0 -9.709999
v 3.055419 9.536743E-07 1.089998
v 4.241807 9.536743E-07 1.089998
v 3.055419 -9.536743E-07 19.33067
v 4.241807 -9.536743E-07 19.33067
v -4.255419 0 -14.6
v -2.9312 0 -14.6
v -4.255419 0 -10.7
v -2.9312 0 -10.7
v -2.9312 9.536743E-07 1.089998
v -1.644581 9.536743E-07 1.089998
v -2.9312 -9.536743E-07 19.33067
v -1.644581 -9.536743E-07 19.33067
v 3.055419 0 -13.39
v 4.255419 0 -13.39
v 3.055419 0 -9.490001
v 4.255419 0 -9.490001
vt 4.367188 13.82813
vt 5.871094 13.82813
vt 4.367188 8.078125
vt 5.871094 8.078125
vt -3.210938 13.63281
vt -1.582031 13.63281
vt -3.210938 7.886719
vt -1.582031 7.886719
vt -1.582031 29.10938
vt 4.367188 29.10938
vt -1.582031 -28.10938
vt 4.367188 -28.10938
vt -3.210938 24.57813
vt -1.582031 24.57813
vt -3.210938 18.82813
vt -1.582031 18.82813
vt 4.367188 2.908203
vt 5.871094 2.908203
vt 4.367188 -23.96875
vt 5.871094 -23.96875
vt -4.886719 26.03125
vt -3.210938 26.03125
vt -4.886719 20.28125
vt -3.210938 20.28125
vt -3.210938 2.908203
vt -1.582031 2.908203
vt -3.210938 -23.96875
vt -1.582031 -23.96875
vt 4.367188 24.25
vt 5.886719 24.25
vt 4.367188 18.5
vt 5.886719 18.5
vn 0 1 1.192093E-07
vn 0 1 1.192093E-07
vn 0 1 1.192093E-07
vn 0 1 1.192093E-07
vn 0 1 1.192093E-07
vn 0 1 1.192093E-07
vn 0 1 1.192093E-07
vn 0 1 1.192093E-07
vn 0 1 1.192093E-07
vn 0 1 1.192093E-07
vn 0 1 1.192093E-07
vn 0 1 1.192093E-07
vn 0 1 1.192093E-07
vn 0 1 1.192093E-07
vn 0 1 1.192093E-07
vn 0 1 1.192093E-07
vn 0 1 1.192093E-07
vn 0 1 1.192093E-07
vn 0 1 1.192093E-07
vn 0 1 1.192093E-07
vn 0 1 1.192093E-07
vn 0 1 1.192093E-07
vn 0 1 1.192093E-07
vn 0 1 1.192093E-07
vn 0 1 1.192093E-07
vn 0 1 1.192093E-07
vn 0 1 1.192093E-07
vn 0 1 1.192093E-07
vn 0 1 1.192093E-07
vn 0 1 1.192093E-07
vn 0 1 1.192093E-07
vn 0 1 1.192093E-07
g m_dlc07_1_3_water_0
f 3/3/3 2/2/2 1/1/1
f 2/2/2 3/3/3 4/4/4
f 7/7/7 6/6/6 5/5/5
f 6/6/6 7/7/7 8/8/8
f 11/11/11 10/10/10 9/9/9
f 10/10/10 11/11/11 12/12/12
f 15/15/15 14/14/14 13/13/13
f 14/14/14 15/15/15 16/16/16
f 19/19/19 18/18/18 17/17/17
f 18/18/18 19/19/19 20/20/20
f 23/23/23 22/22/22 21/21/21
f 22/22/22 23/23/23 24/24/24
f 27/27/27 26/26/26 25/25/25
f 26/26/26 27/27/27 28/28/28
f 31/31/31 30/30/30 29/29/29
f 30/30/30 31/31/31 32/32/32
