g m_dlc07_stone_half_block_03_d
v -0.2862466 -3.484727E-16 -0.3211258
v 0.2810185 -3.484727E-16 -0.3211258
v 0.2810185 0.03273129 -0.3538571
v -0.2862466 0.03273129 -0.3538571
v 0.1161377 0.6100163 -0.3416608
v -0.0998085 0.5493595 -0.3535028
v 0.1045692 0.6426553 -0.3210461
v 0.1414865 0.653493 -0.3416618
v 0.1777251 0.8468446 -0.3491815
v 0.2810185 0.8450071 -0.3538571
v 0.2810185 0.8777385 -0.3211258
v 0.1819533 0.8733333 -0.3222864
v 0.1596046 0.8630754 -0.3095033
v 0.1543874 0.83595 -0.3356535
v 0.2810185 0.8777385 0.3211258
v 0.07853591 0.8777385 -0.0816748
v 0.1303662 0.6918308 -0.3215457
v 0.08456024 0.5962277 -0.1970522
v 0.09599304 0.5995058 -0.2094279
v 0.08620834 0.6183568 -0.188219
v 0.09748581 0.6289405 -0.1996838
v 0.04038651 0.8603585 -0.09477142
v 0.06983719 0.8603843 -0.1095084
v 0.05168701 0.8777385 -0.06645424
v -0.2862466 0.8777385 0.3211258
v 0.2810185 0.8450071 0.3538572
v -0.2862466 0.8450071 0.3538572
v -0.1192809 0.8777385 -0.07483162
v -0.1115105 0.5995638 -0.1973383
v -0.1108911 0.6237166 -0.1888753
v -0.1246574 0.6387271 -0.2008613
v -0.1257524 0.6104404 -0.2092612
v -0.08976715 0.5850196 -0.3324908
v -0.1054736 0.6222382 -0.3330153
v -0.1295715 0.860802 -0.1183917
v -0.1036818 0.8607998 -0.1003278
v -0.1435506 0.8777385 -0.09344207
v -0.1588432 0.8732707 -0.3226787
v -0.2862466 0.8777385 -0.3211258
v -0.2862466 0.8450071 -0.3538571
v -0.1601428 0.8478795 -0.348208
v -0.1371857 0.8364666 -0.3337367
v -0.1389687 0.8630127 -0.3099411
v -0.114382 0.5815908 -0.3537541
v -0.2862466 0.03273129 -0.3538571
v -0.2862466 0.8450071 -0.3538571
v -0.318978 0.8450071 -0.3211258
v -0.318978 0.03273129 -0.3211258
v -0.2862466 -3.484727E-16 -0.3211258
v -0.2862466 0.8777385 -0.3211258
v -0.318978 0.8450071 0.3211258
v -0.2862466 0.8777385 0.3211258
v -0.2862466 0.8450071 0.3538572
v -0.3218887 0.4453989 0.3101738
v -0.3077273 0.1327393 0.1643361
v -0.3132797 0.4084434 0.3087956
v -0.3045557 0.1293137 0.1715604
v -0.2769916 0.4092698 0.3496183
v -0.2820666 0.4474147 0.3563625
v -0.3096966 0.04085325 0.1339143
v -0.3064056 0.0437335 0.1444926
v -0.2757922 0.01334169 0.1345912
v -0.2757382 0.01577743 0.1471255
v -0.2831567 0.3540614 0.3001335
v -0.2944073 0.1263924 0.1822046
v -0.2588971 0.3453045 0.3175143
v -0.2924377 0.05595659 0.1630546
v -0.268389 0.02647723 0.1601167
v 0.2810185 0.03273129 0.3538572
v 0.2810185 0.8450071 0.3538572
v 0.318978 0.8450071 0.3211258
v 0.318978 0.03273129 0.3211258
v 0.318978 0.8450071 -0.3211258
v 0.2810185 0.8777385 0.3211258
v 0.2810185 0.8777385 -0.3211258
v 0.318978 0.03273129 -0.3211258
v 0.2810185 -3.484727E-16 -0.3211258
v 0.2810185 -3.484727E-16 0.3211258
v 0.2810185 0.8450071 -0.3538571
v 0.2810185 0.03273129 -0.3538571
v -0.318978 0.03273129 0.3211258
v -0.2862466 0.03273129 0.3538572
v -0.2862466 -3.484727E-16 0.3211258
v -0.2862466 0.2882206 0.3538572
v -0.318978 0.2906666 0.3211258
v -0.3083542 0.3166665 0.3128597
v -0.2780426 0.3112942 0.3429554
v -0.3041992 0.1192983 0.1875291
v -0.3077273 0.1140556 0.193761
v -0.1670346 0.2594065 0.3423036
v -0.1615567 0.2656037 0.3385549
v -0.3050372 0.04493083 0.1692727
v -0.3096966 0.04085325 0.178175
v -0.2771747 0.01368612 0.1737619
v -0.2795785 0.01334169 0.185003
v -0.1741626 0.01134836 0.1973464
v -0.1878754 -2.268214E-16 0.2141513
v -0.1116934 0.01531986 0.3177658
v -0.1213446 0.008974615 0.3222071
v -0.1140283 0.03212461 0.3345962
v -0.1238393 0.02714121 0.3403738
v -0.2944073 0.1263924 0.1822046
v -0.268389 0.02647723 0.1601167
v -0.2924377 0.05595659 0.1630546
v -0.1624734 0.03981892 0.1841527
v -0.1073286 0.03107501 0.306738
v -0.1092024 0.04453965 0.3202026
v -0.1567508 0.2718456 0.3290678
v -0.2588971 0.3453045 0.3175143
v -0.2831567 0.3540614 0.3001335
v -0.2820666 0.4474147 0.3563625
v -0.1415828 0.2855065 0.3423036
v -0.1476932 0.2805443 0.3393175
v -0.2769916 0.4092698 0.3496183
v -0.08425384 0.03028621 0.3367276
v -0.07140213 0.02714121 0.3403738
v -0.08174713 0.01290897 0.3194533
v -0.06897003 0.008974615 0.3222071
v 0.2810185 -3.484727E-16 0.3211258
v 0.2810185 0.03273129 0.3538572
v -0.1073286 0.03107501 0.306738
v -0.1092024 0.04453965 0.3202026
v -0.1567508 0.2718456 0.3290678
v -0.2588971 0.3453045 0.3175143
v -0.2757382 0.01577743 0.1471255
v -0.1537706 0.00816021 0.1729165
v -0.1392224 -3.534807E-17 0.1541125
v -0.2757922 0.01334169 0.1345912
v -0.06897003 0.008974615 0.3222071
v -0.08174713 0.01290897 0.3194533
v 0.2810185 -3.484727E-16 0.3211258
v -0.268389 0.02647723 0.1601167
v -0.1624734 0.03981892 0.1841527
v -0.1073286 0.03107501 0.306738
vt 0.03405762 0.7001953
vt 0.01968384 0.7001953
vt 0.01972961 0.7016602
vt 0.0340271 0.7011719
vt 0.02377319 0.7099609
vt 0.0297699 0.7094727
vt 0.02412415 0.7104492
vt 0.02302551 0.7099609
vt 0.02127075 0.7124023
vt 0.01889038 0.7119141
vt 0.01875305 0.7133789
vt 0.02107239 0.7128906
vt 0.02168274 0.7128906
vt 0.02189636 0.7119141
vt 0.01971436 0.7290039
vt 0.02470398 0.7182617
vt 0.02340698 0.7109375
vt 0.02519226 0.7138672
vt 0.02476501 0.7138672
vt 0.02514648 0.7138672
vt 0.02476501 0.7138672
vt 0.02580261 0.7177734
vt 0.02494812 0.7172852
vt 0.02549744 0.71875
vt 0.03411865 0.7290039
vt 0.02006531 0.7299805
vt 0.03381348 0.7304688
vt 0.03030396 0.71875
vt 0.02934265 0.7138672
vt 0.02935791 0.7143555
vt 0.02975464 0.7143555
vt 0.02972412 0.7138672
vt 0.02946472 0.7099609
vt 0.02992249 0.7104492
vt 0.03063965 0.7172852
vt 0.02983093 0.7177734
vt 0.03103638 0.7182617
vt 0.03268433 0.7128906
vt 0.03555298 0.7128906
vt 0.03543091 0.7114258
vt 0.03259277 0.7119141
vt 0.03192139 0.7119141
vt 0.03219604 0.7128906
vt 0.0302124 0.7094727
vt 0.05355835 0.7392578
vt 0.05206299 0.7280273
vt 0.05090332 0.7285156
vt 0.05239868 0.7392578
vt 0.05264282 0.7407227
vt 0.05084229 0.7270508
vt 0.03457642 0.7304688
vt 0.03411865 0.7290039
vt 0.03381348 0.7304688
vt 0.03536987 0.7348633
vt 0.03945923 0.7387695
vt 0.03530884 0.7348633
vt 0.03927612 0.7387695
vt 0.03390503 0.7348633
vt 0.03393555 0.7348633
vt 0.04067993 0.7407227
vt 0.04040527 0.7407227
vt 0.04074097 0.7421875
vt 0.04037476 0.7416992
vt 0.03491211 0.7358398
vt 0.03890991 0.7387695
vt 0.03387451 0.7358398
vt 0.0397644 0.7407227
vt 0.03988647 0.7416992
vt 0.01889038 0.7412109
vt 0.02006531 0.7299805
vt 0.01907349 0.7299805
vt 0.01786804 0.7407227
vt 0.002756119 0.7275391
vt 0.01971436 0.7290039
vt 0.00283432 0.7265625
vt 0.001294136 0.7392578
vt 0.00106144 0.7402344
vt 0.01815796 0.7421875
vt 0.001524925 0.7275391
vt 1.096725E-05 0.7392578
vt 0.04367065 0.7197266
vt 0.04364014 0.7207031
vt 0.04449463 0.7202148
vt 0.03820801 0.7207031
vt 0.03833008 0.7197266
vt 0.03796387 0.7197266
vt 0.03787231 0.7207031
vt 0.04266357 0.7163086
vt 0.04278564 0.7163086
vt 0.03887939 0.7241211
vt 0.03878784 0.7241211
vt 0.04516602 0.7167969
vt 0.04507446 0.7167969
vt 0.04626465 0.7172852
vt 0.04605103 0.7177734
vt 0.04803467 0.7202148
vt 0.04742432 0.7202148
vt 0.04595947 0.7236328
vt 0.04580688 0.7236328
vt 0.04528809 0.7241211
vt 0.04522705 0.7241211
vt 0.04244995 0.7158203
vt 0.04666138 0.7172852
vt 0.0451355 0.7163086
vt 0.04888916 0.7202148
vt 0.04629517 0.7241211
vt 0.0451355 0.7246094
vt 0.03869629 0.7246094
vt 0.03738403 0.7211914
vt 0.03753662 0.7192383
vt 0.03393555 0.7348633
vt 0.03041077 0.7358398
vt 0.03059387 0.7363281
vt 0.03390503 0.7348633
vt 0.02804565 0.7421875
vt 0.02770996 0.7421875
vt 0.02799988 0.7426758
vt 0.02758789 0.7426758
vt 0.01815796 0.7421875
vt 0.01889038 0.7412109
vt 0.02891541 0.7426758
vt 0.02886963 0.7416992
vt 0.03089905 0.7363281
vt 0.03387451 0.7358398
vt 0.03372192 0.6879883
vt 0.03051758 0.6870117
vt 0.03013611 0.6875
vt 0.03372192 0.6884766
vt 0.02796936 0.6835938
vt 0.02830505 0.6835938
vt 0.01898193 0.684082
vt 0.03359985 0.6875
vt 0.03109741 0.6865234
vt 0.02915955 0.6835938
vn -0.01539972 -0.999782 -0.01409975
vn -0.01539972 -0.999782 -0.01409975
vn 0.008000302 0.007800294 -0.9999377
vn 0.008000302 0.007800294 -0.9999377
vn 0.008000302 0.007800294 -0.9999377
vn 0.008000302 0.007800294 -0.9999377
vn -0.08890435 0.9947488 -0.05070249
vn 0.008000302 0.007800294 -0.9999377
vn 0.008000302 0.007800294 -0.9999377
vn 0.008000302 0.007800294 -0.9999377
vn 0.008399585 0.9999506 -0.005299738
vn 0.008399585 0.9999506 -0.005299738
vn -0.9084629 0.09729602 -0.4064834
vn -0.9084629 0.09729602 -0.4064834
vn 0.008399585 0.9999506 -0.005299738
vn 0.008399585 0.9999506 -0.005299738
vn -0.9084629 0.09729602 -0.4064834
vn -0.08890435 0.9947488 -0.05070249
vn -0.9084629 0.09729602 -0.4064834
vn 0.01629988 0.5696958 -0.821694
vn -0.9084629 0.09729602 -0.4064834
vn 0.01629988 0.5696958 -0.821694
vn -0.9084629 0.09729602 -0.4064834
vn 0.008399585 0.9999506 -0.005299738
vn 0.008399585 0.9999506 -0.005299738
vn 0.08910137 0.003800058 0.9960153
vn 0.08910137 0.003800058 0.9960153
vn 0.008399585 0.9999506 -0.005299738
vn -0.08890435 0.9947488 -0.05070249
vn 0.01629988 0.5696958 -0.821694
vn 0.9647174 0.2364043 0.1159021
vn 0.9647174 0.2364043 0.1159021
vn -0.08890435 0.9947488 -0.05070249
vn 0.9647174 0.2364043 0.1159021
vn 0.9647174 0.2364043 0.1159021
vn 0.01629988 0.5696958 -0.821694
vn 0.008399585 0.9999506 -0.005299738
vn 0.008399585 0.9999506 -0.005299738
vn 0.008399585 0.9999506 -0.005299738
vn 0.008000302 0.007800294 -0.9999377
vn 0.008000302 0.007800294 -0.9999377
vn 0.9647174 0.2364043 0.1159021
vn 0.9647174 0.2364043 0.1159021
vn 0.008000302 0.007800294 -0.9999377
vn 0.008000302 0.007800294 -0.9999377
vn 0.008000302 0.007800294 -0.9999377
vn -0.9965872 0.009499878 -0.08199894
vn -0.9965872 0.009499878 -0.08199894
vn -0.01539972 -0.999782 -0.01409975
vn 0.008399585 0.9999506 -0.005299738
vn -0.9965872 0.009499878 -0.08199894
vn 0.008399585 0.9999506 -0.005299738
vn 0.08910137 0.003800058 0.9960153
vn -0.9965872 0.009499878 -0.08199894
vn -0.9965872 0.009499878 -0.08199894
vn -0.7950662 -0.2891467 0.5331639
vn -0.7422389 -0.28945 0.6044006
vn -0.4399917 -0.3323768 0.834226
vn 0.08910137 0.003800058 0.9960153
vn -0.9965872 0.009499878 -0.08199894
vn -0.7808076 -0.341334 0.5232884
vn -0.01539972 -0.999782 -0.01409975
vn -0.2649313 -0.7819072 0.5642982
vn -0.5848846 -0.3966652 0.7075074
vn -0.590202 -0.3438822 0.7303469
vn -0.4905745 -0.4904553 0.7202709
vn -0.6720478 -0.2865612 0.6828136
vn -0.245353 -0.4984175 0.8314939
vn 0.08910137 0.003800058 0.9960153
vn 0.08910137 0.003800058 0.9960153
vn 0.997563 0.04336008 0.05466283
vn 0.997563 -0.04336008 0.05466284
vn 0.997563 0.04336008 -0.05466284
vn 0.008399585 0.9999506 -0.005299738
vn 0.008399585 0.9999506 -0.005299738
vn 0.997563 -0.04336009 -0.05466284
vn -0.01539972 -0.999782 -0.01409975
vn -0.01539972 -0.999782 -0.01409975
vn 0.008000302 0.007800294 -0.9999377
vn 0.008000302 0.007800294 -0.9999377
vn -0.9965872 0.009499878 -0.08199894
vn 0.08910137 0.003800058 0.9960153
vn -0.01539972 -0.999782 -0.01409975
vn 0.08910137 0.003800058 0.9960153
vn -0.9965872 0.009499878 -0.08199894
vn -0.8347479 0.4327636 -0.340458
vn -0.02249447 0.5388644 0.8420922
vn -0.7950221 0.2790582 -0.5385782
vn -0.9965872 0.009499878 -0.08199894
vn 0.08910137 0.003800058 0.9960153
vn 0.5378243 0.3456724 0.7689315
vn -0.6982396 -0.1451022 -0.7010042
vn -0.9965872 0.009499878 -0.08199894
vn -0.002177846 -0.7479604 -0.6637397
vn -0.01539972 -0.999782 -0.01409975
vn 0.4846279 -0.707797 -0.5139643
vn -0.01539972 -0.999782 -0.01409975
vn 0.7055963 -0.668786 -0.2342204
vn -0.01539972 -0.999782 -0.01409975
vn 0.7088806 0.06756334 0.7020851
vn 0.08910137 0.003800058 0.9960153
vn -0.7254064 0.3327662 -0.6025381
vn 0.09184882 -0.5743732 -0.8134243
vn -0.5296572 0.003700245 -0.8482037
vn 0.5697423 -0.5762378 -0.5859553
vn 0.8161784 -0.4694098 -0.3369082
vn 0.8777949 0.1413464 0.4577088
vn 0.5413347 0.421611 0.727462
vn 0.01651682 0.6013652 0.7988035
vn -0.8052027 0.5480315 -0.2265172
vn 0.08910137 0.003800058 0.9960153
vn 0.08910137 0.003800058 0.9960153
vn -0.4101903 -0.2759309 0.8692561
vn -0.4399917 -0.3323768 0.834226
vn -0.4975433 -0.2029887 0.8433542
vn 0.08910137 0.003800058 0.9960153
vn -0.5144013 -0.8026676 0.3018546
vn -0.01539972 -0.999782 -0.01409975
vn -0.01539972 -0.999782 -0.01409975
vn 0.08910137 0.003800058 0.9960153
vn -0.7618704 -0.5293536 0.3732804
vn -0.635738 -0.2042162 0.7444011
vn -0.548551 -0.321041 0.7720262
vn -0.4905745 -0.4904553 0.7202709
vn -0.2649313 -0.7819072 0.5642982
vn -0.414825 -0.8093492 0.4157811
vn -0.01539972 -0.999782 -0.01409975
vn -0.01539972 -0.999782 -0.01409975
vn -0.01539972 -0.999782 -0.01409975
vn -0.5144013 -0.8026676 0.3018546
vn -0.01539972 -0.999782 -0.01409975
vn -0.245353 -0.4984175 0.8314939
vn -0.5866092 -0.5519947 0.5926141
vn -0.7618704 -0.5293536 0.3732804
g m_dlc07_stone_half_block_03_d_0
f 3/3/3 2/2/2 1/1/1
f 4/4/4 3/3/3 1/1/1
f 5/5/5 3/3/3 4/4/4
f 6/6/6 5/5/5 4/4/4
f 5/5/5 6/6/6 7/7/7
f 5/5/5 7/7/7 8/8/8
f 5/5/5 8/8/8 3/3/3
f 8/8/8 9/9/9 3/3/3
f 9/9/9 10/10/10 3/3/3
f 11/11/11 10/10/10 9/9/9
f 12/12/12 11/11/11 9/9/9
f 12/12/12 9/9/9 13/13/13
f 9/9/9 14/14/14 13/13/13
f 9/9/9 8/8/8 14/14/14
f 15/15/15 11/11/11 12/12/12
f 16/16/16 15/15/15 12/12/12
f 16/16/16 12/12/12 13/13/13
f 7/7/7 17/17/17 8/8/8
f 8/8/8 17/17/17 14/14/14
f 17/17/17 7/7/7 18/18/18
f 19/19/19 17/17/17 18/18/18
f 13/13/13 14/14/14 19/19/19
f 19/19/19 14/14/14 17/17/17
f 19/19/19 18/18/18 20/20/20
f 21/21/21 19/19/19 20/20/20
f 21/21/21 13/13/13 19/19/19
f 20/20/20 22/22/22 21/21/21
f 22/22/22 23/23/23 21/21/21
f 23/23/23 16/16/16 13/13/13
f 23/23/23 13/13/13 21/21/21
f 23/23/23 22/22/22 24/24/24
f 16/16/16 23/23/23 24/24/24
f 16/16/16 24/24/24 15/15/15
f 15/15/15 24/24/24 25/25/25
f 26/26/26 15/15/15 25/25/25
f 27/27/27 26/26/26 25/25/25
f 24/24/24 28/28/28 25/25/25
f 20/20/20 18/18/18 29/29/29
f 30/30/30 20/20/20 29/29/29
f 31/31/31 30/30/30 29/29/29
f 32/32/32 31/31/31 29/29/29
f 29/29/29 33/33/33 32/32/32
f 33/33/33 34/34/34 32/32/32
f 31/31/31 35/35/35 30/30/30
f 35/35/35 36/36/36 30/30/30
f 36/36/36 28/28/28 24/24/24
f 22/22/22 36/36/36 24/24/24
f 36/36/36 35/35/35 37/37/37
f 28/28/28 36/36/36 37/37/37
f 28/28/28 37/37/37 25/25/25
f 37/37/37 38/38/38 25/25/25
f 38/38/38 39/39/39 25/25/25
f 39/39/39 38/38/38 40/40/40
f 38/38/38 41/41/41 40/40/40
f 42/42/42 41/41/41 38/38/38
f 42/42/42 34/34/34 41/41/41
f 34/34/34 42/42/42 32/32/32
f 31/31/31 32/32/32 42/42/42
f 43/43/43 42/42/42 38/38/38
f 43/43/43 38/38/38 37/37/37
f 35/35/35 43/43/43 37/37/37
f 43/43/43 31/31/31 42/42/42
f 31/31/31 43/43/43 35/35/35
f 41/41/41 44/44/44 40/40/40
f 34/34/34 44/44/44 41/41/41
f 44/44/44 4/4/4 40/40/40
f 34/34/34 33/33/33 6/6/6
f 44/44/44 34/34/34 6/6/6
f 44/44/44 6/6/6 4/4/4
f 6/6/6 33/33/33 7/7/7
f 33/33/33 29/29/29 7/7/7
f 29/29/29 18/18/18 7/7/7
f 20/20/20 30/30/30 36/36/36
f 22/22/22 20/20/20 36/36/36
f 47/47/47 46/46/46 45/45/45
f 48/48/48 47/47/47 45/45/45
f 48/48/48 45/45/45 49/49/49
f 47/47/47 50/50/50 46/46/46
f 50/50/50 47/47/47 51/51/51
f 52/52/52 50/50/50 51/51/51
f 51/51/51 53/53/53 52/52/52
f 54/54/54 51/51/51 47/47/47
f 53/53/53 51/51/51 54/54/54
f 55/55/55 54/54/54 47/47/47
f 55/55/55 47/47/47 48/48/48
f 54/54/54 55/55/55 56/56/56
f 55/55/55 57/57/57 56/56/56
f 56/56/56 58/58/58 54/54/54
f 58/58/58 59/59/59 54/54/54
f 59/59/59 53/53/53 54/54/54
f 55/55/55 60/60/60 57/57/57
f 60/60/60 55/55/55 48/48/48
f 60/60/60 61/61/61 57/57/57
f 60/60/60 62/62/62 61/61/61
f 48/48/48 49/49/49 62/62/62
f 60/60/60 48/48/48 62/62/62
f 62/62/62 63/63/63 61/61/61
f 56/56/56 57/57/57 64/64/64
f 57/57/57 65/65/65 64/64/64
f 57/57/57 61/61/61 65/65/65
f 66/66/66 58/58/58 56/56/56
f 64/64/64 66/66/66 56/56/56
f 61/61/61 67/67/67 65/65/65
f 61/61/61 63/63/63 67/67/67
f 63/63/63 68/68/68 67/67/67
f 71/71/71 70/70/70 69/69/69
f 72/72/72 71/71/71 69/69/69
f 73/73/73 71/71/71 72/72/72
f 71/71/71 73/73/73 74/74/74
f 70/70/70 71/71/71 74/74/74
f 73/73/73 75/75/75 74/74/74
f 76/76/76 73/73/73 72/72/72
f 77/77/77 76/76/76 72/72/72
f 78/78/78 77/77/77 72/72/72
f 78/78/78 72/72/72 69/69/69
f 79/79/79 73/73/73 76/76/76
f 75/75/75 73/73/73 79/79/79
f 80/80/80 79/79/79 76/76/76
f 76/76/76 77/77/77 80/80/80
f 83/83/83 82/82/82 81/81/81
f 82/82/82 84/84/84 81/81/81
f 84/84/84 85/85/85 81/81/81
f 85/85/85 84/84/84 86/86/86
f 84/84/84 87/87/87 86/86/86
f 86/86/86 88/88/88 85/85/85
f 88/88/88 89/89/89 85/85/85
f 84/84/84 90/90/90 87/87/87
f 90/90/90 84/84/84 82/82/82
f 90/90/90 91/91/91 87/87/87
f 88/88/88 92/92/92 89/89/89
f 92/92/92 93/93/93 89/89/89
f 81/81/81 93/93/93 83/83/83
f 93/93/93 81/81/81 85/85/85
f 89/89/89 93/93/93 85/85/85
f 92/92/92 94/94/94 93/93/93
f 94/94/94 95/95/95 93/93/93
f 93/93/93 95/95/95 83/83/83
f 94/94/94 96/96/96 95/95/95
f 96/96/96 97/97/97 95/95/95
f 96/96/96 98/98/98 97/97/97
f 98/98/98 99/99/99 97/97/97
f 97/97/97 99/99/99 95/95/95
f 98/98/98 100/100/100 99/99/99
f 100/100/100 101/101/101 99/99/99
f 91/91/91 90/90/90 101/101/101
f 100/100/100 91/91/91 101/101/101
f 102/102/102 88/88/88 86/86/86
f 99/99/99 101/101/101 82/82/82
f 101/101/101 90/90/90 82/82/82
f 83/83/83 99/99/99 82/82/82
f 99/99/99 83/83/83 95/95/95
f 103/103/103 94/94/94 92/92/92
f 104/104/104 103/103/103 92/92/92
f 104/104/104 92/92/92 88/88/88
f 102/102/102 104/104/104 88/88/88
f 105/105/105 96/96/96 94/94/94
f 103/103/103 105/105/105 94/94/94
f 106/106/106 98/98/98 96/96/96
f 105/105/105 106/106/106 96/96/96
f 107/107/107 100/100/100 98/98/98
f 106/106/106 107/107/107 98/98/98
f 107/107/107 108/108/108 100/100/100
f 108/108/108 91/91/91 100/100/100
f 108/108/108 109/109/109 91/91/91
f 109/109/109 87/87/87 91/91/91
f 87/87/87 109/109/109 110/110/110
f 110/110/110 102/102/102 86/86/86
f 86/86/86 87/87/87 110/110/110
f 113/113/113 112/112/112 111/111/111
f 114/114/114 113/113/113 111/111/111
f 112/112/112 113/113/113 115/115/115
f 116/116/116 112/112/112 115/115/115
f 116/116/116 115/115/115 117/117/117
f 118/118/118 116/116/116 117/117/117
f 118/118/118 119/119/119 116/116/116
f 119/119/119 120/120/120 116/116/116
f 116/116/116 120/120/120 26/26/26
f 112/112/112 116/116/116 26/26/26
f 112/112/112 26/26/26 111/111/111
f 26/26/26 27/27/27 111/111/111
f 117/117/117 115/115/115 121/121/121
f 115/115/115 122/122/122 121/121/121
f 115/115/115 113/113/113 122/122/122
f 113/113/113 123/123/123 122/122/122
f 113/113/113 114/114/114 123/123/123
f 114/114/114 124/124/124 123/123/123
f 127/127/127 126/126/126 125/125/125
f 128/128/128 127/127/127 125/125/125
f 127/127/127 129/129/129 126/126/126
f 129/129/129 130/130/130 126/126/126
f 127/127/127 128/128/128 1/1/1
f 2/2/2 127/127/127 1/1/1
f 131/131/131 129/129/129 127/127/127
f 2/2/2 131/131/131 127/127/127
f 125/125/125 126/126/126 132/132/132
f 126/126/126 133/133/133 132/132/132
f 126/126/126 130/130/130 133/133/133
f 130/130/130 134/134/134 133/133/133
