g m_dlc07_stone_half_block_05_d
v -0.318978 0.03273129 0.3211258
v -0.318978 0.8450071 0.3211258
v -0.2862466 0.8450071 0.3538572
v -0.2862466 0.03273129 0.3538572
v -0.2862466 -3.484727E-16 0.3211258
v -0.2862466 0.8777385 0.3211258
v -0.2862466 0.8777385 -0.3211258
v -0.318978 0.8450071 -0.3211258
v -0.2862466 0.8450071 -0.3538571
v -0.3083148 0.02963627 -0.1527965
v -0.2867844 0.008105705 -0.1582298
v -0.2815414 0.01287573 -0.1706224
v -0.3022415 0.03198991 -0.1649068
v -0.3138635 0.4568613 -0.175833
v -0.3089029 0.4469665 -0.1866371
v -0.318978 0.5534393 -0.3211258
v -0.3116586 0.5207806 -0.3152911
v -0.2862466 0.5513981 -0.3538571
v -0.2808066 0.5169735 -0.3455833
v -0.2673212 0.02581353 -0.1824432
v -0.2834607 0.03926802 -0.1791821
v -0.2917416 0.422971 -0.2016891
v -0.2830673 0.4552121 -0.2924995
v -0.2615912 0.4507957 -0.3163598
v -0.2862466 0.03273129 0.3538572
v 0.2810187 0.03273129 0.3538572
v 0.2810187 -3.484727E-16 0.3211258
v -0.2862466 -3.484727E-16 0.3211258
v 0.1402948 0.3165902 0.3447542
v 0.06629699 0.5961137 0.3477428
v 0.07197265 0.6036877 0.3456461
v -0.2862466 0.8450071 0.3538572
v 0.08200439 0.6025113 0.3389657
v 0.1053482 0.8229171 0.327621
v 0.07788879 0.8377577 0.3446466
v 0.1079587 0.8485361 0.302002
v 0.0809201 0.867637 0.3150429
v 0.06126404 0.8443098 0.3504542
v 0.06476318 0.8740429 0.320721
v -0.2862466 0.8777385 0.3211258
v 0.07082824 0.8719137 0.2463876
v 0.08018524 0.8677145 0.2420868
v 0.09599304 0.8545092 0.2326535
v 0.06869934 0.8677691 0.1537736
v 0.06225983 0.8705004 0.1556937
v 0.05637604 0.8730209 0.01484962
v 0.07973541 0.8592173 0.1489809
v -0.2862466 0.8777385 -0.3211258
v 0.2810187 0.8777385 -0.3211258
v -0.2862466 0.8450071 -0.3538571
v 0.2810187 0.8450071 -0.3538571
v -0.1495813 0.4301458 -0.3509984
v 0.2810187 0.03273129 -0.3538571
v -0.08059052 0.02869944 -0.3471927
v -0.1598706 0.4169067 -0.3439697
v -0.2808066 0.5169735 -0.3455833
v -0.2862466 0.5513981 -0.3538571
v -0.09495788 0.02869944 -0.3403702
v -0.08201599 0.00403185 -0.3225252
v -0.09630554 0.01068846 -0.3201221
v -0.1562329 0.007512955 -0.1972203
v -0.1607416 0.00995854 -0.203
v -0.2867844 0.008105705 -0.1582298
v -0.2815414 0.01287573 -0.1706224
v -0.2615912 0.4507957 -0.3163598
v -0.1693454 0.3906209 -0.3238095
v 0.2810187 -3.484727E-16 -0.3211258
v 0.2810187 -3.484727E-16 0.3211258
v -0.2862466 -3.484727E-16 0.3211258
v 0.2810187 -3.484727E-16 0.08368026
v -0.1101239 0.02869944 -0.3222847
v -0.111217 0.02441338 -0.3064187
v -0.1652463 0.01566572 -0.2088037
v -0.2673212 0.02581353 -0.1824432
v 0.2810187 0.03273129 0.3538572
v 0.2810187 0.8450071 0.3538572
v 0.318978 0.8450071 0.3211258
v 0.318978 0.03273129 0.3211258
v 0.2810187 -3.484727E-16 0.3211258
v 0.2810187 0.8777385 0.3211258
v 0.318978 0.8450072 0.09766845
v 0.2810187 0.8777385 0.1046164
v 0.318978 0.8450071 -0.3211258
v 0.2810187 0.8777385 -0.3211258
v 0.318978 0.03273129 -0.3211258
v 0.2810187 0.8450071 -0.3538571
v 0.2810187 0.03273129 -0.3538571
v 0.318978 0.03273129 0.07882614
v 0.2810187 -3.484727E-16 -0.3211258
v 0.2810187 -3.484727E-16 0.08368026
v -0.2862466 -3.484727E-16 -0.3211258
v -0.2862466 0.03273129 -0.3538571
v -0.318978 0.03273129 -0.3211258
v -0.2867844 0.008105705 -0.2091981
v -0.3083148 0.02963627 -0.2031247
v -0.3023456 0.03194956 -0.1917625
v -0.2823383 0.01215081 -0.1974538
v -0.174216 0.007512955 -0.220403
v -0.1697583 0.009949399 -0.2146165
v -0.1415045 0.00403185 -0.3225252
v -0.1278473 0.009016186 -0.3185863
v -0.1395254 0.02869944 -0.3471927
v -0.1253705 0.02869944 -0.3404658
v -0.1953989 0.3498006 -0.3509984
v -0.1839267 0.3659156 -0.3441431
v -0.2862466 0.3653095 -0.3538571
v -0.280499 0.3919058 -0.3451158
v -0.318978 0.3691725 -0.3211258
v -0.3103244 0.3965792 -0.3142276
v -0.3138635 0.3861662 -0.2218239
v -0.3072324 0.4020295 -0.2107617
v -0.1693454 0.3906209 -0.3238095
v -0.2615912 0.4507957 -0.3163598
v -0.1101239 0.02869944 -0.3222847
v -0.111217 0.02441338 -0.3064187
v -0.2917416 0.422971 -0.2016891
v -0.2834607 0.03926802 -0.1791821
v -0.2673212 0.02581353 -0.1824432
v -0.1652463 0.01566572 -0.2088037
v -0.2830673 0.4552121 -0.2924995
v 0.09163788 0.868152 0.1508575
v 0.09929688 0.8711812 0.1510098
v 0.07973541 0.8592173 0.1489809
v 0.2810187 0.8777385 0.1046164
v 0.09599304 0.8545092 0.2326535
v 0.1142932 0.8683034 0.2320483
v 0.1079587 0.8485361 0.302002
v 0.1336273 0.8685072 0.3136369
v 0.1053482 0.8229171 0.327621
v 0.1305862 0.8365353 0.3457741
v 0.1510715 0.8754404 0.3197823
v 0.1479068 0.8433809 0.3518418
v 0.2810187 0.8450071 0.3538572
v 0.2810187 0.8777385 0.3211258
v 0.09832397 0.5986144 0.3483351
v 0.09190582 0.608977 0.3461036
v 0.08200439 0.6025113 0.3389657
v 0.1258295 0.8729515 0.2302309
vt 0.06079102 0.7280273
vt 0.07165527 0.7285156
vt 0.07171631 0.7275391
vt 0.06082153 0.7270508
vt 0.05963135 0.7275391
vt 0.07281494 0.7280273
vt 0.07269287 0.7451172
vt 0.0715332 0.7451172
vt 0.07171631 0.7460938
vt 0.05990601 0.7402344
vt 0.05911255 0.7402344
vt 0.05923462 0.7407227
vt 0.05990601 0.7402344
vt 0.0682373 0.7412109
vt 0.06793213 0.7416992
vt 0.06829834 0.7451172
vt 0.06799316 0.7451172
vt 0.06817627 0.7460938
vt 0.06774902 0.7460938
vt 0.05941772 0.7412109
vt 0.05996704 0.7412109
vt 0.06750488 0.7421875
vt 0.06726074 0.7446289
vt 0.06695557 0.7456055
vt 0.06082153 0.7270508
vt 0.06106567 0.7133789
vt 0.05990601 0.7128906
vt 0.05963135 0.7275391
vt 0.06652832 0.7167969
vt 0.06903076 0.71875
vt 0.06896973 0.7182617
vt 0.07171631 0.7275391
vt 0.06896973 0.7182617
vt 0.07202148 0.7177734
vt 0.07214355 0.7182617
vt 0.07330322 0.7177734
vt 0.07324219 0.7182617
vt 0.07220459 0.71875
vt 0.07318115 0.71875
vt 0.07281494 0.7280273
vt 0.07501221 0.71875
vt 0.07507324 0.7182617
vt 0.07531738 0.7177734
vt 0.07733154 0.71875
vt 0.07733154 0.7192383
vt 0.08093262 0.7192383
vt 0.07745361 0.7182617
vt 0.08935547 0.7280273
vt 0.08978271 0.7138672
vt 0.09051514 0.7285156
vt 0.09094238 0.7138672
vt 0.09429932 0.7250977
vt 0.1021118 0.7138672
vt 0.1019897 0.7226563
vt 0.09460449 0.7250977
vt 0.09417725 0.7285156
vt 0.09381104 0.7285156
vt 0.1020508 0.7231445
vt 0.1027832 0.7231445
vt 0.1027222 0.7231445
vt 0.1054688 0.7250977
vt 0.1053467 0.7255859
vt 0.105957 0.7285156
vt 0.1056519 0.7285156
vt 0.09490967 0.7280273
vt 0.09503174 0.7255859
vt 0.1033936 0.7138672
vt 0.1201172 0.7158203
vt 0.1181641 0.7304688
vt 0.1140747 0.7148438
vt 0.1022339 0.7236328
vt 0.1027832 0.7236328
vt 0.1051025 0.7255859
vt 0.1052246 0.7280273
vt 0.06106567 0.7133789
vt 0.07202148 0.7128906
vt 0.07196045 0.7119141
vt 0.06106567 0.7119141
vt 0.05990601 0.7128906
vt 0.07312012 0.7124023
vt 0.07202148 0.7060547
vt 0.07330322 0.7060547
vt 0.07128906 0.6953125
vt 0.0725708 0.6953125
vt 0.06018066 0.6958008
vt 0.0713501 0.6943359
vt 0.06002808 0.6948242
vt 0.06051636 0.7060547
vt 0.05892944 0.6958008
vt 0.0592041 0.706543
vt 0.09857178 0.7324219
vt 0.09924316 0.7333984
vt 0.0994873 0.7324219
vt 0.09832764 0.7299805
vt 0.09912109 0.7294922
vt 0.09912109 0.7290039
vt 0.09820557 0.7294922
vt 0.09539795 0.7319336
vt 0.09521484 0.7319336
vt 0.09643555 0.7348633
vt 0.09619141 0.7353516
vt 0.0970459 0.7358398
vt 0.09680176 0.7358398
vt 0.1047974 0.7373047
vt 0.1048584 0.737793
vt 0.1057129 0.7353516
vt 0.105957 0.7353516
vt 0.1060181 0.7338867
vt 0.1063232 0.7338867
vt 0.1068115 0.7314453
vt 0.1070557 0.730957
vt 0.1049194 0.7382813
vt 0.1066895 0.7353516
vt 0.09637451 0.7363281
vt 0.09564209 0.7358398
vt 0.1073608 0.730957
vt 0.09918213 0.7285156
vt 0.09790039 0.7290039
vt 0.0949707 0.7314453
vt 0.1071167 0.7338867
vt 0.07745361 0.7182617
vt 0.07745361 0.7177734
vt 0.07745361 0.7182617
vt 0.07885742 0.7133789
vt 0.07531738 0.7177734
vt 0.07537842 0.7172852
vt 0.07330322 0.7177734
vt 0.07330322 0.7167969
vt 0.07202148 0.7177734
vt 0.07214355 0.7167969
vt 0.07324219 0.7163086
vt 0.07220459 0.7163086
vt 0.07202148 0.7128906
vt 0.07312012 0.7124023
vt 0.0690918 0.7177734
vt 0.06903076 0.7177734
vt 0.06896973 0.7182617
vt 0.07543945 0.7167969
vn -0.9999214 -0.01090023 0.006200134
vn -0.9999214 -0.01090023 0.006200134
vn 0 0.03509944 0.9993838
vn 0 0.03509944 0.9993838
vn 0.01609956 -0.9982729 0.05649847
vn 0 0.9999006 0.01410001
vn 0 0.9999006 0.01410001
vn -0.9999214 -0.01090023 0.006200134
vn -0.00900039 -0.005700246 -0.9999433
vn -0.9999214 -0.01090023 0.006200134
vn 0.01609956 -0.9982729 0.05649847
vn -0.2838108 -0.7591076 -0.5858388
vn -0.7748125 -0.07265081 -0.6280027
vn -0.9999214 -0.01090023 0.006200134
vn -0.8867298 -0.194619 -0.4193254
vn -0.9999214 -0.01090023 0.006200134
vn -0.8625111 -0.368289 -0.3470415
vn -0.00900039 -0.005700246 -0.9999433
vn -0.4289872 -0.373276 -0.8225784
vn -0.2837449 -0.5498645 -0.7855812
vn -0.6374028 -0.06949722 -0.7673902
vn -0.7502111 -0.1895934 -0.6334332
vn -0.8129687 -0.4683903 -0.3459658
vn -0.4542351 -0.4742986 -0.7541295
vn 0 0.03509944 0.9993838
vn 0 0.03509944 0.9993838
vn 0.01609956 -0.9982729 0.05649847
vn 0.01609956 -0.9982729 0.05649847
vn 0 0.03509944 0.9993838
vn 0 0.03509944 0.9993838
vn 0.4497473 0.01206733 0.8930743
vn 0 0.03509944 0.9993838
vn 0.5401781 0.02796261 0.8410861
vn 0.5672733 0.09186965 0.8183893
vn 0.4880891 0.120939 0.8643743
vn 0.6470698 0.7272123 0.2290478
vn 0.5724576 0.7720228 0.2761762
vn 0 0.03509944 0.9993838
vn 0 0.9999006 0.01410001
vn 0 0.9999006 0.01410001
vn 0 0.9999006 0.01410001
vn 0.5354522 0.8438523 -0.03470373
vn 0.5999229 0.7985936 -0.04838197
vn 0.5376751 0.8417103 -0.04928773
vn 0 0.9999006 0.01410001
vn 0 0.9999006 0.01410001
vn 0.6047099 0.7946732 -0.05310639
vn 0 0.9999006 0.01410001
vn 0 0.9999006 0.01410001
vn -0.00900039 -0.005700246 -0.9999433
vn -0.00900039 -0.005700246 -0.9999433
vn -0.00900039 -0.005700246 -0.9999433
vn -0.00900039 -0.005700246 -0.9999433
vn -0.00900039 -0.005700246 -0.9999433
vn -0.4770971 -0.2422844 -0.8447939
vn -0.4289872 -0.373276 -0.8225784
vn -0.00900039 -0.005700246 -0.9999433
vn -0.6543937 -0.1457736 -0.7419696
vn 0.01609956 -0.9982729 0.05649847
vn -0.5052334 -0.7875261 -0.352905
vn 0.01609956 -0.9982729 0.05649847
vn -0.3774005 -0.8168702 -0.4362247
vn 0.01609956 -0.9982729 0.05649847
vn -0.2838108 -0.7591076 -0.5858388
vn -0.4542351 -0.4742986 -0.7541295
vn -0.6974891 -0.2332834 -0.6775602
vn 0.01609956 -0.9982729 0.05649847
vn 0.01609956 -0.9982729 0.05649847
vn 0.01609956 -0.9982729 0.05649847
vn 0.01609956 -0.9982729 0.05649847
vn -0.7885208 -0.1653965 -0.5923502
vn -0.7187736 -0.5535702 -0.420624
vn -0.5072642 -0.6009772 -0.6176644
vn -0.2837449 -0.5498645 -0.7855812
vn 0 0.03509944 0.9993838
vn 0 0.03509944 0.9993838
vn 0.9896278 0.0386943 0.1383458
vn 0.9895542 -0.04191525 0.1379333
vn 0.01609956 -0.9982729 0.05649847
vn 0 0.9999006 0.01410001
vn 0.9989302 0.04624407 0
vn 0 0.9999006 0.01410001
vn 0.995567 0.04376557 -0.08325226
vn 0 0.9999006 0.01410001
vn 0.9956377 -0.04182776 -0.08340364
vn -0.00900039 -0.005700246 -0.9999433
vn -0.00900039 -0.005700246 -0.9999433
vn 0.9989703 -0.04536918 0
vn 0.01609956 -0.9982729 0.05649847
vn 0.01609956 -0.9982729 0.05649847
vn 0.01609956 -0.9982729 0.05649847
vn 0.03950009 -0.005900014 -0.9992022
vn -0.9972573 -0.0138994 0.07269689
vn 0.01609956 -0.9982729 0.05649847
vn -0.9972573 -0.0138994 0.07269689
vn -0.7089368 -0.02062358 0.7049705
vn -0.0857553 -0.8276218 0.5546964
vn 0.01609956 -0.9982729 0.05649847
vn 0.3159385 -0.8615751 0.39733
vn 0.01609956 -0.9982729 0.05649847
vn 0.5124706 -0.8585022 0.01865244
vn 0.03950009 -0.005900014 -0.9992022
vn 0.6593137 0.05969582 -0.7494943
vn 0.03950009 -0.005900014 -0.9992022
vn 0.5416795 0.2252851 -0.8098333
vn 0.03950009 -0.005900014 -0.9992022
vn -0.1105892 0.4541079 -0.8840567
vn -0.9972573 -0.0138994 0.07269689
vn -0.8514107 0.4584041 -0.2548833
vn -0.9972573 -0.0138994 0.07269689
vn -0.7839695 0.1859373 0.5922998
vn 0.4789961 0.3086 -0.821784
vn -0.1429658 0.5098651 -0.8482915
vn 0.7590246 0.05948527 -0.6483388
vn 0.6057462 -0.7826822 0.1431089
vn -0.8370709 0.3053503 0.4539533
vn -0.5427778 -0.006226426 0.8398532
vn 0.0007196945 -0.7327928 0.6804516
vn 0.3587433 -0.8162441 0.4528233
vn -0.8357651 0.5081102 -0.2081365
vn -0.5270485 0.8360878 0.1522401
vn 0 0.9999006 0.01410001
vn -0.6026881 0.7789541 0.1731982
vn 0 0.9999006 0.01410001
vn -0.6132225 0.7733809 0.160748
vn -0.5309646 0.8363823 0.136166
vn -0.6514065 0.7005148 0.2914596
vn -0.546621 0.7808179 0.3025374
vn -0.6424021 0.197233 0.7405528
vn -0.5077718 0.2089895 0.8357579
vn 0 0.9999006 0.01410001
vn 0 0.03509944 0.9993838
vn 0 0.03509944 0.9993838
vn 0 0.9999006 0.01410001
vn 0 0.03509944 0.9993838
vn -0.5075438 0.06205383 0.8593885
vn -0.5899073 0.02064397 0.807207
vn 0 0.9999006 0.01410001
g m_dlc07_stone_half_block_05_d_0
f 3/3/3 2/2/2 1/1/1
f 4/4/4 3/3/3 1/1/1
f 5/5/5 4/4/4 1/1/1
f 2/2/2 3/3/3 6/6/6
f 6/6/6 7/7/7 2/2/2
f 7/7/7 8/8/8 2/2/2
f 8/8/8 7/7/7 9/9/9
f 1/1/1 10/10/10 5/5/5
f 10/10/10 1/1/1 2/2/2
f 10/10/10 11/11/11 5/5/5
f 11/11/11 10/10/10 12/12/12
f 10/10/10 13/13/13 12/12/12
f 10/10/10 14/14/14 13/13/13
f 14/14/14 10/10/10 2/2/2
f 14/14/14 15/15/15 13/13/13
f 15/15/15 14/14/14 16/16/16
f 2/2/2 8/8/8 16/16/16
f 14/14/14 2/2/2 16/16/16
f 17/17/17 15/15/15 16/16/16
f 17/17/17 16/16/16 18/18/18
f 8/8/8 9/9/9 18/18/18
f 16/16/16 8/8/8 18/18/18
f 19/19/19 17/17/17 18/18/18
f 12/12/12 13/13/13 20/20/20
f 13/13/13 21/21/21 20/20/20
f 13/13/13 15/15/15 21/21/21
f 15/15/15 22/22/22 21/21/21
f 15/15/15 17/17/17 22/22/22
f 17/17/17 23/23/23 22/22/22
f 23/23/23 17/17/17 19/19/19
f 24/24/24 23/23/23 19/19/19
f 27/27/27 26/26/26 25/25/25
f 28/28/28 27/27/27 25/25/25
f 26/26/26 29/29/29 25/25/25
f 29/29/29 30/30/30 25/25/25
f 30/30/30 29/29/29 31/31/31
f 30/30/30 32/32/32 25/25/25
f 31/31/31 29/29/29 33/33/33
f 31/31/31 33/33/33 34/34/34
f 35/35/35 31/31/31 34/34/34
f 30/30/30 31/31/31 35/35/35
f 35/35/35 34/34/34 36/36/36
f 37/37/37 35/35/35 36/36/36
f 38/38/38 35/35/35 37/37/37
f 38/38/38 30/30/30 35/35/35
f 30/30/30 38/38/38 32/32/32
f 39/39/39 38/38/38 37/37/37
f 38/38/38 39/39/39 40/40/40
f 32/32/32 38/38/38 40/40/40
f 39/39/39 41/41/41 40/40/40
f 42/42/42 41/41/41 39/39/39
f 37/37/37 42/42/42 39/39/39
f 43/43/43 42/42/42 37/37/37
f 36/36/36 43/43/43 37/37/37
f 42/42/42 44/44/44 41/41/41
f 44/44/44 45/45/45 41/41/41
f 41/41/41 45/45/45 40/40/40
f 44/44/44 46/46/46 45/45/45
f 47/47/47 46/46/46 44/44/44
f 47/47/47 44/44/44 42/42/42
f 43/43/43 47/47/47 42/42/42
f 45/45/45 48/48/48 40/40/40
f 45/45/45 46/46/46 48/48/48
f 48/48/48 46/46/46 49/49/49
f 48/48/48 49/49/49 50/50/50
f 49/49/49 51/51/51 50/50/50
f 51/51/51 52/52/52 50/50/50
f 51/51/51 53/53/53 52/52/52
f 53/53/53 54/54/54 52/52/52
f 52/52/52 54/54/54 55/55/55
f 52/52/52 55/55/55 56/56/56
f 57/57/57 52/52/52 56/56/56
f 52/52/52 57/57/57 50/50/50
f 54/54/54 58/58/58 55/55/55
f 54/54/54 59/59/59 58/58/58
f 54/54/54 53/53/53 59/59/59
f 59/59/59 60/60/60 58/58/58
f 59/59/59 61/61/61 60/60/60
f 61/61/61 62/62/62 60/60/60
f 61/61/61 63/63/63 62/62/62
f 63/63/63 64/64/64 62/62/62
f 56/56/56 55/55/55 65/65/65
f 55/55/55 66/66/66 65/65/65
f 55/55/55 58/58/58 66/66/66
f 53/53/53 67/67/67 59/59/59
f 61/61/61 68/68/68 63/63/63
f 61/61/61 59/59/59 68/68/68
f 68/68/68 69/69/69 63/63/63
f 59/59/59 67/67/67 70/70/70
f 59/59/59 70/70/70 68/68/68
f 58/58/58 71/71/71 66/66/66
f 58/58/58 60/60/60 71/71/71
f 60/60/60 72/72/72 71/71/71
f 60/60/60 62/62/62 72/72/72
f 62/62/62 73/73/73 72/72/72
f 62/62/62 64/64/64 73/73/73
f 64/64/64 74/74/74 73/73/73
f 77/77/77 76/76/76 75/75/75
f 78/78/78 77/77/77 75/75/75
f 79/79/79 78/78/78 75/75/75
f 76/76/76 77/77/77 80/80/80
f 77/77/77 81/81/81 80/80/80
f 81/81/81 77/77/77 78/78/78
f 81/81/81 82/82/82 80/80/80
f 81/81/81 83/83/83 82/82/82
f 83/83/83 84/84/84 82/82/82
f 85/85/85 83/83/83 81/81/81
f 86/86/86 83/83/83 85/85/85
f 84/84/84 83/83/83 86/86/86
f 87/87/87 86/86/86 85/85/85
f 88/88/88 85/85/85 81/81/81
f 88/88/88 81/81/81 78/78/78
f 89/89/89 85/85/85 88/88/88
f 85/85/85 89/89/89 87/87/87
f 90/90/90 89/89/89 88/88/88
f 90/90/90 88/88/88 78/78/78
f 79/79/79 90/90/90 78/78/78
f 93/93/93 92/92/92 91/91/91
f 93/93/93 91/91/91 94/94/94
f 95/95/95 93/93/93 94/94/94
f 96/96/96 95/95/95 94/94/94
f 97/97/97 96/96/96 94/94/94
f 97/97/97 94/94/94 98/98/98
f 98/98/98 94/94/94 91/91/91
f 99/99/99 97/97/97 98/98/98
f 99/99/99 98/98/98 100/100/100
f 100/100/100 98/98/98 91/91/91
f 101/101/101 99/99/99 100/100/100
f 101/101/101 100/100/100 102/102/102
f 102/102/102 100/100/100 91/91/91
f 92/92/92 102/102/102 91/91/91
f 103/103/103 101/101/101 102/102/102
f 103/103/103 102/102/102 104/104/104
f 105/105/105 103/103/103 104/104/104
f 105/105/105 104/104/104 106/106/106
f 102/102/102 92/92/92 106/106/106
f 104/104/104 102/102/102 106/106/106
f 107/107/107 105/105/105 106/106/106
f 106/106/106 108/108/108 107/107/107
f 108/108/108 109/109/109 107/107/107
f 108/108/108 110/110/110 109/109/109
f 110/110/110 111/111/111 109/109/109
f 111/111/111 110/110/110 95/95/95
f 96/96/96 111/111/111 95/95/95
f 112/112/112 105/105/105 107/107/107
f 113/113/113 112/112/112 107/107/107
f 107/107/107 109/109/109 113/113/113
f 108/108/108 106/106/106 92/92/92
f 93/93/93 108/108/108 92/92/92
f 110/110/110 108/108/108 93/93/93
f 95/95/95 110/110/110 93/93/93
f 114/114/114 103/103/103 105/105/105
f 112/112/112 114/114/114 105/105/105
f 114/114/114 115/115/115 103/103/103
f 116/116/116 111/111/111 96/96/96
f 117/117/117 116/116/116 96/96/96
f 117/117/117 96/96/96 97/97/97
f 118/118/118 117/117/117 97/97/97
f 118/118/118 97/97/97 99/99/99
f 119/119/119 118/118/118 99/99/99
f 119/119/119 99/99/99 101/101/101
f 115/115/115 119/119/119 101/101/101
f 115/115/115 101/101/101 103/103/103
f 116/116/116 120/120/120 111/111/111
f 120/120/120 109/109/109 111/111/111
f 109/109/109 120/120/120 113/113/113
f 122/122/122 46/46/46 121/121/121
f 121/121/121 46/46/46 123/123/123
f 46/46/46 122/122/122 49/49/49
f 122/122/122 124/124/124 49/49/49
f 121/121/121 123/123/123 125/125/125
f 126/126/126 121/121/121 125/125/125
f 122/122/122 121/121/121 126/126/126
f 126/126/126 125/125/125 127/127/127
f 128/128/128 126/126/126 127/127/127
f 127/127/127 129/129/129 128/128/128
f 129/129/129 130/130/130 128/128/128
f 128/128/128 130/130/130 131/131/131
f 130/130/130 132/132/132 131/131/131
f 132/132/132 133/133/133 131/131/131
f 133/133/133 134/134/134 131/131/131
f 135/135/135 133/133/133 132/132/132
f 136/136/136 135/135/135 132/132/132
f 130/130/130 136/136/136 132/132/132
f 136/136/136 29/29/29 135/135/135
f 135/135/135 29/29/29 133/133/133
f 137/137/137 29/29/29 136/136/136
f 137/137/137 136/136/136 130/130/130
f 129/129/129 137/137/137 130/130/130
f 138/138/138 126/126/126 128/128/128
f 131/131/131 138/138/138 128/128/128
f 138/138/138 131/131/131 134/134/134
f 138/138/138 134/134/134 124/124/124
f 138/138/138 122/122/122 126/126/126
f 122/122/122 138/138/138 124/124/124
f 29/29/29 26/26/26 133/133/133
