g m_dlc07_stained_glass_glass_02
v -0.02298988 2.884399 -0.1229469
v -0.3373561 2.885195 -0.1229469
v -0.3952584 2.80174 -0.1229469
v -0.4597046 2.711698 -0.1229469
v -0.0436924 2.591529 -0.1229469
v -0.5107945 2.622984 -0.1229469
v -0.2542707 2.97521 -0.1229469
v -0.1627406 3.060183 -0.1229469
v -0.07282958 3.127708 -0.1229469
v 0.0002423117 3.145427 -0.1229469
v -0.1084449 2.514673 -0.1229469
v -0.5558985 2.477677 -0.1229469
v -0.168233 2.403147 -0.1229469
v -0.189859 2.279595 -0.1229469
v -0.5842506 2.316252 -0.1229469
v -0.2437126 2.207892 -0.1229469
v -0.2723215 2.120456 -0.1229469
v -0.5890111 2.118866 -0.1229469
v -0.2780479 2.050522 -0.1229469
v -0.2694641 1.944654 -0.1229469
v 0.170398 3.059495 -0.1229469
v 0.0587351 3.124498 -0.1229469
v 0.04344246 2.880044 -0.1229469
v 0.267299 2.967092 -0.1229469
v 0.3421471 2.881678 -0.1229469
v 0.4048626 2.798201 -0.1229469
v 0.4667279 2.708875 -0.1229469
v 0.02236432 2.594275 -0.1229469
v 0.513877 2.626715 -0.1229469
v 0.0956056 2.5273 -0.1229469
v 0.5449093 2.545445 -0.1229469
v 0.165912 2.438378 -0.1229469
v 0.5718293 2.411708 -0.1229469
v 0.2063656 2.327387 -0.1229469
v 0.5894669 2.307699 -0.1229469
v 0.2635935 2.238102 -0.1229469
v 0.5935111 2.19849 -0.1229469
v 0.2797244 2.146694 -0.1229469
v 0.2815197 1.839914 -0.1229469
v 0.6002026 1.770294 -0.1229469
v 0.5941343 2.115156 -0.1229469
v 0.3051217 1.954831 -0.1229469
v 0.2897532 1.744777 -0.1229469
v 0.2610354 1.663867 -0.1229469
v 0.2713334 2.073004 -0.1229469
v 0.2071235 1.547543 -0.1229469
v 0.1997855 1.612746 -0.1229469
v 0.214799 1.479341 -0.1229469
v 0.2052587 1.341285 -0.1229469
v 0.576178 0.9649333 -0.1229469
v 0.1614452 1.418751 -0.1229469
v 0.0944922 1.405589 -0.1229469
v -0.2522964 1.661388 -0.1229469
v -0.2980787 1.778077 -0.1229469
v -0.5979162 1.763272 -0.1229469
v -0.5911227 2.04301 -0.1229469
v -0.2980768 1.870261 -0.1229469
v -0.5742545 0.9778097 -0.1229469
v -0.2551585 1.600156 -0.1229469
v -0.2208231 1.552087 -0.1229469
v -0.2242568 1.47197 -0.1229469
v -0.5658505 0.8551092 -0.1229469
v -0.1206784 1.402155 -0.1229469
v -0.1847709 1.412456 -0.1229469
v -0.1140122 1.325614 -0.1229469
v -0.05221277 1.269836 -0.1229469
v 0.04598942 1.262635 -0.1229469
v 0.5655812 0.8551092 -0.1229469
v 0.1357233 1.288559 -0.1229469
v 0.09354617 2.413968 -0.1229469
v 0.05892847 2.46764 -0.1229469
v -0.05738441 2.448547 -0.1229469
v 0.04583486 2.398517 -0.1229469
v -0.004469105 2.518188 -0.1229469
v -0.006906867 2.340014 -0.1229469
v 0.1181751 2.338804 -0.1229469
v -0.09422681 2.352893 -0.1229469
v 0.150443 2.294622 -0.1229469
v -0.09666137 2.279086 -0.1229469
v 0.09354297 2.160096 -0.1229469
v -0.1591055 2.178985 -0.1229469
v -0.1825078 2.104414 -0.1229469
v 0.1878923 2.057519 -0.1229469
v 0.2271029 1.984962 -0.1229469
v -0.1014631 2.042848 -0.1229469
v 0.1916594 2.214918 -0.1229469
v 0.1969332 2.143538 -0.1229469
v -0.194059 2.018809 -0.1229469
v 0.1308267 1.908431 -0.1229469
v 0.2111613 1.900947 -0.1229469
v -0.1924655 1.922536 -0.1229469
v 0.1938952 1.817746 -0.1229469
v -0.2048533 1.847845 -0.1229469
v -0.09899317 1.792622 -0.1229469
v -0.2040524 1.797997 -0.1229469
v -0.1890318 1.754509 -0.1229469
v 0.08655228 1.742985 -0.1229469
v 0.2155751 1.774625 -0.1229469
v 0.2019605 1.704718 -0.1229469
v 0.000350287 1.711001 -0.1229469
v 0.04644505 1.696257 -0.1229469
v 0.1308299 1.66118 -0.1229469
v 0.08090847 1.644378 -0.1229469
v 0.08686393 1.60987 -0.1229469
v 0.1228558 1.621073 -0.1229469
v -0.05375176 1.701897 -0.1229469
v -0.1626625 1.692823 -0.1229469
v -0.08858194 1.66547 -0.1229469
v -0.1578787 1.654803 -0.1229469
v -0.09851626 1.619012 -0.1229469
v -0.1330728 1.611438 -0.1229469
v 0.09275399 1.526794 -0.1229469
v 0.1357154 1.493824 -0.1229469
v 0.1364592 1.5421 -0.1229469
v 0.09118495 1.467498 -0.1229469
v 0.05852253 1.532834 -0.1229469
v 0.03699073 1.473367 -0.1229469
v 0.03386271 1.559867 -0.1229469
v -0.01014807 1.511612 -0.1229469
v -0.05935111 1.541052 -0.1229469
v -0.04069242 1.579052 -0.1229469
v 0.009291471 1.635382 -0.1229469
v -0.02883288 1.632779 -0.1229469
v -0.06866328 1.476429 -0.1229469
v -0.09908919 1.526732 -0.1229469
v -0.1239927 1.471588 -0.1229469
v -0.1524539 1.53029 -0.1229469
v -0.002751952 1.422441 -0.1229469
v -0.04597243 1.418348 -0.1229469
v -0.03683426 1.352578 -0.1229469
v 0.05370747 1.339073 -0.1229469
vt 0.6914063 0.9018555
vt 0.7094727 0.9018555
vt 0.7128906 0.8969727
vt 0.7167969 0.8916016
vt 0.6918945 0.8852539
vt 0.7192383 0.8862305
vt 0.7045898 0.9072266
vt 0.6992188 0.9121094
vt 0.6938477 0.9155273
vt 0.6904297 0.9165039
vt 0.6953125 0.8808594
vt 0.722168 0.8779297
vt 0.6992188 0.8745117
vt 0.7006836 0.8671875
vt 0.7236328 0.8681641
vt 0.7036133 0.862793
vt 0.7050781 0.8574219
vt 0.7231445 0.8564453
vt 0.7050781 0.8535156
vt 0.7041016 0.8461914
vt 0.6762695 0.9125977
vt 0.6826172 0.9150391
vt 0.6821289 0.9018555
vt 0.6699219 0.9082031
vt 0.6650391 0.9038086
vt 0.6606445 0.8994141
vt 0.6567383 0.8945313
vt 0.6821289 0.8857422
vt 0.6538086 0.8896484
vt 0.6777344 0.8823242
vt 0.6513672 0.8852539
vt 0.6728516 0.8774414
vt 0.6494141 0.8774414
vt 0.6699219 0.8710938
vt 0.6479492 0.8710938
vt 0.6665039 0.8662109
vt 0.6474609 0.8652344
vt 0.6650391 0.8613281
vt 0.6635742 0.8398438
vt 0.6450195 0.8354492
vt 0.6464844 0.855957
vt 0.6625977 0.8461914
vt 0.6635742 0.8339844
vt 0.6650391 0.8291016
vt 0.6645508 0.8530273
vt 0.6679688 0.8222656
vt 0.668457 0.8256836
vt 0.6679688 0.8178711
vt 0.668457 0.8100586
vt 0.6464844 0.7856445
vt 0.6713867 0.8134766
vt 0.6767578 0.8129883
vt 0.7036133 0.8276367
vt 0.7070313 0.8344727
vt 0.7246094 0.8320313
vt 0.7241211 0.8481445
vt 0.7070313 0.8393555
vt 0.7177734 0.7861328
vt 0.7036133 0.8242188
vt 0.7011719 0.8212891
vt 0.7011719 0.8168945
vt 0.715332 0.7783203
vt 0.6914063 0.8095703
vt 0.6948242 0.8105469
vt 0.6904297 0.8051758
vt 0.6870117 0.8022461
vt 0.6811523 0.8017578
vt 0.6455078 0.7768555
vt 0.6767578 0.8041992
vt 0.6796875 0.8740234
vt 0.6826172 0.8759766
vt 0.6884766 0.875
vt 0.6826172 0.8725586
vt 0.6855469 0.878418
vt 0.6860352 0.8686523
vt 0.6791992 0.8681641
vt 0.6904297 0.8710938
vt 0.6767578 0.8662109
vt 0.690918 0.8647461
vt 0.6791992 0.8588867
vt 0.6938477 0.859375
vt 0.6953125 0.8554688
vt 0.6738281 0.8530273
vt 0.671875 0.8491211
vt 0.6914063 0.8520508
vt 0.6743164 0.8618164
vt 0.6723633 0.8583984
vt 0.6962891 0.8515625
vt 0.6772461 0.8442383
vt 0.6723633 0.8452148
vt 0.6962891 0.8447266
vt 0.6738281 0.8393555
vt 0.6972656 0.840332
vt 0.690918 0.8374023
vt 0.6972656 0.8383789
vt 0.6967773 0.8364258
vt 0.6791992 0.8349609
vt 0.6723633 0.8374023
vt 0.6728516 0.8344727
vt 0.6845703 0.8330078
vt 0.6816406 0.8325195
vt 0.6772461 0.8305664
vt 0.6796875 0.8300781
vt 0.6787109 0.8286133
vt 0.6772461 0.8286133
vt 0.6879883 0.8325195
vt 0.6938477 0.8310547
vt 0.6899414 0.8305664
vt 0.6938477 0.8295898
vt 0.6914063 0.828125
vt 0.6928711 0.8276367
vt 0.6787109 0.8212891
vt 0.6767578 0.8193359
vt 0.6762695 0.8212891
vt 0.6787109 0.8183594
vt 0.6806641 0.8212891
vt 0.6811523 0.8183594
vt 0.6821289 0.8222656
vt 0.6845703 0.8193359
vt 0.6875 0.8208008
vt 0.6865234 0.8227539
vt 0.684082 0.8251953
vt 0.6855469 0.8251953
vt 0.6879883 0.8178711
vt 0.6899414 0.8203125
vt 0.690918 0.8173828
vt 0.6923828 0.8198242
vt 0.6831055 0.8125
vt 0.6850586 0.8125
vt 0.6845703 0.8100586
vt 0.6811523 0.809082
vn 0 0 -1
vn 0 2.040281E-07 -1
vn 0 -1.480117E-07 -1
vn 0 0 -1
vn 0 0 -1
vn 0 0 -1
vn 0 -1.56828E-07 -1
vn 1.166624E-07 0 -1
vn 1.387764E-07 1.08096E-07 -1
vn 0 0 -1
vn 0 0 -1
vn 0 1.378316E-07 -1
vn 0 0 -1
vn 0 1.2105E-07 -1
vn 0 0 -1
vn 0 -1.069623E-07 -1
vn 0 0 -1
vn 0 0 -1
vn 0 0 -1
vn 0 0 -1
vn 0 0 -1
vn -1.078726E-07 0 -1
vn 0 0 -1
vn 0 0 -1
vn 0 0 -1
vn 0 2.144769E-07 -1
vn 0 1.104517E-07 -1
vn 0 0 -1
vn 0 0 -1
vn 0 -1.107258E-07 -1
vn 0 -1.959576E-07 -1
vn 0 -1.078858E-07 -1
vn 0 0 -1
vn 0 2.500351E-07 -1
vn 0 1.231776E-07 -1
vn 0 -1.016097E-07 -1
vn 0 0 -1
vn 0 0 -1
vn 0 0 -1
vn 0 0 -1
vn 0 0 -1
vn 0 0 -1
vn 0 0 -1
vn 1.242124E-07 0 -1
vn 0 0 -1
vn -1.141659E-07 0 -1
vn -3.492674E-07 0 -1
vn 0 0 -1
vn 0 0 -1
vn 0 0 -1
vn 0 0 -1
vn -1.323799E-07 0 -1
vn 0 0 -1
vn 0 0 -1
vn 0 0 -1
vn 0 0 -1
vn 0 0 -1
vn 0 0 -1
vn 0 0 -1
vn 0 0 -1
vn 0 0 -1
vn 0 0 -1
vn 0 0 -1
vn 0 0 -1
vn 0 0 -1
vn 0 0 -1
vn 0 0 -1
vn 0 0 -1
vn 0 0 -1
vn 0 1.437008E-07 -1
vn 0 0 -1
vn 0 0 -1
vn 0 1.586201E-07 -1
vn 0 -4.69367E-07 -1
vn 0 1.728645E-07 -1
vn 0 1.934667E-07 -1
vn 0 1.886798E-07 -1
vn 0 0 -1
vn 0 0 -1
vn 0 0 -1
vn 0 -1.074528E-07 -1
vn 0 0 -1
vn 0 0 -1
vn 0 0 -1
vn 0 0 -1
vn 0 0 -1
vn 1.046165E-07 -1.283075E-07 -1
vn -1.994881E-07 1.010466E-07 -1
vn 0 0 -1
vn -3.609969E-07 1.336747E-07 -1
vn 0 0 -1
vn 0 0 -1
vn 0 0 -1
vn 0 0 -1
vn 0 0 -1
vn 0 0 -1
vn 0 0 -1
vn 0 0 -1
vn 0 1.432627E-07 -1
vn 0 0 -1
vn 0 0 -1
vn 0 0 -1
vn 0 0 -1
vn 1.200722E-07 0 -1
vn 1.200722E-07 0 -1
vn 0 0 -1
vn 0 0 -1
vn 0 0 -1
vn 0 0 -1
vn 1.58951E-07 0 -1
vn 1.58951E-07 0 -1
vn 2.815212E-07 1.358214E-07 -1
vn 2.428406E-07 1.171597E-07 -1
vn 0 0 -1
vn 0 1.270822E-07 -1
vn 0 0 -1
vn -1.342565E-07 0 -1
vn 0 0 -1
vn 0 0 -1
vn -1.467135E-07 0 -1
vn -1.826175E-07 0 -1
vn -1.993446E-07 0 -1
vn -1.993446E-07 0 -1
vn 0 0 -1
vn 0 0 -1
vn 1.403442E-07 0 -1
vn 0 0 -1
vn 0 0 -1
vn -1.655689E-07 0 -1
vn 0 0 -1
vn 0 0 -1
g m_dlc07_stained_glass_glass_02_0
f 3/3/3 2/2/2 1/1/1
f 1/1/1 4/4/4 3/3/3
f 1/1/1 5/5/5 4/4/4
f 5/5/5 6/6/6 4/4/4
f 2/2/2 7/7/7 1/1/1
f 7/7/7 8/8/8 1/1/1
f 8/8/8 9/9/9 1/1/1
f 1/1/1 9/9/9 10/10/10
f 5/5/5 11/11/11 6/6/6
f 11/11/11 12/12/12 6/6/6
f 11/11/11 13/13/13 12/12/12
f 13/13/13 14/14/14 12/12/12
f 14/14/14 15/15/15 12/12/12
f 14/14/14 16/16/16 15/15/15
f 16/16/16 17/17/17 15/15/15
f 17/17/17 18/18/18 15/15/15
f 17/17/17 19/19/19 18/18/18
f 19/19/19 20/20/20 18/18/18
f 23/23/23 22/22/22 21/21/21
f 24/24/24 23/23/23 21/21/21
f 23/23/23 24/24/24 25/25/25
f 26/26/26 23/23/23 25/25/25
f 26/26/26 27/27/27 23/23/23
f 23/23/23 27/27/27 28/28/28
f 27/27/27 29/29/29 28/28/28
f 28/28/28 29/29/29 30/30/30
f 29/29/29 31/31/31 30/30/30
f 30/30/30 31/31/31 32/32/32
f 31/31/31 33/33/33 32/32/32
f 34/34/34 32/32/32 33/33/33
f 35/35/35 34/34/34 33/33/33
f 36/36/36 34/34/34 35/35/35
f 36/36/36 35/35/35 37/37/37
f 38/38/38 36/36/36 37/37/37
f 41/41/41 40/40/40 39/39/39
f 42/42/42 41/41/41 39/39/39
f 43/43/43 39/39/39 40/40/40
f 44/44/44 43/43/43 40/40/40
f 42/42/42 45/45/45 41/41/41
f 46/46/46 44/44/44 40/40/40
f 46/46/46 47/47/47 44/44/44
f 48/48/48 46/46/46 40/40/40
f 49/49/49 48/48/48 40/40/40
f 49/49/49 40/40/40 50/50/50
f 49/49/49 51/51/51 48/48/48
f 49/49/49 52/52/52 51/51/51
f 55/55/55 54/54/54 53/53/53
f 54/54/54 55/55/55 56/56/56
f 57/57/57 54/54/54 56/56/56
f 55/55/55 53/53/53 58/58/58
f 53/53/53 59/59/59 58/58/58
f 59/59/59 60/60/60 58/58/58
f 60/60/60 61/61/61 58/58/58
f 64/64/64 63/63/63 62/62/62
f 63/63/63 65/65/65 62/62/62
f 65/65/65 66/66/66 62/62/62
f 66/66/66 67/67/67 62/62/62
f 67/67/67 68/68/68 62/62/62
f 67/67/67 69/69/69 68/68/68
f 72/72/72 71/71/71 70/70/70
f 73/73/73 72/72/72 70/70/70
f 74/74/74 71/71/71 72/72/72
f 72/72/72 73/73/73 75/75/75
f 73/73/73 76/76/76 75/75/75
f 77/77/77 72/72/72 75/75/75
f 76/76/76 78/78/78 75/75/75
f 78/78/78 79/79/79 75/75/75
f 79/79/79 78/78/78 80/80/80
f 81/81/81 79/79/79 80/80/80
f 81/81/81 80/80/80 82/82/82
f 80/80/80 83/83/83 82/82/82
f 82/82/82 83/83/83 84/84/84
f 85/85/85 82/82/82 84/84/84
f 78/78/78 86/86/86 80/80/80
f 86/86/86 87/87/87 80/80/80
f 85/85/85 88/88/88 82/82/82
f 85/85/85 84/84/84 89/89/89
f 84/84/84 90/90/90 89/89/89
f 91/91/91 85/85/85 89/89/89
f 91/91/91 89/89/89 92/92/92
f 93/93/93 91/91/91 92/92/92
f 93/93/93 92/92/92 94/94/94
f 93/93/93 94/94/94 95/95/95
f 96/96/96 95/95/95 94/94/94
f 94/94/94 92/92/92 97/97/97
f 92/92/92 98/98/98 97/97/97
f 98/98/98 99/99/99 97/97/97
f 100/100/100 94/94/94 97/97/97
f 101/101/101 100/100/100 97/97/97
f 101/101/101 97/97/97 102/102/102
f 103/103/103 101/101/101 102/102/102
f 104/104/104 103/103/103 102/102/102
f 105/105/105 104/104/104 102/102/102
f 100/100/100 106/106/106 94/94/94
f 106/106/106 107/107/107 94/94/94
f 106/106/106 108/108/108 107/107/107
f 108/108/108 109/109/109 107/107/107
f 108/108/108 110/110/110 109/109/109
f 110/110/110 111/111/111 109/109/109
f 114/114/114 113/113/113 112/112/112
f 112/112/112 113/113/113 115/115/115
f 116/116/116 112/112/112 115/115/115
f 116/116/116 115/115/115 117/117/117
f 116/116/116 117/117/117 118/118/118
f 117/117/117 119/119/119 118/118/118
f 119/119/119 120/120/120 118/118/118
f 120/120/120 121/121/121 118/118/118
f 118/118/118 121/121/121 122/122/122
f 121/121/121 123/123/123 122/122/122
f 120/120/120 119/119/119 124/124/124
f 125/125/125 120/120/120 124/124/124
f 125/125/125 124/124/124 126/126/126
f 125/125/125 126/126/126 127/127/127
f 130/130/130 129/129/129 128/128/128
f 131/131/131 130/130/130 128/128/128
