g m_dlc7_drawbridge_bolt_03
v 0.08408108 0.02580273 -0.05651002
v 0.08475092 0.06499725 -0.05814683
v 0.03284066 0.06692991 -0.09596916
v 0.0327566 0.02771409 -0.09390722
v -0.03128913 0.06761298 -0.09601854
v -0.03065098 0.02838926 -0.09395543
v -0.08314022 0.06678557 -0.05827452
v -0.08191877 0.02757094 -0.05663627
v 0.1037217 0.02338582 0.003952471
v 0.1046137 0.06255257 0.003004276
v 0.08417343 0.02138631 0.06438515
v 0.08484369 0.06053047 0.06412645
v 0.03290563 0.02056796 0.1017043
v 0.03299138 0.05970262 0.1018699
v -0.03050256 0.02124337 0.1016561
v -0.03113841 0.06038594 0.1018217
v -0.08182704 0.02315449 0.06425951
v -0.08304744 0.0623186 0.06399877
v -0.1014665 0.02557143 0.003796414
v -0.1029114 0.06476329 0.002847047
v -0.08191877 0.02757094 -0.05663627
v -0.08314022 0.06678557 -0.05827452
v -0.04613745 0.009694649 -0.03024851
v -0.05728929 0.008553635 0.004230537
v -0.07805514 0.1080511 0.001811762
v -0.06307841 0.1095832 -0.04448781
v 0.0004179597 0.1251701 0.001436849
v -0.06300814 0.1061997 0.04813354
v -0.02368695 0.1047352 0.07678423
v 0.02489069 0.1042179 0.07682057
v 0.06416722 0.1048448 0.04822966
v 0.07914394 0.1063769 0.001931316
v 0.06409755 0.1082283 -0.04438985
v 0.02477637 0.1096925 -0.07304115
v -0.02380066 0.1102097 -0.0730787
v -0.06307841 0.1095832 -0.04448781
v 0.04857161 0.008685586 -0.03017586
v 0.01928932 0.009775931 -0.05151226
v -0.01688628 0.0101615 -0.05153978
v -0.04613745 0.009694649 -0.03024851
v 0.0597764 0.007306887 0.004319568
v 0.04862455 0.006166131 0.038798
v 0.01937339 0.005699021 0.06008988
v -0.0168016 0.006084344 0.06006236
v -0.04608389 0.00717467 0.03872658
vt 0.6845703 0.2001953
vt 0.6860352 0.2009277
vt 0.6884766 0.1986084
vt 0.6870117 0.1975098
vt 0.6914063 0.1967773
vt 0.6899414 0.1953125
vt 0.6948242 0.1951904
vt 0.6933594 0.1931152
vt 0.6831055 0.2034912
vt 0.6845703 0.2037354
vt 0.6826172 0.2069092
vt 0.6845703 0.2067871
vt 0.6831055 0.2102051
vt 0.6850586 0.2097168
vt 0.6850586 0.2132568
vt 0.6860352 0.2124023
vt 0.6870117 0.2158203
vt 0.6884766 0.2147217
vt 0.6899414 0.2181396
vt 0.690918 0.2167969
vt 0.6923828 0.2208252
vt 0.6943359 0.2191162
vt 0.6889648 0.2219238
vt 0.6870117 0.2197266
vt 0.6923828 0.2143555
vt 0.6953125 0.2154541
vt 0.6928711 0.2067871
vt 0.6899414 0.2127686
vt 0.6884766 0.2109375
vt 0.6875 0.2088623
vt 0.6870117 0.206665
vt 0.6875 0.2044678
vt 0.6884766 0.2022705
vt 0.6899414 0.2005615
vt 0.6923828 0.1992188
vt 0.6953125 0.1989746
vt 0.6821289 0.1989746
vt 0.6845703 0.1956787
vt 0.6875 0.1932373
vt 0.6899414 0.1911621
vt 0.6806641 0.2027588
vt 0.6801758 0.2067871
vt 0.6806641 0.2108154
vt 0.6826172 0.2144775
vt 0.6845703 0.2174072
vn 0.6086468 -0.6587851 -0.4422118
vn 0.7561707 0.355487 -0.549395
vn 0.288829 0.3554825 -0.8889375
vn 0.2324812 -0.6587812 -0.7155136
vn -0.2888304 0.3554793 -0.8889384
vn -0.232479 -0.6587833 -0.7155125
vn -0.756175 0.355482 -0.5493922
vn -0.6086551 -0.6587807 -0.4422069
vn 0.7523353 -0.6587804 6.989034E-07
vn 0.9346799 0.3554906 -3.759978E-06
vn 0.6086519 -0.6587828 0.4422083
vn 0.7561714 0.3554944 0.5493892
vn 0.2324816 -0.6587827 0.7155122
vn 0.2888275 0.3554888 0.8889355
vn -0.2324798 -0.6587794 0.7155158
vn -0.2888227 0.3554896 0.8889368
vn -0.6086533 -0.6587807 0.4422096
vn -0.7561725 0.3554872 0.5493925
vn -0.7523377 -0.6587777 4.678315E-07
vn -0.9346824 0.3554838 1.566668E-07
vn -0.6086551 -0.6587807 -0.4422069
vn -0.756175 0.355482 -0.5493922
vn -0.1949568 -0.9705302 -0.1416442
vn -0.2409813 -0.9705297 1.774849E-06
vn -0.550239 0.8350071 5.869436E-07
vn -0.4451489 0.8350098 -0.323421
vn -4.95001E-07 1 -3.051448E-07
vn -0.4451496 0.8350092 0.3234214
vn -0.1700247 0.8350088 0.5233086
vn 0.1700325 0.8350092 0.5233055
vn 0.4451483 0.8350114 0.3234178
vn 0.5502359 0.8350093 3.377078E-06
vn 0.4451476 0.8350109 -0.3234199
vn 0.1700322 0.8350077 -0.523308
vn -0.1700243 0.8350068 -0.523312
vn -0.4451489 0.8350098 -0.323421
vn 0.1949562 -0.9705303 -0.1416442
vn 0.07446622 -0.9705297 -0.2291869
vn -0.07446332 -0.9705302 -0.2291864
vn -0.1949568 -0.9705302 -0.1416442
vn 0.2409761 -0.970531 -1.410996E-06
vn 0.194954 -0.9705311 0.1416416
vn 0.0744643 -0.9705305 0.2291849
vn -0.07446393 -0.9705302 0.2291861
vn -0.194956 -0.9705305 0.1416437
g m_dlc7_drawbridge_bolt_03_0
f 3/3/3 2/2/2 1/1/1
f 4/4/4 3/3/3 1/1/1
f 5/5/5 3/3/3 4/4/4
f 6/6/6 5/5/5 4/4/4
f 7/7/7 5/5/5 6/6/6
f 8/8/8 7/7/7 6/6/6
f 1/1/1 2/2/2 9/9/9
f 2/2/2 10/10/10 9/9/9
f 9/9/9 10/10/10 11/11/11
f 10/10/10 12/12/12 11/11/11
f 11/11/11 12/12/12 13/13/13
f 12/12/12 14/14/14 13/13/13
f 13/13/13 14/14/14 15/15/15
f 14/14/14 16/16/16 15/15/15
f 15/15/15 16/16/16 17/17/17
f 16/16/16 18/18/18 17/17/17
f 17/17/17 18/18/18 19/19/19
f 18/18/18 20/20/20 19/19/19
f 19/19/19 20/20/20 21/21/21
f 20/20/20 22/22/22 21/21/21
f 19/19/19 21/21/21 23/23/23
f 24/24/24 19/19/19 23/23/23
f 17/17/17 19/19/19 24/24/24
f 22/22/22 20/20/20 25/25/25
f 26/26/26 22/22/22 25/25/25
f 25/25/25 27/27/27 26/26/26
f 28/28/28 27/27/27 25/25/25
f 20/20/20 18/18/18 28/28/28
f 25/25/25 20/20/20 28/28/28
f 29/29/29 27/27/27 28/28/28
f 18/18/18 16/16/16 29/29/29
f 28/28/28 18/18/18 29/29/29
f 30/30/30 27/27/27 29/29/29
f 29/29/29 16/16/16 30/30/30
f 31/31/31 27/27/27 30/30/30
f 32/32/32 27/27/27 31/31/31
f 33/33/33 27/27/27 32/32/32
f 34/34/34 27/27/27 33/33/33
f 35/35/35 27/27/27 34/34/34
f 36/36/36 27/27/27 35/35/35
f 33/33/33 2/2/2 34/34/34
f 2/2/2 3/3/3 34/34/34
f 34/34/34 3/3/3 35/35/35
f 3/3/3 5/5/5 35/35/35
f 35/35/35 5/5/5 36/36/36
f 5/5/5 7/7/7 36/36/36
f 30/30/30 14/14/14 31/31/31
f 16/16/16 14/14/14 30/30/30
f 14/14/14 12/12/12 31/31/31
f 31/31/31 12/12/12 32/32/32
f 12/12/12 10/10/10 32/32/32
f 10/10/10 2/2/2 33/33/33
f 32/32/32 10/10/10 33/33/33
f 4/4/4 1/1/1 37/37/37
f 38/38/38 4/4/4 37/37/37
f 6/6/6 4/4/4 38/38/38
f 39/39/39 6/6/6 38/38/38
f 8/8/8 6/6/6 39/39/39
f 40/40/40 8/8/8 39/39/39
f 37/37/37 1/1/1 41/41/41
f 1/1/1 9/9/9 41/41/41
f 41/41/41 9/9/9 42/42/42
f 9/9/9 11/11/11 42/42/42
f 42/42/42 11/11/11 43/43/43
f 11/11/11 13/13/13 43/43/43
f 43/43/43 13/13/13 44/44/44
f 13/13/13 15/15/15 44/44/44
f 44/44/44 15/15/15 45/45/45
f 15/15/15 17/17/17 45/45/45
f 45/45/45 17/17/17 24/24/24
