g m_dlc7_furnace_gauge_needle_01
v -0.0876396 0.05799763 -0.04606811
v -0.01814345 0.02748219 0.0160669
v -0.03283186 -0.01364025 0.006159982
v -0.09673902 0.03252278 -0.05220488
v -0.09560529 0.05049122 -0.06837432
v -0.006366714 -0.01439495 -0.02995086
v -0.08034437 0.03205555 -0.07457396
v 0.008321702 0.0267284 -0.02004363
v -0.07124495 0.0575304 -0.0684384
v -0.01814345 0.02748219 0.0160669
v -0.0876396 0.05799763 -0.04606811
v -0.09560529 0.05049122 -0.06837432
v -0.07025984 0.134233 0.06912171
v -0.08757337 -0.02281353 -0.02083037
v -0.08823988 -0.0002836206 -0.03820281
v -0.07148939 0.1358501 0.03742982
v -0.04724867 0.1515264 0.05066468
v -0.007331985 0.03749104 -0.08519316
v -0.03535139 0.039464 -0.0806253
v -0.07566176 -0.005142019 -0.058609
v -0.06589888 -0.03118511 -0.05599425
v -0.04568342 0.01738758 -0.08265471
v -0.02513655 -0.0005509545 -0.08869079
v -0.05298872 0.1249681 0.08197328
v -0.07030226 -0.03207836 -0.007978506
v -0.02632795 0.1116234 0.07103455
v -0.04307844 -0.0245103 -0.00459838
v -0.02997755 0.1422618 0.06351624
v 0.009810043 0.01523731 -0.04702056
v 0.009939132 0.0282259 -0.07234069
v -0.04862776 -0.04045025 -0.0431433
v -0.03050032 -0.0293687 -0.02500457
v -0.007865433 -0.009815786 -0.07583922
v -0.0005219876 -0.006838796 -0.04905089
v -0.04724867 0.1515264 0.05066468
v -0.007331985 0.03749104 -0.08519316
v -0.04862776 -0.04045025 -0.0431433
v -0.007865433 -0.009815786 -0.07583922
v -0.02513655 -0.0005509545 -0.08869079
v -0.007865433 -0.009815786 -0.07583922
v -0.04862776 -0.04045025 -0.0431433
v -0.06589888 -0.03118511 -0.05599425
v -0.05298872 0.1249681 0.08197328
v -0.02997755 0.1422618 0.06351624
vt 0.2807868 0.7869848
vt 0.2815586 0.7929925
vt 0.2843204 0.7923733
vt 0.282351 0.7869635
vt 0.2819773 0.7857131
vt 0.2868018 0.7911812
vt 0.2836989 0.7860317
vt 0.2890614 0.7894368
vt 0.2850927 0.7853608
vt 0.2907677 0.7873087
vt 0.2859038 0.7839271
vt 0.2841835 0.7843547
vt 0.2886437 0.7575322
vt 0.2859815 0.7466747
vt 0.2846625 0.7478549
vt 0.2868778 0.7568327
vt 0.2865182 0.7587125
vt 0.2788509 0.7505704
vt 0.2805574 0.7501126
vt 0.2832636 0.7474462
vt 0.2831192 0.7457958
vt 0.2809705 0.7487219
vt 0.2796396 0.7476518
vt 0.2900054 0.7571936
vt 0.287359 0.7463362
vt 0.2912948 0.7557505
vt 0.2890785 0.7467886
vt 0.2925379 0.7572399
vt 0.2937957 0.7468811
vt 0.2955215 0.7465176
vt 0.2894577 0.7441927
vt 0.2901245 0.7457883
vt 0.2935414 0.7443326
vt 0.292794 0.7458301
vt 0.2938935 0.7576286
vt 0.2968788 0.746912
vt 0.282419 0.7445673
vt 0.279001 0.7463943
vt 0.2975831 0.7444716
vt 0.2962266 0.7440794
vt 0.2867471 0.7438712
vt 0.2853756 0.7442098
vt 0.2892476 0.7588135
vt 0.2872779 0.7599039
vn -0.3019668 0.7170146 0.6282564
vn -0.275081 0.7048556 0.6538417
vn -0.7354872 -0.5841023 0.3433411
vn -0.7594981 -0.5659183 0.3207792
vn -0.7433428 0.3880269 -0.5448638
vn 0.09406143 -0.6077449 -0.788542
vn 0.06530756 -0.5883778 -0.8059444
vn 0.5544617 0.6812204 -0.4780283
vn 0.5214787 0.6933175 -0.497364
vn -0.275081 0.7048556 0.6538417
vn -0.3019668 0.7170146 0.6282564
vn -0.7433428 0.3880269 -0.5448638
vn -0.8646755 -0.03286763 0.5012544
vn -0.8997959 -0.2714458 0.3415911
vn -0.9039471 0.250803 -0.3463777
vn -0.7350696 0.5386599 -0.4117258
vn 0.3050225 0.8461872 -0.4369536
vn 0.3481092 0.6663865 -0.6593549
vn -0.5075799 0.5486859 -0.664309
vn -0.7495696 0.2658333 -0.6061997
vn -0.4039172 -0.685841 -0.6053702
vn -0.6920158 0.3090867 -0.6523645
vn -0.01104243 -0.3905886 -0.9204991
vn -0.3498101 -0.3090652 0.8843707
vn -0.3567567 -0.5627573 0.7456735
vn 0.7098696 -0.2364693 0.6634512
vn 0.5038865 -0.5044221 0.7011824
vn 0.819888 0.5699868 -0.0538391
vn 0.9002578 -0.2065338 0.3832492
vn 0.8911522 0.3750775 -0.2552738
vn 0.1244213 -0.9692628 -0.2122475
vn 0.7093344 -0.516786 0.4793507
vn 0.5172933 -0.6740063 -0.5273737
vn 0.7668914 -0.4735298 0.4331825
vn 0.3050225 0.8461872 -0.4369536
vn 0.3481092 0.6663865 -0.6593549
vn 0.1244213 -0.9692628 -0.2122475
vn 0.5172933 -0.6740063 -0.5273737
vn -0.01104243 -0.3905886 -0.9204991
vn 0.5172933 -0.6740063 -0.5273737
vn 0.1244213 -0.9692628 -0.2122475
vn -0.4039172 -0.685841 -0.6053702
vn -0.3498101 -0.3090652 0.8843707
vn 0.819888 0.5699868 -0.0538391
g m_dlc7_furnace_gauge_needle_01_0
f 3/3/3 2/2/2 1/1/1
f 4/4/4 3/3/3 1/1/1
f 5/5/5 4/4/4 1/1/1
f 6/6/6 3/3/3 4/4/4
f 7/7/7 6/6/6 4/4/4
f 7/7/7 4/4/4 5/5/5
f 6/6/6 7/7/7 8/8/8
f 7/7/7 9/9/9 8/8/8
f 10/10/10 8/8/8 9/9/9
f 11/11/11 10/10/10 9/9/9
f 7/7/7 12/12/12 9/9/9
f 12/12/12 11/11/11 9/9/9
f 15/15/15 14/14/14 13/13/13
f 16/16/16 15/15/15 13/13/13
f 13/13/13 17/17/17 16/16/16
f 17/17/17 18/18/18 16/16/16
f 18/18/18 19/19/19 16/16/16
f 14/14/14 15/15/15 20/20/20
f 21/21/21 14/14/14 20/20/20
f 20/20/20 22/22/22 21/21/21
f 22/22/22 20/20/20 15/15/15
f 15/15/15 16/16/16 22/22/22
f 16/16/16 19/19/19 22/22/22
f 22/22/22 23/23/23 21/21/21
f 19/19/19 18/18/18 23/23/23
f 22/22/22 19/19/19 23/23/23
f 24/24/24 13/13/13 14/14/14
f 25/25/25 24/24/24 14/14/14
f 24/24/24 25/25/25 26/26/26
f 25/25/25 27/27/27 26/26/26
f 26/26/26 28/28/28 24/24/24
f 26/26/26 29/29/29 28/28/28
f 29/29/29 30/30/30 28/28/28
f 25/25/25 31/31/31 27/27/27
f 31/31/31 32/32/32 27/27/27
f 31/31/31 33/33/33 32/32/32
f 33/33/33 34/34/34 32/32/32
f 30/30/30 29/29/29 34/34/34
f 33/33/33 30/30/30 34/34/34
f 27/27/27 32/32/32 34/34/34
f 34/34/34 26/26/26 27/27/27
f 34/34/34 29/29/29 26/26/26
f 35/35/35 28/28/28 30/30/30
f 36/36/36 35/35/35 30/30/30
f 37/37/37 21/21/21 23/23/23
f 38/38/38 37/37/37 23/23/23
f 36/36/36 30/30/30 39/39/39
f 30/30/30 40/40/40 39/39/39
f 25/25/25 14/14/14 41/41/41
f 14/14/14 42/42/42 41/41/41
f 17/17/17 13/13/13 43/43/43
f 44/44/44 17/17/17 43/43/43
