g m_dlc07_portcullis_04
v 0.08187469 0.04451782 -0.05052878
v 0.09417847 0.6569656 -0.05946816
v 0.04359192 0.6569653 -0.09622151
v 0.03889221 0.04451782 -0.08175728
v -0.01893646 0.6569653 -0.0962215
v -0.01423675 0.04451782 -0.08175728
v -0.06952301 0.6569653 -0.05946815
v -0.05721924 0.04451782 -0.05052877
v -0.08884552 0.6569653 1.119541E-08
v -0.07363678 0.04451782 9.512488E-09
v -0.06952301 0.6569653 0.05946817
v -0.05721924 0.04451782 0.05052879
v -0.01893646 0.6569653 0.09622151
v -0.01423675 0.04451782 0.08175728
v 0.09829254 0.04451782 4.388593E-09
v 0.113501 0.6569653 5.165008E-09
v 0.08187469 0.04451782 0.05052878
v 0.09417847 0.6569653 0.05946816
v 0.03889221 0.04451782 0.08175728
v 0.04359192 0.6569653 0.0962215
v -0.01423675 0.04451782 0.08175728
v -0.01893646 0.6569653 0.09622151
v 0.1057318 1.401363 4.768371E-09
v 0.08789306 1.401363 -0.05490142
v 0.08789306 1.401363 0.05490142
v 0.0411911 1.401363 0.08883236
v -0.01653564 1.401363 0.08883238
v 0.0411911 1.401363 -0.08883238
v -0.01653564 1.401363 -0.08883236
v -0.06323761 1.401363 -0.05490141
v -0.08107605 1.401363 1.033568E-08
v -0.06323761 1.401363 0.05490143
v -0.01653564 1.401363 0.08883238
v 1.002932 0.04451782 -0.05052878
v 0.9995319 0.4943414 -0.04805826
v 0.9586511 0.4943411 -0.07775991
v 0.9599499 0.04451782 -0.08175728
v 0.9081198 0.4943411 -0.0777599
v 0.906821 0.04451782 -0.08175728
v 0.8672391 0.4943411 -0.04805826
v 0.8638385 0.04451782 -0.05052877
v 0.8516238 0.4943411 9.047391E-09
v 0.8474209 0.04451782 9.512488E-09
v 0.8672391 0.4943411 0.04805827
v 0.8638385 0.04451782 0.05052879
v 0.9081198 0.4943411 0.07775991
v 0.906821 0.04451782 0.08175728
v 1.01935 0.04451782 4.388593E-09
v 1.015147 0.4943411 4.17402E-09
v 1.002932 0.04451782 0.05052878
v 0.9995319 0.4943411 0.04805826
v 0.9599499 0.04451782 0.08175728
v 0.9586511 0.4943411 0.0777599
v 0.906821 0.04451782 0.08175728
v 0.9081198 0.4943411 0.07775991
v 1.02679 1.401363 4.768371E-09
v 1.008951 1.401363 -0.05490142
v 1.008951 1.401363 0.05490142
v 0.9622488 1.401363 0.08883236
v 0.9045221 1.401363 0.08883238
v 0.9622488 1.401363 -0.08883238
v 0.9045221 1.401363 -0.08883236
v 0.8578201 1.401363 -0.05490141
v 0.8399817 1.401363 1.033568E-08
v 0.8578201 1.401363 0.05490143
v 0.9045221 1.401363 0.08883238
v -0.805014 0.04451782 -0.05052878
v -0.8788813 0.7213345 -0.04805826
v -0.9197621 0.7213342 -0.07775991
v -0.8479962 0.04451782 -0.08175728
v -0.9702937 0.7213342 -0.0777599
v -0.9011255 0.04451782 -0.08175728
v -1.011174 0.7213342 -0.04805826
v -0.9441077 0.04451782 -0.05052877
v -1.026789 0.7213342 9.047391E-09
v -0.9605255 0.04451782 9.512488E-09
v -1.011174 0.7213342 0.04805827
v -0.9441077 0.04451782 0.05052879
v -0.9702937 0.7213342 0.07775991
v -0.9011255 0.04451782 0.08175728
v -0.7885962 0.04451782 4.388593E-09
v -0.8632661 0.7213342 4.17402E-09
v -0.805014 0.04451782 0.05052878
v -0.8788813 0.7213342 0.04805826
v -0.8479962 0.04451782 0.08175728
v -0.9197621 0.7213342 0.0777599
v -0.9011255 0.04451782 0.08175728
v -0.9702937 0.7213342 0.07775991
v -0.7811569 1.401363 4.768371E-09
v -0.7989953 1.401363 -0.05490142
v -0.7989953 1.401363 0.05490142
v -0.8456973 1.401363 0.08883236
v -0.903424 1.401363 0.08883238
v -0.8456973 1.401363 -0.08883238
v -0.903424 1.401363 -0.08883236
v -0.950126 1.401363 -0.05490141
v -0.9679645 1.401363 1.033568E-08
v -0.950126 1.401363 0.05490143
v -0.903424 1.401363 0.08883238
vt 0.3498535 0.9946289
vt 0.3500977 0.9755859
vt 0.3481445 0.9755859
vt 0.3481445 0.9946289
vt 0.3461914 0.9755859
vt 0.3464355 0.9946289
vt 0.3442383 0.9755859
vt 0.3447266 0.9946289
vt 0.3422852 0.9755859
vt 0.3430176 0.9951172
vt 0.340332 0.9755859
vt 0.3413086 0.9951172
vt 0.3381348 0.9755859
vt 0.3398438 0.9951172
vt 0.3515625 0.9946289
vt 0.3520508 0.9755859
vt 0.3532715 0.9946289
vt 0.3540039 0.9755859
vt 0.3547363 0.9951172
vt 0.355957 0.9755859
vt 0.3564453 0.9951172
vt 0.3579102 0.9755859
vt 0.3515625 0.9521484
vt 0.3498535 0.9521484
vt 0.3535156 0.9521484
vt 0.3552246 0.9521484
vt 0.3569336 0.9521484
vt 0.3479004 0.9521484
vt 0.3461914 0.9521484
vt 0.3442383 0.9521484
vt 0.3425293 0.9521484
vt 0.3405762 0.9521484
vt 0.3388672 0.9521484
vt 0.4228516 0.9541016
vt 0.4230957 0.9682617
vt 0.4248047 0.9682617
vt 0.4245605 0.9541016
vt 0.4262695 0.9682617
vt 0.4262695 0.9541016
vt 0.4279785 0.9682617
vt 0.4279785 0.9541016
vt 0.4296875 0.9677734
vt 0.4296875 0.9541016
vt 0.4311523 0.9677734
vt 0.4311523 0.9541016
vt 0.4328613 0.9677734
vt 0.4328613 0.9541016
vt 0.4213867 0.9541016
vt 0.4216309 0.9682617
vt 0.4196777 0.9541016
vt 0.4199219 0.9682617
vt 0.4179688 0.9541016
vt 0.418457 0.9682617
vt 0.4162598 0.9541016
vt 0.416748 0.9682617
vt 0.4216309 0.996582
vt 0.4233398 0.996582
vt 0.4196777 0.996582
vt 0.4179688 0.996582
vt 0.4160156 0.996582
vt 0.425293 0.996582
vt 0.427002 0.996582
vt 0.4287109 0.996582
vt 0.4306641 0.996582
vt 0.432373 0.996582
vt 0.4343262 0.9960938
vt 0.4033203 0.9536133
vt 0.4030762 0.9755859
vt 0.404541 0.9755859
vt 0.4050293 0.9541016
vt 0.40625 0.9755859
vt 0.4064941 0.9541016
vt 0.4077148 0.9755859
vt 0.4082031 0.9541016
vt 0.4094238 0.9755859
vt 0.4099121 0.9545898
vt 0.4108887 0.9755859
vt 0.4116211 0.9545898
vt 0.4125977 0.9755859
vt 0.4133301 0.9541016
vt 0.4016113 0.9536133
vt 0.4013672 0.9755859
vt 0.3999023 0.9536133
vt 0.3999023 0.9755859
vt 0.3984375 0.9541016
vt 0.3981934 0.9750977
vt 0.3967285 0.9541016
vt 0.3967285 0.9750977
vt 0.4006348 0.9970703
vt 0.4023438 0.9970703
vt 0.3989258 0.9970703
vt 0.3969727 0.996582
vt 0.3952637 0.996582
vt 0.4042969 0.9970703
vt 0.4060059 0.9970703
vt 0.4077148 0.996582
vt 0.409668 0.996582
vt 0.411377 0.996582
vt 0.4133301 0.9970703
vn 0.8087672 -0.0248246 -0.5876048
vn 0.8090059 -0.005118112 -0.5877783
vn 0.3090132 -0.005118184 -0.9510441
vn 0.308922 -0.02482477 -0.9507633
vn -0.3090133 -0.005118152 -0.951044
vn -0.308922 -0.02482476 -0.9507633
vn -0.8090065 -0.005118159 -0.5877774
vn -0.8087679 -0.02482473 -0.5876038
vn -0.9999869 -0.00511816 0
vn -0.9996918 -0.02482474 0
vn -0.8090065 -0.005118165 0.5877774
vn -0.8087677 -0.02482474 0.5876039
vn -0.3090131 -0.005118156 0.9510441
vn -0.3089219 -0.02482477 0.9507633
vn 0.9996918 -0.02482452 0
vn 0.9999869 -0.005118196 0
vn 0.8087671 -0.0248246 0.5876048
vn 0.8090059 -0.005118163 0.5877783
vn 0.308922 -0.02482477 0.9507633
vn 0.3090132 -0.005118154 0.951044
vn -0.3089219 -0.02482477 0.9507633
vn -0.3090131 -0.005118156 0.9510441
vn 0.9999455 0.01043633 0
vn 0.8089724 0.0104364 -0.587754
vn 0.8089724 0.01043641 0.587754
vn 0.3090006 0.01043655 0.9510046
vn -0.3090004 0.01043655 0.9510046
vn 0.3090004 0.01043655 -0.9510046
vn -0.3090007 0.01043655 -0.9510046
vn -0.8089731 0.01043651 -0.5877531
vn -0.9999455 0.01043652 0
vn -0.8089731 0.01043651 0.5877532
vn -0.3090004 0.01043655 0.9510046
vn 0.8089811 0.009343632 -0.5877604
vn 0.8090032 -0.005697737 -0.5877767
vn 0.309012 -0.00569766 -0.951041
vn 0.3090038 0.009343527 -0.9510149
vn -0.3090124 -0.005697673 -0.9510409
vn -0.3090039 0.009343488 -0.9510148
vn -0.8090038 -0.005697673 -0.5877758
vn -0.8089818 0.009343482 -0.5877595
vn -0.9999838 -0.005697692 0
vn -0.9999564 0.009343402 0
vn -0.8090039 -0.005697683 0.5877757
vn -0.8089817 0.009343503 0.5877596
vn -0.3090121 -0.005697675 0.951041
vn -0.3090037 0.009343528 0.9510149
vn 0.9999564 0.009343704 0
vn 0.9999838 -0.005697723 2.392399E-07
vn 0.808981 0.009343687 0.5877606
vn 0.8090032 -0.005697695 0.5877768
vn 0.3090039 0.00934354 0.9510148
vn 0.3090124 -0.005697667 0.9510409
vn -0.3090037 0.009343528 0.9510149
vn -0.3090121 -0.005697675 0.951041
vn 0.9999176 -0.01283489 0
vn 0.8089497 -0.01283479 -0.5877377
vn 0.8089496 -0.01283481 0.5877379
vn 0.308992 -0.0128347 0.9509781
vn -0.3089917 -0.0128347 0.9509781
vn 0.3089918 -0.01283471 -0.9509781
vn -0.3089921 -0.01283468 -0.9509781
vn -0.8089504 -0.01283468 -0.5877368
vn -0.9999176 -0.01283467 0
vn -0.8089504 -0.01283471 0.5877368
vn -0.3089917 -0.0128347 0.9509781
vn 0.8127531 0.09080399 -0.5754886
vn 0.8020468 -0.007640765 -0.5972124
vn 0.2907117 -0.006440156 -0.956789
vn 0.3272798 0.0402787 -0.9440686
vn -0.3274402 -0.004978758 -0.9448587
vn -0.2905147 -0.02403996 -0.9565685
vn -0.8160863 -0.003816777 -0.5779175
vn -0.7996351 -0.07706323 -0.5955206
vn -0.9999943 -0.003378318 0
vn -0.9952414 -0.09743955 0
vn -0.8160863 -0.003816798 0.5779175
vn -0.7996351 -0.07706325 0.5955207
vn -0.3274399 -0.004978772 0.9448588
vn -0.2905146 -0.02403993 0.9565685
vn 0.9939691 0.10966 1.331062E-07
vn 0.9999672 -0.008102288 0
vn 0.8127531 0.09080397 0.5754887
vn 0.8020468 -0.007640417 0.5972124
vn 0.3272799 0.04027868 0.9440686
vn 0.2907119 -0.006440311 0.956789
vn -0.2905146 -0.02403993 0.9565685
vn -0.3274399 -0.004978772 0.9448588
vn 0.9927892 -0.1198733 -1.692819E-07
vn 0.8119129 -0.1011646 -0.5749463
vn 0.8119129 -0.1011646 0.5749462
vn 0.3270645 -0.0509864 0.9436256
vn -0.2906169 0.01299923 0.9567512
vn 0.3270644 -0.05098642 -0.9436256
vn -0.2906173 0.01299928 -0.9567511
vn -0.8002921 0.06584751 -0.5959837
vn -0.9962794 0.08618182 0
vn -0.8002921 0.06584747 0.5959837
vn -0.2906169 0.01299923 0.9567512
g m_dlc07_portcullis_04_0
f 3/3/3 2/2/2 1/1/1
f 4/4/4 3/3/3 1/1/1
f 5/5/5 3/3/3 4/4/4
f 6/6/6 5/5/5 4/4/4
f 7/7/7 5/5/5 6/6/6
f 8/8/8 7/7/7 6/6/6
f 9/9/9 7/7/7 8/8/8
f 10/10/10 9/9/9 8/8/8
f 11/11/11 9/9/9 10/10/10
f 12/12/12 11/11/11 10/10/10
f 13/13/13 11/11/11 12/12/12
f 14/14/14 13/13/13 12/12/12
f 1/1/1 2/2/2 15/15/15
f 2/2/2 16/16/16 15/15/15
f 15/15/15 16/16/16 17/17/17
f 16/16/16 18/18/18 17/17/17
f 17/17/17 18/18/18 19/19/19
f 18/18/18 20/20/20 19/19/19
f 19/19/19 20/20/20 21/21/21
f 20/20/20 22/22/22 21/21/21
f 16/16/16 23/23/23 18/18/18
f 24/24/24 23/23/23 16/16/16
f 2/2/2 24/24/24 16/16/16
f 23/23/23 25/25/25 18/18/18
f 18/18/18 25/25/25 20/20/20
f 25/25/25 26/26/26 20/20/20
f 20/20/20 26/26/26 22/22/22
f 26/26/26 27/27/27 22/22/22
f 28/28/28 24/24/24 2/2/2
f 3/3/3 28/28/28 2/2/2
f 29/29/29 28/28/28 3/3/3
f 5/5/5 29/29/29 3/3/3
f 30/30/30 29/29/29 5/5/5
f 7/7/7 30/30/30 5/5/5
f 31/31/31 30/30/30 7/7/7
f 9/9/9 31/31/31 7/7/7
f 32/32/32 31/31/31 9/9/9
f 11/11/11 32/32/32 9/9/9
f 33/33/33 32/32/32 11/11/11
f 13/13/13 33/33/33 11/11/11
f 36/36/36 35/35/35 34/34/34
f 37/37/37 36/36/36 34/34/34
f 38/38/38 36/36/36 37/37/37
f 39/39/39 38/38/38 37/37/37
f 40/40/40 38/38/38 39/39/39
f 41/41/41 40/40/40 39/39/39
f 42/42/42 40/40/40 41/41/41
f 43/43/43 42/42/42 41/41/41
f 44/44/44 42/42/42 43/43/43
f 45/45/45 44/44/44 43/43/43
f 46/46/46 44/44/44 45/45/45
f 47/47/47 46/46/46 45/45/45
f 34/34/34 35/35/35 48/48/48
f 35/35/35 49/49/49 48/48/48
f 48/48/48 49/49/49 50/50/50
f 49/49/49 51/51/51 50/50/50
f 50/50/50 51/51/51 52/52/52
f 51/51/51 53/53/53 52/52/52
f 52/52/52 53/53/53 54/54/54
f 53/53/53 55/55/55 54/54/54
f 49/49/49 56/56/56 51/51/51
f 57/57/57 56/56/56 49/49/49
f 35/35/35 57/57/57 49/49/49
f 56/56/56 58/58/58 51/51/51
f 51/51/51 58/58/58 53/53/53
f 58/58/58 59/59/59 53/53/53
f 53/53/53 59/59/59 55/55/55
f 59/59/59 60/60/60 55/55/55
f 61/61/61 57/57/57 35/35/35
f 36/36/36 61/61/61 35/35/35
f 62/62/62 61/61/61 36/36/36
f 38/38/38 62/62/62 36/36/36
f 63/63/63 62/62/62 38/38/38
f 40/40/40 63/63/63 38/38/38
f 64/64/64 63/63/63 40/40/40
f 42/42/42 64/64/64 40/40/40
f 65/65/65 64/64/64 42/42/42
f 44/44/44 65/65/65 42/42/42
f 66/66/66 65/65/65 44/44/44
f 46/46/46 66/66/66 44/44/44
f 69/69/69 68/68/68 67/67/67
f 70/70/70 69/69/69 67/67/67
f 71/71/71 69/69/69 70/70/70
f 72/72/72 71/71/71 70/70/70
f 73/73/73 71/71/71 72/72/72
f 74/74/74 73/73/73 72/72/72
f 75/75/75 73/73/73 74/74/74
f 76/76/76 75/75/75 74/74/74
f 77/77/77 75/75/75 76/76/76
f 78/78/78 77/77/77 76/76/76
f 79/79/79 77/77/77 78/78/78
f 80/80/80 79/79/79 78/78/78
f 67/67/67 68/68/68 81/81/81
f 68/68/68 82/82/82 81/81/81
f 81/81/81 82/82/82 83/83/83
f 82/82/82 84/84/84 83/83/83
f 83/83/83 84/84/84 85/85/85
f 84/84/84 86/86/86 85/85/85
f 85/85/85 86/86/86 87/87/87
f 86/86/86 88/88/88 87/87/87
f 82/82/82 89/89/89 84/84/84
f 90/90/90 89/89/89 82/82/82
f 68/68/68 90/90/90 82/82/82
f 89/89/89 91/91/91 84/84/84
f 84/84/84 91/91/91 86/86/86
f 91/91/91 92/92/92 86/86/86
f 86/86/86 92/92/92 88/88/88
f 92/92/92 93/93/93 88/88/88
f 94/94/94 90/90/90 68/68/68
f 69/69/69 94/94/94 68/68/68
f 95/95/95 94/94/94 69/69/69
f 71/71/71 95/95/95 69/69/69
f 96/96/96 95/95/95 71/71/71
f 73/73/73 96/96/96 71/71/71
f 97/97/97 96/96/96 73/73/73
f 75/75/75 97/97/97 73/73/73
f 98/98/98 97/97/97 75/75/75
f 77/77/77 98/98/98 75/75/75
f 99/99/99 98/98/98 77/77/77
f 79/79/79 99/99/99 77/77/77
