g m_dlc7_cobble_edge_04
v -0.3164502 0.2428438 0.1396126
v -0.2866052 0.2428438 -0.1396127
v -0.2119104 0.3003391 -0.1198873
v -0.240387 0.3003391 0.1205477
v -0.1306995 0.3241544 -0.1128306
v -0.1580041 0.3241544 0.1140176
v 0.08730102 0.3241544 -0.05195614
v -0.1380725 0.3003391 -0.1930167
v 0.09963257 0.3003391 -0.150235
v 0.150686 0.3241544 0.1126712
v 0.1679163 0.3003391 0.1803964
v -0.1679163 0.3003391 0.1930167
v 0.1968591 0.2428438 0.2465828
v -0.1968591 0.2428438 0.2592031
v 0.1897888 0.3003391 -0.06007992
v 0.2374646 0.3003391 0.1146641
v 0.2844165 0.2428438 -0.08379764
v 0.316449 0.2428438 0.1269924
v -0.2354114 0.2897721 0.1859179
v -0.2814221 0.2428438 0.2241758
v 0.2814221 0.2428438 0.2115555
v 0.2354089 0.2897721 0.1732976
v 0.2408411 0.2428438 -0.1889987
v 0.1835998 0.2897721 -0.1414038
v 0.1356384 0.2428438 -0.2325744
v -0.1670154 0.2428438 -0.2592031
v -0.1968591 0.2428438 0.2592031
v -0.2168249 0.1615169 0.2841536
v -0.3097326 0.1615169 0.2456705
v -0.2814221 0.2428438 0.2241758
v 0.2168249 0.1615169 0.2715334
v 0.1968591 0.2428438 0.2465828
v 0.2814221 0.2428438 0.2115555
v 0.3097302 0.1615169 0.2330503
v -0.2168249 -0.1442801 0.2841536
v 0.2168249 -0.1442801 0.2715334
v -0.3097326 -0.1442801 0.2456705
v 0.3097302 -0.1442801 0.2330503
v -0.2814221 0.2428438 0.2241758
v -0.3097326 0.1615169 0.2456705
v -0.3482141 0.1615169 0.1527643
v -0.3164502 0.2428438 0.1396126
v -0.2866052 0.2428438 -0.1396127
v -0.3183703 0.1615169 -0.1527644
v -0.2798865 0.1615169 -0.2456706
v -0.2515784 0.2428438 -0.2241758
v -0.3482141 -0.1442801 0.1527643
v -0.3097326 -0.1442801 0.2456705
v -0.3183703 -0.1442801 -0.1527644
v -0.2798865 -0.1442801 -0.2456706
v 0.316449 0.2428438 0.1269924
v 0.3482141 0.1615169 0.1401441
v 0.3097302 0.1615169 0.2330503
v 0.2814221 0.2428438 0.2115555
v 0.3239331 0.1615169 -0.1001591
v 0.2844165 0.2428438 -0.08379764
v 0.2408411 0.2428438 -0.1889987
v 0.2760583 0.1615169 -0.2157393
v 0.3239331 -0.1442801 -0.1001591
v 0.2760583 -0.1442801 -0.2157393
v 0.3482141 -0.1442801 0.1401441
v 0.3097302 -0.1442801 0.2330503
v -0.2515784 0.2428438 -0.2241758
v -0.2798865 0.1615169 -0.2456706
v -0.1869812 0.1615169 -0.2841536
v -0.1670154 0.2428438 -0.2592031
v 0.1604773 0.1615169 -0.2636141
v 0.1356384 0.2428438 -0.2325744
v 0.2760583 0.1615169 -0.2157393
v 0.2408411 0.2428438 -0.1889987
v -0.1380725 0.3003391 -0.1930167
v 0.09963257 0.3003391 -0.150235
v -0.2055664 0.2897721 -0.1859179
v -0.1869812 -0.1442801 -0.2841536
v -0.2798865 -0.1442801 -0.2456706
v 0.1604773 -0.1442801 -0.2636141
v 0.2760583 -0.1442801 -0.2157393
v -0.2515784 0.2428438 -0.2241758
v -0.2055664 0.2897721 -0.1859179
v -0.3164502 -0.2342262 0.1396126
v -0.240387 -0.2978151 0.1205477
v -0.2119104 -0.2978151 -0.1198873
v -0.2866052 -0.2342262 -0.1396127
v -0.1306995 -0.3241544 -0.1128306
v -0.1580041 -0.3241544 0.1140176
v 0.08730102 -0.3241544 -0.05195614
v -0.1380725 -0.2978151 -0.1930167
v 0.09963257 -0.2978151 -0.150235
v -0.1670154 -0.2342262 -0.2592031
v 0.1356384 -0.2342262 -0.2325744
v 0.150686 -0.3241544 0.1126712
v 0.1679163 -0.2978151 0.1803964
v -0.1679163 -0.2978151 0.1930167
v 0.1897888 -0.2978151 -0.06007992
v 0.2374646 -0.2978151 0.1146641
v 0.2844165 -0.2342262 -0.08379764
v 0.316449 -0.2342262 0.1269924
v 0.2814221 -0.2342262 0.2115555
v 0.2354089 -0.2861282 0.1732976
v 0.1968591 -0.2342262 0.2465828
v -0.2515784 -0.2342262 -0.2241758
v -0.2055664 -0.2861282 -0.1859179
v 0.2408411 -0.2342262 -0.1889987
v 0.1835998 -0.2861282 -0.1414038
v -0.1968591 -0.2342262 0.2592031
v -0.2814221 -0.2342262 0.2241758
v -0.3097326 -0.1442801 0.2456705
v -0.2168249 -0.1442801 0.2841536
v 0.2168249 -0.1442801 0.2715334
v 0.1968591 -0.2342262 0.2465828
v -0.1679163 -0.2978151 0.1930167
v 0.1679163 -0.2978151 0.1803964
v 0.2814221 -0.2342262 0.2115555
v 0.3097302 -0.1442801 0.2330503
v -0.2354114 -0.2861282 0.1859179
v -0.2814221 -0.2342262 0.2241758
v -0.3164502 -0.2342262 0.1396126
v -0.3482141 -0.1442801 0.1527643
v -0.3097326 -0.1442801 0.2456705
v -0.2866052 -0.2342262 -0.1396127
v -0.3183703 -0.1442801 -0.1527644
v -0.2798865 -0.1442801 -0.2456706
v -0.2515784 -0.2342262 -0.2241758
v 0.316449 -0.2342262 0.1269924
v 0.2814221 -0.2342262 0.2115555
v 0.3097302 -0.1442801 0.2330503
v 0.3482141 -0.1442801 0.1401441
v 0.3239331 -0.1442801 -0.1001591
v 0.2844165 -0.2342262 -0.08379764
v 0.2408411 -0.2342262 -0.1889987
v 0.2760583 -0.1442801 -0.2157393
v -0.2515784 -0.2342262 -0.2241758
v -0.1670154 -0.2342262 -0.2592031
v -0.1869812 -0.1442801 -0.2841536
v -0.2798865 -0.1442801 -0.2456706
v 0.1604773 -0.1442801 -0.2636141
v 0.1356384 -0.2342262 -0.2325744
v 0.2760583 -0.1442801 -0.2157393
v 0.2408411 -0.2342262 -0.1889987
v -0.2354114 -0.2861282 0.1859179
v -0.2814221 -0.2342262 0.2241758
vt 0.9731445 0.2015381
vt 0.9858398 0.2003174
vt 0.984375 0.1964111
vt 0.9746094 0.1976318
vt 0.9838867 0.1928711
vt 0.9746094 0.1942139
vt 0.9814453 0.1838379
vt 0.9873047 0.1932373
vt 0.9858398 0.1831055
vt 0.9746094 0.1815186
vt 0.9716797 0.1807861
vt 0.9711914 0.1948242
vt 0.9682617 0.1793213
vt 0.9677734 0.1964111
vt 0.9819336 0.1794434
vt 0.9741211 0.1778564
vt 0.9829102 0.1748047
vt 0.9731445 0.1740723
vt 0.9716797 0.1975098
vt 0.9697266 0.1998291
vt 0.9697266 0.1757813
vt 0.9716797 0.1781006
vt 0.9873047 0.1768799
vt 0.9853516 0.1796875
vt 0.9897461 0.1812744
vt 0.9907227 0.1947021
vt 0.9677734 0.1964111
vt 0.9643555 0.197998
vt 0.9672852 0.2025146
vt 0.9697266 0.1998291
vt 0.9643555 0.1778564
vt 0.9682617 0.1793213
vt 0.9697266 0.1757813
vt 0.9672852 0.1732178
vt 0.9643555 0.197998
vt 0.9643555 0.1778564
vt 0.9672852 0.2025146
vt 0.9672852 0.1732178
vt 0.9697266 0.1998291
vt 0.9672852 0.2025146
vt 0.972168 0.2050781
vt 0.9731445 0.2015381
vt 0.9858398 0.2003174
vt 0.9873047 0.2038574
vt 0.9916992 0.2009277
vt 0.9892578 0.1983643
vt 0.972168 0.2050781
vt 0.9672852 0.2025146
vt 0.9873047 0.2038574
vt 0.9916992 0.2009277
vt 0.9731445 0.1740723
vt 0.972168 0.1705322
vt 0.9672852 0.1732178
vt 0.9697266 0.1757813
vt 0.9838867 0.1708984
vt 0.9829102 0.1748047
vt 0.9873047 0.1768799
vt 0.9897461 0.1739502
vt 0.9838867 0.1708984
vt 0.9897461 0.1739502
vt 0.972168 0.1705322
vt 0.9672852 0.1732178
vt 0.9892578 0.1983643
vt 0.9916992 0.2009277
vt 0.9946289 0.196167
vt 0.9907227 0.1947021
vt 0.9931641 0.1794434
vt 0.9897461 0.1812744
vt 0.9897461 0.1739502
vt 0.9873047 0.1768799
vt 0.9873047 0.1932373
vt 0.9858398 0.1831055
vt 0.9873047 0.1960449
vt 0.9946289 0.196167
vt 0.9916992 0.2009277
vt 0.9931641 0.1794434
vt 0.9897461 0.1739502
vt 0.9892578 0.1983643
vt 0.9873047 0.1960449
vt 0.9731445 0.2015381
vt 0.9746094 0.1976318
vt 0.984375 0.1964111
vt 0.9858398 0.2003174
vt 0.9838867 0.1928711
vt 0.9746094 0.1942139
vt 0.9814453 0.1838379
vt 0.9873047 0.1932373
vt 0.9858398 0.1831055
vt 0.9907227 0.1947021
vt 0.9897461 0.1812744
vt 0.9746094 0.1815186
vt 0.9716797 0.1807861
vt 0.9711914 0.1948242
vt 0.9819336 0.1794434
vt 0.9741211 0.1778564
vt 0.9829102 0.1748047
vt 0.9731445 0.1740723
vt 0.9697266 0.1757813
vt 0.9716797 0.1781006
vt 0.9682617 0.1793213
vt 0.9892578 0.1983643
vt 0.9873047 0.1960449
vt 0.9873047 0.1768799
vt 0.9853516 0.1796875
vt 0.9677734 0.1964111
vt 0.9697266 0.1998291
vt 0.9672852 0.2025146
vt 0.9643555 0.197998
vt 0.9643555 0.1778564
vt 0.9682617 0.1793213
vt 0.9711914 0.1948242
vt 0.9716797 0.1807861
vt 0.9697266 0.1757813
vt 0.9672852 0.1732178
vt 0.9716797 0.1975098
vt 0.9697266 0.1998291
vt 0.9731445 0.2015381
vt 0.972168 0.2050781
vt 0.9672852 0.2025146
vt 0.9858398 0.2003174
vt 0.9873047 0.2038574
vt 0.9916992 0.2009277
vt 0.9892578 0.1983643
vt 0.9731445 0.1740723
vt 0.9697266 0.1757813
vt 0.9672852 0.1732178
vt 0.972168 0.1705322
vt 0.9838867 0.1708984
vt 0.9829102 0.1748047
vt 0.9873047 0.1768799
vt 0.9897461 0.1739502
vt 0.9892578 0.1983643
vt 0.9907227 0.1947021
vt 0.9946289 0.196167
vt 0.9916992 0.2009277
vt 0.9931641 0.1794434
vt 0.9897461 0.1812744
vt 0.9897461 0.1739502
vt 0.9873047 0.1768799
vt 0.9716797 0.1975098
vt 0.9697266 0.1998291
vn -0.8204772 0.5716732 0.002654613
vn -0.802996 0.5803566 -0.1355861
vn -0.4591821 0.8840609 -0.0871099
vn -0.4763749 0.8792396 -0.002141972
vn -0.05274803 0.9947202 -0.08803034
vn -0.07161053 0.9936767 0.08647849
vn 0.05169838 0.9964871 -0.06588412
vn 0.02067453 0.876124 -0.4816422
vn 0.09931643 0.8946094 -0.4356722
vn 0.06696363 0.993762 0.08917961
vn 0.04877864 0.8515081 0.5220674
vn -0.01901719 0.8530546 0.5214751
vn 0.07735682 0.506891 0.8585321
vn -0.03197029 0.5035079 0.8633988
vn 0.3837354 0.9151383 -0.1235677
vn 0.4379275 0.8984581 -0.03150263
vn 0.7485864 0.6406758 -0.1707423
vn 0.792967 0.609217 -0.007615646
vn -0.3654503 0.8529404 0.3727448
vn -0.5823597 0.5648385 0.5846491
vn 0.5819198 0.5627066 0.5871376
vn 0.3674361 0.8485076 0.380822
vn 0.5388669 0.644662 -0.5422484
vn 0.3087597 0.8972815 -0.3155206
vn 0.1305199 0.5629937 -0.8160899
vn -0.007134188 0.5336006 -0.8457066
vn -0.03197029 0.5035079 0.8633988
vn -0.05166424 0.06009883 0.9968546
vn -0.7067492 0.08068036 0.7028487
vn -0.5823597 0.5648385 0.5846491
vn 0.09898628 0.06033436 0.993258
vn 0.07735682 0.506891 0.8585321
vn 0.5819198 0.5627066 0.5871376
vn 0.7067488 0.08067917 0.7028491
vn -0.05161803 -0.05941266 0.9968981
vn 0.09898791 -0.05959276 0.9933027
vn -0.7067904 -0.07967073 0.7029224
vn 0.7067901 -0.07966969 0.7029228
vn -0.5823597 0.5648385 0.5846491
vn -0.7067492 0.08068036 0.7028487
vn -0.996808 0.07639892 0.02317207
vn -0.8204772 0.5716732 0.002654613
vn -0.802996 0.5803566 -0.1355861
vn -0.9824097 0.07748026 -0.1699056
vn -0.7067487 0.080678 -0.7028494
vn -0.5823976 0.5642149 -0.5852133
vn -0.9968874 -0.07538028 0.02309473
vn -0.7067904 -0.07967073 0.7029224
vn -0.9824983 -0.07620632 -0.1699693
vn -0.7067899 -0.07966816 -0.7029232
vn 0.792967 0.609217 -0.007615646
vn 0.9956633 0.08289727 0.04221977
vn 0.7067488 0.08067917 0.7028491
vn 0.5819198 0.5627066 0.5871376
vn 0.9751853 0.0905953 -0.2020053
vn 0.7485864 0.6406758 -0.1707423
vn 0.5388669 0.644662 -0.5422484
vn 0.7060032 0.09853079 -0.7013211
vn 0.9752619 -0.08909664 -0.2023021
vn 0.7060741 -0.09742831 -0.7014036
vn 0.9957664 -0.08179274 0.04194422
vn 0.7067901 -0.07966969 0.7029228
vn -0.5823976 0.5642149 -0.5852133
vn -0.7067487 0.080678 -0.7028494
vn -0.04272199 0.06573135 -0.9969223
vn -0.007134188 0.5336006 -0.8457066
vn 0.1508826 0.07153592 -0.98596
vn 0.1305199 0.5629937 -0.8160899
vn 0.7060032 0.09853079 -0.7013211
vn 0.5388669 0.644662 -0.5422484
vn 0.02067453 0.876124 -0.4816422
vn 0.09931643 0.8946094 -0.4356722
vn -0.3649375 0.852252 -0.3748163
vn -0.04253439 -0.06499634 -0.9969786
vn -0.7067899 -0.07966816 -0.7029232
vn 0.1510668 -0.07056279 -0.9860018
vn 0.7060741 -0.09742831 -0.7014036
vn -0.5823976 0.5642149 -0.5852133
vn -0.3649375 0.852252 -0.3748163
vn -0.8450987 -0.5346016 0.003027504
vn -0.513274 -0.8582221 -0.002157721
vn -0.4954815 -0.8635087 -0.09407804
vn -0.8283272 -0.542468 -0.140009
vn -0.05823718 -0.9935714 -0.09707949
vn -0.07897548 -0.9922994 0.09542012
vn 0.05710291 -0.9957122 -0.07277791
vn 0.02195363 -0.8548889 -0.5183463
vn 0.107521 -0.8755496 -0.471012
vn -0.007700486 -0.4977923 -0.8672622
vn 0.1349116 -0.5259121 -0.839771
vn 0.07383843 -0.9924069 0.0983691
vn 0.05244968 -0.8270397 0.5596914
vn -0.02062315 -0.8288172 0.5591394
vn 0.416722 -0.899067 -0.1342435
vn 0.4734216 -0.8801809 -0.03396346
vn 0.7778015 -0.6028919 -0.1776128
vn 0.8201982 -0.5720298 -0.007546351
vn 0.5989786 -0.525925 0.6038439
vn 0.39451 -0.8231365 0.4084215
vn 0.07951272 -0.4713146 0.8783736
vn -0.599577 -0.5274105 -0.6019514
vn -0.3920724 -0.8273272 -0.4022547
vn 0.5599524 -0.6080194 -0.5628194
vn 0.3344106 -0.8783974 -0.3414493
vn -0.03310519 -0.4682967 0.8829508
vn -0.5995773 -0.5280343 0.6014041
vn -0.7067904 -0.07967073 0.7029224
vn -0.05161803 -0.05941266 0.9968981
vn 0.09898791 -0.05959276 0.9933027
vn 0.07951272 -0.4713146 0.8783736
vn -0.02062315 -0.8288172 0.5591394
vn 0.05244968 -0.8270397 0.5596914
vn 0.5989786 -0.525925 0.6038439
vn 0.7067901 -0.07966969 0.7029228
vn -0.3926515 -0.8281025 0.4000888
vn -0.5995773 -0.5280343 0.6014041
vn -0.8450987 -0.5346016 0.003027504
vn -0.9968874 -0.07538028 0.02309473
vn -0.7067904 -0.07967073 0.7029224
vn -0.8283272 -0.542468 -0.140009
vn -0.9824983 -0.07620632 -0.1699693
vn -0.7067899 -0.07966816 -0.7029232
vn -0.599577 -0.5274105 -0.6019514
vn 0.8201982 -0.5720298 -0.007546351
vn 0.5989786 -0.525925 0.6038439
vn 0.7067901 -0.07966969 0.7029228
vn 0.9957664 -0.08179274 0.04194422
vn 0.9752619 -0.08909664 -0.2023021
vn 0.7778015 -0.6028919 -0.1776128
vn 0.5599524 -0.6080194 -0.5628194
vn 0.7060741 -0.09742831 -0.7014036
vn -0.599577 -0.5274105 -0.6019514
vn -0.007700486 -0.4977923 -0.8672622
vn -0.04253439 -0.06499634 -0.9969786
vn -0.7067899 -0.07966816 -0.7029232
vn 0.1510668 -0.07056279 -0.9860018
vn 0.1349116 -0.5259121 -0.839771
vn 0.7060741 -0.09742831 -0.7014036
vn 0.5599524 -0.6080194 -0.5628194
vn -0.3926515 -0.8281025 0.4000888
vn -0.5995773 -0.5280343 0.6014041
g m_dlc7_cobble_edge_04_0
f 3/3/3 2/2/2 1/1/1
f 4/4/4 3/3/3 1/1/1
f 5/5/5 3/3/3 4/4/4
f 6/6/6 5/5/5 4/4/4
f 7/7/7 5/5/5 6/6/6
f 5/5/5 7/7/7 8/8/8
f 5/5/5 8/8/8 3/3/3
f 7/7/7 9/9/9 8/8/8
f 10/10/10 7/7/7 6/6/6
f 11/11/11 10/10/10 6/6/6
f 12/12/12 11/11/11 6/6/6
f 6/6/6 4/4/4 12/12/12
f 13/13/13 11/11/11 12/12/12
f 14/14/14 13/13/13 12/12/12
f 15/15/15 7/7/7 10/10/10
f 7/7/7 15/15/15 9/9/9
f 16/16/16 15/15/15 10/10/10
f 10/10/10 11/11/11 16/16/16
f 17/17/17 15/15/15 16/16/16
f 18/18/18 17/17/17 16/16/16
f 4/4/4 19/19/19 12/12/12
f 20/20/20 19/19/19 4/4/4
f 12/12/12 19/19/19 20/20/20
f 14/14/14 12/12/12 20/20/20
f 18/18/18 16/16/16 21/21/21
f 13/13/13 21/21/21 11/11/11
f 16/16/16 22/22/22 21/21/21
f 11/11/11 22/22/22 16/16/16
f 21/21/21 22/22/22 11/11/11
f 17/17/17 23/23/23 15/15/15
f 23/23/23 24/24/24 15/15/15
f 9/9/9 24/24/24 23/23/23
f 15/15/15 24/24/24 9/9/9
f 25/25/25 9/9/9 23/23/23
f 9/9/9 25/25/25 26/26/26
f 1/1/1 20/20/20 4/4/4
f 29/29/29 28/28/28 27/27/27
f 30/30/30 29/29/29 27/27/27
f 28/28/28 31/31/31 27/27/27
f 31/31/31 32/32/32 27/27/27
f 32/32/32 31/31/31 33/33/33
f 31/31/31 34/34/34 33/33/33
f 28/28/28 35/35/35 31/31/31
f 35/35/35 36/36/36 31/31/31
f 31/31/31 36/36/36 34/34/34
f 37/37/37 35/35/35 28/28/28
f 29/29/29 37/37/37 28/28/28
f 36/36/36 38/38/38 34/34/34
f 41/41/41 40/40/40 39/39/39
f 42/42/42 41/41/41 39/39/39
f 41/41/41 42/42/42 43/43/43
f 44/44/44 41/41/41 43/43/43
f 45/45/45 44/44/44 43/43/43
f 46/46/46 45/45/45 43/43/43
f 41/41/41 47/47/47 40/40/40
f 47/47/47 48/48/48 40/40/40
f 49/49/49 47/47/47 41/41/41
f 44/44/44 49/49/49 41/41/41
f 50/50/50 49/49/49 44/44/44
f 45/45/45 50/50/50 44/44/44
f 53/53/53 52/52/52 51/51/51
f 54/54/54 53/53/53 51/51/51
f 52/52/52 55/55/55 51/51/51
f 55/55/55 56/56/56 51/51/51
f 56/56/56 55/55/55 57/57/57
f 55/55/55 58/58/58 57/57/57
f 55/55/55 59/59/59 58/58/58
f 59/59/59 60/60/60 58/58/58
f 61/61/61 59/59/59 55/55/55
f 52/52/52 61/61/61 55/55/55
f 62/62/62 61/61/61 52/52/52
f 53/53/53 62/62/62 52/52/52
f 65/65/65 64/64/64 63/63/63
f 66/66/66 65/65/65 63/63/63
f 67/67/67 65/65/65 66/66/66
f 68/68/68 67/67/67 66/66/66
f 69/69/69 67/67/67 68/68/68
f 70/70/70 69/69/69 68/68/68
f 66/66/66 63/63/63 71/71/71
f 71/71/71 72/72/72 66/66/66
f 63/63/63 73/73/73 71/71/71
f 65/65/65 74/74/74 64/64/64
f 74/74/74 75/75/75 64/64/64
f 76/76/76 74/74/74 65/65/65
f 67/67/67 76/76/76 65/65/65
f 77/77/77 76/76/76 67/67/67
f 69/69/69 77/77/77 67/67/67
f 3/3/3 79/79/79 78/78/78
f 2/2/2 3/3/3 78/78/78
f 8/8/8 79/79/79 3/3/3
f 82/82/82 81/81/81 80/80/80
f 83/83/83 82/82/82 80/80/80
f 82/82/82 84/84/84 81/81/81
f 84/84/84 85/85/85 81/81/81
f 84/84/84 86/86/86 85/85/85
f 86/86/86 84/84/84 87/87/87
f 87/87/87 84/84/84 82/82/82
f 88/88/88 86/86/86 87/87/87
f 88/88/88 87/87/87 89/89/89
f 90/90/90 88/88/88 89/89/89
f 86/86/86 91/91/91 85/85/85
f 91/91/91 92/92/92 85/85/85
f 92/92/92 93/93/93 85/85/85
f 81/81/81 85/85/85 93/93/93
f 86/86/86 94/94/94 91/91/91
f 94/94/94 86/86/86 88/88/88
f 94/94/94 95/95/95 91/91/91
f 92/92/92 91/91/91 95/95/95
f 94/94/94 96/96/96 95/95/95
f 96/96/96 97/97/97 95/95/95
f 95/95/95 97/97/97 98/98/98
f 99/99/99 95/95/95 98/98/98
f 99/99/99 92/92/92 95/95/95
f 99/99/99 98/98/98 92/92/92
f 98/98/98 100/100/100 92/92/92
f 101/101/101 89/89/89 87/87/87
f 102/102/102 101/101/101 87/87/87
f 102/102/102 82/82/82 101/101/101
f 82/82/82 83/83/83 101/101/101
f 102/102/102 87/87/87 82/82/82
f 103/103/103 96/96/96 94/94/94
f 104/104/104 103/103/103 94/94/94
f 104/104/104 88/88/88 103/103/103
f 104/104/104 94/94/94 88/88/88
f 88/88/88 90/90/90 103/103/103
f 107/107/107 106/106/106 105/105/105
f 108/108/108 107/107/107 105/105/105
f 109/109/109 108/108/108 105/105/105
f 110/110/110 109/109/109 105/105/105
f 110/110/110 105/105/105 111/111/111
f 111/111/111 105/105/105 106/106/106
f 112/112/112 110/110/110 111/111/111
f 109/109/109 110/110/110 113/113/113
f 114/114/114 109/109/109 113/113/113
f 115/115/115 111/111/111 106/106/106
f 118/118/118 117/117/117 116/116/116
f 119/119/119 118/118/118 116/116/116
f 117/117/117 118/118/118 120/120/120
f 118/118/118 121/121/121 120/120/120
f 121/121/121 122/122/122 120/120/120
f 122/122/122 123/123/123 120/120/120
f 126/126/126 125/125/125 124/124/124
f 127/127/127 126/126/126 124/124/124
f 128/128/128 127/127/127 124/124/124
f 129/129/129 128/128/128 124/124/124
f 128/128/128 129/129/129 130/130/130
f 131/131/131 128/128/128 130/130/130
f 134/134/134 133/133/133 132/132/132
f 135/135/135 134/134/134 132/132/132
f 134/134/134 136/136/136 133/133/133
f 136/136/136 137/137/137 133/133/133
f 136/136/136 138/138/138 137/137/137
f 138/138/138 139/139/139 137/137/137
f 140/140/140 81/81/81 93/93/93
f 140/140/140 141/141/141 81/81/81
f 141/141/141 80/80/80 81/81/81
