g m_dlc7_cobble_edge_02
v -0.321958 0.2604721 0.1333023
v -0.321958 0.2604721 -0.1333023
v -0.2458948 0.3179674 -0.1142377
v -0.2458948 0.3179674 0.1142377
v -0.163512 0.3417827 -0.1077075
v -0.163512 0.3417827 0.1077075
v 0.1635095 0.3417827 -0.1077075
v -0.1734253 0.3179674 -0.1867065
v 0.1734241 0.3179674 -0.1867065
v -0.2023669 0.2604721 -0.2528928
v 0.2023669 0.2604721 -0.2528928
v 0.1635095 0.3417827 0.1077075
v 0.1734241 0.3179674 0.1867065
v -0.1734253 0.3179674 0.1867065
v 0.2023669 0.2604721 0.2528928
v -0.2023669 0.2604721 0.2528928
v 0.2458923 0.3179674 -0.1142377
v 0.2458923 0.3179674 0.1142377
v 0.3219568 0.2604721 -0.1333023
v 0.3219568 0.2604721 0.1333023
v 0.3537219 0.1791453 -0.1464542
v 0.2869299 0.2604721 -0.2178656
v -0.2869299 0.2604721 0.2178656
v -0.2409192 0.3074004 0.1796078
v 0.2869299 0.2604721 0.2178656
v 0.2409167 0.3074004 0.1796078
v 0.2409167 0.3074004 -0.1796078
v -0.2023669 0.2604721 0.2528928
v -0.2223328 0.1791453 0.2778436
v -0.3152393 0.1791453 0.2393603
v -0.2869299 0.2604721 0.2178656
v 0.2223328 0.1791453 0.2778436
v 0.2023669 0.2604721 0.2528928
v 0.2869299 0.2604721 0.2178656
v 0.315238 0.1791453 0.2393603
v -0.2223328 -0.1619084 0.2564624
v 0.2223328 -0.1619084 0.2564624
v -0.3152393 -0.1619084 0.2209405
v 0.315238 -0.1619084 0.2209405
v -0.2869299 0.2604721 0.2178656
v -0.3152393 0.1791453 0.2393603
v -0.3537219 0.1791453 0.1464542
v -0.321958 0.2604721 0.1333023
v -0.321958 0.2604721 -0.1333023
v -0.3537219 0.1791453 -0.1464542
v -0.3152393 0.1791453 -0.2393603
v -0.2869299 0.2604721 -0.2178656
v -0.3537219 -0.1619084 0.1351837
v -0.3152393 -0.1619084 0.2209405
v -0.3537219 -0.1619084 -0.1351837
v -0.3152393 -0.1619084 -0.2209405
v 0.3219568 0.2604721 0.1333023
v 0.3537219 0.1791453 0.1464542
v 0.315238 0.1791453 0.2393603
v 0.2869299 0.2604721 0.2178656
v 0.3537219 0.1791453 -0.1464542
v 0.3537219 -0.1619084 0.1351837
v 0.3537219 -0.1619084 -0.1351837
v 0.315238 0.1791453 -0.2393603
v 0.2869299 0.2604721 -0.2178656
v 0.315238 -0.1619084 -0.2209405
v 0.315238 -0.1619084 0.2209405
v -0.2869299 0.2604721 -0.2178656
v -0.3152393 0.1791453 -0.2393603
v -0.2223328 0.1791453 -0.2778436
v -0.2023669 0.2604721 -0.2528928
v 0.2223328 0.1791453 -0.2778436
v 0.2023669 0.2604721 -0.2528928
v 0.315238 0.1791453 -0.2393603
v 0.2869299 0.2604721 -0.2178656
v -0.2223328 -0.1619084 -0.2564624
v -0.3152393 -0.1619084 -0.2209405
v 0.2223328 -0.1619084 -0.2564624
v 0.315238 -0.1619084 -0.2209405
v -0.2409192 0.3074004 -0.1796078
v -0.2869299 0.2604721 -0.2178656
v -0.321958 -0.2518546 0.1230441
v -0.2458948 -0.3154434 0.1054465
v -0.2458948 -0.3154434 -0.1054465
v -0.321958 -0.2518546 -0.1230441
v -0.163512 -0.3417827 -0.09941895
v -0.163512 -0.3417827 0.09941895
v 0.1635095 -0.3417827 -0.09941895
v -0.1734253 -0.3154434 -0.1723386
v 0.1734241 -0.3154434 -0.1723386
v 0.1635095 -0.3417827 0.09941895
v 0.1734241 -0.3154434 0.1723386
v -0.1734253 -0.3154434 0.1723386
v 0.2458923 -0.3154434 -0.1054465
v 0.2458923 -0.3154434 0.1054465
v -0.2409192 -0.3037565 0.1657861
v -0.2869299 -0.2518546 0.2010998
v 0.2409167 -0.3037565 0.1657861
v -0.2869299 -0.2518546 -0.2010998
v -0.2409192 -0.3037565 -0.1657861
v 0.2409167 -0.3037565 -0.1657861
v -0.2023669 -0.2518546 0.2334314
v -0.2869299 -0.2518546 0.2010998
v -0.3152393 -0.1619084 0.2209405
v -0.2223328 -0.1619084 0.2564624
v 0.2223328 -0.1619084 0.2564624
v 0.2023669 -0.2518546 0.2334314
v -0.1734253 -0.3154434 0.1723386
v 0.1734241 -0.3154434 0.1723386
v 0.2869299 -0.2518546 0.2010998
v 0.315238 -0.1619084 0.2209405
v -0.2409192 -0.3037565 0.1657861
v 0.2409167 -0.3037565 0.1657861
v -0.2869299 -0.2518546 0.2010998
v -0.321958 -0.2518546 0.1230441
v -0.3537219 -0.1619084 0.1351837
v -0.3152393 -0.1619084 0.2209405
v -0.321958 -0.2518546 -0.1230441
v -0.3537219 -0.1619084 -0.1351837
v -0.3152393 -0.1619084 -0.2209405
v -0.2869299 -0.2518546 -0.2010998
v 0.2458923 -0.3154434 0.1054465
v 0.3219568 -0.2518546 0.1230441
v 0.3219568 -0.2518546 -0.1230441
v 0.2458923 -0.3154434 -0.1054465
v 0.3537219 -0.1619084 -0.1351837
v 0.2869299 -0.2518546 -0.2010998
v 0.315238 -0.1619084 -0.2209405
v 0.3537219 -0.1619084 0.1351837
v 0.315238 -0.1619084 0.2209405
v 0.2869299 -0.2518546 0.2010998
v 0.2409167 -0.3037565 0.1657861
v 0.2409167 -0.3037565 -0.1657861
v -0.2869299 -0.2518546 -0.2010998
v -0.2023669 -0.2518546 -0.2334314
v -0.2223328 -0.1619084 -0.2564624
v -0.3152393 -0.1619084 -0.2209405
v 0.2223328 -0.1619084 -0.2564624
v 0.2023669 -0.2518546 -0.2334314
v 0.1734241 -0.3154434 -0.1723386
v -0.1734253 -0.3154434 -0.1723386
v 0.315238 -0.1619084 -0.2209405
v 0.2869299 -0.2518546 -0.2010998
v -0.2409192 -0.3037565 -0.1657861
v 0.2409167 -0.3037565 -0.1657861
vt 0.9213867 0.2243652
vt 0.9213867 0.2362061
vt 0.925293 0.2349854
vt 0.925293 0.2253418
vt 0.9287109 0.2346191
vt 0.9287109 0.225708
vt 0.9423828 0.234375
vt 0.9282227 0.237915
vt 0.9428711 0.2376709
vt 0.9267578 0.2415771
vt 0.9448242 0.241333
vt 0.9423828 0.2254639
vt 0.9428711 0.222168
vt 0.9282227 0.2224121
vt 0.9443359 0.2185059
vt 0.9267578 0.2188721
vt 0.9458008 0.2347412
vt 0.9458008 0.2250977
vt 0.949707 0.2357178
vt 0.949707 0.223999
vt 0.9536133 0.2369385
vt 0.9482422 0.2393799
vt 0.9233398 0.2207031
vt 0.925293 0.2226563
vt 0.9477539 0.2203369
vt 0.9458008 0.2224121
vt 0.9458008 0.2374268
vt 0.9267578 0.2188721
vt 0.9248047 0.215332
vt 0.9204102 0.2183838
vt 0.9233398 0.2207031
vt 0.9458008 0.21521
vt 0.9443359 0.2185059
vt 0.9477539 0.2203369
vt 0.9506836 0.2180176
vt 0.9248047 0.215332
vt 0.9458008 0.21521
vt 0.9204102 0.2183838
vt 0.9506836 0.2180176
vt 0.9233398 0.2207031
vt 0.9204102 0.2183838
vt 0.9179688 0.2230225
vt 0.9213867 0.2243652
vt 0.9213867 0.2362061
vt 0.9179688 0.2374268
vt 0.9208984 0.2421875
vt 0.9233398 0.2397461
vt 0.9179688 0.2230225
vt 0.9204102 0.2183838
vt 0.9179688 0.2374268
vt 0.9208984 0.2421875
vt 0.949707 0.223999
vt 0.953125 0.2226563
vt 0.9506836 0.2180176
vt 0.9477539 0.2203369
vt 0.9536133 0.2369385
vt 0.953125 0.2226563
vt 0.9536133 0.2369385
vt 0.9506836 0.2416992
vt 0.9482422 0.2393799
vt 0.9506836 0.2416992
vt 0.9506836 0.2180176
vt 0.9233398 0.2397461
vt 0.9208984 0.2421875
vt 0.925293 0.2451172
vt 0.9267578 0.2415771
vt 0.9462891 0.2446289
vt 0.9448242 0.241333
vt 0.9506836 0.2416992
vt 0.9482422 0.2393799
vt 0.925293 0.2451172
vt 0.9208984 0.2421875
vt 0.9462891 0.2446289
vt 0.9506836 0.2416992
vt 0.9257813 0.2376709
vt 0.9233398 0.2397461
vt 0.9213867 0.2243652
vt 0.925293 0.2253418
vt 0.925293 0.2349854
vt 0.9213867 0.2362061
vt 0.9287109 0.2346191
vt 0.9287109 0.225708
vt 0.9423828 0.234375
vt 0.9282227 0.237915
vt 0.9428711 0.2376709
vt 0.9423828 0.2254639
vt 0.9428711 0.222168
vt 0.9282227 0.2224121
vt 0.9458008 0.2347412
vt 0.9458008 0.2250977
vt 0.925293 0.2226563
vt 0.9233398 0.2207031
vt 0.9458008 0.2224121
vt 0.9233398 0.2397461
vt 0.9257813 0.2376709
vt 0.9458008 0.2374268
vt 0.9267578 0.2188721
vt 0.9233398 0.2207031
vt 0.9204102 0.2183838
vt 0.9248047 0.215332
vt 0.9458008 0.21521
vt 0.9443359 0.2185059
vt 0.9282227 0.2224121
vt 0.9428711 0.222168
vt 0.9477539 0.2203369
vt 0.9506836 0.2180176
vt 0.925293 0.2226563
vt 0.9458008 0.2224121
vt 0.9233398 0.2207031
vt 0.9213867 0.2243652
vt 0.9179688 0.2230225
vt 0.9204102 0.2183838
vt 0.9213867 0.2362061
vt 0.9179688 0.2374268
vt 0.9208984 0.2421875
vt 0.9233398 0.2397461
vt 0.9458008 0.2250977
vt 0.949707 0.223999
vt 0.949707 0.2357178
vt 0.9458008 0.2347412
vt 0.9536133 0.2369385
vt 0.9482422 0.2393799
vt 0.9506836 0.2416992
vt 0.953125 0.2226563
vt 0.9506836 0.2180176
vt 0.9477539 0.2203369
vt 0.9458008 0.2224121
vt 0.9458008 0.2374268
vt 0.9233398 0.2397461
vt 0.9267578 0.2415771
vt 0.925293 0.2451172
vt 0.9208984 0.2421875
vt 0.9462891 0.2446289
vt 0.9448242 0.241333
vt 0.9428711 0.2376709
vt 0.9282227 0.237915
vt 0.9506836 0.2416992
vt 0.9482422 0.2393799
vt 0.9257813 0.2376709
vt 0.9458008 0.2374268
vn -0.8121746 0.57897 0.07187672
vn -0.8121743 0.5789704 -0.07187679
vn -0.4650866 0.8841412 -0.04459651
vn -0.4650866 0.8841412 0.04459649
vn -0.05331747 0.9954945 -0.07840814
vn -0.05331745 0.9954945 0.07840817
vn 0.05331714 0.9954945 -0.07840842
vn -0.03203908 0.8609684 -0.5076485
vn 0.03203925 0.8609675 -0.5076499
vn -0.05347775 0.5053388 -0.8612623
vn 0.05347815 0.5053387 -0.8612624
vn 0.05331708 0.9954945 0.0784084
vn 0.03203911 0.8609675 0.5076498
vn -0.03203913 0.8609683 0.5076485
vn 0.05347787 0.5053385 0.8612625
vn -0.05347754 0.5053392 0.8612621
vn 0.4650848 0.8841422 -0.04459581
vn 0.4650849 0.8841422 0.04459577
vn 0.8121707 0.5789754 -0.07187612
vn 0.812171 0.5789751 0.07187615
vn 0.9918922 0.06980615 -0.1061935
vn 0.5823675 0.5648351 -0.5846447
vn -0.5823634 0.5648339 0.5846499
vn -0.3654501 0.8529412 0.3727433
vn 0.5823675 0.5648342 0.5846454
vn 0.3654518 0.8529415 0.3727408
vn 0.3654515 0.8529415 -0.3727413
vn -0.05347754 0.5053392 0.8612621
vn -0.07077505 0.003865031 0.9974848
vn -0.6912155 0.04320768 0.7213559
vn -0.5823634 0.5648339 0.5846499
vn 0.0707752 0.00386502 0.9974848
vn 0.05347787 0.5053385 0.8612625
vn 0.5823675 0.5648342 0.5846454
vn 0.6912156 0.04320625 0.7213559
vn -0.07073937 -0.1002068 0.9924488
vn 0.07073952 -0.1002067 0.9924488
vn -0.6947329 -0.09984656 0.7123039
vn 0.694733 -0.09984603 0.7123039
vn -0.5823634 0.5648339 0.5846499
vn -0.6912155 0.04320768 0.7213559
vn -0.9918925 0.06980525 0.1061909
vn -0.8121746 0.57897 0.07187672
vn -0.8121743 0.5789704 -0.07187679
vn -0.9918926 0.06980491 -0.1061909
vn -0.6912155 0.04320734 -0.7213559
vn -0.5823641 0.564834 -0.5846492
vn -0.9922633 -0.07040643 0.1022568
vn -0.6947329 -0.09984656 0.7123039
vn -0.9922632 -0.07040679 -0.1022568
vn -0.6947328 -0.09984679 -0.7123041
vn 0.812171 0.5789751 0.07187615
vn 0.9918922 0.06980593 0.1061935
vn 0.6912156 0.04320625 0.7213559
vn 0.5823675 0.5648342 0.5846454
vn 0.9918922 0.06980615 -0.1061935
vn 0.992263 -0.07040841 0.1022594
vn 0.992263 -0.07040824 -0.1022594
vn 0.6912158 0.04320662 -0.7213557
vn 0.5823675 0.5648351 -0.5846447
vn 0.694733 -0.09984574 -0.712304
vn 0.694733 -0.09984603 0.7123039
vn -0.5823641 0.564834 -0.5846492
vn -0.6912155 0.04320734 -0.7213559
vn -0.07077518 0.00386514 -0.9974848
vn -0.05347775 0.5053388 -0.8612623
vn 0.0707753 0.003865012 -0.9974848
vn 0.05347815 0.5053387 -0.8612624
vn 0.6912158 0.04320662 -0.7213557
vn 0.5823675 0.5648351 -0.5846447
vn -0.07073938 -0.1002066 -0.9924488
vn -0.6947328 -0.09984679 -0.7123041
vn 0.07073953 -0.1002067 -0.9924488
vn 0.694733 -0.09984574 -0.712304
vn -0.3654508 0.8529412 -0.3727427
vn -0.5823641 0.564834 -0.5846492
vn -0.8366933 -0.541706 0.08061597
vn -0.5009955 -0.8638613 0.05241467
vn -0.5009964 -0.8638607 -0.052415
vn -0.8366936 -0.5417055 -0.08061612
vn -0.05852661 -0.9938492 -0.09401242
vn -0.05852653 -0.9938492 0.09401239
vn 0.05852623 -0.9938492 -0.09401273
vn -0.03362349 -0.816469 -0.5764093
vn 0.03362343 -0.8164687 -0.5764099
vn 0.05852624 -0.9938492 0.09401279
vn 0.03362346 -0.8164686 0.57641
vn -0.03362333 -0.816469 0.5764093
vn 0.5009935 -0.8638625 -0.05241368
vn 0.5009934 -0.8638625 0.05241392
vn -0.3855901 -0.8165349 0.4296407
vn -0.5818464 -0.5131724 0.6309587
vn 0.3855889 -0.8165377 0.4296364
vn -0.5818476 -0.5131708 -0.6309587
vn -0.3855935 -0.8165332 -0.4296408
vn 0.3855894 -0.816538 -0.4296353
vn -0.05185824 -0.4410121 0.8960017
vn -0.5818464 -0.5131724 0.6309587
vn -0.6947329 -0.09984656 0.7123039
vn -0.07073937 -0.1002068 0.9924488
vn 0.07073952 -0.1002067 0.9924488
vn 0.05185852 -0.4410122 0.8960017
vn -0.03362333 -0.816469 0.5764093
vn 0.03362346 -0.8164686 0.57641
vn 0.5818512 -0.5131722 0.6309543
vn 0.694733 -0.09984603 0.7123039
vn -0.3855901 -0.8165349 0.4296407
vn 0.3855889 -0.8165377 0.4296364
vn -0.5818464 -0.5131724 0.6309587
vn -0.8366933 -0.541706 0.08061597
vn -0.9922633 -0.07040643 0.1022568
vn -0.6947329 -0.09984656 0.7123039
vn -0.8366936 -0.5417055 -0.08061612
vn -0.9922632 -0.07040679 -0.1022568
vn -0.6947328 -0.09984679 -0.7123041
vn -0.5818476 -0.5131708 -0.6309587
vn 0.5009934 -0.8638625 0.05241392
vn 0.8366883 -0.5417137 0.0806155
vn 0.8366883 -0.541714 -0.08061534
vn 0.5009935 -0.8638625 -0.05241368
vn 0.992263 -0.07040824 -0.1022594
vn 0.5818515 -0.513172 -0.6309543
vn 0.694733 -0.09984574 -0.712304
vn 0.992263 -0.07040841 0.1022594
vn 0.694733 -0.09984603 0.7123039
vn 0.5818512 -0.5131722 0.6309543
vn 0.3855889 -0.8165377 0.4296364
vn 0.3855894 -0.816538 -0.4296353
vn -0.5818476 -0.5131708 -0.6309587
vn -0.05185825 -0.4410118 -0.8960018
vn -0.07073938 -0.1002066 -0.9924488
vn -0.6947328 -0.09984679 -0.7123041
vn 0.07073953 -0.1002067 -0.9924488
vn 0.05185856 -0.4410119 -0.8960018
vn 0.03362343 -0.8164687 -0.5764099
vn -0.03362349 -0.816469 -0.5764093
vn 0.694733 -0.09984574 -0.712304
vn 0.5818515 -0.513172 -0.6309543
vn -0.3855935 -0.8165332 -0.4296408
vn 0.3855894 -0.816538 -0.4296353
g m_dlc7_cobble_edge_02_0
f 3/3/3 2/2/2 1/1/1
f 4/4/4 3/3/3 1/1/1
f 5/5/5 3/3/3 4/4/4
f 6/6/6 5/5/5 4/4/4
f 7/7/7 5/5/5 6/6/6
f 5/5/5 7/7/7 8/8/8
f 5/5/5 8/8/8 3/3/3
f 7/7/7 9/9/9 8/8/8
f 8/8/8 9/9/9 10/10/10
f 9/9/9 11/11/11 10/10/10
f 12/12/12 7/7/7 6/6/6
f 13/13/13 12/12/12 6/6/6
f 14/14/14 13/13/13 6/6/6
f 6/6/6 4/4/4 14/14/14
f 15/15/15 13/13/13 14/14/14
f 16/16/16 15/15/15 14/14/14
f 17/17/17 7/7/7 12/12/12
f 7/7/7 17/17/17 9/9/9
f 18/18/18 17/17/17 12/12/12
f 12/12/12 13/13/13 18/18/18
f 19/19/19 17/17/17 18/18/18
f 20/20/20 19/19/19 18/18/18
f 21/21/21 19/19/19 20/20/20
f 19/19/19 21/21/21 22/22/22
f 19/19/19 22/22/22 17/17/17
f 11/11/11 9/9/9 22/22/22
f 16/16/16 14/14/14 23/23/23
f 14/14/14 24/24/24 23/23/23
f 4/4/4 24/24/24 14/14/14
f 23/23/23 24/24/24 4/4/4
f 1/1/1 23/23/23 4/4/4
f 20/20/20 18/18/18 25/25/25
f 15/15/15 25/25/25 13/13/13
f 18/18/18 26/26/26 25/25/25
f 13/13/13 26/26/26 18/18/18
f 25/25/25 26/26/26 13/13/13
f 22/22/22 27/27/27 17/17/17
f 9/9/9 27/27/27 22/22/22
f 17/17/17 27/27/27 9/9/9
f 30/30/30 29/29/29 28/28/28
f 31/31/31 30/30/30 28/28/28
f 29/29/29 32/32/32 28/28/28
f 32/32/32 33/33/33 28/28/28
f 33/33/33 32/32/32 34/34/34
f 32/32/32 35/35/35 34/34/34
f 29/29/29 36/36/36 32/32/32
f 36/36/36 37/37/37 32/32/32
f 32/32/32 37/37/37 35/35/35
f 38/38/38 36/36/36 29/29/29
f 30/30/30 38/38/38 29/29/29
f 37/37/37 39/39/39 35/35/35
f 42/42/42 41/41/41 40/40/40
f 43/43/43 42/42/42 40/40/40
f 42/42/42 43/43/43 44/44/44
f 45/45/45 42/42/42 44/44/44
f 46/46/46 45/45/45 44/44/44
f 47/47/47 46/46/46 44/44/44
f 42/42/42 48/48/48 41/41/41
f 48/48/48 49/49/49 41/41/41
f 50/50/50 48/48/48 42/42/42
f 45/45/45 50/50/50 42/42/42
f 51/51/51 50/50/50 45/45/45
f 46/46/46 51/51/51 45/45/45
f 54/54/54 53/53/53 52/52/52
f 55/55/55 54/54/54 52/52/52
f 53/53/53 56/56/56 52/52/52
f 53/53/53 57/57/57 56/56/56
f 57/57/57 58/58/58 56/56/56
f 56/56/56 58/58/58 59/59/59
f 56/56/56 59/59/59 60/60/60
f 58/58/58 61/61/61 59/59/59
f 62/62/62 57/57/57 53/53/53
f 54/54/54 62/62/62 53/53/53
f 65/65/65 64/64/64 63/63/63
f 66/66/66 65/65/65 63/63/63
f 67/67/67 65/65/65 66/66/66
f 68/68/68 67/67/67 66/66/66
f 69/69/69 67/67/67 68/68/68
f 70/70/70 69/69/69 68/68/68
f 65/65/65 71/71/71 64/64/64
f 71/71/71 72/72/72 64/64/64
f 73/73/73 71/71/71 65/65/65
f 67/67/67 73/73/73 65/65/65
f 74/74/74 73/73/73 67/67/67
f 69/69/69 74/74/74 67/67/67
f 76/76/76 75/75/75 8/8/8
f 10/10/10 76/76/76 8/8/8
f 3/3/3 75/75/75 76/76/76
f 8/8/8 75/75/75 3/3/3
f 2/2/2 3/3/3 76/76/76
f 79/79/79 78/78/78 77/77/77
f 80/80/80 79/79/79 77/77/77
f 79/79/79 81/81/81 78/78/78
f 81/81/81 82/82/82 78/78/78
f 81/81/81 83/83/83 82/82/82
f 83/83/83 81/81/81 84/84/84
f 84/84/84 81/81/81 79/79/79
f 85/85/85 83/83/83 84/84/84
f 83/83/83 86/86/86 82/82/82
f 86/86/86 87/87/87 82/82/82
f 87/87/87 88/88/88 82/82/82
f 78/78/78 82/82/82 88/88/88
f 83/83/83 89/89/89 86/86/86
f 89/89/89 83/83/83 85/85/85
f 89/89/89 90/90/90 86/86/86
f 87/87/87 86/86/86 90/90/90
f 91/91/91 78/78/78 88/88/88
f 92/92/92 77/77/77 78/78/78
f 91/91/91 92/92/92 78/78/78
f 93/93/93 87/87/87 90/90/90
f 79/79/79 80/80/80 94/94/94
f 95/95/95 79/79/79 94/94/94
f 95/95/95 84/84/84 79/79/79
f 96/96/96 89/89/89 85/85/85
f 99/99/99 98/98/98 97/97/97
f 100/100/100 99/99/99 97/97/97
f 101/101/101 100/100/100 97/97/97
f 102/102/102 101/101/101 97/97/97
f 102/102/102 97/97/97 103/103/103
f 103/103/103 97/97/97 98/98/98
f 104/104/104 102/102/102 103/103/103
f 101/101/101 102/102/102 105/105/105
f 105/105/105 102/102/102 104/104/104
f 106/106/106 101/101/101 105/105/105
f 107/107/107 103/103/103 98/98/98
f 108/108/108 105/105/105 104/104/104
f 111/111/111 110/110/110 109/109/109
f 112/112/112 111/111/111 109/109/109
f 110/110/110 111/111/111 113/113/113
f 111/111/111 114/114/114 113/113/113
f 114/114/114 115/115/115 113/113/113
f 115/115/115 116/116/116 113/113/113
f 119/119/119 118/118/118 117/117/117
f 120/120/120 119/119/119 117/117/117
f 119/119/119 121/121/121 118/118/118
f 121/121/121 119/119/119 122/122/122
f 122/122/122 119/119/119 120/120/120
f 123/123/123 121/121/121 122/122/122
f 121/121/121 124/124/124 118/118/118
f 124/124/124 125/125/125 118/118/118
f 125/125/125 126/126/126 118/118/118
f 117/117/117 118/118/118 126/126/126
f 127/127/127 117/117/117 126/126/126
f 128/128/128 122/122/122 120/120/120
f 131/131/131 130/130/130 129/129/129
f 132/132/132 131/131/131 129/129/129
f 131/131/131 133/133/133 130/130/130
f 133/133/133 134/134/134 130/130/130
f 134/134/134 135/135/135 130/130/130
f 135/135/135 136/136/136 130/130/130
f 129/129/129 130/130/130 136/136/136
f 133/133/133 137/137/137 134/134/134
f 137/137/137 138/138/138 134/134/134
f 135/135/135 134/134/134 138/138/138
f 139/139/139 129/129/129 136/136/136
f 140/140/140 135/135/135 138/138/138
