g m_dlc07_stone_block_trim_03
v 1.2 -0.2493671 -0.09533478
v 1.2 -0.4640344 -0.09533478
v 1.167269 -0.4640344 -0.06260345
v 1.167269 -0.2493671 -0.06260345
v 1.167269 -0.4967657 -0.09533478
v 1.2 -0.03273132 -0.09533478
v 1.2 -0.03251068 -0.4847571
v 1.167269 -2.865338E-14 -0.09533478
v 1.167269 -0.03273132 -0.06260345
v 1.167269 -2.865338E-14 -0.504867
v 1.167269 -0.01210144 -0.5340094
v 1.2 -0.04430145 -0.5141668
v 1.2 -0.2567444 -0.7246704
v 1.167269 -0.237164 -0.7582769
v 1.167269 -0.2663049 -0.7703174
v 1.2 -0.2860819 -0.7364783
v 1.2 -0.3641483 -0.7369644
v 1.167269 -0.3642691 -0.7703174
v 1.2 -0.4640344 -0.6280322
v 1.2 -0.4640344 -0.09533478
v 1.167269 -0.4967657 -0.6178769
v 0.3273163 -0.03273132 -0.06260345
v 0.03273132 -0.03273132 -0.06260345
v 0.03273132 -8.034679E-16 -0.09533478
v 0.3273163 -8.034755E-15 -0.09533478
v 0.03273132 -8.034679E-16 -0.504867
v 0.3273163 -8.034755E-15 -0.504867
v 0.03273132 -0.01210144 -0.5340094
v 0.3273163 -0.01210144 -0.5340094
v 0.3273163 -0.2493671 -0.06260345
v 0.03273132 -0.2493671 -0.06260345
v 0.3273163 -0.4640344 -0.06260345
v 0.03273132 -0.4640344 -0.06260345
v 0.3273163 -0.4967657 -0.09533478
v 0.03273132 -0.4967657 -0.09533478
v 1.167269 -0.4967657 -0.09533478
v 1.167269 -0.4640344 -0.06260345
v 1.167269 -0.2493671 -0.06260345
v 1.167269 -0.03273132 -0.06260345
v 1.167269 -2.865338E-14 -0.09533478
v 1.167269 -2.865338E-14 -0.504867
v 1.167269 -0.01210144 -0.5340094
v 1.167269 -0.237164 -0.7582769
v 0.1913251 -0.1313098 -0.6527966
v 0.2330014 -0.237164 -0.7582769
v 0.1901453 -0.1680463 -0.68203
v 0.2183917 -0.2400613 -0.7535992
v 0.2346204 -0.2663049 -0.7703174
v 0.2199023 -0.2652756 -0.7642407
v 0.1854538 -0.3570596 -0.7703174
v 0.1859909 -0.327991 -0.7648324
v 0.1883523 -0.2678934 -0.7377694
v 0.1887531 -0.2535394 -0.7318386
v 1.167269 -0.2663049 -0.7703174
v 0.03273132 -0.237164 -0.7582769
v 0.1389001 -0.237164 -0.7582769
v 0.1538657 -0.239819 -0.7539905
v 0.1901453 -0.1680463 -0.68203
v 0.1520264 -0.2658694 -0.7650586
v 0.1371387 -0.2663049 -0.7703174
v 0.1859909 -0.327991 -0.7648324
v 0.1887531 -0.2535394 -0.7318386
v 0.1883523 -0.2678934 -0.7377694
v 0.03273132 -0.4640344 -0.7703177
v 0.3273163 -0.4640344 -0.7703177
v 0.03273132 -0.4967657 -0.7375863
v 0.3273163 -0.4967657 -0.7375863
v 0.03273132 -0.4967657 -0.09533478
v 0.3273163 -0.4967657 -0.09533478
v 0.03273132 -0.2663049 -0.7703174
v 1.167269 -0.4967657 -0.6178769
v 1.046154 -0.4967657 -0.7375863
v 1.167269 -0.4967657 -0.09533478
v 1.045709 -0.4640344 -0.7703177
v 1.167269 -0.3642691 -0.7703174
v 0.03273132 -0.2493671 -0.06260345
v 0.03273132 -0.4640344 -0.06260345
v 0 -0.4640344 -0.09533478
v 0 -0.2493671 -0.09533478
v 0.03273132 -0.4967657 -0.09533478
v 0 -0.4640344 -0.7375863
v 0.03273132 -0.4967657 -0.7375863
v 0.03273132 -0.4640344 -0.7703177
v 0 -0.2860819 -0.7364783
v 0.03273132 -0.2663049 -0.7703174
v 0.03273132 -0.237164 -0.7582769
v 0 -0.2567444 -0.7246704
v 0 -0.04430145 -0.5141668
v 0 -0.03251068 -0.4847571
v 0.03273132 -8.034679E-16 -0.504867
v 0.03273132 -0.01210144 -0.5340094
v 0 -0.03273132 -0.09533478
v 0.03273132 -8.034679E-16 -0.09533478
v 0.03273132 -0.03273132 -0.06260345
v 1.132192 -0.4369484 -0.7422363
v 1.13395 -0.4699261 -0.7033539
v 1.172551 -0.4369702 -0.708497
v 1.191439 -0.4630972 -0.6556314
v 1.165981 -0.4841871 -0.6429419
v 1.167269 -0.4967657 -0.6178769
v 1.2 -0.4640344 -0.6280322
v 1.189972 -0.386236 -0.7373205
v 1.2 -0.3641483 -0.7369644
v 1.165596 -0.3864048 -0.7616705
v 1.167269 -0.3642691 -0.7703174
v 1.046154 -0.4967657 -0.7375863
v 1.069472 -0.487715 -0.7351312
v 1.045709 -0.4640344 -0.7703177
v 1.069002 -0.4646553 -0.7589316
vt 0.01739502 0.8071289
vt 0.0137558 0.8071289
vt 0.01364136 0.8081055
vt 0.01739502 0.8081055
vt 0.0129776 0.8071289
vt 0.02110291 0.8071289
vt 0.02111816 0.800293
vt 0.0218811 0.8071289
vt 0.02120972 0.8081055
vt 0.02189636 0.7998047
vt 0.02165222 0.7993164
vt 0.0209198 0.7998047
vt 0.01731873 0.7958984
vt 0.01779175 0.7949219
vt 0.01725769 0.7944336
vt 0.01683044 0.7954102
vt 0.0154953 0.7954102
vt 0.01554108 0.7944336
vt 0.01377106 0.7973633
vt 0.0137558 0.8071289
vt 0.0129776 0.7978516
vt 0.008102417 0.762207
vt 0.003080368 0.762207
vt 0.003082275 0.7626953
vt 0.008110046 0.7626953
vt 0.003101349 0.7705078
vt 0.008125305 0.7705078
vt 0.003103256 0.7709961
vt 0.008125305 0.7709961
vt 0.008094788 0.7578125
vt 0.003068924 0.7578125
vt 0.008087158 0.7539063
vt 0.00305748 0.7539063
vt 0.008079529 0.753418
vt 0.003055573 0.753418
vt 0.02241516 0.753418
vt 0.02241516 0.7539063
vt 0.02243042 0.7578125
vt 0.02244568 0.7617188
vt 0.02244568 0.7626953
vt 0.0224762 0.7700195
vt 0.0224762 0.7709961
vt 0.02249146 0.7768555
vt 0.005802155 0.7739258
vt 0.006591797 0.7768555
vt 0.005779266 0.7749023
vt 0.006351471 0.7768555
vt 0.0066185 0.7773438
vt 0.006370544 0.7773438
vt 0.005718231 0.7788086
vt 0.005718231 0.7783203
vt 0.005737305 0.7768555
vt 0.005741119 0.7768555
vt 0.02249146 0.7773438
vt 0.003013611 0.7768555
vt 0.004802704 0.7768555
vt 0.005054474 0.7768555
vt 0.005779266 0.7749023
vt 0.0050354 0.7773438
vt 0.00478363 0.7773438
vt 0.005718231 0.7783203
vt 0.005741119 0.7768555
vt 0.005737305 0.7768555
vt 0.003126144 0.7807617
vt 0.008155823 0.7807617
vt 0.003124237 0.7817383
vt 0.008155823 0.7817383
vt 0.003116608 0.793457
vt 0.008148193 0.793457
vt 0.003025055 0.7773438
vt 0.02249146 0.7836914
vt 0.02041626 0.7817383
vt 0.02249146 0.793457
vt 0.02041626 0.7807617
vt 0.02249146 0.7788086
vt 0.04730225 0.7944336
vt 0.04351807 0.7944336
vt 0.04364014 0.7954102
vt 0.04730225 0.7954102
vt 0.0428772 0.7954102
vt 0.04367065 0.8071289
vt 0.0428772 0.8071289
vt 0.04354858 0.8081055
vt 0.04669189 0.8071289
vt 0.04705811 0.8081055
vt 0.04763794 0.8076172
vt 0.04721069 0.8071289
vt 0.05081177 0.8032227
vt 0.05099487 0.8027344
vt 0.05178833 0.8027344
vt 0.05154419 0.8037109
vt 0.05099487 0.7954102
vt 0.05178833 0.7954102
vt 0.05111694 0.7944336
vt 0.004508972 0.8110352
vt 0.003793716 0.8115234
vt 0.004558563 0.8120117
vt 0.003955841 0.8129883
vt 0.003372192 0.8129883
vt 0.003013611 0.8129883
vt 0.003810883 0.8134766
vt 0.005592346 0.8120117
vt 0.00598526 0.8120117
vt 0.005584717 0.8115234
vt 0.00598526 0.8110352
vt 0.003013611 0.8100586
vt 0.003305435 0.8105469
vt 0.0037117 0.8095703
vt 0.003789902 0.8100586
vn 1 0 0
vn 1 0 0
vn 0 0 1
vn 0 0 1
vn 0 -1 0
vn 1 0 0
vn 1 0 0
vn 0 1 0
vn 0 0 1
vn 0 1 0
vn 0 0.7058557 -0.7083556
vn 1 0 0
vn 1 0 0
vn 0 0.7058557 -0.7083556
vn 0.02893298 0.09605955 -0.994955
vn 1 0 0
vn 0.9997631 -0.004053019 -0.02138533
vn 0.02990929 -0.006404307 -0.9995321
vn 0.9967697 -0.08023071 -0.003648256
vn 0.9922338 -0.1243874 0
vn 0.02531421 -0.999679 -0.001042395
vn 0 0.1301413 0.9914955
vn 0 0 1
vn 0 1 0
vn 0 0.9972726 0.07380679
vn 0 1 0
vn 0 0.9996197 -0.02757588
vn 0 0.7058557 -0.7083556
vn 0 0.7316012 -0.6817328
vn 0 0 1
vn 0 0 1
vn 0 -0.131159 0.9913613
vn 0 0 1
vn 0 -0.9988039 0.04889698
vn 0 -1 0
vn 0 -1 0
vn 0 0 1
vn 0 0 1
vn 0 0 1
vn 0 1 0
vn 0 1 0
vn 0 0.7058557 -0.7083556
vn 0 0.7058557 -0.7083556
vn 4.296077E-06 0.7056169 -0.7085935
vn -0.006123176 0.6305491 -0.7761252
vn -0.3861181 0.5700463 -0.7252311
vn -0.4939249 0.4690821 -0.7321203
vn -0.003096528 0.08012475 -0.9967801
vn -0.4790376 0.2728489 -0.834312
vn -1.064956E-05 0.001109687 -0.9999994
vn -0.4034172 0.2225038 -0.8875509
vn -0.6287965 0.3156761 -0.7106079
vn -0.6498366 0.3546946 -0.6722382
vn 0.02893298 0.09605955 -0.994955
vn 0 0.7058557 -0.7083556
vn 0.04304526 0.6245866 -0.7797684
vn 0.4540609 0.4673829 -0.7585393
vn 0.3616083 0.5622238 -0.7437364
vn 0.447441 0.2591451 -0.8559442
vn 0.01393355 0.05300349 -0.9984971
vn 0.3844356 0.2063446 -0.8997951
vn 0.5960313 0.361433 -0.7170167
vn 0.5846177 0.3013058 -0.7532841
vn -0.18162 -0.274043 -0.9444123
vn 0 -0.1819793 -0.9833023
vn 0 -1 0
vn 0 -0.9990356 -0.04390751
vn 0 -1 0
vn 0 -0.9988039 0.04889698
vn -0.2047458 0.05816715 -0.9770854
vn 0.02531421 -0.999679 -0.001042395
vn 0.001013527 -0.9995589 -0.02968337
vn 0.0314136 -0.9995065 0
vn 0.004279353 -0.1505492 -0.9885932
vn 0.02990929 -0.006404307 -0.9995321
vn 0 0 1
vn 0 0 1
vn -1 0 0
vn -1 0 0
vn 0 -1 0
vn -1 0 0
vn 0 -1 0
vn -0.18162 -0.274043 -0.9444123
vn -1 0 0
vn -0.2047458 0.05816715 -0.9770854
vn 0 0.7058557 -0.7083556
vn -1 0 0
vn -1 0 0
vn -1 0 0
vn 0 1 0
vn 0 0.7058557 -0.7083556
vn -1 0 0
vn 0 1 0
vn 0 0 1
vn 0.4900053 -0.644907 -0.5865064
vn 0.4900053 -0.644907 -0.5865064
vn 0.4900053 -0.644907 -0.5865064
vn 0.4900053 -0.644907 -0.5865064
vn 0.4900053 -0.644907 -0.5865064
vn 0.02531421 -0.999679 -0.001042395
vn 0.9967697 -0.08023071 -0.003648256
vn 0.4900053 -0.644907 -0.5865064
vn 0.9997631 -0.004053019 -0.02138533
vn 0.4900053 -0.644907 -0.5865064
vn 0.02990929 -0.006404307 -0.9995321
vn 0.001013527 -0.9995589 -0.02968337
vn 0.4900053 -0.644907 -0.5865064
vn 0.004279353 -0.1505492 -0.9885932
vn 0.4900053 -0.644907 -0.5865064
g m_dlc07_stone_block_trim_03_0
f 3/3/3 2/2/2 1/1/1
f 4/4/4 3/3/3 1/1/1
f 2/2/2 3/3/3 5/5/5
f 4/4/4 1/1/1 6/6/6
f 7/7/7 6/6/6 1/1/1
f 6/6/6 7/7/7 8/8/8
f 8/8/8 9/9/9 6/6/6
f 9/9/9 4/4/4 6/6/6
f 7/7/7 10/10/10 8/8/8
f 11/11/11 10/10/10 7/7/7
f 12/12/12 11/11/11 7/7/7
f 12/12/12 7/7/7 1/1/1
f 12/12/12 13/13/13 11/11/11
f 13/13/13 12/12/12 1/1/1
f 13/13/13 14/14/14 11/11/11
f 15/15/15 14/14/14 13/13/13
f 16/16/16 15/15/15 13/13/13
f 13/13/13 1/1/1 16/16/16
f 17/17/17 16/16/16 1/1/1
f 16/16/16 17/17/17 15/15/15
f 17/17/17 18/18/18 15/15/15
f 20/20/20 19/19/19 17/17/17
f 17/17/17 1/1/1 20/20/20
f 21/21/21 19/19/19 20/20/20
f 5/5/5 21/21/21 20/20/20
f 24/24/24 23/23/23 22/22/22
f 25/25/25 24/24/24 22/22/22
f 26/26/26 24/24/24 25/25/25
f 27/27/27 26/26/26 25/25/25
f 28/28/28 26/26/26 27/27/27
f 29/29/29 28/28/28 27/27/27
f 22/22/22 23/23/23 30/30/30
f 23/23/23 31/31/31 30/30/30
f 30/30/30 31/31/31 32/32/32
f 31/31/31 33/33/33 32/32/32
f 32/32/32 33/33/33 34/34/34
f 33/33/33 35/35/35 34/34/34
f 32/32/32 34/34/34 36/36/36
f 37/37/37 32/32/32 36/36/36
f 32/32/32 37/37/37 38/38/38
f 30/30/30 32/32/32 38/38/38
f 30/30/30 38/38/38 39/39/39
f 22/22/22 30/30/30 39/39/39
f 25/25/25 22/22/22 39/39/39
f 40/40/40 25/25/25 39/39/39
f 29/29/29 27/27/27 41/41/41
f 25/25/25 40/40/40 41/41/41
f 27/27/27 25/25/25 41/41/41
f 42/42/42 29/29/29 41/41/41
f 29/29/29 42/42/42 43/43/43
f 44/44/44 29/29/29 43/43/43
f 44/44/44 28/28/28 29/29/29
f 45/45/45 44/44/44 43/43/43
f 44/44/44 45/45/45 46/46/46
f 45/45/45 47/47/47 46/46/46
f 45/45/45 48/48/48 47/47/47
f 48/48/48 45/45/45 43/43/43
f 48/48/48 49/49/49 47/47/47
f 48/48/48 50/50/50 49/49/49
f 50/50/50 51/51/51 49/49/49
f 49/49/49 52/52/52 47/47/47
f 51/51/51 52/52/52 49/49/49
f 52/52/52 53/53/53 47/47/47
f 47/47/47 53/53/53 46/46/46
f 54/54/54 48/48/48 43/43/43
f 44/44/44 55/55/55 28/28/28
f 44/44/44 56/56/56 55/55/55
f 57/57/57 56/56/56 44/44/44
f 58/58/58 57/57/57 44/44/44
f 56/56/56 57/57/57 59/59/59
f 60/60/60 56/56/56 59/59/59
f 60/60/60 59/59/59 61/61/61
f 50/50/50 60/60/60 61/61/61
f 59/59/59 57/57/57 62/62/62
f 58/58/58 62/62/62 57/57/57
f 63/63/63 59/59/59 62/62/62
f 61/61/61 59/59/59 63/63/63
f 50/50/50 64/64/64 60/60/60
f 65/65/65 64/64/64 50/50/50
f 66/66/66 64/64/64 65/65/65
f 67/67/67 66/66/66 65/65/65
f 68/68/68 66/66/66 67/67/67
f 69/69/69 68/68/68 67/67/67
f 64/64/64 70/70/70 60/60/60
f 70/70/70 55/55/55 56/56/56
f 60/60/60 70/70/70 56/56/56
f 71/71/71 69/69/69 67/67/67
f 67/67/67 72/72/72 71/71/71
f 71/71/71 73/73/73 69/69/69
f 67/67/67 65/65/65 74/74/74
f 72/72/72 67/67/67 74/74/74
f 74/74/74 65/65/65 75/75/75
f 65/65/65 50/50/50 75/75/75
f 50/50/50 48/48/48 75/75/75
f 48/48/48 54/54/54 75/75/75
f 78/78/78 77/77/77 76/76/76
f 79/79/79 78/78/78 76/76/76
f 77/77/77 78/78/78 80/80/80
f 78/78/78 81/81/81 80/80/80
f 81/81/81 78/78/78 79/79/79
f 81/81/81 82/82/82 80/80/80
f 82/82/82 81/81/81 83/83/83
f 83/83/83 81/81/81 84/84/84
f 84/84/84 81/81/81 79/79/79
f 85/85/85 83/83/83 84/84/84
f 85/85/85 84/84/84 86/86/86
f 84/84/84 87/87/87 86/86/86
f 87/87/87 84/84/84 79/79/79
f 86/86/86 87/87/87 88/88/88
f 88/88/88 87/87/87 79/79/79
f 89/89/89 88/88/88 79/79/79
f 88/88/88 89/89/89 90/90/90
f 91/91/91 88/88/88 90/90/90
f 91/91/91 86/86/86 88/88/88
f 90/90/90 89/89/89 92/92/92
f 89/89/89 79/79/79 92/92/92
f 93/93/93 90/90/90 92/92/92
f 93/93/93 92/92/92 94/94/94
f 92/92/92 79/79/79 94/94/94
f 79/79/79 76/76/76 94/94/94
f 97/97/97 96/96/96 95/95/95
f 96/96/96 97/97/97 98/98/98
f 99/99/99 96/96/96 98/98/98
f 100/100/100 99/99/99 98/98/98
f 101/101/101 100/100/100 98/98/98
f 101/101/101 98/98/98 102/102/102
f 98/98/98 97/97/97 102/102/102
f 103/103/103 101/101/101 102/102/102
f 102/102/102 104/104/104 103/103/103
f 97/97/97 95/95/95 104/104/104
f 102/102/102 97/97/97 104/104/104
f 104/104/104 105/105/105 103/103/103
f 100/100/100 106/106/106 99/99/99
f 106/106/106 107/107/107 99/99/99
f 96/96/96 107/107/107 95/95/95
f 107/107/107 96/96/96 99/99/99
f 106/106/106 108/108/108 107/107/107
f 108/108/108 109/109/109 107/107/107
f 105/105/105 104/104/104 109/109/109
f 108/108/108 105/105/105 109/109/109
f 107/107/107 109/109/109 95/95/95
f 109/109/109 104/104/104 95/95/95
