g Boat_End_Right
v 3.000035 1.249795 -2.748528
v 1.843486 1.249795 -2.666561
v 1.843486 1.5 -2.666561
v 3.000035 1.5 -2.748528
v 0.7666644 1.5 -2.339911
v 0.7666644 1.249795 -2.339911
v -0.225741 1.5 -1.80946
v -0.225741 1.249795 -1.80946
v -1.095592 1.5 -1.095594
v -1.095592 1.249795 -1.095594
v -1.80946 1.5 -0.2257434
v -1.80946 1.249795 -0.2257434
v -2.339912 1.5 0.7666607
v -2.339912 1.249795 0.7666607
v -2.666563 1.5 1.843483
v -2.666563 1.249795 1.843483
v -2.748528 1.5 3.000035
v -2.748528 1.249795 3.000035
v 3.000036 1.250205 -3.255527
v 3.000036 1.5 -3.255527
v 1.767335 1.5 -3.187408
v 1.767335 1.249795 -3.187408
v 0.5879364 1.5 -2.829642
v 0.5879364 1.249795 -2.829642
v -0.4990033 1.5 -2.248661
v -0.4990033 1.249795 -2.248661
v -1.451715 1.5 -1.466792
v -1.451715 1.249795 -1.466792
v -2.233585 1.5 -0.514082
v -2.233585 1.249795 -0.514082
v -2.814567 1.5 0.572857
v -2.814567 1.249795 0.572857
v -3.172334 1.5 1.752256
v -3.172334 1.249795 1.752256
v -3.255527 1.5 3.000036
v -3.255527 1.250205 3.000036
v 3.000035 0 -2.841038
v 1.824875 0 -2.757753
v 1.824875 1.271274 -2.757753
v 3.000035 1.271274 -2.841038
v 0.7307233 1.271274 -2.425847
v 0.7307233 0 -2.425847
v -0.2776526 1.271274 -1.886859
v -0.2776526 0 -1.886859
v -0.2776526 0 -1.886859
v -1.161502 0 -1.161503
v -1.161502 1.271274 -1.161503
v -0.2776526 1.271274 -1.886859
v -1.886858 1.271274 -0.2776556
v -1.886858 0 -0.2776556
v -2.425847 1.271274 0.7307196
v -2.425847 0 0.7307196
v -2.757755 1.271274 1.824871
v -2.757755 0 1.824871
v -2.841038 1.271274 3.000035
v -2.841038 0 3.000035
v 3.000036 0 -3.159698
v 3.000036 1.271274 -3.159698
v 1.760764 1.271274 -3.071868
v 1.760764 0 -3.071868
v 0.6069201 1.271274 -2.721855
v 0.6069201 0 -2.721855
v -0.4564667 1.271274 -2.153463
v -0.4564667 0 -2.153463
v -0.4564667 0 -2.153463
v -0.4564667 1.271274 -2.153463
v -1.388536 1.271274 -1.388536
v -1.388536 0 -1.388536
v -2.153463 1.271274 -0.4564697
v -2.153463 0 -0.4564697
v -2.721857 1.271274 0.6069171
v -2.721857 0 0.6069171
v -3.071871 1.271274 1.76076
v -3.071871 0 1.76076
v -3.159698 1.271274 3.000036
v -3.159698 0 3.000036
v -2.748528 1.5 3.000035
v -3.255527 1.5 3.000036
v -3.172334 1.5 1.752256
v -2.666563 1.5 1.843483
v -2.814567 1.5 0.572857
v -2.339912 1.5 0.7666607
v -2.233585 1.5 -0.514082
v -1.80946 1.5 -0.2257434
v -1.451715 1.5 -1.466792
v -1.095592 1.5 -1.095594
v -0.4990033 1.5 -2.248661
v -0.225741 1.5 -1.80946
v 0.5879364 1.5 -2.829642
v 0.7666644 1.5 -2.339911
v 1.767335 1.5 -3.187408
v 1.843486 1.5 -2.666561
v 3.000036 1.5 -3.255527
v 3.000035 1.5 -2.748528
vt 0.1214322 0.4142746
vt 0.1488363 0.4142746
vt 0.1488363 0.6780134
vt 0.1214322 0.6780134
vt 0.1762404 0.6780134
vt 0.1762404 0.4142746
vt 0.2036445 0.6780134
vt 0.2036445 0.4142746
vt 0.2310486 0.6780134
vt 0.2310486 0.4142746
vt 0.2584527 0.6780134
vt 0.2584527 0.4142746
vt 0.2858568 0.6780134
vt 0.2858568 0.4142746
vt 0.3132611 0.6780134
vt 0.3132611 0.4142746
vt 0.3406652 0.6780134
vt 0.3406652 0.4142746
vt 0.1214322 0.4142746
vt 0.1214322 0.6780134
vt 0.1488363 0.6780134
vt 0.1488363 0.4142746
vt 0.1762404 0.6780134
vt 0.1762404 0.4142746
vt 0.2036445 0.6780134
vt 0.2036445 0.4142746
vt 0.2310486 0.6780134
vt 0.2310486 0.4142746
vt 0.2584527 0.6780134
vt 0.2584527 0.4142746
vt 0.2858568 0.6780134
vt 0.2858568 0.4142746
vt 0.3132611 0.6780134
vt 0.3132611 0.4142746
vt 0.3406652 0.6780134
vt 0.3406652 0.4142746
vt 0.5448878 0.271336
vt 0.6027688 0.271336
vt 0.6027685 0.03320944
vt 0.5448879 0.03320944
vt 0.6566596 0.03320932
vt 0.6566594 0.2713361
vt 0.7063257 0.03320932
vt 0.7063256 0.2713358
vt 0.7072612 0.2719428
vt 0.7429876 0.2719428
vt 0.7429876 0.03381617
vt 0.7072612 0.03381617
vt 0.78652 0.03381628
vt 0.7865202 0.271943
vt 0.8361863 0.03381604
vt 0.8361865 0.2719428
vt 0.8900772 0.03381604
vt 0.8900773 0.2719428
vt 0.9479584 0.03381628
vt 0.9479582 0.271943
vt 0.9655919 0.2713422
vt 0.9655918 0.03321615
vt 0.9045534 0.03321615
vt 0.9045533 0.2713422
vt 0.8477224 0.03321615
vt 0.8477225 0.2713421
vt 0.7953467 0.0332157
vt 0.7953465 0.2713424
vt 0.793789 0.2715597
vt 0.793789 0.03343344
vt 0.7561134 0.03343379
vt 0.7561136 0.2715598
vt 0.7102059 0.03343368
vt 0.7102062 0.27156
vt 0.6578305 0.03343344
vt 0.6578305 0.27156
vt 0.6009995 0.03343344
vt 0.6009995 0.2715598
vt 0.5399607 0.03343344
vt 0.5399607 0.2715598
vt 0.3406652 0.6780134
vt 0.3406652 0.6780134
vt 0.3132611 0.6780134
vt 0.3132611 0.6780134
vt 0.2858568 0.6780134
vt 0.2858568 0.6780134
vt 0.2584527 0.6780134
vt 0.2584527 0.6780134
vt 0.2310486 0.6780134
vt 0.2310486 0.6780134
vt 0.2036445 0.6780134
vt 0.2036445 0.6780134
vt 0.1762404 0.6780134
vt 0.1762404 0.6780134
vt 0.1488363 0.6780134
vt 0.1488363 0.6780134
vt 0.1214322 0.6780134
vt 0.1214322 0.6780134
vn 0.0706948 0 0.997498
vn 0.1799719 0 0.9836717
vn 0.1799719 0 0.9836717
vn 0.0706948 0 0.997498
vn 0.3826827 0 0.9238798
vn 0.3826827 0 0.9238798
vn 0.5555696 0 0.83147
vn 0.5555696 0 0.83147
vn 0.7071064 0 0.7071072
vn 0.7071064 0 0.7071072
vn 0.8314692 0 0.5555708
vn 0.8314692 0 0.5555708
vn 0.9238793 0 0.382684
vn 0.9238793 0 0.382684
vn 0.9836718 0 0.1799715
vn 0.9836718 0 0.1799715
vn 0.9974981 0 0.07069312
vn 0.9974981 0 0.07069312
vn -0.05517624 0 -0.9984767
vn -0.05517625 0 -0.9984767
vn -0.1739212 0 -0.9847596
vn -0.1739337 0 -0.9847573
vn -0.3826828 0 -0.9238798
vn -0.3826828 0 -0.9238798
vn -0.5555696 0 -0.8314701
vn -0.5555696 0 -0.8314701
vn -0.7071061 0 -0.7071074
vn -0.7071061 0 -0.7071074
vn -0.8314694 0 -0.5555705
vn -0.8314694 0 -0.5555705
vn -0.9238793 0 -0.3826839
vn -0.9238793 0 -0.3826839
vn -0.9838861 0 -0.1787963
vn -0.983884 0 -0.178808
vn -0.9977848 0 -0.06652488
vn -0.9977848 0 -0.06652489
vn 0.07069439 0 0.997498
vn 0.1799719 0 0.9836717
vn 0.1799719 0 0.9836717
vn 0.07069439 0 0.997498
vn 0.3826827 0 0.9238798
vn 0.3826827 0 0.9238798
vn 0.5555699 0 0.8314699
vn 0.5555699 0 0.8314699
vn 0.5555699 0 0.8314699
vn 0.7071064 0 0.7071072
vn 0.7071064 0 0.7071072
vn 0.5555699 0 0.8314699
vn 0.8314692 0 0.5555708
vn 0.8314692 0 0.5555708
vn 0.9238794 0 0.3826838
vn 0.9238794 0 0.3826838
vn 0.983672 0 0.1799711
vn 0.983672 0 0.1799711
vn 0.9974982 0 0.070692
vn 0.9974982 0 0.070692
vn -0.07069459 0 -0.997498
vn -0.07069459 0 -0.997498
vn -0.1799718 0 -0.9836717
vn -0.1799718 0 -0.9836717
vn -0.3826829 0 -0.9238797
vn -0.3826829 0 -0.9238797
vn -0.5555697 0 -0.83147
vn -0.5555697 0 -0.83147
vn -0.5555697 0 -0.83147
vn -0.5555697 0 -0.83147
vn -0.7071062 0 -0.7071073
vn -0.7071062 0 -0.7071073
vn -0.8314693 0 -0.5555707
vn -0.8314693 0 -0.5555707
vn -0.9238794 0 -0.3826837
vn -0.9238794 0 -0.3826837
vn -0.983672 0 -0.1799711
vn -0.983672 0 -0.1799711
vn -0.9974981 0 -0.07069244
vn -0.9974981 0 -0.07069244
vn 0 1 0
vn 0 1 0
vn 0 1 0
vn 0 1 0
vn 0 1 0
vn 0 1 0
vn 0 1 0
vn 0 1 0
vn 0 1 0
vn 0 1 0
vn 0 1 3.219882E-07
vn 0 1 3.220309E-07
vn 0 1 4.42919E-07
vn 0 1 4.36468E-07
vn 0 1 3.328284E-07
vn 0 1 3.421894E-07
vn 0 1 1.187449E-07
vn 0 1 1.187449E-07
g Boat_End_Right_0
f 3/3/3 2/2/2 1/1/1
f 4/4/4 3/3/3 1/1/1
f 3/3/3 5/5/5 2/2/2
f 5/5/5 6/6/6 2/2/2
f 5/5/5 7/7/7 6/6/6
f 7/7/7 8/8/8 6/6/6
f 7/7/7 9/9/9 8/8/8
f 9/9/9 10/10/10 8/8/8
f 9/9/9 11/11/11 10/10/10
f 11/11/11 12/12/12 10/10/10
f 11/11/11 13/13/13 12/12/12
f 13/13/13 14/14/14 12/12/12
f 13/13/13 15/15/15 14/14/14
f 15/15/15 16/16/16 14/14/14
f 15/15/15 17/17/17 16/16/16
f 17/17/17 18/18/18 16/16/16
f 21/21/21 20/20/20 19/19/19
f 22/22/22 21/21/21 19/19/19
f 23/23/23 21/21/21 22/22/22
f 24/24/24 23/23/23 22/22/22
f 25/25/25 23/23/23 24/24/24
f 26/26/26 25/25/25 24/24/24
f 27/27/27 25/25/25 26/26/26
f 28/28/28 27/27/27 26/26/26
f 29/29/29 27/27/27 28/28/28
f 30/30/30 29/29/29 28/28/28
f 31/31/31 29/29/29 30/30/30
f 32/32/32 31/31/31 30/30/30
f 33/33/33 31/31/31 32/32/32
f 34/34/34 33/33/33 32/32/32
f 35/35/35 33/33/33 34/34/34
f 36/36/36 35/35/35 34/34/34
f 39/39/39 38/38/38 37/37/37
f 40/40/40 39/39/39 37/37/37
f 39/39/39 41/41/41 38/38/38
f 41/41/41 42/42/42 38/38/38
f 41/41/41 43/43/43 42/42/42
f 43/43/43 44/44/44 42/42/42
f 47/47/47 46/46/46 45/45/45
f 48/48/48 47/47/47 45/45/45
f 47/47/47 49/49/49 46/46/46
f 49/49/49 50/50/50 46/46/46
f 49/49/49 51/51/51 50/50/50
f 51/51/51 52/52/52 50/50/50
f 51/51/51 53/53/53 52/52/52
f 53/53/53 54/54/54 52/52/52
f 53/53/53 55/55/55 54/54/54
f 55/55/55 56/56/56 54/54/54
f 59/59/59 58/58/58 57/57/57
f 60/60/60 59/59/59 57/57/57
f 61/61/61 59/59/59 60/60/60
f 62/62/62 61/61/61 60/60/60
f 63/63/63 61/61/61 62/62/62
f 64/64/64 63/63/63 62/62/62
f 67/67/67 66/66/66 65/65/65
f 68/68/68 67/67/67 65/65/65
f 69/69/69 67/67/67 68/68/68
f 70/70/70 69/69/69 68/68/68
f 71/71/71 69/69/69 70/70/70
f 72/72/72 71/71/71 70/70/70
f 73/73/73 71/71/71 72/72/72
f 74/74/74 73/73/73 72/72/72
f 75/75/75 73/73/73 74/74/74
f 76/76/76 75/75/75 74/74/74
f 79/79/79 78/78/78 77/77/77
f 80/80/80 79/79/79 77/77/77
f 81/81/81 79/79/79 80/80/80
f 82/82/82 81/81/81 80/80/80
f 83/83/83 81/81/81 82/82/82
f 84/84/84 83/83/83 82/82/82
f 85/85/85 83/83/83 84/84/84
f 86/86/86 85/85/85 84/84/84
f 87/87/87 85/85/85 86/86/86
f 88/88/88 87/87/87 86/86/86
f 89/89/89 87/87/87 88/88/88
f 90/90/90 89/89/89 88/88/88
f 91/91/91 89/89/89 90/90/90
f 92/92/92 91/91/91 90/90/90
f 93/93/93 91/91/91 92/92/92
f 94/94/94 93/93/93 92/92/92
