g Boat_Steps_Railing
v -0.25 1.828103 1
v -0.25 2 1
v 0.25 2 1
v 0.25 1.828103 1
v 0.25 2 1
v -0.25 2 1
v -0.25 1 -1
v 0.25 1 -1
v -0.25 1 -1
v -0.25 0.829334 -1
v 0.25 0.829334 -1
v 0.25 1 -1
v 0.25 0.829334 -1
v 0.25 1.828103 1
v 0.25 2 1
v 0.25 1 -1
v -0.25 2 1
v -0.25 1.828103 1
v -0.25 0.829334 -1
v -0.25 1 -1
v -0.1595123 0.620565 1
v -0.1595123 1 1
v 0.1595123 1 1
v 0.1595123 0.620565 1
v 0.1595123 1 1
v -0.1595123 1 1
v -0.1595123 0 -1
v 0.1595123 0 -1
v -0.1595123 0 -1
v -0.1595123 -0.375 -1
v 0.1595123 -0.375 -1
v 0.1595123 0 -1
v 0.1595123 -0.375 -1
v 0.1595123 0.620565 1
v 0.1595123 1 1
v 0.1595123 0 -1
v -0.1595123 1 1
v -0.1595123 0.620565 1
v -0.1595123 -0.375 -1
v -0.1595123 0 -1
v 0.06938202 0.7362598 0.623938
v 0.09105407 1.709601 0.6149609
v 0.071203 1.709601 0.5852515
v 0.05461578 0.7362598 0.6018389
v 0.04149353 1.709601 0.5654004
v 0.03251678 0.7362598 0.5870727
v 0.006448974 1.709601 0.5584295
v 0.006448974 0.7362598 0.5818872
v -0.02859558 1.709601 0.5654004
v -0.01961853 0.7362598 0.5870727
v -0.05830505 1.709601 0.5852515
v -0.04171783 0.7362598 0.6018384
v -0.07815613 1.709601 0.6149609
v -0.05648407 0.7362598 0.623938
v -0.08512695 1.709601 0.6500055
v -0.06166931 0.7362598 0.6500055
v -0.07815613 1.709601 0.68505
v -0.05648407 0.7362598 0.676073
v -0.05830505 1.709601 0.7147595
v -0.04171783 0.7362598 0.698172
v -0.02859558 1.709601 0.7346106
v -0.01961884 0.7362598 0.7129382
v 0.006448974 1.709601 0.7415814
v 0.006448974 0.7362598 0.7181237
v 0.006448974 0.7362598 0.7181237
v 0.006448974 1.709601 0.7415814
v 0.04149353 1.709601 0.7346106
v 0.03251678 0.7362598 0.7129382
v 0.071203 1.709601 0.7147595
v 0.05461578 0.7362598 0.6981726
v 0.09105407 1.709601 0.68505
v 0.06938202 0.7362598 0.676073
v 0.0980249 1.709601 0.6500055
v 0.07456726 0.7362598 0.6500055
v 0.06938202 0.4800826 0.1220398
v 0.09105407 1.453424 0.1130627
v 0.071203 1.453424 0.08335327
v 0.05461578 0.4800826 0.09994079
v 0.04149353 1.453424 0.06350219
v 0.03251678 0.4800826 0.08517456
v 0.006448974 1.453424 0.05653137
v 0.006448974 0.4800826 0.07998901
v -0.02859558 1.453424 0.06350219
v -0.01961853 0.4800826 0.08517456
v -0.05830505 1.453424 0.08335327
v -0.04171783 0.4800826 0.09994018
v -0.07815613 1.453424 0.1130627
v -0.05648407 0.4800826 0.1220398
v -0.08512695 1.453424 0.1481073
v -0.06166931 0.4800826 0.1481073
v -0.07815613 1.453424 0.1831519
v -0.05648407 0.4800826 0.1741748
v -0.05830505 1.453424 0.2128613
v -0.04171783 0.4800826 0.1962738
v -0.02859558 1.453424 0.2327124
v -0.01961884 0.4800826 0.21104
v 0.006448974 1.453424 0.2396832
v 0.006448974 0.4800826 0.2162256
v 0.006448974 0.4800826 0.2162256
v 0.006448974 1.453424 0.2396832
v 0.04149353 1.453424 0.2327124
v 0.03251678 0.4800826 0.21104
v 0.071203 1.453424 0.2128613
v 0.05461578 0.4800826 0.1962744
v 0.09105407 1.453424 0.1831519
v 0.06938202 0.4800826 0.1741748
v 0.0980249 1.453424 0.1481073
v 0.07456726 0.4800826 0.1481073
v 0.06938202 0.2448179 -0.3746295
v 0.09105407 1.21816 -0.3836066
v 0.071203 1.21816 -0.413316
v 0.05461578 0.2448179 -0.3967285
v 0.04149353 1.21816 -0.4331671
v 0.03251678 0.2448179 -0.4114947
v 0.006448974 1.21816 -0.4401379
v 0.006448974 0.2448179 -0.4166803
v -0.02859558 1.21816 -0.4331671
v -0.01961853 0.2448179 -0.4114947
v -0.05830505 1.21816 -0.413316
v -0.04171783 0.2448179 -0.3967291
v -0.07815613 1.21816 -0.3836066
v -0.05648407 0.2448179 -0.3746295
v -0.08512695 1.21816 -0.348562
v -0.06166931 0.2448179 -0.348562
v -0.07815613 1.21816 -0.3135175
v -0.05648407 0.2448179 -0.3224945
v -0.05830505 1.21816 -0.283808
v -0.04171783 0.2448179 -0.3003955
v -0.02859558 1.21816 -0.2639569
v -0.01961884 0.2448179 -0.2856293
v 0.006448974 1.21816 -0.2569861
v 0.006448974 0.2448179 -0.2804437
v 0.04149353 1.21816 -0.2639569
v 0.03251678 0.2448179 -0.2856293
v 0.03251678 0.2448179 -0.2856293
v 0.04149353 1.21816 -0.2639569
v 0.071203 1.21816 -0.283808
v 0.05461578 0.2448179 -0.3003955
v 0.09105407 1.21816 -0.3135175
v 0.06938202 0.2448179 -0.3224945
v 0.0980249 1.21816 -0.348562
v 0.07456726 0.2448179 -0.348562
v 0.06938202 0.00955322 -0.8712994
v 0.09105407 0.982895 -0.8802764
v 0.071203 0.982895 -0.909986
v 0.05461578 0.00955322 -0.8933987
v 0.04149353 0.982895 -0.929837
v 0.03251678 0.00955322 -0.908165
v 0.006448974 0.982895 -0.9368078
v 0.006448974 0.00955322 -0.9133499
v -0.02859558 0.982895 -0.929837
v -0.01961853 0.00955322 -0.908165
v -0.05830505 0.982895 -0.909986
v -0.04171783 0.00955322 -0.8933987
v -0.07815613 0.982895 -0.8802764
v -0.05648407 0.00955322 -0.8712994
v -0.08512695 0.982895 -0.8452319
v -0.06166931 0.00955322 -0.8452319
v -0.07815613 0.982895 -0.8101873
v -0.05648407 0.00955322 -0.8191644
v -0.05830505 0.982895 -0.7804779
v -0.04171783 0.00955322 -0.7970654
v -0.02859558 0.982895 -0.7606268
v -0.01961884 0.00955322 -0.7822992
v 0.006448974 0.982895 -0.753656
v 0.006448974 0.00955322 -0.7771136
v 0.006448974 0.00955322 -0.7771136
v 0.006448974 0.982895 -0.753656
v 0.04149353 0.982895 -0.7606268
v 0.03251678 0.00955322 -0.7822992
v 0.071203 0.982895 -0.7804779
v 0.05461578 0.00955322 -0.7970654
v 0.09105407 0.982895 -0.8101873
v 0.06938202 0.00955322 -0.8191644
v 0.0980249 0.982895 -0.8452319
v 0.07456726 0.00955322 -0.8452319
vt 0.247977 0.5554578
vt 0.29626 0.5554578
vt 0.29626 0.4495445
vt 0.247977 0.4495445
vt 0.29626 0.4495445
vt 0.29626 0.5554578
vt 0.924338 0.5554578
vt 0.924338 0.4495445
vt 0.924338 0.5554578
vt 0.972275 0.5554578
vt 0.972275 0.4495445
vt 0.924338 0.4495445
vt 0.941621 0.3854707
vt 0.313698 0.3854707
vt 0.29626 0.4495445
vt 0.924338 0.4495445
vt 0.29626 0.5554578
vt 0.333929 0.6237065
vt 0.962016 0.623723
vt 0.924338 0.5554578
vt 0.01012599 0.2568564
vt 0.134437 0.2568564
vt 0.134437 0.1523374
vt 0.01012599 0.1523374
vt 0.134437 0.1523374
vt 0.134437 0.2568564
vt 0.867017 0.2568564
vt 0.867017 0.1523374
vt 0.867017 0.2568564
vt 0.989874 0.2568564
vt 0.989874 0.1523374
vt 0.867017 0.1523374
vt 0.92196 0.04245038
vt 0.19003 0.04115038
vt 0.134437 0.1523374
vt 0.867017 0.1523374
vt 0.134437 0.2568564
vt 0.19003 0.3680434
vt 0.92196 0.3667444
vt 0.867017 0.2568564
vt 0.6782244 0.6504642
vt 0.6782195 0.8587294
vt 0.7055207 0.8587294
vt 0.7055255 0.6504642
vt 0.7328218 0.8587295
vt 0.7328267 0.6504642
vt 0.7601228 0.8587295
vt 0.7601279 0.6504643
vt 0.7874242 0.8587294
vt 0.7874289 0.6504643
vt 0.8147253 0.8587295
vt 0.8147302 0.6504642
vt 0.8420262 0.8587295
vt 0.8420312 0.6504641
vt 0.8693275 0.8587294
vt 0.8693324 0.6504642
vt 0.8966287 0.8587295
vt 0.8966334 0.6504643
vt 0.9239299 0.8587295
vt 0.9239346 0.6504641
vt 0.9512309 0.8587295
vt 0.9512358 0.6504643
vt 0.9785321 0.8587295
vt 0.9785369 0.6504642
vt 0.5417202 0.6504655
vt 0.5417151 0.8587295
vt 0.5690163 0.8587295
vt 0.56902 0.6504655
vt 0.5963175 0.8587294
vt 0.596321 0.6504656
vt 0.6236187 0.8587295
vt 0.6236222 0.6504655
vt 0.6509197 0.8587295
vt 0.6509232 0.6504643
vt 0.6781694 0.6505052
vt 0.6782768 0.8587762
vt 0.7055781 0.8587621
vt 0.7054708 0.650491
vt 0.7328796 0.8587479
vt 0.7327721 0.6504756
vt 0.7601799 0.8587325
vt 0.7600737 0.6504614
vt 0.7874812 0.8587183
vt 0.7873735 0.6504472
vt 0.8147827 0.8587028
vt 0.8146752 0.6504316
vt 0.8420839 0.8586887
vt 0.8419763 0.6504177
vt 0.8693841 0.8586744
vt 0.8692766 0.6504033
vt 0.8966856 0.8586589
vt 0.8965781 0.6503879
vt 0.9239869 0.8586448
vt 0.9238795 0.6503737
vt 0.9512884 0.8586295
vt 0.9511809 0.6503584
vt 0.9785886 0.8586151
vt 0.978481 0.6503442
vt 0.5416636 0.6505785
vt 0.5417709 0.8588496
vt 0.5690724 0.8588355
vt 0.568965 0.6505645
vt 0.5963737 0.8588215
vt 0.5962664 0.6505489
vt 0.623674 0.8588058
vt 0.6235678 0.6505349
vt 0.6509753 0.8587918
vt 0.6508692 0.6505207
vt 0.6509414 0.6504437
vt 0.6509039 0.8587072
vt 0.6782039 0.8587116
vt 0.6782417 0.6504481
vt 0.7055055 0.8587159
vt 0.7055433 0.6504524
vt 0.7328058 0.8587202
vt 0.7328448 0.6504568
vt 0.7601073 0.8587234
vt 0.7601464 0.6504626
vt 0.7874078 0.8587277
vt 0.7874466 0.6504668
vt 0.8147079 0.858732
vt 0.8147481 0.6504713
vt 0.8420095 0.8587376
vt 0.8420497 0.6504757
vt 0.8693097 0.8587421
vt 0.86935 0.6504812
vt 0.8966101 0.8587463
vt 0.8966515 0.6504857
vt 0.9239116 0.8587506
vt 0.9239519 0.65049
vt 0.9512119 0.8587551
vt 0.9512533 0.6504959
vt 0.9785134 0.8587608
vt 0.9785536 0.6505001
vt 0.5417339 0.6504247
vt 0.5416983 0.8586937
vt 0.5690001 0.8586967
vt 0.5690354 0.650429
vt 0.5963017 0.8586999
vt 0.5963384 0.6504349
vt 0.623602 0.8587041
vt 0.62364 0.6504393
vt 0.6782765 0.6504192
vt 0.6781675 0.8586796
vt 0.7054672 0.8586931
vt 0.7055774 0.650434
vt 0.7327682 0.8587066
vt 0.7328798 0.6504478
vt 0.7600679 0.8587202
vt 0.7601807 0.6504627
vt 0.7873689 0.8587338
vt 0.7874817 0.6504763
vt 0.81467 0.8587474
vt 0.8147826 0.6504912
vt 0.8419695 0.8587624
vt 0.8420836 0.6505062
vt 0.8692704 0.858776
vt 0.8693846 0.6505199
vt 0.8965715 0.8587909
vt 0.8966855 0.6505349
vt 0.9238725 0.8588045
vt 0.9239866 0.6505499
vt 0.9511721 0.8588194
vt 0.9512875 0.6505633
vt 0.978473 0.8588332
vt 0.9785885 0.6505783
vt 0.5417663 0.6503492
vt 0.5416633 0.8586156
vt 0.5689646 0.8586277
vt 0.5690686 0.650363
vt 0.5962657 0.85864
vt 0.596371 0.6503779
vt 0.6235655 0.8586535
vt 0.6236733 0.6503917
vt 0.6508664 0.8586661
vt 0.6509756 0.6504055
vn 0 0 1
vn 0 0 1
vn 0 0 1
vn 0 0 1
vn 0 0.894427 -0.447214
vn 0 0.894427 -0.447214
vn 0 0.894427 -0.447214
vn 0 0.894427 -0.447214
vn 0 0 -1
vn 0 0 -1
vn 0 0 -1
vn 0 0 -1
vn 1 0 0
vn 1 0 0
vn 1 0 0
vn 1 0 0
vn -1 0 0
vn -1 0 0
vn -1 0 0
vn -1 0 0
vn 0 0 1
vn 0 0 1
vn 0 0 1
vn 0 0 1
vn 0 0.8944274 -0.4472132
vn 0 0.8944274 -0.4472132
vn 0 0.8944274 -0.4472132
vn 0 0.8944274 -0.4472132
vn 0 0 -1
vn 0 0 -1
vn 0 0 -1
vn 0 0 -1
vn 1 0 0
vn 1 0 0
vn 1 0 0
vn 1 0 0
vn -1 0 0
vn -1 0 0
vn -1 0 0
vn -1 0 0
vn 0.9236119 -0.024093 -0.382571
vn 0.9236119 -0.024093 -0.382571
vn 0.706902 -0.024094 -0.706901
vn 0.706902 -0.024094 -0.706901
vn 0.3825619 -0.02409399 -0.9236156
vn 0.3825619 -0.02409399 -0.9236156
vn 0 -0.02409299 -0.9997097
vn 0 -0.02409299 -0.9997097
vn -0.3825619 -0.02409299 -0.9236156
vn -0.3825619 -0.02409299 -0.9236156
vn -0.7069005 -0.02409298 -0.7069024
vn -0.7069 -0.024093 -0.706903
vn -0.9236119 -0.024093 -0.382571
vn -0.9236119 -0.024093 -0.382571
vn -0.9997097 -0.02409399 0
vn -0.9997097 -0.02409399 0
vn -0.9236119 -0.024093 0.382571
vn -0.9236119 -0.024093 0.382571
vn -0.706902 -0.024094 0.706901
vn -0.706902 -0.024094 0.706901
vn -0.3825681 -0.024093 0.9236131
vn -0.3825681 -0.024093 0.9236131
vn 0 -0.02409299 0.9997097
vn 0 -0.02409299 0.9997097
vn 0 -0.02409299 0.9997097
vn 0 -0.02409299 0.9997097
vn 0.3825681 -0.024093 0.9236131
vn 0.3825681 -0.024093 0.9236131
vn 0.706902 -0.024093 0.706901
vn 0.706902 -0.024093 0.706901
vn 0.9236119 -0.024093 0.382571
vn 0.9236119 -0.024093 0.382571
vn 0.9997097 -0.02409399 0
vn 0.9997097 -0.02409399 0
vn 0.9236116 -0.02409299 -0.3825718
vn 0.9236119 -0.024093 -0.382571
vn 0.706898 -0.024094 -0.706905
vn 0.7068985 -0.02409398 -0.7069045
vn 0.3825681 -0.024094 -0.9236131
vn 0.3825681 -0.024094 -0.9236131
vn 0 -0.02409299 -0.9997097
vn 0 -0.02409299 -0.9997097
vn -0.3825681 -0.024093 -0.9236131
vn -0.3825681 -0.024093 -0.9236131
vn -0.706897 -0.024093 -0.706906
vn -0.706897 -0.024093 -0.706906
vn -0.9236119 -0.024093 -0.382571
vn -0.9236119 -0.024093 -0.382571
vn -0.9997097 -0.02409299 0
vn -0.9997097 -0.02409299 0
vn -0.9236119 -0.024093 0.382571
vn -0.9236119 -0.024093 0.382571
vn -0.706902 -0.024094 0.706901
vn -0.706902 -0.024094 0.706901
vn -0.3825619 -0.02409299 0.9236156
vn -0.3825619 -0.02409299 0.9236156
vn 0 -0.02409299 0.9997097
vn 0 -0.02409299 0.9997097
vn 0 -0.02409299 0.9997097
vn 0 -0.02409299 0.9997097
vn 0.3825619 -0.02409299 0.9236156
vn 0.3825619 -0.02409299 0.9236156
vn 0.706902 -0.024093 0.706901
vn 0.706902 -0.024093 0.706901
vn 0.9236116 -0.02409299 0.3825718
vn 0.9236119 -0.024093 0.382571
vn 0.9997097 -0.02409299 0
vn 0.9997097 -0.02409299 0
vn 0.9236099 -0.024094 -0.3825759
vn 0.9236099 -0.024094 -0.3825759
vn 0.706902 -0.024094 -0.706901
vn 0.706902 -0.024094 -0.706901
vn 0.3825842 -0.02409301 -0.9236065
vn 0.3825842 -0.02409301 -0.9236065
vn 0 -0.02409299 -0.9997097
vn 0 -0.02409299 -0.9997097
vn -0.3825731 -0.024093 -0.9236111
vn -0.3825731 -0.024093 -0.9236111
vn -0.7069005 -0.02409298 -0.7069024
vn -0.7069005 -0.02409298 -0.7069024
vn -0.9236119 -0.024093 -0.382571
vn -0.9236119 -0.024093 -0.382571
vn -0.9997097 -0.02409399 0
vn -0.9997097 -0.02409399 0
vn -0.9236099 -0.024094 0.3825759
vn -0.9236099 -0.024094 0.3825759
vn -0.706902 -0.024094 0.706901
vn -0.706902 -0.024094 0.706901
vn -0.3825842 -0.02409301 0.9236065
vn -0.3825842 -0.02409301 0.9236065
vn 0 -0.02409299 0.9997097
vn 0 -0.02409299 0.9997097
vn 0.3825842 -0.02409301 0.9236065
vn 0.3825842 -0.02409301 0.9236065
vn 0.3825842 -0.02409301 0.9236065
vn 0.3825842 -0.02409301 0.9236065
vn 0.706902 -0.024094 0.706901
vn 0.706902 -0.024094 0.706901
vn 0.9236099 -0.024094 0.3825759
vn 0.9236099 -0.024094 0.3825759
vn 0.9997097 -0.02409399 0
vn 0.9997097 -0.02409399 0
vn 0.9236107 -0.02409399 -0.3825739
vn 0.9236107 -0.02409399 -0.3825739
vn 0.706902 -0.024093 -0.706901
vn 0.706902 -0.024093 -0.706901
vn 0.3825681 -0.024093 -0.9236131
vn 0.3825681 -0.024093 -0.9236131
vn 0 -0.02409299 -0.9997097
vn 0 -0.02409299 -0.9997097
vn -0.3825681 -0.024093 -0.9236131
vn -0.3825681 -0.024093 -0.9236131
vn -0.7069005 -0.02409298 -0.7069024
vn -0.7069 -0.024093 -0.706903
vn -0.9236107 -0.02409299 -0.3825739
vn -0.9236107 -0.02409399 -0.3825739
vn -0.9997097 -0.02409299 0
vn -0.9997097 -0.02409299 0
vn -0.9236107 -0.02409299 0.3825739
vn -0.9236107 -0.02409299 0.3825739
vn -0.706902 -0.024094 0.706901
vn -0.706902 -0.024094 0.706901
vn -0.3825842 -0.02409301 0.9236065
vn -0.3825851 -0.024093 0.9236061
vn 0 -0.02409299 0.9997097
vn 0 -0.02409299 0.9997097
vn 0 -0.02409299 0.9997097
vn 0 -0.02409299 0.9997097
vn 0.3825842 -0.02409301 0.9236065
vn 0.3825851 -0.024093 0.9236061
vn 0.706902 -0.024094 0.706901
vn 0.706902 -0.024094 0.706901
vn 0.9236107 -0.02409399 0.3825739
vn 0.9236107 -0.02409399 0.3825739
vn 0.9997097 -0.02409299 0
vn 0.9997097 -0.02409299 0
g Boat_Steps_Railing_0
f 3/3/3 2/2/2 1/1/1
f 4/4/4 3/3/3 1/1/1
f 7/7/7 6/6/6 5/5/5
f 8/8/8 7/7/7 5/5/5
f 11/11/11 10/10/10 9/9/9
f 12/12/12 11/11/11 9/9/9
f 15/15/15 14/14/14 13/13/13
f 16/16/16 15/15/15 13/13/13
f 19/19/19 18/18/18 17/17/17
f 20/20/20 19/19/19 17/17/17
f 23/23/23 22/22/22 21/21/21
f 24/24/24 23/23/23 21/21/21
f 27/27/27 26/26/26 25/25/25
f 28/28/28 27/27/27 25/25/25
f 31/31/31 30/30/30 29/29/29
f 32/32/32 31/31/31 29/29/29
f 35/35/35 34/34/34 33/33/33
f 36/36/36 35/35/35 33/33/33
f 39/39/39 38/38/38 37/37/37
f 40/40/40 39/39/39 37/37/37
f 43/43/43 42/42/42 41/41/41
f 44/44/44 43/43/43 41/41/41
f 45/45/45 43/43/43 44/44/44
f 46/46/46 45/45/45 44/44/44
f 47/47/47 45/45/45 46/46/46
f 48/48/48 47/47/47 46/46/46
f 49/49/49 47/47/47 48/48/48
f 50/50/50 49/49/49 48/48/48
f 51/51/51 49/49/49 50/50/50
f 52/52/52 51/51/51 50/50/50
f 53/53/53 51/51/51 52/52/52
f 54/54/54 53/53/53 52/52/52
f 55/55/55 53/53/53 54/54/54
f 56/56/56 55/55/55 54/54/54
f 57/57/57 55/55/55 56/56/56
f 58/58/58 57/57/57 56/56/56
f 59/59/59 57/57/57 58/58/58
f 60/60/60 59/59/59 58/58/58
f 61/61/61 59/59/59 60/60/60
f 62/62/62 61/61/61 60/60/60
f 63/63/63 61/61/61 62/62/62
f 64/64/64 63/63/63 62/62/62
f 67/67/67 66/66/66 65/65/65
f 68/68/68 67/67/67 65/65/65
f 69/69/69 67/67/67 68/68/68
f 70/70/70 69/69/69 68/68/68
f 71/71/71 69/69/69 70/70/70
f 72/72/72 71/71/71 70/70/70
f 73/73/73 71/71/71 72/72/72
f 74/74/74 73/73/73 72/72/72
f 42/42/42 73/73/73 74/74/74
f 41/41/41 42/42/42 74/74/74
f 77/77/77 76/76/76 75/75/75
f 78/78/78 77/77/77 75/75/75
f 79/79/79 77/77/77 78/78/78
f 80/80/80 79/79/79 78/78/78
f 81/81/81 79/79/79 80/80/80
f 82/82/82 81/81/81 80/80/80
f 83/83/83 81/81/81 82/82/82
f 84/84/84 83/83/83 82/82/82
f 85/85/85 83/83/83 84/84/84
f 86/86/86 85/85/85 84/84/84
f 87/87/87 85/85/85 86/86/86
f 88/88/88 87/87/87 86/86/86
f 89/89/89 87/87/87 88/88/88
f 90/90/90 89/89/89 88/88/88
f 91/91/91 89/89/89 90/90/90
f 92/92/92 91/91/91 90/90/90
f 93/93/93 91/91/91 92/92/92
f 94/94/94 93/93/93 92/92/92
f 95/95/95 93/93/93 94/94/94
f 96/96/96 95/95/95 94/94/94
f 97/97/97 95/95/95 96/96/96
f 98/98/98 97/97/97 96/96/96
f 101/101/101 100/100/100 99/99/99
f 102/102/102 101/101/101 99/99/99
f 103/103/103 101/101/101 102/102/102
f 104/104/104 103/103/103 102/102/102
f 105/105/105 103/103/103 104/104/104
f 106/106/106 105/105/105 104/104/104
f 107/107/107 105/105/105 106/106/106
f 108/108/108 107/107/107 106/106/106
f 76/76/76 107/107/107 108/108/108
f 75/75/75 76/76/76 108/108/108
f 111/111/111 110/110/110 109/109/109
f 112/112/112 111/111/111 109/109/109
f 113/113/113 111/111/111 112/112/112
f 114/114/114 113/113/113 112/112/112
f 115/115/115 113/113/113 114/114/114
f 116/116/116 115/115/115 114/114/114
f 117/117/117 115/115/115 116/116/116
f 118/118/118 117/117/117 116/116/116
f 119/119/119 117/117/117 118/118/118
f 120/120/120 119/119/119 118/118/118
f 121/121/121 119/119/119 120/120/120
f 122/122/122 121/121/121 120/120/120
f 123/123/123 121/121/121 122/122/122
f 124/124/124 123/123/123 122/122/122
f 125/125/125 123/123/123 124/124/124
f 126/126/126 125/125/125 124/124/124
f 127/127/127 125/125/125 126/126/126
f 128/128/128 127/127/127 126/126/126
f 129/129/129 127/127/127 128/128/128
f 130/130/130 129/129/129 128/128/128
f 131/131/131 129/129/129 130/130/130
f 132/132/132 131/131/131 130/130/130
f 133/133/133 131/131/131 132/132/132
f 134/134/134 133/133/133 132/132/132
f 137/137/137 136/136/136 135/135/135
f 138/138/138 137/137/137 135/135/135
f 139/139/139 137/137/137 138/138/138
f 140/140/140 139/139/139 138/138/138
f 141/141/141 139/139/139 140/140/140
f 142/142/142 141/141/141 140/140/140
f 110/110/110 141/141/141 142/142/142
f 109/109/109 110/110/110 142/142/142
f 145/145/145 144/144/144 143/143/143
f 146/146/146 145/145/145 143/143/143
f 147/147/147 145/145/145 146/146/146
f 148/148/148 147/147/147 146/146/146
f 149/149/149 147/147/147 148/148/148
f 150/150/150 149/149/149 148/148/148
f 151/151/151 149/149/149 150/150/150
f 152/152/152 151/151/151 150/150/150
f 153/153/153 151/151/151 152/152/152
f 154/154/154 153/153/153 152/152/152
f 155/155/155 153/153/153 154/154/154
f 156/156/156 155/155/155 154/154/154
f 157/157/157 155/155/155 156/156/156
f 158/158/158 157/157/157 156/156/156
f 159/159/159 157/157/157 158/158/158
f 160/160/160 159/159/159 158/158/158
f 161/161/161 159/159/159 160/160/160
f 162/162/162 161/161/161 160/160/160
f 163/163/163 161/161/161 162/162/162
f 164/164/164 163/163/163 162/162/162
f 165/165/165 163/163/163 164/164/164
f 166/166/166 165/165/165 164/164/164
f 169/169/169 168/168/168 167/167/167
f 170/170/170 169/169/169 167/167/167
f 171/171/171 169/169/169 170/170/170
f 172/172/172 171/171/171 170/170/170
f 173/173/173 171/171/171 172/172/172
f 174/174/174 173/173/173 172/172/172
f 175/175/175 173/173/173 174/174/174
f 176/176/176 175/175/175 174/174/174
f 144/144/144 175/175/175 176/176/176
f 143/143/143 144/144/144 176/176/176
