g Cleaver
v -0.4894175 0.1004128 0.2212564
v -0.5669768 0.394599 0.2270831
v -0.5156674 0.3991337 0.2250244
v -0.540727 0.09587807 0.223315
v -0.5661083 0.09998477 0.1839435
v -0.5919332 0.397398 0.1954246
v -0.5697442 0.1101562 0.1157305
v -0.5937917 0.4025904 0.1605425
v -0.5482605 0.1170597 0.08220882
v -0.5723079 0.4094939 0.1270208
v -0.496951 0.1215944 0.08015016
v -0.5209985 0.4140287 0.1249621
v -0.471995 0.1187954 0.1118086
v -0.4960423 0.4112296 0.1566206
v -0.4941839 0.4060372 0.1915028
v -0.4683591 0.1086239 0.1800216
v -0.5156674 0.3991337 0.2250244
v -0.4894175 0.1004128 0.2212564
v -0.5395469 0.08322404 0.1273805
v -0.5371133 0.07642477 0.1730572
v -0.5236075 0.08051858 0.2007121
v -0.5053243 0.08213443 0.1999785
v -0.4935528 0.08027469 0.1713094
v -0.540727 0.09587807 0.223315
v -0.4894175 0.1004128 0.2212564
v -0.4683591 0.1086239 0.1800216
v -0.4959863 0.08707396 0.1256328
v -0.471995 0.1187954 0.1118086
v -0.5106443 0.09699816 0.1001259
v -0.496951 0.1215944 0.08015016
v -0.5289275 0.09538227 0.1008595
v -0.5482605 0.1170597 0.08220882
v -0.5400683 0.4443238 0.4633126
v -0.532002 0.4450368 0.4629889
v -0.5138521 0.4575409 0.3911292
v -0.5657816 0.4529513 0.3932128
v -0.5220392 0.4804151 0.2374632
v -0.5739687 0.4758255 0.2395467
v -0.5273703 0.49531 0.1374008
v -0.5792998 0.4907204 0.1394844
v -0.5872806 1.109444 0.5600681
v -0.5686681 1.121949 0.4884471
v -0.5544412 0.9567863 0.4792213
v -0.5729664 0.9442884 0.5508387
v -0.5395145 0.7772888 0.4558571
v -0.5575674 0.7648322 0.5274568
v -0.5438814 0.5964335 0.4954362
v -0.5259196 0.6088824 0.4237337
v -0.532002 0.4450368 0.4629889
v -0.5138521 0.4575409 0.3911292
v -0.5975476 1.108536 0.5604801
v -0.5825023 0.9434454 0.5512213
v -0.6063705 0.9521965 0.4813048
v -0.6205975 1.11736 0.4905307
v -0.5664979 0.7640422 0.5278138
v -0.591444 0.7726992 0.4579406
v -0.552343 0.5956858 0.4957746
v -0.577849 0.6042928 0.4258173
v -0.5400683 0.4443238 0.4633126
v -0.5657816 0.4529513 0.3932128
v -0.5273703 0.49531 0.1374008
v -0.5220392 0.4804151 0.2374632
v -0.5399281 0.6480207 0.1608019
v -0.5345969 0.6331258 0.2608642
v -0.5138521 0.4575409 0.3911292
v -0.5259196 0.6088824 0.4237337
v -0.5485978 0.8026669 0.2853703
v -0.5395145 0.7772888 0.4558571
v -0.5544412 0.9567863 0.4792213
v -0.5636337 0.9824699 0.3066812
v -0.5686681 1.121949 0.4884471
v -0.5776746 1.147113 0.3194015
v -0.5823386 1.160897 0.2335193
v -0.5823072 1.14474 0.1987141
v -0.554213 0.8183532 0.1799692
v -0.5700424 1.000375 0.1863955
v -0.5803096 1.115769 0.1846841
v -0.5792998 0.4907204 0.1394844
v -0.5273703 0.49531 0.1374008
v -0.5918575 0.6434312 0.1628854
v -0.5399281 0.6480207 0.1608019
v -0.6061425 0.8137637 0.1820527
v -0.554213 0.8183532 0.1799692
v -0.6219717 0.9957856 0.188479
v -0.5700424 1.000375 0.1863955
v -0.5803096 1.115769 0.1846841
v -0.632239 1.11118 0.1867676
v -0.5739687 0.4758255 0.2395467
v -0.5792998 0.4907204 0.1394844
v -0.5918575 0.6434312 0.1628854
v -0.5865263 0.6285362 0.2629477
v -0.5657816 0.4529513 0.3932128
v -0.577849 0.6042928 0.4258173
v -0.6005272 0.7980772 0.2874538
v -0.6061425 0.8137637 0.1820527
v -0.6155632 0.9778802 0.3087647
v -0.6063705 0.9521965 0.4813048
v -0.6205975 1.11736 0.4905307
v -0.6296039 1.142523 0.321485
v -0.591444 0.7726992 0.4579406
v -0.6219717 0.9957856 0.188479
v -0.632239 1.11118 0.1867676
v -0.6342366 1.14015 0.2007976
v -0.634268 1.156308 0.2356029
v -0.5823386 1.160897 0.2335193
v -0.634268 1.156308 0.2356029
v -0.6342366 1.14015 0.2007976
v -0.5823072 1.14474 0.1987141
v -0.6296039 1.142523 0.321485
v -0.5776746 1.147113 0.3194015
v -0.6205975 1.11736 0.4905307
v -0.5686681 1.121949 0.4884471
v -0.5872806 1.109444 0.5600681
v -0.5975476 1.108536 0.5604801
v -0.5803096 1.115769 0.1846841
v -0.632239 1.11118 0.1867676
v -0.5825023 0.9434454 0.5512213
v -0.5975476 1.108536 0.5604801
v -0.5872806 1.109444 0.5600681
v -0.5729664 0.9442884 0.5508387
v -0.5575674 0.7648322 0.5274568
v -0.5664979 0.7640422 0.5278138
v -0.5438814 0.5964335 0.4954362
v -0.552343 0.5956858 0.4957746
v -0.532002 0.4450368 0.4629889
v -0.5400683 0.4443238 0.4633126
v -0.5919332 0.397398 0.1954246
v -0.5937917 0.4025904 0.1605425
v -0.6004733 0.4838444 0.1729936
v -0.5986149 0.4786519 0.2078758
v -0.5669768 0.394599 0.2270831
v -0.5736585 0.4758529 0.2395343
v -0.5156674 0.3991337 0.2250244
v -0.522349 0.4803877 0.2374756
v -0.5789896 0.4907478 0.1394719
v -0.5276802 0.4952826 0.1374133
v -0.4960423 0.4112296 0.1566206
v -0.5027241 0.4924836 0.1690717
v -0.4941839 0.4060372 0.1915028
v -0.5008656 0.4872911 0.2039539
v -0.522349 0.4803877 0.2374756
v -0.5156674 0.3991337 0.2250244
v -0.5276802 0.4952826 0.1374133
v -0.5027241 0.4924836 0.1690717
v -0.6004733 0.4838444 0.1729936
v -0.5789896 0.4907478 0.1394719
v -0.5986149 0.4786519 0.2078758
v -0.5008656 0.4872911 0.2039539
v -0.5736585 0.4758529 0.2395343
v -0.522349 0.4803877 0.2374756
vt 0.09648842 0.01866376
vt 0.3636692 0.06662726
vt 0.3636692 0.02757466
vt 0.09648836 0.06662273
vt 0.09648836 0.107089
vt 0.3636691 0.1257677
vt 0.09648836 0.1655232
vt 0.3636691 0.1574326
vt 0.09648836 0.2009472
vt 0.3636692 0.1939417
vt 0.09648842 0.2328125
vt 0.3636692 0.2266316
vt 0.09648848 0.2640079
vt 0.3636692 0.2579571
vt 0.363669 0.288168
vt 0.09648842 0.3060941
vt 0.3636681 0.3138305
vt 0.09648836 0.337443
vt 0.0731293 0.1485348
vt 0.07311898 0.1158546
vt 0.0624041 0.09643388
vt 0.04691291 0.09662521
vt 0.03621066 0.1164525
vt 0.0763911 0.07663202
vt 0.0329175 0.07713199
vt 0.01325268 0.1096885
vt 0.03622115 0.1481551
vt 0.01326805 0.1629262
vt 0.04693544 0.1681814
vt 0.03294927 0.1902628
vt 0.06242669 0.1684258
vt 0.07642305 0.190975
vt 0.9228956 0.3345154
vt 0.9228956 0.3275458
vt 0.8599316 0.308596
vt 0.8602585 0.3537215
vt 0.7239829 0.3084522
vt 0.7239487 0.3539515
vt 0.6354976 0.308269
vt 0.6351103 0.3540069
vt 0.2884281 0.9330091
vt 0.3524048 0.933009
vt 0.3415925 0.7909384
vt 0.2774169 0.7909384
vt 0.3435944 0.6348436
vt 0.2791128 0.6348433
vt 0.2880749 0.4871115
vt 0.352791 0.4870982
vt 0.2969558 0.3538497
vt 0.3619236 0.3538497
vt 0.9324707 0.9330091
vt 0.9437414 0.7909384
vt 0.8801432 0.7909384
vt 0.8695144 0.9340963
vt 0.9423664 0.6348426
vt 0.8781635 0.6348436
vt 0.9339668 0.4871115
vt 0.869257 0.4870982
vt 0.9257059 0.3538497
vt 0.8602585 0.3537215
vt 0.5878927 0.3538497
vt 0.4980918 0.3538497
vt 0.5874774 0.4870976
vt 0.497011 0.4870976
vt 0.3619236 0.3538497
vt 0.352791 0.4870982
vt 0.4931755 0.6348436
vt 0.3435944 0.6348436
vt 0.3415925 0.7909384
vt 0.4889672 0.7909384
vt 0.3524048 0.933009
vt 0.4944753 0.933009
vt 0.5629888 0.9338628
vt 0.5878041 0.9156591
vt 0.5874986 0.6348407
vt 0.5893679 0.7909384
vt 0.594658 0.8891628
vt 0.6351103 0.3540069
vt 0.5878927 0.3538497
vt 0.6345772 0.4870976
vt 0.5874774 0.4870976
vt 0.6344216 0.6348407
vt 0.5874986 0.6348407
vt 0.6324015 0.7909384
vt 0.5893679 0.7909384
vt 0.594658 0.8891628
vt 0.6270156 0.8891628
vt 0.7239487 0.3539515
vt 0.6351103 0.3540069
vt 0.6345772 0.4870976
vt 0.7250313 0.4870976
vt 0.8602585 0.3537215
vt 0.869257 0.4870982
vt 0.7286935 0.6348436
vt 0.6344216 0.6348407
vt 0.7328155 0.7909384
vt 0.8801432 0.7909384
vt 0.8695144 0.9340963
vt 0.729738 0.9340965
vt 0.8781635 0.6348436
vt 0.6324015 0.7909384
vt 0.6270156 0.8891628
vt 0.6338757 0.9156591
vt 0.6595468 0.9342513
vt 0.6604006 0.976914
vt 0.6595468 0.9342513
vt 0.6293073 0.93464
vt 0.6293038 0.9769143
vt 0.729738 0.9340965
vt 0.7309772 0.9769143
vt 0.8695144 0.9340963
vt 0.8696509 0.9769143
vt 0.9276648 0.958695
vt 0.9276645 0.9503369
vt 0.6031741 0.9769143
vt 0.6031733 0.9346402
vt 0.9437414 0.7909384
vt 0.9429436 0.9330091
vt 0.9738587 0.9330091
vt 0.9740456 0.7909384
vt 0.9721566 0.6348433
vt 0.9423664 0.6348426
vt 0.9633518 0.4871115
vt 0.9339668 0.4871115
vt 0.9547764 0.3538497
vt 0.9257059 0.3538497
vt 0.3636691 0.1257677
vt 0.3636691 0.1574326
vt 0.4342041 0.1580665
vt 0.434204 0.1250421
vt 0.3636692 0.06662726
vt 0.4342041 0.06654501
vt 0.3636692 0.02757466
vt 0.434204 0.02768433
vt 0.434204 0.1929808
vt 0.4342041 0.2244028
vt 0.3636692 0.2579571
vt 0.434204 0.2557005
vt 0.363669 0.288168
vt 0.434204 0.2858956
vt 0.4342038 0.3115003
vt 0.3636681 0.3138305
vt 0.5055082 0.1907196
vt 0.5283227 0.158609
vt 0.4342041 0.1580665
vt 0.4550972 0.1904793
vt 0.434204 0.1250421
vt 0.5283239 0.1242646
vt 0.4551008 0.0925523
vt 0.5055119 0.0922333
vn 0.4238263 -0.06907007 0.903106
vn -0.4617189 -0.06364152 0.8847404
vn 0.4483123 -0.01339706 0.8937766
vn -0.431444 -0.1162915 0.894613
vn -0.9585288 -0.1447803 0.2454816
vn -0.9716177 -0.0658747 0.2271996
vn -0.9558799 -0.08123232 -0.2823031
vn -0.9629709 -0.006408536 -0.2695293
vn -0.4035748 0.08514166 -0.9109766
vn -0.4025951 0.1397668 -0.904645
vn 0.4097079 0.1300448 -0.9028997
vn 0.4025963 0.1842227 -0.8966483
vn 0.9644145 0.02479012 -0.2632302
vn 0.9629718 0.09992545 -0.2504003
vn 0.9682754 0.04123026 0.2464609
vn 0.9635925 -0.03865633 0.2645661
vn 0.4483123 -0.01339706 0.8937766
vn 0.4238263 -0.06907007 0.903106
vn -0.3649605 -0.8942325 -0.2591373
vn -0.3672273 -0.928586 -0.05359299
vn -0.2082932 -0.9228302 0.3240345
vn 0.3021578 -0.8946466 0.3291019
vn 0.4682009 -0.8824602 -0.04529867
vn -0.431444 -0.1162915 0.894613
vn 0.4238263 -0.06907007 0.903106
vn 0.9635925 -0.03865633 0.2645661
vn 0.4662367 -0.8483407 -0.2508816
vn 0.9644145 0.02479012 -0.2632302
vn 0.2610409 -0.7510286 -0.6064765
vn 0.4097079 0.1300448 -0.9028997
vn -0.1647208 -0.7745355 -0.610706
vn -0.4035748 0.08514166 -0.9109766
vn 0.05035606 -0.9612623 0.2709966
vn 0.05035606 -0.9612623 0.2709966
vn 0.056011 -0.9826614 -0.1767464
vn 0.056011 -0.9826614 -0.1767464
vn 0.05601056 -0.9826615 -0.1767463
vn 0.05601057 -0.9826615 -0.1767463
vn 0.05601009 -0.9826615 -0.1767463
vn 0.05601008 -0.9826615 -0.1767463
vn 0.9507005 0.02820468 0.3088252
vn 0.9507005 0.02820468 0.3088252
vn 0.9520789 0.01804616 0.3053195
vn 0.9521723 0.01732626 0.3050698
vn 0.9543914 -0.0002885613 0.2985582
vn 0.9543824 -0.0002155487 0.298587
vn 0.9555619 -0.0126072 0.2945212
vn 0.9555697 -0.01282977 0.2944859
vn 0.9556999 -0.01673158 0.293867
vn 0.9556999 -0.01673158 0.2938671
vn -0.9634129 -0.0774051 0.2566008
vn -0.9611937 -0.08905384 0.2611054
vn -0.9613487 -0.08826651 0.260802
vn -0.9634129 -0.0774051 0.2566008
vn -0.957382 -0.1069421 0.2682967
vn -0.9573678 -0.1070034 0.2683227
vn -0.954594 -0.1185771 0.2732945
vn -0.9545452 -0.1187691 0.2733811
vn -0.95368 -0.1221525 0.274906
vn -0.95368 -0.1221525 0.274906
vn 0.9984302 0.05512572 0.009915136
vn 0.9984302 0.05512553 0.009914987
vn 0.9984302 0.05512515 0.009915018
vn 0.9984302 0.05512515 0.009914904
vn 0.9984302 0.05512542 0.009914892
vn 0.9984302 0.05512512 0.009914831
vn 0.9984302 0.05512501 0.009914819
vn 0.9984302 0.05512505 0.009914796
vn 0.9984302 0.05512491 0.009914818
vn 0.9984302 0.05512496 0.009914814
vn 0.9984302 0.05512457 0.009914828
vn 0.9984302 0.05512475 0.009914751
vn 0.9984302 0.05512516 0.009914567
vn 0.9984302 0.05512501 0.009914754
vn 0.9984302 0.05512495 0.009914852
vn 0.9984302 0.05512502 0.009914886
vn 0.9984302 0.05512478 0.009915041
vn -3.773642E-07 0.177024 -0.9842066
vn -3.773642E-07 0.177024 -0.9842066
vn 0.001175632 0.1563555 -0.9877001
vn 0.001175634 0.1563555 -0.9877001
vn 0.00444086 0.09855556 -0.9951217
vn 0.00444086 0.09855556 -0.9951217
vn 0.007586605 0.04228908 -0.9990766
vn 0.007586607 0.04228904 -0.9990766
vn 0.003737544 0.1110506 -0.9938077
vn 0.003737552 0.1110505 -0.9938077
vn -0.9984302 -0.055125 -0.009914961
vn -0.9984302 -0.05512522 -0.009914841
vn -0.9984302 -0.0551251 -0.009914923
vn -0.9984302 -0.05512504 -0.009915041
vn -0.9984302 -0.05512486 -0.009915037
vn -0.9984302 -0.05512499 -0.009915116
vn -0.9984302 -0.05512498 -0.00991504
vn -0.9984302 -0.05512491 -0.009915072
vn -0.9984302 -0.05512502 -0.00991493
vn -0.9984302 -0.05512504 -0.009914884
vn -0.9984302 -0.05512513 -0.009914887
vn -0.9984302 -0.05512518 -0.009914811
vn -0.9984302 -0.05512503 -0.009915024
vn -0.9984302 -0.05512499 -0.009915045
vn -0.9984302 -0.05512527 -0.009914887
vn -0.9984302 -0.05512528 -0.009914729
vn -0.9984302 -0.05512528 -0.009914625
vn -0.05522208 0.9984257 0.009826346
vn -0.05522208 0.9984257 0.009826319
vn -0.03493532 0.7512919 -0.6590449
vn -0.03493533 0.751292 -0.6590445
vn -0.05600886 0.9819735 0.1805294
vn -0.05600886 0.9819735 0.1805294
vn -0.05600931 0.9826617 0.1767458
vn -0.0560093 0.9826617 0.1767458
vn -0.05600951 0.9826618 0.1767442
vn -0.0560095 0.9826618 0.1767442
vn 0.003737544 0.1110506 -0.9938077
vn 0.003737552 0.1110505 -0.9938077
vn -0.003340395 -0.1187088 0.9929235
vn -0.005369342 -0.08198594 0.996619
vn -0.005369342 -0.08198594 0.996619
vn -0.003331373 -0.1188716 0.992904
vn 0.0001776207 -0.1818897 0.9833189
vn 0.0001715698 -0.1817815 0.983339
vn 0.002503159 -0.2225253 0.9749237
vn 0.002502349 -0.2225119 0.9749268
vn 0.05035606 -0.9612623 0.2709966
vn 0.05035606 -0.9612623 0.2709966
vn -0.9448488 -0.1093788 0.3087019
vn -0.9448488 0.005045808 -0.3274678
vn -0.9448488 0.005045835 -0.3274679
vn -0.9448488 -0.1093788 0.308702
vn -0.4025954 -0.1842229 0.8966488
vn -0.4025951 -0.1842229 0.8966488
vn 0.4025962 -0.1397668 0.9046444
vn 0.4025967 -0.1397668 0.9046442
vn -0.402595 0.1397666 -0.904645
vn 0.4025962 0.1842223 -0.8966483
vn 0.9448499 0.1093784 -0.3086988
vn 0.94485 0.1093785 -0.3086987
vn 0.9448499 -0.00504495 0.3274649
vn 0.9448499 -0.005044944 0.3274648
vn 0.4025967 -0.1397668 0.9046442
vn 0.4025962 -0.1397668 0.9046444
vn -0.05601023 0.9826615 0.1767461
vn -0.05601026 0.9826615 0.1767458
vn -0.05601026 0.9826615 0.1767458
vn -0.05601023 0.9826615 0.1767461
vn -0.05601029 0.9826615 0.1767462
vn -0.0560103 0.9826615 0.1767462
vn -0.05601033 0.9826613 0.1767474
vn -0.05601032 0.9826613 0.1767474
g Cleaver_0
f 3/3/3 2/2/2 1/1/1
f 4/4/4 1/1/1 2/2/2
f 5/5/5 4/4/4 2/2/2
f 2/2/2 6/6/6 5/5/5
f 7/7/7 5/5/5 6/6/6
f 6/6/6 8/8/8 7/7/7
f 8/8/8 9/9/9 7/7/7
f 9/9/9 8/8/8 10/10/10
f 10/10/10 11/11/11 9/9/9
f 10/10/10 12/12/12 11/11/11
f 12/12/12 13/13/13 11/11/11
f 12/12/12 14/14/14 13/13/13
f 13/13/13 14/14/14 15/15/15
f 15/15/15 16/16/16 13/13/13
f 16/16/16 15/15/15 17/17/17
f 17/17/17 18/18/18 16/16/16
f 5/5/5 7/7/7 19/19/19
f 19/19/19 20/20/20 5/5/5
f 5/5/5 20/20/20 21/21/21
f 22/22/22 21/21/21 20/20/20
f 23/23/23 22/22/22 20/20/20
f 24/24/24 5/5/5 21/21/21
f 25/25/25 24/24/24 21/21/21
f 21/21/21 22/22/22 25/25/25
f 22/22/22 23/23/23 26/26/26
f 26/26/26 25/25/25 22/22/22
f 26/26/26 23/23/23 27/27/27
f 20/20/20 27/27/27 23/23/23
f 19/19/19 27/27/27 20/20/20
f 26/26/26 27/27/27 28/28/28
f 28/28/28 27/27/27 29/29/29
f 29/29/29 27/27/27 19/19/19
f 29/29/29 30/30/30 28/28/28
f 30/30/30 29/29/29 31/31/31
f 19/19/19 31/31/31 29/29/29
f 31/31/31 19/19/19 7/7/7
f 7/7/7 32/32/32 31/31/31
f 32/32/32 30/30/30 31/31/31
f 35/35/35 34/34/34 33/33/33
f 33/33/33 36/36/36 35/35/35
f 37/37/37 35/35/35 36/36/36
f 36/36/36 38/38/38 37/37/37
f 39/39/39 37/37/37 38/38/38
f 38/38/38 40/40/40 39/39/39
f 43/43/43 42/42/42 41/41/41
f 41/41/41 44/44/44 43/43/43
f 45/45/45 43/43/43 44/44/44
f 44/44/44 46/46/46 45/45/45
f 45/45/45 46/46/46 47/47/47
f 47/47/47 48/48/48 45/45/45
f 48/48/48 47/47/47 49/49/49
f 49/49/49 50/50/50 48/48/48
f 53/53/53 52/52/52 51/51/51
f 51/51/51 54/54/54 53/53/53
f 55/55/55 52/52/52 53/53/53
f 53/53/53 56/56/56 55/55/55
f 55/55/55 56/56/56 57/57/57
f 56/56/56 58/58/58 57/57/57
f 59/59/59 57/57/57 58/58/58
f 58/58/58 60/60/60 59/59/59
f 63/63/63 62/62/62 61/61/61
f 62/62/62 63/63/63 64/64/64
f 65/65/65 62/62/62 64/64/64
f 64/64/64 66/66/66 65/65/65
f 66/66/66 64/64/64 67/67/67
f 67/67/67 64/64/64 63/63/63
f 67/67/67 68/68/68 66/66/66
f 69/69/69 68/68/68 67/67/67
f 67/67/67 70/70/70 69/69/69
f 69/69/69 70/70/70 71/71/71
f 70/70/70 72/72/72 71/71/71
f 70/70/70 73/73/73 72/72/72
f 70/70/70 74/74/74 73/73/73
f 70/70/70 67/67/67 75/75/75
f 63/63/63 75/75/75 67/67/67
f 75/75/75 76/76/76 70/70/70
f 70/70/70 77/77/77 74/74/74
f 76/76/76 77/77/77 70/70/70
f 80/80/80 79/79/79 78/78/78
f 80/80/80 81/81/81 79/79/79
f 81/81/81 80/80/80 82/82/82
f 82/82/82 83/83/83 81/81/81
f 84/84/84 83/83/83 82/82/82
f 84/84/84 85/85/85 83/83/83
f 86/86/86 85/85/85 84/84/84
f 84/84/84 87/87/87 86/86/86
f 90/90/90 89/89/89 88/88/88
f 88/88/88 91/91/91 90/90/90
f 91/91/91 88/88/88 92/92/92
f 92/92/92 93/93/93 91/91/91
f 90/90/90 91/91/91 94/94/94
f 94/94/94 91/91/91 93/93/93
f 94/94/94 95/95/95 90/90/90
f 95/95/95 94/94/94 96/96/96
f 97/97/97 96/96/96 94/94/94
f 96/96/96 97/97/97 98/98/98
f 98/98/98 99/99/99 96/96/96
f 94/94/94 100/100/100 97/97/97
f 100/100/100 94/94/94 93/93/93
f 96/96/96 101/101/101 95/95/95
f 102/102/102 101/101/101 96/96/96
f 96/96/96 103/103/103 102/102/102
f 104/104/104 103/103/103 96/96/96
f 96/96/96 99/99/99 104/104/104
f 107/107/107 106/106/106 105/105/105
f 105/105/105 108/108/108 107/107/107
f 105/105/105 106/106/106 109/109/109
f 109/109/109 110/110/110 105/105/105
f 110/110/110 109/109/109 111/111/111
f 111/111/111 112/112/112 110/110/110
f 112/112/112 111/111/111 113/113/113
f 114/114/114 113/113/113 111/111/111
f 107/107/107 108/108/108 115/115/115
f 116/116/116 107/107/107 115/115/115
f 119/119/119 118/118/118 117/117/117
f 117/117/117 120/120/120 119/119/119
f 121/121/121 120/120/120 117/117/117
f 117/117/117 122/122/122 121/121/121
f 121/121/121 122/122/122 123/123/123
f 124/124/124 123/123/123 122/122/122
f 125/125/125 123/123/123 124/124/124
f 124/124/124 126/126/126 125/125/125
f 129/129/129 128/128/128 127/127/127
f 127/127/127 130/130/130 129/129/129
f 130/130/130 127/127/127 131/131/131
f 131/131/131 132/132/132 130/130/130
f 132/132/132 131/131/131 133/133/133
f 133/133/133 134/134/134 132/132/132
f 10/10/10 128/128/128 129/129/129
f 129/129/129 135/135/135 10/10/10
f 135/135/135 12/12/12 10/10/10
f 135/135/135 136/136/136 12/12/12
f 136/136/136 137/137/137 12/12/12
f 137/137/137 136/136/136 138/138/138
f 138/138/138 139/139/139 137/137/137
f 139/139/139 138/138/138 140/140/140
f 139/139/139 140/140/140 141/141/141
f 141/141/141 142/142/142 139/139/139
f 145/145/145 144/144/144 143/143/143
f 143/143/143 146/146/146 145/145/145
f 144/144/144 145/145/145 147/147/147
f 147/147/147 148/148/148 144/144/144
f 147/147/147 149/149/149 148/148/148
f 149/149/149 150/150/150 148/148/148
