g default
v 0.086762 -0.105201 0.361786
v 0.086762 0.105201 0.694557
v -0.135398 0.105201 0.694557
v -0.135398 -0.105201 0.361786
v -0.105755 -0.105201 0.356697
v -0.272141 0.105201 0.644885
v -0.464537 0.105201 0.533805
v -0.298152 -0.105201 0.245617
v -0.269935 -0.105201 0.256031
v -0.558123 0.105201 0.422417
v -0.669204 0.105201 0.23002
v -0.381016 -0.105201 0.063635
v -0.361786 -0.105201 0.086762
v -0.694557 0.105201 0.086762
v -0.694557 0.105201 -0.135398
v -0.361786 -0.105201 -0.135398
v -0.356697 -0.105201 -0.105755
v -0.644885 0.105201 -0.272141
v -0.533805 0.105201 -0.464537
v -0.245617 -0.105201 -0.298152
v -0.256031 -0.105201 -0.269935
v -0.422417 0.105201 -0.558123
v -0.23002 0.105201 -0.669204
v -0.063635 -0.105201 -0.381016
v -0.086762 -0.105201 -0.361786
v -0.086762 0.105201 -0.694557
v 0.135398 0.105201 -0.694557
v 0.135398 -0.105201 -0.361786
v 0.105755 -0.105201 -0.356697
v 0.272141 0.105201 -0.644885
v 0.464537 0.105201 -0.533805
v 0.298152 -0.105201 -0.245617
v 0.269935 -0.105201 -0.256031
v 0.558123 0.105201 -0.422417
v 0.669204 0.105201 -0.23002
v 0.381016 -0.105201 -0.063635
v 0.361786 -0.105201 -0.086762
v 0.694557 0.105201 -0.086762
v 0.694557 0.105201 0.135398
v 0.361786 -0.105201 0.135398
v 0.356697 -0.105201 0.105755
v 0.644885 0.105201 0.272141
v 0.533805 0.105201 0.464537
v 0.245617 -0.105201 0.298152
v 0.256031 -0.105201 0.269935
v 0.422417 0.105201 0.558123
v 0.23002 0.105201 0.669204
v 0.063635 -0.105201 0.381016
vt 0 0
vt 0 1
vt 1 1
vt 1 0
vt 0 0
vt 0 1
vt 1 1
vt 1 0
vt 0 0
vt 0 1
vt 1 1
vt 1 0
vt 0 0
vt 0 1
vt 1 1
vt 1 0
vt 0 0
vt 0 1
vt 1 1
vt 1 0
vt 0 0
vt 0 1
vt 1 1
vt 1 0
vt 0 0
vt 0 1
vt 1 1
vt 1 0
vt 0 0
vt 0 1
vt 1 1
vt 1 0
vt 0 0
vt 0 1
vt 1 1
vt 1 0
vt 0 0
vt 0 1
vt 1 1
vt 1 0
vt 0 0
vt 0 1
vt 1 1
vt 1 0
vt 0 0
vt 0 1
vt 1 1
vt 1 0
vn 0 0.8452241 -0.5344121
vn 0 0.8452241 -0.5344121
vn 0 0.8452241 -0.5344121
vn 0 0.8452241 -0.5344121
vn 0.2672059 0.8452245 -0.4628137
vn 0.2672059 0.8452245 -0.4628137
vn 0.2672059 0.8452245 -0.4628137
vn 0.2672061 0.8452243 -0.4628142
vn 0.4628137 0.8452245 -0.2672059
vn 0.4628137 0.8452245 -0.2672059
vn 0.4628137 0.8452245 -0.2672059
vn 0.4628137 0.8452245 -0.2672059
vn 0.5344121 0.8452241 0
vn 0.5344121 0.8452241 0
vn 0.5344121 0.8452241 0
vn 0.5344121 0.8452241 0
vn 0.4628137 0.8452245 0.2672059
vn 0.4628137 0.8452245 0.2672059
vn 0.4628142 0.8452243 0.2672061
vn 0.4628137 0.8452245 0.2672059
vn 0.2672059 0.8452245 0.4628137
vn 0.2672059 0.8452245 0.4628137
vn 0.2672059 0.8452245 0.4628137
vn 0.2672059 0.8452245 0.4628137
vn 0 0.8452241 0.5344121
vn 0 0.8452241 0.5344121
vn 0 0.8452241 0.5344121
vn 0 0.8452241 0.5344121
vn -0.2672059 0.8452245 0.4628137
vn -0.2672059 0.8452245 0.4628137
vn -0.2672059 0.8452245 0.4628137
vn -0.2672061 0.8452243 0.4628142
vn -0.4628137 0.8452245 0.2672059
vn -0.4628137 0.8452245 0.2672059
vn -0.4628137 0.8452245 0.2672059
vn -0.4628137 0.8452245 0.2672059
vn -0.5344121 0.8452241 0
vn -0.5344121 0.8452241 0
vn -0.5344121 0.8452241 0
vn -0.5344121 0.8452241 0
vn -0.4628137 0.8452245 -0.2672059
vn -0.4628137 0.8452245 -0.2672059
vn -0.4628142 0.8452243 -0.2672061
vn -0.4628137 0.8452245 -0.2672059
vn -0.2672059 0.8452245 -0.4628137
vn -0.2672059 0.8452245 -0.4628137
vn -0.2672059 0.8452245 -0.4628137
vn -0.2672059 0.8452245 -0.4628137
g default_0
f 3/3/3 2/2/2 1/1/1
f 4/4/4 3/3/3 1/1/1
f 7/7/7 6/6/6 5/5/5
f 8/8/8 7/7/7 5/5/5
f 11/11/11 10/10/10 9/9/9
f 12/12/12 11/11/11 9/9/9
f 15/15/15 14/14/14 13/13/13
f 16/16/16 15/15/15 13/13/13
f 19/19/19 18/18/18 17/17/17
f 20/20/20 19/19/19 17/17/17
f 23/23/23 22/22/22 21/21/21
f 24/24/24 23/23/23 21/21/21
f 27/27/27 26/26/26 25/25/25
f 28/28/28 27/27/27 25/25/25
f 31/31/31 30/30/30 29/29/29
f 32/32/32 31/31/31 29/29/29
f 35/35/35 34/34/34 33/33/33
f 36/36/36 35/35/35 33/33/33
f 39/39/39 38/38/38 37/37/37
f 40/40/40 39/39/39 37/37/37
f 43/43/43 42/42/42 41/41/41
f 44/44/44 43/43/43 41/41/41
f 47/47/47 46/46/46 45/45/45
f 48/48/48 47/47/47 45/45/45
