g DesertRock:RoadKillOut
v -100.8873 0 166.3894
v -93.41441 246.0069 145.806
v 14.13932 246.0069 173.7933
v 15.27043 0 196.6156
v 16.07422 373.1718 163.4445
v -84.20191 373.1718 137.351
v 20.91785 487.8522 137.5383
v -61.14027 487.8522 116.1854
v -82.11109 487.8522 -4.58075
v -58.85929 487.8522 -83.70264
v 20.91785 487.8522 -108.8699
v 20.91785 499.8497 -4.58075
v -61.14027 487.8522 116.1854
v 20.91785 487.8522 137.5383
v 154.5471 487.8522 -4.58075
v 128.5704 487.8522 -83.25549
v -103.0447 208.1572 -194.5682
v -111.2881 0 -218.9444
v 1.640854 0 -250.1967
v 1.51931 243.467 -223.5055
v 142.6197 208.1572 -193.9822
v 154.0289 0 -218.3115
v 155.2397 246.0069 -115.6016
v 167.6585 0 -115.9302
v 204.43 0 -4.561707
v 189.2875 246.0069 -12.48242
v 147.627 373.1718 -106.3685
v 179.371 373.1718 -10.22693
v 154.5471 487.8522 -4.58075
v 128.5704 487.8522 -83.25549
v -214.7477 -1.868912 -86.67053
v -198.8409 192.1591 -88.50928
v -225.2675 192.1591 -6.715942
v -243.2884 -1.868912 1.666077
v -201.8306 192.1591 118.1277
v -217.9765 -1.868912 136.4969
v -176.8512 269.4058 111.4591
v -199.5843 312.1241 -4.937012
v -174.0638 269.4058 -81.1958
v 219.1082 0 213.9011
v 202.8784 246.0069 189.7985
v 225.2675 246.0069 37.12976
v 243.2884 0 49.01935
v 212.9926 343.785 27.35315
v 192.1184 398.3517 169.6915
v 202.8784 246.0069 189.7985
v 219.1082 0 213.9011
v 54.12884 0 250.1967
v 50.1194 246.0069 223.4055
v 192.1184 398.3517 169.6915
v 49.69579 343.785 201.0245
v 30.78527 526.8853 8.40448
v 139.6734 514.8878 8.40448
v 122.5916 514.8878 102.0876
v 30.78527 514.8878 127.7281
v -81.41453 373.1718 -106.9149
v -90.42472 246.0069 -116.1876
v 14.13932 281.3167 -145.1249
v 16.07422 373.1718 -134.7761
v 155.2397 246.0069 -115.6016
v 147.627 373.1718 -106.3685
v -58.85929 487.8522 -83.70264
v 20.91785 487.8522 -108.8699
v 128.5704 487.8522 -83.25549
v 158.4969 427.7385 132.1115
v 137.4654 487.8522 111.8978
v 154.5471 487.8522 -4.58075
v 179.371 373.1718 -10.22693
v 139.6734 514.8878 8.40448
v 122.5916 514.8878 102.0876
v 20.91785 487.8522 137.5383
v 137.4654 487.8522 111.8978
v 158.4969 427.7385 132.1115
v 16.07422 373.1718 163.4445
v 122.5916 514.8878 102.0876
v 30.78527 514.8878 127.7281
v -82.11109 487.8522 -4.58075
v -61.14027 487.8522 116.1854
v -84.20191 373.1718 137.351
v -106.935 373.1718 -10.22693
v -81.41453 373.1718 -106.9149
v -58.85929 487.8522 -83.70264
v -118.7468 335.1736 -4.937012
v -96.01374 292.4554 111.4591
v -93.41441 246.0069 145.806
v -105.2262 192.1591 118.1277
v -100.8873 0 166.3894
v -113.6441 -1.868912 136.4969
v -93.22636 292.4554 -81.1958
v -102.2365 192.1591 -88.50928
v -90.42472 246.0069 -116.1876
v -103.0447 208.1572 -194.5682
v -114.8566 154.3095 -166.8899
v -124.0448 -1.868912 -189.0519
v -111.2881 0 -218.9444
v -102.2365 192.1591 -88.50928
v -90.42472 246.0069 -116.1876
v -114.8566 154.3095 -166.8899
v -158.6173 154.3095 -144.4009
v -171.3063 -1.868912 -164.7639
v -124.0448 -1.868912 -189.0519
v -113.6441 -1.868912 136.4969
v -173.3666 -1.868912 136.4969
v -160.525 192.1591 118.1277
v -105.2262 192.1591 118.1277
v -151.3125 292.4554 111.4591
v -96.01374 292.4554 111.4591
v -201.8306 192.1591 118.1277
v -217.9765 -1.868912 136.4969
v -176.8512 269.4058 111.4591
v -96.01374 292.4554 111.4591
v -151.3125 292.4554 111.4591
v -174.0456 335.1736 -4.937012
v -118.7468 335.1736 -4.937012
v -148.5251 292.4554 -81.1958
v -93.22636 292.4554 -81.1958
v -199.5843 312.1241 -4.937012
v -176.8512 269.4058 111.4591
v -174.0638 269.4058 -81.1958
v -93.22636 292.4554 -81.1958
v -148.5251 292.4554 -81.1958
v -157.5353 192.1591 -88.50928
v -102.2365 192.1591 -88.50928
v -198.8409 192.1591 -88.50928
v -214.7477 -1.868912 -86.67053
v -170.1378 -1.868912 -86.67053
v -174.0638 269.4058 -81.1958
v -90.42472 246.0069 -116.1876
v -103.0447 208.1572 -194.5682
v 1.51931 243.467 -223.5055
v 14.13932 281.3167 -145.1249
v 142.6197 208.1572 -193.9822
v 155.2397 246.0069 -115.6016
v 155.2397 246.0069 -115.6016
v 142.6197 208.1572 -193.9822
v 154.0289 0 -218.3115
v 167.6585 0 -115.9302
v -170.1378 -1.868912 -86.67053
v -171.3063 -1.868912 -164.7639
v -158.6173 154.3095 -144.4009
v -157.5353 192.1591 -88.50928
v -157.5353 192.1591 -88.50928
v -158.6173 154.3095 -144.4009
v -114.8566 154.3095 -166.8899
v -102.2365 192.1591 -88.50928
v 204.43 0 -4.561707
v 243.2884 0 49.01935
v 225.2675 246.0069 37.12976
v 189.2875 246.0069 -12.48242
v 212.9926 343.785 27.35315
v 179.371 373.1718 -10.22693
v 14.13932 246.0069 173.7933
v 50.1194 246.0069 223.4055
v 54.12884 0 250.1967
v 15.27043 0 196.6156
v 16.07422 373.1718 163.4445
v 49.69579 343.785 201.0245
v 179.371 373.1718 -10.22693
v 212.9926 343.785 27.35315
v 192.1184 398.3517 169.6915
v 158.4969 427.7385 132.1115
v 158.4969 427.7385 132.1115
v 192.1184 398.3517 169.6915
v 49.69579 343.785 201.0245
v 16.07422 373.1718 163.4445
v 20.91785 499.8497 -4.58075
v 30.78527 526.8853 8.40448
v 30.78527 514.8878 127.7281
v 20.91785 487.8522 137.5383
v 154.5471 487.8522 -4.58075
v 139.6734 514.8878 8.40448
v 30.78527 526.8853 8.40448
v 20.91785 499.8497 -4.58075
vt 0.176774 0.797961
vt 0.277595 0.697985
vt 0.232986 0.652245
vt 0.128596 0.748563
vt 0.285795 0.60133
vt 0.327386 0.643974
vt 0.334955 0.554859
vt 0.368989 0.589756
vt 0.317981 0.904545
vt 0.360093 0.925841
vt 0.401842 0.902424
vt 0.358327 0.861012
vt 0.275387 0.848819
vt 0.298094 0.80594
vt 0.41182 0.80594
vt 0.433971 0.847858
vt 0.210478 0.931255
vt 0.217998 0.809674
vt 0.150049 0.80594
vt 0.148563 0.938646
vt 0.06801 0.931867
vt 0.059299 0.809729
vt 0.14641 0.372248
vt 0.003107 0.367807
vt 0 0.436001
vt 0.143533 0.435391
vt 0.218033 0.380641
vt 0.217471 0.437375
vt 0.285077 0.434823
vt 0.283824 0.386941
vt 0.839457 0.011582
vt 0.780991 0.10797
vt 0.82285 0.131183
vt 0.888484 0.040581
vt 0.876892 0.174289
vt 0.95581 0.092039
vt 0.847687 0.212594
vt 0.790031 0.180754
vt 0.758199 0.147401
vt 0.457255 0.088887
vt 0.562221 0.184483
vt 0.630133 0.13132
vt 0.532723 0.023955
vt 0.669656 0.174591
vt 0.615324 0.235166
vt 0.562221 0.184483
vt 0.457255 0.088887
vt 0.392674 0.170391
vt 0.510978 0.256508
vt 0.615324 0.235166
vt 0.560971 0.287628
vt 0.530872 0.875968
vt 0.58385 0.899515
vt 0.589319 0.836757
vt 0.530614 0.812708
vt 0.245722 0.253947
vt 0.178747 0.229285
vt 0.18075 0.294996
vt 0.231241 0.307678
vt 0.14641 0.372248
vt 0.218033 0.380641
vt 0.308188 0.278166
vt 0.295496 0.324458
vt 0.283824 0.386941
vt 0.257639 0.516361
vt 0.292942 0.501529
vt 0.285077 0.434823
vt 0.217471 0.437375
vt 0.30346 0.441518
vt 0.310345 0.495949
vt 0.334955 0.554859
vt 0.292942 0.501529
vt 0.257639 0.516361
vt 0.285795 0.60133
vt 0.310345 0.495949
vt 0.343498 0.539603
vt 0.330557 0.235777
vt 0.36899 0.176229
vt 0.317127 0.131121
vt 0.270525 0.203693
vt 0.245722 0.253947
vt 0.308188 0.278166
vt 0.252216 0.189572
vt 0.269265 0.118809
vt 0.257604 0.087521
vt 0.22211 0.084554
vt 0.145013 0
vt 0.133578 0.014918
vt 0.2109 0.221483
vt 0.156987 0.201071
vt 0.178747 0.229285
vt 0.210478 0.931255
vt 0.232715 0.903166
vt 0.236818 0.811489
vt 0.217998 0.809674
vt 0.272661 0.935002
vt 0.250423 0.963091
vt 0.436696 0.897856
vt 0.464776 0.893211
vt 0.466469 0.80594
vt 0.435557 0.80594
vt 0.997106 0.139497
vt 0.973753 0.112445
vt 0.891449 0.193235
vt 0.911815 0.219236
vt 0.845566 0.233396
vt 0.865811 0.26056
vt 0.876892 0.174289
vt 0.95581 0.092039
vt 0.847687 0.212594
vt 0.820352 0.26056
vt 0.835496 0.229343
vt 0.779956 0.193233
vt 0.761182 0.214372
vt 0.745801 0.163514
vt 0.719942 0.182054
vt 0.790031 0.180754
vt 0.847687 0.212594
vt 0.758199 0.147401
vt 0.707936 0.150165
vt 0.74016 0.157431
vt 0.758624 0.100014
vt 0.7264 0.092748
vt 0.780991 0.10797
vt 0.839457 0.011582
vt 0.815711 0
vt 0.758199 0.147401
vt 0.211021 0.986277
vt 0.210478 0.931255
vt 0.148563 0.938646
vt 0.141255 0.986276
vt 0.06801 0.931867
vt 0.054414 0.981578
vt 0.026272 0.961712
vt 0.06801 0.931867
vt 0.059299 0.809729
vt 0 0.82043
vt 0.514149 0.815087
vt 0.466469 0.80594
vt 0.464776 0.893211
vt 0.487738 0.924405
vt 0.487738 0.924405
vt 0.464776 0.893211
vt 0.436696 0.897856
vt 0.461321 0.94388
vt 0.563939 0
vt 0.532723 0.023955
vt 0.630133 0.13132
vt 0.659614 0.110423
vt 0.669656 0.174591
vt 0.704616 0.172372
vt 0.494893 0.289138
vt 0.510978 0.256508
vt 0.392674 0.170391
vt 0.37268 0.204784
vt 0.565376 0.323156
vt 0.560971 0.287628
vt 0.704616 0.191471
vt 0.669656 0.174591
vt 0.615324 0.235166
vt 0.6373 0.254687
vt 0.6373 0.254687
vt 0.615324 0.235166
vt 0.560971 0.287628
vt 0.577841 0.314301
vt 0.514935 0.886043
vt 0.530872 0.875968
vt 0.530614 0.812708
vt 0.514935 0.80594
vt 0.585929 0.921322
vt 0.58385 0.899515
vt 0.530872 0.875968
vt 0.514935 0.886043
vn -0.250847 0.08827701 0.9639932
vn -0.250889 0.08639399 0.9641529
vn -0.250889 0.08637001 0.9641551
vn -0.250847 0.08827701 0.9639932
vn -0.249157 0.145322 0.957498
vn -0.2493031 0.141317 0.9580593
vn -0.2454621 0.2234571 0.9433002
vn -0.2454621 0.2234571 0.9433002
vn -0.07255998 0.9973608 0.002537
vn -0.07553097 0.9943476 -0.07461897
vn 0.001784999 0.9972505 -0.07408196
vn -0.027323 0.9992969 -0.025674
vn -0.070468 0.996205 0.051086
vn -0.070468 0.996205 0.051086
vn 0.05730202 0.9956533 -0.07342302
vn 0.05730202 0.9956533 -0.07342302
vn -0.2819841 0.112805 -0.9527643
vn -0.2819841 0.112805 -0.9527643
vn 0.002997999 0.1177339 -0.9930406
vn 0.008679002 0.117733 -0.9930073
vn 0.2166839 0.115051 -0.9694387
vn 0.2166839 0.115051 -0.9694387
vn 0.9479661 0.05823901 -0.3129991
vn 0.9484698 0.04829899 -0.3131649
vn 0.9484698 0.04829899 -0.3131649
vn 0.9479709 0.058151 -0.313001
vn 0.9406805 0.1365709 -0.3105938
vn 0.9402211 0.140035 -0.310442
vn 0.9272082 0.215778 -0.3061451
vn 0.9272082 0.215778 -0.3061451
vn -0.9488947 0.07488699 -0.3065789
vn -0.9357728 0.133111 -0.3265129
vn -0.9892746 0.1447789 -0.01936399
vn -0.9957178 0.09217699 -0.007026999
vn -0.9695013 0.145934 0.1969021
vn -0.9780255 0.09876905 0.1836051
vn -0.9425296 0.2476909 0.2242479
vn -0.9661351 0.25802 0.002925
vn -0.8988953 0.2466951 -0.3621171
vn 0.986306 0.07924099 0.144643
vn 0.9864716 0.08713997 0.1388539
vn 0.9864884 0.08833004 0.13798
vn 0.986306 0.07924099 0.144643
vn 0.9864871 0.105797 0.125101
vn 0.9864871 0.105797 0.125101
vn 0.203567 0.129024 0.9705221
vn 0.2135771 0.109205 0.9708034
vn 0.2135771 0.109205 0.9708034
vn 0.203428 0.129297 0.970515
vn 0.181105 0.172565 0.9682057
vn 0.181105 0.172565 0.9682057
vn 0.06790601 0.9958262 0.06098401
vn 0.109497 0.9937866 0.01996499
vn 0.06514601 0.9958411 0.06369001
vn 0.02792901 0.9945952 0.100002
vn -0.2829679 0.161002 -0.9455197
vn -0.285373 0.09965801 -0.9532211
vn -0.005180002 0.09883405 -0.9950905
vn 0.001191999 0.1614229 -0.9868846
vn 0.21839 0.09251701 -0.9714661
vn 0.217285 0.149846 -0.964538
vn -0.2787211 0.2328271 -0.9317222
vn 0.007222002 0.2305511 -0.9730334
vn 0.2150499 0.2168369 -0.9522265
vn 0.9618673 0.2595311 0.08634202
vn 0.9504302 0.2957831 0.09589002
vn 0.9512772 0.293263 0.09522802
vn 0.9618673 0.2595311 0.08634202
vn 0.8708223 0.4707752 0.14156
vn 0.8708223 0.4707752 0.14156
vn 0.164417 0.2786889 0.9462028
vn 0.163628 0.277728 0.9466219
vn 0.153494 0.265363 0.9518519
vn 0.153494 0.265363 0.9518519
vn 0.223814 0.350691 0.9093531
vn 0.223814 0.350691 0.9093531
vn -0.9749247 0.2224339 -0.006698999
vn -0.9645591 0.212008 0.157093
vn -0.9667487 0.1914609 0.1695279
vn -0.9807828 0.193786 -0.022631
vn -0.9449037 0.1836619 -0.2709709
vn -0.9385353 0.2266331 -0.2603631
vn -0.9896178 0.143701 -0.002604999
vn -0.9720894 0.1300021 0.1952991
vn -0.9665355 0.08366596 0.2425059
vn -0.9431402 0.06666601 0.3256411
vn -0.9386999 0.06388699 0.338764
vn -0.9386999 0.06388699 0.338764
vn -0.9637399 0.09935999 -0.247655
vn -0.9754696 0.09186797 -0.2000479
vn -0.9754696 0.09186797 -0.2000479
vn -0.9788391 0.192428 -0.06960901
vn -0.970494 0.140807 -0.195741
vn -0.9436719 0.08596399 -0.319521
vn -0.9436719 0.08596399 -0.319521
vn -0.9710428 0.2350309 0.042852
vn -0.9710428 0.2350309 0.042852
vn -0.4518171 0.151339 -0.8791802
vn -0.4518171 0.151339 -0.8791802
vn -0.4518172 0.1513381 -0.8791804
vn -0.4518172 0.1513381 -0.8791804
vn 0 0.09425104 0.9955485
vn 0 0.09425104 0.9955485
vn -0.002918001 0.08753303 0.9961573
vn 0 0.08447696 0.9964254
vn -0.005075998 0.06888698 0.9976116
vn 0 0.066342 0.9977969
vn -0.005580001 0.091417 0.995797
vn 0 0.09425104 0.9955485
vn -0.02764601 0.08017403 0.9963974
vn 0 0.9387728 0.3445369
vn -0.2458551 0.8934433 0.3759181
vn -0.289525 0.9571409 0.007522
vn 0 0.9999193 -0.012705
vn -0.217661 0.8186591 -0.531433
vn 0 0.8724412 -0.4887191
vn -0.6699582 0.7423072 -0.011659
vn -0.6213717 0.6884736 0.3740338
vn -0.5643069 0.6252468 -0.5390959
vn 0 0.072726 -0.997352
vn -0.005584002 0.07551103 -0.9971294
vn -0.005511998 0.03489899 -0.9993756
vn 0 0.072726 -0.997352
vn -0.006157001 0.010297 -0.999928
vn 0 -0.009476002 -0.9999552
vn 0 -0.009476002 -0.9999552
vn -0.030272 0.08778999 -0.995679
vn -0.3852349 0.8537658 -0.3502539
vn -0.3852349 0.8537658 -0.3502539
vn -0.03002399 0.9019818 -0.4307289
vn 0.02823499 0.8983566 -0.4383588
vn 0.3045019 0.8376196 -0.4535108
vn 0.3045019 0.8376196 -0.4535108
vn 0.9859564 0.06018703 -0.1557801
vn 0.9859564 0.06018703 -0.1557801
vn 0.9859564 0.06018703 -0.1557801
vn 0.9859564 0.06018703 -0.1557801
vn -0.9973817 0.07222299 -0.003649999
vn -0.9973817 0.07222299 -0.003649999
vn -0.9973817 0.07222299 -0.003649999
vn -0.9973817 0.07222299 -0.003649999
vn -0.10891 0.8706322 -0.4797271
vn -0.10891 0.8706322 -0.4797271
vn -0.10891 0.8706322 -0.4797271
vn -0.10891 0.8706322 -0.4797271
vn 0.8091367 0.03091199 -0.5868068
vn 0.8091364 0.03091202 -0.5868073
vn 0.8043517 0.03759199 -0.5929629
vn 0.8035389 0.038716 -0.5939919
vn 0.789596 0.05747 -0.61093
vn 0.789596 0.05747 -0.61093
vn -0.7950331 0.06495601 0.6030781
vn -0.7974839 0.062398 0.600105
vn -0.8084829 0.05067699 0.5863339
vn -0.8084829 0.05067699 0.5863339
vn -0.7613161 0.09836401 0.6408761
vn -0.7613161 0.09836401 0.6408761
vn 0.7378401 0.6593161 -0.144549
vn 0.7378401 0.6593161 -0.144549
vn 0.7378401 0.6593161 -0.144549
vn 0.7378401 0.6593161 -0.144549
vn -0.1274811 0.7227623 0.6792373
vn -0.1274811 0.7227623 0.6792373
vn -0.1274811 0.7227623 0.6792373
vn -0.1274811 0.7227623 0.6792373
vn -0.939518 0.341066 0.031303
vn -0.939518 0.341066 0.031303
vn -0.939518 0.341066 0.031303
vn -0.939518 0.341066 0.031303
vn 0.04311702 0.4357892 -0.8990154
vn 0.04311702 0.4357892 -0.8990154
vn 0.04311702 0.4357892 -0.8990154
vn 0.04311702 0.4357892 -0.8990154
g DesertRock:RoadKillOut_0
f 3/3/3 2/2/2 1/1/1
f 4/4/4 3/3/3 1/1/1
f 3/3/3 5/5/5 2/2/2
f 5/5/5 6/6/6 2/2/2
f 5/5/5 7/7/7 6/6/6
f 7/7/7 8/8/8 6/6/6
f 11/11/11 10/10/10 9/9/9
f 12/12/12 11/11/11 9/9/9
f 12/12/12 9/9/9 13/13/13
f 14/14/14 12/12/12 13/13/13
f 12/12/12 15/15/15 11/11/11
f 15/15/15 16/16/16 11/11/11
f 19/19/19 18/18/18 17/17/17
f 20/20/20 19/19/19 17/17/17
f 20/20/20 21/21/21 19/19/19
f 21/21/21 22/22/22 19/19/19
f 25/25/25 24/24/24 23/23/23
f 26/26/26 25/25/25 23/23/23
f 26/26/26 23/23/23 27/27/27
f 28/28/28 26/26/26 27/27/27
f 28/28/28 27/27/27 29/29/29
f 27/27/27 30/30/30 29/29/29
f 33/33/33 32/32/32 31/31/31
f 34/34/34 33/33/33 31/31/31
f 33/33/33 34/34/34 35/35/35
f 34/34/34 36/36/36 35/35/35
f 33/33/33 35/35/35 37/37/37
f 38/38/38 33/33/33 37/37/37
f 33/33/33 38/38/38 32/32/32
f 38/38/38 39/39/39 32/32/32
f 42/42/42 41/41/41 40/40/40
f 43/43/43 42/42/42 40/40/40
f 42/42/42 44/44/44 41/41/41
f 44/44/44 45/45/45 41/41/41
f 48/48/48 47/47/47 46/46/46
f 49/49/49 48/48/48 46/46/46
f 49/49/49 46/46/46 50/50/50
f 51/51/51 49/49/49 50/50/50
f 54/54/54 53/53/53 52/52/52
f 55/55/55 54/54/54 52/52/52
f 58/58/58 57/57/57 56/56/56
f 59/59/59 58/58/58 56/56/56
f 58/58/58 59/59/59 60/60/60
f 59/59/59 61/61/61 60/60/60
f 59/59/59 56/56/56 62/62/62
f 63/63/63 59/59/59 62/62/62
f 59/59/59 63/63/63 61/61/61
f 63/63/63 64/64/64 61/61/61
f 67/67/67 66/66/66 65/65/65
f 68/68/68 67/67/67 65/65/65
f 67/67/67 69/69/69 66/66/66
f 69/69/69 70/70/70 66/66/66
f 73/73/73 72/72/72 71/71/71
f 74/74/74 73/73/73 71/71/71
f 72/72/72 75/75/75 71/71/71
f 75/75/75 76/76/76 71/71/71
f 79/79/79 78/78/78 77/77/77
f 80/80/80 79/79/79 77/77/77
f 80/80/80 77/77/77 81/81/81
f 77/77/77 82/82/82 81/81/81
f 80/80/80 83/83/83 79/79/79
f 83/83/83 84/84/84 79/79/79
f 79/79/79 84/84/84 85/85/85
f 84/84/84 86/86/86 85/85/85
f 85/85/85 86/86/86 87/87/87
f 86/86/86 88/88/88 87/87/87
f 89/89/89 83/83/83 80/80/80
f 81/81/81 89/89/89 80/80/80
f 90/90/90 89/89/89 81/81/81
f 91/91/91 90/90/90 81/81/81
f 94/94/94 93/93/93 92/92/92
f 95/95/95 94/94/94 92/92/92
f 92/92/92 93/93/93 96/96/96
f 97/97/97 92/92/92 96/96/96
f 100/100/100 99/99/99 98/98/98
f 101/101/101 100/100/100 98/98/98
f 104/104/104 103/103/103 102/102/102
f 105/105/105 104/104/104 102/102/102
f 106/106/106 104/104/104 105/105/105
f 107/107/107 106/106/106 105/105/105
f 104/104/104 108/108/108 103/103/103
f 108/108/108 109/109/109 103/103/103
f 110/110/110 108/108/108 104/104/104
f 106/106/106 110/110/110 104/104/104
f 113/113/113 112/112/112 111/111/111
f 114/114/114 113/113/113 111/111/111
f 115/115/115 113/113/113 114/114/114
f 116/116/116 115/115/115 114/114/114
f 113/113/113 117/117/117 112/112/112
f 117/117/117 118/118/118 112/112/112
f 119/119/119 117/117/117 113/113/113
f 115/115/115 119/119/119 113/113/113
f 122/122/122 121/121/121 120/120/120
f 123/123/123 122/122/122 120/120/120
f 122/122/122 124/124/124 121/121/121
f 125/125/125 124/124/124 122/122/122
f 126/126/126 125/125/125 122/122/122
f 124/124/124 127/127/127 121/121/121
f 130/130/130 129/129/129 128/128/128
f 131/131/131 130/130/130 128/128/128
f 132/132/132 130/130/130 131/131/131
f 133/133/133 132/132/132 131/131/131
f 136/136/136 135/135/135 134/134/134
f 137/137/137 136/136/136 134/134/134
f 140/140/140 139/139/139 138/138/138
f 141/141/141 140/140/140 138/138/138
f 144/144/144 143/143/143 142/142/142
f 145/145/145 144/144/144 142/142/142
f 148/148/148 147/147/147 146/146/146
f 149/149/149 148/148/148 146/146/146
f 150/150/150 148/148/148 149/149/149
f 151/151/151 150/150/150 149/149/149
f 154/154/154 153/153/153 152/152/152
f 155/155/155 154/154/154 152/152/152
f 152/152/152 153/153/153 156/156/156
f 153/153/153 157/157/157 156/156/156
f 160/160/160 159/159/159 158/158/158
f 161/161/161 160/160/160 158/158/158
f 164/164/164 163/163/163 162/162/162
f 165/165/165 164/164/164 162/162/162
f 168/168/168 167/167/167 166/166/166
f 169/169/169 168/168/168 166/166/166
f 172/172/172 171/171/171 170/170/170
f 173/173/173 172/172/172 170/170/170
