g Dracula_Cloak
v -0.3731982 -0.2669767 -0.02516369
v -0.3512155 -0.1779845 -0.02788869
v -0.2926796 -0.1730091 -0.06752361
v -0.3109985 -0.257026 -0.0665895
v -0.2341437 -0.1705214 -0.09127325
v -0.2487988 -0.2520506 -0.09195095
v -0.2176467 -0.08712649 -0.08809759
v -0.2720584 -0.08774842 -0.06640071
v -0.32647 -0.08899226 -0.02931386
v -0.2468325 -5.858559E-09 -0.06116381
v -0.296199 -5.858559E-09 -0.02813935
v -0.197466 -5.858559E-09 -0.07992601
v -0.1693819 0.08899219 -0.06326681
v -0.2117348 0.08899222 -0.04895964
v -0.2540876 0.08899219 -0.02307547
v -0.161498 0.1779845 -0.02693495
v -0.1938213 0.1779845 -0.01283251
v -0.1291746 0.1779845 -0.03462825
v -0.08290587 0.2669767 8.324575E-10
v -0.1036917 0.2669767 8.324575E-10
v -0.1244776 0.2669767 8.324575E-10
v -0.1480995 -5.858559E-09 -0.07016376
v -0.127029 0.08899222 -0.05442003
v -0.163235 -0.08774842 -0.07901449
v -0.1756078 -0.1730091 -0.0832523
v -0.1865991 -0.257026 -0.08518364
v -0.1243994 -0.2620013 -0.07609207
v -0.1170718 -0.1754968 -0.07326526
v -0.05853593 -0.1730091 -0.09111667
v -0.0621997 -0.257026 -0.09448074
v -1.430511E-08 -0.1705214 -0.107002
v -1.549721E-08 -0.2520506 -0.1105452
v -1.370907E-08 -0.08712649 -0.1007114
v -0.05441169 -0.08774842 -0.0853214
v -0.1088234 -0.08837033 -0.06835468
v -0.04936651 -5.858559E-09 -0.07466374
v -0.098733 -5.858559E-09 -0.0592765
v -1.311302E-08 -5.858559E-09 -0.08892597
v -1.206994E-08 0.08899219 -0.0687272
v -0.04233805 0.08899222 -0.05715023
v -0.08467979 0.08899222 -0.04489071
v -0.03226397 0.1779845 -0.03078744
v -0.06454278 0.1779845 -0.02405726
v -6.556511E-09 0.1779845 -0.03719657
v 0 0.2669767 8.324575E-10
v -0.02066708 0.2669767 8.324575E-10
v -0.04136385 0.2669767 8.324575E-10
v -0.09685129 0.1779845 -0.02950328
v -0.06212001 0.2669767 8.324575E-10
v 0.03226396 0.1779845 -0.03078744
v 0.02066708 0.2669767 8.324575E-10
v 0.04233803 0.08899222 -0.05715023
v 0.04936648 -5.858559E-09 -0.07466374
v 0.05441166 -0.08774842 -0.0853214
v 0.0585359 -0.1730091 -0.09111667
v 0.06219967 -0.257026 -0.09448074
v 0.1243994 -0.2620013 -0.07609207
v 0.1170718 -0.1754968 -0.07326528
v 0.1756077 -0.1730091 -0.08325231
v 0.186599 -0.257026 -0.08518364
v 0.2341437 -0.1705214 -0.09127327
v 0.2487987 -0.2520506 -0.09195099
v 0.2176467 -0.08712649 -0.08809761
v 0.163235 -0.08774842 -0.07901451
v 0.1088233 -0.08837033 -0.0683547
v 0.1480995 -5.858559E-09 -0.07016376
v 0.09873298 -5.858559E-09 -0.0592765
v 0.197466 -5.858559E-09 -0.07992603
v 0.1693818 0.08899219 -0.06326681
v 0.1270289 0.08899222 -0.05442003
v 0.08467977 0.08899222 -0.04489071
v 0.09685127 0.1779845 -0.02950327
v 0.06454276 0.1779845 -0.02405726
v 0.1291746 0.1779845 -0.03462824
v 0.08290587 0.2669767 8.324575E-10
v 0.06212001 0.2669767 8.324575E-10
v 0.04136385 0.2669767 8.324575E-10
v 0.2468325 -5.858559E-09 -0.06116381
v 0.2117347 0.08899222 -0.04895964
v 0.296199 -5.858559E-09 -0.02813935
v 0.3264701 -0.08899228 -0.02931386
v 0.2720584 -0.08774842 -0.06640074
v 0.3512155 -0.1779845 -0.02788869
v 0.2926796 -0.1730091 -0.06752363
v 0.3109984 -0.257026 -0.0665895
v 0.3731982 -0.2669767 -0.02516369
v 0.2540876 0.08899219 -0.02307547
v 0.161498 0.1779845 -0.02693494
v 0.1036917 0.2669767 8.324575E-10
v 0.1938213 0.1779845 -0.01283251
v 0.1244776 0.2669767 8.324575E-10
vt 0.7686769 0.3434658
vt 0.7686769 0.3688521
vt 0.78137 0.3688521
vt 0.78137 0.3434658
vt 0.7940632 0.3688521
vt 0.7940632 0.3434658
vt 0.7940633 0.3942384
vt 0.78137 0.3942384
vt 0.7686769 0.3942384
vt 0.78137 0.4196247
vt 0.7686769 0.4196247
vt 0.7940632 0.4196247
vt 0.7940633 0.445011
vt 0.78137 0.4450111
vt 0.7686769 0.445011
vt 0.78137 0.4703974
vt 0.7686769 0.4703974
vt 0.7940632 0.4703974
vt 0.7940632 0.4957837
vt 0.78137 0.4957837
vt 0.7686769 0.4957837
vt 0.8067564 0.4196247
vt 0.8067564 0.4450111
vt 0.8067564 0.3942384
vt 0.8067564 0.3688521
vt 0.8067564 0.3434658
vt 0.8194495 0.3434658
vt 0.8194495 0.3688521
vt 0.8321427 0.3688521
vt 0.8321427 0.3434658
vt 0.8448359 0.3688521
vt 0.8448359 0.3434658
vt 0.8448362 0.3942384
vt 0.8321427 0.3942384
vt 0.8194497 0.3942384
vt 0.8321427 0.4196247
vt 0.8194495 0.4196247
vt 0.8448359 0.4196247
vt 0.8448362 0.445011
vt 0.8321427 0.4450111
vt 0.8194497 0.445011
vt 0.8321427 0.4703974
vt 0.8194495 0.4703974
vt 0.8448359 0.4703974
vt 0.8448359 0.4957837
vt 0.8321427 0.4957837
vt 0.8194495 0.4957837
vt 0.8067564 0.4703974
vt 0.8067564 0.4957837
vt 0.857529 0.4703974
vt 0.857529 0.4957837
vt 0.857529 0.4450111
vt 0.857529 0.4196247
vt 0.857529 0.3942384
vt 0.857529 0.3688521
vt 0.857529 0.3434658
vt 0.8702222 0.3434658
vt 0.8702222 0.3688521
vt 0.8829153 0.3688521
vt 0.8829153 0.3434658
vt 0.8956084 0.3688521
vt 0.8956084 0.3434658
vt 0.8956083 0.3942384
vt 0.8829154 0.3942384
vt 0.8702224 0.3942384
vt 0.8829153 0.4196247
vt 0.8702222 0.4196247
vt 0.8956084 0.4196247
vt 0.8956083 0.445011
vt 0.8829154 0.4450111
vt 0.8702224 0.445011
vt 0.8829153 0.4703974
vt 0.8702222 0.4703974
vt 0.8956084 0.4703974
vt 0.8956084 0.4957837
vt 0.8829153 0.4957837
vt 0.8702222 0.4957837
vt 0.9083016 0.4196247
vt 0.9083016 0.4450111
vt 0.9209948 0.4196247
vt 0.9209948 0.3942384
vt 0.9083016 0.3942384
vt 0.9209948 0.3688521
vt 0.9083016 0.3688521
vt 0.9083016 0.3434658
vt 0.9209948 0.3434658
vt 0.9209948 0.445011
vt 0.9083016 0.4703974
vt 0.9083016 0.4957837
vt 0.9209948 0.4703974
vt 0.9209948 0.4957837
vn 0.5634536 -0.1139474 0.8182518
vn 0.562713 -0.1261641 0.816968
vn 0.4793804 -0.1116385 0.8704777
vn 0.4977796 -0.0996992 0.8615541
vn 0.1332777 -0.0519377 0.9897169
vn 0.1664803 -0.04180953 0.9851579
vn 0.1156069 -0.09171906 0.9890513
vn 0.4711746 -0.1558102 0.8681691
vn 0.5570335 -0.1678349 0.8133542
vn 0.4488854 -0.232935 0.8626953
vn 0.5375137 -0.2399735 0.8083884
vn 0.09395808 -0.1599301 0.9826466
vn 0.0639564 -0.2542448 0.9650229
vn 0.3949052 -0.3370208 0.8546736
vn 0.4886855 -0.3381493 0.8042645
vn 0.2799649 -0.3910945 0.8767353
vn 0.3854862 -0.4042584 0.8294429
vn 0.02006048 -0.3211055 0.946831
vn -0.009872654 -0.3362842 0.9417089
vn 0.1668172 -0.3856248 0.90745
vn 0.2383451 -0.3708232 0.8975977
vn -0.1985149 -0.09242304 0.9757304
vn -0.1977114 -0.1609741 0.9669527
vn -0.1780398 -0.04405129 0.9830368
vn -0.1521488 -0.01378503 0.9882614
vn -0.1387645 -0.003657721 0.9903187
vn 0.0589816 -0.03199362 0.9977462
vn 0.06633606 -0.04461105 0.9967996
vn 0.2781473 -0.06347866 0.9584386
vn 0.2755855 -0.05001405 0.9599745
vn 0 -0.06282519 0.9980246
vn 0 -0.0475917 0.9988669
vn 0 -0.1059226 0.9943744
vn 0.2833187 -0.1037296 0.9533995
vn 0.05613535 -0.08025985 0.9951921
vn 0.2796964 -0.1664908 0.9455426
vn 0.04349071 -0.1345734 0.9899487
vn 0 -0.1734902 0.9848356
vn 0 -0.2627487 0.9648643
vn 0.2541984 -0.2484225 0.9347029
vn 0.03299481 -0.2038821 0.9784393
vn 0.1828644 -0.3157771 0.9310454
vn 0.02992401 -0.2661188 0.9634757
vn 0 -0.3378521 0.9411992
vn 0 -0.3632282 0.9317002
vn 0.1155975 -0.3394366 0.9334988
vn 0.02879554 -0.2919214 0.9560088
vn -0.1490476 -0.2371138 0.9599801
vn -0.0959345 -0.2741148 0.9569001
vn -0.1828645 -0.3157771 0.9310454
vn -0.1155974 -0.3394366 0.9334988
vn -0.2541984 -0.2484225 0.9347029
vn -0.2796962 -0.1664908 0.9455427
vn -0.2833184 -0.1037296 0.9533995
vn -0.2781472 -0.06347863 0.9584386
vn -0.2755854 -0.050014 0.9599746
vn -0.05898153 -0.03199345 0.9977462
vn -0.06633587 -0.04461097 0.9967996
vn 0.1521489 -0.01378495 0.9882614
vn 0.1387647 -0.003657615 0.9903187
vn -0.1332778 -0.05193766 0.9897169
vn -0.1664802 -0.04180948 0.9851579
vn -0.1156072 -0.09171906 0.9890513
vn 0.1780397 -0.04405135 0.9830368
vn -0.05613504 -0.08025992 0.9951921
vn 0.1985147 -0.09242316 0.9757304
vn -0.04349053 -0.1345734 0.9899487
vn -0.09395827 -0.1599301 0.9826466
vn -0.06395635 -0.2542448 0.9650229
vn 0.1977114 -0.1609741 0.9669527
vn -0.03299485 -0.2038822 0.9784393
vn 0.1490475 -0.2371139 0.9599801
vn -0.02992413 -0.2661187 0.9634757
vn -0.02006032 -0.3211054 0.946831
vn 0.009872735 -0.336284 0.9417089
vn 0.09593427 -0.2741148 0.9569001
vn -0.02879564 -0.2919213 0.9560088
vn -0.4488853 -0.232935 0.8626953
vn -0.394905 -0.3370207 0.8546736
vn -0.5375134 -0.2399736 0.8083885
vn -0.5570335 -0.167835 0.8133542
vn -0.4711746 -0.1558103 0.8681691
vn -0.5627131 -0.1261642 0.8169678
vn -0.4793804 -0.1116385 0.8704776
vn -0.4977796 -0.09969921 0.8615541
vn -0.5634536 -0.1139475 0.8182518
vn -0.4886853 -0.3381492 0.8042648
vn -0.2799647 -0.3910944 0.8767354
vn -0.1668172 -0.3856246 0.9074501
vn -0.3854859 -0.4042583 0.8294432
vn -0.2383451 -0.3708234 0.8975977
g Dracula_Cloak_0
f 3/3/3 2/2/2 1/1/1
f 4/4/4 3/3/3 1/1/1
f 5/5/5 3/3/3 4/4/4
f 6/6/6 5/5/5 4/4/4
f 5/5/5 7/7/7 3/3/3
f 7/7/7 8/8/8 3/3/3
f 3/3/3 8/8/8 2/2/2
f 8/8/8 9/9/9 2/2/2
f 8/8/8 10/10/10 9/9/9
f 10/10/10 11/11/11 9/9/9
f 12/12/12 10/10/10 8/8/8
f 7/7/7 12/12/12 8/8/8
f 12/12/12 13/13/13 10/10/10
f 13/13/13 14/14/14 10/10/10
f 10/10/10 14/14/14 11/11/11
f 14/14/14 15/15/15 11/11/11
f 14/14/14 16/16/16 15/15/15
f 16/16/16 17/17/17 15/15/15
f 18/18/18 16/16/16 14/14/14
f 13/13/13 18/18/18 14/14/14
f 18/18/18 19/19/19 16/16/16
f 19/19/19 20/20/20 16/16/16
f 16/16/16 20/20/20 17/17/17
f 20/20/20 21/21/21 17/17/17
f 12/12/12 22/22/22 13/13/13
f 22/22/22 23/23/23 13/13/13
f 13/13/13 23/23/23 18/18/18
f 24/24/24 22/22/22 12/12/12
f 7/7/7 24/24/24 12/12/12
f 25/25/25 24/24/24 7/7/7
f 5/5/5 25/25/25 7/7/7
f 26/26/26 25/25/25 5/5/5
f 6/6/6 26/26/26 5/5/5
f 26/26/26 27/27/27 25/25/25
f 27/27/27 28/28/28 25/25/25
f 25/25/25 28/28/28 24/24/24
f 29/29/29 28/28/28 27/27/27
f 30/30/30 29/29/29 27/27/27
f 31/31/31 29/29/29 30/30/30
f 32/32/32 31/31/31 30/30/30
f 31/31/31 33/33/33 29/29/29
f 33/33/33 34/34/34 29/29/29
f 29/29/29 34/34/34 28/28/28
f 34/34/34 35/35/35 28/28/28
f 28/28/28 35/35/35 24/24/24
f 34/34/34 36/36/36 35/35/35
f 36/36/36 37/37/37 35/35/35
f 38/38/38 36/36/36 34/34/34
f 33/33/33 38/38/38 34/34/34
f 38/38/38 39/39/39 36/36/36
f 39/39/39 40/40/40 36/36/36
f 36/36/36 40/40/40 37/37/37
f 40/40/40 41/41/41 37/37/37
f 40/40/40 42/42/42 41/41/41
f 42/42/42 43/43/43 41/41/41
f 44/44/44 42/42/42 40/40/40
f 39/39/39 44/44/44 40/40/40
f 44/44/44 45/45/45 42/42/42
f 45/45/45 46/46/46 42/42/42
f 42/42/42 46/46/46 43/43/43
f 46/46/46 47/47/47 43/43/43
f 35/35/35 37/37/37 22/22/22
f 24/24/24 35/35/35 22/22/22
f 37/37/37 41/41/41 23/23/23
f 22/22/22 37/37/37 23/23/23
f 41/41/41 43/43/43 48/48/48
f 23/23/23 41/41/41 48/48/48
f 23/23/23 48/48/48 18/18/18
f 18/18/18 48/48/48 19/19/19
f 48/48/48 49/49/49 19/19/19
f 43/43/43 47/47/47 49/49/49
f 48/48/48 43/43/43 49/49/49
f 44/44/44 50/50/50 45/45/45
f 50/50/50 51/51/51 45/45/45
f 52/52/52 50/50/50 44/44/44
f 39/39/39 52/52/52 44/44/44
f 53/53/53 52/52/52 39/39/39
f 38/38/38 53/53/53 39/39/39
f 54/54/54 53/53/53 38/38/38
f 33/33/33 54/54/54 38/38/38
f 55/55/55 54/54/54 33/33/33
f 31/31/31 55/55/55 33/33/33
f 56/56/56 55/55/55 31/31/31
f 32/32/32 56/56/56 31/31/31
f 56/56/56 57/57/57 55/55/55
f 57/57/57 58/58/58 55/55/55
f 55/55/55 58/58/58 54/54/54
f 59/59/59 58/58/58 57/57/57
f 60/60/60 59/59/59 57/57/57
f 61/61/61 59/59/59 60/60/60
f 62/62/62 61/61/61 60/60/60
f 61/61/61 63/63/63 59/59/59
f 63/63/63 64/64/64 59/59/59
f 59/59/59 64/64/64 58/58/58
f 64/64/64 65/65/65 58/58/58
f 58/58/58 65/65/65 54/54/54
f 64/64/64 66/66/66 65/65/65
f 66/66/66 67/67/67 65/65/65
f 68/68/68 66/66/66 64/64/64
f 63/63/63 68/68/68 64/64/64
f 68/68/68 69/69/69 66/66/66
f 69/69/69 70/70/70 66/66/66
f 66/66/66 70/70/70 67/67/67
f 70/70/70 71/71/71 67/67/67
f 70/70/70 72/72/72 71/71/71
f 72/72/72 73/73/73 71/71/71
f 74/74/74 72/72/72 70/70/70
f 69/69/69 74/74/74 70/70/70
f 74/74/74 75/75/75 72/72/72
f 75/75/75 76/76/76 72/72/72
f 72/72/72 76/76/76 73/73/73
f 76/76/76 77/77/77 73/73/73
f 65/65/65 67/67/67 53/53/53
f 54/54/54 65/65/65 53/53/53
f 67/67/67 71/71/71 52/52/52
f 53/53/53 67/67/67 52/52/52
f 71/71/71 73/73/73 50/50/50
f 52/52/52 71/71/71 50/50/50
f 73/73/73 77/77/77 51/51/51
f 50/50/50 73/73/73 51/51/51
f 68/68/68 78/78/78 69/69/69
f 78/78/78 79/79/79 69/69/69
f 69/69/69 79/79/79 74/74/74
f 78/78/78 80/80/80 79/79/79
f 81/81/81 80/80/80 78/78/78
f 82/82/82 81/81/81 78/78/78
f 83/83/83 81/81/81 82/82/82
f 84/84/84 83/83/83 82/82/82
f 84/84/84 82/82/82 63/63/63
f 61/61/61 84/84/84 63/63/63
f 85/85/85 84/84/84 61/61/61
f 62/62/62 85/85/85 61/61/61
f 86/86/86 83/83/83 84/84/84
f 85/85/85 86/86/86 84/84/84
f 82/82/82 78/78/78 68/68/68
f 63/63/63 82/82/82 68/68/68
f 80/80/80 87/87/87 79/79/79
f 79/79/79 87/87/87 88/88/88
f 79/79/79 88/88/88 74/74/74
f 74/74/74 88/88/88 75/75/75
f 88/88/88 89/89/89 75/75/75
f 87/87/87 90/90/90 88/88/88
f 88/88/88 90/90/90 89/89/89
f 90/90/90 91/91/91 89/89/89
