g Hat_Tall
v -0.2380023 1.505296 -0.09446609
v -0.1381425 1.542097 -0.03429418
v -0.1254184 1.127008 0.1781112
v -0.2200842 1.095011 0.1313823
v -0.02546221 1.140903 0.1995825
v -0.0238783 1.555775 -0.009354465
v -0.2883207 1.435707 -0.2066279
v -0.2729883 1.030777 0.04032323
v -0.3055137 1.36299 -0.3200989
v -0.3013861 0.9598488 -0.05952512
v -0.2839498 1.28733 -0.4336078
v -0.2850885 0.8883989 -0.1594032
v -0.2216016 1.215892 -0.5294618
v -0.223007 0.8205406 -0.2532336
v -0.1078596 1.181317 -0.5696625
v -0.1071075 0.7912411 -0.2919607
v 0.01310362 1.169062 -0.5846398
v 0.007383045 0.7808293 -0.3042534
v 0.0927796 1.547024 -0.02276126
v 0.07663558 1.131319 0.1882024
v 0.1996104 1.514632 -0.07261051
v 0.1767597 1.103478 0.1512017
v 0.2637638 1.447485 -0.1790553
v 0.2411542 1.041746 0.06600089
v 0.2952503 1.375808 -0.2900953
v 0.2823467 0.9723024 -0.03037191
v 0.2883367 1.299539 -0.4050265
v 0.2791319 0.9004362 -0.1312243
v 0.2389408 1.225717 -0.5064612
v 0.2296474 0.8301979 -0.2306268
v 0.1313424 1.18642 -0.5577162
v 0.119533 0.7960765 -0.2806416
v 0.01310362 1.169062 -0.5846398
v 0.007383045 0.7808293 -0.3042534
v -0.110842 1.551993 -0.1131639
v -0.1943982 1.521227 -0.1648026
v -0.1254317 1.504881 -0.2472627
v -0.2362299 1.463335 -0.2581317
v -0.01194137 1.519272 -0.2327713
v -0.01991334 1.563854 -0.09219439
v -0.1244047 1.435728 -0.3648458
v -0.2488349 1.400729 -0.3556948
v -0.003872466 1.445988 -0.3630281
v -0.2288819 1.337192 -0.4502571
v -0.1128662 1.354395 -0.4719602
v 0.003718466 1.35678 -0.4769113
v -0.1772485 1.281401 -0.5233907
v -0.08425799 1.252873 -0.5579709
v 0.01086414 1.242424 -0.5711371
v -0.2380023 1.505296 -0.09446609
v -0.1381425 1.542097 -0.03429418
v -0.2883207 1.435707 -0.2066279
v -0.0238783 1.555775 -0.009354465
v -0.3055137 1.36299 -0.3200989
v -0.2839498 1.28733 -0.4336078
v -0.1078596 1.181317 -0.5696625
v -0.2216016 1.215892 -0.5294618
v 0.01310362 1.169062 -0.5846398
v 0.103671 1.256883 -0.5485853
v 0.1313424 1.18642 -0.5577162
v 0.1914569 1.289267 -0.5049767
v 0.1192259 1.359347 -0.460369
v 0.2331295 1.347049 -0.4271831
v 0.1165684 1.440869 -0.352811
v 0.2408444 1.411176 -0.331239
v 0.2159334 1.472981 -0.2355494
v 0.102937 1.509753 -0.2358573
v 0.16259 1.528844 -0.1469736
v 0.07307347 1.555917 -0.1039786
v 0.1996104 1.514632 -0.07261051
v 0.0927796 1.547024 -0.02276126
v 0.2637638 1.447485 -0.1790553
v 0.2952503 1.375808 -0.2900953
v 0.2883367 1.299539 -0.4050265
v 0.2389408 1.225717 -0.5064612
v -0.142526 0.8741818 -0.1764639
v -0.223007 0.8205406 -0.2532336
v -0.2850885 0.8883989 -0.1594032
v -0.1071075 0.7912411 -0.2919607
v -0.0007809854 0.8703293 -0.1790193
v 0.007383045 0.7808293 -0.3042534
v -0.156166 0.962947 -0.05227249
v -0.3013861 0.9598488 -0.05952512
v -0.0095196 0.9660757 -0.04494863
v -0.2729883 1.030777 0.04032323
v -0.1463884 1.047939 0.06690819
v -0.01782486 1.057178 0.08242941
v -0.2200842 1.095011 0.1313823
v -0.1254184 1.127008 0.1781112
v -0.02546221 1.140903 0.1995825
v 0.119533 0.7960765 -0.2806416
v 0.1397119 0.8802032 -0.1623682
v 0.2296474 0.8301979 -0.2306268
v 0.2791319 0.9004362 -0.1312243
v 0.1371267 0.9692042 -0.03762465
v 0.2823467 0.9723024 -0.03037191
v 0.2411542 1.041746 0.06600089
v 0.1119212 1.05345 0.07980886
v 0.1767597 1.103478 0.1512017
v 0.07663558 1.131319 0.1882024
vt 0.2634037 0.4373596
vt 0.3027761 0.4371567
vt 0.3033395 0.240465
vt 0.2634037 0.2404652
vt 0.3385656 0.2403172
vt 0.3384997 0.4362745
vt 0.2222199 0.4373596
vt 0.2222199 0.2404652
vt 0.1802896 0.4373596
vt 0.1802896 0.2404649
vt 0.1389977 0.4373596
vt 0.1389977 0.240465
vt 0.09521542 0.4373596
vt 0.09521542 0.2404652
vt 0.05334271 0.4373596
vt 0.05334271 0.2404652
vt 0.01481737 0.4373596
vt 0.01481737 0.2404652
vt 0.3741639 0.4371567
vt 0.3736007 0.240465
vt 0.4135366 0.4373596
vt 0.4135366 0.2404652
vt 0.45472 0.4373596
vt 0.45472 0.2404652
vt 0.4966504 0.4373596
vt 0.4966504 0.2404649
vt 0.5379422 0.4373596
vt 0.5379422 0.240465
vt 0.5817243 0.4373596
vt 0.5817243 0.2404652
vt 0.6235974 0.4373596
vt 0.6235974 0.2404652
vt 0.6621225 0.4373596
vt 0.6621225 0.2404652
vt 0.3090513 0.4560618
vt 0.2837082 0.4736736
vt 0.305279 0.4991539
vt 0.2717962 0.5077655
vt 0.338425 0.4946648
vt 0.338425 0.4499867
vt 0.305069 0.5423115
vt 0.2678637 0.5443135
vt 0.338425 0.5419774
vt 0.2715991 0.5808064
vt 0.305772 0.5851909
vt 0.338425 0.5879927
vt 0.2835936 0.6108676
vt 0.3107681 0.6266328
vt 0.338425 0.6335647
vt 0.2695194 0.4577114
vt 0.3027761 0.4371567
vt 0.2507089 0.4986844
vt 0.3384997 0.4362745
vt 0.2458254 0.5411309
vt 0.2496502 0.5847837
vt 0.3030097 0.6442741
vt 0.2683934 0.6237828
vt 0.3384698 0.6524424
vt 0.3661717 0.6266328
vt 0.3739304 0.6442741
vt 0.3933464 0.6108676
vt 0.3711679 0.5851909
vt 0.4053409 0.5808064
vt 0.371871 0.5423115
vt 0.4090762 0.5443135
vt 0.4051435 0.5077655
vt 0.371661 0.4991539
vt 0.3932318 0.4736736
vt 0.3678888 0.4560618
vt 0.4074207 0.4577114
vt 0.3741639 0.4371567
vt 0.4262311 0.4986844
vt 0.4311146 0.5411309
vt 0.4272898 0.5847837
vt 0.4085468 0.6237828
vt 0.06987052 0.8372955
vt 0.04968384 0.8118035
vt 0.03199688 0.8412405
vt 0.08079076 0.7985917
vt 0.1091391 0.8351289
vt 0.1089887 0.7917204
vt 0.06286874 0.8841695
vt 0.01990601 0.8834148
vt 0.1091391 0.8841695
vt 0.02847937 0.9217346
vt 0.06831615 0.9294652
vt 0.1091391 0.9329373
vt 0.04674433 0.955467
vt 0.07707568 0.9714909
vt 0.1091554 0.9780356
vt 0.1402047 0.7970831
vt 0.1481076 0.8365414
vt 0.1678547 0.8125579
vt 0.1874899 0.8412405
vt 0.1551093 0.8841695
vt 0.200335 0.8841695
vt 0.1955334 0.9179626
vt 0.1526794 0.9287105
vt 0.1772683 0.9539583
vt 0.1439195 0.9707366
vn -0.7764514 0.2789842 0.5650584
vn -0.4038942 0.4116737 0.8169419
vn -0.4059215 0.4112701 0.8161401
vn -0.7842128 0.274448 0.5564967
vn -0.05412348 0.4487348 0.8920245
vn -0.05412356 0.4487348 0.8920245
vn -0.9578208 0.1234967 0.2594762
vn -0.9590697 0.1217089 0.2556801
vn -0.9997923 -0.003566451 0.02006934
vn -0.999859 -0.006097988 0.01564683
vn -0.9503661 -0.1764414 -0.256267
vn -0.9493885 -0.1781119 -0.2587228
vn -0.6948726 -0.4115361 -0.5897373
vn -0.6876323 -0.4156016 -0.5953463
vn -0.2842937 -0.5551878 -0.7816288
vn -0.281119 -0.5558007 -0.7823412
vn 0.05292558 -0.5832255 -0.8105843
vn 0.05292553 -0.5832254 -0.8105844
vn 0.3026438 0.4267471 0.8522286
vn 0.3047562 0.4264318 0.8516334
vn 0.7037404 0.3105631 0.6389836
vn 0.7125017 0.3063795 0.6312472
vn 0.9210913 0.1635823 0.353315
vn 0.9227871 0.1618572 0.3496658
vn 0.9920648 0.03892896 0.1195492
vn 0.9926794 0.03641199 0.1151608
vn 0.9778051 -0.1353048 -0.1599679
vn 0.9771491 -0.1370101 -0.1625052
vn 0.7670272 -0.3803474 -0.5167255
vn 0.7605611 -0.3847052 -0.5230188
vn 0.3840853 -0.5409285 -0.7482479
vn 0.3810262 -0.5416746 -0.7492715
vn 0.05292558 -0.5832255 -0.8105843
vn 0.05292553 -0.5832254 -0.8105844
vn -0.174008 0.9705897 -0.1663638
vn -0.3806142 0.8948209 -0.2332985
vn -0.1452993 0.8912024 -0.4297051
vn -0.4387325 0.810776 -0.3874997
vn 0.000777723 0.913891 -0.4059591
vn -0.01395037 0.9895694 -0.1433807
vn -0.1526627 0.8193693 -0.552565
vn -0.4407397 0.739013 -0.5095177
vn 0.009948344 0.8320411 -0.5546249
vn -0.410973 0.6485299 -0.6407108
vn -0.1213305 0.7281559 -0.6745872
vn 0.01921289 0.7209807 -0.6926889
vn -0.3101552 0.5039255 -0.8061408
vn -0.1232754 0.4780417 -0.8696432
vn 0.03408648 0.4686627 -0.8827193
vn -0.4731661 0.875823 -0.09512047
vn -0.2470364 0.9681914 0.03972898
vn -0.6354296 0.7274033 -0.2590632
vn -0.02567394 0.9957248 0.08872975
vn -0.6704038 0.6170977 -0.4120063
vn -0.6251996 0.4954552 -0.6030337
vn -0.192133 0.2217425 -0.9559891
vn -0.4292663 0.3484245 -0.8332652
vn 0.04489236 0.1911478 -0.9805341
vn 0.1888216 0.4846999 -0.8540565
vn 0.2767773 0.2317466 -0.9325706
vn 0.3671769 0.5183761 -0.772313
vn 0.1568221 0.7340903 -0.6606953
vn 0.4447746 0.6667876 -0.5979714
vn 0.1719376 0.8262945 -0.5363532
vn 0.4574513 0.7581756 -0.464659
vn 0.4402506 0.8295285 -0.3436011
vn 0.1493253 0.8974881 -0.4149904
vn 0.3635408 0.9106976 -0.1961323
vn 0.148261 0.9774652 -0.1502684
vn 0.4425954 0.8953605 -0.04938486
vn 0.2004362 0.9777381 0.06207636
vn 0.6265464 0.7543269 -0.1960373
vn 0.6812389 0.6459352 -0.3445014
vn 0.6605011 0.5228856 -0.5388219
vn 0.4949044 0.3681417 -0.7871096
vn -0.01165084 -0.8140116 0.5807317
vn -0.01164803 -0.8138912 0.5809005
vn -0.01166305 -0.8140652 0.5806564
vn -0.01164727 -0.8138915 0.5809001
vn -0.01163784 -0.8139997 0.5807489
vn -0.0116476 -0.813892 0.5808995
vn -0.01167463 -0.8138974 0.5808914
vn -0.01168688 -0.813916 0.580865
vn -0.01164727 -0.813896 0.5808939
vn -0.01169599 -0.8136985 0.5811694
vn -0.01167348 -0.81376 0.5810838
vn -0.01165841 -0.8137742 0.5810642
vn -0.01164791 -0.8138916 0.5809
vn -0.01164769 -0.8138914 0.5809002
vn -0.01164785 -0.8138916 0.5809
vn -0.01164804 -0.813892 0.5808995
vn -0.01162291 -0.8140112 0.5807329
vn -0.01164757 -0.8138916 0.5809
vn -0.01160139 -0.8140638 0.5806596
vn -0.01162014 -0.8138959 0.5808945
vn -0.01160494 -0.813914 0.5808694
vn -0.01163532 -0.813697 0.5811727
vn -0.0116462 -0.8137593 0.5810854
vn -0.01164783 -0.8138921 0.5808993
vn -0.01164802 -0.8138918 0.5808997
g Hat_Tall_0
f 3/3/3 2/2/2 1/1/1
f 1/1/1 4/4/4 3/3/3
f 2/2/2 3/3/3 5/5/5
f 5/5/5 6/6/6 2/2/2
f 4/4/4 1/1/1 7/7/7
f 7/7/7 8/8/8 4/4/4
f 8/8/8 7/7/7 9/9/9
f 9/9/9 10/10/10 8/8/8
f 10/10/10 9/9/9 11/11/11
f 11/11/11 12/12/12 10/10/10
f 12/12/12 11/11/11 13/13/13
f 13/13/13 14/14/14 12/12/12
f 14/14/14 13/13/13 15/15/15
f 15/15/15 16/16/16 14/14/14
f 16/16/16 15/15/15 17/17/17
f 17/17/17 18/18/18 16/16/16
f 19/19/19 6/6/6 5/5/5
f 5/5/5 20/20/20 19/19/19
f 21/21/21 19/19/19 20/20/20
f 20/20/20 22/22/22 21/21/21
f 23/23/23 21/21/21 22/22/22
f 22/22/22 24/24/24 23/23/23
f 25/25/25 23/23/23 24/24/24
f 24/24/24 26/26/26 25/25/25
f 27/27/27 25/25/25 26/26/26
f 26/26/26 28/28/28 27/27/27
f 29/29/29 27/27/27 28/28/28
f 28/28/28 30/30/30 29/29/29
f 31/31/31 29/29/29 30/30/30
f 30/30/30 32/32/32 31/31/31
f 33/33/33 31/31/31 32/32/32
f 32/32/32 34/34/34 33/33/33
f 37/37/37 36/36/36 35/35/35
f 37/37/37 38/38/38 36/36/36
f 39/39/39 37/37/37 35/35/35
f 39/39/39 35/35/35 40/40/40
f 41/41/41 38/38/38 37/37/37
f 41/41/41 42/42/42 38/38/38
f 43/43/43 37/37/37 39/39/39
f 43/43/43 41/41/41 37/37/37
f 44/44/44 42/42/42 41/41/41
f 41/41/41 45/45/45 44/44/44
f 45/45/45 41/41/41 43/43/43
f 43/43/43 46/46/46 45/45/45
f 47/47/47 44/44/44 45/45/45
f 45/45/45 48/48/48 47/47/47
f 48/48/48 45/45/45 46/46/46
f 46/46/46 49/49/49 48/48/48
f 50/50/50 35/35/35 36/36/36
f 51/51/51 35/35/35 50/50/50
f 38/38/38 52/52/52 36/36/36
f 50/50/50 36/36/36 52/52/52
f 53/53/53 40/40/40 51/51/51
f 40/40/40 35/35/35 51/51/51
f 54/54/54 42/42/42 44/44/44
f 42/42/42 54/54/54 38/38/38
f 52/52/52 38/38/38 54/54/54
f 44/44/44 55/55/55 54/54/54
f 55/55/55 44/44/44 47/47/47
f 47/47/47 48/48/48 56/56/56
f 56/56/56 57/57/57 47/47/47
f 47/47/47 57/57/57 55/55/55
f 58/58/58 56/56/56 48/48/48
f 48/48/48 49/49/49 58/58/58
f 59/59/59 49/49/49 46/46/46
f 49/49/49 59/59/59 58/58/58
f 58/58/58 59/59/59 60/60/60
f 59/59/59 61/61/61 60/60/60
f 61/61/61 59/59/59 62/62/62
f 62/62/62 63/63/63 61/61/61
f 63/63/63 62/62/62 64/64/64
f 64/64/64 65/65/65 63/63/63
f 65/65/65 64/64/64 66/66/66
f 66/66/66 64/64/64 67/67/67
f 66/66/66 67/67/67 68/68/68
f 68/68/68 67/67/67 69/69/69
f 67/67/67 39/39/39 69/69/69
f 69/69/69 39/39/39 40/40/40
f 67/67/67 43/43/43 39/39/39
f 64/64/64 43/43/43 67/67/67
f 43/43/43 64/64/64 62/62/62
f 62/62/62 46/46/46 43/43/43
f 46/46/46 62/62/62 59/59/59
f 69/69/69 70/70/70 68/68/68
f 69/69/69 71/71/71 70/70/70
f 69/69/69 40/40/40 71/71/71
f 72/72/72 66/66/66 68/68/68
f 68/68/68 70/70/70 72/72/72
f 71/71/71 40/40/40 53/53/53
f 73/73/73 65/65/65 66/66/66
f 66/66/66 72/72/72 73/73/73
f 74/74/74 63/63/63 65/65/65
f 65/65/65 73/73/73 74/74/74
f 61/61/61 63/63/63 74/74/74
f 74/74/74 75/75/75 61/61/61
f 60/60/60 61/61/61 75/75/75
f 78/78/78 77/77/77 76/76/76
f 79/79/79 76/76/76 77/77/77
f 76/76/76 79/79/79 80/80/80
f 79/79/79 81/81/81 80/80/80
f 78/78/78 76/76/76 82/82/82
f 83/83/83 78/78/78 82/82/82
f 82/82/82 76/76/76 84/84/84
f 76/76/76 80/80/80 84/84/84
f 85/85/85 83/83/83 82/82/82
f 82/82/82 86/86/86 85/85/85
f 86/86/86 82/82/82 84/84/84
f 84/84/84 87/87/87 86/86/86
f 88/88/88 85/85/85 86/86/86
f 86/86/86 89/89/89 88/88/88
f 89/89/89 86/86/86 87/87/87
f 87/87/87 90/90/90 89/89/89
f 80/80/80 81/81/81 91/91/91
f 91/91/91 92/92/92 80/80/80
f 84/84/84 80/80/80 92/92/92
f 92/92/92 91/91/91 93/93/93
f 92/92/92 93/93/93 94/94/94
f 95/95/95 92/92/92 94/94/94
f 92/92/92 95/95/95 84/84/84
f 94/94/94 96/96/96 95/95/95
f 95/95/95 96/96/96 97/97/97
f 97/97/97 98/98/98 95/95/95
f 98/98/98 87/87/87 84/84/84
f 84/84/84 95/95/95 98/98/98
f 98/98/98 97/97/97 99/99/99
f 99/99/99 100/100/100 98/98/98
f 100/100/100 90/90/90 87/87/87
f 87/87/87 98/98/98 100/100/100
