g Ice_Corner_Outer
v -42.09932 0.04425831 4.327021
v -60 -2.288818E-06 60
v -60 0.04883194 -4.005432E-06
v -25.44683 0.04654656 1.019175
v -35.84238 0.04883537 25.7913
v -12.07222 0.02441712 24.47853
v -17.60757 -5.722046E-07 37.49928
v 0.3382324 -0.04883652 49.4221
v -2.728484E-13 0.04883194 60.00001
v -2.728484E-13 0.04883194 60.00001
v 0.3382324 -0.04883652 49.4221
v -0.3383789 -240 49.42156
v -0.0001464844 -240 60.00001
v -35.84238 0.04883537 25.7913
v -25.44683 0.04654656 1.019175
v -26.09268 -240 1.163022
v -36.6419 -240 25.97579
v -12.07222 0.02441712 24.47853
v -35.84238 0.04883537 25.7913
v -36.6419 -240 25.97579
v -12.74883 -240 24.47839
v -42.09932 0.04425831 4.327021
v -60 0.04883194 -4.005432E-06
v -60.00015 -240 4.577637E-06
v -42.77593 -240 4.799199
v 0.3382324 -0.04883652 49.4221
v -17.60757 -5.722046E-07 37.49928
v -18.16113 -240 37.31453
v -0.3383789 -240 49.42156
v -25.44683 0.04654656 1.019175
v -42.09932 0.04425831 4.327021
v -42.77593 -240 4.799199
v -26.09268 -240 1.163022
v -17.60757 -5.722046E-07 37.49928
v -12.07222 0.02441712 24.47853
v -12.74883 -240 24.47839
v -18.16113 -240 37.31453
vt 0.07332858 0.9679049
vt 0.0342561 0.8480161
vt 0.03476821 0.9773874
vt 0.1092627 0.974895
vt 0.08663654 0.9215702
vt 0.1379006 0.9241982
vt 0.1258543 0.8961701
vt 0.1644469 0.8703091
vt 0.1636274 0.847504
vt 0.6379487 0.6625095
vt 0.6403909 0.6886226
vt 0.7961549 0.6938685
vt 0.7961548 0.6625095
vt 0.6379487 0.8260675
vt 0.6380059 0.8898699
vt 0.7961549 0.8895978
vt 0.7961549 0.8260674
vt 0.6385593 0.7717952
vt 0.6379487 0.8260675
vt 0.7961549 0.8260674
vt 0.7961549 0.7731067
vt 0.6380629 0.9350458
vt 0.6379487 0.9793488
vt 0.7961548 0.9793488
vt 0.7961549 0.9345016
vt 0.6403909 0.6886226
vt 0.6391698 0.7380762
vt 0.7961549 0.7406992
vt 0.7961549 0.6938685
vt 0.6380059 0.8898699
vt 0.6380629 0.9350458
vt 0.7961549 0.9345016
vt 0.7961549 0.8895978
vt 0.6391698 0.7380762
vt 0.6385593 0.7717952
vt 0.7961549 0.7731067
vt 0.7961549 0.7406992
vn 3.927677E-05 0.9999998 0.0008076348
vn 0.0002527896 0.9999993 0.00117668
vn 5.876046E-05 0.9999996 0.0008139063
vn -0.0002022028 0.9999998 0.0006707514
vn -0.0007114845 0.9999994 0.0009251903
vn 0.001150992 0.9999969 0.00224044
vn 0.001236079 0.9999965 0.002328908
vn 8.334568E-05 0.9999914 -0.004141174
vn -0.000813868 0.9999568 -0.009258877
vn 0.999999 -0.001409703 0
vn 0.999999 -0.001409703 0
vn 0.999999 -0.001409703 0
vn 0.999999 -0.001409703 0
vn 0.9211872 -0.002507529 0.3891117
vn 0.9211871 -0.002507529 0.3891117
vn 0.9211872 -0.002507529 0.3891117
vn 0.9211871 -0.002507528 0.3891117
vn -0.05885682 -0.0002023949 -0.9982664
vn -0.05885682 -0.0002023949 -0.9982664
vn -0.05885681 -0.0002023949 -0.9982664
vn -0.05885681 -0.0002023949 -0.9982664
vn 0.251472 -0.001306398 -0.9678637
vn 0.251472 -0.001306398 -0.9678637
vn 0.251472 -0.001306398 -0.9678637
vn 0.251472 -0.001306398 -0.9678637
vn 0.5576537 -0.001109139 -0.8300729
vn 0.5576538 -0.001109139 -0.8300729
vn 0.5576537 -0.001109139 -0.8300729
vn 0.5576538 -0.001109139 -0.8300729
vn -0.2039282 -0.000694363 -0.9789857
vn -0.2039282 -0.000694363 -0.9789857
vn -0.2039282 -0.000694363 -0.9789857
vn -0.2039282 -0.0006943629 -0.9789857
vn 0.9208604 -0.002510222 0.3898846
vn 0.9208604 -0.002510223 0.3898846
vn 0.9208604 -0.002510223 0.3898846
vn 0.9208603 -0.002510223 0.3898846
g Ice_Corner_Outer_0
f 3/3/3 2/2/2 1/1/1
f 1/1/1 2/2/2 4/4/4
f 4/4/4 2/2/2 5/5/5
f 6/6/6 5/5/5 2/2/2
f 7/7/7 6/6/6 2/2/2
f 7/7/7 2/2/2 8/8/8
f 9/9/9 8/8/8 2/2/2
f 12/12/12 11/11/11 10/10/10
f 13/13/13 12/12/12 10/10/10
f 16/16/16 15/15/15 14/14/14
f 17/17/17 16/16/16 14/14/14
f 20/20/20 19/19/19 18/18/18
f 21/21/21 20/20/20 18/18/18
f 24/24/24 23/23/23 22/22/22
f 25/25/25 24/24/24 22/22/22
f 28/28/28 27/27/27 26/26/26
f 29/29/29 28/28/28 26/26/26
f 32/32/32 31/31/31 30/30/30
f 33/33/33 32/32/32 30/30/30
f 36/36/36 35/35/35 34/34/34
f 37/37/37 36/36/36 34/34/34
