g Ice_StraightB
v -51.48758 0.04425831 -0.338237
v -51.01538 -2.288818E-06 60.00001
v -60 -2.288818E-06 60.00001
v -60 0.04883194 0
v -32.1928 0.04654656 -10.9941
v -26.13611 -2.288818E-06 60.00001
v -7.420679 0.04883537 -0.5986073
v -1.256763 -2.288818E-06 60.00001
v 11.41282 -2.288818E-06 60.00001
v 24.47849 0.02441712 -29.44275
v 24.0824 -2.288818E-06 60.00001
v 34.27039 -5.722046E-07 -14.22064
v 49.42207 -0.04883652 -0.3382279
v 49.42156 -2.288818E-06 60.00001
v 60 -2.288818E-06 60.00001
v 60 0.04883194 0
v 60 0.04883194 0
v 49.42207 -0.04883652 -0.3382279
v 49.42156 -240 0.3382279
v 60 -240 0
v -7.420679 0.04883537 -0.5986073
v -32.1928 0.04654656 -10.9941
v -32.04895 -240 -10.34839
v -7.236255 -240 0.2008541
v 24.47849 0.02441712 -29.44275
v -7.420679 0.04883537 -0.5986073
v -7.236255 -240 0.2008541
v 24.47835 -240 -28.76629
v -51.48758 0.04425831 -0.338237
v -60 0.04883194 0
v -60 -240 0
v -51.01538 -240 0.3382324
v 49.42207 -0.04883652 -0.3382279
v 34.27039 -5.722046E-07 -14.22064
v 34.08553 -240 -13.66718
v 49.42156 -240 0.3382279
v -32.1928 0.04654656 -10.9941
v -51.48758 0.04425831 -0.338237
v -51.01538 -240 0.3382324
v -32.04895 -240 -10.34839
v 34.27039 -5.722046E-07 -14.22064
v 24.47849 0.02441712 -29.44275
v 24.47835 -240 -28.76629
v 34.08553 -240 -13.66718
vt 0.1620466 0.8194504
vt 0.03225851 0.8196099
vt 0.03243345 0.8389345
vt 0.1614849 0.837766
vt 0.1845901 0.7777425
vt 0.03177392 0.766098
vt 0.1617484 0.7246638
vt 0.03128952 0.7125863
vt 0.0310427 0.6853358
vt 0.2231668 0.6554915
vt 0.03079599 0.6580854
vt 0.1902356 0.6347272
vt 0.1600813 0.6024083
vt 0.03030252 0.6035845
vt 0.03009659 0.5808318
vt 0.159148 0.5796634
vt 0.8197447 0.5639897
vt 0.8199692 0.5973003
vt 0.9801952 0.5974783
vt 0.9802318 0.5641664
vt 0.8194726 0.8112384
vt 0.8193928 0.8892471
vt 0.9798743 0.8889708
vt 0.9799603 0.8108339
vt 0.8196601 0.7002413
vt 0.8194726 0.8112384
vt 0.9799603 0.8108339
vt 0.9800818 0.7004184
vt 0.819332 0.9500074
vt 0.8192903 0.9768136
vt 0.9797773 0.9769903
vt 0.9798084 0.9486971
vt 0.8199692 0.5973003
vt 0.8197778 0.6526365
vt 0.9801336 0.6533949
vt 0.9801952 0.5974783
vt 0.8193928 0.8892471
vt 0.819332 0.9500074
vt 0.9798084 0.9486971
vt 0.9798743 0.8889708
vt 0.8197778 0.6526365
vt 0.8196601 0.7002413
vt 0.9800818 0.7004184
vt 0.9801336 0.6533949
vn 0.0001479121 0.9999998 0.0007040713
vn 0.0001562654 0.9999998 0.000708524
vn 0.0002763275 0.9999996 0.0007725226
vn 0.0002763275 0.9999996 0.0007725226
vn -4.652784E-05 0.9999998 0.000715149
vn -5.946629E-05 0.9999998 0.0007175202
vn 0.0003649921 0.9999998 0.0006323385
vn 0.0003829617 0.9999998 0.0006288109
vn 0.0008903691 0.9999995 0.0005292019
vn 0.0008903692 0.9999995 0.0005292019
vn 0.001113295 0.9999994 -1.45417E-05
vn 0.001040466 0.9999995 8.471226E-05
vn -7.851536E-05 1 -0.0002031493
vn -0.0005535939 0.9999999 -0.0001818836
vn -0.004616415 0.9999894 0
vn -0.004616415 0.9999894 0
vn 0 -0.001409278 -0.999999
vn 0 -0.001409278 -0.999999
vn 0 -0.001409278 -0.999999
vn 0 -0.001409278 -0.999999
vn 0.3891117 -0.00250688 -0.9211871
vn 0.3891117 -0.002506881 -0.9211872
vn 0.3891117 -0.002506881 -0.9211872
vn 0.3891117 -0.002506881 -0.9211872
vn -0.6725475 -0.00253344 -0.7400496
vn -0.6725475 -0.00253344 -0.7400496
vn -0.6725475 -0.00253344 -0.7400497
vn -0.6725476 -0.002533441 -0.7400496
vn 0 -0.001409018 -0.999999
vn 0 -0.001409018 -0.999999
vn 0 -0.001409018 -0.999999
vn 0 -0.001409018 -0.999999
vn 0.6749415 -0.002151466 -0.7378681
vn 0.6749415 -0.002151466 -0.7378681
vn 0.6749415 -0.002151466 -0.7378681
vn 0.6749415 -0.002151466 -0.7378681
vn -0.4871444 -0.003030396 -0.8733162
vn -0.4871444 -0.003030396 -0.8733162
vn -0.4871444 -0.003030396 -0.8733162
vn -0.4871443 -0.003030396 -0.8733162
vn 0.8423516 -0.001705514 -0.5389256
vn 0.8423516 -0.001705514 -0.5389256
vn 0.8423516 -0.001705514 -0.5389256
vn 0.8423516 -0.001705514 -0.5389257
g Ice_StraightB_0
f 3/3/3 2/2/2 1/1/1
f 4/4/4 3/3/3 1/1/1
f 1/1/1 2/2/2 5/5/5
f 2/2/2 6/6/6 5/5/5
f 5/5/5 6/6/6 7/7/7
f 6/6/6 8/8/8 7/7/7
f 7/7/7 8/8/8 9/9/9
f 10/10/10 7/7/7 9/9/9
f 10/10/10 9/9/9 11/11/11
f 12/12/12 10/10/10 11/11/11
f 12/12/12 11/11/11 13/13/13
f 11/11/11 14/14/14 13/13/13
f 13/13/13 14/14/14 15/15/15
f 16/16/16 13/13/13 15/15/15
f 19/19/19 18/18/18 17/17/17
f 20/20/20 19/19/19 17/17/17
f 23/23/23 22/22/22 21/21/21
f 24/24/24 23/23/23 21/21/21
f 27/27/27 26/26/26 25/25/25
f 28/28/28 27/27/27 25/25/25
f 31/31/31 30/30/30 29/29/29
f 32/32/32 31/31/31 29/29/29
f 35/35/35 34/34/34 33/33/33
f 36/36/36 35/35/35 33/33/33
f 39/39/39 38/38/38 37/37/37
f 40/40/40 39/39/39 37/37/37
f 43/43/43 42/42/42 41/41/41
f 44/44/44 43/43/43 41/41/41
