g Knife
v -0.4972395 0.1008282 0.1668825
v -0.5725547 0.3952486 0.1823464
v -0.5211834 0.3994179 0.1813154
v -0.5486109 0.09665889 0.1679135
v -0.5732854 0.1024379 0.1283032
v -0.5969459 0.3994315 0.1504013
v -0.5756794 0.1151598 0.0604644
v -0.5981694 0.4059282 0.1157101
v -0.5535744 0.1231164 0.0275862
v -0.5760644 0.4138848 0.08283193
v -0.502203 0.1272857 0.0265552
v -0.5246931 0.4180541 0.08180094
v -0.4778122 0.1231027 0.05850027
v -0.5003022 0.4138712 0.113746
v -0.4990787 0.4073745 0.1484372
v -0.4754182 0.1103808 0.1263391
v -0.5211834 0.3994179 0.1813154
v -0.4972395 0.1008282 0.1668825
v -0.5458992 0.08755745 0.07160795
v -0.5442971 0.07905037 0.1170345
v -0.5312316 0.08200141 0.1450443
v -0.5129263 0.08348709 0.1446769
v -0.5006837 0.08259007 0.1161592
v -0.4972395 0.1008282 0.1668825
v -0.5486109 0.09665889 0.1679135
v -0.4754182 0.1103808 0.1263391
v -0.5022858 0.09109716 0.07073262
v -0.4778122 0.1231027 0.05850027
v -0.5164287 0.1020842 0.04537104
v -0.502203 0.1272857 0.0265552
v -0.534734 0.1005985 0.04573841
v -0.5535744 0.1231164 0.0275862
v -0.5966934 1.352967 0.2594224
v -0.5910108 1.297949 0.3200764
v -0.6153126 1.347484 0.3554558
v -0.6253479 1.431379 0.2751173
v -0.603862 1.223711 0.4232997
v -0.5814928 1.193773 0.3730503
v -0.5953013 1.115666 0.4535951
v -0.5730029 1.094749 0.3956265
v -0.5852419 0.9857225 0.4691999
v -0.5635796 0.9816309 0.4077219
v -0.5735222 0.8407869 0.4615317
v -0.5527899 0.8458193 0.3961217
v -0.542206 0.7098568 0.373659
v -0.5613528 0.6949292 0.4444305
v -0.52258 0.4561157 0.3254484
v -0.5420482 0.4411139 0.3964802
v -0.6486853 1.348747 0.2604658
v -0.5966934 1.352967 0.2594224
v -0.6324425 1.430803 0.2752597
v -0.6253479 1.431379 0.2751173
v -0.5793124 1.128252 0.2167269
v -0.6313045 1.124032 0.2177703
v -0.5710329 1.021208 0.1963885
v -0.6230249 1.016988 0.1974319
v -0.5607797 0.8886468 0.1712021
v -0.6127718 0.8844271 0.1722455
v -0.5502578 0.7526115 0.1453555
v -0.6022499 0.7483917 0.1463989
v -0.5306318 0.4988704 0.09714494
v -0.5826238 0.4946506 0.09818838
v -0.6486853 1.348747 0.2604658
v -0.625613 1.346648 0.3556626
v -0.6430029 1.293729 0.3211199
v -0.6324425 1.430803 0.2752597
v -0.6142539 1.22286 0.4234959
v -0.6334848 1.189553 0.3740937
v -0.6057546 1.114799 0.453667
v -0.6249951 1.09053 0.3966699
v -0.5955238 0.9848607 0.4691669
v -0.6155716 0.9774112 0.4087654
v -0.5828825 0.8400095 0.461568
v -0.6047819 0.8415996 0.3971651
v -0.5700903 0.6942205 0.4446041
v -0.594198 0.7056371 0.3747024
v -0.5501244 0.4404584 0.3966423
v -0.574572 0.451896 0.3264918
v -0.5501244 0.4404584 0.3966423
v -0.5420482 0.4411139 0.3964802
v -0.52258 0.4561157 0.3254484
v -0.574572 0.451896 0.3264918
v -0.5271221 0.4802342 0.1966594
v -0.5791141 0.4760145 0.1977028
v -0.5306318 0.4988704 0.09714494
v -0.5826238 0.4946506 0.09818838
v -0.5306318 0.4988704 0.09714494
v -0.5271221 0.4802342 0.1966594
v -0.5502578 0.7526115 0.1453555
v -0.5467482 0.7339753 0.24487
v -0.52258 0.4561157 0.3254484
v -0.542206 0.7098568 0.373659
v -0.5527899 0.8458193 0.3961217
v -0.55727 0.8700107 0.2707166
v -0.5635796 0.9816309 0.4077219
v -0.5676645 1.003322 0.291896
v -0.5730029 1.094749 0.3956265
v -0.5761552 1.111488 0.3062449
v -0.5607797 0.8886468 0.1712021
v -0.5710329 1.021208 0.1963885
v -0.5793124 1.128252 0.2167269
v -0.5910108 1.297949 0.3200764
v -0.5966934 1.352967 0.2594224
v -0.5814928 1.193773 0.3730503
v -0.5791141 0.4760145 0.1977028
v -0.5826238 0.4946506 0.09818838
v -0.6022499 0.7483917 0.1463989
v -0.5987402 0.7297556 0.2459134
v -0.574572 0.451896 0.3264918
v -0.594198 0.7056371 0.3747024
v -0.6047819 0.8415996 0.3971651
v -0.6092621 0.8657909 0.27176
v -0.6155716 0.9774112 0.4087654
v -0.6196566 0.9991021 0.2929394
v -0.6127718 0.8844271 0.1722455
v -0.6230249 1.016988 0.1974319
v -0.6281474 1.107268 0.3072884
v -0.6313045 1.124032 0.2177703
v -0.6249951 1.09053 0.3966699
v -0.6334848 1.189553 0.3740937
v -0.6430029 1.293729 0.3211199
v -0.6486853 1.348747 0.2604658
v -0.6057546 1.114799 0.453667
v -0.5953013 1.115666 0.4535951
v -0.5852419 0.9857225 0.4691999
v -0.5955238 0.9848607 0.4691669
v -0.5828825 0.8400095 0.461568
v -0.5735222 0.8407869 0.4615317
v -0.5700903 0.6942205 0.4446041
v -0.5613528 0.6949292 0.4444305
v -0.5420482 0.4411139 0.3964802
v -0.5501244 0.4404584 0.3966423
v -0.6142539 1.22286 0.4234959
v -0.603862 1.223711 0.4232997
v -0.6153126 1.347484 0.3554558
v -0.625613 1.346648 0.3556626
v -0.6253479 1.431379 0.2751173
v -0.6324425 1.430803 0.2752597
v -0.5969459 0.3994315 0.1504013
v -0.5981694 0.4059282 0.1157101
v -0.6044183 0.4867193 0.1310603
v -0.6031948 0.4802226 0.1657515
v -0.5725547 0.3952486 0.1823464
v -0.5788037 0.4760397 0.1976966
v -0.5211834 0.3994179 0.1813154
v -0.5274323 0.480209 0.1966656
v -0.5823134 0.4946758 0.09818214
v -0.530942 0.4988452 0.09715116
v -0.5003022 0.4138712 0.113746
v -0.5065511 0.4946623 0.1290962
v -0.4990787 0.4073745 0.1484372
v -0.5053276 0.4881656 0.1637874
v -0.5274323 0.480209 0.1966656
v -0.5211834 0.3994179 0.1813154
v -0.530942 0.4988452 0.09715116
v -0.5065511 0.4946623 0.1290962
v -0.6044183 0.4867193 0.1310603
v -0.5823134 0.4946758 0.09818214
v -0.6031948 0.4802226 0.1657515
v -0.5053276 0.4881656 0.1637874
v -0.5788037 0.4760397 0.1976966
v -0.5274323 0.480209 0.1966656
vt 0.6355727 0.8918594
vt 0.6874396 0.6029371
vt 0.6452088 0.6029371
vt 0.6874344 0.8918593
vt 0.7311937 0.8918594
vt 0.7513924 0.6029372
vt 0.7943829 0.8918594
vt 0.7856338 0.6029372
vt 0.8326891 0.8918593
vt 0.8251139 0.6029371
vt 0.8671477 0.8918594
vt 0.8604643 0.6029371
vt 0.9008814 0.8918594
vt 0.8943388 0.6029372
vt 0.9270076 0.6029374
vt 0.9463921 0.8918596
vt 0.9547583 0.6029373
vt 0.980292 0.8918597
vt 0.7760121 0.9171191
vt 0.7406726 0.9171303
vt 0.7196715 0.928717
vt 0.7198783 0.9454688
vt 0.7413192 0.9570422
vt 0.698799 0.9606034
vt 0.6982583 0.9135919
vt 0.7340047 0.9818681
vt 0.7756015 0.9570308
vt 0.7915746 0.9818515
vt 0.7972573 0.9454445
vt 0.8211355 0.960569
vt 0.7975216 0.9286928
vt 0.8219056 0.9135574
vt 0.2842707 0.8623286
vt 0.2233881 0.8248435
vt 0.2017877 0.8744476
vt 0.2842707 0.9336675
vt 0.1235629 0.7790842
vt 0.1610843 0.7439173
vt 0.0800718 0.6912428
vt 0.1256455 0.6625271
vt 0.04559603 0.5822372
vt 0.09688737 0.5673502
vt 0.02858045 0.4565575
vt 0.08472603 0.4488791
vt 0.08184057 0.328532
vt 0.01947435 0.328532
vt 0.08184057 0.102922
vt 0.01924947 0.102922
vt 0.3297136 0.8623286
vt 0.2842707 0.8623286
vt 0.3100927 0.9336675
vt 0.3038917 0.9336675
vt 0.2842707 0.6625272
vt 0.3297135 0.6625272
vt 0.2842707 0.5673502
vt 0.3297135 0.5673502
vt 0.2842707 0.4494858
vt 0.3297135 0.4494858
vt 0.2842707 0.328532
vt 0.3297135 0.328532
vt 0.2842707 0.102922
vt 0.3294874 0.102922
vt 0.3297136 0.8623286
vt 0.4121967 0.8744476
vt 0.3905963 0.8248434
vt 0.3297137 0.9336675
vt 0.4904121 0.7790754
vt 0.4529001 0.7439173
vt 0.5337976 0.6912043
vt 0.4883389 0.6625271
vt 0.5681878 0.5821751
vt 0.5170969 0.5673501
vt 0.585277 0.4565175
vt 0.5292583 0.448879
vt 0.5945082 0.3285319
vt 0.5321436 0.328532
vt 0.5947347 0.1029219
vt 0.5324004 0.1029219
vt 0.5955472 0.08363846
vt 0.5955471 0.07654569
vt 0.5326574 0.05726233
vt 0.5324004 0.1029219
vt 0.4179192 0.05726233
vt 0.4179346 0.102922
vt 0.3292615 0.05726248
vt 0.3294874 0.102922
vt 0.2842707 0.102922
vt 0.196034 0.102922
vt 0.2842707 0.328532
vt 0.196034 0.328532
vt 0.08184057 0.102922
vt 0.08184057 0.328532
vt 0.08472603 0.4488791
vt 0.196034 0.4494858
vt 0.09688737 0.5673502
vt 0.1995869 0.5673502
vt 0.1256455 0.6625271
vt 0.2048975 0.6625272
vt 0.2842707 0.4494858
vt 0.2842707 0.5673502
vt 0.2842707 0.6625272
vt 0.2233881 0.8248435
vt 0.2842707 0.8623286
vt 0.1610843 0.7439173
vt 0.4179346 0.102922
vt 0.3294874 0.102922
vt 0.3297135 0.328532
vt 0.4179502 0.328532
vt 0.5324004 0.1029219
vt 0.5321436 0.328532
vt 0.5292583 0.448879
vt 0.4179502 0.4494858
vt 0.5170969 0.5673501
vt 0.4143973 0.5673502
vt 0.3297135 0.4494858
vt 0.3297135 0.5673502
vt 0.4090868 0.6625271
vt 0.3297135 0.6625272
vt 0.4883389 0.6625271
vt 0.4529001 0.7439173
vt 0.3905963 0.8248434
vt 0.3297136 0.8623286
vt 0.5337976 0.6912043
vt 0.5657943 0.7033181
vt 0.6063077 0.5902874
vt 0.5681878 0.5821751
vt 0.585277 0.4565175
vt 0.6213108 0.4565573
vt 0.5945082 0.3285319
vt 0.6307079 0.3285705
vt 0.6312273 0.1029992
vt 0.5947347 0.1029219
vt 0.4904121 0.7790754
vt 0.5223032 0.7951847
vt 0.4440785 0.8905481
vt 0.4121967 0.8744476
vt 0.3615955 0.9497683
vt 0.3297137 0.9336675
vt 0.7513924 0.6029372
vt 0.7856338 0.6029372
vt 0.7863195 0.5266626
vt 0.7506076 0.5266628
vt 0.6874396 0.6029371
vt 0.6873503 0.5266626
vt 0.6452088 0.6029371
vt 0.6453273 0.5266626
vt 0.824075 0.5266626
vt 0.858054 0.5266626
vt 0.8943388 0.6029372
vt 0.8918985 0.5266628
vt 0.9270076 0.6029374
vt 0.9245505 0.5266628
vt 0.9522387 0.5266628
vt 0.9547583 0.6029373
vt 0.8216287 0.4495553
vt 0.7869051 0.4248849
vt 0.7863195 0.5266626
vt 0.8213696 0.5040686
vt 0.7506076 0.5266628
vt 0.7497659 0.4248836
vt 0.7154735 0.5040659
vt 0.7151283 0.4495526
vn 0.4528828 -0.06449889 0.8892341
vn -0.4326572 -0.08186277 0.8978341
vn 0.4756355 -0.00814561 0.8796047
vn -0.4007538 -0.1337801 0.9063661
vn -0.9465421 -0.171284 0.2733495
vn -0.9622039 -0.09261613 0.2560974
vn -0.9616684 -0.1039362 -0.253754
vn -0.9702826 -0.02941435 -0.2401802
vn -0.4333005 0.08114474 -0.8975891
vn -0.4335295 0.1357303 -0.8908588
vn 0.3784285 0.1470246 -0.9138795
vn 0.370124 0.2009546 -0.906987
vn 0.9549584 0.05161605 -0.2922161
vn 0.9519817 0.1265959 -0.2787551
vn 0.9739841 0.06452498 0.2172365
vn 0.9719081 -0.01558302 0.234844
vn 0.4756355 -0.00814561 0.8796047
vn 0.4528828 -0.06449889 0.8892341
vn -0.349655 -0.9015132 -0.2549812
vn -0.3447516 -0.9373752 -0.0497399
vn -0.1745414 -0.9301934 0.3229171
vn 0.3349334 -0.8888445 0.3126899
vn 0.4890805 -0.8697018 -0.06647668
vn 0.4528828 -0.06449889 0.8892341
vn -0.4007538 -0.1337801 0.9063661
vn 0.9719081 -0.01558302 0.234844
vn 0.4799543 -0.8341831 -0.2716292
vn 0.9549584 0.05161605 -0.2922161
vn 0.2615497 -0.739688 -0.6200432
vn 0.3784285 0.1470246 -0.9138795
vn -0.1633986 -0.774176 -0.6115165
vn -0.4333005 0.08114474 -0.8975891
vn 0.9311019 0.3063323 0.1980147
vn 0.9308148 0.2635208 0.25326
vn 0.9314022 0.2773846 0.2356854
vn 0.9311019 0.3063323 0.1980147
vn 0.9325979 0.2048566 0.2971447
vn 0.9336063 0.1954173 0.3003185
vn 0.9385307 0.1352353 0.317603
vn 0.9388899 0.1300353 0.3187105
vn 0.9440107 0.08176631 0.3196218
vn 0.944305 0.07928689 0.3193769
vn 0.9525209 0.04551147 0.3010524
vn 0.9528568 0.04497126 0.3000694
vn 0.9613927 0.02810774 0.2737409
vn 0.961468 0.027924 0.2734949
vn 0.9633487 0.02325977 0.2672422
vn 0.9633487 0.02325977 0.2672422
vn -0.03464478 0.1839609 -0.9823229
vn -0.03464478 0.1839609 -0.9823229
vn -0.05885991 0.5135747 -0.8560237
vn -0.05885978 0.5135729 -0.8560249
vn -0.03464475 0.1839609 -0.9823229
vn -0.03464475 0.183961 -0.9823229
vn -0.03464489 0.183961 -0.9823228
vn -0.03464489 0.183961 -0.9823228
vn -0.03464515 0.1839609 -0.9823229
vn -0.03464515 0.1839609 -0.9823229
vn -0.03464532 0.1839608 -0.9823229
vn -0.03464532 0.1839608 -0.9823229
vn -0.03464523 0.1839609 -0.9823228
vn -0.03464523 0.1839609 -0.9823229
vn -0.9596622 0.1528779 0.2359591
vn -0.9537914 0.1243862 0.273514
vn -0.9502763 0.1108534 0.2910091
vn -0.9596622 0.1528779 0.2359591
vn -0.9428228 0.05436385 0.3288309
vn -0.9427851 0.04520642 0.3303218
vn -0.9433035 -0.01457599 0.3316116
vn -0.943592 -0.02023024 0.3304921
vn -0.9433738 -0.07142929 0.3239501
vn -0.9432497 -0.07410111 0.3237112
vn -0.9421784 -0.1114657 0.3160304
vn -0.9422055 -0.1121102 0.3157218
vn -0.9429117 -0.1282255 0.3073691
vn -0.9429047 -0.1280903 0.3074468
vn -0.9430715 -0.1314655 0.3055044
vn -0.9430715 -0.1314655 0.3055044
vn 0.08010077 -0.8656377 0.4942219
vn 0.08010069 -0.8656361 0.4942247
vn 0.07576954 -0.9796005 -0.1861232
vn 0.07576954 -0.9796005 -0.1861232
vn 0.07576972 -0.9796005 -0.1861233
vn 0.07576974 -0.9796005 -0.1861233
vn 0.07576995 -0.9796004 -0.1861234
vn 0.07576995 -0.9796004 -0.1861234
vn 0.9965234 0.08087751 -0.01999925
vn 0.9965233 0.08087755 -0.01999931
vn 0.9965233 0.08087762 -0.01999934
vn 0.9965233 0.08087756 -0.01999936
vn 0.9965233 0.08087759 -0.01999935
vn 0.9965233 0.08087753 -0.01999937
vn 0.9965233 0.08087765 -0.01999936
vn 0.9965233 0.08087779 -0.01999941
vn 0.9965233 0.08087792 -0.01999934
vn 0.9965233 0.08087777 -0.01999942
vn 0.9965233 0.08087766 -0.01999945
vn 0.9965233 0.08087753 -0.01999964
vn 0.9965233 0.08087794 -0.01999948
vn 0.9965233 0.08087759 -0.01999952
vn 0.9965233 0.08087751 -0.01999978
vn 0.9965233 0.08087777 -0.01999986
vn 0.9965233 0.08087786 -0.0199999
vn 0.9965234 0.08087722 -0.01999957
vn -0.9965233 -0.08087789 0.01999962
vn -0.9965233 -0.0808778 0.01999953
vn -0.9965233 -0.08087775 0.01999952
vn -0.9965233 -0.08087783 0.01999958
vn -0.9965233 -0.08087794 0.01999969
vn -0.9965233 -0.08087789 0.01999962
vn -0.9965233 -0.08087783 0.01999951
vn -0.9965233 -0.08087782 0.01999954
vn -0.9965233 -0.08087802 0.01999947
vn -0.9965233 -0.08087787 0.01999957
vn -0.9965233 -0.0808778 0.01999959
vn -0.9965233 -0.08087768 0.01999971
vn -0.9965233 -0.08087763 0.01999945
vn -0.9965234 -0.08087745 0.01999933
vn -0.9965233 -0.08087798 0.01999951
vn -0.9965233 -0.08087755 0.01999981
vn -0.9965234 -0.08087749 0.01999916
vn -0.9965234 -0.08087748 0.01999906
vn -0.008838084 0.1881774 0.9820952
vn -0.008844469 0.1887186 0.9819914
vn -0.001601744 0.03124149 0.9995106
vn -0.001580918 0.03095809 0.9995195
vn 0.01240964 -0.08209139 0.9965475
vn 0.01243125 -0.08217323 0.9965405
vn 0.02930493 -0.1568652 0.9871852
vn 0.02933212 -0.1570031 0.9871624
vn 0.08010069 -0.8656361 0.4942247
vn 0.08010077 -0.8656377 0.4942219
vn -0.01663126 0.3876787 0.9216444
vn -0.01666207 0.3882089 0.9214208
vn -0.03009286 0.5688499 0.8218906
vn -0.03009284 0.5688497 0.8218907
vn -0.05885978 0.5135729 -0.8560249
vn -0.05885991 0.5135747 -0.8560237
vn -0.9318475 -0.1359909 0.3364026
vn -0.954241 -0.0170825 -0.2985502
vn -0.9542409 -0.01708246 -0.2985504
vn -0.9318475 -0.1359909 0.3364026
vn -0.3701231 -0.2009545 0.9069874
vn -0.3701227 -0.2009545 0.9069875
vn 0.4335306 -0.1357304 0.8908582
vn 0.4335308 -0.1357304 0.8908581
vn -0.4335293 0.1357302 -0.8908589
vn 0.3701243 0.2009543 -0.906987
vn 0.9318486 0.1359908 -0.3363994
vn 0.9318488 0.1359908 -0.3363993
vn 0.9542422 0.01708351 0.2985463
vn 0.9542423 0.01708357 0.298546
vn 0.4335308 -0.1357304 0.8908581
vn 0.4335306 -0.1357304 0.8908582
vn -0.0757698 0.9796006 0.1861223
vn -0.07576966 0.9796004 0.1861238
vn -0.07576966 0.9796004 0.1861237
vn -0.07576979 0.9796006 0.1861223
vn -0.07576957 0.9796004 0.186124
vn -0.07576957 0.9796004 0.186124
vn -0.0757695 0.9796005 0.186123
vn -0.07576951 0.9796005 0.186123
g Knife_0
f 3/3/3 2/2/2 1/1/1
f 4/4/4 1/1/1 2/2/2
f 5/5/5 4/4/4 2/2/2
f 2/2/2 6/6/6 5/5/5
f 7/7/7 5/5/5 6/6/6
f 6/6/6 8/8/8 7/7/7
f 8/8/8 9/9/9 7/7/7
f 9/9/9 8/8/8 10/10/10
f 10/10/10 11/11/11 9/9/9
f 10/10/10 12/12/12 11/11/11
f 12/12/12 13/13/13 11/11/11
f 12/12/12 14/14/14 13/13/13
f 13/13/13 14/14/14 15/15/15
f 15/15/15 16/16/16 13/13/13
f 16/16/16 15/15/15 17/17/17
f 17/17/17 18/18/18 16/16/16
f 5/5/5 7/7/7 19/19/19
f 19/19/19 20/20/20 5/5/5
f 21/21/21 5/5/5 20/20/20
f 22/22/22 21/21/21 20/20/20
f 23/23/23 22/22/22 20/20/20
f 21/21/21 22/22/22 24/24/24
f 24/24/24 25/25/25 21/21/21
f 25/25/25 5/5/5 21/21/21
f 22/22/22 23/23/23 26/26/26
f 26/26/26 24/24/24 22/22/22
f 26/26/26 23/23/23 27/27/27
f 20/20/20 27/27/27 23/23/23
f 19/19/19 27/27/27 20/20/20
f 27/27/27 28/28/28 26/26/26
f 28/28/28 27/27/27 29/29/29
f 29/29/29 27/27/27 19/19/19
f 29/29/29 30/30/30 28/28/28
f 30/30/30 29/29/29 31/31/31
f 19/19/19 31/31/31 29/29/29
f 31/31/31 19/19/19 7/7/7
f 7/7/7 32/32/32 31/31/31
f 32/32/32 30/30/30 31/31/31
f 35/35/35 34/34/34 33/33/33
f 33/33/33 36/36/36 35/35/35
f 34/34/34 35/35/35 37/37/37
f 37/37/37 38/38/38 34/34/34
f 39/39/39 38/38/38 37/37/37
f 39/39/39 40/40/40 38/38/38
f 40/40/40 39/39/39 41/41/41
f 41/41/41 42/42/42 40/40/40
f 42/42/42 41/41/41 43/43/43
f 43/43/43 44/44/44 42/42/42
f 45/45/45 44/44/44 43/43/43
f 43/43/43 46/46/46 45/45/45
f 47/47/47 45/45/45 46/46/46
f 48/48/48 47/47/47 46/46/46
f 51/51/51 50/50/50 49/49/49
f 51/51/51 52/52/52 50/50/50
f 49/49/49 50/50/50 53/53/53
f 49/49/49 53/53/53 54/54/54
f 54/54/54 53/53/53 55/55/55
f 54/54/54 55/55/55 56/56/56
f 56/56/56 55/55/55 57/57/57
f 56/56/56 57/57/57 58/58/58
f 58/58/58 57/57/57 59/59/59
f 58/58/58 59/59/59 60/60/60
f 60/60/60 59/59/59 61/61/61
f 60/60/60 61/61/61 62/62/62
f 65/65/65 64/64/64 63/63/63
f 64/64/64 66/66/66 63/63/63
f 64/64/64 65/65/65 67/67/67
f 68/68/68 67/67/67 65/65/65
f 69/69/69 67/67/67 68/68/68
f 68/68/68 70/70/70 69/69/69
f 71/71/71 69/69/69 70/70/70
f 70/70/70 72/72/72 71/71/71
f 71/71/71 72/72/72 73/73/73
f 72/72/72 74/74/74 73/73/73
f 73/73/73 74/74/74 75/75/75
f 74/74/74 76/76/76 75/75/75
f 75/75/75 76/76/76 77/77/77
f 76/76/76 78/78/78 77/77/77
f 81/81/81 80/80/80 79/79/79
f 79/79/79 82/82/82 81/81/81
f 83/83/83 81/81/81 82/82/82
f 82/82/82 84/84/84 83/83/83
f 85/85/85 83/83/83 84/84/84
f 84/84/84 86/86/86 85/85/85
f 89/89/89 88/88/88 87/87/87
f 88/88/88 89/89/89 90/90/90
f 91/91/91 88/88/88 90/90/90
f 90/90/90 92/92/92 91/91/91
f 92/92/92 90/90/90 93/93/93
f 94/94/94 93/93/93 90/90/90
f 93/93/93 94/94/94 95/95/95
f 96/96/96 95/95/95 94/94/94
f 96/96/96 97/97/97 95/95/95
f 96/96/96 98/98/98 97/97/97
f 96/96/96 94/94/94 99/99/99
f 99/99/99 90/90/90 89/89/89
f 99/99/99 94/94/94 90/90/90
f 99/99/99 100/100/100 96/96/96
f 98/98/98 96/96/96 100/100/100
f 100/100/100 101/101/101 98/98/98
f 102/102/102 98/98/98 101/101/101
f 101/101/101 103/103/103 102/102/102
f 98/98/98 104/104/104 97/97/97
f 102/102/102 104/104/104 98/98/98
f 107/107/107 106/106/106 105/105/105
f 105/105/105 108/108/108 107/107/107
f 108/108/108 105/105/105 109/109/109
f 110/110/110 108/108/108 109/109/109
f 108/108/108 110/110/110 111/111/111
f 111/111/111 112/112/112 108/108/108
f 112/112/112 111/111/111 113/113/113
f 113/113/113 114/114/114 112/112/112
f 115/115/115 112/112/112 114/114/114
f 115/115/115 107/107/107 108/108/108
f 108/108/108 112/112/112 115/115/115
f 114/114/114 116/116/116 115/115/115
f 116/116/116 114/114/114 117/117/117
f 117/117/117 118/118/118 116/116/116
f 119/119/119 114/114/114 113/113/113
f 117/117/117 114/114/114 119/119/119
f 120/120/120 117/117/117 119/119/119
f 121/121/121 117/117/117 120/120/120
f 118/118/118 117/117/117 121/121/121
f 121/121/121 122/122/122 118/118/118
f 125/125/125 124/124/124 123/123/123
f 123/123/123 126/126/126 125/125/125
f 125/125/125 126/126/126 127/127/127
f 127/127/127 128/128/128 125/125/125
f 128/128/128 127/127/127 129/129/129
f 129/129/129 130/130/130 128/128/128
f 131/131/131 130/130/130 129/129/129
f 129/129/129 132/132/132 131/131/131
f 133/133/133 123/123/123 124/124/124
f 124/124/124 134/134/134 133/133/133
f 135/135/135 133/133/133 134/134/134
f 133/133/133 135/135/135 136/136/136
f 137/137/137 136/136/136 135/135/135
f 136/136/136 137/137/137 138/138/138
f 141/141/141 140/140/140 139/139/139
f 139/139/139 142/142/142 141/141/141
f 142/142/142 139/139/139 143/143/143
f 143/143/143 144/144/144 142/142/142
f 144/144/144 143/143/143 145/145/145
f 145/145/145 146/146/146 144/144/144
f 10/10/10 140/140/140 141/141/141
f 141/141/141 147/147/147 10/10/10
f 147/147/147 12/12/12 10/10/10
f 147/147/147 148/148/148 12/12/12
f 148/148/148 149/149/149 12/12/12
f 149/149/149 148/148/148 150/150/150
f 150/150/150 151/151/151 149/149/149
f 151/151/151 150/150/150 152/152/152
f 151/151/151 152/152/152 153/153/153
f 153/153/153 154/154/154 151/151/151
f 157/157/157 156/156/156 155/155/155
f 155/155/155 158/158/158 157/157/157
f 156/156/156 157/157/157 159/159/159
f 159/159/159 160/160/160 156/156/156
f 159/159/159 161/161/161 160/160/160
f 161/161/161 162/162/162 160/160/160
