g m_chef_mouse:m_chef_mouse_tail
v 0.037536 0.160376 -0.2680227
v 0.02893982 0.1547228 -0.4993175
v 0.03189534 0.1199849 -0.4941159
v 0.04136942 0.121005 -0.2808735
v 0.02893982 0.1547228 -0.4993175
v 0.03209673 0.1618454 -0.5499945
v 0.03537466 0.1285074 -0.5528461
v 0.03189534 0.1199849 -0.4941159
v 0.03650297 0.1502013 -0.6125754
v 0.03312049 0.1793424 -0.6018661
v 0.03430625 0.1859495 -0.672264
v 0.03112733 0.2070131 -0.6513446
v 0.03292302 0.2312577 -0.7242948
v 0.02987228 0.2496841 -0.7018793
v 0.02865422 0.2890215 -0.7693338
v 0.02599903 0.3032577 -0.7478817
v 0.02862831 0.3566211 -0.8076229
v 0.02597553 0.368796 -0.7843726
v 0.02715928 0.4341729 -0.835048
v 0.02464262 0.4435436 -0.811417
v 0.02785352 0.5194177 -0.8511646
v 0.02527253 0.5265555 -0.8255057
v 0.025 0.6129443 -0.8549109
v 0.02268342 0.613068 -0.8304792
v 0.02649747 0.6970894 -0.8477045
v 0.02404213 0.6936705 -0.8240558
v 0.02550788 0.7808708 -0.8234761
v 0.02440303 0.773366 -0.8028465
v 0.02550863 0.8504651 -0.7905177
v 0.02419347 0.8443195 -0.7715642
v 0.02403891 0.9222336 -0.775905
v 0.02239656 0.9202629 -0.755593
v 0.02119393 0.9937143 -0.7764326
v 0.01943757 0.9959857 -0.7576686
v 0.01847581 1.061946 -0.7919941
v 0.01676471 1.067469 -0.7762823
v 0.01522058 1.123746 -0.8215923
v 0.0137923 1.131425 -0.8092322
v 0.01196273 1.176256 -0.8631592
v 0.01094894 1.185039 -0.854172
v 0.008233819 1.218252 -0.9135873
v 0.00771937 1.225319 -0.9089689
v 0.00174928 1.248721 -0.971076
v 0.00171605 1.25075 -0.9703245
v 5.870871E-17 0.8399894 -0.7599232
v 1.107084E-16 0.918663 -0.7432706
v 6.723515E-17 0.997152 -0.7464565
v 4.167327E-17 1.07074 -0.767077
v 6.415572E-17 1.136074 -0.8021863
v 9.821831E-17 1.19038 -0.8492602
v 1.025031E-16 1.229609 -0.9066305
v 9.221953E-17 1.251979 -0.970014
v 4.175374E-17 1.213926 -0.9168999
v 7.536752E-17 1.247486 -0.9717113
v 4.923256E-17 1.170866 -0.8692034
v 6.477787E-17 1.118971 -0.8295836
v 6.01487E-17 1.058363 -0.8018816
v 5.330068E-17 0.9919143 -0.7880088
v 3.578738E-17 0.9227573 -0.7882456
v 8.081594E-17 0.8532903 -0.8018936
v 6.578318E-17 0.7842241 -0.8355215
v 2.045173E-17 0.699246 -0.8626211
v 8.099442E-17 0.6128663 -0.8703216
v 8.584201E-17 0.5149154 -0.8673492
v 2.750093E-17 0.4282621 -0.8499531
v -3.70671E-17 0.3489415 -0.822288
v -6.698521E-18 0.2800417 -0.782865
v 2.096859E-17 0.2196351 -0.7384335
v 9.745749E-18 0.1726636 -0.6854592
v 1.679174E-17 0.1318204 -0.6193305
v 2.630381E-17 0.1074792 -0.5546448
v 7.536752E-17 1.247486 -0.9717113
v 0.00174928 1.248721 -0.971076
v 0.00171605 1.25075 -0.9703245
v 9.221953E-17 1.251979 -0.970014
v 2.542475E-17 0.09807365 -0.490835
v 0.03189534 0.1199849 -0.4941159
v 0.03537466 0.1285074 -0.5528461
v 2.630381E-17 0.1074792 -0.5546448
v 1.805703E-17 0.09617124 -0.2889792
v 0.04136942 0.121005 -0.2808735
v 0.03189534 0.1199849 -0.4941159
v 2.542475E-17 0.09807365 -0.490835
v 1.88457E-17 0.1751174 -0.5023714
v 0.037536 0.160376 -0.2680227
v 1.563425E-17 0.1834909 -0.2604781
v 1.335602E-17 0.1814181 -0.5483202
v 1.166243E-17 0.1964511 -0.5955785
v 4.359018E-18 0.2193794 -0.6390628
v 2.763209E-19 0.2605024 -0.6887192
v 2.908168E-17 0.3116159 -0.7352868
v 3.417853E-17 0.375944 -0.7707223
v 6.075317E-17 0.4490452 -0.7975434
v 4.953421E-17 0.5307462 -0.8104413
v 8.158744E-19 0.6131408 -0.8161352
v 3.081622E-17 0.6916632 -0.8101717
v 2.328864E-17 0.7679529 -0.7899068
v -0.02599903 0.3032577 -0.7478816
v -0.02597553 0.368796 -0.7843726
v -0.02862831 0.356621 -0.8076228
v -0.02865422 0.2890215 -0.7693338
v -0.02987228 0.2496841 -0.7018793
v -0.03292302 0.2312577 -0.7242948
v -0.03112733 0.2070131 -0.6513446
v -0.03430625 0.1859495 -0.672264
v -0.03312049 0.1793424 -0.6018661
v -0.03650297 0.1502013 -0.6125754
v -0.03209673 0.1618454 -0.5499945
v -0.03537466 0.1285074 -0.5528461
v -0.02893982 0.1547228 -0.4993175
v -0.03189534 0.1199849 -0.4941159
v -0.02715928 0.4341728 -0.8350478
v -0.02464262 0.4435436 -0.811417
v -0.02785352 0.5194177 -0.8511647
v -0.02527253 0.5265555 -0.8255057
v -0.025 0.6129443 -0.8549109
v -0.02268342 0.613068 -0.8304793
v -0.02649747 0.6970894 -0.8477045
v -0.02404213 0.6936705 -0.8240558
v -0.02550788 0.7808707 -0.823476
v -0.02440303 0.7733659 -0.8028464
v -0.02550863 0.8504651 -0.7905176
v -0.02419347 0.8443193 -0.7715641
v -0.02403891 0.9222335 -0.775905
v -0.02239656 0.9202628 -0.7555929
v -0.02119393 0.9937143 -0.7764326
v -0.01943757 0.9959857 -0.7576685
v -0.01847581 1.061946 -0.791994
v -0.01676471 1.067469 -0.7762823
v -0.01522058 1.123747 -0.8215925
v -0.0137923 1.131424 -0.8092322
v -0.01196273 1.176256 -0.8631592
v -0.01094894 1.185038 -0.8541719
v -0.00823382 1.218252 -0.9135873
v -0.007719369 1.225319 -0.9089689
v -0.00174928 1.248721 -0.971076
v -0.00171605 1.25075 -0.9703245
v 7.536752E-17 1.247486 -0.9717113
v 4.175374E-17 1.213926 -0.9168999
v 4.923256E-17 1.170866 -0.8692034
v 6.477787E-17 1.118971 -0.8295836
v 6.01487E-17 1.058363 -0.8018816
v 5.330068E-17 0.9919143 -0.7880088
v 3.578738E-17 0.9227573 -0.7882456
v 8.081594E-17 0.8532903 -0.8018936
v 6.578318E-17 0.7842241 -0.8355215
v 2.045173E-17 0.699246 -0.8626211
v 8.099442E-17 0.6128663 -0.8703216
v 8.584201E-17 0.5149154 -0.8673492
v 2.750093E-17 0.4282621 -0.8499531
v -3.70671E-17 0.3489415 -0.822288
v -6.698521E-18 0.2800417 -0.782865
v 2.096859E-17 0.2196351 -0.7384335
v 9.745749E-18 0.1726636 -0.6854592
v 1.679174E-17 0.1318204 -0.6193305
v 2.630381E-17 0.1074792 -0.5546448
v -0.037536 0.160376 -0.2680227
v -0.04136942 0.121005 -0.2808735
v -0.03189534 0.1199849 -0.4941159
v -0.02893982 0.1547228 -0.4993175
v 2.542475E-17 0.09807365 -0.490835
v 2.630381E-17 0.1074792 -0.5546448
v -0.03537466 0.1285074 -0.5528461
v -0.03189534 0.1199849 -0.4941159
v 1.805703E-17 0.09617124 -0.2889792
v 2.542475E-17 0.09807365 -0.490835
v -0.03189534 0.1199849 -0.4941159
v -0.04136942 0.121005 -0.2808735
v -0.037536 0.160376 -0.2680227
vt 0.97062 0.942171
vt 0.836965 0.951168
vt 0.845192 0.971182
vt 0.964874 0.959854
vt 0.836965 0.951168
vt 0.806311 0.953008
vt 0.811552 0.97241
vt 0.845192 0.971182
vt 0.775468 0.971983
vt 0.773203 0.953932
vt 0.736855 0.971545
vt 0.739258 0.954351
vt 0.698743 0.971293
vt 0.699889 0.954696
vt 0.658158 0.970622
vt 0.658461 0.955058
vt 0.615213 0.971085
vt 0.614968 0.955941
vt 0.569476 0.971918
vt 0.56851 0.957188
vt 0.521195 0.973501
vt 0.51948 0.958748
vt 0.468682 0.974858
vt 0.469167 0.960382
vt 0.421574 0.977074
vt 0.422443 0.963055
vt 0.372655 0.97771
vt 0.374997 0.964994
vt 0.329391 0.976008
vt 0.331761 0.965017
vt 0.286071 0.97724
vt 0.287272 0.965971
vt 0.243446 0.977234
vt 0.24446 0.966586
vt 0.202193 0.97641
vt 0.20264 0.966688
vt 0.161432 0.97541
vt 0.161845 0.966711
vt 0.121576 0.973716
vt 0.122242 0.966346
vt 0.082945 0.970271
vt 0.083427 0.965439
vt 0.045685 0.9637
vt 0.045067 0.9627
vt 0.332439 0.950026
vt 0.286733 0.951865
vt 0.243589 0.9536
vt 0.202594 0.955252
vt 0.162483 0.956868
vt 0.122763 0.958471
vt 0.083544 0.960087
vt 0.044292 0.961801
vt 0.080952 0.975557
vt 0.044378 0.960752
vt 0.11912 0.981699
vt 0.158974 0.985459
vt 0.200652 0.991467
vt 0.24242 0.99509
vt 0.284379 0.996572
vt 0.325714 0.996572
vt 0.368955 0.996572
vt 0.418636 0.996572
vt 0.466323 0.996572
vt 0.520095 0.996572
vt 0.568062 0.996572
vt 0.613636 0.996572
vt 0.657414 0.996572
vt 0.698762 0.996572
vt 0.73685 0.996572
vt 0.777695 0.996572
vt 0.815623 0.996572
vt 0.044378 0.960752
vt 0.045685 0.9637
vt 0.045067 0.9627
vt 0.044292 0.961801
vt 0.851945 0.996572
vt 0.845192 0.971182
vt 0.811552 0.97241
vt 0.815623 0.996572
vt 0.96577 0.996572
vt 0.964874 0.959854
vt 0.845192 0.971182
vt 0.851945 0.996572
vt 0.831375 0.930037
vt 0.97062 0.942171
vt 0.976088 0.924279
vt 0.802264 0.931196
vt 0.771651 0.932418
vt 0.741473 0.933621
vt 0.701447 0.93522
vt 0.658287 0.936945
vt 0.613333 0.938744
vt 0.566549 0.940618
vt 0.517211 0.942597
vt 0.46874 0.944543
vt 0.422691 0.946392
vt 0.376565 0.948248
vt 0.657015 0.918877
vt 0.613588 0.92147
vt 0.612622 0.906355
vt 0.65547 0.903385
vt 0.69834 0.91593
vt 0.695875 0.899477
vt 0.737613 0.913135
vt 0.733847 0.896188
vt 0.771485 0.910848
vt 0.772305 0.892673
vt 0.804563 0.90913
vt 0.808244 0.889374
vt 0.835269 0.908527
vt 0.841877 0.887921
vt 0.566963 0.909183
vt 0.567178 0.923944
vt 0.518707 0.911471
vt 0.518179 0.926315
vt 0.466252 0.914331
vt 0.467895 0.92872
vt 0.419115 0.9159
vt 0.421105 0.929804
vt 0.370301 0.919194
vt 0.373656 0.93168
vt 0.32731 0.924375
vt 0.330559 0.935139
vt 0.284024 0.926626
vt 0.286134 0.93776
vt 0.241527 0.930059
vt 0.243406 0.940588
vt 0.200458 0.934199
vt 0.201703 0.943851
vt 0.159876 0.938479
vt 0.161025 0.947111
vt 0.12022 0.94339
vt 0.121546 0.950671
vt 0.081892 0.950024
vt 0.082862 0.954778
vt 0.045131 0.959598
vt 0.044654 0.960665
vt 0.044378 0.960752
vt 0.07942 0.944945
vt 0.117077 0.935649
vt 0.156587 0.928668
vt 0.197938 0.922273
vt 0.239399 0.916495
vt 0.281132 0.911856
vt 0.322409 0.90941
vt 0.365334 0.903682
vt 0.414804 0.898987
vt 0.46254 0.897623
vt 0.516135 0.89321
vt 0.564109 0.891304
vt 0.609537 0.887616
vt 0.653188 0.884221
vt 0.694167 0.877933
vt 0.732044 0.873724
vt 0.772597 0.868357
vt 0.810381 0.864666
vt 0.969228 0.906874
vt 0.962091 0.889703
vt 0.841877 0.887921
vt 0.835269 0.908527
vt 0.84687 0.864666
vt 0.810381 0.864666
vt 0.808244 0.889374
vt 0.841877 0.887921
vt 0.960986 0.864666
vt 0.84687 0.864666
vt 0.841877 0.887921
vt 0.962091 0.889703
vt 0.969228 0.906874
vn 0.9945556 0.09542951 -0.04186085
vn 0.9945556 0.0954295 -0.04186084
vn 0.9945556 0.0954295 -0.04186085
vn 0.9945556 0.09542951 -0.04186086
vn 0.6509608 0.7591072 0.002525802
vn 0.8583248 0.4921479 0.1451518
vn 0.9115398 -0.3921644 -0.1237025
vn 0.9929 0.0934566 0.07358976
vn 0.8025791 -0.5328733 -0.2681659
vn 0.8432165 0.4954855 0.2085187
vn 0.804908 -0.4721004 -0.3595058
vn 0.8313178 0.4661874 0.3026221
vn 0.8260162 -0.3667679 -0.4279935
vn 0.8278936 0.4184761 0.373457
vn 0.8301584 -0.2910581 -0.475523
vn 0.8347325 0.3335178 0.4381635
vn 0.8367242 -0.2202974 -0.5013598
vn 0.8395216 0.2311532 0.4917028
vn 0.8401397 -0.1367795 -0.5248396
vn 0.8433269 0.1392369 0.5190499
vn 0.8450313 -0.05033537 -0.5323426
vn 0.8465886 0.07020168 0.5275978
vn 0.8417761 0.01788524 -0.5395305
vn 0.8471749 0.002927566 0.5313061
vn 0.8270359 0.106208 -0.5520249
vn 0.842248 -0.09653404 0.5303767
vn 0.8026254 0.2173663 -0.5554677
vn 0.8246436 -0.1834084 0.5350927
vn 0.8334292 0.185056 -0.5207207
vn 0.7797382 -0.1824954 0.5989189
vn 0.8476189 0.07658987 -0.5250487
vn 0.7794098 -0.04092071 0.6251767
vn 0.8643743 -0.02094483 -0.5024124
vn 0.7909076 0.1074223 0.6024332
vn 0.8750473 -0.1195139 -0.4690507
vn 0.7997657 0.2351918 0.5523221
vn 0.8856669 -0.2056367 -0.4163024
vn 0.8127367 0.3413101 0.4721934
vn 0.8932704 -0.2744607 -0.3560047
vn 0.8273017 0.4253412 0.3669561
vn 0.8931997 -0.3232957 -0.3125288
vn 0.8357974 0.4907579 0.2461696
vn 0.8823776 -0.3609001 -0.3019285
vn 0.8325121 0.5388511 0.128697
vn 3.781331E-07 -0.3012237 0.9535534
vn 0 -0.08830576 0.9960935
vn -6.281937E-07 0.1472492 0.9890994
vn -5.614172E-07 0.3643726 0.9312533
vn -4.924665E-07 0.5592315 0.8290116
vn -6.530129E-07 0.7337092 0.6794636
vn -2.829698E-07 0.8699484 0.4931428
vn 2.97511E-07 0.9476058 0.3194419
vn -7.864725E-07 -0.7816377 -0.6237327
vn -8.461008E-07 -0.8458293 -0.5334536
vn -2.282452E-07 -0.6644595 -0.7473244
vn 1.098808E-06 -0.4981108 -0.8671134
vn 1.234984E-06 -0.2982556 -0.954486
vn 0 -0.08792199 -0.9961274
vn -5.269723E-07 0.1123823 -0.9936651
vn 0 0.3272478 -0.9449385
vn 3.058356E-07 0.356757 -0.9341972
vn -1.125479E-07 0.1892124 -0.9819362
vn -4.186598E-07 0.02353667 -0.9997229
vn -2.792203E-07 -0.1125811 -0.9936426
vn -1.580644E-07 -0.2618868 -0.9650986
vn 2.887517E-07 -0.4125532 -0.9109335
vn 7.243099E-07 -0.544054 -0.8390502
vn 4.499556E-07 -0.6727575 -0.739863
vn 0 -0.80217 -0.5970958
vn 0 -0.8989118 -0.4381296
vn 1.118685E-07 -0.9394882 -0.3425814
vn -8.461008E-07 -0.8458293 -0.5334536
vn 0.8823776 -0.3609001 -0.3019285
vn 0.8325121 0.5388511 0.128697
vn 2.97511E-07 0.9476058 0.3194419
vn 0.5332355 -0.8390933 -0.1076217
vn 0.5332354 -0.8390933 -0.1076217
vn 0.5332355 -0.8390933 -0.1076217
vn 0.5332355 -0.8390933 -0.1076217
vn 0.5384797 -0.8425208 -0.01408106
vn 0.5384798 -0.8425207 -0.01408106
vn 0.5384797 -0.8425208 -0.01408106
vn 0.5384798 -0.8425207 -0.01408106
vn 0 0.999984 -0.005652902
vn 0.5456674 0.8372818 -0.03473228
vn 0 0.9991407 -0.04144654
vn -1.293588E-07 0.9689881 0.2471075
vn -1.132798E-07 0.9184867 0.395452
vn 4.343111E-07 0.829895 0.5579196
vn 5.428184E-07 0.7263941 0.6872784
vn -2.123657E-07 0.5850539 0.8109944
vn 0 0.4147399 0.9099401
vn 6.233303E-07 0.2485977 0.9686068
vn 1.603854E-07 0.1143836 0.9934366
vn -3.359803E-07 -0.002114171 0.9999979
vn 0 -0.1738935 0.9847645
vn 4.493664E-07 -0.3239205 0.9460843
vn -0.8347328 0.3335177 0.4381633
vn -0.8395216 0.2311531 0.4917027
vn -0.836724 -0.2202975 -0.5013601
vn -0.830158 -0.2910585 -0.4755236
vn -0.8278933 0.4184762 0.3734572
vn -0.8260161 -0.366768 -0.4279937
vn -0.8313176 0.4661876 0.3026223
vn -0.8049081 -0.4721002 -0.3595057
vn -0.8432166 0.4954853 0.2085187
vn -0.8025791 -0.5328733 -0.2681659
vn -0.8583248 0.4921478 0.1451518
vn -0.9115398 -0.3921644 -0.1237025
vn -0.6509607 0.7591072 0.002525802
vn -0.9929 0.09345657 0.07358973
vn -0.8401397 -0.1367795 -0.5248396
vn -0.8433267 0.139237 0.5190502
vn -0.8450311 -0.05033537 -0.5323426
vn -0.8465886 0.07020169 0.5275978
vn -0.8417763 0.01788521 -0.5395302
vn -0.8471751 0.002927549 0.5313058
vn -0.8270361 0.1062079 -0.5520245
vn -0.8422478 -0.09653408 0.530377
vn -0.8026251 0.2173664 -0.555468
vn -0.8246433 -0.1834085 0.5350932
vn -0.833429 0.1850562 -0.520721
vn -0.7797378 -0.1824955 0.5989193
vn -0.847619 0.07658986 -0.5250485
vn -0.7794095 -0.04092076 0.625177
vn -0.8643745 -0.0209448 -0.5024124
vn -0.7909078 0.1074222 0.6024327
vn -0.8750468 -0.1195142 -0.4690515
vn -0.7997661 0.2351916 0.5523216
vn -0.8856663 -0.2056372 -0.4163033
vn -0.8127368 0.3413099 0.4721931
vn -0.8932704 -0.2744604 -0.3560048
vn -0.8273017 0.4253413 0.3669558
vn -0.8931997 -0.3232956 -0.312529
vn -0.8357971 0.4907585 0.2461693
vn -0.8823773 -0.360901 -0.3019288
vn -0.8325113 0.5388525 0.1286969
vn -8.461008E-07 -0.8458293 -0.5334536
vn -7.864725E-07 -0.7816377 -0.6237327
vn -2.282452E-07 -0.6644595 -0.7473244
vn 1.098808E-06 -0.4981108 -0.8671134
vn 1.234984E-06 -0.2982556 -0.954486
vn 0 -0.08792199 -0.9961274
vn -5.269723E-07 0.1123823 -0.9936651
vn 0 0.3272478 -0.9449385
vn 3.058356E-07 0.356757 -0.9341972
vn -1.125479E-07 0.1892124 -0.9819362
vn -4.186598E-07 0.02353667 -0.9997229
vn -2.792203E-07 -0.1125811 -0.9936426
vn -1.580644E-07 -0.2618868 -0.9650986
vn 2.887517E-07 -0.4125532 -0.9109335
vn 7.243099E-07 -0.544054 -0.8390502
vn 4.499556E-07 -0.6727575 -0.739863
vn 0 -0.80217 -0.5970958
vn 0 -0.8989118 -0.4381296
vn 1.118685E-07 -0.9394882 -0.3425814
vn -0.9945556 0.09542948 -0.04186085
vn -0.9945556 0.09542949 -0.04186086
vn -0.9945556 0.09542948 -0.04186085
vn -0.9945556 0.09542947 -0.04186084
vn -0.5332353 -0.8390934 -0.1076217
vn -0.5332352 -0.8390935 -0.1076217
vn -0.5332353 -0.8390934 -0.1076217
vn -0.5332352 -0.8390935 -0.1076217
vn -0.5384797 -0.8425208 -0.01408106
vn -0.5384797 -0.8425208 -0.01408106
vn -0.5384797 -0.8425208 -0.01408106
vn -0.5384798 -0.8425207 -0.01408106
vn -0.5456674 0.8372818 -0.03473228
g m_chef_mouse:m_chef_mouse_tail_0
f 3/3/3 2/2/2 1/1/1
f 4/4/4 3/3/3 1/1/1
f 7/7/7 6/6/6 5/5/5
f 8/8/8 7/7/7 5/5/5
f 7/7/7 9/9/9 6/6/6
f 9/9/9 10/10/10 6/6/6
f 9/9/9 11/11/11 10/10/10
f 11/11/11 12/12/12 10/10/10
f 11/11/11 13/13/13 12/12/12
f 13/13/13 14/14/14 12/12/12
f 13/13/13 15/15/15 14/14/14
f 15/15/15 16/16/16 14/14/14
f 15/15/15 17/17/17 16/16/16
f 17/17/17 18/18/18 16/16/16
f 17/17/17 19/19/19 18/18/18
f 19/19/19 20/20/20 18/18/18
f 19/19/19 21/21/21 20/20/20
f 21/21/21 22/22/22 20/20/20
f 21/21/21 23/23/23 22/22/22
f 23/23/23 24/24/24 22/22/22
f 23/23/23 25/25/25 24/24/24
f 25/25/25 26/26/26 24/24/24
f 25/25/25 27/27/27 26/26/26
f 27/27/27 28/28/28 26/26/26
f 27/27/27 29/29/29 28/28/28
f 29/29/29 30/30/30 28/28/28
f 29/29/29 31/31/31 30/30/30
f 31/31/31 32/32/32 30/30/30
f 31/31/31 33/33/33 32/32/32
f 33/33/33 34/34/34 32/32/32
f 33/33/33 35/35/35 34/34/34
f 35/35/35 36/36/36 34/34/34
f 35/35/35 37/37/37 36/36/36
f 37/37/37 38/38/38 36/36/36
f 37/37/37 39/39/39 38/38/38
f 39/39/39 40/40/40 38/38/38
f 39/39/39 41/41/41 40/40/40
f 41/41/41 42/42/42 40/40/40
f 41/41/41 43/43/43 42/42/42
f 43/43/43 44/44/44 42/42/42
f 30/30/30 32/32/32 45/45/45
f 32/32/32 46/46/46 45/45/45
f 32/32/32 34/34/34 47/47/47
f 46/46/46 32/32/32 47/47/47
f 34/34/34 36/36/36 48/48/48
f 47/47/47 34/34/34 48/48/48
f 36/36/36 38/38/38 49/49/49
f 48/48/48 36/36/36 49/49/49
f 38/38/38 40/40/40 50/50/50
f 49/49/49 38/38/38 50/50/50
f 40/40/40 42/42/42 51/51/51
f 50/50/50 40/40/40 51/51/51
f 42/42/42 44/44/44 52/52/52
f 51/51/51 42/42/42 52/52/52
f 43/43/43 41/41/41 53/53/53
f 54/54/54 43/43/43 53/53/53
f 41/41/41 39/39/39 55/55/55
f 53/53/53 41/41/41 55/55/55
f 55/55/55 39/39/39 56/56/56
f 39/39/39 37/37/37 56/56/56
f 56/56/56 37/37/37 57/57/57
f 37/37/37 35/35/35 57/57/57
f 57/57/57 35/35/35 58/58/58
f 35/35/35 33/33/33 58/58/58
f 58/58/58 33/33/33 59/59/59
f 33/33/33 31/31/31 59/59/59
f 59/59/59 31/31/31 60/60/60
f 31/31/31 29/29/29 60/60/60
f 60/60/60 29/29/29 61/61/61
f 29/29/29 27/27/27 61/61/61
f 61/61/61 27/27/27 62/62/62
f 27/27/27 25/25/25 62/62/62
f 62/62/62 25/25/25 63/63/63
f 25/25/25 23/23/23 63/63/63
f 63/63/63 23/23/23 64/64/64
f 23/23/23 21/21/21 64/64/64
f 64/64/64 21/21/21 65/65/65
f 21/21/21 19/19/19 65/65/65
f 65/65/65 19/19/19 66/66/66
f 19/19/19 17/17/17 66/66/66
f 66/66/66 17/17/17 67/67/67
f 17/17/17 15/15/15 67/67/67
f 67/67/67 15/15/15 68/68/68
f 15/15/15 13/13/13 68/68/68
f 68/68/68 13/13/13 69/69/69
f 13/13/13 11/11/11 69/69/69
f 69/69/69 11/11/11 70/70/70
f 11/11/11 9/9/9 70/70/70
f 70/70/70 9/9/9 71/71/71
f 9/9/9 7/7/7 71/71/71
f 74/74/74 73/73/73 72/72/72
f 75/75/75 74/74/74 72/72/72
f 78/78/78 77/77/77 76/76/76
f 79/79/79 78/78/78 76/76/76
f 82/82/82 81/81/81 80/80/80
f 83/83/83 82/82/82 80/80/80
f 85/85/85 5/5/5 84/84/84
f 86/86/86 85/85/85 84/84/84
f 84/84/84 5/5/5 87/87/87
f 5/5/5 6/6/6 87/87/87
f 87/87/87 6/6/6 88/88/88
f 6/6/6 10/10/10 88/88/88
f 88/88/88 10/10/10 89/89/89
f 10/10/10 12/12/12 89/89/89
f 89/89/89 12/12/12 90/90/90
f 12/12/12 14/14/14 90/90/90
f 90/90/90 14/14/14 91/91/91
f 14/14/14 16/16/16 91/91/91
f 91/91/91 16/16/16 92/92/92
f 16/16/16 18/18/18 92/92/92
f 92/92/92 18/18/18 93/93/93
f 18/18/18 20/20/20 93/93/93
f 93/93/93 20/20/20 94/94/94
f 20/20/20 22/22/22 94/94/94
f 94/94/94 22/22/22 95/95/95
f 22/22/22 24/24/24 95/95/95
f 95/95/95 24/24/24 96/96/96
f 24/24/24 26/26/26 96/96/96
f 96/96/96 26/26/26 97/97/97
f 26/26/26 28/28/28 97/97/97
f 97/97/97 28/28/28 45/45/45
f 28/28/28 30/30/30 45/45/45
f 98/98/98 91/91/91 92/92/92
f 99/99/99 98/98/98 92/92/92
f 99/99/99 92/92/92 93/93/93
f 99/99/99 100/100/100 98/98/98
f 100/100/100 101/101/101 98/98/98
f 98/98/98 101/101/101 102/102/102
f 101/101/101 103/103/103 102/102/102
f 102/102/102 103/103/103 104/104/104
f 103/103/103 105/105/105 104/104/104
f 104/104/104 105/105/105 106/106/106
f 105/105/105 107/107/107 106/106/106
f 106/106/106 107/107/107 108/108/108
f 107/107/107 109/109/109 108/108/108
f 108/108/108 109/109/109 110/110/110
f 109/109/109 111/111/111 110/110/110
f 112/112/112 100/100/100 99/99/99
f 113/113/113 112/112/112 99/99/99
f 114/114/114 112/112/112 113/113/113
f 115/115/115 114/114/114 113/113/113
f 116/116/116 114/114/114 115/115/115
f 117/117/117 116/116/116 115/115/115
f 118/118/118 116/116/116 117/117/117
f 119/119/119 118/118/118 117/117/117
f 120/120/120 118/118/118 119/119/119
f 121/121/121 120/120/120 119/119/119
f 122/122/122 120/120/120 121/121/121
f 123/123/123 122/122/122 121/121/121
f 124/124/124 122/122/122 123/123/123
f 125/125/125 124/124/124 123/123/123
f 126/126/126 124/124/124 125/125/125
f 127/127/127 126/126/126 125/125/125
f 128/128/128 126/126/126 127/127/127
f 129/129/129 128/128/128 127/127/127
f 130/130/130 128/128/128 129/129/129
f 131/131/131 130/130/130 129/129/129
f 132/132/132 130/130/130 131/131/131
f 133/133/133 132/132/132 131/131/131
f 134/134/134 132/132/132 133/133/133
f 135/135/135 134/134/134 133/133/133
f 136/136/136 134/134/134 135/135/135
f 137/137/137 136/136/136 135/135/135
f 125/125/125 123/123/123 45/45/45
f 46/46/46 125/125/125 45/45/45
f 125/125/125 46/46/46 47/47/47
f 127/127/127 125/125/125 47/47/47
f 127/127/127 47/47/47 48/48/48
f 129/129/129 127/127/127 48/48/48
f 129/129/129 48/48/48 49/49/49
f 131/131/131 129/129/129 49/49/49
f 131/131/131 49/49/49 50/50/50
f 133/133/133 131/131/131 50/50/50
f 133/133/133 50/50/50 51/51/51
f 135/135/135 133/133/133 51/51/51
f 135/135/135 51/51/51 52/52/52
f 137/137/137 135/135/135 52/52/52
f 137/137/137 52/52/52 138/138/138
f 136/136/136 137/137/137 138/138/138
f 136/136/136 138/138/138 139/139/139
f 134/134/134 136/136/136 139/139/139
f 134/134/134 139/139/139 140/140/140
f 132/132/132 134/134/134 140/140/140
f 132/132/132 140/140/140 141/141/141
f 130/130/130 132/132/132 141/141/141
f 130/130/130 141/141/141 142/142/142
f 128/128/128 130/130/130 142/142/142
f 128/128/128 142/142/142 143/143/143
f 126/126/126 128/128/128 143/143/143
f 126/126/126 143/143/143 144/144/144
f 124/124/124 126/126/126 144/144/144
f 124/124/124 144/144/144 145/145/145
f 122/122/122 124/124/124 145/145/145
f 122/122/122 145/145/145 146/146/146
f 120/120/120 122/122/122 146/146/146
f 120/120/120 146/146/146 147/147/147
f 118/118/118 120/120/120 147/147/147
f 118/118/118 147/147/147 148/148/148
f 116/116/116 118/118/118 148/148/148
f 116/116/116 148/148/148 149/149/149
f 114/114/114 116/116/116 149/149/149
f 114/114/114 149/149/149 150/150/150
f 112/112/112 114/114/114 150/150/150
f 112/112/112 150/150/150 151/151/151
f 100/100/100 112/112/112 151/151/151
f 100/100/100 151/151/151 152/152/152
f 101/101/101 100/100/100 152/152/152
f 101/101/101 152/152/152 153/153/153
f 103/103/103 101/101/101 153/153/153
f 103/103/103 153/153/153 154/154/154
f 105/105/105 103/103/103 154/154/154
f 105/105/105 154/154/154 155/155/155
f 107/107/107 105/105/105 155/155/155
f 107/107/107 155/155/155 156/156/156
f 109/109/109 107/107/107 156/156/156
f 159/159/159 158/158/158 157/157/157
f 160/160/160 159/159/159 157/157/157
f 163/163/163 162/162/162 161/161/161
f 164/164/164 163/163/163 161/161/161
f 167/167/167 166/166/166 165/165/165
f 168/168/168 167/167/167 165/165/165
f 169/169/169 86/86/86 84/84/84
f 110/110/110 169/169/169 84/84/84
f 110/110/110 84/84/84 87/87/87
f 108/108/108 110/110/110 87/87/87
f 108/108/108 87/87/87 88/88/88
f 106/106/106 108/108/108 88/88/88
f 106/106/106 88/88/88 89/89/89
f 104/104/104 106/106/106 89/89/89
f 104/104/104 89/89/89 90/90/90
f 102/102/102 104/104/104 90/90/90
f 102/102/102 90/90/90 91/91/91
f 98/98/98 102/102/102 91/91/91
f 113/113/113 99/99/99 93/93/93
f 113/113/113 93/93/93 94/94/94
f 115/115/115 113/113/113 94/94/94
f 115/115/115 94/94/94 95/95/95
f 117/117/117 115/115/115 95/95/95
f 117/117/117 95/95/95 96/96/96
f 119/119/119 117/117/117 96/96/96
f 119/119/119 96/96/96 97/97/97
f 121/121/121 119/119/119 97/97/97
f 121/121/121 97/97/97 45/45/45
f 123/123/123 121/121/121 45/45/45
