g m_city_wall_left_angle_03_inside
v -0.1729196 -0.7243858 0.1400912
v -0.1729196 -1 0.08138292
v -0.1729196 -0.673784 0.08527893
v -0.1727829 -0.7470199 0.1502399
v -0.1727829 -1 0.15024
v -0.1729196 -1 0.08138292
v -0.142944 -0.7243858 0.170079
v -0.08812954 -0.673784 0.170079
v -0.08423305 -1 0.170079
v -0.08423305 -1 0.170079
v -0.1530905 -1 0.1699208
v -0.1530905 -0.7470199 0.1699207
v -0.1530905 -0.7470199 0.1699207
v -0.1530905 -1 0.1699208
v -0.1577291 -1 0.1548799
v -0.1577291 -0.7470199 0.1548799
v -0.1577291 -0.7470199 0.1548799
v -0.1577291 -1 0.1548799
v -0.1727829 -1 0.15024
v -0.1727829 -0.7470199 0.1502399
v -0.1038034 0.7925342 0.08595316
v -0.1038034 0.07765304 0.08595318
v -0.1729196 0.07765297 0.08527893
v -0.1729196 0.7925342 0.08527893
v -0.1729196 -0.673784 0.08527893
v -0.1038034 -0.6737838 0.08595318
v -0.09320766 0.7925342 0.09035465
v -0.09320766 0.07765304 0.09035467
v -0.09320766 -0.6737838 0.09035467
v -0.1584518 -0.7243858 0.1406001
v -0.1727829 -0.7470199 0.1502399
v -0.1729196 -0.7243858 0.1400912
v -0.1038034 -0.6737838 0.08595318
v -0.1729196 -0.673784 0.08527893
v -0.1478512 -0.7243858 0.1450007
v -0.1577291 -0.7470199 0.1548799
v -0.09320766 -0.6737838 0.09035467
v -0.08880337 0.7925342 0.1009518
v -0.08812954 0.7925342 0.170079
v -0.08812954 0.07765297 0.170079
v -0.08880337 0.07765304 0.1009518
v -0.08812954 -0.673784 0.170079
v -0.08880337 -0.6737838 0.1009518
v -0.09320766 0.07765304 0.09035467
v -0.09320766 0.7925342 0.09035465
v -0.09320766 -0.6737838 0.09035467
v -0.1434518 -0.7243858 0.1555987
v -0.142944 -0.7243858 0.170079
v -0.1530905 -0.7470199 0.1699207
v -0.08880337 -0.6737838 0.1009518
v -0.08812954 -0.673784 0.170079
v -0.1577291 -0.7470199 0.1548799
v -0.1478512 -0.7243858 0.1450007
v -0.09320766 -0.6737838 0.09035467
vt 0.4838867 0.2351074
vt 0.4899902 0.1904297
vt 0.4926758 0.2397461
vt 0.4599609 0.2324219
vt 0.4589844 0.1901855
vt 0.4899902 0.1904297
vt 0.4838867 0.2351074
vt 0.4926758 0.2397461
vt 0.4899902 0.1904297
vt 0.4899902 0.1904297
vt 0.4589844 0.1901855
vt 0.4599609 0.2324219
vt 0.4599609 0.2324219
vt 0.4589844 0.1901855
vt 0.4353027 0.1901855
vt 0.435791 0.2325439
vt 0.435791 0.2325439
vt 0.4353027 0.1901855
vt 0.4589844 0.1901855
vt 0.4599609 0.2324219
vt 0.2498779 0.05712891
vt 0.1425781 0.05712891
vt 0.1425781 0.04812622
vt 0.2498779 0.04812622
vt 0.02973938 0.04812622
vt 0.02973938 0.05712891
vt 0.2498779 0.05938721
vt 0.1425781 0.05938721
vt 0.02973938 0.05938721
vt 0.4365234 0.2366943
vt 0.4599609 0.2324219
vt 0.4816895 0.2364502
vt 0.4282227 0.2491455
vt 0.4814453 0.2490234
vt 0.4343262 0.2366943
vt 0.435791 0.2325439
vt 0.4257813 0.2491455
vt 0.2498779 0.05712891
vt 0.2498779 0.04812622
vt 0.1425781 0.04812622
vt 0.1425781 0.05712891
vt 0.02973938 0.04812622
vt 0.02973938 0.05712891
vt 0.1425781 0.05938721
vt 0.2498779 0.05938721
vt 0.02973938 0.05938721
vt 0.4365234 0.2366943
vt 0.4816895 0.2364502
vt 0.4599609 0.2324219
vt 0.4282227 0.2491455
vt 0.4814453 0.2490234
vt 0.435791 0.2325439
vt 0.4343262 0.2366943
vt 0.4257813 0.2491455
vn -1 0 0
vn -1 0 0
vn -1 0 0
vn -0.9999943 -0.0003739358 0.003354235
vn -0.9999943 -0.0003739358 0.003354235
vn -0.9999943 -0.0003739358 0.003354235
vn 1.688057E-07 0 1
vn 1.688057E-07 0 1
vn 1.688057E-07 0 1
vn -0.003882775 -0.0004312031 0.9999924
vn -0.003882775 -0.0004312031 0.9999924
vn -0.003882775 -0.0004312031 0.9999924
vn -0.9555907 0 0.2946971
vn -0.9555907 0 0.2946971
vn -0.7837259 -0.03417539 0.6201659
vn -0.7837259 -0.03417539 0.6201659
vn -0.7837259 -0.03417539 0.6201659
vn -0.7837259 -0.03417539 0.6201659
vn -0.2946058 0 0.9556189
vn -0.2946058 0 0.9556189
vn -0.009799529 0 0.999952
vn -0.009799529 0 0.999952
vn -0.009799529 0 0.999952
vn -0.009799529 0 0.999952
vn -0.009799529 0 0.999952
vn -0.009799529 0 0.999952
vn -0.7070742 7.904703E-07 0.7071393
vn -0.7070745 3.853817E-07 0.707139
vn -0.7070748 0 0.7071388
vn -0.009599745 0.7365804 0.676282
vn -0.2946058 0 0.9556189
vn -0.009599745 0.7365804 0.676282
vn -0.009599745 0.7365804 0.676282
vn -0.009599745 0.7365804 0.676282
vn -0.4335354 0.7899474 0.4336243
vn -0.7837259 -0.03417539 0.6201659
vn -0.3873055 0.8366348 0.3873459
vn -0.999953 0 0.009699545
vn -0.999953 0 0.009699545
vn -0.999953 0 0.009699545
vn -0.999953 0 0.009699545
vn -0.999953 0 0.009699545
vn -0.999953 0 0.009699545
vn -0.7070745 3.853817E-07 0.707139
vn -0.7070742 7.904703E-07 0.7071393
vn -0.7070748 0 0.7071388
vn -0.676282 0.7365804 0.009599745
vn -0.676282 0.7365804 0.009599745
vn -0.9555907 0 0.2946971
vn -0.676282 0.7365804 0.009599745
vn -0.676282 0.7365804 0.009599745
vn -0.7837259 -0.03417539 0.6201659
vn -0.4335354 0.7899474 0.4336243
vn -0.3873055 0.8366348 0.3873459
g m_city_wall_left_angle_03_inside_0
f 3/3/3 2/2/2 1/1/1
f 5/5/5 4/4/4 1/1/1
f 6/6/6 5/5/5 1/1/1
f 9/9/9 8/8/8 7/7/7
f 11/11/11 10/10/10 7/7/7
f 12/12/12 11/11/11 7/7/7
f 15/15/15 14/14/14 13/13/13
f 16/16/16 15/15/15 13/13/13
f 19/19/19 18/18/18 17/17/17
f 20/20/20 19/19/19 17/17/17
f 23/23/23 22/22/22 21/21/21
f 24/24/24 23/23/23 21/21/21
f 23/23/23 25/25/25 22/22/22
f 25/25/25 26/26/26 22/22/22
f 27/27/27 21/21/21 22/22/22
f 28/28/28 27/27/27 22/22/22
f 22/22/22 26/26/26 28/28/28
f 26/26/26 29/29/29 28/28/28
f 32/32/32 31/31/31 30/30/30
f 32/32/32 30/30/30 33/33/33
f 34/34/34 32/32/32 33/33/33
f 35/35/35 30/30/30 31/31/31
f 36/36/36 35/35/35 31/31/31
f 30/30/30 35/35/35 37/37/37
f 33/33/33 30/30/30 37/37/37
f 40/40/40 39/39/39 38/38/38
f 41/41/41 40/40/40 38/38/38
f 42/42/42 40/40/40 41/41/41
f 43/43/43 42/42/42 41/41/41
f 41/41/41 38/38/38 44/44/44
f 38/38/38 45/45/45 44/44/44
f 46/46/46 43/43/43 41/41/41
f 44/44/44 46/46/46 41/41/41
f 49/49/49 48/48/48 47/47/47
f 47/47/47 48/48/48 50/50/50
f 48/48/48 51/51/51 50/50/50
f 49/49/49 47/47/47 52/52/52
f 47/47/47 53/53/53 52/52/52
f 53/53/53 47/47/47 50/50/50
f 54/54/54 53/53/53 50/50/50
