g m_city_wall_straight_02_inside
v -0.5999975 1.792534 -0.2353621
v -0.5999975 0.3253814 -0.2356302
v 0.6000024 0.3255865 -0.2357687
v 0.6000024 1.792534 -0.2353621
v 0.6000024 0.2756142 -0.2900906
v -0.5999975 0.2756141 -0.2900906
v -0.5999975 0.25298 -0.2999998
v 0.6000024 0.2529801 -0.2999998
v -0.5999975 0.3253814 -0.2356302
v 0.6000024 0.3255865 -0.2357687
v 0.6000023 0 -0.2999998
v -0.5999975 0 -0.2999998
vt 0.2504883 0.5068359
vt 0.02928162 0.5068359
vt 0.02928162 0.684082
vt 0.2504883 0.684082
vt 0.2973633 0.737793
vt 0.4816895 0.7373047
vt 0.4819336 0.7329102
vt 0.296875 0.7338867
vt 0.4814453 0.7495117
vt 0.2980957 0.7504883
vt 0.2993164 0.690918
vt 0.4804688 0.690918
vn 0 0 -1
vn 0 0 -1
vn 0 0 -1
vn 0 0 -1
vn -9.99989E-05 0.7370918 -0.6757926
vn -9.99989E-05 0.7370918 -0.6757926
vn 0 0 -1
vn 0 0 -1
vn -9.99989E-05 0.7370918 -0.6757926
vn -9.99989E-05 0.7370918 -0.6757926
vn 0 0 -1
vn 0 0 -1
g m_city_wall_straight_02_inside_0
f 3/3/3 2/2/2 1/1/1
f 4/4/4 3/3/3 1/1/1
f 7/7/7 6/6/6 5/5/5
f 8/8/8 7/7/7 5/5/5
f 6/6/6 9/9/9 5/5/5
f 9/9/9 10/10/10 5/5/5
f 7/7/7 8/8/8 11/11/11
f 12/12/12 7/7/7 11/11/11
