g m_city_wall_brick_01
v -0.2688916 -0.1667086 0.03750124
v -0.2688916 -0.1667086 -0.0125037
v -0.2938892 -0.141711 -0.0125037
v -0.2938892 -0.141711 0.03750124
v 0.2688916 -0.1667086 0.03750124
v 0.2688916 -0.1667086 -0.0125037
v 0.2938892 -0.141711 0.03750124
v 0.2938892 -0.141711 -0.0125037
v 0.2688916 -0.1667086 -0.0125037
v 0.2688916 -0.1667086 0.03750124
v 0.2938892 0.1417106 -0.0125037
v 0.2688916 0.1417106 -0.03750124
v 0.2688916 -0.141711 -0.03750124
v 0.2938892 0.1417106 0.03750124
v 0.2688916 0.1667086 -0.0125037
v -0.2938892 0.1417106 0.03750124
v -0.2938892 0.1417106 -0.0125037
v -0.2688916 0.1667086 -0.0125037
v -0.2688916 0.1667086 0.03750124
v -0.2938892 -0.141711 -0.0125037
v -0.2938892 -0.141711 0.03750124
v 0.2688916 0.1667086 0.03750124
v 0.2688916 0.1667086 -0.0125037
v 0.2938892 0.1417106 -0.0125037
v 0.2938892 0.1417106 0.03750124
v -0.2688916 0.1667086 0.03750124
v -0.2688916 0.1667086 -0.0125037
v -0.2688916 0.1417106 -0.03750124
v 0.2688916 0.1417106 -0.03750124
v -0.2938892 0.1417106 -0.0125037
v -0.2938892 0.1417106 -0.0125037
v -0.2938892 -0.141711 -0.0125037
v -0.2688916 -0.141711 -0.03750124
v -0.2688916 0.1417106 -0.03750124
v 0.2688916 -0.141711 -0.03750124
v -0.2688916 -0.1667086 -0.0125037
v 0.2688916 -0.1667086 -0.0125037
v 0.2688916 0.1417106 -0.03750124
vt 0.371582 0.7529297
vt 0.3681641 0.7602539
vt 0.3723145 0.7646484
vt 0.3793945 0.7607422
vt 0.2785645 0.753418
vt 0.2819824 0.7602539
vt 0.2714844 0.7612305
vt 0.277832 0.7646484
vt 0.2819824 0.7602539
vt 0.2785645 0.753418
vt 0.2780762 0.8115234
vt 0.282959 0.8105469
vt 0.2827148 0.765625
vt 0.2709961 0.8154297
vt 0.2822266 0.815918
vt 0.3789063 0.8149414
vt 0.3725586 0.8115234
vt 0.3684082 0.815918
vt 0.371582 0.8227539
vt 0.3723145 0.7646484
vt 0.3793945 0.7607422
vt 0.2788086 0.8232422
vt 0.2822266 0.815918
vt 0.2780762 0.8115234
vt 0.2709961 0.8154297
vt 0.371582 0.8227539
vt 0.3684082 0.815918
vt 0.3674316 0.8105469
vt 0.282959 0.8105469
vt 0.3725586 0.8115234
vt 0.3725586 0.8115234
vt 0.3723145 0.7646484
vt 0.3671875 0.765625
vt 0.3674316 0.8105469
vt 0.2827148 0.765625
vt 0.3681641 0.7602539
vt 0.2819824 0.7602539
vt 0.282959 0.8105469
vn 0 -1 0
vn 0 -1 0
vn -1 0 0
vn -1 0 0
vn 0 -1 0
vn 0 -1 0
vn 1 0 0
vn 1 0 0
vn 0 -1 0
vn 0 -1 0
vn 1 0 0
vn 0 0 -1
vn 0 0 -1
vn 1 0 0
vn 0 1 0
vn -1 0 0
vn -1 0 0
vn 0 1 0
vn 0 1 0
vn -1 0 0
vn -1 0 0
vn 0 1 0
vn 0 1 0
vn 1 0 0
vn 1 0 0
vn 0 1 0
vn 0 1 0
vn 0 0 -1
vn 0 0 -1
vn -1 0 0
vn -1 0 0
vn -1 0 0
vn 0 0 -1
vn 0 0 -1
vn 0 0 -1
vn 0 -1 0
vn 0 -1 0
vn 0 0 -1
g m_city_wall_brick_01_0
f 3/3/3 2/2/2 1/1/1
f 4/4/4 3/3/3 1/1/1
f 5/5/5 1/1/1 2/2/2
f 6/6/6 5/5/5 2/2/2
f 9/9/9 8/8/8 7/7/7
f 10/10/10 9/9/9 7/7/7
f 8/8/8 11/11/11 7/7/7
f 11/11/11 8/8/8 12/12/12
f 8/8/8 13/13/13 12/12/12
f 13/13/13 8/8/8 9/9/9
f 11/11/11 14/14/14 7/7/7
f 15/15/15 11/11/11 12/12/12
f 18/18/18 17/17/17 16/16/16
f 19/19/19 18/18/18 16/16/16
f 16/16/16 17/17/17 20/20/20
f 21/21/21 16/16/16 20/20/20
f 24/24/24 23/23/23 22/22/22
f 25/25/25 24/24/24 22/22/22
f 22/22/22 23/23/23 26/26/26
f 23/23/23 27/27/27 26/26/26
f 27/27/27 23/23/23 28/28/28
f 23/23/23 29/29/29 28/28/28
f 27/27/27 28/28/28 30/30/30
f 33/33/33 32/32/32 31/31/31
f 34/34/34 33/33/33 31/31/31
f 35/35/35 33/33/33 34/34/34
f 33/33/33 35/35/35 36/36/36
f 33/33/33 36/36/36 32/32/32
f 35/35/35 37/37/37 36/36/36
f 38/38/38 35/35/35 34/34/34
