g m_city_wall_grey_brick_02
v -0.2656915 -0.1685713 0.03750122
v -0.2656915 -0.1685713 -0.01250372
v -0.290689 -0.1432944 -0.01250372
v -0.290689 -0.1432944 0.03750122
v 0.2656928 -0.1685713 0.03750122
v 0.2656928 -0.1685713 -0.01250372
v 0.2906904 -0.1432944 0.03750122
v 0.2906904 -0.1432944 -0.01250372
v 0.2656928 -0.1685713 -0.01250372
v 0.2656928 -0.1685713 0.03750122
v 0.2906904 0.1432939 -0.01250372
v 0.2656928 0.1432939 -0.03750126
v 0.2656928 -0.1432944 -0.03750126
v 0.2906904 0.1432939 0.03750122
v 0.2656928 0.1685713 -0.01250372
v -0.290689 0.1432939 0.03750122
v -0.290689 0.1432939 -0.01250372
v -0.2656915 0.1685713 -0.01250372
v -0.2656915 0.1685713 0.03750122
v -0.290689 -0.1432944 -0.01250372
v -0.290689 -0.1432944 0.03750122
v 0.2656928 0.1685713 0.03750122
v 0.2656928 0.1685713 -0.01250372
v 0.2906904 0.1432939 -0.01250372
v 0.2906904 0.1432939 0.03750122
v -0.2656915 0.1685713 0.03750122
v -0.2656915 0.1685713 -0.01250372
v -0.2656915 0.1432939 -0.03750126
v 0.2656928 0.1432939 -0.03750126
v -0.290689 0.1432939 -0.01250372
v -0.290689 0.1432939 -0.01250372
v -0.290689 -0.1432944 -0.01250372
v -0.2656915 -0.1432944 -0.03750126
v -0.2656915 0.1432939 -0.03750126
v 0.2656928 -0.1432944 -0.03750126
v -0.2656915 -0.1685713 -0.01250372
v 0.2656928 -0.1685713 -0.01250372
v 0.2656928 0.1432939 -0.03750126
vt 0.4865723 0.2561035
vt 0.4836426 0.2634277
vt 0.4873047 0.2675781
vt 0.4934082 0.263916
vt 0.40625 0.2563477
vt 0.4089355 0.2631836
vt 0.3999023 0.2641602
vt 0.4052734 0.267334
vt 0.4089355 0.2631836
vt 0.40625 0.2563477
vt 0.4055176 0.3139648
vt 0.4099121 0.3129883
vt 0.409668 0.2685547
vt 0.3994141 0.317627
vt 0.4091797 0.3181152
vt 0.4929199 0.3173828
vt 0.4875488 0.314209
vt 0.4838867 0.3183594
vt 0.4865723 0.3251953
vt 0.4873047 0.2675781
vt 0.4934082 0.263916
vt 0.40625 0.3254395
vt 0.4091797 0.3181152
vt 0.4055176 0.3139648
vt 0.3994141 0.317627
vt 0.4865723 0.3251953
vt 0.4838867 0.3183594
vt 0.4831543 0.3129883
vt 0.4099121 0.3129883
vt 0.4875488 0.314209
vt 0.4875488 0.314209
vt 0.4873047 0.2675781
vt 0.4829102 0.2685547
vt 0.4831543 0.3129883
vt 0.409668 0.2685547
vt 0.4836426 0.2634277
vt 0.4089355 0.2631836
vt 0.4099121 0.3129883
vn 0 -1 0
vn 0 -1 0
vn -1 0 0
vn -1 0 0
vn 0 -1 0
vn 0 -1 0
vn 1 0 0
vn 1 0 0
vn 0 -1 0
vn 0 -1 0
vn 1 0 0
vn 0 0 -1
vn 0 0 -1
vn 1 0 0
vn 0 1 0
vn -1 0 0
vn -1 0 0
vn 0 1 0
vn 0 1 0
vn -1 0 0
vn -1 0 0
vn 0 1 0
vn 0 1 0
vn 1 0 0
vn 1 0 0
vn 0 1 0
vn 0 1 0
vn 0 0 -1
vn 0 0 -1
vn -1 0 0
vn -1 0 0
vn -1 0 0
vn 0 0 -1
vn 0 0 -1
vn 0 0 -1
vn 0 -1 0
vn 0 -1 0
vn 0 0 -1
g m_city_wall_grey_brick_02_0
f 3/3/3 2/2/2 1/1/1
f 4/4/4 3/3/3 1/1/1
f 5/5/5 1/1/1 2/2/2
f 6/6/6 5/5/5 2/2/2
f 9/9/9 8/8/8 7/7/7
f 10/10/10 9/9/9 7/7/7
f 8/8/8 11/11/11 7/7/7
f 11/11/11 8/8/8 12/12/12
f 8/8/8 13/13/13 12/12/12
f 13/13/13 8/8/8 9/9/9
f 11/11/11 14/14/14 7/7/7
f 15/15/15 11/11/11 12/12/12
f 18/18/18 17/17/17 16/16/16
f 19/19/19 18/18/18 16/16/16
f 16/16/16 17/17/17 20/20/20
f 21/21/21 16/16/16 20/20/20
f 24/24/24 23/23/23 22/22/22
f 25/25/25 24/24/24 22/22/22
f 22/22/22 23/23/23 26/26/26
f 23/23/23 27/27/27 26/26/26
f 27/27/27 23/23/23 28/28/28
f 23/23/23 29/29/29 28/28/28
f 27/27/27 28/28/28 30/30/30
f 33/33/33 32/32/32 31/31/31
f 34/34/34 33/33/33 31/31/31
f 35/35/35 33/33/33 34/34/34
f 33/33/33 35/35/35 36/36/36
f 33/33/33 36/36/36 32/32/32
f 35/35/35 37/37/37 36/36/36
f 38/38/38 35/35/35 34/34/34
