g m_city_floor_h1_01
v 8.350122 -1.107458E-17 -3.173509
v 14.77199 1.414866E-15 -3.173509
v 14.77199 1.414866E-15 0.189104
v 8.350122 -1.107458E-17 0.189104
v -6.37199 1.236346E-15 -12.1891
v 0.04987762 2.668949E-15 -12.1891
v 0.04987671 2.662287E-15 -8.826489
v -6.37199 1.236346E-15 -8.826489
v 8.350122 2.653461E-15 -12.1891
v 14.77199 4.079401E-15 -12.1891
v 14.77199 4.079401E-15 -8.826489
v 8.350122 2.653461E-15 -8.826489
v 0.04987671 1.107458E-17 0.189104
v 0.04987762 2.668949E-15 -12.1891
v 8.350122 2.653461E-15 -12.1891
v 8.350122 -1.107458E-17 0.189104
v -6.37199 -1.414866E-15 -3.173509
v 0.04987671 1.107458E-17 -3.173509
v 0.04987671 1.107458E-17 0.189104
v -6.37199 -1.414866E-15 0.189104
vt 0.6948242 0.3625488
vt 0.9223633 0.3625488
vt 0.9223633 0.1990967
vt 0.6948242 0.1990967
vt 0.07788086 0.8007813
vt 0.3051758 0.8007813
vt 0.3051758 0.637207
vt 0.07788086 0.637207
vt 0.6948242 0.8007813
vt 0.9223633 0.8007813
vt 0.9223633 0.637207
vt 0.6948242 0.637207
vt 0.3051758 0.1990967
vt 0.3051758 0.8007813
vt 0.6948242 0.8007813
vt 0.6948242 0.1990967
vt 0.07788086 0.3625488
vt 0.3051758 0.3625488
vt 0.3051758 0.1990967
vt 0.07788086 0.1990967
vn 0 1 0
vn 0 1 0
vn 0 1 0
vn 0 1 0
vn 0 1 0
vn 0 1 0
vn 0 1 0
vn 0 1 0
vn 0 1 0
vn 0 1 0
vn 0 1 0
vn 0 1 0
vn 0 1 0
vn 0 1 0
vn 0 1 0
vn 0 1 0
vn 0 1 0
vn 0 1 0
vn 0 1 0
vn 0 1 0
g m_city_floor_h1_01_0
f 3/3/3 2/2/2 1/1/1
f 4/4/4 3/3/3 1/1/1
f 7/7/7 6/6/6 5/5/5
f 8/8/8 7/7/7 5/5/5
f 11/11/11 10/10/10 9/9/9
f 12/12/12 11/11/11 9/9/9
f 15/15/15 14/14/14 13/13/13
f 16/16/16 15/15/15 13/13/13
f 19/19/19 18/18/18 17/17/17
f 20/20/20 19/19/19 17/17/17
