g m_city_wall_left_angle_03
v -0.1729196 -0.673784 0.08527893
v -0.1729196 -1 0.08138292
v -0.1729196 -1 -0.3870476
v -0.1729196 0.06567749 -0.3832899
v -0.1729196 0.07765297 0.08527893
v -0.1729196 0.09328613 -0.3854046
v -0.1729196 0.7925342 0.08527893
v -0.1729196 0.7925342 -0.3854046
v -0.1729196 0.09328613 -0.3854046
v -0.1729196 0.06567749 -0.3832899
v -0.1729196 0.09320976 -0.3918586
v -0.1729196 0.06202003 -0.4499997
v -0.1729196 0.07025589 -0.4437757
v -0.1729196 0.09320976 -0.3918586
v -0.1729196 0.06567749 -0.3832899
v -0.1729196 -1 -0.4499997
v -0.1729196 -1 -0.3870476
v -0.1727829 0.878641 0.1502399
v -0.1729196 0.8642253 0.1450004
v -0.1729196 0.8654824 -0.4450004
v -0.1729196 0.8794227 -0.4499998
v -0.1727829 0.9879434 0.1502399
v -0.1729196 0.9879434 -0.4499998
v -0.1729196 1 0.1379439
v -0.1729196 1 -0.4379433
v -0.1729196 0.7982867 -0.3952113
v -0.1729196 0.7994189 0.09556305
v -0.1729196 0.7925342 -0.3854046
v -0.1729196 0.7925342 0.08527893
v -0.08812954 -0.673784 0.170079
v -0.08812954 0.07765297 0.170079
v 0.3804398 0.06567749 0.1700792
v 0.3841947 -1 0.170079
v 0.3825541 0.09328613 0.170079
v -0.08812954 0.7925342 0.170079
v 0.3825541 0.7925342 0.170079
v -0.08423305 -1 0.170079
v 0.3825541 0.09328613 0.170079
v 0.3890091 0.09320976 0.1700793
v 0.3804398 0.06567749 0.1700792
v 0.4471488 -1 0.1700793
v 0.3841947 -1 0.170079
v 0.3804398 0.06567749 0.1700792
v 0.4471488 0.06202003 0.1700793
v 0.4471488 0.06202003 0.1700793
v 0.3804398 0.06567749 0.1700792
v 0.3890091 0.09320976 0.1700793
v 0.4409232 0.07025589 0.1700793
v -0.1530905 0.878641 0.1699208
v 0.4471488 0.8794227 0.1700791
v 0.4421488 0.8654824 0.1700791
v -0.1478512 0.8642253 0.1700791
v 0.4350931 1 0.1700791
v 0.4471488 0.9879434 0.1700791
v -0.1407956 1 0.1700791
v -0.1530905 0.9879434 0.1699208
v 0.3923587 0.7982867 0.1700791
v -0.09841274 0.7994189 0.1700791
v 0.3825541 0.7925342 0.170079
v -0.08812954 0.7925342 0.170079
v -0.1729196 1 0.1379439
v -0.1729196 1 -0.4379433
v 0.420679 1 -0.4380502
v -0.1563082 1 0.1384592
v 0.4326957 0.9879434 -0.4500697
v -0.1729196 0.9879434 -0.4499998
v -0.1727829 0.9879434 0.1502399
v 0.4432913 0.9879434 -0.4456652
v 0.4312747 1 -0.4336457
v -0.1457125 1 0.1428599
v -0.1577291 0.9879434 0.1548799
v -0.1729196 0.8642253 0.1450004
v -0.1727829 0.878641 0.1502399
v -0.1633444 0.8642253 0.1454945
v -0.1729196 0.7994189 0.09556305
v -0.1140573 0.7994189 0.09620613
v -0.1729196 0.7925342 0.08527893
v -0.1038034 0.7925342 0.08595316
v -0.1034567 0.7994189 0.1006075
v -0.09320766 0.7925342 0.09035465
v -0.1577291 0.878641 0.1548799
v -0.1577291 0.9879434 0.1548799
v -0.1727829 0.9879434 0.1502399
v -0.1527438 0.8642253 0.149895
v -0.1729196 0.7982867 -0.3952113
v -0.1729196 0.7925342 -0.3854046
v 0.3672709 0.7925342 -0.3851215
v 0.3770462 0.7982867 -0.3948982
v -0.1729196 0.8654824 -0.4450004
v 0.4277152 0.8654824 -0.4450856
v -0.1729196 0.8794227 -0.4499998
v 0.4326957 0.8794227 -0.4500697
v -0.1729196 0.9879434 -0.4499998
v 0.4326957 0.9879434 -0.4500697
v 0.438306 0.8654824 -0.4406811
v 0.4432913 0.8794227 -0.4456652
v 0.3876419 0.7982867 -0.3904938
v 0.4432913 0.9879434 -0.4456652
v 0.3778665 0.7925342 -0.3807171
v -0.1407956 1 0.1700791
v -0.1413082 1 0.1534579
v 0.435679 1 -0.4230515
v 0.4350931 1 0.1700791
v 0.4476956 0.9879434 -0.4350711
v 0.4471488 0.9879434 0.1700791
v -0.1530905 0.9879434 0.1699208
v 0.4312747 1 -0.4336457
v 0.4432913 0.9879434 -0.4456652
v -0.1457125 1 0.1428599
v -0.1577291 0.9879434 0.1548799
v -0.1478512 0.8642253 0.1700791
v -0.1483444 0.8642253 0.1604932
v -0.1530905 0.878641 0.1699208
v -0.09841274 0.7994189 0.1700791
v -0.09905727 0.7994189 0.1112048
v -0.08812954 0.7925342 0.170079
v -0.08880337 0.7925342 0.1009518
v -0.09320766 0.7925342 0.09035465
v -0.1034567 0.7994189 0.1006075
v -0.1527438 0.8642253 0.149895
v -0.1577291 0.878641 0.1548799
v -0.1530905 0.9879434 0.1699208
v -0.1577291 0.9879434 0.1548799
v 0.3923587 0.7982867 0.1700791
v 0.3920462 0.7982867 -0.3798995
v 0.3822708 0.7925342 -0.3701228
v 0.3825541 0.7925342 0.170079
v 0.4421488 0.8654824 0.1700791
v 0.4427103 0.8654824 -0.4300869
v 0.4471488 0.8794227 0.1700791
v 0.4476956 0.8794227 -0.4350711
v 0.4471488 0.9879434 0.1700791
v 0.4476956 0.9879434 -0.4350711
v 0.4432913 0.8794227 -0.4456652
v 0.438306 0.8654824 -0.4406811
v 0.3876419 0.7982867 -0.3904938
v 0.4432913 0.9879434 -0.4456652
v 0.3778665 0.7925342 -0.3807171
vt 0.007419586 0.06677246
vt 0.007419586 0.05819702
vt 0.01991272 0.05819702
vt 0.01982117 0.08630371
vt 0.007419586 0.08660889
vt 0.01986694 0.08703613
vt 0.007427216 0.1054688
vt 0.0198822 0.1054688
vt 0.2546387 0.1696777
vt 0.2546387 0.1656494
vt 0.2668457 0.1834717
vt 0.2666016 0.1728516
vt 0.2666016 0.1746826
vt 0.2668457 0.1834717
vt 0.2546387 0.1656494
vt 0.2687988 0.004112244
vt 0.2570801 0.004833221
vt 0.006023407 0.1100464
vt 0.006156921 0.1096802
vt 0.02175903 0.1097412
vt 0.02189636 0.1101074
vt 0.006023407 0.1129761
vt 0.02189636 0.1129761
vt 0.006343842 0.1132813
vt 0.02157593 0.1132813
vt 0.02030945 0.1080933
vt 0.007595062 0.1081543
vt 0.02018738 0.1077881
vt 0.007736206 0.1077881
vt 0.007419586 0.06677246
vt 0.007419586 0.08660889
vt 0.01982117 0.08630371
vt 0.01991272 0.05819702
vt 0.01986694 0.08703613
vt 0.007427216 0.1054688
vt 0.0198822 0.1054688
vt 0.007419586 0.05819702
vt 0.2546387 0.1696777
vt 0.2668457 0.1834717
vt 0.2546387 0.1656494
vt 0.2687988 0.004112244
vt 0.2570801 0.004833221
vt 0.2546387 0.1656494
vt 0.2666016 0.1728516
vt 0.2666016 0.1728516
vt 0.2546387 0.1656494
vt 0.2668457 0.1834717
vt 0.2666016 0.1746826
vt 0.006023407 0.1100464
vt 0.02189636 0.1101074
vt 0.02175903 0.1097412
vt 0.006156921 0.1096802
vt 0.02157593 0.1132813
vt 0.02189636 0.1129761
vt 0.006343842 0.1132813
vt 0.006023407 0.1129761
vt 0.02030945 0.1080933
vt 0.007595062 0.1081543
vt 0.02018738 0.1077881
vt 0.007736206 0.1077881
vt 0.3129883 0.4555664
vt 0.3129883 0.3688965
vt 0.4438477 0.3688965
vt 0.357666 0.4555664
vt 0.4458008 0.3652344
vt 0.3129883 0.3652344
vt 0.3342285 0.4592285
vt 0.447998 0.3652344
vt 0.4460449 0.3688965
vt 0.3598633 0.4555664
vt 0.3579102 0.4592285
vt 0.3129883 0.4777832
vt 0.3342285 0.4755859
vt 0.3564453 0.4777832
vt 0.3129883 0.4899902
vt 0.3640137 0.4899902
vt 0.3129883 0.4921875
vt 0.3654785 0.4921875
vt 0.3662109 0.4899902
vt 0.3676758 0.4921875
vt 0.3579102 0.4755859
vt 0.3579102 0.4592285
vt 0.3342285 0.4592285
vt 0.3586426 0.4777832
vt 0.3129883 0.3344727
vt 0.3129883 0.3322754
vt 0.4360352 0.3322754
vt 0.4375 0.3344727
vt 0.3129883 0.3466797
vt 0.4450684 0.3466797
vt 0.3129883 0.348877
vt 0.4458008 0.348877
vt 0.3129883 0.3652344
vt 0.4458008 0.3652344
vt 0.4472656 0.3466797
vt 0.447998 0.348877
vt 0.4396973 0.3344727
vt 0.447998 0.3652344
vt 0.4382324 0.3322754
vt 0.3129883 0.4555664
vt 0.357666 0.4555664
vt 0.4438477 0.3688965
vt 0.3129883 0.3688965
vt 0.4458008 0.3652344
vt 0.3129883 0.3652344
vt 0.3342285 0.4592285
vt 0.4460449 0.3688965
vt 0.447998 0.3652344
vt 0.3598633 0.4555664
vt 0.3579102 0.4592285
vt 0.3129883 0.4777832
vt 0.3564453 0.4777832
vt 0.3342285 0.4755859
vt 0.3129883 0.4899902
vt 0.3640137 0.4899902
vt 0.3129883 0.4921875
vt 0.3654785 0.4921875
vt 0.3676758 0.4921875
vt 0.3662109 0.4899902
vt 0.3586426 0.4777832
vt 0.3579102 0.4755859
vt 0.3342285 0.4592285
vt 0.3579102 0.4592285
vt 0.3129883 0.3344727
vt 0.4375 0.3344727
vt 0.4360352 0.3322754
vt 0.3129883 0.3322754
vt 0.3129883 0.3466797
vt 0.4450684 0.3466797
vt 0.3129883 0.348877
vt 0.4458008 0.348877
vt 0.3129883 0.3652344
vt 0.4458008 0.3652344
vt 0.447998 0.348877
vt 0.4472656 0.3466797
vt 0.4396973 0.3344727
vt 0.447998 0.3652344
vt 0.4382324 0.3322754
vn -1 4.793037E-07 0
vn -1 4.793037E-07 0
vn -1 4.793037E-07 0
vn -1 -4.708822E-05 0
vn -1 0 0
vn -1 0 0
vn -1 0 0
vn -1 0 0
vn -1 0.000136889 0
vn -1 0.000136889 0
vn -1 0.000136889 0
vn -1 0 0
vn -1 0 0
vn -1 0 0
vn -1 0 0
vn -1 0 0
vn -1 0 0
vn -0.9999878 0.004931801 0.0001231249
vn -0.9999878 0.004931801 0.0001231249
vn -0.9999878 0.004931801 0.0001231249
vn -0.9999878 0.004931801 0.0001231249
vn -0.9999999 -0.0005687164 0.0002168609
vn -0.9999999 -0.0005687164 0.0002168609
vn -0.9999999 -0.0005687164 0.0002168609
vn -0.9999999 -0.0005687164 0.0002168609
vn -0.9999999 0.0006028302 0
vn -0.9999999 0.0006028302 0
vn -0.9999999 0.0006028302 0
vn -0.9999999 0.0006028302 0
vn -1.714831E-07 0 1
vn -1.714831E-07 0 1
vn -1.714831E-07 0 1
vn -1.714831E-07 0 1
vn 0 0 1
vn 0 0 1
vn 0 0 1
vn 0 0 1
vn -3.356511E-05 8.236732E-06 1
vn -3.356511E-05 8.236732E-06 1
vn -3.356511E-05 8.236732E-06 1
vn -2.477955E-06 0 1
vn -2.477955E-06 0 1
vn -2.477955E-06 0 1
vn -2.477955E-06 0 1
vn -1.50628E-06 -2.060579E-06 1
vn -1.50628E-06 -2.060579E-06 1
vn -1.50628E-06 -2.060579E-06 1
vn -1.50628E-06 -2.060579E-06 1
vn -0.0001425466 0.005582311 0.9999844
vn -0.0001425466 0.005582311 0.9999844
vn -0.0001425466 0.005582311 0.9999844
vn -0.0001425466 0.005582311 0.9999844
vn -0.0002511142 -0.0006423229 0.9999998
vn -0.0002511142 -0.0006423229 0.9999998
vn -0.0002511142 -0.0006423229 0.9999998
vn -0.0002511142 -0.0006423229 0.9999998
vn 0 -1.20746E-05 1
vn 0 -1.20746E-05 1
vn 0 -1.20746E-05 1
vn 0 -1.20746E-05 1
vn 0 1 0
vn 0 1 0
vn 0 1 0
vn 0 1 0
vn 0 0 -1
vn 0 0 -1
vn -0.2884824 0.1018692 0.9520508
vn 0.7024533 0.1141212 -0.702521
vn 0 1 0
vn 0 1 0
vn -0.6981583 0.1568597 0.6985486
vn -0.01406431 -0.6031464 0.7975065
vn -0.2940597 -0.04098145 0.9549081
vn -0.07571901 -0.619814 0.7810872
vn -0.01162067 -0.6648951 0.7468463
vn -0.0914617 -0.7159531 0.6921314
vn -0.009799529 0 0.999952
vn -0.009799529 0 0.999952
vn -0.4489902 -0.7725127 0.4490344
vn -0.3032639 -0.9033517 0.303293
vn -0.7055353 -0.06230602 0.7059305
vn -0.6981583 0.1568597 0.6985486
vn -0.2884824 0.1018692 0.9520508
vn -0.5030345 -0.7027379 0.5031059
vn 0.0002000025 -0.5969074 -0.80231
vn 0 0 -1
vn 0 0 -1
vn 0.0002000025 -0.5969074 -0.80231
vn 0.0002000025 -0.5969074 -0.80231
vn 0.0002000025 -0.5969074 -0.80231
vn 0 0 -1
vn 0 0 -1
vn 0 0 -1
vn 0 0 -1
vn 0.515795 -0.6847131 -0.5149015
vn 0.7061336 -0.0517903 -0.7061821
vn 0.4677601 -0.7495537 -0.4683692
vn 0.7024533 0.1141212 -0.702521
vn 0.2716218 -0.9232754 -0.2716326
vn 0 1 0
vn 0 1 0
vn 0 1 0
vn 0 1 0
vn 1 0 0
vn 1 0 0
vn -0.9519971 0.1019984 0.2886137
vn 0 1 0
vn 0.7024533 0.1141212 -0.702521
vn 0 1 0
vn -0.6981583 0.1568597 0.6985486
vn -0.7975353 -0.6031083 0.01406144
vn -0.7811232 -0.6197732 0.0756827
vn -0.9548644 -0.04100601 0.294198
vn -0.7468538 -0.6648867 0.01162212
vn -0.6921321 -0.7159566 0.09142924
vn -0.999953 0 0.009699545
vn -0.999953 0 0.009699545
vn -0.3032639 -0.9033517 0.303293
vn -0.4489902 -0.7725127 0.4490344
vn -0.5030345 -0.7027379 0.5031059
vn -0.7055353 -0.06230602 0.7059305
vn -0.9519971 0.1019984 0.2886137
vn -0.6981583 0.1568597 0.6985486
vn 0.8009829 -0.5986872 0.0001999957
vn 0.8009829 -0.5986872 0.0001999957
vn 1 0 0
vn 1 0 0
vn 0.8009829 -0.5986872 0.0001999957
vn 0.8009829 -0.5986872 0.0001999957
vn 1 0 0
vn 1 0 0
vn 1 0 0
vn 1 0 0
vn 0.7061336 -0.0517903 -0.7061821
vn 0.515795 -0.6847131 -0.5149015
vn 0.4677601 -0.7495537 -0.4683692
vn 0.7024533 0.1141212 -0.702521
vn 0.2716218 -0.9232754 -0.2716326
g m_city_wall_left_angle_03_0
f 3/3/3 2/2/2 1/1/1
f 4/4/4 3/3/3 1/1/1
f 5/5/5 4/4/4 1/1/1
f 5/5/5 6/6/6 4/4/4
f 5/5/5 7/7/7 6/6/6
f 7/7/7 8/8/8 6/6/6
f 11/11/11 10/10/10 9/9/9
f 14/14/14 13/13/13 12/12/12
f 15/15/15 14/14/14 12/12/12
f 15/15/15 12/12/12 16/16/16
f 17/17/17 15/15/15 16/16/16
f 20/20/20 19/19/19 18/18/18
f 21/21/21 20/20/20 18/18/18
f 21/21/21 18/18/18 22/22/22
f 22/22/22 23/23/23 21/21/21
f 22/22/22 24/24/24 23/23/23
f 24/24/24 25/25/25 23/23/23
f 20/20/20 26/26/26 19/19/19
f 26/26/26 27/27/27 19/19/19
f 26/26/26 28/28/28 27/27/27
f 28/28/28 29/29/29 27/27/27
f 32/32/32 31/31/31 30/30/30
f 33/33/33 32/32/32 30/30/30
f 34/34/34 31/31/31 32/32/32
f 35/35/35 31/31/31 34/34/34
f 36/36/36 35/35/35 34/34/34
f 37/37/37 33/33/33 30/30/30
f 40/40/40 39/39/39 38/38/38
f 43/43/43 42/42/42 41/41/41
f 44/44/44 43/43/43 41/41/41
f 47/47/47 46/46/46 45/45/45
f 48/48/48 47/47/47 45/45/45
f 51/51/51 50/50/50 49/49/49
f 52/52/52 51/51/51 49/49/49
f 53/53/53 49/49/49 50/50/50
f 50/50/50 54/54/54 53/53/53
f 53/53/53 55/55/55 49/49/49
f 55/55/55 56/56/56 49/49/49
f 57/57/57 51/51/51 52/52/52
f 58/58/58 57/57/57 52/52/52
f 59/59/59 57/57/57 58/58/58
f 60/60/60 59/59/59 58/58/58
f 63/63/63 62/62/62 61/61/61
f 64/64/64 63/63/63 61/61/61
f 62/62/62 63/63/63 65/65/65
f 66/66/66 62/62/62 65/65/65
f 61/61/61 67/67/67 64/64/64
f 68/68/68 65/65/65 63/63/63
f 69/69/69 68/68/68 63/63/63
f 63/63/63 64/64/64 69/69/69
f 64/64/64 70/70/70 69/69/69
f 64/64/64 67/67/67 70/70/70
f 67/67/67 71/71/71 70/70/70
f 74/74/74 73/73/73 72/72/72
f 72/72/72 75/75/75 74/74/74
f 75/75/75 76/76/76 74/74/74
f 75/75/75 77/77/77 76/76/76
f 77/77/77 78/78/78 76/76/76
f 79/79/79 76/76/76 78/78/78
f 80/80/80 79/79/79 78/78/78
f 73/73/73 74/74/74 81/81/81
f 81/81/81 82/82/82 73/73/73
f 82/82/82 83/83/83 73/73/73
f 74/74/74 84/84/84 81/81/81
f 76/76/76 79/79/79 84/84/84
f 74/74/74 76/76/76 84/84/84
f 87/87/87 86/86/86 85/85/85
f 88/88/88 87/87/87 85/85/85
f 85/85/85 89/89/89 88/88/88
f 89/89/89 90/90/90 88/88/88
f 89/89/89 91/91/91 90/90/90
f 91/91/91 92/92/92 90/90/90
f 91/91/91 93/93/93 92/92/92
f 93/93/93 94/94/94 92/92/92
f 95/95/95 90/90/90 92/92/92
f 96/96/96 95/95/95 92/92/92
f 92/92/92 94/94/94 96/96/96
f 97/97/97 88/88/88 90/90/90
f 95/95/95 97/97/97 90/90/90
f 94/94/94 98/98/98 96/96/96
f 88/88/88 97/97/97 99/99/99
f 87/87/87 88/88/88 99/99/99
f 102/102/102 101/101/101 100/100/100
f 103/103/103 102/102/102 100/100/100
f 102/102/102 103/103/103 104/104/104
f 103/103/103 105/105/105 104/104/104
f 106/106/106 100/100/100 101/101/101
f 102/102/102 104/104/104 107/107/107
f 104/104/104 108/108/108 107/107/107
f 109/109/109 101/101/101 102/102/102
f 107/107/107 109/109/109 102/102/102
f 110/110/110 106/106/106 101/101/101
f 109/109/109 110/110/110 101/101/101
f 113/113/113 112/112/112 111/111/111
f 114/114/114 111/111/111 112/112/112
f 115/115/115 114/114/114 112/112/112
f 116/116/116 114/114/114 115/115/115
f 117/117/117 116/116/116 115/115/115
f 117/117/117 115/115/115 118/118/118
f 115/115/115 119/119/119 118/118/118
f 119/119/119 115/115/115 112/112/112
f 120/120/120 112/112/112 113/113/113
f 120/120/120 119/119/119 112/112/112
f 121/121/121 120/120/120 113/113/113
f 113/113/113 122/122/122 121/121/121
f 122/122/122 123/123/123 121/121/121
f 126/126/126 125/125/125 124/124/124
f 127/127/127 126/126/126 124/124/124
f 128/128/128 124/124/124 125/125/125
f 129/129/129 128/128/128 125/125/125
f 130/130/130 128/128/128 129/129/129
f 131/131/131 130/130/130 129/129/129
f 132/132/132 130/130/130 131/131/131
f 133/133/133 132/132/132 131/131/131
f 131/131/131 129/129/129 134/134/134
f 129/129/129 135/135/135 134/134/134
f 129/129/129 125/125/125 135/135/135
f 125/125/125 136/136/136 135/135/135
f 136/136/136 125/125/125 126/126/126
f 137/137/137 133/133/133 131/131/131
f 134/134/134 137/137/137 131/131/131
f 138/138/138 136/136/136 126/126/126
