g m_graveyard_rock_05
v -0.03583409 0.08602193 -0.3005722
v 0.02244777 0.08586843 -0.5591099
v 0.04629176 0.1047934 -0.5523167
v -0.01383519 0.1047934 -0.287634
v 0.3769363 0.1047934 -0.5058738
v 0.04878749 0.08593472 -0.577346
v 0.3756997 0.08724759 -0.5310007
v 0.4632193 0.1047934 -0.2018003
v 0.4008908 0.08624921 -0.5099839
v 0.4850485 0.08594533 -0.2129673
v 0.2361715 0.1047934 0.02371607
v 0.219711 0.08618527 0.04226099
v -0.02858311 0.08556577 -0.2687168
v 0.4768618 0.08591878 -0.1815146
v 0.2511978 0.0864687 0.04400904
v -0.02858311 0.08556577 -0.2687168
v -0.06589939 -0.1047934 -0.2721921
v -0.07314305 -0.1047934 -0.3034519
v -0.03583409 0.08602193 -0.3005722
v 0.2207809 -0.1047934 0.08703516
v 0.219711 0.08618527 0.04226099
v 0.2511978 0.0864687 0.04400904
v 0.2527658 -0.1047934 0.08890162
v 0.5142568 -0.1047934 -0.1725901
v 0.4768618 0.08591878 -0.1815146
v 0.4850485 0.08594533 -0.2129673
v 0.522333 -0.1047934 -0.2035874
v 0.4248843 -0.1047934 -0.5477476
v 0.4008908 0.08624921 -0.5099839
v 0.3756997 0.08724759 -0.5310007
v 0.4007803 -0.1047934 -0.5688719
v 0.04878749 0.08593472 -0.577346
v 0.02100124 -0.1047934 -0.622357
v 0.02244777 0.08586843 -0.5591099
v -0.005328718 -0.1047934 -0.604105
v -0.07314305 -0.1047934 -0.3034519
v -0.03583409 0.08602193 -0.3005722
v -0.2351737 0.03100682 -0.1463718
v -0.03852025 0.03088414 -0.1058664
v -0.05607517 0.04601445 -0.0789353
v -0.2447452 0.04601445 -0.1181199
v -0.02939549 0.04601445 0.2068728
v -0.02433568 0.03093709 -0.08617285
v 0.004154924 0.03198674 0.2159951
v -0.2993717 0.04601445 0.2216311
v -0.02029576 0.02631978 0.2368203
v -0.2837821 0.02609334 0.2499038
v -0.4624442 0.04601445 0.06344507
v -0.4891477 0.02963399 0.04971216
v -0.261984 0.02914914 -0.138685
v -0.3254721 0.02591672 0.2387441
v -0.4872031 0.02632527 0.08281885
v -0.261984 0.02914914 -0.138685
v -0.2599198 -0.1047934 -0.1664023
v -0.2335202 -0.1047934 -0.1746714
v -0.2351737 0.03100682 -0.1463718
v -0.5223325 -0.1047934 0.05112451
v -0.4891477 0.02963399 0.04971216
v -0.03852025 0.03088414 -0.1058664
v -0.00482823 -0.1047934 -0.12754
v 0.009366716 -0.1047934 -0.1078538
v -0.02433568 0.03093709 -0.08617285
v 0.03319545 -0.1047934 0.2344595
v 0.004154924 0.03198674 0.2159951
v 0.006671404 -0.1047934 0.2532607
v -0.02029576 0.02631978 0.2368203
v -0.2837821 0.02609334 0.2499038
v -0.2899118 -0.1047934 0.2763406
v -0.331265 -0.1047934 0.2651858
v -0.3254721 0.02591672 0.2387441
v -0.4872031 0.02632527 0.08281885
v -0.518787 -0.1047934 0.08451319
v -0.5223325 -0.1047934 0.05112451
v -0.4891477 0.02963399 0.04971216
v -0.06141087 0.0334142 0.5740188
v -0.1119547 0.03190564 0.4131472
v -0.08793187 0.05241811 0.4154568
v -0.03772252 0.05241811 0.5704458
v 0.1286721 0.05241811 0.391216
v -0.09046239 0.03185086 0.3916885
v 0.1313015 0.03185086 0.3673525
v 0.1137564 0.05241811 0.5704458
v 0.1174533 0.03326817 0.5939199
v -0.04025425 0.03185086 0.5942129
v 0.1527926 0.03190564 0.3888088
v 0.1374435 0.0334142 0.5740188
v -0.04025425 0.03185086 0.5942129
v -0.07013157 -0.1047934 0.6223574
v -0.09163487 -0.1047934 0.6009121
v -0.06141087 0.0334142 0.5740188
v 0.1461642 -0.1047934 0.6223574
v 0.1174533 0.03326817 0.5939199
v 0.1374435 0.0334142 0.5740188
v 0.1676669 -0.1047934 0.6009121
v 0.1826803 -0.1047934 0.3606545
v 0.1527926 0.03190564 0.3888088
v 0.1313015 0.03185086 0.3673525
v 0.1611789 -0.1047934 0.3392092
v -0.09046239 0.03185086 0.3916885
v -0.1203397 -0.1047934 0.3635451
v -0.1119547 0.03190564 0.4131472
v -0.141843 -0.1047934 0.3849929
v -0.1119547 0.03190564 0.4131472
v -0.141843 -0.1047934 0.3849929
vt 0.064981 0.861954
vt 0.080154 0.840142
vt 0.077401 0.838823
vt 0.062227 0.860521
vt 0.053024 0.817164
vt 0.07978 0.836883
vt 0.055139 0.815036
vt 0.025001 0.830179
vt 0.051842 0.814417
vt 0.023858 0.827374
vt 0.023207 0.861362
vt 0.022431 0.864287
vt 0.062039 0.863527
vt 0.021972 0.830101
vt 0.020208 0.861954
vt 0.505888 0.331036
vt 0.521089 0.319603
vt 0.519355 0.316978
vt 0.504083 0.328389
vt 0.543104 0.358917
vt 0.524896 0.365106
vt 0.525918 0.368024
vt 0.544171 0.361871
vt 0.550253 0.397613
vt 0.531219 0.39885
vt 0.531436 0.402028
vt 0.550469 0.400746
vt 0.549367 0.435796
vt 0.530454 0.432278
vt 0.529865 0.435442
vt 0.5489 0.438903
vt 0.521073 0.466596
vt 0.53854 0.475048
vt 0.519671 0.469406
vt 0.537132 0.477856
vt 0.519019 0.502042
vt 0.504083 0.490194
vt 0.843746 0.085542
vt 0.824225 0.090117
vt 0.826232 0.092968
vt 0.844623 0.088689
vt 0.824014 0.12109
vt 0.822811 0.092113
vt 0.820542 0.12228
vt 0.85043 0.122147
vt 0.822905 0.124556
vt 0.849131 0.125633
vt 0.865991 0.10639
vt 0.869039 0.105021
vt 0.846496 0.0862
vt 0.853297 0.1244
vt 0.869039 0.108383
vt 0.363605 0.470173
vt 0.376013 0.475265
vt 0.377228 0.47284
vt 0.364659 0.467643
vt 0.359096 0.504083
vt 0.348917 0.495101
vt 0.371652 0.449243
vt 0.385346 0.451436
vt 0.385758 0.449093
vt 0.372058 0.446898
vt 0.386502 0.41546
vt 0.372778 0.417151
vt 0.385821 0.412346
vt 0.372698 0.413955
vt 0.364659 0.389372
vt 0.376861 0.384592
vt 0.375301 0.380693
vt 0.363104 0.385437
vt 0.35295 0.365892
vt 0.363573 0.358018
vt 0.361645 0.355349
vt 0.350762 0.363465
vt 0.480723 0.534974
vt 0.497572 0.539497
vt 0.496899 0.536472
vt 0.48156 0.532072
vt 0.499033 0.515259
vt 0.499896 0.537292
vt 0.502042 0.514496
vt 0.481531 0.517192
vt 0.478636 0.516444
vt 0.478553 0.532753
vt 0.499736 0.51225
vt 0.480723 0.514301
vt 0.140131 0.548534
vt 0.146746 0.560859
vt 0.149382 0.559474
vt 0.14261 0.547086
vt 0.126376 0.566752
vt 0.12524 0.552695
vt 0.122482 0.552909
vt 0.123409 0.566997
vt 0.099947 0.564442
vt 0.104346 0.551158
vt 0.101526 0.550202
vt 0.097129 0.563481
vt 0.082897 0.538742
vt 0.073467 0.549073
vt 0.080683 0.53675
vt 0.07125 0.547086
vt 0.15619 0.537655
vt 0.166919 0.546637
vn -0.9440429 0.2816763 -0.1715851
vn -0.9240258 0.2733648 -0.267298
vn -0.06825401 0.9908048 -0.1168219
vn -0.09788727 0.9946344 0.03347563
vn 0.06704476 0.9948302 -0.07627518
vn 0.08598326 0.2895361 -0.9532973
vn 0.1715882 0.2961202 -0.9396118
vn 0.08872977 0.995773 0.02373083
vn 0.9171646 0.2585536 -0.3032474
vn 0.9386947 0.2610076 -0.2252274
vn -0.02404817 0.9919132 0.1246192
vn -0.7338164 0.2215267 0.6422144
vn -0.7757514 0.2320943 0.5868067
vn 0.709031 0.2591408 0.6558362
vn 0.6439936 0.250923 0.72271
vn -0.7757514 0.2320943 0.5868067
vn -0.794108 0.1449194 0.5902464
vn -0.9659601 0.1914736 -0.1739509
vn -0.9440429 0.2816763 -0.1715851
vn -0.7343733 0.1510204 0.6617316
vn -0.7338164 0.2215267 0.6422144
vn 0.6439936 0.250923 0.72271
vn 0.644723 0.1796626 0.7430031
vn 0.7281088 0.1738106 0.6630592
vn 0.709031 0.2591408 0.6558362
vn 0.9386947 0.2610076 -0.2252274
vn 0.9588239 0.1764879 -0.2225059
vn 0.9300029 0.1802571 -0.3203153
vn 0.9171646 0.2585536 -0.3032474
vn 0.1715882 0.2961202 -0.9396118
vn 0.1821776 0.2129139 -0.959937
vn 0.08598326 0.2895361 -0.9532973
vn 0.07513299 0.2187095 -0.9728932
vn -0.9240258 0.2733648 -0.267298
vn -0.9348026 0.2046876 -0.2902536
vn -0.9659601 0.1914736 -0.1739509
vn -0.9440429 0.2816763 -0.1715851
vn 0.1419322 0.344028 -0.9281703
vn 0.2473229 0.3159663 -0.9159676
vn 0.1091204 0.990701 -0.08126703
vn -0.04040904 0.9938459 -0.1031379
vn 0.09306275 0.9912137 0.09399386
vn 0.9268576 0.3597563 -0.1072866
vn 0.9379588 0.3464791 -0.01362433
vn -0.03670618 0.9942943 0.1001564
vn 0.1098657 0.2913953 0.9502728
vn 0.02358499 0.3328832 0.942673
vn -0.1524012 0.9880905 -0.02123468
vn -0.6647951 0.2603717 -0.7001815
vn -0.5930203 0.2766912 -0.7561539
vn -0.6109631 0.3259847 0.7214278
vn -0.7083361 0.3103776 0.6339761
vn -0.5930203 0.2766912 -0.7561539
vn -0.6032267 0.1527878 -0.7827985
vn 0.1459562 0.2034122 -0.968153
vn 0.1419322 0.344028 -0.9281703
vn -0.6956909 0.1640975 -0.699347
vn -0.6647951 0.2603717 -0.7001815
vn 0.2473229 0.3159663 -0.9159676
vn 0.2726628 0.217412 -0.9372231
vn 0.9658402 0.2312112 -0.1170218
vn 0.9268576 0.3597563 -0.1072866
vn 0.9723776 0.2334118 0.0008832411
vn 0.9379588 0.3464791 -0.01362433
vn 0.1313411 0.1764423 0.9755089
vn 0.1098657 0.2913953 0.9502728
vn 0.02358499 0.3328832 0.942673
vn 0.0198434 0.172201 0.984862
vn -0.6243843 0.1814007 0.7597619
vn -0.6109631 0.3259847 0.7214278
vn -0.7083361 0.3103776 0.6339761
vn -0.7429531 0.1876599 0.6424987
vn -0.6956909 0.1640975 -0.699347
vn -0.6647951 0.2603717 -0.7001815
vn -0.9019426 0.3056611 0.3050753
vn -0.9444267 0.2918412 0.1512848
vn -0.1170734 0.9887695 -0.0928903
vn -0.06672727 0.9932549 0.09482658
vn 0.09153534 0.9878103 -0.1259061
vn -0.149149 0.2984225 -0.9427081
vn -0.02452437 0.2921555 -0.9560564
vn 0.09194159 0.9917434 0.08939686
vn 0.0817866 0.293788 0.9523652
vn -0.08200283 0.2937753 0.9523505
vn 0.952517 0.3042596 -0.01171956
vn 0.9418344 0.3075829 0.135428
vn -0.08200283 0.2937753 0.9523505
vn -0.1097454 0.2228615 0.968653
vn -0.9209681 0.2207353 0.3210822
vn -0.9019426 0.3056611 0.3050753
vn 0.1095254 0.2222856 0.9688102
vn 0.0817866 0.293788 0.9523652
vn 0.9418344 0.3075829 0.135428
vn 0.9610412 0.2283076 0.1558055
vn 0.9717103 0.2329144 -0.03911443
vn 0.952517 0.3042596 -0.01171956
vn -0.02452437 0.2921555 -0.9560564
vn 0.00313761 0.2203257 -0.9754214
vn -0.149149 0.2984225 -0.9427081
vn -0.170232 0.2166949 -0.9612827
vn -0.9444267 0.2918412 0.1512848
vn -0.9657042 0.2335363 0.1134727
vn -0.9444267 0.2918412 0.1512848
vn -0.9657042 0.2335363 0.1134727
g m_graveyard_rock_05_0
f 3/3/3 2/2/2 1/1/1
f 4/4/4 3/3/3 1/1/1
f 5/5/5 3/3/3 4/4/4
f 3/3/3 5/5/5 6/6/6
f 3/3/3 6/6/6 2/2/2
f 5/5/5 7/7/7 6/6/6
f 5/5/5 4/4/4 8/8/8
f 5/5/5 8/8/8 9/9/9
f 7/7/7 5/5/5 9/9/9
f 8/8/8 10/10/10 9/9/9
f 8/8/8 4/4/4 11/11/11
f 12/12/12 11/11/11 4/4/4
f 13/13/13 12/12/12 4/4/4
f 13/13/13 4/4/4 1/1/1
f 14/14/14 8/8/8 11/11/11
f 8/8/8 14/14/14 10/10/10
f 15/15/15 14/14/14 11/11/11
f 11/11/11 12/12/12 15/15/15
f 18/18/18 17/17/17 16/16/16
f 19/19/19 18/18/18 16/16/16
f 17/17/17 20/20/20 16/16/16
f 20/20/20 21/21/21 16/16/16
f 21/21/21 20/20/20 22/22/22
f 20/20/20 23/23/23 22/22/22
f 23/23/23 24/24/24 22/22/22
f 24/24/24 25/25/25 22/22/22
f 25/25/25 24/24/24 26/26/26
f 24/24/24 27/27/27 26/26/26
f 27/27/27 28/28/28 26/26/26
f 28/28/28 29/29/29 26/26/26
f 29/29/29 28/28/28 30/30/30
f 28/28/28 31/31/31 30/30/30
f 30/30/30 31/31/31 32/32/32
f 31/31/31 33/33/33 32/32/32
f 32/32/32 33/33/33 34/34/34
f 33/33/33 35/35/35 34/34/34
f 35/35/35 36/36/36 34/34/34
f 36/36/36 37/37/37 34/34/34
f 40/40/40 39/39/39 38/38/38
f 41/41/41 40/40/40 38/38/38
f 42/42/42 40/40/40 41/41/41
f 40/40/40 42/42/42 43/43/43
f 40/40/40 43/43/43 39/39/39
f 42/42/42 44/44/44 43/43/43
f 42/42/42 41/41/41 45/45/45
f 42/42/42 45/45/45 46/46/46
f 44/44/44 42/42/42 46/46/46
f 45/45/45 47/47/47 46/46/46
f 45/45/45 41/41/41 48/48/48
f 49/49/49 48/48/48 41/41/41
f 50/50/50 49/49/49 41/41/41
f 50/50/50 41/41/41 38/38/38
f 51/51/51 45/45/45 48/48/48
f 45/45/45 51/51/51 47/47/47
f 52/52/52 51/51/51 48/48/48
f 48/48/48 49/49/49 52/52/52
f 55/55/55 54/54/54 53/53/53
f 56/56/56 55/55/55 53/53/53
f 54/54/54 57/57/57 53/53/53
f 57/57/57 58/58/58 53/53/53
f 55/55/55 56/56/56 59/59/59
f 60/60/60 55/55/55 59/59/59
f 61/61/61 60/60/60 59/59/59
f 62/62/62 61/61/61 59/59/59
f 63/63/63 61/61/61 62/62/62
f 64/64/64 63/63/63 62/62/62
f 65/65/65 63/63/63 64/64/64
f 66/66/66 65/65/65 64/64/64
f 65/65/65 66/66/66 67/67/67
f 68/68/68 65/65/65 67/67/67
f 69/69/69 68/68/68 67/67/67
f 70/70/70 69/69/69 67/67/67
f 69/69/69 70/70/70 71/71/71
f 72/72/72 69/69/69 71/71/71
f 73/73/73 72/72/72 71/71/71
f 74/74/74 73/73/73 71/71/71
f 77/77/77 76/76/76 75/75/75
f 78/78/78 77/77/77 75/75/75
f 79/79/79 77/77/77 78/78/78
f 77/77/77 79/79/79 80/80/80
f 77/77/77 80/80/80 76/76/76
f 79/79/79 81/81/81 80/80/80
f 82/82/82 79/79/79 78/78/78
f 83/83/83 82/82/82 78/78/78
f 84/84/84 83/83/83 78/78/78
f 84/84/84 78/78/78 75/75/75
f 85/85/85 79/79/79 82/82/82
f 79/79/79 85/85/85 81/81/81
f 86/86/86 85/85/85 82/82/82
f 83/83/83 86/86/86 82/82/82
f 89/89/89 88/88/88 87/87/87
f 90/90/90 89/89/89 87/87/87
f 88/88/88 91/91/91 87/87/87
f 91/91/91 92/92/92 87/87/87
f 92/92/92 91/91/91 93/93/93
f 91/91/91 94/94/94 93/93/93
f 94/94/94 95/95/95 93/93/93
f 95/95/95 96/96/96 93/93/93
f 96/96/96 95/95/95 97/97/97
f 95/95/95 98/98/98 97/97/97
f 97/97/97 98/98/98 99/99/99
f 98/98/98 100/100/100 99/99/99
f 99/99/99 100/100/100 101/101/101
f 100/100/100 102/102/102 101/101/101
f 89/89/89 90/90/90 103/103/103
f 104/104/104 89/89/89 103/103/103
