g m_grave_wall_01
v -0.0934 0.07048201 0.01029988
v -0.0934 0.106482 0.01029994
v -0.1020761 0.07048201 0.01029988
v -0.1020761 0.106482 0.01029994
v -0.1116033 0.106482 0.01029994
v -0.1116033 0.07048201 0.01029988
v -0.1220357 0.106482 0.01029994
v -0.1220357 0.07048201 0.01029988
v -0.1333318 0.106482 0.01029994
v -0.1333318 0.07048201 0.01029988
v -0.1442516 0.106482 0.01029994
v -0.1442516 0.07048201 0.01029988
v -0.1534 0.106482 0.01029994
v -0.1534 0.07048201 0.01029988
v -0.1618986 0.106482 0.01029994
v -0.1618986 0.07048201 0.01029988
v -0.1717251 0.106482 0.01029994
v -0.1717251 0.07048201 0.01029988
v -0.1819929 0.106482 0.01029994
v -0.1819929 0.07048201 0.01029988
v -0.1926464 0.106482 0.01029994
v -0.1926464 0.07048201 0.01029988
v -0.2027096 0.106482 0.01029994
v -0.2027096 0.07048201 0.01029988
v -0.2134 0.106482 0.01029994
v -0.2134 0.07048201 0.01029988
v -0.0934 0.04648199 0.01029983
v -0.0934 0.058482 0.01029985
v -0.1020761 0.04648199 0.01029983
v -0.1020761 0.058482 0.01029985
v -0.0934 0.07048201 0.01029988
v -0.1020761 0.07048201 0.01029988
v -0.1116033 0.058482 0.01029985
v -0.1116033 0.04648199 0.01029983
v -0.1220357 0.058482 0.01029985
v -0.1220357 0.04648199 0.01029983
v -0.1333318 0.058482 0.01029985
v -0.1333318 0.04648199 0.01029983
v -0.1442516 0.05848199 0.01029985
v -0.1442516 0.04648199 0.01029983
v -0.1534 0.058482 0.01029985
v -0.1534 0.04648199 0.01029983
v -0.1618986 0.058482 0.01029985
v -0.1618986 0.04648199 0.01029983
v -0.1618986 0.07048201 0.01029988
v -0.1534 0.07048201 0.01029988
v -0.1717251 0.058482 0.01029985
v -0.1717251 0.04648199 0.01029983
v -0.1819929 0.058482 0.01029985
v -0.1819929 0.04648199 0.01029983
v -0.1926464 0.058482 0.01029985
v -0.1926464 0.04648199 0.01029983
v -0.2027096 0.058482 0.01029985
v -0.2027096 0.04648199 0.01029983
v -0.2134 0.058482 0.01029985
v -0.2134 0.04648199 0.01029983
v -0.2134 0.07048201 0.01029988
v -0.2027096 0.07048201 0.01029988
v -0.1926464 0.07048201 0.01029988
v -0.1819929 0.07048201 0.01029988
v -0.1717251 0.07048201 0.01029988
v -0.0934 0.02249203 0.01029977
v -0.0934 0.03448701 0.0102998
v -0.1020761 0.02249203 0.01029977
v -0.1020761 0.03448701 0.0102998
v -0.0934 0.04648199 0.01029983
v -0.1020761 0.04648199 0.01029983
v -0.1116033 0.02249203 0.01029977
v -0.1116033 0.03448701 0.0102998
v -0.1220357 0.02249203 0.01029977
v -0.1220357 0.03448701 0.0102998
v -0.1333318 0.02249203 0.01029977
v -0.1333318 0.03448701 0.0102998
v -0.1442516 0.02249203 0.01029977
v -0.1442516 0.03448701 0.0102998
v -0.1534 0.02249203 0.01029977
v -0.1534 0.03448701 0.0102998
v -0.1618986 0.02249203 0.01029977
v -0.1618986 0.03448701 0.0102998
v -0.1618986 0.04648199 0.01029983
v -0.1534 0.04648199 0.01029983
v -0.1717251 0.02249203 0.01029977
v -0.1717251 0.03448701 0.0102998
v -0.1819929 0.02249203 0.01029977
v -0.1819929 0.03448701 0.0102998
v -0.1926464 0.02249203 0.01029977
v -0.1926464 0.03448701 0.0102998
v -0.2027096 0.02249203 0.01029977
v -0.2027096 0.03448701 0.0102998
v -0.2134 0.02249203 0.01029977
v -0.2134 0.03448701 0.0102998
v -0.2134 0.04648199 0.01029983
v -0.2027096 0.04648199 0.01029983
v -0.1926464 0.04648199 0.01029983
v -0.1819929 0.04648199 0.01029983
v -0.1717251 0.04648199 0.01029983
v -0.0934 0.106482 0.01029994
v -0.0934 0.154482 0.01030005
v -0.1020761 0.106482 0.01029994
v -0.1020761 0.154482 0.01030005
v -0.1116033 0.154482 0.01030005
v -0.1116033 0.106482 0.01029994
v -0.1220357 0.154482 0.01030005
v -0.1220357 0.106482 0.01029994
v -0.1333318 0.154482 0.01030005
v -0.1333318 0.106482 0.01029994
v -0.1442516 0.154482 0.01030005
v -0.1442516 0.106482 0.01029994
v -0.1534 0.154482 0.01030005
v -0.1534 0.106482 0.01029994
v -0.1618986 0.154482 0.01030005
v -0.1618986 0.106482 0.01029994
v -0.1717251 0.154482 0.01030005
v -0.1717251 0.106482 0.01029994
v -0.1819929 0.154482 0.01030005
v -0.1819929 0.106482 0.01029994
v -0.1926464 0.154482 0.01030005
v -0.1926464 0.106482 0.01029994
v -0.2027096 0.154482 0.01030005
v -0.2027096 0.106482 0.01029994
v -0.2134 0.154482 0.01030005
v -0.2134 0.106482 0.01029994
v -0.1442516 0.04648199 0.01029983
v -0.1333318 0.04648199 0.01029983
v -0.1220357 0.04648199 0.01029983
v -0.1116033 0.04648199 0.01029983
v -0.1442516 0.07048201 0.01029988
v -0.1333318 0.07048201 0.01029988
v -0.1220357 0.07048201 0.01029988
v -0.1116033 0.07048201 0.01029988
vt 0 0
vt 0 3
vt 0.7231445 0
vt 0.7231445 3
vt 1.516602 3
vt 1.516602 0
vt 2.386719 3
vt 2.386719 0
vt 3.328125 3
vt 3.328125 0
vt 4.238281 3
vt 4.238281 0
vt 5 3
vt 5 0
vt 5.707031 3
vt 5.707031 0
vt 6.527344 3
vt 6.527344 0
vt 7.382813 3
vt 7.382813 0
vt 8.273438 3
vt 8.273438 0
vt 9.109375 3
vt 9.109375 0
vt 10 3
vt 10 0
vt 0 0
vt 0 1
vt 0.7231445 0
vt 0.7231445 1
vt 0 2
vt 0.7231445 2
vt 1.516602 1
vt 1.516602 0
vt 2.386719 1
vt 2.386719 0
vt 3.328125 1
vt 3.328125 0
vt 4.238281 1
vt 4.238281 0
vt 5 1
vt 5 0
vt 5.707031 1
vt 5.707031 0
vt 5.707031 2
vt 5 2
vt 6.527344 1
vt 6.527344 0
vt 7.382813 1
vt 7.382813 0
vt 8.273438 1
vt 8.273438 0
vt 9.109375 1
vt 9.109375 0
vt 10 1
vt 10 0
vt 10 2
vt 9.109375 2
vt 8.273438 2
vt 7.382813 2
vt 6.527344 2
vt 0 0
vt 0 0.9995117
vt 0.7231445 0
vt 0.7231445 0.9995117
vt 0 1.999023
vt 0.7231445 1.999023
vt 1.516602 0
vt 1.516602 0.9995117
vt 2.386719 0
vt 2.386719 0.9995117
vt 3.328125 0
vt 3.328125 0.9995117
vt 4.238281 0
vt 4.238281 0.9995117
vt 5 0
vt 5 0.9995117
vt 5.707031 0
vt 5.707031 0.9995117
vt 5.707031 1.999023
vt 5 1.999023
vt 6.527344 0
vt 6.527344 0.9995117
vt 7.382813 0
vt 7.382813 0.9995117
vt 8.273438 0
vt 8.273438 0.9995117
vt 9.109375 0
vt 9.109375 0.9995117
vt 10 0
vt 10 0.9995117
vt 10 1.999023
vt 9.109375 1.999023
vt 8.273438 1.999023
vt 7.382813 1.999023
vt 6.527344 1.999023
vt 0 0
vt 0 4
vt 0.7231445 0
vt 0.7231445 4
vt 1.516602 4
vt 1.516602 0
vt 2.386719 4
vt 2.386719 0
vt 3.328125 4
vt 3.328125 0
vt 4.238281 4
vt 4.238281 0
vt 5 4
vt 5 0
vt 5.707031 4
vt 5.707031 0
vt 6.527344 4
vt 6.527344 0
vt 7.382813 4
vt 7.382813 0
vt 8.273438 4
vt 8.273438 0
vt 9.109375 4
vt 9.109375 0
vt 10 4
vt 10 0
vt 4.238281 1.999023
vt 3.328125 1.999023
vt 2.386719 1.999023
vt 1.516602 1.999023
vt 4.238281 2
vt 3.328125 2
vt 2.386719 2
vt 1.516602 2
vn 0 2.890825E-06 -1
vn 0 2.890825E-06 -1
vn 0 1.937151E-06 -1
vn 0 2.071971E-06 -1
vn 0 2.071971E-06 -1
vn 0 1.937151E-06 -1
vn 0 2.07197E-06 -1
vn 0 1.93715E-06 -1
vn 0 2.071971E-06 -1
vn 0 1.937151E-06 -1
vn 0 2.071971E-06 -1
vn 0 1.937151E-06 -1
vn 0 2.071972E-06 -1
vn 0 1.937152E-06 -1
vn 0 2.071972E-06 -1
vn 0 1.937151E-06 -1
vn 0 2.071974E-06 -1
vn 0 1.937151E-06 -1
vn 0 2.071972E-06 -1
vn 0 1.937151E-06 -1
vn 0 2.071971E-06 -1
vn 0 1.937154E-06 -1
vn 0 2.071971E-06 -1
vn 0 1.93715E-06 -1
vn 0 2.890825E-06 -1
vn 0 2.890825E-06 -1
vn 0 2.890825E-06 -1
vn 0 2.086159E-06 -1
vn 0 2.23564E-06 -1
vn 0 2.086161E-06 -1
vn 0 2.890825E-06 -1
vn 0 1.937151E-06 -1
vn 0 2.086161E-06 -1
vn 0 2.235641E-06 -1
vn 0 2.086161E-06 -1
vn 0 2.23564E-06 -1
vn 0 2.086161E-06 -1
vn 0 2.235641E-06 -1
vn 0 2.086161E-06 -1
vn 0 2.235642E-06 -1
vn 0 2.086159E-06 -1
vn 0 2.23564E-06 -1
vn 0 2.08616E-06 -1
vn 0 2.235639E-06 -1
vn 0 1.937151E-06 -1
vn 0 1.937152E-06 -1
vn 0 2.086161E-06 -1
vn 0 2.235642E-06 -1
vn 0 2.08616E-06 -1
vn 0 2.235641E-06 -1
vn 0 2.086162E-06 -1
vn 0 2.235642E-06 -1
vn 0 2.086159E-06 -1
vn 0 2.23564E-06 -1
vn 0 2.08616E-06 -1
vn 0 2.890825E-06 -1
vn 0 2.890825E-06 -1
vn 0 1.93715E-06 -1
vn 0 1.937154E-06 -1
vn 0 1.937151E-06 -1
vn 0 1.937151E-06 -1
vn 0 2.890825E-06 -1
vn 0 2.365375E-06 -1
vn 0 2.456082E-06 -1
vn 0 2.370291E-06 -1
vn 0 2.890825E-06 -1
vn 0 2.23564E-06 -1
vn 0 2.412348E-06 -1
vn 0 2.335492E-06 -1
vn 0 2.385183E-06 -1
vn 0 2.335492E-06 -1
vn 0 2.385184E-06 -1
vn 0 2.335493E-06 -1
vn 0 2.385185E-06 -1
vn 0 2.335492E-06 -1
vn 0 2.385183E-06 -1
vn 0 2.335491E-06 -1
vn 0 2.385185E-06 -1
vn 0 2.335494E-06 -1
vn 0 2.235639E-06 -1
vn 0 2.23564E-06 -1
vn 0 2.385185E-06 -1
vn 0 2.335493E-06 -1
vn 0 2.385182E-06 -1
vn 0 2.335493E-06 -1
vn 0 2.385185E-06 -1
vn 0 2.335496E-06 -1
vn 0 2.385183E-06 -1
vn 0 2.335491E-06 -1
vn 0 2.890825E-06 -1
vn 0 2.335496E-06 -1
vn 0 2.890825E-06 -1
vn 0 2.23564E-06 -1
vn 0 2.235642E-06 -1
vn 0 2.235641E-06 -1
vn 0 2.235642E-06 -1
vn 0 2.890825E-06 -1
vn 0 2.890825E-06 -1
vn 0 2.071971E-06 -1
vn 0 2.185503E-06 -1
vn 0 2.185505E-06 -1
vn 0 2.071971E-06 -1
vn 0 2.185505E-06 -1
vn 0 2.07197E-06 -1
vn 0 2.185506E-06 -1
vn 0 2.071971E-06 -1
vn 0 2.185505E-06 -1
vn 0 2.071971E-06 -1
vn 0 2.185503E-06 -1
vn 0 2.071972E-06 -1
vn 0 2.1855E-06 -1
vn 0 2.071972E-06 -1
vn 0 2.1855E-06 -1
vn 0 2.071974E-06 -1
vn 0 2.185499E-06 -1
vn 0 2.071972E-06 -1
vn 0 2.185501E-06 -1
vn 0 2.071971E-06 -1
vn 0 2.185504E-06 -1
vn 0 2.071971E-06 -1
vn 0 2.890825E-06 -1
vn 0 2.890825E-06 -1
vn 0 2.235642E-06 -1
vn 0 2.235641E-06 -1
vn 0 2.23564E-06 -1
vn 0 2.235641E-06 -1
vn 0 1.937151E-06 -1
vn 0 1.937151E-06 -1
vn 0 1.93715E-06 -1
vn 0 1.937151E-06 -1
g m_grave_wall_01_0
f 3/3/3 2/2/2 1/1/1
f 3/3/3 4/4/4 2/2/2
f 3/3/3 5/5/5 4/4/4
f 3/3/3 6/6/6 5/5/5
f 6/6/6 7/7/7 5/5/5
f 6/6/6 8/8/8 7/7/7
f 8/8/8 9/9/9 7/7/7
f 8/8/8 10/10/10 9/9/9
f 10/10/10 11/11/11 9/9/9
f 10/10/10 12/12/12 11/11/11
f 12/12/12 13/13/13 11/11/11
f 12/12/12 14/14/14 13/13/13
f 14/14/14 15/15/15 13/13/13
f 14/14/14 16/16/16 15/15/15
f 16/16/16 17/17/17 15/15/15
f 16/16/16 18/18/18 17/17/17
f 18/18/18 19/19/19 17/17/17
f 18/18/18 20/20/20 19/19/19
f 20/20/20 21/21/21 19/19/19
f 20/20/20 22/22/22 21/21/21
f 22/22/22 23/23/23 21/21/21
f 22/22/22 24/24/24 23/23/23
f 24/24/24 25/25/25 23/23/23
f 24/24/24 26/26/26 25/25/25
f 29/29/29 28/28/28 27/27/27
f 29/29/29 30/30/30 28/28/28
f 30/30/30 31/31/31 28/28/28
f 30/30/30 32/32/32 31/31/31
f 29/29/29 33/33/33 30/30/30
f 29/29/29 34/34/34 33/33/33
f 34/34/34 35/35/35 33/33/33
f 34/34/34 36/36/36 35/35/35
f 36/36/36 37/37/37 35/35/35
f 36/36/36 38/38/38 37/37/37
f 38/38/38 39/39/39 37/37/37
f 38/38/38 40/40/40 39/39/39
f 40/40/40 41/41/41 39/39/39
f 40/40/40 42/42/42 41/41/41
f 42/42/42 43/43/43 41/41/41
f 42/42/42 44/44/44 43/43/43
f 41/41/41 43/43/43 45/45/45
f 41/41/41 45/45/45 46/46/46
f 39/39/39 41/41/41 46/46/46
f 44/44/44 47/47/47 43/43/43
f 44/44/44 48/48/48 47/47/47
f 48/48/48 49/49/49 47/47/47
f 48/48/48 50/50/50 49/49/49
f 50/50/50 51/51/51 49/49/49
f 50/50/50 52/52/52 51/51/51
f 52/52/52 53/53/53 51/51/51
f 52/52/52 54/54/54 53/53/53
f 54/54/54 55/55/55 53/53/53
f 54/54/54 56/56/56 55/55/55
f 53/53/53 55/55/55 57/57/57
f 53/53/53 57/57/57 58/58/58
f 51/51/51 53/53/53 58/58/58
f 51/51/51 58/58/58 59/59/59
f 49/49/49 51/51/51 59/59/59
f 49/49/49 59/59/59 60/60/60
f 47/47/47 49/49/49 60/60/60
f 47/47/47 60/60/60 61/61/61
f 43/43/43 47/47/47 61/61/61
f 43/43/43 61/61/61 45/45/45
f 64/64/64 63/63/63 62/62/62
f 64/64/64 65/65/65 63/63/63
f 65/65/65 66/66/66 63/63/63
f 65/65/65 67/67/67 66/66/66
f 68/68/68 65/65/65 64/64/64
f 68/68/68 69/69/69 65/65/65
f 70/70/70 69/69/69 68/68/68
f 70/70/70 71/71/71 69/69/69
f 72/72/72 71/71/71 70/70/70
f 72/72/72 73/73/73 71/71/71
f 74/74/74 73/73/73 72/72/72
f 74/74/74 75/75/75 73/73/73
f 76/76/76 75/75/75 74/74/74
f 76/76/76 77/77/77 75/75/75
f 78/78/78 77/77/77 76/76/76
f 78/78/78 79/79/79 77/77/77
f 77/77/77 79/79/79 80/80/80
f 77/77/77 80/80/80 81/81/81
f 75/75/75 77/77/77 81/81/81
f 82/82/82 79/79/79 78/78/78
f 82/82/82 83/83/83 79/79/79
f 84/84/84 83/83/83 82/82/82
f 84/84/84 85/85/85 83/83/83
f 86/86/86 85/85/85 84/84/84
f 86/86/86 87/87/87 85/85/85
f 88/88/88 87/87/87 86/86/86
f 88/88/88 89/89/89 87/87/87
f 90/90/90 89/89/89 88/88/88
f 90/90/90 91/91/91 89/89/89
f 89/89/89 91/91/91 92/92/92
f 89/89/89 92/92/92 93/93/93
f 87/87/87 89/89/89 93/93/93
f 87/87/87 93/93/93 94/94/94
f 85/85/85 87/87/87 94/94/94
f 85/85/85 94/94/94 95/95/95
f 83/83/83 85/85/85 95/95/95
f 83/83/83 95/95/95 96/96/96
f 79/79/79 83/83/83 96/96/96
f 79/79/79 96/96/96 80/80/80
f 99/99/99 98/98/98 97/97/97
f 99/99/99 100/100/100 98/98/98
f 99/99/99 101/101/101 100/100/100
f 99/99/99 102/102/102 101/101/101
f 102/102/102 103/103/103 101/101/101
f 102/102/102 104/104/104 103/103/103
f 104/104/104 105/105/105 103/103/103
f 104/104/104 106/106/106 105/105/105
f 106/106/106 107/107/107 105/105/105
f 106/106/106 108/108/108 107/107/107
f 108/108/108 109/109/109 107/107/107
f 108/108/108 110/110/110 109/109/109
f 110/110/110 111/111/111 109/109/109
f 110/110/110 112/112/112 111/111/111
f 112/112/112 113/113/113 111/111/111
f 112/112/112 114/114/114 113/113/113
f 114/114/114 115/115/115 113/113/113
f 114/114/114 116/116/116 115/115/115
f 116/116/116 117/117/117 115/115/115
f 116/116/116 118/118/118 117/117/117
f 118/118/118 119/119/119 117/117/117
f 118/118/118 120/120/120 119/119/119
f 120/120/120 121/121/121 119/119/119
f 120/120/120 122/122/122 121/121/121
f 75/75/75 81/81/81 123/123/123
f 73/73/73 75/75/75 123/123/123
f 73/73/73 123/123/123 124/124/124
f 71/71/71 73/73/73 124/124/124
f 71/71/71 124/124/124 125/125/125
f 69/69/69 71/71/71 125/125/125
f 69/69/69 125/125/125 126/126/126
f 65/65/65 69/69/69 126/126/126
f 65/65/65 126/126/126 67/67/67
f 39/39/39 46/46/46 127/127/127
f 37/37/37 39/39/39 127/127/127
f 37/37/37 127/127/127 128/128/128
f 35/35/35 37/37/37 128/128/128
f 35/35/35 128/128/128 129/129/129
f 33/33/33 35/35/35 129/129/129
f 33/33/33 129/129/129 130/130/130
f 30/30/30 33/33/33 130/130/130
f 30/30/30 130/130/130 32/32/32
