g m_grave_gravestone_detail_02
v 0.03728016 0.1932894 0.2417805
v 0.03713303 0.1275135 -0.2819793
v 0.05776857 0.1014543 -0.2730095
v 0.05776857 0.1658446 0.2394221
v -0.04090246 0.2161673 0.2659407
v -0.04090246 0.143651 -0.3111589
v 0.03728016 0.1932894 0.2417805
v 0.03841791 0.1722736 0.2672493
v -0.04090246 0.2161673 0.2659407
v -0.04199618 0.1958841 0.2931477
v 0.05776857 0.1658446 0.2394221
v 0.04480392 -0.1107405 0.274178
v 0.02526672 -0.1082916 0.3025032
v 0.03841791 0.1722736 0.2672493
v -0.05667484 -0.1172677 0.3324983
v 0.02190376 -0.1347479 0.2829963
v -0.05776856 -0.1436514 0.3111555
v -0.04199618 0.1958841 0.2931477
v 0.04480392 -0.1107405 0.274178
v 0.04479683 -0.1753012 -0.2383904
v 0.02175386 -0.2005835 -0.2407537
v 0.02190376 -0.1347479 0.2829963
v 0.05776857 0.1658446 0.2394221
v 0.05776857 0.1014543 -0.2730095
v 0.03841791 0.1007994 -0.3015593
v 0.02526672 -0.1797661 -0.2663103
v 0.03713303 0.1275135 -0.2819793
v 0.03713303 0.1275135 -0.2819793
v -0.04090246 0.143651 -0.3111589
v -0.04199618 0.1172681 -0.3324968
v 0.03841791 0.1007994 -0.3015593
v -0.05667484 -0.1958841 -0.2931463
v 0.02526672 -0.1797661 -0.2663103
v 0.02526672 -0.1797661 -0.2663103
v -0.05667484 -0.1958841 -0.2931463
v -0.05776856 -0.2161676 -0.2659441
v 0.02175386 -0.2005835 -0.2407537
v 0.04479683 -0.1753012 -0.2383904
v 0.02190376 -0.1347479 0.2829963
v 0.02175386 -0.2005835 -0.2407537
v -0.05776856 -0.2161676 -0.2659441
v -0.05776856 -0.1436514 0.3111555
vt 0.08886719 0.4958496
vt 0.02442932 0.4958496
vt 0.02519226 0.5
vt 0.08807373 0.5
vt 0.09222412 0.486084
vt 0.02111816 0.486084
vt 0.09063721 0.496582
vt 0.09222412 0.5004883
vt 0.1008301 0.4934082
vt 0.102478 0.4973145
vt 0.08807373 0.5
vt 0.08776855 0.5341797
vt 0.09197998 0.5341797
vt 0.09222412 0.5004883
vt 0.1020508 0.5371094
vt 0.09033203 0.5375977
vt 0.1002197 0.5410156
vt 0.102478 0.4973145
vt 0.08776855 0.5341797
vt 0.02452087 0.5341797
vt 0.02391052 0.5385742
vt 0.08843994 0.5385742
vt 0.08807373 0.5
vt 0.02519226 0.5
vt 0.02102661 0.5
vt 0.02033997 0.5341797
vt 0.02275085 0.4963379
vt 0.02275085 0.4963379
vt 0.01291656 0.4929199
vt 0.0110321 0.4968262
vt 0.02102661 0.5
vt 0.01000214 0.5366211
vt 0.02033997 0.5341797
vt 0.02033997 0.5341797
vt 0.01000214 0.5366211
vt 0.01163483 0.5405273
vt 0.0218811 0.5375977
vt 0.02452087 0.5341797
vt 0.08843994 0.5385742
vt 0.02391052 0.5385742
vt 0.02064514 0.5483398
vt 0.09173584 0.5483398
vn 0.3906522 0.9165334 -0.08577638
vn 0.3907478 0.9092212 -0.1436412
vn 0.9989183 -0.04613819 0.005797531
vn 0.9989183 -0.04613819 0.005797531
vn 0.261182 0.9629141 -0.06767873
vn 0.2612489 0.9496955 -0.1727061
vn 0.3906522 0.9165334 -0.08577638
vn 0.4748071 0.1412868 0.8686751
vn 0.261182 0.9629141 -0.06767873
vn 0.3471241 0.1725147 0.9218153
vn 0.9989183 -0.04613819 0.005797531
vn 0.9989183 -0.04613819 0.005797531
vn 0.469797 0.03443113 0.8821028
vn 0.4748071 0.1412868 0.8686751
vn 0.3404049 0.02918489 0.939826
vn 0.3031262 -0.9414326 0.147713
vn 0.170595 -0.9696475 0.1751598
vn 0.3471241 0.1725147 0.9218153
vn 0.9989183 -0.04613819 0.005797531
vn 0.9989183 -0.04613819 0.005797531
vn 0.3034859 -0.9485913 0.08983894
vn 0.3031262 -0.9414326 0.147713
vn 0.9989183 -0.04613819 0.005797531
vn 0.9989183 -0.04613819 0.005797531
vn 0.4745042 -0.0778971 -0.8767998
vn 0.4697011 -0.1848923 -0.8632472
vn 0.3907478 0.9092212 -0.1436412
vn 0.3907478 0.9092212 -0.1436412
vn 0.2612489 0.9496955 -0.1727061
vn 0.3472138 -0.06073325 -0.9358172
vn 0.4745042 -0.0778971 -0.8767998
vn 0.3404788 -0.2044143 -0.917763
vn 0.4697011 -0.1848923 -0.8632472
vn 0.4697011 -0.1848923 -0.8632472
vn 0.3404788 -0.2044143 -0.917763
vn 0.170664 -0.9828306 0.07012691
vn 0.3034859 -0.9485913 0.08983894
vn 0.9989183 -0.04613819 0.005797531
vn 0.3031262 -0.9414326 0.147713
vn 0.3034859 -0.9485913 0.08983894
vn 0.170664 -0.9828306 0.07012691
vn 0.170595 -0.9696475 0.1751598
g m_grave_gravestone_detail_02_0
f 3/3/3 2/2/2 1/1/1
f 4/4/4 3/3/3 1/1/1
f 5/5/5 1/1/1 2/2/2
f 6/6/6 5/5/5 2/2/2
f 8/8/8 4/4/4 7/7/7
f 7/7/7 9/9/9 8/8/8
f 9/9/9 10/10/10 8/8/8
f 13/13/13 12/12/12 11/11/11
f 14/14/14 13/13/13 11/11/11
f 15/15/15 13/13/13 14/14/14
f 13/13/13 15/15/15 16/16/16
f 13/13/13 16/16/16 12/12/12
f 15/15/15 17/17/17 16/16/16
f 18/18/18 15/15/15 14/14/14
f 21/21/21 20/20/20 19/19/19
f 22/22/22 21/21/21 19/19/19
f 19/19/19 20/20/20 23/23/23
f 20/20/20 24/24/24 23/23/23
f 24/24/24 20/20/20 25/25/25
f 20/20/20 26/26/26 25/25/25
f 24/24/24 25/25/25 27/27/27
f 30/30/30 29/29/29 28/28/28
f 31/31/31 30/30/30 28/28/28
f 32/32/32 30/30/30 31/31/31
f 33/33/33 32/32/32 31/31/31
f 36/36/36 35/35/35 34/34/34
f 37/37/37 36/36/36 34/34/34
f 38/38/38 37/37/37 34/34/34
f 41/41/41 40/40/40 39/39/39
f 42/42/42 41/41/41 39/39/39
