g m_ingredients_bun_base_01
v 0.10375 -0.00831409 -0.2526037
v -0.004326172 -0.00831409 -0.2632788
v -0.1124011 -0.00831409 -0.2526037
v 0.189364 -0.00831409 -0.1970966
v -0.1980151 -0.00831409 -0.1970966
v 0.2440649 -0.00831409 -0.1120288
v -0.2527173 -0.00831409 -0.1120294
v -0.2611291 -0.00831409 -0.003236694
v 0.2524768 -0.00831409 -0.003236694
v 0.2440649 -0.00831409 0.1055554
v -0.2527173 -0.00831409 0.1055554
v 0.189364 -0.00831409 0.1906226
v -0.1980164 -0.00831409 0.1906226
v 0.1037488 -0.00831409 0.2461304
v -0.1124011 -0.00831409 0.2461304
v -0.004326172 -0.00831409 0.2568048
v 0.2130444 0.01286051 -0.2206073
v 0.2771741 0.01286051 -0.1208771
v 0.2862707 0.01286051 -0.003236694
v 0.2771741 0.01286051 0.1144031
v 0.2130444 0.01286051 0.2141333
v 0.1133142 0.01286051 0.2787933
v -0.004326172 0.01286051 0.2904132
v -0.1219665 0.01286051 0.2787933
v -0.2216968 0.01286051 0.2141333
v -0.2858264 0.01286051 0.1144031
v -0.2949219 0.01286051 -0.003236694
v -0.2858264 0.01286051 -0.1208771
v -0.2216968 0.01286051 -0.2206073
v -0.1219665 0.01286051 -0.2852673
v -0.004326172 0.01286051 -0.2968866
v 0.1133142 0.01286051 -0.2852673
v 0.2771741 0.01286051 -0.1208771
v 0.2862707 0.01286051 -0.003236694
v 0.302904 0.04629089 -0.003236694
v 0.2940356 0.04629089 -0.1276111
v 0.2130444 0.01286051 -0.2206073
v 0.2254883 0.04629089 -0.2330505
v 0.1133142 0.01286051 -0.2852673
v 0.1200488 0.04629089 -0.3020111
v -0.004326172 0.01286051 -0.2968866
v -0.004326172 0.04629089 -0.3136969
v 0.3042383 0.07256921 -0.003236694
v 0.2953784 0.07249343 -0.1281476
v 0.2264807 0.07251846 -0.2340442
v 0.1205847 0.07249599 -0.3033472
v -0.004326172 0.07255761 -0.3150427
v 0.2943115 0.08057192 -0.003236694
v 0.285741 0.08053116 -0.1247803
v 0.2192627 0.08054523 -0.226842
v 0.1171155 0.08053301 -0.2937396
v -0.004326172 0.08056641 -0.3050806
v -0.004326172 0.04629089 -0.3136969
v -0.1286999 0.04629089 -0.3020111
v -0.1219665 0.01286051 -0.2852673
v -0.004326172 0.01286051 -0.2968866
v -0.2216968 0.01286051 -0.2206073
v -0.2341406 0.04629089 -0.2330511
v -0.2858264 0.01286051 -0.1208771
v -0.3026868 0.04629089 -0.1276111
v -0.2949219 0.01286051 -0.003236694
v -0.3115576 0.04629089 -0.003237305
v -0.004326172 0.07255761 -0.3150427
v -0.1292371 0.07249588 -0.3033472
v -0.2351331 0.07251737 -0.2340442
v -0.304032 0.07249312 -0.1281476
v -0.3128906 0.07256921 -0.003237305
v -0.004326172 0.08056641 -0.3050806
v -0.1257715 0.08053297 -0.2937506
v -0.227915 0.08054491 -0.226842
v -0.2943811 0.08053105 -0.1247766
v -0.3029651 0.08057192 -0.003237305
v -0.3115576 0.04629089 -0.003237305
v -0.3026868 0.04629089 0.1211371
v -0.2858264 0.01286051 0.1144031
v -0.2949219 0.01286051 -0.003236694
v -0.2216968 0.01286051 0.2141333
v -0.2341406 0.04629089 0.2265765
v -0.1219665 0.01286051 0.2787933
v -0.1286999 0.04629089 0.2955371
v -0.004326172 0.01286051 0.2904132
v -0.004326172 0.04629089 0.3072229
v -0.3128906 0.07256921 -0.003237305
v -0.304032 0.07249312 0.1216736
v -0.2351331 0.07251795 0.2275696
v -0.1292371 0.07249588 0.2968732
v -0.004326172 0.07255761 0.3085687
v -0.3029651 0.08057192 -0.003237305
v -0.2943933 0.08053106 0.1183069
v -0.227915 0.08054502 0.2203674
v -0.1257666 0.08053293 0.2872656
v -0.004326172 0.08056641 0.2986066
v -0.004326172 0.04629089 0.3072229
v 0.1200488 0.04629089 0.2955371
v 0.1133142 0.01286051 0.2787933
v -0.004326172 0.01286051 0.2904132
v 0.2130444 0.01286051 0.2141333
v 0.2254871 0.04629089 0.2265765
v 0.2771741 0.01286051 0.1144031
v 0.2940344 0.04629089 0.1211371
v 0.2862707 0.01286051 -0.003236694
v 0.302904 0.04629089 -0.003236694
v -0.004326172 0.07255761 0.3085687
v 0.1205847 0.07249597 0.2968732
v 0.2264807 0.0725172 0.2275702
v 0.2953784 0.07249312 0.1216736
v 0.3042383 0.07256921 -0.003236694
v -0.004326172 0.08056641 0.2986066
v 0.1171191 0.08053299 0.2872766
v 0.2192627 0.08054483 0.220368
v 0.2857263 0.08053105 0.1183026
v 0.2943115 0.08057192 -0.003236694
v -0.1205811 0.08763164 0.271651
v -0.2164099 0.08763168 0.2088983
v -0.004324951 0.08763168 -0.003236694
v -0.2786706 0.08763164 0.1133649
v -0.2868884 0.08763164 -0.003237305
v -0.278623 0.08763164 -0.119823
v -0.2164087 0.08763168 -0.2153723
v -0.1205945 0.08763164 -0.2781616
v -0.004326172 0.08763164 -0.2890051
v 0.1119287 0.08763168 -0.2781256
v 0.2077563 0.08763168 -0.2153729
v -0.004326172 0.08763164 0.2825311
v 0.1119421 0.08763164 0.2716876
v 0.2077551 0.08763164 0.2088983
v 0.2699707 0.08763164 0.113349
v 0.2782361 0.08763164 -0.003236694
v 0.2700183 0.08763164 -0.1198383
v 0.285741 0.08053116 -0.1247803
v 0.2943115 0.08057192 -0.003236694
v 0.2192627 0.08054523 -0.226842
v 0.1171155 0.08053301 -0.2937396
v -0.004326172 0.08056641 -0.3050806
v -0.1257715 0.08053297 -0.2937506
v -0.227915 0.08054491 -0.226842
v 0.1171191 0.08053299 0.2872766
v -0.004326172 0.08056641 0.2986066
v -0.1257666 0.08053293 0.2872656
v -0.227915 0.08054502 0.2203674
v -0.2943933 0.08053106 0.1183069
v -0.3029651 0.08057192 -0.003237305
v -0.2943811 0.08053105 -0.1247766
v 0.2192627 0.08054483 0.220368
v 0.2857263 0.08053105 0.1183026
vt 0.06481934 0.6723633
vt 0.04797363 0.7509766
vt 0.04940796 0.8310547
vt 0.1114502 0.6132813
vt 0.08380127 0.8979492
vt 0.1778564 0.5791016
vt 0.1424561 0.9443359
vt 0.2216797 0.9594727
vt 0.2585449 0.5791016
vt 0.3376465 0.5947266
vt 0.3022461 0.9594727
vt 0.3964844 0.640625
vt 0.3686523 0.9257813
vt 0.4306641 0.7080078
vt 0.4152832 0.8666992
vt 0.4321289 0.7880859
vt 0.09289551 0.5908203
vt 0.1724854 0.5498047
vt 0.2614746 0.5498047
vt 0.3486328 0.5668945
vt 0.4189453 0.6220703
vt 0.4599609 0.7016602
vt 0.4614258 0.7910156
vt 0.4428711 0.8779297
vt 0.387207 0.9482422
vt 0.3076172 0.9887695
vt 0.21875 0.9887695
vt 0.1315918 0.9716797
vt 0.0612793 0.9165039
vt 0.02030945 0.8369141
vt 0.01869202 0.7480469
vt 0.03738403 0.6606445
vt 0.8125 0.9467773
vt 0.8769531 1.009766
vt 0.9008789 0.9916992
vt 0.8320313 0.9272461
vt 0.7397461 0.8857422
vt 0.7583008 0.8652344
vt 0.6713867 0.8208008
vt 0.6884766 0.7993164
vt 0.6005859 0.7641602
vt 0.6162109 0.7382813
vt 0.9086914 0.9833984
vt 0.8383789 0.9204102
vt 0.7641602 0.8583984
vt 0.6938477 0.7919922
vt 0.6230469 0.7290039
vt 0.9277344 0.9648438
vt 0.8525391 0.9052734
vt 0.7773438 0.8422852
vt 0.706543 0.7758789
vt 0.6391602 0.7080078
vt 0.9638672 0.2124023
vt 0.9599609 0.3066406
vt 0.9873047 0.309082
vt 0.9931641 0.21875
vt 0.9882813 0.4038086
vt 0.9604492 0.4030762
vt 0.9833984 0.4980469
vt 0.9555664 0.4990234
vt 0.9863281 0.5883789
vt 0.9570313 0.5932617
vt 0.9526367 0.2114258
vt 0.9506836 0.3061523
vt 0.9516602 0.4030762
vt 0.9467773 0.4992676
vt 0.9453125 0.59375
vt 0.9262695 0.2091064
vt 0.9301758 0.3054199
vt 0.9306641 0.4033203
vt 0.9267578 0.5004883
vt 0.9189453 0.5952148
vt 0.401123 0.03967285
vt 0.4943848 0.0423584
vt 0.4963379 0.01502228
vt 0.4067383 0.01057434
vt 0.5898438 0.01242065
vt 0.5898438 0.03988647
vt 0.6831055 0.01554871
vt 0.6850586 0.0428772
vt 0.7729492 0.01125336
vt 0.7783203 0.04034424
vt 0.4003906 0.05099487
vt 0.4941406 0.0512085
vt 0.5898438 0.04870605
vt 0.6855469 0.05157471
vt 0.7792969 0.05160522
vt 0.3986816 0.07720947
vt 0.4936523 0.07177734
vt 0.590332 0.06921387
vt 0.6865234 0.07183838
vt 0.78125 0.07763672
vt 0.007362366 0.04608154
vt 0.100708 0.04684448
vt 0.1022339 0.01950073
vt 0.01260376 0.01689148
vt 0.1959229 0.01515961
vt 0.196167 0.04263306
vt 0.2893066 0.01657104
vt 0.2912598 0.04388428
vt 0.3786621 0.01046753
vt 0.3845215 0.03942871
vt 0.00680542 0.05743408
vt 0.100708 0.0557251
vt 0.1965332 0.05145264
vt 0.2919922 0.05255127
vt 0.385498 0.0506897
vt 0.005512238 0.08361816
vt 0.1005859 0.07641602
vt 0.1973877 0.07196045
vt 0.2937012 0.07275391
vt 0.3879395 0.07672119
vt 0.5244141 0.7807617
vt 0.487793 0.8007813
vt 0.5595703 0.8837891
vt 0.4621582 0.8334961
vt 0.4558105 0.8754883
vt 0.4553223 0.918457
vt 0.4755859 0.9545898
vt 0.5087891 0.9804688
vt 0.5512695 0.987793
vt 0.5942383 0.9868164
vt 0.6308594 0.9672852
vt 0.5673828 0.7802734
vt 0.6098633 0.7875977
vt 0.6430664 0.8129883
vt 0.6630859 0.8496094
vt 0.6630859 0.8920898
vt 0.6567383 0.934082
vt 0.6621094 0.9365234
vt 0.6689453 0.8925781
vt 0.6347656 0.9716797
vt 0.5957031 0.9926758
vt 0.5507813 0.9936523
vt 0.5063477 0.9858398
vt 0.4709473 0.9584961
vt 0.6123047 0.7822266
vt 0.5678711 0.7744141
vt 0.5229492 0.7749023
vt 0.4838867 0.7963867
vt 0.456543 0.831543
vt 0.4499512 0.875
vt 0.4494629 0.9194336
vt 0.6479492 0.8095703
vt 0.6689453 0.8481445
vn 0.12107 -0.9313748 -0.343341
vn 0 -0.9298131 -0.3680321
vn -0.12107 -0.9313744 -0.3433421
vn 0.261706 -0.929256 -0.260755
vn -0.2617071 -0.9292552 -0.2607571
vn 0.3430261 -0.9320843 -0.116412
vn -0.3430282 -0.9320834 -0.1164141
vn -0.3665321 -0.9304053 0
vn 0.3665309 -0.9304059 0
vn 0.3430279 -0.9320836 0.116413
vn -0.3430291 -0.9320832 0.116413
vn 0.2617072 -0.9292554 0.2607561
vn -0.2617089 -0.9292547 0.2607569
vn 0.12107 -0.9313744 0.3433421
vn -0.121071 -0.9313739 0.343343
vn 0 -0.9298131 0.3680321
vn 0.5184142 -0.6813712 -0.5167012
vn 0.6903552 -0.6851352 -0.2323781
vn 0.7378537 -0.6749607 9.999995E-07
vn 0.6903569 -0.6851329 0.2323799
vn 0.5184163 -0.6813685 0.5167024
vn 0.241375 -0.6837341 0.6886551
vn 0 -0.6750401 0.7377811
vn -0.2413759 -0.6837339 0.6886549
vn -0.5184169 -0.6813678 0.5167028
vn -0.6903573 -0.6851324 0.2323801
vn -0.7378546 -0.6749597 0
vn -0.6903562 -0.6851331 -0.232381
vn -0.5184139 -0.6813708 -0.5167019
vn -0.2413739 -0.6837368 -0.6886528
vn 0 -0.6750428 -0.7377787
vn 0.241375 -0.6837361 -0.6886531
vn 0.6903552 -0.6851352 -0.2323781
vn 0.7378537 -0.6749607 9.999995E-07
vn 0.9583847 -0.2854799 9.999997E-07
vn 0.9052392 -0.2974001 -0.3034721
vn 0.5184142 -0.6813712 -0.5167012
vn 0.675855 -0.298393 -0.67393
vn 0.241375 -0.6837361 -0.6886531
vn 0.315 -0.2969259 -0.9014488
vn 0 -0.6750428 -0.7377787
vn 0 -0.2870199 -0.9579246
vn 0.9725205 0.2328171 8.533032E-06
vn 0.9243146 0.219748 -0.312015
vn 0.6901417 0.2226273 -0.6885793
vn 0.3233988 0.2207514 -0.9201533
vn 4.828811E-06 0.2312489 -0.9728947
vn 0.5086355 0.8609819 3.852933E-05
vn 0.4840252 0.8600473 -0.161364
vn 0.3625755 0.8588433 -0.3618385
vn 0.1677562 0.8600221 -0.481892
vn 2.815079E-05 0.8603856 -0.5096437
vn 0 -0.2870199 -0.9579246
vn -0.3149998 -0.2969268 -0.9014485
vn -0.2413739 -0.6837368 -0.6886528
vn 0 -0.6750428 -0.7377787
vn -0.5184139 -0.6813708 -0.5167019
vn -0.675855 -0.298393 -0.67393
vn -0.6903562 -0.6851331 -0.232381
vn -0.9052389 -0.297399 -0.303474
vn -0.7378546 -0.6749597 0
vn -0.9583849 -0.285479 0
vn 4.828811E-06 0.2312489 -0.9728947
vn -0.3234125 0.2206254 -0.9201788
vn -0.6901484 0.2226269 -0.6885728
vn -0.9242892 0.2198732 -0.312002
vn -0.972526 0.2327947 -5.492916E-06
vn 2.815079E-05 0.8603856 -0.5096437
vn -0.1678421 0.8598669 -0.482139
vn -0.3625982 0.8588587 -0.3617792
vn -0.4837149 0.8602392 -0.1612713
vn -0.5086302 0.8609851 -3.537491E-05
vn -0.9583849 -0.285479 0
vn -0.9052389 -0.2973999 0.3034729
vn -0.6903573 -0.6851324 0.2323801
vn -0.7378546 -0.6749597 0
vn -0.5184169 -0.6813678 0.5167028
vn -0.6758558 -0.2983939 0.6739288
vn -0.2413759 -0.6837339 0.6886549
vn -0.3150001 -0.2969271 0.9014484
vn 0 -0.6750401 0.7377811
vn 0 -0.2870211 0.9579242
vn -0.972526 0.2327947 -5.492916E-06
vn -0.9243193 0.2197322 0.3120123
vn -0.690142 0.2226233 0.6885802
vn -0.3234075 0.2207555 0.9201493
vn -4.895591E-06 0.2312494 0.9728945
vn -0.5086302 0.8609851 -3.537491E-05
vn -0.4840268 0.8600449 0.1613713
vn -0.3625802 0.8588376 0.3618475
vn -0.1677532 0.8600212 0.4818946
vn -2.891912E-05 0.860387 0.5096412
vn 0 -0.2870211 0.9579242
vn 0.3150001 -0.296928 0.9014482
vn 0.241375 -0.6837341 0.6886551
vn 0 -0.6750401 0.7377811
vn 0.5184163 -0.6813685 0.5167024
vn 0.6758556 -0.2983948 0.6739286
vn 0.6903569 -0.6851329 0.2323799
vn 0.9052389 -0.2973999 0.3034729
vn 0.7378537 -0.6749607 9.999995E-07
vn 0.9583847 -0.2854799 9.999997E-07
vn -4.895591E-06 0.2312494 0.9728945
vn 0.3234091 0.2206228 0.9201806
vn 0.6901519 0.2226286 0.6885687
vn 0.9242854 0.2198904 0.3120011
vn 0.9725205 0.2328171 8.533032E-06
vn -2.891912E-05 0.860387 0.5096412
vn 0.167842 0.8598682 0.4821365
vn 0.3626 0.8588597 0.3617751
vn 0.4837142 0.860239 0.1612742
vn 0.5086355 0.8609819 3.852933E-05
vn -0.0189493 0.9983633 0.05396018
vn -0.03893846 0.998485 0.03887782
vn 0 1 0
vn -0.05489029 0.9983208 0.0185108
vn -0.04945007 0.9987766 -6.677546E-06
vn -0.05486776 0.9983222 -0.01850317
vn -0.03895009 0.9984849 -0.03886905
vn -0.01895556 0.9983622 -0.05397743
vn 5.217922E-06 0.9987374 -0.05023484
vn 0.01894841 0.9983633 -0.05396012
vn 0.03893758 0.9984851 -0.0388768
vn -5.480015E-06 0.9987374 0.05023502
vn 0.01895597 0.9983622 0.05397778
vn 0.03895014 0.9984849 0.03886927
vn 0.05486883 0.9983221 0.01850339
vn 0.04945069 0.9987765 6.921197E-06
vn 0.05488995 0.9983208 -0.01851042
vn 0.4840252 0.8600473 -0.161364
vn 0.5086355 0.8609819 3.852933E-05
vn 0.3625755 0.8588433 -0.3618385
vn 0.1677562 0.8600221 -0.481892
vn 2.815079E-05 0.8603856 -0.5096437
vn -0.1678421 0.8598669 -0.482139
vn -0.3625982 0.8588587 -0.3617792
vn 0.167842 0.8598682 0.4821365
vn -2.891912E-05 0.860387 0.5096412
vn -0.1677532 0.8600212 0.4818946
vn -0.3625802 0.8588376 0.3618475
vn -0.4840268 0.8600449 0.1613713
vn -0.5086302 0.8609851 -3.537491E-05
vn -0.4837149 0.8602392 -0.1612713
vn 0.3626 0.8588597 0.3617751
vn 0.4837142 0.860239 0.1612742
g m_ingredients_bun_base_01_0
f 3/3/3 2/2/2 1/1/1
f 1/1/1 4/4/4 3/3/3
f 4/4/4 5/5/5 3/3/3
f 4/4/4 6/6/6 5/5/5
f 6/6/6 7/7/7 5/5/5
f 6/6/6 8/8/8 7/7/7
f 6/6/6 9/9/9 8/8/8
f 9/9/9 10/10/10 8/8/8
f 10/10/10 11/11/11 8/8/8
f 10/10/10 12/12/12 11/11/11
f 12/12/12 13/13/13 11/11/11
f 12/12/12 14/14/14 13/13/13
f 14/14/14 15/15/15 13/13/13
f 14/14/14 16/16/16 15/15/15
f 6/6/6 4/4/4 17/17/17
f 18/18/18 6/6/6 17/17/17
f 9/9/9 6/6/6 18/18/18
f 19/19/19 9/9/9 18/18/18
f 10/10/10 9/9/9 19/19/19
f 20/20/20 10/10/10 19/19/19
f 12/12/12 10/10/10 20/20/20
f 21/21/21 12/12/12 20/20/20
f 14/14/14 12/12/12 21/21/21
f 22/22/22 14/14/14 21/21/21
f 16/16/16 14/14/14 22/22/22
f 23/23/23 16/16/16 22/22/22
f 15/15/15 16/16/16 23/23/23
f 24/24/24 15/15/15 23/23/23
f 13/13/13 15/15/15 24/24/24
f 25/25/25 13/13/13 24/24/24
f 11/11/11 13/13/13 25/25/25
f 26/26/26 11/11/11 25/25/25
f 8/8/8 11/11/11 26/26/26
f 27/27/27 8/8/8 26/26/26
f 7/7/7 8/8/8 27/27/27
f 28/28/28 7/7/7 27/27/27
f 5/5/5 7/7/7 28/28/28
f 29/29/29 5/5/5 28/28/28
f 3/3/3 5/5/5 29/29/29
f 30/30/30 3/3/3 29/29/29
f 2/2/2 3/3/3 30/30/30
f 31/31/31 2/2/2 30/30/30
f 1/1/1 2/2/2 31/31/31
f 32/32/32 1/1/1 31/31/31
f 4/4/4 1/1/1 32/32/32
f 17/17/17 4/4/4 32/32/32
f 35/35/35 34/34/34 33/33/33
f 36/36/36 35/35/35 33/33/33
f 33/33/33 37/37/37 36/36/36
f 37/37/37 38/38/38 36/36/36
f 37/37/37 39/39/39 38/38/38
f 39/39/39 40/40/40 38/38/38
f 39/39/39 41/41/41 40/40/40
f 41/41/41 42/42/42 40/40/40
f 43/43/43 35/35/35 36/36/36
f 44/44/44 43/43/43 36/36/36
f 36/36/36 38/38/38 44/44/44
f 38/38/38 45/45/45 44/44/44
f 38/38/38 40/40/40 45/45/45
f 40/40/40 46/46/46 45/45/45
f 40/40/40 42/42/42 46/46/46
f 42/42/42 47/47/47 46/46/46
f 48/48/48 43/43/43 44/44/44
f 49/49/49 48/48/48 44/44/44
f 44/44/44 45/45/45 49/49/49
f 45/45/45 50/50/50 49/49/49
f 45/45/45 46/46/46 50/50/50
f 46/46/46 51/51/51 50/50/50
f 46/46/46 47/47/47 51/51/51
f 47/47/47 52/52/52 51/51/51
f 55/55/55 54/54/54 53/53/53
f 56/56/56 55/55/55 53/53/53
f 55/55/55 57/57/57 54/54/54
f 57/57/57 58/58/58 54/54/54
f 57/57/57 59/59/59 58/58/58
f 59/59/59 60/60/60 58/58/58
f 59/59/59 61/61/61 60/60/60
f 61/61/61 62/62/62 60/60/60
f 53/53/53 54/54/54 63/63/63
f 54/54/54 64/64/64 63/63/63
f 54/54/54 58/58/58 64/64/64
f 58/58/58 65/65/65 64/64/64
f 58/58/58 60/60/60 65/65/65
f 60/60/60 66/66/66 65/65/65
f 60/60/60 62/62/62 66/66/66
f 62/62/62 67/67/67 66/66/66
f 63/63/63 64/64/64 68/68/68
f 64/64/64 69/69/69 68/68/68
f 64/64/64 65/65/65 69/69/69
f 65/65/65 70/70/70 69/69/69
f 65/65/65 66/66/66 70/70/70
f 66/66/66 71/71/71 70/70/70
f 66/66/66 67/67/67 71/71/71
f 67/67/67 72/72/72 71/71/71
f 75/75/75 74/74/74 73/73/73
f 76/76/76 75/75/75 73/73/73
f 75/75/75 77/77/77 74/74/74
f 77/77/77 78/78/78 74/74/74
f 77/77/77 79/79/79 78/78/78
f 79/79/79 80/80/80 78/78/78
f 79/79/79 81/81/81 80/80/80
f 81/81/81 82/82/82 80/80/80
f 73/73/73 74/74/74 83/83/83
f 74/74/74 84/84/84 83/83/83
f 74/74/74 78/78/78 84/84/84
f 78/78/78 85/85/85 84/84/84
f 78/78/78 80/80/80 85/85/85
f 80/80/80 86/86/86 85/85/85
f 80/80/80 82/82/82 86/86/86
f 82/82/82 87/87/87 86/86/86
f 83/83/83 84/84/84 88/88/88
f 84/84/84 89/89/89 88/88/88
f 84/84/84 85/85/85 89/89/89
f 85/85/85 90/90/90 89/89/89
f 85/85/85 86/86/86 90/90/90
f 86/86/86 91/91/91 90/90/90
f 86/86/86 87/87/87 91/91/91
f 87/87/87 92/92/92 91/91/91
f 95/95/95 94/94/94 93/93/93
f 96/96/96 95/95/95 93/93/93
f 95/95/95 97/97/97 94/94/94
f 97/97/97 98/98/98 94/94/94
f 97/97/97 99/99/99 98/98/98
f 99/99/99 100/100/100 98/98/98
f 99/99/99 101/101/101 100/100/100
f 101/101/101 102/102/102 100/100/100
f 93/93/93 94/94/94 103/103/103
f 94/94/94 104/104/104 103/103/103
f 94/94/94 98/98/98 104/104/104
f 98/98/98 105/105/105 104/104/104
f 98/98/98 100/100/100 105/105/105
f 100/100/100 106/106/106 105/105/105
f 100/100/100 102/102/102 106/106/106
f 102/102/102 107/107/107 106/106/106
f 103/103/103 104/104/104 108/108/108
f 104/104/104 109/109/109 108/108/108
f 104/104/104 105/105/105 109/109/109
f 105/105/105 110/110/110 109/109/109
f 105/105/105 106/106/106 110/110/110
f 106/106/106 111/111/111 110/110/110
f 106/106/106 107/107/107 111/111/111
f 107/107/107 112/112/112 111/111/111
f 115/115/115 114/114/114 113/113/113
f 116/116/116 114/114/114 115/115/115
f 117/117/117 116/116/116 115/115/115
f 118/118/118 117/117/117 115/115/115
f 119/119/119 118/118/118 115/115/115
f 120/120/120 119/119/119 115/115/115
f 121/121/121 120/120/120 115/115/115
f 122/122/122 121/121/121 115/115/115
f 122/122/122 115/115/115 123/123/123
f 115/115/115 113/113/113 124/124/124
f 115/115/115 124/124/124 125/125/125
f 115/115/115 125/125/125 126/126/126
f 115/115/115 126/126/126 127/127/127
f 115/115/115 127/127/127 128/128/128
f 115/115/115 128/128/128 129/129/129
f 115/115/115 129/129/129 123/123/123
f 129/129/129 128/128/128 130/130/130
f 128/128/128 131/131/131 130/130/130
f 131/131/131 128/128/128 127/127/127
f 132/132/132 123/123/123 129/129/129
f 130/130/130 132/132/132 129/129/129
f 133/133/133 122/122/122 123/123/123
f 132/132/132 133/133/133 123/123/123
f 134/134/134 121/121/121 122/122/122
f 133/133/133 134/134/134 122/122/122
f 135/135/135 120/120/120 121/121/121
f 134/134/134 135/135/135 121/121/121
f 135/135/135 136/136/136 120/120/120
f 137/137/137 125/125/125 124/124/124
f 138/138/138 137/137/137 124/124/124
f 138/138/138 124/124/124 113/113/113
f 139/139/139 138/138/138 113/113/113
f 139/139/139 113/113/113 114/114/114
f 140/140/140 139/139/139 114/114/114
f 140/140/140 114/114/114 116/116/116
f 141/141/141 140/140/140 116/116/116
f 141/141/141 116/116/116 117/117/117
f 142/142/142 141/141/141 117/117/117
f 142/142/142 117/117/117 118/118/118
f 143/143/143 142/142/142 118/118/118
f 143/143/143 118/118/118 119/119/119
f 136/136/136 143/143/143 119/119/119
f 136/136/136 119/119/119 120/120/120
f 137/137/137 144/144/144 125/125/125
f 144/144/144 126/126/126 125/125/125
f 144/144/144 145/145/145 126/126/126
f 145/145/145 127/127/127 126/126/126
f 145/145/145 131/131/131 127/127/127
