g m_mine_truss_01
v -0.155325 -0.1281932 -0.5996313
v -0.1509799 -0.1293432 -0.190166
v -0.1347769 -0.1455505 -0.1945923
v -0.137789 -0.1457278 -0.5996313
v -0.137504 -0.1344891 -0.1758594
v -0.1427518 -0.07043459 -0.1182935
v -0.05901092 -0.1457283 -0.1434863
v -0.07876373 -0.1380806 -0.1388208
v 0.1389511 -0.1455505 -0.2865185
v 0.1311179 -0.1457278 -0.5996313
v 0.1390952 -0.1532616 0.2712305
v 0.05620209 -0.1544152 0.3275903
v -0.1336227 -0.1472028 -0.03792724
v -0.07876373 -0.1380806 -0.1388208
v -0.1398758 -0.1348376 -0.05309814
v -0.1334879 -0.1544495 0.2568555
v -0.137789 -0.1457278 0.5996313
v 0.1368582 -0.1512775 0.4438452
v 0.1311179 -0.1457278 0.5996313
v -0.155325 -0.1281932 0.5996313
v -0.1496939 -0.1382422 0.2476391
v -0.1498288 -0.1310366 -0.03335937
v -0.1498569 -0.04910467 -0.1176807
v -0.1509799 -0.1293432 -0.190166
v -0.1500711 0.06658242 -0.1896094
v -0.155325 -0.1281932 -0.5996313
v -0.1509561 0.1382422 -0.2644214
v -0.155325 0.1362486 -0.5996313
v -0.1372458 0.1440618 -0.2508276
v -0.1347501 0.1544495 -0.2707348
v -0.08629669 0.1472495 -0.2180225
v -0.06596588 0.1543627 -0.2226489
v -0.1431796 0.08720929 -0.191499
v -0.1427518 -0.07043459 -0.1182935
v -0.137789 0.1537832 -0.5996313
v -0.1496939 0.1293432 0.193977
v -0.1498288 -0.1310366 -0.03335937
v -0.1398758 -0.1348376 -0.05309814
v -0.1336227 -0.1472028 -0.03792724
v -0.1496939 -0.1382422 0.2476391
v -0.155325 -0.1281932 0.5996313
v -0.155325 0.1362486 0.5996313
v -0.1334879 0.1455505 0.1966894
v -0.137789 0.1537832 0.5996313
v -0.1336227 0.1528152 -0.1270435
v -0.1403207 0.1403924 -0.141499
v -0.14983 0.1365925 -0.1207568
v -0.08629669 0.1472495 -0.2180225
v -0.1431796 0.08720929 -0.191499
v -0.1427518 -0.07043459 -0.1182935
v 0.1311179 0.1537832 -0.5996313
v 0.1389511 0.1544495 -0.3071704
v -0.137789 0.1537832 -0.5996313
v -0.06596588 0.1543627 -0.2226489
v -0.1347501 0.1544495 -0.2707348
v 0.155159 0.1382422 -0.3124316
v 0.1486533 0.1362486 -0.5996313
v 0.139119 0.1455505 0.2969897
v 0.155325 0.1293432 0.3062012
v 0.1486533 0.1362486 0.5996313
v 0.1311179 0.1537832 0.5996313
v -0.1334879 0.1455505 0.1966894
v -0.137789 0.1537832 0.5996313
v -0.1336227 0.1528152 -0.1270435
v 0.1486533 -0.1281932 -0.5996313
v 0.1311179 -0.1457278 -0.5996313
v 0.1389511 -0.1455505 -0.2865185
v 0.155159 -0.1293432 -0.2940137
v 0.1486533 0.1362486 -0.5996313
v 0.155159 0.1382422 -0.3124316
v 0.155303 -0.1370672 0.2735229
v 0.1390952 -0.1532616 0.2712305
v 0.1423709 -0.1416763 0.2888013
v 0.07606109 -0.1461649 0.33229
v 0.05620209 -0.1544152 0.3275903
v 0.155289 -0.05057712 0.3425757
v 0.14811 -0.07149117 0.3438281
v 0.155325 0.1293432 0.3062012
v 0.1486533 0.1362486 0.5996313
v 0.1530502 -0.13505 0.4461328
v 0.14811 -0.07149117 0.3438281
v 0.1431589 -0.1403102 0.4273071
v 0.1368582 -0.1512775 0.4438452
v 0.07606109 -0.1461649 0.33229
v 0.1311179 -0.1457278 0.5996313
v 0.1486533 -0.1281932 0.5996313
v -0.08629669 0.1472495 -0.2180225
v -0.1403207 0.1403924 -0.141499
v -0.1431796 0.08720929 -0.191499
v 0.07606109 -0.1461649 0.33229
v 0.1431589 -0.1403102 0.4273071
v 0.14811 -0.07149117 0.3438281
v -0.1427518 -0.07043459 -0.1182935
v -0.1398758 -0.1348376 -0.05309814
v -0.07876373 -0.1380806 -0.1388208
v -0.08629669 0.1472495 -0.2180225
v -0.1431796 0.08720929 -0.191499
v -0.1372458 0.1440618 -0.2508276
v -0.1427518 -0.07043459 -0.1182935
v -0.07876373 -0.1380806 -0.1388208
v -0.137504 -0.1344891 -0.1758594
v 0.07606109 -0.1461649 0.33229
v 0.14811 -0.07149117 0.3438281
v 0.1423709 -0.1416763 0.2888013
vt 0.8071289 0.01380157
vt 0.8071289 0.1306152
vt 0.8134766 0.1292725
vt 0.8183594 0.01380157
vt 0.8105469 0.1351318
vt 0.7910156 0.1561279
vt 0.8339844 0.147583
vt 0.8266602 0.149292
vt 0.8969727 0.1027832
vt 0.8994141 0.01380157
vt 0.8979492 0.2724609
vt 0.8764648 0.2937012
vt 0.8134766 0.1828613
vt 0.8266602 0.149292
vt 0.8095703 0.1781006
vt 0.8168945 0.2731934
vt 0.8183594 0.3916016
vt 0.9003906 0.3303223
vt 0.8994141 0.3916016
vt 0.8071289 0.3916016
vt 0.8095703 0.2705078
vt 0.8071289 0.184082
vt 0.7832031 0.1566162
vt 0.8071289 0.1306152
vt 0.746582 0.1337891
vt 0.8071289 0.01380157
vt 0.7260742 0.1080933
vt 0.7280273 0.01380157
vt 0.722168 0.1124268
vt 0.7192383 0.1063843
vt 0.7080078 0.124939
vt 0.7006836 0.1234131
vt 0.7387695 0.1329346
vt 0.7910156 0.1561279
vt 0.7163086 0.01380157
vt 0.7265625 0.2536621
vt 0.8071289 0.184082
vt 0.8095703 0.1781006
vt 0.8134766 0.1828613
vt 0.8095703 0.2705078
vt 0.8071289 0.3916016
vt 0.7280273 0.3916016
vt 0.7192383 0.2543945
vt 0.7163086 0.3916016
vt 0.7202148 0.1544189
vt 0.7241211 0.1499023
vt 0.7265625 0.1561279
vt 0.7080078 0.124939
vt 0.7387695 0.1329346
vt 0.7910156 0.1561279
vt 0.6420898 0.01380157
vt 0.6464844 0.09814453
vt 0.7163086 0.01380157
vt 0.7006836 0.1234131
vt 0.7192383 0.1063843
vt 0.6279297 0.09655762
vt 0.6279297 0.01380157
vt 0.6464844 0.2839355
vt 0.6279297 0.2866211
vt 0.6279297 0.3916016
vt 0.6420898 0.3916016
vt 0.7192383 0.2543945
vt 0.7163086 0.3916016
vt 0.7202148 0.1544189
vt 0.9179688 0.01380157
vt 0.8994141 0.01380157
vt 0.8969727 0.1027832
vt 0.9179688 0.1004639
vt 0.9916992 0.01380157
vt 0.9916992 0.09405518
vt 0.9042969 0.2729492
vt 0.8979492 0.2724609
vt 0.9008789 0.277832
vt 0.8837891 0.2949219
vt 0.8764648 0.2937012
vt 0.9301758 0.2961426
vt 0.9223633 0.296875
vt 0.9916992 0.2836914
vt 0.9916992 0.3916016
vt 0.9072266 0.3308105
vt 0.9223633 0.296875
vt 0.9038086 0.3251953
vt 0.9003906 0.3303223
vt 0.8837891 0.2949219
vt 0.8994141 0.3916016
vt 0.9179688 0.3916016
vt 0.7080078 0.124939
vt 0.7241211 0.1499023
vt 0.7387695 0.1329346
vt 0.8837891 0.2949219
vt 0.9038086 0.3251953
vt 0.9223633 0.296875
vt 0.7910156 0.1561279
vt 0.8095703 0.1781006
vt 0.8266602 0.149292
vt 0.7080078 0.124939
vt 0.7387695 0.1329346
vt 0.722168 0.1124268
vt 0.7910156 0.1561279
vt 0.8266602 0.149292
vt 0.8105469 0.1351318
vt 0.8837891 0.2949219
vt 0.9223633 0.296875
vt 0.9008789 0.277832
vn -0.9963865 -0.084924 -0.001366546
vn -0.991541 -0.1278848 0.02218239
vn -0.1352454 -0.9907671 0.009449764
vn -0.08682949 -0.9960084 -0.02068556
vn -0.5975791 -0.6697652 0.4408104
vn -0.8076387 -0.4073709 0.4263434
vn -0.01481441 -0.9998108 -0.01260904
vn -0.2926803 -0.8640094 0.4096658
vn 0.1335307 -0.9910252 -0.006213737
vn 0.07303006 -0.99705 -0.02361505
vn 0.1907045 -0.9816383 -0.004233876
vn 0.007950903 -0.9999446 0.006899241
vn -0.1103688 -0.9934349 -0.03009706
vn -0.4850542 -0.8070639 -0.3367049
vn -0.7200642 -0.6045551 -0.340618
vn -0.1488904 -0.9888501 -0.002691407
vn -0.1904914 -0.9813579 0.02548906
vn 0.08269853 -0.9963552 0.02091527
vn 0.1074854 -0.9934257 0.03939712
vn -0.9984295 -0.05440836 -0.0133476
vn -0.9975937 -0.06842358 -0.01118105
vn -0.9926277 -0.1206706 -0.01135678
vn -0.9999084 -0.01327278 0.002638344
vn -0.991541 -0.1278848 0.02218239
vn -0.9999068 0.0109046 0.008213633
vn -0.9963865 -0.084924 -0.001366546
vn -0.9935947 0.1106042 0.02315853
vn -0.9971445 0.0755128 0.0007082155
vn -0.5861787 0.7005126 0.4070337
vn -0.2830399 0.958951 0.01735887
vn -0.2760122 0.8851506 0.3746009
vn -0.002391035 0.9999523 0.009470289
vn -0.8006198 0.4474307 0.3985142
vn -0.8076387 -0.4073709 0.4263434
vn -0.1612533 0.986893 0.006303419
vn -0.9961785 0.08674322 -0.01019923
vn -0.9926277 -0.1206706 -0.01135678
vn -0.7200642 -0.6045551 -0.340618
vn -0.1103688 -0.9934349 -0.03009706
vn -0.9975937 -0.06842358 -0.01118105
vn -0.9984295 -0.05440836 -0.0133476
vn -0.9979171 0.06253591 -0.01583471
vn -0.08678355 0.9962167 -0.004568694
vn -0.062332 0.9977735 -0.02372182
vn -0.09135437 0.9957619 0.0106083
vn -0.7258682 0.6099893 -0.3178496
vn -0.9639274 0.2660459 -0.007971866
vn -0.4838695 0.8213987 -0.3019513
vn -0.8970708 0.3182846 -0.306527
vn -0.8840553 -0.342492 -0.318034
vn 0.1073152 0.9942175 0.003856263
vn 0.1386329 0.9903279 0.005615497
vn -0.1612533 0.986893 0.006303419
vn -0.002391035 0.9999523 0.009470289
vn -0.2830399 0.958951 0.01735887
vn 0.996705 0.08041104 -0.01063593
vn 0.9976313 0.06605558 -0.01919459
vn 0.09896634 0.9950317 -0.01084133
vn 0.9923453 0.1233686 0.005574826
vn 0.9823738 0.1858969 0.0195938
vn 0.0522754 0.9983872 -0.02213997
vn -0.08678355 0.9962167 -0.004568694
vn -0.062332 0.9977735 -0.02372182
vn -0.09135437 0.9957619 0.0106083
vn 0.9967387 -0.07805517 -0.02047597
vn 0.07303006 -0.99705 -0.02361505
vn 0.1335307 -0.9910252 -0.006213737
vn 0.9966304 -0.08120736 -0.01154092
vn 0.9976313 0.06605558 -0.01919459
vn 0.996705 0.08041104 -0.01063593
vn 0.9797322 -0.1999854 0.01143119
vn 0.1907045 -0.9816383 -0.004233876
vn 0.6124985 -0.6486514 0.451771
vn 0.3169122 -0.847558 0.42569
vn 0.007950903 -0.9999446 0.006899241
vn 0.9999466 -0.006238698 0.008237016
vn 0.8234468 -0.3704337 0.429784
vn 0.9923453 0.1233686 0.005574826
vn 0.9823738 0.1858969 0.0195938
vn 0.9953572 -0.09482025 0.01652291
vn 0.8791955 -0.3845236 -0.2813483
vn 0.7104552 -0.6366946 -0.2997888
vn 0.08269853 -0.9963552 0.02091527
vn 0.4745807 -0.8287247 -0.2966288
vn 0.1074854 -0.9934257 0.03939712
vn 0.9933855 -0.1098877 0.03331525
vn -0.7340036 0.4857159 -0.4746776
vn -0.7340036 0.4857159 -0.4746776
vn -0.7340035 0.4857159 -0.4746776
vn 0.6784309 -0.5861126 -0.4429489
vn 0.6784308 -0.5861126 -0.4429489
vn 0.6784308 -0.5861126 -0.4429488
vn -0.7046428 -0.5200906 -0.4826846
vn -0.7046428 -0.5200906 -0.4826845
vn -0.7046428 -0.5200906 -0.4826846
vn -0.4297592 0.6730232 0.6019524
vn -0.4297593 0.6730232 0.6019525
vn -0.4297592 0.6730232 0.6019524
vn -0.4459366 -0.6182236 0.6472558
vn -0.4459366 -0.6182236 0.6472558
vn -0.4459365 -0.6182236 0.6472558
vn 0.4786427 -0.5656428 0.6715276
vn 0.4786427 -0.5656429 0.6715277
vn 0.4786427 -0.5656428 0.6715276
g m_mine_truss_01_0
f 3/3/3 2/2/2 1/1/1
f 4/4/4 3/3/3 1/1/1
f 2/2/2 3/3/3 5/5/5
f 2/2/2 5/5/5 6/6/6
f 5/5/5 3/3/3 7/7/7
f 8/8/8 5/5/5 7/7/7
f 3/3/3 9/9/9 7/7/7
f 3/3/3 4/4/4 9/9/9
f 9/9/9 4/4/4 10/10/10
f 11/11/11 7/7/7 9/9/9
f 12/12/12 7/7/7 11/11/11
f 12/12/12 13/13/13 7/7/7
f 7/7/7 13/13/13 14/14/14
f 13/13/13 15/15/15 14/14/14
f 12/12/12 16/16/16 13/13/13
f 12/12/12 17/17/17 16/16/16
f 18/18/18 17/17/17 12/12/12
f 17/17/17 18/18/18 19/19/19
f 16/16/16 17/17/17 20/20/20
f 21/21/21 16/16/16 20/20/20
f 22/22/22 13/13/13 16/16/16
f 21/21/21 22/22/22 16/16/16
f 25/25/25 24/24/24 23/23/23
f 25/25/25 26/26/26 24/24/24
f 27/27/27 26/26/26 25/25/25
f 26/26/26 27/27/27 28/28/28
f 29/29/29 27/27/27 25/25/25
f 30/30/30 27/27/27 29/29/29
f 27/27/27 30/30/30 28/28/28
f 30/30/30 29/29/29 31/31/31
f 32/32/32 30/30/30 31/31/31
f 33/33/33 29/29/29 25/25/25
f 23/23/23 24/24/24 34/34/34
f 30/30/30 35/35/35 28/28/28
f 36/36/36 25/25/25 23/23/23
f 36/36/36 23/23/23 37/37/37
f 37/37/37 23/23/23 38/38/38
f 38/38/38 39/39/39 37/37/37
f 36/36/36 37/37/37 40/40/40
f 36/36/36 40/40/40 41/41/41
f 42/42/42 36/36/36 41/41/41
f 43/43/43 36/36/36 42/42/42
f 44/44/44 43/43/43 42/42/42
f 43/43/43 45/45/45 36/36/36
f 45/45/45 32/32/32 46/46/46
f 46/46/46 47/47/47 45/45/45
f 45/45/45 47/47/47 36/36/36
f 32/32/32 48/48/48 46/46/46
f 47/47/47 46/46/46 49/49/49
f 25/25/25 47/47/47 49/49/49
f 25/25/25 36/36/36 47/47/47
f 23/23/23 50/50/50 38/38/38
f 53/53/53 52/52/52 51/51/51
f 53/53/53 54/54/54 52/52/52
f 55/55/55 54/54/54 53/53/53
f 52/52/52 56/56/56 51/51/51
f 56/56/56 57/57/57 51/51/51
f 56/56/56 52/52/52 58/58/58
f 54/54/54 58/58/58 52/52/52
f 59/59/59 56/56/56 58/58/58
f 59/59/59 58/58/58 60/60/60
f 58/58/58 61/61/61 60/60/60
f 58/58/58 62/62/62 61/61/61
f 62/62/62 63/63/63 61/61/61
f 64/64/64 58/58/58 54/54/54
f 62/62/62 58/58/58 64/64/64
f 67/67/67 66/66/66 65/65/65
f 68/68/68 67/67/67 65/65/65
f 68/68/68 65/65/65 69/69/69
f 70/70/70 68/68/68 69/69/69
f 67/67/67 68/68/68 71/71/71
f 72/72/72 67/67/67 71/71/71
f 72/72/72 71/71/71 73/73/73
f 72/72/72 73/73/73 74/74/74
f 75/75/75 72/72/72 74/74/74
f 73/73/73 71/71/71 76/76/76
f 71/71/71 68/68/68 76/76/76
f 77/77/77 73/73/73 76/76/76
f 78/78/78 68/68/68 70/70/70
f 76/76/76 68/68/68 78/78/78
f 79/79/79 76/76/76 78/78/78
f 79/79/79 80/80/80 76/76/76
f 76/76/76 80/80/80 81/81/81
f 80/80/80 82/82/82 81/81/81
f 82/82/82 83/83/83 75/75/75
f 82/82/82 80/80/80 83/83/83
f 84/84/84 82/82/82 75/75/75
f 83/83/83 80/80/80 85/85/85
f 80/80/80 86/86/86 85/85/85
f 80/80/80 79/79/79 86/86/86
f 89/89/89 88/88/88 87/87/87
f 92/92/92 91/91/91 90/90/90
f 95/95/95 94/94/94 93/93/93
f 98/98/98 97/97/97 96/96/96
f 101/101/101 100/100/100 99/99/99
f 104/104/104 103/103/103 102/102/102
