g m_mine_trusslarge_02
v 0.2176437 0.3017026 0.5817102
v 0.2431314 0.2911451 0.5817102
v 0.2974332 0.2368419 0.5817102
v 0.3079904 0.2113542 0.5817102
v 0.3079904 -0.2113542 0.5817273
v 0.2974332 -0.236842 0.5817102
v 0.2431314 -0.2911451 0.5817102
v 0.2176437 -0.3017026 0.5817102
v -0.2050662 -0.3017026 0.5817102
v -0.2305539 -0.2911452 0.5817102
v -0.2848581 -0.2368419 0.5817102
v -0.2954153 -0.2113541 0.5817102
v -0.2954153 0.2113541 0.5817102
v -0.2848581 0.2368418 0.5817102
v -0.2305539 0.2911453 0.5817102
v -0.2050662 0.3017026 0.5817102
v 0.2176437 -0.3017026 -0.5817273
v -0.2050662 -0.3017026 -0.5817273
v -0.2305539 -0.2911452 -0.5817273
v -0.2848581 -0.2368419 -0.5817273
v -0.2954153 -0.2113541 -0.5817273
v -0.2954153 0.2113541 -0.5817273
v -0.2848581 0.2368418 -0.5817273
v -0.2305539 0.2911453 -0.5817273
v -0.2050662 0.3017026 -0.5817273
v 0.2176437 0.3017026 -0.5817273
v 0.2431314 0.2911451 -0.5817273
v 0.2974332 0.2368419 -0.5817273
v 0.3079904 0.2113542 -0.5817273
v 0.3079904 -0.2113542 -0.5817273
v 0.2974332 -0.236842 -0.5817273
v 0.2431314 -0.2911451 -0.5817273
v 0.2442117 0.2910716 0.3554919
v 0.2192062 0.3014295 0.3488928
v 0.2811465 0.2378649 -0.3344543
v 0.2102121 0.294491 -0.3034851
v -0.2382309 0.2843732 -0.193739
v -0.2948575 0.2134389 -0.1961706
v 0.2912637 0.2134374 -0.342699
v 0.2346378 0.2843727 -0.3119519
v -0.2138034 0.294491 -0.1974817
v -0.2847397 0.2378663 -0.1929871
v -0.09902679 0.3013545 0.248197
v -0.1502597 0.2832719 0.2387708
v -0.2180368 0.3014295 0.3336365
v -0.2323843 0.2771764 0.2837854
v -0.2281485 0.2766832 0.1428284
v -0.2145547 0.2994913 0.1041687
v -0.296976 0.217024 0.0799646
v -0.2825174 0.2291856 0.1249573
v -0.2978799 0.04621555 0.186051
v -0.2801334 0.09829233 0.1907312
v -0.2754312 0.2301086 0.2668787
v -0.3007877 0.2184598 0.3040784
v -0.2394083 0.2892298 0.101095
v -0.2506198 0.2908856 0.3242102
v -0.2866928 0.2418782 0.08532593
v -0.2903885 0.2434655 0.3060242
v -0.3079904 0.001429462 -0.3932019
v -0.3079904 -0.2155966 -0.407323
v -0.2976328 -0.2406027 -0.4061292
v -0.2500253 -0.2882125 -0.3956384
v -0.2250192 -0.2985705 -0.3890418
v 0.09321503 -0.2984955 -0.2883484
v 0.1444467 -0.2804129 -0.2789172
v 0.2122232 -0.2985705 -0.373783
v 0.2265714 -0.2743174 -0.3239319
v 0.2223361 -0.2738242 -0.1829748
v 0.2087424 -0.2966322 -0.1443201
v 0.2911624 -0.2141649 -0.1201135
v 0.2767044 -0.2263265 -0.1651062
v 0.2920676 -0.04335646 -0.2261999
v 0.2743204 -0.09543326 -0.2308752
v 0.2696182 -0.2272495 -0.3070251
v 0.2949753 -0.2156007 -0.3442273
v 0.2335947 -0.2863707 -0.1412463
v 0.2448062 -0.2880265 -0.3643591
v 0.2808792 -0.2390191 -0.1254773
v 0.2845755 -0.2406065 -0.3461731
v -0.2954153 -0.2113541 -0.5817273
v -0.3079904 -0.2155966 -0.407323
v 0.2431314 0.2911451 0.5817102
v 0.2346378 0.2843727 -0.3119519
v 0.2974332 -0.236842 0.5817102
v 0.2335947 -0.2863707 -0.1412463
v 0.2346378 0.2843727 -0.3119519
v 0.2442117 0.2910716 0.3554919
v 0.2431314 0.2911451 0.5817102
v 0.2912637 0.2134374 -0.342699
v 0.3079904 0.2113542 0.5817102
v -0.2305539 0.2911453 0.5817102
v -0.2506198 0.2908856 0.3242102
v 0.2176437 0.3017026 -0.5817273
v -0.2848581 0.2368418 -0.5817273
v -0.2382309 0.2843732 -0.193739
v -0.2180368 0.3014295 0.3336365
v -0.1502597 0.2832719 0.2387708
v -0.09902679 0.3013545 0.248197
v -0.2506198 0.2908856 0.3242102
v -0.296976 0.217024 0.0799646
v -0.2978799 0.04621555 0.186051
v -0.2801334 0.09829233 0.1907312
v -0.3007877 0.2184598 0.3040784
v -0.2978799 0.04621555 0.186051
v -0.2903885 0.2434655 0.3060242
v -0.2281485 0.2766832 0.1428284
v -0.2394083 0.2892298 0.101095
v -0.2903885 0.2434655 0.3060242
v -0.2754312 0.2301086 0.2668787
v -0.09902679 0.3013545 0.248197
v 0.3079904 0.2113542 -0.5817273
v -0.2145547 0.2994913 0.1041687
v -0.2801334 0.09829233 0.1907312
v -0.1502597 0.2832719 0.2387708
v -0.2323843 0.2771764 0.2837854
v -0.2754312 0.2301086 0.2668787
v -0.2394083 0.2892298 0.101095
v -0.2866928 0.2418782 0.08532593
v -0.2394083 0.2892298 0.101095
v -0.1502597 0.2832719 0.2387708
v -0.2848581 -0.2368419 0.5817102
v 0.09321503 -0.2984955 -0.2883484
v 0.1444467 -0.2804129 -0.2789172
v 0.09321503 -0.2984955 -0.2883484
v 0.2087424 -0.2966322 -0.1443201
v 0.2335947 -0.2863707 -0.1412463
v 0.2911624 -0.2141649 -0.1201135
v 0.2808792 -0.2390191 -0.1254773
v 0.2920676 -0.04335646 -0.2261999
v 0.2743204 -0.09543326 -0.2308752
v 0.2920676 -0.04335646 -0.2261999
v 0.2949753 -0.2156007 -0.3442273
v 0.2223361 -0.2738242 -0.1829748
v 0.2335947 -0.2863707 -0.1412463
v 0.2808792 -0.2390191 -0.1254773
v 0.2767044 -0.2263265 -0.1651062
v 0.2696182 -0.2272495 -0.3070251
v 0.2845755 -0.2406065 -0.3461731
v 0.2743204 -0.09543326 -0.2308752
v 0.2122232 -0.2985705 -0.373783
v 0.2448062 -0.2880265 -0.3643591
v 0.2845755 -0.2406065 -0.3461731
v 0.2431314 -0.2911451 -0.5817273
v 0.2448062 -0.2880265 -0.3643591
v 0.2743204 -0.09543326 -0.2308752
vt 0.05758667 0.6342773
vt 0.04458618 0.6342773
vt 0.02468872 0.6342773
vt 0.6123047 0.6342773
vt 0.4946289 0.6342773
vt 0.4846191 0.6342773
vt 0.4682617 0.6342773
vt 0.4589844 0.6342773
vt 0.3547363 0.6342773
vt 0.342041 0.6342773
vt 0.3220215 0.6342773
vt 0.3117676 0.6342773
vt 0.2073975 0.6342773
vt 0.1962891 0.6342773
vt 0.1750488 0.6342773
vt 0.1661377 0.6342773
vt 0.4589844 0.3178711
vt 0.3547363 0.3178711
vt 0.342041 0.3178711
vt 0.3220215 0.3178711
vt 0.3117676 0.3178711
vt 0.2073975 0.3178711
vt 0.1962891 0.3178711
vt 0.1750488 0.3178711
vt 0.1661377 0.3178711
vt 0.05758667 0.3178711
vt 0.04458618 0.3178711
vt 0.02468872 0.3178711
vt 0.01422882 0.3178711
vt 0.4946289 0.3178711
vt 0.4846191 0.3178711
vt 0.4682617 0.3178711
vt 0.04458618 0.574707
vt 0.05758667 0.5732422
vt 0.02468872 0.3947754
vt 0.05758667 0.402832
vt 0.1750488 0.4301758
vt 0.2073975 0.4296875
vt 0.6123047 0.3925781
vt 0.04458618 0.4006348
vt 0.1661377 0.4291992
vt 0.1962891 0.4304199
vt 0.6591797 0.9887695
vt 0.6557617 0.9614258
vt 0.1661377 0.5708008
vt 0.6953125 0.9282227
vt 0.5981445 0.9272461
vt 0.5776367 0.9404297
vt 0.2073975 0.5029297
vt 0.5893555 0.890625
vt 0.2502441 0.5302734
vt 0.6401367 0.8339844
vt 0.6914063 0.8950195
vt 0.2073975 0.5615234
vt 0.574707 0.9267578
vt 0.1750488 0.5688477
vt 0.5678711 0.8925781
vt 0.1962891 0.5620117
vt 0.2602539 0.378418
vt 0.3117676 0.375
vt 0.3220215 0.3752441
vt 0.342041 0.3779297
vt 0.3547363 0.3796387
vt 0.4328613 0.4040527
vt 0.4758301 0.8364258
vt 0.5380859 0.8515625
vt 0.515625 0.8691406
vt 0.4179688 0.8701172
vt 0.4589844 0.4436035
vt 0.4946289 0.4484863
vt 0.4094238 0.9067383
vt 0.5380859 0.4213867
vt 0.4599609 0.9638672
vt 0.5112305 0.9023438
vt 0.4946289 0.388916
vt 0.4682617 0.4445801
vt 0.5395508 0.8696289
vt 0.4846191 0.4467773
vt 0.5336914 0.9008789
vt 0.3117676 0.3178711
vt 0.3117676 0.375
vt 0.04458618 0.6342773
vt 0.04458618 0.4006348
vt 0.4846191 0.6342773
vt 0.4682617 0.4445801
vt 0.04458618 0.4006348
vt 0.04458618 0.574707
vt 0.04458618 0.6342773
vt 0.01422882 0.3928223
vt 0.01422882 0.6342773
vt 0.1750488 0.6342773
vt 0.1750488 0.5688477
vt 0.05758667 0.3178711
vt 0.1962891 0.3178711
vt 0.1750488 0.4301758
vt 0.7182617 0.9462891
vt 0.6557617 0.9614258
vt 0.6591797 0.9887695
vt 0.7197266 0.9282227
vt 0.5673828 0.8789063
vt 0.6386719 0.8066406
vt 0.6401367 0.8339844
vt 0.7119141 0.8833008
vt 0.6386719 0.8066406
vt 0.7138672 0.8969727
vt 0.5981445 0.9272461
vt 0.574707 0.9267578
vt 0.7138672 0.8969727
vt 0.6914063 0.8950195
vt 0.1453857 0.546875
vt 0.6123047 0.3178711
vt 0.1661377 0.5068359
vt 0.6401367 0.8339844
vt 0.6557617 0.9614258
vt 0.6953125 0.9282227
vt 0.6914063 0.8950195
vt 0.1750488 0.5058594
vt 0.1962891 0.5024414
vt 0.1750488 0.5058594
vt 0.6557617 0.9614258
vt 0.3220215 0.6342773
vt 0.4787598 0.809082
vt 0.4758301 0.8364258
vt 0.4787598 0.809082
vt 0.3977051 0.8574219
vt 0.3945313 0.8710938
vt 0.3874512 0.9189453
vt 0.3876953 0.9047852
vt 0.458252 0.9912109
vt 0.4599609 0.9638672
vt 0.458252 0.9912109
vt 0.5317383 0.9145508
vt 0.4179688 0.8701172
vt 0.3945313 0.8710938
vt 0.3876953 0.9047852
vt 0.4094238 0.9067383
vt 0.5112305 0.9023438
vt 0.5336914 0.9008789
vt 0.4599609 0.9638672
vt 0.4589844 0.3798828
vt 0.4682617 0.3818359
vt 0.4846191 0.3886719
vt 0.4682617 0.3178711
vt 0.4682617 0.3818359
vt 0.4599609 0.9638672
vn -0.002099928 0.9999658 -0.007999727
vn 0.6313195 0.7752305 0.02129469
vn 0.7841882 0.6201038 0.02280616
vn 0.9991646 0.03636916 0.01863824
vn 0.9986386 -0.05098746 0.01100971
vn 0.7817286 -0.6234574 -0.01418649
vn 0.6245673 -0.7808236 -0.01517055
vn 0 -0.9999949 -0.003199984
vn 0 -0.9999949 -0.003199984
vn -0.6165282 -0.7870436 -0.02134048
vn -0.7781094 -0.6276969 -0.02328955
vn -0.9979737 0.06359833 -0.00189995
vn -0.9979737 0.06359833 -0.00189995
vn -0.7915575 0.6109149 0.01482258
vn -0.6217372 0.7830762 0.01530876
vn -0.002099928 0.9999658 -0.007999727
vn 0.02886753 -0.9995827 -0.00101055
vn -0.02636684 -0.9996463 -0.003476304
vn -0.6218637 -0.7820947 -0.04016564
vn -0.7824699 -0.6205677 -0.05134916
vn -0.9979737 0.06359833 -0.00189995
vn -0.9979737 0.06359833 -0.00189995
vn -0.7839406 0.6204703 -0.02130278
vn -0.6237153 0.781522 -0.01423761
vn -0.0221182 0.9997066 0.00986781
vn 0.02366533 0.9996613 0.01082156
vn 0.623634 0.7810504 0.03226135
vn 0.7830432 0.6208476 0.03730375
vn 0.9978154 0.04953213 0.0437158
vn 0.9981369 -0.04713928 0.03873921
vn 0.7909755 -0.6113872 0.02373436
vn 0.6227643 -0.7822349 0.01653043
vn 0.6356297 0.7717624 -0.01890956
vn -0.002099928 0.9999658 -0.007999727
vn 0.7925585 0.6097347 0.008638881
vn -0.002099928 0.9999658 -0.007999727
vn -0.6230856 0.7821427 0.004127654
vn -0.9979737 0.06359833 -0.00189995
vn 0.9990774 0.04058945 0.01402953
vn 0.6336681 0.7736011 0.002471761
vn -0.002099928 0.9999658 -0.007999727
vn -0.7818199 0.6234999 0.002328254
vn -0.002099928 0.9999658 -0.007999727
vn -0.3387417 0.7301368 -0.5934259
vn -0.002099928 0.9999658 -0.007999727
vn -0.3902902 0.6454026 -0.6566042
vn -0.6510202 0.5225449 0.5505629
vn -0.002099928 0.9999658 -0.007999727
vn -0.9979737 0.06359833 -0.00189995
vn -0.7629452 0.3597149 0.5371404
vn -0.9979737 0.06359833 -0.00189995
vn -0.8289433 0.2793987 0.4845507
vn -0.5309635 0.4854926 -0.694532
vn -0.9979737 0.06359833 -0.00189995
vn -0.6182311 0.7852809 0.03352722
vn -0.647301 0.7610897 -0.04175953
vn -0.7671876 0.6410618 0.02151813
vn -0.8052469 0.5895789 -0.06304076
vn -0.9979737 0.06359833 -0.00189995
vn -0.9979737 0.06359833 -0.00189995
vn -0.7858202 -0.6184539 0.00118873
vn -0.6319305 -0.7750101 0.004808634
vn -0.06324585 -0.9979821 0.00561213
vn 0.009269639 -0.9998872 0.0118193
vn 0.3387293 -0.7301443 0.5934237
vn 0.05690214 -0.9981083 0.02328191
vn 0.3902955 -0.6454104 0.6565933
vn 0.6510016 -0.522536 -0.5505936
vn 0.02648961 -0.9996233 0.007183788
vn 0.9944434 -0.09803928 -0.03835038
vn 0.7629316 -0.3597127 -0.5371612
vn 0.9986029 -0.05090282 0.01417923
vn 0.8289489 -0.2793903 -0.484546
vn 0.5309937 -0.4854908 0.6945102
vn 0.9965251 -0.05075644 0.06604207
vn 0.6182326 -0.7852799 -0.03352522
vn 0.6380036 -0.7668408 0.07004663
vn 0.7671815 -0.6410691 -0.0215177
vn 0.7949574 -0.5988165 0.09727054
vn -0.9979737 0.06359833 -0.00189995
vn -0.9979737 0.06359833 -0.00189995
vn 0.6313195 0.7752305 0.02129469
vn 0.6336681 0.7736011 0.002471761
vn 0.7817286 -0.6234574 -0.01418649
vn 0.6182326 -0.7852799 -0.03352522
vn 0.6336681 0.7736011 0.002471761
vn 0.6356297 0.7717624 -0.01890956
vn 0.6313195 0.7752305 0.02129469
vn 0.9990774 0.04058945 0.01402953
vn 0.9991646 0.03636916 0.01863824
vn -0.6217372 0.7830762 0.01530876
vn -0.647301 0.7610897 -0.04175953
vn 0.02366533 0.9996613 0.01082156
vn -0.7839406 0.6204703 -0.02130278
vn -0.6230856 0.7821427 0.004127654
vn -0.002099928 0.9999658 -0.007999727
vn -0.5878671 0.6379375 0.4974415
vn -0.002099928 0.9999658 -0.007999727
vn -0.647301 0.7610897 -0.04175953
vn -0.9979737 0.06359833 -0.00189995
vn -0.9979737 0.06359833 -0.00189995
vn -0.7107949 0.3837826 -0.5894755
vn -0.9979737 0.06359833 -0.00189995
vn -0.9979737 0.06359833 -0.00189995
vn -0.8052469 0.5895789 -0.06304076
vn -0.6510202 0.5225449 0.5505629
vn -0.6182311 0.7852809 0.03352722
vn -0.8052469 0.5895789 -0.06304076
vn -0.5309635 0.4854926 -0.694532
vn -0.002099928 0.9999658 -0.007999727
vn 0.9978154 0.04953213 0.0437158
vn -0.002099928 0.9999658 -0.007999727
vn -0.7107949 0.3837826 -0.5894755
vn -0.3387417 0.7301368 -0.5934259
vn -0.3902902 0.6454026 -0.6566042
vn -0.5309635 0.4854926 -0.694532
vn -0.6182311 0.7852809 0.03352722
vn -0.7671876 0.6410618 0.02151813
vn -0.6182311 0.7852809 0.03352722
vn -0.5878671 0.6379375 0.4974415
vn -0.7781094 -0.6276969 -0.02328955
vn 0.009269639 -0.9998872 0.0118193
vn 0.5878608 -0.6379235 -0.4974671
vn 0.009269639 -0.9998872 0.0118193
vn 0.02648961 -0.9996233 0.007183788
vn 0.6182326 -0.7852799 -0.03352522
vn 0.9944434 -0.09803928 -0.03835038
vn 0.7671815 -0.6410691 -0.0215177
vn 0.9986029 -0.05090282 0.01417923
vn 0.7108337 -0.3837721 0.5894357
vn 0.9986029 -0.05090282 0.01417923
vn 0.9965251 -0.05075644 0.06604207
vn 0.6510016 -0.522536 -0.5505936
vn 0.6182326 -0.7852799 -0.03352522
vn 0.7671815 -0.6410691 -0.0215177
vn 0.7629316 -0.3597127 -0.5371612
vn 0.5309937 -0.4854908 0.6945102
vn 0.7949574 -0.5988165 0.09727054
vn 0.7108337 -0.3837721 0.5894357
vn 0.05690214 -0.9981083 0.02328191
vn 0.6380036 -0.7668408 0.07004663
vn 0.7949574 -0.5988165 0.09727054
vn 0.6227643 -0.7822349 0.01653043
vn 0.6380036 -0.7668408 0.07004663
vn 0.8289489 -0.2793903 -0.484546
g m_mine_trusslarge_02_0
f 62/62/62 61/61/61 20/20/20
f 19/19/19 62/62/62 20/20/20
f 20/20/20 61/61/61 21/21/21
f 61/61/61 60/60/60 21/21/21
f 62/62/62 19/19/19 63/63/63
f 19/19/19 18/18/18 63/63/63
f 61/61/61 121/121/121 60/60/60
f 63/63/63 9/9/9 62/62/62
f 9/9/9 63/63/63 64/64/64
f 64/64/64 69/69/69 9/9/9
f 69/69/69 8/8/8 9/9/9
f 8/8/8 69/69/69 7/7/7
f 69/69/69 85/85/85 7/7/7
f 7/7/7 85/85/85 84/84/84
f 9/9/9 10/10/10 62/62/62
f 10/10/10 121/121/121 61/61/61
f 62/62/62 10/10/10 61/61/61
f 140/140/140 63/63/63 18/18/18
f 140/140/140 64/64/64 63/63/63
f 140/140/140 18/18/18 17/17/17
f 140/140/140 17/17/17 32/32/32
f 141/141/141 140/140/140 32/32/32
f 22/22/22 59/59/59 38/38/38
f 80/80/80 59/59/59 22/22/22
f 81/81/81 59/59/59 80/80/80
f 38/38/38 59/59/59 51/51/51
f 51/51/51 49/49/49 38/38/38
f 59/59/59 81/81/81 12/12/12
f 12/12/12 51/51/51 59/59/59
f 12/12/12 13/13/13 51/51/51
f 13/13/13 54/54/54 51/51/51
f 58/58/58 54/54/54 13/13/13
f 14/14/14 58/58/58 13/13/13
f 56/56/56 58/58/58 14/14/14
f 15/15/15 56/56/56 14/14/14
f 38/38/38 42/42/42 22/22/22
f 42/42/42 38/38/38 49/49/49
f 42/42/42 23/23/23 22/22/22
f 42/42/42 95/95/95 23/23/23
f 118/118/118 42/42/42 49/49/49
f 95/95/95 42/42/42 118/118/118
f 119/119/119 95/95/95 118/118/118
f 11/11/11 12/12/12 81/81/81
f 41/41/41 36/36/36 26/26/26
f 25/25/25 41/41/41 26/26/26
f 36/36/36 86/86/86 26/26/26
f 87/87/87 86/86/86 36/36/36
f 36/36/36 34/34/34 87/87/87
f 34/34/34 1/1/1 87/87/87
f 1/1/1 88/88/88 87/87/87
f 41/41/41 25/25/25 24/24/24
f 37/37/37 41/41/41 24/24/24
f 37/37/37 24/24/24 94/94/94
f 34/34/34 36/36/36 110/110/110
f 110/110/110 45/45/45 34/34/34
f 45/45/45 16/16/16 34/34/34
f 16/16/16 1/1/1 34/34/34
f 16/16/16 45/45/45 91/91/91
f 45/45/45 92/92/92 91/91/91
f 36/36/36 41/41/41 112/112/112
f 110/110/110 36/36/36 112/112/112
f 41/41/41 37/37/37 117/117/117
f 112/112/112 41/41/41 117/117/117
f 5/5/5 70/70/70 72/72/72
f 72/72/72 4/4/4 5/5/5
f 72/72/72 39/39/39 4/4/4
f 78/78/78 70/70/70 5/5/5
f 6/6/6 78/78/78 5/5/5
f 76/76/76 78/78/78 6/6/6
f 39/39/39 72/72/72 75/75/75
f 39/39/39 75/75/75 30/30/30
f 39/39/39 30/30/30 111/111/111
f 75/75/75 142/142/142 30/30/30
f 142/142/142 31/31/31 30/30/30
f 142/142/142 144/144/144 31/31/31
f 144/144/144 143/143/143 31/31/31
f 2/2/2 3/3/3 35/35/35
f 35/35/35 40/40/40 2/2/2
f 89/89/89 35/35/35 3/3/3
f 90/90/90 89/89/89 3/3/3
f 35/35/35 89/89/89 28/28/28
f 89/89/89 29/29/29 28/28/28
f 35/35/35 28/28/28 27/27/27
f 40/40/40 35/35/35 27/27/27
f 40/40/40 27/27/27 93/93/93
f 83/83/83 33/33/33 82/82/82
f 46/46/46 96/96/96 43/43/43
f 44/44/44 46/46/46 43/43/43
f 46/46/46 99/99/99 96/96/96
f 46/46/46 109/109/109 99/99/99
f 109/109/109 108/108/108 99/99/99
f 48/48/48 47/47/47 97/97/97
f 98/98/98 48/48/48 97/97/97
f 48/48/48 55/55/55 47/47/47
f 50/50/50 57/57/57 100/100/100
f 100/100/100 101/101/101 50/50/50
f 101/101/101 52/52/52 50/50/50
f 57/57/57 50/50/50 106/106/106
f 106/106/106 50/50/50 52/52/52
f 107/107/107 57/57/57 106/106/106
f 120/120/120 106/106/106 52/52/52
f 103/103/103 53/53/53 102/102/102
f 104/104/104 103/103/103 102/102/102
f 103/103/103 105/105/105 53/53/53
f 115/115/115 114/114/114 113/113/113
f 116/116/116 115/115/115 113/113/113
f 67/67/67 65/65/65 122/122/122
f 66/66/66 67/67/67 122/122/122
f 77/77/77 67/67/67 66/66/66
f 137/137/137 67/67/67 77/77/77
f 138/138/138 137/137/137 77/77/77
f 67/67/67 137/137/137 139/139/139
f 65/65/65 67/67/67 139/139/139
f 125/125/125 124/124/124 123/123/123
f 68/68/68 125/125/125 123/123/123
f 126/126/126 125/125/125 68/68/68
f 68/68/68 123/123/123 145/145/145
f 136/136/136 68/68/68 145/145/145
f 136/136/136 135/135/135 68/68/68
f 128/128/128 71/71/71 127/127/127
f 129/129/129 127/127/127 71/71/71
f 73/73/73 129/129/129 71/71/71
f 128/128/128 134/134/134 133/133/133
f 132/132/132 131/131/131 130/130/130
f 74/74/74 132/132/132 130/130/130
f 79/79/79 132/132/132 74/74/74
