g m_Page_08
v -0.1286629 0.05756737 0.8670366
v -0.1286629 0.05756737 1.701811
v -0.1715707 0.05756737 1.701811
v -0.1715707 0.05756737 0.8670366
v -0.2221502 0.05756737 0.8670366
v -0.2221502 0.05756737 1.701811
v -0.2720904 0.05756738 1.701811
v -0.2720904 0.05756738 0.8670366
v -0.3210506 0.05756738 0.8670366
v -0.3210506 0.05756738 1.701811
v -0.3671267 0.05756738 1.701811
v -0.3671267 0.05756738 0.8670366
v -0.4162087 0.05756738 0.8670366
v -0.4162087 0.05756738 1.701811
v -0.454584 0.05756737 1.701811
v -0.454584 0.05756737 0.8670366
v -0.5035198 0.05756737 0.8670366
v -0.5035198 0.05756737 1.701811
v -0.5341839 0.05756737 1.701811
v -0.5341839 0.05756737 0.8670366
v -0.5832961 0.05756738 0.8670366
v -0.5832961 0.05756738 1.701811
v -0.6043737 0.05756737 1.701811
v -0.6043737 0.05756737 0.8670366
v -0.6535308 0.05756738 0.8670366
v -0.6535308 0.05756738 1.701811
v -0.6833853 0.05756738 1.701811
v -0.6833853 0.05756738 0.8670366
v -0.0918856 0.05756738 1.701811
v -0.0918856 0.05756738 0.8670366
vt 0.7475656 0.02286754
vt 0.7475656 0.3259009
vt 0.7633948 0.3259009
vt 0.7633948 0.02286751
vt 0.7820544 0.02286751
vt 0.7820544 0.3259008
vt 0.8004778 0.3259009
vt 0.8004778 0.02286748
vt 0.8185399 0.02286754
vt 0.8185399 0.3259009
vt 0.835538 0.3259009
vt 0.835538 0.0228675
vt 0.8536451 0.02286754
vt 0.8536451 0.3259009
vt 0.8678022 0.3259009
vt 0.8678022 0.02286754
vt 0.8858551 0.02286754
vt 0.8858551 0.3259009
vt 0.8971676 0.3259009
vt 0.8971676 0.02286748
vt 0.9152858 0.02286751
vt 0.9152858 0.3259009
vt 0.9230615 0.3259009
vt 0.9230615 0.02286754
vt 0.9411962 0.02286754
vt 0.9411962 0.3259009
vt 0.9522101 0.3259009
vt 0.9522101 0.02286748
vt 0.7339979 0.3259009
vt 0.7339979 0.02286748
vn 0.330689 0.9437398 0
vn 0.330689 0.9437398 0
vn 0.2363441 0.9716694 0
vn 0.2363441 0.9716694 0
vn 0.1637459 0.9865025 0
vn 0.1637459 0.9865025 0
vn 0.09540299 0.9954388 0
vn 0.09540299 0.9954388 0
vn 0.03272701 0.9994643 0
vn 0.03272701 0.9994643 0
vn -0.03367699 0.9994327 0
vn -0.03367699 0.9994327 0
vn -0.09382696 0.9955885 0
vn -0.09382696 0.9955885 0
vn -0.113745 0.9935099 0
vn -0.113745 0.9935099 0
vn -0.08956797 0.9959807 0
vn -0.08956797 0.9959807 0
vn -0.06129399 0.9981198 0
vn -0.06129399 0.9981198 0
vn -0.04993198 0.9987526 0
vn -0.04993198 0.9987526 0
vn -0.03575499 0.9993606 0
vn -0.03575499 0.9993606 0
vn -0.03327601 0.9994462 0
vn -0.03327601 0.9994462 0
vn -0.03099901 0.9995193 0
vn -0.03099901 0.9995193 0
vn 0.388386 0.9214969 0
vn 0.388386 0.9214969 0
g m_Page_08_0
f 3/3/3 2/2/2 1/1/1
f 4/4/4 3/3/3 1/1/1
f 4/4/4 5/5/5 3/3/3
f 5/5/5 6/6/6 3/3/3
f 7/7/7 6/6/6 5/5/5
f 8/8/8 7/7/7 5/5/5
f 8/8/8 9/9/9 7/7/7
f 9/9/9 10/10/10 7/7/7
f 11/11/11 10/10/10 9/9/9
f 12/12/12 11/11/11 9/9/9
f 12/12/12 13/13/13 11/11/11
f 13/13/13 14/14/14 11/11/11
f 15/15/15 14/14/14 13/13/13
f 16/16/16 15/15/15 13/13/13
f 16/16/16 17/17/17 15/15/15
f 17/17/17 18/18/18 15/15/15
f 19/19/19 18/18/18 17/17/17
f 20/20/20 19/19/19 17/17/17
f 20/20/20 21/21/21 19/19/19
f 21/21/21 22/22/22 19/19/19
f 23/23/23 22/22/22 21/21/21
f 24/24/24 23/23/23 21/21/21
f 24/24/24 25/25/25 23/23/23
f 25/25/25 26/26/26 23/23/23
f 27/27/27 26/26/26 25/25/25
f 28/28/28 27/27/27 25/25/25
f 1/1/1 2/2/2 29/29/29
f 30/30/30 1/1/1 29/29/29
