g m_Page_03
v 0.03819733 0.05756737 3.440309
v 0.08110504 0.05756737 3.440309
v 0.08110504 0.05756737 2.605534
v 0.03819733 0.05756737 2.605534
v 0.1316846 0.05756737 3.440309
v 0.1816248 0.05756738 3.440309
v 0.1816248 0.05756738 2.605534
v 0.1316846 0.05756737 2.605534
v 0.230585 0.05756738 3.440309
v 0.2766611 0.05756738 3.440309
v 0.2766611 0.05756738 2.605534
v 0.230585 0.05756738 2.605534
v 0.3257431 0.05756738 3.440309
v 0.3641184 0.05756737 3.440309
v 0.3641184 0.05756737 2.605534
v 0.3257431 0.05756738 2.605534
v 0.4130542 0.05756737 3.440309
v 0.4437183 0.05756737 3.440309
v 0.4437183 0.05756737 2.605534
v 0.4130542 0.05756737 2.605534
v 0.4928305 0.05756738 3.440309
v 0.5139081 0.05756737 3.440309
v 0.5139081 0.05756737 2.605534
v 0.4928305 0.05756738 2.605534
v 0.5630652 0.05756738 3.440309
v 0.5929196 0.05756738 3.440309
v 0.5929196 0.05756738 2.605534
v 0.5630652 0.05756738 2.605534
v 0.00141998 0.05756738 3.440309
v 0.00141998 0.05756738 2.605534
vt 0.7024289 0.9803367
vt 0.6865884 0.9803367
vt 0.6865883 0.6764612
vt 0.7024289 0.6764612
vt 0.6679156 0.9803367
vt 0.6494788 0.9803367
vt 0.6494788 0.6764612
vt 0.6679156 0.6764612
vt 0.6314037 0.9803367
vt 0.6143936 0.9803367
vt 0.6143935 0.6764612
vt 0.6314037 0.6764612
vt 0.5962735 0.9803367
vt 0.5821062 0.9803367
vt 0.5821062 0.6764612
vt 0.5962735 0.6764612
vt 0.5640402 0.9803367
vt 0.5527198 0.9803367
vt 0.5527198 0.6764612
vt 0.5640402 0.6764613
vt 0.5345886 0.9803367
vt 0.5268073 0.9803367
vt 0.5268073 0.6764612
vt 0.5345886 0.6764612
vt 0.5086596 0.9803367
vt 0.497638 0.9803367
vt 0.497638 0.6764612
vt 0.5086596 0.6764612
vt 0.7160063 0.9803367
vt 0.7160063 0.6764612
vn 0 1 0
vn 0 1 0
vn 0 1 0
vn 0 1 0
vn 0 1 0
vn 0 1 0
vn 0 1 0
vn 0 1 0
vn 0 1 0
vn 0 1 0
vn 0 1 0
vn 0 1 0
vn 0 1 0
vn 0 1 0
vn 0 1 0
vn 0 1 0
vn 0 1 0
vn 0 1 0
vn 0 1 0
vn 0 1 0
vn 0 1 0
vn 0 1 0
vn 0 1 0
vn 0 1 0
vn 0 1 0
vn 0 1 0
vn 0 1 0
vn 0 1 0
vn 0 1 0
vn 0 1 0
g m_Page_03_0
f 4/4/4 1/1/1 2/2/2
f 2/2/2 3/3/3 4/4/4
f 8/8/8 3/3/3 2/2/2
f 8/8/8 2/2/2 5/5/5
f 8/8/8 5/5/5 6/6/6
f 6/6/6 7/7/7 8/8/8
f 12/12/12 7/7/7 6/6/6
f 12/12/12 6/6/6 9/9/9
f 12/12/12 9/9/9 10/10/10
f 10/10/10 11/11/11 12/12/12
f 16/16/16 11/11/11 10/10/10
f 16/16/16 10/10/10 13/13/13
f 16/16/16 13/13/13 14/14/14
f 14/14/14 15/15/15 16/16/16
f 20/20/20 15/15/15 14/14/14
f 20/20/20 14/14/14 17/17/17
f 20/20/20 17/17/17 18/18/18
f 18/18/18 19/19/19 20/20/20
f 24/24/24 19/19/19 18/18/18
f 24/24/24 18/18/18 21/21/21
f 24/24/24 21/21/21 22/22/22
f 22/22/22 23/23/23 24/24/24
f 28/28/28 23/23/23 22/22/22
f 22/22/22 25/25/25 28/28/28
f 28/28/28 25/25/25 26/26/26
f 26/26/26 27/27/27 28/28/28
f 4/4/4 29/29/29 1/1/1
f 4/4/4 30/30/30 29/29/29
