g m_Page_12_Fin
v 0.03819733 0.05756737 1.743959
v 0.08110504 0.05756737 1.743959
v 0.08110504 0.05756737 2.578733
v 0.03819733 0.05756737 2.578733
v 0.1316846 0.05756737 1.743959
v 0.1316846 0.05756737 2.578733
v 0.1816248 0.05756738 2.578733
v 0.1816248 0.05756738 1.743959
v 0.230585 0.05756738 1.743959
v 0.230585 0.05756738 2.578733
v 0.2766611 0.05756738 2.578733
v 0.2766611 0.05756738 1.743959
v 0.3257431 0.05756738 1.743959
v 0.3257431 0.05756738 2.578733
v 0.3641184 0.05756737 2.578733
v 0.3641184 0.05756737 1.743959
v 0.4130542 0.05756737 1.743959
v 0.4130542 0.05756737 2.578733
v 0.4437183 0.05756737 2.578733
v 0.4437183 0.05756737 1.743959
v 0.4928305 0.05756738 1.743959
v 0.4928305 0.05756738 2.578733
v 0.5139081 0.05756737 2.578733
v 0.5139081 0.05756737 1.743959
v 0.5630652 0.05756738 1.743959
v 0.5630652 0.05756738 2.578733
v 0.5929196 0.05756738 2.578733
v 0.5929196 0.05756738 1.743959
v 0.00141998 0.05756738 2.578733
v 0.00141998 0.05756738 1.743959
vt 0.7002943 0.3485706
vt 0.6847986 0.3485707
vt 0.6847986 0.6500423
vt 0.7002943 0.6500423
vt 0.6665322 0.3485706
vt 0.6665322 0.6500423
vt 0.6484968 0.6500423
vt 0.6484968 0.3485707
vt 0.6308151 0.3485707
vt 0.6308151 0.6500423
vt 0.6141751 0.6500423
vt 0.6141751 0.3485708
vt 0.5964496 0.3485707
vt 0.5964496 0.6500423
vt 0.5825906 0.6500423
vt 0.5825906 0.3485707
vt 0.5649179 0.3485707
vt 0.5649179 0.6500423
vt 0.5538439 0.6500423
vt 0.5538439 0.3485707
vt 0.5361074 0.3485708
vt 0.5361074 0.6500423
vt 0.5284955 0.6500423
vt 0.5284955 0.3485707
vt 0.5107428 0.3485707
vt 0.5107428 0.6500423
vt 0.4999612 0.6500423
vt 0.4999612 0.3485708
vt 0.7135761 0.6500423
vt 0.7135761 0.3485707
vn -0.330689 0.9437398 0
vn -0.2363441 0.9716694 0
vn -0.2363441 0.9716694 0
vn -0.330689 0.9437398 0
vn -0.1637459 0.9865025 0
vn -0.1637459 0.9865025 0
vn -0.09540299 0.9954388 0
vn -0.09540299 0.9954388 0
vn -0.03272701 0.9994643 0
vn -0.03272701 0.9994643 0
vn 0.03367699 0.9994327 0
vn 0.03367699 0.9994327 0
vn 0.09382696 0.9955885 0
vn 0.09382696 0.9955885 0
vn 0.113745 0.9935099 0
vn 0.113745 0.9935099 0
vn 0.08956797 0.9959807 0
vn 0.08956797 0.9959807 0
vn 0.06129399 0.9981198 0
vn 0.06129399 0.9981198 0
vn 0.04993198 0.9987526 0
vn 0.04993198 0.9987526 0
vn 0.03575499 0.9993606 0
vn 0.03575499 0.9993606 0
vn 0.03327601 0.9994462 0
vn 0.03327601 0.9994462 0
vn 0.03099901 0.9995193 0
vn 0.03099901 0.9995193 0
vn -0.388386 0.9214969 0
vn -0.388386 0.9214969 0
g m_Page_12_Fin_0
f 3/3/3 2/2/2 1/1/1
f 4/4/4 3/3/3 1/1/1
f 5/5/5 2/2/2 3/3/3
f 6/6/6 5/5/5 3/3/3
f 6/6/6 7/7/7 5/5/5
f 7/7/7 8/8/8 5/5/5
f 9/9/9 8/8/8 7/7/7
f 10/10/10 9/9/9 7/7/7
f 10/10/10 11/11/11 9/9/9
f 11/11/11 12/12/12 9/9/9
f 13/13/13 12/12/12 11/11/11
f 14/14/14 13/13/13 11/11/11
f 14/14/14 15/15/15 13/13/13
f 15/15/15 16/16/16 13/13/13
f 17/17/17 16/16/16 15/15/15
f 18/18/18 17/17/17 15/15/15
f 18/18/18 19/19/19 17/17/17
f 19/19/19 20/20/20 17/17/17
f 21/21/21 20/20/20 19/19/19
f 22/22/22 21/21/21 19/19/19
f 22/22/22 23/23/23 21/21/21
f 23/23/23 24/24/24 21/21/21
f 25/25/25 24/24/24 23/23/23
f 26/26/26 25/25/25 23/23/23
f 26/26/26 27/27/27 25/25/25
f 27/27/27 28/28/28 25/25/25
f 1/1/1 30/30/30 29/29/29
f 4/4/4 1/1/1 29/29/29
