g m_Page_02
v 1.209739 0.05756737 3.440309
v 1.166831 0.05756737 3.440309
v 1.166831 0.05756737 2.605534
v 1.209739 0.05756737 2.605534
v 1.116251 0.05756737 3.440309
v 1.066311 0.05756738 3.440309
v 1.066311 0.05756738 2.605534
v 1.116251 0.05756737 2.605534
v 1.017351 0.05756738 3.440309
v 0.9712749 0.05756738 3.440309
v 0.9712749 0.05756738 2.605534
v 1.017351 0.05756738 2.605534
v 0.9221928 0.05756738 3.440309
v 0.8838176 0.05756737 3.440309
v 0.8838176 0.05756737 2.605534
v 0.9221928 0.05756738 2.605534
v 0.8348817 0.05756737 3.440309
v 0.8042176 0.05756737 3.440309
v 0.8042176 0.05756737 2.605534
v 0.8348817 0.05756737 2.605534
v 0.7551054 0.05756738 3.440309
v 0.7340279 0.05756737 3.440309
v 0.7340279 0.05756737 2.605534
v 0.7551054 0.05756738 2.605534
v 0.6848707 0.05756738 3.440309
v 0.6550163 0.05756738 3.440309
v 0.6550163 0.05756738 2.605534
v 0.6848707 0.05756738 2.605534
v 1.246516 0.05756738 3.440309
v 1.246516 0.05756738 2.605534
vt 0.273517 0.9796218
vt 0.2893462 0.9796218
vt 0.289346 0.6764793
vt 0.2735168 0.6764793
vt 0.3080057 0.9796218
vt 0.3264292 0.9796218
vt 0.3264291 0.6764793
vt 0.3080055 0.6764793
vt 0.3444913 0.9796218
vt 0.3614894 0.9796218
vt 0.3614893 0.6764793
vt 0.3444913 0.6764793
vt 0.3795964 0.9796218
vt 0.3937536 0.9796218
vt 0.3937533 0.6764793
vt 0.3795962 0.6764793
vt 0.4118065 0.9796218
vt 0.423119 0.9796218
vt 0.4231189 0.6764793
vt 0.4118065 0.6764793
vt 0.4412372 0.9796218
vt 0.4490128 0.9796218
vt 0.4490128 0.6764793
vt 0.4412371 0.6764793
vt 0.4671476 0.9796218
vt 0.4781614 0.9796218
vt 0.4781612 0.6764793
vt 0.4671476 0.6764793
vt 0.2599493 0.9796218
vt 0.2599492 0.6764793
vn 0 1 0
vn 0 1 0
vn 0 1 0
vn 0 1 0
vn 0 1 0
vn 0 1 0
vn 0 1 0
vn 0 1 0
vn 0 1 0
vn 0 1 0
vn 0 1 0
vn 0 1 0
vn 0 1 0
vn 0 1 0
vn 0 1 0
vn 0 1 0
vn 0 1 0
vn 0 1 0
vn 0 1 0
vn 0 1 0
vn 0 1 0
vn 0 1 0
vn 0 1 0
vn 0 1 0
vn 0 1 0
vn 0 1 0
vn 0 1 0
vn 0 1 0
vn 0 1 0
vn 0 1 0
g m_Page_02_0
f 4/4/4 2/2/2 1/1/1
f 4/4/4 3/3/3 2/2/2
f 3/3/3 8/8/8 2/2/2
f 5/5/5 2/2/2 8/8/8
f 8/8/8 6/6/6 5/5/5
f 8/8/8 7/7/7 6/6/6
f 7/7/7 12/12/12 6/6/6
f 9/9/9 6/6/6 12/12/12
f 12/12/12 10/10/10 9/9/9
f 12/12/12 11/11/11 10/10/10
f 11/11/11 16/16/16 10/10/10
f 13/13/13 10/10/10 16/16/16
f 16/16/16 14/14/14 13/13/13
f 16/16/16 15/15/15 14/14/14
f 15/15/15 20/20/20 14/14/14
f 17/17/17 14/14/14 20/20/20
f 20/20/20 18/18/18 17/17/17
f 20/20/20 19/19/19 18/18/18
f 19/19/19 24/24/24 18/18/18
f 21/21/21 18/18/18 24/24/24
f 24/24/24 22/22/22 21/21/21
f 24/24/24 23/23/23 22/22/22
f 23/23/23 28/28/28 22/22/22
f 25/25/25 22/22/22 28/28/28
f 28/28/28 26/26/26 25/25/25
f 28/28/28 27/27/27 26/26/26
f 1/1/1 29/29/29 4/4/4
f 30/30/30 4/4/4 29/29/29
