g m_plated_burrito_chicken_01
v 0.04888794 0.09260774 0.04717034
v -0.06245483 0.07950106 0.02346063
v -0.07004517 0.08846175 0.04709283
v 0.04393188 0.1017186 0.07154839
v 0.05841675 0.1527258 -0.0738703
v 0.06336792 0.1136275 0.05449761
v 0.06998779 0.1713672 -0.06266975
v -0.03460937 0.1406815 -0.09258918
v -0.05362793 0.155417 -0.08773627
v -0.08240966 0.09609666 0.02394158
v -0.04916016 0.1841951 -0.1107465
v -0.02943359 0.1777669 -0.1224372
v 0.05756836 0.1894281 -0.1052906
v 0.06998779 0.1713672 -0.06266975
v 0.06878296 0.199732 -0.08705695
v -0.1023437 0.2009285 0.06575555
v -0.05188232 0.217709 -0.1103028
v -0.07060669 0.2442014 -0.05234015
v -0.05806152 0.2631876 -0.04377143
v -0.08887085 0.2186173 0.07895623
v -0.04514526 0.2595965 -0.08984015
v -0.06013549 0.2414777 -0.08791571
v 0.02015259 0.2313847 0.1023797
v 0.02209595 0.2075148 0.1135552
v -0.09085083 0.1950626 0.08938409
v 0.03308105 0.2749432 -0.02523994
v 0.05136719 0.2598752 -0.0273841
v 0.04139404 0.2181212 0.09615532
v 0.0567688 0.2568376 -0.064289
v 0.04064331 0.2710683 -0.07280524
v 0.06356079 0.2330236 -0.08714179
v 0.04064331 0.2710683 -0.07280524
v 0.05049682 0.2370469 -0.1054047
v 0.06878296 0.199732 -0.08705695
v 0.05756836 0.1894281 -0.1052906
v -0.03361328 0.2256109 -0.1218806
v -0.04514526 0.2595965 -0.08984015
v -0.06013549 0.2414777 -0.08791571
v -0.05188232 0.217709 -0.1103028
v -0.02943359 0.1777669 -0.1224372
v -0.05188232 0.217709 -0.1103028
v -0.04916016 0.1841951 -0.1107465
v 0.06998779 0.1713672 -0.06266975
v 0.06336792 0.1136275 0.05449761
v 0.04393188 0.1017186 0.07154839
v 0.02209595 0.2075148 0.1135552
v -0.07004517 0.08846175 0.04709283
v -0.09085083 0.1950626 0.08938409
v -0.08240966 0.09609666 0.02394158
v -0.1023437 0.2009285 0.06575555
v 0.08567139 0.1069119 0.3699243
v -0.01121704 0.1363221 0.3927106
v -0.003896484 0.1541127 0.4068988
v 0.09533935 0.1239533 0.3837768
v 0.04890991 0.1049799 0.2528631
v 0.1043762 0.1185333 0.3602527
v 0.06675537 0.1174327 0.2479272
v -0.03176514 0.1291337 0.2732074
v -0.04052734 0.1495015 0.2748047
v -0.02233032 0.1569369 0.3906116
v -0.04183594 0.1605797 0.2430896
v -0.03397583 0.1435889 0.2323791
v 0.04138916 0.1211638 0.2129022
v 0.06675537 0.1174327 0.2479272
v 0.0604834 0.1301359 0.2171332
v 0.004741211 0.2556109 0.3731128
v -0.03651245 0.186157 0.2274329
v -0.02711304 0.214527 0.2335437
v -0.01767944 0.2331065 0.2600018
v -0.0002685547 0.2444958 0.2527795
v 0.02473999 0.2672541 0.3694873
v -0.01297974 0.2206613 0.2187329
v 0.119696 0.2384808 0.3473511
v 0.1212878 0.2241963 0.3664923
v 0.02312378 0.2545994 0.3891028
v 0.07885376 0.2208636 0.2329993
v 0.08826782 0.2014916 0.2336707
v 0.1297852 0.2177695 0.3434112
v 0.07436524 0.1843714 0.2079321
v 0.06139038 0.1985732 0.199632
v 0.06364868 0.156426 0.2019556
v 0.06139038 0.1985732 0.199632
v 0.04621338 0.1586038 0.1910815
v 0.0604834 0.1301359 0.2171332
v 0.04138916 0.1211638 0.2129022
v -0.02663086 0.1802005 0.2100616
v -0.01297974 0.2206613 0.2187329
v -0.02711304 0.214527 0.2335437
v -0.03651245 0.186157 0.2274329
v -0.03397583 0.1435889 0.2323791
v -0.03651245 0.186157 0.2274329
v -0.04183594 0.1605797 0.2430896
v 0.1043762 0.1185333 0.3602527
v 0.09533935 0.1239533 0.3837768
v 0.1212878 0.2241963 0.3664923
v -0.003896484 0.1541127 0.4068988
v 0.02312378 0.2545994 0.3891028
v -0.02233032 0.1569369 0.3906116
v 0.004741211 0.2556109 0.3731128
v 0.06675537 0.1174327 0.2479272
v -0.08119506 0.2547913 -0.3380023
v -0.08678955 0.153275 -0.3419745
v -0.07738159 0.1522944 -0.3634118
v -0.07178833 0.2562454 -0.3595129
v -0.03375 0.2399629 -0.2284534
v -0.06319824 0.2698877 -0.3400506
v -0.01750732 0.2532733 -0.2345874
v -0.03934448 0.1553247 -0.2327716
v -0.02490478 0.140766 -0.2401514
v -0.0708313 0.1370609 -0.3456891
v -0.000703125 0.1411117 -0.217785
v -0.008126221 0.1552298 -0.2039026
v -0.002559814 0.2343292 -0.1995343
v -0.01750732 0.2532733 -0.2345874
v 0.006624756 0.2484247 -0.212262
v 0.05621094 0.1383038 -0.2692035
v 0.02493897 0.1342574 -0.3799823
v 0.07258178 0.1519028 -0.272843
v 0.04029907 0.1495855 -0.3874798
v 0.06663818 0.1529012 -0.2306695
v 0.05163208 0.1395054 -0.2365283
v 0.04572998 0.2490299 -0.3837799
v 0.0249646 0.2518947 -0.3943225
v 0.0200293 0.1489339 -0.3982031
v 0.07803223 0.2348661 -0.2687799
v 0.06346069 0.2493638 -0.2639038
v 0.0323938 0.2652798 -0.3746625
v 0.05886963 0.2459016 -0.2311804
v 0.07211182 0.2309245 -0.2264716
v -0.06319824 0.2698877 -0.3400506
v -0.07178833 0.2562454 -0.3595129
v 0.0249646 0.2518947 -0.3943225
v -0.07738159 0.1522944 -0.3634118
v 0.0200293 0.1489339 -0.3982031
v -0.0708313 0.1370609 -0.3456891
v 0.02493897 0.1342574 -0.3799823
v -0.01750732 0.2532733 -0.2345874
v 0.006624756 0.2484247 -0.212262
v 0.03640503 0.2456091 -0.2114178
v 0.07211182 0.2309245 -0.2264716
v 0.04000976 0.2306438 -0.1982519
v -0.002559814 0.2343292 -0.1995343
v 0.03448364 0.1541877 -0.2025726
v 0.06663818 0.1529012 -0.2306695
v 0.05163208 0.1395054 -0.2365283
v 0.02913452 0.1405711 -0.2168549
v -0.008126221 0.1552298 -0.2039026
v 0.02913452 0.1405711 -0.2168549
v -0.000703125 0.1411117 -0.217785
v 0.02913452 0.1405711 -0.2168549
vt 0.420166 0.4697266
vt 0.4628906 0.3974609
vt 0.4545898 0.3925781
vt 0.4118652 0.4648438
vt 0.4802246 0.5058594
vt 0.4130859 0.4816895
vt 0.4714355 0.5161133
vt 0.5234375 0.4328613
vt 0.5356445 0.4069824
vt 0.4765625 0.3737793
vt 0.5571289 0.4165039
vt 0.550293 0.4489746
vt 0.5073242 0.5219727
vt 0.4741211 0.5175781
vt 0.4951172 0.5302734
vt 0.5185547 0.3024902
vt 0.5834961 0.3896484
vt 0.5766602 0.3371582
vt 0.59375 0.3134766
vt 0.5336914 0.2773438
vt 0.6210938 0.3295898
vt 0.5913086 0.3581543
vt 0.5766602 0.2053223
vt 0.5683594 0.2004395
vt 0.5253906 0.2729492
vt 0.637207 0.2406006
vt 0.6494141 0.2145996
vt 0.590332 0.1813965
vt 0.6708984 0.2242432
vt 0.6640625 0.2565918
vt 0.6972656 0.1973877
vt 0.6826172 0.2519531
vt 0.7109375 0.2037354
vt 0.7050781 0.1660156
vt 0.7397461 0.1557617
vt 0.7841797 0.2468262
vt 0.7553711 0.2949219
vt 0.7695313 0.2976074
vt 0.7895508 0.2641602
vt 0.8125 0.1988525
vt 0.8017578 0.2434082
vt 0.8217773 0.2097168
vt 0.6904297 0.1448975
vt 0.6323242 0.1101685
vt 0.612793 0.09692383
vt 0.5698242 0.1689453
vt 0.5405273 0.05432129
vt 0.4973145 0.1265869
vt 0.5283203 0.04760742
vt 0.486084 0.1188354
vt 0.420166 0.4697266
vt 0.4628906 0.3974609
vt 0.4545898 0.3925781
vt 0.4118652 0.4648438
vt 0.4802246 0.5058594
vt 0.4130859 0.4816895
vt 0.4714355 0.5161133
vt 0.5234375 0.4328613
vt 0.5356445 0.4069824
vt 0.4765625 0.3737793
vt 0.5571289 0.4165039
vt 0.550293 0.4489746
vt 0.5073242 0.5219727
vt 0.4741211 0.5175781
vt 0.4951172 0.5302734
vt 0.5185547 0.3024902
vt 0.5834961 0.3896484
vt 0.5913086 0.3581543
vt 0.5766602 0.3371582
vt 0.59375 0.3134766
vt 0.5336914 0.2773438
vt 0.6210938 0.3295898
vt 0.5766602 0.2053223
vt 0.5683594 0.2004395
vt 0.5253906 0.2729492
vt 0.637207 0.2406006
vt 0.6494141 0.2145996
vt 0.590332 0.1813965
vt 0.6708984 0.2242432
vt 0.6640625 0.2565918
vt 0.6972656 0.1973877
vt 0.6826172 0.2519531
vt 0.7109375 0.2037354
vt 0.7050781 0.1660156
vt 0.7397461 0.1557617
vt 0.7841797 0.2468262
vt 0.7553711 0.2949219
vt 0.7695313 0.2976074
vt 0.7895508 0.2641602
vt 0.8125 0.1988525
vt 0.8017578 0.2434082
vt 0.8217773 0.2097168
vt 0.6323242 0.1101685
vt 0.612793 0.09692383
vt 0.5698242 0.1689453
vt 0.5405273 0.05432129
vt 0.4973145 0.1265869
vt 0.5283203 0.04760742
vt 0.486084 0.1188354
vt 0.6904297 0.1448975
vt 0.420166 0.4697266
vt 0.4628906 0.3974609
vt 0.4545898 0.3925781
vt 0.4118652 0.4648438
vt 0.4802246 0.5058594
vt 0.4130859 0.4816895
vt 0.4714355 0.5161133
vt 0.5234375 0.4328613
vt 0.5356445 0.4069824
vt 0.4765625 0.3737793
vt 0.5571289 0.4165039
vt 0.550293 0.4489746
vt 0.5073242 0.5219727
vt 0.4741211 0.5175781
vt 0.4951172 0.5302734
vt 0.5766602 0.3371582
vt 0.5185547 0.3024902
vt 0.59375 0.3134766
vt 0.5336914 0.2773438
vt 0.6210938 0.3295898
vt 0.5913086 0.3581543
vt 0.5766602 0.2053223
vt 0.5683594 0.2004395
vt 0.5253906 0.2729492
vt 0.637207 0.2406006
vt 0.6494141 0.2145996
vt 0.590332 0.1813965
vt 0.6708984 0.2242432
vt 0.6640625 0.2565918
vt 0.6323242 0.1101685
vt 0.612793 0.09692383
vt 0.5698242 0.1689453
vt 0.5405273 0.05432129
vt 0.4973145 0.1265869
vt 0.5283203 0.04760742
vt 0.486084 0.1188354
vt 0.6904297 0.1448975
vt 0.7050781 0.1660156
vt 0.6972656 0.1973877
vt 0.6826172 0.2519531
vt 0.7109375 0.2037354
vt 0.7397461 0.1557617
vt 0.7841797 0.2468262
vt 0.7553711 0.2949219
vt 0.7695313 0.2976074
vt 0.7895508 0.2641602
vt 0.8125 0.1988525
vt 0.8017578 0.2434082
vt 0.8217773 0.2097168
vt 0.5834961 0.3896484
vn 0.3062781 -0.910556 -0.2776359
vn 0.04488696 -0.9418365 -0.3330604
vn -0.2683911 -0.5149899 0.8140955
vn 0.0242516 -0.4811794 0.8762866
vn 0.3443225 -0.8094652 -0.4756134
vn 0.9841141 0.007077104 0.1773958
vn 0.9936442 0.07513004 0.08382472
vn 0.0725048 -0.8436609 -0.531958
vn -0.9333639 -0.1478377 -0.3270718
vn -0.9479638 -0.2126517 -0.2369466
vn -0.9410819 -0.08648273 -0.3269335
vn 0.1072674 -0.350468 -0.9304116
vn 0.3432462 -0.3163084 -0.8843817
vn 0.9936442 0.07513004 0.08382472
vn 0.9869486 0.1369522 0.08471484
vn -0.9883721 -0.00159997 -0.152046
vn -0.9442694 -0.05042777 -0.325288
vn -0.9652723 0.01988591 -0.2604881
vn -0.292016 0.9406117 0.1731368
vn -0.3211538 0.8663332 0.3825269
vn -0.148323 0.8827701 -0.4457772
vn -0.9529764 -0.02420992 -0.3020759
vn -0.0668522 0.897069 0.4368042
vn -0.02029553 -0.2528526 0.9672919
vn -0.3137941 -0.2867372 0.9051602
vn -0.02733772 0.9729612 0.2293451
vn 0.9589148 0.2407733 0.1500353
vn 0.9397318 0.2200297 0.2617081
vn 0.9741344 0.1977087 0.1094243
vn 0.08223131 0.9131266 -0.3992964
vn 0.9813068 0.1721319 0.0860678
vn 0.08223131 0.9131266 -0.3992964
vn 0.23839 0.40014 -0.8849057
vn 0.9869486 0.1369522 0.08471484
vn 0.3432462 -0.3163084 -0.8843817
vn 0.0203499 0.3688439 -0.9292685
vn -0.148323 0.8827701 -0.4457772
vn -0.9529764 -0.02420992 -0.3020759
vn -0.9442694 -0.05042777 -0.325288
vn 0.1072674 -0.350468 -0.9304116
vn -0.9442694 -0.05042777 -0.325288
vn -0.9410819 -0.08648273 -0.3269335
vn 0.9936442 0.07513004 0.08382472
vn 0.9841141 0.007077104 0.1773958
vn 0.0242516 -0.4811794 0.8762866
vn -0.02029553 -0.2528526 0.9672919
vn -0.2683911 -0.5149899 0.8140955
vn -0.3137941 -0.2867372 0.9051602
vn -0.9479638 -0.2126517 -0.2369466
vn -0.9883721 -0.00159997 -0.152046
vn -0.1058059 -0.9760069 0.1903037
vn -0.3569596 -0.9000933 0.249824
vn 0.0788263 0.02112373 0.9966645
vn 0.3597714 -0.06477356 0.9307895
vn -0.1530642 -0.9877631 -0.0299212
vn 0.9032755 -0.3861594 -0.1870138
vn 0.8787621 -0.3715602 -0.2995331
vn -0.413951 -0.9096679 0.03389632
vn -0.9720365 0.193304 0.1333366
vn -0.9527048 0.1823643 0.2430985
vn -0.9638728 0.2460352 0.1020583
vn -0.4752608 -0.682108 -0.555748
vn -0.2492233 -0.7474172 -0.615837
vn 0.8787621 -0.3715602 -0.2995331
vn 0.8882623 -0.3186631 -0.3308231
vn -0.8923822 0.4021118 0.2048413
vn -0.9571593 0.2769758 0.08444285
vn -0.9461516 0.3107812 0.09062199
vn -0.9243885 0.3675086 0.1021914
vn 0.07059245 0.9538822 -0.2917626
vn 0.1374017 0.9872397 -0.08049027
vn -0.1447476 0.6065958 -0.7817223
vn 0.3819669 0.9137685 -0.1383054
vn 0.4238963 0.1730054 0.8890338
vn 0.142258 0.2592635 0.9552723
vn 0.3250902 0.8775879 -0.3523575
vn 0.9234036 -0.1978618 -0.328902
vn 0.9604661 -0.163275 -0.225491
vn 0.904793 -0.2547531 -0.3412486
vn 0.07616896 0.5409504 -0.8375983
vn 0.8925982 -0.2873884 -0.3473849
vn 0.07616896 0.5409504 -0.8375983
vn -0.1671681 -0.1257918 -0.9778708
vn 0.8882623 -0.3186631 -0.3308231
vn -0.2492233 -0.7474172 -0.615837
vn -0.3768898 -0.06592025 -0.9239094
vn -0.1447476 0.6065958 -0.7817223
vn -0.9461516 0.3107812 0.09062199
vn -0.9571593 0.2769758 0.08444285
vn -0.4752608 -0.682108 -0.555748
vn -0.9571593 0.2769758 0.08444285
vn -0.9638728 0.2460352 0.1020583
vn 0.9032755 -0.3861594 -0.1870138
vn 0.3597714 -0.06477356 0.9307895
vn 0.4238963 0.1730054 0.8890338
vn 0.0788263 0.02112373 0.9966645
vn 0.142258 0.2592635 0.9552723
vn -0.9527048 0.1823643 0.2430985
vn -0.8923822 0.4021118 0.2048413
vn 0.8787621 -0.3715602 -0.2995331
vn -0.9421996 0.1771405 0.2843959
vn -0.9574944 -0.09127796 0.273629
vn -0.4551584 -0.09183497 -0.885662
vn -0.4392452 0.2085596 -0.873823
vn -0.8536398 0.1717221 0.4917424
vn -0.05421358 0.9964908 0.06377243
vn 0.008432167 0.9869126 0.1610354
vn -0.8711426 -0.1071731 0.4791915
vn -0.09678977 -0.9917163 0.08444278
vn -0.1560226 -0.9876977 -0.01050159
vn -0.03509913 -0.9956459 0.08635549
vn -0.4012383 -0.1419379 0.9049097
vn -0.3817415 0.09972773 0.9188731
vn 0.008432167 0.9869126 0.1610354
vn 0.07053801 0.984183 0.1625057
vn 0.07576896 -0.9968613 0.02294728
vn 0.06117729 -0.9941493 -0.08901973
vn 0.9661392 -0.1869441 -0.17784
vn 0.904213 -0.1686184 -0.3923859
vn 0.8687403 -0.2012789 0.452523
vn 0.02897483 -0.9975685 0.06338309
vn 0.9194073 0.09258455 -0.3822541
vn -0.2042512 0.2005721 -0.9581504
vn -0.2201797 -0.1006445 -0.9702534
vn 0.9823005 0.08486529 -0.1669845
vn 0.1790927 0.9788284 0.09910001
vn 0.1651399 0.9861562 -0.01500128
vn 0.1331673 0.9812477 0.1393538
vn 0.8848701 0.03500922 0.4645205
vn -0.05421358 0.9964908 0.06377243
vn -0.4392452 0.2085596 -0.873823
vn -0.2042512 0.2005721 -0.9581504
vn -0.4551584 -0.09183497 -0.885662
vn -0.2201797 -0.1006445 -0.9702534
vn -0.1560226 -0.9876977 -0.01050159
vn 0.06117729 -0.9941493 -0.08901973
vn 0.008432167 0.9869126 0.1610354
vn 0.07053801 0.984183 0.1625057
vn 0.1060566 0.9810612 0.1620833
vn 0.8848701 0.03500922 0.4645205
vn 0.3394796 0.03905499 0.9398022
vn -0.3817415 0.09972773 0.9188731
vn 0.3216242 -0.1846567 0.9286872
vn 0.8687403 -0.2012789 0.452523
vn 0.02897483 -0.9975685 0.06338309
vn 0.001128488 -0.9962692 0.08629153
vn -0.4012383 -0.1419379 0.9049097
vn 0.001128488 -0.9962692 0.08629153
vn -0.03509913 -0.9956459 0.08635549
vn 0.001128488 -0.9962692 0.08629153
g m_plated_burrito_chicken_01_0
f 3/3/3 2/2/2 1/1/1
f 4/4/4 3/3/3 1/1/1
f 5/5/5 1/1/1 2/2/2
f 1/1/1 5/5/5 6/6/6
f 6/6/6 4/4/4 1/1/1
f 5/5/5 7/7/7 6/6/6
f 8/8/8 5/5/5 2/2/2
f 9/9/9 8/8/8 2/2/2
f 10/10/10 9/9/9 2/2/2
f 10/10/10 2/2/2 3/3/3
f 9/9/9 11/11/11 8/8/8
f 11/11/11 12/12/12 8/8/8
f 8/8/8 12/12/12 13/13/13
f 5/5/5 8/8/8 13/13/13
f 5/5/5 13/13/13 14/14/14
f 13/13/13 15/15/15 14/14/14
f 9/9/9 10/10/10 16/16/16
f 16/16/16 11/11/11 9/9/9
f 16/16/16 17/17/17 11/11/11
f 16/16/16 18/18/18 17/17/17
f 19/19/19 18/18/18 16/16/16
f 20/20/20 19/19/19 16/16/16
f 19/19/19 21/21/21 18/18/18
f 21/21/21 22/22/22 18/18/18
f 18/18/18 22/22/22 17/17/17
f 19/19/19 20/20/20 23/23/23
f 23/23/23 20/20/20 24/24/24
f 20/20/20 25/25/25 24/24/24
f 20/20/20 16/16/16 25/25/25
f 26/26/26 19/19/19 23/23/23
f 21/21/21 19/19/19 26/26/26
f 27/27/27 26/26/26 23/23/23
f 28/28/28 27/27/27 23/23/23
f 28/28/28 23/23/23 24/24/24
f 27/27/27 29/29/29 26/26/26
f 29/29/29 30/30/30 26/26/26
f 30/30/30 21/21/21 26/26/26
f 31/31/31 27/27/27 28/28/28
f 31/31/31 29/29/29 27/27/27
f 29/29/29 31/31/31 32/32/32
f 31/31/31 33/33/33 32/32/32
f 31/31/31 34/34/34 33/33/33
f 34/34/34 31/31/31 28/28/28
f 34/34/34 35/35/35 33/33/33
f 33/33/33 36/36/36 32/32/32
f 36/36/36 37/37/37 32/32/32
f 37/37/37 36/36/36 38/38/38
f 36/36/36 39/39/39 38/38/38
f 40/40/40 36/36/36 33/33/33
f 35/35/35 40/40/40 33/33/33
f 36/36/36 40/40/40 41/41/41
f 40/40/40 42/42/42 41/41/41
f 43/43/43 34/34/34 28/28/28
f 28/28/28 44/44/44 43/43/43
f 44/44/44 28/28/28 45/45/45
f 28/28/28 46/46/46 45/45/45
f 45/45/45 46/46/46 47/47/47
f 46/46/46 48/48/48 47/47/47
f 49/49/49 47/47/47 48/48/48
f 50/50/50 49/49/49 48/48/48
f 53/53/53 52/52/52 51/51/51
f 54/54/54 53/53/53 51/51/51
f 55/55/55 51/51/51 52/52/52
f 51/51/51 55/55/55 56/56/56
f 56/56/56 54/54/54 51/51/51
f 55/55/55 57/57/57 56/56/56
f 58/58/58 55/55/55 52/52/52
f 59/59/59 58/58/58 52/52/52
f 60/60/60 59/59/59 52/52/52
f 60/60/60 52/52/52 53/53/53
f 59/59/59 61/61/61 58/58/58
f 61/61/61 59/59/59 60/60/60
f 61/61/61 62/62/62 58/58/58
f 58/58/58 62/62/62 63/63/63
f 55/55/55 58/58/58 63/63/63
f 55/55/55 63/63/63 64/64/64
f 63/63/63 65/65/65 64/64/64
f 60/60/60 66/66/66 61/61/61
f 66/66/66 67/67/67 61/61/61
f 66/66/66 68/68/68 67/67/67
f 66/66/66 69/69/69 68/68/68
f 70/70/70 69/69/69 66/66/66
f 71/71/71 70/70/70 66/66/66
f 72/72/72 68/68/68 69/69/69
f 70/70/70 72/72/72 69/69/69
f 70/70/70 71/71/71 73/73/73
f 73/73/73 71/71/71 74/74/74
f 71/71/71 75/75/75 74/74/74
f 71/71/71 66/66/66 75/75/75
f 76/76/76 70/70/70 73/73/73
f 72/72/72 70/70/70 76/76/76
f 77/77/77 76/76/76 73/73/73
f 78/78/78 77/77/77 73/73/73
f 78/78/78 73/73/73 74/74/74
f 77/77/77 79/79/79 76/76/76
f 79/79/79 77/77/77 78/78/78
f 79/79/79 80/80/80 76/76/76
f 80/80/80 72/72/72 76/76/76
f 81/81/81 79/79/79 78/78/78
f 79/79/79 81/81/81 82/82/82
f 81/81/81 83/83/83 82/82/82
f 81/81/81 84/84/84 83/83/83
f 84/84/84 81/81/81 78/78/78
f 84/84/84 85/85/85 83/83/83
f 83/83/83 86/86/86 82/82/82
f 86/86/86 87/87/87 82/82/82
f 87/87/87 86/86/86 88/88/88
f 86/86/86 89/89/89 88/88/88
f 90/90/90 86/86/86 83/83/83
f 85/85/85 90/90/90 83/83/83
f 86/86/86 90/90/90 91/91/91
f 90/90/90 92/92/92 91/91/91
f 84/84/84 78/78/78 93/93/93
f 93/93/93 78/78/78 94/94/94
f 78/78/78 95/95/95 94/94/94
f 94/94/94 95/95/95 96/96/96
f 95/95/95 97/97/97 96/96/96
f 98/98/98 96/96/96 97/97/97
f 99/99/99 98/98/98 97/97/97
f 93/93/93 100/100/100 84/84/84
f 103/103/103 102/102/102 101/101/101
f 104/104/104 103/103/103 101/101/101
f 105/105/105 101/101/101 102/102/102
f 101/101/101 105/105/105 106/106/106
f 106/106/106 104/104/104 101/101/101
f 105/105/105 107/107/107 106/106/106
f 108/108/108 105/105/105 102/102/102
f 109/109/109 108/108/108 102/102/102
f 110/110/110 109/109/109 102/102/102
f 110/110/110 102/102/102 103/103/103
f 109/109/109 111/111/111 108/108/108
f 111/111/111 112/112/112 108/108/108
f 108/108/108 112/112/112 113/113/113
f 105/105/105 108/108/108 113/113/113
f 105/105/105 113/113/113 114/114/114
f 113/113/113 115/115/115 114/114/114
f 116/116/116 109/109/109 110/110/110
f 110/110/110 117/117/117 116/116/116
f 118/118/118 116/116/116 117/117/117
f 119/119/119 118/118/118 117/117/117
f 118/118/118 120/120/120 116/116/116
f 120/120/120 121/121/121 116/116/116
f 116/116/116 121/121/121 109/109/109
f 121/121/121 111/111/111 109/109/109
f 118/118/118 119/119/119 122/122/122
f 122/122/122 119/119/119 123/123/123
f 119/119/119 124/124/124 123/123/123
f 119/119/119 117/117/117 124/124/124
f 125/125/125 118/118/118 122/122/122
f 120/120/120 118/118/118 125/125/125
f 126/126/126 125/125/125 122/122/122
f 127/127/127 126/126/126 122/122/122
f 127/127/127 122/122/122 123/123/123
f 126/126/126 128/128/128 125/125/125
f 128/128/128 129/129/129 125/125/125
f 129/129/129 120/120/120 125/125/125
f 126/126/126 127/127/127 130/130/130
f 130/130/130 127/127/127 131/131/131
f 127/127/127 132/132/132 131/131/131
f 131/131/131 132/132/132 133/133/133
f 132/132/132 134/134/134 133/133/133
f 135/135/135 133/133/133 134/134/134
f 136/136/136 135/135/135 134/134/134
f 130/130/130 137/137/137 126/126/126
f 137/137/137 128/128/128 126/126/126
f 137/137/137 138/138/138 128/128/128
f 138/138/138 139/139/139 128/128/128
f 128/128/128 139/139/139 140/140/140
f 139/139/139 141/141/141 140/140/140
f 139/139/139 138/138/138 141/141/141
f 138/138/138 142/142/142 141/141/141
f 141/141/141 143/143/143 140/140/140
f 143/143/143 144/144/144 140/140/140
f 144/144/144 143/143/143 145/145/145
f 143/143/143 146/146/146 145/145/145
f 147/147/147 143/143/143 141/141/141
f 142/142/142 147/147/147 141/141/141
f 143/143/143 147/147/147 148/148/148
f 147/147/147 149/149/149 148/148/148
f 121/121/121 150/150/150 111/111/111
