g m_sp_alien_gue_edge_01
v 0.001133231 0 -0.0003682087
v 0.004331896 0 -0.001407517
v 0.00368493 0 -0.002677256
v 0.0009639829 0 -0.0007003727
v 0.008358642 0 -0.006072905
v 0.009826175 0 -0.003192715
v 0.004554822 0 8.144651E-10
v 0.001191548 0 2.130649E-10
v 0.001133231 0 -0.0003682087
v 0.01033184 0 1.847477E-09
v 0.01254699 0 -0.009115916
v 0.009115919 0 -0.01254698
v 0.006072909 0 -0.00835864
v 0.00368493 0 -0.002677256
v 0.002677258 0 -0.003684929
v 0.0009639829 0 -0.0007003727
v 0.0007003736 0 -0.0009639829
v 0.001407518 0 -0.004331894
v 0.0003682089 0 -0.00113323
v 0.003192718 0 -0.009826169
v 0.006072909 0 -0.00835864
v 0.004792523 0 -0.01474986
v 0.009115919 0 -0.01254698
v 0.01474987 0 -0.004792519
v 0.01550892 0 2.77321E-09
v 0.0003682089 0 -0.00113323
v 0.001407518 0 -0.004331894
v 5.42977E-10 0 -0.004554823
v 1.420436E-10 0 -0.001191548
v 1.231652E-09 0 -0.01033184
v 0.003192718 0 -0.009826169
v 1.848807E-09 0 -0.01550892
v 0.004792523 0 -0.01474986
v 1.420436E-10 0 -0.001191548
v 5.42977E-10 0 -0.004554823
v -0.001407517 0 -0.004331893
v -0.0003682087 0 -0.001133229
v -0.003192715 0 -0.009826168
v 1.231652E-09 0 -0.01033184
v -0.004792519 0 -0.01474986
v 1.848807E-09 0 -0.01550892
v -0.0003682087 0 -0.001133229
v -0.001407517 0 -0.004331893
v -0.002677256 0 -0.003684928
v -0.0007003727 0 -0.0009639829
v -0.006072905 0 -0.008358637
v -0.003192715 0 -0.009826168
v -0.009115914 0 -0.01254698
v -0.004792519 0 -0.01474986
v -0.0007003727 0 -0.0009639829
v -0.002677256 0 -0.003684928
v -0.003684928 0 -0.002677255
v -0.0009639829 0 -0.0007003727
v -0.008358636 0 -0.006072904
v -0.006072905 0 -0.008358637
v -0.01254698 0 -0.009115912
v -0.009115914 0 -0.01254698
v -0.0009639829 0 -0.0007003727
v -0.003684928 0 -0.002677255
v -0.004331891 0 -0.001407517
v -0.001133228 0 -0.0003682087
v -0.009826167 0 -0.003192714
v -0.008358636 0 -0.006072904
v -0.01474986 0 -0.004792518
v -0.01254698 0 -0.009115912
v -0.001133228 0 -0.0003682087
v -0.004331891 0 -0.001407517
v -0.004554822 0 8.144651E-10
v -0.001191548 0 2.130649E-10
v -0.01033184 0 1.847477E-09
v -0.009826167 0 -0.003192714
v -0.01550892 0 2.77321E-09
v -0.01474986 0 -0.004792518
v -0.001191548 0 2.130649E-10
v -0.004554822 0 8.144651E-10
v -0.004331891 0 0.001407518
v -0.001133228 0 0.0003682089
v -0.009826167 0 0.003192717
v -0.01033184 0 1.847477E-09
v -0.01474986 0 0.004792523
v -0.01550892 0 2.77321E-09
v -0.001133228 0 0.0003682089
v -0.004331891 0 0.001407518
v -0.003684928 0 0.002677256
v -0.0009639829 0 0.0007003727
v -0.008358636 0 0.006072907
v -0.009826167 0 0.003192717
v -0.01254698 0 0.009115918
v -0.01474986 0 0.004792523
v -0.0009639829 0 0.0007003727
v -0.003684928 0 0.002677256
v -0.002677255 0 0.003684929
v -0.0007003727 0 0.0009639829
v -0.001407517 0 0.004331894
v -0.0003682087 0 0.00113323
v 4.072325E-10 0 0.004554822
v 1.065324E-10 0 0.001191548
v 9.237386E-10 0 0.01033184
v -0.003192714 0 0.009826168
v -0.006072904 0 0.00835864
v -0.008358636 0 0.006072907
v 1.386605E-09 0 0.01550892
v -0.004792518 0 0.01474986
v -0.009115913 0 0.01254698
v -0.01254698 0 0.009115918
v 1.065324E-10 0 0.001191548
v 4.072325E-10 0 0.004554822
v 0.001407517 0 0.004331893
v 0.0003682089 0 0.001133229
v 0.003192716 0 0.009826168
v 9.237386E-10 0 0.01033184
v 0.00479252 0 0.01474986
v 1.386605E-09 0 0.01550892
v 0.0003682089 0 0.001133229
v 0.001407517 0 0.004331893
v 0.002677256 0 0.003684929
v 0.0007003727 0 0.0009639829
v 0.006072905 0 0.00835864
v 0.003192716 0 0.009826168
v 0.009115914 0 0.01254698
v 0.00479252 0 0.01474986
v 0.0007003727 0 0.0009639829
v 0.002677256 0 0.003684929
v 0.003684928 0 0.002677256
v 0.0009639829 0 0.0007003727
v 0.008358636 0 0.006072906
v 0.006072905 0 0.00835864
v 0.01254698 0 0.009115917
v 0.009115914 0 0.01254698
v 0.0009639829 0 0.0007003727
v 0.003684928 0 0.002677256
v 0.004331891 0 0.001407518
v 0.001133228 0 0.0003682089
v 0.009826167 0 0.003192717
v 0.008358636 0 0.006072906
v 0.01474986 0 0.004792522
v 0.01254698 0 0.009115917
v 0.001133228 0 0.0003682089
v 0.004331891 0 0.001407518
v 0.004554822 0 8.144651E-10
v 0.001191548 0 2.130649E-10
v 0.01033184 0 1.847477E-09
v 0.009826167 0 0.003192717
v 0.01550892 0 2.77321E-09
v 0.01474986 0 0.004792522
vt 2.469516 0.747739
vt 2.469515 0.6313473
vt 2.223032 0.6313472
vt 2.223032 0.7477389
vt 2.223032 0.4314237
vt 2.469515 0.4314237
vt 2.715999 0.6313473
vt 2.715999 0.7477391
vt 2.469516 0.747739
vt 2.715999 0.4314236
vt 2.223032 0.2522624
vt 1.976549 0.2522621
vt 1.976549 0.4314236
vt 2.223032 0.6313472
vt 1.976549 0.6313473
vt 2.223032 0.7477389
vt 1.976549 0.7477391
vt 1.730066 0.6313471
vt 1.730066 0.7477388
vt 1.730066 0.4314235
vt 1.976549 0.4314236
vt 1.730066 0.2522621
vt 1.976549 0.2522621
vt 2.469515 0.2522624
vt 2.715999 0.2522621
vt 1.730066 0.7477388
vt 1.730066 0.6313471
vt 1.483583 0.6313472
vt 1.483583 0.7477389
vt 1.483583 0.4314236
vt 1.730066 0.4314235
vt 1.483583 0.2522622
vt 1.730066 0.2522621
vt 1.483583 0.7477389
vt 1.483583 0.6313472
vt 1.2371 0.6313472
vt 1.2371 0.747739
vt 1.2371 0.4314237
vt 1.483583 0.4314236
vt 1.2371 0.2522623
vt 1.483583 0.2522622
vt 1.2371 0.747739
vt 1.2371 0.6313472
vt 0.9906164 0.6313472
vt 0.9906165 0.7477389
vt 0.9906164 0.4314236
vt 1.2371 0.4314237
vt 0.9906165 0.2522622
vt 1.2371 0.2522623
vt 0.9906165 0.7477389
vt 0.9906164 0.6313472
vt 0.7441335 0.6313472
vt 0.7441335 0.747739
vt 0.7441335 0.4314236
vt 0.9906164 0.4314236
vt 0.7441334 0.2522622
vt 0.9906165 0.2522622
vt 0.7441335 0.747739
vt 0.7441335 0.6313472
vt 0.4976502 0.6313472
vt 0.4976502 0.7477389
vt 0.4976502 0.4314236
vt 0.7441335 0.4314236
vt 0.4976502 0.2522622
vt 0.7441334 0.2522622
vt 0.4976502 0.7477389
vt 0.4976502 0.6313472
vt 0.251167 0.631347
vt 0.2511671 0.747739
vt 0.251167 0.4314231
vt 0.4976502 0.4314236
vt 0.2511669 0.2522613
vt 0.4976502 0.2522622
vt 0.2511671 0.747739
vt 0.251167 0.631347
vt 0.004683807 0.6313469
vt 0.004683807 0.7477389
vt 0.004683807 0.431423
vt 0.251167 0.4314231
vt 0.004683807 0.2522612
vt 0.2511669 0.2522613
vt 0.004683807 0.7477389
vt 0.004683807 0.6313469
vt -0.2417993 0.6313469
vt -0.2417993 0.7477389
vt -0.2417994 0.431423
vt 0.004683807 0.431423
vt -0.2417994 0.2522613
vt 0.004683807 0.2522612
vt -0.2417993 0.7477389
vt -0.2417993 0.6313469
vt -0.4882825 0.6313469
vt -0.4882825 0.7477389
vt -0.7347655 0.631347
vt -0.7347655 0.747739
vt -0.9812489 0.6313469
vt -0.9812489 0.7477389
vt -0.9812489 0.431423
vt -0.7347655 0.4314231
vt -0.4882825 0.431423
vt -0.2417994 0.431423
vt -0.9812489 0.2522612
vt -0.7347655 0.2522613
vt -0.4882825 0.2522612
vt -0.2417994 0.2522613
vt -0.9812489 0.7477389
vt -0.9812489 0.6313469
vt -1.227732 0.6313471
vt -1.227732 0.747739
vt -1.227732 0.4314231
vt -0.9812489 0.431423
vt -1.227732 0.2522613
vt -0.9812489 0.2522612
vt -1.227732 0.747739
vt -1.227732 0.6313471
vt -1.474215 0.6313471
vt -1.474215 0.747739
vt -1.474215 0.4314231
vt -1.227732 0.4314231
vt -1.474215 0.2522613
vt -1.227732 0.2522613
vt -1.474215 0.747739
vt -1.474215 0.6313471
vt -1.720698 0.6313464
vt -1.720698 0.7477379
vt -1.720698 0.4314233
vt -1.474215 0.4314231
vt -1.720698 0.2522624
vt -1.474215 0.2522613
vt -1.720698 0.7477379
vt -1.720698 0.6313464
vt -1.967181 0.6313464
vt -1.967181 0.7477379
vt -1.967181 0.4314232
vt -1.720698 0.4314233
vt -1.967181 0.2522622
vt -1.720698 0.2522624
vt -1.967181 0.7477379
vt -1.967181 0.6313464
vt -2.213665 0.6313465
vt -2.213665 0.747738
vt -2.213665 0.4314232
vt -1.967181 0.4314232
vt -2.213665 0.2522621
vt -1.967181 0.2522622
vn 0 -1 0
vn 0 -1 0
vn 0 -1 0
vn 0 -1 0
vn 0 -1 0
vn 0 -1 0
vn 0 -1 0
vn 0 -1 0
vn 0 -1 0
vn 0 -1 0
vn 0 -1 0
vn 0 -1 0
vn 0 -1 0
vn 0 -1 0
vn 0 -1 0
vn 0 -1 0
vn 0 -1 0
vn 0 -1 0
vn 0 -1 0
vn 0 -1 0
vn 0 -1 0
vn 0 -1 0
vn 0 -1 0
vn 0 -1 0
vn 0 -1 0
vn 0 -1 0
vn 0 -1 0
vn 0 -1 0
vn 0 -1 0
vn 0 -1 0
vn 0 -1 0
vn 0 -1 0
vn 0 -1 0
vn 0 -1 -1.543853E-07
vn 0 -1 0
vn 0 -1 0
vn 0 -1 -1.543853E-07
vn 0 -1 0
vn 0 -1 0
vn 0 -1 0
vn 0 -1 0
vn 0 -1 0
vn 0 -1 0
vn 0 -1 0
vn 0 -1 0
vn 0 -1 0
vn 0 -1 0
vn 0 -1 0
vn 0 -1 0
vn 0 -1 0
vn 0 -1 1.894492E-07
vn 0 -1 1.894492E-07
vn 0 -1 0
vn 0 -1 0
vn 0 -1 0
vn 0 -1 0
vn 0 -1 0
vn 0 -1 0
vn 0 -1 -3.788992E-07
vn 0 -1 -3.788992E-07
vn 0 -1 0
vn 0 -1 -1.546114E-07
vn 0 -1 -1.546115E-07
vn 0 -1 0
vn 0 -1 0
vn 0 -1 0
vn 0 -1 3.788987E-07
vn 0 -1 3.788989E-07
vn 0 -1 0
vn 0 -1 1.546114E-07
vn 0 -1 1.546114E-07
vn 0 -1 0
vn 0 -1 0
vn 0 -1 0
vn 0 -1 -3.788989E-07
vn 0 -1 -3.788987E-07
vn 0 -1 0
vn 0 -1 -1.546114E-07
vn 0 -1 -1.546114E-07
vn 0 -1 0
vn 0 -1 0
vn 0 -1 0
vn 0 -1 0
vn 0 -1 0
vn 0 -1 0
vn 0 -1 0
vn 0 -1 0
vn 0 -1 0
vn 0 -1 0
vn 0 -1 0
vn 0 -1 0
vn 0 -1 0
vn 0 -1 0
vn 0 -1 0
vn 0 -1 0
vn 0 -1 0
vn 0 -1 0
vn 0 -1 0
vn 0 -1 0
vn 0 -1 0
vn 0 -1 0
vn 0 -1 0
vn 0 -1 0
vn 0 -1 0
vn 0 -1 0
vn 0 -1 0
vn 0 -1 1.40279E-07
vn 0 -1 1.402789E-07
vn 0 -1 0
vn 0 -1 0
vn 0 -1 0
vn 0 -1 0
vn 0 -1 0
vn 0 -1 0
vn 0 -1 0
vn 0 -1 0
vn 0 -1 0
vn 0 -1 0
vn 0 -1 0
vn 0 -1 0
vn 0 -1 0
vn 0 -1 0
vn 0 -1 0
vn 0 -1 0
vn 0 -1 0
vn 0 -1 0
vn 0 -1 0
vn 0 -1 0
vn 0 -1 0
vn 0 -1 0
vn 0 -1 0
vn 0 -1 0
vn 0 -1 0
vn 0 -1 0
vn 0 -1 0
vn 0 -1 0
vn 0 -1 0
vn 0 -1 0
vn 0 -1 -3.788987E-07
vn 0 -1 -3.788989E-07
vn 0 -1 0
vn 0 -1 -1.546115E-07
vn 0 -1 -1.546115E-07
vn 0 -1 0
vn 0 -1 0
g m_sp_alien_gue_edge_01_0
f 3/3/3 2/2/2 1/1/1
f 4/4/4 3/3/3 1/1/1
f 3/3/3 5/5/5 2/2/2
f 5/5/5 6/6/6 2/2/2
f 2/2/2 6/6/6 7/7/7
f 2/2/2 7/7/7 8/8/8
f 9/9/9 2/2/2 8/8/8
f 6/6/6 10/10/10 7/7/7
f 5/5/5 11/11/11 6/6/6
f 12/12/12 11/11/11 5/5/5
f 13/13/13 12/12/12 5/5/5
f 13/13/13 5/5/5 14/14/14
f 15/15/15 13/13/13 14/14/14
f 15/15/15 14/14/14 16/16/16
f 17/17/17 15/15/15 16/16/16
f 18/18/18 15/15/15 17/17/17
f 19/19/19 18/18/18 17/17/17
f 18/18/18 20/20/20 15/15/15
f 20/20/20 21/21/21 15/15/15
f 20/20/20 22/22/22 21/21/21
f 22/22/22 23/23/23 21/21/21
f 11/11/11 24/24/24 6/6/6
f 6/6/6 24/24/24 10/10/10
f 24/24/24 25/25/25 10/10/10
f 28/28/28 27/27/27 26/26/26
f 29/29/29 28/28/28 26/26/26
f 28/28/28 30/30/30 27/27/27
f 30/30/30 31/31/31 27/27/27
f 30/30/30 32/32/32 31/31/31
f 32/32/32 33/33/33 31/31/31
f 36/36/36 35/35/35 34/34/34
f 37/37/37 36/36/36 34/34/34
f 36/36/36 38/38/38 35/35/35
f 38/38/38 39/39/39 35/35/35
f 38/38/38 40/40/40 39/39/39
f 40/40/40 41/41/41 39/39/39
f 44/44/44 43/43/43 42/42/42
f 45/45/45 44/44/44 42/42/42
f 44/44/44 46/46/46 43/43/43
f 46/46/46 47/47/47 43/43/43
f 46/46/46 48/48/48 47/47/47
f 48/48/48 49/49/49 47/47/47
f 52/52/52 51/51/51 50/50/50
f 53/53/53 52/52/52 50/50/50
f 52/52/52 54/54/54 51/51/51
f 54/54/54 55/55/55 51/51/51
f 54/54/54 56/56/56 55/55/55
f 56/56/56 57/57/57 55/55/55
f 60/60/60 59/59/59 58/58/58
f 61/61/61 60/60/60 58/58/58
f 60/60/60 62/62/62 59/59/59
f 62/62/62 63/63/63 59/59/59
f 62/62/62 64/64/64 63/63/63
f 64/64/64 65/65/65 63/63/63
f 68/68/68 67/67/67 66/66/66
f 69/69/69 68/68/68 66/66/66
f 68/68/68 70/70/70 67/67/67
f 70/70/70 71/71/71 67/67/67
f 70/70/70 72/72/72 71/71/71
f 72/72/72 73/73/73 71/71/71
f 76/76/76 75/75/75 74/74/74
f 77/77/77 76/76/76 74/74/74
f 76/76/76 78/78/78 75/75/75
f 78/78/78 79/79/79 75/75/75
f 78/78/78 80/80/80 79/79/79
f 80/80/80 81/81/81 79/79/79
f 84/84/84 83/83/83 82/82/82
f 85/85/85 84/84/84 82/82/82
f 84/84/84 86/86/86 83/83/83
f 86/86/86 87/87/87 83/83/83
f 86/86/86 88/88/88 87/87/87
f 88/88/88 89/89/89 87/87/87
f 92/92/92 91/91/91 90/90/90
f 93/93/93 92/92/92 90/90/90
f 94/94/94 92/92/92 93/93/93
f 95/95/95 94/94/94 93/93/93
f 96/96/96 94/94/94 95/95/95
f 97/97/97 96/96/96 95/95/95
f 96/96/96 98/98/98 94/94/94
f 98/98/98 99/99/99 94/94/94
f 94/94/94 99/99/99 92/92/92
f 99/99/99 100/100/100 92/92/92
f 92/92/92 100/100/100 91/91/91
f 100/100/100 101/101/101 91/91/91
f 98/98/98 102/102/102 99/99/99
f 102/102/102 103/103/103 99/99/99
f 99/99/99 103/103/103 100/100/100
f 103/103/103 104/104/104 100/100/100
f 100/100/100 104/104/104 101/101/101
f 104/104/104 105/105/105 101/101/101
f 108/108/108 107/107/107 106/106/106
f 109/109/109 108/108/108 106/106/106
f 108/108/108 110/110/110 107/107/107
f 110/110/110 111/111/111 107/107/107
f 110/110/110 112/112/112 111/111/111
f 112/112/112 113/113/113 111/111/111
f 116/116/116 115/115/115 114/114/114
f 117/117/117 116/116/116 114/114/114
f 116/116/116 118/118/118 115/115/115
f 118/118/118 119/119/119 115/115/115
f 118/118/118 120/120/120 119/119/119
f 120/120/120 121/121/121 119/119/119
f 124/124/124 123/123/123 122/122/122
f 125/125/125 124/124/124 122/122/122
f 124/124/124 126/126/126 123/123/123
f 126/126/126 127/127/127 123/123/123
f 126/126/126 128/128/128 127/127/127
f 128/128/128 129/129/129 127/127/127
f 132/132/132 131/131/131 130/130/130
f 133/133/133 132/132/132 130/130/130
f 132/132/132 134/134/134 131/131/131
f 134/134/134 135/135/135 131/131/131
f 134/134/134 136/136/136 135/135/135
f 136/136/136 137/137/137 135/135/135
f 140/140/140 139/139/139 138/138/138
f 141/141/141 140/140/140 138/138/138
f 140/140/140 142/142/142 139/139/139
f 142/142/142 143/143/143 139/139/139
f 142/142/142 144/144/144 143/143/143
f 144/144/144 145/145/145 143/143/143
