g m_sp_cliff_edge_02
v -0.04539734 -1.81431E-08 0.3906821
v -0.6 0 0.6
v -0.1746051 -1.81431E-08 0.2133676
v -0.02493645 -7.958079E-15 0.6
v -0.2653283 -1.81431E-08 -0.1055421
v -0.6 0 -0.6
v -0.2452731 -0.01244103 -0.09922127
v -0.1525914 -0.01244103 0.2062427
v -0.02684364 -0.01244103 0.3796518
v -0.003340611 -0.01244103 0.6
v -0.2031745 -1.81431E-08 -0.3710768
v -0.02493645 6.512699E-09 -0.6
v -0.003340651 -0.01244103 -0.6
v -0.1845733 -0.01244103 -0.3594951
v -0.003340611 -0.01244103 0.6
v -0.02684364 -0.01244103 0.3796518
v -0.03145359 -0.03256684 0.3795529
v -0.004574575 -0.03661123 0.6
v -0.1525914 -0.01244103 0.2062427
v -0.1547418 -0.03371302 0.2066403
v -0.2429998 -0.03325317 -0.09579574
v -0.2452731 -0.01244103 -0.09922127
v -0.1845733 -0.01244103 -0.3594951
v -0.1813239 -0.03359118 -0.3600187
v -0.004574601 -0.03661123 -0.6
v -0.003340651 -0.01244103 -0.6
v -0.1842576 -0.6996692 0.376277
v -0.04188731 -0.767477 0.6
v -0.1231148 -1.536463 0.2430766
v -0.1106571 -1.542808 0.6
v -0.167887 -1.54148 0.2084702
v -0.0930246 -2.399339 0.2764544
v 0.03668877 -2.399339 0.6
v -0.1369917 -2.399339 0.215004
v -0.1848479 -1.560004 -0.13477
v -0.1676489 -0.7231053 0.01774856
v -0.2344649 -1.541821 -0.2447211
v -0.07361608 -0.7346465 -0.3773753
v -0.04188734 -0.767477 -0.6
v -0.1106571 -1.542808 -0.6
v 0.03668877 -2.399339 -0.6
v -0.1802183 -2.399339 -0.3090448
v -0.2260197 -0.7388067 0.2198193
v -0.2089402 -2.399339 -0.03608169
v -0.2089402 -2.399339 -0.03608169
v 1.79106 -2.399339 -0.03608169
v 1.863008 -2.399339 0.215004
v -0.1369917 -2.399339 0.215004
v 1.906975 -2.399339 0.2764544
v -0.0930246 -2.399339 0.2764544
v 2.036689 -2.399339 0.6
v 0.03668877 -2.399339 0.6
v -0.1802183 -2.399339 -0.3090448
v 1.819782 -2.399339 -0.3090448
v 0.03668877 -2.399339 -0.6
v 2.036689 -2.399339 -0.6
vt 0.4619141 0.1744385
vt -0.0001302958 -7.921457E-05
vt 0.354248 0.3222656
vt 0.479248 7.331371E-05
vt 0.2785645 0.590332
vt -0.000357151 1
vt 0.295166 0.5849609
vt 0.3725586 0.328125
vt 0.4772949 0.1837158
vt 0.4973145 9.655952E-06
vt 0.3261719 0.8105469
vt 0.479248 1
vt 0.4973145 1
vt 0.3823242 0.800293
vt 0.2519531 0.9155273
vt 0.2937012 0.9155273
vt 0.2939453 0.8945313
vt 0.2519531 0.8950195
vt 0.3342285 0.9155273
vt 0.3342285 0.8945313
vt 0.3935547 0.8945313
vt 0.3942871 0.9155273
vt 0.4433594 0.9155273
vt 0.4438477 0.8945313
vt 0.5 0.8950195
vt 0.5 0.9155273
vt 0.302002 0.6113281
vt 0.2519531 0.5727539
vt 0.3242188 0.3046875
vt 0.2519531 0.3059082
vt 0.3356934 0.3039551
vt 0.3198242 0.01233673
vt 0.2519531 0.01233673
vt 0.3344727 0.01233673
vt 0.4035645 0.3178711
vt 0.3725586 0.6103516
vt 0.4267578 0.3334961
vt 0.4560547 0.6074219
vt 0.5 0.5727539
vt 0.5 0.3059082
vt 0.5 0.01233673
vt 0.4333496 0.01233673
vt 0.3325195 0.6000977
vt 0.3850098 0.01233673
vt -0.699707 5.960464E-08
vt -0.699707 -1
vt -0.8032227 -1
vt -0.8032227 5.960464E-08
vt -0.9067383 -1
vt -0.9067383 -5.960464E-08
vt -1 -1
vt -1 -5.960464E-08
vt -0.5961914 5.960464E-08
vt -0.5961914 -1
vt -0.5 -5.960464E-08
vt -0.5 -1
vn 0 1 0
vn 0 1 0
vn 0 1 0
vn 0 1 0
vn 0 1 0
vn 0 1 0
vn 0.7998324 0.5986997 -0.0427416
vn 0.7695832 0.5328462 -0.3518757
vn 0.8357949 0.4504367 -0.3139328
vn 0.9187692 0.3947951 0
vn 0 1 0
vn 0 1 0
vn 0.9187692 0.3947951 0
vn 0.7405124 0.5740778 0.3493938
vn 0.9187692 0.3947951 0
vn 0.8357949 0.4504367 -0.3139328
vn 0.9096261 -0.1343088 -0.3931178
vn 1 0 0
vn 0.7695832 0.5328462 -0.3518757
vn 0.9233579 -0.1250145 -0.3630171
vn 0.9905341 0.086862 0.106289
vn 0.7998324 0.5986997 -0.0427416
vn 0.7405124 0.5740778 0.3493938
vn 0.9469644 0.1009571 0.3050674
vn 1 0 0
vn 0.9187692 0.3947951 0
vn 0.9389157 -0.06300501 -0.3383308
vn 0.9994884 -0.03198363 0
vn 0.9523224 0.06293239 -0.2985323
vn 0.9981325 0.06108571 0
vn 0.9898247 0.01368372 -0.1416328
vn 0.9564297 0.08529636 -0.279225
vn 0.9953666 0.09615242 0
vn 0.9675451 -0.002400375 -0.2526872
vn 0.9996322 -0.0215131 -0.01650679
vn 0.9880574 0.03934076 0.1489794
vn 0.9717201 -0.02525237 0.2347812
vn 0.9675567 -0.0103951 0.2524401
vn 0.9994884 -0.03198363 0
vn 0.9981325 0.06108571 0
vn 0.9953666 0.09615242 0
vn 0.9482319 0.06633166 0.3105744
vn 0.995914 -0.003864689 -0.09022296
vn 0.9934226 0.00256992 -0.1144767
vn 0 1 0
vn 0 1 0
vn 0 1 0
vn 0 1 0
vn 0 1 0
vn 0 1 0
vn 0 1 0
vn 0 1 0
vn 0 1 0
vn 0 1 0
vn 0 1 0
vn 0 1 0
g m_sp_cliff_edge_02_0
f 3/3/3 2/2/2 1/1/1
f 4/4/4 1/1/1 2/2/2
f 2/2/2 3/3/3 5/5/5
f 5/5/5 6/6/6 2/2/2
f 7/7/7 5/5/5 3/3/3
f 8/8/8 7/7/7 3/3/3
f 8/8/8 3/3/3 1/1/1
f 9/9/9 1/1/1 4/4/4
f 9/9/9 8/8/8 1/1/1
f 10/10/10 9/9/9 4/4/4
f 11/11/11 5/5/5 7/7/7
f 5/5/5 11/11/11 6/6/6
f 11/11/11 12/12/12 6/6/6
f 13/13/13 12/12/12 11/11/11
f 14/14/14 13/13/13 11/11/11
f 14/14/14 11/11/11 7/7/7
g m_sp_cliff_edge_02_1
f 17/17/17 16/16/16 15/15/15
f 18/18/18 17/17/17 15/15/15
f 16/16/16 17/17/17 19/19/19
f 17/17/17 20/20/20 19/19/19
f 20/20/20 21/21/21 19/19/19
f 21/21/21 22/22/22 19/19/19
f 23/23/23 22/22/22 21/21/21
f 24/24/24 23/23/23 21/21/21
f 23/23/23 24/24/24 25/25/25
f 26/26/26 23/23/23 25/25/25
f 27/27/27 17/17/17 18/18/18
f 17/17/17 27/27/27 20/20/20
f 28/28/28 27/27/27 18/18/18
f 29/29/29 27/27/27 28/28/28
f 30/30/30 29/29/29 28/28/28
f 29/29/29 31/31/31 27/27/27
f 32/32/32 29/29/29 30/30/30
f 33/33/33 32/32/32 30/30/30
f 34/34/34 31/31/31 29/29/29
f 32/32/32 34/34/34 29/29/29
f 35/35/35 31/31/31 34/34/34
f 35/35/35 36/36/36 31/31/31
f 24/24/24 21/21/21 36/36/36
f 35/35/35 37/37/37 36/36/36
f 37/37/37 38/38/38 36/36/36
f 38/38/38 24/24/24 36/36/36
f 38/38/38 37/37/37 39/39/39
f 24/24/24 38/38/38 39/39/39
f 25/25/25 24/24/24 39/39/39
f 37/37/37 40/40/40 39/39/39
f 41/41/41 40/40/40 37/37/37
f 42/42/42 41/41/41 37/37/37
f 36/36/36 43/43/43 31/31/31
f 44/44/44 35/35/35 34/34/34
f 44/44/44 42/42/42 37/37/37
f 35/35/35 44/44/44 37/37/37
f 43/43/43 36/36/36 21/21/21
f 20/20/20 43/43/43 21/21/21
f 27/27/27 43/43/43 20/20/20
f 31/31/31 43/43/43 27/27/27
g m_sp_cliff_edge_02_2
f 47/47/47 46/46/46 45/45/45
f 48/48/48 47/47/47 45/45/45
f 49/49/49 47/47/47 48/48/48
f 50/50/50 49/49/49 48/48/48
f 51/51/51 49/49/49 50/50/50
f 52/52/52 51/51/51 50/50/50
f 45/45/45 46/46/46 53/53/53
f 46/46/46 54/54/54 53/53/53
f 53/53/53 54/54/54 55/55/55
f 54/54/54 56/56/56 55/55/55
