g m_sp_wall_straight_panel_01
v -0.02912506 -0.2681716 0.5390042
v 0.02411224 -0.2791973 0.5199069
v 0.02411224 -0.332434 0.5199069
v -0.02912506 -0.3434597 0.5390042
v -0.02912506 -0.3434597 0.5390042
v 0.02411224 -0.332434 0.5199069
v 0.02411224 -0.3590523 0.4738028
v -0.02912506 -0.3811037 0.4738028
v 0.0461618 -0.3058156 0.4738028
v 0.02411224 -0.2791973 0.5199069
v -0.02912506 -0.3811037 0.4738028
v 0.02411224 -0.3590523 0.4738028
v 0.02411224 -0.332434 0.427698
v -0.02912506 -0.3434597 0.4086014
v 0.02411224 -0.2791973 0.427698
v -0.02912506 -0.2681716 0.4086014
v 0.0461618 -0.3058156 0.4738028
v -0.02912506 -0.2681716 0.4086014
v 0.02411224 -0.2791973 0.427698
v 0.02411224 -0.2525792 0.4738028
v -0.02912506 -0.2305277 0.4738028
v 0.02411224 -0.2791973 0.5199069
v -0.02912506 -0.2681716 0.5390042
v 0.0461618 -0.3058156 0.4738028
v -0.04462311 0.4084674 -0.600007
v -0.03330902 0.002683601 -0.5999643
v -0.004623108 0.002683067 -0.5712546
v -0.0144632 0.4083996 -0.5713083
v -0.01643585 -0.4199199 -0.5713284
v -0.0456131 -0.4372265 -0.6000351
v -0.03339691 0.4372009 -0.571312
v -0.01490326 0.4049488 0.5742355
v -0.0339212 0.4372265 0.5744668
v -0.04517486 0.4084924 0.5999917
v -0.0338681 0.002710686 0.6000351
v -0.005144958 0.002708702 0.5713614
v -0.0461618 -0.4372 0.5999643
v -0.01695892 -0.4198943 0.5712808
v -0.02912506 0.3421072 -0.3963925
v 0.02411224 0.3310815 -0.4154898
v 0.02411224 0.2778448 -0.4154898
v -0.02912506 0.2668191 -0.3963925
v -0.02912506 0.2668191 -0.3963925
v 0.02411224 0.2778448 -0.4154898
v 0.02411224 0.2512265 -0.4615939
v -0.02912506 0.2291751 -0.4615939
v 0.0461618 0.3044631 -0.4615939
v 0.02411224 0.3310815 -0.4154898
v -0.02912506 0.2291751 -0.4615939
v 0.02411224 0.2512265 -0.4615939
v 0.02411224 0.2778448 -0.5076987
v -0.02912506 0.2668191 -0.5267953
v 0.02411224 0.3310815 -0.5076987
v -0.02912506 0.3421072 -0.5267953
v 0.0461618 0.3044631 -0.4615939
v -0.02912506 0.3421072 -0.5267953
v 0.02411224 0.3310815 -0.5076987
v 0.02411224 0.3576995 -0.4615939
v -0.02912506 0.3797511 -0.4615939
v 0.02411224 0.3310815 -0.4154898
v -0.02912506 0.3421072 -0.3963925
v 0.0461618 0.3044631 -0.4615939
vt 0.3066406 0.5952148
vt 0.3083496 0.5986328
vt 0.3122559 0.5981445
vt 0.314209 0.5952148
vt 0.314209 0.5952148
vt 0.3122559 0.5981445
vt 0.3144531 0.6015625
vt 0.3181152 0.6015625
vt 0.3105469 0.6015625
vt 0.3083496 0.5986328
vt 0.3181152 0.6015625
vt 0.3144531 0.6015625
vt 0.3127441 0.6049805
vt 0.314209 0.6083984
vt 0.3088379 0.6054688
vt 0.3066406 0.6083984
vt 0.3105469 0.6015625
vt 0.3066406 0.6083984
vt 0.3088379 0.6054688
vt 0.3066406 0.6020508
vt 0.3029785 0.6015625
vt 0.3083496 0.5986328
vt 0.3066406 0.5952148
vt 0.3105469 0.6015625
vt 0.8071289 0.7578125
vt 0.8359375 0.7587891
vt 0.8359375 0.7558594
vt 0.8076172 0.7548828
vt 0.8657227 0.7563477
vt 0.8666992 0.7592773
vt 0.8051758 0.7553711
vt 0.8076172 0.675293
vt 0.8046875 0.675293
vt 0.8066406 0.6728516
vt 0.8354492 0.671875
vt 0.8359375 0.6748047
vt 0.8666992 0.6708984
vt 0.8657227 0.6738281
vt 0.3066406 0.5952148
vt 0.3083496 0.5986328
vt 0.3122559 0.5981445
vt 0.314209 0.5952148
vt 0.314209 0.5952148
vt 0.3122559 0.5981445
vt 0.3144531 0.6015625
vt 0.3181152 0.6015625
vt 0.3105469 0.6015625
vt 0.3083496 0.5986328
vt 0.3181152 0.6015625
vt 0.3144531 0.6015625
vt 0.3127441 0.6049805
vt 0.314209 0.6083984
vt 0.3088379 0.6054688
vt 0.3066406 0.6083984
vt 0.3105469 0.6015625
vt 0.3066406 0.6083984
vt 0.3088379 0.6054688
vt 0.3066406 0.6020508
vt 0.3029785 0.6015625
vt 0.3083496 0.5986328
vt 0.3066406 0.5952148
vt 0.3105469 0.6015625
vn 0.3376547 0 0.9412701
vn 0.3376547 0 0.9412701
vn 0.3376547 0 0.9412701
vn 0.3376547 0 0.9412701
vn 0.3376481 0 0.9412724
vn 0.3376478 0 0.9412725
vn 0.5183192 -0.8551872 0
vn 0.3826829 -0.9238797 0
vn 1 0 0
vn 0.3376478 0 0.9412725
vn 0.3826829 -0.9238797 0
vn 0.5183192 -0.8551872 0
vn 0.5183189 -0.4275939 -0.7406139
vn 0.3826831 -0.4619401 -0.8001032
vn 0.5183189 0.4275939 -0.7406139
vn 0.3826839 0.4619399 -0.8001028
vn 1 0 0
vn 0.3826839 0.4619399 -0.8001028
vn 0.5183189 0.4275939 -0.7406139
vn 0.5183192 0.8551872 0
vn 0.3826829 0.9238797 0
vn 0.3376478 0 0.9412725
vn 0.3376481 0 0.9412724
vn 1 0 0
vn 0.6979124 0.02650485 -0.7156925
vn 0.7029394 -0.001226025 -0.7112486
vn 0.9996106 -0.0279003 0.0005000054
vn 0.9996106 -0.0279003 0.0005000054
vn 0.9996106 -0.0279003 0.0005000054
vn 0.7071941 -0.01965601 -0.7067462
vn 0.8492596 0.5279368 -0.006394997
vn 0.9996106 -0.0279003 0.0005000054
vn 0.8494838 0.5275429 0.008696998
vn 0.6782951 0.02444 0.7343831
vn 0.6932743 -0.003057001 0.7206673
vn 0.9996106 -0.0279003 0.0005000054
vn 0.706466 -0.01987 0.7074679
vn 0.9996106 -0.0279003 0.0005000054
vn 0.3376542 0 0.9412702
vn 0.3376542 0 0.9412702
vn 0.3376542 0 0.9412702
vn 0.3376542 0 0.9412702
vn 0.3376481 0 0.9412724
vn 0.3376478 0 0.9412725
vn 0.5183192 -0.8551872 0
vn 0.3826829 -0.9238797 0
vn 1 0 0
vn 0.3376478 0 0.9412725
vn 0.3826829 -0.9238797 0
vn 0.5183192 -0.8551872 0
vn 0.5183189 -0.4275939 -0.7406139
vn 0.3826831 -0.4619401 -0.8001032
vn 0.5183189 0.4275939 -0.7406139
vn 0.3826839 0.4619399 -0.8001028
vn 1 0 0
vn 0.3826839 0.4619399 -0.8001028
vn 0.5183189 0.4275939 -0.7406139
vn 0.5183192 0.8551872 0
vn 0.3826829 0.9238797 0
vn 0.3376478 0 0.9412725
vn 0.3376481 0 0.9412724
vn 1 0 0
g m_sp_wall_straight_panel_01_0
f 3/3/3 2/2/2 1/1/1
f 4/4/4 3/3/3 1/1/1
f 7/7/7 6/6/6 5/5/5
f 8/8/8 7/7/7 5/5/5
f 7/7/7 9/9/9 6/6/6
f 6/6/6 9/9/9 10/10/10
f 13/13/13 12/12/12 11/11/11
f 14/14/14 13/13/13 11/11/11
f 15/15/15 13/13/13 14/14/14
f 16/16/16 15/15/15 14/14/14
f 13/13/13 17/17/17 12/12/12
f 15/15/15 17/17/17 13/13/13
f 20/20/20 19/19/19 18/18/18
f 21/21/21 20/20/20 18/18/18
f 22/22/22 20/20/20 21/21/21
f 23/23/23 22/22/22 21/21/21
f 20/20/20 24/24/24 19/19/19
f 22/22/22 24/24/24 20/20/20
f 27/27/27 26/26/26 25/25/25
f 28/28/28 27/27/27 25/25/25
f 27/27/27 29/29/29 26/26/26
f 29/29/29 30/30/30 26/26/26
f 31/31/31 28/28/28 25/25/25
f 28/28/28 31/31/31 32/32/32
f 27/27/27 28/28/28 32/32/32
f 31/31/31 33/33/33 32/32/32
f 34/34/34 32/32/32 33/33/33
f 34/34/34 35/35/35 32/32/32
f 35/35/35 36/36/36 32/32/32
f 27/27/27 36/36/36 29/29/29
f 36/36/36 27/27/27 32/32/32
f 35/35/35 37/37/37 36/36/36
f 37/37/37 38/38/38 36/36/36
f 36/36/36 38/38/38 29/29/29
f 41/41/41 40/40/40 39/39/39
f 42/42/42 41/41/41 39/39/39
f 45/45/45 44/44/44 43/43/43
f 46/46/46 45/45/45 43/43/43
f 45/45/45 47/47/47 44/44/44
f 44/44/44 47/47/47 48/48/48
f 51/51/51 50/50/50 49/49/49
f 52/52/52 51/51/51 49/49/49
f 53/53/53 51/51/51 52/52/52
f 54/54/54 53/53/53 52/52/52
f 51/51/51 55/55/55 50/50/50
f 53/53/53 55/55/55 51/51/51
f 58/58/58 57/57/57 56/56/56
f 59/59/59 58/58/58 56/56/56
f 60/60/60 58/58/58 59/59/59
f 61/61/61 60/60/60 59/59/59
f 58/58/58 62/62/62 57/57/57
f 60/60/60 62/62/62 58/58/58
