g m_worldtext_5_5
v -0.3917934 -0.01195589 -1.091939
v -0.3917934 -0.01195589 1.091939
v -2.799417 -0.01195589 1.091939
v -2.799417 -0.01195589 -1.091939
v 2.799417 -0.01195589 -1.091939
v 2.799417 -0.01195589 1.091939
v 0.3917937 -0.01195589 1.091939
v 0.3917937 -0.01195589 -1.091939
v -0.495191 0.01195589 0.3097919
v -0.495191 0.01195589 -0.2488434
v 0.4614349 0.01195589 -0.2488434
v 0.4614349 0.01195589 0.3097919
vt 0.6665039 0.5546875
vt 0.6665039 0.2521973
vt 0.333252 0.2521973
vt 0.333252 0.5546875
vt 0.6665039 0.5546875
vt 0.6665039 0.2521973
vt 0.333252 0.2521973
vt 0.333252 0.5546875
vt 0.0769043 0.04806519
vt 0.0769043 0.1253662
vt 0.2093506 0.1253662
vt 0.2093506 0.04806519
vn 0 1 0
vn 0 1 0
vn 0 1 0
vn 0 1 0
vn 0 1 0
vn 0 1 0
vn 0 1 0
vn 0 1 0
vn 0 1 0
vn 0 1 0
vn 0 1 0
vn 0 1 0
g m_worldtext_5_5_0
f 3/3/3 2/2/2 1/1/1
f 4/4/4 3/3/3 1/1/1
f 7/7/7 6/6/6 5/5/5
f 8/8/8 7/7/7 5/5/5
f 11/11/11 10/10/10 9/9/9
f 12/12/12 11/11/11 9/9/9
