g Newspaper_Sheet
v -0.8111299 2.937464E-08 1.213639
v -0.9452997 2.937464E-08 0.5387162
v -0.2703767 2.937464E-08 0.4045465
v -0.1362069 2.937464E-08 1.079469
v 0.4045464 2.937464E-08 0.2703767
v 0.5387161 2.937464E-08 0.9452997
v 1.079469 2.937464E-08 0.136207
v 1.213639 2.937464E-08 0.8111299
v -0.4045464 2.937464E-08 -0.2703766
v -1.079469 2.937464E-08 -0.1362069
v 0.2703766 2.937464E-08 -0.4045464
v 0.9452997 2.937464E-08 -0.5387161
v -0.5387161 2.937464E-08 -0.9452997
v -1.213639 2.937464E-08 -0.8111299
v 0.1362069 2.937464E-08 -1.079469
v 0.8111299 2.937464E-08 -1.213639
vt 0.3254376 0.6788585
vt 0.3254376 0.7826113
vt 0.4291904 0.7826113
vt 0.4291904 0.6788585
vt 0.5329431 0.7826113
vt 0.5329431 0.6788585
vt 0.6366959 0.7826113
vt 0.6366959 0.6788585
vt 0.4291904 0.886364
vt 0.3254376 0.886364
vt 0.5329431 0.886364
vt 0.6366959 0.886364
vt 0.4291904 0.9901168
vt 0.3254376 0.9901168
vt 0.5329431 0.9901168
vt 0.6366959 0.9901168
vn 0 1 1.031168E-07
vn 0 1 0
vn 0 1 0
vn 0 1 0
vn 0 1 0
vn 0 1 0
vn 0 1 0
vn 0 1 0
vn 0 1 0
vn 0 1 0
vn 0 1 0
vn 0 1 0
vn 0 1 0
vn 0 1 -1.031168E-07
vn 0 1 0
vn 0 1 0
g Newspaper_Sheet_0
f 3/3/3 2/2/2 1/1/1
f 4/4/4 3/3/3 1/1/1
f 5/5/5 3/3/3 4/4/4
f 6/6/6 5/5/5 4/4/4
f 7/7/7 5/5/5 6/6/6
f 8/8/8 7/7/7 6/6/6
f 3/3/3 9/9/9 2/2/2
f 9/9/9 10/10/10 2/2/2
f 11/11/11 9/9/9 3/3/3
f 5/5/5 11/11/11 3/3/3
f 12/12/12 11/11/11 5/5/5
f 7/7/7 12/12/12 5/5/5
f 9/9/9 13/13/13 10/10/10
f 13/13/13 14/14/14 10/10/10
f 15/15/15 13/13/13 9/9/9
f 11/11/11 15/15/15 9/9/9
f 16/16/16 15/15/15 11/11/11
f 12/12/12 16/16/16 11/11/11
