g polySurface58
v -0.2893276 -0.1945622 -0.2539716
v -0.7150347 -0.1945622 0.2322256
v -0.2893276 -0.1945622 0.7184229
v -0.2893276 -0.1945622 0.7184229
v -0.7150347 -0.1945622 0.2322256
v -0.2893276 0.2113276 0.2322256
v -0.2893276 0.2113276 0.2322256
v 0.2893275 0.2113276 0.2322256
v 0.2893276 -0.1945622 0.7184229
v -0.2893276 -0.1945622 0.7184229
v -0.2893276 -0.1945622 0.7184229
v 0.2893276 -0.1945622 0.7184229
v 0.2893276 -0.1945622 -0.2539716
v -0.2893276 -0.1945622 -0.2539716
v -0.2893276 -0.1945622 0.7184229
v -0.2893276 -0.1945622 -0.2539716
v -0.2893276 0.2113276 0.2322256
v 0.2893276 -0.1945622 -0.2539716
v 0.2893276 -0.1945622 0.7184229
v 0.7150347 -0.1945622 0.2322256
v 0.2893276 -0.1945622 0.7184229
v 0.2893275 0.2113276 0.2322256
v 0.7150347 -0.1945622 0.2322256
v -0.2893276 -0.1945622 -0.2539716
v -0.2893276 0.2113276 0.2322256
v -0.7150347 -0.1945622 0.2322256
v -0.2893276 0.2113276 0.2322256
v -0.2893276 -0.1945622 -0.2539716
v 0.2893276 -0.1945622 -0.2539716
v 0.2893275 0.2113276 0.2322256
v 0.2893276 -0.1945622 -0.2539716
v 0.7150347 -0.1945622 0.2322256
v 0.2893275 0.2113276 0.2322256
vt 0.625 0
vt 0.7361111 0.1111111
vt 0.875 0
vt 0.875 0
vt 0.7361111 0.1111111
vt 0.7083333 0.3333333
vt 0.2916667 0.3333333
vt 0.7083333 0.3333333
vt 0.625 0.75
vt 0.375 0.75
vt 0.375 0.75
vt 0.625 0.75
vt 0.625 1
vt 0.375 1
vt 0.125 0
vt 0.375 0
vt 0.2916667 0.3333333
vt 0.625 0
vt 0.875 0
vt 0.7361111 0.1111111
vt 0.875 0
vt 0.7083333 0.3333333
vt 0.7361111 0.1111111
vt 0.75 0
vt 0.7083333 0.3333333
vt 0.7361111 0.1111111
vt 0.2916667 0.3333333
vt 0.375 0.875
vt 0.625 0.875
vt 0.7083333 0.3333333
vt 0.75 0
vt 0.7361111 0.1111111
vt 0.7083333 0.3333333
vn 0 -1 0
vn 0 -1 0
vn 0 -1 0
vn -0.590623 0.6194596 0.5171406
vn -0.590623 0.6194595 0.5171406
vn -0.590623 0.6194595 0.5171406
vn 0 0.7676576 0.6408601
vn 0 0.7676576 0.6408601
vn 0 0.7676577 0.64086
vn 0 0.7676577 0.64086
vn 0 -1 0
vn 0 -1 0
vn 0 -1 0
vn 0 -1 0
vn -1 0 0
vn -1 0 0
vn -1 0 0
vn 0 -1 0
vn 0 -1 0
vn 0 -1 0
vn 0.5906229 0.6194595 0.5171406
vn 0.5906229 0.6194596 0.5171407
vn 0.5906229 0.6194595 0.5171406
vn -0.5906229 0.6194596 -0.5171407
vn -0.5906229 0.6194595 -0.5171406
vn -0.5906229 0.6194595 -0.5171406
vn 0 0.7676576 -0.6408601
vn 0 0.7676577 -0.64086
vn 0 0.7676577 -0.64086
vn 0 0.7676576 -0.6408601
vn 0.590623 0.6194596 -0.5171406
vn 0.5906229 0.6194596 -0.5171406
vn 0.5906229 0.6194596 -0.5171406
g polySurface58_0
f 3/3/3 2/2/2 1/1/1
f 6/6/6 5/5/5 4/4/4
f 9/9/9 8/8/8 7/7/7
f 10/10/10 9/9/9 7/7/7
f 13/13/13 12/12/12 11/11/11
f 14/14/14 13/13/13 11/11/11
f 17/17/17 16/16/16 15/15/15
f 20/20/20 19/19/19 18/18/18
f 23/23/23 22/22/22 21/21/21
f 26/26/26 25/25/25 24/24/24
f 29/29/29 28/28/28 27/27/27
f 30/30/30 29/29/29 27/27/27
f 33/33/33 32/32/32 31/31/31
