g Swirl_03
v 18.51677 -0.133764 47.09195
v 15.49681 -9.074108 44.73152
v 14.51133 -8.492809 40.41722
v 17.37883 -0.121434 42.77766
v 8.066827 -14.0801 38.05679
v 8.635796 -15.07791 42.37108
v -1E-06 -15.61226 35.69635
v 0 -16.76253 40.01064
v -7.444242 -12.98825 33.33591
v -8.013209 -13.98606 37.65021
v -12.35463 -7.220649 30.97548
v -13.34011 -7.801949 35.28977
v -13.64331 -0.080958 28.61504
v -14.78124 -0.093289 32.92934
v -11.27627 6.436147 26.2546
v -12.26176 6.992785 30.5689
v -6.199069 10.66963 23.89417
v -6.768038 11.64278 28.20846
v -5E-06 11.71483 21.53373
v -6E-06 12.84043 25.84803
v 5.576471 9.604774 19.1733
v 6.145439 10.57793 23.48759
v 9.119562 5.217966 16.81286
v 10.10504 5.774604 21.12715
v 9.90778 -0.04047 14.45242
v 11.04572 -0.0528 18.76672
v 8.041216 -4.676321 12.09199
v 9.026698 -5.257618 16.40628
v 4.331309 -7.529016 9.73155
v 4.900279 -8.526828 14.04585
v 9E-06 -8.060255 7.371112
v 1E-05 -9.210523 11.68541
v -3.70871 -6.437178 5.010679
v -4.277678 -7.43499 9.324973
v -5.884503 -3.404172 2.650243
v -6.869984 -3.985472 6.964538
v -6.172256 -6E-06 0.289806
v -7.310191 -0.012337 4.604103
vt 0 0.003444
vt 0 0.058669
vt 1 0.058669
vt 1 0.003444
vt 1 0.113894
vt 0 0.113894
vt 1 0.169119
vt 0 0.169119
vt 1 0.224345
vt 0 0.224345
vt 1 0.27957
vt 0 0.27957
vt 1 0.334795
vt 0 0.334795
vt 1 0.39002
vt 0 0.39002
vt 1 0.445245
vt 0 0.445245
vt 1 0.50047
vt 0 0.50047
vt 1 0.555695
vt 0 0.555695
vt 1 0.61092
vt 0 0.61092
vt 1 0.666145
vt 0 0.666145
vt 1 0.72137
vt 0 0.72137
vt 1 0.776595
vt 0 0.776595
vt 1 0.831821
vt 0 0.831821
vt 1 0.887046
vt 0 0.887046
vt 1 0.942271
vt 0 0.942271
vt 1 0.997496
vt 0 0.997496
vn -0.9358591 0.250763 0.247559
vn -0.8603818 0.4407389 0.2559149
vn -0.8173057 0.5160988 0.256229
vn -0.9358591 0.250763 0.247559
vn -0.448267 0.856122 0.257122
vn -0.5261688 0.8106536 0.2568799
vn 0.041556 0.965412 0.257396
vn -0.052367 0.964921 0.257265
vn 0.5202888 0.8144106 0.2569728
vn 0.4352348 0.8628677 0.2569629
vn 0.8588959 0.443601 0.255961
vn 0.8073451 0.5316331 0.256047
vn 0.9658852 -0.04723201 0.254627
vn 0.9652041 0.059022 0.25475
vn 0.8120687 -0.5257108 0.2533229
vn 0.8667588 -0.4295499 0.2534089
vn 0.4386629 -0.8624797 0.2523959
vn 0.538053 -0.804245 0.252367
vn -0.05359999 -0.9662188 0.252088
vn 0.06649004 -0.9654685 0.2518921
vn -0.531556 -0.80852 0.252475
vn -0.4225039 -0.8705968 0.252095
vn -0.8656331 -0.4317951 0.253441
vn -0.7991767 -0.5453027 0.2529059
vn -0.9650248 0.06204098 0.2547119
vn -0.9641634 -0.07633903 0.2540891
vn -0.8024281 0.5390831 0.255927
vn -0.8746652 0.4120401 0.255311
vn -0.4216008 0.8696766 0.2567399
vn -0.55518 0.79128 0.256225
vn 0.07429098 0.9635767 0.2569059
vn -0.09035602 0.9622942 0.256565
vn 0.5504049 0.7945669 0.256355
vn 0.3976841 0.8810242 0.2562101
vn 0.8766211 0.40793 0.255203
vn 0.7813982 0.5694572 0.2552161
vn 0.9358591 0.250764 0.247558
vn 0.9358591 0.250764 0.247558
g Swirl_03_0
f 3/3/3 2/2/2 1/1/1
f 4/4/4 3/3/3 1/1/1
f 3/3/3 5/5/5 2/2/2
f 5/5/5 6/6/6 2/2/2
f 5/5/5 7/7/7 6/6/6
f 7/7/7 8/8/8 6/6/6
f 7/7/7 9/9/9 8/8/8
f 9/9/9 10/10/10 8/8/8
f 9/9/9 11/11/11 10/10/10
f 11/11/11 12/12/12 10/10/10
f 11/11/11 13/13/13 12/12/12
f 13/13/13 14/14/14 12/12/12
f 13/13/13 15/15/15 14/14/14
f 15/15/15 16/16/16 14/14/14
f 15/15/15 17/17/17 16/16/16
f 17/17/17 18/18/18 16/16/16
f 17/17/17 19/19/19 18/18/18
f 19/19/19 20/20/20 18/18/18
f 19/19/19 21/21/21 20/20/20
f 21/21/21 22/22/22 20/20/20
f 21/21/21 23/23/23 22/22/22
f 23/23/23 24/24/24 22/22/22
f 23/23/23 25/25/25 24/24/24
f 25/25/25 26/26/26 24/24/24
f 25/25/25 27/27/27 26/26/26
f 27/27/27 28/28/28 26/26/26
f 27/27/27 29/29/29 28/28/28
f 29/29/29 30/30/30 28/28/28
f 29/29/29 31/31/31 30/30/30
f 31/31/31 32/32/32 30/30/30
f 31/31/31 33/33/33 32/32/32
f 33/33/33 34/34/34 32/32/32
f 33/33/33 35/35/35 34/34/34
f 35/35/35 36/36/36 34/34/34
f 35/35/35 37/37/37 36/36/36
f 37/37/37 38/38/38 36/36/36
