g WindSwirl_06e
v -18.75987 -1.761917 -11.30928
v 1.994461 -1.825699 -6.531433
v -3.055317 -4.595856 10.3083
v -23.85493 -4.568787 5.856689
v -7.509056 -7.141632 27.64375
v -28.3754 -7.178253 23.80623
v -11.06668 -9.435493 45.09893
v -32.00647 -9.555359 42.11912
v -13.57097 -11.4326 62.68645
v -34.57767 -11.64671 60.74308
v -15.02486 -13.13136 80.37164
v -36.08016 -13.44244 79.5765
v -15.45321 -14.53554 98.10705
v -36.5287 -14.93964 98.51981
v -14.85713 -15.64238 115.8498
v -35.91623 -16.13033 117.4907
v -13.22282 -16.44418 133.5489
v -34.22185 -17.00241 136.4058
v -10.52804 -16.93051 151.1492
v -31.41685 -17.54151 155.1818
v -6.747681 -17.08933 168.5851
v -27.47035 -17.73207 173.7272
v -8.385262 3.760254 -46.03583
v 12.38817 3.718201 -41.48216
v 7.256348 0.958252 -23.91121
v -13.48674 1.027283 -28.7162
v -3.709301 6.37117 -63.37848
v 17.13624 6.38533 -59.31345
v 0.3738232 8.815018 -80.79477
v 21.31666 8.906464 -77.4088
v 3.726406 11.05383 -98.31352
v 24.77327 11.23587 -95.76375
v 6.210546 13.04779 -115.9382
v 27.35357 13.32784 -114.3595
v 7.681712 14.75336 -133.6482
v 28.90025 15.13394 -133.1588
v 7.983019 16.06754 -151.8522
v 29.24453 16.54675 -152.556
v 6.969031 17.05008 -169.5563
v 28.22955 17.62155 -171.543
vt 0 0.2185053
vt 1 0.2185053
vt 1 0.1561832
vt 0 0.1561832
vt 1 0.09417582
vt 0 0.09417582
vt 1 0.03428397
vt 0 0.03428397
vt 1 -0.0222176
vt 0 -0.0222176
vt 1 -0.07563636
vt 0 -0.07563636
vt 1 -0.1267477
vt 0 -0.1267477
vt 1 -0.1760884
vt 0 -0.1760884
vt 1 -0.2240184
vt 0 -0.2240184
vt 1 -0.2707903
vt 0 -0.2707903
vt 1 -0.3165666
vt 0 -0.3165666
vt 0 0.3373975
vt 1 0.3373975
vt 1 0.2793669
vt 0 0.2793669
vt 0 0.3919572
vt 1 0.3919572
vt 0 0.4437268
vt 1 0.4437268
vt 0 0.4936102
vt 1 0.4936102
vt 0 0.5421995
vt 1 0.5421995
vt 0 0.5898895
vt 1 0.5898895
vt 0 0.6369269
vt 1 0.6369269
vt 0 0.6834334
vt 1 0.6834334
vn -0.03147691 0.9880683 0.1507659
vn -0.03145634 0.9880917 0.1506161
vn -0.02971917 0.9889432 0.1452861
vn -0.02956784 0.9890282 0.1447376
vn -0.02587968 0.9909974 0.1313557
vn -0.02578521 0.9910453 0.1310126
vn -0.02242796 0.9928601 0.1171566
vn -0.02236919 0.9928938 0.1168828
vn -0.01965225 0.9946279 0.1016329
vn -0.01962595 0.9946472 0.1014477
vn -0.01808775 0.996116 0.08617178
vn -0.01807868 0.9961295 0.08601747
vn -0.01784112 0.9973305 0.07080676
vn -0.0178455 0.9973418 0.07064635
vn -0.01890302 0.9982899 0.05531616
vn -0.01892175 0.9982991 0.05514578
vn -0.02122124 0.998991 0.03958276
vn -0.02125066 0.9989966 0.03942345
vn -0.02469684 0.9994175 0.02354837
vn -0.02472347 0.9994195 0.02344124
vn -0.0267107 0.9995239 0.01544163
vn -0.0267107 0.9995239 0.01544163
vn -0.02950436 0.9891517 0.1439042
vn -0.02943475 0.9891846 0.1436918
vn -0.03080982 0.988542 0.1477687
vn -0.03084039 0.9885284 0.1478524
vn -0.02735526 0.9902204 0.136803
vn -0.02727598 0.9902613 0.1365237
vn -0.02494374 0.9915473 0.1273258
vn -0.02486947 0.9915906 0.1270023
vn -0.0226548 0.9930307 0.1156582
vn -0.02259597 0.993073 0.1153054
vn -0.02085515 0.99459 0.1017632
vn -0.02082083 0.9946272 0.1014063
vn -0.01996981 0.9963426 0.08308179
vn -0.01996452 0.9963756 0.08268612
vn -0.02042317 0.9976956 0.06470127
vn -0.02043523 0.9977049 0.06455538
vn -0.02104849 0.9981447 0.05713205
vn -0.02104849 0.9981447 0.05713204
g WindSwirl_06e_0
f 3/3/3 2/2/2 1/1/1
f 4/4/4 3/3/3 1/1/1
f 5/5/5 3/3/3 4/4/4
f 6/6/6 5/5/5 4/4/4
f 7/7/7 5/5/5 6/6/6
f 8/8/8 7/7/7 6/6/6
f 9/9/9 7/7/7 8/8/8
f 10/10/10 9/9/9 8/8/8
f 11/11/11 9/9/9 10/10/10
f 12/12/12 11/11/11 10/10/10
f 13/13/13 11/11/11 12/12/12
f 14/14/14 13/13/13 12/12/12
f 15/15/15 13/13/13 14/14/14
f 16/16/16 15/15/15 14/14/14
f 17/17/17 15/15/15 16/16/16
f 18/18/18 17/17/17 16/16/16
f 19/19/19 17/17/17 18/18/18
f 20/20/20 19/19/19 18/18/18
f 21/21/21 19/19/19 20/20/20
f 22/22/22 21/21/21 20/20/20
f 25/25/25 24/24/24 23/23/23
f 26/26/26 25/25/25 23/23/23
f 2/2/2 25/25/25 26/26/26
f 1/1/1 2/2/2 26/26/26
f 23/23/23 24/24/24 27/27/27
f 24/24/24 28/28/28 27/27/27
f 27/27/27 28/28/28 29/29/29
f 28/28/28 30/30/30 29/29/29
f 29/29/29 30/30/30 31/31/31
f 30/30/30 32/32/32 31/31/31
f 31/31/31 32/32/32 33/33/33
f 32/32/32 34/34/34 33/33/33
f 33/33/33 34/34/34 35/35/35
f 34/34/34 36/36/36 35/35/35
f 35/35/35 36/36/36 37/37/37
f 36/36/36 38/38/38 37/37/37
f 37/37/37 38/38/38 39/39/39
f 38/38/38 40/40/40 39/39/39
